%TF.GenerationSoftware,KiCad,Pcbnew,(6.0.0-0)*%
%TF.CreationDate,2022-03-04T22:46:29-08:00*%
%TF.ProjectId,bitaxe,62697461-7865-42e6-9b69-6361645f7063,rev?*%
%TF.SameCoordinates,Original*%
%TF.FileFunction,Copper,L1,Top*%
%TF.FilePolarity,Positive*%
%FSLAX46Y46*%
G04 Gerber Fmt 4.6, Leading zero omitted, Abs format (unit mm)*
G04 Created by KiCad (PCBNEW (6.0.0-0)) date 2022-03-04 22:46:29*
%MOMM*%
%LPD*%
G01*
G04 APERTURE LIST*
G04 Aperture macros list*
%AMRoundRect*
0 Rectangle with rounded corners*
0 $1 Rounding radius*
0 $2 $3 $4 $5 $6 $7 $8 $9 X,Y pos of 4 corners*
0 Add a 4 corners polygon primitive as box body*
4,1,4,$2,$3,$4,$5,$6,$7,$8,$9,$2,$3,0*
0 Add four circle primitives for the rounded corners*
1,1,$1+$1,$2,$3*
1,1,$1+$1,$4,$5*
1,1,$1+$1,$6,$7*
1,1,$1+$1,$8,$9*
0 Add four rect primitives between the rounded corners*
20,1,$1+$1,$2,$3,$4,$5,0*
20,1,$1+$1,$4,$5,$6,$7,0*
20,1,$1+$1,$6,$7,$8,$9,0*
20,1,$1+$1,$8,$9,$2,$3,0*%
%AMFreePoly0*
4,1,20,0.000000,0.744959,0.073905,0.744508,0.209726,0.703889,0.328688,0.626782,0.421226,0.519385,0.479903,0.390333,0.500000,0.250000,0.500000,-0.250000,0.499851,-0.262216,0.476331,-0.402017,0.414519,-0.529596,0.319384,-0.634700,0.198574,-0.708877,0.061801,-0.746166,0.000000,-0.745033,0.000000,-0.750000,-0.500000,-0.750000,-0.500000,0.750000,0.000000,0.750000,0.000000,0.744959,
0.000000,0.744959,$1*%
%AMFreePoly1*
4,1,22,0.500000,-0.750000,0.000000,-0.750000,0.000000,-0.745033,-0.079941,-0.743568,-0.215256,-0.701293,-0.333266,-0.622738,-0.424486,-0.514219,-0.481581,-0.384460,-0.499164,-0.250000,-0.500000,-0.250000,-0.500000,0.250000,-0.499164,0.250000,-0.499963,0.256109,-0.478152,0.396186,-0.417904,0.524511,-0.324060,0.630769,-0.204165,0.706417,-0.067858,0.745374,0.000000,0.744959,0.000000,0.750000,
0.500000,0.750000,0.500000,-0.750000,0.500000,-0.750000,$1*%
G04 Aperture macros list end*
%TA.AperFunction,SMDPad,CuDef*%
%ADD10FreePoly0,270.000000*%
%TD*%
%TA.AperFunction,SMDPad,CuDef*%
%ADD11FreePoly1,270.000000*%
%TD*%
%TA.AperFunction,SMDPad,CuDef*%
%ADD12FreePoly0,0.000000*%
%TD*%
%TA.AperFunction,SMDPad,CuDef*%
%ADD13FreePoly1,0.000000*%
%TD*%
%TA.AperFunction,SMDPad,CuDef*%
%ADD14R,0.700000X0.900000*%
%TD*%
%TA.AperFunction,SMDPad,CuDef*%
%ADD15R,0.900000X0.700000*%
%TD*%
%TA.AperFunction,SMDPad,CuDef*%
%ADD16R,0.660000X1.000000*%
%TD*%
%TA.AperFunction,SMDPad,CuDef*%
%ADD17C,1.500000*%
%TD*%
%TA.AperFunction,ComponentPad*%
%ADD18R,1.700000X1.700000*%
%TD*%
%TA.AperFunction,ComponentPad*%
%ADD19O,1.700000X1.700000*%
%TD*%
%TA.AperFunction,SMDPad,CuDef*%
%ADD20RoundRect,0.250000X-1.025000X0.875000X-1.025000X-0.875000X1.025000X-0.875000X1.025000X0.875000X0*%
%TD*%
%TA.AperFunction,SMDPad,CuDef*%
%ADD21R,0.750000X0.700000*%
%TD*%
%TA.AperFunction,ViaPad*%
%ADD22C,0.800000*%
%TD*%
%TA.AperFunction,ViaPad*%
%ADD23C,1.000000*%
%TD*%
%TA.AperFunction,Conductor*%
%ADD24C,0.254000*%
%TD*%
%TA.AperFunction,Conductor*%
%ADD25C,0.508000*%
%TD*%
%TA.AperFunction,Conductor*%
%ADD26C,1.000000*%
%TD*%
G04 APERTURE END LIST*
%TO.C,JP8*%
G36*
X83640000Y-96900000D02*
G01*
X83240000Y-96900000D01*
X83240000Y-96400000D01*
X83640000Y-96400000D01*
X83640000Y-96900000D01*
G37*
G36*
X84440000Y-96900000D02*
G01*
X84040000Y-96900000D01*
X84040000Y-96400000D01*
X84440000Y-96400000D01*
X84440000Y-96900000D01*
G37*
%TO.C,JP7*%
G36*
X87353333Y-96900000D02*
G01*
X86953333Y-96900000D01*
X86953333Y-96400000D01*
X87353333Y-96400000D01*
X87353333Y-96900000D01*
G37*
G36*
X88153333Y-96900000D02*
G01*
X87753333Y-96900000D01*
X87753333Y-96400000D01*
X88153333Y-96400000D01*
X88153333Y-96900000D01*
G37*
%TO.C,JP6*%
G36*
X91066666Y-96900000D02*
G01*
X90666666Y-96900000D01*
X90666666Y-96400000D01*
X91066666Y-96400000D01*
X91066666Y-96900000D01*
G37*
G36*
X91866666Y-96900000D02*
G01*
X91466666Y-96900000D01*
X91466666Y-96400000D01*
X91866666Y-96400000D01*
X91866666Y-96900000D01*
G37*
%TO.C,JP5*%
G36*
X95580000Y-96900000D02*
G01*
X95180000Y-96900000D01*
X95180000Y-96400000D01*
X95580000Y-96400000D01*
X95580000Y-96900000D01*
G37*
G36*
X94780000Y-96900000D02*
G01*
X94380000Y-96900000D01*
X94380000Y-96400000D01*
X94780000Y-96400000D01*
X94780000Y-96900000D01*
G37*
%TO.C,JP4*%
G36*
X64670000Y-74976667D02*
G01*
X64170000Y-74976667D01*
X64170000Y-74576667D01*
X64670000Y-74576667D01*
X64670000Y-74976667D01*
G37*
G36*
X64670000Y-74176667D02*
G01*
X64170000Y-74176667D01*
X64170000Y-73776667D01*
X64670000Y-73776667D01*
X64670000Y-74176667D01*
G37*
%TO.C,JP3*%
G36*
X64670000Y-72363333D02*
G01*
X64170000Y-72363333D01*
X64170000Y-71963333D01*
X64670000Y-71963333D01*
X64670000Y-72363333D01*
G37*
G36*
X64670000Y-71563333D02*
G01*
X64170000Y-71563333D01*
X64170000Y-71163333D01*
X64670000Y-71163333D01*
X64670000Y-71563333D01*
G37*
%TO.C,JP2*%
G36*
X64670000Y-69750000D02*
G01*
X64170000Y-69750000D01*
X64170000Y-69350000D01*
X64670000Y-69350000D01*
X64670000Y-69750000D01*
G37*
G36*
X64670000Y-68950000D02*
G01*
X64170000Y-68950000D01*
X64170000Y-68550000D01*
X64670000Y-68550000D01*
X64670000Y-68950000D01*
G37*
%TO.C,JP1*%
G36*
X64670000Y-67136667D02*
G01*
X64170000Y-67136667D01*
X64170000Y-66736667D01*
X64670000Y-66736667D01*
X64670000Y-67136667D01*
G37*
G36*
X64670000Y-66336667D02*
G01*
X64170000Y-66336667D01*
X64170000Y-65936667D01*
X64670000Y-65936667D01*
X64670000Y-66336667D01*
G37*
%TD*%
D10*
%TO.P,JP8,2,B*%
%TO.N,GND*%
X83840000Y-97300000D03*
D11*
%TO.P,JP8,1,A*%
%TO.N,Net-(IC2-Pad23)*%
X83840000Y-96000000D03*
%TD*%
D10*
%TO.P,JP7,2,B*%
%TO.N,GND*%
X87553333Y-97300000D03*
D11*
%TO.P,JP7,1,A*%
%TO.N,Net-(IC2-Pad22)*%
X87553333Y-96000000D03*
%TD*%
D10*
%TO.P,JP6,2,B*%
%TO.N,GND*%
X91266666Y-97300000D03*
D11*
%TO.P,JP6,1,A*%
%TO.N,Net-(IC2-Pad21)*%
X91266666Y-96000000D03*
%TD*%
%TO.P,JP5,1,A*%
%TO.N,Net-(IC2-Pad20)*%
X94980000Y-96000000D03*
D10*
%TO.P,JP5,2,B*%
%TO.N,GND*%
X94980000Y-97300000D03*
%TD*%
D12*
%TO.P,JP4,2,B*%
%TO.N,Net-(IC1-Pad20)*%
X65070000Y-74376667D03*
D13*
%TO.P,JP4,1,A*%
%TO.N,/A*%
X63770000Y-74376667D03*
%TD*%
D12*
%TO.P,JP3,2,B*%
%TO.N,Net-(IC1-Pad21)*%
X65070000Y-71763333D03*
D13*
%TO.P,JP3,1,A*%
%TO.N,/A*%
X63770000Y-71763333D03*
%TD*%
D12*
%TO.P,JP2,2,B*%
%TO.N,Net-(IC1-Pad22)*%
X65070000Y-69150000D03*
D13*
%TO.P,JP2,1,A*%
%TO.N,/A*%
X63770000Y-69150000D03*
%TD*%
D12*
%TO.P,JP1,2,B*%
%TO.N,Net-(IC1-Pad23)*%
X65070000Y-66536667D03*
D13*
%TO.P,JP1,1,A*%
%TO.N,/A*%
X63770000Y-66536667D03*
%TD*%
D14*
%TO.P,R30,1*%
%TO.N,Net-(IC1-Pad10)*%
X102100000Y-67902000D03*
%TO.P,R30,2*%
%TO.N,/0V8_1*%
X103400000Y-67902000D03*
%TD*%
D15*
%TO.P,C7,1,1*%
%TO.N,/A*%
X96100000Y-82510000D03*
%TO.P,C7,2,2*%
%TO.N,GND*%
X96100000Y-83810000D03*
%TD*%
D14*
%TO.P,C1,1,1*%
%TO.N,/1V8_2*%
X103340000Y-92210000D03*
%TO.P,C1,2,2*%
%TO.N,GND*%
X104640000Y-92210000D03*
%TD*%
%TO.P,R6,1*%
%TO.N,Net-(C3-Pad1)*%
X73140000Y-69040000D03*
%TO.P,R6,2*%
%TO.N,Net-(IC1-Pad25)*%
X74440000Y-69040000D03*
%TD*%
D15*
%TO.P,R14,1,1*%
%TO.N,Net-(C8-Pad1)*%
X80300000Y-84680000D03*
%TO.P,R14,2,2*%
%TO.N,Net-(C11-Pad1)*%
X80300000Y-85980000D03*
%TD*%
D16*
%TO.P,IC3,5,VOUT*%
%TO.N,/1V8_2*%
X111370000Y-91725000D03*
%TO.P,IC3,4*%
%TO.N,N/C*%
X109470000Y-91725000D03*
%TO.P,IC3,3,EN*%
%TO.N,/5V*%
X109470000Y-89095000D03*
%TO.P,IC3,2,GND*%
%TO.N,GND*%
X110420000Y-89095000D03*
%TO.P,IC3,1,VIN*%
%TO.N,/5V*%
X111370000Y-89095000D03*
%TD*%
D14*
%TO.P,R5,1*%
%TO.N,Net-(C3-Pad2)*%
X99490000Y-75880000D03*
%TO.P,R5,2*%
%TO.N,Net-(IC2-Pad6)*%
X100790000Y-75880000D03*
%TD*%
%TO.P,C3,1,1*%
%TO.N,Net-(C3-Pad1)*%
X73130000Y-72310000D03*
%TO.P,C3,2,2*%
%TO.N,Net-(C3-Pad2)*%
X74430000Y-72310000D03*
%TD*%
D17*
%TO.P,TP15,1,1*%
%TO.N,GND*%
X95040000Y-91100000D03*
%TD*%
D15*
%TO.P,C22,1,1*%
%TO.N,/1V8_1*%
X114500000Y-71650000D03*
%TO.P,C22,2,2*%
%TO.N,/A*%
X114500000Y-70350000D03*
%TD*%
D17*
%TO.P,TP4,1,1*%
%TO.N,/0V8_1*%
X116760000Y-63400000D03*
%TD*%
D14*
%TO.P,R16,1*%
%TO.N,Net-(IC2-Pad32)*%
X72100000Y-80540000D03*
%TO.P,R16,2*%
%TO.N,/1V8_2*%
X70800000Y-80540000D03*
%TD*%
%TO.P,R29,1*%
%TO.N,Net-(IC1-Pad9)*%
X102100000Y-66400000D03*
%TO.P,R29,2*%
%TO.N,/0V8_1*%
X103400000Y-66400000D03*
%TD*%
%TO.P,R24,1*%
%TO.N,/1V8_2*%
X103190000Y-88818000D03*
%TO.P,R24,2*%
%TO.N,Net-(IC2-Pad13)*%
X101890000Y-88818000D03*
%TD*%
D17*
%TO.P,TP5,1,1*%
%TO.N,Net-(C3-Pad1)*%
X75760000Y-75430000D03*
%TD*%
D14*
%TO.P,R31,1*%
%TO.N,Net-(IC1-Pad11)*%
X102100000Y-69404000D03*
%TO.P,R31,2*%
%TO.N,/1V8_1*%
X103400000Y-69404000D03*
%TD*%
D15*
%TO.P,C6,1,1*%
%TO.N,/VIN*%
X84120000Y-65190000D03*
%TO.P,C6,2,2*%
%TO.N,/A*%
X84120000Y-66490000D03*
%TD*%
D18*
%TO.P,J3,1,Pin_1*%
%TO.N,/1V8_2*%
X74960000Y-104860000D03*
D19*
%TO.P,J3,2,Pin_2*%
%TO.N,/CI*%
X77500000Y-104860000D03*
%TO.P,J3,3,Pin_3*%
%TO.N,/RO*%
X80040000Y-104860000D03*
%TO.P,J3,4,Pin_4*%
%TO.N,/RST_N*%
X82580000Y-104860000D03*
%TO.P,J3,5,Pin_5*%
%TO.N,GND*%
X85120000Y-104860000D03*
%TD*%
D14*
%TO.P,R10,1*%
%TO.N,Net-(IC2-Pad29)*%
X72100000Y-85287500D03*
%TO.P,R10,2*%
%TO.N,GND*%
X70800000Y-85287500D03*
%TD*%
D17*
%TO.P,TP16,1,1*%
%TO.N,Net-(IC2-Pad16)*%
X98030000Y-96770000D03*
%TD*%
D14*
%TO.P,R27,1*%
%TO.N,/0V8_2*%
X103190000Y-84282000D03*
%TO.P,R27,2*%
%TO.N,Net-(IC2-Pad10)*%
X101890000Y-84282000D03*
%TD*%
%TO.P,R4,1*%
%TO.N,/1V8_1*%
X73140000Y-67433332D03*
%TO.P,R4,2*%
%TO.N,Net-(IC1-Pad26)*%
X74440000Y-67433332D03*
%TD*%
%TO.P,R34,1*%
%TO.N,Net-(IC1-Pad14)*%
X102100000Y-73910000D03*
%TO.P,R34,2*%
%TO.N,/1V8_1*%
X103400000Y-73910000D03*
%TD*%
D18*
%TO.P,J4,1,Pin_1*%
%TO.N,GND*%
X104850000Y-52790000D03*
D19*
%TO.P,J4,2,Pin_2*%
%TO.N,/5V*%
X107390000Y-52790000D03*
%TD*%
D14*
%TO.P,R33,1*%
%TO.N,Net-(IC1-Pad13)*%
X102100000Y-72408000D03*
%TO.P,R33,2*%
%TO.N,/1V8_1*%
X103400000Y-72408000D03*
%TD*%
%TO.P,R32,1*%
%TO.N,Net-(IC1-Pad12)*%
X102100000Y-70906000D03*
%TO.P,R32,2*%
%TO.N,/1V8_1*%
X103400000Y-70906000D03*
%TD*%
D17*
%TO.P,TP19,1,1*%
%TO.N,Net-(IC1-Pad16)*%
X109370000Y-75590000D03*
%TD*%
D14*
%TO.P,R25,1*%
%TO.N,/1V8_2*%
X103190000Y-87306000D03*
%TO.P,R25,2*%
%TO.N,Net-(IC2-Pad12)*%
X101890000Y-87306000D03*
%TD*%
D15*
%TO.P,C16,1,1*%
%TO.N,/A*%
X82680000Y-82510000D03*
%TO.P,C16,2,2*%
%TO.N,GND*%
X82680000Y-83810000D03*
%TD*%
D17*
%TO.P,TP3,1,1*%
%TO.N,/1V8_1*%
X116860000Y-76670000D03*
%TD*%
D14*
%TO.P,R22,1,1*%
%TO.N,/A*%
X113970000Y-67510000D03*
%TO.P,R22,2,2*%
%TO.N,/0V8_1*%
X115270000Y-67510000D03*
%TD*%
D17*
%TO.P,TP8,1,1*%
%TO.N,Net-(IC1-Pad32)*%
X80380000Y-61400000D03*
%TD*%
D20*
%TO.P,C18,1,1*%
%TO.N,/A*%
X89320000Y-79680000D03*
%TO.P,C18,2,2*%
%TO.N,GND*%
X89320000Y-86080000D03*
%TD*%
D14*
%TO.P,R28,1*%
%TO.N,/0V8_2*%
X103190000Y-82770000D03*
%TO.P,R28,2*%
%TO.N,Net-(IC2-Pad9)*%
X101890000Y-82770000D03*
%TD*%
D16*
%TO.P,IC4,1,VIN*%
%TO.N,/5V*%
X112040000Y-69815000D03*
%TO.P,IC4,2,GND*%
%TO.N,/A*%
X111090000Y-69815000D03*
%TO.P,IC4,3,EN*%
%TO.N,/5V*%
X110140000Y-69815000D03*
%TO.P,IC4,4*%
%TO.N,N/C*%
X110140000Y-72445000D03*
%TO.P,IC4,5,VOUT*%
%TO.N,/1V8_1*%
X112040000Y-72445000D03*
%TD*%
D14*
%TO.P,R2,1*%
%TO.N,/1V8_1*%
X73140000Y-64220000D03*
%TO.P,R2,2*%
%TO.N,Net-(IC1-Pad31)*%
X74440000Y-64220000D03*
%TD*%
D15*
%TO.P,C10,1,1*%
%TO.N,/A*%
X84090000Y-82510000D03*
%TO.P,C10,2,2*%
%TO.N,GND*%
X84090000Y-83810000D03*
%TD*%
D14*
%TO.P,R26,1*%
%TO.N,/1V8_2*%
X103190000Y-85794000D03*
%TO.P,R26,2*%
%TO.N,Net-(IC2-Pad11)*%
X101890000Y-85794000D03*
%TD*%
%TO.P,C11,1,1*%
%TO.N,Net-(C11-Pad1)*%
X78370000Y-87810000D03*
%TO.P,C11,2,2*%
%TO.N,GND*%
X77070000Y-87810000D03*
%TD*%
%TO.P,R23,1*%
%TO.N,/1V8_2*%
X103190000Y-90330000D03*
%TO.P,R23,2*%
%TO.N,Net-(IC2-Pad14)*%
X101890000Y-90330000D03*
%TD*%
%TO.P,R12,1*%
%TO.N,Net-(IC1-Pad3)*%
X100020000Y-61250000D03*
%TO.P,R12,2*%
%TO.N,/1V8_1*%
X101320000Y-61250000D03*
%TD*%
D15*
%TO.P,C14,1,1*%
%TO.N,/A*%
X94690000Y-82480000D03*
%TO.P,C14,2,2*%
%TO.N,GND*%
X94690000Y-83780000D03*
%TD*%
D17*
%TO.P,TP7,1,1*%
%TO.N,Net-(IC1-Pad30)*%
X77130000Y-61400000D03*
%TD*%
D15*
%TO.P,R19,2,2*%
%TO.N,/1V8_2*%
X115160000Y-91060000D03*
%TO.P,R19,1,1*%
%TO.N,/0V8_2*%
X115160000Y-89760000D03*
%TD*%
D17*
%TO.P,TP13,1,1*%
%TO.N,/RO*%
X79830000Y-101730000D03*
%TD*%
D14*
%TO.P,C26,1,1*%
%TO.N,/0V8_1*%
X115270000Y-65980000D03*
%TO.P,C26,2,2*%
%TO.N,/A*%
X113970000Y-65980000D03*
%TD*%
D20*
%TO.P,C17,1,1*%
%TO.N,/VIN*%
X89310000Y-62970000D03*
%TO.P,C17,2,2*%
%TO.N,/A*%
X89310000Y-69370000D03*
%TD*%
D14*
%TO.P,C19,2,2*%
%TO.N,GND*%
X109220000Y-87050000D03*
%TO.P,C19,1,1*%
%TO.N,/5V*%
X110520000Y-87050000D03*
%TD*%
D15*
%TO.P,R21,1,1*%
%TO.N,/0V8_1*%
X116080000Y-70350000D03*
%TO.P,R21,2,2*%
%TO.N,/1V8_1*%
X116080000Y-71650000D03*
%TD*%
%TO.P,C15,2,2*%
%TO.N,/A*%
X82660000Y-66510000D03*
%TO.P,C15,1,1*%
%TO.N,/VIN*%
X82660000Y-65210000D03*
%TD*%
D14*
%TO.P,C4,1,1*%
%TO.N,/1V8_1*%
X103590000Y-75600000D03*
%TO.P,C4,2,2*%
%TO.N,/A*%
X104890000Y-75600000D03*
%TD*%
D21*
%TO.P,Y1,P$1,P$1*%
%TO.N,Net-(C8-Pad1)*%
X77410000Y-84775000D03*
%TO.P,Y1,P$2*%
%TO.N,N/C*%
X77410000Y-86125000D03*
%TO.P,Y1,P$3,P$2*%
%TO.N,Net-(C11-Pad1)*%
X78410000Y-86125000D03*
%TO.P,Y1,P$4*%
%TO.N,N/C*%
X78410000Y-84775000D03*
%TD*%
D14*
%TO.P,R9,1*%
%TO.N,Net-(IC2-Pad27)*%
X72100000Y-86870000D03*
%TO.P,R9,2*%
%TO.N,/1V8_2*%
X70800000Y-86870000D03*
%TD*%
D17*
%TO.P,TP9,1,1*%
%TO.N,Net-(IC1-Pad27)*%
X70600000Y-61430000D03*
%TD*%
D18*
%TO.P,J2,1,Pin_1*%
%TO.N,GND*%
X87990000Y-52780000D03*
D19*
%TO.P,J2,2,Pin_2*%
%TO.N,/VIN*%
X90530000Y-52780000D03*
%TD*%
D14*
%TO.P,R3,1*%
%TO.N,/1V8_1*%
X73140000Y-65826666D03*
%TO.P,R3,2*%
%TO.N,Net-(IC1-Pad29)*%
X74440000Y-65826666D03*
%TD*%
D17*
%TO.P,TP14,1,1*%
%TO.N,/RST_N*%
X82610000Y-101700000D03*
%TD*%
D15*
%TO.P,C9,1,1*%
%TO.N,/VIN*%
X95930000Y-65210000D03*
%TO.P,C9,2,2*%
%TO.N,/A*%
X95930000Y-66510000D03*
%TD*%
%TO.P,C12,1,1*%
%TO.N,/VIN*%
X94490000Y-65190000D03*
%TO.P,C12,2,2*%
%TO.N,/A*%
X94490000Y-66490000D03*
%TD*%
D14*
%TO.P,R1,1*%
%TO.N,GND*%
X99830000Y-80110000D03*
%TO.P,R1,2*%
%TO.N,Net-(IC2-Pad4)*%
X101130000Y-80110000D03*
%TD*%
D17*
%TO.P,TP10,1,1*%
%TO.N,/A*%
X98490000Y-71780000D03*
%TD*%
D14*
%TO.P,C2,1,1*%
%TO.N,/0V8_2*%
X103200000Y-80960000D03*
%TO.P,C2,2,2*%
%TO.N,GND*%
X104500000Y-80960000D03*
%TD*%
%TO.P,C25,2,2*%
%TO.N,GND*%
X113680000Y-85390000D03*
%TO.P,C25,1,1*%
%TO.N,/0V8_2*%
X114980000Y-85390000D03*
%TD*%
%TO.P,C20,1,1*%
%TO.N,/5V*%
X111170000Y-67530000D03*
%TO.P,C20,2,2*%
%TO.N,/A*%
X109870000Y-67530000D03*
%TD*%
%TO.P,C5,1,1*%
%TO.N,/0V8_1*%
X103430000Y-64800000D03*
%TO.P,C5,2,2*%
%TO.N,/A*%
X104730000Y-64800000D03*
%TD*%
D17*
%TO.P,TP6,1,1*%
%TO.N,Net-(IC1-Pad28)*%
X73880000Y-61430000D03*
%TD*%
D14*
%TO.P,R13,1*%
%TO.N,Net-(IC1-Pad4)*%
X100000000Y-62950000D03*
%TO.P,R13,2*%
%TO.N,/1V8_1*%
X101300000Y-62950000D03*
%TD*%
D17*
%TO.P,TP18,1,1*%
%TO.N,Net-(IC1-Pad15)*%
X112960000Y-78240000D03*
%TD*%
D14*
%TO.P,C8,1,1*%
%TO.N,Net-(C8-Pad1)*%
X77350000Y-82880000D03*
%TO.P,C8,2,2*%
%TO.N,GND*%
X78650000Y-82880000D03*
%TD*%
%TO.P,R11,1*%
%TO.N,Net-(IC2-Pad31)*%
X72100000Y-82122500D03*
%TO.P,R11,2*%
%TO.N,/RST_N*%
X70800000Y-82122500D03*
%TD*%
D17*
%TO.P,TP11,1,1*%
%TO.N,/VIN*%
X95450000Y-59300000D03*
%TD*%
%TO.P,TP2,1,1*%
%TO.N,/0V8_2*%
X116760000Y-82380000D03*
%TD*%
%TO.P,TP17,1,1*%
%TO.N,Net-(IC2-Pad15)*%
X101910000Y-96810000D03*
%TD*%
D18*
%TO.P,J5,1,Pin_1*%
%TO.N,GND*%
X63610000Y-89540000D03*
D19*
%TO.P,J5,2,Pin_2*%
%TO.N,/5V*%
X63610000Y-92080000D03*
%TO.P,J5,3,Pin_3*%
%TO.N,/PWM*%
X63610000Y-94620000D03*
%TD*%
D17*
%TO.P,TP1,1,1*%
%TO.N,/1V8_2*%
X117060000Y-94720000D03*
%TD*%
%TO.P,TP12,1,1*%
%TO.N,/CI*%
X79770000Y-98320000D03*
%TD*%
D15*
%TO.P,C21,2,2*%
%TO.N,GND*%
X113560000Y-89750000D03*
%TO.P,C21,1,1*%
%TO.N,/1V8_2*%
X113560000Y-91050000D03*
%TD*%
D14*
%TO.P,R15,1*%
%TO.N,Net-(IC2-Pad30)*%
X72100000Y-83705000D03*
%TO.P,R15,2*%
%TO.N,/1V8_2*%
X70800000Y-83705000D03*
%TD*%
D17*
%TO.P,TP20,1,1*%
%TO.N,/PWM*%
X66820000Y-94450000D03*
%TD*%
D14*
%TO.P,R20,2,2*%
%TO.N,/0V8_2*%
X115000000Y-86970000D03*
%TO.P,R20,1,1*%
%TO.N,GND*%
X113700000Y-86970000D03*
%TD*%
D22*
%TO.N,/0V8_1*%
X99520000Y-65860000D03*
%TO.N,Net-(IC1-Pad16)*%
X107660000Y-75920000D03*
%TO.N,Net-(IC1-Pad15)*%
X112950000Y-76540000D03*
%TO.N,Net-(IC2-Pad15)*%
X101450000Y-95110000D03*
%TO.N,Net-(IC2-Pad16)*%
X97910000Y-94900000D03*
%TO.N,/A*%
X82640000Y-70780000D03*
%TO.N,GND*%
X69470000Y-85250000D03*
D23*
X80300000Y-80560000D03*
X75910000Y-88290000D03*
X99070000Y-78830000D03*
X105850000Y-80960000D03*
X106290000Y-92260000D03*
%TO.N,/1V8_1*%
X104720000Y-69430000D03*
X101650000Y-64360000D03*
%TO.N,/A*%
X106220000Y-75610000D03*
D22*
%TO.N,GND*%
X89380000Y-98730000D03*
%TO.N,/A*%
X61440000Y-70480000D03*
%TO.N,Net-(IC1-Pad20)*%
X66980000Y-74456667D03*
%TO.N,Net-(IC1-Pad21)*%
X66980000Y-71766667D03*
%TO.N,Net-(IC1-Pad22)*%
X66960000Y-69176667D03*
%TO.N,Net-(IC1-Pad23)*%
X66940000Y-66496667D03*
%TO.N,Net-(IC2-Pad20)*%
X93290000Y-94580000D03*
%TO.N,Net-(IC2-Pad21)*%
X89700000Y-94340000D03*
%TO.N,Net-(IC2-Pad22)*%
X85970000Y-95150000D03*
%TO.N,Net-(IC2-Pad23)*%
X81990000Y-95280000D03*
%TO.N,GND*%
X83160000Y-88210000D03*
%TO.N,/0V8_2*%
X102020000Y-81400000D03*
%TO.N,GND*%
X97900000Y-84060000D03*
%TO.N,/A*%
X97930000Y-66310000D03*
D23*
X107950000Y-66510000D03*
%TO.N,GND*%
X112020000Y-85090000D03*
X108060000Y-88040000D03*
%TO.N,/A*%
X112200000Y-66580000D03*
X108730000Y-68440000D03*
D22*
%TO.N,/VIN*%
X91800000Y-64570000D03*
X87990000Y-64570000D03*
X86780000Y-64570000D03*
X90500000Y-64570000D03*
X89250000Y-64570000D03*
%TO.N,/A*%
X86710000Y-66700000D03*
X87990000Y-82050000D03*
X91800000Y-82050000D03*
X86710000Y-70870000D03*
X86710000Y-69280000D03*
X89245000Y-70870000D03*
X91780000Y-66700000D03*
X89250000Y-82050000D03*
X91780000Y-70870000D03*
X87997500Y-67930000D03*
X89265000Y-67930000D03*
X87977500Y-70870000D03*
X90512500Y-66700000D03*
X86740000Y-82050000D03*
X86730000Y-67930000D03*
X90512500Y-70870000D03*
X90512500Y-69280000D03*
X87977500Y-66700000D03*
X89245000Y-69280000D03*
X91800000Y-67930000D03*
X90500000Y-82050000D03*
X90532500Y-67930000D03*
X89245000Y-66700000D03*
X87977500Y-69280000D03*
X91780000Y-69280000D03*
%TO.N,GND*%
X86750000Y-85580000D03*
X89290000Y-84310000D03*
X86750000Y-86800000D03*
X91820000Y-85580000D03*
X91820000Y-86800000D03*
X90510000Y-86800000D03*
X86760000Y-84310000D03*
X91850000Y-88210000D03*
X89280000Y-85580000D03*
X88000000Y-85580000D03*
X90540000Y-88210000D03*
X89280000Y-86800000D03*
X90520000Y-84310000D03*
X90510000Y-85580000D03*
X89310000Y-88210000D03*
X91830000Y-84310000D03*
X86780000Y-88210000D03*
X88000000Y-86800000D03*
X88010000Y-84310000D03*
X88030000Y-88210000D03*
%TO.N,Net-(C8-Pad1)*%
X81390000Y-85120000D03*
%TO.N,Net-(C11-Pad1)*%
X80290000Y-87390000D03*
%TO.N,/CI*%
X77510000Y-98010000D03*
%TO.N,/RST_N*%
X69510000Y-82170000D03*
D23*
%TO.N,/5V*%
X112020000Y-87170000D03*
X112530000Y-68180000D03*
D22*
%TO.N,Net-(IC1-Pad3)*%
X98540000Y-61260000D03*
%TO.N,Net-(IC1-Pad4)*%
X98560000Y-62960000D03*
%TO.N,Net-(C3-Pad1)*%
X73140000Y-70480000D03*
%TO.N,Net-(IC1-Pad25)*%
X76150000Y-69070000D03*
%TO.N,Net-(IC1-Pad26)*%
X76120000Y-67410000D03*
%TO.N,Net-(IC1-Pad27)*%
X96860000Y-73820000D03*
X77950000Y-68280000D03*
%TO.N,Net-(IC1-Pad28)*%
X77950000Y-66700000D03*
X95800000Y-73640000D03*
%TO.N,Net-(IC1-Pad29)*%
X76120000Y-65850000D03*
%TO.N,Net-(IC1-Pad30)*%
X79200000Y-64840000D03*
X94660000Y-73530000D03*
%TO.N,Net-(IC1-Pad31)*%
X75520000Y-64250000D03*
%TO.N,Net-(IC1-Pad32)*%
X93480000Y-73230000D03*
X80790000Y-63200000D03*
%TO.N,Net-(IC2-Pad4)*%
X97410000Y-81300000D03*
%TO.N,Net-(IC2-Pad6)*%
X102120000Y-76340000D03*
%TO.N,Net-(IC2-Pad27)*%
X75730000Y-86870000D03*
%TO.N,Net-(IC2-Pad29)*%
X74000000Y-85250000D03*
%TO.N,Net-(IC2-Pad30)*%
X73960000Y-83690000D03*
%TO.N,Net-(IC2-Pad31)*%
X73980000Y-82100000D03*
%TO.N,Net-(IC2-Pad32)*%
X73980000Y-80530000D03*
%TO.N,Net-(IC1-Pad9)*%
X100550000Y-66400000D03*
%TO.N,Net-(IC1-Pad10)*%
X100550000Y-67910000D03*
%TO.N,Net-(IC1-Pad11)*%
X100550000Y-69400000D03*
%TO.N,Net-(IC1-Pad12)*%
X100550000Y-70910000D03*
%TO.N,Net-(IC1-Pad13)*%
X100550000Y-72400000D03*
%TO.N,Net-(IC1-Pad14)*%
X100550000Y-73910000D03*
%TO.N,Net-(IC2-Pad9)*%
X100350000Y-82770000D03*
%TO.N,Net-(IC2-Pad10)*%
X100330000Y-84280000D03*
%TO.N,Net-(IC2-Pad11)*%
X100360000Y-85790000D03*
%TO.N,Net-(IC2-Pad12)*%
X100340000Y-87300000D03*
%TO.N,Net-(IC2-Pad13)*%
X100340000Y-88820000D03*
%TO.N,Net-(IC2-Pad14)*%
X100350000Y-90330000D03*
%TD*%
D24*
%TO.N,/A*%
X94690000Y-82480000D02*
X92230000Y-82480000D01*
X92230000Y-82480000D02*
X91800000Y-82050000D01*
X96100000Y-82510000D02*
X94720000Y-82510000D01*
X94720000Y-82510000D02*
X94690000Y-82480000D01*
D25*
%TO.N,GND*%
X84090000Y-83810000D02*
X86260000Y-83810000D01*
X86260000Y-83810000D02*
X86760000Y-84310000D01*
D24*
%TO.N,/A*%
X84090000Y-82510000D02*
X86280000Y-82510000D01*
X86280000Y-82510000D02*
X86740000Y-82050000D01*
X84090000Y-82510000D02*
X82680000Y-82510000D01*
D25*
%TO.N,GND*%
X82680000Y-83810000D02*
X84090000Y-83810000D01*
D24*
%TO.N,/RO*%
X79830000Y-101730000D02*
X79830000Y-104650000D01*
X79830000Y-104650000D02*
X80040000Y-104860000D01*
%TO.N,/RST_N*%
X82610000Y-101700000D02*
X82610000Y-104830000D01*
X82610000Y-104830000D02*
X82580000Y-104860000D01*
%TO.N,Net-(C8-Pad1)*%
X81080000Y-84680000D02*
X80300000Y-84680000D01*
X81390000Y-85120000D02*
X81390000Y-84990000D01*
X81390000Y-84990000D02*
X81080000Y-84680000D01*
D25*
%TO.N,/0V8_1*%
X103430000Y-65380000D02*
X103430000Y-66370000D01*
D24*
X99520000Y-65860000D02*
X100000000Y-65380000D01*
D25*
X103430000Y-64800000D02*
X103430000Y-65380000D01*
D24*
X100000000Y-65380000D02*
X103430000Y-65380000D01*
%TO.N,/A*%
X97930000Y-66310000D02*
X98490000Y-66870000D01*
X98490000Y-66870000D02*
X98490000Y-71780000D01*
X97930000Y-66310000D02*
X97730000Y-66510000D01*
X97730000Y-66510000D02*
X95930000Y-66510000D01*
%TO.N,/VIN*%
X95450000Y-59300000D02*
X95450000Y-64730000D01*
X95450000Y-64730000D02*
X95930000Y-65210000D01*
%TO.N,/PWM*%
X66820000Y-94450000D02*
X63780000Y-94450000D01*
X63780000Y-94450000D02*
X63610000Y-94620000D01*
%TO.N,Net-(C3-Pad1)*%
X75760000Y-75430000D02*
X73130000Y-72800000D01*
X73130000Y-72800000D02*
X73130000Y-72310000D01*
%TO.N,/1V8_2*%
X117060000Y-94720000D02*
X117060000Y-92960000D01*
X117060000Y-92960000D02*
X115160000Y-91060000D01*
%TO.N,/0V8_2*%
X116760000Y-82380000D02*
X115610000Y-82380000D01*
X115610000Y-82380000D02*
X114980000Y-83010000D01*
%TO.N,/1V8_1*%
X116860000Y-76670000D02*
X116080000Y-75890000D01*
X116080000Y-75890000D02*
X116080000Y-71650000D01*
D25*
%TO.N,/0V8_1*%
X115270000Y-65880000D02*
X114995000Y-65605000D01*
X114995000Y-65605000D02*
X112870000Y-63480000D01*
D24*
X116760000Y-63400000D02*
X114995000Y-65165000D01*
X114995000Y-65165000D02*
X114995000Y-65605000D01*
%TO.N,GND*%
X95040000Y-91100000D02*
X92150000Y-88210000D01*
X92150000Y-88210000D02*
X91850000Y-88210000D01*
%TO.N,Net-(IC1-Pad16)*%
X107660000Y-75920000D02*
X109040000Y-75920000D01*
X109040000Y-75920000D02*
X109370000Y-75590000D01*
%TO.N,Net-(IC1-Pad15)*%
X112950000Y-78230000D02*
X112960000Y-78240000D01*
X112950000Y-76540000D02*
X112950000Y-78230000D01*
%TO.N,Net-(IC2-Pad15)*%
X101450000Y-95110000D02*
X101450000Y-96350000D01*
X101450000Y-96350000D02*
X101910000Y-96810000D01*
%TO.N,Net-(IC2-Pad16)*%
X97910000Y-94900000D02*
X97910000Y-96650000D01*
X97910000Y-96650000D02*
X98030000Y-96770000D01*
%TO.N,/CI*%
X79770000Y-98320000D02*
X77820000Y-98320000D01*
X77820000Y-98320000D02*
X77510000Y-98010000D01*
%TO.N,Net-(IC1-Pad27)*%
X70600000Y-61430000D02*
X72120000Y-62950000D01*
X76844080Y-67174080D02*
X77950000Y-68280000D01*
X72120000Y-62950000D02*
X75430000Y-62950000D01*
X75430000Y-62950000D02*
X76844080Y-64364080D01*
X76844080Y-64364080D02*
X76844080Y-67174080D01*
%TO.N,Net-(IC1-Pad31)*%
X75490000Y-64220000D02*
X74440000Y-64220000D01*
X75520000Y-64250000D02*
X75490000Y-64220000D01*
%TO.N,Net-(IC1-Pad28)*%
X73880000Y-61430000D02*
X75130000Y-61430000D01*
X75130000Y-61430000D02*
X77840000Y-64140000D01*
X77840000Y-64140000D02*
X77840000Y-66590000D01*
X77840000Y-66590000D02*
X77950000Y-66700000D01*
%TO.N,Net-(IC1-Pad30)*%
X79200000Y-64840000D02*
X78390000Y-64030000D01*
X78390000Y-64030000D02*
X78390000Y-62660000D01*
X78390000Y-62660000D02*
X77130000Y-61400000D01*
X79870000Y-65510000D02*
X79870000Y-72594057D01*
X79870000Y-72594057D02*
X81225943Y-73950000D01*
X94240000Y-73950000D02*
X94660000Y-73530000D01*
X79200000Y-64840000D02*
X79870000Y-65510000D01*
X81225943Y-73950000D02*
X94240000Y-73950000D01*
%TO.N,Net-(IC1-Pad32)*%
X80380000Y-61400000D02*
X80380000Y-62790000D01*
X80380000Y-62790000D02*
X80790000Y-63200000D01*
%TO.N,GND*%
X87553333Y-97300000D02*
X89310000Y-97300000D01*
X89310000Y-97300000D02*
X91266666Y-97300000D01*
X89380000Y-98730000D02*
X89380000Y-97370000D01*
X89380000Y-97370000D02*
X89310000Y-97300000D01*
%TO.N,/A*%
X63770000Y-70460000D02*
X63770000Y-69150000D01*
X63770000Y-71763333D02*
X63770000Y-70460000D01*
X63770000Y-70460000D02*
X61460000Y-70460000D01*
X61460000Y-70460000D02*
X61440000Y-70480000D01*
X63770000Y-69150000D02*
X63770000Y-66536667D01*
%TO.N,Net-(C11-Pad1)*%
X80290000Y-87390000D02*
X80290000Y-85990000D01*
X80290000Y-85990000D02*
X80300000Y-85980000D01*
D25*
%TO.N,/A*%
X107950000Y-66510000D02*
X106240000Y-64800000D01*
X106240000Y-64800000D02*
X104730000Y-64800000D01*
X112200000Y-66580000D02*
X112800000Y-65980000D01*
X112800000Y-65980000D02*
X113970000Y-65980000D01*
%TO.N,/1V8_2*%
X103340000Y-93110000D02*
X74930000Y-93110000D01*
X74930000Y-93110000D02*
X70970000Y-93110000D01*
X74960000Y-104860000D02*
X74960000Y-93140000D01*
X74960000Y-93140000D02*
X74930000Y-93110000D01*
D24*
%TO.N,GND*%
X69507500Y-85287500D02*
X69470000Y-85250000D01*
X70800000Y-85287500D02*
X69507500Y-85287500D01*
D25*
X78650000Y-82880000D02*
X79360000Y-82880000D01*
X79360000Y-82880000D02*
X80300000Y-81940000D01*
X80300000Y-81940000D02*
X80300000Y-80560000D01*
X94690000Y-83780000D02*
X96070000Y-83780000D01*
X96070000Y-83780000D02*
X96100000Y-83810000D01*
X76390000Y-87810000D02*
X75910000Y-88290000D01*
X77070000Y-87810000D02*
X76390000Y-87810000D01*
X99830000Y-79590000D02*
X99070000Y-78830000D01*
X99830000Y-80110000D02*
X99830000Y-79590000D01*
X104500000Y-80960000D02*
X105850000Y-80960000D01*
X106240000Y-92210000D02*
X106290000Y-92260000D01*
X104640000Y-92210000D02*
X106240000Y-92210000D01*
%TO.N,/1V8_1*%
X101300000Y-62950000D02*
X101300000Y-64010000D01*
X101300000Y-64010000D02*
X101650000Y-64360000D01*
X104720000Y-69430000D02*
X103426000Y-69430000D01*
X103426000Y-69430000D02*
X103400000Y-69404000D01*
X101320000Y-61250000D02*
X101320000Y-62930000D01*
X101320000Y-62930000D02*
X101300000Y-62950000D01*
%TO.N,/A*%
X106210000Y-75600000D02*
X106220000Y-75610000D01*
X104890000Y-75600000D02*
X106210000Y-75600000D01*
D24*
%TO.N,GND*%
X91266666Y-97300000D02*
X94980000Y-97300000D01*
X83840000Y-97300000D02*
X87553333Y-97300000D01*
%TO.N,Net-(IC2-Pad20)*%
X93290000Y-94580000D02*
X94470000Y-94580000D01*
X94980000Y-95090000D02*
X94980000Y-96000000D01*
X94470000Y-94580000D02*
X94980000Y-95090000D01*
%TO.N,Net-(IC2-Pad21)*%
X89700000Y-94340000D02*
X90660000Y-94340000D01*
X90660000Y-94340000D02*
X91266666Y-94946666D01*
X91266666Y-94946666D02*
X91266666Y-96000000D01*
%TO.N,Net-(IC2-Pad22)*%
X85970000Y-95150000D02*
X86703333Y-95150000D01*
X86703333Y-95150000D02*
X87553333Y-96000000D01*
%TO.N,Net-(IC2-Pad23)*%
X81990000Y-95280000D02*
X83120000Y-95280000D01*
X83120000Y-95280000D02*
X83840000Y-96000000D01*
%TO.N,/A*%
X63770000Y-74376667D02*
X63770000Y-71763333D01*
%TO.N,Net-(IC1-Pad20)*%
X66980000Y-74456667D02*
X65150000Y-74456667D01*
X65150000Y-74456667D02*
X65070000Y-74376667D01*
%TO.N,Net-(IC1-Pad21)*%
X66980000Y-71766667D02*
X65073334Y-71766667D01*
X65073334Y-71766667D02*
X65070000Y-71763333D01*
%TO.N,Net-(IC1-Pad22)*%
X66960000Y-69176667D02*
X65096667Y-69176667D01*
X65096667Y-69176667D02*
X65070000Y-69150000D01*
%TO.N,Net-(IC1-Pad23)*%
X65110000Y-66496667D02*
X65070000Y-66536667D01*
X66940000Y-66496667D02*
X65110000Y-66496667D01*
%TO.N,/0V8_2*%
X102020000Y-81400000D02*
X102760000Y-81400000D01*
X102760000Y-81400000D02*
X103200000Y-80960000D01*
%TO.N,GND*%
X97900000Y-84060000D02*
X96350000Y-84060000D01*
X96350000Y-84060000D02*
X96100000Y-83810000D01*
D25*
%TO.N,/1V8_1*%
X112040000Y-72445000D02*
X112040000Y-75540000D01*
X110260000Y-77320000D02*
X104160000Y-77320000D01*
X104160000Y-77320000D02*
X103940000Y-77100000D01*
X112040000Y-75540000D02*
X110260000Y-77320000D01*
%TO.N,/A*%
X114500000Y-70350000D02*
X114500000Y-69270000D01*
X114500000Y-69270000D02*
X113970000Y-68740000D01*
X113970000Y-68740000D02*
X113970000Y-67510000D01*
%TO.N,GND*%
X112320000Y-85390000D02*
X112020000Y-85090000D01*
X113680000Y-85390000D02*
X112320000Y-85390000D01*
%TO.N,/1V8_2*%
X103340000Y-93110000D02*
X103880000Y-93650000D01*
X103880000Y-93650000D02*
X110620000Y-93650000D01*
X110620000Y-93650000D02*
X111370000Y-92900000D01*
X111370000Y-92900000D02*
X111370000Y-91725000D01*
%TO.N,/0V8_2*%
X103200000Y-80960000D02*
X103200000Y-80460000D01*
X114980000Y-83010000D02*
X114980000Y-85390000D01*
X103200000Y-80460000D02*
X104140000Y-79520000D01*
X104140000Y-79520000D02*
X111490000Y-79520000D01*
X111490000Y-79520000D02*
X114980000Y-83010000D01*
%TO.N,GND*%
X113700000Y-86970000D02*
X113700000Y-85410000D01*
X113700000Y-85410000D02*
X113680000Y-85390000D01*
X113560000Y-89750000D02*
X113560000Y-87110000D01*
X113560000Y-87110000D02*
X113700000Y-86970000D01*
X108130000Y-87970000D02*
X108060000Y-88040000D01*
X109400000Y-87970000D02*
X108130000Y-87970000D01*
X110420000Y-89095000D02*
X110420000Y-88510000D01*
X110420000Y-88510000D02*
X109880000Y-87970000D01*
X109880000Y-87970000D02*
X109400000Y-87970000D01*
X109400000Y-87970000D02*
X109220000Y-87790000D01*
X109220000Y-87790000D02*
X109220000Y-87050000D01*
%TO.N,/A*%
X113970000Y-67510000D02*
X113970000Y-65980000D01*
X108920000Y-68250000D02*
X108730000Y-68440000D01*
X109870000Y-68250000D02*
X108920000Y-68250000D01*
X110823000Y-68540000D02*
X110160000Y-68540000D01*
X110160000Y-68540000D02*
X109870000Y-68250000D01*
X109870000Y-68250000D02*
X109870000Y-67530000D01*
X111090000Y-68807000D02*
X110823000Y-68540000D01*
X111090000Y-69815000D02*
X111090000Y-68807000D01*
D26*
%TO.N,/5V*%
X112200000Y-69850000D02*
X112530000Y-69520000D01*
X112530000Y-69520000D02*
X112530000Y-68180000D01*
D25*
X112200000Y-69850000D02*
X112106911Y-69850000D01*
X112106911Y-69850000D02*
X112071911Y-69815000D01*
D26*
X111550000Y-89110000D02*
X112020000Y-88640000D01*
D25*
X111550000Y-89110000D02*
X111416911Y-89110000D01*
D26*
X112020000Y-88640000D02*
X112020000Y-87170000D01*
D25*
X111416911Y-89110000D02*
X111401911Y-89095000D01*
D24*
%TO.N,Net-(C8-Pad1)*%
X80300000Y-84680000D02*
X79880000Y-84680000D01*
X79880000Y-84680000D02*
X79090000Y-83890000D01*
X79090000Y-83890000D02*
X77800000Y-83890000D01*
X77800000Y-83890000D02*
X77410000Y-84280000D01*
X77350000Y-84220000D02*
X77410000Y-84280000D01*
X77350000Y-82880000D02*
X77350000Y-84220000D01*
X77410000Y-84280000D02*
X77410000Y-84775000D01*
%TO.N,Net-(C11-Pad1)*%
X78410000Y-86125000D02*
X78410000Y-87770000D01*
X80300000Y-85980000D02*
X78555000Y-85980000D01*
X78410000Y-87770000D02*
X78370000Y-87810000D01*
X78555000Y-85980000D02*
X78410000Y-86125000D01*
%TO.N,/CI*%
X77510000Y-98010000D02*
X77500000Y-98020000D01*
X77500000Y-98020000D02*
X77500000Y-104860000D01*
D25*
%TO.N,/1V8_2*%
X68450000Y-90590000D02*
X68450000Y-87040000D01*
X103340000Y-90480000D02*
X103190000Y-90330000D01*
X113570000Y-91060000D02*
X113560000Y-91050000D01*
X103340000Y-93110000D02*
X103340000Y-92210000D01*
X68450000Y-87040000D02*
X68620000Y-86870000D01*
X68620000Y-86870000D02*
X70800000Y-86870000D01*
X103190000Y-87306000D02*
X103190000Y-85794000D01*
X68450000Y-83740000D02*
X68450000Y-81080000D01*
X115160000Y-91060000D02*
X113570000Y-91060000D01*
X113560000Y-91050000D02*
X112045000Y-91050000D01*
X103190000Y-87306000D02*
X103190000Y-88818000D01*
X103340000Y-92210000D02*
X103340000Y-90480000D01*
X68450000Y-87040000D02*
X68450000Y-83740000D01*
X70970000Y-93110000D02*
X68450000Y-90590000D01*
X103190000Y-90330000D02*
X103190000Y-88818000D01*
X112045000Y-91050000D02*
X111370000Y-91725000D01*
X68990000Y-80540000D02*
X70800000Y-80540000D01*
X68450000Y-81080000D02*
X68990000Y-80540000D01*
X68450000Y-83740000D02*
X68485000Y-83705000D01*
X68485000Y-83705000D02*
X70800000Y-83705000D01*
%TO.N,/0V8_2*%
X114980000Y-85390000D02*
X114980000Y-86950000D01*
X103200000Y-82760000D02*
X103190000Y-82770000D01*
X115000000Y-86970000D02*
X115000000Y-89600000D01*
X115000000Y-89600000D02*
X115160000Y-89760000D01*
X114980000Y-86950000D02*
X115000000Y-86970000D01*
X103200000Y-80960000D02*
X103200000Y-82760000D01*
X103190000Y-82770000D02*
X103190000Y-84282000D01*
%TO.N,/0V8_1*%
X103430000Y-63860000D02*
X103430000Y-64800000D01*
X115270000Y-65980000D02*
X115270000Y-65880000D01*
X112870000Y-63480000D02*
X103810000Y-63480000D01*
X116080000Y-69190000D02*
X116080000Y-70350000D01*
X115270000Y-67510000D02*
X115270000Y-68380000D01*
X103400000Y-66400000D02*
X103400000Y-67902000D01*
X103810000Y-63480000D02*
X103430000Y-63860000D01*
X115270000Y-65980000D02*
X115270000Y-67510000D01*
X115270000Y-68380000D02*
X116080000Y-69190000D01*
X103430000Y-66370000D02*
X103400000Y-66400000D01*
%TO.N,/1V8_1*%
X75090000Y-77320000D02*
X71340000Y-73570000D01*
X103400000Y-73910000D02*
X103400000Y-72408000D01*
X72166668Y-67433332D02*
X73140000Y-67433332D01*
X71340000Y-73570000D02*
X71340000Y-68260000D01*
X73140000Y-65826666D02*
X73140000Y-64220000D01*
X113705000Y-72445000D02*
X114500000Y-71650000D01*
X112040000Y-72445000D02*
X113705000Y-72445000D01*
X71340000Y-68260000D02*
X72166668Y-67433332D01*
X73140000Y-67433332D02*
X73140000Y-65826666D01*
X103720000Y-77320000D02*
X75090000Y-77320000D01*
X114500000Y-71650000D02*
X116080000Y-71650000D01*
X103590000Y-74100000D02*
X103400000Y-73910000D01*
X103940000Y-77100000D02*
X103590000Y-76750000D01*
X103590000Y-76750000D02*
X103590000Y-75600000D01*
X103940000Y-77100000D02*
X103720000Y-77320000D01*
X103400000Y-70906000D02*
X103400000Y-72408000D01*
X103590000Y-75600000D02*
X103590000Y-74100000D01*
X103400000Y-69404000D02*
X103400000Y-70906000D01*
D24*
%TO.N,/RST_N*%
X69557500Y-82122500D02*
X70800000Y-82122500D01*
X69510000Y-82170000D02*
X69557500Y-82122500D01*
%TO.N,/5V*%
X109980000Y-90430000D02*
X110789000Y-90430000D01*
X110520000Y-87050000D02*
X111900000Y-87050000D01*
X111900000Y-87050000D02*
X112020000Y-87170000D01*
X111170000Y-67530000D02*
X111880000Y-67530000D01*
X110789000Y-90430000D02*
X111370000Y-89849000D01*
X110651000Y-71080000D02*
X111720000Y-71080000D01*
X112040000Y-70760000D02*
X112040000Y-69815000D01*
X111880000Y-67530000D02*
X112530000Y-68180000D01*
X110140000Y-69815000D02*
X110140000Y-70569000D01*
X111720000Y-71080000D02*
X112040000Y-70760000D01*
X109470000Y-89920000D02*
X109980000Y-90430000D01*
X111370000Y-89849000D02*
X111370000Y-89095000D01*
X109470000Y-89095000D02*
X109470000Y-89920000D01*
X110140000Y-70569000D02*
X110651000Y-71080000D01*
%TO.N,Net-(IC1-Pad3)*%
X98540000Y-61260000D02*
X100010000Y-61260000D01*
X100010000Y-61260000D02*
X100020000Y-61250000D01*
%TO.N,Net-(IC1-Pad4)*%
X98560000Y-62960000D02*
X99990000Y-62960000D01*
X99990000Y-62960000D02*
X100000000Y-62950000D01*
%TO.N,Net-(C3-Pad1)*%
X73130000Y-72310000D02*
X73130000Y-70490000D01*
X73130000Y-70490000D02*
X73140000Y-70480000D01*
X73140000Y-70480000D02*
X73140000Y-69040000D01*
%TO.N,Net-(IC1-Pad25)*%
X76120000Y-69040000D02*
X74440000Y-69040000D01*
X76150000Y-69070000D02*
X76120000Y-69040000D01*
%TO.N,Net-(IC1-Pad26)*%
X76120000Y-67410000D02*
X76096668Y-67433332D01*
X76096668Y-67433332D02*
X74440000Y-67433332D01*
%TO.N,Net-(IC1-Pad27)*%
X95320000Y-75360000D02*
X80130000Y-75360000D01*
X96860000Y-73820000D02*
X95320000Y-75360000D01*
X77950000Y-73180000D02*
X77950000Y-68280000D01*
X80130000Y-75360000D02*
X77950000Y-73180000D01*
%TO.N,Net-(IC1-Pad28)*%
X80650000Y-74640000D02*
X78920000Y-72910000D01*
X95800000Y-73640000D02*
X94800000Y-74640000D01*
X94800000Y-74640000D02*
X80650000Y-74640000D01*
X78920000Y-67670000D02*
X77950000Y-66700000D01*
X78920000Y-72910000D02*
X78920000Y-67670000D01*
%TO.N,Net-(IC1-Pad29)*%
X76120000Y-65850000D02*
X74463334Y-65850000D01*
X74463334Y-65850000D02*
X74440000Y-65826666D01*
%TO.N,Net-(IC1-Pad32)*%
X93480000Y-73230000D02*
X93440000Y-73190000D01*
X81820000Y-73190000D02*
X80730000Y-72100000D01*
X80730000Y-63260000D02*
X80790000Y-63200000D01*
X80730000Y-72100000D02*
X80730000Y-63260000D01*
X93440000Y-73190000D02*
X81820000Y-73190000D01*
X80790000Y-63200000D02*
X80720000Y-63270000D01*
%TO.N,Net-(IC2-Pad4)*%
X97480000Y-81230000D02*
X100900000Y-81230000D01*
X97410000Y-81300000D02*
X97480000Y-81230000D01*
X101160000Y-80970000D02*
X101130000Y-80940000D01*
X101130000Y-80940000D02*
X101130000Y-80110000D01*
X100900000Y-81230000D02*
X101160000Y-80970000D01*
%TO.N,Net-(IC2-Pad6)*%
X101250000Y-76340000D02*
X100790000Y-75880000D01*
X102120000Y-76340000D02*
X101250000Y-76340000D01*
%TO.N,Net-(IC2-Pad27)*%
X75730000Y-86870000D02*
X72100000Y-86870000D01*
%TO.N,Net-(IC2-Pad29)*%
X74000000Y-85250000D02*
X72137500Y-85250000D01*
X72137500Y-85250000D02*
X72100000Y-85287500D01*
%TO.N,Net-(IC2-Pad30)*%
X72115000Y-83690000D02*
X72100000Y-83705000D01*
X73960000Y-83690000D02*
X72115000Y-83690000D01*
%TO.N,Net-(IC2-Pad31)*%
X72122500Y-82100000D02*
X72100000Y-82122500D01*
X73980000Y-82100000D02*
X72122500Y-82100000D01*
%TO.N,Net-(IC2-Pad32)*%
X73980000Y-80530000D02*
X72110000Y-80530000D01*
X72110000Y-80530000D02*
X72100000Y-80540000D01*
%TO.N,Net-(C3-Pad2)*%
X99490000Y-75880000D02*
X99270000Y-76100000D01*
X75680000Y-72310000D02*
X74430000Y-72310000D01*
X79470000Y-76100000D02*
X75680000Y-72310000D01*
X99270000Y-76100000D02*
X79470000Y-76100000D01*
%TO.N,Net-(IC1-Pad9)*%
X100560000Y-66400000D02*
X102100000Y-66400000D01*
%TO.N,Net-(IC1-Pad10)*%
X100490000Y-67910000D02*
X102092000Y-67910000D01*
X102092000Y-67910000D02*
X102100000Y-67902000D01*
%TO.N,Net-(IC1-Pad11)*%
X100490000Y-69400000D02*
X102096000Y-69400000D01*
X102096000Y-69400000D02*
X102100000Y-69404000D01*
%TO.N,Net-(IC1-Pad12)*%
X102096000Y-70910000D02*
X102100000Y-70906000D01*
X100550000Y-70910000D02*
X102096000Y-70910000D01*
%TO.N,Net-(IC1-Pad13)*%
X100550000Y-72400000D02*
X102092000Y-72400000D01*
X102092000Y-72400000D02*
X102100000Y-72408000D01*
%TO.N,Net-(IC1-Pad14)*%
X100560000Y-73910000D02*
X102100000Y-73910000D01*
%TO.N,Net-(IC2-Pad9)*%
X100350000Y-82770000D02*
X101890000Y-82770000D01*
%TO.N,Net-(IC2-Pad10)*%
X101888000Y-84280000D02*
X101890000Y-84282000D01*
X100330000Y-84280000D02*
X101888000Y-84280000D01*
%TO.N,Net-(IC2-Pad11)*%
X100360000Y-85790000D02*
X101886000Y-85790000D01*
X101886000Y-85790000D02*
X101890000Y-85794000D01*
%TO.N,Net-(IC2-Pad12)*%
X101884000Y-87300000D02*
X101890000Y-87306000D01*
X100340000Y-87300000D02*
X101884000Y-87300000D01*
%TO.N,Net-(IC2-Pad13)*%
X101888000Y-88820000D02*
X101890000Y-88818000D01*
X100340000Y-88820000D02*
X101888000Y-88820000D01*
%TO.N,Net-(IC2-Pad14)*%
X100350000Y-90330000D02*
X101890000Y-90330000D01*
%TD*%
%TA.AperFunction,Conductor*%
%TO.N,/A*%
G36*
X96408995Y-66106896D02*
G01*
X96455511Y-66160531D01*
X96466918Y-66213651D01*
X96432943Y-72097100D01*
X96412548Y-72165104D01*
X96358625Y-72211286D01*
X96307439Y-72222371D01*
X82240230Y-72277542D01*
X82172031Y-72257807D01*
X82125329Y-72204334D01*
X82113738Y-72150821D01*
X82147720Y-66218251D01*
X82168112Y-66150246D01*
X82222033Y-66104061D01*
X82273663Y-66092973D01*
X85465191Y-66091600D01*
X96340866Y-66086923D01*
X96408995Y-66106896D01*
G37*
%TD.AperFunction*%
%TD*%
%TA.AperFunction,Conductor*%
%TO.N,/A*%
G36*
X96691146Y-78190208D02*
G01*
X96737662Y-78243845D01*
X96749067Y-78297162D01*
X96731769Y-80648077D01*
X96711266Y-80716049D01*
X96699408Y-80731460D01*
X96675384Y-80758142D01*
X96675382Y-80758145D01*
X96670960Y-80763056D01*
X96575473Y-80928444D01*
X96516458Y-81110072D01*
X96496496Y-81300000D01*
X96516458Y-81489928D01*
X96575473Y-81671556D01*
X96670960Y-81836944D01*
X96689881Y-81857958D01*
X96720597Y-81921964D01*
X96722240Y-81943193D01*
X96715741Y-82826427D01*
X96695238Y-82894399D01*
X96641242Y-82940496D01*
X96589744Y-82951500D01*
X95601866Y-82951500D01*
X95598469Y-82951869D01*
X95547534Y-82957402D01*
X95547532Y-82957402D01*
X95539684Y-82958255D01*
X95478478Y-82981200D01*
X95407673Y-82986383D01*
X95386973Y-82978669D01*
X95386705Y-82979385D01*
X95250316Y-82928255D01*
X95188134Y-82921500D01*
X94191866Y-82921500D01*
X94129684Y-82928255D01*
X93993295Y-82979385D01*
X93990769Y-82981278D01*
X93933994Y-82995919D01*
X84856128Y-83030929D01*
X84795133Y-83015450D01*
X84793888Y-83014768D01*
X84786705Y-83009385D01*
X84778304Y-83006236D01*
X84778301Y-83006234D01*
X84697586Y-82975976D01*
X84650316Y-82958255D01*
X84588134Y-82951500D01*
X83591866Y-82951500D01*
X83529684Y-82958255D01*
X83429229Y-82995914D01*
X83358423Y-83001097D01*
X83340775Y-82995916D01*
X83240316Y-82958255D01*
X83178134Y-82951500D01*
X82291741Y-82951500D01*
X82223620Y-82931498D01*
X82177127Y-82877842D01*
X82165744Y-82824582D01*
X82198683Y-78301326D01*
X82219181Y-78233353D01*
X82273174Y-78187252D01*
X82324625Y-78176244D01*
X96623018Y-78170235D01*
X96691146Y-78190208D01*
G37*
%TD.AperFunction*%
%TD*%
%TA.AperFunction,Conductor*%
%TO.N,/VIN*%
G36*
X96409362Y-61574908D02*
G01*
X96455891Y-61628532D01*
X96467308Y-61682053D01*
X96434078Y-65485502D01*
X96413482Y-65553445D01*
X96359422Y-65599468D01*
X96308610Y-65610400D01*
X84758207Y-65658693D01*
X84713452Y-65650676D01*
X84687721Y-65641030D01*
X84687714Y-65641028D01*
X84680316Y-65638255D01*
X84618134Y-65631500D01*
X83621866Y-65631500D01*
X83559684Y-65638255D01*
X83552288Y-65641027D01*
X83552282Y-65641029D01*
X83512164Y-65656069D01*
X83468462Y-65664086D01*
X83458789Y-65664126D01*
X83259550Y-65664960D01*
X83229879Y-65661543D01*
X83227713Y-65661028D01*
X83220316Y-65658255D01*
X83158134Y-65651500D01*
X82285295Y-65651500D01*
X82217174Y-65631498D01*
X82170681Y-65577842D01*
X82159301Y-65524416D01*
X82192399Y-61689379D01*
X82212988Y-61621433D01*
X82267043Y-61575405D01*
X82318308Y-61564466D01*
X96341229Y-61554952D01*
X96409362Y-61574908D01*
G37*
%TD.AperFunction*%
%TD*%
%TA.AperFunction,Conductor*%
%TO.N,GND*%
G36*
X96661301Y-83440023D02*
G01*
X96707813Y-83493662D01*
X96719217Y-83546825D01*
X96687295Y-88710718D01*
X96666872Y-88778714D01*
X96612930Y-88824874D01*
X96561777Y-88835938D01*
X82291157Y-88890291D01*
X82222960Y-88870549D01*
X82176264Y-88817070D01*
X82164679Y-88763520D01*
X82165003Y-88710718D01*
X82184090Y-85594588D01*
X82200969Y-85532360D01*
X82221223Y-85497279D01*
X82221224Y-85497278D01*
X82224527Y-85491556D01*
X82283542Y-85309928D01*
X82303504Y-85120000D01*
X82283542Y-84930072D01*
X82224527Y-84748444D01*
X82206730Y-84717619D01*
X82189852Y-84653849D01*
X82196610Y-83550495D01*
X82217029Y-83482498D01*
X82270969Y-83436335D01*
X82322561Y-83425267D01*
X96593174Y-83420046D01*
X96661301Y-83440023D01*
G37*
%TD.AperFunction*%
%TD*%
M02*
