%TF.GenerationSoftware,KiCad,Pcbnew,7.0.2*%
%TF.CreationDate,2023-09-05T18:58:23-04:00*%
%TF.ProjectId,bitaxeUltra,62697461-7865-4556-9c74-72612e6b6963,rev?*%
%TF.SameCoordinates,Original*%
%TF.FileFunction,Copper,L2,Inr*%
%TF.FilePolarity,Positive*%
%FSLAX46Y46*%
G04 Gerber Fmt 4.6, Leading zero omitted, Abs format (unit mm)*
G04 Created by KiCad (PCBNEW 7.0.2) date 2023-09-05 18:58:23*
%MOMM*%
%LPD*%
G01*
G04 APERTURE LIST*
%TA.AperFunction,ComponentPad*%
%ADD10C,0.500000*%
%TD*%
%TA.AperFunction,ComponentPad*%
%ADD11C,0.400000*%
%TD*%
%TA.AperFunction,ComponentPad*%
%ADD12C,1.574800*%
%TD*%
%TA.AperFunction,ComponentPad*%
%ADD13R,1.700000X1.700000*%
%TD*%
%TA.AperFunction,ComponentPad*%
%ADD14O,1.700000X1.700000*%
%TD*%
%TA.AperFunction,ComponentPad*%
%ADD15C,2.520000*%
%TD*%
%TA.AperFunction,ComponentPad*%
%ADD16O,1.800000X1.000000*%
%TD*%
%TA.AperFunction,ComponentPad*%
%ADD17O,2.100000X1.000000*%
%TD*%
%TA.AperFunction,ViaPad*%
%ADD18C,0.800000*%
%TD*%
%TA.AperFunction,ViaPad*%
%ADD19C,1.000000*%
%TD*%
%TA.AperFunction,ViaPad*%
%ADD20C,1.200000*%
%TD*%
G04 APERTURE END LIST*
D10*
%TO.N,GND*%
%TO.C,U2*%
X116922000Y-98765000D03*
X116922000Y-99765000D03*
X115922000Y-99765000D03*
X115922000Y-98765000D03*
%TD*%
D11*
%TO.N,GND*%
%TO.C,U9*%
X98201691Y-68847200D03*
X99151691Y-69422200D03*
X97251691Y-69422200D03*
X98201691Y-69997200D03*
%TD*%
D12*
%TO.N,GND*%
%TO.C,J4*%
X89621000Y-143622000D03*
%TO.N,/5V*%
X92161000Y-143622000D03*
%TO.N,/Fan/FAN_TACH*%
X94701000Y-143622000D03*
%TO.N,/Fan/FAN_PWM*%
X97241000Y-143622000D03*
%TD*%
D13*
%TO.N,GND*%
%TO.C,J9*%
X84859000Y-50049000D03*
D14*
%TO.N,/3V3*%
X84859000Y-52589000D03*
%TO.N,/SCL*%
X84859000Y-55129000D03*
%TO.N,/SDA*%
X84859000Y-57669000D03*
%TD*%
D15*
%TO.N,GND*%
%TO.C,J2*%
X85190000Y-63390000D03*
X80110000Y-63390000D03*
%TD*%
%TO.N,/Power/VIN*%
%TO.C,J1*%
X85190000Y-70810000D03*
X80110000Y-70810000D03*
%TD*%
D13*
%TO.N,/RST*%
%TO.C,J6*%
X104293000Y-49587000D03*
D14*
%TO.N,/RX*%
X106833000Y-49587000D03*
%TO.N,/TX*%
X109373000Y-49587000D03*
%TO.N,/SDA*%
X111913000Y-49587000D03*
%TO.N,/SCL*%
X114453000Y-49587000D03*
%TO.N,/3V3*%
X116993000Y-49587000D03*
%TO.N,GND*%
X119533000Y-49587000D03*
%TD*%
D13*
%TO.N,/Power/VIN*%
%TO.C,J7*%
X83000000Y-76540000D03*
D14*
%TO.N,/5V*%
X85540000Y-76540000D03*
%TD*%
D13*
%TO.N,/BM1366/1V8*%
%TO.C,J3*%
X109350000Y-143580000D03*
D14*
%TO.N,/BM1366/CI*%
X111890000Y-143580000D03*
%TO.N,/BM1366/RO*%
X114430000Y-143580000D03*
%TO.N,/BM1366/RST_N*%
X116970000Y-143580000D03*
%TO.N,GND*%
X119510000Y-143580000D03*
%TD*%
D16*
%TO.N,GND*%
%TO.C,J8*%
X131123000Y-88136000D03*
D17*
X126943000Y-88136000D03*
D16*
X131123000Y-96776000D03*
D17*
X126943000Y-96776000D03*
%TD*%
D18*
%TO.N,GND*%
X80410000Y-139600000D03*
X78090000Y-82060000D03*
X100850600Y-73131400D03*
X116910000Y-128990000D03*
D19*
X126719000Y-75842000D03*
D18*
X97320000Y-93500000D03*
X131780000Y-62110000D03*
X112980000Y-131260000D03*
X97320000Y-87878600D03*
X100580000Y-87270000D03*
X106396000Y-118533000D03*
X97320000Y-84830000D03*
X98860000Y-84830000D03*
X104082000Y-115436000D03*
X98682000Y-136516000D03*
X98860000Y-93500000D03*
X106408000Y-116351000D03*
X128120000Y-55550000D03*
X95400600Y-69431400D03*
D19*
X100765000Y-145890000D03*
D18*
X94890000Y-62470000D03*
X97320000Y-86310000D03*
X105673000Y-117442000D03*
X80660000Y-87760000D03*
X97320000Y-89650000D03*
D19*
X126719000Y-74372000D03*
D18*
X90360055Y-101249945D03*
X98860000Y-91520000D03*
X117602000Y-123903000D03*
X104855000Y-118563000D03*
X104132000Y-117472000D03*
X121210000Y-74547000D03*
X98860000Y-86310000D03*
X97320000Y-91520000D03*
X112922500Y-102037000D03*
X107144000Y-117442000D03*
X90897000Y-129309000D03*
D19*
X131250000Y-99822000D03*
D18*
X112318000Y-95325000D03*
X112512000Y-61250000D03*
X105623000Y-115406000D03*
X98860000Y-89650000D03*
X104867000Y-116381000D03*
X86970000Y-82770000D03*
D19*
X126719000Y-73012000D03*
D18*
X105330000Y-132320000D03*
X104430000Y-130240000D03*
D19*
X132450000Y-84290000D03*
D18*
X98860000Y-87878600D03*
X115573700Y-102188000D03*
X120310000Y-100000000D03*
X83001194Y-129118806D03*
X96840000Y-98140000D03*
X132297000Y-108743000D03*
X92910000Y-102990000D03*
X95260000Y-132630000D03*
X107094000Y-115406000D03*
X100580000Y-85521400D03*
%TO.N,/BM1366/1V8*%
X101015000Y-126170000D03*
X115737362Y-96385646D03*
X118490000Y-127770000D03*
X117172000Y-102173000D03*
X112130000Y-127390000D03*
X109458000Y-122723000D03*
X101015000Y-121775000D03*
%TO.N,/BM1366/VDD4_0*%
X115099642Y-112550642D03*
%TO.N,/VDD*%
X110361000Y-82986000D03*
X116198500Y-68651500D03*
X103000000Y-104240000D03*
X105152000Y-113890000D03*
D20*
X107870000Y-90540000D03*
X107910000Y-92670000D03*
D18*
X104126000Y-113110000D03*
X108330000Y-104270000D03*
X103000000Y-62838100D03*
X107204000Y-113920000D03*
D20*
X107910000Y-94640000D03*
D18*
X106178000Y-113110000D03*
D20*
X105880000Y-90540000D03*
X105880000Y-88500000D03*
X107850000Y-88520000D03*
X105930000Y-94670000D03*
X105900000Y-92650000D03*
D18*
%TO.N,/ESP32/EN*%
X126293000Y-104178000D03*
X132665000Y-68760000D03*
X122101300Y-70905000D03*
D19*
%TO.N,/5V*%
X114580768Y-88400366D03*
D18*
X88883000Y-131168000D03*
X100470000Y-66770000D03*
X94580000Y-137390000D03*
X90881000Y-131182000D03*
D20*
X109323000Y-63360000D03*
D18*
X98450000Y-131200000D03*
%TO.N,/3V3*%
X115457000Y-62413000D03*
X114010000Y-95176000D03*
X127766000Y-100521000D03*
X129610000Y-55490000D03*
X115895000Y-79945000D03*
D19*
X129310000Y-83980000D03*
D18*
X110548000Y-70672000D03*
X130940000Y-76750000D03*
X98662000Y-137914100D03*
X117172000Y-96434000D03*
X83700000Y-87750000D03*
X80676100Y-129980000D03*
X82880000Y-132350000D03*
X94100000Y-97190000D03*
X82990000Y-85090000D03*
%TO.N,/TX*%
X118240000Y-70860000D03*
%TO.N,/RX*%
X116918500Y-70448500D03*
%TO.N,/BM1366/VDD3_0*%
X115070000Y-111160000D03*
%TO.N,/BM1366/VDD2_0*%
X112530000Y-107800000D03*
%TO.N,/RST*%
X120676000Y-54726000D03*
X121437000Y-70037900D03*
%TO.N,/BM1366/MODE_OUT*%
X110862000Y-121832000D03*
%TO.N,/SCL*%
X120743000Y-68680100D03*
X85120000Y-86810000D03*
X90390000Y-96230000D03*
X84010000Y-132070000D03*
%TO.N,/Power/OUT0*%
X91440000Y-95040000D03*
X89730000Y-75310000D03*
%TO.N,/BM1366/0V8*%
X108468000Y-124939000D03*
X100155000Y-123661000D03*
X104431000Y-124939000D03*
X103530000Y-127490000D03*
%TO.N,/BM1366/VDD1_0*%
X111250000Y-106010000D03*
%TO.N,/BM1366/VDD1_1*%
X100180000Y-106040000D03*
%TO.N,/BM1366/VDD2_1*%
X98850000Y-107880000D03*
%TO.N,/BM1366/MODE_0*%
X98090000Y-121060000D03*
%TO.N,/BM1366/VDD3_1*%
X96130000Y-110920000D03*
%TO.N,/BM1366/VDD4_1*%
X96109000Y-112124000D03*
%TO.N,Net-(U9-BOOT)*%
X95368800Y-71183600D03*
X95958800Y-74273600D03*
%TO.N,/BM1366/CI*%
X121860400Y-130850000D03*
X113272599Y-98869299D03*
%TO.N,/BM1366/RO*%
X112962000Y-97645000D03*
X116428000Y-115817000D03*
%TO.N,/BM1366/RST_N*%
X117148868Y-114071132D03*
X111948000Y-102053000D03*
%TO.N,Net-(Q2-G)*%
X101710600Y-82811400D03*
X102700000Y-75260000D03*
%TO.N,/BM1366/RI*%
X97600000Y-116430000D03*
%TO.N,/BM1366/CLKI*%
X114844000Y-116495900D03*
%TO.N,/BM1366/NRSTO*%
X96610000Y-114090000D03*
%TO.N,/BM1366/BO*%
X96950000Y-115460000D03*
%TO.N,/BM1366/CLKO*%
X96220000Y-117200000D03*
%TO.N,/BM1366/CO*%
X97010000Y-117920000D03*
%TO.N,/ESP32/P_TX*%
X128060000Y-61549000D03*
%TO.N,/ESP32/P_RX*%
X124447000Y-61551000D03*
%TO.N,/ESP32/IO0*%
X124830000Y-55100000D03*
X122113000Y-68573000D03*
X123719000Y-98362000D03*
%TO.N,/ESP32/XIN32*%
X124019000Y-80080000D03*
%TO.N,/BM1366/MODE_1*%
X99393000Y-122727000D03*
%TO.N,/ESP32/XOUT32*%
X121248000Y-80100000D03*
%TO.N,/Power/PGOOD*%
X108278900Y-71440000D03*
%TO.N,/SDA*%
X84702648Y-133065000D03*
X116560000Y-72727000D03*
X84730000Y-85730000D03*
X91500000Y-96290000D03*
X89050000Y-62680000D03*
%TO.N,/BM1366/BI*%
X115540000Y-114780000D03*
%TO.N,/BM1366/NC*%
X85860000Y-117980000D03*
D19*
%TO.N,Net-(D1-Pad2)*%
X121666000Y-90932000D03*
X121666000Y-94488000D03*
%TD*%
%TA.AperFunction,Conductor*%
%TO.N,GND*%
G36*
X131195525Y-47522697D02*
G01*
X131307603Y-47528992D01*
X131476243Y-47539193D01*
X131489687Y-47540736D01*
X131622387Y-47563283D01*
X131768137Y-47589994D01*
X131780244Y-47592841D01*
X131853104Y-47613831D01*
X131912707Y-47631003D01*
X131915297Y-47631779D01*
X132052072Y-47674400D01*
X132062774Y-47678275D01*
X132142227Y-47711186D01*
X132191674Y-47731668D01*
X132195122Y-47733157D01*
X132320723Y-47789685D01*
X132324217Y-47791258D01*
X132333451Y-47795878D01*
X132456350Y-47863802D01*
X132460487Y-47866194D01*
X132580926Y-47939002D01*
X132588638Y-47944059D01*
X132703509Y-48025564D01*
X132708285Y-48029127D01*
X132818702Y-48115633D01*
X132824955Y-48120867D01*
X132930086Y-48214817D01*
X132935222Y-48219673D01*
X133034325Y-48318776D01*
X133039181Y-48323912D01*
X133133131Y-48429043D01*
X133138365Y-48435296D01*
X133224871Y-48545713D01*
X133228445Y-48550504D01*
X133299298Y-48650362D01*
X133309929Y-48665344D01*
X133314996Y-48673072D01*
X133387780Y-48793470D01*
X133390216Y-48797682D01*
X133411446Y-48836095D01*
X133458120Y-48920547D01*
X133462740Y-48929781D01*
X133520821Y-49058830D01*
X133522330Y-49062324D01*
X133575719Y-49191214D01*
X133579606Y-49201948D01*
X133622215Y-49338688D01*
X133622996Y-49341292D01*
X133661153Y-49473738D01*
X133664013Y-49485906D01*
X133690723Y-49631655D01*
X133713258Y-49764289D01*
X133714807Y-49777777D01*
X133725012Y-49946475D01*
X133731302Y-50058474D01*
X133731500Y-50065538D01*
X133731500Y-68319994D01*
X133711498Y-68388115D01*
X133657842Y-68434608D01*
X133587568Y-68444712D01*
X133522988Y-68415218D01*
X133496381Y-68382994D01*
X133404041Y-68223057D01*
X133276252Y-68081133D01*
X133199002Y-68025007D01*
X133121752Y-67968882D01*
X132947288Y-67891206D01*
X132760487Y-67851500D01*
X132569513Y-67851500D01*
X132444978Y-67877970D01*
X132382711Y-67891206D01*
X132208246Y-67968883D01*
X132053747Y-68081133D01*
X131925958Y-68223057D01*
X131830472Y-68388443D01*
X131771458Y-68570070D01*
X131751496Y-68759999D01*
X131771458Y-68949929D01*
X131830472Y-69131556D01*
X131925958Y-69296942D01*
X132038740Y-69422199D01*
X132053747Y-69438866D01*
X132208248Y-69551118D01*
X132382712Y-69628794D01*
X132569513Y-69668500D01*
X132569515Y-69668500D01*
X132760485Y-69668500D01*
X132760487Y-69668500D01*
X132947288Y-69628794D01*
X133121752Y-69551118D01*
X133276253Y-69438866D01*
X133404040Y-69296944D01*
X133496381Y-69137004D01*
X133547763Y-69088012D01*
X133617477Y-69074576D01*
X133683388Y-69100962D01*
X133724570Y-69158794D01*
X133731500Y-69200005D01*
X133731500Y-144740460D01*
X133731302Y-144747525D01*
X133725012Y-144859524D01*
X133714808Y-145028216D01*
X133713258Y-145041714D01*
X133690723Y-145174343D01*
X133676602Y-145251404D01*
X133664015Y-145320091D01*
X133664014Y-145320095D01*
X133661154Y-145332257D01*
X133622995Y-145464707D01*
X133622215Y-145467310D01*
X133579606Y-145604050D01*
X133575719Y-145614784D01*
X133522330Y-145743674D01*
X133520821Y-145747168D01*
X133462740Y-145876217D01*
X133458120Y-145885451D01*
X133390231Y-146008290D01*
X133387780Y-146012528D01*
X133314996Y-146132926D01*
X133309929Y-146140654D01*
X133228447Y-146255492D01*
X133224871Y-146260285D01*
X133138365Y-146370702D01*
X133133131Y-146376955D01*
X133039181Y-146482086D01*
X133034325Y-146487222D01*
X132935222Y-146586325D01*
X132930086Y-146591181D01*
X132824955Y-146685131D01*
X132818702Y-146690365D01*
X132708285Y-146776871D01*
X132703492Y-146780447D01*
X132588654Y-146861929D01*
X132580926Y-146866996D01*
X132460528Y-146939780D01*
X132456290Y-146942231D01*
X132333451Y-147010120D01*
X132324217Y-147014740D01*
X132195168Y-147072821D01*
X132191674Y-147074330D01*
X132062784Y-147127719D01*
X132052050Y-147131606D01*
X131915310Y-147174215D01*
X131912706Y-147174996D01*
X131780260Y-147213153D01*
X131768092Y-147216013D01*
X131622344Y-147242723D01*
X131489709Y-147265258D01*
X131476221Y-147266807D01*
X131307524Y-147277012D01*
X131195525Y-147283302D01*
X131188461Y-147283500D01*
X79732539Y-147283500D01*
X79725474Y-147283302D01*
X79613475Y-147277012D01*
X79444782Y-147266808D01*
X79431284Y-147265258D01*
X79298656Y-147242723D01*
X79227995Y-147229774D01*
X79152887Y-147216010D01*
X79140741Y-147213154D01*
X79008291Y-147174995D01*
X79005688Y-147174215D01*
X78868948Y-147131606D01*
X78858214Y-147127719D01*
X78729324Y-147074330D01*
X78725830Y-147072821D01*
X78596781Y-147014740D01*
X78587547Y-147010120D01*
X78511226Y-146967940D01*
X78464682Y-146942216D01*
X78460470Y-146939780D01*
X78340072Y-146866996D01*
X78332344Y-146861929D01*
X78217506Y-146780447D01*
X78212713Y-146776871D01*
X78102296Y-146690365D01*
X78096043Y-146685131D01*
X77990912Y-146591181D01*
X77985776Y-146586325D01*
X77886673Y-146487222D01*
X77881817Y-146482086D01*
X77787867Y-146376955D01*
X77782633Y-146370702D01*
X77696127Y-146260285D01*
X77692564Y-146255509D01*
X77611059Y-146140638D01*
X77606002Y-146132926D01*
X77533194Y-146012487D01*
X77530802Y-146008350D01*
X77462878Y-145885451D01*
X77458258Y-145876217D01*
X77456685Y-145872723D01*
X77400157Y-145747122D01*
X77398668Y-145743674D01*
X77361483Y-145653903D01*
X77345275Y-145614774D01*
X77341400Y-145604072D01*
X77298779Y-145467297D01*
X77298002Y-145464706D01*
X77284688Y-145418492D01*
X77259842Y-145332250D01*
X77256986Y-145320095D01*
X77230288Y-145174416D01*
X77207738Y-145041697D01*
X77206192Y-145028233D01*
X77195988Y-144859524D01*
X77189698Y-144747524D01*
X77189500Y-144740462D01*
X77189500Y-144380000D01*
X78664341Y-144380000D01*
X78684937Y-144615409D01*
X78746096Y-144843662D01*
X78845965Y-145057829D01*
X78981507Y-145251404D01*
X79148595Y-145418492D01*
X79148598Y-145418494D01*
X79148599Y-145418495D01*
X79342171Y-145554035D01*
X79449428Y-145604050D01*
X79556337Y-145653903D01*
X79784596Y-145715064D01*
X79958287Y-145730260D01*
X79958294Y-145730260D01*
X79961034Y-145730500D01*
X79963774Y-145730500D01*
X80076226Y-145730500D01*
X80078966Y-145730500D01*
X80081706Y-145730260D01*
X80081712Y-145730260D01*
X80255403Y-145715064D01*
X80255406Y-145715063D01*
X80255408Y-145715063D01*
X80483663Y-145653903D01*
X80697829Y-145554035D01*
X80891401Y-145418495D01*
X81058495Y-145251401D01*
X81194035Y-145057830D01*
X81293903Y-144843663D01*
X81355063Y-144615408D01*
X81375659Y-144380000D01*
X81355063Y-144144592D01*
X81293903Y-143916337D01*
X81194035Y-143702171D01*
X81137899Y-143622000D01*
X88320652Y-143622000D01*
X88340407Y-143847807D01*
X88399072Y-144066741D01*
X88494868Y-144272178D01*
X88542946Y-144340840D01*
X89108134Y-143775652D01*
X89113673Y-143802304D01*
X89181131Y-143932493D01*
X89281213Y-144039655D01*
X89406495Y-144115840D01*
X89468887Y-144133321D01*
X88902158Y-144700050D01*
X88902158Y-144700052D01*
X88970824Y-144748133D01*
X89176258Y-144843927D01*
X89395192Y-144902592D01*
X89621000Y-144922347D01*
X89846807Y-144902592D01*
X90065741Y-144843927D01*
X90271171Y-144748134D01*
X90339840Y-144700051D01*
X89776006Y-144136216D01*
X89900752Y-144082032D01*
X90014493Y-143989497D01*
X90099051Y-143869706D01*
X90132841Y-143774630D01*
X90699051Y-144340840D01*
X90747136Y-144272170D01*
X90776528Y-144209137D01*
X90823444Y-144155852D01*
X90891721Y-144136390D01*
X90959681Y-144156931D01*
X91004917Y-144209135D01*
X91034429Y-144272423D01*
X91164493Y-144458173D01*
X91324826Y-144618506D01*
X91324829Y-144618508D01*
X91324830Y-144618509D01*
X91510575Y-144748569D01*
X91606417Y-144793261D01*
X91716082Y-144844399D01*
X91771750Y-144859315D01*
X91935110Y-144903087D01*
X92161000Y-144922850D01*
X92386890Y-144903087D01*
X92605917Y-144844399D01*
X92811425Y-144748569D01*
X92997170Y-144618509D01*
X93157509Y-144458170D01*
X93287569Y-144272425D01*
X93316805Y-144209727D01*
X93363722Y-144156443D01*
X93432000Y-144136982D01*
X93499960Y-144157524D01*
X93545194Y-144209727D01*
X93552640Y-144225693D01*
X93574431Y-144272425D01*
X93704493Y-144458173D01*
X93864826Y-144618506D01*
X94050573Y-144748568D01*
X94050574Y-144748568D01*
X94050575Y-144748569D01*
X94146417Y-144793261D01*
X94187457Y-144812398D01*
X94240742Y-144859315D01*
X94260203Y-144927593D01*
X94239661Y-144995553D01*
X94197209Y-145035711D01*
X94170141Y-145051338D01*
X94029831Y-145177675D01*
X93918852Y-145330425D01*
X93842055Y-145502912D01*
X93831189Y-145554034D01*
X93802800Y-145687596D01*
X93802800Y-145876406D01*
X93842055Y-146061089D01*
X93918851Y-146233575D01*
X94023023Y-146376955D01*
X94029831Y-146386326D01*
X94170141Y-146512662D01*
X94333656Y-146607068D01*
X94420082Y-146635149D01*
X94513225Y-146665413D01*
X94653923Y-146680201D01*
X94657213Y-146680201D01*
X94744787Y-146680201D01*
X94748077Y-146680201D01*
X94888775Y-146665413D01*
X95068343Y-146607068D01*
X95231857Y-146512663D01*
X95372170Y-146386325D01*
X95483149Y-146233575D01*
X95559945Y-146061089D01*
X95599200Y-145876406D01*
X95599200Y-145687596D01*
X95559945Y-145502913D01*
X95483149Y-145330427D01*
X95372170Y-145177677D01*
X95363888Y-145170220D01*
X95231859Y-145051340D01*
X95204791Y-145035712D01*
X95155798Y-144984329D01*
X95142363Y-144914615D01*
X95168750Y-144848704D01*
X95214540Y-144812399D01*
X95351425Y-144748569D01*
X95537170Y-144618509D01*
X95697509Y-144458170D01*
X95827569Y-144272425D01*
X95856805Y-144209727D01*
X95903722Y-144156443D01*
X95972000Y-144136982D01*
X96039960Y-144157524D01*
X96085194Y-144209727D01*
X96092640Y-144225693D01*
X96114431Y-144272425D01*
X96244493Y-144458173D01*
X96404826Y-144618506D01*
X96404829Y-144618508D01*
X96404830Y-144618509D01*
X96590575Y-144748569D01*
X96686417Y-144793261D01*
X96796082Y-144844399D01*
X96851750Y-144859315D01*
X97015110Y-144903087D01*
X97241000Y-144922850D01*
X97466890Y-144903087D01*
X97685917Y-144844399D01*
X97891425Y-144748569D01*
X98077170Y-144618509D01*
X98217041Y-144478638D01*
X107991500Y-144478638D01*
X107998011Y-144539201D01*
X108014173Y-144582533D01*
X108049111Y-144676205D01*
X108136738Y-144793261D01*
X108253794Y-144880888D01*
X108253795Y-144880888D01*
X108253796Y-144880889D01*
X108390799Y-144931989D01*
X108451362Y-144938500D01*
X108454731Y-144938500D01*
X110245269Y-144938500D01*
X110248638Y-144938500D01*
X110309201Y-144931989D01*
X110446204Y-144880889D01*
X110563261Y-144793261D01*
X110650889Y-144676204D01*
X110694999Y-144557941D01*
X110737545Y-144501107D01*
X110804065Y-144476296D01*
X110873439Y-144491387D01*
X110905753Y-144516635D01*
X110943780Y-144557943D01*
X110966762Y-144582908D01*
X111144421Y-144721187D01*
X111144424Y-144721189D01*
X111342426Y-144828342D01*
X111555365Y-144901444D01*
X111777431Y-144938500D01*
X111777434Y-144938500D01*
X112002566Y-144938500D01*
X112002569Y-144938500D01*
X112224635Y-144901444D01*
X112437574Y-144828342D01*
X112635576Y-144721189D01*
X112813240Y-144582906D01*
X112965722Y-144417268D01*
X113054518Y-144281354D01*
X113108521Y-144235268D01*
X113178869Y-144225693D01*
X113243226Y-144255670D01*
X113265480Y-144281353D01*
X113354278Y-144417268D01*
X113466525Y-144539200D01*
X113506762Y-144582908D01*
X113684421Y-144721187D01*
X113684424Y-144721189D01*
X113882426Y-144828342D01*
X114095365Y-144901444D01*
X114317431Y-144938500D01*
X114317434Y-144938500D01*
X114542566Y-144938500D01*
X114542569Y-144938500D01*
X114764635Y-144901444D01*
X114977574Y-144828342D01*
X115175576Y-144721189D01*
X115353240Y-144582906D01*
X115505722Y-144417268D01*
X115594518Y-144281354D01*
X115648521Y-144235268D01*
X115718869Y-144225693D01*
X115783226Y-144255670D01*
X115805480Y-144281353D01*
X115894278Y-144417268D01*
X116006525Y-144539200D01*
X116046762Y-144582908D01*
X116224421Y-144721187D01*
X116224424Y-144721189D01*
X116422426Y-144828342D01*
X116635365Y-144901444D01*
X116857431Y-144938500D01*
X116857434Y-144938500D01*
X117082566Y-144938500D01*
X117082569Y-144938500D01*
X117304635Y-144901444D01*
X117517574Y-144828342D01*
X117715576Y-144721189D01*
X117893240Y-144582906D01*
X118045722Y-144417268D01*
X118134817Y-144280896D01*
X118188819Y-144234809D01*
X118259167Y-144225234D01*
X118323524Y-144255211D01*
X118345782Y-144280897D01*
X118434678Y-144416962D01*
X118587096Y-144582533D01*
X118764697Y-144720766D01*
X118962631Y-144827883D01*
X119175485Y-144900955D01*
X119256000Y-144914391D01*
X119256000Y-144013674D01*
X119367685Y-144064680D01*
X119474237Y-144080000D01*
X119545763Y-144080000D01*
X119652315Y-144064680D01*
X119764000Y-144013674D01*
X119764000Y-144914390D01*
X119844514Y-144900955D01*
X120057368Y-144827883D01*
X120255302Y-144720766D01*
X120432903Y-144582533D01*
X120536497Y-144469999D01*
X129624341Y-144469999D01*
X129644937Y-144705409D01*
X129706096Y-144933662D01*
X129805965Y-145147829D01*
X129941507Y-145341404D01*
X130108595Y-145508492D01*
X130108598Y-145508494D01*
X130108599Y-145508495D01*
X130302171Y-145644035D01*
X130515846Y-145743674D01*
X130516337Y-145743903D01*
X130744596Y-145805064D01*
X130918287Y-145820260D01*
X130918294Y-145820260D01*
X130921034Y-145820500D01*
X130923774Y-145820500D01*
X131036226Y-145820500D01*
X131038966Y-145820500D01*
X131041706Y-145820260D01*
X131041712Y-145820260D01*
X131215403Y-145805064D01*
X131215406Y-145805063D01*
X131215408Y-145805063D01*
X131443663Y-145743903D01*
X131657829Y-145644035D01*
X131851401Y-145508495D01*
X132018495Y-145341401D01*
X132154035Y-145147830D01*
X132253903Y-144933663D01*
X132315063Y-144705408D01*
X132335659Y-144470000D01*
X132315063Y-144234592D01*
X132253903Y-144006337D01*
X132154035Y-143792171D01*
X132018495Y-143598599D01*
X132018494Y-143598598D01*
X132018492Y-143598595D01*
X131851404Y-143431507D01*
X131657829Y-143295965D01*
X131443662Y-143196096D01*
X131215403Y-143134935D01*
X131041712Y-143119739D01*
X131041683Y-143119737D01*
X131038966Y-143119500D01*
X130921034Y-143119500D01*
X130918317Y-143119737D01*
X130918287Y-143119739D01*
X130744596Y-143134935D01*
X130516337Y-143196096D01*
X130302170Y-143295965D01*
X130108595Y-143431507D01*
X129941507Y-143598595D01*
X129805965Y-143792169D01*
X129706096Y-144006336D01*
X129644937Y-144234590D01*
X129624341Y-144469999D01*
X120536497Y-144469999D01*
X120585321Y-144416962D01*
X120708419Y-144228548D01*
X120798822Y-144022451D01*
X120846544Y-143834000D01*
X119941116Y-143834000D01*
X119969493Y-143789844D01*
X120010000Y-143651889D01*
X120010000Y-143508111D01*
X119969493Y-143370156D01*
X119941116Y-143326000D01*
X120846544Y-143326000D01*
X120846544Y-143325999D01*
X120798822Y-143137548D01*
X120708419Y-142931451D01*
X120585321Y-142743037D01*
X120432903Y-142577466D01*
X120255302Y-142439233D01*
X120057368Y-142332116D01*
X119844510Y-142259042D01*
X119764000Y-142245606D01*
X119764000Y-143146325D01*
X119652315Y-143095320D01*
X119545763Y-143080000D01*
X119474237Y-143080000D01*
X119367685Y-143095320D01*
X119256000Y-143146325D01*
X119256000Y-142245607D01*
X119255999Y-142245606D01*
X119175489Y-142259042D01*
X118962631Y-142332116D01*
X118764697Y-142439233D01*
X118587096Y-142577466D01*
X118434678Y-142743037D01*
X118345782Y-142879102D01*
X118291778Y-142925190D01*
X118221430Y-142934765D01*
X118157073Y-142904787D01*
X118134816Y-142879101D01*
X118073879Y-142785830D01*
X118045722Y-142742732D01*
X117893240Y-142577094D01*
X117893239Y-142577093D01*
X117893237Y-142577091D01*
X117715578Y-142438812D01*
X117517573Y-142331657D01*
X117364510Y-142279111D01*
X117304635Y-142258556D01*
X117082569Y-142221500D01*
X116857431Y-142221500D01*
X116635365Y-142258556D01*
X116635362Y-142258556D01*
X116635362Y-142258557D01*
X116422426Y-142331657D01*
X116224421Y-142438812D01*
X116046762Y-142577091D01*
X115894278Y-142742731D01*
X115805483Y-142878643D01*
X115751479Y-142924731D01*
X115681131Y-142934306D01*
X115616774Y-142904328D01*
X115594517Y-142878643D01*
X115533879Y-142785830D01*
X115505722Y-142742732D01*
X115353240Y-142577094D01*
X115353239Y-142577093D01*
X115353237Y-142577091D01*
X115175578Y-142438812D01*
X114977573Y-142331657D01*
X114824510Y-142279111D01*
X114764635Y-142258556D01*
X114542569Y-142221500D01*
X114317431Y-142221500D01*
X114095365Y-142258556D01*
X114095362Y-142258556D01*
X114095362Y-142258557D01*
X113882426Y-142331657D01*
X113684421Y-142438812D01*
X113506762Y-142577091D01*
X113354278Y-142742731D01*
X113265483Y-142878643D01*
X113211479Y-142924731D01*
X113141131Y-142934306D01*
X113076774Y-142904328D01*
X113054517Y-142878643D01*
X112993879Y-142785830D01*
X112965722Y-142742732D01*
X112813240Y-142577094D01*
X112813239Y-142577093D01*
X112813237Y-142577091D01*
X112635578Y-142438812D01*
X112437573Y-142331657D01*
X112284510Y-142279111D01*
X112224635Y-142258556D01*
X112002569Y-142221500D01*
X111777431Y-142221500D01*
X111555365Y-142258556D01*
X111555362Y-142258556D01*
X111555362Y-142258557D01*
X111342426Y-142331657D01*
X111144421Y-142438812D01*
X110966758Y-142577094D01*
X110905754Y-142643362D01*
X110844901Y-142679933D01*
X110773937Y-142677798D01*
X110715392Y-142637636D01*
X110694998Y-142602056D01*
X110685688Y-142577094D01*
X110650889Y-142483796D01*
X110650888Y-142483794D01*
X110563261Y-142366738D01*
X110446205Y-142279111D01*
X110356377Y-142245607D01*
X110309201Y-142228011D01*
X110248638Y-142221500D01*
X108451362Y-142221500D01*
X108448013Y-142221859D01*
X108448013Y-142221860D01*
X108390799Y-142228011D01*
X108253794Y-142279111D01*
X108136738Y-142366738D01*
X108049111Y-142483794D01*
X108005002Y-142602056D01*
X107998011Y-142620799D01*
X107991500Y-142681362D01*
X107991500Y-144478638D01*
X98217041Y-144478638D01*
X98237509Y-144458170D01*
X98367569Y-144272425D01*
X98463399Y-144066917D01*
X98522087Y-143847890D01*
X98541850Y-143622000D01*
X98522087Y-143396110D01*
X98463399Y-143177083D01*
X98429110Y-143103551D01*
X98401777Y-143044935D01*
X98367569Y-142971575D01*
X98237509Y-142785830D01*
X98237508Y-142785829D01*
X98237506Y-142785826D01*
X98077173Y-142625493D01*
X97891425Y-142495431D01*
X97685917Y-142399600D01*
X97466890Y-142340913D01*
X97241000Y-142321150D01*
X97015109Y-142340913D01*
X96796082Y-142399600D01*
X96590574Y-142495431D01*
X96404826Y-142625493D01*
X96244493Y-142785826D01*
X96114429Y-142971576D01*
X96085194Y-143034272D01*
X96038277Y-143087556D01*
X95970000Y-143107017D01*
X95902040Y-143086475D01*
X95856806Y-143034272D01*
X95827570Y-142971576D01*
X95697506Y-142785826D01*
X95537173Y-142625493D01*
X95351425Y-142495431D01*
X95145917Y-142399600D01*
X94926890Y-142340913D01*
X94926889Y-142340912D01*
X94701000Y-142321150D01*
X94700999Y-142321150D01*
X94475109Y-142340913D01*
X94256082Y-142399600D01*
X94050574Y-142495431D01*
X93864826Y-142625493D01*
X93704493Y-142785826D01*
X93574429Y-142971576D01*
X93545194Y-143034272D01*
X93498277Y-143087556D01*
X93430000Y-143107017D01*
X93362040Y-143086475D01*
X93316806Y-143034272D01*
X93287570Y-142971576D01*
X93157506Y-142785826D01*
X92997173Y-142625493D01*
X92811425Y-142495431D01*
X92605917Y-142399600D01*
X92386890Y-142340913D01*
X92161000Y-142321150D01*
X91935109Y-142340913D01*
X91716082Y-142399600D01*
X91510574Y-142495431D01*
X91324826Y-142625493D01*
X91164493Y-142785826D01*
X91034430Y-142971575D01*
X91004917Y-143034865D01*
X90957999Y-143088149D01*
X90889721Y-143107609D01*
X90821762Y-143087066D01*
X90776528Y-143034862D01*
X90747134Y-142971826D01*
X90699052Y-142903158D01*
X90699050Y-142903158D01*
X90133864Y-143468344D01*
X90128327Y-143441696D01*
X90060869Y-143311507D01*
X89960787Y-143204345D01*
X89835505Y-143128160D01*
X89773110Y-143110677D01*
X90339840Y-142543946D01*
X90339840Y-142543945D01*
X90271178Y-142495868D01*
X90065741Y-142400072D01*
X89846807Y-142341407D01*
X89621000Y-142321652D01*
X89395192Y-142341407D01*
X89176258Y-142400072D01*
X88970826Y-142495866D01*
X88902157Y-142543947D01*
X89465993Y-143107783D01*
X89341248Y-143161968D01*
X89227507Y-143254503D01*
X89142949Y-143374294D01*
X89109159Y-143469369D01*
X88542947Y-142903157D01*
X88494866Y-142971826D01*
X88399072Y-143177258D01*
X88340407Y-143396192D01*
X88320652Y-143622000D01*
X81137899Y-143622000D01*
X81058495Y-143508599D01*
X81058494Y-143508598D01*
X81058492Y-143508595D01*
X80891404Y-143341507D01*
X80697829Y-143205965D01*
X80483662Y-143106096D01*
X80255403Y-143044935D01*
X80081712Y-143029739D01*
X80081683Y-143029737D01*
X80078966Y-143029500D01*
X79961034Y-143029500D01*
X79958317Y-143029737D01*
X79958287Y-143029739D01*
X79784596Y-143044935D01*
X79556337Y-143106096D01*
X79342170Y-143205965D01*
X79148595Y-143341507D01*
X78981507Y-143508595D01*
X78845965Y-143702169D01*
X78746096Y-143916336D01*
X78684937Y-144144590D01*
X78664341Y-144380000D01*
X77189500Y-144380000D01*
X77189500Y-137389999D01*
X93666496Y-137389999D01*
X93686458Y-137579929D01*
X93745472Y-137761556D01*
X93840958Y-137926942D01*
X93845123Y-137931568D01*
X93968747Y-138068866D01*
X94123248Y-138181118D01*
X94297712Y-138258794D01*
X94484513Y-138298500D01*
X94484515Y-138298500D01*
X94675485Y-138298500D01*
X94675487Y-138298500D01*
X94862288Y-138258794D01*
X95036752Y-138181118D01*
X95191253Y-138068866D01*
X95319040Y-137926944D01*
X95326456Y-137914099D01*
X97748496Y-137914099D01*
X97768458Y-138104029D01*
X97827472Y-138285656D01*
X97922958Y-138451042D01*
X97922960Y-138451044D01*
X98050747Y-138592966D01*
X98205248Y-138705218D01*
X98379712Y-138782894D01*
X98566513Y-138822600D01*
X98566515Y-138822600D01*
X98757485Y-138822600D01*
X98757487Y-138822600D01*
X98944288Y-138782894D01*
X99118752Y-138705218D01*
X99273253Y-138592966D01*
X99401040Y-138451044D01*
X99496527Y-138285656D01*
X99555542Y-138104028D01*
X99575504Y-137914100D01*
X99555542Y-137724172D01*
X99496527Y-137542544D01*
X99496527Y-137542543D01*
X99401041Y-137377157D01*
X99273252Y-137235233D01*
X99118753Y-137122983D01*
X99118752Y-137122982D01*
X98944288Y-137045306D01*
X98757487Y-137005600D01*
X98566513Y-137005600D01*
X98441979Y-137032070D01*
X98379711Y-137045306D01*
X98205246Y-137122983D01*
X98050747Y-137235233D01*
X97922958Y-137377157D01*
X97827472Y-137542543D01*
X97768458Y-137724170D01*
X97748496Y-137914099D01*
X95326456Y-137914099D01*
X95414527Y-137761556D01*
X95473542Y-137579928D01*
X95493504Y-137390000D01*
X95473542Y-137200072D01*
X95414527Y-137018444D01*
X95414527Y-137018443D01*
X95319041Y-136853057D01*
X95191252Y-136711133D01*
X95036753Y-136598883D01*
X95036752Y-136598882D01*
X94862288Y-136521206D01*
X94675487Y-136481500D01*
X94484513Y-136481500D01*
X94359978Y-136507970D01*
X94297711Y-136521206D01*
X94123246Y-136598883D01*
X93968747Y-136711133D01*
X93840958Y-136853057D01*
X93745472Y-137018443D01*
X93686458Y-137200070D01*
X93666496Y-137389999D01*
X77189500Y-137389999D01*
X77189500Y-136481182D01*
X124379500Y-136481182D01*
X124418604Y-136740615D01*
X124418605Y-136740618D01*
X124495936Y-136991323D01*
X124609772Y-137227704D01*
X124757563Y-137444474D01*
X124757565Y-137444476D01*
X124757567Y-137444479D01*
X124936019Y-137636805D01*
X125141143Y-137800386D01*
X125368357Y-137931568D01*
X125612584Y-138027420D01*
X125868370Y-138085802D01*
X126064506Y-138100500D01*
X126066859Y-138100500D01*
X126193141Y-138100500D01*
X126195494Y-138100500D01*
X126391630Y-138085802D01*
X126647416Y-138027420D01*
X126891643Y-137931568D01*
X127118857Y-137800386D01*
X127323981Y-137636805D01*
X127502433Y-137444479D01*
X127650228Y-137227704D01*
X127764063Y-136991323D01*
X127841396Y-136740615D01*
X127880500Y-136481182D01*
X127880500Y-136218818D01*
X127841396Y-135959385D01*
X127764063Y-135708677D01*
X127650228Y-135472296D01*
X127502433Y-135255521D01*
X127323981Y-135063195D01*
X127118857Y-134899614D01*
X126891643Y-134768432D01*
X126647417Y-134672580D01*
X126391630Y-134614198D01*
X126197836Y-134599675D01*
X126197822Y-134599674D01*
X126195494Y-134599500D01*
X126064506Y-134599500D01*
X126062178Y-134599674D01*
X126062163Y-134599675D01*
X125868369Y-134614198D01*
X125612582Y-134672580D01*
X125368356Y-134768432D01*
X125141146Y-134899612D01*
X125141143Y-134899614D01*
X124936019Y-135063195D01*
X124797525Y-135212455D01*
X124757563Y-135255525D01*
X124609772Y-135472295D01*
X124495936Y-135708676D01*
X124418605Y-135959381D01*
X124418604Y-135959385D01*
X124379500Y-136218818D01*
X124379500Y-136481182D01*
X77189500Y-136481182D01*
X77189500Y-132350000D01*
X81966496Y-132350000D01*
X81986458Y-132539929D01*
X82045472Y-132721556D01*
X82140958Y-132886942D01*
X82170912Y-132920209D01*
X82268747Y-133028866D01*
X82423248Y-133141118D01*
X82597712Y-133218794D01*
X82784513Y-133258500D01*
X82784515Y-133258500D01*
X82975485Y-133258500D01*
X82975487Y-133258500D01*
X83162288Y-133218794D01*
X83336752Y-133141118D01*
X83491253Y-133028866D01*
X83555557Y-132957448D01*
X83616000Y-132920209D01*
X83686984Y-132921560D01*
X83700437Y-132926651D01*
X83715435Y-132933328D01*
X83769533Y-132979306D01*
X83790184Y-133047233D01*
X83789501Y-133061600D01*
X83789144Y-133064997D01*
X83809106Y-133254929D01*
X83868120Y-133436556D01*
X83963606Y-133601942D01*
X83963608Y-133601944D01*
X84091395Y-133743866D01*
X84245896Y-133856118D01*
X84420360Y-133933794D01*
X84607161Y-133973500D01*
X84607163Y-133973500D01*
X84798133Y-133973500D01*
X84798135Y-133973500D01*
X84984936Y-133933794D01*
X85159400Y-133856118D01*
X85313901Y-133743866D01*
X85441688Y-133601944D01*
X85537175Y-133436556D01*
X85596190Y-133254928D01*
X85616152Y-133065000D01*
X85596190Y-132875072D01*
X85537175Y-132693444D01*
X85537175Y-132693443D01*
X85441689Y-132528057D01*
X85313900Y-132386133D01*
X85159401Y-132273883D01*
X85159400Y-132273882D01*
X84997207Y-132201669D01*
X84943112Y-132155690D01*
X84922463Y-132087762D01*
X84923146Y-132073400D01*
X84923504Y-132070000D01*
X84903542Y-131880072D01*
X84851188Y-131718944D01*
X84844527Y-131698443D01*
X84749041Y-131533057D01*
X84621252Y-131391133D01*
X84466753Y-131278883D01*
X84466752Y-131278882D01*
X84292288Y-131201206D01*
X84136067Y-131168000D01*
X87969496Y-131168000D01*
X87989458Y-131357929D01*
X88048472Y-131539556D01*
X88143958Y-131704942D01*
X88172771Y-131736942D01*
X88271747Y-131846866D01*
X88426248Y-131959118D01*
X88600712Y-132036794D01*
X88787513Y-132076500D01*
X88787515Y-132076500D01*
X88978485Y-132076500D01*
X88978487Y-132076500D01*
X89165288Y-132036794D01*
X89339752Y-131959118D01*
X89494253Y-131846866D01*
X89622040Y-131704944D01*
X89717527Y-131539556D01*
X89759893Y-131409167D01*
X89799965Y-131350563D01*
X89865361Y-131322925D01*
X89935318Y-131335031D01*
X89987625Y-131383037D01*
X89999558Y-131409168D01*
X90046472Y-131553555D01*
X90141958Y-131718942D01*
X90141960Y-131718944D01*
X90269747Y-131860866D01*
X90424248Y-131973118D01*
X90598712Y-132050794D01*
X90785513Y-132090500D01*
X90785515Y-132090500D01*
X90976485Y-132090500D01*
X90976487Y-132090500D01*
X91163288Y-132050794D01*
X91337752Y-131973118D01*
X91492253Y-131860866D01*
X91620040Y-131718944D01*
X91715527Y-131553556D01*
X91774542Y-131371928D01*
X91792612Y-131199999D01*
X97536496Y-131199999D01*
X97556458Y-131389929D01*
X97615472Y-131571556D01*
X97710958Y-131736942D01*
X97710960Y-131736944D01*
X97838747Y-131878866D01*
X97993248Y-131991118D01*
X98167712Y-132068794D01*
X98354513Y-132108500D01*
X98354515Y-132108500D01*
X98545485Y-132108500D01*
X98545487Y-132108500D01*
X98732288Y-132068794D01*
X98906752Y-131991118D01*
X99061253Y-131878866D01*
X99189040Y-131736944D01*
X99284527Y-131571556D01*
X99343542Y-131389928D01*
X99363504Y-131200000D01*
X99343542Y-131010072D01*
X99291531Y-130850000D01*
X120946896Y-130850000D01*
X120956443Y-130940831D01*
X120966858Y-131039929D01*
X121025872Y-131221556D01*
X121121358Y-131386942D01*
X121222967Y-131499790D01*
X121249147Y-131528866D01*
X121403648Y-131641118D01*
X121578112Y-131718794D01*
X121764913Y-131758500D01*
X121764915Y-131758500D01*
X121955885Y-131758500D01*
X121955887Y-131758500D01*
X122142688Y-131718794D01*
X122317152Y-131641118D01*
X122471653Y-131528866D01*
X122599440Y-131386944D01*
X122694927Y-131221556D01*
X122753942Y-131039928D01*
X122773904Y-130850000D01*
X122753942Y-130660072D01*
X122707436Y-130516942D01*
X122694927Y-130478443D01*
X122599441Y-130313057D01*
X122471652Y-130171133D01*
X122317153Y-130058883D01*
X122317152Y-130058882D01*
X122142688Y-129981206D01*
X121955887Y-129941500D01*
X121764913Y-129941500D01*
X121640379Y-129967970D01*
X121578111Y-129981206D01*
X121403646Y-130058883D01*
X121249147Y-130171133D01*
X121121358Y-130313057D01*
X121025872Y-130478443D01*
X120966858Y-130660070D01*
X120947023Y-130848793D01*
X120946896Y-130850000D01*
X99291531Y-130850000D01*
X99284527Y-130828444D01*
X99284527Y-130828443D01*
X99189041Y-130663057D01*
X99061252Y-130521133D01*
X98906753Y-130408883D01*
X98906752Y-130408882D01*
X98732288Y-130331206D01*
X98545487Y-130291500D01*
X98354513Y-130291500D01*
X98253101Y-130313056D01*
X98167711Y-130331206D01*
X97993246Y-130408883D01*
X97838747Y-130521133D01*
X97710958Y-130663057D01*
X97615472Y-130828443D01*
X97556458Y-131010070D01*
X97536496Y-131199999D01*
X91792612Y-131199999D01*
X91794504Y-131182000D01*
X91774542Y-130992072D01*
X91727988Y-130848794D01*
X91715527Y-130810443D01*
X91620041Y-130645057D01*
X91508459Y-130521133D01*
X91492253Y-130503134D01*
X91472982Y-130489133D01*
X91337753Y-130390883D01*
X91337752Y-130390882D01*
X91163288Y-130313206D01*
X90976487Y-130273500D01*
X90785513Y-130273500D01*
X90660978Y-130299970D01*
X90598711Y-130313206D01*
X90424246Y-130390883D01*
X90269747Y-130503133D01*
X90141958Y-130645057D01*
X90046472Y-130810444D01*
X90004107Y-130940831D01*
X89964033Y-130999437D01*
X89898637Y-131027074D01*
X89828680Y-131014967D01*
X89776374Y-130966961D01*
X89764442Y-130940835D01*
X89717527Y-130796444D01*
X89717527Y-130796443D01*
X89622041Y-130631057D01*
X89494252Y-130489133D01*
X89383796Y-130408882D01*
X89339752Y-130376882D01*
X89165288Y-130299206D01*
X88978487Y-130259500D01*
X88787513Y-130259500D01*
X88721649Y-130273500D01*
X88600711Y-130299206D01*
X88426246Y-130376883D01*
X88271747Y-130489133D01*
X88143958Y-130631057D01*
X88048472Y-130796443D01*
X87989458Y-130978070D01*
X87969496Y-131168000D01*
X84136067Y-131168000D01*
X84105487Y-131161500D01*
X83914513Y-131161500D01*
X83818069Y-131182000D01*
X83727711Y-131201206D01*
X83553246Y-131278883D01*
X83398746Y-131391133D01*
X83334440Y-131462552D01*
X83273994Y-131499790D01*
X83203010Y-131498438D01*
X83189557Y-131493347D01*
X83162288Y-131481206D01*
X82975487Y-131441500D01*
X82784513Y-131441500D01*
X82685472Y-131462552D01*
X82597711Y-131481206D01*
X82555971Y-131499790D01*
X82435211Y-131553556D01*
X82423246Y-131558883D01*
X82268747Y-131671133D01*
X82140958Y-131813057D01*
X82045472Y-131978443D01*
X81986458Y-132160070D01*
X81966496Y-132350000D01*
X77189500Y-132350000D01*
X77189500Y-129980000D01*
X79762596Y-129980000D01*
X79782558Y-130169929D01*
X79841572Y-130351556D01*
X79937058Y-130516942D01*
X80039807Y-130631056D01*
X80064847Y-130658866D01*
X80219348Y-130771118D01*
X80393812Y-130848794D01*
X80580613Y-130888500D01*
X80580615Y-130888500D01*
X80771585Y-130888500D01*
X80771587Y-130888500D01*
X80958388Y-130848794D01*
X81132852Y-130771118D01*
X81287353Y-130658866D01*
X81415140Y-130516944D01*
X81510627Y-130351556D01*
X81569642Y-130169928D01*
X81589604Y-129980000D01*
X81569642Y-129790072D01*
X81510627Y-129608444D01*
X81510627Y-129608443D01*
X81415141Y-129443057D01*
X81287352Y-129301133D01*
X81132853Y-129188883D01*
X81132852Y-129188882D01*
X80958388Y-129111206D01*
X80771587Y-129071500D01*
X80580613Y-129071500D01*
X80456078Y-129097970D01*
X80393811Y-129111206D01*
X80219346Y-129188883D01*
X80064847Y-129301133D01*
X79937058Y-129443057D01*
X79841572Y-129608443D01*
X79782558Y-129790070D01*
X79762596Y-129980000D01*
X77189500Y-129980000D01*
X77189500Y-127489999D01*
X102616496Y-127489999D01*
X102636458Y-127679929D01*
X102695472Y-127861556D01*
X102790958Y-128026942D01*
X102790960Y-128026944D01*
X102918747Y-128168866D01*
X103073248Y-128281118D01*
X103247712Y-128358794D01*
X103434513Y-128398500D01*
X103434515Y-128398500D01*
X103625485Y-128398500D01*
X103625487Y-128398500D01*
X103812288Y-128358794D01*
X103986752Y-128281118D01*
X104141253Y-128168866D01*
X104269040Y-128026944D01*
X104364527Y-127861556D01*
X104423542Y-127679928D01*
X104443504Y-127490000D01*
X104432994Y-127390000D01*
X111216496Y-127390000D01*
X111236458Y-127579929D01*
X111295472Y-127761556D01*
X111390958Y-127926942D01*
X111481000Y-128026944D01*
X111518747Y-128068866D01*
X111673248Y-128181118D01*
X111847712Y-128258794D01*
X112034513Y-128298500D01*
X112034515Y-128298500D01*
X112225485Y-128298500D01*
X112225487Y-128298500D01*
X112412288Y-128258794D01*
X112586752Y-128181118D01*
X112741253Y-128068866D01*
X112869040Y-127926944D01*
X112959652Y-127770000D01*
X117576496Y-127770000D01*
X117596458Y-127959929D01*
X117655472Y-128141556D01*
X117750958Y-128306942D01*
X117750960Y-128306944D01*
X117878747Y-128448866D01*
X118033248Y-128561118D01*
X118207712Y-128638794D01*
X118394513Y-128678500D01*
X118394515Y-128678500D01*
X118585485Y-128678500D01*
X118585487Y-128678500D01*
X118772288Y-128638794D01*
X118946752Y-128561118D01*
X119101253Y-128448866D01*
X119229040Y-128306944D01*
X119324527Y-128141556D01*
X119383542Y-127959928D01*
X119403504Y-127770000D01*
X119383542Y-127580072D01*
X119324527Y-127398444D01*
X119324527Y-127398443D01*
X119229041Y-127233057D01*
X119101252Y-127091133D01*
X118946753Y-126978883D01*
X118946752Y-126978882D01*
X118772288Y-126901206D01*
X118585487Y-126861500D01*
X118394513Y-126861500D01*
X118269978Y-126887970D01*
X118207711Y-126901206D01*
X118033246Y-126978883D01*
X117878747Y-127091133D01*
X117750958Y-127233057D01*
X117655472Y-127398443D01*
X117596458Y-127580070D01*
X117576496Y-127770000D01*
X112959652Y-127770000D01*
X112964527Y-127761556D01*
X113023542Y-127579928D01*
X113043504Y-127390000D01*
X113023542Y-127200072D01*
X112964527Y-127018444D01*
X112964527Y-127018443D01*
X112869041Y-126853057D01*
X112741252Y-126711133D01*
X112586753Y-126598883D01*
X112586752Y-126598882D01*
X112412288Y-126521206D01*
X112225487Y-126481500D01*
X112034513Y-126481500D01*
X111909979Y-126507970D01*
X111847711Y-126521206D01*
X111673246Y-126598883D01*
X111518747Y-126711133D01*
X111390958Y-126853057D01*
X111295472Y-127018443D01*
X111236458Y-127200070D01*
X111216496Y-127390000D01*
X104432994Y-127390000D01*
X104423542Y-127300072D01*
X104364527Y-127118444D01*
X104364527Y-127118443D01*
X104269041Y-126953057D01*
X104141252Y-126811133D01*
X103997848Y-126706944D01*
X103986752Y-126698882D01*
X103812288Y-126621206D01*
X103625487Y-126581500D01*
X103434513Y-126581500D01*
X103309979Y-126607970D01*
X103247711Y-126621206D01*
X103073246Y-126698883D01*
X102918747Y-126811133D01*
X102790958Y-126953057D01*
X102695472Y-127118443D01*
X102636458Y-127300070D01*
X102616496Y-127489999D01*
X77189500Y-127489999D01*
X77189500Y-126170000D01*
X100101496Y-126170000D01*
X100121458Y-126359929D01*
X100180472Y-126541556D01*
X100275958Y-126706942D01*
X100369772Y-126811133D01*
X100403747Y-126848866D01*
X100558248Y-126961118D01*
X100732712Y-127038794D01*
X100919513Y-127078500D01*
X100919515Y-127078500D01*
X101110485Y-127078500D01*
X101110487Y-127078500D01*
X101297288Y-127038794D01*
X101471752Y-126961118D01*
X101626253Y-126848866D01*
X101754040Y-126706944D01*
X101849527Y-126541556D01*
X101908542Y-126359928D01*
X101928504Y-126170000D01*
X101908542Y-125980072D01*
X101877931Y-125885862D01*
X101849527Y-125798443D01*
X101754041Y-125633057D01*
X101626252Y-125491133D01*
X101471753Y-125378883D01*
X101471752Y-125378882D01*
X101297288Y-125301206D01*
X101110487Y-125261500D01*
X100919513Y-125261500D01*
X100794979Y-125287970D01*
X100732711Y-125301206D01*
X100558246Y-125378883D01*
X100403747Y-125491133D01*
X100275958Y-125633057D01*
X100180472Y-125798443D01*
X100121458Y-125980070D01*
X100101496Y-126170000D01*
X77189500Y-126170000D01*
X77189500Y-124938999D01*
X103517496Y-124938999D01*
X103537458Y-125128929D01*
X103596472Y-125310556D01*
X103691958Y-125475942D01*
X103691960Y-125475944D01*
X103819747Y-125617866D01*
X103974248Y-125730118D01*
X104148712Y-125807794D01*
X104335513Y-125847500D01*
X104335515Y-125847500D01*
X104526485Y-125847500D01*
X104526487Y-125847500D01*
X104713288Y-125807794D01*
X104887752Y-125730118D01*
X105042253Y-125617866D01*
X105170040Y-125475944D01*
X105265527Y-125310556D01*
X105324542Y-125128928D01*
X105344504Y-124939000D01*
X107554496Y-124939000D01*
X107574458Y-125128929D01*
X107633472Y-125310556D01*
X107728958Y-125475942D01*
X107728960Y-125475944D01*
X107856747Y-125617866D01*
X108011248Y-125730118D01*
X108185712Y-125807794D01*
X108372513Y-125847500D01*
X108372515Y-125847500D01*
X108563485Y-125847500D01*
X108563487Y-125847500D01*
X108750288Y-125807794D01*
X108924752Y-125730118D01*
X109079253Y-125617866D01*
X109207040Y-125475944D01*
X109302527Y-125310556D01*
X109361542Y-125128928D01*
X109381504Y-124939000D01*
X109361542Y-124749072D01*
X109302527Y-124567444D01*
X109302527Y-124567443D01*
X109207041Y-124402057D01*
X109079252Y-124260133D01*
X108924753Y-124147883D01*
X108924752Y-124147882D01*
X108750288Y-124070206D01*
X108563487Y-124030500D01*
X108372513Y-124030500D01*
X108247978Y-124056970D01*
X108185711Y-124070206D01*
X108011246Y-124147883D01*
X107856747Y-124260133D01*
X107728958Y-124402057D01*
X107633472Y-124567443D01*
X107574458Y-124749070D01*
X107554496Y-124939000D01*
X105344504Y-124939000D01*
X105324542Y-124749072D01*
X105265527Y-124567444D01*
X105265527Y-124567443D01*
X105170041Y-124402057D01*
X105042252Y-124260133D01*
X104887753Y-124147883D01*
X104887752Y-124147882D01*
X104713288Y-124070206D01*
X104526487Y-124030500D01*
X104335513Y-124030500D01*
X104210979Y-124056970D01*
X104148711Y-124070206D01*
X103974246Y-124147883D01*
X103819747Y-124260133D01*
X103691958Y-124402057D01*
X103596472Y-124567443D01*
X103537458Y-124749070D01*
X103517496Y-124938999D01*
X77189500Y-124938999D01*
X77189500Y-122726999D01*
X98479496Y-122726999D01*
X98499458Y-122916929D01*
X98558472Y-123098556D01*
X98653958Y-123263942D01*
X98653960Y-123263944D01*
X98781747Y-123405866D01*
X98936248Y-123518118D01*
X99110712Y-123595794D01*
X99147930Y-123603705D01*
X99210403Y-123637432D01*
X99244725Y-123699582D01*
X99247043Y-123713780D01*
X99261458Y-123850929D01*
X99320472Y-124032556D01*
X99415958Y-124197942D01*
X99415960Y-124197944D01*
X99543747Y-124339866D01*
X99698248Y-124452118D01*
X99872712Y-124529794D01*
X100059513Y-124569500D01*
X100059515Y-124569500D01*
X100250485Y-124569500D01*
X100250487Y-124569500D01*
X100437288Y-124529794D01*
X100611752Y-124452118D01*
X100766253Y-124339866D01*
X100894040Y-124197944D01*
X100989527Y-124032556D01*
X101048542Y-123850928D01*
X101068504Y-123661000D01*
X101048542Y-123471072D01*
X100989527Y-123289444D01*
X100989527Y-123289443D01*
X100894041Y-123124057D01*
X100766252Y-122982133D01*
X100611753Y-122869883D01*
X100611752Y-122869882D01*
X100437288Y-122792206D01*
X100437284Y-122792204D01*
X100400068Y-122784294D01*
X100337595Y-122750566D01*
X100322372Y-122723000D01*
X108544496Y-122723000D01*
X108546335Y-122740500D01*
X108564458Y-122912929D01*
X108623472Y-123094556D01*
X108718958Y-123259942D01*
X108745521Y-123289443D01*
X108846747Y-123401866D01*
X109001248Y-123514118D01*
X109175712Y-123591794D01*
X109362513Y-123631500D01*
X109362515Y-123631500D01*
X109553485Y-123631500D01*
X109553487Y-123631500D01*
X109740288Y-123591794D01*
X109914752Y-123514118D01*
X110069253Y-123401866D01*
X110197040Y-123259944D01*
X110292527Y-123094556D01*
X110351542Y-122912928D01*
X110364913Y-122785701D01*
X110391926Y-122720048D01*
X110450148Y-122679418D01*
X110521093Y-122676715D01*
X110541466Y-122683766D01*
X110579712Y-122700794D01*
X110766513Y-122740500D01*
X110766515Y-122740500D01*
X110957485Y-122740500D01*
X110957487Y-122740500D01*
X111144288Y-122700794D01*
X111318752Y-122623118D01*
X111473253Y-122510866D01*
X111601040Y-122368944D01*
X111696527Y-122203556D01*
X111755542Y-122021928D01*
X111775504Y-121832000D01*
X111755542Y-121642072D01*
X111696527Y-121460444D01*
X111696527Y-121460443D01*
X111601041Y-121295057D01*
X111473252Y-121153133D01*
X111394798Y-121096133D01*
X111318752Y-121040882D01*
X111144288Y-120963206D01*
X110957487Y-120923500D01*
X110766513Y-120923500D01*
X110641979Y-120949970D01*
X110579711Y-120963206D01*
X110405246Y-121040883D01*
X110250747Y-121153133D01*
X110122958Y-121295057D01*
X110027472Y-121460443D01*
X109968458Y-121642070D01*
X109955086Y-121769296D01*
X109928072Y-121834952D01*
X109869850Y-121875581D01*
X109798905Y-121878284D01*
X109778528Y-121871231D01*
X109740291Y-121854207D01*
X109740289Y-121854206D01*
X109740288Y-121854206D01*
X109553487Y-121814500D01*
X109362513Y-121814500D01*
X109237979Y-121840970D01*
X109175711Y-121854206D01*
X109001246Y-121931883D01*
X108846747Y-122044133D01*
X108718958Y-122186057D01*
X108623472Y-122351443D01*
X108564458Y-122533070D01*
X108548619Y-122683768D01*
X108544496Y-122723000D01*
X100322372Y-122723000D01*
X100303274Y-122688416D01*
X100300957Y-122674231D01*
X100296964Y-122636238D01*
X100309735Y-122566405D01*
X100358237Y-122514557D01*
X100427069Y-122497162D01*
X100494380Y-122519742D01*
X100496307Y-122521115D01*
X100558248Y-122566118D01*
X100732712Y-122643794D01*
X100919513Y-122683500D01*
X100919515Y-122683500D01*
X101110485Y-122683500D01*
X101110487Y-122683500D01*
X101297288Y-122643794D01*
X101471752Y-122566118D01*
X101626253Y-122453866D01*
X101754040Y-122311944D01*
X101849527Y-122146556D01*
X101908542Y-121964928D01*
X101928504Y-121775000D01*
X101908542Y-121585072D01*
X101849527Y-121403444D01*
X101849527Y-121403443D01*
X101754041Y-121238057D01*
X101626252Y-121096133D01*
X101471753Y-120983883D01*
X101471752Y-120983882D01*
X101297288Y-120906206D01*
X101110487Y-120866500D01*
X100919513Y-120866500D01*
X100794978Y-120892970D01*
X100732711Y-120906206D01*
X100558246Y-120983883D01*
X100403747Y-121096133D01*
X100275958Y-121238057D01*
X100180472Y-121403443D01*
X100121458Y-121585070D01*
X100101496Y-121775000D01*
X100111035Y-121865758D01*
X100098263Y-121935596D01*
X100049761Y-121987443D01*
X99980928Y-122004837D01*
X99913618Y-121982256D01*
X99911664Y-121980864D01*
X99849752Y-121935882D01*
X99675288Y-121858206D01*
X99488487Y-121818500D01*
X99297513Y-121818500D01*
X99172978Y-121844970D01*
X99110711Y-121858206D01*
X98970696Y-121920544D01*
X98936891Y-121935596D01*
X98936246Y-121935883D01*
X98781747Y-122048133D01*
X98653958Y-122190057D01*
X98558472Y-122355443D01*
X98499458Y-122537070D01*
X98479496Y-122726999D01*
X77189500Y-122726999D01*
X77189500Y-121059999D01*
X97176496Y-121059999D01*
X97196458Y-121249929D01*
X97255472Y-121431556D01*
X97350958Y-121596942D01*
X97391593Y-121642072D01*
X97478747Y-121738866D01*
X97633248Y-121851118D01*
X97807712Y-121928794D01*
X97994513Y-121968500D01*
X97994515Y-121968500D01*
X98185485Y-121968500D01*
X98185487Y-121968500D01*
X98372288Y-121928794D01*
X98546752Y-121851118D01*
X98701253Y-121738866D01*
X98829040Y-121596944D01*
X98924527Y-121431556D01*
X98983542Y-121249928D01*
X99003504Y-121060000D01*
X98983542Y-120870072D01*
X98924527Y-120688444D01*
X98924527Y-120688443D01*
X98829041Y-120523057D01*
X98701252Y-120381133D01*
X98546753Y-120268883D01*
X98546752Y-120268882D01*
X98372288Y-120191206D01*
X98185487Y-120151500D01*
X97994513Y-120151500D01*
X97869978Y-120177970D01*
X97807711Y-120191206D01*
X97633246Y-120268883D01*
X97478747Y-120381133D01*
X97350958Y-120523057D01*
X97255472Y-120688443D01*
X97196458Y-120870070D01*
X97176496Y-121059999D01*
X77189500Y-121059999D01*
X77189500Y-117979999D01*
X84946496Y-117979999D01*
X84966458Y-118169929D01*
X85025472Y-118351556D01*
X85120958Y-118516942D01*
X85120960Y-118516944D01*
X85248747Y-118658866D01*
X85403248Y-118771118D01*
X85577712Y-118848794D01*
X85764513Y-118888500D01*
X85764515Y-118888500D01*
X85955485Y-118888500D01*
X85955487Y-118888500D01*
X86142288Y-118848794D01*
X86316752Y-118771118D01*
X86471253Y-118658866D01*
X86599040Y-118516944D01*
X86694527Y-118351556D01*
X86753542Y-118169928D01*
X86773504Y-117980000D01*
X86753542Y-117790072D01*
X86694527Y-117608444D01*
X86694527Y-117608443D01*
X86599041Y-117443057D01*
X86471252Y-117301133D01*
X86361118Y-117221116D01*
X86316752Y-117188882D01*
X86142288Y-117111206D01*
X85955487Y-117071500D01*
X85764513Y-117071500D01*
X85639978Y-117097970D01*
X85577711Y-117111206D01*
X85403246Y-117188883D01*
X85248747Y-117301133D01*
X85120958Y-117443057D01*
X85025472Y-117608443D01*
X84966458Y-117790070D01*
X84946496Y-117979999D01*
X77189500Y-117979999D01*
X77189500Y-112124000D01*
X95195496Y-112124000D01*
X95205476Y-112218964D01*
X95215458Y-112313929D01*
X95274472Y-112495556D01*
X95369958Y-112660942D01*
X95369960Y-112660944D01*
X95497747Y-112802866D01*
X95652248Y-112915118D01*
X95826712Y-112992794D01*
X96013513Y-113032500D01*
X96013515Y-113032500D01*
X96158769Y-113032500D01*
X96226890Y-113052502D01*
X96273383Y-113106158D01*
X96283487Y-113176432D01*
X96253993Y-113241012D01*
X96210019Y-113273605D01*
X96153248Y-113298882D01*
X96153246Y-113298883D01*
X95998747Y-113411133D01*
X95870958Y-113553057D01*
X95775472Y-113718443D01*
X95716458Y-113900070D01*
X95696496Y-114090000D01*
X95716458Y-114279929D01*
X95775472Y-114461556D01*
X95870958Y-114626942D01*
X95981758Y-114749998D01*
X95998747Y-114768866D01*
X96026175Y-114788794D01*
X96119179Y-114856365D01*
X96162533Y-114912587D01*
X96168608Y-114983323D01*
X96154238Y-115021300D01*
X96115472Y-115088445D01*
X96056458Y-115270070D01*
X96036496Y-115459999D01*
X96056458Y-115649929D01*
X96115472Y-115831556D01*
X96210960Y-115996945D01*
X96286814Y-116081190D01*
X96317532Y-116145197D01*
X96308767Y-116215651D01*
X96263304Y-116270182D01*
X96195577Y-116291477D01*
X96193178Y-116291500D01*
X96124513Y-116291500D01*
X95999978Y-116317970D01*
X95937711Y-116331206D01*
X95763246Y-116408883D01*
X95608747Y-116521133D01*
X95480958Y-116663057D01*
X95385472Y-116828443D01*
X95326458Y-117010070D01*
X95306496Y-117199999D01*
X95326458Y-117389929D01*
X95385472Y-117571556D01*
X95480958Y-117736942D01*
X95608747Y-117878866D01*
X95763248Y-117991118D01*
X95937712Y-118068794D01*
X96044207Y-118091430D01*
X96106678Y-118125157D01*
X96137841Y-118175739D01*
X96175473Y-118291557D01*
X96270958Y-118456942D01*
X96270960Y-118456944D01*
X96398747Y-118598866D01*
X96553248Y-118711118D01*
X96727712Y-118788794D01*
X96914513Y-118828500D01*
X96914515Y-118828500D01*
X97105485Y-118828500D01*
X97105487Y-118828500D01*
X97292288Y-118788794D01*
X97466752Y-118711118D01*
X97621253Y-118598866D01*
X97749040Y-118456944D01*
X97844527Y-118291556D01*
X97903542Y-118109928D01*
X97923504Y-117920000D01*
X97903542Y-117730072D01*
X97844527Y-117548444D01*
X97806984Y-117483418D01*
X97790247Y-117414426D01*
X97813467Y-117347334D01*
X97869274Y-117303446D01*
X97877353Y-117300990D01*
X97882282Y-117298795D01*
X97882288Y-117298794D01*
X98056752Y-117221118D01*
X98211253Y-117108866D01*
X98339040Y-116966944D01*
X98434527Y-116801556D01*
X98493542Y-116619928D01*
X98506578Y-116495900D01*
X113930496Y-116495900D01*
X113950458Y-116685829D01*
X114009472Y-116867456D01*
X114104958Y-117032842D01*
X114104960Y-117032844D01*
X114232747Y-117174766D01*
X114387248Y-117287018D01*
X114561712Y-117364694D01*
X114748513Y-117404400D01*
X114748515Y-117404400D01*
X114939485Y-117404400D01*
X114939487Y-117404400D01*
X115126288Y-117364694D01*
X115300752Y-117287018D01*
X115455253Y-117174766D01*
X115583040Y-117032844D01*
X115678527Y-116867456D01*
X115737542Y-116685828D01*
X115738898Y-116672921D01*
X115765908Y-116607268D01*
X115824128Y-116566636D01*
X115895073Y-116563931D01*
X115938264Y-116584153D01*
X115971248Y-116608118D01*
X116145712Y-116685794D01*
X116332513Y-116725500D01*
X116332515Y-116725500D01*
X116523485Y-116725500D01*
X116523487Y-116725500D01*
X116710288Y-116685794D01*
X116884752Y-116608118D01*
X117039253Y-116495866D01*
X117167040Y-116353944D01*
X117262527Y-116188556D01*
X117321542Y-116006928D01*
X117341504Y-115817000D01*
X117321542Y-115627072D01*
X117284006Y-115511550D01*
X117262527Y-115445443D01*
X117167041Y-115280057D01*
X117085902Y-115189943D01*
X117055185Y-115125935D01*
X117063949Y-115055481D01*
X117109411Y-115000950D01*
X117177139Y-114979655D01*
X117179538Y-114979632D01*
X117244353Y-114979632D01*
X117244355Y-114979632D01*
X117431156Y-114939926D01*
X117605620Y-114862250D01*
X117760121Y-114749998D01*
X117887908Y-114608076D01*
X117983395Y-114442688D01*
X118042410Y-114261060D01*
X118062372Y-114071132D01*
X118042410Y-113881204D01*
X117989526Y-113718444D01*
X117983395Y-113699575D01*
X117887909Y-113534189D01*
X117760120Y-113392265D01*
X117682870Y-113336139D01*
X117605620Y-113280014D01*
X117431156Y-113202338D01*
X117244355Y-113162632D01*
X117053381Y-113162632D01*
X116964615Y-113181500D01*
X116866579Y-113202338D01*
X116779442Y-113241134D01*
X116706507Y-113273607D01*
X116692114Y-113280015D01*
X116537615Y-113392265D01*
X116409826Y-113534189D01*
X116314340Y-113699575D01*
X116255326Y-113881202D01*
X116249279Y-113938738D01*
X116222265Y-114004394D01*
X116164043Y-114045023D01*
X116093098Y-114047726D01*
X116049908Y-114027502D01*
X115996753Y-113988883D01*
X115996752Y-113988882D01*
X115822288Y-113911206D01*
X115635487Y-113871500D01*
X115444513Y-113871500D01*
X115319979Y-113897970D01*
X115257711Y-113911206D01*
X115083246Y-113988883D01*
X114928747Y-114101133D01*
X114800958Y-114243057D01*
X114705472Y-114408443D01*
X114646458Y-114590070D01*
X114641482Y-114637412D01*
X114626496Y-114780000D01*
X114634522Y-114856365D01*
X114646458Y-114969929D01*
X114705472Y-115151556D01*
X114800958Y-115316942D01*
X114855115Y-115377089D01*
X114885832Y-115441097D01*
X114877069Y-115511550D01*
X114831606Y-115566082D01*
X114763878Y-115587377D01*
X114761479Y-115587400D01*
X114748513Y-115587400D01*
X114623978Y-115613870D01*
X114561711Y-115627106D01*
X114387246Y-115704783D01*
X114232747Y-115817033D01*
X114104958Y-115958957D01*
X114009472Y-116124343D01*
X113950458Y-116305970D01*
X113930496Y-116495900D01*
X98506578Y-116495900D01*
X98513504Y-116430000D01*
X98493542Y-116240072D01*
X98434527Y-116058444D01*
X98434527Y-116058443D01*
X98339041Y-115893057D01*
X98211252Y-115751133D01*
X98071955Y-115649928D01*
X98056752Y-115638882D01*
X97980642Y-115604996D01*
X97937811Y-115585926D01*
X97883715Y-115539945D01*
X97863066Y-115472018D01*
X97863596Y-115460883D01*
X97863503Y-115460003D01*
X97863504Y-115460000D01*
X97843542Y-115270072D01*
X97805034Y-115151556D01*
X97784527Y-115088443D01*
X97689041Y-114923057D01*
X97561252Y-114781133D01*
X97440820Y-114693634D01*
X97397466Y-114637412D01*
X97391391Y-114566676D01*
X97405760Y-114528702D01*
X97444527Y-114461556D01*
X97503542Y-114279928D01*
X97523504Y-114090000D01*
X97503542Y-113900072D01*
X97444527Y-113718444D01*
X97444527Y-113718443D01*
X97349041Y-113553057D01*
X97221252Y-113411133D01*
X97125768Y-113341760D01*
X97066752Y-113298882D01*
X96892288Y-113221206D01*
X96705487Y-113181500D01*
X96560231Y-113181500D01*
X96492110Y-113161498D01*
X96447487Y-113110000D01*
X103212496Y-113110000D01*
X103232458Y-113299929D01*
X103291472Y-113481556D01*
X103386958Y-113646942D01*
X103386960Y-113646944D01*
X103514747Y-113788866D01*
X103669248Y-113901118D01*
X103843712Y-113978794D01*
X104030513Y-114018500D01*
X104030515Y-114018500D01*
X104146955Y-114018500D01*
X104215076Y-114038502D01*
X104261569Y-114092158D01*
X104266786Y-114105559D01*
X104266787Y-114105563D01*
X104266788Y-114105564D01*
X104317472Y-114261556D01*
X104412958Y-114426942D01*
X104412960Y-114426944D01*
X104540747Y-114568866D01*
X104695248Y-114681118D01*
X104869712Y-114758794D01*
X105056513Y-114798500D01*
X105056515Y-114798500D01*
X105247485Y-114798500D01*
X105247487Y-114798500D01*
X105434288Y-114758794D01*
X105608752Y-114681118D01*
X105763253Y-114568866D01*
X105891040Y-114426944D01*
X105986527Y-114261556D01*
X106035794Y-114109929D01*
X106037213Y-114105563D01*
X106077287Y-114046958D01*
X106142684Y-114019321D01*
X106157046Y-114018500D01*
X106189207Y-114018500D01*
X106257328Y-114038502D01*
X106303821Y-114092158D01*
X106309040Y-114105564D01*
X106369472Y-114291555D01*
X106464958Y-114456942D01*
X106529567Y-114528697D01*
X106592747Y-114598866D01*
X106747248Y-114711118D01*
X106921712Y-114788794D01*
X107108513Y-114828500D01*
X107108515Y-114828500D01*
X107299485Y-114828500D01*
X107299487Y-114828500D01*
X107486288Y-114788794D01*
X107660752Y-114711118D01*
X107815253Y-114598866D01*
X107943040Y-114456944D01*
X108038527Y-114291556D01*
X108097542Y-114109928D01*
X108117504Y-113920000D01*
X108097542Y-113730072D01*
X108038527Y-113548444D01*
X108038527Y-113548443D01*
X107943041Y-113383057D01*
X107815252Y-113241133D01*
X107660753Y-113128883D01*
X107660752Y-113128882D01*
X107486288Y-113051206D01*
X107299487Y-113011500D01*
X107192794Y-113011500D01*
X107124673Y-112991498D01*
X107078180Y-112937842D01*
X107072961Y-112924437D01*
X107013218Y-112740571D01*
X107012527Y-112738444D01*
X107012526Y-112738442D01*
X106917041Y-112573057D01*
X106789252Y-112431133D01*
X106712002Y-112375008D01*
X106634752Y-112318882D01*
X106460288Y-112241206D01*
X106273487Y-112201500D01*
X106082513Y-112201500D01*
X105957979Y-112227970D01*
X105895711Y-112241206D01*
X105721246Y-112318883D01*
X105566747Y-112431133D01*
X105438958Y-112573057D01*
X105343472Y-112738443D01*
X105292788Y-112894436D01*
X105252715Y-112953042D01*
X105187318Y-112980679D01*
X105172955Y-112981500D01*
X105131045Y-112981500D01*
X105062924Y-112961498D01*
X105016431Y-112907842D01*
X105011212Y-112894436D01*
X104960527Y-112738443D01*
X104865041Y-112573057D01*
X104737252Y-112431133D01*
X104660002Y-112375008D01*
X104582752Y-112318882D01*
X104408288Y-112241206D01*
X104221487Y-112201500D01*
X104030513Y-112201500D01*
X103905979Y-112227970D01*
X103843711Y-112241206D01*
X103669246Y-112318883D01*
X103514747Y-112431133D01*
X103386958Y-112573057D01*
X103291472Y-112738443D01*
X103232458Y-112920070D01*
X103212496Y-113110000D01*
X96447487Y-113110000D01*
X96445617Y-113107842D01*
X96435513Y-113037568D01*
X96465007Y-112972988D01*
X96508980Y-112940394D01*
X96565752Y-112915118D01*
X96720253Y-112802866D01*
X96848040Y-112660944D01*
X96943527Y-112495556D01*
X97002542Y-112313928D01*
X97022504Y-112124000D01*
X97002542Y-111934072D01*
X96943527Y-111752444D01*
X96943527Y-111752443D01*
X96856245Y-111601267D01*
X96839507Y-111532272D01*
X96862727Y-111465180D01*
X96868286Y-111458248D01*
X96869036Y-111456947D01*
X96869040Y-111456944D01*
X96964527Y-111291556D01*
X97007272Y-111160000D01*
X114156496Y-111160000D01*
X114176458Y-111349929D01*
X114235472Y-111531556D01*
X114330958Y-111696942D01*
X114412470Y-111787470D01*
X114443187Y-111851478D01*
X114434423Y-111921932D01*
X114412471Y-111956091D01*
X114360600Y-112013699D01*
X114265114Y-112179085D01*
X114206100Y-112360712D01*
X114186138Y-112550642D01*
X114206100Y-112740571D01*
X114265114Y-112922198D01*
X114360600Y-113087584D01*
X114428174Y-113162632D01*
X114488389Y-113229508D01*
X114642890Y-113341760D01*
X114817354Y-113419436D01*
X115004155Y-113459142D01*
X115004157Y-113459142D01*
X115195127Y-113459142D01*
X115195129Y-113459142D01*
X115381930Y-113419436D01*
X115556394Y-113341760D01*
X115710895Y-113229508D01*
X115838682Y-113087586D01*
X115934169Y-112922198D01*
X115993184Y-112740570D01*
X116013146Y-112550642D01*
X115993184Y-112360714D01*
X115934169Y-112179086D01*
X115934169Y-112179085D01*
X115838683Y-112013699D01*
X115786812Y-111956091D01*
X115757170Y-111923170D01*
X115726454Y-111859163D01*
X115735218Y-111788710D01*
X115757169Y-111754552D01*
X115809040Y-111696944D01*
X115904527Y-111531556D01*
X115963542Y-111349928D01*
X115983504Y-111160000D01*
X115963542Y-110970072D01*
X115904527Y-110788444D01*
X115904527Y-110788443D01*
X115809041Y-110623057D01*
X115681252Y-110481133D01*
X115546262Y-110383057D01*
X115526752Y-110368882D01*
X115352288Y-110291206D01*
X115165487Y-110251500D01*
X114974513Y-110251500D01*
X114849979Y-110277970D01*
X114787711Y-110291206D01*
X114613246Y-110368883D01*
X114458747Y-110481133D01*
X114330958Y-110623057D01*
X114235472Y-110788443D01*
X114176458Y-110970070D01*
X114156496Y-111160000D01*
X97007272Y-111160000D01*
X97023542Y-111109928D01*
X97043504Y-110920000D01*
X97023542Y-110730072D01*
X96964527Y-110548444D01*
X96964527Y-110548443D01*
X96869041Y-110383057D01*
X96786338Y-110291206D01*
X96741253Y-110241134D01*
X96586752Y-110128882D01*
X96412288Y-110051206D01*
X96225487Y-110011500D01*
X96034513Y-110011500D01*
X95909979Y-110037970D01*
X95847711Y-110051206D01*
X95673246Y-110128883D01*
X95518747Y-110241133D01*
X95390958Y-110383057D01*
X95295472Y-110548443D01*
X95236458Y-110730070D01*
X95216496Y-110919999D01*
X95236458Y-111109929D01*
X95295472Y-111291555D01*
X95382754Y-111442731D01*
X95399492Y-111511726D01*
X95376272Y-111578818D01*
X95370715Y-111585747D01*
X95274472Y-111752444D01*
X95215458Y-111934070D01*
X95215457Y-111934072D01*
X95215458Y-111934072D01*
X95195496Y-112124000D01*
X77189500Y-112124000D01*
X77189500Y-107879999D01*
X97936496Y-107879999D01*
X97956458Y-108069929D01*
X98015472Y-108251556D01*
X98110958Y-108416942D01*
X98110960Y-108416944D01*
X98238747Y-108558866D01*
X98393248Y-108671118D01*
X98567712Y-108748794D01*
X98754513Y-108788500D01*
X98754515Y-108788500D01*
X98945485Y-108788500D01*
X98945487Y-108788500D01*
X99132288Y-108748794D01*
X99306752Y-108671118D01*
X99461253Y-108558866D01*
X99589040Y-108416944D01*
X99684527Y-108251556D01*
X99743542Y-108069928D01*
X99763504Y-107880000D01*
X99755096Y-107799999D01*
X111616496Y-107799999D01*
X111636458Y-107989929D01*
X111695472Y-108171556D01*
X111790958Y-108336942D01*
X111790960Y-108336944D01*
X111918747Y-108478866D01*
X112073248Y-108591118D01*
X112247712Y-108668794D01*
X112434513Y-108708500D01*
X112434515Y-108708500D01*
X112625485Y-108708500D01*
X112625487Y-108708500D01*
X112812288Y-108668794D01*
X112986752Y-108591118D01*
X113141253Y-108478866D01*
X113269040Y-108336944D01*
X113364527Y-108171556D01*
X113423542Y-107989928D01*
X113443504Y-107800000D01*
X113423542Y-107610072D01*
X113364527Y-107428444D01*
X113364527Y-107428443D01*
X113269041Y-107263057D01*
X113141252Y-107121133D01*
X113064002Y-107065007D01*
X112986752Y-107008882D01*
X112812288Y-106931206D01*
X112625487Y-106891500D01*
X112434513Y-106891500D01*
X112353152Y-106908794D01*
X112247711Y-106931206D01*
X112073246Y-107008883D01*
X111918747Y-107121133D01*
X111790958Y-107263057D01*
X111695472Y-107428443D01*
X111636458Y-107610070D01*
X111616496Y-107799999D01*
X99755096Y-107799999D01*
X99743542Y-107690072D01*
X99684527Y-107508444D01*
X99684527Y-107508443D01*
X99589041Y-107343057D01*
X99461252Y-107201133D01*
X99351143Y-107121134D01*
X99306752Y-107088882D01*
X99132288Y-107011206D01*
X98945487Y-106971500D01*
X98754513Y-106971500D01*
X98629979Y-106997970D01*
X98567711Y-107011206D01*
X98393246Y-107088883D01*
X98238747Y-107201133D01*
X98110958Y-107343057D01*
X98015472Y-107508443D01*
X97956458Y-107690070D01*
X97936496Y-107879999D01*
X77189500Y-107879999D01*
X77189500Y-106039999D01*
X99266496Y-106039999D01*
X99286458Y-106229929D01*
X99345472Y-106411556D01*
X99440958Y-106576942D01*
X99440960Y-106576944D01*
X99568747Y-106718866D01*
X99723248Y-106831118D01*
X99897712Y-106908794D01*
X100084513Y-106948500D01*
X100084515Y-106948500D01*
X100275485Y-106948500D01*
X100275487Y-106948500D01*
X100462288Y-106908794D01*
X100636752Y-106831118D01*
X100791253Y-106718866D01*
X100919040Y-106576944D01*
X101014527Y-106411556D01*
X101073542Y-106229928D01*
X101093504Y-106040000D01*
X101090351Y-106010000D01*
X110336496Y-106010000D01*
X110356458Y-106199929D01*
X110415472Y-106381556D01*
X110510958Y-106546942D01*
X110510960Y-106546944D01*
X110638747Y-106688866D01*
X110793248Y-106801118D01*
X110967712Y-106878794D01*
X111154513Y-106918500D01*
X111154515Y-106918500D01*
X111345485Y-106918500D01*
X111345487Y-106918500D01*
X111532288Y-106878794D01*
X111706752Y-106801118D01*
X111861253Y-106688866D01*
X111989040Y-106546944D01*
X112084527Y-106381556D01*
X112143542Y-106199928D01*
X112163504Y-106010000D01*
X112143542Y-105820072D01*
X112094275Y-105668444D01*
X112084527Y-105638443D01*
X111989041Y-105473057D01*
X111861252Y-105331133D01*
X111784002Y-105275008D01*
X111706752Y-105218882D01*
X111532288Y-105141206D01*
X111345487Y-105101500D01*
X111154513Y-105101500D01*
X111029979Y-105127970D01*
X110967711Y-105141206D01*
X110793246Y-105218883D01*
X110638747Y-105331133D01*
X110510958Y-105473057D01*
X110415472Y-105638443D01*
X110356458Y-105820070D01*
X110336496Y-106010000D01*
X101090351Y-106010000D01*
X101073542Y-105850072D01*
X101014527Y-105668444D01*
X101014527Y-105668443D01*
X100919041Y-105503057D01*
X100791252Y-105361133D01*
X100636753Y-105248883D01*
X100636752Y-105248882D01*
X100462288Y-105171206D01*
X100275487Y-105131500D01*
X100084513Y-105131500D01*
X100004535Y-105148500D01*
X99897711Y-105171206D01*
X99723246Y-105248883D01*
X99568747Y-105361133D01*
X99440958Y-105503057D01*
X99345472Y-105668443D01*
X99286458Y-105850070D01*
X99266496Y-106039999D01*
X77189500Y-106039999D01*
X77189500Y-104239999D01*
X102086496Y-104239999D01*
X102106458Y-104429929D01*
X102165472Y-104611556D01*
X102260958Y-104776942D01*
X102260960Y-104776944D01*
X102388747Y-104918866D01*
X102543248Y-105031118D01*
X102717712Y-105108794D01*
X102904513Y-105148500D01*
X102904515Y-105148500D01*
X103095485Y-105148500D01*
X103095487Y-105148500D01*
X103282288Y-105108794D01*
X103456752Y-105031118D01*
X103611253Y-104918866D01*
X103739040Y-104776944D01*
X103834527Y-104611556D01*
X103893542Y-104429928D01*
X103910351Y-104270000D01*
X107416496Y-104270000D01*
X107436458Y-104459929D01*
X107495472Y-104641556D01*
X107590958Y-104806942D01*
X107590960Y-104806944D01*
X107718747Y-104948866D01*
X107873248Y-105061118D01*
X108047712Y-105138794D01*
X108234513Y-105178500D01*
X108234515Y-105178500D01*
X108425485Y-105178500D01*
X108425487Y-105178500D01*
X108612288Y-105138794D01*
X108786752Y-105061118D01*
X108941253Y-104948866D01*
X109069040Y-104806944D01*
X109164527Y-104641556D01*
X109223542Y-104459928D01*
X109243504Y-104270000D01*
X109233835Y-104178000D01*
X125379496Y-104178000D01*
X125399458Y-104367929D01*
X125458472Y-104549556D01*
X125553958Y-104714942D01*
X125553960Y-104714944D01*
X125681747Y-104856866D01*
X125836248Y-104969118D01*
X126010712Y-105046794D01*
X126197513Y-105086500D01*
X126197515Y-105086500D01*
X126388485Y-105086500D01*
X126388487Y-105086500D01*
X126575288Y-105046794D01*
X126749752Y-104969118D01*
X126904253Y-104856866D01*
X127032040Y-104714944D01*
X127127527Y-104549556D01*
X127186542Y-104367928D01*
X127206504Y-104178000D01*
X127186542Y-103988072D01*
X127127527Y-103806444D01*
X127127527Y-103806443D01*
X127032041Y-103641057D01*
X126904252Y-103499133D01*
X126749753Y-103386883D01*
X126749752Y-103386882D01*
X126575288Y-103309206D01*
X126388487Y-103269500D01*
X126197513Y-103269500D01*
X126072979Y-103295970D01*
X126010711Y-103309206D01*
X125836246Y-103386883D01*
X125681747Y-103499133D01*
X125553958Y-103641057D01*
X125458472Y-103806443D01*
X125399458Y-103988070D01*
X125379496Y-104178000D01*
X109233835Y-104178000D01*
X109223542Y-104080072D01*
X109164527Y-103898444D01*
X109164527Y-103898443D01*
X109069041Y-103733057D01*
X108941252Y-103591133D01*
X108786753Y-103478883D01*
X108786752Y-103478882D01*
X108612288Y-103401206D01*
X108425487Y-103361500D01*
X108234513Y-103361500D01*
X108115101Y-103386882D01*
X108047711Y-103401206D01*
X107873246Y-103478883D01*
X107718747Y-103591133D01*
X107590958Y-103733057D01*
X107495472Y-103898443D01*
X107436458Y-104080070D01*
X107416496Y-104270000D01*
X103910351Y-104270000D01*
X103913504Y-104240000D01*
X103893542Y-104050072D01*
X103844275Y-103898444D01*
X103834527Y-103868443D01*
X103739041Y-103703057D01*
X103611252Y-103561133D01*
X103525916Y-103499133D01*
X103456752Y-103448882D01*
X103282288Y-103371206D01*
X103095487Y-103331500D01*
X102904513Y-103331500D01*
X102779979Y-103357970D01*
X102717711Y-103371206D01*
X102543246Y-103448883D01*
X102388747Y-103561133D01*
X102260958Y-103703057D01*
X102165472Y-103868443D01*
X102106458Y-104050070D01*
X102086496Y-104239999D01*
X77189500Y-104239999D01*
X77189500Y-102053000D01*
X111034496Y-102053000D01*
X111054458Y-102242929D01*
X111113472Y-102424556D01*
X111208958Y-102589942D01*
X111208960Y-102589944D01*
X111336747Y-102731866D01*
X111491248Y-102844118D01*
X111665712Y-102921794D01*
X111852513Y-102961500D01*
X111852515Y-102961500D01*
X112043485Y-102961500D01*
X112043487Y-102961500D01*
X112230288Y-102921794D01*
X112404752Y-102844118D01*
X112559253Y-102731866D01*
X112687040Y-102589944D01*
X112782527Y-102424556D01*
X112841542Y-102242928D01*
X112848892Y-102172999D01*
X116258496Y-102172999D01*
X116278458Y-102362929D01*
X116337472Y-102544556D01*
X116432958Y-102709942D01*
X116553769Y-102844116D01*
X116560747Y-102851866D01*
X116715248Y-102964118D01*
X116889712Y-103041794D01*
X117076513Y-103081500D01*
X117076515Y-103081500D01*
X117267485Y-103081500D01*
X117267487Y-103081500D01*
X117454288Y-103041794D01*
X117628752Y-102964118D01*
X117783253Y-102851866D01*
X117911040Y-102709944D01*
X118006527Y-102544556D01*
X118065542Y-102362928D01*
X118085504Y-102173000D01*
X118065542Y-101983072D01*
X118006527Y-101801444D01*
X118006527Y-101801443D01*
X117911041Y-101636057D01*
X117847146Y-101565095D01*
X117783253Y-101494134D01*
X117628752Y-101381882D01*
X117454288Y-101304206D01*
X117267487Y-101264500D01*
X117076513Y-101264500D01*
X116951979Y-101290970D01*
X116889711Y-101304206D01*
X116715246Y-101381883D01*
X116560747Y-101494133D01*
X116432958Y-101636057D01*
X116337472Y-101801443D01*
X116278458Y-101983070D01*
X116258496Y-102172999D01*
X112848892Y-102172999D01*
X112861504Y-102053000D01*
X112841542Y-101863072D01*
X112782527Y-101681444D01*
X112782527Y-101681443D01*
X112687041Y-101516057D01*
X112559252Y-101374133D01*
X112404753Y-101261883D01*
X112404752Y-101261882D01*
X112230288Y-101184206D01*
X112043487Y-101144500D01*
X111852513Y-101144500D01*
X111727978Y-101170970D01*
X111665711Y-101184206D01*
X111491246Y-101261883D01*
X111336747Y-101374133D01*
X111208958Y-101516057D01*
X111113472Y-101681443D01*
X111054458Y-101863070D01*
X111034496Y-102053000D01*
X77189500Y-102053000D01*
X77189500Y-100451198D01*
X115589353Y-100451198D01*
X115591035Y-100452255D01*
X115752259Y-100508670D01*
X115922000Y-100527795D01*
X116091740Y-100508670D01*
X116252962Y-100452256D01*
X116254644Y-100451198D01*
X116589353Y-100451198D01*
X116591035Y-100452255D01*
X116752259Y-100508670D01*
X116922000Y-100527795D01*
X116982316Y-100520999D01*
X126852496Y-100520999D01*
X126872458Y-100710929D01*
X126931472Y-100892556D01*
X127026958Y-101057942D01*
X127026960Y-101057944D01*
X127154747Y-101199866D01*
X127309248Y-101312118D01*
X127483712Y-101389794D01*
X127670513Y-101429500D01*
X127670515Y-101429500D01*
X127861485Y-101429500D01*
X127861487Y-101429500D01*
X128048288Y-101389794D01*
X128222752Y-101312118D01*
X128377253Y-101199866D01*
X128505040Y-101057944D01*
X128600527Y-100892556D01*
X128659542Y-100710928D01*
X128679504Y-100521000D01*
X128659542Y-100331072D01*
X128600527Y-100149444D01*
X128600527Y-100149443D01*
X128505041Y-99984057D01*
X128377252Y-99842133D01*
X128271089Y-99765001D01*
X128222752Y-99729882D01*
X128048288Y-99652206D01*
X127861487Y-99612500D01*
X127670513Y-99612500D01*
X127545978Y-99638970D01*
X127483711Y-99652206D01*
X127309246Y-99729883D01*
X127154747Y-99842133D01*
X127026958Y-99984057D01*
X126931472Y-100149443D01*
X126872458Y-100331070D01*
X126852496Y-100520999D01*
X116982316Y-100520999D01*
X117091740Y-100508670D01*
X117252962Y-100452256D01*
X117254644Y-100451198D01*
X117254644Y-100451196D01*
X116922001Y-100118553D01*
X116922000Y-100118553D01*
X116589353Y-100451198D01*
X116254644Y-100451198D01*
X116254644Y-100451196D01*
X115922001Y-100118553D01*
X115922000Y-100118553D01*
X115589353Y-100451198D01*
X77189500Y-100451198D01*
X77189500Y-95115182D01*
X83013500Y-95115182D01*
X83052604Y-95374615D01*
X83052605Y-95374618D01*
X83129936Y-95625323D01*
X83243772Y-95861704D01*
X83391563Y-96078474D01*
X83391565Y-96078476D01*
X83391567Y-96078479D01*
X83570019Y-96270805D01*
X83775143Y-96434386D01*
X84002357Y-96565568D01*
X84246584Y-96661420D01*
X84502370Y-96719802D01*
X84698506Y-96734500D01*
X84700859Y-96734500D01*
X84827141Y-96734500D01*
X84829494Y-96734500D01*
X85025630Y-96719802D01*
X85281416Y-96661420D01*
X85525643Y-96565568D01*
X85752857Y-96434386D01*
X85957981Y-96270805D01*
X85995842Y-96230000D01*
X89476496Y-96230000D01*
X89496458Y-96419929D01*
X89555472Y-96601556D01*
X89650958Y-96766942D01*
X89684469Y-96804160D01*
X89778747Y-96908866D01*
X89933248Y-97021118D01*
X90107712Y-97098794D01*
X90294513Y-97138500D01*
X90294515Y-97138500D01*
X90485485Y-97138500D01*
X90485487Y-97138500D01*
X90672288Y-97098794D01*
X90846752Y-97021118D01*
X90846755Y-97021115D01*
X90850925Y-97019259D01*
X90921292Y-97009825D01*
X90976234Y-97032429D01*
X91043248Y-97081118D01*
X91217712Y-97158794D01*
X91404513Y-97198500D01*
X91404515Y-97198500D01*
X91595485Y-97198500D01*
X91595487Y-97198500D01*
X91635476Y-97190000D01*
X93186496Y-97190000D01*
X93206458Y-97379929D01*
X93265472Y-97561556D01*
X93360958Y-97726942D01*
X93360960Y-97726944D01*
X93488747Y-97868866D01*
X93643248Y-97981118D01*
X93817712Y-98058794D01*
X94004513Y-98098500D01*
X94004515Y-98098500D01*
X94195485Y-98098500D01*
X94195487Y-98098500D01*
X94382288Y-98058794D01*
X94556752Y-97981118D01*
X94711253Y-97868866D01*
X94839040Y-97726944D01*
X94886350Y-97645000D01*
X112048496Y-97645000D01*
X112068458Y-97834929D01*
X112127472Y-98016556D01*
X112222958Y-98181942D01*
X112350747Y-98323866D01*
X112393039Y-98354593D01*
X112436393Y-98410815D01*
X112442468Y-98481551D01*
X112438811Y-98495465D01*
X112379057Y-98679368D01*
X112359095Y-98869298D01*
X112379057Y-99059228D01*
X112438071Y-99240855D01*
X112533557Y-99406241D01*
X112557069Y-99432354D01*
X112661346Y-99548165D01*
X112815847Y-99660417D01*
X112990311Y-99738093D01*
X113177112Y-99777799D01*
X113177114Y-99777799D01*
X113368084Y-99777799D01*
X113368086Y-99777799D01*
X113428300Y-99765000D01*
X115159204Y-99765000D01*
X115178329Y-99934740D01*
X115234744Y-100095963D01*
X115235801Y-100097645D01*
X115568445Y-99765000D01*
X115766709Y-99765000D01*
X115787514Y-99842645D01*
X115844355Y-99899486D01*
X115902254Y-99915000D01*
X115941746Y-99915000D01*
X115999645Y-99899486D01*
X116056486Y-99842646D01*
X116077291Y-99765001D01*
X116275552Y-99765001D01*
X116421998Y-99911447D01*
X116422000Y-99911447D01*
X116568446Y-99765001D01*
X116568446Y-99765000D01*
X116766709Y-99765000D01*
X116787514Y-99842645D01*
X116844355Y-99899486D01*
X116902254Y-99915000D01*
X116941746Y-99915000D01*
X116999645Y-99899486D01*
X117056486Y-99842646D01*
X117077291Y-99765001D01*
X117275552Y-99765001D01*
X117608196Y-100097644D01*
X117608198Y-100097644D01*
X117609256Y-100095962D01*
X117665670Y-99934740D01*
X117684795Y-99765000D01*
X117665670Y-99595259D01*
X117609255Y-99434035D01*
X117608198Y-99432354D01*
X117275552Y-99764999D01*
X117275552Y-99765001D01*
X117077291Y-99765001D01*
X117077291Y-99765000D01*
X117056486Y-99687355D01*
X116999645Y-99630514D01*
X116941746Y-99615000D01*
X116902254Y-99615000D01*
X116844355Y-99630514D01*
X116787514Y-99687354D01*
X116766709Y-99765000D01*
X116568446Y-99765000D01*
X116568446Y-99764999D01*
X116422000Y-99618553D01*
X116421998Y-99618553D01*
X116275552Y-99764999D01*
X116275552Y-99765001D01*
X116077291Y-99765001D01*
X116077291Y-99765000D01*
X116056486Y-99687355D01*
X115999645Y-99630514D01*
X115941746Y-99615000D01*
X115902254Y-99615000D01*
X115844355Y-99630514D01*
X115787514Y-99687354D01*
X115766709Y-99765000D01*
X115568445Y-99765000D01*
X115568446Y-99764999D01*
X115568446Y-99764998D01*
X115235801Y-99432353D01*
X115234743Y-99434038D01*
X115178329Y-99595259D01*
X115159204Y-99765000D01*
X113428300Y-99765000D01*
X113554887Y-99738093D01*
X113729351Y-99660417D01*
X113883852Y-99548165D01*
X114011639Y-99406243D01*
X114093185Y-99265001D01*
X115775552Y-99265001D01*
X115921998Y-99411447D01*
X115922000Y-99411447D01*
X116068446Y-99265001D01*
X116068446Y-99265000D01*
X116775553Y-99265000D01*
X116921999Y-99411446D01*
X116922001Y-99411446D01*
X117068446Y-99265000D01*
X117068446Y-99264999D01*
X116922000Y-99118553D01*
X116775553Y-99264999D01*
X116775553Y-99265000D01*
X116068446Y-99265000D01*
X116068446Y-99264999D01*
X115922000Y-99118553D01*
X115775552Y-99265000D01*
X115775552Y-99265001D01*
X114093185Y-99265001D01*
X114107126Y-99240855D01*
X114166141Y-99059227D01*
X114186103Y-98869299D01*
X114175141Y-98765000D01*
X115159204Y-98765000D01*
X115178329Y-98934740D01*
X115234744Y-99095963D01*
X115235801Y-99097645D01*
X115568445Y-98765000D01*
X115766709Y-98765000D01*
X115787514Y-98842645D01*
X115844355Y-98899486D01*
X115902254Y-98915000D01*
X115941746Y-98915000D01*
X115999645Y-98899486D01*
X116056486Y-98842646D01*
X116077291Y-98765000D01*
X116275553Y-98765000D01*
X116421999Y-98911446D01*
X116422001Y-98911446D01*
X116568446Y-98765000D01*
X116766709Y-98765000D01*
X116787514Y-98842645D01*
X116844355Y-98899486D01*
X116902254Y-98915000D01*
X116941746Y-98915000D01*
X116999645Y-98899486D01*
X117056486Y-98842646D01*
X117077291Y-98765000D01*
X117077291Y-98764999D01*
X117275552Y-98764999D01*
X117608198Y-99097645D01*
X117608198Y-99097644D01*
X117609255Y-99095965D01*
X117665670Y-98934740D01*
X117684795Y-98765000D01*
X117665670Y-98595259D01*
X117609255Y-98434035D01*
X117608198Y-98432354D01*
X117608197Y-98432353D01*
X117275552Y-98764998D01*
X117275552Y-98764999D01*
X117077291Y-98764999D01*
X117056486Y-98687355D01*
X116999645Y-98630514D01*
X116941746Y-98615000D01*
X116902254Y-98615000D01*
X116844355Y-98630514D01*
X116787514Y-98687354D01*
X116766709Y-98765000D01*
X116568446Y-98765000D01*
X116568446Y-98764998D01*
X116422001Y-98618552D01*
X116421999Y-98618552D01*
X116275553Y-98764998D01*
X116275553Y-98765000D01*
X116077291Y-98765000D01*
X116056486Y-98687355D01*
X115999645Y-98630514D01*
X115941746Y-98615000D01*
X115902254Y-98615000D01*
X115844355Y-98630514D01*
X115787514Y-98687354D01*
X115766709Y-98765000D01*
X115568445Y-98765000D01*
X115568446Y-98764999D01*
X115568446Y-98764998D01*
X115235801Y-98432353D01*
X115234743Y-98434038D01*
X115178329Y-98595259D01*
X115159204Y-98765000D01*
X114175141Y-98765000D01*
X114166141Y-98679371D01*
X114107126Y-98497743D01*
X114107126Y-98497742D01*
X114011640Y-98332356D01*
X113883851Y-98190432D01*
X113841559Y-98159705D01*
X113798205Y-98103483D01*
X113796085Y-98078801D01*
X115589353Y-98078801D01*
X115921999Y-98411447D01*
X115922000Y-98411447D01*
X116254645Y-98078801D01*
X116589353Y-98078801D01*
X116921999Y-98411447D01*
X116922000Y-98411447D01*
X116971448Y-98361999D01*
X122805496Y-98361999D01*
X122825458Y-98551929D01*
X122884472Y-98733556D01*
X122979958Y-98898942D01*
X122979960Y-98898944D01*
X123107747Y-99040866D01*
X123262248Y-99153118D01*
X123436712Y-99230794D01*
X123623513Y-99270500D01*
X123623515Y-99270500D01*
X123814485Y-99270500D01*
X123814487Y-99270500D01*
X124001288Y-99230794D01*
X124175752Y-99153118D01*
X124330253Y-99040866D01*
X124458040Y-98898944D01*
X124553527Y-98733556D01*
X124612542Y-98551928D01*
X124632504Y-98362000D01*
X124612542Y-98172072D01*
X124581892Y-98077743D01*
X124553527Y-97990443D01*
X124458041Y-97825057D01*
X124330252Y-97683133D01*
X124175753Y-97570883D01*
X124175752Y-97570882D01*
X124001288Y-97493206D01*
X123814487Y-97453500D01*
X123623513Y-97453500D01*
X123498978Y-97479970D01*
X123436711Y-97493206D01*
X123262246Y-97570883D01*
X123107747Y-97683133D01*
X122979958Y-97825057D01*
X122884472Y-97990443D01*
X122825458Y-98172070D01*
X122805496Y-98361999D01*
X116971448Y-98361999D01*
X117254645Y-98078801D01*
X117252963Y-98077744D01*
X117091740Y-98021329D01*
X116922000Y-98002204D01*
X116752259Y-98021329D01*
X116591038Y-98077743D01*
X116589353Y-98078801D01*
X116254645Y-98078801D01*
X116252963Y-98077744D01*
X116091740Y-98021329D01*
X115922000Y-98002204D01*
X115752259Y-98021329D01*
X115591038Y-98077743D01*
X115589353Y-98078801D01*
X113796085Y-98078801D01*
X113792130Y-98032746D01*
X113795787Y-98018833D01*
X113805011Y-97990444D01*
X113855542Y-97834928D01*
X113875504Y-97645000D01*
X113855542Y-97455072D01*
X113817738Y-97338723D01*
X113796527Y-97273443D01*
X113701041Y-97108057D01*
X113621087Y-97019259D01*
X113573253Y-96966134D01*
X113418752Y-96853882D01*
X113244288Y-96776206D01*
X113057487Y-96736500D01*
X112866513Y-96736500D01*
X112741979Y-96762970D01*
X112679711Y-96776206D01*
X112505246Y-96853883D01*
X112350747Y-96966133D01*
X112222958Y-97108057D01*
X112127472Y-97273443D01*
X112068458Y-97455070D01*
X112048496Y-97645000D01*
X94886350Y-97645000D01*
X94934527Y-97561556D01*
X94993542Y-97379928D01*
X95013504Y-97190000D01*
X94993542Y-97000072D01*
X94934527Y-96818444D01*
X94934527Y-96818443D01*
X94839041Y-96653057D01*
X94711252Y-96511133D01*
X94605619Y-96434386D01*
X94556752Y-96398882D01*
X94527023Y-96385646D01*
X114823858Y-96385646D01*
X114843820Y-96575575D01*
X114902834Y-96757202D01*
X114998320Y-96922588D01*
X115076869Y-97009825D01*
X115126109Y-97064512D01*
X115280610Y-97176764D01*
X115455074Y-97254440D01*
X115641875Y-97294146D01*
X115641877Y-97294146D01*
X115832847Y-97294146D01*
X115832849Y-97294146D01*
X116019650Y-97254440D01*
X116194114Y-97176764D01*
X116348615Y-97064512D01*
X116348617Y-97064509D01*
X116358751Y-97057147D01*
X116425618Y-97033289D01*
X116494770Y-97049369D01*
X116526445Y-97074769D01*
X116560747Y-97112866D01*
X116715248Y-97225118D01*
X116889712Y-97302794D01*
X117076513Y-97342500D01*
X117076515Y-97342500D01*
X117267485Y-97342500D01*
X117267487Y-97342500D01*
X117454288Y-97302794D01*
X117628752Y-97225118D01*
X117783253Y-97112866D01*
X117911040Y-96970944D01*
X118006527Y-96805556D01*
X118065542Y-96623928D01*
X118076255Y-96521999D01*
X125416692Y-96521999D01*
X125416693Y-96522000D01*
X126233349Y-96522000D01*
X126187390Y-96550457D01*
X126119799Y-96639962D01*
X126089105Y-96747840D01*
X126099454Y-96859521D01*
X126149448Y-96959922D01*
X126226318Y-97030000D01*
X125416693Y-97030000D01*
X125457223Y-97163609D01*
X125550823Y-97338723D01*
X125676787Y-97492212D01*
X125830276Y-97618176D01*
X126005390Y-97711776D01*
X126195396Y-97769415D01*
X126340401Y-97783696D01*
X126346574Y-97784000D01*
X126689000Y-97784000D01*
X126689000Y-97076000D01*
X127197000Y-97076000D01*
X127197000Y-97784000D01*
X127539426Y-97784000D01*
X127545598Y-97783696D01*
X127690603Y-97769415D01*
X127880609Y-97711776D01*
X128055723Y-97618176D01*
X128209212Y-97492212D01*
X128335176Y-97338723D01*
X128428776Y-97163609D01*
X128469307Y-97030000D01*
X127652651Y-97030000D01*
X127698610Y-97001543D01*
X127766201Y-96912038D01*
X127796895Y-96804160D01*
X127786546Y-96692479D01*
X127736552Y-96592078D01*
X127659682Y-96522000D01*
X128469307Y-96522000D01*
X128469307Y-96521999D01*
X129746692Y-96521999D01*
X129746693Y-96522000D01*
X130563349Y-96522000D01*
X130517390Y-96550457D01*
X130449799Y-96639962D01*
X130419105Y-96747840D01*
X130429454Y-96859521D01*
X130479448Y-96959922D01*
X130556318Y-97030000D01*
X129746693Y-97030000D01*
X129787223Y-97163609D01*
X129880823Y-97338723D01*
X130006787Y-97492212D01*
X130160276Y-97618176D01*
X130335390Y-97711776D01*
X130525396Y-97769415D01*
X130670401Y-97783696D01*
X130676574Y-97784000D01*
X130869000Y-97784000D01*
X130869000Y-97076000D01*
X131377000Y-97076000D01*
X131377000Y-97784000D01*
X131569426Y-97784000D01*
X131575598Y-97783696D01*
X131720603Y-97769415D01*
X131910609Y-97711776D01*
X132085723Y-97618176D01*
X132239212Y-97492212D01*
X132365176Y-97338723D01*
X132458776Y-97163609D01*
X132499307Y-97030000D01*
X131682651Y-97030000D01*
X131728610Y-97001543D01*
X131796201Y-96912038D01*
X131826895Y-96804160D01*
X131816546Y-96692479D01*
X131766552Y-96592078D01*
X131689682Y-96522000D01*
X132499307Y-96522000D01*
X132499307Y-96521999D01*
X132458776Y-96388390D01*
X132365176Y-96213276D01*
X132239212Y-96059787D01*
X132085723Y-95933823D01*
X131910609Y-95840223D01*
X131720603Y-95782584D01*
X131575598Y-95768303D01*
X131569426Y-95768000D01*
X131377000Y-95768000D01*
X131377000Y-96476000D01*
X130869000Y-96476000D01*
X130869000Y-95768000D01*
X130676574Y-95768000D01*
X130670401Y-95768303D01*
X130525396Y-95782584D01*
X130335390Y-95840223D01*
X130160276Y-95933823D01*
X130006787Y-96059787D01*
X129880823Y-96213276D01*
X129787223Y-96388390D01*
X129746692Y-96521999D01*
X128469307Y-96521999D01*
X128428776Y-96388390D01*
X128335176Y-96213276D01*
X128209212Y-96059787D01*
X128055723Y-95933823D01*
X127946738Y-95875569D01*
X127896090Y-95825817D01*
X127880380Y-95756580D01*
X127904596Y-95689841D01*
X127906112Y-95687821D01*
X127945698Y-95636233D01*
X128003687Y-95496236D01*
X128023466Y-95346000D01*
X128003687Y-95195764D01*
X127945698Y-95055767D01*
X127853451Y-94935549D01*
X127745637Y-94852820D01*
X127733232Y-94843301D01*
X127593235Y-94785312D01*
X127484807Y-94771038D01*
X127484806Y-94771037D01*
X127480720Y-94770500D01*
X127405280Y-94770500D01*
X127401194Y-94771037D01*
X127401192Y-94771038D01*
X127292764Y-94785312D01*
X127152767Y-94843301D01*
X127032549Y-94935549D01*
X126940301Y-95055767D01*
X126882312Y-95195764D01*
X126862534Y-95345999D01*
X126882312Y-95496235D01*
X126922718Y-95593782D01*
X126930307Y-95664371D01*
X126898528Y-95727858D01*
X126837470Y-95764086D01*
X126806309Y-95768000D01*
X126346574Y-95768000D01*
X126340401Y-95768303D01*
X126195396Y-95782584D01*
X126005390Y-95840223D01*
X125830276Y-95933823D01*
X125676787Y-96059787D01*
X125550823Y-96213276D01*
X125457223Y-96388390D01*
X125416692Y-96521999D01*
X118076255Y-96521999D01*
X118085504Y-96434000D01*
X118065542Y-96244072D01*
X118018753Y-96100070D01*
X118006527Y-96062443D01*
X117911041Y-95897057D01*
X117791313Y-95764086D01*
X117783253Y-95755134D01*
X117780394Y-95753057D01*
X117628753Y-95642883D01*
X117628752Y-95642882D01*
X117454288Y-95565206D01*
X117267487Y-95525500D01*
X117076513Y-95525500D01*
X116955920Y-95551133D01*
X116889711Y-95565206D01*
X116823853Y-95594528D01*
X116729493Y-95636540D01*
X116715246Y-95642883D01*
X116550610Y-95762498D01*
X116483742Y-95786357D01*
X116414590Y-95770276D01*
X116382912Y-95744871D01*
X116379202Y-95740751D01*
X116348615Y-95706780D01*
X116194114Y-95594528D01*
X116019650Y-95516852D01*
X115832849Y-95477146D01*
X115641875Y-95477146D01*
X115527864Y-95501380D01*
X115455073Y-95516852D01*
X115280608Y-95594529D01*
X115126109Y-95706779D01*
X114998320Y-95848703D01*
X114902834Y-96014089D01*
X114843820Y-96195716D01*
X114823858Y-96385646D01*
X94527023Y-96385646D01*
X94382288Y-96321206D01*
X94195487Y-96281500D01*
X94004513Y-96281500D01*
X93879979Y-96307970D01*
X93817711Y-96321206D01*
X93643246Y-96398883D01*
X93488747Y-96511133D01*
X93360958Y-96653057D01*
X93265472Y-96818443D01*
X93206458Y-97000070D01*
X93186496Y-97190000D01*
X91635476Y-97190000D01*
X91782288Y-97158794D01*
X91956752Y-97081118D01*
X92111253Y-96968866D01*
X92239040Y-96826944D01*
X92334527Y-96661556D01*
X92393542Y-96479928D01*
X92413504Y-96290000D01*
X92393542Y-96100072D01*
X92334527Y-95918444D01*
X92334527Y-95918443D01*
X92239041Y-95753057D01*
X92201783Y-95711678D01*
X92171066Y-95647670D01*
X92179829Y-95577217D01*
X92186286Y-95564392D01*
X92274527Y-95411556D01*
X92333542Y-95229928D01*
X92353504Y-95040000D01*
X92333542Y-94850072D01*
X92274527Y-94668444D01*
X92274527Y-94668443D01*
X92179041Y-94503057D01*
X92051252Y-94361133D01*
X91896753Y-94248883D01*
X91896752Y-94248882D01*
X91722288Y-94171206D01*
X91535487Y-94131500D01*
X91344513Y-94131500D01*
X91227825Y-94156303D01*
X91157711Y-94171206D01*
X90983246Y-94248883D01*
X90828747Y-94361133D01*
X90700958Y-94503057D01*
X90605472Y-94668443D01*
X90546458Y-94850070D01*
X90543884Y-94874559D01*
X90526496Y-95040000D01*
X90541455Y-95182331D01*
X90528684Y-95252168D01*
X90480182Y-95304014D01*
X90416146Y-95321500D01*
X90294513Y-95321500D01*
X90197062Y-95342214D01*
X90107711Y-95361206D01*
X89933246Y-95438883D01*
X89778747Y-95551133D01*
X89650958Y-95693057D01*
X89555472Y-95858443D01*
X89496458Y-96040070D01*
X89476496Y-96230000D01*
X85995842Y-96230000D01*
X86136433Y-96078479D01*
X86284228Y-95861704D01*
X86398063Y-95625323D01*
X86475396Y-95374615D01*
X86514500Y-95115182D01*
X86514500Y-94852818D01*
X86475396Y-94593385D01*
X86411082Y-94384883D01*
X86398063Y-94342676D01*
X86308310Y-94156303D01*
X86284228Y-94106296D01*
X86204659Y-93989590D01*
X86136436Y-93889525D01*
X86136434Y-93889523D01*
X86136433Y-93889521D01*
X85957981Y-93697195D01*
X85752857Y-93533614D01*
X85525643Y-93402432D01*
X85519418Y-93399989D01*
X85281417Y-93306580D01*
X85025630Y-93248198D01*
X84831836Y-93233675D01*
X84831822Y-93233674D01*
X84829494Y-93233500D01*
X84698506Y-93233500D01*
X84696178Y-93233674D01*
X84696163Y-93233675D01*
X84502369Y-93248198D01*
X84246582Y-93306580D01*
X84002356Y-93402432D01*
X83843597Y-93494092D01*
X83775143Y-93533614D01*
X83570019Y-93697195D01*
X83431525Y-93846455D01*
X83391563Y-93889525D01*
X83243772Y-94106295D01*
X83129936Y-94342676D01*
X83080466Y-94503057D01*
X83052604Y-94593385D01*
X83013500Y-94852818D01*
X83013500Y-95115182D01*
X77189500Y-95115182D01*
X77189500Y-90540000D01*
X104766750Y-90540000D01*
X104785705Y-90744557D01*
X104841925Y-90942151D01*
X104933497Y-91126050D01*
X105057299Y-91289991D01*
X105209118Y-91428392D01*
X105209120Y-91428393D01*
X105209121Y-91428394D01*
X105315181Y-91494064D01*
X105362569Y-91546931D01*
X105373852Y-91617025D01*
X105345448Y-91682092D01*
X105315183Y-91708318D01*
X105229117Y-91761608D01*
X105077298Y-91900010D01*
X104953497Y-92063949D01*
X104861925Y-92247848D01*
X104805705Y-92445442D01*
X104786750Y-92650000D01*
X104805705Y-92854557D01*
X104861925Y-93052151D01*
X104899979Y-93128573D01*
X104953497Y-93236050D01*
X105077299Y-93399991D01*
X105229118Y-93538392D01*
X105267505Y-93562160D01*
X105314892Y-93615026D01*
X105326175Y-93685121D01*
X105297771Y-93750188D01*
X105267509Y-93776412D01*
X105259119Y-93781607D01*
X105107298Y-93920010D01*
X104983497Y-94083949D01*
X104891925Y-94267848D01*
X104835705Y-94465442D01*
X104816750Y-94670000D01*
X104835705Y-94874557D01*
X104891925Y-95072151D01*
X104946788Y-95182329D01*
X104983497Y-95256050D01*
X105107299Y-95419991D01*
X105259118Y-95558392D01*
X105433782Y-95666540D01*
X105625345Y-95740751D01*
X105827282Y-95778500D01*
X105827284Y-95778500D01*
X106032716Y-95778500D01*
X106032718Y-95778500D01*
X106234655Y-95740751D01*
X106426218Y-95666540D01*
X106600882Y-95558392D01*
X106752701Y-95419991D01*
X106830778Y-95316598D01*
X106887790Y-95274293D01*
X106958626Y-95269525D01*
X107020795Y-95303811D01*
X107031876Y-95316599D01*
X107087299Y-95389991D01*
X107239118Y-95528392D01*
X107317532Y-95576944D01*
X107413284Y-95636232D01*
X107413782Y-95636540D01*
X107605345Y-95710751D01*
X107807282Y-95748500D01*
X107807284Y-95748500D01*
X108012716Y-95748500D01*
X108012718Y-95748500D01*
X108214655Y-95710751D01*
X108406218Y-95636540D01*
X108580882Y-95528392D01*
X108732701Y-95389991D01*
X108856503Y-95226050D01*
X108881425Y-95176000D01*
X113096496Y-95176000D01*
X113116458Y-95365929D01*
X113175472Y-95547556D01*
X113270958Y-95712942D01*
X113320805Y-95768303D01*
X113398747Y-95854866D01*
X113553248Y-95967118D01*
X113727712Y-96044794D01*
X113914513Y-96084500D01*
X113914515Y-96084500D01*
X114105485Y-96084500D01*
X114105487Y-96084500D01*
X114292288Y-96044794D01*
X114466752Y-95967118D01*
X114621253Y-95854866D01*
X114749040Y-95712944D01*
X114844527Y-95547556D01*
X114903542Y-95365928D01*
X114923504Y-95176000D01*
X114903542Y-94986072D01*
X114872931Y-94891862D01*
X114844527Y-94804443D01*
X114749041Y-94639057D01*
X114621252Y-94497133D01*
X114608681Y-94488000D01*
X120652619Y-94488000D01*
X120672091Y-94685701D01*
X120729758Y-94875802D01*
X120823406Y-95051007D01*
X120949431Y-95204568D01*
X121102992Y-95330593D01*
X121102996Y-95330595D01*
X121278196Y-95424241D01*
X121373247Y-95453074D01*
X121468298Y-95481908D01*
X121666000Y-95501380D01*
X121863701Y-95481908D01*
X122053804Y-95424241D01*
X122229004Y-95330595D01*
X122229005Y-95330593D01*
X122229007Y-95330593D01*
X122382568Y-95204568D01*
X122508593Y-95051007D01*
X122513327Y-95042151D01*
X122602241Y-94875804D01*
X122659908Y-94685701D01*
X122679380Y-94488000D01*
X122659908Y-94290299D01*
X122602241Y-94100196D01*
X122508595Y-93924996D01*
X122508593Y-93924992D01*
X122382568Y-93771431D01*
X122229007Y-93645406D01*
X122071781Y-93561368D01*
X122053804Y-93551759D01*
X122053803Y-93551758D01*
X122053802Y-93551758D01*
X121863701Y-93494091D01*
X121665999Y-93474619D01*
X121468298Y-93494091D01*
X121278197Y-93551758D01*
X121102992Y-93645406D01*
X120949431Y-93771431D01*
X120823406Y-93924992D01*
X120729758Y-94100197D01*
X120672091Y-94290298D01*
X120652619Y-94488000D01*
X114608681Y-94488000D01*
X114466753Y-94384883D01*
X114466752Y-94384882D01*
X114292288Y-94307206D01*
X114105487Y-94267500D01*
X113914513Y-94267500D01*
X113807253Y-94290299D01*
X113727711Y-94307206D01*
X113553246Y-94384883D01*
X113398747Y-94497133D01*
X113270958Y-94639057D01*
X113175472Y-94804443D01*
X113116458Y-94986070D01*
X113096496Y-95176000D01*
X108881425Y-95176000D01*
X108948074Y-95042152D01*
X109004294Y-94844559D01*
X109023249Y-94640000D01*
X109004294Y-94435441D01*
X108948074Y-94237848D01*
X108856503Y-94053950D01*
X108732701Y-93890009D01*
X108580882Y-93751608D01*
X108580880Y-93751607D01*
X108577050Y-93748115D01*
X108540183Y-93687441D01*
X108541972Y-93616467D01*
X108577050Y-93561885D01*
X108588159Y-93551758D01*
X108732701Y-93419991D01*
X108856503Y-93256050D01*
X108948074Y-93072152D01*
X109004294Y-92874559D01*
X109023249Y-92670000D01*
X109004294Y-92465441D01*
X108948074Y-92267848D01*
X108856503Y-92083950D01*
X108732701Y-91920009D01*
X108580882Y-91781608D01*
X108535826Y-91753710D01*
X108448667Y-91699743D01*
X108401280Y-91646876D01*
X108389997Y-91576781D01*
X108418401Y-91511714D01*
X108448668Y-91485489D01*
X108473529Y-91470095D01*
X108540882Y-91428392D01*
X108692701Y-91289991D01*
X108816503Y-91126050D01*
X108908074Y-90942152D01*
X108910962Y-90932000D01*
X120652619Y-90932000D01*
X120672091Y-91129701D01*
X120729758Y-91319802D01*
X120823406Y-91495007D01*
X120949431Y-91648568D01*
X121102992Y-91774593D01*
X121116116Y-91781608D01*
X121278196Y-91868241D01*
X121373247Y-91897074D01*
X121468298Y-91925908D01*
X121665999Y-91945380D01*
X121665999Y-91945379D01*
X121666000Y-91945380D01*
X121863701Y-91925908D01*
X122053804Y-91868241D01*
X122229004Y-91774595D01*
X122229005Y-91774593D01*
X122229007Y-91774593D01*
X122382568Y-91648568D01*
X122508593Y-91495007D01*
X122509097Y-91494064D01*
X122602241Y-91319804D01*
X122659908Y-91129701D01*
X122679380Y-90932000D01*
X122659908Y-90734299D01*
X122602241Y-90544196D01*
X122508595Y-90368996D01*
X122508593Y-90368992D01*
X122382568Y-90215431D01*
X122229007Y-90089406D01*
X122053802Y-89995758D01*
X121863701Y-89938091D01*
X121666000Y-89918619D01*
X121468298Y-89938091D01*
X121278197Y-89995758D01*
X121102992Y-90089406D01*
X120949431Y-90215431D01*
X120823406Y-90368992D01*
X120729758Y-90544197D01*
X120672091Y-90734298D01*
X120652619Y-90932000D01*
X108910962Y-90932000D01*
X108964294Y-90744559D01*
X108983249Y-90540000D01*
X108964294Y-90335441D01*
X108908074Y-90137848D01*
X108816503Y-89953950D01*
X108692701Y-89790009D01*
X108540882Y-89651608D01*
X108507493Y-89630934D01*
X108460107Y-89578068D01*
X108448824Y-89507974D01*
X108477228Y-89442907D01*
X108507496Y-89416680D01*
X108520882Y-89408392D01*
X108672701Y-89269991D01*
X108796503Y-89106050D01*
X108888074Y-88922152D01*
X108944294Y-88724559D01*
X108963249Y-88520000D01*
X108952163Y-88400366D01*
X113567387Y-88400366D01*
X113586859Y-88598067D01*
X113644526Y-88788168D01*
X113738174Y-88963373D01*
X113864199Y-89116934D01*
X114017760Y-89242959D01*
X114030914Y-89249990D01*
X114192964Y-89336607D01*
X114288015Y-89365440D01*
X114383066Y-89394274D01*
X114580768Y-89413746D01*
X114778469Y-89394274D01*
X114968572Y-89336607D01*
X115143772Y-89242961D01*
X115143773Y-89242959D01*
X115143775Y-89242959D01*
X115297336Y-89116934D01*
X115423361Y-88963373D01*
X115445394Y-88922152D01*
X115517009Y-88788170D01*
X115574676Y-88598067D01*
X115594148Y-88400366D01*
X115574676Y-88202665D01*
X115517009Y-88012562D01*
X115447222Y-87881999D01*
X125416692Y-87881999D01*
X125416693Y-87882000D01*
X126233349Y-87882000D01*
X126187390Y-87910457D01*
X126119799Y-87999962D01*
X126089105Y-88107840D01*
X126099454Y-88219521D01*
X126149448Y-88319922D01*
X126226318Y-88390000D01*
X125416693Y-88390000D01*
X125457223Y-88523609D01*
X125550823Y-88698723D01*
X125676787Y-88852212D01*
X125830276Y-88978176D01*
X126005390Y-89071776D01*
X126195396Y-89129415D01*
X126340401Y-89143696D01*
X126346574Y-89144000D01*
X126806309Y-89144000D01*
X126874430Y-89164002D01*
X126920923Y-89217658D01*
X126931027Y-89287932D01*
X126922718Y-89318218D01*
X126882312Y-89415764D01*
X126862534Y-89566000D01*
X126882312Y-89716235D01*
X126940301Y-89856232D01*
X126940302Y-89856233D01*
X127032549Y-89976451D01*
X127152767Y-90068698D01*
X127292764Y-90126687D01*
X127405280Y-90141500D01*
X127409402Y-90141500D01*
X127476598Y-90141500D01*
X127480720Y-90141500D01*
X127593236Y-90126687D01*
X127733233Y-90068698D01*
X127853451Y-89976451D01*
X127945698Y-89856233D01*
X128003687Y-89716236D01*
X128023466Y-89566000D01*
X128003687Y-89415764D01*
X127945698Y-89275767D01*
X127945697Y-89275766D01*
X127945697Y-89275765D01*
X127906172Y-89224255D01*
X127880571Y-89158035D01*
X127894835Y-89088486D01*
X127944436Y-89037690D01*
X127946739Y-89036428D01*
X128055725Y-88978174D01*
X128209212Y-88852212D01*
X128335176Y-88698723D01*
X128428776Y-88523609D01*
X128469307Y-88390000D01*
X127652651Y-88390000D01*
X127698610Y-88361543D01*
X127766201Y-88272038D01*
X127796895Y-88164160D01*
X127786546Y-88052479D01*
X127736552Y-87952078D01*
X127659682Y-87882000D01*
X128469307Y-87882000D01*
X128469307Y-87881999D01*
X129746692Y-87881999D01*
X129746693Y-87882000D01*
X130563349Y-87882000D01*
X130517390Y-87910457D01*
X130449799Y-87999962D01*
X130419105Y-88107840D01*
X130429454Y-88219521D01*
X130479448Y-88319922D01*
X130556318Y-88390000D01*
X129746693Y-88390000D01*
X129787223Y-88523609D01*
X129880823Y-88698723D01*
X130006787Y-88852212D01*
X130160276Y-88978176D01*
X130335390Y-89071776D01*
X130525396Y-89129415D01*
X130670401Y-89143696D01*
X130676574Y-89144000D01*
X130869000Y-89144000D01*
X130869000Y-88436000D01*
X131377000Y-88436000D01*
X131377000Y-89144000D01*
X131569426Y-89144000D01*
X131575598Y-89143696D01*
X131720603Y-89129415D01*
X131910609Y-89071776D01*
X132085723Y-88978176D01*
X132239212Y-88852212D01*
X132365176Y-88698723D01*
X132458776Y-88523609D01*
X132499307Y-88390000D01*
X131682651Y-88390000D01*
X131728610Y-88361543D01*
X131796201Y-88272038D01*
X131826895Y-88164160D01*
X131816546Y-88052479D01*
X131766552Y-87952078D01*
X131689682Y-87882000D01*
X132499307Y-87882000D01*
X132499307Y-87881999D01*
X132458776Y-87748390D01*
X132365176Y-87573276D01*
X132239212Y-87419787D01*
X132085723Y-87293823D01*
X131910609Y-87200223D01*
X131720603Y-87142584D01*
X131575598Y-87128303D01*
X131569426Y-87128000D01*
X131377000Y-87128000D01*
X131377000Y-87836000D01*
X130869000Y-87836000D01*
X130869000Y-87128000D01*
X130676574Y-87128000D01*
X130670401Y-87128303D01*
X130525396Y-87142584D01*
X130335390Y-87200223D01*
X130160276Y-87293823D01*
X130006787Y-87419787D01*
X129880823Y-87573276D01*
X129787223Y-87748390D01*
X129746692Y-87881999D01*
X128469307Y-87881999D01*
X128428776Y-87748390D01*
X128335176Y-87573276D01*
X128209212Y-87419787D01*
X128055723Y-87293823D01*
X127880609Y-87200223D01*
X127690603Y-87142584D01*
X127545598Y-87128303D01*
X127539426Y-87128000D01*
X127197000Y-87128000D01*
X127197000Y-87836000D01*
X126689000Y-87836000D01*
X126689000Y-87128000D01*
X126346574Y-87128000D01*
X126340401Y-87128303D01*
X126195396Y-87142584D01*
X126005390Y-87200223D01*
X125830276Y-87293823D01*
X125676787Y-87419787D01*
X125550823Y-87573276D01*
X125457223Y-87748390D01*
X125416692Y-87881999D01*
X115447222Y-87881999D01*
X115425724Y-87841779D01*
X115423361Y-87837358D01*
X115297336Y-87683797D01*
X115143775Y-87557772D01*
X114968570Y-87464124D01*
X114778469Y-87406457D01*
X114580768Y-87386985D01*
X114383066Y-87406457D01*
X114192965Y-87464124D01*
X114017760Y-87557772D01*
X113864199Y-87683797D01*
X113738174Y-87837358D01*
X113644526Y-88012563D01*
X113586859Y-88202664D01*
X113567387Y-88400366D01*
X108952163Y-88400366D01*
X108944294Y-88315441D01*
X108888074Y-88117848D01*
X108796503Y-87933950D01*
X108672701Y-87770009D01*
X108520882Y-87631608D01*
X108426673Y-87573276D01*
X108346219Y-87523460D01*
X108154655Y-87449249D01*
X107952718Y-87411500D01*
X107747282Y-87411500D01*
X107612657Y-87436666D01*
X107545344Y-87449249D01*
X107353780Y-87523460D01*
X107179119Y-87631607D01*
X107027300Y-87770008D01*
X106973101Y-87841779D01*
X106916087Y-87884086D01*
X106845250Y-87888853D01*
X106783082Y-87854566D01*
X106772001Y-87841778D01*
X106702701Y-87750009D01*
X106550882Y-87611608D01*
X106467646Y-87560070D01*
X106376219Y-87503460D01*
X106184655Y-87429249D01*
X106134038Y-87419787D01*
X105982718Y-87391500D01*
X105777282Y-87391500D01*
X105697265Y-87406458D01*
X105575344Y-87429249D01*
X105383780Y-87503460D01*
X105209119Y-87611607D01*
X105057298Y-87750010D01*
X104933497Y-87913949D01*
X104841925Y-88097848D01*
X104785705Y-88295442D01*
X104766750Y-88499999D01*
X104785705Y-88704557D01*
X104841925Y-88902151D01*
X104885918Y-88990500D01*
X104933497Y-89086050D01*
X105057299Y-89249991D01*
X105209118Y-89388392D01*
X105218618Y-89394274D01*
X105248656Y-89412873D01*
X105296043Y-89465741D01*
X105307325Y-89535835D01*
X105278920Y-89600902D01*
X105248656Y-89627127D01*
X105209117Y-89651608D01*
X105057298Y-89790010D01*
X104933497Y-89953949D01*
X104841925Y-90137848D01*
X104785705Y-90335442D01*
X104766750Y-90540000D01*
X77189500Y-90540000D01*
X77189500Y-85089999D01*
X82076496Y-85089999D01*
X82096458Y-85279929D01*
X82155472Y-85461556D01*
X82250958Y-85626942D01*
X82250960Y-85626944D01*
X82378747Y-85768866D01*
X82533248Y-85881118D01*
X82707712Y-85958794D01*
X82894513Y-85998500D01*
X82894515Y-85998500D01*
X83085485Y-85998500D01*
X83085487Y-85998500D01*
X83272288Y-85958794D01*
X83446752Y-85881118D01*
X83601253Y-85768866D01*
X83608290Y-85761050D01*
X83668731Y-85723811D01*
X83739715Y-85725160D01*
X83798701Y-85764671D01*
X83826962Y-85829801D01*
X83827236Y-85832188D01*
X83836458Y-85919929D01*
X83895472Y-86101556D01*
X83990958Y-86266942D01*
X84118747Y-86408866D01*
X84187344Y-86458705D01*
X84230698Y-86514927D01*
X84236773Y-86585664D01*
X84233117Y-86599575D01*
X84226457Y-86620070D01*
X84207451Y-86800910D01*
X84180438Y-86866566D01*
X84122216Y-86907196D01*
X84051271Y-86909899D01*
X84030893Y-86902846D01*
X83982290Y-86881207D01*
X83982288Y-86881206D01*
X83795487Y-86841500D01*
X83604513Y-86841500D01*
X83479979Y-86867970D01*
X83417711Y-86881206D01*
X83243246Y-86958883D01*
X83088747Y-87071133D01*
X82960958Y-87213057D01*
X82865472Y-87378443D01*
X82806458Y-87560070D01*
X82786496Y-87750000D01*
X82806458Y-87939929D01*
X82865472Y-88121556D01*
X82960958Y-88286942D01*
X83081293Y-88420588D01*
X83088747Y-88428866D01*
X83243248Y-88541118D01*
X83417712Y-88618794D01*
X83604513Y-88658500D01*
X83604515Y-88658500D01*
X83795485Y-88658500D01*
X83795487Y-88658500D01*
X83982288Y-88618794D01*
X84156752Y-88541118D01*
X84311253Y-88428866D01*
X84439040Y-88286944D01*
X84534527Y-88121556D01*
X84593542Y-87939928D01*
X84612548Y-87759087D01*
X84639561Y-87693433D01*
X84697783Y-87652803D01*
X84768728Y-87650100D01*
X84789099Y-87657150D01*
X84837712Y-87678794D01*
X85024513Y-87718500D01*
X85024515Y-87718500D01*
X85215485Y-87718500D01*
X85215487Y-87718500D01*
X85402288Y-87678794D01*
X85576752Y-87601118D01*
X85731253Y-87488866D01*
X85859040Y-87346944D01*
X85954527Y-87181556D01*
X86013542Y-86999928D01*
X86033504Y-86810000D01*
X86013542Y-86620072D01*
X85978594Y-86512514D01*
X85954527Y-86438443D01*
X85859041Y-86273057D01*
X85846313Y-86258922D01*
X85731253Y-86131134D01*
X85662652Y-86081292D01*
X85619300Y-86025070D01*
X85613225Y-85954334D01*
X85616876Y-85940442D01*
X85623542Y-85919928D01*
X85643504Y-85730000D01*
X85623542Y-85540072D01*
X85564527Y-85358444D01*
X85564527Y-85358443D01*
X85469041Y-85193057D01*
X85341252Y-85051133D01*
X85186753Y-84938883D01*
X85186752Y-84938882D01*
X85012288Y-84861206D01*
X84825487Y-84821500D01*
X84634513Y-84821500D01*
X84509978Y-84847970D01*
X84447711Y-84861206D01*
X84273246Y-84938883D01*
X84118746Y-85051134D01*
X84111708Y-85058951D01*
X84051261Y-85096190D01*
X83980277Y-85094837D01*
X83921293Y-85055322D01*
X83893036Y-84990191D01*
X83892769Y-84987865D01*
X83883542Y-84900072D01*
X83824527Y-84718444D01*
X83824527Y-84718443D01*
X83729041Y-84553057D01*
X83601252Y-84411133D01*
X83446753Y-84298883D01*
X83446752Y-84298882D01*
X83272288Y-84221206D01*
X83085487Y-84181500D01*
X82894513Y-84181500D01*
X82769979Y-84207970D01*
X82707711Y-84221206D01*
X82533246Y-84298883D01*
X82378747Y-84411133D01*
X82250958Y-84553057D01*
X82155472Y-84718443D01*
X82096458Y-84900070D01*
X82076496Y-85089999D01*
X77189500Y-85089999D01*
X77189500Y-83980000D01*
X128296619Y-83980000D01*
X128316091Y-84177701D01*
X128373758Y-84367802D01*
X128467406Y-84543007D01*
X128593431Y-84696568D01*
X128746992Y-84822593D01*
X128746996Y-84822595D01*
X128922196Y-84916241D01*
X128996834Y-84938882D01*
X129112298Y-84973908D01*
X129310000Y-84993380D01*
X129507701Y-84973908D01*
X129697804Y-84916241D01*
X129873004Y-84822595D01*
X129873005Y-84822593D01*
X129873007Y-84822593D01*
X130026568Y-84696568D01*
X130152593Y-84543007D01*
X130152595Y-84543004D01*
X130246241Y-84367804D01*
X130303908Y-84177701D01*
X130323380Y-83980000D01*
X130303908Y-83782299D01*
X130302336Y-83777118D01*
X130249372Y-83602518D01*
X130246241Y-83592196D01*
X130152595Y-83416996D01*
X130152593Y-83416992D01*
X130026568Y-83263431D01*
X129873007Y-83137406D01*
X129697802Y-83043758D01*
X129507701Y-82986091D01*
X129309999Y-82966619D01*
X129112298Y-82986091D01*
X128922197Y-83043758D01*
X128746992Y-83137406D01*
X128593431Y-83263431D01*
X128467406Y-83416992D01*
X128373758Y-83592197D01*
X128316091Y-83782298D01*
X128296619Y-83980000D01*
X77189500Y-83980000D01*
X77189500Y-82811399D01*
X100797096Y-82811399D01*
X100817058Y-83001329D01*
X100876072Y-83182956D01*
X100971558Y-83348342D01*
X101033371Y-83416992D01*
X101099347Y-83490266D01*
X101253848Y-83602518D01*
X101428312Y-83680194D01*
X101615113Y-83719900D01*
X101615115Y-83719900D01*
X101806085Y-83719900D01*
X101806087Y-83719900D01*
X101992888Y-83680194D01*
X102167352Y-83602518D01*
X102321853Y-83490266D01*
X102449640Y-83348344D01*
X102545127Y-83182956D01*
X102604142Y-83001328D01*
X102605753Y-82986000D01*
X109447496Y-82986000D01*
X109467458Y-83175929D01*
X109526472Y-83357556D01*
X109621958Y-83522942D01*
X109621960Y-83522944D01*
X109749747Y-83664866D01*
X109904248Y-83777118D01*
X110078712Y-83854794D01*
X110265513Y-83894500D01*
X110265515Y-83894500D01*
X110456485Y-83894500D01*
X110456487Y-83894500D01*
X110643288Y-83854794D01*
X110817752Y-83777118D01*
X110972253Y-83664866D01*
X111100040Y-83522944D01*
X111195527Y-83357556D01*
X111254542Y-83175928D01*
X111274504Y-82986000D01*
X111254542Y-82796072D01*
X111195527Y-82614444D01*
X111195527Y-82614443D01*
X111100041Y-82449057D01*
X110972252Y-82307133D01*
X110817753Y-82194883D01*
X110817752Y-82194882D01*
X110643288Y-82117206D01*
X110456487Y-82077500D01*
X110265513Y-82077500D01*
X110140978Y-82103970D01*
X110078711Y-82117206D01*
X109904246Y-82194883D01*
X109749747Y-82307133D01*
X109621958Y-82449057D01*
X109526472Y-82614443D01*
X109467458Y-82796070D01*
X109447496Y-82986000D01*
X102605753Y-82986000D01*
X102624104Y-82811400D01*
X102604142Y-82621472D01*
X102545127Y-82439844D01*
X102545127Y-82439843D01*
X102449641Y-82274457D01*
X102321852Y-82132533D01*
X102167353Y-82020283D01*
X102167352Y-82020282D01*
X101992888Y-81942606D01*
X101806087Y-81902900D01*
X101615113Y-81902900D01*
X101490579Y-81929370D01*
X101428311Y-81942606D01*
X101253846Y-82020283D01*
X101099347Y-82132533D01*
X100971558Y-82274457D01*
X100876072Y-82439843D01*
X100817058Y-82621470D01*
X100797096Y-82811399D01*
X77189500Y-82811399D01*
X77189500Y-79945000D01*
X114981496Y-79945000D01*
X115001458Y-80134929D01*
X115060472Y-80316556D01*
X115155958Y-80481942D01*
X115155960Y-80481944D01*
X115283747Y-80623866D01*
X115438248Y-80736118D01*
X115612712Y-80813794D01*
X115799513Y-80853500D01*
X115799515Y-80853500D01*
X115990485Y-80853500D01*
X115990487Y-80853500D01*
X116177288Y-80813794D01*
X116351752Y-80736118D01*
X116506253Y-80623866D01*
X116634040Y-80481944D01*
X116729527Y-80316556D01*
X116788542Y-80134928D01*
X116792213Y-80100000D01*
X120334496Y-80100000D01*
X120354458Y-80289929D01*
X120413472Y-80471556D01*
X120508958Y-80636942D01*
X120508960Y-80636944D01*
X120636747Y-80778866D01*
X120791248Y-80891118D01*
X120965712Y-80968794D01*
X121152513Y-81008500D01*
X121152515Y-81008500D01*
X121343485Y-81008500D01*
X121343487Y-81008500D01*
X121530288Y-80968794D01*
X121704752Y-80891118D01*
X121859253Y-80778866D01*
X121987040Y-80636944D01*
X122082527Y-80471556D01*
X122141542Y-80289928D01*
X122161504Y-80100000D01*
X122159402Y-80080000D01*
X123105496Y-80080000D01*
X123125458Y-80269929D01*
X123184472Y-80451556D01*
X123279958Y-80616942D01*
X123297966Y-80636942D01*
X123407747Y-80758866D01*
X123562248Y-80871118D01*
X123736712Y-80948794D01*
X123923513Y-80988500D01*
X123923515Y-80988500D01*
X124114485Y-80988500D01*
X124114487Y-80988500D01*
X124301288Y-80948794D01*
X124475752Y-80871118D01*
X124630253Y-80758866D01*
X124758040Y-80616944D01*
X124853527Y-80451556D01*
X124912542Y-80269928D01*
X124932504Y-80080000D01*
X124912542Y-79890072D01*
X124881931Y-79795862D01*
X124853527Y-79708443D01*
X124758041Y-79543057D01*
X124636486Y-79408057D01*
X124630253Y-79401134D01*
X124475752Y-79288882D01*
X124301288Y-79211206D01*
X124114487Y-79171500D01*
X123923513Y-79171500D01*
X123829421Y-79191500D01*
X123736711Y-79211206D01*
X123562246Y-79288883D01*
X123407747Y-79401133D01*
X123279958Y-79543057D01*
X123184472Y-79708443D01*
X123125458Y-79890070D01*
X123105496Y-80080000D01*
X122159402Y-80080000D01*
X122141542Y-79910072D01*
X122091179Y-79755072D01*
X122082527Y-79728443D01*
X121987041Y-79563057D01*
X121859252Y-79421133D01*
X121704753Y-79308883D01*
X121704752Y-79308882D01*
X121530288Y-79231206D01*
X121343487Y-79191500D01*
X121152513Y-79191500D01*
X121027978Y-79217970D01*
X120965711Y-79231206D01*
X120791246Y-79308883D01*
X120636747Y-79421133D01*
X120508958Y-79563057D01*
X120413472Y-79728443D01*
X120354458Y-79910070D01*
X120334496Y-80100000D01*
X116792213Y-80100000D01*
X116808504Y-79945000D01*
X116788542Y-79755072D01*
X116729527Y-79573444D01*
X116729527Y-79573443D01*
X116634041Y-79408057D01*
X116506252Y-79266133D01*
X116429002Y-79210008D01*
X116351752Y-79153882D01*
X116177288Y-79076206D01*
X115990487Y-79036500D01*
X115799513Y-79036500D01*
X115674979Y-79062970D01*
X115612711Y-79076206D01*
X115438246Y-79153883D01*
X115283747Y-79266133D01*
X115155958Y-79408057D01*
X115060472Y-79573443D01*
X115001458Y-79755070D01*
X114981496Y-79945000D01*
X77189500Y-79945000D01*
X77189500Y-77438638D01*
X81641500Y-77438638D01*
X81648011Y-77499201D01*
X81664312Y-77542906D01*
X81699111Y-77636205D01*
X81786738Y-77753261D01*
X81903794Y-77840888D01*
X81903795Y-77840888D01*
X81903796Y-77840889D01*
X82040799Y-77891989D01*
X82101362Y-77898500D01*
X82104731Y-77898500D01*
X83895269Y-77898500D01*
X83898638Y-77898500D01*
X83959201Y-77891989D01*
X84096204Y-77840889D01*
X84213261Y-77753261D01*
X84300889Y-77636204D01*
X84344999Y-77517941D01*
X84387545Y-77461107D01*
X84454065Y-77436296D01*
X84523439Y-77451387D01*
X84555753Y-77476635D01*
X84593780Y-77517943D01*
X84616762Y-77542908D01*
X84794421Y-77681187D01*
X84794424Y-77681189D01*
X84992426Y-77788342D01*
X85205365Y-77861444D01*
X85427431Y-77898500D01*
X85427434Y-77898500D01*
X85652566Y-77898500D01*
X85652569Y-77898500D01*
X85874635Y-77861444D01*
X86087574Y-77788342D01*
X86285576Y-77681189D01*
X86463240Y-77542906D01*
X86615722Y-77377268D01*
X86738860Y-77188791D01*
X86829296Y-76982616D01*
X86884564Y-76764368D01*
X86885755Y-76749999D01*
X130026496Y-76749999D01*
X130046458Y-76939929D01*
X130105472Y-77121556D01*
X130200958Y-77286942D01*
X130200960Y-77286944D01*
X130328747Y-77428866D01*
X130483248Y-77541118D01*
X130657712Y-77618794D01*
X130844513Y-77658500D01*
X130844515Y-77658500D01*
X131035485Y-77658500D01*
X131035487Y-77658500D01*
X131222288Y-77618794D01*
X131396752Y-77541118D01*
X131551253Y-77428866D01*
X131679040Y-77286944D01*
X131774527Y-77121556D01*
X131833542Y-76939928D01*
X131853504Y-76750000D01*
X131833542Y-76560072D01*
X131774527Y-76378444D01*
X131774527Y-76378443D01*
X131679041Y-76213057D01*
X131551252Y-76071133D01*
X131396753Y-75958883D01*
X131396752Y-75958882D01*
X131222288Y-75881206D01*
X131035487Y-75841500D01*
X130844513Y-75841500D01*
X130735663Y-75864637D01*
X130657711Y-75881206D01*
X130483246Y-75958883D01*
X130328747Y-76071133D01*
X130200958Y-76213057D01*
X130105472Y-76378443D01*
X130046458Y-76560070D01*
X130026496Y-76749999D01*
X86885755Y-76749999D01*
X86903156Y-76540000D01*
X86884564Y-76315632D01*
X86829296Y-76097384D01*
X86738860Y-75891209D01*
X86615722Y-75702732D01*
X86463240Y-75537094D01*
X86463239Y-75537093D01*
X86463237Y-75537091D01*
X86285578Y-75398812D01*
X86121466Y-75309999D01*
X88816496Y-75309999D01*
X88836458Y-75499929D01*
X88895472Y-75681556D01*
X88990958Y-75846942D01*
X89030816Y-75891209D01*
X89118747Y-75988866D01*
X89273248Y-76101118D01*
X89447712Y-76178794D01*
X89634513Y-76218500D01*
X89634515Y-76218500D01*
X89825485Y-76218500D01*
X89825487Y-76218500D01*
X90012288Y-76178794D01*
X90186752Y-76101118D01*
X90341253Y-75988866D01*
X90469040Y-75846944D01*
X90564527Y-75681556D01*
X90623542Y-75499928D01*
X90643504Y-75310000D01*
X90638249Y-75260000D01*
X101786496Y-75260000D01*
X101806458Y-75449929D01*
X101865472Y-75631556D01*
X101960958Y-75796942D01*
X101960960Y-75796944D01*
X102088747Y-75938866D01*
X102243248Y-76051118D01*
X102417712Y-76128794D01*
X102604513Y-76168500D01*
X102604515Y-76168500D01*
X102795485Y-76168500D01*
X102795487Y-76168500D01*
X102982288Y-76128794D01*
X103156752Y-76051118D01*
X103311253Y-75938866D01*
X103439040Y-75796944D01*
X103534527Y-75631556D01*
X103593542Y-75449928D01*
X103613504Y-75260000D01*
X103593542Y-75070072D01*
X103534527Y-74888444D01*
X103534527Y-74888443D01*
X103439041Y-74723057D01*
X103311252Y-74581133D01*
X103156753Y-74468883D01*
X103156752Y-74468882D01*
X102982288Y-74391206D01*
X102795487Y-74351500D01*
X102604513Y-74351500D01*
X102479978Y-74377970D01*
X102417711Y-74391206D01*
X102243246Y-74468883D01*
X102088747Y-74581133D01*
X101960958Y-74723057D01*
X101865472Y-74888443D01*
X101806458Y-75070070D01*
X101786496Y-75260000D01*
X90638249Y-75260000D01*
X90623542Y-75120072D01*
X90564527Y-74938444D01*
X90564527Y-74938443D01*
X90469041Y-74773057D01*
X90341252Y-74631133D01*
X90186753Y-74518883D01*
X90186752Y-74518882D01*
X90012288Y-74441206D01*
X89825487Y-74401500D01*
X89634513Y-74401500D01*
X89509978Y-74427970D01*
X89447711Y-74441206D01*
X89273246Y-74518883D01*
X89118747Y-74631133D01*
X88990958Y-74773057D01*
X88895472Y-74938443D01*
X88836458Y-75120070D01*
X88816496Y-75309999D01*
X86121466Y-75309999D01*
X86087573Y-75291657D01*
X85934510Y-75239111D01*
X85874635Y-75218556D01*
X85652569Y-75181500D01*
X85427431Y-75181500D01*
X85205365Y-75218556D01*
X85205362Y-75218556D01*
X85205362Y-75218557D01*
X84992426Y-75291657D01*
X84794421Y-75398812D01*
X84616758Y-75537094D01*
X84555754Y-75603362D01*
X84494901Y-75639933D01*
X84423937Y-75637798D01*
X84365392Y-75597636D01*
X84344998Y-75562056D01*
X84335688Y-75537094D01*
X84300889Y-75443796D01*
X84300888Y-75443794D01*
X84213261Y-75326738D01*
X84096205Y-75239111D01*
X84027702Y-75213561D01*
X83959201Y-75188011D01*
X83898638Y-75181500D01*
X82101362Y-75181500D01*
X82098013Y-75181859D01*
X82098013Y-75181860D01*
X82040799Y-75188011D01*
X81903794Y-75239111D01*
X81786738Y-75326738D01*
X81699111Y-75443794D01*
X81678174Y-75499929D01*
X81648011Y-75580799D01*
X81641500Y-75641362D01*
X81641500Y-77438638D01*
X77189500Y-77438638D01*
X77189500Y-74273599D01*
X95045296Y-74273599D01*
X95065258Y-74463529D01*
X95124272Y-74645156D01*
X95219758Y-74810542D01*
X95219760Y-74810544D01*
X95347547Y-74952466D01*
X95502048Y-75064718D01*
X95676512Y-75142394D01*
X95863313Y-75182100D01*
X95863315Y-75182100D01*
X96054285Y-75182100D01*
X96054287Y-75182100D01*
X96241088Y-75142394D01*
X96415552Y-75064718D01*
X96570053Y-74952466D01*
X96697840Y-74810544D01*
X96793327Y-74645156D01*
X96852342Y-74463528D01*
X96872304Y-74273600D01*
X96852342Y-74083672D01*
X96793327Y-73902044D01*
X96793327Y-73902043D01*
X96697841Y-73736657D01*
X96571007Y-73595794D01*
X96570053Y-73594734D01*
X96415552Y-73482482D01*
X96241088Y-73404806D01*
X96054287Y-73365100D01*
X95863313Y-73365100D01*
X95738778Y-73391570D01*
X95676511Y-73404806D01*
X95502046Y-73482483D01*
X95347547Y-73594733D01*
X95219758Y-73736657D01*
X95124272Y-73902043D01*
X95065258Y-74083670D01*
X95045296Y-74273599D01*
X77189500Y-74273599D01*
X77189500Y-72727000D01*
X115646496Y-72727000D01*
X115666458Y-72916929D01*
X115725472Y-73098556D01*
X115820958Y-73263942D01*
X115820960Y-73263944D01*
X115948747Y-73405866D01*
X116103248Y-73518118D01*
X116277712Y-73595794D01*
X116464513Y-73635500D01*
X116464515Y-73635500D01*
X116655485Y-73635500D01*
X116655487Y-73635500D01*
X116842288Y-73595794D01*
X117016752Y-73518118D01*
X117171253Y-73405866D01*
X117299040Y-73263944D01*
X117394527Y-73098556D01*
X117453542Y-72916928D01*
X117473504Y-72727000D01*
X117453542Y-72537072D01*
X117394527Y-72355444D01*
X117394527Y-72355443D01*
X117299041Y-72190057D01*
X117171252Y-72048133D01*
X117016753Y-71935883D01*
X117016752Y-71935882D01*
X116842288Y-71858206D01*
X116655487Y-71818500D01*
X116464513Y-71818500D01*
X116339978Y-71844970D01*
X116277711Y-71858206D01*
X116103246Y-71935883D01*
X115948747Y-72048133D01*
X115820958Y-72190057D01*
X115725472Y-72355443D01*
X115666458Y-72537070D01*
X115646496Y-72727000D01*
X77189500Y-72727000D01*
X77189500Y-70810000D01*
X78336541Y-70810000D01*
X78340433Y-70861929D01*
X78356349Y-71074321D01*
X78415331Y-71332737D01*
X78512169Y-71579476D01*
X78644699Y-71809026D01*
X78778609Y-71976942D01*
X78809963Y-72016258D01*
X79004266Y-72196546D01*
X79223271Y-72345861D01*
X79384458Y-72423484D01*
X79462082Y-72460866D01*
X79518570Y-72478290D01*
X79715368Y-72538995D01*
X79977469Y-72578500D01*
X79977471Y-72578500D01*
X80242529Y-72578500D01*
X80242531Y-72578500D01*
X80504632Y-72538995D01*
X80757917Y-72460866D01*
X80996730Y-72345861D01*
X81215734Y-72196546D01*
X81410037Y-72016258D01*
X81575301Y-71809025D01*
X81707831Y-71579475D01*
X81804669Y-71332736D01*
X81863651Y-71074320D01*
X81883459Y-70810000D01*
X83416541Y-70810000D01*
X83420433Y-70861929D01*
X83436349Y-71074321D01*
X83495331Y-71332737D01*
X83592169Y-71579476D01*
X83724699Y-71809026D01*
X83858609Y-71976942D01*
X83889963Y-72016258D01*
X84084266Y-72196546D01*
X84303271Y-72345861D01*
X84464458Y-72423484D01*
X84542082Y-72460866D01*
X84598570Y-72478290D01*
X84795368Y-72538995D01*
X85057469Y-72578500D01*
X85057471Y-72578500D01*
X85322529Y-72578500D01*
X85322531Y-72578500D01*
X85584632Y-72538995D01*
X85837917Y-72460866D01*
X86076730Y-72345861D01*
X86295734Y-72196546D01*
X86490037Y-72016258D01*
X86655301Y-71809025D01*
X86787831Y-71579475D01*
X86884669Y-71332736D01*
X86918709Y-71183599D01*
X94455296Y-71183599D01*
X94475258Y-71373529D01*
X94534272Y-71555156D01*
X94629758Y-71720542D01*
X94709429Y-71809026D01*
X94757547Y-71862466D01*
X94912048Y-71974718D01*
X95086512Y-72052394D01*
X95273313Y-72092100D01*
X95273315Y-72092100D01*
X95464285Y-72092100D01*
X95464287Y-72092100D01*
X95651088Y-72052394D01*
X95825552Y-71974718D01*
X95980053Y-71862466D01*
X96107840Y-71720544D01*
X96203327Y-71555156D01*
X96240744Y-71440000D01*
X107365396Y-71440000D01*
X107385358Y-71629929D01*
X107444372Y-71811556D01*
X107539858Y-71976942D01*
X107607795Y-72052394D01*
X107667647Y-72118866D01*
X107822148Y-72231118D01*
X107996612Y-72308794D01*
X108183413Y-72348500D01*
X108183415Y-72348500D01*
X108374385Y-72348500D01*
X108374387Y-72348500D01*
X108561188Y-72308794D01*
X108735652Y-72231118D01*
X108890153Y-72118866D01*
X109017940Y-71976944D01*
X109113427Y-71811556D01*
X109172442Y-71629928D01*
X109192404Y-71440000D01*
X109172442Y-71250072D01*
X109115337Y-71074321D01*
X109113427Y-71068443D01*
X109017941Y-70903057D01*
X108943207Y-70820056D01*
X108890153Y-70761134D01*
X108767471Y-70672000D01*
X109634496Y-70672000D01*
X109654458Y-70861929D01*
X109713472Y-71043556D01*
X109808958Y-71208942D01*
X109829320Y-71231556D01*
X109936747Y-71350866D01*
X110091248Y-71463118D01*
X110265712Y-71540794D01*
X110452513Y-71580500D01*
X110452515Y-71580500D01*
X110643485Y-71580500D01*
X110643487Y-71580500D01*
X110830288Y-71540794D01*
X111004752Y-71463118D01*
X111159253Y-71350866D01*
X111287040Y-71208944D01*
X111382527Y-71043556D01*
X111441542Y-70861928D01*
X111461504Y-70672000D01*
X111441542Y-70482072D01*
X111404496Y-70368056D01*
X111382527Y-70300443D01*
X111287041Y-70135057D01*
X111159252Y-69993133D01*
X111082002Y-69937008D01*
X111004752Y-69880882D01*
X110830288Y-69803206D01*
X110643487Y-69763500D01*
X110452513Y-69763500D01*
X110327979Y-69789970D01*
X110265711Y-69803206D01*
X110091246Y-69880883D01*
X109936747Y-69993133D01*
X109808958Y-70135057D01*
X109713472Y-70300443D01*
X109654458Y-70482070D01*
X109634496Y-70672000D01*
X108767471Y-70672000D01*
X108735652Y-70648882D01*
X108561188Y-70571206D01*
X108374387Y-70531500D01*
X108183413Y-70531500D01*
X108058878Y-70557970D01*
X107996611Y-70571206D01*
X107889428Y-70618927D01*
X107827146Y-70646657D01*
X107822146Y-70648883D01*
X107667647Y-70761133D01*
X107539858Y-70903057D01*
X107444372Y-71068443D01*
X107385358Y-71250070D01*
X107365396Y-71440000D01*
X96240744Y-71440000D01*
X96262342Y-71373528D01*
X96282304Y-71183600D01*
X96262342Y-70993672D01*
X96219536Y-70861929D01*
X96203327Y-70812043D01*
X96107841Y-70646657D01*
X96082873Y-70618927D01*
X97862805Y-70618927D01*
X97948784Y-70664052D01*
X98115726Y-70705200D01*
X98287656Y-70705200D01*
X98454596Y-70664053D01*
X98540575Y-70618927D01*
X98540575Y-70618925D01*
X98201692Y-70280042D01*
X98201691Y-70280042D01*
X97862805Y-70618926D01*
X97862805Y-70618927D01*
X96082873Y-70618927D01*
X95980052Y-70504733D01*
X95902654Y-70448500D01*
X95825552Y-70392482D01*
X95651088Y-70314806D01*
X95464287Y-70275100D01*
X95273313Y-70275100D01*
X95154084Y-70300443D01*
X95086511Y-70314806D01*
X94912046Y-70392483D01*
X94757547Y-70504733D01*
X94629758Y-70646657D01*
X94534272Y-70812043D01*
X94475258Y-70993670D01*
X94455296Y-71183599D01*
X86918709Y-71183599D01*
X86943651Y-71074320D01*
X86963459Y-70810000D01*
X86943651Y-70545680D01*
X86884669Y-70287264D01*
X86789166Y-70043927D01*
X96912805Y-70043927D01*
X96998784Y-70089052D01*
X97165726Y-70130200D01*
X97337659Y-70130200D01*
X97373096Y-70121465D01*
X97444024Y-70124582D01*
X97502007Y-70165552D01*
X97521063Y-70199122D01*
X97570183Y-70328641D01*
X97577216Y-70338830D01*
X97918846Y-69997200D01*
X98046400Y-69997200D01*
X98067205Y-70074845D01*
X98124046Y-70131686D01*
X98181945Y-70147200D01*
X98221437Y-70147200D01*
X98279336Y-70131686D01*
X98336177Y-70074846D01*
X98356982Y-69997200D01*
X98336177Y-69919555D01*
X98279336Y-69862714D01*
X98221437Y-69847200D01*
X98181945Y-69847200D01*
X98124046Y-69862714D01*
X98067205Y-69919554D01*
X98046400Y-69997200D01*
X97918846Y-69997200D01*
X98112594Y-69803452D01*
X98174907Y-69769427D01*
X98245722Y-69774491D01*
X98290786Y-69803452D01*
X98826164Y-70338830D01*
X98833197Y-70328641D01*
X98882317Y-70199123D01*
X98925175Y-70142522D01*
X98991830Y-70118077D01*
X99030283Y-70121464D01*
X99065726Y-70130200D01*
X99237656Y-70130200D01*
X99404596Y-70089053D01*
X99490575Y-70043927D01*
X99490575Y-70043926D01*
X98957943Y-69511295D01*
X98923918Y-69448982D01*
X98925833Y-69422200D01*
X98996400Y-69422200D01*
X99017205Y-69499845D01*
X99074046Y-69556686D01*
X99131945Y-69572200D01*
X99171437Y-69572200D01*
X99229336Y-69556686D01*
X99286177Y-69499846D01*
X99306982Y-69422201D01*
X99434533Y-69422201D01*
X99776163Y-69763831D01*
X99776163Y-69763830D01*
X99783197Y-69753640D01*
X99844167Y-69592878D01*
X99864891Y-69422200D01*
X99844167Y-69251521D01*
X99783198Y-69090760D01*
X99776163Y-69080568D01*
X99434533Y-69422199D01*
X99434533Y-69422201D01*
X99306982Y-69422201D01*
X99306982Y-69422200D01*
X99286177Y-69344555D01*
X99229336Y-69287714D01*
X99171437Y-69272200D01*
X99131945Y-69272200D01*
X99074046Y-69287714D01*
X99017205Y-69344554D01*
X98996400Y-69422200D01*
X98925833Y-69422200D01*
X98928982Y-69378167D01*
X98957943Y-69333103D01*
X99151691Y-69139356D01*
X99490575Y-68800472D01*
X99490575Y-68800471D01*
X99404596Y-68755347D01*
X99237656Y-68714200D01*
X99065723Y-68714200D01*
X99030281Y-68722935D01*
X98959353Y-68719816D01*
X98901371Y-68678845D01*
X98885849Y-68651499D01*
X115284996Y-68651499D01*
X115304958Y-68841429D01*
X115363972Y-69023056D01*
X115459458Y-69188442D01*
X115516255Y-69251521D01*
X115587247Y-69330366D01*
X115741748Y-69442618D01*
X115916212Y-69520294D01*
X116103013Y-69560000D01*
X116103015Y-69560000D01*
X116213002Y-69560000D01*
X116281123Y-69580002D01*
X116327616Y-69633658D01*
X116337720Y-69703932D01*
X116308226Y-69768512D01*
X116306666Y-69770278D01*
X116263075Y-69818691D01*
X116179458Y-69911557D01*
X116083972Y-70076943D01*
X116024958Y-70258570D01*
X116004996Y-70448500D01*
X116024958Y-70638429D01*
X116083972Y-70820056D01*
X116179458Y-70985442D01*
X116254193Y-71068444D01*
X116307247Y-71127366D01*
X116461748Y-71239618D01*
X116636212Y-71317294D01*
X116823013Y-71357000D01*
X116823015Y-71357000D01*
X117013985Y-71357000D01*
X117013987Y-71357000D01*
X117200788Y-71317294D01*
X117299353Y-71273409D01*
X117369720Y-71263976D01*
X117434017Y-71294083D01*
X117459721Y-71325517D01*
X117500958Y-71396942D01*
X117500960Y-71396944D01*
X117628747Y-71538866D01*
X117783248Y-71651118D01*
X117957712Y-71728794D01*
X118144513Y-71768500D01*
X118144515Y-71768500D01*
X118335485Y-71768500D01*
X118335487Y-71768500D01*
X118522288Y-71728794D01*
X118696752Y-71651118D01*
X118851253Y-71538866D01*
X118979040Y-71396944D01*
X119074527Y-71231556D01*
X119133542Y-71049928D01*
X119153504Y-70860000D01*
X119133542Y-70670072D01*
X119074527Y-70488444D01*
X119074527Y-70488443D01*
X118979041Y-70323057D01*
X118851252Y-70181133D01*
X118724515Y-70089053D01*
X118696752Y-70068882D01*
X118522288Y-69991206D01*
X118335487Y-69951500D01*
X118144513Y-69951500D01*
X118031139Y-69975598D01*
X117957706Y-69991207D01*
X117859144Y-70035089D01*
X117788777Y-70044523D01*
X117724480Y-70014416D01*
X117698778Y-69982982D01*
X117657541Y-69911557D01*
X117534126Y-69774491D01*
X117529753Y-69769634D01*
X117521310Y-69763500D01*
X117439322Y-69703932D01*
X117375252Y-69657382D01*
X117200788Y-69579706D01*
X117013987Y-69540000D01*
X116903998Y-69540000D01*
X116835877Y-69519998D01*
X116789384Y-69466342D01*
X116779280Y-69396068D01*
X116808774Y-69331488D01*
X116810333Y-69329721D01*
X116937540Y-69188444D01*
X117033027Y-69023056D01*
X117092042Y-68841428D01*
X117108998Y-68680100D01*
X119829496Y-68680100D01*
X119849458Y-68870029D01*
X119908472Y-69051656D01*
X120003958Y-69217042D01*
X120067591Y-69287714D01*
X120131747Y-69358966D01*
X120286248Y-69471218D01*
X120460712Y-69548894D01*
X120492133Y-69555572D01*
X120554604Y-69589298D01*
X120588926Y-69651447D01*
X120585768Y-69717754D01*
X120543458Y-69847969D01*
X120528201Y-69993133D01*
X120523496Y-70037900D01*
X120524192Y-70044523D01*
X120543458Y-70227829D01*
X120602472Y-70409456D01*
X120697958Y-70574842D01*
X120815333Y-70705200D01*
X120825747Y-70716766D01*
X120980248Y-70829018D01*
X121123151Y-70892642D01*
X121177245Y-70938621D01*
X121197211Y-70994577D01*
X121207758Y-71094929D01*
X121266772Y-71276556D01*
X121362258Y-71441942D01*
X121362260Y-71441944D01*
X121490047Y-71583866D01*
X121644548Y-71696118D01*
X121819012Y-71773794D01*
X122005813Y-71813500D01*
X122005815Y-71813500D01*
X122196785Y-71813500D01*
X122196787Y-71813500D01*
X122383588Y-71773794D01*
X122558052Y-71696118D01*
X122712553Y-71583866D01*
X122840340Y-71441944D01*
X122935827Y-71276556D01*
X122994842Y-71094928D01*
X123014804Y-70905000D01*
X122994842Y-70715072D01*
X122935827Y-70533444D01*
X122935827Y-70533443D01*
X122840341Y-70368057D01*
X122712552Y-70226133D01*
X122582557Y-70131686D01*
X122558052Y-70113882D01*
X122415148Y-70050257D01*
X122361053Y-70004278D01*
X122341088Y-69948320D01*
X122337224Y-69911557D01*
X122330542Y-69847972D01*
X122271527Y-69666344D01*
X122271526Y-69666342D01*
X122256294Y-69639959D01*
X122239556Y-69570964D01*
X122262776Y-69503872D01*
X122318584Y-69459985D01*
X122339210Y-69453713D01*
X122395288Y-69441794D01*
X122569752Y-69364118D01*
X122724253Y-69251866D01*
X122852040Y-69109944D01*
X122947527Y-68944556D01*
X123006542Y-68762928D01*
X123026504Y-68573000D01*
X123006542Y-68383072D01*
X122947527Y-68201444D01*
X122947527Y-68201443D01*
X122852041Y-68036057D01*
X122780835Y-67956975D01*
X122724253Y-67894134D01*
X122717163Y-67888983D01*
X122569753Y-67781883D01*
X122569752Y-67781882D01*
X122395288Y-67704206D01*
X122208487Y-67664500D01*
X122017513Y-67664500D01*
X121951649Y-67678500D01*
X121830711Y-67704206D01*
X121656246Y-67781883D01*
X121501746Y-67894133D01*
X121461032Y-67939351D01*
X121400585Y-67976590D01*
X121329602Y-67975237D01*
X121293336Y-67956975D01*
X121206843Y-67894134D01*
X121199752Y-67888982D01*
X121025288Y-67811306D01*
X120838487Y-67771600D01*
X120647513Y-67771600D01*
X120522978Y-67798070D01*
X120460711Y-67811306D01*
X120286246Y-67888983D01*
X120131747Y-68001233D01*
X120003958Y-68143157D01*
X119908472Y-68308543D01*
X119849458Y-68490170D01*
X119829496Y-68680100D01*
X117108998Y-68680100D01*
X117112004Y-68651500D01*
X117092042Y-68461572D01*
X117042320Y-68308544D01*
X117033027Y-68279943D01*
X116937541Y-68114557D01*
X116861035Y-68029588D01*
X116809753Y-67972634D01*
X116804590Y-67968883D01*
X116655253Y-67860383D01*
X116655252Y-67860382D01*
X116480788Y-67782706D01*
X116293987Y-67743000D01*
X116103013Y-67743000D01*
X115978479Y-67769470D01*
X115916211Y-67782706D01*
X115741746Y-67860383D01*
X115587247Y-67972633D01*
X115459458Y-68114557D01*
X115363972Y-68279943D01*
X115304958Y-68461570D01*
X115284996Y-68651499D01*
X98885849Y-68651499D01*
X98882317Y-68645276D01*
X98833198Y-68515760D01*
X98826163Y-68505567D01*
X98447640Y-68884090D01*
X98447628Y-68884106D01*
X98290786Y-69040948D01*
X98228474Y-69074974D01*
X98157659Y-69069909D01*
X98112596Y-69040948D01*
X97936572Y-68864924D01*
X97936568Y-68864918D01*
X97918850Y-68847200D01*
X98046400Y-68847200D01*
X98067205Y-68924845D01*
X98124046Y-68981686D01*
X98181945Y-68997200D01*
X98221437Y-68997200D01*
X98279336Y-68981686D01*
X98336177Y-68924846D01*
X98356982Y-68847200D01*
X98336177Y-68769555D01*
X98279336Y-68712714D01*
X98221437Y-68697200D01*
X98181945Y-68697200D01*
X98124046Y-68712714D01*
X98067205Y-68769554D01*
X98046400Y-68847200D01*
X97918850Y-68847200D01*
X97577217Y-68505567D01*
X97577216Y-68505567D01*
X97570184Y-68515757D01*
X97521063Y-68645277D01*
X97478204Y-68701878D01*
X97411548Y-68726323D01*
X97373098Y-68722935D01*
X97337658Y-68714200D01*
X97165724Y-68714200D01*
X96998788Y-68755345D01*
X96912805Y-68800472D01*
X97251691Y-69139357D01*
X97445438Y-69333103D01*
X97479463Y-69395415D01*
X97474399Y-69466231D01*
X97445438Y-69511295D01*
X96912805Y-70043926D01*
X96912805Y-70043927D01*
X86789166Y-70043927D01*
X86787831Y-70040525D01*
X86786316Y-70037900D01*
X86655300Y-69810973D01*
X86490037Y-69603742D01*
X86464452Y-69580002D01*
X86295734Y-69423454D01*
X86293895Y-69422200D01*
X96538490Y-69422200D01*
X96559214Y-69592878D01*
X96620183Y-69753640D01*
X96627216Y-69763830D01*
X96627217Y-69763831D01*
X96968848Y-69422201D01*
X96968848Y-69422200D01*
X97096400Y-69422200D01*
X97117205Y-69499845D01*
X97174046Y-69556686D01*
X97231945Y-69572200D01*
X97271437Y-69572200D01*
X97329336Y-69556686D01*
X97386177Y-69499846D01*
X97406982Y-69422200D01*
X97386177Y-69344555D01*
X97329336Y-69287714D01*
X97271437Y-69272200D01*
X97231945Y-69272200D01*
X97174046Y-69287714D01*
X97117205Y-69344554D01*
X97096400Y-69422200D01*
X96968848Y-69422200D01*
X96968848Y-69422199D01*
X96627216Y-69080567D01*
X96620183Y-69090758D01*
X96559214Y-69251521D01*
X96538490Y-69422200D01*
X86293895Y-69422200D01*
X86076730Y-69274139D01*
X86076729Y-69274138D01*
X86076727Y-69274137D01*
X85837917Y-69159133D01*
X85649330Y-69100962D01*
X85584632Y-69081005D01*
X85322531Y-69041500D01*
X85057469Y-69041500D01*
X84795368Y-69081005D01*
X84795364Y-69081006D01*
X84795365Y-69081006D01*
X84542082Y-69159133D01*
X84303271Y-69274139D01*
X84084266Y-69423453D01*
X83889962Y-69603742D01*
X83724699Y-69810973D01*
X83592169Y-70040523D01*
X83495331Y-70287262D01*
X83436349Y-70545678D01*
X83429398Y-70638429D01*
X83416541Y-70810000D01*
X81883459Y-70810000D01*
X81863651Y-70545680D01*
X81804669Y-70287264D01*
X81707831Y-70040525D01*
X81706316Y-70037900D01*
X81575300Y-69810973D01*
X81410037Y-69603742D01*
X81384452Y-69580002D01*
X81215734Y-69423454D01*
X80996730Y-69274139D01*
X80996729Y-69274138D01*
X80996727Y-69274137D01*
X80757917Y-69159133D01*
X80569330Y-69100962D01*
X80504632Y-69081005D01*
X80242531Y-69041500D01*
X79977469Y-69041500D01*
X79715368Y-69081005D01*
X79715364Y-69081006D01*
X79715365Y-69081006D01*
X79462082Y-69159133D01*
X79223271Y-69274139D01*
X79004266Y-69423453D01*
X78809962Y-69603742D01*
X78644699Y-69810973D01*
X78512169Y-70040523D01*
X78415331Y-70287262D01*
X78356349Y-70545678D01*
X78349398Y-70638429D01*
X78336541Y-70810000D01*
X77189500Y-70810000D01*
X77189500Y-68225472D01*
X97862805Y-68225472D01*
X98201690Y-68564356D01*
X98540575Y-68225471D01*
X98454596Y-68180347D01*
X98287656Y-68139200D01*
X98115724Y-68139200D01*
X97948788Y-68180345D01*
X97862805Y-68225472D01*
X77189500Y-68225472D01*
X77189500Y-66769999D01*
X99556496Y-66769999D01*
X99576458Y-66959929D01*
X99635472Y-67141556D01*
X99730958Y-67306942D01*
X99730960Y-67306944D01*
X99858747Y-67448866D01*
X100013248Y-67561118D01*
X100187712Y-67638794D01*
X100374513Y-67678500D01*
X100374515Y-67678500D01*
X100565485Y-67678500D01*
X100565487Y-67678500D01*
X100752288Y-67638794D01*
X100926752Y-67561118D01*
X101081253Y-67448866D01*
X101209040Y-67306944D01*
X101304527Y-67141556D01*
X101363542Y-66959928D01*
X101383504Y-66770000D01*
X101363542Y-66580072D01*
X101304527Y-66398444D01*
X101304527Y-66398443D01*
X101209041Y-66233057D01*
X101081252Y-66091133D01*
X100926753Y-65978883D01*
X100926752Y-65978882D01*
X100752288Y-65901206D01*
X100565487Y-65861500D01*
X100374513Y-65861500D01*
X100249978Y-65887970D01*
X100187711Y-65901206D01*
X100013246Y-65978883D01*
X99858747Y-66091133D01*
X99730958Y-66233057D01*
X99635472Y-66398443D01*
X99576458Y-66580070D01*
X99556496Y-66769999D01*
X77189500Y-66769999D01*
X77189500Y-62679999D01*
X88136496Y-62679999D01*
X88156458Y-62869929D01*
X88215472Y-63051556D01*
X88310958Y-63216942D01*
X88438746Y-63358865D01*
X88438747Y-63358866D01*
X88593248Y-63471118D01*
X88767712Y-63548794D01*
X88954513Y-63588500D01*
X88954515Y-63588500D01*
X89145485Y-63588500D01*
X89145487Y-63588500D01*
X89332288Y-63548794D01*
X89506752Y-63471118D01*
X89661253Y-63358866D01*
X89789040Y-63216944D01*
X89884527Y-63051556D01*
X89943542Y-62869928D01*
X89946887Y-62838099D01*
X102086496Y-62838099D01*
X102106458Y-63028029D01*
X102165472Y-63209656D01*
X102260958Y-63375042D01*
X102347465Y-63471118D01*
X102388747Y-63516966D01*
X102543248Y-63629218D01*
X102717712Y-63706894D01*
X102904513Y-63746600D01*
X102904515Y-63746600D01*
X103095485Y-63746600D01*
X103095487Y-63746600D01*
X103282288Y-63706894D01*
X103456752Y-63629218D01*
X103611253Y-63516966D01*
X103739040Y-63375044D01*
X103747726Y-63360000D01*
X108209750Y-63360000D01*
X108228705Y-63564557D01*
X108284925Y-63762151D01*
X108376496Y-63946049D01*
X108376497Y-63946050D01*
X108500299Y-64109991D01*
X108652118Y-64248392D01*
X108826782Y-64356540D01*
X109018345Y-64430751D01*
X109220282Y-64468500D01*
X109220284Y-64468500D01*
X109425716Y-64468500D01*
X109425718Y-64468500D01*
X109627655Y-64430751D01*
X109819218Y-64356540D01*
X109993882Y-64248392D01*
X110145701Y-64109991D01*
X110269503Y-63946050D01*
X110361074Y-63762152D01*
X110417294Y-63564559D01*
X110436249Y-63360000D01*
X110417294Y-63155441D01*
X110361074Y-62957848D01*
X110269503Y-62773950D01*
X110145701Y-62610009D01*
X109993882Y-62471608D01*
X109910200Y-62419794D01*
X109899227Y-62413000D01*
X114543496Y-62413000D01*
X114563458Y-62602929D01*
X114622472Y-62784556D01*
X114717958Y-62949942D01*
X114717960Y-62949944D01*
X114845747Y-63091866D01*
X115000248Y-63204118D01*
X115174712Y-63281794D01*
X115361513Y-63321500D01*
X115361515Y-63321500D01*
X115552485Y-63321500D01*
X115552487Y-63321500D01*
X115739288Y-63281794D01*
X115913752Y-63204118D01*
X116068253Y-63091866D01*
X116196040Y-62949944D01*
X116291527Y-62784556D01*
X116350542Y-62602928D01*
X116370504Y-62413000D01*
X116350542Y-62223072D01*
X116305986Y-62085944D01*
X116291527Y-62041443D01*
X116196041Y-61876057D01*
X116072570Y-61738929D01*
X116068253Y-61734134D01*
X115913752Y-61621882D01*
X115754548Y-61551000D01*
X123533496Y-61551000D01*
X123553458Y-61740929D01*
X123612472Y-61922556D01*
X123707958Y-62087942D01*
X123707960Y-62087944D01*
X123835747Y-62229866D01*
X123990248Y-62342118D01*
X124164712Y-62419794D01*
X124351513Y-62459500D01*
X124351515Y-62459500D01*
X124542485Y-62459500D01*
X124542487Y-62459500D01*
X124729288Y-62419794D01*
X124903752Y-62342118D01*
X125058253Y-62229866D01*
X125186040Y-62087944D01*
X125281527Y-61922556D01*
X125340542Y-61740928D01*
X125360504Y-61551000D01*
X125360294Y-61549000D01*
X127146496Y-61549000D01*
X127166458Y-61738929D01*
X127225472Y-61920556D01*
X127320958Y-62085942D01*
X127444429Y-62223070D01*
X127448747Y-62227866D01*
X127603248Y-62340118D01*
X127777712Y-62417794D01*
X127964513Y-62457500D01*
X127964515Y-62457500D01*
X128155485Y-62457500D01*
X128155487Y-62457500D01*
X128342288Y-62417794D01*
X128516752Y-62340118D01*
X128671253Y-62227866D01*
X128799040Y-62085944D01*
X128894527Y-61920556D01*
X128953542Y-61738928D01*
X128973504Y-61549000D01*
X128953542Y-61359072D01*
X128894527Y-61177444D01*
X128894527Y-61177443D01*
X128799041Y-61012057D01*
X128671252Y-60870133D01*
X128519506Y-60759883D01*
X128516752Y-60757882D01*
X128342288Y-60680206D01*
X128155487Y-60640500D01*
X127964513Y-60640500D01*
X127839978Y-60666970D01*
X127777711Y-60680206D01*
X127603246Y-60757883D01*
X127448747Y-60870133D01*
X127320958Y-61012057D01*
X127225472Y-61177443D01*
X127166458Y-61359070D01*
X127146496Y-61549000D01*
X125360294Y-61549000D01*
X125340542Y-61361072D01*
X125281527Y-61179444D01*
X125281527Y-61179443D01*
X125186041Y-61014057D01*
X125058252Y-60872133D01*
X124903753Y-60759883D01*
X124903752Y-60759882D01*
X124729288Y-60682206D01*
X124542487Y-60642500D01*
X124351513Y-60642500D01*
X124226978Y-60668970D01*
X124164711Y-60682206D01*
X123990246Y-60759883D01*
X123835747Y-60872133D01*
X123707958Y-61014057D01*
X123612472Y-61179443D01*
X123553458Y-61361070D01*
X123533496Y-61551000D01*
X115754548Y-61551000D01*
X115739288Y-61544206D01*
X115552487Y-61504500D01*
X115361513Y-61504500D01*
X115236978Y-61530970D01*
X115174711Y-61544206D01*
X115000246Y-61621883D01*
X114845747Y-61734133D01*
X114717958Y-61876057D01*
X114622472Y-62041443D01*
X114563458Y-62223070D01*
X114543496Y-62413000D01*
X109899227Y-62413000D01*
X109819219Y-62363460D01*
X109627655Y-62289249D01*
X109425718Y-62251500D01*
X109220282Y-62251500D01*
X109085657Y-62276665D01*
X109018344Y-62289249D01*
X108826780Y-62363460D01*
X108652119Y-62471607D01*
X108500298Y-62610010D01*
X108376497Y-62773949D01*
X108284925Y-62957848D01*
X108228705Y-63155442D01*
X108209750Y-63360000D01*
X103747726Y-63360000D01*
X103834527Y-63209656D01*
X103893542Y-63028028D01*
X103913504Y-62838100D01*
X103893542Y-62648172D01*
X103842171Y-62490070D01*
X103834527Y-62466543D01*
X103739041Y-62301157D01*
X103611252Y-62159233D01*
X103456753Y-62046983D01*
X103456752Y-62046982D01*
X103282288Y-61969306D01*
X103095487Y-61929600D01*
X102904513Y-61929600D01*
X102779979Y-61956070D01*
X102717711Y-61969306D01*
X102543246Y-62046983D01*
X102388747Y-62159233D01*
X102260958Y-62301157D01*
X102165472Y-62466543D01*
X102106458Y-62648170D01*
X102086496Y-62838099D01*
X89946887Y-62838099D01*
X89963504Y-62680000D01*
X89943542Y-62490072D01*
X89902403Y-62363460D01*
X89884527Y-62308443D01*
X89789041Y-62143057D01*
X89661252Y-62001133D01*
X89506753Y-61888883D01*
X89506752Y-61888882D01*
X89332288Y-61811206D01*
X89145487Y-61771500D01*
X88954513Y-61771500D01*
X88829979Y-61797970D01*
X88767711Y-61811206D01*
X88593246Y-61888883D01*
X88438747Y-62001133D01*
X88310958Y-62143057D01*
X88215472Y-62308443D01*
X88156458Y-62490070D01*
X88136496Y-62679999D01*
X77189500Y-62679999D01*
X77189500Y-57669000D01*
X83495844Y-57669000D01*
X83514436Y-57893368D01*
X83514436Y-57893371D01*
X83514437Y-57893372D01*
X83569702Y-58111611D01*
X83569703Y-58111614D01*
X83569704Y-58111616D01*
X83572790Y-58118651D01*
X83660139Y-58317790D01*
X83783278Y-58506268D01*
X83935762Y-58671908D01*
X84113421Y-58810187D01*
X84113424Y-58810189D01*
X84311426Y-58917342D01*
X84524365Y-58990444D01*
X84746431Y-59027500D01*
X84746434Y-59027500D01*
X84971566Y-59027500D01*
X84971569Y-59027500D01*
X85193635Y-58990444D01*
X85406574Y-58917342D01*
X85604576Y-58810189D01*
X85630953Y-58789659D01*
X124840393Y-58789659D01*
X124870668Y-58961355D01*
X124939721Y-59121439D01*
X125043830Y-59261281D01*
X125177385Y-59373349D01*
X125255977Y-59412819D01*
X125333185Y-59451594D01*
X125502829Y-59491800D01*
X125502831Y-59491800D01*
X125629767Y-59491800D01*
X125633436Y-59491800D01*
X125763164Y-59476637D01*
X125926993Y-59417008D01*
X126072654Y-59321205D01*
X126192296Y-59194393D01*
X126279467Y-59043407D01*
X126329469Y-58876388D01*
X126339607Y-58702340D01*
X126309332Y-58530646D01*
X126240279Y-58370562D01*
X126230442Y-58357349D01*
X126136169Y-58230718D01*
X126002614Y-58118650D01*
X125846817Y-58040407D01*
X125846816Y-58040406D01*
X125846815Y-58040406D01*
X125677171Y-58000200D01*
X125546564Y-58000200D01*
X125542936Y-58000623D01*
X125542919Y-58000625D01*
X125416834Y-58015363D01*
X125253006Y-58074991D01*
X125107348Y-58170792D01*
X124987703Y-58297607D01*
X124900533Y-58448593D01*
X124850531Y-58615612D01*
X124840393Y-58789659D01*
X85630953Y-58789659D01*
X85782240Y-58671906D01*
X85934722Y-58506268D01*
X86057860Y-58317791D01*
X86148296Y-58111616D01*
X86203564Y-57893368D01*
X86213484Y-57773659D01*
X129920393Y-57773659D01*
X129950668Y-57945355D01*
X130019721Y-58105439D01*
X130123830Y-58245281D01*
X130257385Y-58357349D01*
X130283691Y-58370560D01*
X130413185Y-58435594D01*
X130582829Y-58475800D01*
X130582831Y-58475800D01*
X130709767Y-58475800D01*
X130713436Y-58475800D01*
X130843164Y-58460637D01*
X131006993Y-58401008D01*
X131133518Y-58317791D01*
X131152651Y-58305207D01*
X131152651Y-58305206D01*
X131152654Y-58305205D01*
X131272296Y-58178393D01*
X131359467Y-58027407D01*
X131409469Y-57860388D01*
X131419607Y-57686340D01*
X131389332Y-57514646D01*
X131320279Y-57354562D01*
X131310442Y-57341349D01*
X131216169Y-57214718D01*
X131082614Y-57102650D01*
X130926817Y-57024407D01*
X130926816Y-57024406D01*
X130926815Y-57024406D01*
X130757171Y-56984200D01*
X130626564Y-56984200D01*
X130622936Y-56984623D01*
X130622919Y-56984625D01*
X130496834Y-56999363D01*
X130333006Y-57058991D01*
X130187348Y-57154792D01*
X130067703Y-57281607D01*
X129980533Y-57432593D01*
X129930531Y-57599612D01*
X129920393Y-57773659D01*
X86213484Y-57773659D01*
X86222156Y-57669000D01*
X86203564Y-57444632D01*
X86148296Y-57226384D01*
X86057860Y-57020209D01*
X85934722Y-56831732D01*
X85782240Y-56666094D01*
X85782239Y-56666093D01*
X85782237Y-56666091D01*
X85604579Y-56527813D01*
X85604577Y-56527812D01*
X85604576Y-56527811D01*
X85571317Y-56509812D01*
X85520929Y-56459801D01*
X85505576Y-56390484D01*
X85530136Y-56323871D01*
X85571316Y-56288187D01*
X85604576Y-56270189D01*
X85782240Y-56131906D01*
X85934722Y-55966268D01*
X86057860Y-55777791D01*
X86148296Y-55571616D01*
X86203564Y-55353368D01*
X86222156Y-55129000D01*
X86203564Y-54904632D01*
X86158328Y-54726000D01*
X119762496Y-54726000D01*
X119782458Y-54915929D01*
X119841472Y-55097556D01*
X119936958Y-55262942D01*
X119936960Y-55262944D01*
X120064747Y-55404866D01*
X120219248Y-55517118D01*
X120393712Y-55594794D01*
X120580513Y-55634500D01*
X120580515Y-55634500D01*
X120771485Y-55634500D01*
X120771487Y-55634500D01*
X120958288Y-55594794D01*
X121132752Y-55517118D01*
X121287253Y-55404866D01*
X121415040Y-55262944D01*
X121509116Y-55100000D01*
X123916496Y-55100000D01*
X123936458Y-55289929D01*
X123995472Y-55471556D01*
X124090958Y-55636942D01*
X124090960Y-55636944D01*
X124218747Y-55778866D01*
X124373248Y-55891118D01*
X124547712Y-55968794D01*
X124734513Y-56008500D01*
X124734515Y-56008500D01*
X124938171Y-56008500D01*
X125006292Y-56028502D01*
X125052785Y-56082158D01*
X125062889Y-56152432D01*
X125033395Y-56217012D01*
X125029820Y-56220967D01*
X124987703Y-56265607D01*
X124900533Y-56416593D01*
X124850531Y-56583612D01*
X124840393Y-56757659D01*
X124870668Y-56929355D01*
X124939721Y-57089439D01*
X125043830Y-57229281D01*
X125177385Y-57341349D01*
X125203691Y-57354560D01*
X125333185Y-57419594D01*
X125502829Y-57459800D01*
X125502831Y-57459800D01*
X125629767Y-57459800D01*
X125633436Y-57459800D01*
X125763164Y-57444637D01*
X125926993Y-57385008D01*
X126072654Y-57289205D01*
X126192296Y-57162393D01*
X126279467Y-57011407D01*
X126329469Y-56844388D01*
X126339607Y-56670340D01*
X126309332Y-56498646D01*
X126240279Y-56338562D01*
X126240007Y-56338197D01*
X126136169Y-56198718D01*
X126002614Y-56086650D01*
X125846817Y-56008407D01*
X125846816Y-56008406D01*
X125846815Y-56008406D01*
X125677171Y-55968200D01*
X125553777Y-55968200D01*
X125485656Y-55948198D01*
X125439163Y-55894542D01*
X125429059Y-55824268D01*
X125458553Y-55759688D01*
X125460141Y-55757890D01*
X125569039Y-55636945D01*
X125653879Y-55489999D01*
X128696496Y-55489999D01*
X128716458Y-55679929D01*
X128775472Y-55861556D01*
X128870958Y-56026942D01*
X128920675Y-56082158D01*
X128998747Y-56168866D01*
X129153248Y-56281118D01*
X129327712Y-56358794D01*
X129514513Y-56398500D01*
X129514515Y-56398500D01*
X129705485Y-56398500D01*
X129705487Y-56398500D01*
X129892288Y-56358794D01*
X130066752Y-56281118D01*
X130221253Y-56168866D01*
X130349040Y-56026944D01*
X130444527Y-55861556D01*
X130503542Y-55679928D01*
X130523504Y-55490000D01*
X130503542Y-55300072D01*
X130444527Y-55118444D01*
X130444527Y-55118443D01*
X130349041Y-54953057D01*
X130221252Y-54811133D01*
X130107439Y-54728443D01*
X130066752Y-54698882D01*
X129892288Y-54621206D01*
X129705487Y-54581500D01*
X129514513Y-54581500D01*
X129389978Y-54607970D01*
X129327711Y-54621206D01*
X129153246Y-54698883D01*
X128998747Y-54811133D01*
X128870958Y-54953057D01*
X128775472Y-55118443D01*
X128716458Y-55300070D01*
X128696496Y-55489999D01*
X125653879Y-55489999D01*
X125664527Y-55471556D01*
X125686196Y-55404866D01*
X125723542Y-55289928D01*
X125743504Y-55100000D01*
X125723542Y-54910072D01*
X125664527Y-54728444D01*
X125664527Y-54728443D01*
X125569041Y-54563057D01*
X125441252Y-54421133D01*
X125286753Y-54308883D01*
X125286752Y-54308882D01*
X125112288Y-54231206D01*
X124925487Y-54191500D01*
X124734513Y-54191500D01*
X124609979Y-54217970D01*
X124547711Y-54231206D01*
X124373246Y-54308883D01*
X124218747Y-54421133D01*
X124090958Y-54563057D01*
X123995472Y-54728443D01*
X123936458Y-54910070D01*
X123916496Y-55100000D01*
X121509116Y-55100000D01*
X121510527Y-55097556D01*
X121569542Y-54915928D01*
X121589504Y-54726000D01*
X121569542Y-54536072D01*
X121510527Y-54354444D01*
X121510527Y-54354443D01*
X121415041Y-54189057D01*
X121287252Y-54047133D01*
X121205602Y-53987811D01*
X121132752Y-53934882D01*
X120958288Y-53857206D01*
X120771487Y-53817500D01*
X120580513Y-53817500D01*
X120455978Y-53843970D01*
X120393711Y-53857206D01*
X120219246Y-53934883D01*
X120064747Y-54047133D01*
X119936958Y-54189057D01*
X119841472Y-54354443D01*
X119782458Y-54536070D01*
X119762496Y-54726000D01*
X86158328Y-54726000D01*
X86148296Y-54686384D01*
X86057860Y-54480209D01*
X85934722Y-54291732D01*
X85782240Y-54126094D01*
X85782239Y-54126093D01*
X85782237Y-54126091D01*
X85604579Y-53987813D01*
X85604577Y-53987812D01*
X85604576Y-53987811D01*
X85571317Y-53969812D01*
X85520929Y-53919801D01*
X85505576Y-53850484D01*
X85530136Y-53783871D01*
X85571316Y-53748187D01*
X85604576Y-53730189D01*
X85782240Y-53591906D01*
X85934722Y-53426268D01*
X86057860Y-53237791D01*
X86148296Y-53031616D01*
X86203564Y-52813368D01*
X86222156Y-52589000D01*
X86203564Y-52364632D01*
X86148296Y-52146384D01*
X86057860Y-51940209D01*
X85934722Y-51751732D01*
X85791157Y-51595780D01*
X85759737Y-51532117D01*
X85767724Y-51461571D01*
X85812583Y-51406542D01*
X85839827Y-51392388D01*
X85954963Y-51349445D01*
X86071904Y-51261904D01*
X86159445Y-51144962D01*
X86210494Y-51008093D01*
X86216640Y-50950936D01*
X86217000Y-50944222D01*
X86217000Y-50485638D01*
X102934500Y-50485638D01*
X102941011Y-50546201D01*
X102957173Y-50589533D01*
X102992111Y-50683205D01*
X103079738Y-50800261D01*
X103196794Y-50887888D01*
X103196795Y-50887888D01*
X103196796Y-50887889D01*
X103333799Y-50938989D01*
X103394362Y-50945500D01*
X103397731Y-50945500D01*
X105188269Y-50945500D01*
X105191638Y-50945500D01*
X105252201Y-50938989D01*
X105389204Y-50887889D01*
X105506261Y-50800261D01*
X105593889Y-50683204D01*
X105637999Y-50564941D01*
X105680545Y-50508107D01*
X105747065Y-50483296D01*
X105816439Y-50498387D01*
X105848753Y-50523635D01*
X105872103Y-50549000D01*
X105909762Y-50589908D01*
X106087421Y-50728187D01*
X106087424Y-50728189D01*
X106285426Y-50835342D01*
X106498365Y-50908444D01*
X106720431Y-50945500D01*
X106720434Y-50945500D01*
X106945566Y-50945500D01*
X106945569Y-50945500D01*
X107167635Y-50908444D01*
X107380574Y-50835342D01*
X107578576Y-50728189D01*
X107756240Y-50589906D01*
X107908722Y-50424268D01*
X107997518Y-50288354D01*
X108051520Y-50242267D01*
X108121868Y-50232692D01*
X108186226Y-50262669D01*
X108208480Y-50288353D01*
X108297278Y-50424268D01*
X108412103Y-50549000D01*
X108449762Y-50589908D01*
X108627421Y-50728187D01*
X108627424Y-50728189D01*
X108825426Y-50835342D01*
X109038365Y-50908444D01*
X109260431Y-50945500D01*
X109260434Y-50945500D01*
X109485566Y-50945500D01*
X109485569Y-50945500D01*
X109707635Y-50908444D01*
X109920574Y-50835342D01*
X110118576Y-50728189D01*
X110296240Y-50589906D01*
X110448722Y-50424268D01*
X110537518Y-50288354D01*
X110591521Y-50242268D01*
X110661869Y-50232693D01*
X110726226Y-50262670D01*
X110748480Y-50288353D01*
X110837278Y-50424268D01*
X110949525Y-50546200D01*
X110989762Y-50589908D01*
X111167421Y-50728187D01*
X111167424Y-50728189D01*
X111365426Y-50835342D01*
X111578365Y-50908444D01*
X111800431Y-50945500D01*
X111800434Y-50945500D01*
X112025566Y-50945500D01*
X112025569Y-50945500D01*
X112247635Y-50908444D01*
X112460574Y-50835342D01*
X112658576Y-50728189D01*
X112836240Y-50589906D01*
X112988722Y-50424268D01*
X113077518Y-50288354D01*
X113131521Y-50242268D01*
X113201869Y-50232693D01*
X113266226Y-50262670D01*
X113288480Y-50288353D01*
X113377278Y-50424268D01*
X113489525Y-50546200D01*
X113529762Y-50589908D01*
X113707421Y-50728187D01*
X113707424Y-50728189D01*
X113905426Y-50835342D01*
X114118365Y-50908444D01*
X114340431Y-50945500D01*
X114340434Y-50945500D01*
X114565566Y-50945500D01*
X114565569Y-50945500D01*
X114787635Y-50908444D01*
X115000574Y-50835342D01*
X115198576Y-50728189D01*
X115376240Y-50589906D01*
X115528722Y-50424268D01*
X115617518Y-50288354D01*
X115671521Y-50242268D01*
X115741869Y-50232693D01*
X115806226Y-50262670D01*
X115828480Y-50288353D01*
X115917278Y-50424268D01*
X116029525Y-50546200D01*
X116069762Y-50589908D01*
X116247421Y-50728187D01*
X116247424Y-50728189D01*
X116445426Y-50835342D01*
X116658365Y-50908444D01*
X116880431Y-50945500D01*
X116880434Y-50945500D01*
X117105566Y-50945500D01*
X117105569Y-50945500D01*
X117327635Y-50908444D01*
X117540574Y-50835342D01*
X117738576Y-50728189D01*
X117916240Y-50589906D01*
X118068722Y-50424268D01*
X118157817Y-50287896D01*
X118211819Y-50241809D01*
X118282167Y-50232234D01*
X118346524Y-50262211D01*
X118368782Y-50287897D01*
X118457678Y-50423962D01*
X118610096Y-50589533D01*
X118787697Y-50727766D01*
X118985631Y-50834883D01*
X119198485Y-50907955D01*
X119278999Y-50921391D01*
X119278999Y-50020674D01*
X119390685Y-50071680D01*
X119497237Y-50087000D01*
X119568763Y-50087000D01*
X119675315Y-50071680D01*
X119787000Y-50020674D01*
X119787000Y-50921391D01*
X119867514Y-50907955D01*
X120080368Y-50834883D01*
X120278302Y-50727766D01*
X120437317Y-50603999D01*
X129327341Y-50603999D01*
X129347937Y-50839409D01*
X129409096Y-51067662D01*
X129508965Y-51281829D01*
X129644507Y-51475404D01*
X129811595Y-51642492D01*
X129811598Y-51642494D01*
X129811599Y-51642495D01*
X130005171Y-51778035D01*
X130217193Y-51876903D01*
X130219337Y-51877903D01*
X130447596Y-51939064D01*
X130621287Y-51954260D01*
X130621294Y-51954260D01*
X130624034Y-51954500D01*
X130626774Y-51954500D01*
X130739226Y-51954500D01*
X130741966Y-51954500D01*
X130744706Y-51954260D01*
X130744712Y-51954260D01*
X130918403Y-51939064D01*
X130918406Y-51939063D01*
X130918408Y-51939063D01*
X131146663Y-51877903D01*
X131360829Y-51778035D01*
X131554401Y-51642495D01*
X131721495Y-51475401D01*
X131857035Y-51281830D01*
X131956903Y-51067663D01*
X132018063Y-50839408D01*
X132038659Y-50604000D01*
X132018063Y-50368592D01*
X131956903Y-50140337D01*
X131857035Y-49926171D01*
X131721495Y-49732599D01*
X131721494Y-49732598D01*
X131721492Y-49732595D01*
X131554404Y-49565507D01*
X131360829Y-49429965D01*
X131146662Y-49330096D01*
X130918403Y-49268935D01*
X130744712Y-49253739D01*
X130744683Y-49253737D01*
X130741966Y-49253500D01*
X130624034Y-49253500D01*
X130621317Y-49253737D01*
X130621287Y-49253739D01*
X130447596Y-49268935D01*
X130219337Y-49330096D01*
X130005170Y-49429965D01*
X129811595Y-49565507D01*
X129644507Y-49732595D01*
X129508965Y-49926169D01*
X129409096Y-50140336D01*
X129347937Y-50368590D01*
X129327341Y-50603999D01*
X120437317Y-50603999D01*
X120455903Y-50589533D01*
X120608321Y-50423962D01*
X120731419Y-50235548D01*
X120821822Y-50029451D01*
X120869544Y-49841000D01*
X119964116Y-49841000D01*
X119992493Y-49796844D01*
X120033000Y-49658889D01*
X120033000Y-49515111D01*
X119992493Y-49377156D01*
X119964116Y-49333000D01*
X120869544Y-49333000D01*
X120869544Y-49332999D01*
X120821822Y-49144548D01*
X120731419Y-48938451D01*
X120608321Y-48750037D01*
X120455903Y-48584466D01*
X120278302Y-48446233D01*
X120080368Y-48339116D01*
X119867510Y-48266042D01*
X119787000Y-48252606D01*
X119787000Y-49153325D01*
X119675315Y-49102320D01*
X119568763Y-49087000D01*
X119497237Y-49087000D01*
X119390685Y-49102320D01*
X119278999Y-49153325D01*
X119278999Y-48252607D01*
X119278998Y-48252606D01*
X119198489Y-48266042D01*
X118985631Y-48339116D01*
X118787697Y-48446233D01*
X118610096Y-48584466D01*
X118457678Y-48750037D01*
X118368782Y-48886102D01*
X118314778Y-48932190D01*
X118244430Y-48941765D01*
X118180073Y-48911787D01*
X118157816Y-48886101D01*
X118068722Y-48749732D01*
X117916240Y-48584094D01*
X117916239Y-48584093D01*
X117916237Y-48584091D01*
X117738578Y-48445812D01*
X117540573Y-48338657D01*
X117387510Y-48286111D01*
X117327635Y-48265556D01*
X117105569Y-48228500D01*
X116880431Y-48228500D01*
X116658365Y-48265556D01*
X116658362Y-48265556D01*
X116658362Y-48265557D01*
X116445426Y-48338657D01*
X116247421Y-48445812D01*
X116069762Y-48584091D01*
X115917278Y-48749731D01*
X115828483Y-48885643D01*
X115774479Y-48931731D01*
X115704131Y-48941306D01*
X115639774Y-48911328D01*
X115617517Y-48885643D01*
X115528721Y-48749731D01*
X115376240Y-48584094D01*
X115376239Y-48584093D01*
X115376237Y-48584091D01*
X115198578Y-48445812D01*
X115000573Y-48338657D01*
X114847510Y-48286111D01*
X114787635Y-48265556D01*
X114565569Y-48228500D01*
X114340431Y-48228500D01*
X114118365Y-48265556D01*
X114118362Y-48265556D01*
X114118362Y-48265557D01*
X113905426Y-48338657D01*
X113707421Y-48445812D01*
X113529762Y-48584091D01*
X113377278Y-48749731D01*
X113288483Y-48885643D01*
X113234479Y-48931731D01*
X113164131Y-48941306D01*
X113099774Y-48911328D01*
X113077517Y-48885643D01*
X112988721Y-48749731D01*
X112836240Y-48584094D01*
X112836239Y-48584093D01*
X112836237Y-48584091D01*
X112658578Y-48445812D01*
X112460573Y-48338657D01*
X112307510Y-48286111D01*
X112247635Y-48265556D01*
X112025569Y-48228500D01*
X111800431Y-48228500D01*
X111578365Y-48265556D01*
X111578362Y-48265556D01*
X111578362Y-48265557D01*
X111365426Y-48338657D01*
X111167421Y-48445812D01*
X110989762Y-48584091D01*
X110837278Y-48749731D01*
X110748483Y-48885643D01*
X110694479Y-48931731D01*
X110624131Y-48941306D01*
X110559774Y-48911328D01*
X110537517Y-48885643D01*
X110448721Y-48749731D01*
X110296240Y-48584094D01*
X110296239Y-48584093D01*
X110296237Y-48584091D01*
X110118578Y-48445812D01*
X109920573Y-48338657D01*
X109767510Y-48286111D01*
X109707635Y-48265556D01*
X109485569Y-48228500D01*
X109260431Y-48228500D01*
X109038365Y-48265556D01*
X109038362Y-48265556D01*
X109038362Y-48265557D01*
X108825426Y-48338657D01*
X108627421Y-48445812D01*
X108449762Y-48584091D01*
X108297278Y-48749731D01*
X108265934Y-48797708D01*
X108208481Y-48885645D01*
X108154479Y-48931732D01*
X108084131Y-48941307D01*
X108019774Y-48911330D01*
X107997519Y-48885646D01*
X107908722Y-48749732D01*
X107756240Y-48584094D01*
X107756239Y-48584093D01*
X107756237Y-48584091D01*
X107578578Y-48445812D01*
X107380573Y-48338657D01*
X107227510Y-48286111D01*
X107167635Y-48265556D01*
X106945569Y-48228500D01*
X106720431Y-48228500D01*
X106498365Y-48265556D01*
X106498362Y-48265556D01*
X106498362Y-48265557D01*
X106285426Y-48338657D01*
X106087421Y-48445812D01*
X105909758Y-48584094D01*
X105848754Y-48650362D01*
X105787901Y-48686933D01*
X105716937Y-48684798D01*
X105658392Y-48644636D01*
X105637998Y-48609056D01*
X105628688Y-48584094D01*
X105593889Y-48490796D01*
X105593888Y-48490794D01*
X105506261Y-48373738D01*
X105389205Y-48286111D01*
X105299377Y-48252607D01*
X105252201Y-48235011D01*
X105191638Y-48228500D01*
X103394362Y-48228500D01*
X103391013Y-48228859D01*
X103391013Y-48228860D01*
X103333799Y-48235011D01*
X103196794Y-48286111D01*
X103079738Y-48373738D01*
X102992111Y-48490794D01*
X102955270Y-48589569D01*
X102941011Y-48627799D01*
X102934500Y-48688362D01*
X102934500Y-50485638D01*
X86217000Y-50485638D01*
X86217000Y-50303000D01*
X85290116Y-50303000D01*
X85318493Y-50258844D01*
X85359000Y-50120889D01*
X85359000Y-49977111D01*
X85318493Y-49839156D01*
X85290116Y-49795000D01*
X86217000Y-49795000D01*
X86217000Y-49153777D01*
X86216640Y-49147063D01*
X86210494Y-49089906D01*
X86159445Y-48953037D01*
X86071904Y-48836095D01*
X85954962Y-48748554D01*
X85818093Y-48697505D01*
X85760936Y-48691359D01*
X85754223Y-48691000D01*
X85113000Y-48691000D01*
X85113000Y-49615325D01*
X85001315Y-49564320D01*
X84894763Y-49549000D01*
X84823237Y-49549000D01*
X84716685Y-49564320D01*
X84605000Y-49615325D01*
X84605000Y-48691000D01*
X83963777Y-48691000D01*
X83957063Y-48691359D01*
X83899906Y-48697505D01*
X83763037Y-48748554D01*
X83646095Y-48836095D01*
X83558554Y-48953037D01*
X83507505Y-49089906D01*
X83501359Y-49147063D01*
X83501000Y-49153777D01*
X83501000Y-49795000D01*
X84427884Y-49795000D01*
X84399507Y-49839156D01*
X84359000Y-49977111D01*
X84359000Y-50120889D01*
X84399507Y-50258844D01*
X84427884Y-50303000D01*
X83501000Y-50303000D01*
X83501000Y-50944222D01*
X83501359Y-50950936D01*
X83507505Y-51008093D01*
X83558554Y-51144962D01*
X83646095Y-51261904D01*
X83763037Y-51349445D01*
X83878172Y-51392388D01*
X83935008Y-51434935D01*
X83959819Y-51501455D01*
X83944728Y-51570829D01*
X83926841Y-51595782D01*
X83783278Y-51751731D01*
X83660139Y-51940209D01*
X83569702Y-52146388D01*
X83514437Y-52364627D01*
X83514436Y-52364632D01*
X83495844Y-52589000D01*
X83514436Y-52813368D01*
X83514436Y-52813371D01*
X83514437Y-52813372D01*
X83569702Y-53031611D01*
X83660139Y-53237790D01*
X83783278Y-53426268D01*
X83935762Y-53591908D01*
X84113418Y-53730185D01*
X84113420Y-53730186D01*
X84113424Y-53730189D01*
X84146682Y-53748187D01*
X84197071Y-53798200D01*
X84212423Y-53867517D01*
X84187862Y-53934130D01*
X84146683Y-53969812D01*
X84121794Y-53983281D01*
X84113418Y-53987814D01*
X83935762Y-54126091D01*
X83783278Y-54291731D01*
X83660139Y-54480209D01*
X83569702Y-54686388D01*
X83514437Y-54904627D01*
X83514436Y-54904632D01*
X83495844Y-55129000D01*
X83514436Y-55353368D01*
X83514436Y-55353371D01*
X83514437Y-55353372D01*
X83569702Y-55571611D01*
X83660139Y-55777790D01*
X83660140Y-55777791D01*
X83783278Y-55966268D01*
X83894099Y-56086651D01*
X83935762Y-56131908D01*
X84021598Y-56198717D01*
X84113424Y-56270189D01*
X84146682Y-56288187D01*
X84197070Y-56338197D01*
X84212423Y-56407513D01*
X84187863Y-56474127D01*
X84146683Y-56509811D01*
X84113423Y-56527810D01*
X83935762Y-56666091D01*
X83783278Y-56831731D01*
X83660139Y-57020209D01*
X83569702Y-57226388D01*
X83514437Y-57444627D01*
X83514436Y-57444632D01*
X83495844Y-57669000D01*
X77189500Y-57669000D01*
X77189500Y-50603000D01*
X78631341Y-50603000D01*
X78638358Y-50683204D01*
X78651937Y-50838409D01*
X78713096Y-51066662D01*
X78812965Y-51280829D01*
X78948507Y-51474404D01*
X79115595Y-51641492D01*
X79115598Y-51641494D01*
X79115599Y-51641495D01*
X79309171Y-51777035D01*
X79523337Y-51876903D01*
X79751596Y-51938064D01*
X79925287Y-51953260D01*
X79925294Y-51953260D01*
X79928034Y-51953500D01*
X79930774Y-51953500D01*
X80043226Y-51953500D01*
X80045966Y-51953500D01*
X80048706Y-51953260D01*
X80048712Y-51953260D01*
X80222403Y-51938064D01*
X80222406Y-51938063D01*
X80222408Y-51938063D01*
X80450663Y-51876903D01*
X80664829Y-51777035D01*
X80858401Y-51641495D01*
X81025495Y-51474401D01*
X81161035Y-51280830D01*
X81260903Y-51066663D01*
X81322063Y-50838408D01*
X81342659Y-50603000D01*
X81322063Y-50367592D01*
X81260903Y-50139337D01*
X81161035Y-49925171D01*
X81025495Y-49731599D01*
X81025494Y-49731598D01*
X81025492Y-49731595D01*
X80858404Y-49564507D01*
X80664829Y-49428965D01*
X80450662Y-49329096D01*
X80222403Y-49267935D01*
X80048712Y-49252739D01*
X80048683Y-49252737D01*
X80045966Y-49252500D01*
X79928034Y-49252500D01*
X79925317Y-49252737D01*
X79925287Y-49252739D01*
X79751596Y-49267935D01*
X79523337Y-49329096D01*
X79309170Y-49428965D01*
X79115595Y-49564507D01*
X78948507Y-49731595D01*
X78812965Y-49925169D01*
X78713096Y-50139336D01*
X78651937Y-50367590D01*
X78637406Y-50533680D01*
X78631341Y-50603000D01*
X77189500Y-50603000D01*
X77189500Y-50065538D01*
X77189698Y-50058473D01*
X77191328Y-50029451D01*
X77195991Y-49946408D01*
X77206193Y-49777756D01*
X77207736Y-49764315D01*
X77230281Y-49631623D01*
X77256995Y-49485853D01*
X77259838Y-49473764D01*
X77298004Y-49341287D01*
X77298763Y-49338752D01*
X77341404Y-49201912D01*
X77345269Y-49191239D01*
X77398684Y-49062284D01*
X77400135Y-49058925D01*
X77458266Y-48929763D01*
X77462869Y-48920564D01*
X77530827Y-48797603D01*
X77533167Y-48793557D01*
X77606020Y-48673043D01*
X77611041Y-48665385D01*
X77692593Y-48550449D01*
X77696098Y-48545751D01*
X77782655Y-48435268D01*
X77787844Y-48429069D01*
X77881850Y-48323876D01*
X77886638Y-48318812D01*
X77985812Y-48219638D01*
X77990876Y-48214850D01*
X78096069Y-48120844D01*
X78102268Y-48115655D01*
X78212751Y-48029098D01*
X78217449Y-48025593D01*
X78332385Y-47944041D01*
X78340043Y-47939020D01*
X78460557Y-47866167D01*
X78464603Y-47863827D01*
X78587564Y-47795869D01*
X78596763Y-47791266D01*
X78725925Y-47733135D01*
X78729284Y-47731684D01*
X78858239Y-47678269D01*
X78868912Y-47674404D01*
X79005753Y-47631763D01*
X79008227Y-47631021D01*
X79140758Y-47592840D01*
X79152886Y-47589989D01*
X79298598Y-47563286D01*
X79431306Y-47540737D01*
X79444762Y-47539192D01*
X79613382Y-47528993D01*
X79721840Y-47522902D01*
X79725475Y-47522698D01*
X79732537Y-47522500D01*
X131188462Y-47522500D01*
X131195525Y-47522697D01*
G37*
%TD.AperFunction*%
%TD*%
M02*
