%TF.GenerationSoftware,KiCad,Pcbnew,7.0.7*%
%TF.CreationDate,2023-09-19T19:08:14-04:00*%
%TF.ProjectId,bitaxeUltra,62697461-7865-4556-9c74-72612e6b6963,rev?*%
%TF.SameCoordinates,Original*%
%TF.FileFunction,Soldermask,Bot*%
%TF.FilePolarity,Negative*%
%FSLAX46Y46*%
G04 Gerber Fmt 4.6, Leading zero omitted, Abs format (unit mm)*
G04 Created by KiCad (PCBNEW 7.0.7) date 2023-09-19 19:08:14*
%MOMM*%
%LPD*%
G01*
G04 APERTURE LIST*
G04 Aperture macros list*
%AMRoundRect*
0 Rectangle with rounded corners*
0 $1 Rounding radius*
0 $2 $3 $4 $5 $6 $7 $8 $9 X,Y pos of 4 corners*
0 Add a 4 corners polygon primitive as box body*
4,1,4,$2,$3,$4,$5,$6,$7,$8,$9,$2,$3,0*
0 Add four circle primitives for the rounded corners*
1,1,$1+$1,$2,$3*
1,1,$1+$1,$4,$5*
1,1,$1+$1,$6,$7*
1,1,$1+$1,$8,$9*
0 Add four rect primitives between the rounded corners*
20,1,$1+$1,$2,$3,$4,$5,0*
20,1,$1+$1,$4,$5,$6,$7,0*
20,1,$1+$1,$6,$7,$8,$9,0*
20,1,$1+$1,$8,$9,$2,$3,0*%
G04 Aperture macros list end*
%ADD10C,0.120000*%
%ADD11C,3.000000*%
%ADD12C,0.800000*%
%ADD13C,6.000000*%
%ADD14C,0.400000*%
%ADD15C,1.295400*%
%ADD16C,1.574800*%
%ADD17R,1.700000X1.700000*%
%ADD18O,1.700000X1.700000*%
%ADD19C,2.000000*%
%ADD20C,0.650000*%
%ADD21R,1.150000X0.600000*%
%ADD22R,1.150000X0.300000*%
%ADD23O,1.800000X1.000000*%
%ADD24O,2.100000X1.000000*%
%ADD25R,3.500000X4.000000*%
%ADD26RoundRect,0.750000X-0.750000X-1.000000X0.750000X-1.000000X0.750000X1.000000X-0.750000X1.000000X0*%
%ADD27RoundRect,0.875000X-0.875000X-0.875000X0.875000X-0.875000X0.875000X0.875000X-0.875000X0.875000X0*%
%ADD28R,0.900000X1.500000*%
%ADD29R,1.500000X0.900000*%
%ADD30R,0.900000X0.900000*%
%ADD31C,0.990600*%
%ADD32C,0.787400*%
%ADD33R,0.792000X0.221000*%
%ADD34R,4.277000X1.810000*%
%ADD35R,4.277000X4.530000*%
%ADD36RoundRect,0.250000X-0.550000X1.500000X-0.550000X-1.500000X0.550000X-1.500000X0.550000X1.500000X0*%
%ADD37R,0.508000X1.524000*%
G04 APERTURE END LIST*
D10*
%TO.C,U12*%
X139360000Y-81960000D02*
X139360000Y-63960000D01*
%TD*%
D11*
%TO.C,H6*%
X84764000Y-94984000D03*
%TD*%
%TO.C,H5*%
X126130000Y-136350000D03*
%TD*%
D12*
%TO.C,H7*%
X127985010Y-51120990D03*
X128644020Y-49530000D03*
X128644020Y-52711980D03*
X130235010Y-48870990D03*
D13*
X130235010Y-51120990D03*
D12*
X130235010Y-53370990D03*
X131826000Y-49530000D03*
X131826000Y-52711980D03*
X132485010Y-51120990D03*
%TD*%
%TO.C,H9*%
X128052000Y-143728000D03*
X128711010Y-142137010D03*
X128711010Y-145318990D03*
X130302000Y-141478000D03*
D13*
X130302000Y-143728000D03*
D12*
X130302000Y-145978000D03*
X131892990Y-142137010D03*
X131892990Y-145318990D03*
X132552000Y-143728000D03*
%TD*%
%TO.C,H10*%
X78455010Y-143830990D03*
X79114020Y-142240000D03*
X79114020Y-145421980D03*
X80705010Y-141580990D03*
D13*
X80705010Y-143830990D03*
D12*
X80705010Y-146080990D03*
X82296000Y-142240000D03*
X82296000Y-145421980D03*
X82955010Y-143830990D03*
%TD*%
D14*
%TO.C,U9*%
X98201691Y-68847200D03*
X99151691Y-69422200D03*
X97251691Y-69422200D03*
X98201691Y-69997200D03*
%TD*%
D12*
%TO.C,H8*%
X78558000Y-51054000D03*
X79217010Y-49463010D03*
X79217010Y-52644990D03*
X80808000Y-48804000D03*
D13*
X80808000Y-51054000D03*
D12*
X80808000Y-53304000D03*
X82398990Y-49463010D03*
X82398990Y-52644990D03*
X83058000Y-51054000D03*
%TD*%
D15*
%TO.C,J4*%
X94701000Y-145782001D03*
D16*
X89621000Y-143622000D03*
X92161000Y-143622000D03*
X94701000Y-143622000D03*
X97241000Y-143622000D03*
%TD*%
D17*
%TO.C,J9*%
X86106000Y-50038000D03*
D18*
X86106000Y-52578000D03*
X86106000Y-55118000D03*
X86106000Y-57658000D03*
%TD*%
D19*
%TO.C,FID7*%
X132260000Y-139060000D03*
%TD*%
D17*
%TO.C,J7*%
X83000000Y-76540000D03*
D18*
X85540000Y-76540000D03*
%TD*%
D17*
%TO.C,J3*%
X109350000Y-143580000D03*
D18*
X111890000Y-143580000D03*
X114430000Y-143580000D03*
X116970000Y-143580000D03*
X119510000Y-143580000D03*
%TD*%
D20*
%TO.C,J8*%
X127443000Y-89566000D03*
X127443000Y-95346000D03*
D21*
X126368000Y-89256000D03*
X126368000Y-90056000D03*
D22*
X126368000Y-91206000D03*
X126368000Y-92206000D03*
X126368000Y-92706000D03*
X126368000Y-93706000D03*
D21*
X126368000Y-94856000D03*
X126368000Y-95656000D03*
X126368000Y-95656000D03*
X126368000Y-94856000D03*
D22*
X126368000Y-94206000D03*
X126368000Y-93206000D03*
X126368000Y-91706000D03*
X126368000Y-90706000D03*
D21*
X126368000Y-90056000D03*
X126368000Y-89256000D03*
D23*
X131123000Y-88136000D03*
D24*
X126943000Y-88136000D03*
D23*
X131123000Y-96776000D03*
D24*
X126943000Y-96776000D03*
%TD*%
D25*
%TO.C,J10*%
X88423000Y-69584000D03*
D26*
X82423000Y-69584000D03*
D27*
X85423000Y-64884000D03*
%TD*%
D28*
%TO.C,U12*%
X131870000Y-81710000D03*
X130600000Y-81710000D03*
X129330000Y-81710000D03*
X128060000Y-81710000D03*
X126790000Y-81710000D03*
X125520000Y-81710000D03*
X124250000Y-81710000D03*
X122980000Y-81710000D03*
X121710000Y-81710000D03*
X120440000Y-81710000D03*
X119170000Y-81710000D03*
X117900000Y-81710000D03*
X116630000Y-81710000D03*
X115360000Y-81710000D03*
D29*
X114110000Y-79945000D03*
X114110000Y-78675000D03*
X114110000Y-77405000D03*
X114110000Y-76135000D03*
X114110000Y-74865000D03*
X114110000Y-73595000D03*
X114110000Y-72325000D03*
X114110000Y-71055000D03*
X114110000Y-69785000D03*
X114110000Y-68515000D03*
X114110000Y-67245000D03*
X114110000Y-65975000D03*
D28*
X115360000Y-64210000D03*
X116630000Y-64210000D03*
X117900000Y-64210000D03*
X119170000Y-64210000D03*
X120440000Y-64210000D03*
X121710000Y-64210000D03*
X122980000Y-64210000D03*
X124250000Y-64210000D03*
X125520000Y-64210000D03*
X126790000Y-64210000D03*
X128060000Y-64210000D03*
X129330000Y-64210000D03*
X130600000Y-64210000D03*
X131870000Y-64210000D03*
D30*
X122750000Y-75860000D03*
X124150000Y-75860000D03*
X125550000Y-75860000D03*
X122750000Y-74460000D03*
X124150000Y-74460000D03*
X125550000Y-74460000D03*
X122750000Y-73060000D03*
X124150000Y-73060000D03*
X125550000Y-73060000D03*
%TD*%
D31*
%TO.C,J5*%
X130670000Y-57730000D03*
X125590000Y-58746000D03*
X125590000Y-56714000D03*
D32*
X129400000Y-58365000D03*
X129400000Y-57095000D03*
X128130000Y-58365000D03*
X128130000Y-57095000D03*
X126860000Y-58365000D03*
X126860000Y-57095000D03*
%TD*%
D19*
%TO.C,FID8*%
X78850000Y-139070000D03*
%TD*%
D33*
%TO.C,U14*%
X108528000Y-112805000D03*
X108528000Y-113307000D03*
X108528000Y-113809000D03*
X108528000Y-114311000D03*
X108528000Y-114813000D03*
X108528000Y-115315000D03*
X108528000Y-115817000D03*
X108528000Y-116319000D03*
X108528000Y-116821000D03*
X108528000Y-117323000D03*
X108528000Y-117825000D03*
X108528000Y-118327000D03*
X108528000Y-118829000D03*
X108528000Y-119331000D03*
X102696000Y-119318000D03*
X102696000Y-118818000D03*
X102696000Y-118318000D03*
X102696000Y-117818000D03*
X102696000Y-117318000D03*
X102696000Y-116821000D03*
X102696000Y-116318000D03*
X102696000Y-115817000D03*
X102696000Y-115315000D03*
X102696000Y-114813000D03*
X102696000Y-114311000D03*
X102696000Y-113818000D03*
X102696000Y-113307000D03*
X102696000Y-112818000D03*
D34*
X105612000Y-113600000D03*
D35*
X105612000Y-117176000D03*
%TD*%
D36*
%TO.C,C28*%
X103490000Y-138720000D03*
X103490000Y-144120000D03*
%TD*%
D37*
%TO.C,SW1*%
X132345000Y-104448000D03*
X128027000Y-104448000D03*
%TD*%
D19*
%TO.C,FID5*%
X125270000Y-50310000D03*
%TD*%
D37*
%TO.C,SW2*%
X132241000Y-113155000D03*
X127923000Y-113155000D03*
%TD*%
D19*
%TO.C,FID6*%
X78750000Y-55900000D03*
%TD*%
M02*
