%TF.GenerationSoftware,KiCad,Pcbnew,7.0.2*%
%TF.CreationDate,2024-01-11T01:28:16+01:00*%
%TF.ProjectId,bitaxe_RGZ_204_MOD_C,62697461-7865-45f5-9247-5a5f3230345f,rev?*%
%TF.SameCoordinates,Original*%
%TF.FileFunction,Soldermask,Bot*%
%TF.FilePolarity,Negative*%
%FSLAX46Y46*%
G04 Gerber Fmt 4.6, Leading zero omitted, Abs format (unit mm)*
G04 Created by KiCad (PCBNEW 7.0.2) date 2024-01-11 01:28:16*
%MOMM*%
%LPD*%
G01*
G04 APERTURE LIST*
G04 Aperture macros list*
%AMRoundRect*
0 Rectangle with rounded corners*
0 $1 Rounding radius*
0 $2 $3 $4 $5 $6 $7 $8 $9 X,Y pos of 4 corners*
0 Add a 4 corners polygon primitive as box body*
4,1,4,$2,$3,$4,$5,$6,$7,$8,$9,$2,$3,0*
0 Add four circle primitives for the rounded corners*
1,1,$1+$1,$2,$3*
1,1,$1+$1,$4,$5*
1,1,$1+$1,$6,$7*
1,1,$1+$1,$8,$9*
0 Add four rect primitives between the rounded corners*
20,1,$1+$1,$2,$3,$4,$5,0*
20,1,$1+$1,$4,$5,$6,$7,0*
20,1,$1+$1,$6,$7,$8,$9,0*
20,1,$1+$1,$8,$9,$2,$3,0*%
G04 Aperture macros list end*
%ADD10C,0.120000*%
%ADD11O,1.700000X1.700000*%
%ADD12R,1.700000X1.700000*%
%ADD13C,3.000000*%
%ADD14C,0.800000*%
%ADD15C,6.000000*%
%ADD16C,0.400000*%
%ADD17C,1.295400*%
%ADD18C,1.574800*%
%ADD19R,3.000000X0.350000*%
%ADD20C,2.000000*%
%ADD21C,0.650000*%
%ADD22R,1.150000X0.600000*%
%ADD23R,1.150000X0.300000*%
%ADD24O,1.800000X1.000000*%
%ADD25O,2.100000X1.000000*%
%ADD26R,0.900000X1.500000*%
%ADD27R,1.500000X0.900000*%
%ADD28R,0.900000X0.900000*%
%ADD29C,0.990600*%
%ADD30C,0.787400*%
%ADD31R,0.792000X0.221000*%
%ADD32R,4.277000X1.810000*%
%ADD33R,4.277000X4.530000*%
%ADD34RoundRect,0.250000X-0.550000X1.500000X-0.550000X-1.500000X0.550000X-1.500000X0.550000X1.500000X0*%
%ADD35C,1.600000*%
%ADD36C,1.800000*%
%ADD37RoundRect,0.250000X0.750000X-0.750000X0.750000X0.750000X-0.750000X0.750000X-0.750000X-0.750000X0*%
%ADD38R,0.508000X1.524000*%
%ADD39RoundRect,0.250000X-0.750000X0.600000X-0.750000X-0.600000X0.750000X-0.600000X0.750000X0.600000X0*%
%ADD40O,2.000000X1.700000*%
G04 APERTURE END LIST*
D10*
%TO.C,U12*%
X133093000Y-85594000D02*
X133093000Y-67594000D01*
%TD*%
D11*
%TO.C,J9*%
X86766400Y-57175400D03*
X86766400Y-54635400D03*
X86766400Y-52095400D03*
D12*
X86766400Y-49555400D03*
%TD*%
D13*
%TO.C,H6*%
X84764000Y-94984000D03*
%TD*%
%TO.C,H5*%
X126130000Y-136350000D03*
%TD*%
D14*
%TO.C,H7*%
X127985010Y-51120990D03*
X128644020Y-49530000D03*
X128644020Y-52711980D03*
X130235010Y-48870990D03*
X130235010Y-53370990D03*
D15*
X130302000Y-51054000D03*
D14*
X131826000Y-49530000D03*
X131826000Y-52711980D03*
X132485010Y-51120990D03*
%TD*%
%TO.C,H9*%
X128052000Y-143728000D03*
X128711010Y-142137010D03*
X128711010Y-145318990D03*
X130302000Y-141478000D03*
D15*
X130302000Y-143831000D03*
D14*
X130302000Y-145978000D03*
X131892990Y-142137010D03*
X131892990Y-145318990D03*
X132552000Y-143728000D03*
%TD*%
%TO.C,H10*%
X78558000Y-143830990D03*
X79217010Y-142240000D03*
X79217010Y-145421980D03*
X80808000Y-141580990D03*
D15*
X80808000Y-143830990D03*
D14*
X80808000Y-146080990D03*
X82398990Y-142240000D03*
X82398990Y-145421980D03*
X83058000Y-143830990D03*
%TD*%
D16*
%TO.C,U9*%
X98201691Y-68847200D03*
X99151691Y-69422200D03*
X97251691Y-69422200D03*
X98201691Y-69997200D03*
%TD*%
D14*
%TO.C,H8*%
X78558000Y-51054000D03*
X79217010Y-49463010D03*
X79217010Y-52644990D03*
X80808000Y-48804000D03*
D15*
X80808000Y-51054000D03*
D14*
X80808000Y-53304000D03*
X82398990Y-49463010D03*
X82398990Y-52644990D03*
X83058000Y-51054000D03*
%TD*%
D17*
%TO.C,J4*%
X94701000Y-145782001D03*
D18*
X89621000Y-143622000D03*
X92161000Y-143622000D03*
X94701000Y-143622000D03*
X97241000Y-143622000D03*
%TD*%
D19*
%TO.C,U4*%
X114751248Y-61040627D03*
X114751248Y-60340627D03*
X114751248Y-59640627D03*
X114751248Y-58940627D03*
X114751248Y-58240627D03*
X114751248Y-57540627D03*
X114751248Y-56840627D03*
X114751248Y-56140627D03*
X114751248Y-55440627D03*
X114751248Y-54740627D03*
X114751248Y-54040627D03*
X114751248Y-53340627D03*
%TD*%
D20*
%TO.C,FID7*%
X130302000Y-139065000D03*
%TD*%
D12*
%TO.C,J7*%
X82708000Y-81632000D03*
D11*
X85248000Y-81632000D03*
%TD*%
D12*
%TO.C,J3*%
X109350000Y-143580000D03*
D11*
X111890000Y-143580000D03*
X114430000Y-143580000D03*
X116970000Y-143580000D03*
X119510000Y-143580000D03*
%TD*%
D21*
%TO.C,J8*%
X127443000Y-97960000D03*
X127443000Y-103740000D03*
D22*
X126368000Y-97650000D03*
X126368000Y-98450000D03*
D23*
X126368000Y-99600000D03*
X126368000Y-100600000D03*
X126368000Y-101100000D03*
X126368000Y-102100000D03*
D22*
X126368000Y-103250000D03*
X126368000Y-104050000D03*
X126368000Y-104050000D03*
X126368000Y-103250000D03*
D23*
X126368000Y-102600000D03*
X126368000Y-101600000D03*
X126368000Y-100100000D03*
X126368000Y-99100000D03*
D22*
X126368000Y-98450000D03*
X126368000Y-97650000D03*
D24*
X131123000Y-96530000D03*
D25*
X126943000Y-96530000D03*
D24*
X131123000Y-105170000D03*
D25*
X126943000Y-105170000D03*
%TD*%
D26*
%TO.C,U12*%
X125603000Y-85344000D03*
X124333000Y-85344000D03*
X123063000Y-85344000D03*
X121793000Y-85344000D03*
X120523000Y-85344000D03*
X119253000Y-85344000D03*
X117983000Y-85344000D03*
X116713000Y-85344000D03*
X115443000Y-85344000D03*
X114173000Y-85344000D03*
X112903000Y-85344000D03*
X111633000Y-85344000D03*
X110363000Y-85344000D03*
X109093000Y-85344000D03*
D27*
X107843000Y-83579000D03*
X107843000Y-82309000D03*
X107843000Y-81039000D03*
X107843000Y-79769000D03*
X107843000Y-78499000D03*
X107843000Y-77229000D03*
X107843000Y-75959000D03*
X107843000Y-74689000D03*
X107843000Y-73419000D03*
X107843000Y-72149000D03*
X107843000Y-70879000D03*
X107843000Y-69609000D03*
D26*
X109093000Y-67844000D03*
X110363000Y-67844000D03*
X111633000Y-67844000D03*
X112903000Y-67844000D03*
X114173000Y-67844000D03*
X115443000Y-67844000D03*
X116713000Y-67844000D03*
X117983000Y-67844000D03*
X119253000Y-67844000D03*
X120523000Y-67844000D03*
X121793000Y-67844000D03*
X123063000Y-67844000D03*
X124333000Y-67844000D03*
X125603000Y-67844000D03*
D28*
X116483000Y-79494000D03*
X117883000Y-79494000D03*
X119283000Y-79494000D03*
X116483000Y-78094000D03*
X117883000Y-78094000D03*
X119283000Y-78094000D03*
X116483000Y-76694000D03*
X117883000Y-76694000D03*
X119283000Y-76694000D03*
%TD*%
D29*
%TO.C,J5*%
X131979500Y-61304000D03*
X126899500Y-62320000D03*
X126899500Y-60288000D03*
D30*
X130709500Y-61939000D03*
X130709500Y-60669000D03*
X129439500Y-61939000D03*
X129439500Y-60669000D03*
X128169500Y-61939000D03*
X128169500Y-60669000D03*
%TD*%
D20*
%TO.C,FID8*%
X80808000Y-139065000D03*
%TD*%
D31*
%TO.C,U14*%
X108528000Y-112805000D03*
X108528000Y-113307000D03*
X108528000Y-113809000D03*
X108528000Y-114311000D03*
X108528000Y-114813000D03*
X108528000Y-115315000D03*
X108528000Y-115817000D03*
X108528000Y-116319000D03*
X108528000Y-116821000D03*
X108528000Y-117323000D03*
X108528000Y-117825000D03*
X108528000Y-118327000D03*
X108528000Y-118829000D03*
X108528000Y-119331000D03*
X102696000Y-119318000D03*
X102696000Y-118818000D03*
X102696000Y-118318000D03*
X102696000Y-117818000D03*
X102696000Y-117318000D03*
X102696000Y-116821000D03*
X102696000Y-116318000D03*
X102696000Y-115817000D03*
X102696000Y-115315000D03*
X102696000Y-114813000D03*
X102696000Y-114311000D03*
X102696000Y-113818000D03*
X102696000Y-113307000D03*
X102696000Y-112818000D03*
D32*
X105612000Y-113600000D03*
D33*
X105612000Y-117176000D03*
%TD*%
D34*
%TO.C,C28*%
X103490000Y-138720000D03*
X103490000Y-144120000D03*
%TD*%
D35*
%TO.C,J1*%
X82458000Y-72442000D03*
D36*
X86958000Y-72442000D03*
D37*
X82458000Y-77942000D03*
X88608000Y-77942000D03*
X82458000Y-66942000D03*
X88608000Y-66942000D03*
%TD*%
D38*
%TO.C,SW1*%
X132345000Y-112842000D03*
X128027000Y-112842000D03*
%TD*%
D20*
%TO.C,FID5*%
X130275000Y-55679000D03*
%TD*%
D39*
%TO.C,J2*%
X80470000Y-130360000D03*
D40*
X80470000Y-132860000D03*
%TD*%
D38*
%TO.C,SW2*%
X132241000Y-121549000D03*
X127923000Y-121549000D03*
%TD*%
D20*
%TO.C,FID6*%
X80808000Y-56769000D03*
%TD*%
M02*
