%TF.GenerationSoftware,KiCad,Pcbnew,8.0.7*%
%TF.CreationDate,2025-01-03T15:46:07-08:00*%
%TF.ProjectId,bitaxeSupra,62697461-7865-4537-9570-72612e6b6963,rev?*%
%TF.SameCoordinates,Original*%
%TF.FileFunction,Paste,Top*%
%TF.FilePolarity,Positive*%
%FSLAX46Y46*%
G04 Gerber Fmt 4.6, Leading zero omitted, Abs format (unit mm)*
G04 Created by KiCad (PCBNEW 8.0.7) date 2025-01-03 15:46:07*
%MOMM*%
%LPD*%
G01*
G04 APERTURE LIST*
G04 Aperture macros list*
%AMRoundRect*
0 Rectangle with rounded corners*
0 $1 Rounding radius*
0 $2 $3 $4 $5 $6 $7 $8 $9 X,Y pos of 4 corners*
0 Add a 4 corners polygon primitive as box body*
4,1,4,$2,$3,$4,$5,$6,$7,$8,$9,$2,$3,0*
0 Add four circle primitives for the rounded corners*
1,1,$1+$1,$2,$3*
1,1,$1+$1,$4,$5*
1,1,$1+$1,$6,$7*
1,1,$1+$1,$8,$9*
0 Add four rect primitives between the rounded corners*
20,1,$1+$1,$2,$3,$4,$5,0*
20,1,$1+$1,$4,$5,$6,$7,0*
20,1,$1+$1,$6,$7,$8,$9,0*
20,1,$1+$1,$8,$9,$2,$3,0*%
G04 Aperture macros list end*
%ADD10RoundRect,0.250000X-0.325000X-0.650000X0.325000X-0.650000X0.325000X0.650000X-0.325000X0.650000X0*%
%ADD11RoundRect,0.250000X0.475000X-0.250000X0.475000X0.250000X-0.475000X0.250000X-0.475000X-0.250000X0*%
%ADD12RoundRect,0.250000X-1.100000X0.325000X-1.100000X-0.325000X1.100000X-0.325000X1.100000X0.325000X0*%
%ADD13RoundRect,0.140000X-0.140000X-0.170000X0.140000X-0.170000X0.140000X0.170000X-0.140000X0.170000X0*%
%ADD14RoundRect,0.140000X0.140000X0.170000X-0.140000X0.170000X-0.140000X-0.170000X0.140000X-0.170000X0*%
%ADD15RoundRect,0.140000X0.170000X-0.140000X0.170000X0.140000X-0.170000X0.140000X-0.170000X-0.140000X0*%
%ADD16RoundRect,0.140000X-0.170000X0.140000X-0.170000X-0.140000X0.170000X-0.140000X0.170000X0.140000X0*%
%ADD17RoundRect,0.135000X-0.185000X0.135000X-0.185000X-0.135000X0.185000X-0.135000X0.185000X0.135000X0*%
%ADD18RoundRect,0.250000X0.312500X0.625000X-0.312500X0.625000X-0.312500X-0.625000X0.312500X-0.625000X0*%
%ADD19RoundRect,0.150000X-0.512500X-0.150000X0.512500X-0.150000X0.512500X0.150000X-0.512500X0.150000X0*%
%ADD20RoundRect,0.135000X-0.135000X-0.185000X0.135000X-0.185000X0.135000X0.185000X-0.135000X0.185000X0*%
%ADD21RoundRect,0.135000X0.135000X0.185000X-0.135000X0.185000X-0.135000X-0.185000X0.135000X-0.185000X0*%
%ADD22RoundRect,0.250000X-0.250000X-0.475000X0.250000X-0.475000X0.250000X0.475000X-0.250000X0.475000X0*%
%ADD23RoundRect,0.250000X-0.325000X-1.100000X0.325000X-1.100000X0.325000X1.100000X-0.325000X1.100000X0*%
%ADD24R,1.100000X1.300000*%
%ADD25RoundRect,0.250000X-0.650000X0.325000X-0.650000X-0.325000X0.650000X-0.325000X0.650000X0.325000X0*%
%ADD26RoundRect,0.135000X0.185000X-0.135000X0.185000X0.135000X-0.185000X0.135000X-0.185000X-0.135000X0*%
%ADD27R,0.400000X1.100000*%
%ADD28RoundRect,0.100000X-0.637500X-0.100000X0.637500X-0.100000X0.637500X0.100000X-0.637500X0.100000X0*%
%ADD29R,4.000000X2.600000*%
%ADD30RoundRect,0.220588X0.229412X-0.429412X0.229412X0.429412X-0.229412X0.429412X-0.229412X-0.429412X0*%
%ADD31RoundRect,0.232843X0.242157X-0.467157X0.242157X0.467157X-0.242157X0.467157X-0.242157X-0.467157X0*%
%ADD32RoundRect,0.062500X0.062500X-0.337500X0.062500X0.337500X-0.062500X0.337500X-0.062500X-0.337500X0*%
%ADD33RoundRect,0.062500X0.337500X-0.062500X0.337500X0.062500X-0.337500X0.062500X-0.337500X-0.062500X0*%
%ADD34R,0.952500X0.558800*%
G04 APERTURE END LIST*
D10*
%TO.C,C20*%
X107435000Y-81120000D03*
X110385000Y-81120000D03*
%TD*%
D11*
%TO.C,C15*%
X100360000Y-79860000D03*
X100360000Y-77960000D03*
%TD*%
D12*
%TO.C,C51*%
X102045000Y-139815000D03*
X102045000Y-142765000D03*
%TD*%
D13*
%TO.C,C9*%
X96090000Y-72760000D03*
X97050000Y-72760000D03*
%TD*%
D14*
%TO.C,C41*%
X101570000Y-103154000D03*
X100610000Y-103154000D03*
%TD*%
D15*
%TO.C,C42*%
X100655438Y-122810000D03*
X100655438Y-121850000D03*
%TD*%
D16*
%TO.C,C40*%
X108072400Y-104360000D03*
X108072400Y-105320000D03*
%TD*%
D17*
%TO.C,R23*%
X94520000Y-123850000D03*
X94520000Y-124870000D03*
%TD*%
D14*
%TO.C,C46*%
X99161000Y-108024000D03*
X98201000Y-108024000D03*
%TD*%
D16*
%TO.C,C39*%
X102110000Y-104360000D03*
X102110000Y-105320000D03*
%TD*%
D18*
%TO.C,R12*%
X93012500Y-88210000D03*
X90087500Y-88210000D03*
%TD*%
D16*
%TO.C,C13*%
X87630000Y-77010000D03*
X87630000Y-77970000D03*
%TD*%
D11*
%TO.C,C14*%
X104580000Y-79880000D03*
X104580000Y-77980000D03*
%TD*%
D19*
%TO.C,U6*%
X101392500Y-129520000D03*
X101392500Y-130470000D03*
X101392500Y-131420000D03*
X103667500Y-131420000D03*
X103667500Y-129520000D03*
%TD*%
D20*
%TO.C,R1*%
X85590000Y-75500000D03*
X86610000Y-75500000D03*
%TD*%
D21*
%TO.C,R8*%
X90070000Y-70100000D03*
X89050000Y-70100000D03*
%TD*%
%TO.C,R11*%
X94390000Y-72930000D03*
X93370000Y-72930000D03*
%TD*%
D10*
%TO.C,C18*%
X107435000Y-87660000D03*
X110385000Y-87660000D03*
%TD*%
D22*
%TO.C,C24*%
X125440000Y-86180000D03*
X127340000Y-86180000D03*
%TD*%
D11*
%TO.C,C16*%
X102480000Y-79860000D03*
X102480000Y-77960000D03*
%TD*%
D15*
%TO.C,C45*%
X99525438Y-122820000D03*
X99525438Y-121860000D03*
%TD*%
D16*
%TO.C,C10*%
X102750000Y-74560000D03*
X102750000Y-75520000D03*
%TD*%
D20*
%TO.C,R2*%
X85110000Y-72100000D03*
X86130000Y-72100000D03*
%TD*%
D15*
%TO.C,C35*%
X112140000Y-122790000D03*
X112140000Y-121830000D03*
%TD*%
D23*
%TO.C,C4*%
X95125000Y-66550000D03*
X98075000Y-66550000D03*
%TD*%
D13*
%TO.C,C6*%
X96090000Y-74000000D03*
X97050000Y-74000000D03*
%TD*%
%TO.C,C25*%
X125910000Y-87790000D03*
X126870000Y-87790000D03*
%TD*%
D24*
%TO.C,U7*%
X115680000Y-126370000D03*
X115680000Y-124070000D03*
X113780000Y-124070000D03*
X113780000Y-126370000D03*
%TD*%
D13*
%TO.C,C27*%
X101940000Y-132840000D03*
X102900000Y-132840000D03*
%TD*%
D21*
%TO.C,R7*%
X88520000Y-74320000D03*
X87500000Y-74320000D03*
%TD*%
D14*
%TO.C,C29*%
X115270000Y-128010000D03*
X114310000Y-128010000D03*
%TD*%
D16*
%TO.C,C12*%
X93100000Y-83280000D03*
X93100000Y-84240000D03*
%TD*%
D21*
%TO.C,R19*%
X123720000Y-118980000D03*
X122700000Y-118980000D03*
%TD*%
D25*
%TO.C,C43*%
X105670000Y-103375000D03*
X105670000Y-106325000D03*
%TD*%
D26*
%TO.C,R25*%
X98640000Y-141260000D03*
X98640000Y-140240000D03*
%TD*%
D16*
%TO.C,C22*%
X128670000Y-105770000D03*
X128670000Y-106730000D03*
%TD*%
D27*
%TO.C,U10*%
X94870000Y-127840000D03*
X94220000Y-127840000D03*
X93570000Y-127840000D03*
X92920000Y-127840000D03*
X92920000Y-132140000D03*
X93570000Y-132140000D03*
X94220000Y-132140000D03*
X94870000Y-132140000D03*
%TD*%
D14*
%TO.C,C8*%
X90040000Y-71130000D03*
X89080000Y-71130000D03*
%TD*%
D20*
%TO.C,R5*%
X87490000Y-75720000D03*
X88510000Y-75720000D03*
%TD*%
D21*
%TO.C,R6*%
X88510000Y-72100000D03*
X87490000Y-72100000D03*
%TD*%
D19*
%TO.C,U5*%
X109843500Y-129279000D03*
X109843500Y-130229000D03*
X109843500Y-131179000D03*
X112118500Y-131179000D03*
X112118500Y-129279000D03*
%TD*%
D16*
%TO.C,C49*%
X122930000Y-100640000D03*
X122930000Y-101600000D03*
%TD*%
D21*
%TO.C,R9*%
X94400000Y-73990000D03*
X93380000Y-73990000D03*
%TD*%
D16*
%TO.C,C38*%
X103240000Y-104360000D03*
X103240000Y-105320000D03*
%TD*%
D14*
%TO.C,C23*%
X114200000Y-60030000D03*
X113240000Y-60030000D03*
%TD*%
D10*
%TO.C,C19*%
X107435000Y-84400000D03*
X110385000Y-84400000D03*
%TD*%
D20*
%TO.C,R4*%
X85590000Y-73360000D03*
X86610000Y-73360000D03*
%TD*%
D17*
%TO.C,R17*%
X120380000Y-112750000D03*
X120380000Y-113770000D03*
%TD*%
D13*
%TO.C,C7*%
X96110000Y-71540000D03*
X97070000Y-71540000D03*
%TD*%
D21*
%TO.C,R13*%
X86600000Y-77640000D03*
X85580000Y-77640000D03*
%TD*%
D16*
%TO.C,C53*%
X97200000Y-140250000D03*
X97200000Y-141210000D03*
%TD*%
D14*
%TO.C,C48*%
X98090000Y-109925000D03*
X97130000Y-109925000D03*
%TD*%
%TO.C,C28*%
X114410000Y-109860000D03*
X113450000Y-109860000D03*
%TD*%
D28*
%TO.C,U9*%
X115427500Y-97855000D03*
X115427500Y-98505000D03*
X115427500Y-99155000D03*
X115427500Y-99805000D03*
X115427500Y-100455000D03*
X115427500Y-101105000D03*
X115427500Y-101755000D03*
X115427500Y-102405000D03*
X121152500Y-102405000D03*
X121152500Y-101755000D03*
X121152500Y-101105000D03*
X121152500Y-100455000D03*
X121152500Y-99805000D03*
X121152500Y-99155000D03*
X121152500Y-98505000D03*
X121152500Y-97855000D03*
%TD*%
D20*
%TO.C,R24*%
X93560000Y-135710000D03*
X94580000Y-135710000D03*
%TD*%
D13*
%TO.C,C5*%
X86310000Y-70110000D03*
X87270000Y-70110000D03*
%TD*%
D14*
%TO.C,C34*%
X112010000Y-106266000D03*
X111050000Y-106266000D03*
%TD*%
D26*
%TO.C,R22*%
X93380000Y-124870000D03*
X93380000Y-123850000D03*
%TD*%
D29*
%TO.C,L1*%
X96295000Y-85255000D03*
X104245000Y-85255000D03*
%TD*%
D10*
%TO.C,C17*%
X107415000Y-90910000D03*
X110365000Y-90910000D03*
%TD*%
D13*
%TO.C,C26*%
X110481000Y-132739000D03*
X111441000Y-132739000D03*
%TD*%
D14*
%TO.C,C47*%
X124270000Y-103110000D03*
X123310000Y-103110000D03*
%TD*%
D15*
%TO.C,C33*%
X111000000Y-122790000D03*
X111000000Y-121830000D03*
%TD*%
D16*
%TO.C,C37*%
X109190000Y-104360000D03*
X109190000Y-105320000D03*
%TD*%
D14*
%TO.C,C1*%
X92650000Y-82220000D03*
X91690000Y-82220000D03*
%TD*%
D21*
%TO.C,R18*%
X123720000Y-116220000D03*
X122700000Y-116220000D03*
%TD*%
D14*
%TO.C,C36*%
X110695000Y-103146000D03*
X109735000Y-103146000D03*
%TD*%
D20*
%TO.C,R15*%
X110480000Y-74510000D03*
X111500000Y-74510000D03*
%TD*%
D30*
%TO.C,U2*%
X91480000Y-78490000D03*
X95680000Y-78490000D03*
D31*
X92880000Y-78440000D03*
X94280000Y-78440000D03*
X92880000Y-76740000D03*
X94280000Y-76740000D03*
D30*
X91480000Y-76690000D03*
X95680000Y-76690000D03*
D32*
X90830000Y-80090000D03*
X91330000Y-80090000D03*
X91830000Y-80090000D03*
X92330000Y-80090000D03*
X92830000Y-80090000D03*
X93330000Y-80090000D03*
X93830000Y-80090000D03*
X94330000Y-80090000D03*
X94830000Y-80090000D03*
X95330000Y-80090000D03*
X95830000Y-80090000D03*
X96330000Y-80090000D03*
D33*
X97080000Y-79340000D03*
X97080000Y-78840000D03*
X97080000Y-78340000D03*
X97080000Y-77840000D03*
X97080000Y-77340000D03*
X97080000Y-76840000D03*
X97080000Y-76340000D03*
X97080000Y-75840000D03*
D32*
X96330000Y-75090000D03*
X95830000Y-75090000D03*
X95330000Y-75090000D03*
X94830000Y-75090000D03*
X94330000Y-75090000D03*
X93830000Y-75090000D03*
X93330000Y-75090000D03*
X92830000Y-75090000D03*
X92330000Y-75090000D03*
X91830000Y-75090000D03*
X91330000Y-75090000D03*
X90830000Y-75090000D03*
D33*
X90080000Y-75840000D03*
X90080000Y-76340000D03*
X90080000Y-76840000D03*
X90080000Y-77340000D03*
X90080000Y-77840000D03*
X90080000Y-78340000D03*
X90080000Y-78840000D03*
X90080000Y-79340000D03*
%TD*%
D23*
%TO.C,C3*%
X95125000Y-63300000D03*
X98075000Y-63300000D03*
%TD*%
D20*
%TO.C,R3*%
X85590000Y-74330000D03*
X86610000Y-74330000D03*
%TD*%
D14*
%TO.C,C50*%
X94440000Y-125940000D03*
X93480000Y-125940000D03*
%TD*%
D21*
%TO.C,R10*%
X88520000Y-73170000D03*
X87500000Y-73170000D03*
%TD*%
D14*
%TO.C,C32*%
X113310000Y-108026000D03*
X112350000Y-108026000D03*
%TD*%
D26*
%TO.C,R16*%
X127240000Y-106770000D03*
X127240000Y-105750000D03*
%TD*%
D14*
%TO.C,C52*%
X98040000Y-137640000D03*
X97080000Y-137640000D03*
%TD*%
D22*
%TO.C,C11*%
X91190000Y-85860000D03*
X93090000Y-85860000D03*
%TD*%
D13*
%TO.C,C21*%
X111140000Y-60030000D03*
X112100000Y-60030000D03*
%TD*%
D20*
%TO.C,R14*%
X85580000Y-76570000D03*
X86600000Y-76570000D03*
%TD*%
D16*
%TO.C,C30*%
X114240000Y-129540000D03*
X114240000Y-130500000D03*
%TD*%
D22*
%TO.C,C2*%
X95650000Y-69350000D03*
X97550000Y-69350000D03*
%TD*%
D14*
%TO.C,C44*%
X100441000Y-106284000D03*
X99481000Y-106284000D03*
%TD*%
D34*
%TO.C,U3*%
X111185050Y-62440200D03*
X111185050Y-63380000D03*
X111185050Y-64319800D03*
X113940950Y-64319800D03*
X113940950Y-62440200D03*
%TD*%
D16*
%TO.C,C31*%
X105750000Y-129990000D03*
X105750000Y-130950000D03*
%TD*%
M02*
