%TF.GenerationSoftware,KiCad,Pcbnew,8.0.7*%
%TF.CreationDate,2025-01-03T15:46:07-08:00*%
%TF.ProjectId,bitaxeSupra,62697461-7865-4537-9570-72612e6b6963,rev?*%
%TF.SameCoordinates,Original*%
%TF.FileFunction,Paste,Bot*%
%TF.FilePolarity,Positive*%
%FSLAX46Y46*%
G04 Gerber Fmt 4.6, Leading zero omitted, Abs format (unit mm)*
G04 Created by KiCad (PCBNEW 8.0.7) date 2025-01-03 15:46:07*
%MOMM*%
%LPD*%
G01*
G04 APERTURE LIST*
G04 Aperture macros list*
%AMRoundRect*
0 Rectangle with rounded corners*
0 $1 Rounding radius*
0 $2 $3 $4 $5 $6 $7 $8 $9 X,Y pos of 4 corners*
0 Add a 4 corners polygon primitive as box body*
4,1,4,$2,$3,$4,$5,$6,$7,$8,$9,$2,$3,0*
0 Add four circle primitives for the rounded corners*
1,1,$1+$1,$2,$3*
1,1,$1+$1,$4,$5*
1,1,$1+$1,$6,$7*
1,1,$1+$1,$8,$9*
0 Add four rect primitives between the rounded corners*
20,1,$1+$1,$2,$3,$4,$5,0*
20,1,$1+$1,$4,$5,$6,$7,0*
20,1,$1+$1,$6,$7,$8,$9,0*
20,1,$1+$1,$8,$9,$2,$3,0*%
G04 Aperture macros list end*
%ADD10C,0.001000*%
%ADD11RoundRect,0.150000X-0.150000X-0.625000X0.150000X-0.625000X0.150000X0.625000X-0.150000X0.625000X0*%
%ADD12RoundRect,0.250000X-0.350000X-0.650000X0.350000X-0.650000X0.350000X0.650000X-0.350000X0.650000X0*%
%ADD13RoundRect,0.150000X0.425000X-0.150000X0.425000X0.150000X-0.425000X0.150000X-0.425000X-0.150000X0*%
%ADD14RoundRect,0.075000X0.500000X-0.075000X0.500000X0.075000X-0.500000X0.075000X-0.500000X-0.075000X0*%
%ADD15O,1.800000X1.000000*%
%ADD16O,2.100000X1.000000*%
%ADD17R,0.900000X1.500000*%
%ADD18R,1.500000X0.900000*%
%ADD19R,0.900000X0.900000*%
%ADD20RoundRect,0.055250X0.340750X0.055250X-0.340750X0.055250X-0.340750X-0.055250X0.340750X-0.055250X0*%
%ADD21R,2.000000X2.000000*%
%ADD22R,0.900000X1.800000*%
G04 APERTURE END LIST*
%TO.C,U8*%
D10*
X105000562Y-113096000D02*
X103800562Y-113096000D01*
X103800562Y-114206000D01*
X105000562Y-114206000D01*
X105000562Y-113096000D01*
G36*
X105000562Y-113096000D02*
G01*
X103800562Y-113096000D01*
X103800562Y-114206000D01*
X105000562Y-114206000D01*
X105000562Y-113096000D01*
G37*
X105010562Y-115341000D02*
X103810562Y-115341000D01*
X103810562Y-117371000D01*
X105010562Y-117371000D01*
X105010562Y-115341000D01*
G36*
X105010562Y-115341000D02*
G01*
X103810562Y-115341000D01*
X103810562Y-117371000D01*
X105010562Y-117371000D01*
X105010562Y-115341000D01*
G37*
X105030562Y-118196000D02*
X103830562Y-118196000D01*
X103830562Y-120216000D01*
X105030562Y-120216000D01*
X105030562Y-118196000D01*
G36*
X105030562Y-118196000D02*
G01*
X103830562Y-118196000D01*
X103830562Y-120216000D01*
X105030562Y-120216000D01*
X105030562Y-118196000D01*
G37*
X107400562Y-115336000D02*
X106200562Y-115336000D01*
X106200562Y-117366000D01*
X107400562Y-117366000D01*
X107400562Y-115336000D01*
G36*
X107400562Y-115336000D02*
G01*
X106200562Y-115336000D01*
X106200562Y-117366000D01*
X107400562Y-117366000D01*
X107400562Y-115336000D01*
G37*
X107400562Y-118196000D02*
X106200562Y-118196000D01*
X106200562Y-120216000D01*
X107400562Y-120216000D01*
X107400562Y-118196000D01*
G36*
X107400562Y-118196000D02*
G01*
X106200562Y-118196000D01*
X106200562Y-120216000D01*
X107400562Y-120216000D01*
X107400562Y-118196000D01*
G37*
X107410562Y-113096000D02*
X106210562Y-113096000D01*
X106210562Y-114216000D01*
X107410562Y-114216000D01*
X107410562Y-113096000D01*
G36*
X107410562Y-113096000D02*
G01*
X106210562Y-113096000D01*
X106210562Y-114216000D01*
X107410562Y-114216000D01*
X107410562Y-113096000D01*
G37*
%TD*%
D11*
%TO.C,J7*%
X102000000Y-141675000D03*
X103000000Y-141675000D03*
X104000000Y-141675000D03*
X105000000Y-141675000D03*
D12*
X100700000Y-144200000D03*
X106300000Y-144200000D03*
%TD*%
D13*
%TO.C,J5*%
X84545000Y-86460000D03*
X84545000Y-85660000D03*
D14*
X84545000Y-84510000D03*
X84545000Y-83510000D03*
X84545000Y-83010000D03*
X84545000Y-82010000D03*
D13*
X84545000Y-80060000D03*
X84545000Y-80860000D03*
D14*
X84545000Y-81510000D03*
X84545000Y-82510000D03*
X84545000Y-84010000D03*
X84545000Y-85010000D03*
D15*
X79790000Y-87580000D03*
D16*
X83970000Y-87580000D03*
D15*
X79790000Y-78940000D03*
D16*
X83970000Y-78940000D03*
%TD*%
D17*
%TO.C,U4*%
X125690000Y-81360000D03*
X124420000Y-81360000D03*
X123150000Y-81360000D03*
X121880000Y-81360000D03*
X120610000Y-81360000D03*
X119340000Y-81360000D03*
X118070000Y-81360000D03*
X116800000Y-81360000D03*
X115530000Y-81360000D03*
X114260000Y-81360000D03*
X112990000Y-81360000D03*
X111720000Y-81360000D03*
X110450000Y-81360000D03*
X109180000Y-81360000D03*
D18*
X107930000Y-79595000D03*
X107930000Y-78325000D03*
X107930000Y-77055000D03*
X107930000Y-75785000D03*
X107930000Y-74515000D03*
X107930000Y-73245000D03*
X107930000Y-71975000D03*
X107930000Y-70705000D03*
X107930000Y-69435000D03*
X107930000Y-68165000D03*
X107930000Y-66895000D03*
X107930000Y-65625000D03*
D17*
X109180000Y-63860000D03*
X110450000Y-63860000D03*
X111720000Y-63860000D03*
X112990000Y-63860000D03*
X114260000Y-63860000D03*
X115530000Y-63860000D03*
X116800000Y-63860000D03*
X118070000Y-63860000D03*
X119340000Y-63860000D03*
X120610000Y-63860000D03*
X121880000Y-63860000D03*
X123150000Y-63860000D03*
X124420000Y-63860000D03*
X125690000Y-63860000D03*
D19*
X116570000Y-75510000D03*
X117970000Y-75510000D03*
X119370000Y-75510000D03*
X116570000Y-74110000D03*
X117970000Y-74110000D03*
X119370000Y-74110000D03*
X116570000Y-72710000D03*
X117970000Y-72710000D03*
X119370000Y-72710000D03*
%TD*%
D20*
%TO.C,U8*%
X108526562Y-113032000D03*
X108526562Y-113534000D03*
X108526562Y-114036000D03*
X108526562Y-114538000D03*
X108526562Y-115040000D03*
X108526562Y-115542000D03*
X108526562Y-116044000D03*
X108526562Y-116546000D03*
X108526562Y-117048000D03*
X108526562Y-117550000D03*
X108526562Y-118052000D03*
X108526562Y-118554000D03*
X108526562Y-119056000D03*
X108526562Y-119558000D03*
X108526562Y-120060000D03*
X102694562Y-120060000D03*
X102694562Y-119558000D03*
X102694562Y-119056000D03*
X102694562Y-118554000D03*
X102694562Y-118052000D03*
X102694562Y-117550000D03*
X102694562Y-117048000D03*
X102694562Y-116546000D03*
X102694562Y-116044000D03*
X102694562Y-115542000D03*
X102694562Y-115040000D03*
X102694562Y-114538000D03*
X102694562Y-114036000D03*
X102694562Y-113534000D03*
X102694562Y-113032000D03*
%TD*%
D21*
%TO.C,J1*%
X82330000Y-72120000D03*
X88530000Y-72120000D03*
X82330000Y-61120000D03*
X88530000Y-61120000D03*
%TD*%
D22*
%TO.C,SW1*%
X132246000Y-104448000D03*
X128136000Y-104448000D03*
%TD*%
%TO.C,SW2*%
X132142000Y-113155000D03*
X128032000Y-113155000D03*
%TD*%
M02*
