%TF.GenerationSoftware,KiCad,Pcbnew,7.0.2*%
%TF.CreationDate,2024-01-11T01:28:16+01:00*%
%TF.ProjectId,bitaxe_RGZ_204_MOD_C,62697461-7865-45f5-9247-5a5f3230345f,rev?*%
%TF.SameCoordinates,Original*%
%TF.FileFunction,Copper,L3,Inr*%
%TF.FilePolarity,Positive*%
%FSLAX46Y46*%
G04 Gerber Fmt 4.6, Leading zero omitted, Abs format (unit mm)*
G04 Created by KiCad (PCBNEW 7.0.2) date 2024-01-11 01:28:16*
%MOMM*%
%LPD*%
G01*
G04 APERTURE LIST*
G04 Aperture macros list*
%AMRoundRect*
0 Rectangle with rounded corners*
0 $1 Rounding radius*
0 $2 $3 $4 $5 $6 $7 $8 $9 X,Y pos of 4 corners*
0 Add a 4 corners polygon primitive as box body*
4,1,4,$2,$3,$4,$5,$6,$7,$8,$9,$2,$3,0*
0 Add four circle primitives for the rounded corners*
1,1,$1+$1,$2,$3*
1,1,$1+$1,$4,$5*
1,1,$1+$1,$6,$7*
1,1,$1+$1,$8,$9*
0 Add four rect primitives between the rounded corners*
20,1,$1+$1,$2,$3,$4,$5,0*
20,1,$1+$1,$4,$5,$6,$7,0*
20,1,$1+$1,$6,$7,$8,$9,0*
20,1,$1+$1,$8,$9,$2,$3,0*%
G04 Aperture macros list end*
%TA.AperFunction,ComponentPad*%
%ADD10O,1.700000X1.700000*%
%TD*%
%TA.AperFunction,ComponentPad*%
%ADD11R,1.700000X1.700000*%
%TD*%
%TA.AperFunction,ComponentPad*%
%ADD12C,0.800000*%
%TD*%
%TA.AperFunction,ComponentPad*%
%ADD13C,6.000000*%
%TD*%
%TA.AperFunction,ComponentPad*%
%ADD14C,0.500000*%
%TD*%
%TA.AperFunction,ComponentPad*%
%ADD15C,0.400000*%
%TD*%
%TA.AperFunction,ComponentPad*%
%ADD16C,1.574800*%
%TD*%
%TA.AperFunction,ComponentPad*%
%ADD17O,1.800000X1.000000*%
%TD*%
%TA.AperFunction,ComponentPad*%
%ADD18O,2.100000X1.000000*%
%TD*%
%TA.AperFunction,ComponentPad*%
%ADD19RoundRect,0.250000X-0.750000X0.600000X-0.750000X-0.600000X0.750000X-0.600000X0.750000X0.600000X0*%
%TD*%
%TA.AperFunction,ComponentPad*%
%ADD20O,2.000000X1.700000*%
%TD*%
%TA.AperFunction,ViaPad*%
%ADD21C,0.800000*%
%TD*%
%TA.AperFunction,ViaPad*%
%ADD22C,1.200000*%
%TD*%
%TA.AperFunction,ViaPad*%
%ADD23C,1.000000*%
%TD*%
%TA.AperFunction,Conductor*%
%ADD24C,0.508000*%
%TD*%
%TA.AperFunction,Conductor*%
%ADD25C,1.500000*%
%TD*%
%TA.AperFunction,Conductor*%
%ADD26C,1.000000*%
%TD*%
G04 APERTURE END LIST*
D10*
%TO.N,/SDA*%
%TO.C,J9*%
X86766400Y-57175400D03*
%TO.N,/SCL*%
X86766400Y-54635400D03*
%TO.N,/3V3*%
X86766400Y-52095400D03*
D11*
%TO.N,GND*%
X86766400Y-49555400D03*
%TD*%
D12*
%TO.N,GND*%
%TO.C,H7*%
X127985010Y-51120990D03*
X128644020Y-49530000D03*
X128644020Y-52711980D03*
X130235010Y-48870990D03*
X130235010Y-53370990D03*
D13*
X130302000Y-51054000D03*
D12*
X131826000Y-49530000D03*
X131826000Y-52711980D03*
X132485010Y-51120990D03*
%TD*%
D14*
%TO.N,GND*%
%TO.C,U2*%
X116922000Y-98765000D03*
X116922000Y-99765000D03*
X115922000Y-99765000D03*
X115922000Y-98765000D03*
%TD*%
D12*
%TO.N,GND*%
%TO.C,H9*%
X128052000Y-143728000D03*
X128711010Y-142137010D03*
X128711010Y-145318990D03*
X130302000Y-141478000D03*
D13*
X130302000Y-143831000D03*
D12*
X130302000Y-145978000D03*
X131892990Y-142137010D03*
X131892990Y-145318990D03*
X132552000Y-143728000D03*
%TD*%
%TO.N,GND*%
%TO.C,H10*%
X78558000Y-143830990D03*
X79217010Y-142240000D03*
X79217010Y-145421980D03*
X80808000Y-141580990D03*
D13*
X80808000Y-143830990D03*
D12*
X80808000Y-146080990D03*
X82398990Y-142240000D03*
X82398990Y-145421980D03*
X83058000Y-143830990D03*
%TD*%
D15*
%TO.N,GND*%
%TO.C,U9*%
X98201691Y-68847200D03*
X99151691Y-69422200D03*
X97251691Y-69422200D03*
X98201691Y-69997200D03*
%TD*%
D12*
%TO.N,GND*%
%TO.C,H8*%
X78558000Y-51054000D03*
X79217010Y-49463010D03*
X79217010Y-52644990D03*
X80808000Y-48804000D03*
D13*
X80808000Y-51054000D03*
D12*
X80808000Y-53304000D03*
X82398990Y-49463010D03*
X82398990Y-52644990D03*
X83058000Y-51054000D03*
%TD*%
D16*
%TO.N,GND*%
%TO.C,J4*%
X89621000Y-143622000D03*
%TO.N,/5V*%
X92161000Y-143622000D03*
%TO.N,/Fan/FAN_TACH*%
X94701000Y-143622000D03*
%TO.N,/Fan/FAN_PWM*%
X97241000Y-143622000D03*
%TD*%
D11*
%TO.N,/Power/VIN*%
%TO.C,J7*%
X82708000Y-81632000D03*
D10*
%TO.N,/5V*%
X85248000Y-81632000D03*
%TD*%
D11*
%TO.N,/BM1366/1V8*%
%TO.C,J3*%
X109350000Y-143580000D03*
D10*
%TO.N,/BM1366/CI*%
X111890000Y-143580000D03*
%TO.N,/BM1366/RO*%
X114430000Y-143580000D03*
%TO.N,/BM1366/RST_N*%
X116970000Y-143580000D03*
%TO.N,GND*%
X119510000Y-143580000D03*
%TD*%
D17*
%TO.N,GND*%
%TO.C,J8*%
X131123000Y-96530000D03*
D18*
X126943000Y-96530000D03*
D17*
X131123000Y-105170000D03*
D18*
X126943000Y-105170000D03*
%TD*%
D19*
%TO.N,GND*%
%TO.C,J2*%
X80470000Y-130360000D03*
D20*
%TO.N,/5V*%
X80470000Y-132860000D03*
%TD*%
D21*
%TO.N,GND*%
X95067000Y-70471000D03*
D22*
X80348000Y-73699500D03*
X80348000Y-68217000D03*
D21*
X77798000Y-87152000D03*
X100850600Y-73131400D03*
D22*
X80348000Y-70044500D03*
D21*
X116910000Y-128990000D03*
D22*
X80348000Y-71872000D03*
D21*
X97028000Y-98592000D03*
D22*
X78668000Y-66392000D03*
X82138000Y-70062000D03*
D21*
X125513000Y-69924000D03*
X112980000Y-131260000D03*
X96109000Y-112124000D03*
D22*
X83818000Y-70059500D03*
D21*
X97028000Y-92970600D03*
X112460000Y-69350000D03*
X100288000Y-92362000D03*
X106396000Y-118533000D03*
X97028000Y-89922000D03*
X110862000Y-121832000D03*
X98568000Y-89922000D03*
D22*
X78668000Y-70047000D03*
D21*
X104082000Y-115436000D03*
X98682000Y-136516000D03*
X98568000Y-98592000D03*
X99393000Y-122727000D03*
X106408000Y-116351000D03*
X129429500Y-59124000D03*
D22*
X78668000Y-71874500D03*
D21*
X95758000Y-69431400D03*
D23*
X100765000Y-145890000D03*
D21*
X94214574Y-62819426D03*
X94411000Y-69401000D03*
X97028000Y-91402000D03*
X105673000Y-117442000D03*
X80168900Y-92079000D03*
X97028000Y-94742000D03*
X90271600Y-49504600D03*
X97551000Y-122747000D03*
X123698000Y-115554000D03*
X98568000Y-96612000D03*
X117602000Y-123903000D03*
X101346000Y-71501000D03*
X104855000Y-118563000D03*
D23*
X118999000Y-74930000D03*
D21*
X104132000Y-117472000D03*
X121691400Y-80721200D03*
X98568000Y-91402000D03*
X101727000Y-70358000D03*
X97028000Y-96612000D03*
X122075000Y-57079000D03*
X112922500Y-102037000D03*
X107144000Y-117442000D03*
X90897000Y-129309000D03*
X112318000Y-95325000D03*
X112512000Y-61250000D03*
X105623000Y-115406000D03*
X98568000Y-94742000D03*
X104867000Y-116381000D03*
X100457000Y-70358000D03*
X86678000Y-87862000D03*
X102616000Y-71501000D03*
D23*
X116713000Y-74930000D03*
D21*
X105330000Y-132320000D03*
X104430000Y-130240000D03*
D23*
X126293000Y-87094000D03*
D21*
X98568000Y-92970600D03*
D22*
X80348000Y-66389500D03*
D21*
X115573700Y-102188000D03*
D22*
X78668000Y-73702000D03*
X78668000Y-68219500D03*
D21*
X112369600Y-51816000D03*
X102997000Y-70358000D03*
X102082600Y-109067600D03*
X92818000Y-101795000D03*
X132297000Y-117137000D03*
X111785400Y-57708800D03*
X119253000Y-100457000D03*
X88888000Y-106645000D03*
X95260000Y-132630000D03*
X107094000Y-115406000D03*
X115099642Y-112550642D03*
X100288000Y-90613400D03*
D23*
X117856000Y-74930000D03*
D22*
%TO.N,/Power/VIN*%
X80275000Y-77059000D03*
X78688000Y-81222000D03*
X78688000Y-83179000D03*
X80288000Y-83159000D03*
X80288000Y-81202000D03*
X84808000Y-77242000D03*
X86458000Y-78752000D03*
X80288000Y-79102000D03*
X84808000Y-78752000D03*
X78675000Y-77079000D03*
X86458000Y-77242000D03*
X78688000Y-79122000D03*
D21*
%TO.N,/BM1366/1V8*%
X115737362Y-96385646D03*
X117172000Y-102173000D03*
X112130000Y-127390000D03*
X109458000Y-122723000D03*
%TO.N,/BM1366/INV_CLKO*%
X92430600Y-118795800D03*
%TO.N,/VDD*%
X114620000Y-71308000D03*
X103000000Y-104240000D03*
X105152000Y-113890000D03*
D22*
X107400000Y-94361000D03*
X107440000Y-96491000D03*
D21*
X104126000Y-113110000D03*
X108330000Y-104270000D03*
X107204000Y-113920000D03*
D22*
X107440000Y-98461000D03*
D21*
X106178000Y-113110000D03*
D22*
X105410000Y-94361000D03*
X105410000Y-92321000D03*
X107380000Y-92341000D03*
X105460000Y-98491000D03*
X105430000Y-96471000D03*
D21*
%TO.N,/ESP32/EN*%
X126293000Y-112572000D03*
X125563000Y-71744000D03*
X115196100Y-88116385D03*
D23*
%TO.N,/5V*%
X117975000Y-89479000D03*
D21*
X88883000Y-131168000D03*
X100470000Y-66770000D03*
X94580000Y-137390000D03*
X90881000Y-131182000D03*
D22*
X108214845Y-61185155D03*
D21*
X98450000Y-131200000D03*
%TO.N,/3V3*%
X115457000Y-62413000D03*
X114010000Y-95176000D03*
X111475000Y-83479000D03*
X109994718Y-78588072D03*
X127766000Y-108915000D03*
X130919500Y-59064000D03*
X111775000Y-58940627D03*
X110675000Y-73179000D03*
D23*
X125973000Y-88544000D03*
D21*
X121310400Y-88646000D03*
X91850000Y-52820000D03*
X98662000Y-137914100D03*
X116989216Y-96497784D03*
X83075000Y-92079000D03*
X101092000Y-109016800D03*
X119303800Y-54838600D03*
X90050000Y-100718000D03*
X82698000Y-90182000D03*
%TO.N,/TX*%
X112644692Y-87844408D03*
%TO.N,/RX*%
X111506000Y-86995000D03*
%TO.N,/BM1366/VDD3_0*%
X115070000Y-111160000D03*
%TO.N,/BM1366/VDD2_0*%
X112530000Y-107800000D03*
%TO.N,/RST*%
X115316000Y-72390000D03*
%TO.N,/BM1366/PIN_MODE*%
X91480645Y-121097045D03*
%TO.N,/SCL*%
X85471000Y-101219000D03*
X84828000Y-91902000D03*
X97713800Y-120675400D03*
%TO.N,/Power/OUT0*%
X89141400Y-99799800D03*
X93399000Y-72582000D03*
%TO.N,/BM1366/0V8*%
X108468000Y-124939000D03*
X103530000Y-127490000D03*
%TO.N,/BM1366/VDD1_0*%
X111250000Y-106010000D03*
%TO.N,/BM1366/VDD1_1*%
X98602800Y-107213400D03*
%TO.N,/BM1366/VDD2_1*%
X97409000Y-108966000D03*
%TO.N,/BM1366/VDD3_1*%
X96130000Y-110920000D03*
%TO.N,Net-(Q4-D)*%
X104500000Y-62680000D03*
X103630000Y-67500000D03*
%TO.N,Net-(U9-BOOT)*%
X94155000Y-71626000D03*
X95186555Y-73190555D03*
%TO.N,/BM1366/CI*%
X116334852Y-117175300D03*
X113272599Y-98869299D03*
%TO.N,/BM1366/RO*%
X112962000Y-97645000D03*
X116428000Y-115817000D03*
%TO.N,/BM1366/RST_N*%
X117148868Y-114071132D03*
X111948000Y-102053000D03*
%TO.N,Net-(Q2-G)*%
X101418600Y-87903400D03*
X97975000Y-74279000D03*
%TO.N,/BM1366/RI*%
X96774000Y-114909600D03*
%TO.N,/BM1366/CLKI*%
X114844000Y-116495900D03*
%TO.N,/BM1366/NRSTO*%
X96967045Y-112836955D03*
%TO.N,/BM1366/BO*%
X96995638Y-113825659D03*
%TO.N,/BM1366/CLKO*%
X96266000Y-116154200D03*
%TO.N,/BM1366/CO*%
X94996000Y-117551200D03*
%TO.N,/ESP32/P_TX*%
X128566055Y-63607445D03*
%TO.N,/ESP32/P_RX*%
X125222000Y-61294000D03*
%TO.N,/ESP32/IO0*%
X126746000Y-58674000D03*
X123682000Y-104140000D03*
X114675000Y-81379000D03*
%TO.N,/ESP32/XIN32*%
X117475000Y-83947000D03*
%TO.N,/BM1366/ADDR0*%
X119110000Y-118260000D03*
%TO.N,/ESP32/XOUT32*%
X116598000Y-83185000D03*
%TO.N,/Power/PGOOD*%
X109575000Y-73679000D03*
%TO.N,/ESP32/PWR_EN*%
X110935000Y-79631000D03*
%TO.N,/SDA*%
X96656000Y-120659000D03*
X84438000Y-90822000D03*
X87961400Y-99809800D03*
X104300000Y-58100000D03*
X104902000Y-60690000D03*
%TO.N,/ESP32/TFT_BLK*%
X110109000Y-80645000D03*
X113537100Y-70279000D03*
X115575000Y-70279000D03*
%TO.N,Net-(U4-LEDK)*%
X117144800Y-59309000D03*
%TO.N,/ESP32/TFT_DC*%
X118636500Y-59789361D03*
X117729000Y-73279000D03*
%TO.N,/ESP32/TFT_CS*%
X119450239Y-59289952D03*
X120142000Y-74168000D03*
%TO.N,/BM1366/BI*%
X115540000Y-114780000D03*
%TO.N,/PLUG_SENSE*%
X109275000Y-75279000D03*
X88900000Y-63500000D03*
X102440000Y-60880000D03*
%TO.N,/BM1366/ADDR1*%
X119960000Y-121860000D03*
D23*
%TO.N,Net-(D1-Pad2)*%
X122796000Y-98450000D03*
X122936000Y-103250000D03*
D21*
%TO.N,Net-(J8-CC1)*%
X124159000Y-99337000D03*
%TO.N,Net-(J8-CC2)*%
X124154000Y-102357000D03*
%TO.N,Net-(U14-VDDIO_18_1)*%
X101015000Y-121775000D03*
%TO.N,Net-(U14-VDDIO_08_1)*%
X100155000Y-123661000D03*
%TO.N,/ESP32/TFT_SCL*%
X120396000Y-59182000D03*
X121114100Y-73787000D03*
%TO.N,/ESP32/TFT_SDA*%
X120855244Y-58269215D03*
X121793000Y-73025000D03*
%TO.N,/ESP32/TFT_RES*%
X121811500Y-58265361D03*
X122936000Y-72941900D03*
%TD*%
D24*
%TO.N,/5V*%
X85750000Y-134294000D02*
X85750000Y-134909000D01*
X85750000Y-134909000D02*
X85737000Y-134922000D01*
D25*
X92161000Y-143622000D02*
X92207000Y-143576000D01*
X91858000Y-69525128D02*
X91858000Y-75476715D01*
D26*
X100490000Y-66750000D02*
X100490000Y-64140000D01*
D25*
X92207000Y-138468000D02*
X88661000Y-134922000D01*
D24*
X117975000Y-89479000D02*
X115419000Y-89479000D01*
X88844000Y-131200000D02*
X85750000Y-134294000D01*
D25*
X78867000Y-119347000D02*
X85737000Y-126217000D01*
D24*
X109300000Y-79033776D02*
X108468600Y-78202376D01*
D25*
X97243128Y-64140000D02*
X91858000Y-69525128D01*
X78867000Y-88467715D02*
X78867000Y-119347000D01*
X100490000Y-64140000D02*
X97243128Y-64140000D01*
X85737000Y-126217000D02*
X85737000Y-134922000D01*
D24*
X115419000Y-89479000D02*
X109300000Y-83360000D01*
D25*
X85737000Y-134922000D02*
X83675000Y-132860000D01*
X108214845Y-61185155D02*
X105260000Y-64140000D01*
D24*
X98450000Y-131200000D02*
X88844000Y-131200000D01*
X108468600Y-78202376D02*
X108468600Y-61438910D01*
X109300000Y-83360000D02*
X109300000Y-79033776D01*
D25*
X91858000Y-75476715D02*
X78867000Y-88467715D01*
X92207000Y-143576000D02*
X92207000Y-138468000D01*
X105260000Y-64140000D02*
X100490000Y-64140000D01*
X88661000Y-134922000D02*
X85737000Y-134922000D01*
D24*
X108468600Y-61438910D02*
X108214845Y-61185155D01*
D25*
X83675000Y-132860000D02*
X80470000Y-132860000D01*
%TO.N,/3V3*%
X111160000Y-54930000D02*
X109130000Y-52900000D01*
X91850000Y-52820000D02*
X91930000Y-52900000D01*
X91930000Y-52900000D02*
X109130000Y-52900000D01*
%TD*%
%TA.AperFunction,Conductor*%
%TO.N,/3V3*%
G36*
X129069353Y-54069644D02*
G01*
X129095616Y-54081795D01*
X129430050Y-54194479D01*
X129774707Y-54270344D01*
X130125546Y-54308500D01*
X130128961Y-54308500D01*
X130475039Y-54308500D01*
X130478454Y-54308500D01*
X130829293Y-54270344D01*
X131173950Y-54194479D01*
X131508384Y-54081795D01*
X131534646Y-54069644D01*
X131587550Y-54058000D01*
X133604771Y-54058000D01*
X133672892Y-54078002D01*
X133719385Y-54131658D01*
X133730770Y-54184019D01*
X133729968Y-58716463D01*
X133728787Y-65384545D01*
X133728428Y-65394032D01*
X133723467Y-65459581D01*
X133711184Y-65607908D01*
X133708633Y-65624751D01*
X133688296Y-65716582D01*
X133687686Y-65719203D01*
X133659650Y-65834114D01*
X133655149Y-65848676D01*
X133620023Y-65941899D01*
X133618367Y-65946066D01*
X133574892Y-66050071D01*
X133569050Y-66062187D01*
X133520013Y-66151368D01*
X133516851Y-66156794D01*
X133458781Y-66250962D01*
X133452208Y-66260593D01*
X133390456Y-66342646D01*
X133385398Y-66348936D01*
X133313860Y-66432296D01*
X133307147Y-66439525D01*
X133234186Y-66512174D01*
X133226927Y-66518857D01*
X133143263Y-66590034D01*
X133136951Y-66595065D01*
X133054635Y-66656462D01*
X133044977Y-66662993D01*
X132950541Y-66720670D01*
X132945102Y-66723808D01*
X132932414Y-66730714D01*
X132870641Y-66746036D01*
X127528250Y-66680869D01*
X127375000Y-66679000D01*
X127374999Y-66679000D01*
X127374998Y-66679000D01*
X126646728Y-67379156D01*
X126646727Y-67379158D01*
X126749834Y-85779140D01*
X126749835Y-85779142D01*
X127474998Y-86443999D01*
X127474999Y-86443999D01*
X127475000Y-86444000D01*
X127475000Y-86443999D01*
X127475001Y-86444000D01*
X127515324Y-86443794D01*
X132834283Y-86416683D01*
X132895690Y-86432303D01*
X132896442Y-86432717D01*
X132901810Y-86435847D01*
X132996240Y-86494078D01*
X133005861Y-86500644D01*
X133087732Y-86562257D01*
X133094002Y-86567298D01*
X133156109Y-86620597D01*
X133177585Y-86639027D01*
X133184814Y-86645740D01*
X133257274Y-86718511D01*
X133263957Y-86725770D01*
X133335329Y-86809663D01*
X133340359Y-86815974D01*
X133401597Y-86898075D01*
X133408129Y-86907735D01*
X133465967Y-87002435D01*
X133469105Y-87007873D01*
X133517608Y-87096986D01*
X133523398Y-87109125D01*
X133541427Y-87152780D01*
X133561662Y-87201777D01*
X133566579Y-87213681D01*
X133568199Y-87217810D01*
X133602806Y-87310866D01*
X133607243Y-87325438D01*
X133634937Y-87441105D01*
X133635536Y-87443730D01*
X133655343Y-87535030D01*
X133657820Y-87551879D01*
X133669526Y-87700928D01*
X133674181Y-87766160D01*
X133674500Y-87775101D01*
X133674500Y-87822758D01*
X133674553Y-87823249D01*
X133728518Y-141764035D01*
X133708584Y-141832176D01*
X133703711Y-141839234D01*
X133371231Y-142287396D01*
X133314580Y-142330187D01*
X133243787Y-142335558D01*
X133181328Y-142301802D01*
X133158715Y-142271342D01*
X133143078Y-142241848D01*
X133094737Y-142150666D01*
X132896690Y-141858568D01*
X132668223Y-141589595D01*
X132636446Y-141559494D01*
X132414497Y-141349252D01*
X132414485Y-141349242D01*
X132412013Y-141346900D01*
X132131066Y-141133330D01*
X131828674Y-140951387D01*
X131825576Y-140949953D01*
X131825569Y-140949950D01*
X131511482Y-140804638D01*
X131511477Y-140804636D01*
X131508384Y-140803205D01*
X131505155Y-140802117D01*
X131505150Y-140802115D01*
X131177186Y-140691611D01*
X131177180Y-140691609D01*
X131173950Y-140690521D01*
X131170625Y-140689789D01*
X131170614Y-140689786D01*
X130832624Y-140615389D01*
X130832620Y-140615388D01*
X130829293Y-140614656D01*
X130819448Y-140613585D01*
X130481852Y-140576869D01*
X130481841Y-140576868D01*
X130478454Y-140576500D01*
X130125546Y-140576500D01*
X130122159Y-140576868D01*
X130122147Y-140576869D01*
X129778099Y-140614287D01*
X129778097Y-140614287D01*
X129774707Y-140614656D01*
X129771382Y-140615387D01*
X129771375Y-140615389D01*
X129433385Y-140689786D01*
X129433369Y-140689790D01*
X129430050Y-140690521D01*
X129426824Y-140691607D01*
X129426813Y-140691611D01*
X129098849Y-140802115D01*
X129098838Y-140802119D01*
X129095616Y-140803205D01*
X129092528Y-140804633D01*
X129092517Y-140804638D01*
X128778430Y-140949950D01*
X128778416Y-140949957D01*
X128775326Y-140951387D01*
X128772400Y-140953147D01*
X128772399Y-140953148D01*
X128475866Y-141131565D01*
X128475854Y-141131572D01*
X128472934Y-141133330D01*
X128470218Y-141135393D01*
X128470210Y-141135400D01*
X128194705Y-141344833D01*
X128194695Y-141344840D01*
X128191987Y-141346900D01*
X128189521Y-141349235D01*
X128189502Y-141349252D01*
X127938257Y-141587245D01*
X127938249Y-141587252D01*
X127935777Y-141589595D01*
X127933580Y-141592181D01*
X127933571Y-141592191D01*
X127709521Y-141855964D01*
X127709513Y-141855973D01*
X127707310Y-141858568D01*
X127705398Y-141861386D01*
X127705388Y-141861401D01*
X127511188Y-142147827D01*
X127509263Y-142150666D01*
X127507668Y-142153673D01*
X127507661Y-142153686D01*
X127345560Y-142459441D01*
X127345555Y-142459451D01*
X127343958Y-142462464D01*
X127342695Y-142465632D01*
X127342693Y-142465638D01*
X127228795Y-142751501D01*
X127213333Y-142790307D01*
X127212422Y-142793587D01*
X127212419Y-142793597D01*
X127119832Y-143127062D01*
X127119827Y-143127082D01*
X127118920Y-143130351D01*
X127118370Y-143133703D01*
X127118367Y-143133719D01*
X127078618Y-143376180D01*
X127061826Y-143478610D01*
X127061641Y-143482003D01*
X127061641Y-143482013D01*
X127046888Y-143754125D01*
X127042720Y-143831000D01*
X127042905Y-143834412D01*
X127061640Y-144179976D01*
X127061826Y-144183390D01*
X127062376Y-144186743D01*
X127062377Y-144186753D01*
X127118367Y-144528280D01*
X127118369Y-144528292D01*
X127118920Y-144531649D01*
X127119828Y-144534921D01*
X127119832Y-144534937D01*
X127212416Y-144868392D01*
X127213333Y-144871693D01*
X127343958Y-145199536D01*
X127345555Y-145202548D01*
X127345560Y-145202558D01*
X127459036Y-145416597D01*
X127509263Y-145511334D01*
X127542641Y-145560563D01*
X127705388Y-145800598D01*
X127705392Y-145800604D01*
X127707310Y-145803432D01*
X127935777Y-146072405D01*
X127938257Y-146074754D01*
X128189502Y-146312747D01*
X128189511Y-146312754D01*
X128191987Y-146315100D01*
X128472934Y-146528670D01*
X128775326Y-146710613D01*
X129095616Y-146858795D01*
X129430050Y-146971479D01*
X129433386Y-146972213D01*
X129433385Y-146972213D01*
X129640746Y-147017857D01*
X129702975Y-147052035D01*
X129736846Y-147114431D01*
X129731607Y-147185234D01*
X129714856Y-147215980D01*
X129702550Y-147232569D01*
X129645900Y-147275363D01*
X129601354Y-147283500D01*
X82750927Y-147283500D01*
X82682806Y-147263498D01*
X82666106Y-147250674D01*
X82301471Y-146918727D01*
X82264562Y-146858078D01*
X82266302Y-146787103D01*
X82306138Y-146728335D01*
X82333092Y-146711388D01*
X82328561Y-146713635D01*
X82331577Y-146712035D01*
X82334674Y-146710603D01*
X82637066Y-146528660D01*
X82918013Y-146315090D01*
X83174223Y-146072395D01*
X83402690Y-145803422D01*
X83600737Y-145511324D01*
X83766042Y-145199526D01*
X83896667Y-144871683D01*
X83991080Y-144531639D01*
X84048174Y-144183380D01*
X84067280Y-143830990D01*
X84055949Y-143621999D01*
X88574058Y-143621999D01*
X88594175Y-143826248D01*
X88653752Y-144022645D01*
X88750501Y-144203652D01*
X88880700Y-144362299D01*
X89039347Y-144492498D01*
X89039351Y-144492500D01*
X89220353Y-144589247D01*
X89300252Y-144613484D01*
X89416751Y-144648824D01*
X89621000Y-144668941D01*
X89825248Y-144648824D01*
X90021647Y-144589247D01*
X90202649Y-144492500D01*
X90202650Y-144492498D01*
X90202652Y-144492498D01*
X90361299Y-144362299D01*
X90491498Y-144203652D01*
X90500536Y-144186743D01*
X90588247Y-144022647D01*
X90647824Y-143826248D01*
X90667941Y-143622000D01*
X90667172Y-143614187D01*
X90647824Y-143417751D01*
X90588247Y-143221354D01*
X90588247Y-143221353D01*
X90491500Y-143040351D01*
X90491498Y-143040347D01*
X90361299Y-142881700D01*
X90202652Y-142751501D01*
X90021645Y-142654752D01*
X89825248Y-142595175D01*
X89621000Y-142575058D01*
X89416751Y-142595175D01*
X89220354Y-142654752D01*
X89039347Y-142751501D01*
X88880700Y-142881700D01*
X88750501Y-143040347D01*
X88653752Y-143221354D01*
X88594175Y-143417751D01*
X88574058Y-143621999D01*
X84055949Y-143621999D01*
X84048174Y-143478600D01*
X83991080Y-143130341D01*
X83896667Y-142790297D01*
X83766042Y-142462454D01*
X83600737Y-142150656D01*
X83402690Y-141858558D01*
X83174223Y-141589585D01*
X83142446Y-141559484D01*
X82920497Y-141349242D01*
X82920487Y-141349233D01*
X82918013Y-141346890D01*
X82637066Y-141133320D01*
X82334674Y-140951377D01*
X82331576Y-140949943D01*
X82331569Y-140949940D01*
X82017482Y-140804628D01*
X82017477Y-140804626D01*
X82014384Y-140803195D01*
X82011155Y-140802107D01*
X82011150Y-140802105D01*
X81683186Y-140691601D01*
X81683180Y-140691599D01*
X81679950Y-140690511D01*
X81676625Y-140689779D01*
X81676614Y-140689776D01*
X81338624Y-140615379D01*
X81338620Y-140615378D01*
X81335293Y-140614646D01*
X81325448Y-140613575D01*
X80987852Y-140576859D01*
X80987841Y-140576858D01*
X80984454Y-140576490D01*
X80631546Y-140576490D01*
X80628159Y-140576858D01*
X80628147Y-140576859D01*
X80284099Y-140614277D01*
X80284097Y-140614277D01*
X80280707Y-140614646D01*
X80277382Y-140615377D01*
X80277375Y-140615379D01*
X79939385Y-140689776D01*
X79939369Y-140689780D01*
X79936050Y-140690511D01*
X79932824Y-140691597D01*
X79932813Y-140691601D01*
X79604849Y-140802105D01*
X79604838Y-140802109D01*
X79601616Y-140803195D01*
X79598528Y-140804623D01*
X79598517Y-140804628D01*
X79284430Y-140949940D01*
X79284416Y-140949947D01*
X79281326Y-140951377D01*
X79278400Y-140953137D01*
X79278399Y-140953138D01*
X78981866Y-141131555D01*
X78981854Y-141131562D01*
X78978934Y-141133320D01*
X78976218Y-141135383D01*
X78976210Y-141135390D01*
X78700705Y-141344823D01*
X78700695Y-141344830D01*
X78697987Y-141346890D01*
X78695521Y-141349225D01*
X78695502Y-141349242D01*
X78444257Y-141587235D01*
X78444249Y-141587242D01*
X78441777Y-141589585D01*
X78439580Y-141592171D01*
X78439571Y-141592181D01*
X78215521Y-141855954D01*
X78215513Y-141855963D01*
X78213310Y-141858558D01*
X78211398Y-141861376D01*
X78211388Y-141861391D01*
X78017181Y-142147827D01*
X78015263Y-142150656D01*
X78013668Y-142153663D01*
X78013661Y-142153676D01*
X77851560Y-142459431D01*
X77851555Y-142459441D01*
X77849958Y-142462454D01*
X77848697Y-142465617D01*
X77848695Y-142465623D01*
X77799229Y-142589771D01*
X77755432Y-142645649D01*
X77688378Y-142668979D01*
X77619356Y-142652354D01*
X77597359Y-142636308D01*
X77266995Y-142335558D01*
X77230679Y-142302497D01*
X77193770Y-142241848D01*
X77189500Y-142209323D01*
X77189500Y-131004901D01*
X79215500Y-131004901D01*
X79215501Y-131008254D01*
X79215860Y-131011596D01*
X79215861Y-131011610D01*
X79221959Y-131068338D01*
X79221959Y-131068340D01*
X79221960Y-131068342D01*
X79234596Y-131102219D01*
X79272658Y-131204268D01*
X79359595Y-131320404D01*
X79475731Y-131407341D01*
X79475732Y-131407341D01*
X79475733Y-131407342D01*
X79611658Y-131458040D01*
X79657076Y-131462923D01*
X79668377Y-131464138D01*
X79671745Y-131464500D01*
X81268254Y-131464499D01*
X81328342Y-131458040D01*
X81464267Y-131407342D01*
X81580404Y-131320404D01*
X81667342Y-131204267D01*
X81718040Y-131068342D01*
X81724500Y-131008255D01*
X81724499Y-129711746D01*
X81718040Y-129651658D01*
X81667342Y-129515733D01*
X81667341Y-129515731D01*
X81580404Y-129399595D01*
X81464268Y-129312658D01*
X81328339Y-129261959D01*
X81271603Y-129255859D01*
X81271585Y-129255858D01*
X81268255Y-129255500D01*
X81264887Y-129255500D01*
X79675116Y-129255500D01*
X79675097Y-129255500D01*
X79671746Y-129255501D01*
X79668404Y-129255860D01*
X79668389Y-129255861D01*
X79611661Y-129261959D01*
X79475731Y-129312658D01*
X79359595Y-129399595D01*
X79272658Y-129515731D01*
X79221959Y-129651660D01*
X79215859Y-129708396D01*
X79215857Y-129708415D01*
X79215500Y-129711745D01*
X79215500Y-129715111D01*
X79215500Y-129715112D01*
X79215500Y-131004883D01*
X79215500Y-131004901D01*
X77189500Y-131004901D01*
X77189500Y-120254395D01*
X77209502Y-120186274D01*
X77263158Y-120139781D01*
X77282509Y-120132791D01*
X77959133Y-119949273D01*
X78030109Y-119950745D01*
X78081205Y-119981783D01*
X78126307Y-120026884D01*
X78132816Y-120033906D01*
X78171364Y-120078809D01*
X78195444Y-120097448D01*
X78207414Y-120107991D01*
X84695595Y-126596172D01*
X84729621Y-126658484D01*
X84732500Y-126685267D01*
X84732500Y-132192732D01*
X84712498Y-132260853D01*
X84658842Y-132307346D01*
X84588568Y-132317450D01*
X84523988Y-132287956D01*
X84517405Y-132281827D01*
X84395419Y-132159841D01*
X84393190Y-132157556D01*
X84332677Y-132093896D01*
X84284121Y-132060100D01*
X84276478Y-132054337D01*
X84230620Y-132016946D01*
X84203629Y-132002847D01*
X84189987Y-131994582D01*
X84165000Y-131977190D01*
X84110625Y-131953855D01*
X84101980Y-131949749D01*
X84049539Y-131922357D01*
X84020263Y-131913980D01*
X84005236Y-131908630D01*
X83977260Y-131896624D01*
X83919307Y-131884714D01*
X83910015Y-131882434D01*
X83894051Y-131877866D01*
X83853125Y-131866156D01*
X83822768Y-131863844D01*
X83806980Y-131861630D01*
X83787359Y-131857598D01*
X83777148Y-131855500D01*
X83777147Y-131855500D01*
X83717975Y-131855500D01*
X83708407Y-131855136D01*
X83649422Y-131850644D01*
X83649421Y-131850644D01*
X83634022Y-131852605D01*
X83619224Y-131854490D01*
X83603306Y-131855500D01*
X81106945Y-131855500D01*
X81060117Y-131846474D01*
X80932589Y-131795420D01*
X80725467Y-131755500D01*
X80267387Y-131755500D01*
X80264409Y-131755784D01*
X80264395Y-131755785D01*
X80110022Y-131770526D01*
X79907633Y-131829952D01*
X79720143Y-131926610D01*
X79554343Y-132056997D01*
X79416207Y-132216413D01*
X79310740Y-132399087D01*
X79241751Y-132598420D01*
X79211732Y-132807206D01*
X79221768Y-133017901D01*
X79271498Y-133222888D01*
X79359125Y-133414766D01*
X79481474Y-133586580D01*
X79481477Y-133586583D01*
X79481478Y-133586584D01*
X79634138Y-133732145D01*
X79698594Y-133773568D01*
X79811590Y-133846186D01*
X80007407Y-133924579D01*
X80007409Y-133924579D01*
X80007411Y-133924580D01*
X80214533Y-133964500D01*
X80669612Y-133964500D01*
X80672613Y-133964500D01*
X80829979Y-133949473D01*
X81032368Y-133890047D01*
X81049304Y-133881315D01*
X81054753Y-133878507D01*
X81112490Y-133864500D01*
X83206733Y-133864500D01*
X83274854Y-133884502D01*
X83295828Y-133901405D01*
X84996313Y-135601891D01*
X85002822Y-135608913D01*
X85041364Y-135653809D01*
X85054064Y-135663640D01*
X85068253Y-135676458D01*
X85079322Y-135688103D01*
X85127884Y-135721903D01*
X85135521Y-135727662D01*
X85181375Y-135765051D01*
X85181378Y-135765052D01*
X85181380Y-135765054D01*
X85182828Y-135765810D01*
X85201621Y-135777857D01*
X85202916Y-135778859D01*
X85217328Y-135785929D01*
X85233817Y-135795635D01*
X85246999Y-135804810D01*
X85301372Y-135828143D01*
X85310009Y-135832244D01*
X85362459Y-135859642D01*
X85362461Y-135859642D01*
X85362462Y-135859643D01*
X85364025Y-135860090D01*
X85384867Y-135868111D01*
X85386333Y-135868830D01*
X85401880Y-135872855D01*
X85419984Y-135879043D01*
X85434739Y-135885375D01*
X85492705Y-135897287D01*
X85501992Y-135899567D01*
X85558872Y-135915843D01*
X85560502Y-135915967D01*
X85582517Y-135919625D01*
X85584106Y-135920037D01*
X85600152Y-135920850D01*
X85619119Y-135923266D01*
X85634852Y-135926500D01*
X85694024Y-135926500D01*
X85703591Y-135926864D01*
X85707655Y-135927173D01*
X85762578Y-135931356D01*
X85764196Y-135931149D01*
X85786506Y-135930301D01*
X85788139Y-135930384D01*
X85804007Y-135927952D01*
X85823088Y-135926500D01*
X88192733Y-135926500D01*
X88260854Y-135946502D01*
X88281828Y-135963405D01*
X91165595Y-138847172D01*
X91199621Y-138909484D01*
X91202500Y-138936267D01*
X91202500Y-143173828D01*
X91197074Y-143210404D01*
X91134175Y-143417751D01*
X91114058Y-143622000D01*
X91134175Y-143826248D01*
X91193752Y-144022645D01*
X91290501Y-144203652D01*
X91420700Y-144362299D01*
X91579347Y-144492498D01*
X91579351Y-144492500D01*
X91760353Y-144589247D01*
X91840252Y-144613484D01*
X91956751Y-144648824D01*
X92160999Y-144668941D01*
X92160999Y-144668940D01*
X92161000Y-144668941D01*
X92365248Y-144648824D01*
X92561647Y-144589247D01*
X92742649Y-144492500D01*
X92742650Y-144492498D01*
X92742652Y-144492498D01*
X92901299Y-144362299D01*
X93031498Y-144203652D01*
X93040536Y-144186743D01*
X93128247Y-144022647D01*
X93187824Y-143826248D01*
X93190705Y-143796992D01*
X93194959Y-143774688D01*
X93200843Y-143754127D01*
X93203154Y-143723772D01*
X93205370Y-143707973D01*
X93211500Y-143678148D01*
X93211500Y-143621999D01*
X93654058Y-143621999D01*
X93674175Y-143826248D01*
X93733752Y-144022645D01*
X93830501Y-144203652D01*
X93960700Y-144362299D01*
X94119347Y-144492498D01*
X94119351Y-144492500D01*
X94300353Y-144589247D01*
X94496752Y-144648824D01*
X94500224Y-144649166D01*
X94507313Y-144652028D01*
X94508628Y-144652427D01*
X94508592Y-144652544D01*
X94566055Y-144675746D01*
X94607067Y-144733699D01*
X94610236Y-144804625D01*
X94574557Y-144866005D01*
X94524831Y-144891455D01*
X94525820Y-144894497D01*
X94513226Y-144898588D01*
X94513225Y-144898589D01*
X94485578Y-144907571D01*
X94333656Y-144956933D01*
X94170141Y-145051339D01*
X94029831Y-145177675D01*
X93918852Y-145330425D01*
X93880486Y-145416597D01*
X93842055Y-145502913D01*
X93802800Y-145687596D01*
X93802800Y-145876406D01*
X93842055Y-146061089D01*
X93918851Y-146233575D01*
X93976366Y-146312737D01*
X94029831Y-146386326D01*
X94170141Y-146512662D01*
X94333656Y-146607068D01*
X94404961Y-146630236D01*
X94513225Y-146665413D01*
X94653923Y-146680201D01*
X94657213Y-146680201D01*
X94744787Y-146680201D01*
X94748077Y-146680201D01*
X94888775Y-146665413D01*
X95068343Y-146607068D01*
X95231857Y-146512663D01*
X95372170Y-146386325D01*
X95483149Y-146233575D01*
X95559945Y-146061089D01*
X95596311Y-145890000D01*
X100005726Y-145890000D01*
X100024763Y-146058956D01*
X100037409Y-146095095D01*
X100080918Y-146219437D01*
X100139542Y-146312737D01*
X100171377Y-146363402D01*
X100291597Y-146483622D01*
X100291599Y-146483623D01*
X100291600Y-146483624D01*
X100435563Y-146574082D01*
X100596046Y-146630237D01*
X100765000Y-146649274D01*
X100933954Y-146630237D01*
X101094437Y-146574082D01*
X101238400Y-146483624D01*
X101358624Y-146363400D01*
X101449082Y-146219437D01*
X101505237Y-146058954D01*
X101524274Y-145890000D01*
X101505237Y-145721046D01*
X101449082Y-145560563D01*
X101358624Y-145416600D01*
X101358623Y-145416599D01*
X101358622Y-145416597D01*
X101238402Y-145296377D01*
X101196647Y-145270141D01*
X101094437Y-145205918D01*
X101040942Y-145187199D01*
X100933956Y-145149763D01*
X100765000Y-145130726D01*
X100596043Y-145149763D01*
X100435563Y-145205918D01*
X100291597Y-145296377D01*
X100171377Y-145416597D01*
X100080918Y-145560563D01*
X100024763Y-145721043D01*
X100005726Y-145890000D01*
X95596311Y-145890000D01*
X95599200Y-145876406D01*
X95599200Y-145687596D01*
X95559945Y-145502913D01*
X95483149Y-145330427D01*
X95372170Y-145177677D01*
X95363888Y-145170220D01*
X95231858Y-145051339D01*
X95068343Y-144956933D01*
X94926099Y-144910716D01*
X94888775Y-144898589D01*
X94888773Y-144898588D01*
X94876180Y-144894497D01*
X94877559Y-144890250D01*
X94835234Y-144872806D01*
X94794641Y-144814559D01*
X94791983Y-144743612D01*
X94828103Y-144682491D01*
X94891534Y-144650600D01*
X94901759Y-144649167D01*
X94905248Y-144648824D01*
X95101647Y-144589247D01*
X95282649Y-144492500D01*
X95282650Y-144492498D01*
X95282652Y-144492498D01*
X95441299Y-144362299D01*
X95571498Y-144203652D01*
X95580536Y-144186743D01*
X95668247Y-144022647D01*
X95727824Y-143826248D01*
X95747941Y-143622000D01*
X96194058Y-143622000D01*
X96214175Y-143826248D01*
X96273752Y-144022645D01*
X96370501Y-144203652D01*
X96500700Y-144362299D01*
X96659347Y-144492498D01*
X96659351Y-144492500D01*
X96840353Y-144589247D01*
X96920252Y-144613484D01*
X97036751Y-144648824D01*
X97241000Y-144668941D01*
X97445248Y-144648824D01*
X97641647Y-144589247D01*
X97822649Y-144492500D01*
X97822650Y-144492498D01*
X97822652Y-144492498D01*
X97868260Y-144455068D01*
X108245500Y-144455068D01*
X108260265Y-144529300D01*
X108316515Y-144613484D01*
X108366506Y-144646887D01*
X108400699Y-144669734D01*
X108474933Y-144684500D01*
X110225066Y-144684499D01*
X110225068Y-144684499D01*
X110274556Y-144674655D01*
X110299301Y-144669734D01*
X110383484Y-144613484D01*
X110439734Y-144529301D01*
X110454500Y-144455067D01*
X110454499Y-143579999D01*
X110780767Y-143579999D01*
X110799654Y-143783819D01*
X110855672Y-143980702D01*
X110946910Y-144163933D01*
X110976905Y-144203652D01*
X111070268Y-144327285D01*
X111221538Y-144465186D01*
X111395573Y-144572944D01*
X111586444Y-144646888D01*
X111787653Y-144684500D01*
X111787655Y-144684500D01*
X111992345Y-144684500D01*
X111992347Y-144684500D01*
X112193556Y-144646888D01*
X112384427Y-144572944D01*
X112558462Y-144465186D01*
X112709732Y-144327285D01*
X112833088Y-144163935D01*
X112924328Y-143980701D01*
X112980345Y-143783821D01*
X112999232Y-143580000D01*
X113320767Y-143580000D01*
X113339654Y-143783819D01*
X113395672Y-143980702D01*
X113486910Y-144163933D01*
X113516905Y-144203652D01*
X113610268Y-144327285D01*
X113761538Y-144465186D01*
X113935573Y-144572944D01*
X114126444Y-144646888D01*
X114327653Y-144684500D01*
X114327655Y-144684500D01*
X114532345Y-144684500D01*
X114532347Y-144684500D01*
X114733556Y-144646888D01*
X114924427Y-144572944D01*
X115098462Y-144465186D01*
X115249732Y-144327285D01*
X115373088Y-144163935D01*
X115464328Y-143980701D01*
X115520345Y-143783821D01*
X115539232Y-143580000D01*
X115539232Y-143579999D01*
X115860767Y-143579999D01*
X115879654Y-143783819D01*
X115935672Y-143980702D01*
X116026910Y-144163933D01*
X116056905Y-144203652D01*
X116150268Y-144327285D01*
X116301538Y-144465186D01*
X116475573Y-144572944D01*
X116666444Y-144646888D01*
X116867653Y-144684500D01*
X116867655Y-144684500D01*
X117072345Y-144684500D01*
X117072347Y-144684500D01*
X117273556Y-144646888D01*
X117464427Y-144572944D01*
X117638462Y-144465186D01*
X117789732Y-144327285D01*
X117913088Y-144163935D01*
X118004328Y-143980701D01*
X118060345Y-143783821D01*
X118079232Y-143580000D01*
X118400767Y-143580000D01*
X118419654Y-143783819D01*
X118475672Y-143980702D01*
X118566910Y-144163933D01*
X118596905Y-144203652D01*
X118690268Y-144327285D01*
X118841538Y-144465186D01*
X119015573Y-144572944D01*
X119206444Y-144646888D01*
X119407653Y-144684500D01*
X119407655Y-144684500D01*
X119612345Y-144684500D01*
X119612347Y-144684500D01*
X119813556Y-144646888D01*
X120004427Y-144572944D01*
X120178462Y-144465186D01*
X120329732Y-144327285D01*
X120453088Y-144163935D01*
X120544328Y-143980701D01*
X120600345Y-143783821D01*
X120619232Y-143580000D01*
X120600345Y-143376179D01*
X120544328Y-143179299D01*
X120475138Y-143040347D01*
X120453089Y-142996066D01*
X120366724Y-142881701D01*
X120329732Y-142832715D01*
X120178462Y-142694814D01*
X120074913Y-142630699D01*
X120004428Y-142587056D01*
X119899779Y-142546515D01*
X119813556Y-142513112D01*
X119612347Y-142475500D01*
X119407653Y-142475500D01*
X119206443Y-142513111D01*
X119206444Y-142513112D01*
X119015571Y-142587056D01*
X118841539Y-142694813D01*
X118690267Y-142832716D01*
X118566910Y-142996066D01*
X118475672Y-143179297D01*
X118419654Y-143376180D01*
X118400767Y-143580000D01*
X118079232Y-143580000D01*
X118060345Y-143376179D01*
X118004328Y-143179299D01*
X117935138Y-143040347D01*
X117913089Y-142996066D01*
X117826724Y-142881701D01*
X117789732Y-142832715D01*
X117638462Y-142694814D01*
X117534913Y-142630699D01*
X117464428Y-142587056D01*
X117359779Y-142546515D01*
X117273556Y-142513112D01*
X117072347Y-142475500D01*
X116867653Y-142475500D01*
X116666443Y-142513111D01*
X116666444Y-142513112D01*
X116475571Y-142587056D01*
X116301539Y-142694813D01*
X116150267Y-142832716D01*
X116026910Y-142996066D01*
X115935672Y-143179297D01*
X115879654Y-143376180D01*
X115860767Y-143579999D01*
X115539232Y-143579999D01*
X115520345Y-143376179D01*
X115464328Y-143179299D01*
X115395138Y-143040347D01*
X115373089Y-142996066D01*
X115286724Y-142881701D01*
X115249732Y-142832715D01*
X115098462Y-142694814D01*
X114994913Y-142630699D01*
X114924428Y-142587056D01*
X114819779Y-142546515D01*
X114733556Y-142513112D01*
X114532347Y-142475500D01*
X114327653Y-142475500D01*
X114126444Y-142513111D01*
X114126444Y-142513112D01*
X113935571Y-142587056D01*
X113761539Y-142694813D01*
X113610267Y-142832716D01*
X113486910Y-142996066D01*
X113395672Y-143179297D01*
X113339654Y-143376180D01*
X113320767Y-143580000D01*
X112999232Y-143580000D01*
X112980345Y-143376179D01*
X112924328Y-143179299D01*
X112855138Y-143040347D01*
X112833089Y-142996066D01*
X112746724Y-142881701D01*
X112709732Y-142832715D01*
X112558462Y-142694814D01*
X112454913Y-142630699D01*
X112384428Y-142587056D01*
X112279779Y-142546515D01*
X112193556Y-142513112D01*
X111992347Y-142475500D01*
X111787653Y-142475500D01*
X111586443Y-142513111D01*
X111586444Y-142513112D01*
X111395571Y-142587056D01*
X111221539Y-142694813D01*
X111070267Y-142832716D01*
X110946910Y-142996066D01*
X110855672Y-143179297D01*
X110799654Y-143376180D01*
X110780767Y-143579999D01*
X110454499Y-143579999D01*
X110454499Y-142704934D01*
X110454499Y-142704933D01*
X110454499Y-142704931D01*
X110439734Y-142630699D01*
X110383484Y-142546515D01*
X110299301Y-142490266D01*
X110299296Y-142490265D01*
X110225067Y-142475500D01*
X110225066Y-142475500D01*
X108474931Y-142475500D01*
X108400699Y-142490265D01*
X108316515Y-142546515D01*
X108260266Y-142630698D01*
X108245500Y-142704933D01*
X108245500Y-144455068D01*
X97868260Y-144455068D01*
X97981299Y-144362299D01*
X98111498Y-144203652D01*
X98120536Y-144186743D01*
X98208247Y-144022647D01*
X98267824Y-143826248D01*
X98287941Y-143622000D01*
X98267824Y-143417752D01*
X98208247Y-143221353D01*
X98111500Y-143040351D01*
X98111498Y-143040347D01*
X97981299Y-142881700D01*
X97822652Y-142751501D01*
X97641645Y-142654752D01*
X97445248Y-142595175D01*
X97240999Y-142575058D01*
X97036751Y-142595175D01*
X96840354Y-142654752D01*
X96659347Y-142751501D01*
X96500700Y-142881700D01*
X96370501Y-143040347D01*
X96273752Y-143221354D01*
X96214175Y-143417751D01*
X96194058Y-143622000D01*
X95747941Y-143622000D01*
X95747172Y-143614187D01*
X95727824Y-143417751D01*
X95668247Y-143221354D01*
X95668247Y-143221353D01*
X95571500Y-143040351D01*
X95571498Y-143040347D01*
X95441299Y-142881700D01*
X95282652Y-142751501D01*
X95101645Y-142654752D01*
X94905248Y-142595175D01*
X94701000Y-142575058D01*
X94496751Y-142595175D01*
X94300354Y-142654752D01*
X94119347Y-142751501D01*
X93960700Y-142881700D01*
X93830501Y-143040347D01*
X93733752Y-143221354D01*
X93674175Y-143417751D01*
X93654058Y-143621999D01*
X93211500Y-143621999D01*
X93211500Y-143618950D01*
X93211861Y-143609435D01*
X93216356Y-143550422D01*
X93212510Y-143520224D01*
X93211500Y-143504305D01*
X93211500Y-138482314D01*
X93211540Y-138479122D01*
X93213765Y-138391332D01*
X93203327Y-138333096D01*
X93201999Y-138323637D01*
X93196012Y-138264753D01*
X93186894Y-138235694D01*
X93183094Y-138220209D01*
X93177722Y-138190238D01*
X93155774Y-138135295D01*
X93152566Y-138126287D01*
X93134853Y-138069827D01*
X93134852Y-138069825D01*
X93120074Y-138043200D01*
X93113236Y-138028803D01*
X93101940Y-138000522D01*
X93093779Y-137988139D01*
X93069378Y-137951113D01*
X93064417Y-137942926D01*
X93058112Y-137931567D01*
X93035708Y-137891202D01*
X93035705Y-137891198D01*
X93015877Y-137868101D01*
X93006273Y-137855364D01*
X92989516Y-137829938D01*
X92947691Y-137788113D01*
X92941183Y-137781091D01*
X92902638Y-137736192D01*
X92878554Y-137717550D01*
X92866584Y-137707007D01*
X92549577Y-137390000D01*
X93920693Y-137390000D01*
X93939850Y-137547780D01*
X93996212Y-137696394D01*
X94067994Y-137800387D01*
X94086502Y-137827201D01*
X94205471Y-137932599D01*
X94346207Y-138006463D01*
X94500529Y-138044500D01*
X94500531Y-138044500D01*
X94659469Y-138044500D01*
X94659471Y-138044500D01*
X94813793Y-138006463D01*
X94954529Y-137932599D01*
X95073498Y-137827201D01*
X95163787Y-137696395D01*
X95220149Y-137547782D01*
X95239307Y-137390000D01*
X95220149Y-137232218D01*
X95163787Y-137083605D01*
X95073498Y-136952799D01*
X94954529Y-136847401D01*
X94813793Y-136773537D01*
X94659471Y-136735500D01*
X94500529Y-136735500D01*
X94346207Y-136773537D01*
X94346206Y-136773537D01*
X94346204Y-136773538D01*
X94205472Y-136847400D01*
X94086501Y-136952799D01*
X93996212Y-137083605D01*
X93939850Y-137232219D01*
X93920693Y-137390000D01*
X92549577Y-137390000D01*
X91675577Y-136516000D01*
X98022693Y-136516000D01*
X98041850Y-136673780D01*
X98098212Y-136822394D01*
X98188225Y-136952799D01*
X98188502Y-136953201D01*
X98307471Y-137058599D01*
X98448207Y-137132463D01*
X98602529Y-137170500D01*
X98602531Y-137170500D01*
X98761469Y-137170500D01*
X98761471Y-137170500D01*
X98915793Y-137132463D01*
X99056529Y-137058599D01*
X99175498Y-136953201D01*
X99265787Y-136822395D01*
X99322149Y-136673782D01*
X99341307Y-136516000D01*
X99337079Y-136481182D01*
X124379500Y-136481182D01*
X124418604Y-136740615D01*
X124418605Y-136740618D01*
X124495936Y-136991323D01*
X124609772Y-137227704D01*
X124757563Y-137444474D01*
X124757565Y-137444476D01*
X124757567Y-137444479D01*
X124936019Y-137636805D01*
X125141143Y-137800386D01*
X125368357Y-137931568D01*
X125612584Y-138027420D01*
X125868370Y-138085802D01*
X126064506Y-138100500D01*
X126066859Y-138100500D01*
X126193141Y-138100500D01*
X126195494Y-138100500D01*
X126391630Y-138085802D01*
X126647416Y-138027420D01*
X126891643Y-137931568D01*
X127118857Y-137800386D01*
X127323981Y-137636805D01*
X127502433Y-137444479D01*
X127650228Y-137227704D01*
X127764063Y-136991323D01*
X127841396Y-136740615D01*
X127880500Y-136481182D01*
X127880500Y-136218818D01*
X127841396Y-135959385D01*
X127769919Y-135727662D01*
X127764063Y-135708676D01*
X127709242Y-135594840D01*
X127650228Y-135472296D01*
X127502433Y-135255521D01*
X127323981Y-135063195D01*
X127118857Y-134899614D01*
X126891643Y-134768432D01*
X126647417Y-134672580D01*
X126391630Y-134614198D01*
X126197836Y-134599675D01*
X126197822Y-134599674D01*
X126195494Y-134599500D01*
X126064506Y-134599500D01*
X126062178Y-134599674D01*
X126062163Y-134599675D01*
X125868369Y-134614198D01*
X125612582Y-134672580D01*
X125368356Y-134768432D01*
X125141146Y-134899612D01*
X125141143Y-134899614D01*
X124936019Y-135063195D01*
X124797525Y-135212455D01*
X124757563Y-135255525D01*
X124609772Y-135472295D01*
X124495936Y-135708676D01*
X124422578Y-135946502D01*
X124418604Y-135959385D01*
X124379500Y-136218818D01*
X124379500Y-136481182D01*
X99337079Y-136481182D01*
X99322149Y-136358218D01*
X99265787Y-136209605D01*
X99175498Y-136078799D01*
X99056529Y-135973401D01*
X98976417Y-135931355D01*
X98915795Y-135899538D01*
X98915794Y-135899537D01*
X98915793Y-135899537D01*
X98761471Y-135861500D01*
X98602529Y-135861500D01*
X98448207Y-135899537D01*
X98448206Y-135899537D01*
X98448204Y-135899538D01*
X98307472Y-135973400D01*
X98188501Y-136078799D01*
X98098212Y-136209605D01*
X98041850Y-136358219D01*
X98022693Y-136516000D01*
X91675577Y-136516000D01*
X89381418Y-134221840D01*
X89379189Y-134219555D01*
X89318677Y-134155896D01*
X89270121Y-134122100D01*
X89262478Y-134116337D01*
X89216620Y-134078946D01*
X89189629Y-134064847D01*
X89175987Y-134056582D01*
X89151000Y-134039190D01*
X89096625Y-134015855D01*
X89087980Y-134011749D01*
X89035539Y-133984357D01*
X89006263Y-133975980D01*
X88991236Y-133970630D01*
X88963260Y-133958624D01*
X88905307Y-133946714D01*
X88896015Y-133944434D01*
X88880051Y-133939866D01*
X88839125Y-133928156D01*
X88808768Y-133925844D01*
X88792980Y-133923630D01*
X88773359Y-133919598D01*
X88763148Y-133917500D01*
X88763147Y-133917500D01*
X88703975Y-133917500D01*
X88694407Y-133917136D01*
X88635422Y-133912644D01*
X88635421Y-133912644D01*
X88620022Y-133914605D01*
X88605224Y-133916490D01*
X88589306Y-133917500D01*
X87149818Y-133917500D01*
X87081697Y-133897498D01*
X87035204Y-133843842D01*
X87025100Y-133773568D01*
X87054594Y-133708988D01*
X87060723Y-133702405D01*
X87975348Y-132787780D01*
X88133128Y-132630000D01*
X94600693Y-132630000D01*
X94619850Y-132787780D01*
X94676212Y-132936394D01*
X94732473Y-133017901D01*
X94766502Y-133067201D01*
X94885471Y-133172599D01*
X95026207Y-133246463D01*
X95180529Y-133284500D01*
X95180531Y-133284500D01*
X95339469Y-133284500D01*
X95339471Y-133284500D01*
X95493793Y-133246463D01*
X95634529Y-133172599D01*
X95753498Y-133067201D01*
X95843787Y-132936395D01*
X95900149Y-132787782D01*
X95919307Y-132630000D01*
X95900149Y-132472218D01*
X95843787Y-132323605D01*
X95841299Y-132320000D01*
X104670693Y-132320000D01*
X104689850Y-132477780D01*
X104746212Y-132626394D01*
X104748701Y-132629999D01*
X104836502Y-132757201D01*
X104955471Y-132862599D01*
X105096207Y-132936463D01*
X105250529Y-132974500D01*
X105250531Y-132974500D01*
X105409469Y-132974500D01*
X105409471Y-132974500D01*
X105563793Y-132936463D01*
X105704529Y-132862599D01*
X105823498Y-132757201D01*
X105913787Y-132626395D01*
X105970149Y-132477782D01*
X105989307Y-132320000D01*
X105970149Y-132162218D01*
X105913787Y-132013605D01*
X105823498Y-131882799D01*
X105704529Y-131777401D01*
X105563793Y-131703537D01*
X105409471Y-131665500D01*
X105250529Y-131665500D01*
X105096207Y-131703537D01*
X105096206Y-131703537D01*
X105096204Y-131703538D01*
X104955472Y-131777400D01*
X104836501Y-131882799D01*
X104746212Y-132013605D01*
X104689850Y-132162219D01*
X104670693Y-132320000D01*
X95841299Y-132320000D01*
X95753498Y-132192799D01*
X95634529Y-132087401D01*
X95493793Y-132013537D01*
X95339471Y-131975500D01*
X95180529Y-131975500D01*
X95026207Y-132013537D01*
X95026206Y-132013537D01*
X95026204Y-132013538D01*
X94885472Y-132087400D01*
X94766501Y-132192799D01*
X94676212Y-132323605D01*
X94619850Y-132472219D01*
X94600693Y-132630000D01*
X88133128Y-132630000D01*
X88908647Y-131854480D01*
X88967583Y-131821239D01*
X89116793Y-131784463D01*
X89234031Y-131722931D01*
X89292584Y-131708500D01*
X90444740Y-131708500D01*
X90503295Y-131722932D01*
X90506470Y-131724598D01*
X90506471Y-131724599D01*
X90647207Y-131798463D01*
X90801529Y-131836500D01*
X90801531Y-131836500D01*
X90960469Y-131836500D01*
X90960471Y-131836500D01*
X91114793Y-131798463D01*
X91255529Y-131724599D01*
X91255529Y-131724598D01*
X91258705Y-131722932D01*
X91317260Y-131708500D01*
X97989195Y-131708500D01*
X98057316Y-131728502D01*
X98072748Y-131740187D01*
X98075469Y-131742598D01*
X98075471Y-131742599D01*
X98216207Y-131816463D01*
X98370529Y-131854500D01*
X98370531Y-131854500D01*
X98529469Y-131854500D01*
X98529471Y-131854500D01*
X98683793Y-131816463D01*
X98824529Y-131742599D01*
X98943498Y-131637201D01*
X99033787Y-131506395D01*
X99090149Y-131357782D01*
X99102022Y-131259999D01*
X112320693Y-131259999D01*
X112339850Y-131417780D01*
X112396212Y-131566394D01*
X112396213Y-131566395D01*
X112486502Y-131697201D01*
X112605471Y-131802599D01*
X112746207Y-131876463D01*
X112900529Y-131914500D01*
X112900531Y-131914500D01*
X113059469Y-131914500D01*
X113059471Y-131914500D01*
X113213793Y-131876463D01*
X113354529Y-131802599D01*
X113473498Y-131697201D01*
X113563787Y-131566395D01*
X113620149Y-131417782D01*
X113639307Y-131260000D01*
X113620149Y-131102218D01*
X113563787Y-130953605D01*
X113473498Y-130822799D01*
X113354529Y-130717401D01*
X113213793Y-130643537D01*
X113059471Y-130605500D01*
X112900529Y-130605500D01*
X112746207Y-130643537D01*
X112746206Y-130643537D01*
X112746204Y-130643538D01*
X112605472Y-130717400D01*
X112486501Y-130822799D01*
X112396212Y-130953605D01*
X112339850Y-131102219D01*
X112320693Y-131259999D01*
X99102022Y-131259999D01*
X99109307Y-131200000D01*
X99090149Y-131042218D01*
X99033787Y-130893605D01*
X98943498Y-130762799D01*
X98824529Y-130657401D01*
X98683793Y-130583537D01*
X98529471Y-130545500D01*
X98370529Y-130545500D01*
X98216207Y-130583536D01*
X98216207Y-130583537D01*
X98075469Y-130657401D01*
X98072748Y-130659813D01*
X98008495Y-130690013D01*
X97989195Y-130691500D01*
X91362122Y-130691500D01*
X91294001Y-130671498D01*
X91278569Y-130659813D01*
X91278568Y-130659812D01*
X91255529Y-130639401D01*
X91114793Y-130565537D01*
X90960471Y-130527500D01*
X90801529Y-130527500D01*
X90647207Y-130565537D01*
X90647206Y-130565537D01*
X90647204Y-130565538D01*
X90506472Y-130639400D01*
X90506470Y-130639401D01*
X90506471Y-130639401D01*
X90486154Y-130657401D01*
X90483431Y-130659813D01*
X90419178Y-130690013D01*
X90399878Y-130691500D01*
X89379925Y-130691500D01*
X89311804Y-130671498D01*
X89296371Y-130659812D01*
X89257530Y-130625401D01*
X89177764Y-130583537D01*
X89116793Y-130551537D01*
X88962471Y-130513500D01*
X88803529Y-130513500D01*
X88649207Y-130551537D01*
X88649206Y-130551537D01*
X88649204Y-130551538D01*
X88508472Y-130625400D01*
X88389501Y-130730799D01*
X88299213Y-130861604D01*
X88242850Y-131010219D01*
X88238167Y-131048785D01*
X88210098Y-131113997D01*
X88202181Y-131122689D01*
X86956595Y-132368276D01*
X86894283Y-132402301D01*
X86823468Y-132397237D01*
X86766632Y-132354690D01*
X86741821Y-132288170D01*
X86741500Y-132279181D01*
X86741500Y-130240000D01*
X103770693Y-130240000D01*
X103789850Y-130397780D01*
X103846212Y-130546394D01*
X103910411Y-130639401D01*
X103936502Y-130677201D01*
X104055471Y-130782599D01*
X104196207Y-130856463D01*
X104350529Y-130894500D01*
X104350531Y-130894500D01*
X104509469Y-130894500D01*
X104509471Y-130894500D01*
X104663793Y-130856463D01*
X104804529Y-130782599D01*
X104923498Y-130677201D01*
X105013787Y-130546395D01*
X105070149Y-130397782D01*
X105089307Y-130240000D01*
X105070149Y-130082218D01*
X105013787Y-129933605D01*
X104923498Y-129802799D01*
X104804529Y-129697401D01*
X104663793Y-129623537D01*
X104509471Y-129585500D01*
X104350529Y-129585500D01*
X104196207Y-129623537D01*
X104196206Y-129623537D01*
X104196204Y-129623538D01*
X104055472Y-129697400D01*
X103936501Y-129802799D01*
X103846212Y-129933605D01*
X103789850Y-130082219D01*
X103770693Y-130240000D01*
X86741500Y-130240000D01*
X86741500Y-129308999D01*
X90237693Y-129308999D01*
X90256850Y-129466780D01*
X90313212Y-129615394D01*
X90382046Y-129715116D01*
X90403502Y-129746201D01*
X90522471Y-129851599D01*
X90663207Y-129925463D01*
X90817529Y-129963500D01*
X90817531Y-129963500D01*
X90976469Y-129963500D01*
X90976471Y-129963500D01*
X91130793Y-129925463D01*
X91271529Y-129851599D01*
X91390498Y-129746201D01*
X91480787Y-129615395D01*
X91537149Y-129466782D01*
X91556307Y-129309000D01*
X91537149Y-129151218D01*
X91480787Y-129002605D01*
X91472086Y-128989999D01*
X116250693Y-128989999D01*
X116269850Y-129147780D01*
X116326212Y-129296394D01*
X116397448Y-129399596D01*
X116416502Y-129427201D01*
X116535471Y-129532599D01*
X116676207Y-129606463D01*
X116830529Y-129644500D01*
X116830531Y-129644500D01*
X116989469Y-129644500D01*
X116989471Y-129644500D01*
X117143793Y-129606463D01*
X117284529Y-129532599D01*
X117403498Y-129427201D01*
X117493787Y-129296395D01*
X117550149Y-129147782D01*
X117569307Y-128990000D01*
X117550149Y-128832218D01*
X117493787Y-128683605D01*
X117403498Y-128552799D01*
X117284529Y-128447401D01*
X117143793Y-128373537D01*
X116989471Y-128335500D01*
X116830529Y-128335500D01*
X116676207Y-128373537D01*
X116676206Y-128373537D01*
X116676204Y-128373538D01*
X116535472Y-128447400D01*
X116416501Y-128552799D01*
X116326212Y-128683605D01*
X116269850Y-128832219D01*
X116250693Y-128989999D01*
X91472086Y-128989999D01*
X91390498Y-128871799D01*
X91271529Y-128766401D01*
X91130793Y-128692537D01*
X90976471Y-128654500D01*
X90817529Y-128654500D01*
X90663207Y-128692537D01*
X90663206Y-128692537D01*
X90663204Y-128692538D01*
X90522472Y-128766400D01*
X90403501Y-128871799D01*
X90313212Y-129002605D01*
X90256850Y-129151219D01*
X90237693Y-129308999D01*
X86741500Y-129308999D01*
X86741500Y-127490000D01*
X102870693Y-127490000D01*
X102889850Y-127647780D01*
X102946212Y-127796394D01*
X102946213Y-127796395D01*
X103036502Y-127927201D01*
X103155471Y-128032599D01*
X103296207Y-128106463D01*
X103450529Y-128144500D01*
X103450531Y-128144500D01*
X103609469Y-128144500D01*
X103609471Y-128144500D01*
X103763793Y-128106463D01*
X103904529Y-128032599D01*
X104023498Y-127927201D01*
X104113787Y-127796395D01*
X104170149Y-127647782D01*
X104189307Y-127490000D01*
X104177165Y-127390000D01*
X111470693Y-127390000D01*
X111489850Y-127547780D01*
X111546212Y-127696394D01*
X111546213Y-127696395D01*
X111636502Y-127827201D01*
X111755471Y-127932599D01*
X111896207Y-128006463D01*
X112050529Y-128044500D01*
X112050531Y-128044500D01*
X112209469Y-128044500D01*
X112209471Y-128044500D01*
X112363793Y-128006463D01*
X112504529Y-127932599D01*
X112623498Y-127827201D01*
X112713787Y-127696395D01*
X112770149Y-127547782D01*
X112789307Y-127390000D01*
X112770149Y-127232218D01*
X112713787Y-127083605D01*
X112623498Y-126952799D01*
X112504529Y-126847401D01*
X112363793Y-126773537D01*
X112209471Y-126735500D01*
X112050529Y-126735500D01*
X111896207Y-126773537D01*
X111896206Y-126773537D01*
X111896204Y-126773538D01*
X111755472Y-126847400D01*
X111636501Y-126952799D01*
X111546212Y-127083605D01*
X111489850Y-127232219D01*
X111470693Y-127390000D01*
X104177165Y-127390000D01*
X104170149Y-127332218D01*
X104113787Y-127183605D01*
X104023498Y-127052799D01*
X103904529Y-126947401D01*
X103763793Y-126873537D01*
X103609471Y-126835500D01*
X103450529Y-126835500D01*
X103296207Y-126873537D01*
X103296206Y-126873537D01*
X103296204Y-126873538D01*
X103155472Y-126947400D01*
X103036501Y-127052799D01*
X102946212Y-127183605D01*
X102889850Y-127332219D01*
X102870693Y-127490000D01*
X86741500Y-127490000D01*
X86741500Y-126231314D01*
X86741540Y-126228122D01*
X86743765Y-126140332D01*
X86733327Y-126082096D01*
X86731999Y-126072637D01*
X86726012Y-126013753D01*
X86716894Y-125984694D01*
X86713094Y-125969209D01*
X86707722Y-125939238D01*
X86685774Y-125884295D01*
X86682566Y-125875287D01*
X86664853Y-125818827D01*
X86650074Y-125792200D01*
X86643236Y-125777803D01*
X86631940Y-125749522D01*
X86623779Y-125737139D01*
X86599378Y-125700113D01*
X86594417Y-125691926D01*
X86565708Y-125640202D01*
X86565705Y-125640198D01*
X86545877Y-125617101D01*
X86536273Y-125604364D01*
X86519516Y-125578938D01*
X86477691Y-125537113D01*
X86471183Y-125530091D01*
X86432638Y-125485192D01*
X86408554Y-125466550D01*
X86396584Y-125456007D01*
X85879577Y-124939000D01*
X107808693Y-124939000D01*
X107827850Y-125096780D01*
X107884212Y-125245394D01*
X107884213Y-125245395D01*
X107974502Y-125376201D01*
X108093471Y-125481599D01*
X108234207Y-125555463D01*
X108388529Y-125593500D01*
X108388531Y-125593500D01*
X108547469Y-125593500D01*
X108547471Y-125593500D01*
X108701793Y-125555463D01*
X108842529Y-125481599D01*
X108961498Y-125376201D01*
X109051787Y-125245395D01*
X109108149Y-125096782D01*
X109127307Y-124939000D01*
X109108149Y-124781218D01*
X109051787Y-124632605D01*
X108961498Y-124501799D01*
X108842529Y-124396401D01*
X108701793Y-124322537D01*
X108547471Y-124284500D01*
X108388529Y-124284500D01*
X108234207Y-124322537D01*
X108234206Y-124322537D01*
X108234204Y-124322538D01*
X108093472Y-124396400D01*
X107974501Y-124501799D01*
X107884212Y-124632605D01*
X107827850Y-124781219D01*
X107808693Y-124939000D01*
X85879577Y-124939000D01*
X83687578Y-122747000D01*
X96891693Y-122747000D01*
X96910850Y-122904780D01*
X96967212Y-123053394D01*
X97012083Y-123118400D01*
X97057502Y-123184201D01*
X97176471Y-123289599D01*
X97317207Y-123363463D01*
X97471529Y-123401500D01*
X97471531Y-123401500D01*
X97630469Y-123401500D01*
X97630471Y-123401500D01*
X97784793Y-123363463D01*
X97925529Y-123289599D01*
X98044498Y-123184201D01*
X98134787Y-123053395D01*
X98191149Y-122904782D01*
X98210307Y-122747000D01*
X98207879Y-122727000D01*
X98733693Y-122727000D01*
X98752850Y-122884780D01*
X98809212Y-123033394D01*
X98867888Y-123118400D01*
X98899502Y-123164201D01*
X99018471Y-123269599D01*
X99159207Y-123343463D01*
X99313529Y-123381500D01*
X99313531Y-123381500D01*
X99387406Y-123381500D01*
X99455527Y-123401502D01*
X99502020Y-123455158D01*
X99512487Y-123522687D01*
X99495693Y-123661000D01*
X99514850Y-123818780D01*
X99571212Y-123967394D01*
X99571213Y-123967395D01*
X99661502Y-124098201D01*
X99780471Y-124203599D01*
X99921207Y-124277463D01*
X100075529Y-124315500D01*
X100075531Y-124315500D01*
X100234469Y-124315500D01*
X100234471Y-124315500D01*
X100388793Y-124277463D01*
X100529529Y-124203599D01*
X100648498Y-124098201D01*
X100738787Y-123967395D01*
X100763209Y-123902999D01*
X116942693Y-123902999D01*
X116961850Y-124060780D01*
X117018212Y-124209394D01*
X117065196Y-124277461D01*
X117108502Y-124340201D01*
X117227471Y-124445599D01*
X117368207Y-124519463D01*
X117522529Y-124557500D01*
X117522531Y-124557500D01*
X117681469Y-124557500D01*
X117681471Y-124557500D01*
X117835793Y-124519463D01*
X117976529Y-124445599D01*
X118095498Y-124340201D01*
X118185787Y-124209395D01*
X118242149Y-124060782D01*
X118261307Y-123903000D01*
X118242149Y-123745218D01*
X118185787Y-123596605D01*
X118095498Y-123465799D01*
X117976529Y-123360401D01*
X117835793Y-123286537D01*
X117681471Y-123248500D01*
X117522529Y-123248500D01*
X117368207Y-123286537D01*
X117368206Y-123286537D01*
X117368204Y-123286538D01*
X117227472Y-123360400D01*
X117108501Y-123465799D01*
X117018212Y-123596605D01*
X116961850Y-123745219D01*
X116942693Y-123902999D01*
X100763209Y-123902999D01*
X100795149Y-123818782D01*
X100814307Y-123661000D01*
X100795149Y-123503218D01*
X100738787Y-123354605D01*
X100648498Y-123223799D01*
X100529529Y-123118401D01*
X100459161Y-123081469D01*
X100388795Y-123044538D01*
X100388794Y-123044537D01*
X100388793Y-123044537D01*
X100234471Y-123006500D01*
X100160594Y-123006500D01*
X100092473Y-122986498D01*
X100045980Y-122932842D01*
X100035513Y-122865313D01*
X100036372Y-122858232D01*
X100052307Y-122727000D01*
X100051821Y-122722999D01*
X108798693Y-122722999D01*
X108817850Y-122880780D01*
X108874212Y-123029394D01*
X108935649Y-123118400D01*
X108964502Y-123160201D01*
X109083471Y-123265599D01*
X109224207Y-123339463D01*
X109378529Y-123377500D01*
X109378531Y-123377500D01*
X109537469Y-123377500D01*
X109537471Y-123377500D01*
X109691793Y-123339463D01*
X109832529Y-123265599D01*
X109951498Y-123160201D01*
X110041787Y-123029395D01*
X110098149Y-122880782D01*
X110117307Y-122723000D01*
X110098149Y-122565218D01*
X110041787Y-122416605D01*
X109951498Y-122285799D01*
X109832529Y-122180401D01*
X109691793Y-122106537D01*
X109537471Y-122068500D01*
X109378529Y-122068500D01*
X109224207Y-122106537D01*
X109224206Y-122106537D01*
X109224204Y-122106538D01*
X109083472Y-122180400D01*
X108964501Y-122285799D01*
X108874212Y-122416605D01*
X108817850Y-122565219D01*
X108798693Y-122722999D01*
X100051821Y-122722999D01*
X100033149Y-122569218D01*
X99976787Y-122420605D01*
X99886498Y-122289799D01*
X99767529Y-122184401D01*
X99626793Y-122110537D01*
X99472471Y-122072500D01*
X99313529Y-122072500D01*
X99159207Y-122110537D01*
X99159206Y-122110537D01*
X99159204Y-122110538D01*
X99018472Y-122184400D01*
X98899501Y-122289799D01*
X98809212Y-122420605D01*
X98752850Y-122569219D01*
X98733693Y-122727000D01*
X98207879Y-122727000D01*
X98191149Y-122589218D01*
X98134787Y-122440605D01*
X98044498Y-122309799D01*
X97925529Y-122204401D01*
X97784793Y-122130537D01*
X97630471Y-122092500D01*
X97471529Y-122092500D01*
X97317207Y-122130537D01*
X97317206Y-122130537D01*
X97317204Y-122130538D01*
X97176472Y-122204400D01*
X97057501Y-122309799D01*
X96967212Y-122440605D01*
X96910850Y-122589219D01*
X96891693Y-122747000D01*
X83687578Y-122747000D01*
X82715578Y-121775000D01*
X100355693Y-121775000D01*
X100374850Y-121932780D01*
X100431212Y-122081394D01*
X100489884Y-122166394D01*
X100521502Y-122212201D01*
X100640471Y-122317599D01*
X100781207Y-122391463D01*
X100935529Y-122429500D01*
X100935531Y-122429500D01*
X101094469Y-122429500D01*
X101094471Y-122429500D01*
X101248793Y-122391463D01*
X101389529Y-122317599D01*
X101508498Y-122212201D01*
X101598787Y-122081395D01*
X101655149Y-121932782D01*
X101667386Y-121831999D01*
X110202693Y-121831999D01*
X110221850Y-121989780D01*
X110278212Y-122138394D01*
X110329158Y-122212201D01*
X110368502Y-122269201D01*
X110487471Y-122374599D01*
X110628207Y-122448463D01*
X110782529Y-122486500D01*
X110782531Y-122486500D01*
X110941469Y-122486500D01*
X110941471Y-122486500D01*
X111095793Y-122448463D01*
X111236529Y-122374599D01*
X111355498Y-122269201D01*
X111445787Y-122138395D01*
X111502149Y-121989782D01*
X111517907Y-121860000D01*
X119300693Y-121860000D01*
X119319850Y-122017780D01*
X119376212Y-122166394D01*
X119461393Y-122289799D01*
X119466502Y-122297201D01*
X119585471Y-122402599D01*
X119726207Y-122476463D01*
X119880529Y-122514500D01*
X119880531Y-122514500D01*
X120039469Y-122514500D01*
X120039471Y-122514500D01*
X120193793Y-122476463D01*
X120334529Y-122402599D01*
X120453498Y-122297201D01*
X120543787Y-122166395D01*
X120600149Y-122017782D01*
X120619307Y-121860000D01*
X120600149Y-121702218D01*
X120543787Y-121553605D01*
X120453498Y-121422799D01*
X120334529Y-121317401D01*
X120215304Y-121254827D01*
X120193795Y-121243538D01*
X120193794Y-121243537D01*
X120193793Y-121243537D01*
X120039471Y-121205500D01*
X119880529Y-121205500D01*
X119726207Y-121243537D01*
X119726206Y-121243537D01*
X119726204Y-121243538D01*
X119585472Y-121317400D01*
X119466501Y-121422799D01*
X119376212Y-121553605D01*
X119319850Y-121702219D01*
X119300693Y-121860000D01*
X111517907Y-121860000D01*
X111521307Y-121832000D01*
X111502149Y-121674218D01*
X111445787Y-121525605D01*
X111355498Y-121394799D01*
X111236529Y-121289401D01*
X111095793Y-121215537D01*
X110941471Y-121177500D01*
X110782529Y-121177500D01*
X110628207Y-121215537D01*
X110628206Y-121215537D01*
X110628204Y-121215538D01*
X110487472Y-121289400D01*
X110368501Y-121394799D01*
X110278212Y-121525605D01*
X110221850Y-121674219D01*
X110202693Y-121831999D01*
X101667386Y-121831999D01*
X101674307Y-121775000D01*
X101655149Y-121617218D01*
X101598787Y-121468605D01*
X101508498Y-121337799D01*
X101389529Y-121232401D01*
X101248793Y-121158537D01*
X101094471Y-121120500D01*
X100935529Y-121120500D01*
X100781207Y-121158537D01*
X100781206Y-121158537D01*
X100781204Y-121158538D01*
X100640472Y-121232400D01*
X100521501Y-121337799D01*
X100431212Y-121468605D01*
X100374850Y-121617219D01*
X100355693Y-121775000D01*
X82715578Y-121775000D01*
X82037622Y-121097044D01*
X90821338Y-121097044D01*
X90840495Y-121254825D01*
X90896857Y-121403439D01*
X90981183Y-121525605D01*
X90987147Y-121534246D01*
X91106116Y-121639644D01*
X91246852Y-121713508D01*
X91401174Y-121751545D01*
X91401176Y-121751545D01*
X91560114Y-121751545D01*
X91560116Y-121751545D01*
X91714438Y-121713508D01*
X91855174Y-121639644D01*
X91974143Y-121534246D01*
X92064432Y-121403440D01*
X92120794Y-121254827D01*
X92139952Y-121097045D01*
X92120794Y-120939263D01*
X92064432Y-120790650D01*
X91974143Y-120659844D01*
X91973190Y-120659000D01*
X95996693Y-120659000D01*
X95998684Y-120675400D01*
X96015850Y-120816780D01*
X96072212Y-120965394D01*
X96132760Y-121053112D01*
X96162502Y-121096201D01*
X96281471Y-121201599D01*
X96422207Y-121275463D01*
X96576529Y-121313500D01*
X96576531Y-121313500D01*
X96735469Y-121313500D01*
X96735471Y-121313500D01*
X96889793Y-121275463D01*
X97030529Y-121201599D01*
X97092093Y-121147057D01*
X97156342Y-121116858D01*
X97226723Y-121126189D01*
X97259193Y-121147056D01*
X97325163Y-121205500D01*
X97339272Y-121218000D01*
X97387931Y-121243538D01*
X97480007Y-121291863D01*
X97634329Y-121329900D01*
X97634331Y-121329900D01*
X97793269Y-121329900D01*
X97793271Y-121329900D01*
X97947593Y-121291863D01*
X98088329Y-121217999D01*
X98207298Y-121112601D01*
X98297587Y-120981795D01*
X98353949Y-120833182D01*
X98373107Y-120675400D01*
X98353949Y-120517618D01*
X98297587Y-120369005D01*
X98207298Y-120238199D01*
X98088329Y-120132801D01*
X97947593Y-120058937D01*
X97793271Y-120020900D01*
X97634329Y-120020900D01*
X97480007Y-120058937D01*
X97480006Y-120058937D01*
X97480004Y-120058938D01*
X97339272Y-120132800D01*
X97277708Y-120187341D01*
X97213455Y-120217541D01*
X97143074Y-120208209D01*
X97110603Y-120187341D01*
X97030529Y-120116401D01*
X97030527Y-120116399D01*
X96889795Y-120042538D01*
X96889794Y-120042537D01*
X96889793Y-120042537D01*
X96735471Y-120004500D01*
X96576529Y-120004500D01*
X96422207Y-120042537D01*
X96422206Y-120042537D01*
X96422204Y-120042538D01*
X96281472Y-120116400D01*
X96162501Y-120221799D01*
X96072212Y-120352605D01*
X96015850Y-120501219D01*
X95996693Y-120658999D01*
X95996693Y-120659000D01*
X91973190Y-120659000D01*
X91855174Y-120554446D01*
X91784806Y-120517514D01*
X91714440Y-120480583D01*
X91714439Y-120480582D01*
X91714438Y-120480582D01*
X91560116Y-120442545D01*
X91401174Y-120442545D01*
X91246852Y-120480582D01*
X91246851Y-120480582D01*
X91246849Y-120480583D01*
X91106117Y-120554445D01*
X90987146Y-120659844D01*
X90896857Y-120790650D01*
X90840495Y-120939264D01*
X90821338Y-121097044D01*
X82037622Y-121097044D01*
X79908405Y-118967827D01*
X79874379Y-118905515D01*
X79871500Y-118878732D01*
X79871500Y-118795799D01*
X91771293Y-118795799D01*
X91790450Y-118953580D01*
X91846812Y-119102194D01*
X91879440Y-119149463D01*
X91937102Y-119233001D01*
X92056071Y-119338399D01*
X92196807Y-119412263D01*
X92351129Y-119450300D01*
X92351131Y-119450300D01*
X92510069Y-119450300D01*
X92510071Y-119450300D01*
X92664393Y-119412263D01*
X92805129Y-119338399D01*
X92924098Y-119233001D01*
X93014387Y-119102195D01*
X93070749Y-118953582D01*
X93089907Y-118795800D01*
X93070749Y-118638018D01*
X93014387Y-118489405D01*
X92924098Y-118358599D01*
X92805129Y-118253201D01*
X92664393Y-118179337D01*
X92510071Y-118141300D01*
X92351129Y-118141300D01*
X92196807Y-118179337D01*
X92196806Y-118179337D01*
X92196804Y-118179338D01*
X92056072Y-118253200D01*
X91937101Y-118358599D01*
X91846812Y-118489405D01*
X91790450Y-118638019D01*
X91771293Y-118795799D01*
X79871500Y-118795799D01*
X79871500Y-117551199D01*
X94336693Y-117551199D01*
X94355850Y-117708980D01*
X94412212Y-117857594D01*
X94499878Y-117984599D01*
X94502502Y-117988401D01*
X94621471Y-118093799D01*
X94762207Y-118167663D01*
X94916529Y-118205700D01*
X94916531Y-118205700D01*
X95075469Y-118205700D01*
X95075471Y-118205700D01*
X95229793Y-118167663D01*
X95370529Y-118093799D01*
X95489498Y-117988401D01*
X95579787Y-117857595D01*
X95636149Y-117708982D01*
X95655307Y-117551200D01*
X95636149Y-117393418D01*
X95579787Y-117244805D01*
X95489498Y-117113999D01*
X95370529Y-117008601D01*
X95229793Y-116934737D01*
X95075471Y-116896700D01*
X94916529Y-116896700D01*
X94762207Y-116934737D01*
X94762206Y-116934737D01*
X94762204Y-116934738D01*
X94621472Y-117008600D01*
X94502501Y-117113999D01*
X94412212Y-117244805D01*
X94355850Y-117393419D01*
X94336693Y-117551199D01*
X79871500Y-117551199D01*
X79871500Y-112124000D01*
X95449693Y-112124000D01*
X95468850Y-112281780D01*
X95525212Y-112430394D01*
X95608214Y-112550642D01*
X95615502Y-112561201D01*
X95734471Y-112666599D01*
X95875207Y-112740463D01*
X96029529Y-112778500D01*
X96029531Y-112778500D01*
X96189014Y-112778500D01*
X96257135Y-112798502D01*
X96303628Y-112852158D01*
X96314095Y-112889312D01*
X96326895Y-112994736D01*
X96383257Y-113143349D01*
X96477886Y-113280443D01*
X96500122Y-113347868D01*
X96482375Y-113416611D01*
X96477886Y-113423595D01*
X96411850Y-113519264D01*
X96355488Y-113667878D01*
X96336331Y-113825659D01*
X96355488Y-113983439D01*
X96411850Y-114132053D01*
X96446811Y-114182703D01*
X96469047Y-114250128D01*
X96451300Y-114318871D01*
X96401675Y-114365844D01*
X96399473Y-114366999D01*
X96280501Y-114472399D01*
X96190212Y-114603205D01*
X96133850Y-114751819D01*
X96114693Y-114909600D01*
X96133850Y-115067380D01*
X96190212Y-115215994D01*
X96253336Y-115307445D01*
X96275572Y-115374870D01*
X96257825Y-115443613D01*
X96205730Y-115491848D01*
X96179793Y-115501360D01*
X96032207Y-115537737D01*
X96032206Y-115537737D01*
X96032204Y-115537738D01*
X95891472Y-115611600D01*
X95772501Y-115716999D01*
X95682212Y-115847805D01*
X95625850Y-115996419D01*
X95606693Y-116154200D01*
X95625850Y-116311980D01*
X95682212Y-116460594D01*
X95766892Y-116583273D01*
X95772502Y-116591401D01*
X95891471Y-116696799D01*
X96032207Y-116770663D01*
X96186529Y-116808700D01*
X96186531Y-116808700D01*
X96345469Y-116808700D01*
X96345471Y-116808700D01*
X96499793Y-116770663D01*
X96640529Y-116696799D01*
X96759498Y-116591401D01*
X96849787Y-116460595D01*
X96906149Y-116311982D01*
X96925307Y-116154200D01*
X96906149Y-115996418D01*
X96849787Y-115847805D01*
X96786663Y-115756354D01*
X96764427Y-115688929D01*
X96782174Y-115620187D01*
X96834269Y-115571951D01*
X96860194Y-115562442D01*
X97007793Y-115526063D01*
X97148529Y-115452199D01*
X97166814Y-115436000D01*
X103422693Y-115436000D01*
X103441850Y-115593780D01*
X103498212Y-115742394D01*
X103579663Y-115860395D01*
X103588502Y-115873201D01*
X103707471Y-115978599D01*
X103848207Y-116052463D01*
X104002529Y-116090500D01*
X104002531Y-116090500D01*
X104100742Y-116090500D01*
X104168863Y-116110502D01*
X104215356Y-116164158D01*
X104225822Y-116231686D01*
X104216073Y-116311982D01*
X104207693Y-116381000D01*
X104226850Y-116538779D01*
X104226850Y-116538781D01*
X104226851Y-116538782D01*
X104267825Y-116646820D01*
X104273279Y-116717606D01*
X104239597Y-116780105D01*
X104177472Y-116814471D01*
X104150013Y-116817500D01*
X104052529Y-116817500D01*
X103898207Y-116855537D01*
X103898206Y-116855537D01*
X103898204Y-116855538D01*
X103757472Y-116929400D01*
X103638501Y-117034799D01*
X103548212Y-117165605D01*
X103491850Y-117314219D01*
X103472693Y-117472000D01*
X103491850Y-117629780D01*
X103548212Y-117778394D01*
X103624212Y-117888498D01*
X103638502Y-117909201D01*
X103757471Y-118014599D01*
X103898207Y-118088463D01*
X104052529Y-118126500D01*
X104052531Y-118126500D01*
X104138013Y-118126500D01*
X104206134Y-118146502D01*
X104252627Y-118200158D01*
X104262731Y-118270432D01*
X104255826Y-118297176D01*
X104226751Y-118373838D01*
X104214850Y-118405220D01*
X104195693Y-118562999D01*
X104214850Y-118720780D01*
X104271212Y-118869394D01*
X104340794Y-118970200D01*
X104361502Y-119000201D01*
X104480471Y-119105599D01*
X104621207Y-119179463D01*
X104775529Y-119217500D01*
X104775531Y-119217500D01*
X104934469Y-119217500D01*
X104934471Y-119217500D01*
X105088793Y-119179463D01*
X105229529Y-119105599D01*
X105348498Y-119000201D01*
X105438787Y-118869395D01*
X105495149Y-118720782D01*
X105502240Y-118662377D01*
X105530306Y-118597166D01*
X105589175Y-118557479D01*
X105660154Y-118555919D01*
X105720709Y-118592981D01*
X105751614Y-118656898D01*
X105752402Y-118662378D01*
X105755850Y-118690781D01*
X105812212Y-118839394D01*
X105891031Y-118953582D01*
X105902502Y-118970201D01*
X106021471Y-119075599D01*
X106162207Y-119149463D01*
X106316529Y-119187500D01*
X106316531Y-119187500D01*
X106475469Y-119187500D01*
X106475471Y-119187500D01*
X106629793Y-119149463D01*
X106770529Y-119075599D01*
X106889498Y-118970201D01*
X106979787Y-118839395D01*
X107036149Y-118690782D01*
X107055307Y-118533000D01*
X107036149Y-118375218D01*
X106995174Y-118267179D01*
X106994621Y-118259999D01*
X118450693Y-118259999D01*
X118469850Y-118417780D01*
X118526212Y-118566394D01*
X118612071Y-118690781D01*
X118616502Y-118697201D01*
X118735471Y-118802599D01*
X118876207Y-118876463D01*
X119030529Y-118914500D01*
X119030531Y-118914500D01*
X119189469Y-118914500D01*
X119189471Y-118914500D01*
X119343793Y-118876463D01*
X119484529Y-118802599D01*
X119603498Y-118697201D01*
X119693787Y-118566395D01*
X119750149Y-118417782D01*
X119769307Y-118260000D01*
X119750149Y-118102218D01*
X119693787Y-117953605D01*
X119603498Y-117822799D01*
X119484529Y-117717401D01*
X119343793Y-117643537D01*
X119189471Y-117605500D01*
X119030529Y-117605500D01*
X118876207Y-117643537D01*
X118876206Y-117643537D01*
X118876204Y-117643538D01*
X118735472Y-117717400D01*
X118616501Y-117822799D01*
X118526212Y-117953605D01*
X118469850Y-118102219D01*
X118450693Y-118259999D01*
X106994621Y-118259999D01*
X106989721Y-118196394D01*
X107023403Y-118133895D01*
X107085528Y-118099529D01*
X107112987Y-118096500D01*
X107223469Y-118096500D01*
X107223471Y-118096500D01*
X107377793Y-118058463D01*
X107518529Y-117984599D01*
X107637498Y-117879201D01*
X107727787Y-117748395D01*
X107784149Y-117599782D01*
X107803307Y-117442000D01*
X107784149Y-117284218D01*
X107727787Y-117135605D01*
X107637498Y-117004799D01*
X107518529Y-116899401D01*
X107377793Y-116825537D01*
X107223471Y-116787500D01*
X107124987Y-116787500D01*
X107056866Y-116767498D01*
X107010373Y-116713842D01*
X107000269Y-116643568D01*
X107007175Y-116616820D01*
X107048149Y-116508782D01*
X107049713Y-116495900D01*
X114184693Y-116495900D01*
X114203850Y-116653680D01*
X114260212Y-116802294D01*
X114329910Y-116903268D01*
X114350502Y-116933101D01*
X114469471Y-117038499D01*
X114610207Y-117112363D01*
X114764529Y-117150400D01*
X114764531Y-117150400D01*
X114923469Y-117150400D01*
X114923471Y-117150400D01*
X115077793Y-117112363D01*
X115218529Y-117038499D01*
X115337498Y-116933101D01*
X115427787Y-116802295D01*
X115484149Y-116653682D01*
X115503307Y-116495900D01*
X115484149Y-116338118D01*
X115427787Y-116189505D01*
X115337498Y-116058699D01*
X115218529Y-115953301D01*
X115077793Y-115879437D01*
X114923471Y-115841400D01*
X114764529Y-115841400D01*
X114610207Y-115879437D01*
X114610206Y-115879437D01*
X114610204Y-115879438D01*
X114469472Y-115953300D01*
X114350501Y-116058699D01*
X114260212Y-116189505D01*
X114203850Y-116338119D01*
X114184693Y-116495900D01*
X107049713Y-116495900D01*
X107067307Y-116351000D01*
X107065743Y-116338118D01*
X107049178Y-116201687D01*
X107060823Y-116131652D01*
X107108484Y-116079031D01*
X107158787Y-116064858D01*
X107158616Y-116064161D01*
X107173469Y-116060500D01*
X107173471Y-116060500D01*
X107327793Y-116022463D01*
X107468529Y-115948599D01*
X107587498Y-115843201D01*
X107677787Y-115712395D01*
X107734149Y-115563782D01*
X107753307Y-115406000D01*
X107734149Y-115248218D01*
X107677787Y-115099605D01*
X107587498Y-114968799D01*
X107468529Y-114863401D01*
X107329015Y-114790178D01*
X107318495Y-114779999D01*
X114880693Y-114779999D01*
X114899850Y-114937780D01*
X114956212Y-115086394D01*
X115045670Y-115215995D01*
X115046502Y-115217201D01*
X115165471Y-115322599D01*
X115306207Y-115396463D01*
X115460529Y-115434500D01*
X115460531Y-115434500D01*
X115619472Y-115434500D01*
X115666128Y-115423000D01*
X115737057Y-115426118D01*
X115795039Y-115467087D01*
X115821668Y-115532901D01*
X115814095Y-115590018D01*
X115787850Y-115659218D01*
X115768693Y-115817000D01*
X115787850Y-115974780D01*
X115844212Y-116123394D01*
X115889846Y-116189505D01*
X115934502Y-116254201D01*
X116053471Y-116359599D01*
X116054502Y-116360140D01*
X116059052Y-116364543D01*
X116064923Y-116369744D01*
X116064694Y-116370002D01*
X116105523Y-116409509D01*
X116121754Y-116478626D01*
X116098041Y-116545545D01*
X116054500Y-116583273D01*
X115960323Y-116632701D01*
X115841353Y-116738099D01*
X115751064Y-116868905D01*
X115694702Y-117017519D01*
X115675545Y-117175300D01*
X115694702Y-117333080D01*
X115751064Y-117481694D01*
X115836522Y-117605500D01*
X115841354Y-117612501D01*
X115960323Y-117717899D01*
X116101059Y-117791763D01*
X116255381Y-117829800D01*
X116255383Y-117829800D01*
X116414321Y-117829800D01*
X116414323Y-117829800D01*
X116568645Y-117791763D01*
X116709381Y-117717899D01*
X116828350Y-117612501D01*
X116918639Y-117481695D01*
X116975001Y-117333082D01*
X116994159Y-117175300D01*
X116989508Y-117136999D01*
X131637693Y-117136999D01*
X131656850Y-117294780D01*
X131713212Y-117443394D01*
X131787626Y-117551200D01*
X131803502Y-117574201D01*
X131922471Y-117679599D01*
X132063207Y-117753463D01*
X132217529Y-117791500D01*
X132217531Y-117791500D01*
X132376469Y-117791500D01*
X132376471Y-117791500D01*
X132530793Y-117753463D01*
X132671529Y-117679599D01*
X132790498Y-117574201D01*
X132880787Y-117443395D01*
X132937149Y-117294782D01*
X132956307Y-117137000D01*
X132937149Y-116979218D01*
X132880787Y-116830605D01*
X132790498Y-116699799D01*
X132671529Y-116594401D01*
X132530793Y-116520537D01*
X132376471Y-116482500D01*
X132217529Y-116482500D01*
X132063207Y-116520537D01*
X132063206Y-116520537D01*
X132063204Y-116520538D01*
X131922472Y-116594400D01*
X131803501Y-116699799D01*
X131713212Y-116830605D01*
X131656850Y-116979219D01*
X131637693Y-117136999D01*
X116989508Y-117136999D01*
X116975001Y-117017518D01*
X116918639Y-116868905D01*
X116828350Y-116738099D01*
X116709381Y-116632701D01*
X116709380Y-116632700D01*
X116708346Y-116632158D01*
X116703779Y-116627739D01*
X116697929Y-116622556D01*
X116698157Y-116622298D01*
X116657326Y-116582787D01*
X116641097Y-116513670D01*
X116664812Y-116446751D01*
X116708348Y-116409028D01*
X116802529Y-116359599D01*
X116921498Y-116254201D01*
X117011787Y-116123395D01*
X117068149Y-115974782D01*
X117087307Y-115817000D01*
X117068149Y-115659218D01*
X117028245Y-115554000D01*
X123038693Y-115554000D01*
X123057850Y-115711780D01*
X123114212Y-115860394D01*
X123193169Y-115974782D01*
X123204502Y-115991201D01*
X123323471Y-116096599D01*
X123464207Y-116170463D01*
X123618529Y-116208500D01*
X123618531Y-116208500D01*
X123777469Y-116208500D01*
X123777471Y-116208500D01*
X123931793Y-116170463D01*
X124072529Y-116096599D01*
X124191498Y-115991201D01*
X124281787Y-115860395D01*
X124338149Y-115711782D01*
X124357307Y-115554000D01*
X124338149Y-115396218D01*
X124281787Y-115247605D01*
X124191498Y-115116799D01*
X124072529Y-115011401D01*
X123931793Y-114937537D01*
X123777471Y-114899500D01*
X123618529Y-114899500D01*
X123464207Y-114937537D01*
X123464206Y-114937537D01*
X123464204Y-114937538D01*
X123323472Y-115011400D01*
X123204501Y-115116799D01*
X123114212Y-115247605D01*
X123057850Y-115396219D01*
X123038693Y-115554000D01*
X117028245Y-115554000D01*
X117011787Y-115510605D01*
X116921498Y-115379799D01*
X116802529Y-115274401D01*
X116661793Y-115200537D01*
X116507471Y-115162500D01*
X116348529Y-115162500D01*
X116348528Y-115162500D01*
X116301868Y-115174000D01*
X116230940Y-115170881D01*
X116172958Y-115129910D01*
X116146331Y-115064096D01*
X116153903Y-115006986D01*
X116180149Y-114937782D01*
X116199307Y-114780000D01*
X116180149Y-114622218D01*
X116123787Y-114473605D01*
X116033498Y-114342799D01*
X115914529Y-114237401D01*
X115773793Y-114163537D01*
X115619471Y-114125500D01*
X115460529Y-114125500D01*
X115306207Y-114163537D01*
X115306206Y-114163537D01*
X115306204Y-114163538D01*
X115165472Y-114237400D01*
X115046501Y-114342799D01*
X114956212Y-114473605D01*
X114899850Y-114622219D01*
X114880693Y-114779999D01*
X107318495Y-114779999D01*
X107277993Y-114740811D01*
X107261761Y-114671695D01*
X107285472Y-114604775D01*
X107341599Y-114561298D01*
X107357403Y-114556277D01*
X107437793Y-114536463D01*
X107578529Y-114462599D01*
X107697498Y-114357201D01*
X107787787Y-114226395D01*
X107844149Y-114077782D01*
X107844956Y-114071132D01*
X116489561Y-114071132D01*
X116492208Y-114092936D01*
X116508718Y-114228912D01*
X116565080Y-114377526D01*
X116630567Y-114472399D01*
X116655370Y-114508333D01*
X116774339Y-114613731D01*
X116915075Y-114687595D01*
X117069397Y-114725632D01*
X117069399Y-114725632D01*
X117228337Y-114725632D01*
X117228339Y-114725632D01*
X117382661Y-114687595D01*
X117523397Y-114613731D01*
X117642366Y-114508333D01*
X117732655Y-114377527D01*
X117789017Y-114228914D01*
X117808175Y-114071132D01*
X117789017Y-113913350D01*
X117732655Y-113764737D01*
X117642366Y-113633931D01*
X117523397Y-113528533D01*
X117382661Y-113454669D01*
X117228339Y-113416632D01*
X117069397Y-113416632D01*
X116915075Y-113454669D01*
X116915074Y-113454669D01*
X116915072Y-113454670D01*
X116774340Y-113528532D01*
X116655369Y-113633931D01*
X116565080Y-113764737D01*
X116508718Y-113913351D01*
X116492396Y-114047780D01*
X116489561Y-114071132D01*
X107844956Y-114071132D01*
X107863307Y-113920000D01*
X107844149Y-113762218D01*
X107787787Y-113613605D01*
X107697498Y-113482799D01*
X107578529Y-113377401D01*
X107437793Y-113303537D01*
X107283471Y-113265500D01*
X107124529Y-113265500D01*
X107071134Y-113278660D01*
X106986219Y-113299590D01*
X106915291Y-113296471D01*
X106857309Y-113255501D01*
X106830681Y-113189687D01*
X106830985Y-113162063D01*
X106831386Y-113158762D01*
X106837307Y-113110000D01*
X106818149Y-112952218D01*
X106761787Y-112803605D01*
X106671498Y-112672799D01*
X106552529Y-112567401D01*
X106411793Y-112493537D01*
X106257471Y-112455500D01*
X106098529Y-112455500D01*
X105944207Y-112493537D01*
X105944206Y-112493537D01*
X105944204Y-112493538D01*
X105803472Y-112567400D01*
X105684501Y-112672799D01*
X105594212Y-112803605D01*
X105537850Y-112952219D01*
X105520728Y-113093241D01*
X105518693Y-113110000D01*
X105521260Y-113131138D01*
X105521260Y-113131141D01*
X105509613Y-113201176D01*
X105461952Y-113253796D01*
X105393407Y-113272296D01*
X105366029Y-113268665D01*
X105231471Y-113235500D01*
X105072529Y-113235500D01*
X104937973Y-113268664D01*
X104867047Y-113265546D01*
X104809064Y-113224576D01*
X104782436Y-113158762D01*
X104782740Y-113131138D01*
X104785307Y-113110000D01*
X104766149Y-112952218D01*
X104709787Y-112803605D01*
X104619498Y-112672799D01*
X104500529Y-112567401D01*
X104359793Y-112493537D01*
X104205471Y-112455500D01*
X104046529Y-112455500D01*
X103892207Y-112493537D01*
X103892206Y-112493537D01*
X103892204Y-112493538D01*
X103751472Y-112567400D01*
X103632501Y-112672799D01*
X103542212Y-112803605D01*
X103485850Y-112952219D01*
X103468728Y-113093241D01*
X103466693Y-113110000D01*
X103469260Y-113131138D01*
X103485850Y-113267780D01*
X103542212Y-113416394D01*
X103619616Y-113528532D01*
X103632502Y-113547201D01*
X103751471Y-113652599D01*
X103892207Y-113726463D01*
X104046529Y-113764500D01*
X104046531Y-113764500D01*
X104205472Y-113764500D01*
X104235099Y-113757197D01*
X104340026Y-113731335D01*
X104410951Y-113734452D01*
X104468934Y-113775422D01*
X104495563Y-113841236D01*
X104495260Y-113868858D01*
X104492693Y-113890000D01*
X104511850Y-114047780D01*
X104568212Y-114196394D01*
X104614091Y-114262860D01*
X104658502Y-114327201D01*
X104777471Y-114432599D01*
X104918207Y-114506463D01*
X105072529Y-114544500D01*
X105072531Y-114544500D01*
X105231469Y-114544500D01*
X105231471Y-114544500D01*
X105385793Y-114506463D01*
X105526529Y-114432599D01*
X105645498Y-114327201D01*
X105735787Y-114196395D01*
X105792149Y-114047782D01*
X105811307Y-113890000D01*
X105808740Y-113868858D01*
X105820385Y-113798826D01*
X105868045Y-113746204D01*
X105936589Y-113727703D01*
X105963970Y-113731334D01*
X106060534Y-113755135D01*
X106098528Y-113764500D01*
X106098529Y-113764500D01*
X106257469Y-113764500D01*
X106257471Y-113764500D01*
X106395782Y-113730409D01*
X106466707Y-113733528D01*
X106524689Y-113774497D01*
X106551318Y-113840311D01*
X106551015Y-113867933D01*
X106545501Y-113913351D01*
X106544693Y-113920002D01*
X106563850Y-114077780D01*
X106620212Y-114226394D01*
X106689794Y-114327200D01*
X106710502Y-114357201D01*
X106829471Y-114462599D01*
X106968986Y-114535822D01*
X107020005Y-114585187D01*
X107036238Y-114654303D01*
X107012527Y-114721224D01*
X106956400Y-114764701D01*
X106940583Y-114769725D01*
X106860207Y-114789536D01*
X106719472Y-114863400D01*
X106600501Y-114968799D01*
X106510213Y-115099603D01*
X106476311Y-115188995D01*
X106433452Y-115245595D01*
X106366796Y-115270040D01*
X106297506Y-115254566D01*
X106247581Y-115204089D01*
X106240688Y-115188995D01*
X106206787Y-115099605D01*
X106116498Y-114968799D01*
X105997529Y-114863401D01*
X105856793Y-114789537D01*
X105702471Y-114751500D01*
X105543529Y-114751500D01*
X105389207Y-114789537D01*
X105389206Y-114789537D01*
X105389204Y-114789538D01*
X105248472Y-114863400D01*
X105129501Y-114968799D01*
X105039212Y-115099605D01*
X104982850Y-115248218D01*
X104975759Y-115306622D01*
X104947691Y-115371834D01*
X104888823Y-115411520D01*
X104817843Y-115413080D01*
X104757288Y-115376017D01*
X104726384Y-115312099D01*
X104725604Y-115306678D01*
X104722149Y-115278218D01*
X104665787Y-115129605D01*
X104575498Y-114998799D01*
X104456529Y-114893401D01*
X104315793Y-114819537D01*
X104161471Y-114781500D01*
X104002529Y-114781500D01*
X103848207Y-114819537D01*
X103848206Y-114819537D01*
X103848204Y-114819538D01*
X103707472Y-114893400D01*
X103588501Y-114998799D01*
X103498212Y-115129605D01*
X103441850Y-115278219D01*
X103422693Y-115436000D01*
X97166814Y-115436000D01*
X97267498Y-115346801D01*
X97357787Y-115215995D01*
X97414149Y-115067382D01*
X97433307Y-114909600D01*
X97414149Y-114751818D01*
X97361779Y-114613731D01*
X97357788Y-114603207D01*
X97357787Y-114603205D01*
X97322824Y-114552553D01*
X97300590Y-114485132D01*
X97318337Y-114416389D01*
X97367971Y-114369411D01*
X97368999Y-114368870D01*
X97370167Y-114368258D01*
X97489136Y-114262860D01*
X97579425Y-114132054D01*
X97635787Y-113983441D01*
X97654945Y-113825659D01*
X97635787Y-113667877D01*
X97579425Y-113519264D01*
X97489136Y-113388458D01*
X97489135Y-113388457D01*
X97484796Y-113382171D01*
X97462560Y-113314747D01*
X97480307Y-113246004D01*
X97484796Y-113239019D01*
X97487225Y-113235500D01*
X97550832Y-113143350D01*
X97607194Y-112994737D01*
X97626352Y-112836955D01*
X97607194Y-112679173D01*
X97550832Y-112530560D01*
X97460543Y-112399754D01*
X97341574Y-112294356D01*
X97200838Y-112220492D01*
X97046516Y-112182455D01*
X96887574Y-112182455D01*
X96887031Y-112182455D01*
X96818910Y-112162453D01*
X96772417Y-112108797D01*
X96761950Y-112071643D01*
X96749149Y-111966218D01*
X96692787Y-111817605D01*
X96681256Y-111800899D01*
X96602498Y-111686799D01*
X96533435Y-111625614D01*
X96495709Y-111565470D01*
X96496489Y-111494478D01*
X96533432Y-111436992D01*
X96623498Y-111357201D01*
X96713787Y-111226395D01*
X96738968Y-111160000D01*
X114410693Y-111160000D01*
X114429850Y-111317780D01*
X114486212Y-111466394D01*
X114554600Y-111565470D01*
X114576502Y-111597201D01*
X114695471Y-111702599D01*
X114788709Y-111751534D01*
X114839728Y-111800899D01*
X114855961Y-111870015D01*
X114832250Y-111936935D01*
X114788707Y-111974666D01*
X114725113Y-112008043D01*
X114606143Y-112113441D01*
X114515854Y-112244247D01*
X114459492Y-112392861D01*
X114440335Y-112550642D01*
X114459492Y-112708422D01*
X114515854Y-112857036D01*
X114581554Y-112952218D01*
X114606144Y-112987843D01*
X114725113Y-113093241D01*
X114865849Y-113167105D01*
X115020171Y-113205142D01*
X115020173Y-113205142D01*
X115179111Y-113205142D01*
X115179113Y-113205142D01*
X115333435Y-113167105D01*
X115474171Y-113093241D01*
X115593140Y-112987843D01*
X115683429Y-112857037D01*
X115739791Y-112708424D01*
X115756356Y-112571999D01*
X125633693Y-112571999D01*
X125652850Y-112729780D01*
X125709212Y-112878394D01*
X125789518Y-112994736D01*
X125799502Y-113009201D01*
X125918471Y-113114599D01*
X126059207Y-113188463D01*
X126213529Y-113226500D01*
X126213531Y-113226500D01*
X126372469Y-113226500D01*
X126372471Y-113226500D01*
X126526793Y-113188463D01*
X126667529Y-113114599D01*
X126786498Y-113009201D01*
X126876787Y-112878395D01*
X126933149Y-112729782D01*
X126952307Y-112572000D01*
X126933149Y-112414218D01*
X126876787Y-112265605D01*
X126786498Y-112134799D01*
X126667529Y-112029401D01*
X126526793Y-111955537D01*
X126372471Y-111917500D01*
X126213529Y-111917500D01*
X126059207Y-111955537D01*
X126059206Y-111955537D01*
X126059204Y-111955538D01*
X125918472Y-112029400D01*
X125799501Y-112134799D01*
X125709212Y-112265605D01*
X125652850Y-112414219D01*
X125633693Y-112571999D01*
X115756356Y-112571999D01*
X115758949Y-112550642D01*
X115739791Y-112392860D01*
X115683429Y-112244247D01*
X115593140Y-112113441D01*
X115474171Y-112008043D01*
X115380934Y-111959108D01*
X115329912Y-111909741D01*
X115313680Y-111840625D01*
X115337391Y-111773705D01*
X115380932Y-111735977D01*
X115444529Y-111702599D01*
X115563498Y-111597201D01*
X115653787Y-111466395D01*
X115710149Y-111317782D01*
X115729307Y-111160000D01*
X115710149Y-111002218D01*
X115653787Y-110853605D01*
X115563498Y-110722799D01*
X115444529Y-110617401D01*
X115303793Y-110543537D01*
X115149471Y-110505500D01*
X114990529Y-110505500D01*
X114836207Y-110543537D01*
X114836206Y-110543537D01*
X114836204Y-110543538D01*
X114695472Y-110617400D01*
X114576501Y-110722799D01*
X114486212Y-110853605D01*
X114429850Y-111002219D01*
X114410693Y-111160000D01*
X96738968Y-111160000D01*
X96770149Y-111077782D01*
X96789307Y-110920000D01*
X96770149Y-110762218D01*
X96713787Y-110613605D01*
X96623498Y-110482799D01*
X96504529Y-110377401D01*
X96363793Y-110303537D01*
X96209471Y-110265500D01*
X96050529Y-110265500D01*
X95896207Y-110303537D01*
X95896206Y-110303537D01*
X95896204Y-110303538D01*
X95755472Y-110377400D01*
X95636501Y-110482799D01*
X95546212Y-110613605D01*
X95489850Y-110762219D01*
X95470693Y-110919999D01*
X95489850Y-111077780D01*
X95546212Y-111226394D01*
X95636501Y-111357200D01*
X95705565Y-111418386D01*
X95743290Y-111478530D01*
X95742510Y-111549523D01*
X95705565Y-111607010D01*
X95615501Y-111686799D01*
X95525212Y-111817605D01*
X95468850Y-111966219D01*
X95449693Y-112124000D01*
X79871500Y-112124000D01*
X79871500Y-108965999D01*
X96749693Y-108965999D01*
X96768850Y-109123780D01*
X96825212Y-109272394D01*
X96895343Y-109373995D01*
X96915502Y-109403201D01*
X97034471Y-109508599D01*
X97175207Y-109582463D01*
X97329529Y-109620500D01*
X97329531Y-109620500D01*
X97488469Y-109620500D01*
X97488471Y-109620500D01*
X97642793Y-109582463D01*
X97783529Y-109508599D01*
X97902498Y-109403201D01*
X97992787Y-109272395D01*
X98049149Y-109123782D01*
X98055971Y-109067600D01*
X101423293Y-109067600D01*
X101442450Y-109225380D01*
X101498812Y-109373994D01*
X101518972Y-109403200D01*
X101589102Y-109504801D01*
X101708071Y-109610199D01*
X101848807Y-109684063D01*
X102003129Y-109722100D01*
X102003131Y-109722100D01*
X102162069Y-109722100D01*
X102162071Y-109722100D01*
X102316393Y-109684063D01*
X102457129Y-109610199D01*
X102576098Y-109504801D01*
X102666387Y-109373995D01*
X102722749Y-109225382D01*
X102741907Y-109067600D01*
X102722749Y-108909818D01*
X102666387Y-108761205D01*
X102576098Y-108630399D01*
X102457129Y-108525001D01*
X102316393Y-108451137D01*
X102162071Y-108413100D01*
X102003129Y-108413100D01*
X101848807Y-108451137D01*
X101848806Y-108451137D01*
X101848804Y-108451138D01*
X101708072Y-108525000D01*
X101589101Y-108630399D01*
X101498812Y-108761205D01*
X101442450Y-108909819D01*
X101423293Y-109067600D01*
X98055971Y-109067600D01*
X98068307Y-108966000D01*
X98049149Y-108808218D01*
X97992787Y-108659605D01*
X97902498Y-108528799D01*
X97783529Y-108423401D01*
X97642793Y-108349537D01*
X97488471Y-108311500D01*
X97329529Y-108311500D01*
X97175207Y-108349537D01*
X97175206Y-108349537D01*
X97175204Y-108349538D01*
X97034472Y-108423400D01*
X96915501Y-108528799D01*
X96825212Y-108659605D01*
X96768850Y-108808219D01*
X96749693Y-108965999D01*
X79871500Y-108965999D01*
X79871500Y-106644999D01*
X88228693Y-106644999D01*
X88247850Y-106802780D01*
X88304212Y-106951394D01*
X88376154Y-107055619D01*
X88394502Y-107082201D01*
X88513471Y-107187599D01*
X88654207Y-107261463D01*
X88808529Y-107299500D01*
X88808531Y-107299500D01*
X88967469Y-107299500D01*
X88967471Y-107299500D01*
X89121793Y-107261463D01*
X89213369Y-107213400D01*
X97943493Y-107213400D01*
X97962650Y-107371180D01*
X98019012Y-107519794D01*
X98103516Y-107642218D01*
X98109302Y-107650601D01*
X98228271Y-107755999D01*
X98369007Y-107829863D01*
X98523329Y-107867900D01*
X98523331Y-107867900D01*
X98682269Y-107867900D01*
X98682271Y-107867900D01*
X98836593Y-107829863D01*
X98893494Y-107799999D01*
X111870693Y-107799999D01*
X111889850Y-107957780D01*
X111946212Y-108106394D01*
X111946213Y-108106395D01*
X112036502Y-108237201D01*
X112155471Y-108342599D01*
X112296207Y-108416463D01*
X112450529Y-108454500D01*
X112450531Y-108454500D01*
X112609469Y-108454500D01*
X112609471Y-108454500D01*
X112763793Y-108416463D01*
X112904529Y-108342599D01*
X113023498Y-108237201D01*
X113113787Y-108106395D01*
X113170149Y-107957782D01*
X113189307Y-107800000D01*
X113170149Y-107642218D01*
X113113787Y-107493605D01*
X113023498Y-107362799D01*
X112904529Y-107257401D01*
X112820692Y-107213400D01*
X112763795Y-107183538D01*
X112763794Y-107183537D01*
X112763793Y-107183537D01*
X112609471Y-107145500D01*
X112450529Y-107145500D01*
X112296207Y-107183537D01*
X112296206Y-107183537D01*
X112296204Y-107183538D01*
X112155472Y-107257400D01*
X112036501Y-107362799D01*
X111946212Y-107493605D01*
X111889850Y-107642219D01*
X111870693Y-107799999D01*
X98893494Y-107799999D01*
X98977329Y-107755999D01*
X99096298Y-107650601D01*
X99186587Y-107519795D01*
X99242949Y-107371182D01*
X99262107Y-107213400D01*
X99242949Y-107055618D01*
X99186587Y-106907005D01*
X99096298Y-106776199D01*
X98977329Y-106670801D01*
X98836593Y-106596937D01*
X98682271Y-106558900D01*
X98523329Y-106558900D01*
X98369007Y-106596937D01*
X98369006Y-106596937D01*
X98369004Y-106596938D01*
X98228272Y-106670800D01*
X98109301Y-106776199D01*
X98019012Y-106907005D01*
X97962650Y-107055619D01*
X97943493Y-107213400D01*
X89213369Y-107213400D01*
X89262529Y-107187599D01*
X89381498Y-107082201D01*
X89471787Y-106951395D01*
X89528149Y-106802782D01*
X89547307Y-106645000D01*
X89528149Y-106487218D01*
X89471787Y-106338605D01*
X89381498Y-106207799D01*
X89262529Y-106102401D01*
X89121793Y-106028537D01*
X89046586Y-106010000D01*
X110590693Y-106010000D01*
X110609850Y-106167780D01*
X110666212Y-106316394D01*
X110666213Y-106316395D01*
X110756502Y-106447201D01*
X110875471Y-106552599D01*
X111016207Y-106626463D01*
X111170529Y-106664500D01*
X111170531Y-106664500D01*
X111329469Y-106664500D01*
X111329471Y-106664500D01*
X111483793Y-106626463D01*
X111624529Y-106552599D01*
X111743498Y-106447201D01*
X111833787Y-106316395D01*
X111890149Y-106167782D01*
X111909307Y-106010000D01*
X111890149Y-105852218D01*
X111833787Y-105703605D01*
X111743498Y-105572799D01*
X111624529Y-105467401D01*
X111483793Y-105393537D01*
X111329471Y-105355500D01*
X111170529Y-105355500D01*
X111016207Y-105393537D01*
X111016206Y-105393537D01*
X111016204Y-105393538D01*
X110875472Y-105467400D01*
X110756501Y-105572799D01*
X110666212Y-105703605D01*
X110609850Y-105852219D01*
X110590693Y-106010000D01*
X89046586Y-106010000D01*
X88967471Y-105990500D01*
X88808529Y-105990500D01*
X88654207Y-106028537D01*
X88654206Y-106028537D01*
X88654204Y-106028538D01*
X88513472Y-106102400D01*
X88394501Y-106207799D01*
X88304212Y-106338605D01*
X88247850Y-106487219D01*
X88228693Y-106644999D01*
X79871500Y-106644999D01*
X79871500Y-105214168D01*
X125634649Y-105214168D01*
X125665277Y-105387867D01*
X125735136Y-105549819D01*
X125840459Y-105691292D01*
X125840460Y-105691293D01*
X125840461Y-105691294D01*
X125975573Y-105804667D01*
X126133189Y-105883824D01*
X126304812Y-105924500D01*
X126304814Y-105924500D01*
X127533272Y-105924500D01*
X127536941Y-105924500D01*
X127668184Y-105909160D01*
X127833924Y-105848836D01*
X127981285Y-105751915D01*
X128102322Y-105623623D01*
X128190510Y-105470876D01*
X128241095Y-105301909D01*
X128246206Y-105214168D01*
X129964649Y-105214168D01*
X129995277Y-105387867D01*
X130065136Y-105549819D01*
X130170459Y-105691292D01*
X130170460Y-105691293D01*
X130170461Y-105691294D01*
X130305573Y-105804667D01*
X130463189Y-105883824D01*
X130634812Y-105924500D01*
X130634814Y-105924500D01*
X131563272Y-105924500D01*
X131566941Y-105924500D01*
X131698184Y-105909160D01*
X131863924Y-105848836D01*
X132011285Y-105751915D01*
X132132322Y-105623623D01*
X132220510Y-105470876D01*
X132271095Y-105301909D01*
X132281351Y-105125831D01*
X132250723Y-104952134D01*
X132180864Y-104790182D01*
X132155761Y-104756463D01*
X132075540Y-104648707D01*
X131990323Y-104577201D01*
X131940427Y-104535333D01*
X131782811Y-104456176D01*
X131611188Y-104415500D01*
X130679059Y-104415500D01*
X130675431Y-104415923D01*
X130675414Y-104415925D01*
X130547814Y-104430840D01*
X130382078Y-104491162D01*
X130234712Y-104588086D01*
X130113678Y-104716376D01*
X130025490Y-104869121D01*
X129974905Y-105038090D01*
X129964649Y-105214168D01*
X128246206Y-105214168D01*
X128251351Y-105125831D01*
X128220723Y-104952134D01*
X128150864Y-104790182D01*
X128125761Y-104756463D01*
X128045540Y-104648707D01*
X127959362Y-104576395D01*
X127910427Y-104535333D01*
X127752811Y-104456176D01*
X127752809Y-104456175D01*
X127752436Y-104455988D01*
X127700538Y-104407541D01*
X127683071Y-104338726D01*
X127705581Y-104271393D01*
X127732281Y-104243427D01*
X127733228Y-104242699D01*
X127733233Y-104242698D01*
X127853451Y-104150451D01*
X127945698Y-104030233D01*
X128003687Y-103890236D01*
X128023466Y-103740000D01*
X128003687Y-103589764D01*
X127945698Y-103449767D01*
X127853451Y-103329549D01*
X127733233Y-103237302D01*
X127733232Y-103237301D01*
X127593235Y-103179312D01*
X127484807Y-103165038D01*
X127484806Y-103165037D01*
X127480720Y-103164500D01*
X127405280Y-103164500D01*
X127401194Y-103165037D01*
X127401192Y-103165038D01*
X127292764Y-103179312D01*
X127152767Y-103237301D01*
X127032549Y-103329549D01*
X126940301Y-103449767D01*
X126882312Y-103589764D01*
X126862534Y-103740000D01*
X126882312Y-103890235D01*
X126940301Y-104030232D01*
X126961764Y-104058202D01*
X127032549Y-104150451D01*
X127083488Y-104189538D01*
X127125355Y-104246876D01*
X127129576Y-104317747D01*
X127094811Y-104379650D01*
X127032098Y-104412931D01*
X127006783Y-104415500D01*
X126349059Y-104415500D01*
X126345431Y-104415923D01*
X126345414Y-104415925D01*
X126217814Y-104430840D01*
X126052078Y-104491162D01*
X125904712Y-104588086D01*
X125783678Y-104716376D01*
X125695490Y-104869121D01*
X125644905Y-105038090D01*
X125634649Y-105214168D01*
X79871500Y-105214168D01*
X79871500Y-104240000D01*
X102340693Y-104240000D01*
X102359850Y-104397780D01*
X102416212Y-104546394D01*
X102444990Y-104588085D01*
X102506502Y-104677201D01*
X102625471Y-104782599D01*
X102766207Y-104856463D01*
X102920529Y-104894500D01*
X102920531Y-104894500D01*
X103079469Y-104894500D01*
X103079471Y-104894500D01*
X103233793Y-104856463D01*
X103374529Y-104782599D01*
X103493498Y-104677201D01*
X103583787Y-104546395D01*
X103640149Y-104397782D01*
X103655664Y-104270000D01*
X107670693Y-104270000D01*
X107689850Y-104427780D01*
X107746212Y-104576394D01*
X107815794Y-104677200D01*
X107836502Y-104707201D01*
X107955471Y-104812599D01*
X108096207Y-104886463D01*
X108250529Y-104924500D01*
X108250531Y-104924500D01*
X108409469Y-104924500D01*
X108409471Y-104924500D01*
X108563793Y-104886463D01*
X108704529Y-104812599D01*
X108823498Y-104707201D01*
X108913787Y-104576395D01*
X108970149Y-104427782D01*
X108989307Y-104270000D01*
X108970149Y-104112218D01*
X108913787Y-103963605D01*
X108823498Y-103832799D01*
X108704529Y-103727401D01*
X108563793Y-103653537D01*
X108409471Y-103615500D01*
X108250529Y-103615500D01*
X108096207Y-103653537D01*
X108096206Y-103653537D01*
X108096204Y-103653538D01*
X107955472Y-103727400D01*
X107836501Y-103832799D01*
X107746212Y-103963605D01*
X107689850Y-104112219D01*
X107670693Y-104270000D01*
X103655664Y-104270000D01*
X103659307Y-104240000D01*
X103640149Y-104082218D01*
X103583787Y-103933605D01*
X103493498Y-103802799D01*
X103374529Y-103697401D01*
X103233793Y-103623537D01*
X103079471Y-103585500D01*
X102920529Y-103585500D01*
X102766207Y-103623537D01*
X102766206Y-103623537D01*
X102766204Y-103623538D01*
X102625472Y-103697400D01*
X102506501Y-103802799D01*
X102416212Y-103933605D01*
X102359850Y-104082219D01*
X102340693Y-104240000D01*
X79871500Y-104240000D01*
X79871500Y-103250000D01*
X122176726Y-103250000D01*
X122195763Y-103418956D01*
X122208033Y-103454020D01*
X122251918Y-103579437D01*
X122255728Y-103585500D01*
X122342377Y-103723402D01*
X122462597Y-103843622D01*
X122462599Y-103843623D01*
X122462600Y-103843624D01*
X122606563Y-103934082D01*
X122767046Y-103990237D01*
X122910890Y-104006444D01*
X122976342Y-104033948D01*
X123016535Y-104092472D01*
X123019718Y-104124950D01*
X123020849Y-104124813D01*
X123041850Y-104297780D01*
X123098212Y-104446394D01*
X123187946Y-104576395D01*
X123188502Y-104577201D01*
X123307471Y-104682599D01*
X123448207Y-104756463D01*
X123602529Y-104794500D01*
X123602531Y-104794500D01*
X123761469Y-104794500D01*
X123761471Y-104794500D01*
X123915793Y-104756463D01*
X124056529Y-104682599D01*
X124175498Y-104577201D01*
X124265787Y-104446395D01*
X124322149Y-104297782D01*
X124341307Y-104140000D01*
X124322149Y-103982218D01*
X124265787Y-103833605D01*
X124175498Y-103702799D01*
X124056529Y-103597401D01*
X123915793Y-103523537D01*
X123778686Y-103489743D01*
X123717334Y-103454020D01*
X123685032Y-103390797D01*
X123683634Y-103353303D01*
X123695274Y-103250000D01*
X123676237Y-103081046D01*
X123676236Y-103081043D01*
X123674647Y-103066939D01*
X123679413Y-103066401D01*
X123677185Y-103023339D01*
X123712431Y-102961709D01*
X123775402Y-102928919D01*
X123846104Y-102935378D01*
X123858296Y-102940969D01*
X123920207Y-102973463D01*
X124074529Y-103011500D01*
X124074531Y-103011500D01*
X124233469Y-103011500D01*
X124233471Y-103011500D01*
X124387793Y-102973463D01*
X124528529Y-102899599D01*
X124647498Y-102794201D01*
X124737787Y-102663395D01*
X124794149Y-102514782D01*
X124813307Y-102357000D01*
X124794149Y-102199218D01*
X124737787Y-102050605D01*
X124647498Y-101919799D01*
X124528529Y-101814401D01*
X124387793Y-101740537D01*
X124233471Y-101702500D01*
X124074529Y-101702500D01*
X123920207Y-101740537D01*
X123920206Y-101740537D01*
X123920204Y-101740538D01*
X123779472Y-101814400D01*
X123660501Y-101919799D01*
X123570212Y-102050605D01*
X123513850Y-102199219D01*
X123494692Y-102357000D01*
X123509202Y-102476496D01*
X123497557Y-102546531D01*
X123449896Y-102599152D01*
X123381353Y-102617653D01*
X123317086Y-102598371D01*
X123265435Y-102565917D01*
X123104956Y-102509763D01*
X122936000Y-102490726D01*
X122767043Y-102509763D01*
X122606563Y-102565918D01*
X122462597Y-102656377D01*
X122342377Y-102776597D01*
X122251918Y-102920563D01*
X122195763Y-103081043D01*
X122176726Y-103250000D01*
X79871500Y-103250000D01*
X79871500Y-101219000D01*
X84811693Y-101219000D01*
X84830850Y-101376780D01*
X84887212Y-101525394D01*
X84970047Y-101645400D01*
X84977502Y-101656201D01*
X85096471Y-101761599D01*
X85237207Y-101835463D01*
X85391529Y-101873500D01*
X85391531Y-101873500D01*
X85550469Y-101873500D01*
X85550471Y-101873500D01*
X85704793Y-101835463D01*
X85781891Y-101794999D01*
X92158693Y-101794999D01*
X92177850Y-101952780D01*
X92234212Y-102101394D01*
X92309718Y-102210782D01*
X92324502Y-102232201D01*
X92443471Y-102337599D01*
X92584207Y-102411463D01*
X92738529Y-102449500D01*
X92738531Y-102449500D01*
X92897469Y-102449500D01*
X92897471Y-102449500D01*
X93051793Y-102411463D01*
X93192529Y-102337599D01*
X93311498Y-102232201D01*
X93401787Y-102101395D01*
X93420141Y-102052999D01*
X111288693Y-102052999D01*
X111307850Y-102210780D01*
X111364212Y-102359394D01*
X111452391Y-102487142D01*
X111454502Y-102490201D01*
X111573471Y-102595599D01*
X111714207Y-102669463D01*
X111868529Y-102707500D01*
X111868531Y-102707500D01*
X112027469Y-102707500D01*
X112027471Y-102707500D01*
X112181793Y-102669463D01*
X112322529Y-102595599D01*
X112360727Y-102561757D01*
X112424977Y-102531558D01*
X112495358Y-102540889D01*
X112527832Y-102561758D01*
X112547969Y-102579598D01*
X112547971Y-102579599D01*
X112688707Y-102653463D01*
X112843029Y-102691500D01*
X112843031Y-102691500D01*
X113001969Y-102691500D01*
X113001971Y-102691500D01*
X113156293Y-102653463D01*
X113297029Y-102579599D01*
X113415998Y-102474201D01*
X113506287Y-102343395D01*
X113562649Y-102194782D01*
X113563472Y-102188000D01*
X114914393Y-102188000D01*
X114915755Y-102199218D01*
X114933550Y-102345780D01*
X114989912Y-102494394D01*
X115069848Y-102610200D01*
X115080202Y-102625201D01*
X115199171Y-102730599D01*
X115339907Y-102804463D01*
X115494229Y-102842500D01*
X115494231Y-102842500D01*
X115653169Y-102842500D01*
X115653171Y-102842500D01*
X115807493Y-102804463D01*
X115948229Y-102730599D01*
X116067198Y-102625201D01*
X116157487Y-102494395D01*
X116213849Y-102345782D01*
X116233007Y-102188000D01*
X116231186Y-102172999D01*
X116512693Y-102172999D01*
X116531850Y-102330780D01*
X116588212Y-102479394D01*
X116668424Y-102595600D01*
X116678502Y-102610201D01*
X116797471Y-102715599D01*
X116938207Y-102789463D01*
X117092529Y-102827500D01*
X117092531Y-102827500D01*
X117251469Y-102827500D01*
X117251471Y-102827500D01*
X117405793Y-102789463D01*
X117546529Y-102715599D01*
X117665498Y-102610201D01*
X117755787Y-102479395D01*
X117812149Y-102330782D01*
X117831307Y-102173000D01*
X117812149Y-102015218D01*
X117755787Y-101866605D01*
X117665498Y-101735799D01*
X117546529Y-101630401D01*
X117405793Y-101556537D01*
X117251471Y-101518500D01*
X117092529Y-101518500D01*
X116938207Y-101556537D01*
X116938206Y-101556537D01*
X116938204Y-101556538D01*
X116797472Y-101630400D01*
X116678501Y-101735799D01*
X116588212Y-101866605D01*
X116531850Y-102015219D01*
X116512693Y-102172999D01*
X116231186Y-102172999D01*
X116213849Y-102030218D01*
X116157487Y-101881605D01*
X116067198Y-101750799D01*
X115948229Y-101645401D01*
X115807493Y-101571537D01*
X115653171Y-101533500D01*
X115494229Y-101533500D01*
X115339907Y-101571537D01*
X115339906Y-101571537D01*
X115339904Y-101571538D01*
X115199172Y-101645400D01*
X115080201Y-101750799D01*
X114989912Y-101881605D01*
X114933550Y-102030219D01*
X114916214Y-102172999D01*
X114914393Y-102188000D01*
X113563472Y-102188000D01*
X113581807Y-102037000D01*
X113562649Y-101879218D01*
X113506287Y-101730605D01*
X113415998Y-101599799D01*
X113297029Y-101494401D01*
X113156293Y-101420537D01*
X113001971Y-101382500D01*
X112843029Y-101382500D01*
X112688707Y-101420537D01*
X112688706Y-101420537D01*
X112688704Y-101420538D01*
X112547972Y-101494400D01*
X112547970Y-101494401D01*
X112547971Y-101494401D01*
X112512987Y-101525395D01*
X112509773Y-101528242D01*
X112445520Y-101558442D01*
X112375140Y-101549111D01*
X112342666Y-101528240D01*
X112322532Y-101510402D01*
X112248981Y-101471800D01*
X112181793Y-101436537D01*
X112027471Y-101398500D01*
X111868529Y-101398500D01*
X111714207Y-101436537D01*
X111714206Y-101436537D01*
X111714204Y-101436538D01*
X111573472Y-101510400D01*
X111454501Y-101615799D01*
X111364212Y-101746605D01*
X111307850Y-101895219D01*
X111288693Y-102052999D01*
X93420141Y-102052999D01*
X93458149Y-101952782D01*
X93477307Y-101795000D01*
X93458149Y-101637218D01*
X93401787Y-101488605D01*
X93311498Y-101357799D01*
X93192529Y-101252401D01*
X93051793Y-101178537D01*
X92897471Y-101140500D01*
X92738529Y-101140500D01*
X92584207Y-101178537D01*
X92584206Y-101178537D01*
X92584204Y-101178538D01*
X92443472Y-101252400D01*
X92324501Y-101357799D01*
X92234212Y-101488605D01*
X92177850Y-101637219D01*
X92158693Y-101794999D01*
X85781891Y-101794999D01*
X85845529Y-101761599D01*
X85964498Y-101656201D01*
X86054787Y-101525395D01*
X86111149Y-101376782D01*
X86130307Y-101219000D01*
X86111149Y-101061218D01*
X86054787Y-100912605D01*
X85964498Y-100781799D01*
X85845529Y-100676401D01*
X85704793Y-100602537D01*
X85550471Y-100564500D01*
X85391529Y-100564500D01*
X85237207Y-100602537D01*
X85237206Y-100602537D01*
X85237204Y-100602538D01*
X85096472Y-100676400D01*
X84977501Y-100781799D01*
X84887212Y-100912605D01*
X84830850Y-101061219D01*
X84811693Y-101219000D01*
X79871500Y-101219000D01*
X79871500Y-99809799D01*
X87302093Y-99809799D01*
X87321250Y-99967580D01*
X87377612Y-100116194D01*
X87460999Y-100237000D01*
X87467902Y-100247001D01*
X87586871Y-100352399D01*
X87727607Y-100426263D01*
X87881929Y-100464300D01*
X87881931Y-100464300D01*
X88040869Y-100464300D01*
X88040871Y-100464300D01*
X88070488Y-100457000D01*
X118593693Y-100457000D01*
X118612850Y-100614780D01*
X118669212Y-100763394D01*
X118669213Y-100763395D01*
X118759502Y-100894201D01*
X118878471Y-100999599D01*
X119019207Y-101073463D01*
X119173529Y-101111500D01*
X119173531Y-101111500D01*
X119332469Y-101111500D01*
X119332471Y-101111500D01*
X119486793Y-101073463D01*
X119627529Y-100999599D01*
X119746498Y-100894201D01*
X119836787Y-100763395D01*
X119893149Y-100614782D01*
X119912307Y-100457000D01*
X119893149Y-100299218D01*
X119836787Y-100150605D01*
X119746498Y-100019799D01*
X119627529Y-99914401D01*
X119486793Y-99840537D01*
X119332471Y-99802500D01*
X119173529Y-99802500D01*
X119019207Y-99840537D01*
X119019206Y-99840537D01*
X119019204Y-99840538D01*
X118878472Y-99914400D01*
X118759501Y-100019799D01*
X118669212Y-100150605D01*
X118612850Y-100299219D01*
X118593693Y-100457000D01*
X88070488Y-100457000D01*
X88195193Y-100426263D01*
X88335929Y-100352399D01*
X88454898Y-100247001D01*
X88454898Y-100247000D01*
X88466349Y-100236856D01*
X88467872Y-100238575D01*
X88506776Y-100207044D01*
X88577344Y-100199255D01*
X88638876Y-100229004D01*
X88647900Y-100236999D01*
X88647902Y-100237001D01*
X88766871Y-100342399D01*
X88907607Y-100416263D01*
X89061929Y-100454300D01*
X89061931Y-100454300D01*
X89220869Y-100454300D01*
X89220871Y-100454300D01*
X89375193Y-100416263D01*
X89515929Y-100342399D01*
X89634898Y-100237001D01*
X89725187Y-100106195D01*
X89781549Y-99957582D01*
X89800707Y-99799800D01*
X89796482Y-99765000D01*
X115412311Y-99765000D01*
X115432957Y-99908593D01*
X115432957Y-99908594D01*
X115432958Y-99908596D01*
X115493223Y-100040558D01*
X115517223Y-100068256D01*
X115588226Y-100150197D01*
X115676681Y-100207044D01*
X115710268Y-100228629D01*
X115791602Y-100252510D01*
X115849463Y-100269500D01*
X115849464Y-100269500D01*
X115994537Y-100269500D01*
X116035407Y-100257499D01*
X116133732Y-100228629D01*
X116255775Y-100150196D01*
X116326777Y-100068255D01*
X116386502Y-100029873D01*
X116457498Y-100029873D01*
X116517222Y-100068255D01*
X116550097Y-100106194D01*
X116588226Y-100150197D01*
X116676681Y-100207044D01*
X116710268Y-100228629D01*
X116791602Y-100252510D01*
X116849463Y-100269500D01*
X116849464Y-100269500D01*
X116994537Y-100269500D01*
X117035408Y-100257499D01*
X117133732Y-100228629D01*
X117255775Y-100150196D01*
X117350777Y-100040558D01*
X117411042Y-99908596D01*
X117431688Y-99765000D01*
X117411042Y-99621404D01*
X117350777Y-99489442D01*
X117255775Y-99379804D01*
X117255774Y-99379803D01*
X117249819Y-99375976D01*
X117242071Y-99370996D01*
X117195579Y-99317343D01*
X117185474Y-99247069D01*
X117214967Y-99182488D01*
X117242069Y-99159003D01*
X117255775Y-99150196D01*
X117350777Y-99040558D01*
X117411042Y-98908596D01*
X117431688Y-98765000D01*
X117411042Y-98621404D01*
X117350777Y-98489442D01*
X117316600Y-98450000D01*
X122036726Y-98450000D01*
X122055763Y-98618956D01*
X122093199Y-98725942D01*
X122111918Y-98779437D01*
X122131418Y-98810471D01*
X122202377Y-98923402D01*
X122322597Y-99043622D01*
X122322599Y-99043623D01*
X122322600Y-99043624D01*
X122466563Y-99134082D01*
X122627046Y-99190237D01*
X122796000Y-99209274D01*
X122964954Y-99190237D01*
X123125437Y-99134082D01*
X123269400Y-99043624D01*
X123339048Y-98973975D01*
X123401358Y-98939952D01*
X123472174Y-98945016D01*
X123529010Y-98987562D01*
X123553821Y-99054082D01*
X123545954Y-99107751D01*
X123518850Y-99179217D01*
X123499693Y-99337000D01*
X123518850Y-99494780D01*
X123575212Y-99643394D01*
X123581166Y-99652019D01*
X123665502Y-99774201D01*
X123784471Y-99879599D01*
X123925207Y-99953463D01*
X124079529Y-99991500D01*
X124079531Y-99991500D01*
X124238469Y-99991500D01*
X124238471Y-99991500D01*
X124392793Y-99953463D01*
X124533529Y-99879599D01*
X124652498Y-99774201D01*
X124742787Y-99643395D01*
X124799149Y-99494782D01*
X124818307Y-99337000D01*
X124799149Y-99179218D01*
X124742787Y-99030605D01*
X124652498Y-98899799D01*
X124533529Y-98794401D01*
X124392793Y-98720537D01*
X124238471Y-98682500D01*
X124079529Y-98682500D01*
X123925207Y-98720537D01*
X123925206Y-98720537D01*
X123925204Y-98720538D01*
X123784472Y-98794400D01*
X123698122Y-98870899D01*
X123633869Y-98901099D01*
X123563488Y-98891767D01*
X123509325Y-98845866D01*
X123488577Y-98777969D01*
X123495638Y-98734978D01*
X123536237Y-98618954D01*
X123555274Y-98450000D01*
X123536237Y-98281046D01*
X123480082Y-98120563D01*
X123389624Y-97976600D01*
X123389623Y-97976599D01*
X123389622Y-97976597D01*
X123269402Y-97856377D01*
X123195217Y-97809764D01*
X123125437Y-97765918D01*
X123071101Y-97746905D01*
X122964956Y-97709763D01*
X122796000Y-97690726D01*
X122627043Y-97709763D01*
X122466563Y-97765918D01*
X122322597Y-97856377D01*
X122202377Y-97976597D01*
X122111918Y-98120563D01*
X122055763Y-98281043D01*
X122036726Y-98450000D01*
X117316600Y-98450000D01*
X117255775Y-98379804D01*
X117255774Y-98379803D01*
X117255773Y-98379802D01*
X117133733Y-98301371D01*
X116994537Y-98260500D01*
X116994536Y-98260500D01*
X116849464Y-98260500D01*
X116849463Y-98260500D01*
X116710266Y-98301371D01*
X116588226Y-98379802D01*
X116517224Y-98461743D01*
X116457498Y-98500126D01*
X116386501Y-98500126D01*
X116326776Y-98461743D01*
X116255773Y-98379802D01*
X116133733Y-98301371D01*
X115994537Y-98260500D01*
X115994536Y-98260500D01*
X115849464Y-98260500D01*
X115849463Y-98260500D01*
X115710266Y-98301371D01*
X115588226Y-98379802D01*
X115493223Y-98489441D01*
X115432957Y-98621406D01*
X115412311Y-98765000D01*
X115432957Y-98908593D01*
X115432957Y-98908594D01*
X115432958Y-98908596D01*
X115469021Y-98987562D01*
X115493223Y-99040558D01*
X115588225Y-99150196D01*
X115601929Y-99159003D01*
X115648421Y-99212659D01*
X115658524Y-99282933D01*
X115629031Y-99347514D01*
X115601929Y-99370997D01*
X115588225Y-99379803D01*
X115493223Y-99489441D01*
X115432957Y-99621406D01*
X115412311Y-99765000D01*
X89796482Y-99765000D01*
X89781549Y-99642018D01*
X89725187Y-99493405D01*
X89634898Y-99362599D01*
X89515929Y-99257201D01*
X89375193Y-99183337D01*
X89220871Y-99145300D01*
X89061929Y-99145300D01*
X88907607Y-99183337D01*
X88907606Y-99183337D01*
X88907604Y-99183338D01*
X88766872Y-99257200D01*
X88755583Y-99267201D01*
X88664930Y-99347514D01*
X88636451Y-99372744D01*
X88634928Y-99371025D01*
X88596006Y-99402563D01*
X88525437Y-99410340D01*
X88463923Y-99380595D01*
X88454898Y-99372600D01*
X88454898Y-99372599D01*
X88335929Y-99267201D01*
X88225558Y-99209274D01*
X88195195Y-99193338D01*
X88195194Y-99193337D01*
X88195193Y-99193337D01*
X88040871Y-99155300D01*
X87881929Y-99155300D01*
X87727607Y-99193337D01*
X87727606Y-99193337D01*
X87727604Y-99193338D01*
X87586872Y-99267200D01*
X87467901Y-99372599D01*
X87377612Y-99503405D01*
X87321250Y-99652019D01*
X87302093Y-99809799D01*
X79871500Y-99809799D01*
X79871500Y-98592000D01*
X96368693Y-98592000D01*
X96387850Y-98749780D01*
X96444212Y-98898394D01*
X96533039Y-99027081D01*
X96534502Y-99029201D01*
X96653471Y-99134599D01*
X96794207Y-99208463D01*
X96948529Y-99246500D01*
X96948531Y-99246500D01*
X97107469Y-99246500D01*
X97107471Y-99246500D01*
X97261793Y-99208463D01*
X97402529Y-99134599D01*
X97521498Y-99029201D01*
X97611787Y-98898395D01*
X97668149Y-98749782D01*
X97672919Y-98710496D01*
X97700986Y-98645284D01*
X97759854Y-98605597D01*
X97830833Y-98604037D01*
X97891389Y-98641099D01*
X97922293Y-98705016D01*
X97923081Y-98710497D01*
X97927850Y-98749780D01*
X97984212Y-98898394D01*
X98073039Y-99027081D01*
X98074502Y-99029201D01*
X98193471Y-99134599D01*
X98334207Y-99208463D01*
X98488529Y-99246500D01*
X98488531Y-99246500D01*
X98647469Y-99246500D01*
X98647471Y-99246500D01*
X98801793Y-99208463D01*
X98942529Y-99134599D01*
X99061498Y-99029201D01*
X99151787Y-98898395D01*
X99208149Y-98749782D01*
X99227307Y-98592000D01*
X99215044Y-98491000D01*
X104600793Y-98491000D01*
X104619569Y-98669639D01*
X104619570Y-98669642D01*
X104675074Y-98840470D01*
X104764887Y-98996030D01*
X104885076Y-99129513D01*
X104885078Y-99129515D01*
X105030396Y-99235095D01*
X105194490Y-99308154D01*
X105370188Y-99345500D01*
X105370190Y-99345500D01*
X105549810Y-99345500D01*
X105549812Y-99345500D01*
X105725510Y-99308154D01*
X105889604Y-99235095D01*
X106034922Y-99129515D01*
X106155113Y-98996029D01*
X106244925Y-98840471D01*
X106300431Y-98669639D01*
X106319207Y-98491000D01*
X106316054Y-98461000D01*
X106580793Y-98461000D01*
X106599569Y-98639639D01*
X106599570Y-98639642D01*
X106655074Y-98810470D01*
X106744887Y-98966030D01*
X106824170Y-99054082D01*
X106865078Y-99099515D01*
X107010396Y-99205095D01*
X107174490Y-99278154D01*
X107350188Y-99315500D01*
X107350190Y-99315500D01*
X107529810Y-99315500D01*
X107529812Y-99315500D01*
X107705510Y-99278154D01*
X107869604Y-99205095D01*
X108014922Y-99099515D01*
X108135113Y-98966029D01*
X108224925Y-98810471D01*
X108280431Y-98639639D01*
X108299207Y-98461000D01*
X108280431Y-98282361D01*
X108224925Y-98111529D01*
X108152434Y-97985971D01*
X108135112Y-97955969D01*
X108014923Y-97822486D01*
X107910897Y-97746906D01*
X107869604Y-97716905D01*
X107708102Y-97645000D01*
X112302693Y-97645000D01*
X112321850Y-97802780D01*
X112378212Y-97951394D01*
X112445862Y-98049401D01*
X112468502Y-98082201D01*
X112587471Y-98187599D01*
X112706808Y-98250232D01*
X112726092Y-98260353D01*
X112777115Y-98309721D01*
X112793347Y-98378837D01*
X112771233Y-98443496D01*
X112688811Y-98562904D01*
X112632449Y-98711518D01*
X112613292Y-98869299D01*
X112632449Y-99027079D01*
X112688811Y-99175693D01*
X112775561Y-99301371D01*
X112779101Y-99306500D01*
X112898070Y-99411898D01*
X113038806Y-99485762D01*
X113193128Y-99523799D01*
X113193130Y-99523799D01*
X113352068Y-99523799D01*
X113352070Y-99523799D01*
X113506392Y-99485762D01*
X113647128Y-99411898D01*
X113766097Y-99306500D01*
X113856386Y-99175694D01*
X113912748Y-99027081D01*
X113931906Y-98869299D01*
X113912748Y-98711517D01*
X113856386Y-98562904D01*
X113766097Y-98432098D01*
X113707070Y-98379804D01*
X113647126Y-98326698D01*
X113508506Y-98253945D01*
X113457483Y-98204577D01*
X113441251Y-98135461D01*
X113463365Y-98070803D01*
X113545787Y-97951395D01*
X113602149Y-97802782D01*
X113621307Y-97645000D01*
X113602149Y-97487218D01*
X113545787Y-97338605D01*
X113455498Y-97207799D01*
X113336529Y-97102401D01*
X113195793Y-97028537D01*
X113041471Y-96990500D01*
X112882529Y-96990500D01*
X112728207Y-97028537D01*
X112728206Y-97028537D01*
X112728204Y-97028538D01*
X112587472Y-97102400D01*
X112468501Y-97207799D01*
X112378212Y-97338605D01*
X112321850Y-97487219D01*
X112302693Y-97645000D01*
X107708102Y-97645000D01*
X107705510Y-97643846D01*
X107529812Y-97606500D01*
X107350188Y-97606500D01*
X107233056Y-97631397D01*
X107174489Y-97643846D01*
X107010395Y-97716906D01*
X106865076Y-97822486D01*
X106744887Y-97955969D01*
X106655074Y-98111529D01*
X106606672Y-98260500D01*
X106599569Y-98282361D01*
X106580793Y-98461000D01*
X106316054Y-98461000D01*
X106300431Y-98312361D01*
X106244925Y-98141529D01*
X106155113Y-97985971D01*
X106155112Y-97985969D01*
X106034923Y-97852486D01*
X105993631Y-97822485D01*
X105889604Y-97746905D01*
X105725510Y-97673846D01*
X105549812Y-97636500D01*
X105370188Y-97636500D01*
X105253055Y-97661397D01*
X105194489Y-97673846D01*
X105030395Y-97746906D01*
X104885076Y-97852486D01*
X104764887Y-97985969D01*
X104675074Y-98141529D01*
X104619570Y-98312357D01*
X104619569Y-98312361D01*
X104600793Y-98491000D01*
X99215044Y-98491000D01*
X99208149Y-98434218D01*
X99151787Y-98285605D01*
X99061498Y-98154799D01*
X98942529Y-98049401D01*
X98801793Y-97975537D01*
X98647471Y-97937500D01*
X98488529Y-97937500D01*
X98334207Y-97975537D01*
X98334206Y-97975537D01*
X98334204Y-97975538D01*
X98193472Y-98049400D01*
X98074501Y-98154799D01*
X97984212Y-98285605D01*
X97927850Y-98434219D01*
X97923081Y-98473502D01*
X97895014Y-98538716D01*
X97836146Y-98578402D01*
X97765166Y-98579962D01*
X97704611Y-98542900D01*
X97673707Y-98478982D01*
X97672919Y-98473502D01*
X97670065Y-98449999D01*
X97668149Y-98434218D01*
X97611787Y-98285605D01*
X97521498Y-98154799D01*
X97402529Y-98049401D01*
X97261793Y-97975537D01*
X97107471Y-97937500D01*
X96948529Y-97937500D01*
X96794207Y-97975537D01*
X96794206Y-97975537D01*
X96794204Y-97975538D01*
X96653472Y-98049400D01*
X96534501Y-98154799D01*
X96444212Y-98285605D01*
X96387850Y-98434219D01*
X96368693Y-98592000D01*
X79871500Y-98592000D01*
X79871500Y-92840612D01*
X79891502Y-92772491D01*
X79945158Y-92725998D01*
X80015432Y-92715894D01*
X80027638Y-92718269D01*
X80089429Y-92733500D01*
X80089431Y-92733500D01*
X80248369Y-92733500D01*
X80248371Y-92733500D01*
X80402693Y-92695463D01*
X80543429Y-92621599D01*
X80662398Y-92516201D01*
X80752687Y-92385395D01*
X80809049Y-92236782D01*
X80828207Y-92079000D01*
X80809049Y-91921218D01*
X80752687Y-91772605D01*
X80662398Y-91641799D01*
X80543429Y-91536401D01*
X80435114Y-91479553D01*
X80402695Y-91462538D01*
X80402694Y-91462537D01*
X80402693Y-91462537D01*
X80248371Y-91424500D01*
X80089429Y-91424500D01*
X80027653Y-91439726D01*
X79956725Y-91436607D01*
X79898743Y-91395636D01*
X79872115Y-91329822D01*
X79871500Y-91317387D01*
X79871500Y-90822000D01*
X83778693Y-90822000D01*
X83797850Y-90979780D01*
X83854212Y-91128394D01*
X83944501Y-91259200D01*
X84063472Y-91364600D01*
X84188434Y-91430185D01*
X84239457Y-91479553D01*
X84255689Y-91548669D01*
X84247691Y-91586432D01*
X84187850Y-91744218D01*
X84168693Y-91902000D01*
X84187850Y-92059780D01*
X84244212Y-92208394D01*
X84321939Y-92321000D01*
X84334502Y-92339201D01*
X84453471Y-92444599D01*
X84594207Y-92518463D01*
X84748529Y-92556500D01*
X84748531Y-92556500D01*
X84907469Y-92556500D01*
X84907471Y-92556500D01*
X85061793Y-92518463D01*
X85202529Y-92444599D01*
X85321498Y-92339201D01*
X85411787Y-92208395D01*
X85468149Y-92059782D01*
X85487307Y-91902000D01*
X85468149Y-91744218D01*
X85411787Y-91595605D01*
X85321498Y-91464799D01*
X85202529Y-91359401D01*
X85077562Y-91293813D01*
X85026542Y-91244447D01*
X85010310Y-91175331D01*
X85018308Y-91137567D01*
X85021785Y-91128396D01*
X85021787Y-91128395D01*
X85078149Y-90979782D01*
X85097307Y-90822000D01*
X85078149Y-90664218D01*
X85021787Y-90515605D01*
X84931498Y-90384799D01*
X84812529Y-90279401D01*
X84671793Y-90205537D01*
X84517471Y-90167500D01*
X84358529Y-90167500D01*
X84204207Y-90205537D01*
X84204206Y-90205537D01*
X84204204Y-90205538D01*
X84063472Y-90279400D01*
X83944501Y-90384799D01*
X83854212Y-90515605D01*
X83797850Y-90664219D01*
X83778693Y-90822000D01*
X79871500Y-90822000D01*
X79871500Y-88935981D01*
X79891502Y-88867860D01*
X79908400Y-88846891D01*
X84422517Y-84332774D01*
X84484825Y-84298751D01*
X84512540Y-84295875D01*
X86285231Y-84309071D01*
X86353201Y-84329580D01*
X86399293Y-84383580D01*
X86410293Y-84434771D01*
X86416766Y-87183472D01*
X86396924Y-87251640D01*
X86349323Y-87295335D01*
X86303471Y-87319401D01*
X86303469Y-87319402D01*
X86303470Y-87319402D01*
X86184501Y-87424799D01*
X86094212Y-87555605D01*
X86037850Y-87704219D01*
X86018693Y-87862000D01*
X86037850Y-88019780D01*
X86094212Y-88168394D01*
X86184501Y-88299200D01*
X86303473Y-88404601D01*
X86352518Y-88430342D01*
X86403541Y-88479710D01*
X86419963Y-88541612D01*
X86432617Y-93915164D01*
X86412775Y-93983332D01*
X86359229Y-94029951D01*
X86288979Y-94040220D01*
X86224329Y-94010879D01*
X86202511Y-93986439D01*
X86136436Y-93889525D01*
X86136434Y-93889523D01*
X86136433Y-93889521D01*
X85957981Y-93697195D01*
X85752857Y-93533614D01*
X85525643Y-93402432D01*
X85525642Y-93402432D01*
X85281417Y-93306580D01*
X85025630Y-93248198D01*
X84831836Y-93233675D01*
X84831822Y-93233674D01*
X84829494Y-93233500D01*
X84698506Y-93233500D01*
X84696178Y-93233674D01*
X84696163Y-93233675D01*
X84502369Y-93248198D01*
X84246582Y-93306580D01*
X84002356Y-93402432D01*
X83775146Y-93533612D01*
X83775143Y-93533614D01*
X83570019Y-93697195D01*
X83431525Y-93846455D01*
X83391563Y-93889525D01*
X83243772Y-94106295D01*
X83129936Y-94342676D01*
X83052605Y-94593381D01*
X83052604Y-94593385D01*
X83013500Y-94852818D01*
X83013500Y-95115182D01*
X83052604Y-95374615D01*
X83052605Y-95374618D01*
X83129936Y-95625323D01*
X83243772Y-95861704D01*
X83391563Y-96078474D01*
X83391564Y-96078475D01*
X83391567Y-96078479D01*
X83570019Y-96270805D01*
X83775143Y-96434386D01*
X84002357Y-96565568D01*
X84246584Y-96661420D01*
X84502370Y-96719802D01*
X84698506Y-96734500D01*
X84700859Y-96734500D01*
X84827141Y-96734500D01*
X84829494Y-96734500D01*
X85025630Y-96719802D01*
X85281416Y-96661420D01*
X85525643Y-96565568D01*
X85752857Y-96434386D01*
X85957981Y-96270805D01*
X86136433Y-96078479D01*
X86207527Y-95974202D01*
X86262426Y-95929187D01*
X86332948Y-95920998D01*
X86396703Y-95952236D01*
X86433449Y-96012984D01*
X86437632Y-96044885D01*
X86440000Y-97050000D01*
X96472998Y-97037186D01*
X96541139Y-97057100D01*
X96556700Y-97068867D01*
X96642829Y-97145171D01*
X96653472Y-97154600D01*
X96727719Y-97193567D01*
X96794207Y-97228463D01*
X96948529Y-97266500D01*
X96948531Y-97266500D01*
X97107469Y-97266500D01*
X97107471Y-97266500D01*
X97261793Y-97228463D01*
X97402529Y-97154599D01*
X97500896Y-97067452D01*
X97565146Y-97037253D01*
X97584270Y-97035767D01*
X98010781Y-97035222D01*
X98078922Y-97055136D01*
X98094484Y-97066904D01*
X98145289Y-97111913D01*
X98193472Y-97154600D01*
X98267719Y-97193567D01*
X98334207Y-97228463D01*
X98488529Y-97266500D01*
X98488531Y-97266500D01*
X98647469Y-97266500D01*
X98647471Y-97266500D01*
X98801793Y-97228463D01*
X98942529Y-97154599D01*
X99043118Y-97065483D01*
X99107369Y-97035284D01*
X99126501Y-97033797D01*
X104724209Y-97026648D01*
X104792350Y-97046562D01*
X104817998Y-97068334D01*
X104848672Y-97102400D01*
X104855079Y-97109516D01*
X104882607Y-97129516D01*
X105000396Y-97215095D01*
X105164490Y-97288154D01*
X105340188Y-97325500D01*
X105340190Y-97325500D01*
X105519810Y-97325500D01*
X105519812Y-97325500D01*
X105695510Y-97288154D01*
X105859604Y-97215095D01*
X106004922Y-97109515D01*
X106043624Y-97066531D01*
X106104065Y-97029294D01*
X106137089Y-97024844D01*
X106713912Y-97024107D01*
X106782054Y-97044021D01*
X106807703Y-97065793D01*
X106865078Y-97129515D01*
X107010396Y-97235095D01*
X107174490Y-97308154D01*
X107350188Y-97345500D01*
X107350190Y-97345500D01*
X107529810Y-97345500D01*
X107529812Y-97345500D01*
X107705510Y-97308154D01*
X107869604Y-97235095D01*
X108014922Y-97129515D01*
X108073966Y-97063939D01*
X108134409Y-97026700D01*
X108167432Y-97022251D01*
X109930000Y-97020000D01*
X109934489Y-96385646D01*
X115078055Y-96385646D01*
X115097212Y-96543426D01*
X115153574Y-96692040D01*
X115153575Y-96692041D01*
X115243864Y-96822847D01*
X115362833Y-96928245D01*
X115503569Y-97002109D01*
X115657891Y-97040146D01*
X115657893Y-97040146D01*
X115816831Y-97040146D01*
X115816833Y-97040146D01*
X115971155Y-97002109D01*
X116111891Y-96928245D01*
X116230860Y-96822847D01*
X116321149Y-96692041D01*
X116365853Y-96574168D01*
X125634649Y-96574168D01*
X125665277Y-96747867D01*
X125735136Y-96909819D01*
X125840459Y-97051292D01*
X125840460Y-97051293D01*
X125840461Y-97051294D01*
X125975573Y-97164667D01*
X126133189Y-97243824D01*
X126304812Y-97284500D01*
X126304814Y-97284500D01*
X127006783Y-97284500D01*
X127074904Y-97304502D01*
X127121397Y-97358158D01*
X127131501Y-97428432D01*
X127102007Y-97493012D01*
X127083488Y-97510462D01*
X127032549Y-97549549D01*
X126940301Y-97669767D01*
X126882312Y-97809764D01*
X126876176Y-97856376D01*
X126862534Y-97960000D01*
X126864580Y-97975538D01*
X126882312Y-98110235D01*
X126940301Y-98250232D01*
X126940302Y-98250233D01*
X127032549Y-98370451D01*
X127152767Y-98462698D01*
X127292764Y-98520687D01*
X127405280Y-98535500D01*
X127409402Y-98535500D01*
X127476598Y-98535500D01*
X127480720Y-98535500D01*
X127593236Y-98520687D01*
X127733233Y-98462698D01*
X127853451Y-98370451D01*
X127945698Y-98250233D01*
X128003687Y-98110236D01*
X128023466Y-97960000D01*
X128003687Y-97809764D01*
X127945698Y-97669767D01*
X127853451Y-97549549D01*
X127853449Y-97549548D01*
X127853449Y-97549547D01*
X127728206Y-97453444D01*
X127686339Y-97396106D01*
X127682117Y-97325235D01*
X127716882Y-97263332D01*
X127761816Y-97235081D01*
X127833921Y-97208837D01*
X127833920Y-97208837D01*
X127833924Y-97208836D01*
X127981285Y-97111915D01*
X128102322Y-96983623D01*
X128190510Y-96830876D01*
X128241095Y-96661909D01*
X128246206Y-96574168D01*
X129964649Y-96574168D01*
X129995277Y-96747867D01*
X130065136Y-96909819D01*
X130170459Y-97051292D01*
X130170460Y-97051293D01*
X130170461Y-97051294D01*
X130305573Y-97164667D01*
X130463189Y-97243824D01*
X130634812Y-97284500D01*
X130634814Y-97284500D01*
X131563272Y-97284500D01*
X131566941Y-97284500D01*
X131698184Y-97269160D01*
X131863924Y-97208836D01*
X132011285Y-97111915D01*
X132132322Y-96983623D01*
X132220510Y-96830876D01*
X132271095Y-96661909D01*
X132281351Y-96485831D01*
X132250723Y-96312134D01*
X132180864Y-96150182D01*
X132174422Y-96141529D01*
X132075540Y-96008707D01*
X132059845Y-95995537D01*
X131940427Y-95895333D01*
X131782811Y-95816176D01*
X131611188Y-95775500D01*
X130679059Y-95775500D01*
X130675431Y-95775923D01*
X130675414Y-95775925D01*
X130547814Y-95790840D01*
X130382078Y-95851162D01*
X130234712Y-95948086D01*
X130113678Y-96076376D01*
X130025490Y-96229121D01*
X129974905Y-96398090D01*
X129964649Y-96574168D01*
X128246206Y-96574168D01*
X128251351Y-96485831D01*
X128220723Y-96312134D01*
X128150864Y-96150182D01*
X128144422Y-96141529D01*
X128045540Y-96008707D01*
X128029845Y-95995537D01*
X127910427Y-95895333D01*
X127752811Y-95816176D01*
X127581188Y-95775500D01*
X126349059Y-95775500D01*
X126345431Y-95775923D01*
X126345414Y-95775925D01*
X126217814Y-95790840D01*
X126052078Y-95851162D01*
X125904712Y-95948086D01*
X125783678Y-96076376D01*
X125695490Y-96229121D01*
X125644905Y-96398090D01*
X125634649Y-96574168D01*
X116365853Y-96574168D01*
X116377511Y-96543428D01*
X116396669Y-96385646D01*
X116377511Y-96227864D01*
X116321149Y-96079251D01*
X116230860Y-95948445D01*
X116111891Y-95843047D01*
X115971155Y-95769183D01*
X115816833Y-95731146D01*
X115657891Y-95731146D01*
X115503569Y-95769183D01*
X115503568Y-95769183D01*
X115503566Y-95769184D01*
X115362834Y-95843046D01*
X115243863Y-95948445D01*
X115153574Y-96079251D01*
X115097212Y-96227865D01*
X115078055Y-96385646D01*
X109934489Y-96385646D01*
X109941994Y-95324999D01*
X111658693Y-95324999D01*
X111677850Y-95482780D01*
X111734212Y-95631394D01*
X111737737Y-95636500D01*
X111824502Y-95762201D01*
X111943471Y-95867599D01*
X112084207Y-95941463D01*
X112238529Y-95979500D01*
X112238531Y-95979500D01*
X112397469Y-95979500D01*
X112397471Y-95979500D01*
X112551793Y-95941463D01*
X112692529Y-95867599D01*
X112811498Y-95762201D01*
X112901787Y-95631395D01*
X112958149Y-95482782D01*
X112977307Y-95325000D01*
X112958149Y-95167218D01*
X112901787Y-95018605D01*
X112811498Y-94887799D01*
X112692529Y-94782401D01*
X112551793Y-94708537D01*
X112397471Y-94670500D01*
X112238529Y-94670500D01*
X112084207Y-94708537D01*
X112084206Y-94708537D01*
X112084204Y-94708538D01*
X111943472Y-94782400D01*
X111824501Y-94887799D01*
X111734212Y-95018605D01*
X111677850Y-95167219D01*
X111658693Y-95324999D01*
X109941994Y-95324999D01*
X110014368Y-85096783D01*
X110034851Y-85028813D01*
X110088834Y-84982701D01*
X110159178Y-84973094D01*
X110223548Y-85003044D01*
X110229459Y-85008587D01*
X111376738Y-86155866D01*
X111410764Y-86218178D01*
X111405699Y-86288993D01*
X111363152Y-86345829D01*
X111317798Y-86367299D01*
X111272207Y-86378536D01*
X111131472Y-86452400D01*
X111012501Y-86557799D01*
X110922212Y-86688605D01*
X110865850Y-86837219D01*
X110846693Y-86995000D01*
X110865850Y-87152780D01*
X110922212Y-87301394D01*
X111007393Y-87424799D01*
X111012502Y-87432201D01*
X111131471Y-87537599D01*
X111272207Y-87611463D01*
X111426529Y-87649500D01*
X111426531Y-87649500D01*
X111585469Y-87649500D01*
X111585471Y-87649500D01*
X111739793Y-87611463D01*
X111819737Y-87569504D01*
X111889350Y-87555558D01*
X111955453Y-87581462D01*
X111997057Y-87638990D01*
X112003373Y-87696259D01*
X111985384Y-87844407D01*
X112004542Y-88002188D01*
X112060904Y-88150802D01*
X112146056Y-88274165D01*
X112151194Y-88281609D01*
X112270163Y-88387007D01*
X112410899Y-88460871D01*
X112565221Y-88498908D01*
X112565223Y-88498908D01*
X112724161Y-88498908D01*
X112724163Y-88498908D01*
X112878485Y-88460871D01*
X113019221Y-88387007D01*
X113138190Y-88281609D01*
X113201073Y-88190507D01*
X113256229Y-88145809D01*
X113326798Y-88138026D01*
X113390372Y-88169630D01*
X113393862Y-88172990D01*
X115011199Y-89790327D01*
X115028102Y-89811301D01*
X115030750Y-89815421D01*
X115068888Y-89848468D01*
X115075441Y-89854569D01*
X115085152Y-89864280D01*
X115096128Y-89872496D01*
X115103129Y-89878137D01*
X115116737Y-89889929D01*
X115141256Y-89911176D01*
X115145708Y-89913209D01*
X115168874Y-89926953D01*
X115172796Y-89929889D01*
X115220074Y-89947522D01*
X115228376Y-89950962D01*
X115245758Y-89958900D01*
X115274266Y-89971919D01*
X115278890Y-89972583D01*
X115279107Y-89972615D01*
X115305209Y-89979276D01*
X115309800Y-89980989D01*
X115360130Y-89984588D01*
X115369055Y-89985547D01*
X115382632Y-89987500D01*
X115396339Y-89987500D01*
X115405327Y-89987821D01*
X115455649Y-89991420D01*
X115458970Y-89990697D01*
X115460436Y-89990379D01*
X115487216Y-89987500D01*
X117364286Y-89987500D01*
X117432407Y-90007502D01*
X117453376Y-90024400D01*
X117501600Y-90072624D01*
X117645563Y-90163082D01*
X117806046Y-90219237D01*
X117975000Y-90238274D01*
X118143954Y-90219237D01*
X118304437Y-90163082D01*
X118448400Y-90072624D01*
X118568624Y-89952400D01*
X118659082Y-89808437D01*
X118715237Y-89647954D01*
X118734274Y-89479000D01*
X118715237Y-89310046D01*
X118659082Y-89149563D01*
X118568624Y-89005600D01*
X118568623Y-89005599D01*
X118568622Y-89005597D01*
X118448402Y-88885377D01*
X118406647Y-88859141D01*
X118304437Y-88794918D01*
X118250942Y-88776199D01*
X118143956Y-88738763D01*
X117975000Y-88719726D01*
X117806043Y-88738763D01*
X117645563Y-88794918D01*
X117501601Y-88885375D01*
X117501600Y-88885375D01*
X117501600Y-88885376D01*
X117453379Y-88933596D01*
X117391070Y-88967620D01*
X117364286Y-88970500D01*
X115681818Y-88970500D01*
X115613697Y-88950498D01*
X115592723Y-88933595D01*
X115526110Y-88866982D01*
X115492084Y-88804670D01*
X115497149Y-88733855D01*
X115539696Y-88677019D01*
X115556635Y-88666328D01*
X115570629Y-88658984D01*
X115689598Y-88553586D01*
X115779887Y-88422780D01*
X115836249Y-88274167D01*
X115855407Y-88116385D01*
X115836249Y-87958603D01*
X115779887Y-87809990D01*
X115689598Y-87679184D01*
X115570629Y-87573786D01*
X115429893Y-87499922D01*
X115275571Y-87461885D01*
X115116629Y-87461885D01*
X114962307Y-87499922D01*
X114962306Y-87499922D01*
X114962304Y-87499923D01*
X114821572Y-87573785D01*
X114723980Y-87660245D01*
X114702602Y-87679184D01*
X114642583Y-87766136D01*
X114639721Y-87770283D01*
X114584562Y-87814982D01*
X114513993Y-87822765D01*
X114450420Y-87791160D01*
X114446930Y-87787801D01*
X113753129Y-87094000D01*
X125533726Y-87094000D01*
X125552763Y-87262956D01*
X125572515Y-87319402D01*
X125608918Y-87423437D01*
X125673141Y-87525647D01*
X125699377Y-87567402D01*
X125819597Y-87687622D01*
X125819599Y-87687623D01*
X125819600Y-87687624D01*
X125963563Y-87778082D01*
X126124046Y-87834237D01*
X126293000Y-87853274D01*
X126461954Y-87834237D01*
X126622437Y-87778082D01*
X126766400Y-87687624D01*
X126886624Y-87567400D01*
X126977082Y-87423437D01*
X127033237Y-87262954D01*
X127052274Y-87094000D01*
X127033237Y-86925046D01*
X126977082Y-86764563D01*
X126886624Y-86620600D01*
X126886623Y-86620599D01*
X126886622Y-86620597D01*
X126766402Y-86500377D01*
X126690048Y-86452401D01*
X126622437Y-86409918D01*
X126532752Y-86378536D01*
X126461956Y-86353763D01*
X126344244Y-86340500D01*
X126293000Y-86334726D01*
X126292999Y-86334726D01*
X126124043Y-86353763D01*
X125963563Y-86409918D01*
X125819597Y-86500377D01*
X125699377Y-86620597D01*
X125608918Y-86764563D01*
X125552763Y-86925043D01*
X125533726Y-87094000D01*
X113753129Y-87094000D01*
X110063880Y-83404751D01*
X110029854Y-83342439D01*
X110026978Y-83314768D01*
X110027896Y-83184999D01*
X115938693Y-83184999D01*
X115957850Y-83342780D01*
X116014212Y-83491394D01*
X116039805Y-83528471D01*
X116104502Y-83622201D01*
X116223471Y-83727599D01*
X116364207Y-83801463D01*
X116518529Y-83839500D01*
X116518531Y-83839500D01*
X116691014Y-83839500D01*
X116759135Y-83859502D01*
X116805628Y-83913158D01*
X116816095Y-83950312D01*
X116834850Y-84104781D01*
X116891212Y-84253394D01*
X116946007Y-84332777D01*
X116981502Y-84384201D01*
X117100471Y-84489599D01*
X117241207Y-84563463D01*
X117395529Y-84601500D01*
X117395531Y-84601500D01*
X117554469Y-84601500D01*
X117554471Y-84601500D01*
X117708793Y-84563463D01*
X117849529Y-84489599D01*
X117968498Y-84384201D01*
X118058787Y-84253395D01*
X118115149Y-84104782D01*
X118134307Y-83947000D01*
X118115149Y-83789218D01*
X118058787Y-83640605D01*
X117968498Y-83509799D01*
X117849529Y-83404401D01*
X117708793Y-83330537D01*
X117554471Y-83292500D01*
X117395529Y-83292500D01*
X117381986Y-83292500D01*
X117313865Y-83272498D01*
X117267372Y-83218842D01*
X117256905Y-83181688D01*
X117238149Y-83027218D01*
X117181787Y-82878605D01*
X117091498Y-82747799D01*
X117062077Y-82721734D01*
X116972529Y-82642401D01*
X116831793Y-82568537D01*
X116677471Y-82530500D01*
X116518529Y-82530500D01*
X116364207Y-82568537D01*
X116364206Y-82568537D01*
X116364204Y-82568538D01*
X116223472Y-82642400D01*
X116104501Y-82747799D01*
X116014212Y-82878605D01*
X115957850Y-83027219D01*
X115938693Y-83184999D01*
X110027896Y-83184999D01*
X110036837Y-81921599D01*
X110040354Y-81424608D01*
X110054098Y-81378999D01*
X114015693Y-81378999D01*
X114034850Y-81536780D01*
X114091212Y-81685394D01*
X114091213Y-81685395D01*
X114181502Y-81816201D01*
X114300471Y-81921599D01*
X114441207Y-81995463D01*
X114595529Y-82033500D01*
X114595531Y-82033500D01*
X114754469Y-82033500D01*
X114754471Y-82033500D01*
X114908793Y-81995463D01*
X115049529Y-81921599D01*
X115168498Y-81816201D01*
X115258787Y-81685395D01*
X115315149Y-81536782D01*
X115334307Y-81379000D01*
X115315149Y-81221218D01*
X115258787Y-81072605D01*
X115168498Y-80941799D01*
X115049529Y-80836401D01*
X114908793Y-80762537D01*
X114754471Y-80724500D01*
X114595529Y-80724500D01*
X114441207Y-80762537D01*
X114441206Y-80762537D01*
X114441204Y-80762538D01*
X114300472Y-80836400D01*
X114181501Y-80941799D01*
X114091212Y-81072605D01*
X114034850Y-81221219D01*
X114015693Y-81378999D01*
X110054098Y-81378999D01*
X110060838Y-81356631D01*
X110114821Y-81310519D01*
X110166351Y-81299500D01*
X110188469Y-81299500D01*
X110188471Y-81299500D01*
X110342793Y-81261463D01*
X110483529Y-81187599D01*
X110602498Y-81082201D01*
X110692787Y-80951395D01*
X110749149Y-80802782D01*
X110759055Y-80721199D01*
X121032093Y-80721199D01*
X121051250Y-80878980D01*
X121107612Y-81027594D01*
X121118496Y-81043361D01*
X121197902Y-81158401D01*
X121316871Y-81263799D01*
X121457607Y-81337663D01*
X121611929Y-81375700D01*
X121611931Y-81375700D01*
X121770869Y-81375700D01*
X121770871Y-81375700D01*
X121925193Y-81337663D01*
X122065929Y-81263799D01*
X122184898Y-81158401D01*
X122275187Y-81027595D01*
X122331549Y-80878982D01*
X122350707Y-80721200D01*
X122331549Y-80563418D01*
X122275187Y-80414805D01*
X122184898Y-80283999D01*
X122065929Y-80178601D01*
X121925193Y-80104737D01*
X121770871Y-80066700D01*
X121611929Y-80066700D01*
X121457607Y-80104737D01*
X121457606Y-80104737D01*
X121457604Y-80104738D01*
X121316872Y-80178600D01*
X121197901Y-80283999D01*
X121107612Y-80414805D01*
X121051250Y-80563419D01*
X121032093Y-80721199D01*
X110759055Y-80721199D01*
X110768307Y-80645000D01*
X110749149Y-80487218D01*
X110745617Y-80477905D01*
X110737378Y-80456179D01*
X110731924Y-80385393D01*
X110765607Y-80322895D01*
X110827732Y-80288528D01*
X110855190Y-80285500D01*
X111014469Y-80285500D01*
X111014471Y-80285500D01*
X111168793Y-80247463D01*
X111309529Y-80173599D01*
X111428498Y-80068201D01*
X111518787Y-79937395D01*
X111575149Y-79788782D01*
X111594307Y-79631000D01*
X111575149Y-79473218D01*
X111518787Y-79324605D01*
X111428498Y-79193799D01*
X111309529Y-79088401D01*
X111168793Y-79014537D01*
X111014471Y-78976500D01*
X110855529Y-78976500D01*
X110701207Y-79014537D01*
X110701206Y-79014537D01*
X110701204Y-79014538D01*
X110560472Y-79088400D01*
X110441501Y-79193799D01*
X110351213Y-79324604D01*
X110298358Y-79463971D01*
X110255499Y-79520572D01*
X110188844Y-79545016D01*
X110119554Y-79529544D01*
X110069628Y-79479067D01*
X110054549Y-79418398D01*
X110055213Y-79324604D01*
X110086309Y-74929999D01*
X115953726Y-74929999D01*
X115972763Y-75098956D01*
X115980553Y-75121218D01*
X116028918Y-75259437D01*
X116093141Y-75361647D01*
X116119377Y-75403402D01*
X116239597Y-75523622D01*
X116239599Y-75523623D01*
X116239600Y-75523624D01*
X116383563Y-75614082D01*
X116544046Y-75670237D01*
X116713000Y-75689274D01*
X116881954Y-75670237D01*
X117042437Y-75614082D01*
X117186400Y-75523624D01*
X117195404Y-75514619D01*
X117257714Y-75480594D01*
X117328529Y-75485657D01*
X117373595Y-75514619D01*
X117382600Y-75523624D01*
X117526563Y-75614082D01*
X117687046Y-75670237D01*
X117856000Y-75689274D01*
X118024954Y-75670237D01*
X118185437Y-75614082D01*
X118329400Y-75523624D01*
X118338404Y-75514619D01*
X118400714Y-75480594D01*
X118471529Y-75485657D01*
X118516595Y-75514619D01*
X118525600Y-75523624D01*
X118669563Y-75614082D01*
X118830046Y-75670237D01*
X118999000Y-75689274D01*
X119167954Y-75670237D01*
X119328437Y-75614082D01*
X119472400Y-75523624D01*
X119592624Y-75403400D01*
X119683082Y-75259437D01*
X119739237Y-75098954D01*
X119758274Y-74930000D01*
X119757375Y-74922026D01*
X119769621Y-74852097D01*
X119817732Y-74799887D01*
X119886432Y-74781976D01*
X119912724Y-74785576D01*
X120062529Y-74822500D01*
X120062531Y-74822500D01*
X120221469Y-74822500D01*
X120221471Y-74822500D01*
X120375793Y-74784463D01*
X120516529Y-74710599D01*
X120635498Y-74605201D01*
X120725787Y-74474395D01*
X120725787Y-74474394D01*
X120734478Y-74461804D01*
X120736191Y-74462987D01*
X120766864Y-74422473D01*
X120833517Y-74398022D01*
X120871981Y-74401410D01*
X120880304Y-74403461D01*
X120880307Y-74403463D01*
X120997142Y-74432260D01*
X121034628Y-74441500D01*
X121034629Y-74441500D01*
X121193569Y-74441500D01*
X121193571Y-74441500D01*
X121347893Y-74403463D01*
X121488629Y-74329599D01*
X121607598Y-74224201D01*
X121697887Y-74093395D01*
X121754249Y-73944782D01*
X121773323Y-73787687D01*
X121801388Y-73722478D01*
X121860256Y-73682791D01*
X121868250Y-73680539D01*
X121872465Y-73679500D01*
X121872471Y-73679500D01*
X122026793Y-73641463D01*
X122167529Y-73567599D01*
X122286498Y-73462201D01*
X122300496Y-73441920D01*
X122355652Y-73397221D01*
X122426221Y-73389437D01*
X122487745Y-73419184D01*
X122536301Y-73462200D01*
X122561471Y-73484499D01*
X122702207Y-73558363D01*
X122856529Y-73596400D01*
X122856531Y-73596400D01*
X123015469Y-73596400D01*
X123015471Y-73596400D01*
X123169793Y-73558363D01*
X123310529Y-73484499D01*
X123429498Y-73379101D01*
X123519787Y-73248295D01*
X123576149Y-73099682D01*
X123595307Y-72941900D01*
X123576149Y-72784118D01*
X123519787Y-72635505D01*
X123429498Y-72504699D01*
X123310529Y-72399301D01*
X123169793Y-72325437D01*
X123015471Y-72287400D01*
X122856529Y-72287400D01*
X122702207Y-72325437D01*
X122702206Y-72325437D01*
X122702204Y-72325438D01*
X122561472Y-72399300D01*
X122442501Y-72504699D01*
X122428502Y-72524981D01*
X122373343Y-72569680D01*
X122302774Y-72577462D01*
X122241254Y-72547716D01*
X122228091Y-72536055D01*
X122167529Y-72482401D01*
X122026793Y-72408537D01*
X121872471Y-72370500D01*
X121713529Y-72370500D01*
X121559207Y-72408537D01*
X121559206Y-72408537D01*
X121559204Y-72408538D01*
X121418472Y-72482400D01*
X121299501Y-72587799D01*
X121209212Y-72718605D01*
X121152850Y-72867219D01*
X121133777Y-73024308D01*
X121105710Y-73089522D01*
X121046842Y-73129208D01*
X121038850Y-73131460D01*
X121034631Y-73132500D01*
X121034629Y-73132500D01*
X120880307Y-73170537D01*
X120880306Y-73170537D01*
X120880304Y-73170538D01*
X120739572Y-73244400D01*
X120681473Y-73295872D01*
X120620602Y-73349799D01*
X120618718Y-73352529D01*
X120521622Y-73493196D01*
X120519907Y-73492012D01*
X120489223Y-73532534D01*
X120422566Y-73556977D01*
X120384120Y-73553589D01*
X120281307Y-73528248D01*
X120221471Y-73513500D01*
X120062529Y-73513500D01*
X119908207Y-73551537D01*
X119908206Y-73551537D01*
X119908204Y-73551538D01*
X119767472Y-73625400D01*
X119648501Y-73730799D01*
X119558212Y-73861605D01*
X119501850Y-74010219D01*
X119486207Y-74139054D01*
X119458140Y-74204267D01*
X119399271Y-74243953D01*
X119328292Y-74245513D01*
X119319518Y-74242797D01*
X119258937Y-74221599D01*
X119167956Y-74189763D01*
X118999000Y-74170726D01*
X118830043Y-74189763D01*
X118669563Y-74245918D01*
X118525597Y-74336377D01*
X118516595Y-74345380D01*
X118454283Y-74379406D01*
X118383468Y-74374341D01*
X118338405Y-74345380D01*
X118329402Y-74336377D01*
X118264287Y-74295463D01*
X118185437Y-74245918D01*
X118115937Y-74221599D01*
X118024956Y-74189763D01*
X117863127Y-74171529D01*
X117805065Y-74147130D01*
X117753304Y-74180396D01*
X117731919Y-74184706D01*
X117704504Y-74187795D01*
X117687043Y-74189763D01*
X117526563Y-74245918D01*
X117382597Y-74336377D01*
X117373595Y-74345380D01*
X117311283Y-74379406D01*
X117240468Y-74374341D01*
X117195405Y-74345380D01*
X117186402Y-74336377D01*
X117121287Y-74295463D01*
X117042437Y-74245918D01*
X116972937Y-74221599D01*
X116881956Y-74189763D01*
X116769317Y-74177071D01*
X116713000Y-74170726D01*
X116712999Y-74170726D01*
X116544043Y-74189763D01*
X116383563Y-74245918D01*
X116239597Y-74336377D01*
X116119377Y-74456597D01*
X116028918Y-74600563D01*
X115972763Y-74761043D01*
X115953726Y-74929999D01*
X110086309Y-74929999D01*
X110092037Y-74120467D01*
X110112520Y-74052496D01*
X110114267Y-74049892D01*
X110158787Y-73985395D01*
X110215149Y-73836782D01*
X110234307Y-73679000D01*
X110215149Y-73521218D01*
X110158787Y-73372605D01*
X110143045Y-73349799D01*
X110120535Y-73317187D01*
X110107941Y-73279000D01*
X117069693Y-73279000D01*
X117088850Y-73436780D01*
X117145212Y-73585394D01*
X117225700Y-73702000D01*
X117235502Y-73716201D01*
X117354471Y-73821599D01*
X117495207Y-73895463D01*
X117649529Y-73933500D01*
X117649531Y-73933500D01*
X117717806Y-73933500D01*
X117785927Y-73953502D01*
X117789482Y-73957605D01*
X117791848Y-73953665D01*
X117847077Y-73923984D01*
X117962793Y-73895463D01*
X118103529Y-73821599D01*
X118222498Y-73716201D01*
X118312787Y-73585395D01*
X118369149Y-73436782D01*
X118388307Y-73279000D01*
X118369149Y-73121218D01*
X118312787Y-72972605D01*
X118222498Y-72841799D01*
X118103529Y-72736401D01*
X117962793Y-72662537D01*
X117808471Y-72624500D01*
X117649529Y-72624500D01*
X117495207Y-72662537D01*
X117495206Y-72662537D01*
X117495204Y-72662538D01*
X117354472Y-72736400D01*
X117235501Y-72841799D01*
X117145212Y-72972605D01*
X117088850Y-73121219D01*
X117069693Y-73279000D01*
X110107941Y-73279000D01*
X110098299Y-73249762D01*
X110098234Y-73244719D01*
X110098237Y-73244400D01*
X110125794Y-69350000D01*
X111800693Y-69350000D01*
X111819850Y-69507780D01*
X111876212Y-69656394D01*
X111940101Y-69748952D01*
X111966502Y-69787201D01*
X112085471Y-69892599D01*
X112226207Y-69966463D01*
X112380529Y-70004500D01*
X112380531Y-70004500D01*
X112539469Y-70004500D01*
X112539471Y-70004500D01*
X112693793Y-69966463D01*
X112726537Y-69949277D01*
X112796147Y-69935331D01*
X112862250Y-69961234D01*
X112903855Y-70018762D01*
X112907753Y-70089652D01*
X112902903Y-70105523D01*
X112896950Y-70121218D01*
X112877793Y-70279000D01*
X112896950Y-70436780D01*
X112953312Y-70585394D01*
X113032775Y-70700515D01*
X113043602Y-70716201D01*
X113162571Y-70821599D01*
X113303307Y-70895463D01*
X113457629Y-70933500D01*
X113457631Y-70933500D01*
X113616569Y-70933500D01*
X113616571Y-70933500D01*
X113770893Y-70895463D01*
X113858229Y-70849625D01*
X113927838Y-70835679D01*
X113993941Y-70861582D01*
X114035546Y-70919111D01*
X114039444Y-70990000D01*
X114034593Y-71005873D01*
X113979850Y-71150218D01*
X113960693Y-71307999D01*
X113979850Y-71465780D01*
X114036212Y-71614394D01*
X114036213Y-71614395D01*
X114126502Y-71745201D01*
X114245471Y-71850599D01*
X114386207Y-71924463D01*
X114540529Y-71962500D01*
X114540531Y-71962500D01*
X114595599Y-71962500D01*
X114663720Y-71982502D01*
X114710213Y-72036158D01*
X114720317Y-72106432D01*
X114713411Y-72133180D01*
X114675850Y-72232218D01*
X114656693Y-72390000D01*
X114675850Y-72547780D01*
X114732212Y-72696394D01*
X114792765Y-72784119D01*
X114822502Y-72827201D01*
X114941471Y-72932599D01*
X115082207Y-73006463D01*
X115236529Y-73044500D01*
X115236531Y-73044500D01*
X115395469Y-73044500D01*
X115395471Y-73044500D01*
X115549793Y-73006463D01*
X115690529Y-72932599D01*
X115809498Y-72827201D01*
X115899787Y-72696395D01*
X115956149Y-72547782D01*
X115975307Y-72390000D01*
X115956149Y-72232218D01*
X115899787Y-72083605D01*
X115809498Y-71952799D01*
X115690529Y-71847401D01*
X115569313Y-71783782D01*
X115549795Y-71773538D01*
X115549794Y-71773537D01*
X115549793Y-71773537D01*
X115429953Y-71743999D01*
X124903693Y-71743999D01*
X124922850Y-71901780D01*
X124979212Y-72050394D01*
X125031263Y-72125802D01*
X125069502Y-72181201D01*
X125188471Y-72286599D01*
X125329207Y-72360463D01*
X125483529Y-72398500D01*
X125483531Y-72398500D01*
X125642469Y-72398500D01*
X125642471Y-72398500D01*
X125796793Y-72360463D01*
X125937529Y-72286599D01*
X126056498Y-72181201D01*
X126146787Y-72050395D01*
X126203149Y-71901782D01*
X126222307Y-71744000D01*
X126203149Y-71586218D01*
X126146787Y-71437605D01*
X126056498Y-71306799D01*
X125937529Y-71201401D01*
X125796793Y-71127537D01*
X125642471Y-71089500D01*
X125483529Y-71089500D01*
X125329207Y-71127537D01*
X125329206Y-71127537D01*
X125329204Y-71127538D01*
X125188472Y-71201400D01*
X125069501Y-71306799D01*
X124979212Y-71437605D01*
X124922850Y-71586219D01*
X124903693Y-71743999D01*
X115429953Y-71743999D01*
X115395471Y-71735500D01*
X115340401Y-71735500D01*
X115272280Y-71715498D01*
X115225787Y-71661842D01*
X115215683Y-71591568D01*
X115222589Y-71564820D01*
X115260149Y-71465781D01*
X115263570Y-71437605D01*
X115279307Y-71308000D01*
X115260149Y-71150218D01*
X115230341Y-71071623D01*
X115224888Y-71000840D01*
X115258570Y-70938342D01*
X115320694Y-70903975D01*
X115378305Y-70904606D01*
X115495529Y-70933500D01*
X115495531Y-70933500D01*
X115654469Y-70933500D01*
X115654471Y-70933500D01*
X115808793Y-70895463D01*
X115949529Y-70821599D01*
X116068498Y-70716201D01*
X116158787Y-70585395D01*
X116215149Y-70436782D01*
X116234307Y-70279000D01*
X116215149Y-70121218D01*
X116158787Y-69972605D01*
X116125237Y-69924000D01*
X124853693Y-69924000D01*
X124872850Y-70081780D01*
X124929212Y-70230394D01*
X125017293Y-70358000D01*
X125019502Y-70361201D01*
X125138471Y-70466599D01*
X125279207Y-70540463D01*
X125433529Y-70578500D01*
X125433531Y-70578500D01*
X125592469Y-70578500D01*
X125592471Y-70578500D01*
X125746793Y-70540463D01*
X125887529Y-70466599D01*
X126006498Y-70361201D01*
X126096787Y-70230395D01*
X126153149Y-70081782D01*
X126172307Y-69924000D01*
X126153149Y-69766218D01*
X126096787Y-69617605D01*
X126006498Y-69486799D01*
X125887529Y-69381401D01*
X125746793Y-69307537D01*
X125592471Y-69269500D01*
X125433529Y-69269500D01*
X125279207Y-69307537D01*
X125279206Y-69307537D01*
X125279204Y-69307538D01*
X125138472Y-69381400D01*
X125019501Y-69486799D01*
X124929212Y-69617605D01*
X124872850Y-69766219D01*
X124853693Y-69924000D01*
X116125237Y-69924000D01*
X116068498Y-69841799D01*
X115949529Y-69736401D01*
X115808793Y-69662537D01*
X115654471Y-69624500D01*
X115495529Y-69624500D01*
X115341207Y-69662537D01*
X115341206Y-69662537D01*
X115341204Y-69662538D01*
X115200472Y-69736400D01*
X115081501Y-69841799D01*
X114991212Y-69972605D01*
X114934850Y-70121219D01*
X114915693Y-70279000D01*
X114934850Y-70436780D01*
X114964657Y-70515373D01*
X114970111Y-70586159D01*
X114936429Y-70648658D01*
X114874304Y-70683024D01*
X114816692Y-70682392D01*
X114699471Y-70653500D01*
X114540529Y-70653500D01*
X114386207Y-70691537D01*
X114298871Y-70737374D01*
X114229259Y-70751320D01*
X114163157Y-70725416D01*
X114121553Y-70667887D01*
X114117656Y-70596997D01*
X114122506Y-70581126D01*
X114127852Y-70567029D01*
X114177249Y-70436782D01*
X114196407Y-70279000D01*
X114177249Y-70121218D01*
X114120887Y-69972605D01*
X114030598Y-69841799D01*
X113911629Y-69736401D01*
X113770893Y-69662537D01*
X113616571Y-69624500D01*
X113457629Y-69624500D01*
X113328230Y-69656394D01*
X113303303Y-69662538D01*
X113270562Y-69679722D01*
X113200949Y-69693668D01*
X113134847Y-69667763D01*
X113093243Y-69610234D01*
X113089347Y-69539344D01*
X113094195Y-69523478D01*
X113100149Y-69507782D01*
X113119307Y-69350000D01*
X113100149Y-69192218D01*
X113043787Y-69043605D01*
X112953498Y-68912799D01*
X112834529Y-68807401D01*
X112693793Y-68733537D01*
X112539471Y-68695500D01*
X112380529Y-68695500D01*
X112226207Y-68733537D01*
X112226206Y-68733537D01*
X112226204Y-68733538D01*
X112085472Y-68807400D01*
X111966501Y-68912799D01*
X111876212Y-69043605D01*
X111819850Y-69192219D01*
X111800693Y-69350000D01*
X110125794Y-69350000D01*
X110166428Y-63607445D01*
X127906748Y-63607445D01*
X127925905Y-63765225D01*
X127982267Y-63913839D01*
X127982268Y-63913840D01*
X128072557Y-64044646D01*
X128191526Y-64150044D01*
X128332262Y-64223908D01*
X128486584Y-64261945D01*
X128486586Y-64261945D01*
X128645524Y-64261945D01*
X128645526Y-64261945D01*
X128799848Y-64223908D01*
X128940584Y-64150044D01*
X129059553Y-64044646D01*
X129149842Y-63913840D01*
X129206204Y-63765227D01*
X129225362Y-63607445D01*
X129206204Y-63449663D01*
X129149842Y-63301050D01*
X129059553Y-63170244D01*
X128940584Y-63064846D01*
X128799848Y-62990982D01*
X128645526Y-62952945D01*
X128486584Y-62952945D01*
X128332262Y-62990982D01*
X128332261Y-62990982D01*
X128332259Y-62990983D01*
X128191527Y-63064845D01*
X128072556Y-63170244D01*
X127982267Y-63301050D01*
X127925905Y-63449664D01*
X127906748Y-63607445D01*
X110166428Y-63607445D01*
X110175229Y-62363659D01*
X126149893Y-62363659D01*
X126180168Y-62535355D01*
X126249221Y-62695439D01*
X126353330Y-62835281D01*
X126353331Y-62835282D01*
X126353332Y-62835283D01*
X126359173Y-62840184D01*
X126486885Y-62947349D01*
X126546340Y-62977208D01*
X126642685Y-63025594D01*
X126812329Y-63065800D01*
X126812331Y-63065800D01*
X126939267Y-63065800D01*
X126942936Y-63065800D01*
X127072664Y-63050637D01*
X127236493Y-62991008D01*
X127382154Y-62895205D01*
X127501796Y-62768393D01*
X127588967Y-62617407D01*
X127638969Y-62450388D01*
X127649107Y-62276340D01*
X127618832Y-62104646D01*
X127549779Y-61944562D01*
X127539942Y-61931349D01*
X127445669Y-61804718D01*
X127312114Y-61692650D01*
X127156317Y-61614407D01*
X127156316Y-61614406D01*
X127156315Y-61614406D01*
X126986671Y-61574200D01*
X126856064Y-61574200D01*
X126852436Y-61574623D01*
X126852419Y-61574625D01*
X126726334Y-61589363D01*
X126562506Y-61648991D01*
X126416848Y-61744792D01*
X126297203Y-61871607D01*
X126210033Y-62022593D01*
X126160031Y-62189612D01*
X126149893Y-62363659D01*
X110175229Y-62363659D01*
X110183109Y-61250000D01*
X111852693Y-61250000D01*
X111871850Y-61407780D01*
X111928212Y-61556394D01*
X112013144Y-61679438D01*
X112018502Y-61687201D01*
X112137471Y-61792599D01*
X112278207Y-61866463D01*
X112432529Y-61904500D01*
X112432531Y-61904500D01*
X112591469Y-61904500D01*
X112591471Y-61904500D01*
X112745793Y-61866463D01*
X112886529Y-61792599D01*
X113005498Y-61687201D01*
X113095787Y-61556395D01*
X113152149Y-61407782D01*
X113165964Y-61294000D01*
X124562693Y-61294000D01*
X124581850Y-61451780D01*
X124638212Y-61600394D01*
X124692773Y-61679438D01*
X124728502Y-61731201D01*
X124847471Y-61836599D01*
X124988207Y-61910463D01*
X125142529Y-61948500D01*
X125142531Y-61948500D01*
X125301469Y-61948500D01*
X125301471Y-61948500D01*
X125455793Y-61910463D01*
X125596529Y-61836599D01*
X125715498Y-61731201D01*
X125805787Y-61600395D01*
X125862149Y-61451782D01*
X125874792Y-61347659D01*
X131229893Y-61347659D01*
X131260168Y-61519355D01*
X131329221Y-61679439D01*
X131433330Y-61819281D01*
X131566885Y-61931349D01*
X131645477Y-61970819D01*
X131722685Y-62009594D01*
X131892329Y-62049800D01*
X131892331Y-62049800D01*
X132019267Y-62049800D01*
X132022936Y-62049800D01*
X132152664Y-62034637D01*
X132316493Y-61975008D01*
X132462154Y-61879205D01*
X132581796Y-61752393D01*
X132668967Y-61601407D01*
X132718969Y-61434388D01*
X132729107Y-61260340D01*
X132698832Y-61088646D01*
X132629779Y-60928562D01*
X132619942Y-60915349D01*
X132525669Y-60788718D01*
X132392114Y-60676650D01*
X132236317Y-60598407D01*
X132236316Y-60598406D01*
X132236315Y-60598406D01*
X132066671Y-60558200D01*
X131936064Y-60558200D01*
X131932436Y-60558623D01*
X131932419Y-60558625D01*
X131806334Y-60573363D01*
X131642506Y-60632991D01*
X131496848Y-60728792D01*
X131377203Y-60855607D01*
X131290033Y-61006593D01*
X131240031Y-61173612D01*
X131229893Y-61347659D01*
X125874792Y-61347659D01*
X125881307Y-61294000D01*
X125862149Y-61136218D01*
X125805787Y-60987605D01*
X125715498Y-60856799D01*
X125596529Y-60751401D01*
X125455793Y-60677537D01*
X125301471Y-60639500D01*
X125142529Y-60639500D01*
X124988207Y-60677537D01*
X124988206Y-60677537D01*
X124988204Y-60677538D01*
X124847472Y-60751400D01*
X124728501Y-60856799D01*
X124638212Y-60987605D01*
X124581850Y-61136219D01*
X124562693Y-61294000D01*
X113165964Y-61294000D01*
X113171307Y-61250000D01*
X113152149Y-61092218D01*
X113095787Y-60943605D01*
X113005498Y-60812799D01*
X112886529Y-60707401D01*
X112745793Y-60633537D01*
X112591471Y-60595500D01*
X112432529Y-60595500D01*
X112278207Y-60633537D01*
X112278206Y-60633537D01*
X112278204Y-60633538D01*
X112137472Y-60707400D01*
X112018501Y-60812799D01*
X111928212Y-60943605D01*
X111871850Y-61092219D01*
X111852693Y-61250000D01*
X110183109Y-61250000D01*
X110188001Y-60558625D01*
X110196844Y-59309000D01*
X116485493Y-59309000D01*
X116504650Y-59466780D01*
X116561012Y-59615394D01*
X116647261Y-59740346D01*
X116651302Y-59746201D01*
X116770271Y-59851599D01*
X116911007Y-59925463D01*
X117065329Y-59963500D01*
X117065331Y-59963500D01*
X117224269Y-59963500D01*
X117224271Y-59963500D01*
X117378593Y-59925463D01*
X117519329Y-59851599D01*
X117589582Y-59789360D01*
X117977193Y-59789360D01*
X117996350Y-59947141D01*
X118052712Y-60095755D01*
X118052713Y-60095756D01*
X118143002Y-60226562D01*
X118261971Y-60331960D01*
X118402707Y-60405824D01*
X118557029Y-60443861D01*
X118557031Y-60443861D01*
X118715969Y-60443861D01*
X118715971Y-60443861D01*
X118870293Y-60405824D01*
X119011029Y-60331960D01*
X119129998Y-60226562D01*
X119220287Y-60095756D01*
X119246829Y-60025770D01*
X119289688Y-59969170D01*
X119356343Y-59944726D01*
X119364641Y-59944452D01*
X119529708Y-59944452D01*
X119529710Y-59944452D01*
X119684032Y-59906415D01*
X119824768Y-59832551D01*
X119909368Y-59757600D01*
X119973619Y-59727401D01*
X120043999Y-59736732D01*
X120051467Y-59740342D01*
X120162207Y-59798463D01*
X120316529Y-59836500D01*
X120316531Y-59836500D01*
X120475469Y-59836500D01*
X120475471Y-59836500D01*
X120629793Y-59798463D01*
X120770529Y-59724599D01*
X120889498Y-59619201D01*
X120979787Y-59488395D01*
X121036149Y-59339782D01*
X121055307Y-59182000D01*
X121036149Y-59024218D01*
X121034305Y-59009030D01*
X121038559Y-59008513D01*
X121035236Y-58965423D01*
X121068912Y-58902921D01*
X121099949Y-58879951D01*
X121151774Y-58852751D01*
X121229773Y-58811814D01*
X121251995Y-58792126D01*
X121316244Y-58761926D01*
X121386625Y-58771256D01*
X121419096Y-58792124D01*
X121436971Y-58807960D01*
X121577707Y-58881824D01*
X121732029Y-58919861D01*
X121732031Y-58919861D01*
X121890969Y-58919861D01*
X121890971Y-58919861D01*
X122045293Y-58881824D01*
X122186029Y-58807960D01*
X122304998Y-58702562D01*
X122324713Y-58674000D01*
X126086693Y-58674000D01*
X126105850Y-58831780D01*
X126162212Y-58980394D01*
X126251772Y-59110143D01*
X126252502Y-59111201D01*
X126371471Y-59216599D01*
X126512207Y-59290463D01*
X126666529Y-59328500D01*
X126666534Y-59328500D01*
X126675017Y-59330591D01*
X126736371Y-59366314D01*
X126768672Y-59429537D01*
X126761665Y-59500187D01*
X126717574Y-59555833D01*
X126687958Y-59571331D01*
X126562505Y-59616992D01*
X126416848Y-59712792D01*
X126297203Y-59839607D01*
X126210033Y-59990593D01*
X126160031Y-60157612D01*
X126149893Y-60331659D01*
X126180168Y-60503355D01*
X126249221Y-60663439D01*
X126353330Y-60803281D01*
X126486885Y-60915349D01*
X126513191Y-60928560D01*
X126642685Y-60993594D01*
X126812329Y-61033800D01*
X126812331Y-61033800D01*
X126939267Y-61033800D01*
X126942936Y-61033800D01*
X127072664Y-61018637D01*
X127236493Y-60959008D01*
X127382154Y-60863205D01*
X127501796Y-60736393D01*
X127588967Y-60585407D01*
X127638969Y-60418388D01*
X127649107Y-60244340D01*
X127618832Y-60072646D01*
X127549779Y-59912562D01*
X127545201Y-59906413D01*
X127445669Y-59772718D01*
X127312114Y-59660650D01*
X127156317Y-59582407D01*
X127156316Y-59582406D01*
X127156315Y-59582406D01*
X126986671Y-59542200D01*
X126986669Y-59542200D01*
X126972340Y-59538804D01*
X126973137Y-59535440D01*
X126928037Y-59522198D01*
X126881544Y-59468542D01*
X126871440Y-59398268D01*
X126900934Y-59333688D01*
X126960660Y-59295304D01*
X126965974Y-59293868D01*
X126979793Y-59290463D01*
X127120529Y-59216599D01*
X127225051Y-59124000D01*
X128770193Y-59124000D01*
X128789350Y-59281780D01*
X128845712Y-59430394D01*
X128932297Y-59555833D01*
X128936002Y-59561201D01*
X129054971Y-59666599D01*
X129195707Y-59740463D01*
X129350029Y-59778500D01*
X129350031Y-59778500D01*
X129508969Y-59778500D01*
X129508971Y-59778500D01*
X129663293Y-59740463D01*
X129804029Y-59666599D01*
X129922998Y-59561201D01*
X130013287Y-59430395D01*
X130069649Y-59281782D01*
X130088807Y-59124000D01*
X130069649Y-58966218D01*
X130013287Y-58817605D01*
X129922998Y-58686799D01*
X129804029Y-58581401D01*
X129663293Y-58507537D01*
X129508971Y-58469500D01*
X129350029Y-58469500D01*
X129195707Y-58507537D01*
X129195706Y-58507537D01*
X129195704Y-58507538D01*
X129054972Y-58581400D01*
X128936001Y-58686799D01*
X128845712Y-58817605D01*
X128789350Y-58966219D01*
X128770193Y-59124000D01*
X127225051Y-59124000D01*
X127239498Y-59111201D01*
X127329787Y-58980395D01*
X127386149Y-58831782D01*
X127405307Y-58674000D01*
X127386149Y-58516218D01*
X127329787Y-58367605D01*
X127239498Y-58236799D01*
X127120529Y-58131401D01*
X126979793Y-58057537D01*
X126825471Y-58019500D01*
X126666529Y-58019500D01*
X126512207Y-58057537D01*
X126512206Y-58057537D01*
X126512204Y-58057538D01*
X126371472Y-58131400D01*
X126252501Y-58236799D01*
X126162212Y-58367605D01*
X126105850Y-58516219D01*
X126086693Y-58674000D01*
X122324713Y-58674000D01*
X122395287Y-58571756D01*
X122451649Y-58423143D01*
X122470807Y-58265361D01*
X122451649Y-58107579D01*
X122395287Y-57958966D01*
X122319563Y-57849261D01*
X122297327Y-57781837D01*
X122315074Y-57713094D01*
X122364700Y-57666120D01*
X122449529Y-57621599D01*
X122568498Y-57516201D01*
X122658787Y-57385395D01*
X122715149Y-57236782D01*
X122734307Y-57079000D01*
X122715149Y-56921218D01*
X122658787Y-56772605D01*
X122568498Y-56641799D01*
X122449529Y-56536401D01*
X122308793Y-56462537D01*
X122154471Y-56424500D01*
X121995529Y-56424500D01*
X121841207Y-56462537D01*
X121841206Y-56462537D01*
X121841204Y-56462538D01*
X121700472Y-56536400D01*
X121581501Y-56641799D01*
X121491212Y-56772605D01*
X121434850Y-56921219D01*
X121415693Y-57079000D01*
X121434850Y-57236780D01*
X121491212Y-57385394D01*
X121566936Y-57495099D01*
X121589172Y-57562524D01*
X121571425Y-57631266D01*
X121521795Y-57678242D01*
X121436969Y-57722761D01*
X121414748Y-57742448D01*
X121350495Y-57772648D01*
X121280115Y-57763316D01*
X121247643Y-57742448D01*
X121229773Y-57726616D01*
X121089037Y-57652752D01*
X120934715Y-57614715D01*
X120775773Y-57614715D01*
X120621451Y-57652752D01*
X120621450Y-57652752D01*
X120621448Y-57652753D01*
X120480716Y-57726615D01*
X120361745Y-57832014D01*
X120271456Y-57962820D01*
X120215094Y-58111434D01*
X120195937Y-58269214D01*
X120216939Y-58442185D01*
X120212684Y-58442701D01*
X120216001Y-58485820D01*
X120182310Y-58548313D01*
X120151295Y-58571263D01*
X120021471Y-58639400D01*
X119936870Y-58714351D01*
X119872617Y-58744551D01*
X119802236Y-58735219D01*
X119794771Y-58731609D01*
X119684032Y-58673489D01*
X119529710Y-58635452D01*
X119370768Y-58635452D01*
X119216446Y-58673489D01*
X119216445Y-58673489D01*
X119216443Y-58673490D01*
X119075711Y-58747352D01*
X118956740Y-58852751D01*
X118866452Y-58983556D01*
X118839910Y-59053542D01*
X118797051Y-59110143D01*
X118730396Y-59134587D01*
X118722098Y-59134861D01*
X118715971Y-59134861D01*
X118557029Y-59134861D01*
X118402707Y-59172898D01*
X118402706Y-59172898D01*
X118402704Y-59172899D01*
X118261972Y-59246761D01*
X118143001Y-59352160D01*
X118052712Y-59482966D01*
X117996350Y-59631580D01*
X117977193Y-59789360D01*
X117589582Y-59789360D01*
X117638298Y-59746201D01*
X117728587Y-59615395D01*
X117784949Y-59466782D01*
X117804107Y-59309000D01*
X117784949Y-59151218D01*
X117728587Y-59002605D01*
X117638298Y-58871799D01*
X117519329Y-58766401D01*
X117378593Y-58692537D01*
X117224271Y-58654500D01*
X117065329Y-58654500D01*
X116911007Y-58692537D01*
X116911006Y-58692537D01*
X116911004Y-58692538D01*
X116770272Y-58766400D01*
X116651301Y-58871799D01*
X116561012Y-59002605D01*
X116504650Y-59151219D01*
X116485493Y-59309000D01*
X110196844Y-59309000D01*
X110208167Y-57708800D01*
X111126093Y-57708800D01*
X111145250Y-57866580D01*
X111201612Y-58015194D01*
X111281824Y-58131400D01*
X111291902Y-58146001D01*
X111410871Y-58251399D01*
X111551607Y-58325263D01*
X111705929Y-58363300D01*
X111705931Y-58363300D01*
X111864869Y-58363300D01*
X111864871Y-58363300D01*
X112019193Y-58325263D01*
X112159929Y-58251399D01*
X112278898Y-58146001D01*
X112369187Y-58015195D01*
X112425549Y-57866582D01*
X112444707Y-57708800D01*
X112425549Y-57551018D01*
X112369187Y-57402405D01*
X112278898Y-57271599D01*
X112159929Y-57166201D01*
X112019193Y-57092337D01*
X111864871Y-57054300D01*
X111705929Y-57054300D01*
X111551607Y-57092337D01*
X111551606Y-57092337D01*
X111551604Y-57092338D01*
X111410872Y-57166200D01*
X111291901Y-57271599D01*
X111201612Y-57402405D01*
X111145250Y-57551019D01*
X111126093Y-57708800D01*
X110208167Y-57708800D01*
X110233115Y-54183108D01*
X110253599Y-54115131D01*
X110307582Y-54069019D01*
X110359112Y-54058000D01*
X129016450Y-54058000D01*
X129069353Y-54069644D01*
G37*
%TD.AperFunction*%
%TD*%
M02*
