%TF.GenerationSoftware,KiCad,Pcbnew,7.0.9*%
%TF.CreationDate,2024-02-14T23:05:42-05:00*%
%TF.ProjectId,bitaxeSupra,62697461-7865-4537-9570-72612e6b6963,rev?*%
%TF.SameCoordinates,Original*%
%TF.FileFunction,Paste,Top*%
%TF.FilePolarity,Positive*%
%FSLAX46Y46*%
G04 Gerber Fmt 4.6, Leading zero omitted, Abs format (unit mm)*
G04 Created by KiCad (PCBNEW 7.0.9) date 2024-02-14 23:05:42*
%MOMM*%
%LPD*%
G01*
G04 APERTURE LIST*
G04 Aperture macros list*
%AMRoundRect*
0 Rectangle with rounded corners*
0 $1 Rounding radius*
0 $2 $3 $4 $5 $6 $7 $8 $9 X,Y pos of 4 corners*
0 Add a 4 corners polygon primitive as box body*
4,1,4,$2,$3,$4,$5,$6,$7,$8,$9,$2,$3,0*
0 Add four circle primitives for the rounded corners*
1,1,$1+$1,$2,$3*
1,1,$1+$1,$4,$5*
1,1,$1+$1,$6,$7*
1,1,$1+$1,$8,$9*
0 Add four rect primitives between the rounded corners*
20,1,$1+$1,$2,$3,$4,$5,0*
20,1,$1+$1,$4,$5,$6,$7,0*
20,1,$1+$1,$6,$7,$8,$9,0*
20,1,$1+$1,$8,$9,$2,$3,0*%
G04 Aperture macros list end*
%ADD10C,0.010000*%
%ADD11C,0.100000*%
%ADD12C,0.001000*%
%ADD13RoundRect,0.250000X0.250000X0.475000X-0.250000X0.475000X-0.250000X-0.475000X0.250000X-0.475000X0*%
%ADD14RoundRect,0.100000X-0.637500X-0.100000X0.637500X-0.100000X0.637500X0.100000X-0.637500X0.100000X0*%
%ADD15RoundRect,0.135000X-0.185000X0.135000X-0.185000X-0.135000X0.185000X-0.135000X0.185000X0.135000X0*%
%ADD16RoundRect,0.140000X0.140000X0.170000X-0.140000X0.170000X-0.140000X-0.170000X0.140000X-0.170000X0*%
%ADD17R,0.700000X0.450000*%
%ADD18RoundRect,0.140000X-0.170000X0.140000X-0.170000X-0.140000X0.170000X-0.140000X0.170000X0.140000X0*%
%ADD19RoundRect,0.135000X0.135000X0.185000X-0.135000X0.185000X-0.135000X-0.185000X0.135000X-0.185000X0*%
%ADD20RoundRect,0.250000X-0.250000X-0.475000X0.250000X-0.475000X0.250000X0.475000X-0.250000X0.475000X0*%
%ADD21RoundRect,0.150000X-0.512500X-0.150000X0.512500X-0.150000X0.512500X0.150000X-0.512500X0.150000X0*%
%ADD22R,1.168400X1.600200*%
%ADD23RoundRect,0.140000X0.170000X-0.140000X0.170000X0.140000X-0.170000X0.140000X-0.170000X-0.140000X0*%
%ADD24RoundRect,0.140000X-0.140000X-0.170000X0.140000X-0.170000X0.140000X0.170000X-0.140000X0.170000X0*%
%ADD25R,1.100000X1.300000*%
%ADD26RoundRect,0.250000X-1.025000X0.875000X-1.025000X-0.875000X1.025000X-0.875000X1.025000X0.875000X0*%
%ADD27R,3.100000X2.000000*%
%ADD28RoundRect,0.135000X0.185000X-0.135000X0.185000X0.135000X-0.185000X0.135000X-0.185000X-0.135000X0*%
%ADD29R,0.400000X1.100000*%
%ADD30RoundRect,0.135000X-0.135000X-0.185000X0.135000X-0.185000X0.135000X0.185000X-0.135000X0.185000X0*%
%ADD31R,1.100000X0.400000*%
%ADD32R,0.700000X0.800000*%
%ADD33RoundRect,0.007800X-0.122200X0.442200X-0.122200X-0.442200X0.122200X-0.442200X0.122200X0.442200X0*%
%ADD34RoundRect,0.007800X-0.442200X-0.122200X0.442200X-0.122200X0.442200X0.122200X-0.442200X0.122200X0*%
%ADD35R,1.600000X2.700000*%
%ADD36RoundRect,0.250000X-0.325000X-1.100000X0.325000X-1.100000X0.325000X1.100000X-0.325000X1.100000X0*%
%ADD37RoundRect,0.250000X0.325000X0.650000X-0.325000X0.650000X-0.325000X-0.650000X0.325000X-0.650000X0*%
%ADD38R,0.952500X0.558800*%
G04 APERTURE END LIST*
%TO.C,Q2*%
D10*
X98591600Y-77590200D02*
X98061600Y-77580200D01*
X98061600Y-77020200D01*
X98591600Y-77020200D01*
X98591600Y-77590200D01*
G36*
X98591600Y-77590200D02*
G01*
X98061600Y-77580200D01*
X98061600Y-77020200D01*
X98591600Y-77020200D01*
X98591600Y-77590200D01*
G37*
X97291600Y-77590200D02*
X96761600Y-77580200D01*
X96761600Y-77020200D01*
X97291600Y-77020200D01*
X97291600Y-77590200D01*
G36*
X97291600Y-77590200D02*
G01*
X96761600Y-77580200D01*
X96761600Y-77020200D01*
X97291600Y-77020200D01*
X97291600Y-77590200D01*
G37*
X99881600Y-77610200D02*
X99351600Y-77600200D01*
X99351600Y-77040200D01*
X99881600Y-77040200D01*
X99881600Y-77610200D01*
G36*
X99881600Y-77610200D02*
G01*
X99351600Y-77600200D01*
X99351600Y-77040200D01*
X99881600Y-77040200D01*
X99881600Y-77610200D01*
G37*
X95991600Y-77610200D02*
X95461600Y-77600200D01*
X95461600Y-77040200D01*
X95991600Y-77040200D01*
X95991600Y-77610200D01*
G36*
X95991600Y-77610200D02*
G01*
X95461600Y-77600200D01*
X95461600Y-77040200D01*
X95991600Y-77040200D01*
X95991600Y-77610200D01*
G37*
X97521600Y-81790200D02*
X95601600Y-81790200D01*
X95601600Y-77810200D01*
X97521600Y-77810200D01*
X97521600Y-81790200D01*
G36*
X97521600Y-81790200D02*
G01*
X95601600Y-81790200D01*
X95601600Y-77810200D01*
X97521600Y-77810200D01*
X97521600Y-81790200D01*
G37*
X99801600Y-81800200D02*
X97881600Y-81800200D01*
X97881600Y-77820200D01*
X99801600Y-77820200D01*
X99801600Y-81800200D01*
G36*
X99801600Y-81800200D02*
G01*
X97881600Y-81800200D01*
X97881600Y-77820200D01*
X99801600Y-77820200D01*
X99801600Y-81800200D01*
G37*
%TO.C,U2*%
X117052000Y-100145000D02*
X115752000Y-100145000D01*
X115752000Y-98845000D01*
X117052000Y-98845000D01*
X117052000Y-100145000D01*
G36*
X117052000Y-100145000D02*
G01*
X115752000Y-100145000D01*
X115752000Y-98845000D01*
X117052000Y-98845000D01*
X117052000Y-100145000D01*
G37*
D11*
%TO.C,U9*%
X99326691Y-67872200D02*
X99076691Y-67872200D01*
X99076691Y-67872200D02*
X99076691Y-68172200D01*
X99076691Y-68172200D02*
X99326691Y-68172200D01*
X99326691Y-68172200D02*
X99326691Y-67872200D01*
G36*
X99326691Y-67872200D02*
G01*
X99076691Y-67872200D01*
X99076691Y-68172200D01*
X99326691Y-68172200D01*
X99326691Y-67872200D01*
G37*
X98826691Y-67872200D02*
X98576691Y-67872200D01*
X98576691Y-67872200D02*
X98576691Y-68172200D01*
X98576691Y-68172200D02*
X98826691Y-68172200D01*
X98826691Y-68172200D02*
X98826691Y-67872200D01*
G36*
X98826691Y-67872200D02*
G01*
X98576691Y-67872200D01*
X98576691Y-68172200D01*
X98826691Y-68172200D01*
X98826691Y-67872200D01*
G37*
X98326691Y-67872200D02*
X98076691Y-67872200D01*
X98076691Y-67872200D02*
X98076691Y-68172200D01*
X98076691Y-68172200D02*
X98326691Y-68172200D01*
X98326691Y-68172200D02*
X98326691Y-67872200D01*
G36*
X98326691Y-67872200D02*
G01*
X98076691Y-67872200D01*
X98076691Y-68172200D01*
X98326691Y-68172200D01*
X98326691Y-67872200D01*
G37*
X97826691Y-67872200D02*
X97576691Y-67872200D01*
X97576691Y-67872200D02*
X97576691Y-68172200D01*
X97576691Y-68172200D02*
X97826691Y-68172200D01*
X97826691Y-68172200D02*
X97826691Y-67872200D01*
G36*
X97826691Y-67872200D02*
G01*
X97576691Y-67872200D01*
X97576691Y-68172200D01*
X97826691Y-68172200D01*
X97826691Y-67872200D01*
G37*
X97326691Y-67872200D02*
X97076691Y-67872200D01*
X97076691Y-67872200D02*
X97076691Y-68172200D01*
X97076691Y-68172200D02*
X97326691Y-68172200D01*
X97326691Y-68172200D02*
X97326691Y-67872200D01*
G36*
X97326691Y-67872200D02*
G01*
X97076691Y-67872200D01*
X97076691Y-68172200D01*
X97326691Y-68172200D01*
X97326691Y-67872200D01*
G37*
X99326691Y-70672200D02*
X99076691Y-70672200D01*
X99076691Y-70672200D02*
X99076691Y-70972200D01*
X99076691Y-70972200D02*
X99326691Y-70972200D01*
X99326691Y-70972200D02*
X99326691Y-70672200D01*
G36*
X99326691Y-70672200D02*
G01*
X99076691Y-70672200D01*
X99076691Y-70972200D01*
X99326691Y-70972200D01*
X99326691Y-70672200D01*
G37*
X98826691Y-70672200D02*
X98576691Y-70672200D01*
X98576691Y-70672200D02*
X98576691Y-70972200D01*
X98576691Y-70972200D02*
X98826691Y-70972200D01*
X98826691Y-70972200D02*
X98826691Y-70672200D01*
G36*
X98826691Y-70672200D02*
G01*
X98576691Y-70672200D01*
X98576691Y-70972200D01*
X98826691Y-70972200D01*
X98826691Y-70672200D01*
G37*
X98326691Y-70672200D02*
X98076691Y-70672200D01*
X98076691Y-70672200D02*
X98076691Y-70972200D01*
X98076691Y-70972200D02*
X98326691Y-70972200D01*
X98326691Y-70972200D02*
X98326691Y-70672200D01*
G36*
X98326691Y-70672200D02*
G01*
X98076691Y-70672200D01*
X98076691Y-70972200D01*
X98326691Y-70972200D01*
X98326691Y-70672200D01*
G37*
X97826691Y-70672200D02*
X97576691Y-70672200D01*
X97576691Y-70672200D02*
X97576691Y-70972200D01*
X97576691Y-70972200D02*
X97826691Y-70972200D01*
X97826691Y-70972200D02*
X97826691Y-70672200D01*
G36*
X97826691Y-70672200D02*
G01*
X97576691Y-70672200D01*
X97576691Y-70972200D01*
X97826691Y-70972200D01*
X97826691Y-70672200D01*
G37*
X97326691Y-70672200D02*
X97076691Y-70672200D01*
X97076691Y-70672200D02*
X97076691Y-70972200D01*
X97076691Y-70972200D02*
X97326691Y-70972200D01*
X97326691Y-70972200D02*
X97326691Y-70672200D01*
G36*
X97326691Y-70672200D02*
G01*
X97076691Y-70672200D01*
X97076691Y-70972200D01*
X97326691Y-70972200D01*
X97326691Y-70672200D01*
G37*
D12*
X99901691Y-69297200D02*
X99531691Y-69297200D01*
X99531691Y-69047200D01*
X99901691Y-69047200D01*
X99901691Y-69297200D01*
G36*
X99901691Y-69297200D02*
G01*
X99531691Y-69297200D01*
X99531691Y-69047200D01*
X99901691Y-69047200D01*
X99901691Y-69297200D01*
G37*
X96871691Y-69297200D02*
X96501691Y-69297200D01*
X96501691Y-69047200D01*
X96871691Y-69047200D01*
X96871691Y-69297200D01*
G36*
X96871691Y-69297200D02*
G01*
X96501691Y-69297200D01*
X96501691Y-69047200D01*
X96871691Y-69047200D01*
X96871691Y-69297200D01*
G37*
X99901691Y-69797200D02*
X99531691Y-69797200D01*
X99531691Y-69547200D01*
X99901691Y-69547200D01*
X99901691Y-69797200D01*
G36*
X99901691Y-69797200D02*
G01*
X99531691Y-69797200D01*
X99531691Y-69547200D01*
X99901691Y-69547200D01*
X99901691Y-69797200D01*
G37*
X96871691Y-69797200D02*
X96501691Y-69797200D01*
X96501691Y-69547200D01*
X96871691Y-69547200D01*
X96871691Y-69797200D01*
G36*
X96871691Y-69797200D02*
G01*
X96501691Y-69797200D01*
X96501691Y-69547200D01*
X96871691Y-69547200D01*
X96871691Y-69797200D01*
G37*
X99311691Y-70132200D02*
X98376691Y-70132200D01*
X98376691Y-68682200D01*
X99311691Y-68682200D01*
X99311691Y-70132200D01*
G36*
X99311691Y-70132200D02*
G01*
X98376691Y-70132200D01*
X98376691Y-68682200D01*
X99311691Y-68682200D01*
X99311691Y-70132200D01*
G37*
X98016691Y-70132200D02*
X97081691Y-70132200D01*
X97081691Y-68682200D01*
X98016691Y-68682200D01*
X98016691Y-70132200D01*
G36*
X98016691Y-70132200D02*
G01*
X97081691Y-70132200D01*
X97081691Y-68682200D01*
X98016691Y-68682200D01*
X98016691Y-70132200D01*
G37*
%TO.C,Q1*%
D10*
X91339887Y-82596364D02*
X91339887Y-83156364D01*
X90809887Y-83156364D01*
X90809887Y-82586364D01*
X91339887Y-82596364D01*
G36*
X91339887Y-82596364D02*
G01*
X91339887Y-83156364D01*
X90809887Y-83156364D01*
X90809887Y-82586364D01*
X91339887Y-82596364D01*
G37*
X92639887Y-82596364D02*
X92639887Y-83156364D01*
X92109887Y-83156364D01*
X92109887Y-82586364D01*
X92639887Y-82596364D01*
G36*
X92639887Y-82596364D02*
G01*
X92639887Y-83156364D01*
X92109887Y-83156364D01*
X92109887Y-82586364D01*
X92639887Y-82596364D01*
G37*
X90049887Y-82576364D02*
X90049887Y-83136364D01*
X89519887Y-83136364D01*
X89519887Y-82566364D01*
X90049887Y-82576364D01*
G36*
X90049887Y-82576364D02*
G01*
X90049887Y-83136364D01*
X89519887Y-83136364D01*
X89519887Y-82566364D01*
X90049887Y-82576364D01*
G37*
X93939887Y-82576364D02*
X93939887Y-83136364D01*
X93409887Y-83136364D01*
X93409887Y-82566364D01*
X93939887Y-82576364D01*
G36*
X93939887Y-82576364D02*
G01*
X93939887Y-83136364D01*
X93409887Y-83136364D01*
X93409887Y-82566364D01*
X93939887Y-82576364D01*
G37*
X93799887Y-82366364D02*
X91879887Y-82366364D01*
X91879887Y-78386364D01*
X93799887Y-78386364D01*
X93799887Y-82366364D01*
G36*
X93799887Y-82366364D02*
G01*
X91879887Y-82366364D01*
X91879887Y-78386364D01*
X93799887Y-78386364D01*
X93799887Y-82366364D01*
G37*
X91519887Y-82356364D02*
X89599887Y-82356364D01*
X89599887Y-78376364D01*
X91519887Y-78376364D01*
X91519887Y-82356364D01*
G36*
X91519887Y-82356364D02*
G01*
X89599887Y-82356364D01*
X89599887Y-78376364D01*
X91519887Y-78376364D01*
X91519887Y-82356364D01*
G37*
%TD*%
D13*
%TO.C,C43*%
X106814000Y-69487000D03*
X104914000Y-69487000D03*
%TD*%
D14*
%TO.C,U8*%
X79540000Y-80990000D03*
X79540000Y-81640000D03*
X79540000Y-82290000D03*
X79540000Y-82940000D03*
X79540000Y-83590000D03*
X79540000Y-84240000D03*
X79540000Y-84890000D03*
X79540000Y-85540000D03*
X85265000Y-85540000D03*
X85265000Y-84890000D03*
X85265000Y-84240000D03*
X85265000Y-83590000D03*
X85265000Y-82940000D03*
X85265000Y-82290000D03*
X85265000Y-81640000D03*
X85265000Y-80990000D03*
%TD*%
D15*
%TO.C,R13*%
X90649600Y-63569000D03*
X90649600Y-64589000D03*
%TD*%
D16*
%TO.C,C12*%
X99760000Y-104470000D03*
X98800000Y-104470000D03*
%TD*%
D17*
%TO.C,Q4*%
X111370000Y-70430000D03*
X111370000Y-69130000D03*
X109370000Y-69780000D03*
%TD*%
D16*
%TO.C,C14*%
X99072000Y-122018000D03*
X98112000Y-122018000D03*
%TD*%
D13*
%TO.C,C41*%
X98355400Y-63005800D03*
X96455400Y-63005800D03*
%TD*%
D18*
%TO.C,C11*%
X111130400Y-114456400D03*
X111130400Y-115416400D03*
%TD*%
D15*
%TO.C,R8*%
X113770000Y-69930000D03*
X113770000Y-70950000D03*
%TD*%
D16*
%TO.C,C17*%
X97190000Y-108010000D03*
X96230000Y-108010000D03*
%TD*%
D18*
%TO.C,C10*%
X108692000Y-114431000D03*
X108692000Y-115391000D03*
%TD*%
D19*
%TO.C,R5*%
X85930000Y-100530000D03*
X84910000Y-100530000D03*
%TD*%
D20*
%TO.C,C38*%
X93550000Y-95040000D03*
X95450000Y-95040000D03*
%TD*%
D21*
%TO.C,U6*%
X101162500Y-129520000D03*
X101162500Y-130470000D03*
X101162500Y-131420000D03*
X103437500Y-131420000D03*
X103437500Y-129520000D03*
%TD*%
D20*
%TO.C,C45*%
X92522000Y-66420000D03*
X94422000Y-66420000D03*
%TD*%
D22*
%TO.C,Y1*%
X124017400Y-78349000D03*
X121172600Y-78349000D03*
%TD*%
D20*
%TO.C,C51*%
X130580000Y-84090000D03*
X132480000Y-84090000D03*
%TD*%
D23*
%TO.C,C16*%
X102626000Y-123028000D03*
X102626000Y-122068000D03*
%TD*%
%TO.C,C5*%
X112140000Y-122030000D03*
X112140000Y-121070000D03*
%TD*%
D24*
%TO.C,C52*%
X131050000Y-85700000D03*
X132010000Y-85700000D03*
%TD*%
D25*
%TO.C,U1*%
X116120000Y-126400000D03*
X116120000Y-124100000D03*
X114220000Y-124100000D03*
X114220000Y-126400000D03*
%TD*%
D24*
%TO.C,C23*%
X101710000Y-132840000D03*
X102670000Y-132840000D03*
%TD*%
D23*
%TO.C,C30*%
X124043000Y-76576000D03*
X124043000Y-75616000D03*
%TD*%
D16*
%TO.C,C1*%
X115710000Y-128040000D03*
X114750000Y-128040000D03*
%TD*%
D15*
%TO.C,R10*%
X94828800Y-63573600D03*
X94828800Y-64593600D03*
%TD*%
D19*
%TO.C,R17*%
X123720000Y-118980000D03*
X122700000Y-118980000D03*
%TD*%
D26*
%TO.C,C13*%
X105580000Y-111590000D03*
X105580000Y-117990000D03*
%TD*%
D27*
%TO.C,L1*%
X104570000Y-77870000D03*
X104570000Y-86190000D03*
%TD*%
D28*
%TO.C,R9*%
X99098400Y-112302200D03*
X99098400Y-111282200D03*
%TD*%
D16*
%TO.C,C21*%
X124350000Y-101890000D03*
X123390000Y-101890000D03*
%TD*%
D28*
%TO.C,R15*%
X93465000Y-64589000D03*
X93465000Y-63569000D03*
%TD*%
D29*
%TO.C,U7*%
X102351800Y-114107200D03*
X101701800Y-114107200D03*
X101051800Y-114107200D03*
X100401800Y-114107200D03*
X100401800Y-118407200D03*
X101051800Y-118407200D03*
X101701800Y-118407200D03*
X102351800Y-118407200D03*
%TD*%
D30*
%TO.C,R16*%
X116330000Y-57110000D03*
X117350000Y-57110000D03*
%TD*%
D21*
%TO.C,U5*%
X92595500Y-128588000D03*
X92595500Y-129538000D03*
X92595500Y-130488000D03*
X94870500Y-130488000D03*
X94870500Y-128588000D03*
%TD*%
D18*
%TO.C,C9*%
X109962000Y-114460000D03*
X109962000Y-115420000D03*
%TD*%
D16*
%TO.C,C49*%
X114200000Y-60500000D03*
X113240000Y-60500000D03*
%TD*%
D13*
%TO.C,C40*%
X98333000Y-65268000D03*
X96433000Y-65268000D03*
%TD*%
D31*
%TO.C,U10*%
X112380000Y-59065000D03*
X112380000Y-58415000D03*
X112380000Y-57765000D03*
X112380000Y-57115000D03*
X108080000Y-57115000D03*
X108080000Y-57765000D03*
X108080000Y-58415000D03*
X108080000Y-59065000D03*
%TD*%
D28*
%TO.C,R6*%
X117660000Y-115430000D03*
X117660000Y-114410000D03*
%TD*%
D24*
%TO.C,C39*%
X104650000Y-67450000D03*
X105610000Y-67450000D03*
%TD*%
D19*
%TO.C,R18*%
X115270000Y-120160000D03*
X114250000Y-120160000D03*
%TD*%
D23*
%TO.C,C31*%
X121159000Y-76585000D03*
X121159000Y-75625000D03*
%TD*%
D24*
%TO.C,C35*%
X82890000Y-89480000D03*
X83850000Y-89480000D03*
%TD*%
D23*
%TO.C,C33*%
X100139800Y-111281600D03*
X100139800Y-110321600D03*
%TD*%
D15*
%TO.C,R14*%
X92057300Y-63569000D03*
X92057300Y-64589000D03*
%TD*%
D24*
%TO.C,C20*%
X119425000Y-101505000D03*
X120385000Y-101505000D03*
%TD*%
D16*
%TO.C,C18*%
X96119000Y-109911000D03*
X95159000Y-109911000D03*
%TD*%
%TO.C,C2*%
X116000000Y-109854000D03*
X115040000Y-109854000D03*
%TD*%
D32*
%TO.C,Q2*%
X95751600Y-82862700D03*
X97049900Y-82862700D03*
X98313300Y-82862700D03*
X99611600Y-82862700D03*
%TD*%
D33*
%TO.C,U2*%
X115652000Y-97810000D03*
D34*
X114717000Y-98495000D03*
X114717000Y-98995000D03*
X114717000Y-99495000D03*
X114717000Y-99995000D03*
X114717000Y-100495000D03*
D33*
X115652000Y-101180000D03*
X117152000Y-101180000D03*
D34*
X118087000Y-100495000D03*
X118087000Y-99995000D03*
X118087000Y-99495000D03*
X118087000Y-98995000D03*
X118087000Y-98495000D03*
D33*
X117152000Y-97810000D03*
%TD*%
D30*
%TO.C,R2*%
X92560000Y-136980000D03*
X93580000Y-136980000D03*
%TD*%
D16*
%TO.C,C6*%
X113600000Y-106260000D03*
X112640000Y-106260000D03*
%TD*%
D24*
%TO.C,C44*%
X113880000Y-58540000D03*
X114840000Y-58540000D03*
%TD*%
%TO.C,C22*%
X93233000Y-132048000D03*
X94193000Y-132048000D03*
%TD*%
D23*
%TO.C,C4*%
X108465000Y-123028000D03*
X108465000Y-122068000D03*
%TD*%
D18*
%TO.C,C7*%
X112248000Y-114405600D03*
X112248000Y-115365600D03*
%TD*%
D19*
%TO.C,R11*%
X122120000Y-116640000D03*
X121100000Y-116640000D03*
%TD*%
D35*
%TO.C,C46*%
X103851600Y-89640200D03*
X100851600Y-89640200D03*
%TD*%
D32*
%TO.C,Q1*%
X93649887Y-77313864D03*
X92351587Y-77313864D03*
X91088187Y-77313864D03*
X89789887Y-77313864D03*
%TD*%
D16*
%TO.C,C8*%
X112270000Y-104470000D03*
X111310000Y-104470000D03*
%TD*%
D24*
%TO.C,C42*%
X96189800Y-73128000D03*
X97149800Y-73128000D03*
%TD*%
D36*
%TO.C,C34*%
X92806600Y-85410000D03*
X95756600Y-85410000D03*
%TD*%
D30*
%TO.C,R12*%
X98650200Y-73123400D03*
X99670200Y-73123400D03*
%TD*%
D19*
%TO.C,R4*%
X110465000Y-71760000D03*
X109445000Y-71760000D03*
%TD*%
D30*
%TO.C,R7*%
X109340000Y-74410000D03*
X110360000Y-74410000D03*
%TD*%
D16*
%TO.C,C3*%
X114900000Y-108020000D03*
X113940000Y-108020000D03*
%TD*%
D30*
%TO.C,R1*%
X123350000Y-100460000D03*
X124370000Y-100460000D03*
%TD*%
D16*
%TO.C,C29*%
X98040000Y-137640000D03*
X97080000Y-137640000D03*
%TD*%
%TO.C,C19*%
X116816000Y-103595000D03*
X115856000Y-103595000D03*
%TD*%
D19*
%TO.C,R3*%
X85920000Y-102000000D03*
X84900000Y-102000000D03*
%TD*%
D24*
%TO.C,C27*%
X111051000Y-65931000D03*
X112011000Y-65931000D03*
%TD*%
D37*
%TO.C,C47*%
X103786600Y-92610200D03*
X100836600Y-92610200D03*
%TD*%
D18*
%TO.C,C24*%
X96743000Y-128868000D03*
X96743000Y-129828000D03*
%TD*%
D36*
%TO.C,C36*%
X92785000Y-88870000D03*
X95735000Y-88870000D03*
%TD*%
D16*
%TO.C,C15*%
X98470000Y-106270000D03*
X97510000Y-106270000D03*
%TD*%
D38*
%TO.C,U11*%
X111185050Y-62440200D03*
X111185050Y-63380000D03*
X111185050Y-64319800D03*
X113940950Y-64319800D03*
X113940950Y-62440200D03*
%TD*%
D36*
%TO.C,C37*%
X92745000Y-92320000D03*
X95695000Y-92320000D03*
%TD*%
D18*
%TO.C,C25*%
X105520000Y-129990000D03*
X105520000Y-130950000D03*
%TD*%
M02*
