%TF.GenerationSoftware,KiCad,Pcbnew,7.0.2*%
%TF.CreationDate,2023-09-06T14:27:24-04:00*%
%TF.ProjectId,bitaxeUltra,62697461-7865-4556-9c74-72612e6b6963,rev?*%
%TF.SameCoordinates,Original*%
%TF.FileFunction,Legend,Bot*%
%TF.FilePolarity,Positive*%
%FSLAX46Y46*%
G04 Gerber Fmt 4.6, Leading zero omitted, Abs format (unit mm)*
G04 Created by KiCad (PCBNEW 7.0.2) date 2023-09-06 14:27:24*
%MOMM*%
%LPD*%
G01*
G04 APERTURE LIST*
%ADD10C,0.150000*%
%ADD11C,0.250000*%
%ADD12C,0.120000*%
%ADD13C,0.050000*%
%ADD14C,0.227485*%
%ADD15C,0.152400*%
G04 APERTURE END LIST*
D10*
X85450000Y-95700000D02*
X125430000Y-95700000D01*
X125430000Y-135690000D01*
X85450000Y-135690000D01*
X85450000Y-95700000D01*
X117510119Y-140152046D02*
X117033928Y-139818713D01*
X117510119Y-139580618D02*
X116510119Y-139580618D01*
X116510119Y-139580618D02*
X116510119Y-139961570D01*
X116510119Y-139961570D02*
X116557738Y-140056808D01*
X116557738Y-140056808D02*
X116605357Y-140104427D01*
X116605357Y-140104427D02*
X116700595Y-140152046D01*
X116700595Y-140152046D02*
X116843452Y-140152046D01*
X116843452Y-140152046D02*
X116938690Y-140104427D01*
X116938690Y-140104427D02*
X116986309Y-140056808D01*
X116986309Y-140056808D02*
X117033928Y-139961570D01*
X117033928Y-139961570D02*
X117033928Y-139580618D01*
X117462500Y-140532999D02*
X117510119Y-140675856D01*
X117510119Y-140675856D02*
X117510119Y-140913951D01*
X117510119Y-140913951D02*
X117462500Y-141009189D01*
X117462500Y-141009189D02*
X117414880Y-141056808D01*
X117414880Y-141056808D02*
X117319642Y-141104427D01*
X117319642Y-141104427D02*
X117224404Y-141104427D01*
X117224404Y-141104427D02*
X117129166Y-141056808D01*
X117129166Y-141056808D02*
X117081547Y-141009189D01*
X117081547Y-141009189D02*
X117033928Y-140913951D01*
X117033928Y-140913951D02*
X116986309Y-140723475D01*
X116986309Y-140723475D02*
X116938690Y-140628237D01*
X116938690Y-140628237D02*
X116891071Y-140580618D01*
X116891071Y-140580618D02*
X116795833Y-140532999D01*
X116795833Y-140532999D02*
X116700595Y-140532999D01*
X116700595Y-140532999D02*
X116605357Y-140580618D01*
X116605357Y-140580618D02*
X116557738Y-140628237D01*
X116557738Y-140628237D02*
X116510119Y-140723475D01*
X116510119Y-140723475D02*
X116510119Y-140961570D01*
X116510119Y-140961570D02*
X116557738Y-141104427D01*
X116510119Y-141390142D02*
X116510119Y-141961570D01*
X117510119Y-141675856D02*
X116510119Y-141675856D01*
X91671619Y-138827523D02*
X91671619Y-138351333D01*
X91671619Y-138351333D02*
X92147809Y-138303714D01*
X92147809Y-138303714D02*
X92100190Y-138351333D01*
X92100190Y-138351333D02*
X92052571Y-138446571D01*
X92052571Y-138446571D02*
X92052571Y-138684666D01*
X92052571Y-138684666D02*
X92100190Y-138779904D01*
X92100190Y-138779904D02*
X92147809Y-138827523D01*
X92147809Y-138827523D02*
X92243047Y-138875142D01*
X92243047Y-138875142D02*
X92481142Y-138875142D01*
X92481142Y-138875142D02*
X92576380Y-138827523D01*
X92576380Y-138827523D02*
X92624000Y-138779904D01*
X92624000Y-138779904D02*
X92671619Y-138684666D01*
X92671619Y-138684666D02*
X92671619Y-138446571D01*
X92671619Y-138446571D02*
X92624000Y-138351333D01*
X92624000Y-138351333D02*
X92576380Y-138303714D01*
X91671619Y-139160857D02*
X92671619Y-139494190D01*
X92671619Y-139494190D02*
X91671619Y-139827523D01*
X109912619Y-140056809D02*
X109912619Y-139485381D01*
X109912619Y-139771095D02*
X108912619Y-139771095D01*
X108912619Y-139771095D02*
X109055476Y-139675857D01*
X109055476Y-139675857D02*
X109150714Y-139580619D01*
X109150714Y-139580619D02*
X109198333Y-139485381D01*
X108912619Y-140342524D02*
X109912619Y-140675857D01*
X109912619Y-140675857D02*
X108912619Y-141009190D01*
X109341190Y-141485381D02*
X109293571Y-141390143D01*
X109293571Y-141390143D02*
X109245952Y-141342524D01*
X109245952Y-141342524D02*
X109150714Y-141294905D01*
X109150714Y-141294905D02*
X109103095Y-141294905D01*
X109103095Y-141294905D02*
X109007857Y-141342524D01*
X109007857Y-141342524D02*
X108960238Y-141390143D01*
X108960238Y-141390143D02*
X108912619Y-141485381D01*
X108912619Y-141485381D02*
X108912619Y-141675857D01*
X108912619Y-141675857D02*
X108960238Y-141771095D01*
X108960238Y-141771095D02*
X109007857Y-141818714D01*
X109007857Y-141818714D02*
X109103095Y-141866333D01*
X109103095Y-141866333D02*
X109150714Y-141866333D01*
X109150714Y-141866333D02*
X109245952Y-141818714D01*
X109245952Y-141818714D02*
X109293571Y-141771095D01*
X109293571Y-141771095D02*
X109341190Y-141675857D01*
X109341190Y-141675857D02*
X109341190Y-141485381D01*
X109341190Y-141485381D02*
X109388809Y-141390143D01*
X109388809Y-141390143D02*
X109436428Y-141342524D01*
X109436428Y-141342524D02*
X109531666Y-141294905D01*
X109531666Y-141294905D02*
X109722142Y-141294905D01*
X109722142Y-141294905D02*
X109817380Y-141342524D01*
X109817380Y-141342524D02*
X109865000Y-141390143D01*
X109865000Y-141390143D02*
X109912619Y-141485381D01*
X109912619Y-141485381D02*
X109912619Y-141675857D01*
X109912619Y-141675857D02*
X109865000Y-141771095D01*
X109865000Y-141771095D02*
X109817380Y-141818714D01*
X109817380Y-141818714D02*
X109722142Y-141866333D01*
X109722142Y-141866333D02*
X109531666Y-141866333D01*
X109531666Y-141866333D02*
X109436428Y-141818714D01*
X109436428Y-141818714D02*
X109388809Y-141771095D01*
X109388809Y-141771095D02*
X109341190Y-141675857D01*
X106026190Y-110525000D02*
X106883332Y-111810714D01*
X104978570Y-110667857D02*
X104930951Y-110620238D01*
X104930951Y-110620238D02*
X104835713Y-110572619D01*
X104835713Y-110572619D02*
X104597618Y-110572619D01*
X104597618Y-110572619D02*
X104502380Y-110620238D01*
X104502380Y-110620238D02*
X104454761Y-110667857D01*
X104454761Y-110667857D02*
X104407142Y-110763095D01*
X104407142Y-110763095D02*
X104407142Y-110858333D01*
X104407142Y-110858333D02*
X104454761Y-111001190D01*
X104454761Y-111001190D02*
X105026189Y-111572619D01*
X105026189Y-111572619D02*
X104407142Y-111572619D01*
X103454761Y-111572619D02*
X104026189Y-111572619D01*
X103740475Y-111572619D02*
X103740475Y-110572619D01*
X103740475Y-110572619D02*
X103835713Y-110715476D01*
X103835713Y-110715476D02*
X103930951Y-110810714D01*
X103930951Y-110810714D02*
X104026189Y-110858333D01*
X103026189Y-111572619D02*
X103026189Y-110572619D01*
X103026189Y-110572619D02*
X102692856Y-111286904D01*
X102692856Y-111286904D02*
X102359523Y-110572619D01*
X102359523Y-110572619D02*
X102359523Y-111572619D01*
X87159761Y-88630809D02*
X87016904Y-88678428D01*
X87016904Y-88678428D02*
X86969285Y-88726047D01*
X86969285Y-88726047D02*
X86921666Y-88821285D01*
X86921666Y-88821285D02*
X86921666Y-88964142D01*
X86921666Y-88964142D02*
X86969285Y-89059380D01*
X86969285Y-89059380D02*
X87016904Y-89107000D01*
X87016904Y-89107000D02*
X87112142Y-89154619D01*
X87112142Y-89154619D02*
X87493094Y-89154619D01*
X87493094Y-89154619D02*
X87493094Y-88154619D01*
X87493094Y-88154619D02*
X87159761Y-88154619D01*
X87159761Y-88154619D02*
X87064523Y-88202238D01*
X87064523Y-88202238D02*
X87016904Y-88249857D01*
X87016904Y-88249857D02*
X86969285Y-88345095D01*
X86969285Y-88345095D02*
X86969285Y-88440333D01*
X86969285Y-88440333D02*
X87016904Y-88535571D01*
X87016904Y-88535571D02*
X87064523Y-88583190D01*
X87064523Y-88583190D02*
X87159761Y-88630809D01*
X87159761Y-88630809D02*
X87493094Y-88630809D01*
X86493094Y-89154619D02*
X86493094Y-88154619D01*
X86493094Y-88154619D02*
X86159761Y-88868904D01*
X86159761Y-88868904D02*
X85826428Y-88154619D01*
X85826428Y-88154619D02*
X85826428Y-89154619D01*
X84826428Y-89154619D02*
X85397856Y-89154619D01*
X85112142Y-89154619D02*
X85112142Y-88154619D01*
X85112142Y-88154619D02*
X85207380Y-88297476D01*
X85207380Y-88297476D02*
X85302618Y-88392714D01*
X85302618Y-88392714D02*
X85397856Y-88440333D01*
X84493094Y-88154619D02*
X83874047Y-88154619D01*
X83874047Y-88154619D02*
X84207380Y-88535571D01*
X84207380Y-88535571D02*
X84064523Y-88535571D01*
X84064523Y-88535571D02*
X83969285Y-88583190D01*
X83969285Y-88583190D02*
X83921666Y-88630809D01*
X83921666Y-88630809D02*
X83874047Y-88726047D01*
X83874047Y-88726047D02*
X83874047Y-88964142D01*
X83874047Y-88964142D02*
X83921666Y-89059380D01*
X83921666Y-89059380D02*
X83969285Y-89107000D01*
X83969285Y-89107000D02*
X84064523Y-89154619D01*
X84064523Y-89154619D02*
X84350237Y-89154619D01*
X84350237Y-89154619D02*
X84445475Y-89107000D01*
X84445475Y-89107000D02*
X84493094Y-89059380D01*
X83016904Y-88154619D02*
X83207380Y-88154619D01*
X83207380Y-88154619D02*
X83302618Y-88202238D01*
X83302618Y-88202238D02*
X83350237Y-88249857D01*
X83350237Y-88249857D02*
X83445475Y-88392714D01*
X83445475Y-88392714D02*
X83493094Y-88583190D01*
X83493094Y-88583190D02*
X83493094Y-88964142D01*
X83493094Y-88964142D02*
X83445475Y-89059380D01*
X83445475Y-89059380D02*
X83397856Y-89107000D01*
X83397856Y-89107000D02*
X83302618Y-89154619D01*
X83302618Y-89154619D02*
X83112142Y-89154619D01*
X83112142Y-89154619D02*
X83016904Y-89107000D01*
X83016904Y-89107000D02*
X82969285Y-89059380D01*
X82969285Y-89059380D02*
X82921666Y-88964142D01*
X82921666Y-88964142D02*
X82921666Y-88726047D01*
X82921666Y-88726047D02*
X82969285Y-88630809D01*
X82969285Y-88630809D02*
X83016904Y-88583190D01*
X83016904Y-88583190D02*
X83112142Y-88535571D01*
X83112142Y-88535571D02*
X83302618Y-88535571D01*
X83302618Y-88535571D02*
X83397856Y-88583190D01*
X83397856Y-88583190D02*
X83445475Y-88630809D01*
X83445475Y-88630809D02*
X83493094Y-88726047D01*
X82064523Y-88154619D02*
X82254999Y-88154619D01*
X82254999Y-88154619D02*
X82350237Y-88202238D01*
X82350237Y-88202238D02*
X82397856Y-88249857D01*
X82397856Y-88249857D02*
X82493094Y-88392714D01*
X82493094Y-88392714D02*
X82540713Y-88583190D01*
X82540713Y-88583190D02*
X82540713Y-88964142D01*
X82540713Y-88964142D02*
X82493094Y-89059380D01*
X82493094Y-89059380D02*
X82445475Y-89107000D01*
X82445475Y-89107000D02*
X82350237Y-89154619D01*
X82350237Y-89154619D02*
X82159761Y-89154619D01*
X82159761Y-89154619D02*
X82064523Y-89107000D01*
X82064523Y-89107000D02*
X82016904Y-89059380D01*
X82016904Y-89059380D02*
X81969285Y-88964142D01*
X81969285Y-88964142D02*
X81969285Y-88726047D01*
X81969285Y-88726047D02*
X82016904Y-88630809D01*
X82016904Y-88630809D02*
X82064523Y-88583190D01*
X82064523Y-88583190D02*
X82159761Y-88535571D01*
X82159761Y-88535571D02*
X82350237Y-88535571D01*
X82350237Y-88535571D02*
X82445475Y-88583190D01*
X82445475Y-88583190D02*
X82493094Y-88630809D01*
X82493094Y-88630809D02*
X82540713Y-88726047D01*
X80921665Y-88154619D02*
X80588332Y-89154619D01*
X80588332Y-89154619D02*
X80254999Y-88154619D01*
X79397856Y-89154619D02*
X79969284Y-89154619D01*
X79683570Y-89154619D02*
X79683570Y-88154619D01*
X79683570Y-88154619D02*
X79778808Y-88297476D01*
X79778808Y-88297476D02*
X79874046Y-88392714D01*
X79874046Y-88392714D02*
X79969284Y-88440333D01*
X78969284Y-89059380D02*
X78921665Y-89107000D01*
X78921665Y-89107000D02*
X78969284Y-89154619D01*
X78969284Y-89154619D02*
X79016903Y-89107000D01*
X79016903Y-89107000D02*
X78969284Y-89059380D01*
X78969284Y-89059380D02*
X78969284Y-89154619D01*
X77969285Y-89154619D02*
X78540713Y-89154619D01*
X78254999Y-89154619D02*
X78254999Y-88154619D01*
X78254999Y-88154619D02*
X78350237Y-88297476D01*
X78350237Y-88297476D02*
X78445475Y-88392714D01*
X78445475Y-88392714D02*
X78540713Y-88440333D01*
D11*
X108279523Y-110932857D02*
X108089047Y-110837619D01*
X108089047Y-110837619D02*
X107898571Y-110932857D01*
X107898571Y-110932857D02*
X107803333Y-111123333D01*
X107803333Y-111123333D02*
X107898571Y-111313809D01*
X107898571Y-111313809D02*
X108089047Y-111409047D01*
X108089047Y-111409047D02*
X108279523Y-111313809D01*
X108279523Y-111313809D02*
X108660475Y-110932857D01*
X108660475Y-110932857D02*
X108850952Y-110837619D01*
X108850952Y-110837619D02*
X109041428Y-110932857D01*
X109041428Y-110932857D02*
X109136666Y-111123333D01*
X109136666Y-111123333D02*
X109041428Y-111313809D01*
X109041428Y-111313809D02*
X108850952Y-111409047D01*
X108850952Y-111409047D02*
X108660475Y-111313809D01*
X108660475Y-111313809D02*
X108279523Y-110932857D01*
D10*
X112445119Y-140437762D02*
X111968928Y-140104429D01*
X112445119Y-139866334D02*
X111445119Y-139866334D01*
X111445119Y-139866334D02*
X111445119Y-140247286D01*
X111445119Y-140247286D02*
X111492738Y-140342524D01*
X111492738Y-140342524D02*
X111540357Y-140390143D01*
X111540357Y-140390143D02*
X111635595Y-140437762D01*
X111635595Y-140437762D02*
X111778452Y-140437762D01*
X111778452Y-140437762D02*
X111873690Y-140390143D01*
X111873690Y-140390143D02*
X111921309Y-140342524D01*
X111921309Y-140342524D02*
X111968928Y-140247286D01*
X111968928Y-140247286D02*
X111968928Y-139866334D01*
X111445119Y-140771096D02*
X112445119Y-141437762D01*
X111445119Y-141437762D02*
X112445119Y-140771096D01*
X112445119Y-141818715D02*
X111445119Y-141818715D01*
X97727619Y-136958238D02*
X96727619Y-136958238D01*
X96727619Y-136958238D02*
X96727619Y-137339190D01*
X96727619Y-137339190D02*
X96775238Y-137434428D01*
X96775238Y-137434428D02*
X96822857Y-137482047D01*
X96822857Y-137482047D02*
X96918095Y-137529666D01*
X96918095Y-137529666D02*
X97060952Y-137529666D01*
X97060952Y-137529666D02*
X97156190Y-137482047D01*
X97156190Y-137482047D02*
X97203809Y-137434428D01*
X97203809Y-137434428D02*
X97251428Y-137339190D01*
X97251428Y-137339190D02*
X97251428Y-136958238D01*
X96727619Y-137863000D02*
X97727619Y-138101095D01*
X97727619Y-138101095D02*
X97013333Y-138291571D01*
X97013333Y-138291571D02*
X97727619Y-138482047D01*
X97727619Y-138482047D02*
X96727619Y-138720143D01*
X97727619Y-139101095D02*
X96727619Y-139101095D01*
X96727619Y-139101095D02*
X97441904Y-139434428D01*
X97441904Y-139434428D02*
X96727619Y-139767761D01*
X96727619Y-139767761D02*
X97727619Y-139767761D01*
X119090238Y-139771095D02*
X119042619Y-139675857D01*
X119042619Y-139675857D02*
X119042619Y-139533000D01*
X119042619Y-139533000D02*
X119090238Y-139390143D01*
X119090238Y-139390143D02*
X119185476Y-139294905D01*
X119185476Y-139294905D02*
X119280714Y-139247286D01*
X119280714Y-139247286D02*
X119471190Y-139199667D01*
X119471190Y-139199667D02*
X119614047Y-139199667D01*
X119614047Y-139199667D02*
X119804523Y-139247286D01*
X119804523Y-139247286D02*
X119899761Y-139294905D01*
X119899761Y-139294905D02*
X119995000Y-139390143D01*
X119995000Y-139390143D02*
X120042619Y-139533000D01*
X120042619Y-139533000D02*
X120042619Y-139628238D01*
X120042619Y-139628238D02*
X119995000Y-139771095D01*
X119995000Y-139771095D02*
X119947380Y-139818714D01*
X119947380Y-139818714D02*
X119614047Y-139818714D01*
X119614047Y-139818714D02*
X119614047Y-139628238D01*
X120042619Y-140247286D02*
X119042619Y-140247286D01*
X119042619Y-140247286D02*
X120042619Y-140818714D01*
X120042619Y-140818714D02*
X119042619Y-140818714D01*
X120042619Y-141294905D02*
X119042619Y-141294905D01*
X119042619Y-141294905D02*
X119042619Y-141533000D01*
X119042619Y-141533000D02*
X119090238Y-141675857D01*
X119090238Y-141675857D02*
X119185476Y-141771095D01*
X119185476Y-141771095D02*
X119280714Y-141818714D01*
X119280714Y-141818714D02*
X119471190Y-141866333D01*
X119471190Y-141866333D02*
X119614047Y-141866333D01*
X119614047Y-141866333D02*
X119804523Y-141818714D01*
X119804523Y-141818714D02*
X119899761Y-141771095D01*
X119899761Y-141771095D02*
X119995000Y-141675857D01*
X119995000Y-141675857D02*
X120042619Y-141533000D01*
X120042619Y-141533000D02*
X120042619Y-141294905D01*
X113977619Y-139390143D02*
X113977619Y-139961571D01*
X114977619Y-139675857D02*
X113977619Y-139675857D01*
X113977619Y-140199667D02*
X114977619Y-140866333D01*
X113977619Y-140866333D02*
X114977619Y-140199667D01*
X113977619Y-141437762D02*
X113977619Y-141628238D01*
X113977619Y-141628238D02*
X114025238Y-141723476D01*
X114025238Y-141723476D02*
X114120476Y-141818714D01*
X114120476Y-141818714D02*
X114310952Y-141866333D01*
X114310952Y-141866333D02*
X114644285Y-141866333D01*
X114644285Y-141866333D02*
X114834761Y-141818714D01*
X114834761Y-141818714D02*
X114930000Y-141723476D01*
X114930000Y-141723476D02*
X114977619Y-141628238D01*
X114977619Y-141628238D02*
X114977619Y-141437762D01*
X114977619Y-141437762D02*
X114930000Y-141342524D01*
X114930000Y-141342524D02*
X114834761Y-141247286D01*
X114834761Y-141247286D02*
X114644285Y-141199667D01*
X114644285Y-141199667D02*
X114310952Y-141199667D01*
X114310952Y-141199667D02*
X114120476Y-141247286D01*
X114120476Y-141247286D02*
X114025238Y-141342524D01*
X114025238Y-141342524D02*
X113977619Y-141437762D01*
X94195119Y-137482047D02*
X94195119Y-138053475D01*
X95195119Y-137767761D02*
X94195119Y-137767761D01*
X94909404Y-138339190D02*
X94909404Y-138815380D01*
X95195119Y-138243952D02*
X94195119Y-138577285D01*
X94195119Y-138577285D02*
X95195119Y-138910618D01*
X95099880Y-139815380D02*
X95147500Y-139767761D01*
X95147500Y-139767761D02*
X95195119Y-139624904D01*
X95195119Y-139624904D02*
X95195119Y-139529666D01*
X95195119Y-139529666D02*
X95147500Y-139386809D01*
X95147500Y-139386809D02*
X95052261Y-139291571D01*
X95052261Y-139291571D02*
X94957023Y-139243952D01*
X94957023Y-139243952D02*
X94766547Y-139196333D01*
X94766547Y-139196333D02*
X94623690Y-139196333D01*
X94623690Y-139196333D02*
X94433214Y-139243952D01*
X94433214Y-139243952D02*
X94337976Y-139291571D01*
X94337976Y-139291571D02*
X94242738Y-139386809D01*
X94242738Y-139386809D02*
X94195119Y-139529666D01*
X94195119Y-139529666D02*
X94195119Y-139624904D01*
X94195119Y-139624904D02*
X94242738Y-139767761D01*
X94242738Y-139767761D02*
X94290357Y-139815380D01*
X89177738Y-137720143D02*
X89130119Y-137624905D01*
X89130119Y-137624905D02*
X89130119Y-137482048D01*
X89130119Y-137482048D02*
X89177738Y-137339191D01*
X89177738Y-137339191D02*
X89272976Y-137243953D01*
X89272976Y-137243953D02*
X89368214Y-137196334D01*
X89368214Y-137196334D02*
X89558690Y-137148715D01*
X89558690Y-137148715D02*
X89701547Y-137148715D01*
X89701547Y-137148715D02*
X89892023Y-137196334D01*
X89892023Y-137196334D02*
X89987261Y-137243953D01*
X89987261Y-137243953D02*
X90082500Y-137339191D01*
X90082500Y-137339191D02*
X90130119Y-137482048D01*
X90130119Y-137482048D02*
X90130119Y-137577286D01*
X90130119Y-137577286D02*
X90082500Y-137720143D01*
X90082500Y-137720143D02*
X90034880Y-137767762D01*
X90034880Y-137767762D02*
X89701547Y-137767762D01*
X89701547Y-137767762D02*
X89701547Y-137577286D01*
X90130119Y-138196334D02*
X89130119Y-138196334D01*
X89130119Y-138196334D02*
X90130119Y-138767762D01*
X90130119Y-138767762D02*
X89130119Y-138767762D01*
X90130119Y-139243953D02*
X89130119Y-139243953D01*
X89130119Y-139243953D02*
X89130119Y-139482048D01*
X89130119Y-139482048D02*
X89177738Y-139624905D01*
X89177738Y-139624905D02*
X89272976Y-139720143D01*
X89272976Y-139720143D02*
X89368214Y-139767762D01*
X89368214Y-139767762D02*
X89558690Y-139815381D01*
X89558690Y-139815381D02*
X89701547Y-139815381D01*
X89701547Y-139815381D02*
X89892023Y-139767762D01*
X89892023Y-139767762D02*
X89987261Y-139720143D01*
X89987261Y-139720143D02*
X90082500Y-139624905D01*
X90082500Y-139624905D02*
X90130119Y-139482048D01*
X90130119Y-139482048D02*
X90130119Y-139243953D01*
%TO.C,J7*%
X81003333Y-76002619D02*
X81003333Y-76716904D01*
X81003333Y-76716904D02*
X81050952Y-76859761D01*
X81050952Y-76859761D02*
X81146190Y-76955000D01*
X81146190Y-76955000D02*
X81289047Y-77002619D01*
X81289047Y-77002619D02*
X81384285Y-77002619D01*
X80622380Y-76002619D02*
X79955714Y-76002619D01*
X79955714Y-76002619D02*
X80384285Y-77002619D01*
%TO.C,J8*%
X124010619Y-92122666D02*
X124724904Y-92122666D01*
X124724904Y-92122666D02*
X124867761Y-92075047D01*
X124867761Y-92075047D02*
X124963000Y-91979809D01*
X124963000Y-91979809D02*
X125010619Y-91836952D01*
X125010619Y-91836952D02*
X125010619Y-91741714D01*
X124439190Y-92741714D02*
X124391571Y-92646476D01*
X124391571Y-92646476D02*
X124343952Y-92598857D01*
X124343952Y-92598857D02*
X124248714Y-92551238D01*
X124248714Y-92551238D02*
X124201095Y-92551238D01*
X124201095Y-92551238D02*
X124105857Y-92598857D01*
X124105857Y-92598857D02*
X124058238Y-92646476D01*
X124058238Y-92646476D02*
X124010619Y-92741714D01*
X124010619Y-92741714D02*
X124010619Y-92932190D01*
X124010619Y-92932190D02*
X124058238Y-93027428D01*
X124058238Y-93027428D02*
X124105857Y-93075047D01*
X124105857Y-93075047D02*
X124201095Y-93122666D01*
X124201095Y-93122666D02*
X124248714Y-93122666D01*
X124248714Y-93122666D02*
X124343952Y-93075047D01*
X124343952Y-93075047D02*
X124391571Y-93027428D01*
X124391571Y-93027428D02*
X124439190Y-92932190D01*
X124439190Y-92932190D02*
X124439190Y-92741714D01*
X124439190Y-92741714D02*
X124486809Y-92646476D01*
X124486809Y-92646476D02*
X124534428Y-92598857D01*
X124534428Y-92598857D02*
X124629666Y-92551238D01*
X124629666Y-92551238D02*
X124820142Y-92551238D01*
X124820142Y-92551238D02*
X124915380Y-92598857D01*
X124915380Y-92598857D02*
X124963000Y-92646476D01*
X124963000Y-92646476D02*
X125010619Y-92741714D01*
X125010619Y-92741714D02*
X125010619Y-92932190D01*
X125010619Y-92932190D02*
X124963000Y-93027428D01*
X124963000Y-93027428D02*
X124915380Y-93075047D01*
X124915380Y-93075047D02*
X124820142Y-93122666D01*
X124820142Y-93122666D02*
X124629666Y-93122666D01*
X124629666Y-93122666D02*
X124534428Y-93075047D01*
X124534428Y-93075047D02*
X124486809Y-93027428D01*
X124486809Y-93027428D02*
X124439190Y-92932190D01*
%TO.C,J10*%
X80782523Y-63296619D02*
X80782523Y-64010904D01*
X80782523Y-64010904D02*
X80830142Y-64153761D01*
X80830142Y-64153761D02*
X80925380Y-64249000D01*
X80925380Y-64249000D02*
X81068237Y-64296619D01*
X81068237Y-64296619D02*
X81163475Y-64296619D01*
X79782523Y-64296619D02*
X80353951Y-64296619D01*
X80068237Y-64296619D02*
X80068237Y-63296619D01*
X80068237Y-63296619D02*
X80163475Y-63439476D01*
X80163475Y-63439476D02*
X80258713Y-63534714D01*
X80258713Y-63534714D02*
X80353951Y-63582333D01*
X79163475Y-63296619D02*
X79068237Y-63296619D01*
X79068237Y-63296619D02*
X78972999Y-63344238D01*
X78972999Y-63344238D02*
X78925380Y-63391857D01*
X78925380Y-63391857D02*
X78877761Y-63487095D01*
X78877761Y-63487095D02*
X78830142Y-63677571D01*
X78830142Y-63677571D02*
X78830142Y-63915666D01*
X78830142Y-63915666D02*
X78877761Y-64106142D01*
X78877761Y-64106142D02*
X78925380Y-64201380D01*
X78925380Y-64201380D02*
X78972999Y-64249000D01*
X78972999Y-64249000D02*
X79068237Y-64296619D01*
X79068237Y-64296619D02*
X79163475Y-64296619D01*
X79163475Y-64296619D02*
X79258713Y-64249000D01*
X79258713Y-64249000D02*
X79306332Y-64201380D01*
X79306332Y-64201380D02*
X79353951Y-64106142D01*
X79353951Y-64106142D02*
X79401570Y-63915666D01*
X79401570Y-63915666D02*
X79401570Y-63677571D01*
X79401570Y-63677571D02*
X79353951Y-63487095D01*
X79353951Y-63487095D02*
X79306332Y-63391857D01*
X79306332Y-63391857D02*
X79258713Y-63344238D01*
X79258713Y-63344238D02*
X79163475Y-63296619D01*
%TO.C,C28*%
X106790857Y-137442380D02*
X106838476Y-137490000D01*
X106838476Y-137490000D02*
X106981333Y-137537619D01*
X106981333Y-137537619D02*
X107076571Y-137537619D01*
X107076571Y-137537619D02*
X107219428Y-137490000D01*
X107219428Y-137490000D02*
X107314666Y-137394761D01*
X107314666Y-137394761D02*
X107362285Y-137299523D01*
X107362285Y-137299523D02*
X107409904Y-137109047D01*
X107409904Y-137109047D02*
X107409904Y-136966190D01*
X107409904Y-136966190D02*
X107362285Y-136775714D01*
X107362285Y-136775714D02*
X107314666Y-136680476D01*
X107314666Y-136680476D02*
X107219428Y-136585238D01*
X107219428Y-136585238D02*
X107076571Y-136537619D01*
X107076571Y-136537619D02*
X106981333Y-136537619D01*
X106981333Y-136537619D02*
X106838476Y-136585238D01*
X106838476Y-136585238D02*
X106790857Y-136632857D01*
X106409904Y-136632857D02*
X106362285Y-136585238D01*
X106362285Y-136585238D02*
X106267047Y-136537619D01*
X106267047Y-136537619D02*
X106028952Y-136537619D01*
X106028952Y-136537619D02*
X105933714Y-136585238D01*
X105933714Y-136585238D02*
X105886095Y-136632857D01*
X105886095Y-136632857D02*
X105838476Y-136728095D01*
X105838476Y-136728095D02*
X105838476Y-136823333D01*
X105838476Y-136823333D02*
X105886095Y-136966190D01*
X105886095Y-136966190D02*
X106457523Y-137537619D01*
X106457523Y-137537619D02*
X105838476Y-137537619D01*
X105267047Y-136966190D02*
X105362285Y-136918571D01*
X105362285Y-136918571D02*
X105409904Y-136870952D01*
X105409904Y-136870952D02*
X105457523Y-136775714D01*
X105457523Y-136775714D02*
X105457523Y-136728095D01*
X105457523Y-136728095D02*
X105409904Y-136632857D01*
X105409904Y-136632857D02*
X105362285Y-136585238D01*
X105362285Y-136585238D02*
X105267047Y-136537619D01*
X105267047Y-136537619D02*
X105076571Y-136537619D01*
X105076571Y-136537619D02*
X104981333Y-136585238D01*
X104981333Y-136585238D02*
X104933714Y-136632857D01*
X104933714Y-136632857D02*
X104886095Y-136728095D01*
X104886095Y-136728095D02*
X104886095Y-136775714D01*
X104886095Y-136775714D02*
X104933714Y-136870952D01*
X104933714Y-136870952D02*
X104981333Y-136918571D01*
X104981333Y-136918571D02*
X105076571Y-136966190D01*
X105076571Y-136966190D02*
X105267047Y-136966190D01*
X105267047Y-136966190D02*
X105362285Y-137013809D01*
X105362285Y-137013809D02*
X105409904Y-137061428D01*
X105409904Y-137061428D02*
X105457523Y-137156666D01*
X105457523Y-137156666D02*
X105457523Y-137347142D01*
X105457523Y-137347142D02*
X105409904Y-137442380D01*
X105409904Y-137442380D02*
X105362285Y-137490000D01*
X105362285Y-137490000D02*
X105267047Y-137537619D01*
X105267047Y-137537619D02*
X105076571Y-137537619D01*
X105076571Y-137537619D02*
X104981333Y-137490000D01*
X104981333Y-137490000D02*
X104933714Y-137442380D01*
X104933714Y-137442380D02*
X104886095Y-137347142D01*
X104886095Y-137347142D02*
X104886095Y-137156666D01*
X104886095Y-137156666D02*
X104933714Y-137061428D01*
X104933714Y-137061428D02*
X104981333Y-137013809D01*
X104981333Y-137013809D02*
X105076571Y-136966190D01*
%TO.C,SW1*%
X131608381Y-107538619D02*
X131941714Y-107062428D01*
X132179809Y-107538619D02*
X132179809Y-106538619D01*
X132179809Y-106538619D02*
X131798857Y-106538619D01*
X131798857Y-106538619D02*
X131703619Y-106586238D01*
X131703619Y-106586238D02*
X131656000Y-106633857D01*
X131656000Y-106633857D02*
X131608381Y-106729095D01*
X131608381Y-106729095D02*
X131608381Y-106871952D01*
X131608381Y-106871952D02*
X131656000Y-106967190D01*
X131656000Y-106967190D02*
X131703619Y-107014809D01*
X131703619Y-107014809D02*
X131798857Y-107062428D01*
X131798857Y-107062428D02*
X132179809Y-107062428D01*
X131179809Y-107014809D02*
X130846476Y-107014809D01*
X130703619Y-107538619D02*
X131179809Y-107538619D01*
X131179809Y-107538619D02*
X131179809Y-106538619D01*
X131179809Y-106538619D02*
X130703619Y-106538619D01*
X130322666Y-107491000D02*
X130179809Y-107538619D01*
X130179809Y-107538619D02*
X129941714Y-107538619D01*
X129941714Y-107538619D02*
X129846476Y-107491000D01*
X129846476Y-107491000D02*
X129798857Y-107443380D01*
X129798857Y-107443380D02*
X129751238Y-107348142D01*
X129751238Y-107348142D02*
X129751238Y-107252904D01*
X129751238Y-107252904D02*
X129798857Y-107157666D01*
X129798857Y-107157666D02*
X129846476Y-107110047D01*
X129846476Y-107110047D02*
X129941714Y-107062428D01*
X129941714Y-107062428D02*
X130132190Y-107014809D01*
X130132190Y-107014809D02*
X130227428Y-106967190D01*
X130227428Y-106967190D02*
X130275047Y-106919571D01*
X130275047Y-106919571D02*
X130322666Y-106824333D01*
X130322666Y-106824333D02*
X130322666Y-106729095D01*
X130322666Y-106729095D02*
X130275047Y-106633857D01*
X130275047Y-106633857D02*
X130227428Y-106586238D01*
X130227428Y-106586238D02*
X130132190Y-106538619D01*
X130132190Y-106538619D02*
X129894095Y-106538619D01*
X129894095Y-106538619D02*
X129751238Y-106586238D01*
X129322666Y-107014809D02*
X128989333Y-107014809D01*
X128846476Y-107538619D02*
X129322666Y-107538619D01*
X129322666Y-107538619D02*
X129322666Y-106538619D01*
X129322666Y-106538619D02*
X128846476Y-106538619D01*
X128560761Y-106538619D02*
X127989333Y-106538619D01*
X128275047Y-107538619D02*
X128275047Y-106538619D01*
%TO.C,SW2*%
X131514142Y-115666809D02*
X131371285Y-115714428D01*
X131371285Y-115714428D02*
X131323666Y-115762047D01*
X131323666Y-115762047D02*
X131276047Y-115857285D01*
X131276047Y-115857285D02*
X131276047Y-116000142D01*
X131276047Y-116000142D02*
X131323666Y-116095380D01*
X131323666Y-116095380D02*
X131371285Y-116143000D01*
X131371285Y-116143000D02*
X131466523Y-116190619D01*
X131466523Y-116190619D02*
X131847475Y-116190619D01*
X131847475Y-116190619D02*
X131847475Y-115190619D01*
X131847475Y-115190619D02*
X131514142Y-115190619D01*
X131514142Y-115190619D02*
X131418904Y-115238238D01*
X131418904Y-115238238D02*
X131371285Y-115285857D01*
X131371285Y-115285857D02*
X131323666Y-115381095D01*
X131323666Y-115381095D02*
X131323666Y-115476333D01*
X131323666Y-115476333D02*
X131371285Y-115571571D01*
X131371285Y-115571571D02*
X131418904Y-115619190D01*
X131418904Y-115619190D02*
X131514142Y-115666809D01*
X131514142Y-115666809D02*
X131847475Y-115666809D01*
X130656999Y-115190619D02*
X130466523Y-115190619D01*
X130466523Y-115190619D02*
X130371285Y-115238238D01*
X130371285Y-115238238D02*
X130276047Y-115333476D01*
X130276047Y-115333476D02*
X130228428Y-115523952D01*
X130228428Y-115523952D02*
X130228428Y-115857285D01*
X130228428Y-115857285D02*
X130276047Y-116047761D01*
X130276047Y-116047761D02*
X130371285Y-116143000D01*
X130371285Y-116143000D02*
X130466523Y-116190619D01*
X130466523Y-116190619D02*
X130656999Y-116190619D01*
X130656999Y-116190619D02*
X130752237Y-116143000D01*
X130752237Y-116143000D02*
X130847475Y-116047761D01*
X130847475Y-116047761D02*
X130895094Y-115857285D01*
X130895094Y-115857285D02*
X130895094Y-115523952D01*
X130895094Y-115523952D02*
X130847475Y-115333476D01*
X130847475Y-115333476D02*
X130752237Y-115238238D01*
X130752237Y-115238238D02*
X130656999Y-115190619D01*
X129609380Y-115190619D02*
X129418904Y-115190619D01*
X129418904Y-115190619D02*
X129323666Y-115238238D01*
X129323666Y-115238238D02*
X129228428Y-115333476D01*
X129228428Y-115333476D02*
X129180809Y-115523952D01*
X129180809Y-115523952D02*
X129180809Y-115857285D01*
X129180809Y-115857285D02*
X129228428Y-116047761D01*
X129228428Y-116047761D02*
X129323666Y-116143000D01*
X129323666Y-116143000D02*
X129418904Y-116190619D01*
X129418904Y-116190619D02*
X129609380Y-116190619D01*
X129609380Y-116190619D02*
X129704618Y-116143000D01*
X129704618Y-116143000D02*
X129799856Y-116047761D01*
X129799856Y-116047761D02*
X129847475Y-115857285D01*
X129847475Y-115857285D02*
X129847475Y-115523952D01*
X129847475Y-115523952D02*
X129799856Y-115333476D01*
X129799856Y-115333476D02*
X129704618Y-115238238D01*
X129704618Y-115238238D02*
X129609380Y-115190619D01*
X128895094Y-115190619D02*
X128323666Y-115190619D01*
X128609380Y-116190619D02*
X128609380Y-115190619D01*
D12*
%TO.C,J4*%
X88198600Y-140193000D02*
X98663400Y-140193000D01*
X88198600Y-146289000D02*
X88198600Y-140193000D01*
X93861825Y-146289000D02*
X88198600Y-146289000D01*
X98663400Y-140193000D02*
X98663400Y-146289000D01*
X98663400Y-146289000D02*
X95540175Y-146289000D01*
%TO.C,J9*%
X87436000Y-58988000D02*
X84776000Y-58988000D01*
X87436000Y-51308000D02*
X87436000Y-58988000D01*
X87436000Y-51308000D02*
X84776000Y-51308000D01*
X87436000Y-50038000D02*
X87436000Y-48708000D01*
X87436000Y-48708000D02*
X86106000Y-48708000D01*
X84776000Y-51308000D02*
X84776000Y-58988000D01*
%TO.C,J6*%
X120863000Y-48257000D02*
X120863000Y-50917000D01*
X105563000Y-48257000D02*
X120863000Y-48257000D01*
X105563000Y-48257000D02*
X105563000Y-50917000D01*
X104293000Y-48257000D02*
X102963000Y-48257000D01*
X102963000Y-48257000D02*
X102963000Y-49587000D01*
X105563000Y-50917000D02*
X120863000Y-50917000D01*
%TO.C,J7*%
X86870000Y-75210000D02*
X86870000Y-77870000D01*
X84270000Y-75210000D02*
X86870000Y-75210000D01*
X84270000Y-75210000D02*
X84270000Y-77870000D01*
X83000000Y-75210000D02*
X81670000Y-75210000D01*
X81670000Y-75210000D02*
X81670000Y-76540000D01*
X84270000Y-77870000D02*
X86870000Y-77870000D01*
%TO.C,J3*%
X120840000Y-142250000D02*
X120840000Y-144910000D01*
X110620000Y-142250000D02*
X120840000Y-142250000D01*
X110620000Y-142250000D02*
X110620000Y-144910000D01*
X109350000Y-142250000D02*
X108020000Y-142250000D01*
X108020000Y-142250000D02*
X108020000Y-143580000D01*
X110620000Y-144910000D02*
X120840000Y-144910000D01*
%TO.C,J8*%
X132148000Y-87786000D02*
X133298000Y-87786000D01*
X130048000Y-87786000D02*
X128248000Y-87786000D01*
X132148000Y-97126000D02*
X133298000Y-97126000D01*
X130048000Y-97126000D02*
X128248000Y-97126000D01*
%TO.C,J10*%
X74623000Y-64984000D02*
X74623000Y-74184000D01*
X74623000Y-74184000D02*
X89323000Y-74184000D01*
X83423000Y-64984000D02*
X74623000Y-64984000D01*
X88473000Y-74384000D02*
X89523000Y-74384000D01*
X89323000Y-64984000D02*
X87423000Y-64984000D01*
X89323000Y-67684000D02*
X89323000Y-64984000D01*
X89323000Y-74184000D02*
X89323000Y-71584000D01*
X89523000Y-73334000D02*
X89523000Y-74384000D01*
%TO.C,U12*%
X113860000Y-81960000D02*
X113860000Y-80960000D01*
X114610000Y-81960000D02*
X113860000Y-81960000D01*
X113860000Y-63960000D02*
X113860000Y-64960000D01*
X114610000Y-63960000D02*
X113860000Y-63960000D01*
%TO.C,J5*%
X130035000Y-59000000D02*
X130035000Y-58365000D01*
X129400000Y-59000000D02*
X130035000Y-59000000D01*
D13*
%TO.C,U14*%
X108612000Y-112568000D02*
X102612000Y-112568000D01*
X102612000Y-112568000D02*
X102612000Y-119568000D01*
X102612000Y-119568000D02*
X108612000Y-119568000D01*
X108612000Y-119568000D02*
X108612000Y-112568000D01*
D14*
X109045742Y-112258000D02*
G75*
G03*
X109045742Y-112258000I-113742J0D01*
G01*
D12*
%TO.C,C28*%
X101642500Y-136982500D02*
X101642500Y-137770000D01*
X101248750Y-137376250D02*
X102036250Y-137376250D01*
X105835563Y-138010000D02*
X104550000Y-138010000D01*
X105835563Y-138010000D02*
X106900000Y-139074437D01*
X101144437Y-138010000D02*
X102430000Y-138010000D01*
X101144437Y-138010000D02*
X100080000Y-139074437D01*
X106900000Y-139074437D02*
X106900000Y-144830000D01*
X100080000Y-139074437D02*
X100080000Y-144830000D01*
X106900000Y-144830000D02*
X104550000Y-144830000D01*
X100080000Y-144830000D02*
X102430000Y-144830000D01*
D15*
%TO.C,SW1*%
X132218000Y-105972000D02*
X128154000Y-105972000D01*
X132218000Y-105542740D02*
X132218000Y-105972000D01*
X132218000Y-102924000D02*
X132218000Y-103353260D01*
X128154000Y-105972000D02*
X128154000Y-105542740D01*
X128154000Y-103353260D02*
X128154000Y-102924000D01*
X128154000Y-102924000D02*
X132218000Y-102924000D01*
%TO.C,kibuzzard-6392B1E5*%
G36*
X90430350Y-63069470D02*
G01*
X88049100Y-63069470D01*
X87297577Y-63069470D01*
X84728685Y-63069470D01*
X83345655Y-63069470D01*
X79590900Y-63069470D01*
X77209650Y-63069470D01*
X77209650Y-61185425D01*
X79590900Y-61185425D01*
X79590900Y-61448315D01*
X81019650Y-61448315D01*
X81019650Y-61185425D01*
X79590900Y-61185425D01*
X77209650Y-61185425D01*
X77209650Y-60311030D01*
X82482690Y-60311030D01*
X82520909Y-60492481D01*
X82566986Y-60693935D01*
X82620564Y-60910748D01*
X82681286Y-61138276D01*
X82725577Y-61294486D01*
X82772726Y-61452601D01*
X82822732Y-61612621D01*
X82874802Y-61771848D01*
X82928142Y-61927581D01*
X82982752Y-62079823D01*
X83345655Y-62079823D01*
X83416378Y-61869796D01*
X83491387Y-61634053D01*
X83518395Y-61545470D01*
X84028597Y-61545470D01*
X84071460Y-61772641D01*
X84202905Y-61954093D01*
X84302203Y-62022673D01*
X84422932Y-62074108D01*
X84565093Y-62106254D01*
X84728685Y-62116970D01*
X84868702Y-62108398D01*
X85005862Y-62086966D01*
X85124449Y-62056963D01*
X85205887Y-62025530D01*
X85134450Y-61734065D01*
X84974430Y-61791215D01*
X84865131Y-61810503D01*
X84731542Y-61816933D01*
X84561521Y-61794073D01*
X84455794Y-61735494D01*
X84402930Y-61654055D01*
X84388642Y-61559758D01*
X84403982Y-61474033D01*
X86848950Y-61474033D01*
X87297577Y-61474033D01*
X87297577Y-61971238D01*
X87600472Y-61971238D01*
X87600472Y-61474033D01*
X88049100Y-61474033D01*
X88049100Y-61185425D01*
X87600472Y-61185425D01*
X87600472Y-60688220D01*
X87297577Y-60688220D01*
X87297577Y-61185425D01*
X86848950Y-61185425D01*
X86848950Y-61474033D01*
X84403982Y-61474033D01*
X84412931Y-61424026D01*
X84510086Y-61318299D01*
X84717255Y-61249719D01*
X84872274Y-61231502D01*
X85068727Y-61225430D01*
X85043010Y-60987900D01*
X85023007Y-60755371D01*
X85008006Y-60529272D01*
X84997290Y-60311030D01*
X84094320Y-60311030D01*
X84094320Y-60602495D01*
X84702967Y-60602495D01*
X84717255Y-60793948D01*
X84731542Y-60956825D01*
X84515325Y-60986035D01*
X84339113Y-61043185D01*
X84202905Y-61128275D01*
X84106068Y-61240670D01*
X84047965Y-61379735D01*
X84028597Y-61545470D01*
X83518395Y-61545470D01*
X83541870Y-61468476D01*
X83590447Y-61303218D01*
X83637120Y-61138276D01*
X83681252Y-60976510D01*
X83722210Y-60820776D01*
X83759992Y-60671075D01*
X83807141Y-60471050D01*
X83840002Y-60311030D01*
X83468527Y-60311030D01*
X83447096Y-60459263D01*
X83417092Y-60629641D01*
X83381017Y-60813950D01*
X83341369Y-61003974D01*
X83298506Y-61195426D01*
X83252786Y-61384021D01*
X83205995Y-61561543D01*
X83159917Y-61719778D01*
X83114197Y-61563687D01*
X83068477Y-61386879D01*
X83024186Y-61198284D01*
X82982752Y-61006831D01*
X82944176Y-60816450D01*
X82908457Y-60631070D01*
X82877025Y-60459620D01*
X82851307Y-60311030D01*
X82482690Y-60311030D01*
X77209650Y-60311030D01*
X77209650Y-59358530D01*
X79590900Y-59358530D01*
X88049100Y-59358530D01*
X90430350Y-59358530D01*
X90430350Y-63069470D01*
G37*
%TO.C,kibuzzard-63D74789*%
G36*
X81486990Y-82810844D02*
G01*
X81717177Y-82985469D01*
X81860052Y-83239469D01*
X81927521Y-83533156D01*
X80435271Y-83533156D01*
X80474958Y-83243437D01*
X80601958Y-82993406D01*
X80824208Y-82814813D01*
X81157583Y-82747344D01*
X81486990Y-82810844D01*
G37*
G36*
X89325271Y-84156250D02*
G01*
X89575302Y-84223719D01*
X89745958Y-84358656D01*
X89809458Y-84588844D01*
X89618958Y-84950000D01*
X89126833Y-85057156D01*
X88817271Y-85053188D01*
X88555333Y-85033344D01*
X88555333Y-84176094D01*
X88785521Y-84148313D01*
X89031583Y-84136406D01*
X89325271Y-84156250D01*
G37*
G36*
X101291052Y-82830688D02*
G01*
X101556958Y-82937844D01*
X101556958Y-84961906D01*
X101322802Y-84993656D01*
X101112458Y-85001594D01*
X100771146Y-84937102D01*
X100509208Y-84743625D01*
X100342521Y-84395367D01*
X100286958Y-83866531D01*
X100329622Y-83404172D01*
X100457615Y-83064844D01*
X100672919Y-82856484D01*
X100977521Y-82787031D01*
X101291052Y-82830688D01*
G37*
G36*
X109147854Y-87496615D02*
G01*
X102533271Y-87496615D01*
X101088646Y-87496615D01*
X96405521Y-87496615D01*
X92532021Y-87496615D01*
X89198271Y-87496615D01*
X83332458Y-87496615D01*
X80887708Y-87496615D01*
X79490708Y-87496615D01*
X76514146Y-87496615D01*
X76514146Y-83842719D01*
X79490708Y-83842719D01*
X79494677Y-84041156D01*
X79506583Y-84207844D01*
X81927521Y-84207844D01*
X81852115Y-84534273D01*
X81625896Y-84783312D01*
X81280615Y-84941070D01*
X80848021Y-84993656D01*
X80288427Y-84930156D01*
X79839958Y-84803156D01*
X79705021Y-85636594D01*
X80244771Y-85783438D01*
X80887708Y-85842969D01*
X81339154Y-85812211D01*
X81585443Y-85755656D01*
X83332458Y-85755656D01*
X84348458Y-85755656D01*
X84562771Y-85372672D01*
X84777083Y-85033344D01*
X84985443Y-84731719D01*
X85181896Y-84461844D01*
X85408115Y-84775375D01*
X85610521Y-85080969D01*
X85803005Y-85400453D01*
X85999458Y-85755656D01*
X86991646Y-85755656D01*
X86940154Y-85668344D01*
X87618708Y-85668344D01*
X88253708Y-85779469D01*
X88700193Y-85827094D01*
X89198271Y-85842969D01*
X89845177Y-85779469D01*
X90182146Y-85636594D01*
X91341396Y-85636594D01*
X91924802Y-85795344D01*
X92532021Y-85842969D01*
X93135271Y-85787406D01*
X93530383Y-85596906D01*
X95349833Y-85596906D01*
X95917365Y-85791375D01*
X96405521Y-85842969D01*
X96755763Y-85815188D01*
X97044490Y-85731844D01*
X97457240Y-85410375D01*
X97675521Y-84898406D01*
X97723146Y-84574953D01*
X97739021Y-84207844D01*
X97739021Y-83890344D01*
X99294771Y-83890344D01*
X99324536Y-84314008D01*
X99413833Y-84696000D01*
X99560677Y-85030367D01*
X99763083Y-85311156D01*
X100019068Y-85536383D01*
X100326646Y-85704063D01*
X100683833Y-85808242D01*
X101088646Y-85842969D01*
X101473615Y-85829078D01*
X101866521Y-85787406D01*
X102231646Y-85723906D01*
X102533271Y-85644531D01*
X102533271Y-80413719D01*
X101556958Y-80247031D01*
X101556958Y-82112344D01*
X101160083Y-81981375D01*
X100779083Y-81945656D01*
X100435786Y-81980383D01*
X100136146Y-82084562D01*
X99671802Y-82481437D01*
X99508091Y-82764211D01*
X99390021Y-83096594D01*
X99318583Y-83473625D01*
X99294771Y-83890344D01*
X97739021Y-83890344D01*
X97739021Y-82834656D01*
X98770896Y-82834656D01*
X98770896Y-82025031D01*
X97421521Y-82025031D01*
X96762708Y-82025031D01*
X96762708Y-84334844D01*
X96639677Y-84830938D01*
X96230896Y-84993656D01*
X95905458Y-84957938D01*
X95476833Y-84811094D01*
X95349833Y-85596906D01*
X93530383Y-85596906D01*
X93579771Y-85573094D01*
X93857583Y-85124625D01*
X93929021Y-84790258D01*
X93952833Y-84366594D01*
X93952833Y-82834656D01*
X94802146Y-82834656D01*
X94802146Y-82025031D01*
X93952833Y-82025031D01*
X93952833Y-81088406D01*
X93122971Y-80953469D01*
X96802396Y-80953469D01*
X96984958Y-81405906D01*
X97421521Y-81572594D01*
X97854115Y-81405906D01*
X98032708Y-80953469D01*
X97854115Y-80493094D01*
X97421521Y-80326406D01*
X96984958Y-80493094D01*
X96802396Y-80953469D01*
X93122971Y-80953469D01*
X92976521Y-80929656D01*
X92976521Y-82025031D01*
X91412833Y-82025031D01*
X91412833Y-82834656D01*
X92976521Y-82834656D01*
X92976521Y-84342781D01*
X92936833Y-84676156D01*
X92825708Y-84874594D01*
X92651083Y-84969844D01*
X92420896Y-84993656D01*
X92170865Y-84985719D01*
X91948615Y-84957938D01*
X91726365Y-84898406D01*
X91476333Y-84795219D01*
X91341396Y-85636594D01*
X90182146Y-85636594D01*
X90341271Y-85569125D01*
X90658771Y-85188125D01*
X90769896Y-84612656D01*
X90642896Y-84064969D01*
X90301583Y-83707781D01*
X89809458Y-83513312D01*
X89230021Y-83453781D01*
X88870849Y-83469656D01*
X88555333Y-83517281D01*
X88555333Y-83398219D01*
X88729958Y-82933875D01*
X88968083Y-82793977D01*
X89333208Y-82747344D01*
X89868990Y-82787031D01*
X90285708Y-82882281D01*
X90420646Y-82096469D01*
X89904708Y-81981375D01*
X89565380Y-81942680D01*
X89214146Y-81929781D01*
X88792466Y-81956570D01*
X88448177Y-82036937D01*
X87960021Y-82338562D01*
X87698083Y-82814813D01*
X87618708Y-83445844D01*
X87618708Y-85668344D01*
X86940154Y-85668344D01*
X86717802Y-85291313D01*
X86392365Y-84799188D01*
X86035177Y-84303094D01*
X85674021Y-83834781D01*
X86983708Y-82025031D01*
X85959771Y-82025031D01*
X85134271Y-83191844D01*
X84372271Y-82025031D01*
X83380083Y-82025031D01*
X84586583Y-83818906D01*
X84213521Y-84307063D01*
X83864271Y-84826969D01*
X83562646Y-85327031D01*
X83332458Y-85755656D01*
X81585443Y-85755656D01*
X81740990Y-85719938D01*
X82090240Y-85567141D01*
X82383927Y-85354813D01*
X82619076Y-85083945D01*
X82792708Y-84755531D01*
X82899865Y-84368578D01*
X82935583Y-83922094D01*
X82897880Y-83459734D01*
X82784771Y-83056906D01*
X82610146Y-82714602D01*
X82387896Y-82433812D01*
X82123974Y-82214539D01*
X81824333Y-82056781D01*
X81502865Y-81961531D01*
X81173458Y-81929781D01*
X80667222Y-81984021D01*
X80249181Y-82146740D01*
X79919333Y-82417937D01*
X79681208Y-82793205D01*
X79538333Y-83268132D01*
X79490708Y-83842719D01*
X76514146Y-83842719D01*
X76514146Y-78593385D01*
X79490708Y-78593385D01*
X102533271Y-78593385D01*
X109147854Y-78593385D01*
X109147854Y-87496615D01*
G37*
%TO.C,SW2*%
X132114000Y-114679000D02*
X128050000Y-114679000D01*
X132114000Y-114249740D02*
X132114000Y-114679000D01*
X132114000Y-111631000D02*
X132114000Y-112060260D01*
X128050000Y-114679000D02*
X128050000Y-114249740D01*
X128050000Y-112060260D02*
X128050000Y-111631000D01*
X128050000Y-111631000D02*
X132114000Y-111631000D01*
%TD*%
M02*
