%TF.GenerationSoftware,KiCad,Pcbnew,7.0.2*%
%TF.CreationDate,2024-01-11T01:28:16+01:00*%
%TF.ProjectId,bitaxe_RGZ_204_MOD_C,62697461-7865-45f5-9247-5a5f3230345f,rev?*%
%TF.SameCoordinates,Original*%
%TF.FileFunction,Copper,L4,Bot*%
%TF.FilePolarity,Positive*%
%FSLAX46Y46*%
G04 Gerber Fmt 4.6, Leading zero omitted, Abs format (unit mm)*
G04 Created by KiCad (PCBNEW 7.0.2) date 2024-01-11 01:28:16*
%MOMM*%
%LPD*%
G01*
G04 APERTURE LIST*
G04 Aperture macros list*
%AMRoundRect*
0 Rectangle with rounded corners*
0 $1 Rounding radius*
0 $2 $3 $4 $5 $6 $7 $8 $9 X,Y pos of 4 corners*
0 Add a 4 corners polygon primitive as box body*
4,1,4,$2,$3,$4,$5,$6,$7,$8,$9,$2,$3,0*
0 Add four circle primitives for the rounded corners*
1,1,$1+$1,$2,$3*
1,1,$1+$1,$4,$5*
1,1,$1+$1,$6,$7*
1,1,$1+$1,$8,$9*
0 Add four rect primitives between the rounded corners*
20,1,$1+$1,$2,$3,$4,$5,0*
20,1,$1+$1,$4,$5,$6,$7,0*
20,1,$1+$1,$6,$7,$8,$9,0*
20,1,$1+$1,$8,$9,$2,$3,0*%
G04 Aperture macros list end*
%TA.AperFunction,ComponentPad*%
%ADD10O,1.700000X1.700000*%
%TD*%
%TA.AperFunction,ComponentPad*%
%ADD11R,1.700000X1.700000*%
%TD*%
%TA.AperFunction,ComponentPad*%
%ADD12C,0.800000*%
%TD*%
%TA.AperFunction,ComponentPad*%
%ADD13C,6.000000*%
%TD*%
%TA.AperFunction,ComponentPad*%
%ADD14C,0.500000*%
%TD*%
%TA.AperFunction,ComponentPad*%
%ADD15C,0.400000*%
%TD*%
%TA.AperFunction,ComponentPad*%
%ADD16C,1.574800*%
%TD*%
%TA.AperFunction,SMDPad,CuDef*%
%ADD17R,3.000000X0.350000*%
%TD*%
%TA.AperFunction,SMDPad,CuDef*%
%ADD18C,1.000000*%
%TD*%
%TA.AperFunction,SMDPad,CuDef*%
%ADD19R,1.150000X0.600000*%
%TD*%
%TA.AperFunction,SMDPad,CuDef*%
%ADD20R,1.150000X0.300000*%
%TD*%
%TA.AperFunction,ComponentPad*%
%ADD21O,1.800000X1.000000*%
%TD*%
%TA.AperFunction,ComponentPad*%
%ADD22O,2.100000X1.000000*%
%TD*%
%TA.AperFunction,SMDPad,CuDef*%
%ADD23R,0.900000X1.500000*%
%TD*%
%TA.AperFunction,SMDPad,CuDef*%
%ADD24R,1.500000X0.900000*%
%TD*%
%TA.AperFunction,SMDPad,CuDef*%
%ADD25R,0.900000X0.900000*%
%TD*%
%TA.AperFunction,ConnectorPad*%
%ADD26C,0.787400*%
%TD*%
%TA.AperFunction,SMDPad,CuDef*%
%ADD27R,0.792000X0.221000*%
%TD*%
%TA.AperFunction,SMDPad,CuDef*%
%ADD28R,4.277000X1.810000*%
%TD*%
%TA.AperFunction,SMDPad,CuDef*%
%ADD29R,4.277000X4.530000*%
%TD*%
%TA.AperFunction,SMDPad,CuDef*%
%ADD30RoundRect,0.250000X-0.550000X1.500000X-0.550000X-1.500000X0.550000X-1.500000X0.550000X1.500000X0*%
%TD*%
%TA.AperFunction,SMDPad,CuDef*%
%ADD31RoundRect,0.250000X0.750000X-0.750000X0.750000X0.750000X-0.750000X0.750000X-0.750000X-0.750000X0*%
%TD*%
%TA.AperFunction,SMDPad,CuDef*%
%ADD32R,0.508000X1.524000*%
%TD*%
%TA.AperFunction,ComponentPad*%
%ADD33RoundRect,0.250000X-0.750000X0.600000X-0.750000X-0.600000X0.750000X-0.600000X0.750000X0.600000X0*%
%TD*%
%TA.AperFunction,ComponentPad*%
%ADD34O,2.000000X1.700000*%
%TD*%
%TA.AperFunction,ViaPad*%
%ADD35C,0.800000*%
%TD*%
%TA.AperFunction,ViaPad*%
%ADD36C,1.200000*%
%TD*%
%TA.AperFunction,ViaPad*%
%ADD37C,1.000000*%
%TD*%
%TA.AperFunction,Conductor*%
%ADD38C,0.254000*%
%TD*%
%TA.AperFunction,Conductor*%
%ADD39C,0.508000*%
%TD*%
G04 APERTURE END LIST*
D10*
%TO.P,J9,4,Pin_4*%
%TO.N,/SDA*%
X86766400Y-57175400D03*
%TO.P,J9,3,Pin_3*%
%TO.N,/SCL*%
X86766400Y-54635400D03*
%TO.P,J9,2,Pin_2*%
%TO.N,/3V3*%
X86766400Y-52095400D03*
D11*
%TO.P,J9,1,Pin_1*%
%TO.N,GND*%
X86766400Y-49555400D03*
%TD*%
D12*
%TO.P,H7,1,1*%
%TO.N,GND*%
X127985010Y-51120990D03*
X128644020Y-49530000D03*
X128644020Y-52711980D03*
X130235010Y-48870990D03*
X130235010Y-53370990D03*
D13*
X130302000Y-51054000D03*
D12*
X131826000Y-49530000D03*
X131826000Y-52711980D03*
X132485010Y-51120990D03*
%TD*%
D14*
%TO.P,U2,16,GND*%
%TO.N,GND*%
X116922000Y-98765000D03*
%TO.P,U2,17,GND*%
X116922000Y-99765000D03*
%TO.P,U2,18,GND*%
X115922000Y-99765000D03*
%TO.P,U2,19,GND*%
X115922000Y-98765000D03*
%TD*%
D12*
%TO.P,H9,1,1*%
%TO.N,GND*%
X128052000Y-143728000D03*
X128711010Y-142137010D03*
X128711010Y-145318990D03*
X130302000Y-141478000D03*
D13*
X130302000Y-143831000D03*
D12*
X130302000Y-145978000D03*
X131892990Y-142137010D03*
X131892990Y-145318990D03*
X132552000Y-143728000D03*
%TD*%
%TO.P,H10,1,1*%
%TO.N,GND*%
X78558000Y-143830990D03*
X79217010Y-142240000D03*
X79217010Y-145421980D03*
X80808000Y-141580990D03*
D13*
X80808000Y-143830990D03*
D12*
X80808000Y-146080990D03*
X82398990Y-142240000D03*
X82398990Y-145421980D03*
X83058000Y-143830990D03*
%TD*%
D15*
%TO.P,U9,11,GND*%
%TO.N,GND*%
X98201691Y-68847200D03*
X99151691Y-69422200D03*
X97251691Y-69422200D03*
X98201691Y-69997200D03*
%TD*%
D12*
%TO.P,H8,1,1*%
%TO.N,GND*%
X78558000Y-51054000D03*
X79217010Y-49463010D03*
X79217010Y-52644990D03*
X80808000Y-48804000D03*
D13*
X80808000Y-51054000D03*
D12*
X80808000Y-53304000D03*
X82398990Y-49463010D03*
X82398990Y-52644990D03*
X83058000Y-51054000D03*
%TD*%
D16*
%TO.P,J4,1,Pin_1*%
%TO.N,GND*%
X89621000Y-143622000D03*
%TO.P,J4,2,Pin_2*%
%TO.N,/5V*%
X92161000Y-143622000D03*
%TO.P,J4,3,Pin_3*%
%TO.N,/Fan/FAN_TACH*%
X94701000Y-143622000D03*
%TO.P,J4,4,Pin_4*%
%TO.N,/Fan/FAN_PWM*%
X97241000Y-143622000D03*
%TD*%
D17*
%TO.P,U4,1,GND*%
%TO.N,GND*%
X114751248Y-61040627D03*
%TO.P,U4,2,LEDK*%
%TO.N,Net-(U4-LEDK)*%
X114751248Y-60340627D03*
%TO.P,U4,3,LEDA*%
%TO.N,/3V3*%
X114751248Y-59640627D03*
%TO.P,U4,4,VDD*%
X114751248Y-58940627D03*
%TO.P,U4,5,GND*%
%TO.N,GND*%
X114751248Y-58240627D03*
%TO.P,U4,6,GND*%
X114751248Y-57540627D03*
%TO.P,U4,7,DC*%
%TO.N,/ESP32/TFT_DC*%
X114751248Y-56840627D03*
%TO.P,U4,8,CS/SS*%
%TO.N,/ESP32/TFT_CS*%
X114751248Y-56140627D03*
%TO.P,U4,9,SCL/SCK*%
%TO.N,/ESP32/TFT_SCL*%
X114751248Y-55440627D03*
%TO.P,U4,10,SDA/Mosi*%
%TO.N,/ESP32/TFT_SDA*%
X114751248Y-54740627D03*
%TO.P,U4,11,RESET*%
%TO.N,/ESP32/TFT_RES*%
X114751248Y-54040627D03*
%TO.P,U4,12,GND*%
%TO.N,GND*%
X114751248Y-53340627D03*
%TD*%
D18*
%TO.P,FID7,*%
%TO.N,*%
X130302000Y-139065000D03*
%TD*%
D11*
%TO.P,J7,1,Pin_1*%
%TO.N,/Power/VIN*%
X82708000Y-81632000D03*
D10*
%TO.P,J7,2,Pin_2*%
%TO.N,/5V*%
X85248000Y-81632000D03*
%TD*%
D11*
%TO.P,J3,1,Pin_1*%
%TO.N,/BM1366/1V8*%
X109350000Y-143580000D03*
D10*
%TO.P,J3,2,Pin_2*%
%TO.N,/BM1366/CI*%
X111890000Y-143580000D03*
%TO.P,J3,3,Pin_3*%
%TO.N,/BM1366/RO*%
X114430000Y-143580000D03*
%TO.P,J3,4,Pin_4*%
%TO.N,/BM1366/RST_N*%
X116970000Y-143580000D03*
%TO.P,J3,5,Pin_5*%
%TO.N,GND*%
X119510000Y-143580000D03*
%TD*%
D19*
%TO.P,J8,A1,GND*%
%TO.N,GND*%
X126368000Y-97650000D03*
%TO.P,J8,A4,VBUS*%
%TO.N,Net-(D1-Pad2)*%
X126368000Y-98450000D03*
D20*
%TO.P,J8,A5,CC1*%
%TO.N,Net-(J8-CC1)*%
X126368000Y-99600000D03*
%TO.P,J8,A6,D+*%
%TO.N,Net-(U12-GPIO20{slash}U1CTS{slash}ADC2_CH9{slash}CLK_OUT1{slash}USB_D+)*%
X126368000Y-100600000D03*
%TO.P,J8,A7,D-*%
%TO.N,Net-(U12-GPIO19{slash}U1RTS{slash}ADC2_CH8{slash}CLK_OUT2{slash}USB_D-)*%
X126368000Y-101100000D03*
%TO.P,J8,A8,SBU1*%
%TO.N,unconnected-(J8-SBU1-PadA8)*%
X126368000Y-102100000D03*
D19*
%TO.P,J8,A9,VBUS*%
%TO.N,Net-(D1-Pad2)*%
X126368000Y-103250000D03*
%TO.P,J8,A12,GND*%
%TO.N,GND*%
X126368000Y-104050000D03*
%TO.P,J8,B1,GND*%
X126368000Y-104050000D03*
%TO.P,J8,B4,VBUS*%
%TO.N,Net-(D1-Pad2)*%
X126368000Y-103250000D03*
D20*
%TO.P,J8,B5,CC2*%
%TO.N,Net-(J8-CC2)*%
X126368000Y-102600000D03*
%TO.P,J8,B6,D+*%
%TO.N,Net-(U12-GPIO20{slash}U1CTS{slash}ADC2_CH9{slash}CLK_OUT1{slash}USB_D+)*%
X126368000Y-101600000D03*
%TO.P,J8,B7,D-*%
%TO.N,Net-(U12-GPIO19{slash}U1RTS{slash}ADC2_CH8{slash}CLK_OUT2{slash}USB_D-)*%
X126368000Y-100100000D03*
%TO.P,J8,B8,SBU2*%
%TO.N,unconnected-(J8-SBU2-PadB8)*%
X126368000Y-99100000D03*
D19*
%TO.P,J8,B9,VBUS*%
%TO.N,Net-(D1-Pad2)*%
X126368000Y-98450000D03*
%TO.P,J8,B12,GND*%
%TO.N,GND*%
X126368000Y-97650000D03*
D21*
%TO.P,J8,S1,SHIELD*%
X131123000Y-96530000D03*
D22*
X126943000Y-96530000D03*
D21*
X131123000Y-105170000D03*
D22*
X126943000Y-105170000D03*
%TD*%
D23*
%TO.P,U12,1,GND*%
%TO.N,GND*%
X125603000Y-85344000D03*
%TO.P,U12,2,3V3*%
%TO.N,/3V3*%
X124333000Y-85344000D03*
%TO.P,U12,3,EN*%
%TO.N,/ESP32/EN*%
X123063000Y-85344000D03*
%TO.P,U12,4,GPIO4/TOUCH4/ADC1_CH3*%
%TO.N,/ESP32/TFT_RES*%
X121793000Y-85344000D03*
%TO.P,U12,5,GPIO5/TOUCH5/ADC1_CH4*%
%TO.N,/ESP32/TFT_SDA*%
X120523000Y-85344000D03*
%TO.P,U12,6,GPIO6/TOUCH6/ADC1_CH5*%
%TO.N,/ESP32/TFT_SCL*%
X119253000Y-85344000D03*
%TO.P,U12,7,GPIO7/TOUCH7/ADC1_CH6*%
%TO.N,/ESP32/TFT_CS*%
X117983000Y-85344000D03*
%TO.P,U12,8,GPIO15/U0RTS/ADC2_CH4/XTAL_32K_P*%
%TO.N,/ESP32/XIN32*%
X116713000Y-85344000D03*
%TO.P,U12,9,GPIO16/U0CTS/ADC2_CH5/XTAL_32K_NH5*%
%TO.N,/ESP32/XOUT32*%
X115443000Y-85344000D03*
%TO.P,U12,10,GPIO17/U1TXD/ADC2_CH6*%
%TO.N,/TX*%
X114173000Y-85344000D03*
%TO.P,U12,11,GPIO18/U1RXD/ADC2_CH7/CLK_OUT3*%
%TO.N,/RX*%
X112903000Y-85344000D03*
%TO.P,U12,12,GPIO8/TOUCH8/ADC1_CH7/SUBSPICS1*%
%TO.N,/ESP32/TFT_DC*%
X111633000Y-85344000D03*
%TO.P,U12,13,GPIO19/U1RTS/ADC2_CH8/CLK_OUT2/USB_D-*%
%TO.N,Net-(U12-GPIO19{slash}U1RTS{slash}ADC2_CH8{slash}CLK_OUT2{slash}USB_D-)*%
X110363000Y-85344000D03*
%TO.P,U12,14,GPIO20/U1CTS/ADC2_CH9/CLK_OUT1/USB_D+*%
%TO.N,Net-(U12-GPIO20{slash}U1CTS{slash}ADC2_CH9{slash}CLK_OUT1{slash}USB_D+)*%
X109093000Y-85344000D03*
D24*
%TO.P,U12,15,GPIO3/TOUCH3/ADC1_CH2\u002A*%
%TO.N,/3V3*%
X107843000Y-83579000D03*
%TO.P,U12,16,\u002AGPIO46*%
%TO.N,unconnected-(U12-\u002AGPIO46-Pad16)*%
X107843000Y-82309000D03*
%TO.P,U12,17,GPIO9/TOUCH9/ADC1_CH8/FSPIHD/SUBSPIHD*%
%TO.N,/ESP32/TFT_BLK*%
X107843000Y-81039000D03*
%TO.P,U12,18,GPIO10/TOUCH10/ADC1_CH9/FSPICS0/FSPIIO4/SUBSPICS0*%
%TO.N,/ESP32/PWR_EN*%
X107843000Y-79769000D03*
%TO.P,U12,19,GPIO11/TOUCH11/ADC2_CH0/FSPID/FSPIIO5/SUBSPID*%
%TO.N,/Power/PGOOD*%
X107843000Y-78499000D03*
%TO.P,U12,20,GPIO12/TOUCH12/ADC2_CH1/FSPICLK/FSPIIO6/SUBSPICLK*%
%TO.N,/PLUG_SENSE*%
X107843000Y-77229000D03*
%TO.P,U12,21,GPIO13/TOUCH13/ADC2_CH2/FSPIQ/FSPIIO7/SUBSPIQ*%
%TO.N,unconnected-(U12-GPIO13{slash}TOUCH13{slash}ADC2_CH2{slash}FSPIQ{slash}FSPIIO7{slash}SUBSPIQ-Pad21)*%
X107843000Y-75959000D03*
%TO.P,U12,22,GPIO14/TOUCH14/ADC2_CH3/FSPIWP/FSPIDQS/SUBSPIWP*%
%TO.N,unconnected-(U12-GPIO14{slash}TOUCH14{slash}ADC2_CH3{slash}FSPIWP{slash}FSPIDQS{slash}SUBSPIWP-Pad22)*%
X107843000Y-74689000D03*
%TO.P,U12,23,GPIO21*%
%TO.N,unconnected-(U12-GPIO21-Pad23)*%
X107843000Y-73419000D03*
%TO.P,U12,24,GPIO47/SPICLK_P/SUBSPICLK_P_DIFF*%
%TO.N,/SDA*%
X107843000Y-72149000D03*
%TO.P,U12,25,GPIO48/SPICLK_N/SUBSPICLK_N_DIFF*%
%TO.N,/SCL*%
X107843000Y-70879000D03*
%TO.P,U12,26,\u002AGPIO45*%
%TO.N,unconnected-(U12-\u002AGPIO45-Pad26)*%
X107843000Y-69609000D03*
D23*
%TO.P,U12,27,GPIO0/BOOT\u002A*%
%TO.N,/ESP32/IO0*%
X109093000Y-67844000D03*
%TO.P,U12,28,SPIIO6/GPIO35/FSPID/SUBSPID*%
%TO.N,unconnected-(U12-SPIIO6{slash}GPIO35{slash}FSPID{slash}SUBSPID-Pad28)*%
X110363000Y-67844000D03*
%TO.P,U12,29,SPIIO7/GPIO36/FSPICLK/SUBSPICLK*%
%TO.N,unconnected-(U12-SPIIO7{slash}GPIO36{slash}FSPICLK{slash}SUBSPICLK-Pad29)*%
X111633000Y-67844000D03*
%TO.P,U12,30,SPIDQS/GPIO37/FSPIQ/SUBSPIQ*%
%TO.N,unconnected-(U12-SPIDQS{slash}GPIO37{slash}FSPIQ{slash}SUBSPIQ-Pad30)*%
X112903000Y-67844000D03*
%TO.P,U12,31,GPIO38/FSPIWP/SUBSPIWP*%
%TO.N,unconnected-(U12-GPIO38{slash}FSPIWP{slash}SUBSPIWP-Pad31)*%
X114173000Y-67844000D03*
%TO.P,U12,32,MTCK/GPIO39/CLK_OUT3/SUBSPICS1*%
%TO.N,unconnected-(U12-MTCK{slash}GPIO39{slash}CLK_OUT3{slash}SUBSPICS1-Pad32)*%
X115443000Y-67844000D03*
%TO.P,U12,33,MTDO/GPIO40/CLK_OUT2*%
%TO.N,unconnected-(U12-MTDO{slash}GPIO40{slash}CLK_OUT2-Pad33)*%
X116713000Y-67844000D03*
%TO.P,U12,34,MTDI/GPIO41/CLK_OUT1*%
%TO.N,unconnected-(U12-MTDI{slash}GPIO41{slash}CLK_OUT1-Pad34)*%
X117983000Y-67844000D03*
%TO.P,U12,35,MTMS/GPIO42*%
%TO.N,unconnected-(U12-MTMS{slash}GPIO42-Pad35)*%
X119253000Y-67844000D03*
%TO.P,U12,36,U0RXD/GPIO44/CLK_OUT2*%
%TO.N,/ESP32/P_RX*%
X120523000Y-67844000D03*
%TO.P,U12,37,U0TXD/GPIO43/CLK_OUT1*%
%TO.N,/ESP32/P_TX*%
X121793000Y-67844000D03*
%TO.P,U12,38,GPIO2/TOUCH2/ADC1_CH1*%
%TO.N,/VDD*%
X123063000Y-67844000D03*
%TO.P,U12,39,GPIO1/TOUCH1/ADC1_CH0*%
%TO.N,/RST*%
X124333000Y-67844000D03*
%TO.P,U12,40,GND*%
%TO.N,GND*%
X125603000Y-67844000D03*
D25*
%TO.P,U12,41,GND*%
X116483000Y-79494000D03*
X117883000Y-79494000D03*
X119283000Y-79494000D03*
X116483000Y-78094000D03*
X117883000Y-78094000D03*
X119283000Y-78094000D03*
X116483000Y-76694000D03*
X117883000Y-76694000D03*
X119283000Y-76694000D03*
%TD*%
D26*
%TO.P,J5,1,Pin_1*%
%TO.N,/ESP32/EN*%
X130709500Y-61939000D03*
%TO.P,J5,2,Pin_2*%
%TO.N,/3V3*%
X130709500Y-60669000D03*
%TO.P,J5,3,Pin_3*%
%TO.N,/ESP32/P_TX*%
X129439500Y-61939000D03*
%TO.P,J5,4,Pin_4*%
%TO.N,GND*%
X129439500Y-60669000D03*
%TO.P,J5,5,Pin_5*%
%TO.N,/ESP32/P_RX*%
X128169500Y-61939000D03*
%TO.P,J5,6,Pin_6*%
%TO.N,/ESP32/IO0*%
X128169500Y-60669000D03*
%TD*%
D18*
%TO.P,FID8,*%
%TO.N,*%
X80808000Y-139065000D03*
%TD*%
D27*
%TO.P,U14,1,VDD1_0*%
%TO.N,/BM1366/VDD1_0*%
X108528000Y-112805000D03*
%TO.P,U14,2,VDD2_0*%
%TO.N,/BM1366/VDD2_0*%
X108528000Y-113307000D03*
%TO.P,U14,3,VDD3_0*%
%TO.N,/BM1366/VDD3_0*%
X108528000Y-113809000D03*
%TO.P,U14,4,VSS*%
%TO.N,GND*%
X108528000Y-114311000D03*
%TO.P,U14,5,NRSTI*%
%TO.N,/BM1366/RST_N*%
X108528000Y-114813000D03*
%TO.P,U14,6,BI*%
%TO.N,/BM1366/BI*%
X108528000Y-115315000D03*
%TO.P,U14,7,RO*%
%TO.N,/BM1366/RO*%
X108528000Y-115817000D03*
%TO.P,U14,8,CLKI*%
%TO.N,/BM1366/CLKI*%
X108528000Y-116319000D03*
%TO.P,U14,9,CI*%
%TO.N,/BM1366/CI*%
X108528000Y-116821000D03*
%TO.P,U14,10,ADDR0*%
%TO.N,/BM1366/ADDR0*%
X108528000Y-117323000D03*
%TO.P,U14,11,ADDR1*%
%TO.N,/BM1366/ADDR1*%
X108528000Y-117825000D03*
%TO.P,U14,12,PLL_VSS*%
%TO.N,GND*%
X108528000Y-118327000D03*
%TO.P,U14,13,VDDIO_08_0*%
%TO.N,/BM1366/0V8*%
X108528000Y-118829000D03*
%TO.P,U14,14,VDDIO_18_0*%
%TO.N,/BM1366/1V8*%
X108528000Y-119331000D03*
%TO.P,U14,15,VDDIO_18_1*%
%TO.N,Net-(U14-VDDIO_18_1)*%
X102696000Y-119318000D03*
%TO.P,U14,16,VDDIO_08_1*%
%TO.N,Net-(U14-VDDIO_08_1)*%
X102696000Y-118818000D03*
%TO.P,U14,17,VSS*%
%TO.N,GND*%
X102696000Y-118318000D03*
%TO.P,U14,18,PIN_MODE*%
%TO.N,/BM1366/PIN_MODE*%
X102696000Y-117818000D03*
%TO.P,U14,19,INV_CLKO*%
%TO.N,/BM1366/INV_CLKO*%
X102696000Y-117318000D03*
%TO.P,U14,20,CO*%
%TO.N,/BM1366/CO*%
X102696000Y-116821000D03*
%TO.P,U14,21,CLKO*%
%TO.N,/BM1366/CLKO*%
X102696000Y-116318000D03*
%TO.P,U14,22,RI*%
%TO.N,/BM1366/RI*%
X102696000Y-115817000D03*
%TO.P,U14,23,BO*%
%TO.N,/BM1366/BO*%
X102696000Y-115315000D03*
%TO.P,U14,24,NRSTO*%
%TO.N,/BM1366/NRSTO*%
X102696000Y-114813000D03*
%TO.P,U14,25,VSS*%
%TO.N,GND*%
X102696000Y-114311000D03*
%TO.P,U14,26,VDD3_1*%
%TO.N,/BM1366/VDD3_1*%
X102696000Y-113818000D03*
%TO.P,U14,27,VDD2_1*%
%TO.N,/BM1366/VDD2_1*%
X102696000Y-113307000D03*
%TO.P,U14,28,VDD1_1*%
%TO.N,/BM1366/VDD1_1*%
X102696000Y-112818000D03*
D28*
%TO.P,U14,29,VDD*%
%TO.N,/VDD*%
X105612000Y-113600000D03*
D29*
%TO.P,U14,30,VSS*%
%TO.N,GND*%
X105612000Y-117176000D03*
%TD*%
D30*
%TO.P,C28,1*%
%TO.N,/5V*%
X103490000Y-138720000D03*
%TO.P,C28,2*%
%TO.N,GND*%
X103490000Y-144120000D03*
%TD*%
D31*
%TO.P,J1,1*%
%TO.N,/Power/VIN*%
X82458000Y-77942000D03*
X88608000Y-77942000D03*
%TO.P,J1,2*%
%TO.N,GND*%
X82458000Y-66942000D03*
%TO.P,J1,3*%
%TO.N,/PLUG_SENSE*%
X88608000Y-66942000D03*
%TD*%
D32*
%TO.P,SW1,1*%
%TO.N,GND*%
X132345000Y-112842000D03*
%TO.P,SW1,2*%
%TO.N,/ESP32/EN*%
X128027000Y-112842000D03*
%TD*%
D18*
%TO.P,FID5,*%
%TO.N,*%
X130275000Y-55679000D03*
%TD*%
D33*
%TO.P,J2,1,Pin_1*%
%TO.N,GND*%
X80470000Y-130360000D03*
D34*
%TO.P,J2,2,Pin_2*%
%TO.N,/5V*%
X80470000Y-132860000D03*
%TD*%
D32*
%TO.P,SW2,1*%
%TO.N,GND*%
X132241000Y-121549000D03*
%TO.P,SW2,2*%
%TO.N,/ESP32/IO0*%
X127923000Y-121549000D03*
%TD*%
D18*
%TO.P,FID6,*%
%TO.N,*%
X80808000Y-56769000D03*
%TD*%
D35*
%TO.N,GND*%
X95067000Y-70471000D03*
D36*
X80348000Y-73699500D03*
X80348000Y-68217000D03*
D35*
X77798000Y-87152000D03*
X100850600Y-73131400D03*
D36*
X80348000Y-70044500D03*
D35*
X116910000Y-128990000D03*
D36*
X80348000Y-71872000D03*
D35*
X97028000Y-98592000D03*
D36*
X78668000Y-66392000D03*
X82138000Y-70062000D03*
D35*
X125513000Y-69924000D03*
X112980000Y-131260000D03*
X96109000Y-112124000D03*
D36*
X83818000Y-70059500D03*
D35*
X97028000Y-92970600D03*
X112460000Y-69350000D03*
X100288000Y-92362000D03*
X106396000Y-118533000D03*
X97028000Y-89922000D03*
X110862000Y-121832000D03*
X98568000Y-89922000D03*
D36*
X78668000Y-70047000D03*
D35*
X104082000Y-115436000D03*
X98682000Y-136516000D03*
X98568000Y-98592000D03*
X99393000Y-122727000D03*
X106408000Y-116351000D03*
X129429500Y-59124000D03*
D36*
X78668000Y-71874500D03*
D35*
X95758000Y-69431400D03*
D37*
X100765000Y-145890000D03*
D35*
X94214574Y-62819426D03*
X94411000Y-69401000D03*
X97028000Y-91402000D03*
X105673000Y-117442000D03*
X80168900Y-92079000D03*
X97028000Y-94742000D03*
X90271600Y-49504600D03*
X97551000Y-122747000D03*
X123698000Y-115554000D03*
X98568000Y-96612000D03*
X117602000Y-123903000D03*
X101346000Y-71501000D03*
X104855000Y-118563000D03*
D37*
X118999000Y-74930000D03*
D35*
X104132000Y-117472000D03*
X121691400Y-80721200D03*
X98568000Y-91402000D03*
X101727000Y-70358000D03*
X97028000Y-96612000D03*
X122075000Y-57079000D03*
X112922500Y-102037000D03*
X107144000Y-117442000D03*
X90897000Y-129309000D03*
X112318000Y-95325000D03*
X112512000Y-61250000D03*
X105623000Y-115406000D03*
X98568000Y-94742000D03*
X104867000Y-116381000D03*
X100457000Y-70358000D03*
X86678000Y-87862000D03*
X102616000Y-71501000D03*
D37*
X116713000Y-74930000D03*
D35*
X105330000Y-132320000D03*
X104430000Y-130240000D03*
D37*
X126293000Y-87094000D03*
D35*
X98568000Y-92970600D03*
D36*
X80348000Y-66389500D03*
D35*
X115573700Y-102188000D03*
D36*
X78668000Y-73702000D03*
X78668000Y-68219500D03*
D35*
X112369600Y-51816000D03*
X102997000Y-70358000D03*
X102082600Y-109067600D03*
X92818000Y-101795000D03*
X132297000Y-117137000D03*
X111785400Y-57708800D03*
X119253000Y-100457000D03*
X88888000Y-106645000D03*
X95260000Y-132630000D03*
X107094000Y-115406000D03*
X115099642Y-112550642D03*
X100288000Y-90613400D03*
D37*
X117856000Y-74930000D03*
D36*
%TO.N,/Power/VIN*%
X80275000Y-77059000D03*
X78688000Y-81222000D03*
X78688000Y-83179000D03*
X80288000Y-83159000D03*
X80288000Y-81202000D03*
X84808000Y-77242000D03*
X86458000Y-78752000D03*
X80288000Y-79102000D03*
X84808000Y-78752000D03*
X78675000Y-77079000D03*
X86458000Y-77242000D03*
X78688000Y-79122000D03*
D35*
%TO.N,/BM1366/1V8*%
X115737362Y-96385646D03*
X117172000Y-102173000D03*
X112130000Y-127390000D03*
X109458000Y-122723000D03*
%TO.N,/BM1366/INV_CLKO*%
X92430600Y-118795800D03*
%TO.N,/VDD*%
X114620000Y-71308000D03*
X103000000Y-104240000D03*
X105152000Y-113890000D03*
D36*
X107400000Y-94361000D03*
X107440000Y-96491000D03*
D35*
X104126000Y-113110000D03*
X108330000Y-104270000D03*
X107204000Y-113920000D03*
D36*
X107440000Y-98461000D03*
D35*
X106178000Y-113110000D03*
D36*
X105410000Y-94361000D03*
X105410000Y-92321000D03*
X107380000Y-92341000D03*
X105460000Y-98491000D03*
X105430000Y-96471000D03*
D35*
%TO.N,/ESP32/EN*%
X126293000Y-112572000D03*
X125563000Y-71744000D03*
X115196100Y-88116385D03*
D37*
%TO.N,/5V*%
X117975000Y-89479000D03*
D35*
X88883000Y-131168000D03*
X100470000Y-66770000D03*
X94580000Y-137390000D03*
X90881000Y-131182000D03*
D36*
X108214845Y-61185155D03*
D35*
X98450000Y-131200000D03*
%TO.N,/3V3*%
X115457000Y-62413000D03*
X114010000Y-95176000D03*
X111475000Y-83479000D03*
X109994718Y-78588072D03*
X127766000Y-108915000D03*
X130919500Y-59064000D03*
X111775000Y-58940627D03*
X110675000Y-73179000D03*
D37*
X125973000Y-88544000D03*
D35*
X121310400Y-88646000D03*
X91850000Y-52820000D03*
X98662000Y-137914100D03*
X116989216Y-96497784D03*
X83075000Y-92079000D03*
X101092000Y-109016800D03*
X119303800Y-54838600D03*
X90050000Y-100718000D03*
X82698000Y-90182000D03*
%TO.N,/TX*%
X112644692Y-87844408D03*
%TO.N,/RX*%
X111506000Y-86995000D03*
%TO.N,/BM1366/VDD3_0*%
X115070000Y-111160000D03*
%TO.N,/BM1366/VDD2_0*%
X112530000Y-107800000D03*
%TO.N,/RST*%
X115316000Y-72390000D03*
%TO.N,/BM1366/PIN_MODE*%
X91480645Y-121097045D03*
%TO.N,/SCL*%
X85471000Y-101219000D03*
X84828000Y-91902000D03*
X97713800Y-120675400D03*
%TO.N,/Power/OUT0*%
X89141400Y-99799800D03*
X93399000Y-72582000D03*
%TO.N,/BM1366/0V8*%
X108468000Y-124939000D03*
X103530000Y-127490000D03*
%TO.N,/BM1366/VDD1_0*%
X111250000Y-106010000D03*
%TO.N,/BM1366/VDD1_1*%
X98602800Y-107213400D03*
%TO.N,/BM1366/VDD2_1*%
X97409000Y-108966000D03*
%TO.N,/BM1366/VDD3_1*%
X96130000Y-110920000D03*
%TO.N,Net-(Q4-D)*%
X104500000Y-62680000D03*
X103630000Y-67500000D03*
%TO.N,Net-(U9-BOOT)*%
X94155000Y-71626000D03*
X95186555Y-73190555D03*
%TO.N,/BM1366/CI*%
X116334852Y-117175300D03*
X113272599Y-98869299D03*
%TO.N,/BM1366/RO*%
X112962000Y-97645000D03*
X116428000Y-115817000D03*
%TO.N,/BM1366/RST_N*%
X117148868Y-114071132D03*
X111948000Y-102053000D03*
%TO.N,Net-(Q2-G)*%
X101418600Y-87903400D03*
X97975000Y-74279000D03*
%TO.N,/BM1366/RI*%
X96774000Y-114909600D03*
%TO.N,/BM1366/CLKI*%
X114844000Y-116495900D03*
%TO.N,/BM1366/NRSTO*%
X96967045Y-112836955D03*
%TO.N,/BM1366/BO*%
X96995638Y-113825659D03*
%TO.N,/BM1366/CLKO*%
X96266000Y-116154200D03*
%TO.N,/BM1366/CO*%
X94996000Y-117551200D03*
%TO.N,/ESP32/P_TX*%
X128566055Y-63607445D03*
%TO.N,/ESP32/P_RX*%
X125222000Y-61294000D03*
%TO.N,/ESP32/IO0*%
X126746000Y-58674000D03*
X123682000Y-104140000D03*
X114675000Y-81379000D03*
%TO.N,/ESP32/XIN32*%
X117475000Y-83947000D03*
%TO.N,/BM1366/ADDR0*%
X119110000Y-118260000D03*
%TO.N,/ESP32/XOUT32*%
X116598000Y-83185000D03*
%TO.N,/Power/PGOOD*%
X109575000Y-73679000D03*
%TO.N,/ESP32/PWR_EN*%
X110935000Y-79631000D03*
%TO.N,/SDA*%
X96656000Y-120659000D03*
X84438000Y-90822000D03*
X87961400Y-99809800D03*
X104300000Y-58100000D03*
X104902000Y-60690000D03*
%TO.N,/ESP32/TFT_BLK*%
X110109000Y-80645000D03*
X113537100Y-70279000D03*
X115575000Y-70279000D03*
%TO.N,Net-(U4-LEDK)*%
X117144800Y-59309000D03*
%TO.N,/ESP32/TFT_DC*%
X118636500Y-59789361D03*
X117729000Y-73279000D03*
%TO.N,/ESP32/TFT_CS*%
X119450239Y-59289952D03*
X120142000Y-74168000D03*
%TO.N,/BM1366/BI*%
X115540000Y-114780000D03*
%TO.N,/PLUG_SENSE*%
X109275000Y-75279000D03*
X88900000Y-63500000D03*
X102440000Y-60880000D03*
%TO.N,/BM1366/ADDR1*%
X119960000Y-121860000D03*
D37*
%TO.N,Net-(D1-Pad2)*%
X122796000Y-98450000D03*
X122936000Y-103250000D03*
D35*
%TO.N,Net-(J8-CC1)*%
X124159000Y-99337000D03*
%TO.N,Net-(J8-CC2)*%
X124154000Y-102357000D03*
%TO.N,Net-(U14-VDDIO_18_1)*%
X101015000Y-121775000D03*
%TO.N,Net-(U14-VDDIO_08_1)*%
X100155000Y-123661000D03*
%TO.N,/ESP32/TFT_SCL*%
X120396000Y-59182000D03*
X121114100Y-73787000D03*
%TO.N,/ESP32/TFT_SDA*%
X120855244Y-58269215D03*
X121793000Y-73025000D03*
%TO.N,/ESP32/TFT_RES*%
X121811500Y-58265361D03*
X122936000Y-72941900D03*
%TD*%
D38*
%TO.N,Net-(U12-GPIO19{slash}U1RTS{slash}ADC2_CH8{slash}CLK_OUT2{slash}USB_D-)*%
X110363000Y-90424000D02*
X110363000Y-85344000D01*
X113792000Y-93853000D02*
X110363000Y-90424000D01*
X126368000Y-100100000D02*
X122452000Y-100100000D01*
X122452000Y-100100000D02*
X116205000Y-93853000D01*
X116205000Y-93853000D02*
X113792000Y-93853000D01*
%TO.N,Net-(U12-GPIO20{slash}U1CTS{slash}ADC2_CH9{slash}CLK_OUT1{slash}USB_D+)*%
X109093000Y-90043000D02*
X109093000Y-85344000D01*
X115948849Y-94496600D02*
X113546600Y-94496600D01*
X122052249Y-100600000D02*
X115948849Y-94496600D01*
X113546600Y-94496600D02*
X109093000Y-90043000D01*
X124927000Y-100600000D02*
X122052249Y-100600000D01*
%TO.N,/SDA*%
X88239600Y-53365400D02*
X85699600Y-53365400D01*
X102892800Y-56692800D02*
X91567000Y-56692800D01*
X91567000Y-56692800D02*
X88239600Y-53365400D01*
X85699600Y-53365400D02*
X85039200Y-54025800D01*
X85039200Y-54025800D02*
X85039200Y-56083200D01*
X104300000Y-58100000D02*
X102892800Y-56692800D01*
X85039200Y-56083200D02*
X86131400Y-57175400D01*
X86131400Y-57175400D02*
X86766400Y-57175400D01*
%TO.N,/SCL*%
X91391000Y-59260000D02*
X101671000Y-59260000D01*
X86766400Y-54635400D02*
X91391000Y-59260000D01*
%TO.N,/3V3*%
X88568400Y-52095400D02*
X89293000Y-52820000D01*
X86766400Y-52095400D02*
X88568400Y-52095400D01*
%TO.N,GND*%
X90220800Y-49555400D02*
X86766400Y-49555400D01*
X90271600Y-49504600D02*
X90220800Y-49555400D01*
%TO.N,/3V3*%
X89293000Y-52820000D02*
X91850000Y-52820000D01*
%TO.N,GND*%
X112721373Y-61040627D02*
X112512000Y-61250000D01*
X102696000Y-114311000D02*
X99401200Y-114311000D01*
D39*
X100765000Y-145045000D02*
X100765000Y-145890000D01*
D38*
X108528000Y-114311000D02*
X113339284Y-114311000D01*
X112369600Y-52984400D02*
X112369600Y-51816000D01*
X132345000Y-112842000D02*
X132345000Y-117089000D01*
X111785400Y-57708800D02*
X112316600Y-58240000D01*
D39*
X129439500Y-60669000D02*
X129439500Y-59134000D01*
D38*
X126368000Y-97650000D02*
X126368000Y-97105000D01*
X110156000Y-118327000D02*
X108528000Y-118327000D01*
X99401200Y-114311000D02*
X97214200Y-112124000D01*
X132241000Y-117193000D02*
X132297000Y-117137000D01*
X125513000Y-69924000D02*
X125513000Y-67934000D01*
D39*
X126293000Y-87094000D02*
X126293000Y-86034000D01*
D38*
X132345000Y-117089000D02*
X132297000Y-117137000D01*
X99393000Y-119299000D02*
X100374000Y-118318000D01*
X114751248Y-61040627D02*
X112721373Y-61040627D01*
X110862000Y-119033000D02*
X110156000Y-118327000D01*
D39*
X101690000Y-144120000D02*
X100765000Y-145045000D01*
X126293000Y-86034000D02*
X125603000Y-85344000D01*
X129439500Y-59134000D02*
X129429500Y-59124000D01*
D38*
X111785400Y-57708800D02*
X111954200Y-57540000D01*
X111954200Y-57540000D02*
X113648600Y-57540000D01*
X99393000Y-122727000D02*
X99393000Y-119299000D01*
X132241000Y-121549000D02*
X132241000Y-117193000D01*
X100374000Y-118318000D02*
X102696000Y-118318000D01*
X114751248Y-53340627D02*
X112725827Y-53340627D01*
X113339284Y-114311000D02*
X115099642Y-112550642D01*
D39*
X103490000Y-144120000D02*
X101690000Y-144120000D01*
D38*
X112725827Y-53340627D02*
X112369600Y-52984400D01*
X112316600Y-58240000D02*
X113648600Y-58240000D01*
X97214200Y-112124000D02*
X96109000Y-112124000D01*
X110862000Y-121832000D02*
X110862000Y-119033000D01*
X126368000Y-97105000D02*
X126943000Y-96530000D01*
X126368000Y-104050000D02*
X126368000Y-104595000D01*
X126368000Y-104595000D02*
X126943000Y-105170000D01*
D39*
%TO.N,/BM1366/1V8*%
X109350000Y-143580000D02*
X109350000Y-130170000D01*
X109350000Y-130170000D02*
X112130000Y-127390000D01*
X118302000Y-98950284D02*
X118302000Y-101043000D01*
D38*
X109450000Y-122715000D02*
X109450000Y-119488000D01*
X109450000Y-119488000D02*
X109293000Y-119331000D01*
D39*
X118302000Y-101043000D02*
X117172000Y-102173000D01*
X115737362Y-96385646D02*
X118302000Y-98950284D01*
D38*
X109293000Y-119331000D02*
X108528000Y-119331000D01*
X109458000Y-122723000D02*
X109450000Y-122715000D01*
%TO.N,/BM1366/INV_CLKO*%
X102696000Y-117318000D02*
X97175536Y-117318000D01*
X97175536Y-117318000D02*
X95697736Y-118795800D01*
X95697736Y-118795800D02*
X92430600Y-118795800D01*
%TO.N,/VDD*%
X123063000Y-68848000D02*
X120603000Y-71308000D01*
X123063000Y-67844000D02*
X123063000Y-68848000D01*
X120603000Y-71308000D02*
X114620000Y-71308000D01*
%TO.N,/ESP32/EN*%
X124275000Y-73032000D02*
X125563000Y-71744000D01*
X126975700Y-66235800D02*
X128372700Y-66235800D01*
X124275000Y-83380000D02*
X124275000Y-73032000D01*
X123063000Y-86348000D02*
X123063000Y-85344000D01*
X115196100Y-88116385D02*
X115936485Y-87376000D01*
X130709500Y-63899000D02*
X130709500Y-61939000D01*
X123835000Y-83820000D02*
X123063000Y-84592000D01*
X123639500Y-84015500D02*
X124275000Y-83380000D01*
X126419400Y-71377600D02*
X126053000Y-71744000D01*
X128027000Y-112842000D02*
X126563000Y-112842000D01*
X126419400Y-66792100D02*
X126419400Y-71377600D01*
X126563000Y-112842000D02*
X126293000Y-112572000D01*
X123063000Y-84592000D02*
X123063000Y-85344000D01*
X128372700Y-66235800D02*
X130709500Y-63899000D01*
X122035000Y-87376000D02*
X123063000Y-86348000D01*
X126445900Y-66765600D02*
X126419400Y-66792100D01*
X126053000Y-71744000D02*
X125563000Y-71744000D01*
X115936485Y-87376000D02*
X122035000Y-87376000D01*
X126445900Y-66765600D02*
X126975700Y-66235800D01*
D39*
%TO.N,/5V*%
X92161000Y-142859000D02*
X92161000Y-143622000D01*
D38*
X95092000Y-137390000D02*
X96290000Y-138588000D01*
D39*
X95560000Y-139450000D02*
X95560000Y-139460000D01*
X96290000Y-138720000D02*
X95560000Y-139450000D01*
D38*
X94580000Y-137390000D02*
X95092000Y-137390000D01*
D39*
X103490000Y-138720000D02*
X96290000Y-138720000D01*
D38*
X96290000Y-138588000D02*
X96290000Y-138720000D01*
D39*
X95560000Y-139460000D02*
X92161000Y-142859000D01*
D38*
%TO.N,/3V3*%
X114751248Y-59640627D02*
X114751248Y-58940627D01*
X111775000Y-58940627D02*
X114751248Y-58940627D01*
X111475000Y-83479000D02*
X111388000Y-83566000D01*
D39*
X124984664Y-86500400D02*
X124333000Y-85848736D01*
X124984664Y-87555664D02*
X124984664Y-86500400D01*
X130709500Y-59274000D02*
X130919500Y-59064000D01*
D38*
X111388000Y-83566000D02*
X107875000Y-83566000D01*
D39*
X130709500Y-60669000D02*
X130709500Y-59274000D01*
X125973000Y-88544000D02*
X124984664Y-87555664D01*
D38*
%TO.N,/TX*%
X114173000Y-85344000D02*
X114173000Y-86316100D01*
X114173000Y-86316100D02*
X112644692Y-87844408D01*
%TO.N,/RX*%
X112256000Y-86995000D02*
X112903000Y-86348000D01*
X112903000Y-86348000D02*
X112903000Y-85344000D01*
X111506000Y-86995000D02*
X112256000Y-86995000D01*
%TO.N,/BM1366/VDD3_0*%
X108528000Y-113809000D02*
X112421000Y-113809000D01*
X112421000Y-113809000D02*
X115070000Y-111160000D01*
%TO.N,/BM1366/VDD2_0*%
X108528000Y-113307000D02*
X111629000Y-113307000D01*
X111629000Y-113307000D02*
X112530000Y-112406000D01*
X112530000Y-112406000D02*
X112530000Y-107800000D01*
%TO.N,/RST*%
X115827000Y-71879000D02*
X120775000Y-71879000D01*
X120775000Y-71879000D02*
X124333000Y-68321000D01*
X124333000Y-68321000D02*
X124333000Y-67844000D01*
X115316000Y-72390000D02*
X115827000Y-71879000D01*
%TO.N,/BM1366/PIN_MODE*%
X93971227Y-121097045D02*
X91480645Y-121097045D01*
X97250272Y-117818000D02*
X93971227Y-121097045D01*
X102696000Y-117818000D02*
X97250272Y-117818000D01*
%TO.N,/SCL*%
X86641000Y-93715000D02*
X86641000Y-99995400D01*
X95309200Y-123080000D02*
X97713800Y-120675400D01*
X99068000Y-61863000D02*
X101671000Y-59260000D01*
X90854000Y-123080000D02*
X95309200Y-123080000D01*
X92075000Y-68856000D02*
X99068000Y-61863000D01*
X86641000Y-99995400D02*
X85417400Y-101219000D01*
X101671000Y-59260000D02*
X105046736Y-59260000D01*
X87275632Y-84879632D02*
X87275632Y-83158368D01*
X85417400Y-101219000D02*
X85417400Y-117643400D01*
X85417400Y-117643400D02*
X90854000Y-123080000D01*
X84828000Y-91902000D02*
X84298000Y-91902000D01*
X84298000Y-91902000D02*
X83712200Y-91316200D01*
X87275632Y-83158368D02*
X92075000Y-78359000D01*
X83712200Y-88443064D02*
X87275632Y-84879632D01*
X92075000Y-78359000D02*
X92075000Y-68856000D01*
X83712200Y-91316200D02*
X83712200Y-88443064D01*
X106610000Y-60823264D02*
X106610000Y-70650000D01*
X105046736Y-59260000D02*
X106610000Y-60823264D01*
X106610000Y-70650000D02*
X106839000Y-70879000D01*
X84828000Y-91902000D02*
X86641000Y-93715000D01*
X106839000Y-70879000D02*
X107843000Y-70879000D01*
%TO.N,/Power/OUT0*%
X93399000Y-78940000D02*
X88900000Y-83439000D01*
X88900000Y-85217000D02*
X88265000Y-85852000D01*
X88265000Y-98923400D02*
X89141400Y-99799800D01*
X88265000Y-85852000D02*
X88265000Y-98923400D01*
X93399000Y-72582000D02*
X93399000Y-78940000D01*
X88900000Y-83439000D02*
X88900000Y-85217000D01*
%TO.N,/BM1366/0V8*%
X108528000Y-118829000D02*
X109711000Y-118829000D01*
X108468000Y-124939000D02*
X104431000Y-124939000D01*
X110137400Y-119255400D02*
X110137400Y-124516600D01*
X103530000Y-125800000D02*
X103530000Y-127490000D01*
X109715000Y-124939000D02*
X108468000Y-124939000D01*
X110137400Y-124516600D02*
X109715000Y-124939000D01*
X104391000Y-124939000D02*
X103530000Y-125800000D01*
X104431000Y-124939000D02*
X104391000Y-124939000D01*
X109711000Y-118829000D02*
X110137400Y-119255400D01*
%TO.N,/BM1366/VDD1_0*%
X111250000Y-112430000D02*
X110873000Y-112807000D01*
X110871000Y-112805000D02*
X108528000Y-112805000D01*
X111250000Y-106010000D02*
X111250000Y-112430000D01*
X110873000Y-112807000D02*
X110871000Y-112805000D01*
%TO.N,/BM1366/VDD1_1*%
X98602800Y-107213400D02*
X98145600Y-107670600D01*
X98145600Y-111210664D02*
X99752936Y-112818000D01*
X99752936Y-112818000D02*
X102696000Y-112818000D01*
X98145600Y-107670600D02*
X98145600Y-111210664D01*
%TO.N,/BM1366/VDD2_1*%
X99667200Y-113307000D02*
X102696000Y-113307000D01*
X97409000Y-108966000D02*
X97409000Y-111048800D01*
X97409000Y-111048800D02*
X99667200Y-113307000D01*
%TO.N,/BM1366/VDD3_1*%
X102696000Y-113818000D02*
X99603464Y-113818000D01*
X99603464Y-113818000D02*
X96705464Y-110920000D01*
X96705464Y-110920000D02*
X96130000Y-110920000D01*
%TO.N,Net-(Q4-D)*%
X103630000Y-63550000D02*
X103630000Y-67500000D01*
X104500000Y-62680000D02*
X103630000Y-63550000D01*
%TO.N,Net-(U9-BOOT)*%
X95186555Y-72657555D02*
X94155000Y-71626000D01*
X95186555Y-73190555D02*
X95186555Y-72657555D01*
%TO.N,/BM1366/CI*%
X114445300Y-117175300D02*
X114091000Y-116821000D01*
X114082000Y-99340264D02*
X114082000Y-105867264D01*
X113611035Y-98869299D02*
X114082000Y-99340264D01*
X116334852Y-117175300D02*
X114445300Y-117175300D01*
X114082000Y-105867264D02*
X118310000Y-110095264D01*
X114091000Y-116821000D02*
X108528000Y-116821000D01*
X118310000Y-110095264D02*
X118310000Y-115200152D01*
X113272599Y-98869299D02*
X113611035Y-98869299D01*
X118310000Y-115200152D02*
X116334852Y-117175300D01*
%TO.N,/BM1366/RO*%
X117903600Y-114341400D02*
X117903600Y-110263600D01*
X116428000Y-115817000D02*
X117903600Y-114341400D01*
X112593199Y-99345199D02*
X112593199Y-98013801D01*
X113675600Y-100427600D02*
X112593199Y-99345199D01*
X108528000Y-115817000D02*
X116428000Y-115817000D01*
X113675600Y-106035600D02*
X113675600Y-100427600D01*
X112593199Y-98013801D02*
X112962000Y-97645000D01*
X117903600Y-110263600D02*
X113675600Y-106035600D01*
%TO.N,/BM1366/RST_N*%
X113627000Y-114813000D02*
X108528000Y-114813000D01*
X114368868Y-114071132D02*
X113627000Y-114813000D01*
X111948000Y-105334000D02*
X111948000Y-102053000D01*
X117148868Y-114071132D02*
X114368868Y-114071132D01*
X117160000Y-110546000D02*
X111948000Y-105334000D01*
X117160000Y-114060000D02*
X117160000Y-110546000D01*
X117148868Y-114071132D02*
X117160000Y-114060000D01*
%TO.N,Net-(Q2-G)*%
X101710600Y-81514600D02*
X101710600Y-87611400D01*
X97975000Y-74279000D02*
X97975000Y-74988000D01*
X100875000Y-77888000D02*
X100875000Y-80679000D01*
X97975000Y-74988000D02*
X100875000Y-77888000D01*
X101710600Y-87611400D02*
X101418600Y-87903400D01*
X100875000Y-80679000D02*
X101710600Y-81514600D01*
%TO.N,/BM1366/RI*%
X102696000Y-115817000D02*
X97681400Y-115817000D01*
X97681400Y-115817000D02*
X96774000Y-114909600D01*
%TO.N,Net-(U12-GPIO19{slash}U1RTS{slash}ADC2_CH8{slash}CLK_OUT2{slash}USB_D-)*%
X127692000Y-100100000D02*
X126368000Y-100100000D01*
X127674000Y-101100000D02*
X127840000Y-100934000D01*
X127840000Y-100934000D02*
X127840000Y-100248000D01*
X127840000Y-100248000D02*
X127692000Y-100100000D01*
X126368000Y-101100000D02*
X127674000Y-101100000D01*
%TO.N,Net-(U12-GPIO20{slash}U1CTS{slash}ADC2_CH9{slash}CLK_OUT1{slash}USB_D+)*%
X124927000Y-101051000D02*
X125234000Y-101358000D01*
X124927000Y-100600000D02*
X126368000Y-100600000D01*
X125234000Y-101358000D02*
X125234000Y-101600000D01*
X124927000Y-100600000D02*
X124927000Y-101051000D01*
X126368000Y-101600000D02*
X125234000Y-101600000D01*
%TO.N,/BM1366/CLKI*%
X114667100Y-116319000D02*
X108528000Y-116319000D01*
X114844000Y-116495900D02*
X114667100Y-116319000D01*
%TO.N,/BM1366/NRSTO*%
X96967045Y-112836955D02*
X98943090Y-114813000D01*
X98943090Y-114813000D02*
X102696000Y-114813000D01*
%TO.N,/BM1366/BO*%
X98484979Y-115315000D02*
X96995638Y-113825659D01*
X102696000Y-115315000D02*
X98484979Y-115315000D01*
%TO.N,/BM1366/CLKO*%
X102696000Y-116318000D02*
X96429800Y-116318000D01*
X96429800Y-116318000D02*
X96266000Y-116154200D01*
%TO.N,/BM1366/CO*%
X102696000Y-116821000D02*
X97097800Y-116821000D01*
X97097800Y-116821000D02*
X96367600Y-117551200D01*
X96367600Y-117551200D02*
X94996000Y-117551200D01*
%TO.N,/ESP32/P_TX*%
X123743200Y-65405000D02*
X121793000Y-67355200D01*
X128566055Y-63965945D02*
X127127000Y-65405000D01*
X127127000Y-65405000D02*
X123743200Y-65405000D01*
X128566055Y-63607445D02*
X128566055Y-63965945D01*
X129539500Y-62634000D02*
X129539500Y-61929000D01*
X128566055Y-63607445D02*
X129539500Y-62634000D01*
X121793000Y-67355200D02*
X121793000Y-67844000D01*
%TO.N,/ESP32/P_RX*%
X125222000Y-62484000D02*
X125222000Y-61294000D01*
X120523000Y-67183000D02*
X125222000Y-62484000D01*
X127634500Y-61294000D02*
X128269500Y-61929000D01*
X125076500Y-61294000D02*
X127634500Y-61294000D01*
X120523000Y-67844000D02*
X120523000Y-67183000D01*
%TO.N,/ESP32/IO0*%
X116982500Y-66548000D02*
X109385000Y-66548000D01*
X109385000Y-66548000D02*
X109093000Y-66840000D01*
X125892000Y-121549000D02*
X127923000Y-121549000D01*
X109093000Y-69778183D02*
X109093000Y-67844000D01*
X128139500Y-59194000D02*
X127619500Y-58674000D01*
X123682000Y-113547400D02*
X124790200Y-114655600D01*
X124856500Y-58674000D02*
X116982500Y-66548000D01*
X127619500Y-58674000D02*
X124856500Y-58674000D01*
X128269500Y-60659000D02*
X128139500Y-60529000D01*
X114675000Y-81379000D02*
X113383000Y-81379000D01*
X124790200Y-120447200D02*
X125892000Y-121549000D01*
X109093000Y-66840000D02*
X109093000Y-67844000D01*
X112039400Y-80035400D02*
X112039400Y-72724583D01*
X112039400Y-72724583D02*
X109093000Y-69778183D01*
X124790200Y-114655600D02*
X124790200Y-120447200D01*
X113383000Y-81379000D02*
X112039400Y-80035400D01*
X128139500Y-60529000D02*
X128139500Y-59194000D01*
X123682000Y-104140000D02*
X123682000Y-113547400D01*
%TO.N,/ESP32/XIN32*%
X117475000Y-83947000D02*
X117106000Y-83947000D01*
X116713000Y-84340000D02*
X116713000Y-85344000D01*
X117106000Y-83947000D02*
X116713000Y-84340000D01*
%TO.N,/BM1366/ADDR0*%
X114018264Y-117323000D02*
X114955264Y-118260000D01*
X108528000Y-117323000D02*
X114018264Y-117323000D01*
X114955264Y-118260000D02*
X119110000Y-118260000D01*
%TO.N,/ESP32/XOUT32*%
X116598000Y-83185000D02*
X115443000Y-84340000D01*
X115443000Y-84340000D02*
X115443000Y-85344000D01*
%TO.N,/Power/PGOOD*%
X108555000Y-78499000D02*
X110775000Y-76279000D01*
X110775000Y-74879000D02*
X109575000Y-73679000D01*
X107843000Y-78499000D02*
X108555000Y-78499000D01*
X110775000Y-76279000D02*
X110775000Y-74879000D01*
%TO.N,/ESP32/PWR_EN*%
X110810000Y-79756000D02*
X107875000Y-79756000D01*
X110935000Y-79631000D02*
X110810000Y-79756000D01*
%TO.N,/SDA*%
X88138000Y-83185000D02*
X88138000Y-84592000D01*
X104410000Y-60198000D02*
X101756000Y-60198000D01*
X96656000Y-120659000D02*
X96656000Y-120998000D01*
X106150000Y-71460000D02*
X106839000Y-72149000D01*
X95075000Y-122579000D02*
X91111000Y-122579000D01*
X104902000Y-60690000D02*
X104410000Y-60198000D01*
X85953600Y-117421600D02*
X85953600Y-101817600D01*
X85953600Y-101817600D02*
X87961400Y-99809800D01*
X85418000Y-90822000D02*
X87858600Y-93262600D01*
X92719600Y-69234400D02*
X92719600Y-78603400D01*
X87858600Y-99707000D02*
X87961400Y-99809800D01*
X96656000Y-120998000D02*
X95075000Y-122579000D01*
X84438000Y-88292000D02*
X84438000Y-90822000D01*
X87858600Y-93262600D02*
X87858600Y-99707000D01*
X88138000Y-84592000D02*
X84438000Y-88292000D01*
X87961400Y-99809800D02*
X87961400Y-99759800D01*
X104902000Y-60690000D02*
X105510817Y-60690000D01*
X84438000Y-90822000D02*
X85418000Y-90822000D01*
X101756000Y-60198000D02*
X92719600Y-69234400D01*
X91111000Y-122579000D02*
X85953600Y-117421600D01*
X105510817Y-60690000D02*
X106150000Y-61329183D01*
X106150000Y-61329183D02*
X106150000Y-71460000D01*
X92719600Y-78603400D02*
X88138000Y-83185000D01*
X106839000Y-72149000D02*
X107843000Y-72149000D01*
%TO.N,/ESP32/TFT_BLK*%
X109842000Y-81039000D02*
X110109000Y-80772000D01*
X113537100Y-70279000D02*
X115575000Y-70279000D01*
X107843000Y-81039000D02*
X109842000Y-81039000D01*
%TO.N,Net-(U4-LEDK)*%
X116285048Y-60340627D02*
X117144800Y-59480875D01*
X114751248Y-60340627D02*
X116285048Y-60340627D01*
X115915827Y-60340627D02*
X115976400Y-60401200D01*
X117144800Y-59480875D02*
X117144800Y-59309000D01*
X114751248Y-60340627D02*
X115915827Y-60340627D01*
%TO.N,/ESP32/TFT_DC*%
X114009200Y-82479000D02*
X114675000Y-82479000D01*
X118636500Y-59192079D02*
X116285048Y-56840627D01*
X118636500Y-59789361D02*
X118636500Y-59192079D01*
X117348000Y-73660000D02*
X117729000Y-73279000D01*
X115443000Y-74366817D02*
X116149817Y-73660000D01*
X115443000Y-81711000D02*
X115443000Y-74366817D01*
X114675000Y-82479000D02*
X115443000Y-81711000D01*
X116149817Y-73660000D02*
X117348000Y-73660000D01*
X111633000Y-84855200D02*
X114009200Y-82479000D01*
X111633000Y-85344000D02*
X111633000Y-84855200D01*
X116285048Y-56840627D02*
X114751248Y-56840627D01*
%TO.N,/ESP32/TFT_CS*%
X118154400Y-82081400D02*
X120269000Y-79966800D01*
X119450239Y-59289952D02*
X116300914Y-56140627D01*
X117983000Y-85344000D02*
X118154400Y-85172600D01*
X118154400Y-85172600D02*
X118154400Y-82081400D01*
X120269000Y-79966800D02*
X120269000Y-74295000D01*
X116300914Y-56140627D02*
X114751248Y-56140627D01*
%TO.N,/BM1366/BI*%
X108528000Y-115315000D02*
X115005000Y-115315000D01*
X115005000Y-115315000D02*
X115540000Y-114780000D01*
%TO.N,/PLUG_SENSE*%
X102950600Y-67960600D02*
X102950600Y-61390600D01*
X102950600Y-61390600D02*
X102440000Y-60880000D01*
X106826000Y-77216000D02*
X104013000Y-74403000D01*
X104013000Y-69023000D02*
X102950600Y-67960600D01*
X109275000Y-76285800D02*
X108344800Y-77216000D01*
X108344800Y-77216000D02*
X106826000Y-77216000D01*
X109275000Y-75279000D02*
X109275000Y-76285800D01*
X88900000Y-63500000D02*
X88900000Y-66049800D01*
X104013000Y-74403000D02*
X104013000Y-69023000D01*
%TO.N,/BM1366/ADDR1*%
X114786928Y-118666400D02*
X118276400Y-118666400D01*
X113945528Y-117825000D02*
X114786928Y-118666400D01*
X119960000Y-120350000D02*
X119960000Y-121860000D01*
X118276400Y-118666400D02*
X119960000Y-120350000D01*
X108528000Y-117825000D02*
X113945528Y-117825000D01*
D39*
%TO.N,Net-(D1-Pad2)*%
X122796000Y-98450000D02*
X126368000Y-98450000D01*
X122936000Y-103250000D02*
X126368000Y-103250000D01*
D38*
%TO.N,Net-(J8-CC1)*%
X126368000Y-99600000D02*
X124422000Y-99600000D01*
%TO.N,Net-(J8-CC2)*%
X126368000Y-102600000D02*
X124397000Y-102600000D01*
%TO.N,Net-(U14-VDDIO_18_1)*%
X101554000Y-119318000D02*
X102696000Y-119318000D01*
X101015000Y-119857000D02*
X101554000Y-119318000D01*
X101015000Y-121775000D02*
X101015000Y-119857000D01*
%TO.N,Net-(U14-VDDIO_08_1)*%
X100810000Y-118818000D02*
X102696000Y-118818000D01*
X100155000Y-119473000D02*
X100810000Y-118818000D01*
X100155000Y-123661000D02*
X100155000Y-119473000D01*
%TO.N,/ESP32/TFT_SCL*%
X119253000Y-81557536D02*
X119253000Y-85344000D01*
X120396000Y-59182000D02*
X120345200Y-59182000D01*
X121158000Y-79652536D02*
X119253000Y-81557536D01*
X121114100Y-73787000D02*
X121158000Y-73830900D01*
X120345200Y-59182000D02*
X116603827Y-55440627D01*
X116603827Y-55440627D02*
X114751248Y-55440627D01*
X121158000Y-73830900D02*
X121158000Y-79652536D01*
%TO.N,/ESP32/TFT_SDA*%
X114751248Y-54740627D02*
X116630512Y-54740627D01*
X116630512Y-54740627D02*
X120159100Y-58269215D01*
X121793000Y-73025000D02*
X121793000Y-79592272D01*
X120159100Y-58269215D02*
X120855244Y-58269215D01*
X121793000Y-79592272D02*
X120523000Y-80862272D01*
X120523000Y-80862272D02*
X120523000Y-85344000D01*
%TO.N,/ESP32/TFT_RES*%
X122682000Y-73195900D02*
X122936000Y-72941900D01*
X121793000Y-85344000D02*
X121793000Y-84340000D01*
X121132100Y-57585961D02*
X120171561Y-57585961D01*
X121811500Y-58265361D02*
X121132100Y-57585961D01*
X122682000Y-83451000D02*
X122682000Y-73195900D01*
X116626227Y-54040627D02*
X114751248Y-54040627D01*
X121793000Y-84340000D02*
X122682000Y-83451000D01*
X120171561Y-57585961D02*
X116626227Y-54040627D01*
%TD*%
%TA.AperFunction,Conductor*%
%TO.N,GND*%
G36*
X119253135Y-74301132D02*
G01*
X119320070Y-74321150D01*
X119365560Y-74374183D01*
X119369550Y-74384174D01*
X119416209Y-74517519D01*
X119512185Y-74670264D01*
X119639736Y-74797815D01*
X119639738Y-74797816D01*
X119683471Y-74825295D01*
X119729762Y-74877628D01*
X119741500Y-74930289D01*
X119741500Y-75620000D01*
X119721815Y-75687039D01*
X119669011Y-75732794D01*
X119617500Y-75744000D01*
X119533000Y-75744000D01*
X119533000Y-79620000D01*
X119513315Y-79687039D01*
X119460511Y-79732794D01*
X119409000Y-79744000D01*
X116357000Y-79744000D01*
X116289961Y-79724315D01*
X116244206Y-79671511D01*
X116233000Y-79620000D01*
X116233000Y-78344000D01*
X116733000Y-78344000D01*
X116733000Y-79244000D01*
X117633000Y-79244000D01*
X117633000Y-78344000D01*
X118133000Y-78344000D01*
X118133000Y-79244000D01*
X119033000Y-79244000D01*
X119033000Y-78344000D01*
X118133000Y-78344000D01*
X117633000Y-78344000D01*
X116733000Y-78344000D01*
X116233000Y-78344000D01*
X116233000Y-76944000D01*
X116733000Y-76944000D01*
X116733000Y-77844000D01*
X117633000Y-77844000D01*
X117633000Y-76944000D01*
X118133000Y-76944000D01*
X118133000Y-77844000D01*
X119033000Y-77844000D01*
X119033000Y-76944000D01*
X118133000Y-76944000D01*
X117633000Y-76944000D01*
X116733000Y-76944000D01*
X116233000Y-76944000D01*
X116233000Y-75744000D01*
X116733000Y-75744000D01*
X116733000Y-76444000D01*
X117633000Y-76444000D01*
X118132999Y-76444000D01*
X119033000Y-76444000D01*
X119033000Y-75744000D01*
X118788482Y-75744000D01*
X118781867Y-75744354D01*
X118725626Y-75750400D01*
X118626332Y-75787435D01*
X118556640Y-75792419D01*
X118539666Y-75787435D01*
X118440373Y-75750400D01*
X118384132Y-75744354D01*
X118377518Y-75744000D01*
X118133000Y-75744000D01*
X118132999Y-76444000D01*
X117633000Y-76444000D01*
X117633000Y-75744000D01*
X117388482Y-75744000D01*
X117381867Y-75744354D01*
X117325626Y-75750400D01*
X117226332Y-75787435D01*
X117156640Y-75792419D01*
X117139666Y-75787435D01*
X117040373Y-75750400D01*
X116984132Y-75744354D01*
X116977518Y-75744000D01*
X116733000Y-75744000D01*
X116233000Y-75744000D01*
X116094499Y-75744000D01*
X116027460Y-75724315D01*
X115981705Y-75671511D01*
X115970499Y-75620000D01*
X115970499Y-74636676D01*
X115990184Y-74569637D01*
X116006818Y-74548995D01*
X116038294Y-74517519D01*
X116233040Y-74322773D01*
X116294361Y-74289290D01*
X116321329Y-74286459D01*
X119253135Y-74301132D01*
G37*
%TD.AperFunction*%
%TD*%
%TA.AperFunction,NonConductor*%
G36*
X88550402Y-54652809D02*
G01*
X88618756Y-54702686D01*
X91067605Y-57151535D01*
X91078934Y-57163569D01*
X91114435Y-57203641D01*
X91158477Y-57234041D01*
X91171794Y-57243840D01*
X91215915Y-57278407D01*
X91247473Y-57296205D01*
X91249837Y-57297101D01*
X91249838Y-57297102D01*
X91299886Y-57316082D01*
X91315150Y-57322405D01*
X91363961Y-57344373D01*
X91363965Y-57344373D01*
X91366272Y-57345412D01*
X91401161Y-57355138D01*
X91403669Y-57355442D01*
X91403673Y-57355444D01*
X91456806Y-57361895D01*
X91473141Y-57364382D01*
X91525792Y-57374031D01*
X91579206Y-57370799D01*
X91595750Y-57370300D01*
X102498676Y-57370300D01*
X102603531Y-57391157D01*
X102692423Y-57450553D01*
X103275907Y-58034037D01*
X103335303Y-58122929D01*
X103354840Y-58200923D01*
X103362791Y-58281639D01*
X103352314Y-58388034D01*
X103301918Y-58482321D01*
X103219277Y-58550145D01*
X103116972Y-58581180D01*
X103090111Y-58582500D01*
X101699755Y-58582500D01*
X101683213Y-58582000D01*
X101674962Y-58581501D01*
X101627271Y-58578616D01*
X101584533Y-58582500D01*
X91785124Y-58582500D01*
X91680269Y-58561643D01*
X91591377Y-58502247D01*
X88222875Y-55133745D01*
X88163479Y-55044853D01*
X88142622Y-54939998D01*
X88151008Y-54872730D01*
X88158109Y-54844691D01*
X88160139Y-54845205D01*
X88181385Y-54771040D01*
X88247916Y-54687354D01*
X88341408Y-54635499D01*
X88447627Y-54623368D01*
X88550402Y-54652809D01*
G37*
%TD.AperFunction*%
%TA.AperFunction,NonConductor*%
G36*
X125594438Y-47543357D02*
G01*
X125683330Y-47602753D01*
X125742726Y-47691645D01*
X125763583Y-47796500D01*
X125763583Y-55081441D01*
X125742726Y-55186296D01*
X125683330Y-55275188D01*
X125594438Y-55334584D01*
X125500909Y-55355207D01*
X125095000Y-55372000D01*
X125094999Y-55372001D01*
X125079386Y-57719491D01*
X125057832Y-57824206D01*
X124997846Y-57912701D01*
X124908561Y-57971504D01*
X124847370Y-57983253D01*
X124848015Y-57986772D01*
X124762649Y-58002415D01*
X124746295Y-58004905D01*
X124690668Y-58011660D01*
X124655762Y-58021391D01*
X124653462Y-58022425D01*
X124653462Y-58022426D01*
X124617628Y-58038553D01*
X124604656Y-58044391D01*
X124589375Y-58050720D01*
X124536981Y-58070591D01*
X124505409Y-58088397D01*
X124461309Y-58122948D01*
X124447983Y-58132754D01*
X124403934Y-58163159D01*
X124368434Y-58203229D01*
X124357093Y-58215276D01*
X118517623Y-64054747D01*
X118428731Y-64114143D01*
X118323876Y-64135000D01*
X107943856Y-64135000D01*
X107839001Y-64114143D01*
X107750109Y-64054747D01*
X107741511Y-64045750D01*
X107359155Y-63626979D01*
X107303857Y-63535481D01*
X107287500Y-63442229D01*
X107287500Y-62456075D01*
X107308357Y-62351220D01*
X107367753Y-62262328D01*
X107456645Y-62202932D01*
X107561500Y-62182075D01*
X107666355Y-62202932D01*
X107694772Y-62217495D01*
X107699825Y-62219452D01*
X107699826Y-62219453D01*
X107898647Y-62296476D01*
X108108235Y-62335655D01*
X108108238Y-62335655D01*
X108321452Y-62335655D01*
X108321455Y-62335655D01*
X108531043Y-62296476D01*
X108729864Y-62219453D01*
X108911147Y-62107207D01*
X109068717Y-61963562D01*
X109197211Y-61793410D01*
X109292250Y-61602544D01*
X109350601Y-61397465D01*
X109370274Y-61185155D01*
X109350601Y-60972845D01*
X109292250Y-60767766D01*
X109280645Y-60744460D01*
X109197212Y-60576902D01*
X109197211Y-60576901D01*
X109197211Y-60576900D01*
X109068717Y-60406748D01*
X109067071Y-60405247D01*
X108911146Y-60263102D01*
X108729864Y-60150857D01*
X108694348Y-60137098D01*
X108531043Y-60073834D01*
X108321455Y-60034655D01*
X108108235Y-60034655D01*
X107898647Y-60073834D01*
X107898644Y-60073834D01*
X107898644Y-60073835D01*
X107699825Y-60150857D01*
X107518542Y-60263103D01*
X107444794Y-60330333D01*
X107353254Y-60385559D01*
X107247547Y-60401551D01*
X107143767Y-60375873D01*
X107066456Y-60321590D01*
X105685493Y-58940627D01*
X110819901Y-58940627D01*
X110838253Y-59126958D01*
X110892604Y-59306128D01*
X110980864Y-59471252D01*
X111099642Y-59615984D01*
X111217400Y-59712625D01*
X111244375Y-59734763D01*
X111409499Y-59823023D01*
X111588669Y-59877374D01*
X111775000Y-59895726D01*
X111941801Y-59879297D01*
X112048191Y-59889776D01*
X112142477Y-59940172D01*
X112210300Y-60022814D01*
X112241335Y-60125120D01*
X112230856Y-60231515D01*
X112180460Y-60325801D01*
X112097818Y-60393624D01*
X112097817Y-60393624D01*
X111981377Y-60455862D01*
X111836642Y-60574642D01*
X111717864Y-60719374D01*
X111629604Y-60884498D01*
X111575253Y-61063668D01*
X111560670Y-61211737D01*
X111556901Y-61250000D01*
X111568263Y-61365357D01*
X111575253Y-61436331D01*
X111629604Y-61615501D01*
X111717864Y-61780625D01*
X111836642Y-61925357D01*
X111887074Y-61966745D01*
X111981375Y-62044136D01*
X112146499Y-62132396D01*
X112325669Y-62186747D01*
X112512000Y-62205099D01*
X112698331Y-62186747D01*
X112877501Y-62132396D01*
X113042625Y-62044136D01*
X113187357Y-61925357D01*
X113235822Y-61866302D01*
X113318462Y-61798481D01*
X113420768Y-61767446D01*
X113447626Y-61766127D01*
X114290511Y-61766127D01*
X114395366Y-61786984D01*
X114484258Y-61846380D01*
X114543654Y-61935272D01*
X114564511Y-62040127D01*
X114552713Y-62119665D01*
X114520253Y-62226668D01*
X114501901Y-62413000D01*
X114520253Y-62599331D01*
X114574604Y-62778501D01*
X114662864Y-62943625D01*
X114781642Y-63088357D01*
X114899313Y-63184927D01*
X114926375Y-63207136D01*
X115091499Y-63295396D01*
X115270669Y-63349747D01*
X115457000Y-63368099D01*
X115643331Y-63349747D01*
X115822501Y-63295396D01*
X115987625Y-63207136D01*
X116132357Y-63088357D01*
X116251136Y-62943625D01*
X116339396Y-62778501D01*
X116393747Y-62599331D01*
X116412099Y-62413000D01*
X116393747Y-62226669D01*
X116339396Y-62047499D01*
X116339395Y-62047498D01*
X116338258Y-62043748D01*
X116327778Y-61937353D01*
X116358812Y-61835047D01*
X116426635Y-61752405D01*
X116499937Y-61709315D01*
X116523590Y-61699988D01*
X116644170Y-61608549D01*
X116735609Y-61487969D01*
X116791125Y-61347191D01*
X116801748Y-61258729D01*
X116801748Y-60895549D01*
X116822605Y-60790694D01*
X116881998Y-60701805D01*
X117292545Y-60291258D01*
X117381434Y-60231865D01*
X117406734Y-60222812D01*
X117510301Y-60191396D01*
X117510304Y-60191394D01*
X117521708Y-60187935D01*
X117628103Y-60177456D01*
X117730409Y-60208491D01*
X117813051Y-60276314D01*
X117841651Y-60319118D01*
X117961142Y-60464718D01*
X118003968Y-60499864D01*
X118105875Y-60583497D01*
X118270999Y-60671757D01*
X118450169Y-60726108D01*
X118636500Y-60744460D01*
X118822831Y-60726108D01*
X119002001Y-60671757D01*
X119167125Y-60583497D01*
X119311857Y-60464718D01*
X119423820Y-60328290D01*
X119506457Y-60260472D01*
X119608763Y-60229438D01*
X119608767Y-60229437D01*
X119636570Y-60226699D01*
X119815740Y-60172348D01*
X119922244Y-60115420D01*
X120024549Y-60084386D01*
X120130939Y-60094864D01*
X120209669Y-60118747D01*
X120396000Y-60137099D01*
X120582331Y-60118747D01*
X120761501Y-60064396D01*
X120926625Y-59976136D01*
X121071357Y-59857357D01*
X121190136Y-59712625D01*
X121278396Y-59547501D01*
X121324917Y-59394141D01*
X121375310Y-59299862D01*
X121457952Y-59232039D01*
X121560258Y-59201005D01*
X121613974Y-59201005D01*
X121625167Y-59202107D01*
X121625169Y-59202108D01*
X121701122Y-59209588D01*
X121811495Y-59220460D01*
X121811497Y-59220459D01*
X121811500Y-59220460D01*
X121997831Y-59202108D01*
X122177001Y-59147757D01*
X122342125Y-59059497D01*
X122486857Y-58940718D01*
X122605636Y-58795986D01*
X122693896Y-58630862D01*
X122748247Y-58451692D01*
X122766599Y-58265361D01*
X122748247Y-58079030D01*
X122719420Y-57984002D01*
X122708941Y-57877612D01*
X122739975Y-57775306D01*
X122769819Y-57730642D01*
X122796762Y-57697813D01*
X122851019Y-57631701D01*
X122869134Y-57609628D01*
X122869136Y-57609625D01*
X122957396Y-57444501D01*
X123011747Y-57265331D01*
X123030099Y-57079000D01*
X123011747Y-56892669D01*
X122957396Y-56713499D01*
X122869136Y-56548375D01*
X122821743Y-56490627D01*
X122750357Y-56403642D01*
X122605625Y-56284864D01*
X122440501Y-56196604D01*
X122261331Y-56142253D01*
X122075000Y-56123901D01*
X121888668Y-56142253D01*
X121709498Y-56196604D01*
X121544374Y-56284864D01*
X121399642Y-56403642D01*
X121280864Y-56548374D01*
X121192603Y-56713501D01*
X121192453Y-56713996D01*
X121142058Y-56808283D01*
X121059416Y-56876106D01*
X120957111Y-56907141D01*
X120930251Y-56908461D01*
X120565685Y-56908461D01*
X120460830Y-56887604D01*
X120371938Y-56828208D01*
X119666888Y-56123158D01*
X119607492Y-56034266D01*
X119586635Y-55929411D01*
X119607492Y-55824556D01*
X119666888Y-55735664D01*
X119731474Y-55687764D01*
X119834423Y-55632737D01*
X119834422Y-55632737D01*
X119834425Y-55632736D01*
X119979157Y-55513957D01*
X120097936Y-55369225D01*
X120186196Y-55204101D01*
X120240547Y-55024931D01*
X120258899Y-54838600D01*
X120240547Y-54652269D01*
X120186196Y-54473099D01*
X120097936Y-54307975D01*
X119992596Y-54179618D01*
X119979157Y-54163242D01*
X119834425Y-54044464D01*
X119669301Y-53956204D01*
X119490131Y-53901853D01*
X119490130Y-53901853D01*
X119303800Y-53883501D01*
X119303799Y-53883501D01*
X119117468Y-53901853D01*
X118938298Y-53956204D01*
X118773174Y-54044464D01*
X118628442Y-54163242D01*
X118509663Y-54307975D01*
X118454634Y-54410928D01*
X118386811Y-54493570D01*
X118292525Y-54543966D01*
X118186130Y-54554445D01*
X118083824Y-54523410D01*
X118019241Y-54475511D01*
X117125628Y-53581898D01*
X117114284Y-53569848D01*
X117105289Y-53559695D01*
X117078792Y-53529786D01*
X117062234Y-53518357D01*
X117034745Y-53499382D01*
X117021415Y-53489574D01*
X116999566Y-53472457D01*
X116979297Y-53456577D01*
X116979295Y-53456576D01*
X116977309Y-53455020D01*
X116939924Y-53433934D01*
X116920093Y-53420245D01*
X116845649Y-53343514D01*
X116806235Y-53244135D01*
X116801748Y-53194751D01*
X116801748Y-53130708D01*
X116801748Y-53122525D01*
X116791125Y-53034063D01*
X116735609Y-52893285D01*
X116644170Y-52772705D01*
X116523590Y-52681266D01*
X116523588Y-52681265D01*
X116402893Y-52633669D01*
X116382812Y-52625750D01*
X116382811Y-52625749D01*
X116382809Y-52625749D01*
X116302484Y-52616103D01*
X116302471Y-52616102D01*
X116294350Y-52615127D01*
X113477360Y-52615127D01*
X113372505Y-52594270D01*
X113283613Y-52534874D01*
X113224217Y-52445982D01*
X113203360Y-52341127D01*
X113224217Y-52236272D01*
X113235712Y-52211967D01*
X113251995Y-52181502D01*
X113251996Y-52181501D01*
X113306347Y-52002331D01*
X113324699Y-51816000D01*
X113306347Y-51629669D01*
X113251996Y-51450499D01*
X113163736Y-51285375D01*
X113113240Y-51223846D01*
X113044957Y-51140642D01*
X112900225Y-51021864D01*
X112735101Y-50933604D01*
X112555931Y-50879253D01*
X112369600Y-50860901D01*
X112183268Y-50879253D01*
X112004098Y-50933604D01*
X111838974Y-51021864D01*
X111694242Y-51140642D01*
X111575464Y-51285374D01*
X111487204Y-51450498D01*
X111446538Y-51584557D01*
X111432853Y-51629669D01*
X111414501Y-51816000D01*
X111432853Y-52002331D01*
X111487204Y-52181501D01*
X111575464Y-52346625D01*
X111629905Y-52412960D01*
X111680301Y-52507244D01*
X111692100Y-52586784D01*
X111692100Y-52955647D01*
X111691600Y-52972191D01*
X111688368Y-53025607D01*
X111698014Y-53078241D01*
X111700503Y-53094596D01*
X111707259Y-53150231D01*
X111716992Y-53185139D01*
X111739992Y-53236247D01*
X111746322Y-53251528D01*
X111765298Y-53301562D01*
X111765299Y-53301563D01*
X111766194Y-53303923D01*
X111783993Y-53335483D01*
X111818547Y-53379588D01*
X111828355Y-53392918D01*
X111843192Y-53414412D01*
X111858759Y-53436965D01*
X111898791Y-53472430D01*
X111898821Y-53472457D01*
X111910871Y-53483801D01*
X112226432Y-53799362D01*
X112237776Y-53811413D01*
X112273262Y-53851468D01*
X112317301Y-53881866D01*
X112330632Y-53891675D01*
X112374747Y-53926236D01*
X112406299Y-53944031D01*
X112408662Y-53944927D01*
X112408665Y-53944929D01*
X112458721Y-53963913D01*
X112473956Y-53970222D01*
X112522788Y-53992200D01*
X112522791Y-53992200D01*
X112539201Y-53999586D01*
X112626259Y-54061640D01*
X112682942Y-54152285D01*
X112700416Y-54247637D01*
X112700259Y-54242370D01*
X112700650Y-54248914D01*
X112700748Y-54249447D01*
X112700748Y-54258729D01*
X112701722Y-54266847D01*
X112701724Y-54266866D01*
X112712663Y-54357958D01*
X112712663Y-54423296D01*
X112701724Y-54514387D01*
X112701722Y-54514407D01*
X112700748Y-54522525D01*
X112700748Y-54958729D01*
X112701722Y-54966847D01*
X112701724Y-54966866D01*
X112712663Y-55057957D01*
X112712664Y-55123294D01*
X112705099Y-55186296D01*
X112700748Y-55222525D01*
X112700748Y-55658729D01*
X112701722Y-55666847D01*
X112701724Y-55666866D01*
X112712663Y-55757958D01*
X112712663Y-55823296D01*
X112701724Y-55914387D01*
X112701722Y-55914407D01*
X112700748Y-55922525D01*
X112700748Y-56358729D01*
X112701722Y-56366847D01*
X112701724Y-56366866D01*
X112712663Y-56457957D01*
X112712664Y-56523294D01*
X112700911Y-56621168D01*
X112667701Y-56722789D01*
X112598130Y-56803965D01*
X112502791Y-56852339D01*
X112428865Y-56862500D01*
X112287066Y-56862500D01*
X112182211Y-56841643D01*
X112157903Y-56830146D01*
X112150904Y-56826405D01*
X111971731Y-56772053D01*
X111940733Y-56769000D01*
X111785400Y-56753701D01*
X111785399Y-56753701D01*
X111599068Y-56772053D01*
X111419898Y-56826404D01*
X111254774Y-56914664D01*
X111110042Y-57033442D01*
X110991264Y-57178174D01*
X110903004Y-57343298D01*
X110848653Y-57522468D01*
X110830301Y-57708800D01*
X110848653Y-57895131D01*
X110903004Y-58074301D01*
X110962613Y-58185822D01*
X110993647Y-58288128D01*
X110983167Y-58394523D01*
X110962613Y-58444145D01*
X110892605Y-58575122D01*
X110838253Y-58754295D01*
X110819901Y-58940627D01*
X105685493Y-58940627D01*
X105546137Y-58801271D01*
X105534793Y-58789221D01*
X105534766Y-58789191D01*
X105499301Y-58749159D01*
X105496710Y-58747371D01*
X105455254Y-58718755D01*
X105441924Y-58708947D01*
X105397819Y-58674393D01*
X105360437Y-58653310D01*
X105336517Y-58636799D01*
X105338606Y-58633772D01*
X105298072Y-58608423D01*
X105236023Y-58521362D01*
X105212013Y-58417184D01*
X105223685Y-58329387D01*
X105236747Y-58286331D01*
X105255099Y-58100000D01*
X105236747Y-57913669D01*
X105182396Y-57734499D01*
X105094136Y-57569375D01*
X105055640Y-57522468D01*
X104975357Y-57424642D01*
X104830625Y-57305864D01*
X104665501Y-57217604D01*
X104619471Y-57203641D01*
X104486331Y-57163253D01*
X104486328Y-57163252D01*
X104486326Y-57163252D01*
X104400924Y-57154840D01*
X104298619Y-57123805D01*
X104234037Y-57075907D01*
X103392201Y-56234071D01*
X103380857Y-56222021D01*
X103370618Y-56210464D01*
X103345365Y-56181959D01*
X103338240Y-56177041D01*
X103301318Y-56151555D01*
X103287988Y-56141747D01*
X103243883Y-56107193D01*
X103212323Y-56089394D01*
X103209963Y-56088499D01*
X103209962Y-56088498D01*
X103159928Y-56069522D01*
X103144647Y-56063192D01*
X103093539Y-56040192D01*
X103058631Y-56030459D01*
X103002996Y-56023703D01*
X102986641Y-56021214D01*
X102934007Y-56011568D01*
X102883981Y-56014595D01*
X102880591Y-56014800D01*
X102864049Y-56015300D01*
X91961124Y-56015300D01*
X91856269Y-55994443D01*
X91767377Y-55935047D01*
X89797577Y-53965247D01*
X89738181Y-53876355D01*
X89717324Y-53771500D01*
X89738181Y-53666645D01*
X89797577Y-53577753D01*
X89886469Y-53518357D01*
X89991324Y-53497500D01*
X91079215Y-53497500D01*
X91184070Y-53518357D01*
X91253037Y-53559694D01*
X91319375Y-53614136D01*
X91484499Y-53702396D01*
X91663669Y-53756747D01*
X91850000Y-53775099D01*
X92036331Y-53756747D01*
X92215501Y-53702396D01*
X92380625Y-53614136D01*
X92525357Y-53495357D01*
X92644136Y-53350625D01*
X92732396Y-53185501D01*
X92786747Y-53006331D01*
X92805099Y-52820000D01*
X92786747Y-52633669D01*
X92732396Y-52454499D01*
X92644136Y-52289375D01*
X92555606Y-52181501D01*
X92525357Y-52144642D01*
X92380625Y-52025864D01*
X92215501Y-51937604D01*
X92036331Y-51883253D01*
X91850000Y-51864901D01*
X91849999Y-51864901D01*
X91663668Y-51883253D01*
X91484498Y-51937604D01*
X91363402Y-52002331D01*
X91319375Y-52025864D01*
X91275043Y-52062247D01*
X91253039Y-52080305D01*
X91158753Y-52130702D01*
X91079215Y-52142500D01*
X89687124Y-52142500D01*
X89582269Y-52121643D01*
X89493377Y-52062247D01*
X89067801Y-51636671D01*
X89056457Y-51624621D01*
X89056430Y-51624591D01*
X89020965Y-51584559D01*
X89018374Y-51582771D01*
X88976918Y-51554155D01*
X88963588Y-51544347D01*
X88919483Y-51509793D01*
X88887923Y-51491994D01*
X88885563Y-51491099D01*
X88885562Y-51491098D01*
X88835528Y-51472122D01*
X88820247Y-51465792D01*
X88769139Y-51442792D01*
X88734231Y-51433059D01*
X88678596Y-51426303D01*
X88662241Y-51423814D01*
X88609607Y-51414168D01*
X88559581Y-51417195D01*
X88556191Y-51417400D01*
X88539649Y-51417900D01*
X88144954Y-51417900D01*
X88040099Y-51397043D01*
X87951207Y-51337647D01*
X87915571Y-51293764D01*
X87869891Y-51223846D01*
X87830001Y-51124658D01*
X87831105Y-51017754D01*
X87873036Y-50919410D01*
X87933712Y-50855658D01*
X88009322Y-50798322D01*
X88100761Y-50677742D01*
X88156277Y-50536964D01*
X88158889Y-50515211D01*
X88163811Y-50474231D01*
X88197021Y-50372610D01*
X88266591Y-50291434D01*
X88361931Y-50243061D01*
X88435856Y-50232900D01*
X89562715Y-50232900D01*
X89667570Y-50253757D01*
X89736538Y-50295095D01*
X89740975Y-50298736D01*
X89906099Y-50386996D01*
X90085269Y-50441347D01*
X90271600Y-50459699D01*
X90457931Y-50441347D01*
X90637101Y-50386996D01*
X90802225Y-50298736D01*
X90946957Y-50179957D01*
X91065736Y-50035225D01*
X91153996Y-49870101D01*
X91208347Y-49690931D01*
X91226699Y-49504600D01*
X91208347Y-49318269D01*
X91153996Y-49139099D01*
X91065736Y-48973975D01*
X90977207Y-48866102D01*
X90946957Y-48829242D01*
X90802225Y-48710464D01*
X90637101Y-48622204D01*
X90457931Y-48567853D01*
X90271600Y-48549501D01*
X90085268Y-48567853D01*
X89906098Y-48622204D01*
X89740975Y-48710464D01*
X89612739Y-48815705D01*
X89518453Y-48866102D01*
X89438915Y-48877900D01*
X88435856Y-48877900D01*
X88331001Y-48857043D01*
X88242109Y-48797647D01*
X88182713Y-48708755D01*
X88163811Y-48636569D01*
X88156277Y-48573838D01*
X88156277Y-48573836D01*
X88100761Y-48433058D01*
X88009322Y-48312478D01*
X87888742Y-48221039D01*
X87888740Y-48221038D01*
X87747961Y-48165522D01*
X87667636Y-48155876D01*
X87667623Y-48155875D01*
X87659502Y-48154900D01*
X85873298Y-48154900D01*
X85865177Y-48155875D01*
X85865163Y-48155876D01*
X85784835Y-48165522D01*
X85757080Y-48176468D01*
X85651884Y-48195532D01*
X85547400Y-48172888D01*
X85459535Y-48111983D01*
X85401666Y-48022090D01*
X85382588Y-47925377D01*
X85380851Y-47800305D01*
X85400250Y-47695170D01*
X85458406Y-47605462D01*
X85546465Y-47544838D01*
X85651020Y-47522526D01*
X85654825Y-47522500D01*
X125489583Y-47522500D01*
X125594438Y-47543357D01*
G37*
%TD.AperFunction*%
%TA.AperFunction,NonConductor*%
G36*
X80388863Y-54582373D02*
G01*
X80436362Y-54589896D01*
X80808000Y-54609373D01*
X81179638Y-54589896D01*
X81227136Y-54582373D01*
X81269999Y-54579000D01*
X84087700Y-54579000D01*
X84192555Y-54599857D01*
X84281447Y-54659253D01*
X84340843Y-54748145D01*
X84361700Y-54853000D01*
X84361700Y-56054447D01*
X84361200Y-56070991D01*
X84357968Y-56124407D01*
X84367614Y-56177041D01*
X84370103Y-56193396D01*
X84376859Y-56249031D01*
X84386592Y-56283939D01*
X84409592Y-56335047D01*
X84415922Y-56350328D01*
X84434898Y-56400362D01*
X84434899Y-56400363D01*
X84435794Y-56402723D01*
X84453593Y-56434283D01*
X84488147Y-56478388D01*
X84497955Y-56491718D01*
X84519751Y-56523294D01*
X84528359Y-56535765D01*
X84568391Y-56571230D01*
X84568421Y-56571257D01*
X84580471Y-56582601D01*
X85318674Y-57320804D01*
X85378070Y-57409696D01*
X85390542Y-57447287D01*
X85437242Y-57631698D01*
X85530474Y-57844246D01*
X85530476Y-57844249D01*
X85644446Y-58018694D01*
X85657423Y-58038556D01*
X85772128Y-58163159D01*
X85814616Y-58209313D01*
X85997774Y-58351870D01*
X86201897Y-58462336D01*
X86421419Y-58537698D01*
X86650351Y-58575900D01*
X86882449Y-58575900D01*
X87111381Y-58537698D01*
X87330903Y-58462336D01*
X87535026Y-58351870D01*
X87718184Y-58209313D01*
X87875379Y-58038553D01*
X88002324Y-57844249D01*
X88095557Y-57631700D01*
X88120445Y-57533419D01*
X88166403Y-57436895D01*
X88245803Y-57365304D01*
X88346556Y-57329547D01*
X88453322Y-57335068D01*
X88549849Y-57381027D01*
X88579807Y-57406937D01*
X90891605Y-59718735D01*
X90902949Y-59730786D01*
X90938435Y-59770841D01*
X90982474Y-59801239D01*
X90995805Y-59811048D01*
X91039920Y-59845609D01*
X91071472Y-59863404D01*
X91073835Y-59864300D01*
X91073838Y-59864302D01*
X91123894Y-59883286D01*
X91139157Y-59889608D01*
X91187961Y-59911573D01*
X91187962Y-59911573D01*
X91190268Y-59912611D01*
X91225167Y-59922340D01*
X91280791Y-59929094D01*
X91297160Y-59931585D01*
X91349792Y-59941231D01*
X91349792Y-59941230D01*
X91349793Y-59941231D01*
X91403207Y-59937999D01*
X91419751Y-59937500D01*
X99373875Y-59937500D01*
X99478730Y-59958357D01*
X99567622Y-60017753D01*
X99627018Y-60106645D01*
X99647875Y-60211500D01*
X99627018Y-60316355D01*
X99567622Y-60405247D01*
X98839121Y-61133747D01*
X98750229Y-61193143D01*
X98645374Y-61214000D01*
X92202000Y-61214000D01*
X90096600Y-63018627D01*
X90003414Y-63071030D01*
X89897268Y-63083784D01*
X89794321Y-63054946D01*
X89710247Y-62988908D01*
X89706478Y-62984414D01*
X89575359Y-62824644D01*
X89430625Y-62705864D01*
X89265501Y-62617604D01*
X89086331Y-62563253D01*
X88900000Y-62544901D01*
X88713668Y-62563253D01*
X88534498Y-62617604D01*
X88369374Y-62705864D01*
X88224642Y-62824642D01*
X88105864Y-62969374D01*
X88017604Y-63134498D01*
X87995570Y-63207136D01*
X87963253Y-63313669D01*
X87944901Y-63500000D01*
X87963253Y-63686331D01*
X87984439Y-63756173D01*
X88025438Y-63891325D01*
X88024027Y-63891752D01*
X88045077Y-63961142D01*
X88034598Y-64067537D01*
X87984202Y-64161823D01*
X87901560Y-64229646D01*
X87799254Y-64260681D01*
X87772396Y-64262000D01*
X77463500Y-64262000D01*
X77358645Y-64241143D01*
X77269753Y-64181747D01*
X77210357Y-64092855D01*
X77189500Y-63988000D01*
X77189500Y-57942898D01*
X77194875Y-57604911D01*
X77208169Y-56769000D01*
X79802659Y-56769000D01*
X79821975Y-56965131D01*
X79879186Y-57153729D01*
X79972088Y-57327535D01*
X79972090Y-57327538D01*
X80002330Y-57364385D01*
X80097116Y-57479883D01*
X80149008Y-57522469D01*
X80249462Y-57604910D01*
X80249464Y-57604911D01*
X80423270Y-57697813D01*
X80423272Y-57697813D01*
X80423273Y-57697814D01*
X80611868Y-57755024D01*
X80808000Y-57774341D01*
X81004132Y-57755024D01*
X81192727Y-57697814D01*
X81366538Y-57604910D01*
X81518883Y-57479883D01*
X81643910Y-57327538D01*
X81736814Y-57153727D01*
X81794024Y-56965132D01*
X81813341Y-56769000D01*
X81794024Y-56572868D01*
X81736814Y-56384273D01*
X81736813Y-56384272D01*
X81736813Y-56384270D01*
X81643911Y-56210464D01*
X81643910Y-56210462D01*
X81544552Y-56089394D01*
X81518883Y-56058116D01*
X81414681Y-55972600D01*
X81366538Y-55933090D01*
X81366536Y-55933089D01*
X81366535Y-55933088D01*
X81192729Y-55840186D01*
X81004131Y-55782975D01*
X80808000Y-55763659D01*
X80611868Y-55782975D01*
X80423270Y-55840186D01*
X80249464Y-55933088D01*
X80097116Y-56058116D01*
X79972088Y-56210464D01*
X79879186Y-56384270D01*
X79821975Y-56572868D01*
X79802659Y-56769000D01*
X77208169Y-56769000D01*
X77238711Y-54848626D01*
X77261232Y-54744130D01*
X77322034Y-54656194D01*
X77411860Y-54598221D01*
X77512674Y-54579000D01*
X80346001Y-54579000D01*
X80388863Y-54582373D01*
G37*
%TD.AperFunction*%
%TA.AperFunction,Conductor*%
%TO.N,/VDD*%
G36*
X108333456Y-88048906D02*
G01*
X108401255Y-88069961D01*
X108446910Y-88124331D01*
X108457499Y-88174890D01*
X108457500Y-89958930D01*
X108455199Y-89979771D01*
X108457438Y-90051011D01*
X108457500Y-90054969D01*
X108457500Y-90082983D01*
X108457995Y-90086903D01*
X108457996Y-90086919D01*
X108458012Y-90087045D01*
X108458940Y-90098850D01*
X108460334Y-90143205D01*
X108466014Y-90162755D01*
X108470022Y-90182110D01*
X108472572Y-90202296D01*
X108488906Y-90243552D01*
X108492749Y-90254779D01*
X108505130Y-90297392D01*
X108515492Y-90314914D01*
X108524189Y-90332667D01*
X108531680Y-90351587D01*
X108557764Y-90387489D01*
X108564275Y-90397401D01*
X108586866Y-90435598D01*
X108601254Y-90449986D01*
X108614091Y-90465015D01*
X108626058Y-90481487D01*
X108626059Y-90481488D01*
X108626060Y-90481489D01*
X108660248Y-90509772D01*
X108669029Y-90517762D01*
X108883094Y-90731827D01*
X108917120Y-90794139D01*
X108919999Y-90820922D01*
X108920000Y-112043500D01*
X108899998Y-112111621D01*
X108846342Y-112158114D01*
X108794000Y-112169500D01*
X108488017Y-112169500D01*
X108484096Y-112169995D01*
X108484085Y-112169996D01*
X108365273Y-112185006D01*
X108349481Y-112186000D01*
X108083362Y-112186000D01*
X108080013Y-112186359D01*
X108080013Y-112186360D01*
X108022799Y-112192511D01*
X107885794Y-112243611D01*
X107768738Y-112331238D01*
X107681111Y-112448294D01*
X107676262Y-112461296D01*
X107630011Y-112585299D01*
X107623500Y-112645862D01*
X107623500Y-112964138D01*
X107623860Y-112967486D01*
X107631703Y-113040436D01*
X107627332Y-113040905D01*
X107629503Y-113071327D01*
X107631703Y-113071564D01*
X107630011Y-113087297D01*
X107630011Y-113087299D01*
X107623500Y-113147862D01*
X107623500Y-113466138D01*
X107623860Y-113469486D01*
X107631703Y-113542437D01*
X107627331Y-113542907D01*
X107629506Y-113573328D01*
X107631703Y-113573565D01*
X107630011Y-113589297D01*
X107630011Y-113589299D01*
X107623500Y-113649862D01*
X107623500Y-113968138D01*
X107623860Y-113971486D01*
X107631703Y-114044436D01*
X107627332Y-114044905D01*
X107629503Y-114075327D01*
X107631703Y-114075564D01*
X107630011Y-114091297D01*
X107630011Y-114091299D01*
X107623500Y-114151862D01*
X107623500Y-114155230D01*
X107623500Y-114254000D01*
X107603498Y-114322121D01*
X107549842Y-114368614D01*
X107497500Y-114380000D01*
X103726500Y-114380000D01*
X103658379Y-114359998D01*
X103611886Y-114306342D01*
X103600500Y-114254000D01*
X103600500Y-114155230D01*
X103600500Y-114151862D01*
X103593989Y-114091299D01*
X103593987Y-114091295D01*
X103592555Y-114077970D01*
X103592555Y-114051030D01*
X103593987Y-114037704D01*
X103593989Y-114037701D01*
X103600500Y-113977138D01*
X103600500Y-113658862D01*
X103593989Y-113598299D01*
X103593988Y-113598297D01*
X103592297Y-113582563D01*
X103595322Y-113582237D01*
X103592473Y-113542456D01*
X103592297Y-113542437D01*
X103592402Y-113541456D01*
X103591992Y-113535726D01*
X103593611Y-113530212D01*
X103593988Y-113526703D01*
X103593989Y-113526701D01*
X103600500Y-113466138D01*
X103600500Y-113147862D01*
X103593989Y-113087299D01*
X103593987Y-113087295D01*
X103592770Y-113075970D01*
X103592770Y-113049030D01*
X103593987Y-113037704D01*
X103593989Y-113037701D01*
X103600500Y-112977138D01*
X103600500Y-112658862D01*
X103593989Y-112598299D01*
X103542889Y-112461296D01*
X103542888Y-112461294D01*
X103455261Y-112344238D01*
X103338205Y-112256611D01*
X103269702Y-112231061D01*
X103201201Y-112205511D01*
X103140638Y-112199000D01*
X103137269Y-112199000D01*
X102856461Y-112199000D01*
X102825126Y-112195041D01*
X102789914Y-112186000D01*
X102776283Y-112182500D01*
X102776282Y-112182500D01*
X102596000Y-112182500D01*
X102527879Y-112162498D01*
X102481386Y-112108842D01*
X102470000Y-112056500D01*
X102470000Y-109971420D01*
X102490002Y-109903299D01*
X102530117Y-109868538D01*
X102528638Y-109866502D01*
X102539352Y-109858718D01*
X102693853Y-109746466D01*
X102821640Y-109604544D01*
X102917127Y-109439156D01*
X102976142Y-109257528D01*
X102996104Y-109067600D01*
X102976142Y-108877672D01*
X102917127Y-108696044D01*
X102917127Y-108696043D01*
X102821641Y-108530657D01*
X102693852Y-108388733D01*
X102528638Y-108268698D01*
X102530213Y-108266529D01*
X102490652Y-108232900D01*
X102470006Y-108164972D01*
X102470000Y-108163779D01*
X102470000Y-88085968D01*
X102490002Y-88017847D01*
X102543658Y-87971354D01*
X102597949Y-87959983D01*
X108333456Y-88048906D01*
G37*
%TD.AperFunction*%
%TD*%
%TA.AperFunction,NonConductor*%
G36*
X111757855Y-93695479D02*
G01*
X111846743Y-93754872D01*
X112075778Y-93983907D01*
X112135171Y-94072796D01*
X112156028Y-94177652D01*
X112135171Y-94282507D01*
X112075775Y-94371399D01*
X111986883Y-94430794D01*
X111961572Y-94439851D01*
X111952499Y-94442603D01*
X111782161Y-94533650D01*
X111679855Y-94564684D01*
X111573461Y-94554204D01*
X111479175Y-94503807D01*
X111411353Y-94421164D01*
X111380319Y-94318858D01*
X111379000Y-94292003D01*
X111379000Y-93948622D01*
X111399857Y-93843767D01*
X111459253Y-93754875D01*
X111548145Y-93695479D01*
X111653000Y-93674622D01*
X111757855Y-93695479D01*
G37*
%TD.AperFunction*%
%TA.AperFunction,NonConductor*%
G36*
X122835355Y-107699857D02*
G01*
X122924247Y-107759253D01*
X122983643Y-107848145D01*
X123004499Y-107952998D01*
X123004499Y-110794499D01*
X123004499Y-113518655D01*
X123003999Y-113535194D01*
X123000768Y-113588607D01*
X123010414Y-113641242D01*
X123012903Y-113657596D01*
X123019659Y-113713230D01*
X123029392Y-113748139D01*
X123052392Y-113799247D01*
X123058722Y-113814528D01*
X123077698Y-113864562D01*
X123077699Y-113864563D01*
X123078594Y-113866923D01*
X123096393Y-113898483D01*
X123130947Y-113942588D01*
X123140755Y-113955918D01*
X123169058Y-113996921D01*
X123171159Y-113999965D01*
X123211191Y-114035430D01*
X123211221Y-114035457D01*
X123223271Y-114046801D01*
X123407247Y-114230777D01*
X123466643Y-114319669D01*
X123487500Y-114424524D01*
X123466643Y-114529379D01*
X123407247Y-114618271D01*
X123342663Y-114666170D01*
X123167377Y-114759862D01*
X123022642Y-114878642D01*
X122903864Y-115023374D01*
X122802883Y-115212299D01*
X122799656Y-115210574D01*
X122770643Y-115264850D01*
X122687999Y-115332669D01*
X122585691Y-115363700D01*
X122479297Y-115353217D01*
X122385013Y-115302816D01*
X122317194Y-115220172D01*
X122286163Y-115117864D01*
X122284845Y-115091382D01*
X122284755Y-115023374D01*
X122275364Y-107953361D01*
X122296082Y-107848481D01*
X122355360Y-107759510D01*
X122444173Y-107699997D01*
X122549000Y-107679000D01*
X122730500Y-107679000D01*
X122835355Y-107699857D01*
G37*
%TD.AperFunction*%
%TA.AperFunction,NonConductor*%
G36*
X133496294Y-113576102D02*
G01*
X133586188Y-113633972D01*
X133647093Y-113721836D01*
X133669737Y-113826320D01*
X133669776Y-113831682D01*
X133662915Y-116582916D01*
X133641797Y-116687719D01*
X133582179Y-116776463D01*
X133493140Y-116835637D01*
X133388233Y-116856232D01*
X133283430Y-116835114D01*
X133194686Y-116775496D01*
X133147269Y-116711394D01*
X133091135Y-116606372D01*
X133084693Y-116598523D01*
X133034297Y-116504236D01*
X133022500Y-116424702D01*
X133022500Y-114048740D01*
X133043357Y-113943885D01*
X133078175Y-113883179D01*
X133083361Y-113876342D01*
X133138877Y-113735564D01*
X133138877Y-113735560D01*
X133140880Y-113730482D01*
X133198750Y-113640588D01*
X133286614Y-113579683D01*
X133391098Y-113557039D01*
X133496294Y-113576102D01*
G37*
%TD.AperFunction*%
%TA.AperFunction,NonConductor*%
G36*
X102128205Y-145958868D02*
G01*
X102222491Y-146009264D01*
X102280670Y-146075291D01*
X102310184Y-146122262D01*
X102437738Y-146249816D01*
X102507983Y-146293954D01*
X102527151Y-146305998D01*
X102604838Y-146379444D01*
X102648504Y-146477030D01*
X102651503Y-146583897D01*
X102613376Y-146683777D01*
X102539930Y-146761464D01*
X102442344Y-146805130D01*
X102381374Y-146812000D01*
X101920472Y-146812000D01*
X101815617Y-146791143D01*
X101726725Y-146731747D01*
X101667329Y-146642855D01*
X101646472Y-146538000D01*
X101667329Y-146433145D01*
X101678826Y-146408837D01*
X101740231Y-146293955D01*
X101740232Y-146293954D01*
X101786468Y-146141531D01*
X101836863Y-146047248D01*
X101919504Y-145979425D01*
X102021810Y-145948390D01*
X102128205Y-145958868D01*
G37*
%TD.AperFunction*%
%TA.AperFunction,NonConductor*%
G36*
X116756432Y-89301857D02*
G01*
X116845324Y-89361253D01*
X116904720Y-89450145D01*
X116924256Y-89528137D01*
X116939700Y-89684934D01*
X116939701Y-89684937D01*
X116999767Y-89882952D01*
X117097316Y-90065452D01*
X117228589Y-90225410D01*
X117388547Y-90356683D01*
X117388548Y-90356683D01*
X117388550Y-90356685D01*
X117571046Y-90454232D01*
X117769066Y-90514300D01*
X117975000Y-90534583D01*
X118180934Y-90514300D01*
X118378954Y-90454232D01*
X118561450Y-90356685D01*
X118721410Y-90225410D01*
X118852685Y-90065450D01*
X118950232Y-89882954D01*
X119010300Y-89684934D01*
X119025743Y-89528139D01*
X119056777Y-89425837D01*
X119124600Y-89343195D01*
X119218885Y-89292798D01*
X119298423Y-89281000D01*
X120487829Y-89281000D01*
X120592684Y-89301857D01*
X120661653Y-89343196D01*
X120779771Y-89440134D01*
X120779775Y-89440136D01*
X120944899Y-89528396D01*
X121124069Y-89582747D01*
X121310400Y-89601099D01*
X121496731Y-89582747D01*
X121675901Y-89528396D01*
X121841025Y-89440136D01*
X121841026Y-89440134D01*
X121841028Y-89440134D01*
X121959147Y-89343196D01*
X122053432Y-89292799D01*
X122132971Y-89281000D01*
X125117085Y-89281000D01*
X125221940Y-89301857D01*
X125290907Y-89343193D01*
X125386550Y-89421685D01*
X125569046Y-89519232D01*
X125767066Y-89579300D01*
X125973000Y-89599583D01*
X126178934Y-89579300D01*
X126376954Y-89519232D01*
X126559450Y-89421685D01*
X126655092Y-89343193D01*
X126749378Y-89292798D01*
X126828915Y-89281000D01*
X133402285Y-89281000D01*
X133507140Y-89301857D01*
X133596032Y-89361253D01*
X133655428Y-89450145D01*
X133676285Y-89554726D01*
X133691755Y-105017963D01*
X133683953Y-108146747D01*
X133674849Y-111797649D01*
X133674678Y-111866113D01*
X133653560Y-111970916D01*
X133593942Y-112059660D01*
X133504903Y-112118834D01*
X133399996Y-112139429D01*
X133295193Y-112118311D01*
X133206449Y-112058693D01*
X133147275Y-111969654D01*
X133145783Y-111965949D01*
X133118452Y-111896642D01*
X133083361Y-111807658D01*
X132991922Y-111687078D01*
X132871342Y-111595639D01*
X132871340Y-111595638D01*
X132730561Y-111540122D01*
X132650236Y-111530476D01*
X132650223Y-111530475D01*
X132642102Y-111529500D01*
X132047898Y-111529500D01*
X132039777Y-111530475D01*
X132039763Y-111530476D01*
X131959438Y-111540122D01*
X131818659Y-111595638D01*
X131698078Y-111687078D01*
X131606638Y-111807659D01*
X131551122Y-111948438D01*
X131541476Y-112028763D01*
X131541475Y-112028777D01*
X131540500Y-112036898D01*
X131540500Y-113647102D01*
X131541475Y-113655223D01*
X131541476Y-113655236D01*
X131551122Y-113735562D01*
X131606637Y-113876339D01*
X131606638Y-113876340D01*
X131606639Y-113876342D01*
X131611822Y-113883177D01*
X131658561Y-113979325D01*
X131667500Y-114048740D01*
X131667500Y-116307727D01*
X131646643Y-116412582D01*
X131605305Y-116481551D01*
X131502864Y-116606375D01*
X131414604Y-116771498D01*
X131413392Y-116775496D01*
X131360253Y-116950669D01*
X131341901Y-117137000D01*
X131358438Y-117304901D01*
X131360253Y-117323331D01*
X131414604Y-117502501D01*
X131515586Y-117691426D01*
X131515162Y-117691652D01*
X131551701Y-117760011D01*
X131563499Y-117839548D01*
X131563499Y-120342259D01*
X131542642Y-120447114D01*
X131507826Y-120507816D01*
X131502639Y-120514656D01*
X131447122Y-120655436D01*
X131437476Y-120735763D01*
X131437475Y-120735777D01*
X131436500Y-120743898D01*
X131436500Y-122354102D01*
X131437475Y-122362223D01*
X131437476Y-122362236D01*
X131447122Y-122442561D01*
X131447122Y-122442563D01*
X131447123Y-122442564D01*
X131502639Y-122583342D01*
X131594078Y-122703922D01*
X131714658Y-122795361D01*
X131855436Y-122850877D01*
X131943898Y-122861500D01*
X131952081Y-122861500D01*
X132529919Y-122861500D01*
X132538102Y-122861500D01*
X132626564Y-122850877D01*
X132767342Y-122795361D01*
X132887922Y-122703922D01*
X132979361Y-122583342D01*
X133034877Y-122442564D01*
X133045500Y-122354102D01*
X133045500Y-120743898D01*
X133034877Y-120655436D01*
X132979361Y-120514658D01*
X132979360Y-120514657D01*
X132979360Y-120514656D01*
X132974175Y-120507819D01*
X132927437Y-120411667D01*
X132918500Y-120342259D01*
X132918500Y-117976020D01*
X132939357Y-117871165D01*
X132980693Y-117802198D01*
X133091136Y-117667625D01*
X133144492Y-117567801D01*
X133212310Y-117485164D01*
X133306595Y-117434766D01*
X133412990Y-117424286D01*
X133515296Y-117455319D01*
X133597939Y-117523141D01*
X133648337Y-117617426D01*
X133660135Y-117697650D01*
X133647651Y-122703921D01*
X133604684Y-139934000D01*
X133604682Y-139934683D01*
X133583564Y-140039486D01*
X133523947Y-140128230D01*
X133434907Y-140187404D01*
X133330683Y-140208000D01*
X131237579Y-140208000D01*
X131132724Y-140187143D01*
X131043832Y-140127747D01*
X130984436Y-140038855D01*
X130963579Y-139934000D01*
X130984436Y-139829145D01*
X131025774Y-139760176D01*
X131080374Y-139693645D01*
X131137910Y-139623538D01*
X131230814Y-139449727D01*
X131288024Y-139261132D01*
X131307341Y-139065000D01*
X131288024Y-138868868D01*
X131230814Y-138680273D01*
X131230813Y-138680272D01*
X131230813Y-138680270D01*
X131137911Y-138506464D01*
X131137910Y-138506462D01*
X131045100Y-138393373D01*
X131012883Y-138354116D01*
X130883270Y-138247746D01*
X130860538Y-138229090D01*
X130860536Y-138229089D01*
X130860535Y-138229088D01*
X130686729Y-138136186D01*
X130498131Y-138078975D01*
X130302000Y-138059659D01*
X130105868Y-138078975D01*
X129917270Y-138136186D01*
X129743464Y-138229088D01*
X129591116Y-138354116D01*
X129466088Y-138506464D01*
X129373186Y-138680270D01*
X129315975Y-138868868D01*
X129296659Y-139065000D01*
X129315975Y-139261131D01*
X129373186Y-139449729D01*
X129466088Y-139623536D01*
X129578226Y-139760176D01*
X129628623Y-139854462D01*
X129639102Y-139960857D01*
X129608067Y-140063163D01*
X129540245Y-140145805D01*
X129445959Y-140196202D01*
X129366421Y-140208000D01*
X126619000Y-140208000D01*
X126619000Y-146538000D01*
X126598143Y-146642855D01*
X126538747Y-146731747D01*
X126449855Y-146791143D01*
X126345000Y-146812000D01*
X104598626Y-146812000D01*
X104493771Y-146791143D01*
X104404879Y-146731747D01*
X104345483Y-146642855D01*
X104324626Y-146538000D01*
X104345483Y-146433145D01*
X104404879Y-146344253D01*
X104452849Y-146305998D01*
X104472017Y-146293954D01*
X104542262Y-146249816D01*
X104669816Y-146122262D01*
X104765789Y-145969522D01*
X104825368Y-145799255D01*
X104840500Y-145664954D01*
X104840500Y-142575046D01*
X104825368Y-142440745D01*
X104765789Y-142270478D01*
X104669816Y-142117738D01*
X104542262Y-141990184D01*
X104452550Y-141933814D01*
X104389521Y-141894210D01*
X104219254Y-141834631D01*
X104092600Y-141820361D01*
X104092591Y-141820360D01*
X104084954Y-141819500D01*
X102895046Y-141819500D01*
X102887409Y-141820360D01*
X102887399Y-141820361D01*
X102760745Y-141834631D01*
X102590478Y-141894210D01*
X102437737Y-141990184D01*
X102310184Y-142117737D01*
X102214210Y-142270478D01*
X102154631Y-142440745D01*
X102140361Y-142567399D01*
X102140360Y-142567409D01*
X102139500Y-142575046D01*
X102139500Y-142582737D01*
X102139500Y-143041500D01*
X102118643Y-143146355D01*
X102059247Y-143235247D01*
X101970355Y-143294643D01*
X101865500Y-143315500D01*
X101814381Y-143315500D01*
X101814373Y-143315499D01*
X101780646Y-143315499D01*
X101599355Y-143315499D01*
X101599352Y-143315499D01*
X101570026Y-143322192D01*
X101539745Y-143327337D01*
X101509849Y-143330706D01*
X101481450Y-143340643D01*
X101451936Y-143349146D01*
X101422607Y-143355840D01*
X101395502Y-143368893D01*
X101367132Y-143380645D01*
X101338730Y-143390584D01*
X101313262Y-143406586D01*
X101286385Y-143421440D01*
X101259272Y-143434497D01*
X101235744Y-143453260D01*
X101210692Y-143471035D01*
X101185229Y-143487034D01*
X101121133Y-143551130D01*
X101057036Y-143615228D01*
X101057034Y-143615230D01*
X100817057Y-143855207D01*
X100132035Y-144540228D01*
X100116025Y-144565708D01*
X100098251Y-144590758D01*
X100079499Y-144614272D01*
X100066443Y-144641381D01*
X100051593Y-144668250D01*
X100035583Y-144693731D01*
X100025647Y-144722127D01*
X100013893Y-144750505D01*
X100000838Y-144777613D01*
X99994145Y-144806937D01*
X99985643Y-144836448D01*
X99975706Y-144864847D01*
X99972337Y-144894745D01*
X99967192Y-144925026D01*
X99960499Y-144954352D01*
X99960499Y-145116335D01*
X99939642Y-145221190D01*
X99898307Y-145290155D01*
X99887316Y-145303547D01*
X99789767Y-145486047D01*
X99737831Y-145657262D01*
X99729700Y-145684066D01*
X99709417Y-145890000D01*
X99729700Y-146095934D01*
X99729701Y-146095937D01*
X99789767Y-146293954D01*
X99851174Y-146408837D01*
X99882209Y-146511143D01*
X99871730Y-146617537D01*
X99821333Y-146711823D01*
X99738691Y-146779646D01*
X99636385Y-146810681D01*
X99609528Y-146812000D01*
X95600654Y-146812000D01*
X95495799Y-146791143D01*
X95406907Y-146731747D01*
X95347511Y-146642855D01*
X95326654Y-146538000D01*
X95347511Y-146433145D01*
X95378983Y-146376947D01*
X95430531Y-146305998D01*
X95483149Y-146233575D01*
X95559945Y-146061089D01*
X95599200Y-145876406D01*
X95599200Y-145687596D01*
X95559945Y-145502913D01*
X95535678Y-145448409D01*
X95483150Y-145330428D01*
X95355242Y-145154378D01*
X95357243Y-145152923D01*
X95319058Y-145101787D01*
X95292743Y-144998167D01*
X95308085Y-144892364D01*
X95362749Y-144800486D01*
X95409203Y-144759386D01*
X95564271Y-144650806D01*
X95729806Y-144485271D01*
X95739654Y-144471207D01*
X95746552Y-144461356D01*
X95823779Y-144387426D01*
X95923420Y-144348678D01*
X96030304Y-144351010D01*
X96128159Y-144394067D01*
X96195448Y-144461356D01*
X96212194Y-144485272D01*
X96377729Y-144650807D01*
X96558827Y-144777613D01*
X96569494Y-144785082D01*
X96781663Y-144884018D01*
X97007789Y-144944608D01*
X97241000Y-144965011D01*
X97474211Y-144944608D01*
X97700337Y-144884018D01*
X97912506Y-144785082D01*
X98104271Y-144650806D01*
X98269806Y-144485271D01*
X98272632Y-144481236D01*
X98330193Y-144399030D01*
X98404082Y-144293506D01*
X98503018Y-144081337D01*
X98563608Y-143855211D01*
X98584011Y-143622000D01*
X98563608Y-143388789D01*
X98503018Y-143162663D01*
X98404082Y-142950495D01*
X98269806Y-142758729D01*
X98269805Y-142758728D01*
X98269803Y-142758725D01*
X98104270Y-142593192D01*
X97912511Y-142458921D01*
X97912508Y-142458920D01*
X97912506Y-142458918D01*
X97700337Y-142359982D01*
X97474211Y-142299392D01*
X97474210Y-142299391D01*
X97474207Y-142299391D01*
X97241000Y-142278988D01*
X97007792Y-142299391D01*
X96781661Y-142359982D01*
X96569496Y-142458917D01*
X96377725Y-142593196D01*
X96212193Y-142758728D01*
X96195446Y-142782646D01*
X96118218Y-142856575D01*
X96018577Y-142895322D01*
X95911693Y-142892989D01*
X95813838Y-142849930D01*
X95746554Y-142782646D01*
X95729806Y-142758728D01*
X95564270Y-142593192D01*
X95372511Y-142458921D01*
X95372508Y-142458920D01*
X95372506Y-142458918D01*
X95160337Y-142359982D01*
X94934211Y-142299392D01*
X94934210Y-142299391D01*
X94934207Y-142299391D01*
X94700999Y-142278988D01*
X94549852Y-142292212D01*
X94443578Y-142280573D01*
X94349847Y-142229151D01*
X94282930Y-142145774D01*
X94253014Y-142043136D01*
X94264653Y-141936862D01*
X94316075Y-141843131D01*
X94332213Y-141825519D01*
X96033328Y-140124404D01*
X96033333Y-140124401D01*
X96064768Y-140092965D01*
X96064772Y-140092964D01*
X96192964Y-139964772D01*
X96193445Y-139964005D01*
X96231697Y-139916035D01*
X96542983Y-139604750D01*
X96631874Y-139545357D01*
X96736728Y-139524500D01*
X101865500Y-139524500D01*
X101970355Y-139545357D01*
X102059247Y-139604753D01*
X102118643Y-139693645D01*
X102139500Y-139798499D01*
X102139500Y-140264954D01*
X102140360Y-140272591D01*
X102140361Y-140272600D01*
X102154631Y-140399254D01*
X102214210Y-140569521D01*
X102222683Y-140583005D01*
X102310184Y-140722262D01*
X102437738Y-140849816D01*
X102590478Y-140945789D01*
X102760745Y-141005368D01*
X102895046Y-141020500D01*
X102902737Y-141020500D01*
X104077263Y-141020500D01*
X104084954Y-141020500D01*
X104219255Y-141005368D01*
X104389522Y-140945789D01*
X104542262Y-140849816D01*
X104669816Y-140722262D01*
X104765789Y-140569522D01*
X104825368Y-140399255D01*
X104840500Y-140264954D01*
X104840500Y-137175046D01*
X104825368Y-137040745D01*
X104765789Y-136870478D01*
X104669816Y-136717738D01*
X104542262Y-136590184D01*
X104424199Y-136516000D01*
X104389521Y-136494210D01*
X104219254Y-136434631D01*
X104092600Y-136420361D01*
X104092591Y-136420360D01*
X104084954Y-136419500D01*
X102895046Y-136419500D01*
X102887409Y-136420360D01*
X102887399Y-136420361D01*
X102760745Y-136434631D01*
X102590478Y-136494210D01*
X102437737Y-136590184D01*
X102310184Y-136717737D01*
X102214210Y-136870478D01*
X102154631Y-137040745D01*
X102140361Y-137167399D01*
X102140360Y-137167409D01*
X102139500Y-137175046D01*
X102139500Y-137182737D01*
X102139500Y-137641500D01*
X102118643Y-137746355D01*
X102059247Y-137835247D01*
X101970355Y-137894643D01*
X101865500Y-137915500D01*
X99858907Y-137915500D01*
X99754052Y-137894643D01*
X99665160Y-137835247D01*
X99605764Y-137746355D01*
X99596706Y-137721039D01*
X99544397Y-137548601D01*
X99488743Y-137444479D01*
X99456136Y-137383475D01*
X99456135Y-137383474D01*
X99443414Y-137359674D01*
X99447327Y-137357582D01*
X99420167Y-137306763D01*
X99409691Y-137200368D01*
X99440729Y-137098063D01*
X99470565Y-137053412D01*
X99476136Y-137046625D01*
X99564396Y-136881501D01*
X99618747Y-136702331D01*
X99637099Y-136516000D01*
X99618747Y-136329669D01*
X99564396Y-136150499D01*
X99476136Y-135985375D01*
X99454802Y-135959379D01*
X99357357Y-135840642D01*
X99212625Y-135721864D01*
X99047501Y-135633604D01*
X98868331Y-135579253D01*
X98868330Y-135579253D01*
X98682000Y-135560901D01*
X98681999Y-135560901D01*
X98495668Y-135579253D01*
X98316498Y-135633604D01*
X98151374Y-135721864D01*
X98006642Y-135840642D01*
X97887864Y-135985374D01*
X97799604Y-136150498D01*
X97745253Y-136329668D01*
X97734889Y-136434901D01*
X97726901Y-136516000D01*
X97745253Y-136702331D01*
X97799604Y-136881501D01*
X97876037Y-137024499D01*
X97900586Y-137070426D01*
X97896672Y-137072518D01*
X97923835Y-137123344D01*
X97934307Y-137229740D01*
X97903266Y-137332044D01*
X97873434Y-137376687D01*
X97867865Y-137383471D01*
X97779602Y-137548601D01*
X97727294Y-137721039D01*
X97676897Y-137815324D01*
X97594255Y-137883147D01*
X97491949Y-137914181D01*
X97465093Y-137915500D01*
X96689124Y-137915500D01*
X96584269Y-137894643D01*
X96495377Y-137835247D01*
X95591401Y-136931271D01*
X95580057Y-136919221D01*
X95580030Y-136919191D01*
X95544565Y-136879159D01*
X95541974Y-136877371D01*
X95500518Y-136848755D01*
X95487188Y-136838947D01*
X95443083Y-136804393D01*
X95411523Y-136786594D01*
X95409163Y-136785699D01*
X95409162Y-136785698D01*
X95359128Y-136766722D01*
X95343848Y-136760393D01*
X95323073Y-136751043D01*
X95304563Y-136742713D01*
X95243188Y-136704656D01*
X95226733Y-136691152D01*
X95110625Y-136595864D01*
X94945501Y-136507604D01*
X94766331Y-136453253D01*
X94580000Y-136434901D01*
X94579999Y-136434901D01*
X94393668Y-136453253D01*
X94214498Y-136507604D01*
X94049374Y-136595864D01*
X93904642Y-136714642D01*
X93785864Y-136859374D01*
X93697604Y-137024498D01*
X93643253Y-137203668D01*
X93624901Y-137390000D01*
X93643253Y-137576331D01*
X93697604Y-137755501D01*
X93785864Y-137920625D01*
X93904642Y-138065357D01*
X93990948Y-138136186D01*
X94049375Y-138184136D01*
X94214499Y-138272396D01*
X94393669Y-138326747D01*
X94580000Y-138345099D01*
X94766331Y-138326747D01*
X94838033Y-138304996D01*
X94944429Y-138294516D01*
X95046735Y-138325550D01*
X95129378Y-138393373D01*
X95179774Y-138487658D01*
X95190254Y-138594053D01*
X95159220Y-138696359D01*
X95111320Y-138760944D01*
X95058045Y-138814218D01*
X95058038Y-138814226D01*
X95055233Y-138817032D01*
X95055228Y-138817036D01*
X95049870Y-138822394D01*
X94927033Y-138945230D01*
X94926545Y-138946008D01*
X94888295Y-138993969D01*
X91528035Y-142354228D01*
X91512025Y-142379708D01*
X91494251Y-142404758D01*
X91458766Y-142449256D01*
X91412875Y-142510227D01*
X91387469Y-142530356D01*
X91297729Y-142593192D01*
X91132193Y-142758728D01*
X91115446Y-142782646D01*
X91038218Y-142856575D01*
X90938577Y-142895322D01*
X90831693Y-142892989D01*
X90733838Y-142849930D01*
X90666554Y-142782646D01*
X90649806Y-142758728D01*
X90484270Y-142593192D01*
X90292511Y-142458921D01*
X90292508Y-142458920D01*
X90292506Y-142458918D01*
X90080337Y-142359982D01*
X89854211Y-142299392D01*
X89854210Y-142299391D01*
X89854207Y-142299391D01*
X89621000Y-142278988D01*
X89387792Y-142299391D01*
X89161661Y-142359982D01*
X88949496Y-142458917D01*
X88757725Y-142593196D01*
X88592196Y-142758725D01*
X88457917Y-142950496D01*
X88358982Y-143162661D01*
X88298391Y-143388792D01*
X88277988Y-143622000D01*
X88298391Y-143855207D01*
X88298391Y-143855210D01*
X88298392Y-143855211D01*
X88358982Y-144081337D01*
X88457918Y-144293506D01*
X88457920Y-144293508D01*
X88457921Y-144293511D01*
X88592192Y-144485270D01*
X88757729Y-144650807D01*
X88938827Y-144777613D01*
X88949494Y-144785082D01*
X89161663Y-144884018D01*
X89387789Y-144944608D01*
X89562697Y-144959910D01*
X89620999Y-144965011D01*
X89620999Y-144965010D01*
X89621000Y-144965011D01*
X89854211Y-144944608D01*
X90080337Y-144884018D01*
X90292506Y-144785082D01*
X90484271Y-144650806D01*
X90649806Y-144485271D01*
X90659654Y-144471207D01*
X90666552Y-144461356D01*
X90743779Y-144387426D01*
X90843420Y-144348678D01*
X90950304Y-144351010D01*
X91048159Y-144394067D01*
X91115448Y-144461356D01*
X91132194Y-144485272D01*
X91297729Y-144650807D01*
X91478827Y-144777613D01*
X91489494Y-144785082D01*
X91701663Y-144884018D01*
X91927789Y-144944608D01*
X92102697Y-144959910D01*
X92160999Y-144965011D01*
X92160999Y-144965010D01*
X92161000Y-144965011D01*
X92394211Y-144944608D01*
X92620337Y-144884018D01*
X92832506Y-144785082D01*
X93024271Y-144650806D01*
X93189806Y-144485271D01*
X93199654Y-144471207D01*
X93206552Y-144461356D01*
X93283779Y-144387426D01*
X93383420Y-144348678D01*
X93490304Y-144351010D01*
X93588159Y-144394067D01*
X93655448Y-144461356D01*
X93672194Y-144485272D01*
X93837729Y-144650807D01*
X93992791Y-144759383D01*
X94066721Y-144836610D01*
X94105468Y-144936251D01*
X94103136Y-145043135D01*
X94060078Y-145140990D01*
X94039974Y-145163714D01*
X93918849Y-145330428D01*
X93842056Y-145502909D01*
X93842055Y-145502912D01*
X93842055Y-145502913D01*
X93802800Y-145687596D01*
X93802800Y-145876406D01*
X93839113Y-146047248D01*
X93842056Y-146061092D01*
X93918849Y-146233573D01*
X94023017Y-146376947D01*
X94067775Y-146474036D01*
X94071973Y-146580863D01*
X94034969Y-146681164D01*
X93962399Y-146759671D01*
X93865310Y-146804429D01*
X93801346Y-146812000D01*
X85110000Y-146812000D01*
X85005145Y-146791143D01*
X84916253Y-146731747D01*
X84856857Y-146642855D01*
X84836000Y-146538000D01*
X84836000Y-140462000D01*
X81986927Y-140462000D01*
X81904192Y-140448894D01*
X81906671Y-140449629D01*
X81899765Y-140447778D01*
X81899748Y-140447773D01*
X81554126Y-140355164D01*
X81554112Y-140355161D01*
X81547204Y-140353310D01*
X81540142Y-140352191D01*
X81540121Y-140352187D01*
X81536208Y-140351568D01*
X81534852Y-140351067D01*
X81533098Y-140350695D01*
X81534592Y-140350972D01*
X81435907Y-140314563D01*
X81357403Y-140241991D01*
X81312646Y-140144901D01*
X81308450Y-140038074D01*
X81345455Y-139937773D01*
X81405253Y-139869137D01*
X81518881Y-139775885D01*
X81531773Y-139760176D01*
X81643910Y-139623538D01*
X81736814Y-139449727D01*
X81794024Y-139261132D01*
X81813341Y-139065000D01*
X81794024Y-138868868D01*
X81736814Y-138680273D01*
X81736813Y-138680272D01*
X81736813Y-138680270D01*
X81643911Y-138506464D01*
X81643910Y-138506462D01*
X81551100Y-138393373D01*
X81518883Y-138354116D01*
X81389270Y-138247746D01*
X81366538Y-138229090D01*
X81366536Y-138229089D01*
X81366535Y-138229088D01*
X81192729Y-138136186D01*
X81004131Y-138078975D01*
X80827315Y-138061561D01*
X80808000Y-138059659D01*
X80807999Y-138059659D01*
X80611868Y-138078975D01*
X80423270Y-138136186D01*
X80249464Y-138229088D01*
X80097116Y-138354116D01*
X79972088Y-138506464D01*
X79879186Y-138680270D01*
X79821975Y-138868868D01*
X79802659Y-139065000D01*
X79821975Y-139261131D01*
X79879186Y-139449729D01*
X79972088Y-139623535D01*
X80097116Y-139775883D01*
X80210747Y-139869137D01*
X80278569Y-139951779D01*
X80309604Y-140054085D01*
X80299125Y-140160480D01*
X80248728Y-140254766D01*
X80166086Y-140322588D01*
X80081762Y-140350906D01*
X80082902Y-140350695D01*
X80081511Y-140350990D01*
X80079795Y-140351567D01*
X80075887Y-140352186D01*
X80075870Y-140352189D01*
X80068796Y-140353310D01*
X80061891Y-140355160D01*
X80061873Y-140355164D01*
X79716251Y-140447773D01*
X79716229Y-140447780D01*
X79712450Y-140448792D01*
X79712448Y-140448793D01*
X79709329Y-140449629D01*
X79711807Y-140448894D01*
X79629073Y-140462000D01*
X77616605Y-140462000D01*
X77511750Y-140441143D01*
X77422858Y-140381747D01*
X77363462Y-140292855D01*
X77342605Y-140188396D01*
X77331935Y-132800349D01*
X78915701Y-132800349D01*
X78925820Y-133038532D01*
X78976045Y-133271580D01*
X79064936Y-133492790D01*
X79189930Y-133695795D01*
X79271628Y-133788621D01*
X79347436Y-133874755D01*
X79532920Y-134024523D01*
X79741046Y-134140790D01*
X79741049Y-134140791D01*
X79965828Y-134220211D01*
X80200800Y-134260500D01*
X80673684Y-134260500D01*
X80679497Y-134260500D01*
X80857541Y-134245346D01*
X81088249Y-134185275D01*
X81305486Y-134087077D01*
X81503003Y-133953579D01*
X81675118Y-133788621D01*
X81816879Y-133596947D01*
X81924207Y-133384074D01*
X81994016Y-133156123D01*
X82024298Y-132919654D01*
X82014180Y-132681468D01*
X81963954Y-132448419D01*
X81875064Y-132227210D01*
X81817469Y-132133669D01*
X81750069Y-132024204D01*
X81703557Y-131971357D01*
X81649938Y-131878866D01*
X81635795Y-131772896D01*
X81663282Y-131669580D01*
X81715493Y-131596583D01*
X81722256Y-131589819D01*
X81722262Y-131589816D01*
X81849816Y-131462262D01*
X81945789Y-131309522D01*
X82005368Y-131139255D01*
X82020500Y-131004954D01*
X82020500Y-129715046D01*
X82005368Y-129580745D01*
X81945789Y-129410478D01*
X81849816Y-129257738D01*
X81722262Y-129130184D01*
X81710302Y-129122669D01*
X81569521Y-129034210D01*
X81399254Y-128974631D01*
X81272600Y-128960361D01*
X81272591Y-128960360D01*
X81264954Y-128959500D01*
X79675046Y-128959500D01*
X79667409Y-128960360D01*
X79667399Y-128960361D01*
X79540745Y-128974631D01*
X79370478Y-129034210D01*
X79217737Y-129130184D01*
X79090184Y-129257737D01*
X78994210Y-129410478D01*
X78934631Y-129580745D01*
X78920361Y-129707399D01*
X78920360Y-129707409D01*
X78919500Y-129715046D01*
X78919500Y-131004954D01*
X78920360Y-131012591D01*
X78920361Y-131012600D01*
X78934631Y-131139254D01*
X78994210Y-131309521D01*
X79090184Y-131462262D01*
X79223151Y-131595229D01*
X79282547Y-131684121D01*
X79303404Y-131788976D01*
X79282547Y-131893831D01*
X79249700Y-131951904D01*
X79123122Y-132123049D01*
X79015792Y-132335926D01*
X78945984Y-132563875D01*
X78915701Y-132800349D01*
X77331935Y-132800349D01*
X77316556Y-122152404D01*
X77275396Y-93653394D01*
X77296102Y-93548510D01*
X77355369Y-93459533D01*
X77444175Y-93400009D01*
X77549000Y-93379000D01*
X82322430Y-93379000D01*
X82427285Y-93399857D01*
X82499689Y-93444062D01*
X83092863Y-93947305D01*
X83159326Y-94031043D01*
X83188685Y-94133842D01*
X83176469Y-94240051D01*
X83162468Y-94275124D01*
X83129936Y-94342677D01*
X83052605Y-94593379D01*
X83052604Y-94593384D01*
X83052604Y-94593385D01*
X83013500Y-94852818D01*
X83013500Y-95115182D01*
X83052604Y-95374615D01*
X83052605Y-95374620D01*
X83129936Y-95625321D01*
X83240845Y-95855625D01*
X83243772Y-95861704D01*
X83294865Y-95936643D01*
X83391568Y-96078481D01*
X83503686Y-96199315D01*
X83570019Y-96270805D01*
X83775143Y-96434386D01*
X83915978Y-96515697D01*
X84002360Y-96565570D01*
X84246581Y-96661419D01*
X84246584Y-96661420D01*
X84502370Y-96719802D01*
X84698506Y-96734500D01*
X84703617Y-96734500D01*
X84824383Y-96734500D01*
X84829494Y-96734500D01*
X85025630Y-96719802D01*
X85281416Y-96661420D01*
X85525643Y-96565568D01*
X85552500Y-96550061D01*
X85653735Y-96515697D01*
X85760416Y-96522689D01*
X85856300Y-96569974D01*
X85926791Y-96650353D01*
X85961156Y-96751588D01*
X85963500Y-96787353D01*
X85963500Y-99601275D01*
X85942643Y-99706130D01*
X85883247Y-99795022D01*
X85477505Y-100200763D01*
X85388613Y-100260159D01*
X85310621Y-100279696D01*
X85284672Y-100282252D01*
X85105498Y-100336604D01*
X84940374Y-100424864D01*
X84795642Y-100543642D01*
X84676864Y-100688374D01*
X84588604Y-100853498D01*
X84534253Y-101032668D01*
X84520668Y-101170604D01*
X84515901Y-101219000D01*
X84534253Y-101405331D01*
X84588604Y-101584501D01*
X84676864Y-101749625D01*
X84677703Y-101750647D01*
X84728101Y-101844932D01*
X84739900Y-101924473D01*
X84739900Y-117614647D01*
X84739400Y-117631191D01*
X84736168Y-117684607D01*
X84745814Y-117737241D01*
X84748303Y-117753596D01*
X84755059Y-117809231D01*
X84764792Y-117844139D01*
X84787792Y-117895247D01*
X84794122Y-117910528D01*
X84813098Y-117960562D01*
X84813099Y-117960563D01*
X84813994Y-117962923D01*
X84831793Y-117994483D01*
X84866347Y-118038588D01*
X84876155Y-118051918D01*
X84891169Y-118073669D01*
X84906559Y-118095965D01*
X84931770Y-118118300D01*
X84946621Y-118131457D01*
X84958671Y-118142801D01*
X86194749Y-119378879D01*
X86254143Y-119467768D01*
X86275000Y-119572623D01*
X86275000Y-127279000D01*
X87557174Y-128597807D01*
X88729448Y-129803576D01*
X88787586Y-129893295D01*
X88806964Y-129998434D01*
X88784632Y-130102985D01*
X88723990Y-130191032D01*
X88634271Y-130249170D01*
X88612530Y-130256776D01*
X88517501Y-130285602D01*
X88352374Y-130373864D01*
X88207642Y-130492642D01*
X88088864Y-130637374D01*
X88000604Y-130802498D01*
X87946253Y-130981668D01*
X87927901Y-131167999D01*
X87946253Y-131354331D01*
X88000604Y-131533501D01*
X88088864Y-131698625D01*
X88207642Y-131843357D01*
X88269145Y-131893831D01*
X88352375Y-131962136D01*
X88517499Y-132050396D01*
X88696669Y-132104747D01*
X88883000Y-132123099D01*
X89069331Y-132104747D01*
X89248501Y-132050396D01*
X89413625Y-131962136D01*
X89558357Y-131843357D01*
X89564507Y-131835864D01*
X89664450Y-131714083D01*
X89747092Y-131646260D01*
X89849398Y-131615225D01*
X89955793Y-131625704D01*
X90050078Y-131676101D01*
X90088060Y-131714082D01*
X90205642Y-131857357D01*
X90300686Y-131935357D01*
X90350375Y-131976136D01*
X90515499Y-132064396D01*
X90694669Y-132118747D01*
X90881000Y-132137099D01*
X90881001Y-132137098D01*
X90907858Y-132139744D01*
X90907388Y-132144507D01*
X90962953Y-132149973D01*
X91057244Y-132200359D01*
X91079902Y-132221185D01*
X92513551Y-133695795D01*
X93275000Y-134479000D01*
X108271679Y-134488636D01*
X108376518Y-134509560D01*
X108465372Y-134569013D01*
X108524710Y-134657943D01*
X108545500Y-134762636D01*
X108545500Y-141933814D01*
X108524643Y-142038669D01*
X108465247Y-142127561D01*
X108376355Y-142186957D01*
X108372019Y-142188710D01*
X108227659Y-142245638D01*
X108107078Y-142337078D01*
X108015638Y-142457659D01*
X107960122Y-142598438D01*
X107950476Y-142678763D01*
X107950475Y-142678777D01*
X107949500Y-142686898D01*
X107949499Y-142695064D01*
X107949499Y-142695081D01*
X107949499Y-144464918D01*
X107949499Y-144464934D01*
X107949500Y-144473102D01*
X107950475Y-144481223D01*
X107950476Y-144481236D01*
X107960122Y-144561561D01*
X107960122Y-144561563D01*
X107960123Y-144561564D01*
X107985892Y-144626909D01*
X108012243Y-144693732D01*
X108015639Y-144702342D01*
X108107078Y-144822922D01*
X108227658Y-144914361D01*
X108368436Y-144969877D01*
X108456898Y-144980500D01*
X108465081Y-144980500D01*
X110234919Y-144980500D01*
X110243102Y-144980500D01*
X110331564Y-144969877D01*
X110472342Y-144914361D01*
X110592922Y-144822922D01*
X110653094Y-144743572D01*
X110733068Y-144672627D01*
X110834107Y-144637686D01*
X110940825Y-144644071D01*
X111036977Y-144690808D01*
X111039617Y-144692836D01*
X111121374Y-144756470D01*
X111325497Y-144866936D01*
X111545019Y-144942298D01*
X111773951Y-144980500D01*
X112006049Y-144980500D01*
X112234981Y-144942298D01*
X112454503Y-144866936D01*
X112658626Y-144756470D01*
X112841784Y-144613913D01*
X112958413Y-144487219D01*
X113044773Y-144424203D01*
X113148677Y-144399030D01*
X113254304Y-144415536D01*
X113345575Y-144471207D01*
X113361579Y-144487211D01*
X113478216Y-144613913D01*
X113661374Y-144756470D01*
X113865497Y-144866936D01*
X114085019Y-144942298D01*
X114313951Y-144980500D01*
X114546049Y-144980500D01*
X114774981Y-144942298D01*
X114994503Y-144866936D01*
X115198626Y-144756470D01*
X115381784Y-144613913D01*
X115498413Y-144487219D01*
X115584773Y-144424203D01*
X115688677Y-144399030D01*
X115794304Y-144415536D01*
X115885575Y-144471207D01*
X115901579Y-144487211D01*
X116018216Y-144613913D01*
X116201374Y-144756470D01*
X116405497Y-144866936D01*
X116625019Y-144942298D01*
X116853951Y-144980500D01*
X117086049Y-144980500D01*
X117314981Y-144942298D01*
X117534503Y-144866936D01*
X117738626Y-144756470D01*
X117921784Y-144613913D01*
X118038412Y-144487220D01*
X118124771Y-144424203D01*
X118228675Y-144399030D01*
X118334302Y-144415536D01*
X118425573Y-144471207D01*
X118441587Y-144487220D01*
X118558216Y-144613913D01*
X118741374Y-144756470D01*
X118945497Y-144866936D01*
X119165019Y-144942298D01*
X119393951Y-144980500D01*
X119626049Y-144980500D01*
X119854981Y-144942298D01*
X120074503Y-144866936D01*
X120278626Y-144756470D01*
X120461784Y-144613913D01*
X120618979Y-144443153D01*
X120745924Y-144248849D01*
X120839157Y-144036300D01*
X120896134Y-143811305D01*
X120915300Y-143580000D01*
X120896134Y-143348695D01*
X120839157Y-143123700D01*
X120763182Y-142950496D01*
X120745925Y-142911153D01*
X120734058Y-142892989D01*
X120618979Y-142716847D01*
X120618977Y-142716845D01*
X120618976Y-142716843D01*
X120461786Y-142546089D01*
X120461785Y-142546088D01*
X120461784Y-142546087D01*
X120278626Y-142403530D01*
X120074503Y-142293064D01*
X120074502Y-142293063D01*
X120074501Y-142293063D01*
X119854980Y-142217701D01*
X119626049Y-142179500D01*
X119393951Y-142179500D01*
X119165019Y-142217701D01*
X118945498Y-142293063D01*
X118741373Y-142403530D01*
X118558216Y-142546087D01*
X118441588Y-142672779D01*
X118355226Y-142735797D01*
X118251322Y-142760969D01*
X118145695Y-142744463D01*
X118054424Y-142688791D01*
X118038412Y-142672779D01*
X117969974Y-142598436D01*
X117921784Y-142546087D01*
X117738626Y-142403530D01*
X117534503Y-142293064D01*
X117534502Y-142293063D01*
X117534501Y-142293063D01*
X117314980Y-142217701D01*
X117086049Y-142179500D01*
X116853951Y-142179500D01*
X116625019Y-142217701D01*
X116405498Y-142293063D01*
X116201373Y-142403530D01*
X116018216Y-142546087D01*
X115901588Y-142672779D01*
X115815226Y-142735797D01*
X115711322Y-142760969D01*
X115605695Y-142744463D01*
X115514424Y-142688791D01*
X115498412Y-142672779D01*
X115429974Y-142598436D01*
X115381784Y-142546087D01*
X115198626Y-142403530D01*
X114994503Y-142293064D01*
X114994502Y-142293063D01*
X114994501Y-142293063D01*
X114774980Y-142217701D01*
X114546049Y-142179500D01*
X114313951Y-142179500D01*
X114085019Y-142217701D01*
X113865498Y-142293063D01*
X113661373Y-142403530D01*
X113478216Y-142546087D01*
X113361588Y-142672779D01*
X113275226Y-142735797D01*
X113171322Y-142760969D01*
X113065695Y-142744463D01*
X112974424Y-142688791D01*
X112958412Y-142672779D01*
X112889974Y-142598436D01*
X112841784Y-142546087D01*
X112658626Y-142403530D01*
X112454503Y-142293064D01*
X112454502Y-142293063D01*
X112454501Y-142293063D01*
X112234980Y-142217701D01*
X112006049Y-142179500D01*
X111773951Y-142179500D01*
X111545019Y-142217701D01*
X111325498Y-142293063D01*
X111121373Y-142403530D01*
X111089585Y-142428272D01*
X111050213Y-142458917D01*
X111039712Y-142467090D01*
X110944155Y-142515034D01*
X110837525Y-142522761D01*
X110736055Y-142489094D01*
X110655193Y-142419159D01*
X110653093Y-142416425D01*
X110592923Y-142337079D01*
X110592922Y-142337078D01*
X110472342Y-142245639D01*
X110472340Y-142245638D01*
X110327981Y-142188710D01*
X110238088Y-142130840D01*
X110177184Y-142042975D01*
X110154540Y-141938491D01*
X110154500Y-141933814D01*
X110154500Y-136481182D01*
X124379500Y-136481182D01*
X124415156Y-136717737D01*
X124418605Y-136740620D01*
X124477413Y-136931271D01*
X124495937Y-136991323D01*
X124609772Y-137227704D01*
X124663674Y-137306763D01*
X124757568Y-137444481D01*
X124879907Y-137576331D01*
X124936019Y-137636805D01*
X125141143Y-137800386D01*
X125304401Y-137894643D01*
X125368360Y-137931570D01*
X125612581Y-138027419D01*
X125612584Y-138027420D01*
X125868370Y-138085802D01*
X126064506Y-138100500D01*
X126069617Y-138100500D01*
X126190383Y-138100500D01*
X126195494Y-138100500D01*
X126391630Y-138085802D01*
X126647416Y-138027420D01*
X126728825Y-137995469D01*
X126891639Y-137931570D01*
X126891641Y-137931568D01*
X126891643Y-137931568D01*
X127118857Y-137800386D01*
X127323981Y-137636805D01*
X127502433Y-137444479D01*
X127650228Y-137227704D01*
X127764063Y-136991323D01*
X127841396Y-136740615D01*
X127880500Y-136481182D01*
X127880500Y-136218818D01*
X127841396Y-135959385D01*
X127764063Y-135708677D01*
X127650228Y-135472296D01*
X127502433Y-135255521D01*
X127502431Y-135255518D01*
X127323985Y-135063199D01*
X127323983Y-135063198D01*
X127323981Y-135063195D01*
X127118857Y-134899614D01*
X127048553Y-134859023D01*
X126891639Y-134768429D01*
X126647418Y-134672580D01*
X126391631Y-134614198D01*
X126200588Y-134599881D01*
X126200568Y-134599880D01*
X126195494Y-134599500D01*
X126064506Y-134599500D01*
X126059432Y-134599880D01*
X126059411Y-134599881D01*
X125868368Y-134614198D01*
X125612581Y-134672580D01*
X125368360Y-134768429D01*
X125141146Y-134899612D01*
X124936014Y-135063199D01*
X124757568Y-135255518D01*
X124609771Y-135472297D01*
X124495936Y-135708678D01*
X124418605Y-135959379D01*
X124418604Y-135959384D01*
X124418604Y-135959385D01*
X124379500Y-136218818D01*
X124379500Y-136481182D01*
X110154500Y-136481182D01*
X110154500Y-134764022D01*
X110175357Y-134659167D01*
X110234753Y-134570275D01*
X110323645Y-134510879D01*
X110428497Y-134490022D01*
X115062000Y-134493000D01*
X122301000Y-127254000D01*
X122286080Y-116021413D01*
X122306798Y-115916534D01*
X122366076Y-115827563D01*
X122454889Y-115768050D01*
X122559716Y-115747053D01*
X122664599Y-115767771D01*
X122753570Y-115827049D01*
X122800446Y-115897003D01*
X122802883Y-115895701D01*
X122903864Y-116084625D01*
X123022642Y-116229357D01*
X123118137Y-116307727D01*
X123167375Y-116348136D01*
X123332499Y-116436396D01*
X123511669Y-116490747D01*
X123698000Y-116509099D01*
X123698001Y-116509098D01*
X123698003Y-116509099D01*
X123730496Y-116505898D01*
X123811843Y-116497886D01*
X123918234Y-116508364D01*
X124012521Y-116558759D01*
X124080344Y-116641401D01*
X124111379Y-116743707D01*
X124112699Y-116770566D01*
X124112699Y-120418447D01*
X124112199Y-120434988D01*
X124108968Y-120488405D01*
X124118614Y-120541041D01*
X124121103Y-120557396D01*
X124127859Y-120613031D01*
X124137592Y-120647939D01*
X124160592Y-120699047D01*
X124166922Y-120714328D01*
X124185898Y-120764362D01*
X124185899Y-120764363D01*
X124186794Y-120766723D01*
X124204593Y-120798283D01*
X124239147Y-120842388D01*
X124248955Y-120855718D01*
X124259849Y-120871500D01*
X124279359Y-120899765D01*
X124319391Y-120935230D01*
X124319421Y-120935257D01*
X124331471Y-120946601D01*
X125392597Y-122007726D01*
X125403927Y-122019761D01*
X125427466Y-122046331D01*
X125439435Y-122059841D01*
X125483474Y-122090238D01*
X125496808Y-122100050D01*
X125540920Y-122134609D01*
X125572472Y-122152404D01*
X125574835Y-122153300D01*
X125574838Y-122153302D01*
X125624876Y-122172279D01*
X125640136Y-122178599D01*
X125688962Y-122200574D01*
X125688965Y-122200574D01*
X125691268Y-122201611D01*
X125726158Y-122211337D01*
X125728666Y-122211641D01*
X125728673Y-122211644D01*
X125781817Y-122218096D01*
X125798134Y-122220580D01*
X125850793Y-122230231D01*
X125850793Y-122230230D01*
X125850794Y-122230231D01*
X125904212Y-122227000D01*
X125920755Y-122226500D01*
X126860112Y-122226500D01*
X126964967Y-122247357D01*
X127053859Y-122306753D01*
X127113255Y-122395645D01*
X127118460Y-122415526D01*
X127129123Y-122442564D01*
X127184639Y-122583342D01*
X127276078Y-122703922D01*
X127396658Y-122795361D01*
X127537436Y-122850877D01*
X127625898Y-122861500D01*
X127634081Y-122861500D01*
X128211919Y-122861500D01*
X128220102Y-122861500D01*
X128308564Y-122850877D01*
X128449342Y-122795361D01*
X128569922Y-122703922D01*
X128661361Y-122583342D01*
X128716877Y-122442564D01*
X128727500Y-122354102D01*
X128727500Y-120743898D01*
X128716877Y-120655436D01*
X128661361Y-120514658D01*
X128569922Y-120394078D01*
X128449342Y-120302639D01*
X128449340Y-120302638D01*
X128373909Y-120272891D01*
X128308564Y-120247123D01*
X128308563Y-120247122D01*
X128308561Y-120247122D01*
X128228236Y-120237476D01*
X128228223Y-120237475D01*
X128220102Y-120236500D01*
X127625898Y-120236500D01*
X127617777Y-120237475D01*
X127617763Y-120237476D01*
X127537438Y-120247122D01*
X127396659Y-120302638D01*
X127276078Y-120394078D01*
X127184638Y-120514659D01*
X127116180Y-120688257D01*
X127113517Y-120687206D01*
X127098951Y-120731783D01*
X127029383Y-120812961D01*
X126934045Y-120861337D01*
X126860112Y-120871500D01*
X126286123Y-120871500D01*
X126181268Y-120850643D01*
X126092376Y-120791247D01*
X125547952Y-120246823D01*
X125488556Y-120157931D01*
X125467699Y-120053076D01*
X125467699Y-117424286D01*
X125467699Y-114684316D01*
X125468197Y-114667843D01*
X125471431Y-114614392D01*
X125461782Y-114561739D01*
X125459292Y-114545374D01*
X125452540Y-114489768D01*
X125442812Y-114454870D01*
X125441773Y-114452561D01*
X125419813Y-114403769D01*
X125413484Y-114388488D01*
X125393608Y-114336079D01*
X125375805Y-114304515D01*
X125341252Y-114260411D01*
X125331440Y-114247077D01*
X125301041Y-114203035D01*
X125260985Y-114167548D01*
X125248935Y-114156205D01*
X124439753Y-113347023D01*
X124380357Y-113258131D01*
X124359500Y-113153276D01*
X124359500Y-112572000D01*
X125337901Y-112572000D01*
X125356253Y-112758331D01*
X125410604Y-112937501D01*
X125498864Y-113102625D01*
X125617642Y-113247357D01*
X125736350Y-113344778D01*
X125762375Y-113366136D01*
X125927499Y-113454396D01*
X126106669Y-113508747D01*
X126293000Y-113527099D01*
X126417199Y-113514866D01*
X126493445Y-113518035D01*
X126521793Y-113523231D01*
X126521794Y-113523230D01*
X126521795Y-113523231D01*
X126575212Y-113520000D01*
X126591755Y-113519500D01*
X126964112Y-113519500D01*
X127068967Y-113540357D01*
X127157859Y-113599753D01*
X127217255Y-113688645D01*
X127222460Y-113708526D01*
X127288638Y-113876339D01*
X127288639Y-113876342D01*
X127380078Y-113996922D01*
X127500658Y-114088361D01*
X127641436Y-114143877D01*
X127729898Y-114154500D01*
X127738081Y-114154500D01*
X128315919Y-114154500D01*
X128324102Y-114154500D01*
X128412564Y-114143877D01*
X128553342Y-114088361D01*
X128673922Y-113996922D01*
X128765361Y-113876342D01*
X128820877Y-113735564D01*
X128831500Y-113647102D01*
X128831500Y-112036898D01*
X128820877Y-111948436D01*
X128765361Y-111807658D01*
X128673922Y-111687078D01*
X128553342Y-111595639D01*
X128553340Y-111595638D01*
X128412561Y-111540122D01*
X128332236Y-111530476D01*
X128332223Y-111530475D01*
X128324102Y-111529500D01*
X127729898Y-111529500D01*
X127721777Y-111530475D01*
X127721763Y-111530476D01*
X127641438Y-111540122D01*
X127500659Y-111595638D01*
X127380076Y-111687079D01*
X127296228Y-111797649D01*
X127216251Y-111868595D01*
X127115212Y-111903535D01*
X127008493Y-111897150D01*
X126912342Y-111850411D01*
X126904080Y-111843892D01*
X126859930Y-111807659D01*
X126823625Y-111777864D01*
X126658501Y-111689604D01*
X126479331Y-111635253D01*
X126293000Y-111616901D01*
X126106668Y-111635253D01*
X125927498Y-111689604D01*
X125762374Y-111777864D01*
X125617642Y-111896642D01*
X125498864Y-112041374D01*
X125410604Y-112206498D01*
X125356253Y-112385668D01*
X125337901Y-112572000D01*
X124359500Y-112572000D01*
X124359500Y-107953000D01*
X124380357Y-107848145D01*
X124439753Y-107759253D01*
X124528645Y-107699857D01*
X124633500Y-107679000D01*
X127008009Y-107679000D01*
X127112864Y-107699857D01*
X127201756Y-107759253D01*
X127261152Y-107848145D01*
X127282009Y-107953000D01*
X127261152Y-108057855D01*
X127201756Y-108146747D01*
X127181833Y-108164805D01*
X127090642Y-108239642D01*
X126971864Y-108384374D01*
X126883604Y-108549498D01*
X126829253Y-108728668D01*
X126810901Y-108914999D01*
X126829253Y-109101331D01*
X126883604Y-109280501D01*
X126971864Y-109445625D01*
X127090642Y-109590357D01*
X127209421Y-109687836D01*
X127235375Y-109709136D01*
X127400499Y-109797396D01*
X127579669Y-109851747D01*
X127766000Y-109870099D01*
X127952331Y-109851747D01*
X128131501Y-109797396D01*
X128296625Y-109709136D01*
X128441357Y-109590357D01*
X128560136Y-109445625D01*
X128648396Y-109280501D01*
X128702747Y-109101331D01*
X128721099Y-108915000D01*
X128702747Y-108728669D01*
X128648396Y-108549499D01*
X128560136Y-108384375D01*
X128538836Y-108358420D01*
X128441357Y-108239642D01*
X128296624Y-108120863D01*
X128234382Y-108087594D01*
X128151740Y-108019771D01*
X128101344Y-107925485D01*
X128090866Y-107819090D01*
X128121900Y-107716784D01*
X128143000Y-107688334D01*
X128143000Y-106125124D01*
X128163857Y-106020269D01*
X128223253Y-105931377D01*
X128238378Y-105917667D01*
X128365635Y-105762604D01*
X128370685Y-105756450D01*
X128468232Y-105573954D01*
X128528300Y-105375934D01*
X128548583Y-105170000D01*
X129667417Y-105170000D01*
X129687700Y-105375934D01*
X129687701Y-105375937D01*
X129747767Y-105573952D01*
X129845316Y-105756452D01*
X129976589Y-105916410D01*
X130136547Y-106047683D01*
X130136548Y-106047683D01*
X130136550Y-106047685D01*
X130319046Y-106145232D01*
X130517066Y-106205300D01*
X130590781Y-106212560D01*
X130664690Y-106219840D01*
X130664692Y-106219840D01*
X130671392Y-106220500D01*
X130678113Y-106220500D01*
X131567887Y-106220500D01*
X131574608Y-106220500D01*
X131728934Y-106205300D01*
X131926954Y-106145232D01*
X132109450Y-106047685D01*
X132269410Y-105916410D01*
X132400685Y-105756450D01*
X132498232Y-105573954D01*
X132558300Y-105375934D01*
X132578583Y-105170000D01*
X132558300Y-104964066D01*
X132498232Y-104766046D01*
X132400685Y-104583550D01*
X132400683Y-104583547D01*
X132269410Y-104423589D01*
X132109452Y-104292316D01*
X131926952Y-104194767D01*
X131728932Y-104134699D01*
X131581309Y-104120159D01*
X131581288Y-104120158D01*
X131574608Y-104119500D01*
X130671392Y-104119500D01*
X130664712Y-104120157D01*
X130664690Y-104120159D01*
X130517067Y-104134699D01*
X130319047Y-104194767D01*
X130136547Y-104292316D01*
X129976589Y-104423589D01*
X129845316Y-104583547D01*
X129747767Y-104766047D01*
X129693375Y-104945357D01*
X129687700Y-104964066D01*
X129667417Y-105170000D01*
X128548583Y-105170000D01*
X128528300Y-104964066D01*
X128468232Y-104766046D01*
X128370685Y-104583550D01*
X128239410Y-104423590D01*
X128239407Y-104423588D01*
X128222290Y-104402730D01*
X128223024Y-104402126D01*
X128175351Y-104344035D01*
X128144319Y-104241728D01*
X128143000Y-104214876D01*
X128143000Y-101702622D01*
X128163857Y-101597767D01*
X128223250Y-101508878D01*
X128298749Y-101433379D01*
X128310748Y-101422083D01*
X128350841Y-101386565D01*
X128381242Y-101342518D01*
X128391039Y-101329203D01*
X128424049Y-101287071D01*
X128424050Y-101287068D01*
X128425612Y-101285075D01*
X128443403Y-101253531D01*
X128444300Y-101251163D01*
X128444302Y-101251162D01*
X128463285Y-101201106D01*
X128469605Y-101185848D01*
X128491573Y-101137039D01*
X128491573Y-101137036D01*
X128492613Y-101134727D01*
X128502336Y-101099850D01*
X128502641Y-101097333D01*
X128502644Y-101097327D01*
X128509099Y-101044161D01*
X128511576Y-101027890D01*
X128521231Y-100975208D01*
X128518000Y-100921792D01*
X128517500Y-100905248D01*
X128517500Y-100276754D01*
X128518000Y-100260211D01*
X128521231Y-100206794D01*
X128517672Y-100187375D01*
X128511580Y-100154134D01*
X128509096Y-100137817D01*
X128502644Y-100084673D01*
X128502641Y-100084666D01*
X128502337Y-100082158D01*
X128492611Y-100047268D01*
X128491574Y-100044965D01*
X128491574Y-100044962D01*
X128469599Y-99996136D01*
X128463279Y-99980876D01*
X128444302Y-99930838D01*
X128444300Y-99930835D01*
X128443404Y-99928472D01*
X128425612Y-99896924D01*
X128391049Y-99852808D01*
X128381238Y-99839474D01*
X128378567Y-99835604D01*
X128350841Y-99795435D01*
X128350375Y-99795022D01*
X128310770Y-99759934D01*
X128298735Y-99748606D01*
X128223249Y-99673119D01*
X128163856Y-99584230D01*
X128143000Y-99479376D01*
X128143000Y-97485124D01*
X128163857Y-97380269D01*
X128223253Y-97291377D01*
X128238378Y-97277667D01*
X128261571Y-97249407D01*
X128370685Y-97116450D01*
X128468232Y-96933954D01*
X128528300Y-96735934D01*
X128548583Y-96530000D01*
X129667417Y-96530000D01*
X129687700Y-96735934D01*
X129687701Y-96735937D01*
X129747767Y-96933952D01*
X129845316Y-97116452D01*
X129976589Y-97276410D01*
X130136547Y-97407683D01*
X130136548Y-97407683D01*
X130136550Y-97407685D01*
X130319046Y-97505232D01*
X130517066Y-97565300D01*
X130590781Y-97572560D01*
X130664690Y-97579840D01*
X130664692Y-97579840D01*
X130671392Y-97580500D01*
X130678113Y-97580500D01*
X131567887Y-97580500D01*
X131574608Y-97580500D01*
X131728934Y-97565300D01*
X131926954Y-97505232D01*
X132109450Y-97407685D01*
X132269410Y-97276410D01*
X132400685Y-97116450D01*
X132498232Y-96933954D01*
X132558300Y-96735934D01*
X132578583Y-96530000D01*
X132558300Y-96324066D01*
X132498232Y-96126046D01*
X132400685Y-95943550D01*
X132379881Y-95918200D01*
X132269410Y-95783589D01*
X132109452Y-95652316D01*
X131926952Y-95554767D01*
X131728932Y-95494699D01*
X131581309Y-95480159D01*
X131581288Y-95480158D01*
X131574608Y-95479500D01*
X130671392Y-95479500D01*
X130664712Y-95480157D01*
X130664690Y-95480159D01*
X130517067Y-95494699D01*
X130319047Y-95554767D01*
X130136547Y-95652316D01*
X129976589Y-95783589D01*
X129845316Y-95943547D01*
X129747767Y-96126047D01*
X129746235Y-96131099D01*
X129687700Y-96324066D01*
X129667417Y-96530000D01*
X128548583Y-96530000D01*
X128528300Y-96324066D01*
X128468232Y-96126046D01*
X128370685Y-95943550D01*
X128239410Y-95783590D01*
X128239407Y-95783588D01*
X128222290Y-95762730D01*
X128223024Y-95762126D01*
X128175351Y-95704035D01*
X128144319Y-95601728D01*
X128143000Y-95574876D01*
X128143000Y-95123000D01*
X118546624Y-95123000D01*
X118441769Y-95102143D01*
X118352877Y-95042747D01*
X116704401Y-93394271D01*
X116693057Y-93382221D01*
X116690203Y-93379000D01*
X116657565Y-93342159D01*
X116654974Y-93340371D01*
X116613518Y-93311755D01*
X116600188Y-93301947D01*
X116556083Y-93267393D01*
X116524523Y-93249594D01*
X116522163Y-93248699D01*
X116522162Y-93248698D01*
X116472128Y-93229722D01*
X116456847Y-93223392D01*
X116405739Y-93200392D01*
X116370831Y-93190659D01*
X116315196Y-93183903D01*
X116298841Y-93181414D01*
X116246207Y-93171768D01*
X116196181Y-93174795D01*
X116192791Y-93175000D01*
X116176249Y-93175500D01*
X114186124Y-93175500D01*
X114081269Y-93154643D01*
X113992377Y-93095247D01*
X111459253Y-90562123D01*
X111399857Y-90473231D01*
X111379000Y-90368376D01*
X111379000Y-89555000D01*
X111399857Y-89450145D01*
X111459253Y-89361253D01*
X111548145Y-89301857D01*
X111653000Y-89281000D01*
X116651577Y-89281000D01*
X116756432Y-89301857D01*
G37*
%TD.AperFunction*%
%TA.AperFunction,Conductor*%
%TO.N,GND*%
G36*
X85024751Y-65471664D02*
G01*
X85091736Y-65491532D01*
X85137347Y-65544460D01*
X85148412Y-65595249D01*
X85177582Y-74317246D01*
X85158122Y-74384351D01*
X85105471Y-74430282D01*
X85053247Y-74441661D01*
X77921802Y-74422335D01*
X77854816Y-74402468D01*
X77809204Y-74349541D01*
X77798138Y-74298197D01*
X77799036Y-73492500D01*
X77800207Y-72441999D01*
X81402417Y-72441999D01*
X81422699Y-72647932D01*
X81422700Y-72647934D01*
X81482768Y-72845954D01*
X81580315Y-73028450D01*
X81631609Y-73090952D01*
X81711589Y-73188410D01*
X81791570Y-73254047D01*
X81871550Y-73319685D01*
X82054046Y-73417232D01*
X82252066Y-73477300D01*
X82406392Y-73492500D01*
X82409442Y-73492500D01*
X82506558Y-73492500D01*
X82509608Y-73492500D01*
X82663934Y-73477300D01*
X82861954Y-73417232D01*
X83044450Y-73319685D01*
X83204410Y-73188410D01*
X83335685Y-73028450D01*
X83433232Y-72845954D01*
X83493300Y-72647934D01*
X83513583Y-72442000D01*
X83493300Y-72236066D01*
X83433232Y-72038046D01*
X83335685Y-71855550D01*
X83270047Y-71775569D01*
X83204410Y-71695589D01*
X83106952Y-71615609D01*
X83044450Y-71564315D01*
X82861954Y-71466768D01*
X82762944Y-71436733D01*
X82663932Y-71406699D01*
X82512641Y-71391798D01*
X82512626Y-71391797D01*
X82509608Y-71391500D01*
X82406392Y-71391500D01*
X82403374Y-71391797D01*
X82403358Y-71391798D01*
X82252067Y-71406699D01*
X82054043Y-71466769D01*
X81871551Y-71564314D01*
X81711589Y-71695589D01*
X81580314Y-71855551D01*
X81482769Y-72038043D01*
X81422699Y-72236067D01*
X81402417Y-72441999D01*
X77800207Y-72441999D01*
X77807861Y-65576198D01*
X77827620Y-65509182D01*
X77880475Y-65463486D01*
X77932197Y-65452338D01*
X85024751Y-65471664D01*
G37*
%TD.AperFunction*%
%TD*%
%TA.AperFunction,Conductor*%
%TO.N,/Power/VIN*%
G36*
X90221078Y-76141866D02*
G01*
X90267001Y-76194523D01*
X90278371Y-76246024D01*
X90287659Y-79348607D01*
X90268176Y-79415705D01*
X90251341Y-79436659D01*
X89902503Y-79785497D01*
X89841180Y-79818982D01*
X89814622Y-79821816D01*
X83738000Y-79811999D01*
X83738000Y-79812000D01*
X83718580Y-83967748D01*
X83698582Y-84034695D01*
X83645565Y-84080203D01*
X83593749Y-84091166D01*
X77881168Y-84052826D01*
X77814262Y-84032692D01*
X77768862Y-83979582D01*
X77758000Y-83928829D01*
X77758000Y-76285604D01*
X77777685Y-76218565D01*
X77830489Y-76172810D01*
X77881603Y-76161605D01*
X90153976Y-76122396D01*
X90221078Y-76141866D01*
G37*
%TD.AperFunction*%
%TD*%
M02*
