%TF.GenerationSoftware,KiCad,Pcbnew,(6.0.0-0)*%
%TF.CreationDate,2022-03-04T22:46:31-08:00*%
%TF.ProjectId,bitaxe,62697461-7865-42e6-9b69-6361645f7063,rev?*%
%TF.SameCoordinates,Original*%
%TF.FileFunction,Soldermask,Bot*%
%TF.FilePolarity,Negative*%
%FSLAX46Y46*%
G04 Gerber Fmt 4.6, Leading zero omitted, Abs format (unit mm)*
G04 Created by KiCad (PCBNEW (6.0.0-0)) date 2022-03-04 22:46:31*
%MOMM*%
%LPD*%
G01*
G04 APERTURE LIST*
G04 Aperture macros list*
%AMRoundRect*
0 Rectangle with rounded corners*
0 $1 Rounding radius*
0 $2 $3 $4 $5 $6 $7 $8 $9 X,Y pos of 4 corners*
0 Add a 4 corners polygon primitive as box body*
4,1,4,$2,$3,$4,$5,$6,$7,$8,$9,$2,$3,0*
0 Add four circle primitives for the rounded corners*
1,1,$1+$1,$2,$3*
1,1,$1+$1,$4,$5*
1,1,$1+$1,$6,$7*
1,1,$1+$1,$8,$9*
0 Add four rect primitives between the rounded corners*
20,1,$1+$1,$2,$3,$4,$5,0*
20,1,$1+$1,$4,$5,$6,$7,0*
20,1,$1+$1,$6,$7,$8,$9,0*
20,1,$1+$1,$8,$9,$2,$3,0*%
G04 Aperture macros list end*
%ADD10C,3.500000*%
%ADD11R,1.700000X1.700000*%
%ADD12O,1.700000X1.700000*%
%ADD13RoundRect,0.236600X0.295000X0.000000X-0.295000X0.000000X-0.295000X0.000000X0.295000X0.000000X0*%
%ADD14RoundRect,0.101600X3.225000X0.925000X-3.225000X0.925000X-3.225000X-0.925000X3.225000X-0.925000X0*%
%ADD15RoundRect,0.101600X3.225000X2.775000X-3.225000X2.775000X-3.225000X-2.775000X3.225000X-2.775000X0*%
G04 APERTURE END LIST*
D10*
%TO.C,H2*%
X67810000Y-55370000D03*
%TD*%
%TO.C,H1*%
X110290000Y-97880000D03*
%TD*%
D11*
%TO.C,J3*%
X74960000Y-104860000D03*
D12*
X77500000Y-104860000D03*
X80040000Y-104860000D03*
X82580000Y-104860000D03*
X85120000Y-104860000D03*
%TD*%
D11*
%TO.C,J4*%
X104850000Y-52790000D03*
D12*
X107390000Y-52790000D03*
%TD*%
D11*
%TO.C,J2*%
X87990000Y-52780000D03*
D12*
X90530000Y-52780000D03*
%TD*%
D11*
%TO.C,J5*%
X63610000Y-89540000D03*
D12*
X63610000Y-92080000D03*
X63610000Y-94620000D03*
%TD*%
D13*
%TO.C,IC1*%
X93224600Y-64275000D03*
X93224600Y-64725000D03*
X93224600Y-65175000D03*
X93224600Y-65625000D03*
X93224600Y-66075000D03*
X93224600Y-66525000D03*
X93224600Y-66975000D03*
X93224600Y-67425000D03*
X93224600Y-67875000D03*
X93224600Y-68325000D03*
X93224600Y-68775000D03*
X93224600Y-69225000D03*
X93224600Y-69675000D03*
X93224600Y-70125000D03*
X93224600Y-70575000D03*
X93224600Y-71025000D03*
X85355400Y-71025000D03*
X85355400Y-70575000D03*
X85355400Y-70125000D03*
X85355400Y-69675000D03*
X85355400Y-69225000D03*
X85355400Y-68775000D03*
X85355400Y-68325000D03*
X85355400Y-67875000D03*
X85355400Y-67425000D03*
X85355400Y-66975000D03*
X85355400Y-66525000D03*
X85355400Y-66075000D03*
X85355400Y-65625000D03*
X85355400Y-65175000D03*
X85355400Y-64725000D03*
X85355400Y-64275000D03*
D14*
X89290000Y-64650000D03*
D15*
X89290000Y-68850000D03*
%TD*%
D13*
%TO.C,IC2*%
X93224600Y-81715000D03*
X93224600Y-82165000D03*
X93224600Y-82615000D03*
X93224600Y-83065000D03*
X93224600Y-83515000D03*
X93224600Y-83965000D03*
X93224600Y-84415000D03*
X93224600Y-84865000D03*
X93224600Y-85315000D03*
X93224600Y-85765000D03*
X93224600Y-86215000D03*
X93224600Y-86665000D03*
X93224600Y-87115000D03*
X93224600Y-87565000D03*
X93224600Y-88015000D03*
X93224600Y-88465000D03*
X85355400Y-88465000D03*
X85355400Y-88015000D03*
X85355400Y-87565000D03*
X85355400Y-87115000D03*
X85355400Y-86665000D03*
X85355400Y-86215000D03*
X85355400Y-85765000D03*
X85355400Y-85315000D03*
X85355400Y-84865000D03*
X85355400Y-84415000D03*
X85355400Y-83965000D03*
X85355400Y-83515000D03*
X85355400Y-83065000D03*
X85355400Y-82615000D03*
X85355400Y-82165000D03*
X85355400Y-81715000D03*
D14*
X89290000Y-82090000D03*
D15*
X89290000Y-86290000D03*
%TD*%
M02*
