%TF.GenerationSoftware,KiCad,Pcbnew,8.0.7*%
%TF.CreationDate,2025-01-03T15:46:07-08:00*%
%TF.ProjectId,bitaxeSupra,62697461-7865-4537-9570-72612e6b6963,rev?*%
%TF.SameCoordinates,Original*%
%TF.FileFunction,Copper,L4,Bot*%
%TF.FilePolarity,Positive*%
%FSLAX46Y46*%
G04 Gerber Fmt 4.6, Leading zero omitted, Abs format (unit mm)*
G04 Created by KiCad (PCBNEW 8.0.7) date 2025-01-03 15:46:07*
%MOMM*%
%LPD*%
G01*
G04 APERTURE LIST*
G04 Aperture macros list*
%AMRoundRect*
0 Rectangle with rounded corners*
0 $1 Rounding radius*
0 $2 $3 $4 $5 $6 $7 $8 $9 X,Y pos of 4 corners*
0 Add a 4 corners polygon primitive as box body*
4,1,4,$2,$3,$4,$5,$6,$7,$8,$9,$2,$3,0*
0 Add four circle primitives for the rounded corners*
1,1,$1+$1,$2,$3*
1,1,$1+$1,$4,$5*
1,1,$1+$1,$6,$7*
1,1,$1+$1,$8,$9*
0 Add four rect primitives between the rounded corners*
20,1,$1+$1,$2,$3,$4,$5,0*
20,1,$1+$1,$4,$5,$6,$7,0*
20,1,$1+$1,$6,$7,$8,$9,0*
20,1,$1+$1,$8,$9,$2,$3,0*%
G04 Aperture macros list end*
%TA.AperFunction,EtchedComponent*%
%ADD10C,0.000000*%
%TD*%
%TA.AperFunction,SMDPad,CuDef*%
%ADD11RoundRect,0.150000X-0.150000X-0.625000X0.150000X-0.625000X0.150000X0.625000X-0.150000X0.625000X0*%
%TD*%
%TA.AperFunction,SMDPad,CuDef*%
%ADD12RoundRect,0.250000X-0.350000X-0.650000X0.350000X-0.650000X0.350000X0.650000X-0.350000X0.650000X0*%
%TD*%
%TA.AperFunction,ComponentPad*%
%ADD13C,0.800000*%
%TD*%
%TA.AperFunction,ComponentPad*%
%ADD14C,6.000000*%
%TD*%
%TA.AperFunction,ComponentPad*%
%ADD15R,1.700000X1.700000*%
%TD*%
%TA.AperFunction,ComponentPad*%
%ADD16O,1.700000X1.700000*%
%TD*%
%TA.AperFunction,ComponentPad*%
%ADD17C,0.400000*%
%TD*%
%TA.AperFunction,ComponentPad*%
%ADD18C,1.574800*%
%TD*%
%TA.AperFunction,ComponentPad*%
%ADD19C,1.700000*%
%TD*%
%TA.AperFunction,SMDPad,CuDef*%
%ADD20C,1.000000*%
%TD*%
%TA.AperFunction,SMDPad,CuDef*%
%ADD21RoundRect,0.150000X0.425000X-0.150000X0.425000X0.150000X-0.425000X0.150000X-0.425000X-0.150000X0*%
%TD*%
%TA.AperFunction,SMDPad,CuDef*%
%ADD22RoundRect,0.075000X0.500000X-0.075000X0.500000X0.075000X-0.500000X0.075000X-0.500000X-0.075000X0*%
%TD*%
%TA.AperFunction,ComponentPad*%
%ADD23O,1.800000X1.000000*%
%TD*%
%TA.AperFunction,ComponentPad*%
%ADD24O,2.100000X1.000000*%
%TD*%
%TA.AperFunction,SMDPad,CuDef*%
%ADD25R,0.900000X1.500000*%
%TD*%
%TA.AperFunction,SMDPad,CuDef*%
%ADD26R,1.500000X0.900000*%
%TD*%
%TA.AperFunction,SMDPad,CuDef*%
%ADD27R,0.900000X0.900000*%
%TD*%
%TA.AperFunction,ConnectorPad*%
%ADD28C,0.787400*%
%TD*%
%TA.AperFunction,SMDPad,CuDef*%
%ADD29RoundRect,0.055250X0.340750X0.055250X-0.340750X0.055250X-0.340750X-0.055250X0.340750X-0.055250X0*%
%TD*%
%TA.AperFunction,SMDPad,CuDef*%
%ADD30R,4.277000X2.000000*%
%TD*%
%TA.AperFunction,SMDPad,CuDef*%
%ADD31R,4.277000X5.300000*%
%TD*%
%TA.AperFunction,SMDPad,CuDef*%
%ADD32R,2.000000X2.000000*%
%TD*%
%TA.AperFunction,SMDPad,CuDef*%
%ADD33R,0.900000X1.800000*%
%TD*%
%TA.AperFunction,ViaPad*%
%ADD34C,0.800000*%
%TD*%
%TA.AperFunction,ViaPad*%
%ADD35C,0.500000*%
%TD*%
%TA.AperFunction,ViaPad*%
%ADD36C,1.000000*%
%TD*%
%TA.AperFunction,Conductor*%
%ADD37C,0.254000*%
%TD*%
%TA.AperFunction,Conductor*%
%ADD38C,0.508000*%
%TD*%
%TA.AperFunction,Conductor*%
%ADD39C,1.000000*%
%TD*%
%TA.AperFunction,Conductor*%
%ADD40C,0.200000*%
%TD*%
G04 APERTURE END LIST*
D10*
%TA.AperFunction,EtchedComponent*%
%TO.C,G\u002A\u002A\u002A*%
G36*
X110835225Y-83669191D02*
G01*
X111225774Y-84059740D01*
X110840646Y-84445290D01*
X110743775Y-84541920D01*
X110649131Y-84635592D01*
X110567917Y-84715197D01*
X110504115Y-84776859D01*
X110461707Y-84816699D01*
X110444677Y-84830841D01*
X110429633Y-84818501D01*
X110388808Y-84780268D01*
X110326321Y-84719953D01*
X110246154Y-84641434D01*
X110152289Y-84548587D01*
X110048708Y-84445290D01*
X109663579Y-84059740D01*
X110054128Y-83669191D01*
X110444677Y-83278642D01*
X110835225Y-83669191D01*
G37*
%TD.AperFunction*%
%TA.AperFunction,EtchedComponent*%
G36*
X106952962Y-84218195D02*
G01*
X107012788Y-84384727D01*
X107130174Y-84656382D01*
X107260097Y-84893409D01*
X107401616Y-85094547D01*
X107553792Y-85258537D01*
X107715685Y-85384116D01*
X107886356Y-85470027D01*
X107916657Y-85479077D01*
X107996489Y-85494470D01*
X108098933Y-85507422D01*
X108211773Y-85516200D01*
X108448024Y-85528872D01*
X108633717Y-85851383D01*
X108687239Y-85945026D01*
X108740061Y-86039000D01*
X108781920Y-86115205D01*
X108809482Y-86167559D01*
X108819410Y-86189981D01*
X108812654Y-86193248D01*
X108772106Y-86198329D01*
X108701063Y-86202393D01*
X108606604Y-86205090D01*
X108495806Y-86206067D01*
X108172203Y-86206067D01*
X108178046Y-87763614D01*
X108179056Y-88029567D01*
X108180108Y-88286071D01*
X108181182Y-88506491D01*
X108182369Y-88693760D01*
X108183761Y-88850811D01*
X108185446Y-88980576D01*
X108187518Y-89085988D01*
X108190065Y-89169980D01*
X108193180Y-89235484D01*
X108196952Y-89285434D01*
X108201474Y-89322762D01*
X108206835Y-89350400D01*
X108213126Y-89371282D01*
X108220439Y-89388341D01*
X108228864Y-89404508D01*
X108261787Y-89457864D01*
X108349332Y-89557893D01*
X108450475Y-89629877D01*
X108508694Y-89659932D01*
X108417585Y-89713326D01*
X108319765Y-89792653D01*
X108242377Y-89900266D01*
X108195128Y-90023485D01*
X108193591Y-90033321D01*
X108189824Y-90086905D01*
X108186397Y-90179408D01*
X108183334Y-90308844D01*
X108180661Y-90473224D01*
X108178401Y-90670562D01*
X108176578Y-90898870D01*
X108175218Y-91156162D01*
X108174344Y-91440449D01*
X108173980Y-91749745D01*
X108173471Y-93386531D01*
X107742630Y-93787538D01*
X107311790Y-94188545D01*
X107277386Y-94097910D01*
X107247290Y-94032073D01*
X107177868Y-93916154D01*
X107082976Y-93783702D01*
X106967059Y-93640128D01*
X106834561Y-93490847D01*
X106689927Y-93341272D01*
X106537600Y-93196816D01*
X106483754Y-93146978D01*
X106402109Y-93067371D01*
X106327474Y-92990122D01*
X106262576Y-92918696D01*
X106210143Y-92856560D01*
X106172904Y-92807181D01*
X106153586Y-92774024D01*
X106154918Y-92760556D01*
X106179628Y-92770243D01*
X106230444Y-92806551D01*
X106299366Y-92857410D01*
X106369454Y-92896819D01*
X106436950Y-92916253D01*
X106516137Y-92921454D01*
X106532152Y-92921097D01*
X106642284Y-92901731D01*
X106745371Y-92857661D01*
X106824867Y-92795630D01*
X106826684Y-92793536D01*
X106833773Y-92782700D01*
X106839814Y-92766544D01*
X106844873Y-92742039D01*
X106849018Y-92706155D01*
X106852314Y-92655863D01*
X106854829Y-92588133D01*
X106856628Y-92499937D01*
X106857778Y-92388244D01*
X106858346Y-92250025D01*
X106858398Y-92082251D01*
X106858000Y-91881892D01*
X106857219Y-91645920D01*
X106856122Y-91371304D01*
X106850337Y-89987937D01*
X106790861Y-89886750D01*
X106733692Y-89809469D01*
X106627929Y-89721251D01*
X106524473Y-89656939D01*
X106595168Y-89620671D01*
X106660367Y-89577358D01*
X106737556Y-89503287D01*
X106800898Y-89418954D01*
X106838416Y-89338263D01*
X106840403Y-89327806D01*
X106845101Y-89272011D01*
X106849184Y-89174805D01*
X106852651Y-89036374D01*
X106855498Y-88856905D01*
X106857723Y-88636583D01*
X106859323Y-88375593D01*
X106860296Y-88074124D01*
X106860639Y-87732359D01*
X106860755Y-86206067D01*
X106708307Y-86206067D01*
X106555859Y-86206067D01*
X106282673Y-85867470D01*
X106009487Y-85528872D01*
X106435121Y-85523240D01*
X106860755Y-85517608D01*
X106861024Y-84731444D01*
X106861292Y-83945279D01*
X106952962Y-84218195D01*
G37*
%TD.AperFunction*%
%TA.AperFunction,EtchedComponent*%
G36*
X110875684Y-85508401D02*
G01*
X110901173Y-85546235D01*
X110945271Y-85612062D01*
X111005209Y-85701741D01*
X111078222Y-85811131D01*
X111161542Y-85936090D01*
X111252402Y-86072478D01*
X111628268Y-86636921D01*
X111578013Y-86701135D01*
X111533263Y-86747758D01*
X111443903Y-86815237D01*
X111334780Y-86877924D01*
X111218190Y-86928062D01*
X111111453Y-86965971D01*
X111111453Y-88107771D01*
X111111446Y-88275760D01*
X111111559Y-88507622D01*
X111112114Y-88703489D01*
X111113445Y-88866832D01*
X111115885Y-89001120D01*
X111119767Y-89109823D01*
X111125425Y-89196412D01*
X111133192Y-89264355D01*
X111143400Y-89317123D01*
X111156384Y-89358185D01*
X111172477Y-89391011D01*
X111192011Y-89419071D01*
X111215321Y-89445835D01*
X111242739Y-89474772D01*
X111256864Y-89488805D01*
X111322178Y-89541654D01*
X111387734Y-89580913D01*
X111466066Y-89616790D01*
X111381498Y-89654924D01*
X111375494Y-89657712D01*
X111281872Y-89720387D01*
X111198671Y-89808646D01*
X111140101Y-89907615D01*
X111138050Y-89913353D01*
X111132956Y-89936914D01*
X111128511Y-89974168D01*
X111124674Y-90027659D01*
X111121401Y-90099929D01*
X111118649Y-90193524D01*
X111116374Y-90310985D01*
X111114534Y-90454858D01*
X111113085Y-90627686D01*
X111111983Y-90832012D01*
X111111187Y-91070380D01*
X111110652Y-91345334D01*
X111110335Y-91659417D01*
X111109217Y-93342654D01*
X110688391Y-93742728D01*
X110674494Y-93755934D01*
X110565705Y-93858938D01*
X110467267Y-93951493D01*
X110383136Y-94029930D01*
X110317265Y-94090579D01*
X110273609Y-94129771D01*
X110256123Y-94143836D01*
X110253726Y-94142893D01*
X110237968Y-94118544D01*
X110218096Y-94071351D01*
X110201334Y-94030446D01*
X110153397Y-93941437D01*
X110083781Y-93838666D01*
X109990413Y-93719559D01*
X109871219Y-93581541D01*
X109724123Y-93422036D01*
X109547051Y-93238470D01*
X109543132Y-93234475D01*
X109396872Y-93084228D01*
X109277197Y-92958886D01*
X109184596Y-92859026D01*
X109119552Y-92785223D01*
X109082554Y-92738053D01*
X109074086Y-92718092D01*
X109094636Y-92725916D01*
X109144690Y-92762100D01*
X109161332Y-92775007D01*
X109222126Y-92820072D01*
X109267670Y-92847117D01*
X109311821Y-92863145D01*
X109368432Y-92875156D01*
X109424247Y-92880245D01*
X109532354Y-92868158D01*
X109635541Y-92832791D01*
X109716601Y-92778902D01*
X109777901Y-92720173D01*
X109777784Y-91364474D01*
X109777450Y-91061641D01*
X109776407Y-90777058D01*
X109774652Y-90533703D01*
X109772182Y-90331350D01*
X109768993Y-90169770D01*
X109765081Y-90048738D01*
X109760444Y-89968026D01*
X109755076Y-89927406D01*
X109729641Y-89873164D01*
X109684106Y-89807892D01*
X109627056Y-89741021D01*
X109567001Y-89681715D01*
X109512452Y-89639140D01*
X109471918Y-89622460D01*
X109461738Y-89621456D01*
X109460241Y-89611288D01*
X109496605Y-89588775D01*
X109590651Y-89524440D01*
X109677420Y-89436473D01*
X109738314Y-89341998D01*
X109739156Y-89340168D01*
X109746794Y-89321373D01*
X109753334Y-89298885D01*
X109758862Y-89269539D01*
X109763465Y-89230169D01*
X109767229Y-89177612D01*
X109770239Y-89108701D01*
X109772582Y-89020272D01*
X109774344Y-88909160D01*
X109775610Y-88772200D01*
X109776467Y-88606226D01*
X109777001Y-88408073D01*
X109777298Y-88174578D01*
X109777443Y-87902574D01*
X109777901Y-86546497D01*
X109723429Y-86517344D01*
X109717003Y-86513566D01*
X109670874Y-86477206D01*
X109611948Y-86421367D01*
X109551012Y-86357292D01*
X109498855Y-86296221D01*
X109466268Y-86249396D01*
X109462396Y-86239552D01*
X109467939Y-86227474D01*
X109494743Y-86220368D01*
X109549610Y-86216913D01*
X109639339Y-86215787D01*
X109644743Y-86215764D01*
X109745420Y-86213103D01*
X109821565Y-86204306D01*
X109889472Y-86186406D01*
X109965431Y-86156439D01*
X110083913Y-86098122D01*
X110261573Y-85989272D01*
X110451696Y-85850389D01*
X110649303Y-85684906D01*
X110675153Y-85662002D01*
X110750198Y-85596617D01*
X110811604Y-85544759D01*
X110853607Y-85511228D01*
X110870442Y-85500822D01*
X110875684Y-85508401D01*
G37*
%TD.AperFunction*%
%TA.AperFunction,EtchedComponent*%
G36*
X94321726Y-88203688D02*
G01*
X94327450Y-89345307D01*
X94390708Y-89447836D01*
X94449755Y-89524977D01*
X94562645Y-89615543D01*
X94671323Y-89680721D01*
X94606011Y-89707774D01*
X94543402Y-89739855D01*
X94442182Y-89826730D01*
X94366349Y-89945412D01*
X94317438Y-90050447D01*
X94317235Y-91492995D01*
X94317031Y-92935544D01*
X94374332Y-92949316D01*
X94504813Y-92999651D01*
X94623731Y-93085425D01*
X94720321Y-93199404D01*
X94789662Y-93335721D01*
X94826830Y-93488511D01*
X94839564Y-93592695D01*
X94798954Y-93519767D01*
X94767864Y-93468659D01*
X94696223Y-93385706D01*
X94612548Y-93336540D01*
X94509179Y-93315767D01*
X94396328Y-93317778D01*
X94279739Y-93339423D01*
X94277012Y-93340249D01*
X94230067Y-93356189D01*
X94151537Y-93384567D01*
X94045832Y-93423686D01*
X93917364Y-93471846D01*
X93770541Y-93527347D01*
X93609773Y-93588491D01*
X93439472Y-93653579D01*
X93264047Y-93720910D01*
X93087908Y-93788787D01*
X92915465Y-93855510D01*
X92751128Y-93919380D01*
X92599308Y-93978697D01*
X92464414Y-94031763D01*
X92350857Y-94076879D01*
X92263046Y-94112345D01*
X92205393Y-94136462D01*
X92182306Y-94147531D01*
X92156950Y-94162429D01*
X92123410Y-94161789D01*
X92108335Y-94137849D01*
X92107708Y-94130648D01*
X92092011Y-94080784D01*
X92058316Y-94005401D01*
X92010789Y-93911903D01*
X91953592Y-93807696D01*
X91890888Y-93700184D01*
X91826843Y-93596772D01*
X91765618Y-93504865D01*
X91711378Y-93431868D01*
X91633746Y-93341345D01*
X91428675Y-93144290D01*
X91199837Y-92976294D01*
X90952588Y-92840495D01*
X90692285Y-92740029D01*
X90424283Y-92678034D01*
X90264283Y-92653320D01*
X90251592Y-91883221D01*
X90250405Y-91812732D01*
X90246370Y-91603183D01*
X90241813Y-91429431D01*
X90236204Y-91286956D01*
X90229012Y-91171235D01*
X90219709Y-91077750D01*
X90207764Y-91001978D01*
X90192648Y-90939400D01*
X90173831Y-90885494D01*
X90150784Y-90835740D01*
X90122975Y-90785617D01*
X90120847Y-90782042D01*
X90055158Y-90699440D01*
X89968535Y-90624924D01*
X89878803Y-90573944D01*
X89873811Y-90570360D01*
X89893019Y-90568784D01*
X89941313Y-90573315D01*
X90042375Y-90597494D01*
X90160102Y-90644707D01*
X90275032Y-90706919D01*
X90371015Y-90776491D01*
X90398820Y-90803695D01*
X90454315Y-90864996D01*
X90523987Y-90947126D01*
X90601656Y-91042752D01*
X90681141Y-91144537D01*
X90734840Y-91213508D01*
X90818912Y-91317242D01*
X90899591Y-91412229D01*
X90969785Y-91490190D01*
X91022398Y-91542845D01*
X91062638Y-91577211D01*
X91215232Y-91682141D01*
X91381116Y-91762486D01*
X91549910Y-91813887D01*
X91711234Y-91831990D01*
X91805458Y-91831990D01*
X91727919Y-91884679D01*
X91726511Y-91885637D01*
X91680191Y-91919536D01*
X91644507Y-91954123D01*
X91617967Y-91995254D01*
X91599082Y-92048782D01*
X91586361Y-92120563D01*
X91578314Y-92216452D01*
X91573451Y-92342305D01*
X91570280Y-92503975D01*
X91570271Y-92504579D01*
X91568454Y-92654882D01*
X91568425Y-92767967D01*
X91570389Y-92848244D01*
X91574549Y-92900125D01*
X91581111Y-92928019D01*
X91590277Y-92936337D01*
X91591076Y-92936279D01*
X91620124Y-92927830D01*
X91682001Y-92906515D01*
X91771195Y-92874430D01*
X91882191Y-92833666D01*
X92009476Y-92786318D01*
X92147538Y-92734478D01*
X92290864Y-92680241D01*
X92433940Y-92625699D01*
X92571254Y-92572945D01*
X92697292Y-92524073D01*
X92806541Y-92481175D01*
X92893488Y-92446347D01*
X92952621Y-92421679D01*
X92978425Y-92409267D01*
X92980554Y-92406582D01*
X92985763Y-92388149D01*
X92990120Y-92351420D01*
X92993668Y-92293796D01*
X92996447Y-92212681D01*
X92998497Y-92105477D01*
X92999861Y-91969587D01*
X93000578Y-91802416D01*
X93000690Y-91601364D01*
X93000238Y-91363836D01*
X92999262Y-91087234D01*
X92993897Y-89785247D01*
X92845552Y-89747576D01*
X92795197Y-89733623D01*
X92584188Y-89650458D01*
X92373511Y-89528486D01*
X92166508Y-89369879D01*
X91966522Y-89176806D01*
X91954304Y-89163562D01*
X91894802Y-89097043D01*
X91816697Y-89007551D01*
X91726200Y-88902295D01*
X91629520Y-88788485D01*
X91532865Y-88673329D01*
X91411974Y-88529984D01*
X91249584Y-88344170D01*
X91104594Y-88187826D01*
X90973619Y-88057822D01*
X90853274Y-87951029D01*
X90740175Y-87864315D01*
X90630938Y-87794552D01*
X90522177Y-87738608D01*
X90514875Y-87735308D01*
X90404294Y-87692014D01*
X90286919Y-87656257D01*
X90177336Y-87631939D01*
X90090130Y-87622966D01*
X90018498Y-87622966D01*
X90056588Y-87597653D01*
X91567307Y-87597653D01*
X91567708Y-87650108D01*
X91576720Y-87862890D01*
X91599702Y-88047668D01*
X91639589Y-88214539D01*
X91699311Y-88373600D01*
X91781803Y-88534948D01*
X91889995Y-88708680D01*
X91917006Y-88748242D01*
X92050892Y-88921724D01*
X92203075Y-89088150D01*
X92366516Y-89241311D01*
X92534179Y-89374999D01*
X92699026Y-89483007D01*
X92854021Y-89559125D01*
X92900901Y-89576869D01*
X92955065Y-89595307D01*
X92984250Y-89602457D01*
X92987222Y-89592193D01*
X92991070Y-89543051D01*
X92994468Y-89454586D01*
X92997396Y-89328175D01*
X92999836Y-89165195D01*
X93001767Y-88967024D01*
X93003170Y-88735040D01*
X93004026Y-88470619D01*
X93004316Y-88175140D01*
X93004259Y-88026074D01*
X93003937Y-87793751D01*
X93003352Y-87576138D01*
X93002527Y-87376604D01*
X93001489Y-87198520D01*
X93000260Y-87045257D01*
X92998866Y-86920185D01*
X92997331Y-86826675D01*
X92995680Y-86768097D01*
X92993937Y-86747822D01*
X92991503Y-86748422D01*
X92959821Y-86759684D01*
X92896275Y-86783599D01*
X92806237Y-86818064D01*
X92695077Y-86860979D01*
X92568166Y-86910239D01*
X92430874Y-86963742D01*
X92288571Y-87019386D01*
X92146628Y-87075069D01*
X92010417Y-87128688D01*
X91885306Y-87178140D01*
X91776668Y-87221323D01*
X91689872Y-87256135D01*
X91630289Y-87280473D01*
X91603290Y-87292234D01*
X91594124Y-87298428D01*
X91582050Y-87315882D01*
X91574136Y-87347708D01*
X91569576Y-87400731D01*
X91567568Y-87481772D01*
X91567307Y-87597653D01*
X90056588Y-87597653D01*
X90089298Y-87575915D01*
X90109228Y-87560563D01*
X90163325Y-87502836D01*
X90206982Y-87436061D01*
X90217845Y-87413574D01*
X90233814Y-87371933D01*
X90244274Y-87324765D01*
X90250353Y-87263036D01*
X90253174Y-87177714D01*
X90253865Y-87059764D01*
X90253865Y-86776270D01*
X90143230Y-86741395D01*
X90058403Y-86706242D01*
X89939051Y-86622638D01*
X89843108Y-86510508D01*
X89775444Y-86376095D01*
X89740927Y-86225641D01*
X89729100Y-86112301D01*
X89775716Y-86202561D01*
X89838802Y-86289077D01*
X89932429Y-86361967D01*
X90039340Y-86403558D01*
X90070304Y-86406574D01*
X90146405Y-86401553D01*
X90233759Y-86384628D01*
X90243350Y-86381914D01*
X90296052Y-86364473D01*
X90379854Y-86334744D01*
X90490374Y-86294407D01*
X90623228Y-86245146D01*
X90774034Y-86188642D01*
X90938409Y-86126576D01*
X91111969Y-86060630D01*
X91290333Y-85992487D01*
X91469118Y-85923827D01*
X91643940Y-85856333D01*
X91810416Y-85791686D01*
X91964165Y-85731569D01*
X92100803Y-85677662D01*
X92215947Y-85631648D01*
X92305215Y-85595208D01*
X92364223Y-85570025D01*
X92388590Y-85557779D01*
X92414471Y-85541528D01*
X92448806Y-85549415D01*
X92472066Y-85595165D01*
X92475889Y-85607757D01*
X92497208Y-85662159D01*
X92530356Y-85736720D01*
X92569968Y-85819160D01*
X92595756Y-85869606D01*
X92758633Y-86140535D01*
X92945653Y-86377530D01*
X93156687Y-86580498D01*
X93391607Y-86749341D01*
X93650281Y-86883965D01*
X93932582Y-86984274D01*
X94238379Y-87050172D01*
X94316002Y-87062069D01*
X94321583Y-88175140D01*
X94321726Y-88203688D01*
G37*
%TD.AperFunction*%
%TA.AperFunction,EtchedComponent*%
G36*
X105245907Y-92057041D02*
G01*
X105245907Y-92917613D01*
X105370928Y-92967812D01*
X105430008Y-92995089D01*
X105554364Y-93083226D01*
X105649593Y-93200838D01*
X105714408Y-93346505D01*
X105734620Y-93417897D01*
X105750000Y-93484787D01*
X105755573Y-93527171D01*
X105753328Y-93550543D01*
X105743744Y-93547509D01*
X105721785Y-93509348D01*
X105693905Y-93462287D01*
X105611304Y-93368746D01*
X105512841Y-93310573D01*
X105402588Y-93290562D01*
X105354520Y-93295517D01*
X105280084Y-93309868D01*
X105198761Y-93330325D01*
X105196858Y-93330871D01*
X105147588Y-93346997D01*
X105066904Y-93375570D01*
X104959208Y-93414896D01*
X104828901Y-93463281D01*
X104680384Y-93519031D01*
X104518060Y-93580452D01*
X104346329Y-93645850D01*
X104169594Y-93713530D01*
X103992255Y-93781799D01*
X103818714Y-93848961D01*
X103653373Y-93913324D01*
X103500633Y-93973193D01*
X103364896Y-94026874D01*
X103250563Y-94072673D01*
X103162036Y-94108895D01*
X103103716Y-94133846D01*
X103080005Y-94145833D01*
X103066191Y-94157840D01*
X103049936Y-94160477D01*
X103033194Y-94141356D01*
X103011533Y-94094620D01*
X102980518Y-94014414D01*
X102957215Y-93956363D01*
X102865871Y-93771175D01*
X102749948Y-93583181D01*
X102617823Y-93406421D01*
X102498437Y-93261820D01*
X102054938Y-93718972D01*
X102010996Y-93764104D01*
X101902447Y-93874102D01*
X101806275Y-93969421D01*
X101725747Y-94046955D01*
X101664126Y-94103597D01*
X101624678Y-94136240D01*
X101610667Y-94141776D01*
X101610188Y-94135996D01*
X101594021Y-94084945D01*
X101558675Y-94011146D01*
X101509185Y-93923607D01*
X101450586Y-93831333D01*
X101387913Y-93743331D01*
X101356524Y-93704912D01*
X101294815Y-93634712D01*
X101213091Y-93545222D01*
X101116602Y-93442104D01*
X101010600Y-93331021D01*
X100900335Y-93217634D01*
X100861484Y-93178017D01*
X100728732Y-93041405D01*
X100625077Y-92932341D01*
X100549720Y-92849813D01*
X100501860Y-92792811D01*
X100480696Y-92760325D01*
X100485428Y-92751343D01*
X100515255Y-92764856D01*
X100569376Y-92799853D01*
X100621986Y-92833797D01*
X100684304Y-92868648D01*
X100728345Y-92887115D01*
X100754000Y-92891983D01*
X100854280Y-92890795D01*
X100963060Y-92865032D01*
X101063798Y-92818099D01*
X101161904Y-92757447D01*
X101167267Y-91417164D01*
X101167527Y-91347696D01*
X101168186Y-91059654D01*
X101168058Y-90802734D01*
X101167160Y-90578444D01*
X101165509Y-90388289D01*
X101163121Y-90233776D01*
X101160012Y-90116412D01*
X101156200Y-90037703D01*
X101151701Y-89999156D01*
X101146978Y-89983090D01*
X101093056Y-89872002D01*
X101011135Y-89775451D01*
X100912147Y-89706778D01*
X100814920Y-89659712D01*
X100895809Y-89623496D01*
X100952938Y-89589809D01*
X101035424Y-89515822D01*
X101065003Y-89477437D01*
X102485038Y-89477437D01*
X102485038Y-91206887D01*
X102485101Y-91363235D01*
X102485493Y-91620762D01*
X102486217Y-91864144D01*
X102487246Y-92090323D01*
X102488553Y-92296239D01*
X102490109Y-92478834D01*
X102491887Y-92635049D01*
X102493859Y-92761825D01*
X102495998Y-92856105D01*
X102498276Y-92914828D01*
X102500665Y-92934936D01*
X102519082Y-92928771D01*
X102572479Y-92909080D01*
X102656175Y-92877532D01*
X102765668Y-92835843D01*
X102896456Y-92785727D01*
X103044036Y-92728899D01*
X103203906Y-92667074D01*
X103891518Y-92400612D01*
X103896970Y-91570235D01*
X103898110Y-91398476D01*
X103899062Y-91211383D01*
X103898896Y-91057340D01*
X103897027Y-90931497D01*
X103892866Y-90829007D01*
X103885829Y-90745021D01*
X103875328Y-90674692D01*
X103860777Y-90613171D01*
X103841589Y-90555610D01*
X103817178Y-90497162D01*
X103786957Y-90432977D01*
X103750340Y-90358209D01*
X103710480Y-90281669D01*
X103588173Y-90089899D01*
X103445758Y-89917878D01*
X103287874Y-89769139D01*
X103119161Y-89647217D01*
X102944256Y-89555645D01*
X102767800Y-89497956D01*
X102594431Y-89477684D01*
X102485038Y-89477437D01*
X101065003Y-89477437D01*
X101104781Y-89425817D01*
X101148140Y-89334529D01*
X101150874Y-89322142D01*
X101156156Y-89274719D01*
X101160633Y-89197578D01*
X101164335Y-89089011D01*
X101167294Y-88947312D01*
X101169541Y-88770773D01*
X101171107Y-88557687D01*
X101172024Y-88306346D01*
X101172322Y-88015043D01*
X101172322Y-86776270D01*
X101061688Y-86741395D01*
X100976861Y-86706242D01*
X100857509Y-86622638D01*
X100761566Y-86510508D01*
X100693901Y-86376095D01*
X100659385Y-86225641D01*
X100647558Y-86112301D01*
X100694174Y-86202561D01*
X100757393Y-86289208D01*
X100850913Y-86361994D01*
X100957591Y-86403513D01*
X100983192Y-86406375D01*
X101061203Y-86401151D01*
X101155540Y-86381207D01*
X101170133Y-86376746D01*
X101228147Y-86356820D01*
X101318109Y-86324409D01*
X101435294Y-86281315D01*
X101574974Y-86229342D01*
X101732423Y-86170292D01*
X101902914Y-86105966D01*
X102081721Y-86038168D01*
X102264115Y-85968700D01*
X102445372Y-85899364D01*
X102620763Y-85831963D01*
X102785563Y-85768298D01*
X102935043Y-85710173D01*
X103064479Y-85659390D01*
X103169142Y-85617751D01*
X103244306Y-85587059D01*
X103285245Y-85569115D01*
X103316302Y-85554335D01*
X103356014Y-85542142D01*
X103376900Y-85554798D01*
X103390524Y-85595165D01*
X103408235Y-85646507D01*
X103445078Y-85729953D01*
X103494694Y-85830182D01*
X103551983Y-85937350D01*
X103611849Y-86041616D01*
X103669192Y-86133138D01*
X103677407Y-86145375D01*
X103819863Y-86327650D01*
X103991568Y-86501823D01*
X104182778Y-86659787D01*
X104383750Y-86793439D01*
X104584739Y-86894673D01*
X104686352Y-86932559D01*
X104838590Y-86979085D01*
X105001368Y-87019755D01*
X105157351Y-87049874D01*
X105235489Y-87062262D01*
X105235832Y-87212384D01*
X105238365Y-87275518D01*
X105263321Y-87400449D01*
X105316628Y-87498900D01*
X105400372Y-87575467D01*
X105470856Y-87622966D01*
X105389637Y-87623274D01*
X105342452Y-87626378D01*
X105260955Y-87637788D01*
X105176626Y-87654651D01*
X105168801Y-87656518D01*
X105045374Y-87693013D01*
X104931246Y-87742438D01*
X104821443Y-87808680D01*
X104710993Y-87895628D01*
X104594922Y-88007171D01*
X104468254Y-88147195D01*
X104326018Y-88319590D01*
X104282507Y-88373427D01*
X104152540Y-88524765D01*
X104035793Y-88643604D01*
X103927727Y-88733388D01*
X103823802Y-88797564D01*
X103719480Y-88839575D01*
X103610222Y-88862866D01*
X103516457Y-88875353D01*
X103578967Y-88840531D01*
X103614314Y-88819059D01*
X103722445Y-88727057D01*
X103801212Y-88615712D01*
X103817538Y-88582297D01*
X103839986Y-88527551D01*
X103858492Y-88466967D01*
X103873521Y-88396066D01*
X103885538Y-88310368D01*
X103895008Y-88205395D01*
X103902396Y-88076666D01*
X103908168Y-87919703D01*
X103912789Y-87730026D01*
X103916722Y-87503155D01*
X103918938Y-87331049D01*
X103920220Y-87172141D01*
X103920579Y-87031738D01*
X103920037Y-86914473D01*
X103918615Y-86824977D01*
X103916334Y-86767883D01*
X103913217Y-86747822D01*
X103911509Y-86748169D01*
X103881561Y-86758513D01*
X103819409Y-86781673D01*
X103730439Y-86815544D01*
X103620033Y-86858017D01*
X103493574Y-86906988D01*
X103356446Y-86960350D01*
X103214031Y-87015995D01*
X103071713Y-87071817D01*
X102934875Y-87125710D01*
X102808900Y-87175568D01*
X102699172Y-87219283D01*
X102611073Y-87254749D01*
X102549987Y-87279860D01*
X102521297Y-87292509D01*
X102520880Y-87292735D01*
X102512403Y-87299608D01*
X102505397Y-87312441D01*
X102499752Y-87334805D01*
X102495353Y-87370271D01*
X102492090Y-87422410D01*
X102489848Y-87494794D01*
X102488517Y-87590994D01*
X102487983Y-87714581D01*
X102488134Y-87869126D01*
X102488858Y-88058200D01*
X102490041Y-88285376D01*
X102495456Y-89258651D01*
X102682987Y-89271588D01*
X102787792Y-89282177D01*
X102905062Y-89304056D01*
X103019997Y-89338459D01*
X103137092Y-89387853D01*
X103260844Y-89454704D01*
X103395750Y-89541480D01*
X103546306Y-89650647D01*
X103717009Y-89784672D01*
X103912355Y-89946021D01*
X104063378Y-90070861D01*
X104258942Y-90224002D01*
X104436714Y-90350755D01*
X104602421Y-90453993D01*
X104761789Y-90536591D01*
X104920541Y-90601423D01*
X105084404Y-90651362D01*
X105259103Y-90689283D01*
X105450363Y-90718060D01*
X105550635Y-90730584D01*
X105464210Y-90824345D01*
X105416622Y-90883718D01*
X105359239Y-90970458D01*
X105311846Y-91057287D01*
X105245907Y-91196469D01*
X105245907Y-91211383D01*
X105245907Y-92057041D01*
G37*
%TD.AperFunction*%
%TA.AperFunction,EtchedComponent*%
G36*
X96706501Y-85545981D02*
G01*
X96733746Y-85582419D01*
X96779421Y-85646962D01*
X96840714Y-85735534D01*
X96914811Y-85844058D01*
X96998900Y-85968457D01*
X97090168Y-86104653D01*
X97097526Y-86115680D01*
X97199815Y-86269346D01*
X97281048Y-86392518D01*
X97343387Y-86488969D01*
X97388996Y-86562474D01*
X97420041Y-86616805D01*
X97438685Y-86655736D01*
X97447092Y-86683040D01*
X97447426Y-86702490D01*
X97441852Y-86717861D01*
X97403760Y-86765286D01*
X97336242Y-86823661D01*
X97250643Y-86883879D01*
X97157364Y-86938652D01*
X97066802Y-86980692D01*
X96942462Y-87028906D01*
X96942462Y-88190661D01*
X96942504Y-88337706D01*
X96942711Y-88545010D01*
X96943077Y-88736786D01*
X96943586Y-88909299D01*
X96944219Y-89058812D01*
X96944961Y-89181593D01*
X96945795Y-89273905D01*
X96946704Y-89332013D01*
X96947671Y-89352183D01*
X96947698Y-89352180D01*
X96968225Y-89344530D01*
X97023120Y-89323347D01*
X97108047Y-89290323D01*
X97218668Y-89247151D01*
X97350647Y-89195523D01*
X97499647Y-89137132D01*
X97661330Y-89073671D01*
X98369779Y-88795393D01*
X98362012Y-87708027D01*
X98354244Y-86620662D01*
X98177209Y-86443627D01*
X98175209Y-86441626D01*
X98107799Y-86372952D01*
X98053813Y-86315646D01*
X98018693Y-86275644D01*
X98007881Y-86258886D01*
X98016822Y-86257395D01*
X98057030Y-86260608D01*
X98116841Y-86270096D01*
X98188347Y-86277931D01*
X98338102Y-86265427D01*
X98503088Y-86218008D01*
X98680623Y-86136997D01*
X98868029Y-86023716D01*
X99062626Y-85879484D01*
X99261732Y-85705624D01*
X99334897Y-85639603D01*
X99396864Y-85588785D01*
X99441359Y-85558013D01*
X99462319Y-85551933D01*
X99463756Y-85553759D01*
X99483075Y-85581451D01*
X99521185Y-85637535D01*
X99574657Y-85716869D01*
X99640060Y-85814309D01*
X99713966Y-85924713D01*
X99792943Y-86042938D01*
X99873563Y-86163841D01*
X99952394Y-86282279D01*
X100026007Y-86393110D01*
X100090971Y-86491190D01*
X100143858Y-86571378D01*
X100181237Y-86628529D01*
X100199677Y-86657502D01*
X100202687Y-86677535D01*
X100181029Y-86721509D01*
X100132175Y-86775372D01*
X100062480Y-86833989D01*
X99978298Y-86892226D01*
X99885982Y-86944948D01*
X99791888Y-86987021D01*
X99692913Y-87024362D01*
X99692913Y-88177971D01*
X99692913Y-88202922D01*
X99692989Y-88447975D01*
X99693264Y-88654867D01*
X99693841Y-88826811D01*
X99694822Y-88967021D01*
X99696308Y-89078709D01*
X99698400Y-89165087D01*
X99701201Y-89229369D01*
X99704811Y-89274768D01*
X99709332Y-89304496D01*
X99714866Y-89321766D01*
X99721514Y-89329790D01*
X99729377Y-89331783D01*
X99758104Y-89335512D01*
X99830765Y-89361581D01*
X99912972Y-89406164D01*
X99991721Y-89461696D01*
X100054008Y-89520613D01*
X100062167Y-89530468D01*
X100125193Y-89629410D01*
X100172661Y-89744429D01*
X100175591Y-89753963D01*
X100202672Y-89850092D01*
X100213384Y-89908414D01*
X100207608Y-89929456D01*
X100185224Y-89913747D01*
X100146112Y-89861816D01*
X100099776Y-89801503D01*
X100017517Y-89730768D01*
X99923233Y-89694737D01*
X99811097Y-89691652D01*
X99675283Y-89719754D01*
X99658101Y-89724970D01*
X99592826Y-89746835D01*
X99504354Y-89778285D01*
X99399613Y-89816671D01*
X99285531Y-89859345D01*
X99169038Y-89903657D01*
X99057061Y-89946958D01*
X98956530Y-89986601D01*
X98874373Y-90019936D01*
X98817519Y-90044314D01*
X98792896Y-90057087D01*
X98794223Y-90064982D01*
X98820552Y-90093977D01*
X98871986Y-90138478D01*
X98942306Y-90193903D01*
X99025294Y-90255672D01*
X99114729Y-90319201D01*
X99204392Y-90379909D01*
X99288064Y-90433214D01*
X99359525Y-90474534D01*
X99365144Y-90477509D01*
X99462868Y-90523448D01*
X99569044Y-90565033D01*
X99661658Y-90593591D01*
X99666067Y-90594667D01*
X99741312Y-90613106D01*
X99801360Y-90627954D01*
X99833561Y-90636083D01*
X99836707Y-90639436D01*
X99841704Y-90658717D01*
X99845973Y-90697180D01*
X99849559Y-90757325D01*
X99852512Y-90841650D01*
X99854880Y-90952654D01*
X99856709Y-91092836D01*
X99858049Y-91264694D01*
X99858946Y-91470729D01*
X99859450Y-91713438D01*
X99859607Y-91995320D01*
X99859607Y-93347654D01*
X99427244Y-93755422D01*
X99404238Y-93777116D01*
X99294849Y-93880180D01*
X99196559Y-93972643D01*
X99113209Y-94050904D01*
X99048639Y-94111360D01*
X99006690Y-94150408D01*
X98991200Y-94164448D01*
X98983944Y-94152795D01*
X98963748Y-94112367D01*
X98935831Y-94052805D01*
X98927664Y-94035265D01*
X98883562Y-93950046D01*
X98830779Y-93864455D01*
X98765619Y-93773887D01*
X98684386Y-93673735D01*
X98583382Y-93559395D01*
X98458911Y-93426260D01*
X98307276Y-93269726D01*
X98305399Y-93267810D01*
X98157582Y-93115980D01*
X98038670Y-92991444D01*
X97947409Y-92892768D01*
X97882544Y-92818517D01*
X97842823Y-92767257D01*
X97826990Y-92737553D01*
X97833794Y-92727970D01*
X97857596Y-92740102D01*
X97892514Y-92772586D01*
X97916248Y-92795183D01*
X97994394Y-92844432D01*
X98087213Y-92880163D01*
X98175683Y-92894206D01*
X98247284Y-92888511D01*
X98343301Y-92858010D01*
X98447917Y-92796900D01*
X98526055Y-92743139D01*
X98526055Y-91452690D01*
X98526019Y-91221891D01*
X98525836Y-90991437D01*
X98525421Y-90797043D01*
X98524687Y-90635699D01*
X98523549Y-90504396D01*
X98521921Y-90400123D01*
X98519717Y-90319872D01*
X98516852Y-90260631D01*
X98513238Y-90219392D01*
X98508791Y-90193146D01*
X98503425Y-90178881D01*
X98497053Y-90173589D01*
X98489591Y-90174259D01*
X98471920Y-90180672D01*
X98417968Y-90200893D01*
X98333520Y-90232837D01*
X98223354Y-90274688D01*
X98092251Y-90324627D01*
X97944990Y-90380840D01*
X97786350Y-90441511D01*
X97119574Y-90696744D01*
X97109156Y-92030574D01*
X97098737Y-93364404D01*
X96673016Y-93762351D01*
X96247294Y-94160299D01*
X96170263Y-94006964D01*
X96142674Y-93954637D01*
X96093816Y-93872976D01*
X96034864Y-93787659D01*
X95962404Y-93694573D01*
X95873024Y-93589607D01*
X95763314Y-93468650D01*
X95629859Y-93327592D01*
X95469249Y-93162319D01*
X95374914Y-93065374D01*
X95281923Y-92968131D01*
X95202872Y-92883678D01*
X95141624Y-92816203D01*
X95102043Y-92769895D01*
X95087991Y-92748941D01*
X95090868Y-92744264D01*
X95115019Y-92752041D01*
X95155710Y-92781367D01*
X95165367Y-92789255D01*
X95229267Y-92833723D01*
X95290480Y-92866566D01*
X95316736Y-92876166D01*
X95430229Y-92892950D01*
X95549155Y-92878166D01*
X95660118Y-92834757D01*
X95749721Y-92765667D01*
X95796766Y-92714519D01*
X95791394Y-91446728D01*
X95786022Y-90178937D01*
X95692257Y-90148066D01*
X95630330Y-90124001D01*
X95501543Y-90046464D01*
X95397330Y-89943431D01*
X95323210Y-89821157D01*
X95284699Y-89685901D01*
X95281411Y-89662346D01*
X95271258Y-89596642D01*
X95262743Y-89550365D01*
X95263870Y-89541935D01*
X95278975Y-89560050D01*
X95305553Y-89605670D01*
X95324570Y-89638094D01*
X95370170Y-89701605D01*
X95413066Y-89746248D01*
X95430694Y-89758928D01*
X95514043Y-89799520D01*
X95605620Y-89821644D01*
X95686267Y-89820117D01*
X95709181Y-89813143D01*
X95766534Y-89793254D01*
X95849794Y-89763222D01*
X95952460Y-89725498D01*
X96068028Y-89682535D01*
X96189997Y-89636783D01*
X96311864Y-89590693D01*
X96427125Y-89546717D01*
X96529280Y-89507305D01*
X96611824Y-89474909D01*
X96668255Y-89451981D01*
X96692072Y-89440971D01*
X96687231Y-89429777D01*
X96658014Y-89398671D01*
X96610349Y-89356238D01*
X96489318Y-89256395D01*
X96336170Y-89135564D01*
X96203754Y-89039220D01*
X96087095Y-88964239D01*
X95981218Y-88907500D01*
X95881149Y-88865880D01*
X95781913Y-88836256D01*
X95636105Y-88800461D01*
X95624307Y-87697840D01*
X95621954Y-87482338D01*
X95619482Y-87273333D01*
X95617086Y-87099696D01*
X95614616Y-86958072D01*
X95611923Y-86845104D01*
X95608856Y-86757438D01*
X95605267Y-86691718D01*
X95601005Y-86644589D01*
X95595922Y-86612695D01*
X95589867Y-86592680D01*
X95582692Y-86581189D01*
X95574245Y-86574866D01*
X95550190Y-86558265D01*
X95498780Y-86513511D01*
X95437647Y-86453974D01*
X95376874Y-86389999D01*
X95326543Y-86331933D01*
X95296738Y-86290123D01*
X95284758Y-86266055D01*
X95286841Y-86251655D01*
X95320616Y-86260230D01*
X95353148Y-86266914D01*
X95419803Y-86272800D01*
X95496967Y-86274010D01*
X95607121Y-86261676D01*
X95768216Y-86214805D01*
X95941656Y-86135294D01*
X96123220Y-86025472D01*
X96308692Y-85887663D01*
X96493853Y-85724195D01*
X96505163Y-85713404D01*
X96577511Y-85645392D01*
X96638159Y-85590075D01*
X96681035Y-85552894D01*
X96700072Y-85539291D01*
X96706501Y-85545981D01*
G37*
%TD.AperFunction*%
%TA.AperFunction,EtchedComponent*%
G36*
X117551978Y-84631446D02*
G01*
X117408593Y-84753929D01*
X117357351Y-84798345D01*
X117250367Y-84892961D01*
X117152838Y-84981656D01*
X117070371Y-85059203D01*
X117008573Y-85120373D01*
X116973054Y-85159940D01*
X116961784Y-85174683D01*
X116941173Y-85201915D01*
X116923062Y-85228277D01*
X116907287Y-85256429D01*
X116893689Y-85289028D01*
X116882106Y-85328734D01*
X116872377Y-85378206D01*
X116864340Y-85440103D01*
X116857834Y-85517083D01*
X116852698Y-85611806D01*
X116848770Y-85726931D01*
X116845889Y-85865117D01*
X116843894Y-86029022D01*
X116842623Y-86221306D01*
X116841916Y-86444627D01*
X116841610Y-86701645D01*
X116841545Y-86995019D01*
X116841559Y-87327407D01*
X116841619Y-87555697D01*
X116841952Y-87873173D01*
X116842603Y-88152341D01*
X116843599Y-88395236D01*
X116844965Y-88603897D01*
X116846729Y-88780360D01*
X116848918Y-88926663D01*
X116851559Y-89044842D01*
X116854677Y-89136935D01*
X116858300Y-89204980D01*
X116862455Y-89251012D01*
X116867168Y-89277070D01*
X116878577Y-89308226D01*
X116935759Y-89402897D01*
X117019252Y-89492370D01*
X117118220Y-89566337D01*
X117221830Y-89614491D01*
X117276108Y-89632921D01*
X117323429Y-89652795D01*
X117341641Y-89665981D01*
X117325794Y-89678653D01*
X117280349Y-89700535D01*
X117215681Y-89726148D01*
X117101531Y-89779032D01*
X116983060Y-89869944D01*
X116897633Y-89985964D01*
X116893671Y-89993444D01*
X116883481Y-90014628D01*
X116875060Y-90038148D01*
X116868209Y-90067938D01*
X116862729Y-90107931D01*
X116858418Y-90162062D01*
X116855079Y-90234262D01*
X116852511Y-90328468D01*
X116850515Y-90448611D01*
X116848994Y-90589040D01*
X116848890Y-90598626D01*
X116847437Y-90782446D01*
X116845957Y-91004006D01*
X116839937Y-91936728D01*
X116950141Y-91926665D01*
X117072216Y-91915969D01*
X117188994Y-91907519D01*
X117286335Y-91903508D01*
X117376162Y-91903737D01*
X117470400Y-91908007D01*
X117580972Y-91916118D01*
X117886215Y-91956593D01*
X118179448Y-92030141D01*
X118445953Y-92135300D01*
X118685313Y-92271739D01*
X118897113Y-92439128D01*
X119080939Y-92637137D01*
X119236373Y-92865434D01*
X119363001Y-93123689D01*
X119460407Y-93411572D01*
X119479871Y-93486304D01*
X119495620Y-93559932D01*
X119506130Y-93633392D01*
X119512487Y-93717140D01*
X119515776Y-93821636D01*
X119517084Y-93957338D01*
X119517347Y-94044669D01*
X119516676Y-94151474D01*
X119513804Y-94231084D01*
X119507717Y-94292299D01*
X119497406Y-94343924D01*
X119481858Y-94394760D01*
X119460062Y-94453611D01*
X119458056Y-94458814D01*
X119352858Y-94684259D01*
X119223392Y-94882650D01*
X119072458Y-95050860D01*
X118902851Y-95185758D01*
X118717371Y-95284216D01*
X118674960Y-95301063D01*
X118605462Y-95324716D01*
X118569462Y-95330995D01*
X118568476Y-95320967D01*
X118604019Y-95295695D01*
X118677603Y-95256245D01*
X118824002Y-95166551D01*
X118973098Y-95038521D01*
X119101549Y-94888943D01*
X119199002Y-94728298D01*
X119267605Y-94567329D01*
X119314489Y-94406662D01*
X119340790Y-94235974D01*
X119349703Y-94040685D01*
X119349743Y-94030300D01*
X119339393Y-93825340D01*
X119305883Y-93649759D01*
X119246700Y-93496975D01*
X119159327Y-93360409D01*
X119041250Y-93233477D01*
X119023281Y-93217159D01*
X118875488Y-93105835D01*
X118713447Y-93024332D01*
X118532150Y-92971121D01*
X118326592Y-92944673D01*
X118091765Y-92943460D01*
X118068218Y-92944554D01*
X117887016Y-92958833D01*
X117716957Y-92984480D01*
X117548962Y-93023967D01*
X117373953Y-93079772D01*
X117182852Y-93154369D01*
X116966580Y-93250233D01*
X116915321Y-93273712D01*
X116816728Y-93318283D01*
X116689159Y-93375511D01*
X116537890Y-93443046D01*
X116368196Y-93518537D01*
X116185351Y-93599636D01*
X115994633Y-93683993D01*
X115801314Y-93769257D01*
X115715367Y-93807098D01*
X115519969Y-93892974D01*
X115358064Y-93963733D01*
X115226339Y-94020646D01*
X115121482Y-94064987D01*
X115040177Y-94098029D01*
X114979112Y-94121043D01*
X114934973Y-94135304D01*
X114904446Y-94142082D01*
X114884218Y-94142652D01*
X114870975Y-94138285D01*
X114861403Y-94130255D01*
X114857136Y-94125659D01*
X114824653Y-94090072D01*
X114772177Y-94032128D01*
X114705973Y-93958756D01*
X114632308Y-93876886D01*
X114619370Y-93862541D01*
X114403144Y-93637346D01*
X114177034Y-93427318D01*
X113945951Y-93236060D01*
X113714805Y-93067176D01*
X113488508Y-92924267D01*
X113271972Y-92810938D01*
X113070107Y-92730792D01*
X112994020Y-92709415D01*
X112892415Y-92686191D01*
X112785939Y-92665823D01*
X112689578Y-92651157D01*
X112618317Y-92645036D01*
X112615148Y-92632226D01*
X112631373Y-92594018D01*
X112664519Y-92539357D01*
X112693873Y-92492129D01*
X112732736Y-92417950D01*
X112756759Y-92357035D01*
X112761033Y-92321246D01*
X112764958Y-92244264D01*
X112768400Y-92127437D01*
X112771349Y-91971690D01*
X112773792Y-91777948D01*
X112775718Y-91547136D01*
X112777115Y-91280180D01*
X112777972Y-90978004D01*
X112778277Y-90641533D01*
X112778371Y-89317528D01*
X114091108Y-89317528D01*
X114091108Y-91137351D01*
X114091124Y-91268340D01*
X114091324Y-91581884D01*
X114091779Y-91856758D01*
X114092519Y-92095135D01*
X114093575Y-92299186D01*
X114094980Y-92471082D01*
X114096762Y-92612993D01*
X114098955Y-92727092D01*
X114101589Y-92815549D01*
X114104694Y-92880536D01*
X114108303Y-92924224D01*
X114112446Y-92948784D01*
X114117154Y-92956388D01*
X114136965Y-92950668D01*
X114191269Y-92931808D01*
X114274070Y-92901812D01*
X114379852Y-92862775D01*
X114503093Y-92816792D01*
X114638277Y-92765959D01*
X114779885Y-92712370D01*
X114922397Y-92658122D01*
X115060296Y-92605309D01*
X115188063Y-92556027D01*
X115300178Y-92512371D01*
X115391125Y-92476437D01*
X115455383Y-92450319D01*
X115487435Y-92436114D01*
X115494519Y-92431631D01*
X115500849Y-92424433D01*
X115506348Y-92411990D01*
X115511076Y-92391701D01*
X115515090Y-92360964D01*
X115518450Y-92317175D01*
X115521212Y-92257733D01*
X115523436Y-92180037D01*
X115525180Y-92081483D01*
X115526502Y-91959471D01*
X115527461Y-91811397D01*
X115528114Y-91634660D01*
X115528521Y-91426658D01*
X115528739Y-91184789D01*
X115528828Y-90906450D01*
X115528844Y-90589040D01*
X115528840Y-90460198D01*
X115528776Y-90158027D01*
X115528595Y-89893991D01*
X115528244Y-89665545D01*
X115527672Y-89470144D01*
X115526826Y-89305242D01*
X115525657Y-89168294D01*
X115524111Y-89056756D01*
X115522138Y-88968081D01*
X115519685Y-88899726D01*
X115516701Y-88849144D01*
X115513134Y-88813791D01*
X115508933Y-88791121D01*
X115504046Y-88778589D01*
X115498421Y-88773650D01*
X115492007Y-88773760D01*
X115470968Y-88781043D01*
X115414240Y-88802215D01*
X115327417Y-88835290D01*
X115215197Y-88878461D01*
X115082278Y-88929919D01*
X114933359Y-88987855D01*
X114773139Y-89050461D01*
X114091108Y-89317528D01*
X112778371Y-89317528D01*
X112778393Y-89003086D01*
X112643473Y-88915183D01*
X112527772Y-88831449D01*
X112404602Y-88711659D01*
X112317738Y-88580371D01*
X112264153Y-88432683D01*
X112240816Y-88263696D01*
X112239716Y-88240355D01*
X112238183Y-88150258D01*
X112243184Y-88098152D01*
X112254925Y-88081374D01*
X112269582Y-88091671D01*
X112278654Y-88128257D01*
X112290888Y-88185580D01*
X112328977Y-88260788D01*
X112383353Y-88331148D01*
X112444186Y-88381612D01*
X112486931Y-88403560D01*
X112533134Y-88418511D01*
X112585147Y-88424138D01*
X112647631Y-88419476D01*
X112725247Y-88403554D01*
X112822656Y-88375404D01*
X112944519Y-88334058D01*
X113095497Y-88278548D01*
X113280252Y-88207905D01*
X113303820Y-88198788D01*
X113444874Y-88143878D01*
X113572402Y-88093658D01*
X113681326Y-88050170D01*
X113766567Y-88015458D01*
X113823047Y-87991562D01*
X113845688Y-87980525D01*
X113844242Y-87977111D01*
X113817290Y-87954885D01*
X113760567Y-87915053D01*
X113678252Y-87860362D01*
X113574525Y-87793561D01*
X113453568Y-87717399D01*
X113319560Y-87634624D01*
X112778393Y-87303381D01*
X112778393Y-87233852D01*
X114094728Y-87233852D01*
X114095256Y-87409474D01*
X114096355Y-87553321D01*
X114098061Y-87667880D01*
X114100411Y-87755637D01*
X114103444Y-87819078D01*
X114107196Y-87860688D01*
X114111705Y-87882955D01*
X114117007Y-87888363D01*
X114262233Y-87832146D01*
X114386130Y-87782699D01*
X114481383Y-87742340D01*
X114553484Y-87708481D01*
X114607922Y-87678530D01*
X114650188Y-87649896D01*
X114685770Y-87619991D01*
X114772779Y-87539788D01*
X114872189Y-87701188D01*
X114916197Y-87770400D01*
X115021938Y-87924834D01*
X115140367Y-88085443D01*
X115260738Y-88237900D01*
X115372304Y-88367880D01*
X115392519Y-88389821D01*
X115446260Y-88445129D01*
X115487900Y-88483651D01*
X115509756Y-88498109D01*
X115511868Y-88488801D01*
X115514834Y-88441409D01*
X115517569Y-88355667D01*
X115520054Y-88233562D01*
X115522271Y-88077083D01*
X115524199Y-87888216D01*
X115525820Y-87668949D01*
X115527114Y-87421270D01*
X115528062Y-87147165D01*
X115528645Y-86848624D01*
X115528844Y-86527632D01*
X115528844Y-84557155D01*
X115484563Y-84571210D01*
X115465311Y-84578039D01*
X115409382Y-84598753D01*
X115323073Y-84631132D01*
X115211229Y-84673347D01*
X115078690Y-84723570D01*
X114930301Y-84779972D01*
X114770904Y-84840723D01*
X114101527Y-85096181D01*
X114096170Y-86497298D01*
X114095233Y-86777342D01*
X114094733Y-87023970D01*
X114094728Y-87233852D01*
X112778393Y-87233852D01*
X112778393Y-86051385D01*
X112778393Y-84799388D01*
X112575235Y-84702943D01*
X112534971Y-84683348D01*
X112333589Y-84568325D01*
X112165903Y-84441727D01*
X112033497Y-84305436D01*
X111937957Y-84161337D01*
X111880865Y-84011311D01*
X111863807Y-83857244D01*
X111866039Y-83757748D01*
X111885274Y-83843290D01*
X111912186Y-83913965D01*
X111970707Y-84003415D01*
X112046917Y-84083886D01*
X112129483Y-84141535D01*
X112162363Y-84156770D01*
X112296824Y-84198360D01*
X112450116Y-84219893D01*
X112607273Y-84218945D01*
X112618600Y-84217883D01*
X112659234Y-84212254D01*
X112706208Y-84202533D01*
X112763128Y-84187481D01*
X112833598Y-84165860D01*
X112921224Y-84136431D01*
X113029611Y-84097956D01*
X113162365Y-84049195D01*
X113323090Y-83988912D01*
X113515392Y-83915866D01*
X113742876Y-83828820D01*
X113787007Y-83811888D01*
X113977978Y-83738480D01*
X114157028Y-83669439D01*
X114320299Y-83606268D01*
X114463933Y-83550467D01*
X114584071Y-83503538D01*
X114676857Y-83466984D01*
X114738431Y-83442305D01*
X114764937Y-83431003D01*
X114781695Y-83420441D01*
X114828931Y-83384605D01*
X114882887Y-83338551D01*
X114962529Y-83266599D01*
X114988091Y-83345480D01*
X115021363Y-83432013D01*
X115078387Y-83552397D01*
X115147859Y-83679540D01*
X115222538Y-83799422D01*
X115222784Y-83799788D01*
X115261756Y-83851812D01*
X115318549Y-83920112D01*
X115387535Y-83998707D01*
X115463084Y-84081617D01*
X115539568Y-84162863D01*
X115611358Y-84236464D01*
X115672826Y-84296439D01*
X115718342Y-84336810D01*
X115742277Y-84351596D01*
X115749996Y-84346973D01*
X115784807Y-84318442D01*
X115843198Y-84267222D01*
X115921015Y-84197196D01*
X116014105Y-84112249D01*
X116118312Y-84016262D01*
X116229484Y-83913121D01*
X116343465Y-83806707D01*
X116456103Y-83700905D01*
X116563241Y-83599597D01*
X116660727Y-83506668D01*
X116744406Y-83426000D01*
X116810124Y-83361477D01*
X116853727Y-83316982D01*
X116871060Y-83296398D01*
X116877313Y-83284520D01*
X116900186Y-83268085D01*
X116917181Y-83277171D01*
X116962723Y-83308058D01*
X117030607Y-83356899D01*
X117115160Y-83419603D01*
X117210714Y-83492080D01*
X117503641Y-83724937D01*
X117823871Y-84000189D01*
X118123327Y-84280259D01*
X118399804Y-84562525D01*
X118651096Y-84844368D01*
X118874998Y-85123167D01*
X119069304Y-85396302D01*
X119231808Y-85661151D01*
X119360305Y-85915096D01*
X119452589Y-86155515D01*
X119465998Y-86199403D01*
X119508569Y-86360083D01*
X119541800Y-86519815D01*
X119563356Y-86666138D01*
X119570900Y-86786588D01*
X119570535Y-86807598D01*
X119560238Y-86925507D01*
X119538121Y-87057196D01*
X119507334Y-87188802D01*
X119471026Y-87306466D01*
X119432349Y-87396324D01*
X119378625Y-87484073D01*
X119253776Y-87632008D01*
X119105723Y-87748677D01*
X118939196Y-87831999D01*
X118758925Y-87879893D01*
X118569639Y-87890277D01*
X118376068Y-87861072D01*
X118230183Y-87813654D01*
X118061294Y-87734545D01*
X117905553Y-87636336D01*
X117772466Y-87525151D01*
X117671541Y-87407115D01*
X117664517Y-87395947D01*
X117666383Y-87389774D01*
X117692609Y-87411296D01*
X117740430Y-87458453D01*
X117887268Y-87591817D01*
X118063551Y-87708259D01*
X118251886Y-87787365D01*
X118456518Y-87831347D01*
X118468758Y-87832826D01*
X118659030Y-87836881D01*
X118839370Y-87806261D01*
X119004713Y-87743455D01*
X119149994Y-87650957D01*
X119270148Y-87531257D01*
X119360110Y-87386846D01*
X119383617Y-87334660D01*
X119428818Y-87212465D01*
X119457419Y-87089823D01*
X119472006Y-86953309D01*
X119475165Y-86789496D01*
X119475032Y-86776292D01*
X119472403Y-86669770D01*
X119465586Y-86583831D01*
X119452152Y-86503506D01*
X119429671Y-86413828D01*
X119395717Y-86299832D01*
X119350948Y-86167154D01*
X119255893Y-85940595D01*
X119136407Y-85714759D01*
X118989922Y-85485773D01*
X118813871Y-85249761D01*
X118605686Y-85002851D01*
X118362800Y-84741167D01*
X118252875Y-84628358D01*
X118155394Y-84534493D01*
X118072142Y-84467404D01*
X117997416Y-84427167D01*
X117925509Y-84413860D01*
X117850717Y-84427558D01*
X117767335Y-84468337D01*
X117669657Y-84536275D01*
X117643839Y-84557155D01*
X117551978Y-84631446D01*
G37*
%TD.AperFunction*%
%TD*%
D11*
%TO.P,J7,1,Pin_1*%
%TO.N,GND*%
X102000000Y-141675000D03*
%TO.P,J7,2,Pin_2*%
%TO.N,/5V*%
X103000000Y-141675000D03*
%TO.P,J7,3,Pin_3*%
%TO.N,/Fan/FAN_TACH*%
X104000000Y-141675000D03*
%TO.P,J7,4,Pin_4*%
%TO.N,/Fan/FAN_PWM*%
X105000000Y-141675000D03*
D12*
%TO.P,J7,MP,MountPin*%
%TO.N,unconnected-(J7-MountPin-PadMP)*%
X100700000Y-144200000D03*
X106300000Y-144200000D03*
%TD*%
D13*
%TO.P,H1,1,1*%
%TO.N,GND*%
X127985010Y-51120990D03*
X128644020Y-49530000D03*
X128644020Y-52711980D03*
X130235010Y-48870990D03*
D14*
X130235010Y-51120990D03*
D13*
X130235010Y-53370990D03*
X131826000Y-49530000D03*
X131826000Y-52711980D03*
X132485010Y-51120990D03*
%TD*%
%TO.P,H3,1,1*%
%TO.N,GND*%
X128052000Y-143728000D03*
X128711010Y-142137010D03*
X128711010Y-145318990D03*
X130302000Y-141478000D03*
D14*
X130302000Y-143728000D03*
D13*
X130302000Y-145978000D03*
X131892990Y-142137010D03*
X131892990Y-145318990D03*
X132552000Y-143728000D03*
%TD*%
D15*
%TO.P,J4,1,Pin_1*%
%TO.N,/5V*%
X99171505Y-51054000D03*
D16*
%TO.P,J4,2,Pin_2*%
%TO.N,GND*%
X101711505Y-51054000D03*
%TO.P,J4,3,Pin_3*%
%TO.N,Net-(J4-Pin_3)*%
X104251505Y-51054000D03*
%TO.P,J4,4,Pin_4*%
%TO.N,Net-(J4-Pin_4)*%
X106791505Y-51054000D03*
%TO.P,J4,5,Pin_5*%
%TO.N,Net-(J4-Pin_5)*%
X109331505Y-51054000D03*
%TO.P,J4,6,Pin_6*%
%TO.N,Net-(J4-Pin_6)*%
X111871505Y-51054000D03*
%TD*%
D13*
%TO.P,H4,1,1*%
%TO.N,GND*%
X78455010Y-143830990D03*
X79114020Y-142240000D03*
X79114020Y-145421980D03*
X80705010Y-141580990D03*
D14*
X80705010Y-143830990D03*
D13*
X80705010Y-146080990D03*
X82296000Y-142240000D03*
X82296000Y-145421980D03*
X82955010Y-143830990D03*
%TD*%
%TO.P,H2,1,1*%
%TO.N,GND*%
X78558000Y-51054000D03*
X79217010Y-49463010D03*
X79217010Y-52644990D03*
X80808000Y-48804000D03*
D14*
X80808000Y-51054000D03*
D13*
X80808000Y-53304000D03*
X82398990Y-49463010D03*
X82398990Y-52644990D03*
X83058000Y-51054000D03*
%TD*%
D17*
%TO.P,U2,41,PAD*%
%TO.N,GND*%
X92180000Y-78870000D03*
X93580000Y-78870000D03*
X94980000Y-78870000D03*
X91180000Y-77590000D03*
X92180000Y-77590000D03*
X93580000Y-77590000D03*
X94980000Y-77590000D03*
X95980000Y-77590000D03*
X92180000Y-76310000D03*
X93580000Y-76310000D03*
X94980000Y-76310000D03*
%TD*%
D18*
%TO.P,J6,1,Pin_1*%
%TO.N,GND*%
X89621000Y-143622000D03*
%TO.P,J6,2,Pin_2*%
%TO.N,/5V*%
X92161000Y-143622000D03*
%TO.P,J6,3,Pin_3*%
%TO.N,/Fan/FAN_TACH*%
X94701000Y-143622000D03*
%TO.P,J6,4,Pin_4*%
%TO.N,/Fan/FAN_PWM*%
X97241000Y-143622000D03*
%TD*%
D19*
%TO.P,J3,1,Pin_1*%
%TO.N,GND*%
X87005000Y-50292000D03*
D16*
%TO.P,J3,2,Pin_2*%
%TO.N,/3V3*%
X87405000Y-52832000D03*
%TO.P,J3,3,Pin_3*%
%TO.N,/SCL*%
X87005000Y-55372000D03*
%TO.P,J3,4,Pin_4*%
%TO.N,/SDA*%
X87405000Y-57912000D03*
%TD*%
D20*
%TO.P,FID7,*%
%TO.N,*%
X132260000Y-139060000D03*
%TD*%
D21*
%TO.P,J5,A1,GND*%
%TO.N,GND*%
X84545000Y-86460000D03*
%TO.P,J5,A4,VBUS*%
%TO.N,unconnected-(J5-VBUS-PadA4)*%
X84545000Y-85660000D03*
D22*
%TO.P,J5,A5,CC1*%
%TO.N,unconnected-(J5-CC1-PadA5)*%
X84545000Y-84510000D03*
%TO.P,J5,A6,D+*%
%TO.N,/ESP32/USB_D+*%
X84545000Y-83510000D03*
%TO.P,J5,A7,D-*%
%TO.N,/ESP32/USB_D-*%
X84545000Y-83010000D03*
%TO.P,J5,A8,SBU1*%
%TO.N,unconnected-(J5-SBU1-PadA8)*%
X84545000Y-82010000D03*
D21*
%TO.P,J5,B1,GND*%
%TO.N,GND*%
X84545000Y-80060000D03*
%TO.P,J5,B4,VBUS*%
%TO.N,unconnected-(J5-VBUS-PadB4)*%
X84545000Y-80860000D03*
D22*
%TO.P,J5,B5,CC2*%
%TO.N,unconnected-(J5-CC2-PadB5)*%
X84545000Y-81510000D03*
%TO.P,J5,B6,D+*%
%TO.N,/ESP32/USB_D+*%
X84545000Y-82510000D03*
%TO.P,J5,B7,D-*%
%TO.N,/ESP32/USB_D-*%
X84545000Y-84010000D03*
%TO.P,J5,B8,SBU2*%
%TO.N,unconnected-(J5-SBU2-PadB8)*%
X84545000Y-85010000D03*
D23*
%TO.P,J5,S1,SHIELD*%
%TO.N,GND*%
X79790000Y-87580000D03*
D24*
X83970000Y-87580000D03*
D23*
X79790000Y-78940000D03*
D24*
X83970000Y-78940000D03*
%TD*%
D25*
%TO.P,U4,1,GND*%
%TO.N,GND*%
X125690000Y-81360000D03*
%TO.P,U4,2,3V3*%
%TO.N,/3V3*%
X124420000Y-81360000D03*
%TO.P,U4,3,EN*%
%TO.N,/ESP32/EN*%
X123150000Y-81360000D03*
%TO.P,U4,4,GPIO4/TOUCH4/ADC1_CH3*%
%TO.N,unconnected-(U4-GPIO4{slash}TOUCH4{slash}ADC1_CH3-Pad4)*%
X121880000Y-81360000D03*
%TO.P,U4,5,GPIO5/TOUCH5/ADC1_CH4*%
%TO.N,unconnected-(U4-GPIO5{slash}TOUCH5{slash}ADC1_CH4-Pad5)*%
X120610000Y-81360000D03*
%TO.P,U4,6,GPIO6/TOUCH6/ADC1_CH5*%
%TO.N,unconnected-(U4-GPIO6{slash}TOUCH6{slash}ADC1_CH5-Pad6)*%
X119340000Y-81360000D03*
%TO.P,U4,7,GPIO7/TOUCH7/ADC1_CH6*%
%TO.N,unconnected-(U4-GPIO7{slash}TOUCH7{slash}ADC1_CH6-Pad7)*%
X118070000Y-81360000D03*
%TO.P,U4,8,GPIO15/U0RTS/ADC2_CH4/XTAL_32K_P*%
%TO.N,unconnected-(U4-GPIO15{slash}U0RTS{slash}ADC2_CH4{slash}XTAL_32K_P-Pad8)*%
X116800000Y-81360000D03*
%TO.P,U4,9,GPIO16/U0CTS/ADC2_CH5/XTAL_32K_NH5*%
%TO.N,unconnected-(U4-GPIO16{slash}U0CTS{slash}ADC2_CH5{slash}XTAL_32K_NH5-Pad9)*%
X115530000Y-81360000D03*
%TO.P,U4,10,GPIO17/U1TXD/ADC2_CH6*%
%TO.N,/TX*%
X114260000Y-81360000D03*
%TO.P,U4,11,GPIO18/U1RXD/ADC2_CH7/CLK_OUT3*%
%TO.N,/RX*%
X112990000Y-81360000D03*
%TO.P,U4,12,GPIO8/TOUCH8/ADC1_CH7/SUBSPICS1*%
%TO.N,unconnected-(U4-GPIO8{slash}TOUCH8{slash}ADC1_CH7{slash}SUBSPICS1-Pad12)*%
X111720000Y-81360000D03*
%TO.P,U4,13,GPIO19/U1RTS/ADC2_CH8/CLK_OUT2/USB_D-*%
%TO.N,/ESP32/USB_D-*%
X110450000Y-81360000D03*
%TO.P,U4,14,GPIO20/U1CTS/ADC2_CH9/CLK_OUT1/USB_D+*%
%TO.N,/ESP32/USB_D+*%
X109180000Y-81360000D03*
D26*
%TO.P,U4,15,GPIO3/TOUCH3/ADC1_CH2\u002A*%
%TO.N,/3V3*%
X107930000Y-79595000D03*
%TO.P,U4,16,\u002AGPIO46*%
%TO.N,unconnected-(U4-\u002AGPIO46-Pad16)*%
X107930000Y-78325000D03*
%TO.P,U4,17,GPIO9/TOUCH9/ADC1_CH8/FSPIHD/SUBSPIHD*%
%TO.N,unconnected-(U4-GPIO9{slash}TOUCH9{slash}ADC1_CH8{slash}FSPIHD{slash}SUBSPIHD-Pad17)*%
X107930000Y-77055000D03*
%TO.P,U4,18,GPIO10/TOUCH10/ADC1_CH9/FSPICS0/FSPIIO4/SUBSPICS0*%
%TO.N,unconnected-(U4-GPIO10{slash}TOUCH10{slash}ADC1_CH9{slash}FSPICS0{slash}FSPIIO4{slash}SUBSPICS0-Pad18)*%
X107930000Y-75785000D03*
%TO.P,U4,19,GPIO11/TOUCH11/ADC2_CH0/FSPID/FSPIIO5/SUBSPID*%
%TO.N,/Power/PGOOD*%
X107930000Y-74515000D03*
%TO.P,U4,20,GPIO12/TOUCH12/ADC2_CH1/FSPICLK/FSPIIO6/SUBSPICLK*%
%TO.N,unconnected-(U4-GPIO12{slash}TOUCH12{slash}ADC2_CH1{slash}FSPICLK{slash}FSPIIO6{slash}SUBSPICLK-Pad20)*%
X107930000Y-73245000D03*
%TO.P,U4,21,GPIO13/TOUCH13/ADC2_CH2/FSPIQ/FSPIIO7/SUBSPIQ*%
%TO.N,/Power/PMB_ALRT*%
X107930000Y-71975000D03*
%TO.P,U4,22,GPIO14/TOUCH14/ADC2_CH3/FSPIWP/FSPIDQS/SUBSPIWP*%
%TO.N,unconnected-(U4-GPIO14{slash}TOUCH14{slash}ADC2_CH3{slash}FSPIWP{slash}FSPIDQS{slash}SUBSPIWP-Pad22)*%
X107930000Y-70705000D03*
%TO.P,U4,23,GPIO21*%
%TO.N,unconnected-(U4-GPIO21-Pad23)*%
X107930000Y-69435000D03*
%TO.P,U4,24,GPIO47/SPICLK_P/SUBSPICLK_P_DIFF*%
%TO.N,/SDA*%
X107930000Y-68165000D03*
%TO.P,U4,25,GPIO48/SPICLK_N/SUBSPICLK_N_DIFF*%
%TO.N,/SCL*%
X107930000Y-66895000D03*
%TO.P,U4,26,\u002AGPIO45*%
%TO.N,unconnected-(U4-\u002AGPIO45-Pad26)*%
X107930000Y-65625000D03*
D25*
%TO.P,U4,27,GPIO0/BOOT\u002A*%
%TO.N,/ESP32/IO0*%
X109180000Y-63860000D03*
%TO.P,U4,28,SPIIO6/GPIO35/FSPID/SUBSPID*%
%TO.N,unconnected-(U4-SPIIO6{slash}GPIO35{slash}FSPID{slash}SUBSPID-Pad28)*%
X110450000Y-63860000D03*
%TO.P,U4,29,SPIIO7/GPIO36/FSPICLK/SUBSPICLK*%
%TO.N,unconnected-(U4-SPIIO7{slash}GPIO36{slash}FSPICLK{slash}SUBSPICLK-Pad29)*%
X111720000Y-63860000D03*
%TO.P,U4,30,SPIDQS/GPIO37/FSPIQ/SUBSPIQ*%
%TO.N,unconnected-(U4-SPIDQS{slash}GPIO37{slash}FSPIQ{slash}SUBSPIQ-Pad30)*%
X112990000Y-63860000D03*
%TO.P,U4,31,GPIO38/FSPIWP/SUBSPIWP*%
%TO.N,unconnected-(U4-GPIO38{slash}FSPIWP{slash}SUBSPIWP-Pad31)*%
X114260000Y-63860000D03*
%TO.P,U4,32,MTCK/GPIO39/CLK_OUT3/SUBSPICS1*%
%TO.N,Net-(J4-Pin_3)*%
X115530000Y-63860000D03*
%TO.P,U4,33,MTDO/GPIO40/CLK_OUT2*%
%TO.N,Net-(J4-Pin_4)*%
X116800000Y-63860000D03*
%TO.P,U4,34,MTDI/GPIO41/CLK_OUT1*%
%TO.N,Net-(J4-Pin_5)*%
X118070000Y-63860000D03*
%TO.P,U4,35,MTMS/GPIO42*%
%TO.N,Net-(J4-Pin_6)*%
X119340000Y-63860000D03*
%TO.P,U4,36,U0RXD/GPIO44/CLK_OUT2*%
%TO.N,/ESP32/P_RX*%
X120610000Y-63860000D03*
%TO.P,U4,37,U0TXD/GPIO43/CLK_OUT1*%
%TO.N,/ESP32/P_TX*%
X121880000Y-63860000D03*
%TO.P,U4,38,GPIO2/TOUCH2/ADC1_CH1*%
%TO.N,/VDD*%
X123150000Y-63860000D03*
%TO.P,U4,39,GPIO1/TOUCH1/ADC1_CH0*%
%TO.N,/RST*%
X124420000Y-63860000D03*
%TO.P,U4,40,GND*%
%TO.N,GND*%
X125690000Y-63860000D03*
D27*
%TO.P,U4,41,GND*%
X116570000Y-75510000D03*
X117970000Y-75510000D03*
X119370000Y-75510000D03*
X116570000Y-74110000D03*
X117970000Y-74110000D03*
X119370000Y-74110000D03*
X116570000Y-72710000D03*
X117970000Y-72710000D03*
X119370000Y-72710000D03*
%TD*%
D28*
%TO.P,J2,1,Pin_1*%
%TO.N,/ESP32/EN*%
X129400000Y-58365000D03*
%TO.P,J2,2,Pin_2*%
%TO.N,/3V3*%
X129400000Y-57095000D03*
%TO.P,J2,3,Pin_3*%
%TO.N,/ESP32/P_TX*%
X128130000Y-58365000D03*
%TO.P,J2,4,Pin_4*%
%TO.N,GND*%
X128130000Y-57095000D03*
%TO.P,J2,5,Pin_5*%
%TO.N,/ESP32/P_RX*%
X126860000Y-58365000D03*
%TO.P,J2,6,Pin_6*%
%TO.N,/ESP32/IO0*%
X126860000Y-57095000D03*
%TD*%
D29*
%TO.P,U8,1,VDD3_0*%
%TO.N,/BM1368/VDD1_0*%
X108526562Y-113032000D03*
%TO.P,U8,2,VDD2_0*%
%TO.N,/BM1368/VDD2_0*%
X108526562Y-113534000D03*
%TO.P,U8,3,VDD1_0*%
%TO.N,/BM1368/VDD3_0*%
X108526562Y-114036000D03*
%TO.P,U8,4,VSS*%
%TO.N,GND*%
X108526562Y-114538000D03*
%TO.P,U8,5,NRSTI*%
%TO.N,/BM1368/RST_N*%
X108526562Y-115040000D03*
%TO.P,U8,6,CI*%
%TO.N,/BM1368/CI*%
X108526562Y-115542000D03*
%TO.P,U8,7,RO*%
%TO.N,/BM1368/RO*%
X108526562Y-116044000D03*
%TO.P,U8,8,CLKI*%
%TO.N,/BM1368/CLKI*%
X108526562Y-116546000D03*
%TO.P,U8,9,BI*%
%TO.N,/BM1368/BI*%
X108526562Y-117048000D03*
%TO.P,U8,10,ROSC_SEL*%
%TO.N,Net-(U8-ROSC_SEL)*%
X108526562Y-117550000D03*
%TO.P,U8,11,LITE_PAD*%
%TO.N,Net-(U8-LITE_PAD)*%
X108526562Y-118052000D03*
%TO.P,U8,12,INV_CLKO*%
%TO.N,Net-(U8-INV_CLKO)*%
X108526562Y-118554000D03*
%TO.P,U8,13,PLL_VSS*%
%TO.N,GND*%
X108526562Y-119056000D03*
%TO.P,U8,14,VDDIO_08_0*%
%TO.N,/BM1368/0V8*%
X108526562Y-119558000D03*
%TO.P,U8,15,VDDIO_12_0*%
%TO.N,/BM1368/1V2*%
X108526562Y-120060000D03*
%TO.P,U8,16,VDDIO_12_1*%
%TO.N,Net-(U8-VDDIO_12_1)*%
X102694562Y-120060000D03*
%TO.P,U8,17,VDDIO_08_1*%
%TO.N,Net-(U8-VDDIO_08_1)*%
X102694562Y-119558000D03*
%TO.P,U8,18,VSS*%
%TO.N,GND*%
X102694562Y-119056000D03*
%TO.P,U8,19,PIN_MODE*%
%TO.N,/BM1368/PIN_MODE*%
X102694562Y-118554000D03*
%TO.P,U8,20,TEMP_P*%
%TO.N,/Fan/TEMP_P*%
X102694562Y-118052000D03*
%TO.P,U8,21,TEMP_N*%
%TO.N,/Fan/TEMP_N*%
X102694562Y-117550000D03*
%TO.P,U8,22,BO*%
%TO.N,/BM1368/BO*%
X102694562Y-117048000D03*
%TO.P,U8,23,CLKO*%
%TO.N,/BM1368/CLKO*%
X102694562Y-116546000D03*
%TO.P,U8,24,RI*%
%TO.N,/BM1368/RI*%
X102694562Y-116044000D03*
%TO.P,U8,25,CO*%
%TO.N,/BM1368/CO*%
X102694562Y-115542000D03*
%TO.P,U8,26,NRSTO*%
%TO.N,/BM1368/NRSTO*%
X102694562Y-115040000D03*
%TO.P,U8,27,VSS*%
%TO.N,GND*%
X102694562Y-114538000D03*
%TO.P,U8,28,VDD1_1*%
%TO.N,/BM1368/VDD3_1*%
X102694562Y-114036000D03*
%TO.P,U8,29,VDD2_1*%
%TO.N,/BM1368/VDD2_1*%
X102694562Y-113534000D03*
%TO.P,U8,30,VDD3_1*%
%TO.N,/BM1368/VDD1_1*%
X102694562Y-113032000D03*
D30*
%TO.P,U8,31,VDD*%
%TO.N,/VDD*%
X105610562Y-113676000D03*
D31*
%TO.P,U8,32,VSS*%
%TO.N,GND*%
X105610562Y-117786000D03*
%TD*%
D20*
%TO.P,FID8,*%
%TO.N,*%
X78850000Y-139070000D03*
%TD*%
D32*
%TO.P,J1,1*%
%TO.N,/5V*%
X82330000Y-72120000D03*
X88530000Y-72120000D03*
%TO.P,J1,2*%
%TO.N,GND*%
X82330000Y-61120000D03*
%TO.P,J1,3*%
X88530000Y-61120000D03*
%TD*%
D33*
%TO.P,SW1,1*%
%TO.N,GND*%
X132246000Y-104448000D03*
%TO.P,SW1,2*%
%TO.N,/ESP32/EN*%
X128136000Y-104448000D03*
%TD*%
D20*
%TO.P,FID5,*%
%TO.N,*%
X125270000Y-50310000D03*
%TD*%
D33*
%TO.P,SW2,1*%
%TO.N,GND*%
X132142000Y-113155000D03*
%TO.P,SW2,2*%
%TO.N,/ESP32/IO0*%
X128032000Y-113155000D03*
%TD*%
D20*
%TO.P,FID6,*%
%TO.N,*%
X78750000Y-55900000D03*
%TD*%
D34*
%TO.N,GND*%
X110930000Y-119290000D03*
X113580000Y-132650000D03*
X99600000Y-114090000D03*
X105580000Y-118749000D03*
X99603332Y-65740000D03*
X112180000Y-120800000D03*
X101756668Y-63050000D03*
X99653332Y-60280000D03*
X101750000Y-65750000D03*
X104640000Y-130470000D03*
X105540000Y-132550000D03*
X116540000Y-70920000D03*
X100796668Y-61640000D03*
X125600000Y-65940000D03*
X116770000Y-124080000D03*
X104088000Y-117780000D03*
D35*
X95080000Y-91220000D03*
D34*
X105556000Y-117786000D03*
D36*
X111860000Y-87470000D03*
D34*
X115260000Y-109040000D03*
X123750000Y-117530000D03*
X101736668Y-64460000D03*
D36*
X111860000Y-91040000D03*
D34*
X98450000Y-78230000D03*
X96070000Y-137650000D03*
X116050000Y-128010000D03*
D36*
X111860000Y-89030000D03*
D34*
X105580000Y-119790000D03*
X119270000Y-54220000D03*
X128130000Y-56090000D03*
X100750000Y-65740000D03*
X111730000Y-114130000D03*
D36*
X80680000Y-61050000D03*
D34*
X99550000Y-67970000D03*
X91790000Y-89910000D03*
X117090000Y-100360000D03*
X100736668Y-64450000D03*
X121580000Y-112400000D03*
D36*
X111860000Y-83000000D03*
D34*
X100800000Y-60280000D03*
X107100000Y-117750000D03*
X101800000Y-60290000D03*
X101796668Y-61650000D03*
X122640000Y-102460000D03*
X96070000Y-141200000D03*
X97250000Y-60250000D03*
X113180000Y-130220000D03*
X117910000Y-70950000D03*
X121090000Y-103540000D03*
X100965000Y-119265000D03*
X99610000Y-63040000D03*
X99590000Y-64450000D03*
X123710000Y-120230000D03*
X96600000Y-108920000D03*
X105580000Y-115626000D03*
X100490000Y-76620000D03*
X98460000Y-76630000D03*
X99490000Y-70390000D03*
X99390000Y-120780000D03*
X98500000Y-60280000D03*
X92680000Y-133370000D03*
X128690000Y-107620000D03*
X112512000Y-61250000D03*
X105580000Y-116667000D03*
X104560000Y-76600000D03*
X100756668Y-63040000D03*
X119454234Y-70914234D03*
D36*
X104625800Y-143125800D03*
X128020000Y-84450000D03*
X111860000Y-85460000D03*
D34*
X116990000Y-98200000D03*
X99650000Y-61640000D03*
X102570000Y-76600000D03*
X132297000Y-108743000D03*
X98460000Y-74920000D03*
%TO.N,/VDD*%
X102750000Y-98000000D03*
D35*
X120850000Y-69510000D03*
D34*
X107250000Y-100940000D03*
X102750000Y-99400000D03*
X108750000Y-100900000D03*
X84500000Y-76160000D03*
X105750000Y-98030000D03*
D35*
X99780000Y-81020000D03*
D34*
X107250000Y-99420000D03*
X104250000Y-100940000D03*
X102750000Y-100920000D03*
X104250000Y-99420000D03*
X107250000Y-98000000D03*
X105750000Y-100900000D03*
X104250000Y-98000000D03*
X108750000Y-98030000D03*
X108750000Y-99400000D03*
X105750000Y-99400000D03*
D35*
%TO.N,/ESP32/EN*%
X122101300Y-70905000D03*
X127228000Y-104448000D03*
D34*
%TO.N,/5V*%
X93000000Y-68975000D03*
X93000000Y-71720000D03*
X94000000Y-67500000D03*
D35*
X104700000Y-139400000D03*
D34*
X92000000Y-70347500D03*
X109280000Y-61185155D03*
X108290000Y-131179000D03*
X91992400Y-66000000D03*
X93000000Y-67500000D03*
X93000000Y-70347500D03*
X92000000Y-68975000D03*
X99710000Y-131420000D03*
X92000000Y-71720000D03*
D36*
X80680000Y-70950000D03*
D34*
X94000000Y-71720000D03*
X91992400Y-67442400D03*
X94000000Y-68975000D03*
X98770000Y-138720000D03*
X93000000Y-66000000D03*
X94000000Y-70347500D03*
X94000000Y-66000000D03*
%TO.N,/3V3*%
X111500000Y-55180000D03*
X129830000Y-56090000D03*
D36*
X126000000Y-84500000D03*
D34*
X123394000Y-86260000D03*
X112160000Y-74520000D03*
X95550000Y-135970000D03*
X112750000Y-55180000D03*
X122930000Y-99700000D03*
X118711400Y-59800000D03*
X127250000Y-107630000D03*
X115370000Y-61560000D03*
X95560000Y-126330000D03*
D35*
%TO.N,/TX*%
X116380000Y-79250000D03*
%TO.N,/RX*%
X115580000Y-78420000D03*
%TO.N,/RST*%
X121476817Y-70170000D03*
%TO.N,/Fan/FAN_TACH*%
X93570000Y-136800000D03*
%TO.N,/SCL*%
X94317599Y-134229617D03*
X88970000Y-81220000D03*
%TO.N,/Fan/FAN_PWM*%
X90900000Y-132700000D03*
%TO.N,Net-(U2-BP1V5)*%
X91690000Y-82980000D03*
X83660000Y-76570000D03*
%TO.N,/ESP32/P_TX*%
X123105000Y-61285000D03*
%TO.N,/ESP32/P_RX*%
X123040000Y-59730000D03*
%TO.N,/ESP32/IO0*%
X121244400Y-66945600D03*
X124830000Y-55100000D03*
X126520000Y-102640000D03*
%TO.N,Net-(U2-VDD5)*%
X92570000Y-74110000D03*
X102820000Y-73740000D03*
%TO.N,/Power/PGOOD*%
X89020000Y-82280000D03*
X109410000Y-74490000D03*
D34*
%TO.N,/BM1368/1V2*%
X110950000Y-124990000D03*
X124600000Y-101830000D03*
X117030000Y-103550000D03*
D35*
%TO.N,/SDA*%
X82130000Y-73910000D03*
X94340000Y-133580000D03*
X88990000Y-80510000D03*
X82390000Y-75900000D03*
D34*
%TO.N,Net-(U8-VDDIO_12_1)*%
X100770000Y-123700000D03*
%TO.N,Net-(U8-VDDIO_08_1)*%
X99180000Y-123710000D03*
D35*
%TO.N,Net-(U8-ROSC_SEL)*%
X119430000Y-116250000D03*
D34*
%TO.N,/BM1368/VDD3_0*%
X113470000Y-111290000D03*
%TO.N,/BM1368/VDD2_0*%
X112390000Y-109350000D03*
%TO.N,/BM1368/0V8*%
X110970000Y-123700000D03*
%TO.N,/BM1368/VDD1_0*%
X111030000Y-107870000D03*
%TO.N,/BM1368/VDD1_1*%
X100553800Y-107457400D03*
D35*
%TO.N,Net-(U8-LITE_PAD)*%
X119420000Y-118020000D03*
D34*
%TO.N,/BM1368/VDD2_1*%
X99360000Y-109210000D03*
%TO.N,/BM1368/VDD3_1*%
X98140000Y-111060000D03*
D35*
%TO.N,/BM1368/BI*%
X119420000Y-114790000D03*
%TO.N,Net-(U8-INV_CLKO)*%
X124540000Y-121820000D03*
%TO.N,/BM1368/CLKI*%
X118740000Y-113660000D03*
%TO.N,/BM1368/BO*%
X92480000Y-117815712D03*
%TO.N,/BM1368/CI*%
X113770000Y-99770000D03*
%TO.N,/BM1368/RO*%
X113830000Y-100500000D03*
X118320000Y-108370000D03*
%TO.N,/BM1368/RST_N*%
X113800000Y-98950000D03*
%TO.N,/BM1368/NRSTO*%
X92480000Y-112210000D03*
%TO.N,/BM1368/RI*%
X92480000Y-115012856D03*
%TO.N,/BM1368/CLKO*%
X92480000Y-116414284D03*
%TO.N,/BM1368/CO*%
X92480000Y-113611428D03*
%TO.N,/BM1368/PIN_MODE*%
X91400000Y-120430000D03*
%TO.N,/Fan/TEMP_N*%
X92180000Y-119960000D03*
%TO.N,/Fan/TEMP_P*%
X92940000Y-119930000D03*
%TO.N,/Power/AGND*%
X89340000Y-73770000D03*
X89170000Y-77830000D03*
X90680000Y-72940000D03*
X89340000Y-74960000D03*
%TO.N,/Power/PMB_ALRT*%
X93330000Y-81550000D03*
%TD*%
D37*
%TO.N,GND*%
X101174000Y-119056000D02*
X102683562Y-119056000D01*
X100051000Y-114541000D02*
X102676000Y-114541000D01*
X132345000Y-104448000D02*
X132345000Y-108695000D01*
X111319000Y-114541000D02*
X108508000Y-114541000D01*
D38*
X125690000Y-82480000D02*
X125690000Y-81360000D01*
D37*
X132241000Y-108799000D02*
X132297000Y-108743000D01*
X99600000Y-114090000D02*
X100051000Y-114541000D01*
X125600000Y-65940000D02*
X125600000Y-63950000D01*
D39*
X80680000Y-61050000D02*
X80750000Y-61120000D01*
D37*
X110930000Y-119290000D02*
X110696000Y-119056000D01*
X117910000Y-70950000D02*
X117970000Y-71010000D01*
X132345000Y-108695000D02*
X132297000Y-108743000D01*
X100965000Y-119265000D02*
X101174000Y-119056000D01*
D38*
X128020000Y-84450000D02*
X127660000Y-84450000D01*
X128130000Y-56090000D02*
X128130000Y-57095000D01*
D37*
X111730000Y-114130000D02*
X111319000Y-114541000D01*
D38*
X127660000Y-84450000D02*
X125690000Y-82480000D01*
D39*
X80750000Y-61120000D02*
X82330000Y-61120000D01*
D37*
X110696000Y-119056000D02*
X108526562Y-119056000D01*
D38*
X84545000Y-79515000D02*
X83970000Y-78940000D01*
X84545000Y-80060000D02*
X84545000Y-79515000D01*
X102956616Y-143125800D02*
X102025800Y-142194984D01*
D37*
X125600000Y-63950000D02*
X125690000Y-63860000D01*
X132241000Y-113155000D02*
X132241000Y-108799000D01*
D38*
X84545000Y-86460000D02*
X84545000Y-87005000D01*
X104625800Y-143125800D02*
X102956616Y-143125800D01*
D37*
X119454234Y-70914234D02*
X119370000Y-70998468D01*
D38*
X84545000Y-87005000D02*
X83970000Y-87580000D01*
D40*
%TO.N,/VDD*%
X92270000Y-81770000D02*
X93040000Y-81000000D01*
D37*
X120870000Y-69510000D02*
X123150000Y-67230000D01*
D40*
X99760000Y-81000000D02*
X99780000Y-81020000D01*
X87900000Y-80960000D02*
X88710000Y-81770000D01*
D37*
X123150000Y-67230000D02*
X123150000Y-63860000D01*
D40*
X84750000Y-76160000D02*
X87900000Y-79310000D01*
D37*
X120850000Y-69510000D02*
X120870000Y-69510000D01*
D40*
X84500000Y-76160000D02*
X84750000Y-76160000D01*
X87900000Y-79310000D02*
X87900000Y-80960000D01*
X88710000Y-81770000D02*
X92270000Y-81770000D01*
X93040000Y-81000000D02*
X99760000Y-81000000D01*
D37*
%TO.N,/ESP32/EN*%
X127675000Y-61485000D02*
X129400000Y-59760000D01*
X122101300Y-70898700D02*
X126540000Y-66460000D01*
X123160000Y-71963700D02*
X122101300Y-70905000D01*
X127228000Y-104448000D02*
X128027000Y-104448000D01*
X126540000Y-66460000D02*
X126540000Y-62620000D01*
X129400000Y-59760000D02*
X129400000Y-58365000D01*
X126540000Y-62620000D02*
X127675000Y-61485000D01*
X122101300Y-70905000D02*
X122101300Y-70898700D01*
X123160000Y-81133600D02*
X123160000Y-71963700D01*
D38*
%TO.N,/5V*%
X92161000Y-142859000D02*
X92161000Y-143622000D01*
X95560000Y-139450000D02*
X95560000Y-139460000D01*
X103025800Y-141125800D02*
X104725800Y-139425800D01*
X96290000Y-138720000D02*
X95560000Y-139450000D01*
X104725800Y-139425800D02*
X104700000Y-139400000D01*
X98770000Y-138720000D02*
X96290000Y-138720000D01*
D39*
X81160000Y-70950000D02*
X82330000Y-72120000D01*
X80680000Y-70950000D02*
X81160000Y-70950000D01*
D38*
X95560000Y-139460000D02*
X92161000Y-142859000D01*
%TO.N,/3V3*%
X129830000Y-56090000D02*
X129400000Y-56520000D01*
X129400000Y-56520000D02*
X129400000Y-57095000D01*
X124420000Y-82860000D02*
X124420000Y-81360000D01*
D37*
X107930000Y-79595000D02*
X110115000Y-79595000D01*
X112160000Y-77550000D02*
X112160000Y-74520000D01*
D38*
X126000000Y-84500000D02*
X126000000Y-84440000D01*
X126000000Y-84440000D02*
X124420000Y-82860000D01*
D37*
X110115000Y-79595000D02*
X112160000Y-77550000D01*
%TO.N,/TX*%
X116380000Y-79250000D02*
X114840000Y-79250000D01*
X114260000Y-79830000D02*
X114260000Y-81360000D01*
X114840000Y-79250000D02*
X114260000Y-79830000D01*
%TO.N,/RX*%
X114280000Y-78420000D02*
X112990000Y-79710000D01*
X112990000Y-79710000D02*
X112990000Y-81360000D01*
X115580000Y-78420000D02*
X114280000Y-78420000D01*
%TO.N,/RST*%
X121476817Y-70170000D02*
X124420000Y-67226817D01*
X124420000Y-67226817D02*
X124420000Y-63860000D01*
D40*
%TO.N,/Fan/FAN_TACH*%
X105225800Y-139125800D02*
X105225800Y-140074200D01*
X102900000Y-136800000D02*
X105225800Y-139125800D01*
X93570000Y-136800000D02*
X102900000Y-136800000D01*
X104000000Y-141300000D02*
X104000000Y-141675000D01*
X105225800Y-140074200D02*
X104000000Y-141300000D01*
%TO.N,/SCL*%
X81430000Y-74660000D02*
X79560000Y-72790000D01*
X79560000Y-72790000D02*
X79560000Y-58130000D01*
X79560000Y-58130000D02*
X82318000Y-55372000D01*
D37*
X106885000Y-66895000D02*
X106610000Y-66620000D01*
D40*
X88970000Y-81220000D02*
X88360000Y-80610000D01*
X88360000Y-80610000D02*
X88360000Y-78750000D01*
X88360000Y-78750000D02*
X84270000Y-74660000D01*
X94027216Y-134520000D02*
X90490000Y-134520000D01*
X82318000Y-55372000D02*
X87005000Y-55372000D01*
D37*
X107930000Y-66895000D02*
X106885000Y-66895000D01*
D40*
X94317599Y-134229617D02*
X94027216Y-134520000D01*
X81890000Y-125920000D02*
X81890000Y-74660000D01*
D37*
X106610000Y-66620000D02*
X106610000Y-59449183D01*
D40*
X81890000Y-74660000D02*
X81430000Y-74660000D01*
X84270000Y-74660000D02*
X81890000Y-74660000D01*
X90490000Y-134520000D02*
X81890000Y-125920000D01*
D37*
X106610000Y-59449183D02*
X102532817Y-55372000D01*
X102532817Y-55372000D02*
X87355000Y-55372000D01*
D40*
%TO.N,/Fan/FAN_PWM*%
X105527400Y-139000874D02*
X105527400Y-141147600D01*
X90925800Y-132725800D02*
X90900000Y-132700000D01*
X99252326Y-132725800D02*
X90925800Y-132725800D01*
X105527400Y-141147600D02*
X105000000Y-141675000D01*
X105527400Y-139000874D02*
X99252326Y-132725800D01*
%TO.N,/ESP32/USB_D+*%
X85320000Y-82510000D02*
X85450000Y-82640000D01*
X103530000Y-83510000D02*
X104080000Y-82960000D01*
X84545000Y-82510000D02*
X85320000Y-82510000D01*
X104080000Y-82960000D02*
X109271632Y-82960000D01*
X84545000Y-83510000D02*
X85450000Y-83510000D01*
X109530000Y-82701632D02*
X109530000Y-81710000D01*
X109271632Y-82960000D02*
X109530000Y-82701632D01*
X109530000Y-81710000D02*
X109180000Y-81360000D01*
X85450000Y-83510000D02*
X103530000Y-83510000D01*
X85450000Y-82640000D02*
X85450000Y-83510000D01*
%TO.N,/ESP32/USB_D-*%
X110100000Y-82630000D02*
X110100000Y-81710000D01*
X84545000Y-84010000D02*
X85690000Y-84010000D01*
X110100000Y-81710000D02*
X110450000Y-81360000D01*
X83770000Y-83010000D02*
X83690000Y-83090000D01*
X104240000Y-83320000D02*
X109410000Y-83320000D01*
X83810000Y-84010000D02*
X84545000Y-84010000D01*
X83690000Y-83090000D02*
X83690000Y-83890000D01*
X83690000Y-83890000D02*
X83810000Y-84010000D01*
X84545000Y-83010000D02*
X83770000Y-83010000D01*
X85690000Y-84010000D02*
X85837600Y-83862400D01*
X103697600Y-83862400D02*
X104240000Y-83320000D01*
X85837600Y-83862400D02*
X103697600Y-83862400D01*
X109410000Y-83320000D02*
X110100000Y-82630000D01*
%TO.N,Net-(U2-BP1V5)*%
X83990000Y-76900000D02*
X83660000Y-76570000D01*
X88880000Y-82980000D02*
X87420000Y-81520000D01*
X91690000Y-82980000D02*
X88880000Y-82980000D01*
X87420000Y-79290000D02*
X85030000Y-76900000D01*
X87420000Y-81520000D02*
X87420000Y-79290000D01*
X85030000Y-76900000D02*
X83990000Y-76900000D01*
D37*
%TO.N,/ESP32/P_TX*%
X121880000Y-62510000D02*
X121880000Y-63860000D01*
X126005000Y-61285000D02*
X128230000Y-59060000D01*
X128230000Y-59060000D02*
X128230000Y-58355000D01*
X123105000Y-61285000D02*
X121880000Y-62510000D01*
X123105000Y-61285000D02*
X126005000Y-61285000D01*
%TO.N,/ESP32/P_RX*%
X123040000Y-59730000D02*
X120610000Y-62160000D01*
X123040000Y-59730000D02*
X125050000Y-57720000D01*
X126325000Y-57720000D02*
X126960000Y-58355000D01*
X125050000Y-57720000D02*
X126325000Y-57720000D01*
X120610000Y-62160000D02*
X120610000Y-63860000D01*
%TO.N,/ESP32/IO0*%
X126830000Y-56955000D02*
X126960000Y-57085000D01*
D40*
X109180000Y-63860000D02*
X109180000Y-65190000D01*
D37*
X125830000Y-111062000D02*
X127923000Y-113155000D01*
X126520000Y-102640000D02*
X125830000Y-103330000D01*
D40*
X109180000Y-65190000D02*
X110935600Y-66945600D01*
D37*
X126310000Y-55100000D02*
X126830000Y-55620000D01*
X124830000Y-55100000D02*
X126310000Y-55100000D01*
D40*
X110935600Y-66945600D02*
X121244400Y-66945600D01*
D37*
X126830000Y-55620000D02*
X126830000Y-56955000D01*
X125830000Y-103330000D02*
X125830000Y-111062000D01*
D40*
%TO.N,Net-(U2-VDD5)*%
X92630000Y-74170000D02*
X92570000Y-74110000D01*
X102390000Y-74170000D02*
X92630000Y-74170000D01*
X102820000Y-73740000D02*
X102390000Y-74170000D01*
%TO.N,/Power/PGOOD*%
X106610000Y-80190000D02*
X106610000Y-74840000D01*
X106610000Y-74840000D02*
X106935000Y-74515000D01*
X93720000Y-81950000D02*
X104850000Y-81950000D01*
X93390000Y-82280000D02*
X93720000Y-81950000D01*
X106935000Y-74515000D02*
X107930000Y-74515000D01*
X89020000Y-82280000D02*
X93390000Y-82280000D01*
X109385000Y-74515000D02*
X109410000Y-74490000D01*
X104850000Y-81950000D02*
X106610000Y-80190000D01*
X107930000Y-74515000D02*
X109385000Y-74515000D01*
D37*
%TO.N,/BM1368/1V2*%
X109160000Y-120060000D02*
X108526562Y-120060000D01*
X117030000Y-103550000D02*
X118830000Y-101750000D01*
X110950000Y-124990000D02*
X109630000Y-123670000D01*
X109630000Y-123670000D02*
X109630000Y-120530000D01*
X109630000Y-120530000D02*
X109160000Y-120060000D01*
X118830000Y-101750000D02*
X124520000Y-101750000D01*
X124520000Y-101750000D02*
X124600000Y-101830000D01*
D40*
%TO.N,/SDA*%
X90650000Y-134200000D02*
X82230000Y-125780000D01*
D37*
X107180000Y-68165000D02*
X107930000Y-68165000D01*
D40*
X93280000Y-134200000D02*
X90650000Y-134200000D01*
X82130000Y-73910000D02*
X82130000Y-74280000D01*
X88990000Y-80510000D02*
X88670000Y-80190000D01*
X82230000Y-125780000D02*
X82230000Y-76060000D01*
X93900000Y-133580000D02*
X93280000Y-134200000D01*
X88670000Y-80190000D02*
X88670000Y-78633474D01*
X82230000Y-76060000D02*
X82390000Y-75900000D01*
X81540000Y-74320000D02*
X79861600Y-72641600D01*
D37*
X106150000Y-67135000D02*
X107180000Y-68165000D01*
D40*
X81298000Y-57912000D02*
X87405000Y-57912000D01*
X82130000Y-74280000D02*
X82090000Y-74320000D01*
X94340000Y-133580000D02*
X93900000Y-133580000D01*
D37*
X87087000Y-57880000D02*
X104300000Y-57880000D01*
X87055000Y-57912000D02*
X87087000Y-57880000D01*
D40*
X82090000Y-74320000D02*
X81540000Y-74320000D01*
X88670000Y-78633474D02*
X84356526Y-74320000D01*
D37*
X104300000Y-57880000D02*
X106150000Y-59730000D01*
D40*
X79861600Y-72641600D02*
X79861600Y-59348400D01*
X82491600Y-75900000D02*
X82390000Y-75900000D01*
X84356526Y-74320000D02*
X82090000Y-74320000D01*
X79861600Y-59348400D02*
X81298000Y-57912000D01*
D37*
X106150000Y-59730000D02*
X106150000Y-67135000D01*
%TO.N,Net-(U8-VDDIO_12_1)*%
X100760000Y-123690000D02*
X100760000Y-121300000D01*
X100760000Y-121300000D02*
X102000000Y-120060000D01*
X102000000Y-120060000D02*
X102694562Y-120060000D01*
X100770000Y-123700000D02*
X100760000Y-123690000D01*
%TO.N,Net-(U8-VDDIO_08_1)*%
X99180000Y-122075438D02*
X101697438Y-119558000D01*
X101697438Y-119558000D02*
X102681562Y-119558000D01*
X99180000Y-123710000D02*
X99180000Y-122075438D01*
%TO.N,Net-(J4-Pin_3)*%
X115530000Y-63020000D02*
X116380000Y-62170000D01*
X112780000Y-54210000D02*
X107407505Y-54210000D01*
X115530000Y-63860000D02*
X115530000Y-63020000D01*
X107407505Y-54210000D02*
X104251505Y-51054000D01*
X116380000Y-62170000D02*
X116380000Y-57810000D01*
X116380000Y-57810000D02*
X112780000Y-54210000D01*
%TO.N,Net-(J4-Pin_6)*%
X119340000Y-63860000D02*
X119340000Y-55550000D01*
X119340000Y-55550000D02*
X114844000Y-51054000D01*
X114844000Y-51054000D02*
X111871505Y-51054000D01*
%TO.N,Net-(J4-Pin_5)*%
X110777505Y-52500000D02*
X109331505Y-51054000D01*
X118070000Y-63860000D02*
X118070000Y-56010000D01*
X114560000Y-52500000D02*
X110777505Y-52500000D01*
X118070000Y-56010000D02*
X114560000Y-52500000D01*
%TO.N,Net-(J4-Pin_4)*%
X113650000Y-53350000D02*
X109087505Y-53350000D01*
X116800000Y-63860000D02*
X116800000Y-62820000D01*
X117220000Y-56920000D02*
X113650000Y-53350000D01*
X116800000Y-62820000D02*
X117220000Y-62400000D01*
X109087505Y-53350000D02*
X106791505Y-51054000D01*
X117220000Y-62400000D02*
X117220000Y-56920000D01*
%TO.N,Net-(U8-ROSC_SEL)*%
X116820000Y-117550000D02*
X108526562Y-117550000D01*
X118120000Y-116250000D02*
X116820000Y-117550000D01*
X119430000Y-116250000D02*
X118120000Y-116250000D01*
%TO.N,/BM1368/VDD3_0*%
X113320000Y-111290000D02*
X110571000Y-114039000D01*
X110571000Y-114039000D02*
X108508000Y-114039000D01*
X113470000Y-111290000D02*
X113320000Y-111290000D01*
%TO.N,/BM1368/VDD2_0*%
X110063000Y-113537000D02*
X108508000Y-113537000D01*
X112390000Y-109350000D02*
X112380000Y-109360000D01*
X112380000Y-109360000D02*
X112380000Y-111220000D01*
X112380000Y-111220000D02*
X110063000Y-113537000D01*
%TO.N,/BM1368/0V8*%
X108526562Y-119558000D02*
X109568000Y-119558000D01*
X109568000Y-119558000D02*
X110970000Y-120960000D01*
X110970000Y-120960000D02*
X110970000Y-123700000D01*
%TO.N,/BM1368/VDD1_0*%
X111000000Y-107900000D02*
X111030000Y-107870000D01*
X111000000Y-111630000D02*
X111000000Y-107900000D01*
X108526562Y-113032000D02*
X109598000Y-113032000D01*
X109598000Y-113032000D02*
X111000000Y-111630000D01*
%TO.N,/BM1368/VDD1_1*%
X101522000Y-113032000D02*
X102694562Y-113032000D01*
X100553800Y-107457400D02*
X100540000Y-107471200D01*
X100540000Y-112050000D02*
X101522000Y-113032000D01*
X100540000Y-107471200D02*
X100540000Y-112050000D01*
%TO.N,Net-(U8-LITE_PAD)*%
X119420000Y-118020000D02*
X118804000Y-118020000D01*
X118772000Y-118052000D02*
X108526562Y-118052000D01*
X118804000Y-118020000D02*
X118772000Y-118052000D01*
%TO.N,/BM1368/VDD2_1*%
X99360000Y-109210000D02*
X99360000Y-111710000D01*
X99360000Y-111710000D02*
X101187000Y-113537000D01*
X101187000Y-113537000D02*
X102676000Y-113537000D01*
%TO.N,/BM1368/VDD3_1*%
X98140000Y-111480000D02*
X100700000Y-114040000D01*
X102690562Y-114040000D02*
X102694562Y-114036000D01*
X100700000Y-114040000D02*
X102690562Y-114040000D01*
X98140000Y-111060000D02*
X98140000Y-111480000D01*
%TO.N,/BM1368/BI*%
X116052000Y-117048000D02*
X108526562Y-117048000D01*
X119420000Y-114790000D02*
X118310000Y-114790000D01*
X118310000Y-114790000D02*
X116052000Y-117048000D01*
%TO.N,Net-(U8-INV_CLKO)*%
X124540000Y-121820000D02*
X124250000Y-121530000D01*
X124250000Y-121530000D02*
X119810000Y-121530000D01*
X119810000Y-121530000D02*
X116834000Y-118554000D01*
X116834000Y-118554000D02*
X108526562Y-118554000D01*
%TO.N,/BM1368/CLKI*%
X115334000Y-116546000D02*
X108526562Y-116546000D01*
X118740000Y-113660000D02*
X118220000Y-113660000D01*
X118220000Y-113660000D02*
X115334000Y-116546000D01*
%TO.N,/BM1368/BO*%
X93742000Y-117048000D02*
X102694562Y-117048000D01*
X92480000Y-117815712D02*
X92974288Y-117815712D01*
X92974288Y-117815712D02*
X93742000Y-117048000D01*
%TO.N,/BM1368/CI*%
X117710000Y-108640000D02*
X117710000Y-112030000D01*
X113520000Y-99770000D02*
X113110000Y-100180000D01*
X114198000Y-115542000D02*
X108526562Y-115542000D01*
X113770000Y-99770000D02*
X113520000Y-99770000D01*
X117710000Y-112030000D02*
X114198000Y-115542000D01*
X113110000Y-104040000D02*
X117710000Y-108640000D01*
X113110000Y-100180000D02*
X113110000Y-104040000D01*
%TO.N,/BM1368/RO*%
X113830000Y-103880000D02*
X113830000Y-100500000D01*
X108526562Y-116044000D02*
X114636000Y-116044000D01*
X118320000Y-108370000D02*
X113830000Y-103880000D01*
X114636000Y-116044000D02*
X118320000Y-112360000D01*
X118320000Y-112360000D02*
X118320000Y-108370000D01*
%TO.N,/BM1368/RST_N*%
X117140000Y-108980000D02*
X117140000Y-111740000D01*
X117140000Y-111740000D02*
X113840000Y-115040000D01*
X113800000Y-98950000D02*
X113420000Y-98950000D01*
X112400000Y-104240000D02*
X117140000Y-108980000D01*
X112400000Y-99970000D02*
X112400000Y-104240000D01*
X113840000Y-115040000D02*
X108526562Y-115040000D01*
X113420000Y-98950000D02*
X112400000Y-99970000D01*
%TO.N,/BM1368/NRSTO*%
X95310000Y-115040000D02*
X102694562Y-115040000D01*
X92480000Y-112210000D02*
X95310000Y-115040000D01*
%TO.N,/BM1368/RI*%
X93511144Y-116044000D02*
X102694562Y-116044000D01*
X92480000Y-115012856D02*
X93511144Y-116044000D01*
%TO.N,/BM1368/CLKO*%
X92610716Y-116545000D02*
X102694562Y-116545000D01*
X92480000Y-116414284D02*
X92610716Y-116545000D01*
%TO.N,/BM1368/CO*%
X92480000Y-113611428D02*
X92480000Y-113930000D01*
X92480000Y-113930000D02*
X94092000Y-115542000D01*
X94092000Y-115542000D02*
X102694562Y-115542000D01*
%TO.N,/BM1368/PIN_MODE*%
X91650000Y-120680000D02*
X93610000Y-120680000D01*
X93610000Y-120680000D02*
X95736000Y-118554000D01*
X91400000Y-120430000D02*
X91650000Y-120680000D01*
X95736000Y-118554000D02*
X102685562Y-118554000D01*
%TO.N,/Fan/TEMP_N*%
X92180000Y-119960000D02*
X92180000Y-119640000D01*
X94275000Y-117545000D02*
X102694562Y-117545000D01*
X92180000Y-119640000D02*
X94275000Y-117545000D01*
%TO.N,/Fan/TEMP_P*%
X92940000Y-119930000D02*
X94825000Y-118045000D01*
X94825000Y-118045000D02*
X102694562Y-118045000D01*
D40*
%TO.N,/Power/AGND*%
X89340000Y-74960000D02*
X89340000Y-77660000D01*
X89850000Y-73770000D02*
X90680000Y-72940000D01*
X89340000Y-73770000D02*
X89850000Y-73770000D01*
X89340000Y-77660000D02*
X89170000Y-77830000D01*
X89340000Y-73770000D02*
X89340000Y-74960000D01*
%TO.N,/Power/PMB_ALRT*%
X106665000Y-71975000D02*
X107930000Y-71975000D01*
X106230000Y-80040000D02*
X106230000Y-72410000D01*
X104720000Y-81550000D02*
X106230000Y-80040000D01*
X93330000Y-81550000D02*
X104720000Y-81550000D01*
X106230000Y-72410000D02*
X106665000Y-71975000D01*
%TD*%
%TA.AperFunction,Conductor*%
%TO.N,GND*%
G36*
X92496206Y-74505312D02*
G01*
X92515362Y-74506838D01*
X92570000Y-74515492D01*
X92622977Y-74507101D01*
X92642559Y-74505577D01*
X105904124Y-74529573D01*
X105971128Y-74549379D01*
X106016787Y-74602266D01*
X106027900Y-74653573D01*
X106027900Y-79904924D01*
X106008215Y-79971963D01*
X105991581Y-79992605D01*
X104903127Y-81081058D01*
X104841804Y-81114543D01*
X104815222Y-81117377D01*
X100305309Y-81109245D01*
X100238306Y-81089439D01*
X100192646Y-81036553D01*
X100183060Y-81004642D01*
X100165647Y-80894699D01*
X100165647Y-80894698D01*
X100136783Y-80838050D01*
X100108050Y-80781658D01*
X100108046Y-80781654D01*
X100108045Y-80781652D01*
X100018347Y-80691954D01*
X100018344Y-80691952D01*
X100018342Y-80691950D01*
X99905304Y-80634354D01*
X99905303Y-80634353D01*
X99905300Y-80634352D01*
X99780003Y-80614508D01*
X99779997Y-80614508D01*
X99654699Y-80634352D01*
X99654698Y-80634352D01*
X99579337Y-80672751D01*
X99541658Y-80691950D01*
X99541657Y-80691951D01*
X99541652Y-80691954D01*
X99472026Y-80761581D01*
X99410703Y-80795066D01*
X99384345Y-80797900D01*
X92999799Y-80797900D01*
X92979752Y-80806204D01*
X92959705Y-80814508D01*
X92959704Y-80814508D01*
X92925524Y-80828665D01*
X92925519Y-80828668D01*
X92695137Y-81059049D01*
X92633814Y-81092533D01*
X92607232Y-81095367D01*
X89752468Y-81090220D01*
X89685465Y-81070414D01*
X89639805Y-81017528D01*
X89628699Y-80967537D01*
X89627224Y-80828665D01*
X89569029Y-75350045D01*
X89587999Y-75282805D01*
X89605336Y-75261055D01*
X89668050Y-75198342D01*
X89725646Y-75085304D01*
X89725646Y-75085302D01*
X89725647Y-75085301D01*
X89725647Y-75085300D01*
X89745492Y-74960003D01*
X89745492Y-74959996D01*
X89725647Y-74834699D01*
X89725647Y-74834698D01*
X89725646Y-74834696D01*
X89668050Y-74721658D01*
X89668046Y-74721654D01*
X89668045Y-74721652D01*
X89658411Y-74712018D01*
X89624926Y-74650695D01*
X89629910Y-74581003D01*
X89671782Y-74525070D01*
X89737246Y-74500653D01*
X89746312Y-74500337D01*
X92496206Y-74505312D01*
G37*
%TD.AperFunction*%
%TD*%
%TA.AperFunction,Conductor*%
%TO.N,GND*%
G36*
X119916378Y-70319418D02*
G01*
X119983324Y-70339418D01*
X120028830Y-70392437D01*
X120039794Y-70443623D01*
X120037810Y-71640434D01*
X120018014Y-71707440D01*
X119965134Y-71753108D01*
X119900557Y-71763518D01*
X119867833Y-71760000D01*
X119620000Y-71760000D01*
X119620000Y-75386000D01*
X119600315Y-75453039D01*
X119547511Y-75498794D01*
X119496000Y-75510000D01*
X119370000Y-75510000D01*
X119370000Y-75636000D01*
X119350315Y-75703039D01*
X119297511Y-75748794D01*
X119246000Y-75760000D01*
X116694000Y-75760000D01*
X116626961Y-75740315D01*
X116581206Y-75687511D01*
X116570000Y-75636000D01*
X116570000Y-75510000D01*
X116444000Y-75510000D01*
X116376961Y-75490315D01*
X116331206Y-75437511D01*
X116320000Y-75386000D01*
X116320000Y-75260000D01*
X116820000Y-75260000D01*
X117720000Y-75260000D01*
X118220000Y-75260000D01*
X119120000Y-75260000D01*
X119120000Y-74360000D01*
X118220000Y-74360000D01*
X118220000Y-75260000D01*
X117720000Y-75260000D01*
X117720000Y-74360000D01*
X116820000Y-74360000D01*
X116820000Y-75260000D01*
X116320000Y-75260000D01*
X116320000Y-73860000D01*
X116820000Y-73860000D01*
X117720000Y-73860000D01*
X118220000Y-73860000D01*
X119120000Y-73860000D01*
X119120000Y-72960000D01*
X118220000Y-72960000D01*
X118220000Y-73860000D01*
X117720000Y-73860000D01*
X117720000Y-72960000D01*
X116820000Y-72960000D01*
X116820000Y-73860000D01*
X116320000Y-73860000D01*
X116320000Y-72460000D01*
X116820000Y-72460000D01*
X117720000Y-72460000D01*
X118220000Y-72460000D01*
X119120000Y-72460000D01*
X119120000Y-71760000D01*
X118872155Y-71760000D01*
X118812627Y-71766401D01*
X118812616Y-71766403D01*
X118713332Y-71803434D01*
X118643640Y-71808418D01*
X118626668Y-71803434D01*
X118527383Y-71766403D01*
X118527372Y-71766401D01*
X118467844Y-71760000D01*
X118220000Y-71760000D01*
X118220000Y-72460000D01*
X117720000Y-72460000D01*
X117720000Y-71760000D01*
X117472155Y-71760000D01*
X117412627Y-71766401D01*
X117412616Y-71766403D01*
X117313332Y-71803434D01*
X117243640Y-71808418D01*
X117226668Y-71803434D01*
X117127383Y-71766403D01*
X117127372Y-71766401D01*
X117067844Y-71760000D01*
X116820000Y-71760000D01*
X116820000Y-72460000D01*
X116320000Y-72460000D01*
X116320000Y-71760000D01*
X116072155Y-71760000D01*
X116012627Y-71766401D01*
X116012621Y-71766402D01*
X115955052Y-71787874D01*
X115885361Y-71792857D01*
X115824038Y-71759371D01*
X115790554Y-71698047D01*
X115787721Y-71671492D01*
X115789793Y-70424376D01*
X115809589Y-70357371D01*
X115862469Y-70311704D01*
X115914375Y-70300585D01*
X119916378Y-70319418D01*
G37*
%TD.AperFunction*%
%TD*%
%TA.AperFunction,Conductor*%
%TO.N,/5V*%
G36*
X94532607Y-65409727D02*
G01*
X94578402Y-65462497D01*
X94589645Y-65514446D01*
X94580000Y-68899823D01*
X94580000Y-72235344D01*
X94560315Y-72302383D01*
X94507511Y-72348138D01*
X94455346Y-72359342D01*
X81423346Y-72290650D01*
X81356412Y-72270613D01*
X81310936Y-72217568D01*
X81300000Y-72166652D01*
X81300000Y-67374995D01*
X81319685Y-67307956D01*
X81372489Y-67262201D01*
X81441647Y-67252257D01*
X81505203Y-67281282D01*
X81511681Y-67287314D01*
X81660342Y-67435975D01*
X81660345Y-67435977D01*
X81832402Y-67550941D01*
X82023580Y-67630130D01*
X82226530Y-67670499D01*
X82226534Y-67670500D01*
X82226535Y-67670500D01*
X82433466Y-67670500D01*
X82433467Y-67670499D01*
X82636420Y-67630130D01*
X82827598Y-67550941D01*
X82999655Y-67435977D01*
X83145977Y-67289655D01*
X83260941Y-67117598D01*
X83340130Y-66926420D01*
X83380500Y-66723465D01*
X83380500Y-66516535D01*
X83340130Y-66313580D01*
X83260941Y-66122402D01*
X83145977Y-65950345D01*
X83145975Y-65950342D01*
X82999657Y-65804024D01*
X82827596Y-65689057D01*
X82703050Y-65637469D01*
X82648647Y-65593628D01*
X82626582Y-65527334D01*
X82643861Y-65459634D01*
X82694999Y-65412024D01*
X82750407Y-65398908D01*
X86180808Y-65396327D01*
X86247861Y-65415961D01*
X86293656Y-65468731D01*
X86303651Y-65537882D01*
X86274674Y-65601459D01*
X86237198Y-65630810D01*
X86227004Y-65636004D01*
X86080505Y-65742441D01*
X86080500Y-65742445D01*
X85952445Y-65870500D01*
X85952441Y-65870505D01*
X85846006Y-66017002D01*
X85763788Y-66178360D01*
X85763787Y-66178363D01*
X85707829Y-66350589D01*
X85679500Y-66529448D01*
X85679500Y-66710551D01*
X85707829Y-66889410D01*
X85763787Y-67061636D01*
X85763788Y-67061639D01*
X85846006Y-67222997D01*
X85952441Y-67369494D01*
X85952445Y-67369499D01*
X86080500Y-67497554D01*
X86080505Y-67497558D01*
X86208287Y-67590396D01*
X86227006Y-67603996D01*
X86278299Y-67630131D01*
X86388360Y-67686211D01*
X86388363Y-67686212D01*
X86474476Y-67714191D01*
X86560591Y-67742171D01*
X86643429Y-67755291D01*
X86739449Y-67770500D01*
X86739454Y-67770500D01*
X86920551Y-67770500D01*
X87007259Y-67756765D01*
X87099409Y-67742171D01*
X87271639Y-67686211D01*
X87432994Y-67603996D01*
X87579501Y-67497553D01*
X87707553Y-67369501D01*
X87813996Y-67222994D01*
X87896211Y-67061639D01*
X87952171Y-66889409D01*
X87966765Y-66797259D01*
X87980500Y-66710551D01*
X87980500Y-66529448D01*
X87964019Y-66425397D01*
X87952171Y-66350591D01*
X87896211Y-66178361D01*
X87896211Y-66178360D01*
X87867698Y-66122402D01*
X87813996Y-66017006D01*
X87765562Y-65950342D01*
X87707558Y-65870505D01*
X87707554Y-65870500D01*
X87579499Y-65742445D01*
X87579494Y-65742441D01*
X87432995Y-65636004D01*
X87420891Y-65629837D01*
X87370095Y-65581863D01*
X87353299Y-65514042D01*
X87375836Y-65447907D01*
X87430551Y-65404455D01*
X87477091Y-65395352D01*
X94465555Y-65390093D01*
X94532607Y-65409727D01*
G37*
%TD.AperFunction*%
%TD*%
%TA.AperFunction,Conductor*%
%TO.N,unconnected-(J7-MountPin-PadMP)*%
G36*
X101743427Y-140445485D02*
G01*
X101789182Y-140498289D01*
X101799126Y-140567447D01*
X101770101Y-140631003D01*
X101732683Y-140660285D01*
X101724697Y-140664353D01*
X101724696Y-140664354D01*
X101611658Y-140721950D01*
X101611657Y-140721951D01*
X101611652Y-140721954D01*
X101521954Y-140811652D01*
X101521951Y-140811657D01*
X101464352Y-140924698D01*
X101449500Y-141018475D01*
X101449500Y-142331517D01*
X101460292Y-142399657D01*
X101464354Y-142425304D01*
X101521950Y-142538342D01*
X101521952Y-142538344D01*
X101521954Y-142538347D01*
X101611652Y-142628045D01*
X101611654Y-142628046D01*
X101611658Y-142628050D01*
X101724696Y-142685646D01*
X101777932Y-142694077D01*
X101841064Y-142724005D01*
X101846214Y-142728869D01*
X102646846Y-143529501D01*
X102761887Y-143595920D01*
X102855813Y-143621086D01*
X102855815Y-143621087D01*
X102855816Y-143621087D01*
X102865029Y-143623555D01*
X102890197Y-143630300D01*
X102890198Y-143630300D01*
X103023035Y-143630300D01*
X104017571Y-143630300D01*
X104084610Y-143649985D01*
X104105252Y-143666619D01*
X104154909Y-143716276D01*
X104154915Y-143716281D01*
X104298102Y-143806252D01*
X104298105Y-143806254D01*
X104298109Y-143806255D01*
X104298110Y-143806256D01*
X104370713Y-143831660D01*
X104457743Y-143862114D01*
X104625797Y-143881049D01*
X104625800Y-143881049D01*
X104625803Y-143881049D01*
X104793856Y-143862114D01*
X104793859Y-143862113D01*
X104953490Y-143806256D01*
X104953492Y-143806254D01*
X104953494Y-143806254D01*
X104953497Y-143806252D01*
X105096684Y-143716281D01*
X105096685Y-143716280D01*
X105096690Y-143716277D01*
X105216277Y-143596690D01*
X105216761Y-143595920D01*
X105306252Y-143453497D01*
X105306254Y-143453494D01*
X105306254Y-143453492D01*
X105306256Y-143453490D01*
X105362113Y-143293859D01*
X105362113Y-143293858D01*
X105362114Y-143293856D01*
X105381049Y-143125802D01*
X105381049Y-143125797D01*
X105362114Y-142957743D01*
X105303956Y-142791538D01*
X105308631Y-142789902D01*
X105297014Y-142752664D01*
X105315569Y-142685303D01*
X105364699Y-142640096D01*
X105388342Y-142628050D01*
X105478050Y-142538342D01*
X105535646Y-142425304D01*
X105535646Y-142425302D01*
X105535647Y-142425301D01*
X105550499Y-142331524D01*
X105550500Y-142331519D01*
X105550499Y-141671542D01*
X105570183Y-141604504D01*
X105586813Y-141583866D01*
X105807869Y-141362812D01*
X105854014Y-141282888D01*
X105857302Y-141270616D01*
X105861794Y-141253855D01*
X105867688Y-141231852D01*
X105877900Y-141193744D01*
X105877900Y-140549800D01*
X105897585Y-140482761D01*
X105950389Y-140437006D01*
X106001900Y-140425800D01*
X108501800Y-140425800D01*
X108568839Y-140445485D01*
X108614594Y-140498289D01*
X108625800Y-140549800D01*
X108625800Y-147101800D01*
X108606115Y-147168839D01*
X108553311Y-147214594D01*
X108501800Y-147225800D01*
X99049800Y-147225800D01*
X98982761Y-147206115D01*
X98937006Y-147153311D01*
X98925800Y-147101800D01*
X98925800Y-140549800D01*
X98945485Y-140482761D01*
X98998289Y-140437006D01*
X99049800Y-140425800D01*
X101676388Y-140425800D01*
X101743427Y-140445485D01*
G37*
%TD.AperFunction*%
%TD*%
%TA.AperFunction,Conductor*%
%TO.N,/VDD*%
G36*
X109395630Y-96993391D02*
G01*
X109463486Y-97014272D01*
X109509281Y-97068525D01*
X109520000Y-97119380D01*
X109520000Y-112159077D01*
X109499998Y-112227198D01*
X109483095Y-112248172D01*
X109371672Y-112359595D01*
X109309360Y-112393621D01*
X109282577Y-112396500D01*
X108463966Y-112396500D01*
X108393188Y-112410579D01*
X108368608Y-112413000D01*
X108148860Y-112413000D01*
X108148851Y-112413001D01*
X108049665Y-112426059D01*
X108038644Y-112427510D01*
X108038642Y-112427510D01*
X108038641Y-112427511D01*
X107901507Y-112484312D01*
X107783740Y-112574678D01*
X107693374Y-112692445D01*
X107636572Y-112829581D01*
X107622062Y-112939795D01*
X107622062Y-113124201D01*
X107622063Y-113124210D01*
X107636572Y-113234417D01*
X107636724Y-113234784D01*
X107636760Y-113235119D01*
X107638709Y-113242393D01*
X107637574Y-113242697D01*
X107644311Y-113305374D01*
X107636726Y-113331209D01*
X107636572Y-113331580D01*
X107622062Y-113441795D01*
X107622062Y-113626201D01*
X107622063Y-113626210D01*
X107636572Y-113736417D01*
X107636724Y-113736784D01*
X107636760Y-113737119D01*
X107638709Y-113744393D01*
X107637574Y-113744697D01*
X107644311Y-113807374D01*
X107636726Y-113833209D01*
X107636572Y-113833580D01*
X107622062Y-113943795D01*
X107622062Y-114128201D01*
X107622063Y-114128210D01*
X107636572Y-114238417D01*
X107636724Y-114238784D01*
X107636760Y-114239119D01*
X107638709Y-114246393D01*
X107637574Y-114246697D01*
X107644311Y-114309374D01*
X107636726Y-114335209D01*
X107636572Y-114335580D01*
X107622062Y-114445795D01*
X107622062Y-114501500D01*
X107602060Y-114569621D01*
X107548404Y-114616114D01*
X107496062Y-114627500D01*
X103725061Y-114627500D01*
X103656940Y-114607498D01*
X103610447Y-114553842D01*
X103599061Y-114501500D01*
X103599061Y-114445798D01*
X103599060Y-114445789D01*
X103587191Y-114355631D01*
X103584552Y-114335582D01*
X103584401Y-114335219D01*
X103584366Y-114334887D01*
X103582414Y-114327601D01*
X103583550Y-114327296D01*
X103576812Y-114264631D01*
X103584402Y-114238780D01*
X103584552Y-114238418D01*
X103599062Y-114128203D01*
X103599061Y-113943798D01*
X103584552Y-113833582D01*
X103584401Y-113833219D01*
X103584366Y-113832887D01*
X103582414Y-113825601D01*
X103583550Y-113825296D01*
X103576812Y-113762631D01*
X103584402Y-113736780D01*
X103584552Y-113736418D01*
X103599062Y-113626203D01*
X103599061Y-113441798D01*
X103584552Y-113331582D01*
X103584401Y-113331219D01*
X103584366Y-113330887D01*
X103582414Y-113323601D01*
X103583550Y-113323296D01*
X103576812Y-113260631D01*
X103584402Y-113234780D01*
X103584552Y-113234418D01*
X103599062Y-113124203D01*
X103599061Y-112939798D01*
X103584552Y-112829582D01*
X103556149Y-112761012D01*
X103527749Y-112692445D01*
X103527747Y-112692442D01*
X103437384Y-112574678D01*
X103319620Y-112484315D01*
X103319619Y-112484314D01*
X103319616Y-112484312D01*
X103182480Y-112427510D01*
X103072267Y-112413000D01*
X103072265Y-112413000D01*
X102852515Y-112413000D01*
X102827934Y-112410579D01*
X102809988Y-112407009D01*
X102757155Y-112396500D01*
X102757153Y-112396500D01*
X101916000Y-112396500D01*
X101847879Y-112376498D01*
X101801386Y-112322842D01*
X101790000Y-112270500D01*
X101790000Y-97022640D01*
X101810002Y-96954519D01*
X101863658Y-96908026D01*
X101917629Y-96896651D01*
X109395630Y-96993391D01*
G37*
%TD.AperFunction*%
%TD*%
%TA.AperFunction,Conductor*%
%TO.N,GND*%
G36*
X102026226Y-59639591D02*
G01*
X102093200Y-59659496D01*
X102138780Y-59712451D01*
X102149816Y-59763773D01*
X102140183Y-66276273D01*
X102120399Y-66343284D01*
X102067528Y-66388960D01*
X102016274Y-66400090D01*
X95334091Y-66404970D01*
X95267037Y-66385334D01*
X95221243Y-66332564D01*
X95210000Y-66280970D01*
X95210000Y-64784721D01*
X81093308Y-64760214D01*
X81026303Y-64740413D01*
X80980639Y-64687530D01*
X80969524Y-64636695D01*
X80950481Y-59694888D01*
X80969907Y-59627774D01*
X81022534Y-59581816D01*
X81074887Y-59570412D01*
X102026226Y-59639591D01*
G37*
%TD.AperFunction*%
%TD*%
M02*
