%TF.GenerationSoftware,KiCad,Pcbnew,7.0.1*%
%TF.CreationDate,2023-05-29T11:49:04-05:00*%
%TF.ProjectId,bitaxeMax,62697461-7865-44d6-9178-2e6b69636164,rev?*%
%TF.SameCoordinates,Original*%
%TF.FileFunction,Drillmap*%
%TF.FilePolarity,Positive*%
%FSLAX45Y45*%
G04 Gerber Fmt 4.5, Leading zero omitted, Abs format (unit mm)*
G04 Created by KiCad (PCBNEW 7.0.1) date 2023-05-29 11:49:04*
%MOMM*%
%LPD*%
G01*
G04 APERTURE LIST*
%ADD10C,0.100000*%
%ADD11C,0.200000*%
%ADD12C,0.099060*%
%ADD13C,0.129540*%
%ADD14C,0.220000*%
G04 APERTURE END LIST*
D10*
X7869066Y-4750000D02*
G75*
G03*
X7719000Y-4900066I4J-150070D01*
G01*
X7719000Y-16349934D02*
G75*
G03*
X7869066Y-16500000I150070J4D01*
G01*
X13372000Y-4900000D02*
X13372000Y-16349934D01*
X13221934Y-16500000D02*
G75*
G03*
X13372000Y-16349934I-4J150070D01*
G01*
X13221934Y-16500000D02*
X7869066Y-16500000D01*
X7869066Y-4750000D02*
X13221934Y-4750000D01*
X7719000Y-4900066D02*
X7719000Y-16349934D01*
X13372000Y-4900000D02*
G75*
G03*
X13221934Y-4750000I-150030J-30D01*
G01*
D11*
D12*
X12509470Y-5621870D02*
X12608530Y-5720930D01*
X12608530Y-5621870D02*
X12509470Y-5720930D01*
X12509470Y-5825070D02*
X12608530Y-5924130D01*
X12608530Y-5825070D02*
X12509470Y-5924130D01*
X13017470Y-5723470D02*
X13116530Y-5822530D01*
X13116530Y-5723470D02*
X13017470Y-5822530D01*
D13*
X9525210Y-16143585D02*
G75*
G03*
X9525210Y-16143585I-64770J0D01*
G01*
D14*
X7998700Y-4950300D02*
X7998700Y-5170300D01*
X7888700Y-5060300D02*
X8108700Y-5060300D01*
X8002000Y-16044400D02*
X8002000Y-16264400D01*
X7892000Y-16154400D02*
X8112000Y-16154400D01*
X13068300Y-4950400D02*
X13068300Y-5170400D01*
X12958300Y-5060400D02*
X13178300Y-5060400D01*
X13081000Y-16044400D02*
X13081000Y-16264400D01*
X12971000Y-16154400D02*
X13191000Y-16154400D01*
D11*
X7961619Y-16817524D02*
X7961619Y-16617524D01*
X7961619Y-16617524D02*
X8009238Y-16617524D01*
X8009238Y-16617524D02*
X8037809Y-16627048D01*
X8037809Y-16627048D02*
X8056857Y-16646095D01*
X8056857Y-16646095D02*
X8066381Y-16665143D01*
X8066381Y-16665143D02*
X8075905Y-16703238D01*
X8075905Y-16703238D02*
X8075905Y-16731809D01*
X8075905Y-16731809D02*
X8066381Y-16769905D01*
X8066381Y-16769905D02*
X8056857Y-16788952D01*
X8056857Y-16788952D02*
X8037809Y-16808000D01*
X8037809Y-16808000D02*
X8009238Y-16817524D01*
X8009238Y-16817524D02*
X7961619Y-16817524D01*
X8161619Y-16817524D02*
X8161619Y-16684190D01*
X8161619Y-16722286D02*
X8171143Y-16703238D01*
X8171143Y-16703238D02*
X8180667Y-16693714D01*
X8180667Y-16693714D02*
X8199714Y-16684190D01*
X8199714Y-16684190D02*
X8218762Y-16684190D01*
X8285428Y-16817524D02*
X8285428Y-16684190D01*
X8285428Y-16617524D02*
X8275905Y-16627048D01*
X8275905Y-16627048D02*
X8285428Y-16636571D01*
X8285428Y-16636571D02*
X8294952Y-16627048D01*
X8294952Y-16627048D02*
X8285428Y-16617524D01*
X8285428Y-16617524D02*
X8285428Y-16636571D01*
X8409238Y-16817524D02*
X8390190Y-16808000D01*
X8390190Y-16808000D02*
X8380667Y-16788952D01*
X8380667Y-16788952D02*
X8380667Y-16617524D01*
X8514000Y-16817524D02*
X8494952Y-16808000D01*
X8494952Y-16808000D02*
X8485429Y-16788952D01*
X8485429Y-16788952D02*
X8485429Y-16617524D01*
X8742571Y-16817524D02*
X8742571Y-16617524D01*
X8742571Y-16617524D02*
X8809238Y-16760381D01*
X8809238Y-16760381D02*
X8875905Y-16617524D01*
X8875905Y-16617524D02*
X8875905Y-16817524D01*
X9056857Y-16817524D02*
X9056857Y-16712762D01*
X9056857Y-16712762D02*
X9047333Y-16693714D01*
X9047333Y-16693714D02*
X9028286Y-16684190D01*
X9028286Y-16684190D02*
X8990190Y-16684190D01*
X8990190Y-16684190D02*
X8971143Y-16693714D01*
X9056857Y-16808000D02*
X9037810Y-16817524D01*
X9037810Y-16817524D02*
X8990190Y-16817524D01*
X8990190Y-16817524D02*
X8971143Y-16808000D01*
X8971143Y-16808000D02*
X8961619Y-16788952D01*
X8961619Y-16788952D02*
X8961619Y-16769905D01*
X8961619Y-16769905D02*
X8971143Y-16750857D01*
X8971143Y-16750857D02*
X8990190Y-16741333D01*
X8990190Y-16741333D02*
X9037810Y-16741333D01*
X9037810Y-16741333D02*
X9056857Y-16731809D01*
X9152095Y-16684190D02*
X9152095Y-16884190D01*
X9152095Y-16693714D02*
X9171143Y-16684190D01*
X9171143Y-16684190D02*
X9209238Y-16684190D01*
X9209238Y-16684190D02*
X9228286Y-16693714D01*
X9228286Y-16693714D02*
X9237810Y-16703238D01*
X9237810Y-16703238D02*
X9247333Y-16722286D01*
X9247333Y-16722286D02*
X9247333Y-16779429D01*
X9247333Y-16779429D02*
X9237810Y-16798476D01*
X9237810Y-16798476D02*
X9228286Y-16808000D01*
X9228286Y-16808000D02*
X9209238Y-16817524D01*
X9209238Y-16817524D02*
X9171143Y-16817524D01*
X9171143Y-16817524D02*
X9152095Y-16808000D01*
X9333048Y-16798476D02*
X9342571Y-16808000D01*
X9342571Y-16808000D02*
X9333048Y-16817524D01*
X9333048Y-16817524D02*
X9323524Y-16808000D01*
X9323524Y-16808000D02*
X9333048Y-16798476D01*
X9333048Y-16798476D02*
X9333048Y-16817524D01*
X9333048Y-16693714D02*
X9342571Y-16703238D01*
X9342571Y-16703238D02*
X9333048Y-16712762D01*
X9333048Y-16712762D02*
X9323524Y-16703238D01*
X9323524Y-16703238D02*
X9333048Y-16693714D01*
X9333048Y-16693714D02*
X9333048Y-16712762D01*
D12*
X7614940Y-17095470D02*
X7714000Y-17194530D01*
X7714000Y-17095470D02*
X7614940Y-17194530D01*
D11*
X7999714Y-17037524D02*
X8018762Y-17037524D01*
X8018762Y-17037524D02*
X8037809Y-17047048D01*
X8037809Y-17047048D02*
X8047333Y-17056571D01*
X8047333Y-17056571D02*
X8056857Y-17075619D01*
X8056857Y-17075619D02*
X8066381Y-17113714D01*
X8066381Y-17113714D02*
X8066381Y-17161333D01*
X8066381Y-17161333D02*
X8056857Y-17199429D01*
X8056857Y-17199429D02*
X8047333Y-17218476D01*
X8047333Y-17218476D02*
X8037809Y-17228000D01*
X8037809Y-17228000D02*
X8018762Y-17237524D01*
X8018762Y-17237524D02*
X7999714Y-17237524D01*
X7999714Y-17237524D02*
X7980667Y-17228000D01*
X7980667Y-17228000D02*
X7971143Y-17218476D01*
X7971143Y-17218476D02*
X7961619Y-17199429D01*
X7961619Y-17199429D02*
X7952095Y-17161333D01*
X7952095Y-17161333D02*
X7952095Y-17113714D01*
X7952095Y-17113714D02*
X7961619Y-17075619D01*
X7961619Y-17075619D02*
X7971143Y-17056571D01*
X7971143Y-17056571D02*
X7980667Y-17047048D01*
X7980667Y-17047048D02*
X7999714Y-17037524D01*
X8152095Y-17218476D02*
X8161619Y-17228000D01*
X8161619Y-17228000D02*
X8152095Y-17237524D01*
X8152095Y-17237524D02*
X8142571Y-17228000D01*
X8142571Y-17228000D02*
X8152095Y-17218476D01*
X8152095Y-17218476D02*
X8152095Y-17237524D01*
X8256857Y-17237524D02*
X8294952Y-17237524D01*
X8294952Y-17237524D02*
X8314000Y-17228000D01*
X8314000Y-17228000D02*
X8323524Y-17218476D01*
X8323524Y-17218476D02*
X8342571Y-17189905D01*
X8342571Y-17189905D02*
X8352095Y-17151810D01*
X8352095Y-17151810D02*
X8352095Y-17075619D01*
X8352095Y-17075619D02*
X8342571Y-17056571D01*
X8342571Y-17056571D02*
X8333048Y-17047048D01*
X8333048Y-17047048D02*
X8314000Y-17037524D01*
X8314000Y-17037524D02*
X8275905Y-17037524D01*
X8275905Y-17037524D02*
X8256857Y-17047048D01*
X8256857Y-17047048D02*
X8247333Y-17056571D01*
X8247333Y-17056571D02*
X8237809Y-17075619D01*
X8237809Y-17075619D02*
X8237809Y-17123238D01*
X8237809Y-17123238D02*
X8247333Y-17142286D01*
X8247333Y-17142286D02*
X8256857Y-17151810D01*
X8256857Y-17151810D02*
X8275905Y-17161333D01*
X8275905Y-17161333D02*
X8314000Y-17161333D01*
X8314000Y-17161333D02*
X8333048Y-17151810D01*
X8333048Y-17151810D02*
X8342571Y-17142286D01*
X8342571Y-17142286D02*
X8352095Y-17123238D01*
X8447333Y-17237524D02*
X8485429Y-17237524D01*
X8485429Y-17237524D02*
X8504476Y-17228000D01*
X8504476Y-17228000D02*
X8514000Y-17218476D01*
X8514000Y-17218476D02*
X8533048Y-17189905D01*
X8533048Y-17189905D02*
X8542571Y-17151810D01*
X8542571Y-17151810D02*
X8542571Y-17075619D01*
X8542571Y-17075619D02*
X8533048Y-17056571D01*
X8533048Y-17056571D02*
X8523524Y-17047048D01*
X8523524Y-17047048D02*
X8504476Y-17037524D01*
X8504476Y-17037524D02*
X8466381Y-17037524D01*
X8466381Y-17037524D02*
X8447333Y-17047048D01*
X8447333Y-17047048D02*
X8437810Y-17056571D01*
X8437810Y-17056571D02*
X8428286Y-17075619D01*
X8428286Y-17075619D02*
X8428286Y-17123238D01*
X8428286Y-17123238D02*
X8437810Y-17142286D01*
X8437810Y-17142286D02*
X8447333Y-17151810D01*
X8447333Y-17151810D02*
X8466381Y-17161333D01*
X8466381Y-17161333D02*
X8504476Y-17161333D01*
X8504476Y-17161333D02*
X8523524Y-17151810D01*
X8523524Y-17151810D02*
X8533048Y-17142286D01*
X8533048Y-17142286D02*
X8542571Y-17123238D01*
X8733048Y-17237524D02*
X8618762Y-17237524D01*
X8675905Y-17237524D02*
X8675905Y-17037524D01*
X8675905Y-17037524D02*
X8656857Y-17066095D01*
X8656857Y-17066095D02*
X8637810Y-17085143D01*
X8637810Y-17085143D02*
X8618762Y-17094667D01*
X8818762Y-17237524D02*
X8818762Y-17104190D01*
X8818762Y-17123238D02*
X8828286Y-17113714D01*
X8828286Y-17113714D02*
X8847333Y-17104190D01*
X8847333Y-17104190D02*
X8875905Y-17104190D01*
X8875905Y-17104190D02*
X8894952Y-17113714D01*
X8894952Y-17113714D02*
X8904476Y-17132762D01*
X8904476Y-17132762D02*
X8904476Y-17237524D01*
X8904476Y-17132762D02*
X8914000Y-17113714D01*
X8914000Y-17113714D02*
X8933048Y-17104190D01*
X8933048Y-17104190D02*
X8961619Y-17104190D01*
X8961619Y-17104190D02*
X8980667Y-17113714D01*
X8980667Y-17113714D02*
X8990191Y-17132762D01*
X8990191Y-17132762D02*
X8990191Y-17237524D01*
X9085429Y-17237524D02*
X9085429Y-17104190D01*
X9085429Y-17123238D02*
X9094952Y-17113714D01*
X9094952Y-17113714D02*
X9114000Y-17104190D01*
X9114000Y-17104190D02*
X9142572Y-17104190D01*
X9142572Y-17104190D02*
X9161619Y-17113714D01*
X9161619Y-17113714D02*
X9171143Y-17132762D01*
X9171143Y-17132762D02*
X9171143Y-17237524D01*
X9171143Y-17132762D02*
X9180667Y-17113714D01*
X9180667Y-17113714D02*
X9199714Y-17104190D01*
X9199714Y-17104190D02*
X9228286Y-17104190D01*
X9228286Y-17104190D02*
X9247333Y-17113714D01*
X9247333Y-17113714D02*
X9256857Y-17132762D01*
X9256857Y-17132762D02*
X9256857Y-17237524D01*
X9647333Y-17028000D02*
X9475905Y-17285143D01*
X9904476Y-17037524D02*
X9923524Y-17037524D01*
X9923524Y-17037524D02*
X9942572Y-17047048D01*
X9942572Y-17047048D02*
X9952095Y-17056571D01*
X9952095Y-17056571D02*
X9961619Y-17075619D01*
X9961619Y-17075619D02*
X9971143Y-17113714D01*
X9971143Y-17113714D02*
X9971143Y-17161333D01*
X9971143Y-17161333D02*
X9961619Y-17199429D01*
X9961619Y-17199429D02*
X9952095Y-17218476D01*
X9952095Y-17218476D02*
X9942572Y-17228000D01*
X9942572Y-17228000D02*
X9923524Y-17237524D01*
X9923524Y-17237524D02*
X9904476Y-17237524D01*
X9904476Y-17237524D02*
X9885429Y-17228000D01*
X9885429Y-17228000D02*
X9875905Y-17218476D01*
X9875905Y-17218476D02*
X9866381Y-17199429D01*
X9866381Y-17199429D02*
X9856857Y-17161333D01*
X9856857Y-17161333D02*
X9856857Y-17113714D01*
X9856857Y-17113714D02*
X9866381Y-17075619D01*
X9866381Y-17075619D02*
X9875905Y-17056571D01*
X9875905Y-17056571D02*
X9885429Y-17047048D01*
X9885429Y-17047048D02*
X9904476Y-17037524D01*
X10056857Y-17218476D02*
X10066381Y-17228000D01*
X10066381Y-17228000D02*
X10056857Y-17237524D01*
X10056857Y-17237524D02*
X10047334Y-17228000D01*
X10047334Y-17228000D02*
X10056857Y-17218476D01*
X10056857Y-17218476D02*
X10056857Y-17237524D01*
X10190191Y-17037524D02*
X10209238Y-17037524D01*
X10209238Y-17037524D02*
X10228286Y-17047048D01*
X10228286Y-17047048D02*
X10237810Y-17056571D01*
X10237810Y-17056571D02*
X10247334Y-17075619D01*
X10247334Y-17075619D02*
X10256857Y-17113714D01*
X10256857Y-17113714D02*
X10256857Y-17161333D01*
X10256857Y-17161333D02*
X10247334Y-17199429D01*
X10247334Y-17199429D02*
X10237810Y-17218476D01*
X10237810Y-17218476D02*
X10228286Y-17228000D01*
X10228286Y-17228000D02*
X10209238Y-17237524D01*
X10209238Y-17237524D02*
X10190191Y-17237524D01*
X10190191Y-17237524D02*
X10171143Y-17228000D01*
X10171143Y-17228000D02*
X10161619Y-17218476D01*
X10161619Y-17218476D02*
X10152095Y-17199429D01*
X10152095Y-17199429D02*
X10142572Y-17161333D01*
X10142572Y-17161333D02*
X10142572Y-17113714D01*
X10142572Y-17113714D02*
X10152095Y-17075619D01*
X10152095Y-17075619D02*
X10161619Y-17056571D01*
X10161619Y-17056571D02*
X10171143Y-17047048D01*
X10171143Y-17047048D02*
X10190191Y-17037524D01*
X10323524Y-17037524D02*
X10447334Y-17037524D01*
X10447334Y-17037524D02*
X10380667Y-17113714D01*
X10380667Y-17113714D02*
X10409238Y-17113714D01*
X10409238Y-17113714D02*
X10428286Y-17123238D01*
X10428286Y-17123238D02*
X10437810Y-17132762D01*
X10437810Y-17132762D02*
X10447334Y-17151810D01*
X10447334Y-17151810D02*
X10447334Y-17199429D01*
X10447334Y-17199429D02*
X10437810Y-17218476D01*
X10437810Y-17218476D02*
X10428286Y-17228000D01*
X10428286Y-17228000D02*
X10409238Y-17237524D01*
X10409238Y-17237524D02*
X10352095Y-17237524D01*
X10352095Y-17237524D02*
X10333048Y-17228000D01*
X10333048Y-17228000D02*
X10323524Y-17218476D01*
X10542572Y-17237524D02*
X10580667Y-17237524D01*
X10580667Y-17237524D02*
X10599715Y-17228000D01*
X10599715Y-17228000D02*
X10609238Y-17218476D01*
X10609238Y-17218476D02*
X10628286Y-17189905D01*
X10628286Y-17189905D02*
X10637810Y-17151810D01*
X10637810Y-17151810D02*
X10637810Y-17075619D01*
X10637810Y-17075619D02*
X10628286Y-17056571D01*
X10628286Y-17056571D02*
X10618762Y-17047048D01*
X10618762Y-17047048D02*
X10599715Y-17037524D01*
X10599715Y-17037524D02*
X10561619Y-17037524D01*
X10561619Y-17037524D02*
X10542572Y-17047048D01*
X10542572Y-17047048D02*
X10533048Y-17056571D01*
X10533048Y-17056571D02*
X10523524Y-17075619D01*
X10523524Y-17075619D02*
X10523524Y-17123238D01*
X10523524Y-17123238D02*
X10533048Y-17142286D01*
X10533048Y-17142286D02*
X10542572Y-17151810D01*
X10542572Y-17151810D02*
X10561619Y-17161333D01*
X10561619Y-17161333D02*
X10599715Y-17161333D01*
X10599715Y-17161333D02*
X10618762Y-17151810D01*
X10618762Y-17151810D02*
X10628286Y-17142286D01*
X10628286Y-17142286D02*
X10637810Y-17123238D01*
X10761619Y-17037524D02*
X10780667Y-17037524D01*
X10780667Y-17037524D02*
X10799715Y-17047048D01*
X10799715Y-17047048D02*
X10809238Y-17056571D01*
X10809238Y-17056571D02*
X10818762Y-17075619D01*
X10818762Y-17075619D02*
X10828286Y-17113714D01*
X10828286Y-17113714D02*
X10828286Y-17161333D01*
X10828286Y-17161333D02*
X10818762Y-17199429D01*
X10818762Y-17199429D02*
X10809238Y-17218476D01*
X10809238Y-17218476D02*
X10799715Y-17228000D01*
X10799715Y-17228000D02*
X10780667Y-17237524D01*
X10780667Y-17237524D02*
X10761619Y-17237524D01*
X10761619Y-17237524D02*
X10742572Y-17228000D01*
X10742572Y-17228000D02*
X10733048Y-17218476D01*
X10733048Y-17218476D02*
X10723524Y-17199429D01*
X10723524Y-17199429D02*
X10714000Y-17161333D01*
X10714000Y-17161333D02*
X10714000Y-17113714D01*
X10714000Y-17113714D02*
X10723524Y-17075619D01*
X10723524Y-17075619D02*
X10733048Y-17056571D01*
X10733048Y-17056571D02*
X10742572Y-17047048D01*
X10742572Y-17047048D02*
X10761619Y-17037524D01*
X10904476Y-17037524D02*
X10904476Y-17075619D01*
X10980667Y-17037524D02*
X10980667Y-17075619D01*
X11275905Y-17313714D02*
X11266381Y-17304190D01*
X11266381Y-17304190D02*
X11247334Y-17275619D01*
X11247334Y-17275619D02*
X11237810Y-17256571D01*
X11237810Y-17256571D02*
X11228286Y-17228000D01*
X11228286Y-17228000D02*
X11218762Y-17180381D01*
X11218762Y-17180381D02*
X11218762Y-17142286D01*
X11218762Y-17142286D02*
X11228286Y-17094667D01*
X11228286Y-17094667D02*
X11237810Y-17066095D01*
X11237810Y-17066095D02*
X11247334Y-17047048D01*
X11247334Y-17047048D02*
X11266381Y-17018476D01*
X11266381Y-17018476D02*
X11275905Y-17008952D01*
X11333048Y-17037524D02*
X11456857Y-17037524D01*
X11456857Y-17037524D02*
X11390191Y-17113714D01*
X11390191Y-17113714D02*
X11418762Y-17113714D01*
X11418762Y-17113714D02*
X11437810Y-17123238D01*
X11437810Y-17123238D02*
X11447334Y-17132762D01*
X11447334Y-17132762D02*
X11456857Y-17151810D01*
X11456857Y-17151810D02*
X11456857Y-17199429D01*
X11456857Y-17199429D02*
X11447334Y-17218476D01*
X11447334Y-17218476D02*
X11437810Y-17228000D01*
X11437810Y-17228000D02*
X11418762Y-17237524D01*
X11418762Y-17237524D02*
X11361619Y-17237524D01*
X11361619Y-17237524D02*
X11342572Y-17228000D01*
X11342572Y-17228000D02*
X11333048Y-17218476D01*
X11694953Y-17237524D02*
X11694953Y-17037524D01*
X11780667Y-17237524D02*
X11780667Y-17132762D01*
X11780667Y-17132762D02*
X11771143Y-17113714D01*
X11771143Y-17113714D02*
X11752096Y-17104190D01*
X11752096Y-17104190D02*
X11723524Y-17104190D01*
X11723524Y-17104190D02*
X11704476Y-17113714D01*
X11704476Y-17113714D02*
X11694953Y-17123238D01*
X11904476Y-17237524D02*
X11885429Y-17228000D01*
X11885429Y-17228000D02*
X11875905Y-17218476D01*
X11875905Y-17218476D02*
X11866381Y-17199429D01*
X11866381Y-17199429D02*
X11866381Y-17142286D01*
X11866381Y-17142286D02*
X11875905Y-17123238D01*
X11875905Y-17123238D02*
X11885429Y-17113714D01*
X11885429Y-17113714D02*
X11904476Y-17104190D01*
X11904476Y-17104190D02*
X11933048Y-17104190D01*
X11933048Y-17104190D02*
X11952096Y-17113714D01*
X11952096Y-17113714D02*
X11961619Y-17123238D01*
X11961619Y-17123238D02*
X11971143Y-17142286D01*
X11971143Y-17142286D02*
X11971143Y-17199429D01*
X11971143Y-17199429D02*
X11961619Y-17218476D01*
X11961619Y-17218476D02*
X11952096Y-17228000D01*
X11952096Y-17228000D02*
X11933048Y-17237524D01*
X11933048Y-17237524D02*
X11904476Y-17237524D01*
X12085429Y-17237524D02*
X12066381Y-17228000D01*
X12066381Y-17228000D02*
X12056857Y-17208952D01*
X12056857Y-17208952D02*
X12056857Y-17037524D01*
X12237810Y-17228000D02*
X12218762Y-17237524D01*
X12218762Y-17237524D02*
X12180667Y-17237524D01*
X12180667Y-17237524D02*
X12161619Y-17228000D01*
X12161619Y-17228000D02*
X12152096Y-17208952D01*
X12152096Y-17208952D02*
X12152096Y-17132762D01*
X12152096Y-17132762D02*
X12161619Y-17113714D01*
X12161619Y-17113714D02*
X12180667Y-17104190D01*
X12180667Y-17104190D02*
X12218762Y-17104190D01*
X12218762Y-17104190D02*
X12237810Y-17113714D01*
X12237810Y-17113714D02*
X12247334Y-17132762D01*
X12247334Y-17132762D02*
X12247334Y-17151810D01*
X12247334Y-17151810D02*
X12152096Y-17170857D01*
X12323524Y-17228000D02*
X12342572Y-17237524D01*
X12342572Y-17237524D02*
X12380667Y-17237524D01*
X12380667Y-17237524D02*
X12399715Y-17228000D01*
X12399715Y-17228000D02*
X12409238Y-17208952D01*
X12409238Y-17208952D02*
X12409238Y-17199429D01*
X12409238Y-17199429D02*
X12399715Y-17180381D01*
X12399715Y-17180381D02*
X12380667Y-17170857D01*
X12380667Y-17170857D02*
X12352096Y-17170857D01*
X12352096Y-17170857D02*
X12333048Y-17161333D01*
X12333048Y-17161333D02*
X12323524Y-17142286D01*
X12323524Y-17142286D02*
X12323524Y-17132762D01*
X12323524Y-17132762D02*
X12333048Y-17113714D01*
X12333048Y-17113714D02*
X12352096Y-17104190D01*
X12352096Y-17104190D02*
X12380667Y-17104190D01*
X12380667Y-17104190D02*
X12399715Y-17113714D01*
X12475905Y-17313714D02*
X12485429Y-17304190D01*
X12485429Y-17304190D02*
X12504477Y-17275619D01*
X12504477Y-17275619D02*
X12514000Y-17256571D01*
X12514000Y-17256571D02*
X12523524Y-17228000D01*
X12523524Y-17228000D02*
X12533048Y-17180381D01*
X12533048Y-17180381D02*
X12533048Y-17142286D01*
X12533048Y-17142286D02*
X12523524Y-17094667D01*
X12523524Y-17094667D02*
X12514000Y-17066095D01*
X12514000Y-17066095D02*
X12504477Y-17047048D01*
X12504477Y-17047048D02*
X12485429Y-17018476D01*
X12485429Y-17018476D02*
X12475905Y-17008952D01*
X12837810Y-17313714D02*
X12828286Y-17304190D01*
X12828286Y-17304190D02*
X12809238Y-17275619D01*
X12809238Y-17275619D02*
X12799715Y-17256571D01*
X12799715Y-17256571D02*
X12790191Y-17228000D01*
X12790191Y-17228000D02*
X12780667Y-17180381D01*
X12780667Y-17180381D02*
X12780667Y-17142286D01*
X12780667Y-17142286D02*
X12790191Y-17094667D01*
X12790191Y-17094667D02*
X12799715Y-17066095D01*
X12799715Y-17066095D02*
X12809238Y-17047048D01*
X12809238Y-17047048D02*
X12828286Y-17018476D01*
X12828286Y-17018476D02*
X12837810Y-17008952D01*
X12914000Y-17104190D02*
X12914000Y-17237524D01*
X12914000Y-17123238D02*
X12923524Y-17113714D01*
X12923524Y-17113714D02*
X12942572Y-17104190D01*
X12942572Y-17104190D02*
X12971143Y-17104190D01*
X12971143Y-17104190D02*
X12990191Y-17113714D01*
X12990191Y-17113714D02*
X12999715Y-17132762D01*
X12999715Y-17132762D02*
X12999715Y-17237524D01*
X13123524Y-17237524D02*
X13104477Y-17228000D01*
X13104477Y-17228000D02*
X13094953Y-17218476D01*
X13094953Y-17218476D02*
X13085429Y-17199429D01*
X13085429Y-17199429D02*
X13085429Y-17142286D01*
X13085429Y-17142286D02*
X13094953Y-17123238D01*
X13094953Y-17123238D02*
X13104477Y-17113714D01*
X13104477Y-17113714D02*
X13123524Y-17104190D01*
X13123524Y-17104190D02*
X13152096Y-17104190D01*
X13152096Y-17104190D02*
X13171143Y-17113714D01*
X13171143Y-17113714D02*
X13180667Y-17123238D01*
X13180667Y-17123238D02*
X13190191Y-17142286D01*
X13190191Y-17142286D02*
X13190191Y-17199429D01*
X13190191Y-17199429D02*
X13180667Y-17218476D01*
X13180667Y-17218476D02*
X13171143Y-17228000D01*
X13171143Y-17228000D02*
X13152096Y-17237524D01*
X13152096Y-17237524D02*
X13123524Y-17237524D01*
X13247334Y-17104190D02*
X13323524Y-17104190D01*
X13275905Y-17037524D02*
X13275905Y-17208952D01*
X13275905Y-17208952D02*
X13285429Y-17228000D01*
X13285429Y-17228000D02*
X13304477Y-17237524D01*
X13304477Y-17237524D02*
X13323524Y-17237524D01*
X13542572Y-17104190D02*
X13542572Y-17304190D01*
X13542572Y-17113714D02*
X13561619Y-17104190D01*
X13561619Y-17104190D02*
X13599715Y-17104190D01*
X13599715Y-17104190D02*
X13618762Y-17113714D01*
X13618762Y-17113714D02*
X13628286Y-17123238D01*
X13628286Y-17123238D02*
X13637810Y-17142286D01*
X13637810Y-17142286D02*
X13637810Y-17199429D01*
X13637810Y-17199429D02*
X13628286Y-17218476D01*
X13628286Y-17218476D02*
X13618762Y-17228000D01*
X13618762Y-17228000D02*
X13599715Y-17237524D01*
X13599715Y-17237524D02*
X13561619Y-17237524D01*
X13561619Y-17237524D02*
X13542572Y-17228000D01*
X13752096Y-17237524D02*
X13733048Y-17228000D01*
X13733048Y-17228000D02*
X13723524Y-17208952D01*
X13723524Y-17208952D02*
X13723524Y-17037524D01*
X13914000Y-17237524D02*
X13914000Y-17132762D01*
X13914000Y-17132762D02*
X13904477Y-17113714D01*
X13904477Y-17113714D02*
X13885429Y-17104190D01*
X13885429Y-17104190D02*
X13847334Y-17104190D01*
X13847334Y-17104190D02*
X13828286Y-17113714D01*
X13914000Y-17228000D02*
X13894953Y-17237524D01*
X13894953Y-17237524D02*
X13847334Y-17237524D01*
X13847334Y-17237524D02*
X13828286Y-17228000D01*
X13828286Y-17228000D02*
X13818762Y-17208952D01*
X13818762Y-17208952D02*
X13818762Y-17189905D01*
X13818762Y-17189905D02*
X13828286Y-17170857D01*
X13828286Y-17170857D02*
X13847334Y-17161333D01*
X13847334Y-17161333D02*
X13894953Y-17161333D01*
X13894953Y-17161333D02*
X13914000Y-17151810D01*
X13980667Y-17104190D02*
X14056858Y-17104190D01*
X14009239Y-17037524D02*
X14009239Y-17208952D01*
X14009239Y-17208952D02*
X14018762Y-17228000D01*
X14018762Y-17228000D02*
X14037810Y-17237524D01*
X14037810Y-17237524D02*
X14056858Y-17237524D01*
X14199715Y-17228000D02*
X14180667Y-17237524D01*
X14180667Y-17237524D02*
X14142572Y-17237524D01*
X14142572Y-17237524D02*
X14123524Y-17228000D01*
X14123524Y-17228000D02*
X14114000Y-17208952D01*
X14114000Y-17208952D02*
X14114000Y-17132762D01*
X14114000Y-17132762D02*
X14123524Y-17113714D01*
X14123524Y-17113714D02*
X14142572Y-17104190D01*
X14142572Y-17104190D02*
X14180667Y-17104190D01*
X14180667Y-17104190D02*
X14199715Y-17113714D01*
X14199715Y-17113714D02*
X14209239Y-17132762D01*
X14209239Y-17132762D02*
X14209239Y-17151810D01*
X14209239Y-17151810D02*
X14114000Y-17170857D01*
X14380667Y-17237524D02*
X14380667Y-17037524D01*
X14380667Y-17228000D02*
X14361620Y-17237524D01*
X14361620Y-17237524D02*
X14323524Y-17237524D01*
X14323524Y-17237524D02*
X14304477Y-17228000D01*
X14304477Y-17228000D02*
X14294953Y-17218476D01*
X14294953Y-17218476D02*
X14285429Y-17199429D01*
X14285429Y-17199429D02*
X14285429Y-17142286D01*
X14285429Y-17142286D02*
X14294953Y-17123238D01*
X14294953Y-17123238D02*
X14304477Y-17113714D01*
X14304477Y-17113714D02*
X14323524Y-17104190D01*
X14323524Y-17104190D02*
X14361620Y-17104190D01*
X14361620Y-17104190D02*
X14380667Y-17113714D01*
X14456858Y-17313714D02*
X14466381Y-17304190D01*
X14466381Y-17304190D02*
X14485429Y-17275619D01*
X14485429Y-17275619D02*
X14494953Y-17256571D01*
X14494953Y-17256571D02*
X14504477Y-17228000D01*
X14504477Y-17228000D02*
X14514000Y-17180381D01*
X14514000Y-17180381D02*
X14514000Y-17142286D01*
X14514000Y-17142286D02*
X14504477Y-17094667D01*
X14504477Y-17094667D02*
X14494953Y-17066095D01*
X14494953Y-17066095D02*
X14485429Y-17047048D01*
X14485429Y-17047048D02*
X14466381Y-17018476D01*
X14466381Y-17018476D02*
X14456858Y-17008952D01*
D13*
X7714000Y-17409000D02*
G75*
G03*
X7714000Y-17409000I-64770J0D01*
G01*
D11*
X8066381Y-17501524D02*
X7952095Y-17501524D01*
X8009238Y-17501524D02*
X8009238Y-17301524D01*
X8009238Y-17301524D02*
X7990190Y-17330095D01*
X7990190Y-17330095D02*
X7971143Y-17349143D01*
X7971143Y-17349143D02*
X7952095Y-17358667D01*
X8152095Y-17482476D02*
X8161619Y-17492000D01*
X8161619Y-17492000D02*
X8152095Y-17501524D01*
X8152095Y-17501524D02*
X8142571Y-17492000D01*
X8142571Y-17492000D02*
X8152095Y-17482476D01*
X8152095Y-17482476D02*
X8152095Y-17501524D01*
X8237809Y-17320571D02*
X8247333Y-17311048D01*
X8247333Y-17311048D02*
X8266381Y-17301524D01*
X8266381Y-17301524D02*
X8314000Y-17301524D01*
X8314000Y-17301524D02*
X8333048Y-17311048D01*
X8333048Y-17311048D02*
X8342571Y-17320571D01*
X8342571Y-17320571D02*
X8352095Y-17339619D01*
X8352095Y-17339619D02*
X8352095Y-17358667D01*
X8352095Y-17358667D02*
X8342571Y-17387238D01*
X8342571Y-17387238D02*
X8228286Y-17501524D01*
X8228286Y-17501524D02*
X8352095Y-17501524D01*
X8447333Y-17501524D02*
X8485429Y-17501524D01*
X8485429Y-17501524D02*
X8504476Y-17492000D01*
X8504476Y-17492000D02*
X8514000Y-17482476D01*
X8514000Y-17482476D02*
X8533048Y-17453905D01*
X8533048Y-17453905D02*
X8542571Y-17415810D01*
X8542571Y-17415810D02*
X8542571Y-17339619D01*
X8542571Y-17339619D02*
X8533048Y-17320571D01*
X8533048Y-17320571D02*
X8523524Y-17311048D01*
X8523524Y-17311048D02*
X8504476Y-17301524D01*
X8504476Y-17301524D02*
X8466381Y-17301524D01*
X8466381Y-17301524D02*
X8447333Y-17311048D01*
X8447333Y-17311048D02*
X8437810Y-17320571D01*
X8437810Y-17320571D02*
X8428286Y-17339619D01*
X8428286Y-17339619D02*
X8428286Y-17387238D01*
X8428286Y-17387238D02*
X8437810Y-17406286D01*
X8437810Y-17406286D02*
X8447333Y-17415810D01*
X8447333Y-17415810D02*
X8466381Y-17425333D01*
X8466381Y-17425333D02*
X8504476Y-17425333D01*
X8504476Y-17425333D02*
X8523524Y-17415810D01*
X8523524Y-17415810D02*
X8533048Y-17406286D01*
X8533048Y-17406286D02*
X8542571Y-17387238D01*
X8723524Y-17301524D02*
X8628286Y-17301524D01*
X8628286Y-17301524D02*
X8618762Y-17396762D01*
X8618762Y-17396762D02*
X8628286Y-17387238D01*
X8628286Y-17387238D02*
X8647333Y-17377714D01*
X8647333Y-17377714D02*
X8694952Y-17377714D01*
X8694952Y-17377714D02*
X8714000Y-17387238D01*
X8714000Y-17387238D02*
X8723524Y-17396762D01*
X8723524Y-17396762D02*
X8733048Y-17415810D01*
X8733048Y-17415810D02*
X8733048Y-17463429D01*
X8733048Y-17463429D02*
X8723524Y-17482476D01*
X8723524Y-17482476D02*
X8714000Y-17492000D01*
X8714000Y-17492000D02*
X8694952Y-17501524D01*
X8694952Y-17501524D02*
X8647333Y-17501524D01*
X8647333Y-17501524D02*
X8628286Y-17492000D01*
X8628286Y-17492000D02*
X8618762Y-17482476D01*
X8818762Y-17501524D02*
X8818762Y-17368190D01*
X8818762Y-17387238D02*
X8828286Y-17377714D01*
X8828286Y-17377714D02*
X8847333Y-17368190D01*
X8847333Y-17368190D02*
X8875905Y-17368190D01*
X8875905Y-17368190D02*
X8894952Y-17377714D01*
X8894952Y-17377714D02*
X8904476Y-17396762D01*
X8904476Y-17396762D02*
X8904476Y-17501524D01*
X8904476Y-17396762D02*
X8914000Y-17377714D01*
X8914000Y-17377714D02*
X8933048Y-17368190D01*
X8933048Y-17368190D02*
X8961619Y-17368190D01*
X8961619Y-17368190D02*
X8980667Y-17377714D01*
X8980667Y-17377714D02*
X8990191Y-17396762D01*
X8990191Y-17396762D02*
X8990191Y-17501524D01*
X9085429Y-17501524D02*
X9085429Y-17368190D01*
X9085429Y-17387238D02*
X9094952Y-17377714D01*
X9094952Y-17377714D02*
X9114000Y-17368190D01*
X9114000Y-17368190D02*
X9142572Y-17368190D01*
X9142572Y-17368190D02*
X9161619Y-17377714D01*
X9161619Y-17377714D02*
X9171143Y-17396762D01*
X9171143Y-17396762D02*
X9171143Y-17501524D01*
X9171143Y-17396762D02*
X9180667Y-17377714D01*
X9180667Y-17377714D02*
X9199714Y-17368190D01*
X9199714Y-17368190D02*
X9228286Y-17368190D01*
X9228286Y-17368190D02*
X9247333Y-17377714D01*
X9247333Y-17377714D02*
X9256857Y-17396762D01*
X9256857Y-17396762D02*
X9256857Y-17501524D01*
X9647333Y-17292000D02*
X9475905Y-17549143D01*
X9904476Y-17301524D02*
X9923524Y-17301524D01*
X9923524Y-17301524D02*
X9942572Y-17311048D01*
X9942572Y-17311048D02*
X9952095Y-17320571D01*
X9952095Y-17320571D02*
X9961619Y-17339619D01*
X9961619Y-17339619D02*
X9971143Y-17377714D01*
X9971143Y-17377714D02*
X9971143Y-17425333D01*
X9971143Y-17425333D02*
X9961619Y-17463429D01*
X9961619Y-17463429D02*
X9952095Y-17482476D01*
X9952095Y-17482476D02*
X9942572Y-17492000D01*
X9942572Y-17492000D02*
X9923524Y-17501524D01*
X9923524Y-17501524D02*
X9904476Y-17501524D01*
X9904476Y-17501524D02*
X9885429Y-17492000D01*
X9885429Y-17492000D02*
X9875905Y-17482476D01*
X9875905Y-17482476D02*
X9866381Y-17463429D01*
X9866381Y-17463429D02*
X9856857Y-17425333D01*
X9856857Y-17425333D02*
X9856857Y-17377714D01*
X9856857Y-17377714D02*
X9866381Y-17339619D01*
X9866381Y-17339619D02*
X9875905Y-17320571D01*
X9875905Y-17320571D02*
X9885429Y-17311048D01*
X9885429Y-17311048D02*
X9904476Y-17301524D01*
X10056857Y-17482476D02*
X10066381Y-17492000D01*
X10066381Y-17492000D02*
X10056857Y-17501524D01*
X10056857Y-17501524D02*
X10047334Y-17492000D01*
X10047334Y-17492000D02*
X10056857Y-17482476D01*
X10056857Y-17482476D02*
X10056857Y-17501524D01*
X10190191Y-17301524D02*
X10209238Y-17301524D01*
X10209238Y-17301524D02*
X10228286Y-17311048D01*
X10228286Y-17311048D02*
X10237810Y-17320571D01*
X10237810Y-17320571D02*
X10247334Y-17339619D01*
X10247334Y-17339619D02*
X10256857Y-17377714D01*
X10256857Y-17377714D02*
X10256857Y-17425333D01*
X10256857Y-17425333D02*
X10247334Y-17463429D01*
X10247334Y-17463429D02*
X10237810Y-17482476D01*
X10237810Y-17482476D02*
X10228286Y-17492000D01*
X10228286Y-17492000D02*
X10209238Y-17501524D01*
X10209238Y-17501524D02*
X10190191Y-17501524D01*
X10190191Y-17501524D02*
X10171143Y-17492000D01*
X10171143Y-17492000D02*
X10161619Y-17482476D01*
X10161619Y-17482476D02*
X10152095Y-17463429D01*
X10152095Y-17463429D02*
X10142572Y-17425333D01*
X10142572Y-17425333D02*
X10142572Y-17377714D01*
X10142572Y-17377714D02*
X10152095Y-17339619D01*
X10152095Y-17339619D02*
X10161619Y-17320571D01*
X10161619Y-17320571D02*
X10171143Y-17311048D01*
X10171143Y-17311048D02*
X10190191Y-17301524D01*
X10437810Y-17301524D02*
X10342572Y-17301524D01*
X10342572Y-17301524D02*
X10333048Y-17396762D01*
X10333048Y-17396762D02*
X10342572Y-17387238D01*
X10342572Y-17387238D02*
X10361619Y-17377714D01*
X10361619Y-17377714D02*
X10409238Y-17377714D01*
X10409238Y-17377714D02*
X10428286Y-17387238D01*
X10428286Y-17387238D02*
X10437810Y-17396762D01*
X10437810Y-17396762D02*
X10447334Y-17415810D01*
X10447334Y-17415810D02*
X10447334Y-17463429D01*
X10447334Y-17463429D02*
X10437810Y-17482476D01*
X10437810Y-17482476D02*
X10428286Y-17492000D01*
X10428286Y-17492000D02*
X10409238Y-17501524D01*
X10409238Y-17501524D02*
X10361619Y-17501524D01*
X10361619Y-17501524D02*
X10342572Y-17492000D01*
X10342572Y-17492000D02*
X10333048Y-17482476D01*
X10637810Y-17501524D02*
X10523524Y-17501524D01*
X10580667Y-17501524D02*
X10580667Y-17301524D01*
X10580667Y-17301524D02*
X10561619Y-17330095D01*
X10561619Y-17330095D02*
X10542572Y-17349143D01*
X10542572Y-17349143D02*
X10523524Y-17358667D01*
X10761619Y-17301524D02*
X10780667Y-17301524D01*
X10780667Y-17301524D02*
X10799715Y-17311048D01*
X10799715Y-17311048D02*
X10809238Y-17320571D01*
X10809238Y-17320571D02*
X10818762Y-17339619D01*
X10818762Y-17339619D02*
X10828286Y-17377714D01*
X10828286Y-17377714D02*
X10828286Y-17425333D01*
X10828286Y-17425333D02*
X10818762Y-17463429D01*
X10818762Y-17463429D02*
X10809238Y-17482476D01*
X10809238Y-17482476D02*
X10799715Y-17492000D01*
X10799715Y-17492000D02*
X10780667Y-17501524D01*
X10780667Y-17501524D02*
X10761619Y-17501524D01*
X10761619Y-17501524D02*
X10742572Y-17492000D01*
X10742572Y-17492000D02*
X10733048Y-17482476D01*
X10733048Y-17482476D02*
X10723524Y-17463429D01*
X10723524Y-17463429D02*
X10714000Y-17425333D01*
X10714000Y-17425333D02*
X10714000Y-17377714D01*
X10714000Y-17377714D02*
X10723524Y-17339619D01*
X10723524Y-17339619D02*
X10733048Y-17320571D01*
X10733048Y-17320571D02*
X10742572Y-17311048D01*
X10742572Y-17311048D02*
X10761619Y-17301524D01*
X10904476Y-17301524D02*
X10904476Y-17339619D01*
X10980667Y-17301524D02*
X10980667Y-17339619D01*
X11275905Y-17577714D02*
X11266381Y-17568190D01*
X11266381Y-17568190D02*
X11247334Y-17539619D01*
X11247334Y-17539619D02*
X11237810Y-17520571D01*
X11237810Y-17520571D02*
X11228286Y-17492000D01*
X11228286Y-17492000D02*
X11218762Y-17444381D01*
X11218762Y-17444381D02*
X11218762Y-17406286D01*
X11218762Y-17406286D02*
X11228286Y-17358667D01*
X11228286Y-17358667D02*
X11237810Y-17330095D01*
X11237810Y-17330095D02*
X11247334Y-17311048D01*
X11247334Y-17311048D02*
X11266381Y-17282476D01*
X11266381Y-17282476D02*
X11275905Y-17272952D01*
X11456857Y-17501524D02*
X11342572Y-17501524D01*
X11399714Y-17501524D02*
X11399714Y-17301524D01*
X11399714Y-17301524D02*
X11380667Y-17330095D01*
X11380667Y-17330095D02*
X11361619Y-17349143D01*
X11361619Y-17349143D02*
X11342572Y-17358667D01*
X11694953Y-17501524D02*
X11694953Y-17301524D01*
X11780667Y-17501524D02*
X11780667Y-17396762D01*
X11780667Y-17396762D02*
X11771143Y-17377714D01*
X11771143Y-17377714D02*
X11752096Y-17368190D01*
X11752096Y-17368190D02*
X11723524Y-17368190D01*
X11723524Y-17368190D02*
X11704476Y-17377714D01*
X11704476Y-17377714D02*
X11694953Y-17387238D01*
X11904476Y-17501524D02*
X11885429Y-17492000D01*
X11885429Y-17492000D02*
X11875905Y-17482476D01*
X11875905Y-17482476D02*
X11866381Y-17463429D01*
X11866381Y-17463429D02*
X11866381Y-17406286D01*
X11866381Y-17406286D02*
X11875905Y-17387238D01*
X11875905Y-17387238D02*
X11885429Y-17377714D01*
X11885429Y-17377714D02*
X11904476Y-17368190D01*
X11904476Y-17368190D02*
X11933048Y-17368190D01*
X11933048Y-17368190D02*
X11952096Y-17377714D01*
X11952096Y-17377714D02*
X11961619Y-17387238D01*
X11961619Y-17387238D02*
X11971143Y-17406286D01*
X11971143Y-17406286D02*
X11971143Y-17463429D01*
X11971143Y-17463429D02*
X11961619Y-17482476D01*
X11961619Y-17482476D02*
X11952096Y-17492000D01*
X11952096Y-17492000D02*
X11933048Y-17501524D01*
X11933048Y-17501524D02*
X11904476Y-17501524D01*
X12085429Y-17501524D02*
X12066381Y-17492000D01*
X12066381Y-17492000D02*
X12056857Y-17472952D01*
X12056857Y-17472952D02*
X12056857Y-17301524D01*
X12237810Y-17492000D02*
X12218762Y-17501524D01*
X12218762Y-17501524D02*
X12180667Y-17501524D01*
X12180667Y-17501524D02*
X12161619Y-17492000D01*
X12161619Y-17492000D02*
X12152096Y-17472952D01*
X12152096Y-17472952D02*
X12152096Y-17396762D01*
X12152096Y-17396762D02*
X12161619Y-17377714D01*
X12161619Y-17377714D02*
X12180667Y-17368190D01*
X12180667Y-17368190D02*
X12218762Y-17368190D01*
X12218762Y-17368190D02*
X12237810Y-17377714D01*
X12237810Y-17377714D02*
X12247334Y-17396762D01*
X12247334Y-17396762D02*
X12247334Y-17415810D01*
X12247334Y-17415810D02*
X12152096Y-17434857D01*
X12314000Y-17577714D02*
X12323524Y-17568190D01*
X12323524Y-17568190D02*
X12342572Y-17539619D01*
X12342572Y-17539619D02*
X12352096Y-17520571D01*
X12352096Y-17520571D02*
X12361619Y-17492000D01*
X12361619Y-17492000D02*
X12371143Y-17444381D01*
X12371143Y-17444381D02*
X12371143Y-17406286D01*
X12371143Y-17406286D02*
X12361619Y-17358667D01*
X12361619Y-17358667D02*
X12352096Y-17330095D01*
X12352096Y-17330095D02*
X12342572Y-17311048D01*
X12342572Y-17311048D02*
X12323524Y-17282476D01*
X12323524Y-17282476D02*
X12314000Y-17272952D01*
X12675905Y-17577714D02*
X12666381Y-17568190D01*
X12666381Y-17568190D02*
X12647334Y-17539619D01*
X12647334Y-17539619D02*
X12637810Y-17520571D01*
X12637810Y-17520571D02*
X12628286Y-17492000D01*
X12628286Y-17492000D02*
X12618762Y-17444381D01*
X12618762Y-17444381D02*
X12618762Y-17406286D01*
X12618762Y-17406286D02*
X12628286Y-17358667D01*
X12628286Y-17358667D02*
X12637810Y-17330095D01*
X12637810Y-17330095D02*
X12647334Y-17311048D01*
X12647334Y-17311048D02*
X12666381Y-17282476D01*
X12666381Y-17282476D02*
X12675905Y-17272952D01*
X12752096Y-17368190D02*
X12752096Y-17501524D01*
X12752096Y-17387238D02*
X12761619Y-17377714D01*
X12761619Y-17377714D02*
X12780667Y-17368190D01*
X12780667Y-17368190D02*
X12809238Y-17368190D01*
X12809238Y-17368190D02*
X12828286Y-17377714D01*
X12828286Y-17377714D02*
X12837810Y-17396762D01*
X12837810Y-17396762D02*
X12837810Y-17501524D01*
X12961619Y-17501524D02*
X12942572Y-17492000D01*
X12942572Y-17492000D02*
X12933048Y-17482476D01*
X12933048Y-17482476D02*
X12923524Y-17463429D01*
X12923524Y-17463429D02*
X12923524Y-17406286D01*
X12923524Y-17406286D02*
X12933048Y-17387238D01*
X12933048Y-17387238D02*
X12942572Y-17377714D01*
X12942572Y-17377714D02*
X12961619Y-17368190D01*
X12961619Y-17368190D02*
X12990191Y-17368190D01*
X12990191Y-17368190D02*
X13009238Y-17377714D01*
X13009238Y-17377714D02*
X13018762Y-17387238D01*
X13018762Y-17387238D02*
X13028286Y-17406286D01*
X13028286Y-17406286D02*
X13028286Y-17463429D01*
X13028286Y-17463429D02*
X13018762Y-17482476D01*
X13018762Y-17482476D02*
X13009238Y-17492000D01*
X13009238Y-17492000D02*
X12990191Y-17501524D01*
X12990191Y-17501524D02*
X12961619Y-17501524D01*
X13085429Y-17368190D02*
X13161619Y-17368190D01*
X13114000Y-17301524D02*
X13114000Y-17472952D01*
X13114000Y-17472952D02*
X13123524Y-17492000D01*
X13123524Y-17492000D02*
X13142572Y-17501524D01*
X13142572Y-17501524D02*
X13161619Y-17501524D01*
X13380667Y-17368190D02*
X13380667Y-17568190D01*
X13380667Y-17377714D02*
X13399715Y-17368190D01*
X13399715Y-17368190D02*
X13437810Y-17368190D01*
X13437810Y-17368190D02*
X13456858Y-17377714D01*
X13456858Y-17377714D02*
X13466381Y-17387238D01*
X13466381Y-17387238D02*
X13475905Y-17406286D01*
X13475905Y-17406286D02*
X13475905Y-17463429D01*
X13475905Y-17463429D02*
X13466381Y-17482476D01*
X13466381Y-17482476D02*
X13456858Y-17492000D01*
X13456858Y-17492000D02*
X13437810Y-17501524D01*
X13437810Y-17501524D02*
X13399715Y-17501524D01*
X13399715Y-17501524D02*
X13380667Y-17492000D01*
X13590191Y-17501524D02*
X13571143Y-17492000D01*
X13571143Y-17492000D02*
X13561619Y-17472952D01*
X13561619Y-17472952D02*
X13561619Y-17301524D01*
X13752096Y-17501524D02*
X13752096Y-17396762D01*
X13752096Y-17396762D02*
X13742572Y-17377714D01*
X13742572Y-17377714D02*
X13723524Y-17368190D01*
X13723524Y-17368190D02*
X13685429Y-17368190D01*
X13685429Y-17368190D02*
X13666381Y-17377714D01*
X13752096Y-17492000D02*
X13733048Y-17501524D01*
X13733048Y-17501524D02*
X13685429Y-17501524D01*
X13685429Y-17501524D02*
X13666381Y-17492000D01*
X13666381Y-17492000D02*
X13656858Y-17472952D01*
X13656858Y-17472952D02*
X13656858Y-17453905D01*
X13656858Y-17453905D02*
X13666381Y-17434857D01*
X13666381Y-17434857D02*
X13685429Y-17425333D01*
X13685429Y-17425333D02*
X13733048Y-17425333D01*
X13733048Y-17425333D02*
X13752096Y-17415810D01*
X13818762Y-17368190D02*
X13894953Y-17368190D01*
X13847334Y-17301524D02*
X13847334Y-17472952D01*
X13847334Y-17472952D02*
X13856858Y-17492000D01*
X13856858Y-17492000D02*
X13875905Y-17501524D01*
X13875905Y-17501524D02*
X13894953Y-17501524D01*
X14037810Y-17492000D02*
X14018762Y-17501524D01*
X14018762Y-17501524D02*
X13980667Y-17501524D01*
X13980667Y-17501524D02*
X13961619Y-17492000D01*
X13961619Y-17492000D02*
X13952096Y-17472952D01*
X13952096Y-17472952D02*
X13952096Y-17396762D01*
X13952096Y-17396762D02*
X13961619Y-17377714D01*
X13961619Y-17377714D02*
X13980667Y-17368190D01*
X13980667Y-17368190D02*
X14018762Y-17368190D01*
X14018762Y-17368190D02*
X14037810Y-17377714D01*
X14037810Y-17377714D02*
X14047334Y-17396762D01*
X14047334Y-17396762D02*
X14047334Y-17415810D01*
X14047334Y-17415810D02*
X13952096Y-17434857D01*
X14218762Y-17501524D02*
X14218762Y-17301524D01*
X14218762Y-17492000D02*
X14199715Y-17501524D01*
X14199715Y-17501524D02*
X14161619Y-17501524D01*
X14161619Y-17501524D02*
X14142572Y-17492000D01*
X14142572Y-17492000D02*
X14133048Y-17482476D01*
X14133048Y-17482476D02*
X14123524Y-17463429D01*
X14123524Y-17463429D02*
X14123524Y-17406286D01*
X14123524Y-17406286D02*
X14133048Y-17387238D01*
X14133048Y-17387238D02*
X14142572Y-17377714D01*
X14142572Y-17377714D02*
X14161619Y-17368190D01*
X14161619Y-17368190D02*
X14199715Y-17368190D01*
X14199715Y-17368190D02*
X14218762Y-17377714D01*
X14294953Y-17577714D02*
X14304477Y-17568190D01*
X14304477Y-17568190D02*
X14323524Y-17539619D01*
X14323524Y-17539619D02*
X14333048Y-17520571D01*
X14333048Y-17520571D02*
X14342572Y-17492000D01*
X14342572Y-17492000D02*
X14352096Y-17444381D01*
X14352096Y-17444381D02*
X14352096Y-17406286D01*
X14352096Y-17406286D02*
X14342572Y-17358667D01*
X14342572Y-17358667D02*
X14333048Y-17330095D01*
X14333048Y-17330095D02*
X14323524Y-17311048D01*
X14323524Y-17311048D02*
X14304477Y-17282476D01*
X14304477Y-17282476D02*
X14294953Y-17272952D01*
X7614000Y-17573000D02*
X7614000Y-17773000D01*
X7514000Y-17673000D02*
X7714000Y-17673000D01*
X7952095Y-17584571D02*
X7961619Y-17575048D01*
X7961619Y-17575048D02*
X7980667Y-17565524D01*
X7980667Y-17565524D02*
X8028286Y-17565524D01*
X8028286Y-17565524D02*
X8047333Y-17575048D01*
X8047333Y-17575048D02*
X8056857Y-17584571D01*
X8056857Y-17584571D02*
X8066381Y-17603619D01*
X8066381Y-17603619D02*
X8066381Y-17622667D01*
X8066381Y-17622667D02*
X8056857Y-17651238D01*
X8056857Y-17651238D02*
X7942571Y-17765524D01*
X7942571Y-17765524D02*
X8066381Y-17765524D01*
X8152095Y-17746476D02*
X8161619Y-17756000D01*
X8161619Y-17756000D02*
X8152095Y-17765524D01*
X8152095Y-17765524D02*
X8142571Y-17756000D01*
X8142571Y-17756000D02*
X8152095Y-17746476D01*
X8152095Y-17746476D02*
X8152095Y-17765524D01*
X8237809Y-17584571D02*
X8247333Y-17575048D01*
X8247333Y-17575048D02*
X8266381Y-17565524D01*
X8266381Y-17565524D02*
X8314000Y-17565524D01*
X8314000Y-17565524D02*
X8333048Y-17575048D01*
X8333048Y-17575048D02*
X8342571Y-17584571D01*
X8342571Y-17584571D02*
X8352095Y-17603619D01*
X8352095Y-17603619D02*
X8352095Y-17622667D01*
X8352095Y-17622667D02*
X8342571Y-17651238D01*
X8342571Y-17651238D02*
X8228286Y-17765524D01*
X8228286Y-17765524D02*
X8352095Y-17765524D01*
X8475905Y-17565524D02*
X8494952Y-17565524D01*
X8494952Y-17565524D02*
X8514000Y-17575048D01*
X8514000Y-17575048D02*
X8523524Y-17584571D01*
X8523524Y-17584571D02*
X8533048Y-17603619D01*
X8533048Y-17603619D02*
X8542571Y-17641714D01*
X8542571Y-17641714D02*
X8542571Y-17689333D01*
X8542571Y-17689333D02*
X8533048Y-17727429D01*
X8533048Y-17727429D02*
X8523524Y-17746476D01*
X8523524Y-17746476D02*
X8514000Y-17756000D01*
X8514000Y-17756000D02*
X8494952Y-17765524D01*
X8494952Y-17765524D02*
X8475905Y-17765524D01*
X8475905Y-17765524D02*
X8456857Y-17756000D01*
X8456857Y-17756000D02*
X8447333Y-17746476D01*
X8447333Y-17746476D02*
X8437810Y-17727429D01*
X8437810Y-17727429D02*
X8428286Y-17689333D01*
X8428286Y-17689333D02*
X8428286Y-17641714D01*
X8428286Y-17641714D02*
X8437810Y-17603619D01*
X8437810Y-17603619D02*
X8447333Y-17584571D01*
X8447333Y-17584571D02*
X8456857Y-17575048D01*
X8456857Y-17575048D02*
X8475905Y-17565524D01*
X8666381Y-17565524D02*
X8685429Y-17565524D01*
X8685429Y-17565524D02*
X8704476Y-17575048D01*
X8704476Y-17575048D02*
X8714000Y-17584571D01*
X8714000Y-17584571D02*
X8723524Y-17603619D01*
X8723524Y-17603619D02*
X8733048Y-17641714D01*
X8733048Y-17641714D02*
X8733048Y-17689333D01*
X8733048Y-17689333D02*
X8723524Y-17727429D01*
X8723524Y-17727429D02*
X8714000Y-17746476D01*
X8714000Y-17746476D02*
X8704476Y-17756000D01*
X8704476Y-17756000D02*
X8685429Y-17765524D01*
X8685429Y-17765524D02*
X8666381Y-17765524D01*
X8666381Y-17765524D02*
X8647333Y-17756000D01*
X8647333Y-17756000D02*
X8637810Y-17746476D01*
X8637810Y-17746476D02*
X8628286Y-17727429D01*
X8628286Y-17727429D02*
X8618762Y-17689333D01*
X8618762Y-17689333D02*
X8618762Y-17641714D01*
X8618762Y-17641714D02*
X8628286Y-17603619D01*
X8628286Y-17603619D02*
X8637810Y-17584571D01*
X8637810Y-17584571D02*
X8647333Y-17575048D01*
X8647333Y-17575048D02*
X8666381Y-17565524D01*
X8818762Y-17765524D02*
X8818762Y-17632190D01*
X8818762Y-17651238D02*
X8828286Y-17641714D01*
X8828286Y-17641714D02*
X8847333Y-17632190D01*
X8847333Y-17632190D02*
X8875905Y-17632190D01*
X8875905Y-17632190D02*
X8894952Y-17641714D01*
X8894952Y-17641714D02*
X8904476Y-17660762D01*
X8904476Y-17660762D02*
X8904476Y-17765524D01*
X8904476Y-17660762D02*
X8914000Y-17641714D01*
X8914000Y-17641714D02*
X8933048Y-17632190D01*
X8933048Y-17632190D02*
X8961619Y-17632190D01*
X8961619Y-17632190D02*
X8980667Y-17641714D01*
X8980667Y-17641714D02*
X8990191Y-17660762D01*
X8990191Y-17660762D02*
X8990191Y-17765524D01*
X9085429Y-17765524D02*
X9085429Y-17632190D01*
X9085429Y-17651238D02*
X9094952Y-17641714D01*
X9094952Y-17641714D02*
X9114000Y-17632190D01*
X9114000Y-17632190D02*
X9142572Y-17632190D01*
X9142572Y-17632190D02*
X9161619Y-17641714D01*
X9161619Y-17641714D02*
X9171143Y-17660762D01*
X9171143Y-17660762D02*
X9171143Y-17765524D01*
X9171143Y-17660762D02*
X9180667Y-17641714D01*
X9180667Y-17641714D02*
X9199714Y-17632190D01*
X9199714Y-17632190D02*
X9228286Y-17632190D01*
X9228286Y-17632190D02*
X9247333Y-17641714D01*
X9247333Y-17641714D02*
X9256857Y-17660762D01*
X9256857Y-17660762D02*
X9256857Y-17765524D01*
X9647333Y-17556000D02*
X9475905Y-17813143D01*
X9904476Y-17565524D02*
X9923524Y-17565524D01*
X9923524Y-17565524D02*
X9942572Y-17575048D01*
X9942572Y-17575048D02*
X9952095Y-17584571D01*
X9952095Y-17584571D02*
X9961619Y-17603619D01*
X9961619Y-17603619D02*
X9971143Y-17641714D01*
X9971143Y-17641714D02*
X9971143Y-17689333D01*
X9971143Y-17689333D02*
X9961619Y-17727429D01*
X9961619Y-17727429D02*
X9952095Y-17746476D01*
X9952095Y-17746476D02*
X9942572Y-17756000D01*
X9942572Y-17756000D02*
X9923524Y-17765524D01*
X9923524Y-17765524D02*
X9904476Y-17765524D01*
X9904476Y-17765524D02*
X9885429Y-17756000D01*
X9885429Y-17756000D02*
X9875905Y-17746476D01*
X9875905Y-17746476D02*
X9866381Y-17727429D01*
X9866381Y-17727429D02*
X9856857Y-17689333D01*
X9856857Y-17689333D02*
X9856857Y-17641714D01*
X9856857Y-17641714D02*
X9866381Y-17603619D01*
X9866381Y-17603619D02*
X9875905Y-17584571D01*
X9875905Y-17584571D02*
X9885429Y-17575048D01*
X9885429Y-17575048D02*
X9904476Y-17565524D01*
X10056857Y-17746476D02*
X10066381Y-17756000D01*
X10066381Y-17756000D02*
X10056857Y-17765524D01*
X10056857Y-17765524D02*
X10047334Y-17756000D01*
X10047334Y-17756000D02*
X10056857Y-17746476D01*
X10056857Y-17746476D02*
X10056857Y-17765524D01*
X10190191Y-17565524D02*
X10209238Y-17565524D01*
X10209238Y-17565524D02*
X10228286Y-17575048D01*
X10228286Y-17575048D02*
X10237810Y-17584571D01*
X10237810Y-17584571D02*
X10247334Y-17603619D01*
X10247334Y-17603619D02*
X10256857Y-17641714D01*
X10256857Y-17641714D02*
X10256857Y-17689333D01*
X10256857Y-17689333D02*
X10247334Y-17727429D01*
X10247334Y-17727429D02*
X10237810Y-17746476D01*
X10237810Y-17746476D02*
X10228286Y-17756000D01*
X10228286Y-17756000D02*
X10209238Y-17765524D01*
X10209238Y-17765524D02*
X10190191Y-17765524D01*
X10190191Y-17765524D02*
X10171143Y-17756000D01*
X10171143Y-17756000D02*
X10161619Y-17746476D01*
X10161619Y-17746476D02*
X10152095Y-17727429D01*
X10152095Y-17727429D02*
X10142572Y-17689333D01*
X10142572Y-17689333D02*
X10142572Y-17641714D01*
X10142572Y-17641714D02*
X10152095Y-17603619D01*
X10152095Y-17603619D02*
X10161619Y-17584571D01*
X10161619Y-17584571D02*
X10171143Y-17575048D01*
X10171143Y-17575048D02*
X10190191Y-17565524D01*
X10371143Y-17651238D02*
X10352095Y-17641714D01*
X10352095Y-17641714D02*
X10342572Y-17632190D01*
X10342572Y-17632190D02*
X10333048Y-17613143D01*
X10333048Y-17613143D02*
X10333048Y-17603619D01*
X10333048Y-17603619D02*
X10342572Y-17584571D01*
X10342572Y-17584571D02*
X10352095Y-17575048D01*
X10352095Y-17575048D02*
X10371143Y-17565524D01*
X10371143Y-17565524D02*
X10409238Y-17565524D01*
X10409238Y-17565524D02*
X10428286Y-17575048D01*
X10428286Y-17575048D02*
X10437810Y-17584571D01*
X10437810Y-17584571D02*
X10447334Y-17603619D01*
X10447334Y-17603619D02*
X10447334Y-17613143D01*
X10447334Y-17613143D02*
X10437810Y-17632190D01*
X10437810Y-17632190D02*
X10428286Y-17641714D01*
X10428286Y-17641714D02*
X10409238Y-17651238D01*
X10409238Y-17651238D02*
X10371143Y-17651238D01*
X10371143Y-17651238D02*
X10352095Y-17660762D01*
X10352095Y-17660762D02*
X10342572Y-17670286D01*
X10342572Y-17670286D02*
X10333048Y-17689333D01*
X10333048Y-17689333D02*
X10333048Y-17727429D01*
X10333048Y-17727429D02*
X10342572Y-17746476D01*
X10342572Y-17746476D02*
X10352095Y-17756000D01*
X10352095Y-17756000D02*
X10371143Y-17765524D01*
X10371143Y-17765524D02*
X10409238Y-17765524D01*
X10409238Y-17765524D02*
X10428286Y-17756000D01*
X10428286Y-17756000D02*
X10437810Y-17746476D01*
X10437810Y-17746476D02*
X10447334Y-17727429D01*
X10447334Y-17727429D02*
X10447334Y-17689333D01*
X10447334Y-17689333D02*
X10437810Y-17670286D01*
X10437810Y-17670286D02*
X10428286Y-17660762D01*
X10428286Y-17660762D02*
X10409238Y-17651238D01*
X10618762Y-17565524D02*
X10580667Y-17565524D01*
X10580667Y-17565524D02*
X10561619Y-17575048D01*
X10561619Y-17575048D02*
X10552095Y-17584571D01*
X10552095Y-17584571D02*
X10533048Y-17613143D01*
X10533048Y-17613143D02*
X10523524Y-17651238D01*
X10523524Y-17651238D02*
X10523524Y-17727429D01*
X10523524Y-17727429D02*
X10533048Y-17746476D01*
X10533048Y-17746476D02*
X10542572Y-17756000D01*
X10542572Y-17756000D02*
X10561619Y-17765524D01*
X10561619Y-17765524D02*
X10599715Y-17765524D01*
X10599715Y-17765524D02*
X10618762Y-17756000D01*
X10618762Y-17756000D02*
X10628286Y-17746476D01*
X10628286Y-17746476D02*
X10637810Y-17727429D01*
X10637810Y-17727429D02*
X10637810Y-17679810D01*
X10637810Y-17679810D02*
X10628286Y-17660762D01*
X10628286Y-17660762D02*
X10618762Y-17651238D01*
X10618762Y-17651238D02*
X10599715Y-17641714D01*
X10599715Y-17641714D02*
X10561619Y-17641714D01*
X10561619Y-17641714D02*
X10542572Y-17651238D01*
X10542572Y-17651238D02*
X10533048Y-17660762D01*
X10533048Y-17660762D02*
X10523524Y-17679810D01*
X10809238Y-17565524D02*
X10771143Y-17565524D01*
X10771143Y-17565524D02*
X10752095Y-17575048D01*
X10752095Y-17575048D02*
X10742572Y-17584571D01*
X10742572Y-17584571D02*
X10723524Y-17613143D01*
X10723524Y-17613143D02*
X10714000Y-17651238D01*
X10714000Y-17651238D02*
X10714000Y-17727429D01*
X10714000Y-17727429D02*
X10723524Y-17746476D01*
X10723524Y-17746476D02*
X10733048Y-17756000D01*
X10733048Y-17756000D02*
X10752095Y-17765524D01*
X10752095Y-17765524D02*
X10790191Y-17765524D01*
X10790191Y-17765524D02*
X10809238Y-17756000D01*
X10809238Y-17756000D02*
X10818762Y-17746476D01*
X10818762Y-17746476D02*
X10828286Y-17727429D01*
X10828286Y-17727429D02*
X10828286Y-17679810D01*
X10828286Y-17679810D02*
X10818762Y-17660762D01*
X10818762Y-17660762D02*
X10809238Y-17651238D01*
X10809238Y-17651238D02*
X10790191Y-17641714D01*
X10790191Y-17641714D02*
X10752095Y-17641714D01*
X10752095Y-17641714D02*
X10733048Y-17651238D01*
X10733048Y-17651238D02*
X10723524Y-17660762D01*
X10723524Y-17660762D02*
X10714000Y-17679810D01*
X10904476Y-17565524D02*
X10904476Y-17603619D01*
X10980667Y-17565524D02*
X10980667Y-17603619D01*
X11275905Y-17841714D02*
X11266381Y-17832190D01*
X11266381Y-17832190D02*
X11247334Y-17803619D01*
X11247334Y-17803619D02*
X11237810Y-17784571D01*
X11237810Y-17784571D02*
X11228286Y-17756000D01*
X11228286Y-17756000D02*
X11218762Y-17708381D01*
X11218762Y-17708381D02*
X11218762Y-17670286D01*
X11218762Y-17670286D02*
X11228286Y-17622667D01*
X11228286Y-17622667D02*
X11237810Y-17594095D01*
X11237810Y-17594095D02*
X11247334Y-17575048D01*
X11247334Y-17575048D02*
X11266381Y-17546476D01*
X11266381Y-17546476D02*
X11275905Y-17536952D01*
X11437810Y-17632190D02*
X11437810Y-17765524D01*
X11390191Y-17556000D02*
X11342572Y-17698857D01*
X11342572Y-17698857D02*
X11466381Y-17698857D01*
X11694953Y-17765524D02*
X11694953Y-17565524D01*
X11780667Y-17765524D02*
X11780667Y-17660762D01*
X11780667Y-17660762D02*
X11771143Y-17641714D01*
X11771143Y-17641714D02*
X11752096Y-17632190D01*
X11752096Y-17632190D02*
X11723524Y-17632190D01*
X11723524Y-17632190D02*
X11704476Y-17641714D01*
X11704476Y-17641714D02*
X11694953Y-17651238D01*
X11904476Y-17765524D02*
X11885429Y-17756000D01*
X11885429Y-17756000D02*
X11875905Y-17746476D01*
X11875905Y-17746476D02*
X11866381Y-17727429D01*
X11866381Y-17727429D02*
X11866381Y-17670286D01*
X11866381Y-17670286D02*
X11875905Y-17651238D01*
X11875905Y-17651238D02*
X11885429Y-17641714D01*
X11885429Y-17641714D02*
X11904476Y-17632190D01*
X11904476Y-17632190D02*
X11933048Y-17632190D01*
X11933048Y-17632190D02*
X11952096Y-17641714D01*
X11952096Y-17641714D02*
X11961619Y-17651238D01*
X11961619Y-17651238D02*
X11971143Y-17670286D01*
X11971143Y-17670286D02*
X11971143Y-17727429D01*
X11971143Y-17727429D02*
X11961619Y-17746476D01*
X11961619Y-17746476D02*
X11952096Y-17756000D01*
X11952096Y-17756000D02*
X11933048Y-17765524D01*
X11933048Y-17765524D02*
X11904476Y-17765524D01*
X12085429Y-17765524D02*
X12066381Y-17756000D01*
X12066381Y-17756000D02*
X12056857Y-17736952D01*
X12056857Y-17736952D02*
X12056857Y-17565524D01*
X12237810Y-17756000D02*
X12218762Y-17765524D01*
X12218762Y-17765524D02*
X12180667Y-17765524D01*
X12180667Y-17765524D02*
X12161619Y-17756000D01*
X12161619Y-17756000D02*
X12152096Y-17736952D01*
X12152096Y-17736952D02*
X12152096Y-17660762D01*
X12152096Y-17660762D02*
X12161619Y-17641714D01*
X12161619Y-17641714D02*
X12180667Y-17632190D01*
X12180667Y-17632190D02*
X12218762Y-17632190D01*
X12218762Y-17632190D02*
X12237810Y-17641714D01*
X12237810Y-17641714D02*
X12247334Y-17660762D01*
X12247334Y-17660762D02*
X12247334Y-17679810D01*
X12247334Y-17679810D02*
X12152096Y-17698857D01*
X12323524Y-17756000D02*
X12342572Y-17765524D01*
X12342572Y-17765524D02*
X12380667Y-17765524D01*
X12380667Y-17765524D02*
X12399715Y-17756000D01*
X12399715Y-17756000D02*
X12409238Y-17736952D01*
X12409238Y-17736952D02*
X12409238Y-17727429D01*
X12409238Y-17727429D02*
X12399715Y-17708381D01*
X12399715Y-17708381D02*
X12380667Y-17698857D01*
X12380667Y-17698857D02*
X12352096Y-17698857D01*
X12352096Y-17698857D02*
X12333048Y-17689333D01*
X12333048Y-17689333D02*
X12323524Y-17670286D01*
X12323524Y-17670286D02*
X12323524Y-17660762D01*
X12323524Y-17660762D02*
X12333048Y-17641714D01*
X12333048Y-17641714D02*
X12352096Y-17632190D01*
X12352096Y-17632190D02*
X12380667Y-17632190D01*
X12380667Y-17632190D02*
X12399715Y-17641714D01*
X12475905Y-17841714D02*
X12485429Y-17832190D01*
X12485429Y-17832190D02*
X12504477Y-17803619D01*
X12504477Y-17803619D02*
X12514000Y-17784571D01*
X12514000Y-17784571D02*
X12523524Y-17756000D01*
X12523524Y-17756000D02*
X12533048Y-17708381D01*
X12533048Y-17708381D02*
X12533048Y-17670286D01*
X12533048Y-17670286D02*
X12523524Y-17622667D01*
X12523524Y-17622667D02*
X12514000Y-17594095D01*
X12514000Y-17594095D02*
X12504477Y-17575048D01*
X12504477Y-17575048D02*
X12485429Y-17546476D01*
X12485429Y-17546476D02*
X12475905Y-17536952D01*
X12837810Y-17841714D02*
X12828286Y-17832190D01*
X12828286Y-17832190D02*
X12809238Y-17803619D01*
X12809238Y-17803619D02*
X12799715Y-17784571D01*
X12799715Y-17784571D02*
X12790191Y-17756000D01*
X12790191Y-17756000D02*
X12780667Y-17708381D01*
X12780667Y-17708381D02*
X12780667Y-17670286D01*
X12780667Y-17670286D02*
X12790191Y-17622667D01*
X12790191Y-17622667D02*
X12799715Y-17594095D01*
X12799715Y-17594095D02*
X12809238Y-17575048D01*
X12809238Y-17575048D02*
X12828286Y-17546476D01*
X12828286Y-17546476D02*
X12837810Y-17536952D01*
X12914000Y-17632190D02*
X12914000Y-17765524D01*
X12914000Y-17651238D02*
X12923524Y-17641714D01*
X12923524Y-17641714D02*
X12942572Y-17632190D01*
X12942572Y-17632190D02*
X12971143Y-17632190D01*
X12971143Y-17632190D02*
X12990191Y-17641714D01*
X12990191Y-17641714D02*
X12999715Y-17660762D01*
X12999715Y-17660762D02*
X12999715Y-17765524D01*
X13123524Y-17765524D02*
X13104477Y-17756000D01*
X13104477Y-17756000D02*
X13094953Y-17746476D01*
X13094953Y-17746476D02*
X13085429Y-17727429D01*
X13085429Y-17727429D02*
X13085429Y-17670286D01*
X13085429Y-17670286D02*
X13094953Y-17651238D01*
X13094953Y-17651238D02*
X13104477Y-17641714D01*
X13104477Y-17641714D02*
X13123524Y-17632190D01*
X13123524Y-17632190D02*
X13152096Y-17632190D01*
X13152096Y-17632190D02*
X13171143Y-17641714D01*
X13171143Y-17641714D02*
X13180667Y-17651238D01*
X13180667Y-17651238D02*
X13190191Y-17670286D01*
X13190191Y-17670286D02*
X13190191Y-17727429D01*
X13190191Y-17727429D02*
X13180667Y-17746476D01*
X13180667Y-17746476D02*
X13171143Y-17756000D01*
X13171143Y-17756000D02*
X13152096Y-17765524D01*
X13152096Y-17765524D02*
X13123524Y-17765524D01*
X13247334Y-17632190D02*
X13323524Y-17632190D01*
X13275905Y-17565524D02*
X13275905Y-17736952D01*
X13275905Y-17736952D02*
X13285429Y-17756000D01*
X13285429Y-17756000D02*
X13304477Y-17765524D01*
X13304477Y-17765524D02*
X13323524Y-17765524D01*
X13542572Y-17632190D02*
X13542572Y-17832190D01*
X13542572Y-17641714D02*
X13561619Y-17632190D01*
X13561619Y-17632190D02*
X13599715Y-17632190D01*
X13599715Y-17632190D02*
X13618762Y-17641714D01*
X13618762Y-17641714D02*
X13628286Y-17651238D01*
X13628286Y-17651238D02*
X13637810Y-17670286D01*
X13637810Y-17670286D02*
X13637810Y-17727429D01*
X13637810Y-17727429D02*
X13628286Y-17746476D01*
X13628286Y-17746476D02*
X13618762Y-17756000D01*
X13618762Y-17756000D02*
X13599715Y-17765524D01*
X13599715Y-17765524D02*
X13561619Y-17765524D01*
X13561619Y-17765524D02*
X13542572Y-17756000D01*
X13752096Y-17765524D02*
X13733048Y-17756000D01*
X13733048Y-17756000D02*
X13723524Y-17736952D01*
X13723524Y-17736952D02*
X13723524Y-17565524D01*
X13914000Y-17765524D02*
X13914000Y-17660762D01*
X13914000Y-17660762D02*
X13904477Y-17641714D01*
X13904477Y-17641714D02*
X13885429Y-17632190D01*
X13885429Y-17632190D02*
X13847334Y-17632190D01*
X13847334Y-17632190D02*
X13828286Y-17641714D01*
X13914000Y-17756000D02*
X13894953Y-17765524D01*
X13894953Y-17765524D02*
X13847334Y-17765524D01*
X13847334Y-17765524D02*
X13828286Y-17756000D01*
X13828286Y-17756000D02*
X13818762Y-17736952D01*
X13818762Y-17736952D02*
X13818762Y-17717905D01*
X13818762Y-17717905D02*
X13828286Y-17698857D01*
X13828286Y-17698857D02*
X13847334Y-17689333D01*
X13847334Y-17689333D02*
X13894953Y-17689333D01*
X13894953Y-17689333D02*
X13914000Y-17679810D01*
X13980667Y-17632190D02*
X14056858Y-17632190D01*
X14009239Y-17565524D02*
X14009239Y-17736952D01*
X14009239Y-17736952D02*
X14018762Y-17756000D01*
X14018762Y-17756000D02*
X14037810Y-17765524D01*
X14037810Y-17765524D02*
X14056858Y-17765524D01*
X14199715Y-17756000D02*
X14180667Y-17765524D01*
X14180667Y-17765524D02*
X14142572Y-17765524D01*
X14142572Y-17765524D02*
X14123524Y-17756000D01*
X14123524Y-17756000D02*
X14114000Y-17736952D01*
X14114000Y-17736952D02*
X14114000Y-17660762D01*
X14114000Y-17660762D02*
X14123524Y-17641714D01*
X14123524Y-17641714D02*
X14142572Y-17632190D01*
X14142572Y-17632190D02*
X14180667Y-17632190D01*
X14180667Y-17632190D02*
X14199715Y-17641714D01*
X14199715Y-17641714D02*
X14209239Y-17660762D01*
X14209239Y-17660762D02*
X14209239Y-17679810D01*
X14209239Y-17679810D02*
X14114000Y-17698857D01*
X14380667Y-17765524D02*
X14380667Y-17565524D01*
X14380667Y-17756000D02*
X14361620Y-17765524D01*
X14361620Y-17765524D02*
X14323524Y-17765524D01*
X14323524Y-17765524D02*
X14304477Y-17756000D01*
X14304477Y-17756000D02*
X14294953Y-17746476D01*
X14294953Y-17746476D02*
X14285429Y-17727429D01*
X14285429Y-17727429D02*
X14285429Y-17670286D01*
X14285429Y-17670286D02*
X14294953Y-17651238D01*
X14294953Y-17651238D02*
X14304477Y-17641714D01*
X14304477Y-17641714D02*
X14323524Y-17632190D01*
X14323524Y-17632190D02*
X14361620Y-17632190D01*
X14361620Y-17632190D02*
X14380667Y-17641714D01*
X14456858Y-17841714D02*
X14466381Y-17832190D01*
X14466381Y-17832190D02*
X14485429Y-17803619D01*
X14485429Y-17803619D02*
X14494953Y-17784571D01*
X14494953Y-17784571D02*
X14504477Y-17756000D01*
X14504477Y-17756000D02*
X14514000Y-17708381D01*
X14514000Y-17708381D02*
X14514000Y-17670286D01*
X14514000Y-17670286D02*
X14504477Y-17622667D01*
X14504477Y-17622667D02*
X14494953Y-17594095D01*
X14494953Y-17594095D02*
X14485429Y-17575048D01*
X14485429Y-17575048D02*
X14466381Y-17546476D01*
X14466381Y-17546476D02*
X14456858Y-17536952D01*
M02*
