%TF.GenerationSoftware,KiCad,Pcbnew,7.0.6-0*%
%TF.CreationDate,2023-07-12T23:14:27-04:00*%
%TF.ProjectId,bitaxeUltra,62697461-7865-4556-9c74-72612e6b6963,rev?*%
%TF.SameCoordinates,Original*%
%TF.FileFunction,Legend,Bot*%
%TF.FilePolarity,Positive*%
%FSLAX46Y46*%
G04 Gerber Fmt 4.6, Leading zero omitted, Abs format (unit mm)*
G04 Created by KiCad (PCBNEW 7.0.6-0) date 2023-07-12 23:14:27*
%MOMM*%
%LPD*%
G01*
G04 APERTURE LIST*
G04 Aperture macros list*
%AMRoundRect*
0 Rectangle with rounded corners*
0 $1 Rounding radius*
0 $2 $3 $4 $5 $6 $7 $8 $9 X,Y pos of 4 corners*
0 Add a 4 corners polygon primitive as box body*
4,1,4,$2,$3,$4,$5,$6,$7,$8,$9,$2,$3,0*
0 Add four circle primitives for the rounded corners*
1,1,$1+$1,$2,$3*
1,1,$1+$1,$4,$5*
1,1,$1+$1,$6,$7*
1,1,$1+$1,$8,$9*
0 Add four rect primitives between the rounded corners*
20,1,$1+$1,$2,$3,$4,$5,0*
20,1,$1+$1,$4,$5,$6,$7,0*
20,1,$1+$1,$6,$7,$8,$9,0*
20,1,$1+$1,$8,$9,$2,$3,0*%
G04 Aperture macros list end*
%ADD10C,0.150000*%
%ADD11C,0.250000*%
%ADD12C,0.152400*%
%ADD13C,0.120000*%
%ADD14C,0.508000*%
%ADD15C,0.050000*%
%ADD16C,0.227485*%
%ADD17R,0.508000X1.524000*%
%ADD18R,1.700000X1.700000*%
%ADD19O,1.700000X1.700000*%
%ADD20C,3.500000*%
%ADD21C,2.200000*%
%ADD22C,0.400000*%
%ADD23R,1.346200X0.406400*%
%ADD24R,1.397000X1.600200*%
%ADD25R,1.905000X1.905000*%
%ADD26O,1.600200X0.914400*%
%ADD27C,1.295400*%
%ADD28C,1.574800*%
%ADD29C,2.520000*%
%ADD30R,0.900000X1.500000*%
%ADD31R,1.500000X0.900000*%
%ADD32R,0.900000X0.900000*%
%ADD33C,0.990600*%
%ADD34C,0.787400*%
%ADD35R,0.792000X0.221000*%
%ADD36R,4.277000X1.810000*%
%ADD37R,4.277000X4.530000*%
%ADD38RoundRect,0.250000X-0.550000X1.500000X-0.550000X-1.500000X0.550000X-1.500000X0.550000X1.500000X0*%
G04 APERTURE END LIST*
D10*
X85450000Y-95700000D02*
X125430000Y-95700000D01*
X125430000Y-135690000D01*
X85450000Y-135690000D01*
X85450000Y-95700000D01*
X117502319Y-140152046D02*
X117026128Y-139818713D01*
X117502319Y-139580618D02*
X116502319Y-139580618D01*
X116502319Y-139580618D02*
X116502319Y-139961570D01*
X116502319Y-139961570D02*
X116549938Y-140056808D01*
X116549938Y-140056808D02*
X116597557Y-140104427D01*
X116597557Y-140104427D02*
X116692795Y-140152046D01*
X116692795Y-140152046D02*
X116835652Y-140152046D01*
X116835652Y-140152046D02*
X116930890Y-140104427D01*
X116930890Y-140104427D02*
X116978509Y-140056808D01*
X116978509Y-140056808D02*
X117026128Y-139961570D01*
X117026128Y-139961570D02*
X117026128Y-139580618D01*
X117454700Y-140532999D02*
X117502319Y-140675856D01*
X117502319Y-140675856D02*
X117502319Y-140913951D01*
X117502319Y-140913951D02*
X117454700Y-141009189D01*
X117454700Y-141009189D02*
X117407080Y-141056808D01*
X117407080Y-141056808D02*
X117311842Y-141104427D01*
X117311842Y-141104427D02*
X117216604Y-141104427D01*
X117216604Y-141104427D02*
X117121366Y-141056808D01*
X117121366Y-141056808D02*
X117073747Y-141009189D01*
X117073747Y-141009189D02*
X117026128Y-140913951D01*
X117026128Y-140913951D02*
X116978509Y-140723475D01*
X116978509Y-140723475D02*
X116930890Y-140628237D01*
X116930890Y-140628237D02*
X116883271Y-140580618D01*
X116883271Y-140580618D02*
X116788033Y-140532999D01*
X116788033Y-140532999D02*
X116692795Y-140532999D01*
X116692795Y-140532999D02*
X116597557Y-140580618D01*
X116597557Y-140580618D02*
X116549938Y-140628237D01*
X116549938Y-140628237D02*
X116502319Y-140723475D01*
X116502319Y-140723475D02*
X116502319Y-140961570D01*
X116502319Y-140961570D02*
X116549938Y-141104427D01*
X116502319Y-141390142D02*
X116502319Y-141961570D01*
X117502319Y-141675856D02*
X116502319Y-141675856D01*
X91663819Y-138827523D02*
X91663819Y-138351333D01*
X91663819Y-138351333D02*
X92140009Y-138303714D01*
X92140009Y-138303714D02*
X92092390Y-138351333D01*
X92092390Y-138351333D02*
X92044771Y-138446571D01*
X92044771Y-138446571D02*
X92044771Y-138684666D01*
X92044771Y-138684666D02*
X92092390Y-138779904D01*
X92092390Y-138779904D02*
X92140009Y-138827523D01*
X92140009Y-138827523D02*
X92235247Y-138875142D01*
X92235247Y-138875142D02*
X92473342Y-138875142D01*
X92473342Y-138875142D02*
X92568580Y-138827523D01*
X92568580Y-138827523D02*
X92616200Y-138779904D01*
X92616200Y-138779904D02*
X92663819Y-138684666D01*
X92663819Y-138684666D02*
X92663819Y-138446571D01*
X92663819Y-138446571D02*
X92616200Y-138351333D01*
X92616200Y-138351333D02*
X92568580Y-138303714D01*
X91663819Y-139160857D02*
X92663819Y-139494190D01*
X92663819Y-139494190D02*
X91663819Y-139827523D01*
X109904819Y-140056809D02*
X109904819Y-139485381D01*
X109904819Y-139771095D02*
X108904819Y-139771095D01*
X108904819Y-139771095D02*
X109047676Y-139675857D01*
X109047676Y-139675857D02*
X109142914Y-139580619D01*
X109142914Y-139580619D02*
X109190533Y-139485381D01*
X108904819Y-140342524D02*
X109904819Y-140675857D01*
X109904819Y-140675857D02*
X108904819Y-141009190D01*
X109333390Y-141485381D02*
X109285771Y-141390143D01*
X109285771Y-141390143D02*
X109238152Y-141342524D01*
X109238152Y-141342524D02*
X109142914Y-141294905D01*
X109142914Y-141294905D02*
X109095295Y-141294905D01*
X109095295Y-141294905D02*
X109000057Y-141342524D01*
X109000057Y-141342524D02*
X108952438Y-141390143D01*
X108952438Y-141390143D02*
X108904819Y-141485381D01*
X108904819Y-141485381D02*
X108904819Y-141675857D01*
X108904819Y-141675857D02*
X108952438Y-141771095D01*
X108952438Y-141771095D02*
X109000057Y-141818714D01*
X109000057Y-141818714D02*
X109095295Y-141866333D01*
X109095295Y-141866333D02*
X109142914Y-141866333D01*
X109142914Y-141866333D02*
X109238152Y-141818714D01*
X109238152Y-141818714D02*
X109285771Y-141771095D01*
X109285771Y-141771095D02*
X109333390Y-141675857D01*
X109333390Y-141675857D02*
X109333390Y-141485381D01*
X109333390Y-141485381D02*
X109381009Y-141390143D01*
X109381009Y-141390143D02*
X109428628Y-141342524D01*
X109428628Y-141342524D02*
X109523866Y-141294905D01*
X109523866Y-141294905D02*
X109714342Y-141294905D01*
X109714342Y-141294905D02*
X109809580Y-141342524D01*
X109809580Y-141342524D02*
X109857200Y-141390143D01*
X109857200Y-141390143D02*
X109904819Y-141485381D01*
X109904819Y-141485381D02*
X109904819Y-141675857D01*
X109904819Y-141675857D02*
X109857200Y-141771095D01*
X109857200Y-141771095D02*
X109809580Y-141818714D01*
X109809580Y-141818714D02*
X109714342Y-141866333D01*
X109714342Y-141866333D02*
X109523866Y-141866333D01*
X109523866Y-141866333D02*
X109428628Y-141818714D01*
X109428628Y-141818714D02*
X109381009Y-141771095D01*
X109381009Y-141771095D02*
X109333390Y-141675857D01*
X106026190Y-110517200D02*
X106883332Y-111802914D01*
X104978570Y-110660057D02*
X104930951Y-110612438D01*
X104930951Y-110612438D02*
X104835713Y-110564819D01*
X104835713Y-110564819D02*
X104597618Y-110564819D01*
X104597618Y-110564819D02*
X104502380Y-110612438D01*
X104502380Y-110612438D02*
X104454761Y-110660057D01*
X104454761Y-110660057D02*
X104407142Y-110755295D01*
X104407142Y-110755295D02*
X104407142Y-110850533D01*
X104407142Y-110850533D02*
X104454761Y-110993390D01*
X104454761Y-110993390D02*
X105026189Y-111564819D01*
X105026189Y-111564819D02*
X104407142Y-111564819D01*
X103454761Y-111564819D02*
X104026189Y-111564819D01*
X103740475Y-111564819D02*
X103740475Y-110564819D01*
X103740475Y-110564819D02*
X103835713Y-110707676D01*
X103835713Y-110707676D02*
X103930951Y-110802914D01*
X103930951Y-110802914D02*
X104026189Y-110850533D01*
X103026189Y-111564819D02*
X103026189Y-110564819D01*
X103026189Y-110564819D02*
X102692856Y-111279104D01*
X102692856Y-111279104D02*
X102359523Y-110564819D01*
X102359523Y-110564819D02*
X102359523Y-111564819D01*
X86445476Y-88623009D02*
X86302619Y-88670628D01*
X86302619Y-88670628D02*
X86255000Y-88718247D01*
X86255000Y-88718247D02*
X86207381Y-88813485D01*
X86207381Y-88813485D02*
X86207381Y-88956342D01*
X86207381Y-88956342D02*
X86255000Y-89051580D01*
X86255000Y-89051580D02*
X86302619Y-89099200D01*
X86302619Y-89099200D02*
X86397857Y-89146819D01*
X86397857Y-89146819D02*
X86778809Y-89146819D01*
X86778809Y-89146819D02*
X86778809Y-88146819D01*
X86778809Y-88146819D02*
X86445476Y-88146819D01*
X86445476Y-88146819D02*
X86350238Y-88194438D01*
X86350238Y-88194438D02*
X86302619Y-88242057D01*
X86302619Y-88242057D02*
X86255000Y-88337295D01*
X86255000Y-88337295D02*
X86255000Y-88432533D01*
X86255000Y-88432533D02*
X86302619Y-88527771D01*
X86302619Y-88527771D02*
X86350238Y-88575390D01*
X86350238Y-88575390D02*
X86445476Y-88623009D01*
X86445476Y-88623009D02*
X86778809Y-88623009D01*
X85778809Y-89146819D02*
X85778809Y-88146819D01*
X85778809Y-88146819D02*
X85445476Y-88861104D01*
X85445476Y-88861104D02*
X85112143Y-88146819D01*
X85112143Y-88146819D02*
X85112143Y-89146819D01*
X84112143Y-89146819D02*
X84683571Y-89146819D01*
X84397857Y-89146819D02*
X84397857Y-88146819D01*
X84397857Y-88146819D02*
X84493095Y-88289676D01*
X84493095Y-88289676D02*
X84588333Y-88384914D01*
X84588333Y-88384914D02*
X84683571Y-88432533D01*
X83778809Y-88146819D02*
X83159762Y-88146819D01*
X83159762Y-88146819D02*
X83493095Y-88527771D01*
X83493095Y-88527771D02*
X83350238Y-88527771D01*
X83350238Y-88527771D02*
X83255000Y-88575390D01*
X83255000Y-88575390D02*
X83207381Y-88623009D01*
X83207381Y-88623009D02*
X83159762Y-88718247D01*
X83159762Y-88718247D02*
X83159762Y-88956342D01*
X83159762Y-88956342D02*
X83207381Y-89051580D01*
X83207381Y-89051580D02*
X83255000Y-89099200D01*
X83255000Y-89099200D02*
X83350238Y-89146819D01*
X83350238Y-89146819D02*
X83635952Y-89146819D01*
X83635952Y-89146819D02*
X83731190Y-89099200D01*
X83731190Y-89099200D02*
X83778809Y-89051580D01*
X82302619Y-88146819D02*
X82493095Y-88146819D01*
X82493095Y-88146819D02*
X82588333Y-88194438D01*
X82588333Y-88194438D02*
X82635952Y-88242057D01*
X82635952Y-88242057D02*
X82731190Y-88384914D01*
X82731190Y-88384914D02*
X82778809Y-88575390D01*
X82778809Y-88575390D02*
X82778809Y-88956342D01*
X82778809Y-88956342D02*
X82731190Y-89051580D01*
X82731190Y-89051580D02*
X82683571Y-89099200D01*
X82683571Y-89099200D02*
X82588333Y-89146819D01*
X82588333Y-89146819D02*
X82397857Y-89146819D01*
X82397857Y-89146819D02*
X82302619Y-89099200D01*
X82302619Y-89099200D02*
X82255000Y-89051580D01*
X82255000Y-89051580D02*
X82207381Y-88956342D01*
X82207381Y-88956342D02*
X82207381Y-88718247D01*
X82207381Y-88718247D02*
X82255000Y-88623009D01*
X82255000Y-88623009D02*
X82302619Y-88575390D01*
X82302619Y-88575390D02*
X82397857Y-88527771D01*
X82397857Y-88527771D02*
X82588333Y-88527771D01*
X82588333Y-88527771D02*
X82683571Y-88575390D01*
X82683571Y-88575390D02*
X82731190Y-88623009D01*
X82731190Y-88623009D02*
X82778809Y-88718247D01*
X81350238Y-88146819D02*
X81540714Y-88146819D01*
X81540714Y-88146819D02*
X81635952Y-88194438D01*
X81635952Y-88194438D02*
X81683571Y-88242057D01*
X81683571Y-88242057D02*
X81778809Y-88384914D01*
X81778809Y-88384914D02*
X81826428Y-88575390D01*
X81826428Y-88575390D02*
X81826428Y-88956342D01*
X81826428Y-88956342D02*
X81778809Y-89051580D01*
X81778809Y-89051580D02*
X81731190Y-89099200D01*
X81731190Y-89099200D02*
X81635952Y-89146819D01*
X81635952Y-89146819D02*
X81445476Y-89146819D01*
X81445476Y-89146819D02*
X81350238Y-89099200D01*
X81350238Y-89099200D02*
X81302619Y-89051580D01*
X81302619Y-89051580D02*
X81255000Y-88956342D01*
X81255000Y-88956342D02*
X81255000Y-88718247D01*
X81255000Y-88718247D02*
X81302619Y-88623009D01*
X81302619Y-88623009D02*
X81350238Y-88575390D01*
X81350238Y-88575390D02*
X81445476Y-88527771D01*
X81445476Y-88527771D02*
X81635952Y-88527771D01*
X81635952Y-88527771D02*
X81731190Y-88575390D01*
X81731190Y-88575390D02*
X81778809Y-88623009D01*
X81778809Y-88623009D02*
X81826428Y-88718247D01*
X80207380Y-88146819D02*
X79874047Y-89146819D01*
X79874047Y-89146819D02*
X79540714Y-88146819D01*
X78683571Y-89146819D02*
X79254999Y-89146819D01*
X78969285Y-89146819D02*
X78969285Y-88146819D01*
X78969285Y-88146819D02*
X79064523Y-88289676D01*
X79064523Y-88289676D02*
X79159761Y-88384914D01*
X79159761Y-88384914D02*
X79254999Y-88432533D01*
D11*
X108279523Y-110919857D02*
X108089047Y-110824619D01*
X108089047Y-110824619D02*
X107898571Y-110919857D01*
X107898571Y-110919857D02*
X107803333Y-111110333D01*
X107803333Y-111110333D02*
X107898571Y-111300809D01*
X107898571Y-111300809D02*
X108089047Y-111396047D01*
X108089047Y-111396047D02*
X108279523Y-111300809D01*
X108279523Y-111300809D02*
X108660475Y-110919857D01*
X108660475Y-110919857D02*
X108850952Y-110824619D01*
X108850952Y-110824619D02*
X109041428Y-110919857D01*
X109041428Y-110919857D02*
X109136666Y-111110333D01*
X109136666Y-111110333D02*
X109041428Y-111300809D01*
X109041428Y-111300809D02*
X108850952Y-111396047D01*
X108850952Y-111396047D02*
X108660475Y-111300809D01*
X108660475Y-111300809D02*
X108279523Y-110919857D01*
D10*
X112437319Y-140437762D02*
X111961128Y-140104429D01*
X112437319Y-139866334D02*
X111437319Y-139866334D01*
X111437319Y-139866334D02*
X111437319Y-140247286D01*
X111437319Y-140247286D02*
X111484938Y-140342524D01*
X111484938Y-140342524D02*
X111532557Y-140390143D01*
X111532557Y-140390143D02*
X111627795Y-140437762D01*
X111627795Y-140437762D02*
X111770652Y-140437762D01*
X111770652Y-140437762D02*
X111865890Y-140390143D01*
X111865890Y-140390143D02*
X111913509Y-140342524D01*
X111913509Y-140342524D02*
X111961128Y-140247286D01*
X111961128Y-140247286D02*
X111961128Y-139866334D01*
X111437319Y-140771096D02*
X112437319Y-141437762D01*
X111437319Y-141437762D02*
X112437319Y-140771096D01*
X112437319Y-141818715D02*
X111437319Y-141818715D01*
X97719819Y-136958238D02*
X96719819Y-136958238D01*
X96719819Y-136958238D02*
X96719819Y-137339190D01*
X96719819Y-137339190D02*
X96767438Y-137434428D01*
X96767438Y-137434428D02*
X96815057Y-137482047D01*
X96815057Y-137482047D02*
X96910295Y-137529666D01*
X96910295Y-137529666D02*
X97053152Y-137529666D01*
X97053152Y-137529666D02*
X97148390Y-137482047D01*
X97148390Y-137482047D02*
X97196009Y-137434428D01*
X97196009Y-137434428D02*
X97243628Y-137339190D01*
X97243628Y-137339190D02*
X97243628Y-136958238D01*
X96719819Y-137863000D02*
X97719819Y-138101095D01*
X97719819Y-138101095D02*
X97005533Y-138291571D01*
X97005533Y-138291571D02*
X97719819Y-138482047D01*
X97719819Y-138482047D02*
X96719819Y-138720143D01*
X97719819Y-139101095D02*
X96719819Y-139101095D01*
X96719819Y-139101095D02*
X97434104Y-139434428D01*
X97434104Y-139434428D02*
X96719819Y-139767761D01*
X96719819Y-139767761D02*
X97719819Y-139767761D01*
X119082438Y-139771095D02*
X119034819Y-139675857D01*
X119034819Y-139675857D02*
X119034819Y-139533000D01*
X119034819Y-139533000D02*
X119082438Y-139390143D01*
X119082438Y-139390143D02*
X119177676Y-139294905D01*
X119177676Y-139294905D02*
X119272914Y-139247286D01*
X119272914Y-139247286D02*
X119463390Y-139199667D01*
X119463390Y-139199667D02*
X119606247Y-139199667D01*
X119606247Y-139199667D02*
X119796723Y-139247286D01*
X119796723Y-139247286D02*
X119891961Y-139294905D01*
X119891961Y-139294905D02*
X119987200Y-139390143D01*
X119987200Y-139390143D02*
X120034819Y-139533000D01*
X120034819Y-139533000D02*
X120034819Y-139628238D01*
X120034819Y-139628238D02*
X119987200Y-139771095D01*
X119987200Y-139771095D02*
X119939580Y-139818714D01*
X119939580Y-139818714D02*
X119606247Y-139818714D01*
X119606247Y-139818714D02*
X119606247Y-139628238D01*
X120034819Y-140247286D02*
X119034819Y-140247286D01*
X119034819Y-140247286D02*
X120034819Y-140818714D01*
X120034819Y-140818714D02*
X119034819Y-140818714D01*
X120034819Y-141294905D02*
X119034819Y-141294905D01*
X119034819Y-141294905D02*
X119034819Y-141533000D01*
X119034819Y-141533000D02*
X119082438Y-141675857D01*
X119082438Y-141675857D02*
X119177676Y-141771095D01*
X119177676Y-141771095D02*
X119272914Y-141818714D01*
X119272914Y-141818714D02*
X119463390Y-141866333D01*
X119463390Y-141866333D02*
X119606247Y-141866333D01*
X119606247Y-141866333D02*
X119796723Y-141818714D01*
X119796723Y-141818714D02*
X119891961Y-141771095D01*
X119891961Y-141771095D02*
X119987200Y-141675857D01*
X119987200Y-141675857D02*
X120034819Y-141533000D01*
X120034819Y-141533000D02*
X120034819Y-141294905D01*
X113969819Y-139390143D02*
X113969819Y-139961571D01*
X114969819Y-139675857D02*
X113969819Y-139675857D01*
X113969819Y-140199667D02*
X114969819Y-140866333D01*
X113969819Y-140866333D02*
X114969819Y-140199667D01*
X113969819Y-141437762D02*
X113969819Y-141628238D01*
X113969819Y-141628238D02*
X114017438Y-141723476D01*
X114017438Y-141723476D02*
X114112676Y-141818714D01*
X114112676Y-141818714D02*
X114303152Y-141866333D01*
X114303152Y-141866333D02*
X114636485Y-141866333D01*
X114636485Y-141866333D02*
X114826961Y-141818714D01*
X114826961Y-141818714D02*
X114922200Y-141723476D01*
X114922200Y-141723476D02*
X114969819Y-141628238D01*
X114969819Y-141628238D02*
X114969819Y-141437762D01*
X114969819Y-141437762D02*
X114922200Y-141342524D01*
X114922200Y-141342524D02*
X114826961Y-141247286D01*
X114826961Y-141247286D02*
X114636485Y-141199667D01*
X114636485Y-141199667D02*
X114303152Y-141199667D01*
X114303152Y-141199667D02*
X114112676Y-141247286D01*
X114112676Y-141247286D02*
X114017438Y-141342524D01*
X114017438Y-141342524D02*
X113969819Y-141437762D01*
X94187319Y-137482047D02*
X94187319Y-138053475D01*
X95187319Y-137767761D02*
X94187319Y-137767761D01*
X94901604Y-138339190D02*
X94901604Y-138815380D01*
X95187319Y-138243952D02*
X94187319Y-138577285D01*
X94187319Y-138577285D02*
X95187319Y-138910618D01*
X95092080Y-139815380D02*
X95139700Y-139767761D01*
X95139700Y-139767761D02*
X95187319Y-139624904D01*
X95187319Y-139624904D02*
X95187319Y-139529666D01*
X95187319Y-139529666D02*
X95139700Y-139386809D01*
X95139700Y-139386809D02*
X95044461Y-139291571D01*
X95044461Y-139291571D02*
X94949223Y-139243952D01*
X94949223Y-139243952D02*
X94758747Y-139196333D01*
X94758747Y-139196333D02*
X94615890Y-139196333D01*
X94615890Y-139196333D02*
X94425414Y-139243952D01*
X94425414Y-139243952D02*
X94330176Y-139291571D01*
X94330176Y-139291571D02*
X94234938Y-139386809D01*
X94234938Y-139386809D02*
X94187319Y-139529666D01*
X94187319Y-139529666D02*
X94187319Y-139624904D01*
X94187319Y-139624904D02*
X94234938Y-139767761D01*
X94234938Y-139767761D02*
X94282557Y-139815380D01*
X89169938Y-137720143D02*
X89122319Y-137624905D01*
X89122319Y-137624905D02*
X89122319Y-137482048D01*
X89122319Y-137482048D02*
X89169938Y-137339191D01*
X89169938Y-137339191D02*
X89265176Y-137243953D01*
X89265176Y-137243953D02*
X89360414Y-137196334D01*
X89360414Y-137196334D02*
X89550890Y-137148715D01*
X89550890Y-137148715D02*
X89693747Y-137148715D01*
X89693747Y-137148715D02*
X89884223Y-137196334D01*
X89884223Y-137196334D02*
X89979461Y-137243953D01*
X89979461Y-137243953D02*
X90074700Y-137339191D01*
X90074700Y-137339191D02*
X90122319Y-137482048D01*
X90122319Y-137482048D02*
X90122319Y-137577286D01*
X90122319Y-137577286D02*
X90074700Y-137720143D01*
X90074700Y-137720143D02*
X90027080Y-137767762D01*
X90027080Y-137767762D02*
X89693747Y-137767762D01*
X89693747Y-137767762D02*
X89693747Y-137577286D01*
X90122319Y-138196334D02*
X89122319Y-138196334D01*
X89122319Y-138196334D02*
X90122319Y-138767762D01*
X90122319Y-138767762D02*
X89122319Y-138767762D01*
X90122319Y-139243953D02*
X89122319Y-139243953D01*
X89122319Y-139243953D02*
X89122319Y-139482048D01*
X89122319Y-139482048D02*
X89169938Y-139624905D01*
X89169938Y-139624905D02*
X89265176Y-139720143D01*
X89265176Y-139720143D02*
X89360414Y-139767762D01*
X89360414Y-139767762D02*
X89550890Y-139815381D01*
X89550890Y-139815381D02*
X89693747Y-139815381D01*
X89693747Y-139815381D02*
X89884223Y-139767762D01*
X89884223Y-139767762D02*
X89979461Y-139720143D01*
X89979461Y-139720143D02*
X90074700Y-139624905D01*
X90074700Y-139624905D02*
X90122319Y-139482048D01*
X90122319Y-139482048D02*
X90122319Y-139243953D01*
X131514142Y-115659009D02*
X131371285Y-115706628D01*
X131371285Y-115706628D02*
X131323666Y-115754247D01*
X131323666Y-115754247D02*
X131276047Y-115849485D01*
X131276047Y-115849485D02*
X131276047Y-115992342D01*
X131276047Y-115992342D02*
X131323666Y-116087580D01*
X131323666Y-116087580D02*
X131371285Y-116135200D01*
X131371285Y-116135200D02*
X131466523Y-116182819D01*
X131466523Y-116182819D02*
X131847475Y-116182819D01*
X131847475Y-116182819D02*
X131847475Y-115182819D01*
X131847475Y-115182819D02*
X131514142Y-115182819D01*
X131514142Y-115182819D02*
X131418904Y-115230438D01*
X131418904Y-115230438D02*
X131371285Y-115278057D01*
X131371285Y-115278057D02*
X131323666Y-115373295D01*
X131323666Y-115373295D02*
X131323666Y-115468533D01*
X131323666Y-115468533D02*
X131371285Y-115563771D01*
X131371285Y-115563771D02*
X131418904Y-115611390D01*
X131418904Y-115611390D02*
X131514142Y-115659009D01*
X131514142Y-115659009D02*
X131847475Y-115659009D01*
X130656999Y-115182819D02*
X130466523Y-115182819D01*
X130466523Y-115182819D02*
X130371285Y-115230438D01*
X130371285Y-115230438D02*
X130276047Y-115325676D01*
X130276047Y-115325676D02*
X130228428Y-115516152D01*
X130228428Y-115516152D02*
X130228428Y-115849485D01*
X130228428Y-115849485D02*
X130276047Y-116039961D01*
X130276047Y-116039961D02*
X130371285Y-116135200D01*
X130371285Y-116135200D02*
X130466523Y-116182819D01*
X130466523Y-116182819D02*
X130656999Y-116182819D01*
X130656999Y-116182819D02*
X130752237Y-116135200D01*
X130752237Y-116135200D02*
X130847475Y-116039961D01*
X130847475Y-116039961D02*
X130895094Y-115849485D01*
X130895094Y-115849485D02*
X130895094Y-115516152D01*
X130895094Y-115516152D02*
X130847475Y-115325676D01*
X130847475Y-115325676D02*
X130752237Y-115230438D01*
X130752237Y-115230438D02*
X130656999Y-115182819D01*
X129609380Y-115182819D02*
X129418904Y-115182819D01*
X129418904Y-115182819D02*
X129323666Y-115230438D01*
X129323666Y-115230438D02*
X129228428Y-115325676D01*
X129228428Y-115325676D02*
X129180809Y-115516152D01*
X129180809Y-115516152D02*
X129180809Y-115849485D01*
X129180809Y-115849485D02*
X129228428Y-116039961D01*
X129228428Y-116039961D02*
X129323666Y-116135200D01*
X129323666Y-116135200D02*
X129418904Y-116182819D01*
X129418904Y-116182819D02*
X129609380Y-116182819D01*
X129609380Y-116182819D02*
X129704618Y-116135200D01*
X129704618Y-116135200D02*
X129799856Y-116039961D01*
X129799856Y-116039961D02*
X129847475Y-115849485D01*
X129847475Y-115849485D02*
X129847475Y-115516152D01*
X129847475Y-115516152D02*
X129799856Y-115325676D01*
X129799856Y-115325676D02*
X129704618Y-115230438D01*
X129704618Y-115230438D02*
X129609380Y-115182819D01*
X128895094Y-115182819D02*
X128323666Y-115182819D01*
X128609380Y-116182819D02*
X128609380Y-115182819D01*
X131608381Y-107530819D02*
X131941714Y-107054628D01*
X132179809Y-107530819D02*
X132179809Y-106530819D01*
X132179809Y-106530819D02*
X131798857Y-106530819D01*
X131798857Y-106530819D02*
X131703619Y-106578438D01*
X131703619Y-106578438D02*
X131656000Y-106626057D01*
X131656000Y-106626057D02*
X131608381Y-106721295D01*
X131608381Y-106721295D02*
X131608381Y-106864152D01*
X131608381Y-106864152D02*
X131656000Y-106959390D01*
X131656000Y-106959390D02*
X131703619Y-107007009D01*
X131703619Y-107007009D02*
X131798857Y-107054628D01*
X131798857Y-107054628D02*
X132179809Y-107054628D01*
X131179809Y-107007009D02*
X130846476Y-107007009D01*
X130703619Y-107530819D02*
X131179809Y-107530819D01*
X131179809Y-107530819D02*
X131179809Y-106530819D01*
X131179809Y-106530819D02*
X130703619Y-106530819D01*
X130322666Y-107483200D02*
X130179809Y-107530819D01*
X130179809Y-107530819D02*
X129941714Y-107530819D01*
X129941714Y-107530819D02*
X129846476Y-107483200D01*
X129846476Y-107483200D02*
X129798857Y-107435580D01*
X129798857Y-107435580D02*
X129751238Y-107340342D01*
X129751238Y-107340342D02*
X129751238Y-107245104D01*
X129751238Y-107245104D02*
X129798857Y-107149866D01*
X129798857Y-107149866D02*
X129846476Y-107102247D01*
X129846476Y-107102247D02*
X129941714Y-107054628D01*
X129941714Y-107054628D02*
X130132190Y-107007009D01*
X130132190Y-107007009D02*
X130227428Y-106959390D01*
X130227428Y-106959390D02*
X130275047Y-106911771D01*
X130275047Y-106911771D02*
X130322666Y-106816533D01*
X130322666Y-106816533D02*
X130322666Y-106721295D01*
X130322666Y-106721295D02*
X130275047Y-106626057D01*
X130275047Y-106626057D02*
X130227428Y-106578438D01*
X130227428Y-106578438D02*
X130132190Y-106530819D01*
X130132190Y-106530819D02*
X129894095Y-106530819D01*
X129894095Y-106530819D02*
X129751238Y-106578438D01*
X129322666Y-107007009D02*
X128989333Y-107007009D01*
X128846476Y-107530819D02*
X129322666Y-107530819D01*
X129322666Y-107530819D02*
X129322666Y-106530819D01*
X129322666Y-106530819D02*
X128846476Y-106530819D01*
X128560761Y-106530819D02*
X127989333Y-106530819D01*
X128275047Y-107530819D02*
X128275047Y-106530819D01*
X81003333Y-75994819D02*
X81003333Y-76709104D01*
X81003333Y-76709104D02*
X81050952Y-76851961D01*
X81050952Y-76851961D02*
X81146190Y-76947200D01*
X81146190Y-76947200D02*
X81289047Y-76994819D01*
X81289047Y-76994819D02*
X81384285Y-76994819D01*
X80622380Y-75994819D02*
X79955714Y-75994819D01*
X79955714Y-75994819D02*
X80384285Y-76994819D01*
X106790857Y-137434580D02*
X106838476Y-137482200D01*
X106838476Y-137482200D02*
X106981333Y-137529819D01*
X106981333Y-137529819D02*
X107076571Y-137529819D01*
X107076571Y-137529819D02*
X107219428Y-137482200D01*
X107219428Y-137482200D02*
X107314666Y-137386961D01*
X107314666Y-137386961D02*
X107362285Y-137291723D01*
X107362285Y-137291723D02*
X107409904Y-137101247D01*
X107409904Y-137101247D02*
X107409904Y-136958390D01*
X107409904Y-136958390D02*
X107362285Y-136767914D01*
X107362285Y-136767914D02*
X107314666Y-136672676D01*
X107314666Y-136672676D02*
X107219428Y-136577438D01*
X107219428Y-136577438D02*
X107076571Y-136529819D01*
X107076571Y-136529819D02*
X106981333Y-136529819D01*
X106981333Y-136529819D02*
X106838476Y-136577438D01*
X106838476Y-136577438D02*
X106790857Y-136625057D01*
X106409904Y-136625057D02*
X106362285Y-136577438D01*
X106362285Y-136577438D02*
X106267047Y-136529819D01*
X106267047Y-136529819D02*
X106028952Y-136529819D01*
X106028952Y-136529819D02*
X105933714Y-136577438D01*
X105933714Y-136577438D02*
X105886095Y-136625057D01*
X105886095Y-136625057D02*
X105838476Y-136720295D01*
X105838476Y-136720295D02*
X105838476Y-136815533D01*
X105838476Y-136815533D02*
X105886095Y-136958390D01*
X105886095Y-136958390D02*
X106457523Y-137529819D01*
X106457523Y-137529819D02*
X105838476Y-137529819D01*
X105267047Y-136958390D02*
X105362285Y-136910771D01*
X105362285Y-136910771D02*
X105409904Y-136863152D01*
X105409904Y-136863152D02*
X105457523Y-136767914D01*
X105457523Y-136767914D02*
X105457523Y-136720295D01*
X105457523Y-136720295D02*
X105409904Y-136625057D01*
X105409904Y-136625057D02*
X105362285Y-136577438D01*
X105362285Y-136577438D02*
X105267047Y-136529819D01*
X105267047Y-136529819D02*
X105076571Y-136529819D01*
X105076571Y-136529819D02*
X104981333Y-136577438D01*
X104981333Y-136577438D02*
X104933714Y-136625057D01*
X104933714Y-136625057D02*
X104886095Y-136720295D01*
X104886095Y-136720295D02*
X104886095Y-136767914D01*
X104886095Y-136767914D02*
X104933714Y-136863152D01*
X104933714Y-136863152D02*
X104981333Y-136910771D01*
X104981333Y-136910771D02*
X105076571Y-136958390D01*
X105076571Y-136958390D02*
X105267047Y-136958390D01*
X105267047Y-136958390D02*
X105362285Y-137006009D01*
X105362285Y-137006009D02*
X105409904Y-137053628D01*
X105409904Y-137053628D02*
X105457523Y-137148866D01*
X105457523Y-137148866D02*
X105457523Y-137339342D01*
X105457523Y-137339342D02*
X105409904Y-137434580D01*
X105409904Y-137434580D02*
X105362285Y-137482200D01*
X105362285Y-137482200D02*
X105267047Y-137529819D01*
X105267047Y-137529819D02*
X105076571Y-137529819D01*
X105076571Y-137529819D02*
X104981333Y-137482200D01*
X104981333Y-137482200D02*
X104933714Y-137434580D01*
X104933714Y-137434580D02*
X104886095Y-137339342D01*
X104886095Y-137339342D02*
X104886095Y-137148866D01*
X104886095Y-137148866D02*
X104933714Y-137053628D01*
X104933714Y-137053628D02*
X104981333Y-137006009D01*
X104981333Y-137006009D02*
X105076571Y-136958390D01*
D12*
%TO.C,SW2*%
X128050000Y-114679000D02*
X128050000Y-114249740D01*
X128050000Y-112060260D02*
X128050000Y-111631000D01*
X128050000Y-111631000D02*
X132114000Y-111631000D01*
X132114000Y-114679000D02*
X128050000Y-114679000D01*
X132114000Y-114249740D02*
X132114000Y-114679000D01*
X132114000Y-111631000D02*
X132114000Y-112060260D01*
%TO.C,SW1*%
X132218000Y-102924000D02*
X132218000Y-103353260D01*
X132218000Y-105542740D02*
X132218000Y-105972000D01*
X132218000Y-105972000D02*
X128154000Y-105972000D01*
X128154000Y-102924000D02*
X132218000Y-102924000D01*
X128154000Y-103353260D02*
X128154000Y-102924000D01*
X128154000Y-105972000D02*
X128154000Y-105542740D01*
D13*
%TO.C,J6*%
X105563000Y-48257000D02*
X105563000Y-50917000D01*
X105563000Y-48257000D02*
X120863000Y-48257000D01*
X102963000Y-48257000D02*
X102963000Y-49587000D01*
X120863000Y-48257000D02*
X120863000Y-50917000D01*
X104293000Y-48257000D02*
X102963000Y-48257000D01*
X105563000Y-50917000D02*
X120863000Y-50917000D01*
D12*
%TO.C,USB1*%
X130323579Y-88938700D02*
X131191583Y-88938700D01*
X132301020Y-88938700D02*
X134790700Y-88938700D01*
X134790700Y-88938700D02*
X134790700Y-97041300D01*
X128669301Y-91154060D02*
X128669301Y-90922839D01*
X128669301Y-95057161D02*
X128669301Y-94825940D01*
X131191583Y-97041300D02*
X130323579Y-97041300D01*
X134790700Y-97041300D02*
X132301020Y-97041300D01*
D14*
X129452301Y-87160700D02*
G75*
G03*
X129452301Y-87160700I-381000J0D01*
G01*
D13*
%TO.C,J4*%
X88198600Y-140193000D02*
X98663400Y-140193000D01*
X88198600Y-146289000D02*
X88198600Y-140193000D01*
X93861825Y-146289000D02*
X88198600Y-146289000D01*
X98663400Y-140193000D02*
X98663400Y-146289000D01*
X98663400Y-146289000D02*
X95540175Y-146289000D01*
%TO.C,J9*%
X86189000Y-58999000D02*
X83529000Y-58999000D01*
X86189000Y-51319000D02*
X86189000Y-58999000D01*
X86189000Y-51319000D02*
X83529000Y-51319000D01*
X86189000Y-50049000D02*
X86189000Y-48719000D01*
X86189000Y-48719000D02*
X84859000Y-48719000D01*
X83529000Y-51319000D02*
X83529000Y-58999000D01*
%TO.C,J2*%
X86650000Y-66640000D02*
X86650000Y-60140000D01*
X86650000Y-60140000D02*
X78650000Y-60140000D01*
X78650000Y-66640000D02*
X86650000Y-66640000D01*
X78650000Y-60140000D02*
X78650000Y-66640000D01*
%TO.C,J1*%
X86650000Y-74060000D02*
X86650000Y-67560000D01*
X86650000Y-67560000D02*
X78650000Y-67560000D01*
X78650000Y-74060000D02*
X86650000Y-74060000D01*
X78650000Y-67560000D02*
X78650000Y-74060000D01*
%TO.C,J7*%
X86870000Y-75210000D02*
X86870000Y-77870000D01*
X84270000Y-75210000D02*
X86870000Y-75210000D01*
X84270000Y-75210000D02*
X84270000Y-77870000D01*
X83000000Y-75210000D02*
X81670000Y-75210000D01*
X81670000Y-75210000D02*
X81670000Y-76540000D01*
X84270000Y-77870000D02*
X86870000Y-77870000D01*
%TO.C,J3*%
X120840000Y-142250000D02*
X120840000Y-144910000D01*
X110620000Y-142250000D02*
X120840000Y-142250000D01*
X110620000Y-142250000D02*
X110620000Y-144910000D01*
X109350000Y-142250000D02*
X108020000Y-142250000D01*
X108020000Y-142250000D02*
X108020000Y-143580000D01*
X110620000Y-144910000D02*
X120840000Y-144910000D01*
%TO.C,U12*%
X113860000Y-81960000D02*
X113860000Y-80960000D01*
X114610000Y-81960000D02*
X113860000Y-81960000D01*
X113860000Y-63960000D02*
X113860000Y-64960000D01*
X114610000Y-63960000D02*
X113860000Y-63960000D01*
%TO.C,J5*%
X130035000Y-59000000D02*
X130035000Y-58365000D01*
X129400000Y-59000000D02*
X130035000Y-59000000D01*
D15*
%TO.C,U14*%
X108612000Y-112568000D02*
X102612000Y-112568000D01*
X102612000Y-112568000D02*
X102612000Y-119568000D01*
X102612000Y-119568000D02*
X108612000Y-119568000D01*
X108612000Y-119568000D02*
X108612000Y-112568000D01*
D16*
X109045742Y-112258000D02*
G75*
G03*
X109045742Y-112258000I-113742J0D01*
G01*
D13*
%TO.C,C28*%
X101642500Y-136982500D02*
X101642500Y-137770000D01*
X101248750Y-137376250D02*
X102036250Y-137376250D01*
X105835563Y-138010000D02*
X104550000Y-138010000D01*
X105835563Y-138010000D02*
X106900000Y-139074437D01*
X101144437Y-138010000D02*
X102430000Y-138010000D01*
X101144437Y-138010000D02*
X100080000Y-139074437D01*
X106900000Y-139074437D02*
X106900000Y-144830000D01*
X100080000Y-139074437D02*
X100080000Y-144830000D01*
X106900000Y-144830000D02*
X104550000Y-144830000D01*
X100080000Y-144830000D02*
X102430000Y-144830000D01*
%TO.C,kibuzzard-6392B1E5*%
G36*
X91026470Y-62957900D02*
G01*
X91026470Y-71416100D01*
X91026470Y-73797350D01*
X87315530Y-73797350D01*
X87315530Y-71416100D01*
X87315530Y-70664577D01*
X88413762Y-70664577D01*
X88413762Y-70967472D01*
X88910967Y-70967472D01*
X88910967Y-71416100D01*
X89199575Y-71416100D01*
X89199575Y-70967472D01*
X89696780Y-70967472D01*
X89696780Y-70664577D01*
X89199575Y-70664577D01*
X89199575Y-70215950D01*
X88910967Y-70215950D01*
X88910967Y-70664577D01*
X88413762Y-70664577D01*
X87315530Y-70664577D01*
X87315530Y-68095685D01*
X88268030Y-68095685D01*
X88276602Y-68235702D01*
X88298034Y-68372862D01*
X88328037Y-68491449D01*
X88359470Y-68572887D01*
X88650935Y-68501450D01*
X88593785Y-68341430D01*
X88574497Y-68232131D01*
X88568067Y-68098542D01*
X88590927Y-67928521D01*
X88649506Y-67822794D01*
X88730945Y-67769930D01*
X88825242Y-67755642D01*
X88960974Y-67779931D01*
X89066701Y-67877086D01*
X89135281Y-68084255D01*
X89153498Y-68239274D01*
X89159570Y-68435727D01*
X89397100Y-68410010D01*
X89629629Y-68390007D01*
X89855728Y-68375006D01*
X90073970Y-68364290D01*
X90073970Y-67461320D01*
X89782505Y-67461320D01*
X89782505Y-68069967D01*
X89591052Y-68084255D01*
X89428175Y-68098542D01*
X89398965Y-67882325D01*
X89341815Y-67706113D01*
X89256725Y-67569905D01*
X89144330Y-67473068D01*
X89005265Y-67414965D01*
X88839530Y-67395597D01*
X88612359Y-67438460D01*
X88430907Y-67569905D01*
X88362327Y-67669203D01*
X88310892Y-67789932D01*
X88278746Y-67932093D01*
X88268030Y-68095685D01*
X87315530Y-68095685D01*
X87315530Y-66712655D01*
X88305177Y-66712655D01*
X88515204Y-66783378D01*
X88750947Y-66858387D01*
X88916524Y-66908870D01*
X89081782Y-66957447D01*
X89246724Y-67004120D01*
X89408490Y-67048252D01*
X89564224Y-67089210D01*
X89713925Y-67126992D01*
X89913950Y-67174141D01*
X90073970Y-67207002D01*
X90073970Y-66835527D01*
X89925737Y-66814096D01*
X89755359Y-66784092D01*
X89571050Y-66748017D01*
X89381026Y-66708369D01*
X89189574Y-66665506D01*
X89000979Y-66619786D01*
X88823457Y-66572995D01*
X88665222Y-66526917D01*
X88821313Y-66481197D01*
X88998121Y-66435477D01*
X89186716Y-66391186D01*
X89378169Y-66349752D01*
X89568550Y-66311176D01*
X89753930Y-66275457D01*
X89925380Y-66244025D01*
X90073970Y-66218307D01*
X90073970Y-65849690D01*
X89892519Y-65887909D01*
X89691065Y-65933986D01*
X89474252Y-65987564D01*
X89246724Y-66048286D01*
X89090514Y-66092577D01*
X88932399Y-66139726D01*
X88772379Y-66189732D01*
X88613152Y-66241802D01*
X88457419Y-66295142D01*
X88305177Y-66349752D01*
X88305177Y-66712655D01*
X87315530Y-66712655D01*
X87315530Y-62957900D01*
X88936685Y-62957900D01*
X88936685Y-64386650D01*
X89199575Y-64386650D01*
X89199575Y-62957900D01*
X88936685Y-62957900D01*
X87315530Y-62957900D01*
X87315530Y-60576650D01*
X91026470Y-60576650D01*
X91026470Y-62957900D01*
G37*
%TO.C,kibuzzard-63D74789*%
G36*
X81486990Y-82810844D02*
G01*
X81717177Y-82985469D01*
X81860052Y-83239469D01*
X81927521Y-83533156D01*
X80435271Y-83533156D01*
X80474958Y-83243437D01*
X80601958Y-82993406D01*
X80824208Y-82814813D01*
X81157583Y-82747344D01*
X81486990Y-82810844D01*
G37*
G36*
X89325271Y-84156250D02*
G01*
X89575302Y-84223719D01*
X89745958Y-84358656D01*
X89809458Y-84588844D01*
X89618958Y-84950000D01*
X89126833Y-85057156D01*
X88817271Y-85053188D01*
X88555333Y-85033344D01*
X88555333Y-84176094D01*
X88785521Y-84148313D01*
X89031583Y-84136406D01*
X89325271Y-84156250D01*
G37*
G36*
X101291052Y-82830688D02*
G01*
X101556958Y-82937844D01*
X101556958Y-84961906D01*
X101322802Y-84993656D01*
X101112458Y-85001594D01*
X100771146Y-84937102D01*
X100509208Y-84743625D01*
X100342521Y-84395367D01*
X100286958Y-83866531D01*
X100329622Y-83404172D01*
X100457615Y-83064844D01*
X100672919Y-82856484D01*
X100977521Y-82787031D01*
X101291052Y-82830688D01*
G37*
G36*
X109147854Y-87496615D02*
G01*
X102533271Y-87496615D01*
X101088646Y-87496615D01*
X96405521Y-87496615D01*
X92532021Y-87496615D01*
X89198271Y-87496615D01*
X83332458Y-87496615D01*
X80887708Y-87496615D01*
X79490708Y-87496615D01*
X76514146Y-87496615D01*
X76514146Y-83842719D01*
X79490708Y-83842719D01*
X79494677Y-84041156D01*
X79506583Y-84207844D01*
X81927521Y-84207844D01*
X81852115Y-84534273D01*
X81625896Y-84783312D01*
X81280615Y-84941070D01*
X80848021Y-84993656D01*
X80288427Y-84930156D01*
X79839958Y-84803156D01*
X79705021Y-85636594D01*
X80244771Y-85783438D01*
X80887708Y-85842969D01*
X81339154Y-85812211D01*
X81585443Y-85755656D01*
X83332458Y-85755656D01*
X84348458Y-85755656D01*
X84562771Y-85372672D01*
X84777083Y-85033344D01*
X84985443Y-84731719D01*
X85181896Y-84461844D01*
X85408115Y-84775375D01*
X85610521Y-85080969D01*
X85803005Y-85400453D01*
X85999458Y-85755656D01*
X86991646Y-85755656D01*
X86940154Y-85668344D01*
X87618708Y-85668344D01*
X88253708Y-85779469D01*
X88700193Y-85827094D01*
X89198271Y-85842969D01*
X89845177Y-85779469D01*
X90182146Y-85636594D01*
X91341396Y-85636594D01*
X91924802Y-85795344D01*
X92532021Y-85842969D01*
X93135271Y-85787406D01*
X93530383Y-85596906D01*
X95349833Y-85596906D01*
X95917365Y-85791375D01*
X96405521Y-85842969D01*
X96755763Y-85815188D01*
X97044490Y-85731844D01*
X97457240Y-85410375D01*
X97675521Y-84898406D01*
X97723146Y-84574953D01*
X97739021Y-84207844D01*
X97739021Y-83890344D01*
X99294771Y-83890344D01*
X99324536Y-84314008D01*
X99413833Y-84696000D01*
X99560677Y-85030367D01*
X99763083Y-85311156D01*
X100019068Y-85536383D01*
X100326646Y-85704063D01*
X100683833Y-85808242D01*
X101088646Y-85842969D01*
X101473615Y-85829078D01*
X101866521Y-85787406D01*
X102231646Y-85723906D01*
X102533271Y-85644531D01*
X102533271Y-80413719D01*
X101556958Y-80247031D01*
X101556958Y-82112344D01*
X101160083Y-81981375D01*
X100779083Y-81945656D01*
X100435786Y-81980383D01*
X100136146Y-82084562D01*
X99671802Y-82481437D01*
X99508091Y-82764211D01*
X99390021Y-83096594D01*
X99318583Y-83473625D01*
X99294771Y-83890344D01*
X97739021Y-83890344D01*
X97739021Y-82834656D01*
X98770896Y-82834656D01*
X98770896Y-82025031D01*
X97421521Y-82025031D01*
X96762708Y-82025031D01*
X96762708Y-84334844D01*
X96639677Y-84830938D01*
X96230896Y-84993656D01*
X95905458Y-84957938D01*
X95476833Y-84811094D01*
X95349833Y-85596906D01*
X93530383Y-85596906D01*
X93579771Y-85573094D01*
X93857583Y-85124625D01*
X93929021Y-84790258D01*
X93952833Y-84366594D01*
X93952833Y-82834656D01*
X94802146Y-82834656D01*
X94802146Y-82025031D01*
X93952833Y-82025031D01*
X93952833Y-81088406D01*
X93122971Y-80953469D01*
X96802396Y-80953469D01*
X96984958Y-81405906D01*
X97421521Y-81572594D01*
X97854115Y-81405906D01*
X98032708Y-80953469D01*
X97854115Y-80493094D01*
X97421521Y-80326406D01*
X96984958Y-80493094D01*
X96802396Y-80953469D01*
X93122971Y-80953469D01*
X92976521Y-80929656D01*
X92976521Y-82025031D01*
X91412833Y-82025031D01*
X91412833Y-82834656D01*
X92976521Y-82834656D01*
X92976521Y-84342781D01*
X92936833Y-84676156D01*
X92825708Y-84874594D01*
X92651083Y-84969844D01*
X92420896Y-84993656D01*
X92170865Y-84985719D01*
X91948615Y-84957938D01*
X91726365Y-84898406D01*
X91476333Y-84795219D01*
X91341396Y-85636594D01*
X90182146Y-85636594D01*
X90341271Y-85569125D01*
X90658771Y-85188125D01*
X90769896Y-84612656D01*
X90642896Y-84064969D01*
X90301583Y-83707781D01*
X89809458Y-83513312D01*
X89230021Y-83453781D01*
X88870849Y-83469656D01*
X88555333Y-83517281D01*
X88555333Y-83398219D01*
X88729958Y-82933875D01*
X88968083Y-82793977D01*
X89333208Y-82747344D01*
X89868990Y-82787031D01*
X90285708Y-82882281D01*
X90420646Y-82096469D01*
X89904708Y-81981375D01*
X89565380Y-81942680D01*
X89214146Y-81929781D01*
X88792466Y-81956570D01*
X88448177Y-82036937D01*
X87960021Y-82338562D01*
X87698083Y-82814813D01*
X87618708Y-83445844D01*
X87618708Y-85668344D01*
X86940154Y-85668344D01*
X86717802Y-85291313D01*
X86392365Y-84799188D01*
X86035177Y-84303094D01*
X85674021Y-83834781D01*
X86983708Y-82025031D01*
X85959771Y-82025031D01*
X85134271Y-83191844D01*
X84372271Y-82025031D01*
X83380083Y-82025031D01*
X84586583Y-83818906D01*
X84213521Y-84307063D01*
X83864271Y-84826969D01*
X83562646Y-85327031D01*
X83332458Y-85755656D01*
X81585443Y-85755656D01*
X81740990Y-85719938D01*
X82090240Y-85567141D01*
X82383927Y-85354813D01*
X82619076Y-85083945D01*
X82792708Y-84755531D01*
X82899865Y-84368578D01*
X82935583Y-83922094D01*
X82897880Y-83459734D01*
X82784771Y-83056906D01*
X82610146Y-82714602D01*
X82387896Y-82433812D01*
X82123974Y-82214539D01*
X81824333Y-82056781D01*
X81502865Y-81961531D01*
X81173458Y-81929781D01*
X80667222Y-81984021D01*
X80249181Y-82146740D01*
X79919333Y-82417937D01*
X79681208Y-82793205D01*
X79538333Y-83268132D01*
X79490708Y-83842719D01*
X76514146Y-83842719D01*
X76514146Y-78593385D01*
X79490708Y-78593385D01*
X102533271Y-78593385D01*
X109147854Y-78593385D01*
X109147854Y-87496615D01*
G37*
%TD*%
%LPC*%
%TO.C,U12*%
X139360000Y-81960000D02*
X139360000Y-63960000D01*
%TD*%
D17*
%TO.C,SW2*%
X127923000Y-113155000D03*
X132241000Y-113155000D03*
%TD*%
%TO.C,SW1*%
X132345000Y-104448000D03*
X128027000Y-104448000D03*
%TD*%
D18*
%TO.C,J6*%
X104293000Y-49587000D03*
D19*
X106833000Y-49587000D03*
X109373000Y-49587000D03*
X111913000Y-49587000D03*
X114453000Y-49587000D03*
X116993000Y-49587000D03*
X119533000Y-49587000D03*
%TD*%
D20*
%TO.C,H6*%
X84764000Y-94984000D03*
%TD*%
%TO.C,H5*%
X126130000Y-136350000D03*
%TD*%
D21*
%TO.C,H4*%
X79987000Y-50603000D03*
%TD*%
%TO.C,H3*%
X130980000Y-144470000D03*
%TD*%
%TO.C,H2*%
X130683000Y-50604000D03*
%TD*%
%TO.C,H1*%
X80020000Y-144380000D03*
%TD*%
D22*
%TO.C,U9*%
X98201691Y-68847200D03*
X99151691Y-69422200D03*
X97251691Y-69422200D03*
X98201691Y-69997200D03*
%TD*%
D23*
%TO.C,USB1*%
X129071301Y-91690000D03*
X129071301Y-92340001D03*
X129071301Y-92990000D03*
X129071301Y-93639999D03*
X129071301Y-94290000D03*
D24*
X129296301Y-89789999D03*
X129296301Y-96190001D03*
D25*
X131746302Y-91790000D03*
X131746302Y-94190000D03*
D26*
X131746302Y-89690002D03*
X131746302Y-96289998D03*
%TD*%
D27*
%TO.C,J4*%
X94701000Y-145782001D03*
D28*
X89621000Y-143622000D03*
X92161000Y-143622000D03*
X94701000Y-143622000D03*
X97241000Y-143622000D03*
%TD*%
D18*
%TO.C,J9*%
X84859000Y-50049000D03*
D19*
X84859000Y-52589000D03*
X84859000Y-55129000D03*
X84859000Y-57669000D03*
%TD*%
D29*
%TO.C,J2*%
X85190000Y-63390000D03*
X80110000Y-63390000D03*
%TD*%
%TO.C,J1*%
X85190000Y-70810000D03*
X80110000Y-70810000D03*
%TD*%
D18*
%TO.C,J7*%
X83000000Y-76540000D03*
D19*
X85540000Y-76540000D03*
%TD*%
D18*
%TO.C,J3*%
X109350000Y-143580000D03*
D19*
X111890000Y-143580000D03*
X114430000Y-143580000D03*
X116970000Y-143580000D03*
X119510000Y-143580000D03*
%TD*%
D30*
%TO.C,U12*%
X131870000Y-81710000D03*
X130600000Y-81710000D03*
X129330000Y-81710000D03*
X128060000Y-81710000D03*
X126790000Y-81710000D03*
X125520000Y-81710000D03*
X124250000Y-81710000D03*
X122980000Y-81710000D03*
X121710000Y-81710000D03*
X120440000Y-81710000D03*
X119170000Y-81710000D03*
X117900000Y-81710000D03*
X116630000Y-81710000D03*
X115360000Y-81710000D03*
D31*
X114110000Y-79945000D03*
X114110000Y-78675000D03*
X114110000Y-77405000D03*
X114110000Y-76135000D03*
X114110000Y-74865000D03*
X114110000Y-73595000D03*
X114110000Y-72325000D03*
X114110000Y-71055000D03*
X114110000Y-69785000D03*
X114110000Y-68515000D03*
X114110000Y-67245000D03*
X114110000Y-65975000D03*
D30*
X115360000Y-64210000D03*
X116630000Y-64210000D03*
X117900000Y-64210000D03*
X119170000Y-64210000D03*
X120440000Y-64210000D03*
X121710000Y-64210000D03*
X122980000Y-64210000D03*
X124250000Y-64210000D03*
X125520000Y-64210000D03*
X126790000Y-64210000D03*
X128060000Y-64210000D03*
X129330000Y-64210000D03*
X130600000Y-64210000D03*
X131870000Y-64210000D03*
D32*
X122750000Y-75860000D03*
X124150000Y-75860000D03*
X125550000Y-75860000D03*
X122750000Y-74460000D03*
X124150000Y-74460000D03*
X125550000Y-74460000D03*
X122750000Y-73060000D03*
X124150000Y-73060000D03*
X125550000Y-73060000D03*
%TD*%
D33*
%TO.C,J5*%
X130670000Y-57730000D03*
X125590000Y-58746000D03*
X125590000Y-56714000D03*
D34*
X129400000Y-58365000D03*
X129400000Y-57095000D03*
X128130000Y-58365000D03*
X128130000Y-57095000D03*
X126860000Y-58365000D03*
X126860000Y-57095000D03*
%TD*%
D35*
%TO.C,U14*%
X108528000Y-112805000D03*
X108528000Y-113307000D03*
X108528000Y-113809000D03*
X108528000Y-114311000D03*
X108528000Y-114813000D03*
X108528000Y-115315000D03*
X108528000Y-115817000D03*
X108528000Y-116319000D03*
X108528000Y-116821000D03*
X108528000Y-117323000D03*
X108528000Y-117825000D03*
X108528000Y-118327000D03*
X108528000Y-118829000D03*
X108528000Y-119331000D03*
X102696000Y-119318000D03*
X102696000Y-118818000D03*
X102696000Y-118318000D03*
X102696000Y-117818000D03*
X102696000Y-117318000D03*
X102696000Y-116821000D03*
X102696000Y-116318000D03*
X102696000Y-115817000D03*
X102696000Y-115315000D03*
X102696000Y-114813000D03*
X102696000Y-114311000D03*
X102696000Y-113818000D03*
X102696000Y-113307000D03*
X102696000Y-112818000D03*
D36*
X105612000Y-113600000D03*
D37*
X105612000Y-117176000D03*
%TD*%
D38*
%TO.C,C28*%
X103490000Y-138720000D03*
X103490000Y-144120000D03*
%TD*%
%LPD*%
M02*
