M48
; DRILL file {KiCad 9.0.0} date 2025-08-27T19:03:06-0400
; FORMAT={-:-/ absolute / metric / decimal}
; #@! TF.CreationDate,2025-08-27T19:03:06-04:00
; #@! TF.GenerationSoftware,Kicad,Pcbnew,9.0.0
; #@! TF.FileFunction,Plated,1,4,PTH
FMAT,2
METRIC
; #@! TA.AperFunction,Plated,PTH,ComponentDrill
T1C0.300
; #@! TA.AperFunction,Plated,PTH,ViaDrill
T2C0.400
; #@! TA.AperFunction,Plated,PTH,ViaDrill
T3C0.600
; #@! TA.AperFunction,Plated,PTH,ComponentDrill
T4C0.600
; #@! TA.AperFunction,Plated,PTH,ComponentDrill
T5C1.000
; #@! TA.AperFunction,Plated,PTH,ComponentDrill
T6C1.067
%
G90
G05
T1
X97.252Y-69.422
X98.202Y-68.847
X98.202Y-69.997
X99.152Y-69.422
T2
X78.09Y-82.06
X78.3Y-80.47
X78.32Y-79.39
X78.96Y-71.22
X78.98Y-69.04
X78.98Y-70.14
X78.99Y-63.72
X79.03Y-64.74
X79.03Y-65.74
X79.12Y-78.46
X80.2Y-78.48
X80.41Y-139.6
X80.622Y-71.22
X80.642Y-69.04
X80.642Y-70.14
X80.645Y-63.72
X80.66Y-87.76
X80.676Y-129.98
X80.685Y-64.74
X80.685Y-65.74
X82.283Y-71.22
X82.3Y-63.72
X82.303Y-69.04
X82.303Y-70.14
X82.34Y-64.74
X82.34Y-65.74
X82.4Y-140.031
X82.88Y-132.35
X82.99Y-85.09
X83.001Y-129.119
X83.7Y-87.75
X83.945Y-71.22
X83.955Y-63.72
X83.965Y-69.04
X83.965Y-70.14
X83.98Y-139.959
X83.995Y-64.74
X83.995Y-65.74
X84.73Y-85.73
X85.12Y-86.81
X85.607Y-71.22
X85.61Y-63.72
X85.627Y-69.04
X85.627Y-70.14
X85.65Y-64.74
X85.65Y-65.74
X85.75Y-131.2
X85.89Y-78.542
X86.53Y-77.262
X86.97Y-82.77
X87.09Y-78.842
X87.09Y-80.24
X87.265Y-63.72
X87.268Y-71.22
X87.288Y-69.04
X87.288Y-70.14
X87.305Y-64.74
X87.305Y-65.74
X87.63Y-77.27
X87.748Y-131.214
X87.764Y-129.341
X88.19Y-78.85
X88.19Y-80.248
X88.92Y-63.72
X88.93Y-71.22
X88.93Y-75.38
X88.95Y-69.04
X88.95Y-70.14
X88.96Y-64.74
X88.96Y-65.74
X89.22Y-96.18
X89.54Y-125.97
X90.2Y-96.16
X90.36Y-101.25
X91.11Y-84.75
X91.11Y-86.148
X91.11Y-87.547
X91.11Y-88.945
X91.11Y-90.343
X91.11Y-91.742
X91.11Y-93.14
X92.435Y-96.035
X92.94Y-102.04
X93.03Y-54.23
X93.45Y-62.57
X93.709Y-55.87
X93.869Y-136.167
X94.099Y-112.195
X94.119Y-58.145
X94.63Y-97.12
X95.11Y-129.4
X95.116Y-111.529
X95.369Y-71.184
X95.401Y-69.431
X95.959Y-74.274
X96.13Y-110.92
X96.18Y-115.959
X96.203Y-118.495
X96.36Y-120.67
X97.09Y-97.15
X97.32Y-84.83
X97.32Y-86.31
X97.32Y-87.879
X97.32Y-89.65
X97.32Y-91.52
X97.32Y-93.5
X97.34Y-118.49
X97.5Y-54.21
X97.5Y-116.66
X97.52Y-55.2
X97.54Y-56.23
X97.65Y-124.35
X97.79Y-109.67
X98.32Y-123.3
X98.45Y-131.2
X98.662Y-137.914
X98.682Y-136.516
X98.85Y-107.88
X98.86Y-84.83
X98.86Y-86.31
X98.86Y-87.879
X98.86Y-89.65
X98.86Y-91.52
X98.86Y-93.5
X100.18Y-106.04
X100.47Y-66.77
X100.58Y-85.521
X100.58Y-87.27
X100.851Y-73.131
X101.11Y-79.52
X101.11Y-80.79
X101.14Y-76.9
X101.14Y-78.17
X102.26Y-123.53
X102.43Y-82.82
X102.7Y-75.26
X102.86Y-55.2
X103.0Y-104.24
X103.05Y-112.02
X103.08Y-110.48
X103.1Y-113.9
X103.11Y-115.59
X103.11Y-116.95
X103.11Y-118.31
X103.11Y-119.67
X103.43Y-87.122
X103.47Y-85.07
X103.53Y-127.49
X104.076Y-111.23
X104.106Y-109.69
X104.126Y-113.11
X104.17Y-79.64
X104.43Y-130.24
X104.63Y-115.59
X104.63Y-116.95
X104.63Y-118.31
X104.63Y-119.67
X105.102Y-112.01
X105.132Y-110.47
X105.152Y-113.89
X105.33Y-132.32
X105.44Y-79.64
X105.6Y-90.442
X105.6Y-92.494
X105.64Y-88.39
X106.128Y-111.23
X106.158Y-109.69
X106.178Y-113.11
X106.38Y-91.468
X106.39Y-93.52
X106.41Y-89.416
X106.45Y-115.56
X106.45Y-116.92
X106.45Y-118.28
X106.45Y-119.64
X106.63Y-71.73
X106.79Y-79.67
X106.82Y-75.5
X107.154Y-112.04
X107.184Y-110.5
X107.204Y-113.92
X107.28Y-90.442
X107.28Y-92.494
X107.32Y-88.39
X108.06Y-79.67
X108.06Y-91.468
X108.07Y-93.52
X108.09Y-89.416
X108.12Y-115.58
X108.12Y-116.94
X108.12Y-118.3
X108.12Y-119.66
X108.18Y-111.27
X108.21Y-109.73
X108.23Y-113.15
X108.31Y-56.19
X108.32Y-55.17
X108.33Y-104.27
X108.34Y-54.18
X108.49Y-52.44
X109.72Y-67.86
X110.49Y-72.52
X111.24Y-124.4
X111.25Y-106.01
X111.38Y-123.25
X111.42Y-94.88
X111.779Y-75.44
X111.78Y-68.51
X111.78Y-93.55
X111.88Y-92.6
X112.13Y-127.39
X112.53Y-107.8
X112.81Y-90.64
X112.87Y-67.429
X112.98Y-131.26
X113.65Y-55.18
X113.79Y-110.23
X114.13Y-66.12
X114.199Y-75.16
X114.64Y-99.8
X114.69Y-119.23
X114.72Y-121.64
X114.79Y-90.64
X114.8Y-117.88
X114.99Y-74.389
X115.07Y-111.16
X115.81Y-79.33
X115.99Y-72.71
X116.19Y-116.61
X116.72Y-80.07
X116.91Y-128.99
X116.941Y-72.667
X117.183Y-50.284
X117.73Y-123.19
X117.88Y-99.77
X117.893Y-72.625
X118.27Y-62.32
X118.68Y-90.53
X119.06Y-73.15
X119.4Y-50.54
X119.76Y-127.77
X119.78Y-111.63
X119.78Y-115.112
X119.79Y-114.06
X119.82Y-109.23
X120.04Y-83.77
X120.11Y-117.3
X120.14Y-54.33
X120.19Y-51.91
X121.0Y-105.08
X121.07Y-103.91
X121.14Y-102.82
X121.59Y-56.0
X121.73Y-51.09
X121.73Y-52.36
X121.73Y-53.66
X121.859Y-118.519
X121.88Y-119.6
X123.29Y-64.67
X123.83Y-84.53
X124.309Y-108.036
X126.08Y-116.13
X126.92Y-51.14
X129.19Y-54.48
X129.23Y-55.8
X129.39Y-92.89
X129.53Y-57.24
T3
X100.765Y-145.89
X120.74Y-70.03
X120.78Y-68.63
X120.81Y-71.43
X124.73Y-78.74
X125.96Y-57.72
X126.03Y-78.73
T5
X84.859Y-50.049
X84.859Y-52.589
X84.859Y-55.129
X84.859Y-57.669
X109.35Y-143.58
X111.89Y-143.58
X114.43Y-143.58
X116.97Y-143.58
X119.51Y-143.58
T6
X89.621Y-143.622
X92.161Y-143.622
X94.701Y-143.622
X97.241Y-143.622
T4
G00X126.95Y-82.05
M15
G01X125.85Y-82.05
M16
G05
G00X126.95Y-90.69
M15
G01X125.85Y-90.69
M16
G05
G00X130.98Y-82.05
M15
G01X130.18Y-82.05
M16
G05
G00X130.98Y-90.69
M15
G01X130.18Y-90.69
M16
G05
M30
