%TF.GenerationSoftware,KiCad,Pcbnew,(7.0.0-0)*%
%TF.CreationDate,2023-03-05T22:11:08-05:00*%
%TF.ProjectId,bitaxeMax,62697461-7865-44d6-9178-2e6b69636164,rev?*%
%TF.SameCoordinates,Original*%
%TF.FileFunction,Copper,L4,Bot*%
%TF.FilePolarity,Positive*%
%FSLAX46Y46*%
G04 Gerber Fmt 4.6, Leading zero omitted, Abs format (unit mm)*
G04 Created by KiCad (PCBNEW (7.0.0-0)) date 2023-03-05 22:11:08*
%MOMM*%
%LPD*%
G01*
G04 APERTURE LIST*
G04 Aperture macros list*
%AMRoundRect*
0 Rectangle with rounded corners*
0 $1 Rounding radius*
0 $2 $3 $4 $5 $6 $7 $8 $9 X,Y pos of 4 corners*
0 Add a 4 corners polygon primitive as box body*
4,1,4,$2,$3,$4,$5,$6,$7,$8,$9,$2,$3,0*
0 Add four circle primitives for the rounded corners*
1,1,$1+$1,$2,$3*
1,1,$1+$1,$4,$5*
1,1,$1+$1,$6,$7*
1,1,$1+$1,$8,$9*
0 Add four rect primitives between the rounded corners*
20,1,$1+$1,$2,$3,$4,$5,0*
20,1,$1+$1,$4,$5,$6,$7,0*
20,1,$1+$1,$6,$7,$8,$9,0*
20,1,$1+$1,$8,$9,$2,$3,0*%
G04 Aperture macros list end*
%TA.AperFunction,SMDPad,CuDef*%
%ADD10R,0.457200X2.997200*%
%TD*%
%TA.AperFunction,ComponentPad*%
%ADD11C,0.500000*%
%TD*%
%TA.AperFunction,ComponentPad*%
%ADD12C,0.400000*%
%TD*%
%TA.AperFunction,ComponentPad*%
%ADD13C,1.574800*%
%TD*%
%TA.AperFunction,ComponentPad*%
%ADD14R,1.700000X1.700000*%
%TD*%
%TA.AperFunction,ComponentPad*%
%ADD15O,1.700000X1.700000*%
%TD*%
%TA.AperFunction,ComponentPad*%
%ADD16C,2.520000*%
%TD*%
%TA.AperFunction,SMDPad,CuDef*%
%ADD17R,0.900000X1.500000*%
%TD*%
%TA.AperFunction,SMDPad,CuDef*%
%ADD18R,1.500000X0.900000*%
%TD*%
%TA.AperFunction,SMDPad,CuDef*%
%ADD19R,0.900000X0.900000*%
%TD*%
%TA.AperFunction,SMDPad,CuDef*%
%ADD20RoundRect,0.135000X0.295000X0.000000X-0.295000X0.000000X-0.295000X0.000000X0.295000X0.000000X0*%
%TD*%
%TA.AperFunction,SMDPad,CuDef*%
%ADD21R,6.300000X1.850000*%
%TD*%
%TA.AperFunction,SMDPad,CuDef*%
%ADD22R,6.300000X5.550000*%
%TD*%
%TA.AperFunction,ConnectorPad*%
%ADD23C,0.787400*%
%TD*%
%TA.AperFunction,SMDPad,CuDef*%
%ADD24R,1.193800X0.711200*%
%TD*%
%TA.AperFunction,SMDPad,CuDef*%
%ADD25RoundRect,0.250000X-0.550000X1.500000X-0.550000X-1.500000X0.550000X-1.500000X0.550000X1.500000X0*%
%TD*%
%TA.AperFunction,ViaPad*%
%ADD26C,0.800000*%
%TD*%
%TA.AperFunction,ViaPad*%
%ADD27C,1.000000*%
%TD*%
%TA.AperFunction,ViaPad*%
%ADD28C,1.200000*%
%TD*%
%TA.AperFunction,Conductor*%
%ADD29C,0.254000*%
%TD*%
%TA.AperFunction,Conductor*%
%ADD30C,0.508000*%
%TD*%
%TA.AperFunction,Conductor*%
%ADD31C,1.000000*%
%TD*%
G04 APERTURE END LIST*
D10*
%TO.P,J10,1,1*%
%TO.N,/3V3*%
X131284999Y-90881999D03*
%TO.P,J10,2,2*%
%TO.N,/ESP32/MTMS*%
X131284999Y-87325999D03*
%TO.P,J10,3,3*%
%TO.N,GND*%
X130014999Y-90881999D03*
%TO.P,J10,4,4*%
%TO.N,/ESP32/MTCK*%
X130014999Y-87325999D03*
%TO.P,J10,5,5*%
%TO.N,GND*%
X128744999Y-90881999D03*
%TO.P,J10,6,6*%
%TO.N,/ESP32/MTDO*%
X128744999Y-87325999D03*
%TO.P,J10,7,7*%
%TO.N,GND*%
X127474999Y-90881999D03*
%TO.P,J10,8,8*%
%TO.N,/ESP32/MTDI*%
X127474999Y-87325999D03*
%TO.P,J10,9,9*%
%TO.N,GND*%
X126204999Y-90881999D03*
%TO.P,J10,10,10*%
%TO.N,unconnected-(J10-Pad10)*%
X126204999Y-87325999D03*
%TD*%
D11*
%TO.P,U2,16,GND*%
%TO.N,GND*%
X124660000Y-99060000D03*
%TO.P,U2,17,GND*%
X124660000Y-100060000D03*
%TO.P,U2,18,GND*%
X123660000Y-100060000D03*
%TO.P,U2,19,GND*%
X123660000Y-99060000D03*
%TD*%
D12*
%TO.P,U9,11,GND*%
%TO.N,GND*%
X97251691Y-69422200D03*
X99151691Y-69422200D03*
X98201691Y-69997200D03*
X98201691Y-68847200D03*
%TD*%
D13*
%TO.P,J4,1,Pin_1*%
%TO.N,GND*%
X89621000Y-143622000D03*
%TO.P,J4,2,Pin_2*%
%TO.N,/5V*%
X92161000Y-143622000D03*
%TO.P,J4,3,Pin_3*%
%TO.N,/Fan/FAN_TACH*%
X94701000Y-143622000D03*
%TO.P,J4,4,Pin_4*%
%TO.N,/Fan/FAN_PWM*%
X97241000Y-143622000D03*
%TD*%
D14*
%TO.P,J9,1,Pin_1*%
%TO.N,GND*%
X84858999Y-50048999D03*
D15*
%TO.P,J9,2,Pin_2*%
%TO.N,/3V3*%
X84858999Y-52588999D03*
%TO.P,J9,3,Pin_3*%
%TO.N,/SCL*%
X84858999Y-55128999D03*
%TO.P,J9,4,Pin_4*%
%TO.N,/SDA*%
X84858999Y-57668999D03*
%TD*%
D16*
%TO.P,J2,1,Pin_1*%
%TO.N,GND*%
X85190000Y-63390000D03*
X80110000Y-63390000D03*
%TD*%
%TO.P,J1,1,Pin_1*%
%TO.N,/Power/VIN*%
X85190000Y-70810000D03*
X80110000Y-70810000D03*
%TD*%
D14*
%TO.P,J6,1,Pin_1*%
%TO.N,/BI*%
X101625999Y-49798999D03*
D15*
%TO.P,J6,2,Pin_2*%
%TO.N,/RST*%
X104165999Y-49798999D03*
%TO.P,J6,3,Pin_3*%
%TO.N,/RX*%
X106705999Y-49798999D03*
%TO.P,J6,4,Pin_4*%
%TO.N,/TX*%
X109245999Y-49798999D03*
%TO.P,J6,5,Pin_5*%
%TO.N,/SDA*%
X111785999Y-49798999D03*
%TO.P,J6,6,Pin_6*%
%TO.N,/SCL*%
X114325999Y-49798999D03*
%TO.P,J6,7,Pin_7*%
%TO.N,/3V3*%
X116865999Y-49798999D03*
%TO.P,J6,8,Pin_8*%
%TO.N,GND*%
X119405999Y-49798999D03*
%TD*%
D14*
%TO.P,J7,1,Pin_1*%
%TO.N,/Power/VIN*%
X82999999Y-76539999D03*
D15*
%TO.P,J7,2,Pin_2*%
%TO.N,/5V*%
X85539999Y-76539999D03*
%TD*%
D14*
%TO.P,J3,1,Pin_1*%
%TO.N,/BM1397/1V8*%
X109349999Y-143579999D03*
D15*
%TO.P,J3,2,Pin_2*%
%TO.N,/BM1397/CI*%
X111889999Y-143579999D03*
%TO.P,J3,3,Pin_3*%
%TO.N,/BM1397/RO*%
X114429999Y-143579999D03*
%TO.P,J3,4,Pin_4*%
%TO.N,/BM1397/RST_N*%
X116969999Y-143579999D03*
%TO.P,J3,5,Pin_5*%
%TO.N,GND*%
X119509999Y-143579999D03*
%TD*%
D17*
%TO.P,U12,1,GND*%
%TO.N,GND*%
X131869999Y-81709999D03*
%TO.P,U12,2,3V3*%
%TO.N,/3V3*%
X130599999Y-81709999D03*
%TO.P,U12,3,EN*%
%TO.N,/ESP32/EN*%
X129329999Y-81709999D03*
%TO.P,U12,4,GPIO4/TOUCH4/ADC1_CH3*%
%TO.N,unconnected-(U12-Pad4)*%
X128059999Y-81709999D03*
%TO.P,U12,5,GPIO5/TOUCH5/ADC1_CH4*%
%TO.N,/ESP32/LEDZ_R*%
X126789999Y-81709999D03*
%TO.P,U12,6,GPIO6/TOUCH6/ADC1_CH5*%
%TO.N,/ESP32/LEDZ_G*%
X125519999Y-81709999D03*
%TO.P,U12,7,GPIO7/TOUCH7/ADC1_CH6*%
%TO.N,/ESP32/LEDZ_B*%
X124249999Y-81709999D03*
%TO.P,U12,8,GPIO15/U0RTS/ADC2_CH4/XTAL_32K_P*%
%TO.N,/ESP32/XIN32*%
X122979999Y-81709999D03*
%TO.P,U12,9,GPIO16/U0CTS/ADC2_CH5/XTAL_32K_NH5*%
%TO.N,/ESP32/XOUT32*%
X121709999Y-81709999D03*
%TO.P,U12,10,GPIO17/U1TXD/ADC2_CH6*%
%TO.N,/TX*%
X120439999Y-81709999D03*
%TO.P,U12,11,GPIO18/U1RXD/ADC2_CH7/CLK_OUT3*%
%TO.N,/RX*%
X119169999Y-81709999D03*
%TO.P,U12,12,GPIO8/TOUCH8/ADC1_CH7/SUBSPICS1*%
%TO.N,unconnected-(U12-Pad12)*%
X117899999Y-81709999D03*
%TO.P,U12,13,GPIO19/U1RTS/ADC2_CH8/CLK_OUT2/USB_D-*%
%TO.N,/BM1397/CLKI*%
X116629999Y-81709999D03*
%TO.P,U12,14,GPIO20/U1CTS/ADC2_CH9/CLK_OUT1/USB_D+*%
%TO.N,unconnected-(U12-Pad14)*%
X115359999Y-81709999D03*
D18*
%TO.P,U12,15,GPIO3/TOUCH3/ADC1_CH2\u002A*%
%TO.N,Net-(U12-Pad15)*%
X114109999Y-79944999D03*
%TO.P,U12,16,\u002AGPIO46*%
%TO.N,unconnected-(U12-Pad16)*%
X114109999Y-78674999D03*
%TO.P,U12,17,GPIO9/TOUCH9/ADC1_CH8/FSPIHD/SUBSPIHD*%
%TO.N,unconnected-(U12-Pad17)*%
X114109999Y-77404999D03*
%TO.P,U12,18,GPIO10/TOUCH10/ADC1_CH9/FSPICS0/FSPIIO4/SUBSPICS0*%
%TO.N,/BI*%
X114109999Y-76134999D03*
%TO.P,U12,19,GPIO11/TOUCH11/ADC2_CH0/FSPID/FSPIIO5/SUBSPID*%
%TO.N,/Power/PGOOD*%
X114109999Y-74864999D03*
%TO.P,U12,20,GPIO12/TOUCH12/ADC2_CH1/FSPICLK/FSPIIO6/SUBSPICLK*%
%TO.N,/ESP32/FAN_ALERT*%
X114109999Y-73594999D03*
%TO.P,U12,21,GPIO13/TOUCH13/ADC2_CH2/FSPIQ/FSPIIO7/SUBSPIQ*%
%TO.N,unconnected-(U12-Pad21)*%
X114109999Y-72324999D03*
%TO.P,U12,22,GPIO14/TOUCH14/ADC2_CH3/FSPIWP/FSPIDQS/SUBSPIWP*%
%TO.N,unconnected-(U12-Pad22)*%
X114109999Y-71054999D03*
%TO.P,U12,23,GPIO21*%
%TO.N,unconnected-(U12-Pad23)*%
X114109999Y-69784999D03*
%TO.P,U12,24,GPIO47/SPICLK_P/SUBSPICLK_P_DIFF*%
%TO.N,/SDA*%
X114109999Y-68514999D03*
%TO.P,U12,25,GPIO48/SPICLK_N/SUBSPICLK_N_DIFF*%
%TO.N,/SCL*%
X114109999Y-67244999D03*
%TO.P,U12,26,\u002AGPIO45*%
%TO.N,unconnected-(U12-Pad26)*%
X114109999Y-65974999D03*
D17*
%TO.P,U12,27,GPIO0/BOOT\u002A*%
%TO.N,/ESP32/IO0*%
X115359999Y-64209999D03*
%TO.P,U12,28,SPIIO6/GPIO35/FSPID/SUBSPID*%
%TO.N,/ESP32/LEDX_R*%
X116629999Y-64209999D03*
%TO.P,U12,29,SPIIO7/GPIO36/FSPICLK/SUBSPICLK*%
%TO.N,/ESP32/LEDX_G*%
X117899999Y-64209999D03*
%TO.P,U12,30,SPIDQS/GPIO37/FSPIQ/SUBSPIQ*%
%TO.N,/ESP32/LEDX_B*%
X119169999Y-64209999D03*
%TO.P,U12,31,GPIO38/FSPIWP/SUBSPIWP*%
%TO.N,unconnected-(U12-Pad31)*%
X120439999Y-64209999D03*
%TO.P,U12,32,MTCK/GPIO39/CLK_OUT3/SUBSPICS1*%
%TO.N,/ESP32/MTCK*%
X121709999Y-64209999D03*
%TO.P,U12,33,MTDO/GPIO40/CLK_OUT2*%
%TO.N,/ESP32/MTDO*%
X122979999Y-64209999D03*
%TO.P,U12,34,MTDI/GPIO41/CLK_OUT1*%
%TO.N,/ESP32/MTDI*%
X124249999Y-64209999D03*
%TO.P,U12,35,MTMS/GPIO42*%
%TO.N,/ESP32/MTMS*%
X125519999Y-64209999D03*
%TO.P,U12,36,U0RXD/GPIO44/CLK_OUT2*%
%TO.N,/ESP32/P_RX*%
X126789999Y-64209999D03*
%TO.P,U12,37,U0TXD/GPIO43/CLK_OUT1*%
%TO.N,/ESP32/P_TX*%
X128059999Y-64209999D03*
%TO.P,U12,38,GPIO2/TOUCH2/ADC1_CH1*%
%TO.N,/VDD*%
X129329999Y-64209999D03*
%TO.P,U12,39,GPIO1/TOUCH1/ADC1_CH0*%
%TO.N,/RST*%
X130599999Y-64209999D03*
%TO.P,U12,40,GND*%
%TO.N,GND*%
X131869999Y-64209999D03*
D19*
%TO.P,U12,41,GND*%
X124149999Y-74459999D03*
X125549999Y-75859999D03*
X122749999Y-75859999D03*
X122749999Y-74459999D03*
X122749999Y-73059999D03*
X124149999Y-75859999D03*
X125549999Y-73059999D03*
X124149999Y-73059999D03*
X125549999Y-74459999D03*
%TD*%
D20*
%TO.P,IC1,1,VDD3_0*%
%TO.N,Net-(C6-Pad2)*%
X109624600Y-112880000D03*
%TO.P,IC1,2,VDD2_0*%
%TO.N,Net-(C3-Pad2)*%
X109624600Y-113360000D03*
%TO.P,IC1,3,VDD1_0*%
%TO.N,Net-(C2-Pad2)*%
X109624600Y-113840000D03*
%TO.P,IC1,4,ADDR0*%
%TO.N,Net-(IC1-Pad4)*%
X109624600Y-114320000D03*
%TO.P,IC1,5,ADDR1*%
%TO.N,Net-(IC1-Pad5)*%
X109624600Y-114800000D03*
%TO.P,IC1,6,ADDR2*%
%TO.N,Net-(IC1-Pad6)*%
X109624600Y-115280000D03*
%TO.P,IC1,7,TEST*%
%TO.N,unconnected-(IC1-Pad7)*%
X109624600Y-115760000D03*
%TO.P,IC1,8,BI*%
%TO.N,/BM1397/BM_BI*%
X109624600Y-116240000D03*
%TO.P,IC1,9,NRSTI*%
%TO.N,/BM1397/RST_N*%
X109624600Y-116720000D03*
%TO.P,IC1,10,RO*%
%TO.N,Net-(IC1-Pad10)*%
X109624600Y-117200000D03*
%TO.P,IC1,11,CI*%
%TO.N,Net-(IC1-Pad11)*%
X109624600Y-117680000D03*
%TO.P,IC1,12,CLKI*%
%TO.N,/BM1397/BM_CLKI*%
X109624600Y-118160000D03*
%TO.P,IC1,13,PLL_VSS*%
%TO.N,GND*%
X109624600Y-118640000D03*
%TO.P,IC1,14,PLL_VDD*%
%TO.N,/BM1397/0V8*%
X109624600Y-119120000D03*
%TO.P,IC1,15,VDDIO_08_0*%
X109624600Y-119600000D03*
%TO.P,IC1,16,VDDIO_18_0*%
%TO.N,/BM1397/1V8*%
X109624600Y-120080000D03*
%TO.P,IC1,17,VDDIO_18_1*%
X101755400Y-120080000D03*
%TO.P,IC1,18,VDDIO_08_1*%
%TO.N,/BM1397/0V8*%
X101755400Y-119600000D03*
%TO.P,IC1,19,VSS*%
%TO.N,GND*%
X101755400Y-119120000D03*
%TO.P,IC1,20,PIN_MODE*%
%TO.N,Net-(IC1-Pad20)*%
X101755400Y-118640000D03*
%TO.P,IC1,21,TEMP_N*%
%TO.N,/TEMP_N*%
X101755400Y-118160000D03*
%TO.P,IC1,22,TEMP_P*%
%TO.N,/TEMP_P*%
X101755400Y-117680000D03*
%TO.P,IC1,23,RF*%
%TO.N,unconnected-(IC1-Pad23)*%
X101755400Y-117200000D03*
%TO.P,IC1,24,TF*%
%TO.N,unconnected-(IC1-Pad24)*%
X101755400Y-116720000D03*
%TO.P,IC1,25,CLKO*%
%TO.N,Net-(IC1-Pad25)*%
X101755400Y-116240000D03*
%TO.P,IC1,26,CO*%
%TO.N,Net-(IC1-Pad26)*%
X101755400Y-115760000D03*
%TO.P,IC1,27,RI*%
%TO.N,Net-(IC1-Pad27)*%
X101755400Y-115280000D03*
%TO.P,IC1,28,NRSTO*%
%TO.N,Net-(IC1-Pad28)*%
X101755400Y-114800000D03*
%TO.P,IC1,29,BO*%
%TO.N,Net-(IC1-Pad29)*%
X101755400Y-114320000D03*
%TO.P,IC1,30,VDD1_1*%
%TO.N,Net-(C17-Pad2)*%
X101755400Y-113840000D03*
%TO.P,IC1,31,VDD2_1*%
%TO.N,Net-(C15-Pad2)*%
X101755400Y-113360000D03*
%TO.P,IC1,32,VDD3_1*%
%TO.N,Net-(C12-Pad2)*%
X101755400Y-112880000D03*
D21*
%TO.P,IC1,33,VDD*%
%TO.N,/VDD*%
X105689999Y-113479999D03*
D22*
%TO.P,IC1,34,VSS_0*%
%TO.N,GND*%
X105689999Y-117679999D03*
%TD*%
D23*
%TO.P,J5,1,Pin_1*%
%TO.N,/ESP32/EN*%
X129400000Y-58365000D03*
%TO.P,J5,2,Pin_2*%
%TO.N,/3V3*%
X129400000Y-57095000D03*
%TO.P,J5,3,Pin_3*%
%TO.N,/ESP32/P_TX*%
X128130000Y-58365000D03*
%TO.P,J5,4,Pin_4*%
%TO.N,GND*%
X128130000Y-57095000D03*
%TO.P,J5,5,Pin_5*%
%TO.N,/ESP32/P_RX*%
X126860000Y-58365000D03*
%TO.P,J5,6,Pin_6*%
%TO.N,/ESP32/IO0*%
X126860000Y-57095000D03*
%TD*%
D24*
%TO.P,U13,1,BC*%
%TO.N,GND*%
X112698246Y-54179998D03*
%TO.P,U13,2,GC*%
X112698246Y-55179999D03*
%TO.P,U13,3,RC*%
X112698246Y-56180000D03*
%TO.P,U13,4,RA*%
%TO.N,Net-(R29-Pad2)*%
X109574046Y-56180000D03*
%TO.P,U13,5,GA*%
%TO.N,Net-(R27-Pad2)*%
X109574046Y-55179999D03*
%TO.P,U13,6,BA*%
%TO.N,Net-(R22-Pad2)*%
X109574046Y-54179998D03*
%TD*%
D25*
%TO.P,C28,1*%
%TO.N,/5V*%
X103490000Y-138720000D03*
%TO.P,C28,2*%
%TO.N,GND*%
X103490000Y-144120000D03*
%TD*%
D24*
%TO.P,U4,1,BC*%
%TO.N,GND*%
X101864393Y-54209998D03*
%TO.P,U4,2,GC*%
X101864393Y-55209999D03*
%TO.P,U4,3,RC*%
X101864393Y-56210000D03*
%TO.P,U4,4,RA*%
%TO.N,Net-(R28-Pad2)*%
X98740193Y-56210000D03*
%TO.P,U4,5,GA*%
%TO.N,Net-(R26-Pad2)*%
X98740193Y-55209999D03*
%TO.P,U4,6,BA*%
%TO.N,Net-(R21-Pad2)*%
X98740193Y-54209998D03*
%TD*%
D26*
%TO.N,GND*%
X103110000Y-115590000D03*
X97830000Y-111040000D03*
X80410000Y-139600000D03*
X78090000Y-82060000D03*
X100850600Y-73131400D03*
X103110000Y-116950000D03*
X116910000Y-128990000D03*
X104630000Y-119670000D03*
D27*
X126719000Y-75842000D03*
D26*
X97320000Y-93500000D03*
X131300000Y-62500000D03*
X112980000Y-131260000D03*
X108120000Y-119660000D03*
X97320000Y-87878600D03*
X100580000Y-87270000D03*
X97320000Y-84830000D03*
X98860000Y-84830000D03*
X114230000Y-55160000D03*
X104630000Y-115590000D03*
X98682000Y-136516000D03*
X98860000Y-93500000D03*
X112127000Y-72909100D03*
X106450000Y-116920000D03*
X128120000Y-55550000D03*
X113540000Y-111040000D03*
X95400600Y-69431400D03*
X106450000Y-119640000D03*
D27*
X100765000Y-145890000D03*
D26*
X94890000Y-62470000D03*
X97320000Y-86310000D03*
X106450000Y-118280000D03*
X80660000Y-87760000D03*
X97320000Y-89650000D03*
X124888000Y-91866000D03*
D27*
X126719000Y-74372000D03*
D26*
X103110000Y-119670000D03*
X90360055Y-101249945D03*
X88908900Y-138550000D03*
X98860000Y-91520000D03*
X117730000Y-123190000D03*
X104630000Y-118310000D03*
X121210000Y-74547000D03*
X120110000Y-117300000D03*
X98860000Y-86310000D03*
X97320000Y-91520000D03*
X102570000Y-57250000D03*
X87764000Y-129341000D03*
X115749000Y-66446000D03*
X121240000Y-95820000D03*
X112512000Y-61250000D03*
X106450000Y-115560000D03*
X95110000Y-129400000D03*
X98860000Y-89650000D03*
X104630000Y-116950000D03*
X86970000Y-82770000D03*
X129170000Y-94910000D03*
X129580000Y-102230000D03*
D27*
X126719000Y-73012000D03*
D26*
X105330000Y-132320000D03*
X104430000Y-130240000D03*
X108120000Y-115580000D03*
D27*
X132450000Y-84290000D03*
D26*
X124308576Y-108035637D03*
X108120000Y-118300000D03*
X108120000Y-116940000D03*
X98860000Y-87878600D03*
X103110000Y-118310000D03*
X124104100Y-101710000D03*
X83001194Y-129118806D03*
X126970000Y-103748900D03*
X96840000Y-98140000D03*
X92910000Y-102990000D03*
X100580000Y-85521400D03*
%TO.N,/BM1397/1V8*%
X124090000Y-97090000D03*
X119760000Y-127770000D03*
X125770000Y-102190000D03*
X112130000Y-127390000D03*
X111380000Y-123250000D03*
X98320000Y-123300000D03*
%TO.N,/BM1397/0V8*%
X111240000Y-124400000D03*
X97650000Y-124350000D03*
X102260000Y-123530000D03*
X103530000Y-127490000D03*
%TO.N,/VDD*%
X110361000Y-82986000D03*
X115517000Y-67970000D03*
X103000000Y-104240000D03*
X105152000Y-113890000D03*
D28*
X107870000Y-90540000D03*
X107910000Y-92670000D03*
D26*
X104126000Y-113110000D03*
X108330000Y-104270000D03*
X108230000Y-113150000D03*
X103100000Y-113900000D03*
X103000000Y-62838100D03*
X107204000Y-113920000D03*
D28*
X107910000Y-94640000D03*
D26*
X106178000Y-113110000D03*
D28*
X105880000Y-90540000D03*
X105880000Y-88500000D03*
X107850000Y-88520000D03*
X105930000Y-94670000D03*
X105900000Y-92650000D03*
D26*
%TO.N,/ESP32/EN*%
X132665000Y-68760000D03*
X129348000Y-80241000D03*
%TO.N,/5V*%
X85750000Y-131200000D03*
X100470000Y-66770000D03*
X93869000Y-136167000D03*
X87748000Y-131214000D03*
D28*
X109323000Y-63360000D03*
D26*
X98450000Y-131200000D03*
%TO.N,/3V3*%
X115457000Y-62413000D03*
X122890000Y-95930000D03*
X129610000Y-55490000D03*
D27*
X129310000Y-83980000D03*
D26*
X112358000Y-81708000D03*
X110536000Y-72864000D03*
X131744000Y-76848000D03*
X98662000Y-137914100D03*
X124430000Y-95990000D03*
X83700000Y-87750000D03*
X80676100Y-129980000D03*
X82880000Y-132350000D03*
X94100000Y-97190000D03*
X82990000Y-85090000D03*
X131989000Y-93865000D03*
X130200000Y-96690000D03*
%TO.N,/TX*%
X115412000Y-84554000D03*
%TO.N,/RX*%
X113836000Y-83855000D03*
%TO.N,/BM1397/RST_N*%
X119900000Y-99630000D03*
X116190000Y-116610000D03*
%TO.N,/BM1397/CI*%
X121880000Y-119600000D03*
X119850000Y-98620000D03*
%TO.N,/RST*%
X120676000Y-54726000D03*
X121437000Y-70037900D03*
%TO.N,/BM1397/RO*%
X120700000Y-97940000D03*
X121859000Y-118519000D03*
%TO.N,/TEMP_N*%
X97340000Y-118490000D03*
%TO.N,/TEMP_P*%
X96203000Y-118495000D03*
%TO.N,/SCL*%
X120743000Y-68680100D03*
X85120000Y-86810000D03*
X109646000Y-67269000D03*
X90390000Y-96230000D03*
X84010000Y-123740000D03*
%TO.N,/Power/OUT0*%
X91440000Y-95040000D03*
X89730000Y-75310000D03*
%TO.N,Net-(Q2-Pad4)*%
X101710600Y-82811400D03*
X102700000Y-75260000D03*
%TO.N,Net-(C2-Pad2)*%
X115070000Y-111160000D03*
%TO.N,Net-(C3-Pad2)*%
X112530000Y-107800000D03*
%TO.N,Net-(C6-Pad2)*%
X111250000Y-106010000D03*
%TO.N,Net-(C12-Pad2)*%
X100180000Y-106040000D03*
%TO.N,Net-(C15-Pad2)*%
X98850000Y-107880000D03*
%TO.N,Net-(C17-Pad2)*%
X96130000Y-110920000D03*
%TO.N,Net-(C42-Pad1)*%
X95368800Y-71183600D03*
X95958800Y-74273600D03*
%TO.N,Net-(IC1-Pad4)*%
X119820000Y-109230000D03*
%TO.N,Net-(IC1-Pad5)*%
X119780000Y-111630000D03*
%TO.N,Net-(IC1-Pad6)*%
X119790000Y-114060000D03*
%TO.N,Net-(IC1-Pad10)*%
X114800000Y-117880000D03*
%TO.N,Net-(IC1-Pad11)*%
X114690000Y-119230000D03*
%TO.N,Net-(IC1-Pad20)*%
X89540000Y-125970000D03*
%TO.N,Net-(IC1-Pad25)*%
X97500000Y-116660000D03*
%TO.N,Net-(IC1-Pad26)*%
X96180000Y-115958900D03*
%TO.N,Net-(IC1-Pad27)*%
X96360000Y-120670000D03*
%TO.N,Net-(IC1-Pad28)*%
X94099000Y-112195000D03*
%TO.N,Net-(IC1-Pad29)*%
X95116000Y-111529000D03*
%TO.N,/BI*%
X117717100Y-76139000D03*
X115546000Y-76073000D03*
%TO.N,/ESP32/P_TX*%
X128060000Y-61549000D03*
%TO.N,/ESP32/P_RX*%
X124447000Y-61551000D03*
%TO.N,/ESP32/IO0*%
X124830000Y-55100000D03*
X122113000Y-68573000D03*
%TO.N,/ESP32/XIN32*%
X124019000Y-80080000D03*
%TO.N,/BM1397/CLKI*%
X117264000Y-79858000D03*
%TO.N,Net-(R21-Pad2)*%
X97500000Y-54210000D03*
%TO.N,/ESP32/XOUT32*%
X121248000Y-80100000D03*
%TO.N,/Power/PGOOD*%
X108278900Y-71440000D03*
%TO.N,Net-(R23-Pad2)*%
X130950000Y-103070000D03*
X121875000Y-121856000D03*
%TO.N,Net-(R22-Pad2)*%
X108340000Y-54180000D03*
%TO.N,/ESP32/LEDX_B*%
X93950000Y-57520000D03*
%TO.N,Net-(R26-Pad2)*%
X97520000Y-55200000D03*
%TO.N,/ESP32/FAN_ALERT*%
X111108000Y-81876000D03*
X121867000Y-120750000D03*
X110497000Y-73924000D03*
%TO.N,/ESP32/LEDZ_B*%
X116044000Y-70126000D03*
%TO.N,Net-(R27-Pad2)*%
X108320000Y-55170000D03*
%TO.N,/ESP32/LEDX_G*%
X94129945Y-58660055D03*
%TO.N,Net-(R28-Pad2)*%
X97540000Y-56230000D03*
%TO.N,/ESP32/LEDZ_G*%
X117097000Y-70138000D03*
%TO.N,Net-(R29-Pad2)*%
X108310000Y-56190000D03*
%TO.N,/BM1397/BM_BI*%
X120490000Y-100430000D03*
%TO.N,/SDA*%
X84702648Y-124392960D03*
X108222000Y-68481000D03*
X117403141Y-73987441D03*
X84730000Y-85730000D03*
X91500000Y-96290000D03*
X90357445Y-62412445D03*
%TO.N,Net-(U12-Pad15)*%
X112273000Y-80390000D03*
%TO.N,/BM1397/BM_CLKI*%
X114720000Y-121640000D03*
%TO.N,/ESP32/LEDX_R*%
X94319890Y-59810110D03*
%TO.N,/ESP32/LEDZ_R*%
X118065584Y-70146474D03*
%TO.N,/ESP32/MTCK*%
X125236000Y-83472000D03*
X127256267Y-68475562D03*
%TO.N,/ESP32/MTDO*%
X124253000Y-83852000D03*
X127290717Y-67524283D03*
%TO.N,/ESP32/MTDI*%
X127270301Y-66543756D03*
X124253000Y-85168000D03*
%TO.N,/ESP32/MTMS*%
X127287000Y-65592000D03*
X131133000Y-84822000D03*
%TD*%
D29*
%TO.N,GND*%
X129770000Y-91933000D02*
X126205000Y-91933000D01*
X101755400Y-119120000D02*
X104250000Y-119120000D01*
X130029000Y-91674000D02*
X129770000Y-91933000D01*
X126205000Y-90882000D02*
X125221000Y-91866000D01*
X104250000Y-119120000D02*
X105690000Y-117680000D01*
D30*
X128130000Y-57095000D02*
X128130000Y-55560000D01*
X131870000Y-64210000D02*
X131870000Y-63070000D01*
D29*
X126205000Y-90882000D02*
X126205000Y-91933000D01*
X106650000Y-118640000D02*
X105690000Y-117680000D01*
D31*
X122750000Y-75860000D02*
X126701000Y-75860000D01*
D30*
X101864394Y-56210001D02*
X101864394Y-56544394D01*
D31*
X122750000Y-73060000D02*
X126671000Y-73060000D01*
D30*
X103490000Y-144120000D02*
X102450000Y-144120000D01*
D29*
X130015000Y-90882000D02*
X130015000Y-91660000D01*
D31*
X132450000Y-84290000D02*
X131870000Y-83710000D01*
D29*
X130015000Y-91660000D02*
X130029000Y-91674000D01*
D31*
X126671000Y-73060000D02*
X126719000Y-73012000D01*
D29*
X109624600Y-118640000D02*
X106650000Y-118640000D01*
D30*
X101864394Y-56210001D02*
X101864394Y-54209999D01*
D31*
X122750000Y-74460000D02*
X126631000Y-74460000D01*
D30*
X131870000Y-63070000D02*
X131300000Y-62500000D01*
X112698247Y-55180000D02*
X114210000Y-55180000D01*
D29*
X125221000Y-91866000D02*
X124888000Y-91866000D01*
D30*
X128130000Y-55560000D02*
X128120000Y-55550000D01*
X102450000Y-144205000D02*
X100765000Y-145890000D01*
X102450000Y-144120000D02*
X102450000Y-144205000D01*
X112698247Y-54179999D02*
X112698247Y-56180001D01*
X101864394Y-56544394D02*
X102570000Y-57250000D01*
D31*
X126631000Y-74460000D02*
X126719000Y-74372000D01*
D30*
X114210000Y-55180000D02*
X114230000Y-55160000D01*
D31*
X126701000Y-75860000D02*
X126719000Y-75842000D01*
X131870000Y-83710000D02*
X131870000Y-81710000D01*
D29*
%TO.N,/BM1397/1V8*%
X111380000Y-121835400D02*
X111380000Y-123250000D01*
D30*
X125070000Y-97090000D02*
X124090000Y-97090000D01*
X112130000Y-127390000D02*
X112510000Y-127770000D01*
X112510000Y-127770000D02*
X118490000Y-127770000D01*
X126040000Y-98060000D02*
X125070000Y-97090000D01*
D29*
X101540000Y-120080000D02*
X98320000Y-123300000D01*
D30*
X126040000Y-101920000D02*
X126040000Y-98060000D01*
X118490000Y-134440000D02*
X109350000Y-143580000D01*
D29*
X109624600Y-120080000D02*
X111380000Y-121835400D01*
D30*
X118490000Y-127770000D02*
X118490000Y-134440000D01*
D29*
X101755400Y-120080000D02*
X101540000Y-120080000D01*
D30*
X118490000Y-127770000D02*
X119760000Y-127770000D01*
X125770000Y-102190000D02*
X126040000Y-101920000D01*
D29*
%TO.N,/BM1397/0V8*%
X101755400Y-119600000D02*
X100830000Y-119600000D01*
D30*
X103530000Y-127490000D02*
X103530000Y-124800000D01*
D29*
X97460000Y-124160000D02*
X97650000Y-124350000D01*
X111500000Y-120270000D02*
X111500000Y-121000000D01*
X111500000Y-121000000D02*
X111462487Y-121037513D01*
X111760000Y-124400000D02*
X111240000Y-124400000D01*
X111462487Y-121037513D02*
X112220000Y-121795026D01*
X110350000Y-119120000D02*
X111500000Y-120270000D01*
X109624600Y-119600000D02*
X110024974Y-119600000D01*
D30*
X103530000Y-124800000D02*
X102260000Y-123530000D01*
D29*
X109624600Y-119120000D02*
X110350000Y-119120000D01*
X97460000Y-122970000D02*
X97460000Y-124160000D01*
X110024974Y-119600000D02*
X111462487Y-121037513D01*
X112220000Y-123940000D02*
X111760000Y-124400000D01*
X112220000Y-121795026D02*
X112220000Y-123940000D01*
X100830000Y-119600000D02*
X97460000Y-122970000D01*
%TO.N,/VDD*%
X103133100Y-62838100D02*
X103000000Y-62838100D01*
X115517000Y-67970000D02*
X116906000Y-69359000D01*
X110300000Y-82925000D02*
X110300000Y-76960000D01*
X110300000Y-76960000D02*
X107110000Y-73770000D01*
X116906000Y-69359000D02*
X128630000Y-69359000D01*
X128630000Y-69359000D02*
X129330000Y-68659000D01*
X107110000Y-73770000D02*
X107110000Y-66815000D01*
X110361000Y-82986000D02*
X110300000Y-82925000D01*
X129330000Y-68659000D02*
X129330000Y-64210000D01*
X107110000Y-66815000D02*
X103133100Y-62838100D01*
%TO.N,/ESP32/EN*%
X129348000Y-80241000D02*
X129348000Y-80228000D01*
X132665000Y-62605000D02*
X132665000Y-68760000D01*
X132665000Y-78605000D02*
X131780000Y-79490000D01*
X130050000Y-79490000D02*
X129330000Y-80210000D01*
X129348000Y-80228000D02*
X129330000Y-80210000D01*
X129390000Y-59330000D02*
X132665000Y-62605000D01*
X129500000Y-58355000D02*
X129390000Y-58465000D01*
X129400000Y-59320000D02*
X129400000Y-58365000D01*
X131780000Y-79490000D02*
X130050000Y-79490000D01*
X129330000Y-80210000D02*
X129330000Y-81710000D01*
X129390000Y-59330000D02*
X129400000Y-59320000D01*
X132665000Y-68760000D02*
X132665000Y-78605000D01*
D30*
%TO.N,/5V*%
X92161000Y-142859000D02*
X92161000Y-143622000D01*
D29*
X93869000Y-136167000D02*
X96290000Y-138588000D01*
D30*
X95560000Y-139450000D02*
X95560000Y-139460000D01*
X96290000Y-138720000D02*
X95560000Y-139450000D01*
X103490000Y-138720000D02*
X96290000Y-138720000D01*
D29*
X96290000Y-138588000D02*
X96290000Y-138720000D01*
D30*
X95560000Y-139460000D02*
X92161000Y-142859000D01*
D31*
%TO.N,/3V3*%
X130600000Y-82690000D02*
X130600000Y-81710000D01*
D29*
X131285000Y-90882000D02*
X131285000Y-93161000D01*
X131285000Y-93161000D02*
X131989000Y-93865000D01*
D30*
X129400000Y-55700000D02*
X129610000Y-55490000D01*
D31*
X129310000Y-83980000D02*
X130600000Y-82690000D01*
D30*
X129400000Y-57095000D02*
X129400000Y-55700000D01*
D29*
%TO.N,/TX*%
X119281000Y-84554000D02*
X120440000Y-83395000D01*
X115412000Y-84554000D02*
X119281000Y-84554000D01*
X120440000Y-83395000D02*
X120440000Y-81710000D01*
%TO.N,/RX*%
X113836000Y-83855000D02*
X118414000Y-83855000D01*
X118414000Y-83855000D02*
X119170000Y-83099000D01*
X119170000Y-83099000D02*
X119170000Y-81710000D01*
%TO.N,/BM1397/RST_N*%
X113349874Y-116720000D02*
X113498785Y-116868911D01*
X121339400Y-114934857D02*
X119664257Y-116610000D01*
X119900000Y-99630000D02*
X120170000Y-99360000D01*
X121339400Y-99729400D02*
X121339400Y-114934857D01*
X119664257Y-116610000D02*
X116190000Y-116610000D01*
X120970000Y-99360000D02*
X121339400Y-99729400D01*
X115931089Y-116868911D02*
X116190000Y-116610000D01*
X109624600Y-116720000D02*
X113349874Y-116720000D01*
X120170000Y-99360000D02*
X120970000Y-99360000D01*
X113498785Y-116868911D02*
X115931089Y-116868911D01*
%TO.N,/BM1397/CI*%
X121820000Y-115028993D02*
X121820000Y-99635264D01*
X121880000Y-119600000D02*
X121509000Y-119600000D01*
X120804736Y-98620000D02*
X119850000Y-98620000D01*
X120908000Y-118999000D02*
X120908000Y-115940993D01*
X121509000Y-119600000D02*
X120908000Y-118999000D01*
X121820000Y-99635264D02*
X120804736Y-98620000D01*
X120908000Y-115940993D02*
X121820000Y-115028993D01*
%TO.N,/RST*%
X104166000Y-51281000D02*
X104166000Y-49799000D01*
X130550000Y-64260000D02*
X130600000Y-64210000D01*
X121437000Y-70037900D02*
X128525836Y-70037900D01*
X105268000Y-52383000D02*
X104166000Y-51281000D01*
X118333000Y-52383000D02*
X105268000Y-52383000D01*
X120676000Y-54726000D02*
X118333000Y-52383000D01*
X128525836Y-70037900D02*
X130550000Y-68013736D01*
X130550000Y-68013736D02*
X130550000Y-64260000D01*
%TO.N,/BM1397/RO*%
X121859000Y-118519000D02*
X122226400Y-118151600D01*
X122226400Y-99466400D02*
X120700000Y-97940000D01*
X122226400Y-118151600D02*
X122226400Y-99466400D01*
%TO.N,/TEMP_N*%
X97340000Y-118490000D02*
X97670000Y-118160000D01*
X97670000Y-118160000D02*
X101755400Y-118160000D01*
%TO.N,/TEMP_P*%
X97018000Y-117680000D02*
X101755400Y-117680000D01*
X96203000Y-118495000D02*
X97018000Y-117680000D01*
%TO.N,/SCL*%
X87990000Y-93830000D02*
X87990000Y-89340000D01*
X90390000Y-96230000D02*
X87990000Y-93830000D01*
X120743000Y-68680100D02*
X117408100Y-68680100D01*
X85460000Y-86810000D02*
X85120000Y-86810000D01*
X84849183Y-86810000D02*
X85120000Y-86810000D01*
X90390000Y-96280000D02*
X86891001Y-99778999D01*
X84004200Y-85965017D02*
X84849183Y-86810000D01*
X89611200Y-61384200D02*
X88761064Y-61384200D01*
X117408100Y-68680100D02*
X115973000Y-67245000D01*
X115973000Y-67245000D02*
X114110000Y-67245000D01*
X89611200Y-61384200D02*
X89611200Y-57093200D01*
X109670000Y-67245000D02*
X114110000Y-67245000D01*
X109646000Y-67269000D02*
X109670000Y-67245000D01*
X87567632Y-62577632D02*
X87567632Y-79787632D01*
X87567632Y-79787632D02*
X84004200Y-83351064D01*
X88761064Y-61384200D02*
X87567632Y-62577632D01*
X84004200Y-83351064D02*
X84004200Y-85965017D01*
X87647000Y-55129000D02*
X84859000Y-55129000D01*
X86891001Y-120858999D02*
X84010000Y-123740000D01*
X109266000Y-67269000D02*
X103381200Y-61384200D01*
X89611200Y-57093200D02*
X87647000Y-55129000D01*
X87990000Y-89340000D02*
X85460000Y-86810000D01*
X90390000Y-96230000D02*
X90390000Y-96280000D01*
X86891001Y-99778999D02*
X86891001Y-120858999D01*
X103381200Y-61384200D02*
X89611200Y-61384200D01*
X109646000Y-67269000D02*
X109266000Y-67269000D01*
%TO.N,/Power/OUT0*%
X89080000Y-92680000D02*
X89080000Y-88900000D01*
X88456400Y-88276400D02*
X88456400Y-76583600D01*
X88456400Y-76583600D02*
X89730000Y-75310000D01*
X91440000Y-95040000D02*
X89080000Y-92680000D01*
X89080000Y-88900000D02*
X88456400Y-88276400D01*
%TO.N,Net-(Q2-Pad4)*%
X102700000Y-75260000D02*
X102080000Y-75880000D01*
X102080000Y-75880000D02*
X102080000Y-82442000D01*
X102080000Y-82442000D02*
X101710600Y-82811400D01*
%TO.N,Net-(C2-Pad2)*%
X112300000Y-113840000D02*
X114980000Y-111160000D01*
X109624600Y-113840000D02*
X112300000Y-113840000D01*
X114980000Y-111160000D02*
X115070000Y-111160000D01*
%TO.N,Net-(C3-Pad2)*%
X110850000Y-113370000D02*
X112530000Y-111690000D01*
X109634600Y-113370000D02*
X110850000Y-113370000D01*
X109624600Y-113360000D02*
X109634600Y-113370000D01*
X112530000Y-111690000D02*
X112530000Y-107800000D01*
%TO.N,Net-(C6-Pad2)*%
X110540000Y-112880000D02*
X111250000Y-112170000D01*
X111250000Y-112170000D02*
X111250000Y-106010000D01*
X109624600Y-112880000D02*
X110540000Y-112880000D01*
%TO.N,Net-(C12-Pad2)*%
X100680000Y-112880000D02*
X100180000Y-112380000D01*
X100180000Y-112380000D02*
X100180000Y-106040000D01*
X101755400Y-112880000D02*
X100680000Y-112880000D01*
%TO.N,Net-(C15-Pad2)*%
X100450000Y-113360000D02*
X98850000Y-111760000D01*
X98850000Y-111760000D02*
X98850000Y-107880000D01*
X101755400Y-113360000D02*
X100450000Y-113360000D01*
%TO.N,Net-(C17-Pad2)*%
X101755400Y-113840000D02*
X98890000Y-113840000D01*
X98890000Y-113840000D02*
X96130000Y-111080000D01*
X96130000Y-111080000D02*
X96130000Y-110920000D01*
%TO.N,Net-(C42-Pad1)*%
X95368800Y-73683600D02*
X95368800Y-71183600D01*
X95958800Y-74273600D02*
X95368800Y-73683600D01*
%TO.N,Net-(IC1-Pad4)*%
X114720000Y-114320000D02*
X119810000Y-109230000D01*
X119810000Y-109230000D02*
X119820000Y-109230000D01*
X109624600Y-114320000D02*
X114720000Y-114320000D01*
%TO.N,Net-(IC1-Pad5)*%
X116610000Y-114800000D02*
X119780000Y-111630000D01*
X109624600Y-114800000D02*
X116610000Y-114800000D01*
%TO.N,Net-(IC1-Pad6)*%
X118570000Y-115280000D02*
X119790000Y-114060000D01*
X109624600Y-115280000D02*
X118570000Y-115280000D01*
%TO.N,Net-(IC1-Pad10)*%
X111950000Y-117200000D02*
X109624600Y-117200000D01*
X111950000Y-117200000D02*
X112630000Y-117880000D01*
X112630000Y-117880000D02*
X114800000Y-117880000D01*
%TO.N,Net-(IC1-Pad11)*%
X109624600Y-117680000D02*
X111790000Y-117680000D01*
X113350000Y-119240000D02*
X114680000Y-119240000D01*
X111790000Y-117680000D02*
X113350000Y-119240000D01*
X114680000Y-119240000D02*
X114690000Y-119230000D01*
%TO.N,Net-(IC1-Pad20)*%
X92380000Y-125970000D02*
X99710000Y-118640000D01*
X99710000Y-118640000D02*
X101755400Y-118640000D01*
X89540000Y-125970000D02*
X92380000Y-125970000D01*
%TO.N,Net-(IC1-Pad25)*%
X97500000Y-116660000D02*
X97920000Y-116240000D01*
X97920000Y-116240000D02*
X101755400Y-116240000D01*
%TO.N,Net-(IC1-Pad26)*%
X101755400Y-115760000D02*
X96378900Y-115760000D01*
X96378900Y-115760000D02*
X96180000Y-115958900D01*
%TO.N,Net-(IC1-Pad27)*%
X95700000Y-115280000D02*
X95280000Y-115700000D01*
X101755400Y-115280000D02*
X95700000Y-115280000D01*
X95280000Y-119590000D02*
X96360000Y-120670000D01*
X95280000Y-115700000D02*
X95280000Y-119590000D01*
%TO.N,Net-(IC1-Pad28)*%
X96700000Y-114800000D02*
X101755400Y-114800000D01*
X94099000Y-112195000D02*
X94099000Y-112199000D01*
X94099000Y-112199000D02*
X96700000Y-114800000D01*
%TO.N,Net-(IC1-Pad29)*%
X95116000Y-111529000D02*
X97907000Y-114320000D01*
X97907000Y-114320000D02*
X101755400Y-114320000D01*
%TO.N,/BI*%
X117717100Y-76139000D02*
X117713100Y-76135000D01*
X117713100Y-76135000D02*
X114110000Y-76135000D01*
%TO.N,/ESP32/P_TX*%
X128060000Y-64210000D02*
X128060000Y-61549000D01*
X128060000Y-58525000D02*
X128060000Y-61549000D01*
X128230000Y-58355000D02*
X128060000Y-58525000D01*
%TO.N,/ESP32/P_RX*%
X126790000Y-64210000D02*
X126790000Y-61478000D01*
X124520000Y-61478000D02*
X124447000Y-61551000D01*
X126790000Y-61478000D02*
X124520000Y-61478000D01*
X126790000Y-61478000D02*
X126790000Y-58525000D01*
X126790000Y-58525000D02*
X126960000Y-58355000D01*
%TO.N,/ESP32/IO0*%
X126830000Y-56955000D02*
X126960000Y-57085000D01*
X122113000Y-68573000D02*
X121540700Y-68000700D01*
X117843700Y-68000700D02*
X116965817Y-67122817D01*
X116965817Y-66474000D02*
X115360000Y-64868183D01*
X121540700Y-68000700D02*
X117843700Y-68000700D01*
X126310000Y-55100000D02*
X126830000Y-55620000D01*
X115360000Y-64868183D02*
X115360000Y-64210000D01*
X124830000Y-55100000D02*
X126310000Y-55100000D01*
X126830000Y-55620000D02*
X126830000Y-56955000D01*
X116965817Y-67122817D02*
X116965817Y-66474000D01*
%TO.N,/ESP32/XIN32*%
X122980000Y-81119000D02*
X124019000Y-80080000D01*
X122980000Y-81710000D02*
X122980000Y-81119000D01*
%TO.N,/BM1397/CLKI*%
X116623000Y-80532000D02*
X116630000Y-80539000D01*
X117264000Y-79858000D02*
X116623000Y-80499000D01*
X116630000Y-80539000D02*
X116630000Y-81710000D01*
X116623000Y-80499000D02*
X116623000Y-80532000D01*
%TO.N,Net-(R21-Pad2)*%
X97500000Y-54210000D02*
X98740194Y-54209999D01*
%TO.N,/ESP32/XOUT32*%
X121710000Y-81710000D02*
X121710000Y-80562000D01*
X121710000Y-80562000D02*
X121248000Y-80100000D01*
%TO.N,/Power/PGOOD*%
X109615000Y-74865000D02*
X108278900Y-73528900D01*
X114110000Y-74865000D02*
X109615000Y-74865000D01*
X108278900Y-73528900D02*
X108278900Y-71440000D01*
%TO.N,Net-(R23-Pad2)*%
X125930000Y-103070000D02*
X130950000Y-103070000D01*
X123090000Y-120930000D02*
X123090000Y-105910000D01*
X121951600Y-121779400D02*
X122240600Y-121779400D01*
X122240600Y-121779400D02*
X123090000Y-120930000D01*
X121875000Y-121856000D02*
X121951600Y-121779400D01*
X123090000Y-105910000D02*
X125930000Y-103070000D01*
%TO.N,Net-(R22-Pad2)*%
X108340000Y-54180000D02*
X109574047Y-54179999D01*
%TO.N,/ESP32/LEDX_B*%
X119170000Y-60650000D02*
X119170000Y-64210000D01*
X93950000Y-57520000D02*
X96147200Y-59717200D01*
X96147200Y-59717200D02*
X118237200Y-59717200D01*
X118237200Y-59717200D02*
X119170000Y-60650000D01*
%TO.N,Net-(R26-Pad2)*%
X97520000Y-55200000D02*
X98730194Y-55200000D01*
X98730194Y-55200000D02*
X98740194Y-55210000D01*
%TO.N,/ESP32/FAN_ALERT*%
X120545817Y-96825000D02*
X111448000Y-96825000D01*
X110193000Y-85328200D02*
X111108000Y-84413200D01*
X110833000Y-73588000D02*
X114103000Y-73588000D01*
X122632800Y-119984200D02*
X122632800Y-98911983D01*
X121867000Y-120750000D02*
X122632800Y-119984200D01*
X110497000Y-73924000D02*
X110833000Y-73588000D01*
X110193000Y-95570000D02*
X110193000Y-85328200D01*
X122632800Y-98911983D02*
X120545817Y-96825000D01*
X111448000Y-96825000D02*
X110193000Y-95570000D01*
X114103000Y-73588000D02*
X114110000Y-73595000D01*
X111108000Y-84413200D02*
X111108000Y-81876000D01*
%TO.N,/ESP32/LEDZ_B*%
X125272000Y-79918000D02*
X124250000Y-80940000D01*
X127918000Y-72643000D02*
X127918000Y-77938000D01*
X127091000Y-71816000D02*
X127918000Y-72643000D01*
X117734000Y-71816000D02*
X127091000Y-71816000D01*
X124250000Y-80940000D02*
X124250000Y-81710000D01*
X116044000Y-70126000D02*
X117734000Y-71816000D01*
X125938000Y-79918000D02*
X125272000Y-79918000D01*
X127918000Y-77938000D02*
X125938000Y-79918000D01*
%TO.N,Net-(R27-Pad2)*%
X108320000Y-55170000D02*
X109564047Y-55170000D01*
X109564047Y-55170000D02*
X109574047Y-55180000D01*
%TO.N,/ESP32/LEDX_G*%
X94129945Y-58660055D02*
X95599890Y-60130000D01*
X117290000Y-60130000D02*
X117900000Y-60740000D01*
X95599890Y-60130000D02*
X117290000Y-60130000D01*
X117900000Y-60740000D02*
X117900000Y-64210000D01*
%TO.N,Net-(R28-Pad2)*%
X98720195Y-56230000D02*
X98740194Y-56210001D01*
X97540000Y-56230000D02*
X98720195Y-56230000D01*
%TO.N,/ESP32/LEDZ_G*%
X125520000Y-80910736D02*
X125520000Y-81710000D01*
X127259336Y-71409600D02*
X128324400Y-72474664D01*
X117097000Y-70138000D02*
X118368600Y-71409600D01*
X128324400Y-72474664D02*
X128324400Y-78106336D01*
X118368600Y-71409600D02*
X127259336Y-71409600D01*
X128324400Y-78106336D02*
X125520000Y-80910736D01*
%TO.N,Net-(R29-Pad2)*%
X108310000Y-56190000D02*
X109564048Y-56190000D01*
X109564048Y-56190000D02*
X109574047Y-56180001D01*
%TO.N,/BM1397/BM_BI*%
X115979183Y-115860000D02*
X115599183Y-116240000D01*
X109634600Y-116230000D02*
X109624600Y-116240000D01*
X119840000Y-115860000D02*
X115979183Y-115860000D01*
X120490000Y-100430000D02*
X120690000Y-100630000D01*
X120690000Y-100630000D02*
X120690000Y-115010000D01*
X120690000Y-115010000D02*
X119840000Y-115860000D01*
X109624600Y-116240000D02*
X115599183Y-116240000D01*
%TO.N,/SDA*%
X84410600Y-85410600D02*
X84410600Y-83519400D01*
X117403141Y-73987441D02*
X115322000Y-71906300D01*
X84410600Y-83519400D02*
X88050000Y-79880000D01*
X102959600Y-61790600D02*
X107600000Y-66431000D01*
X114110000Y-68515000D02*
X108256000Y-68515000D01*
X114913000Y-68515000D02*
X114110000Y-68515000D01*
X87570401Y-100249599D02*
X87570401Y-121525207D01*
X90357445Y-62412445D02*
X90357445Y-61868445D01*
X88500000Y-89140000D02*
X85090000Y-85730000D01*
X87570401Y-121525207D02*
X84702648Y-124392960D01*
X90357445Y-61868445D02*
X90279600Y-61790600D01*
X84730000Y-85730000D02*
X84410600Y-85410600D01*
X108256000Y-68515000D02*
X108222000Y-68481000D01*
X91500000Y-96320000D02*
X87570401Y-100249599D01*
X115322000Y-68924000D02*
X114913000Y-68515000D01*
X88050000Y-79880000D02*
X88050000Y-62670000D01*
X115322000Y-71906300D02*
X115322000Y-68924000D01*
X85090000Y-85730000D02*
X84730000Y-85730000D01*
X88929400Y-61790600D02*
X90279600Y-61790600D01*
X107600000Y-66431000D02*
X107600000Y-67859000D01*
X90279600Y-61790600D02*
X102959600Y-61790600D01*
X107600000Y-67859000D02*
X108222000Y-68481000D01*
X88050000Y-62670000D02*
X88929400Y-61790600D01*
X91500000Y-96290000D02*
X91500000Y-96240000D01*
X91500000Y-96240000D02*
X88500000Y-93240000D01*
X88500000Y-93240000D02*
X88500000Y-89140000D01*
X91500000Y-96290000D02*
X91500000Y-96320000D01*
%TO.N,Net-(U12-Pad15)*%
X114110000Y-79945000D02*
X112718000Y-79945000D01*
X112718000Y-79945000D02*
X112273000Y-80390000D01*
%TO.N,/BM1397/BM_CLKI*%
X114720000Y-121260000D02*
X111620000Y-118160000D01*
X111620000Y-118160000D02*
X109624600Y-118160000D01*
X114720000Y-121640000D02*
X114720000Y-121260000D01*
%TO.N,/ESP32/LEDX_R*%
X94319890Y-59810110D02*
X95046180Y-60536400D01*
X95046180Y-60536400D02*
X115770000Y-60536400D01*
X115770000Y-60536400D02*
X116630000Y-61396400D01*
X116630000Y-61396400D02*
X116630000Y-64210000D01*
%TO.N,/ESP32/LEDZ_R*%
X128730800Y-72306328D02*
X128730800Y-78274672D01*
X118065584Y-70146474D02*
X118922310Y-71003200D01*
X127427672Y-71003200D02*
X128730800Y-72306328D01*
X128730800Y-78274672D02*
X126790000Y-80215472D01*
X126790000Y-80215472D02*
X126790000Y-81710000D01*
X118922310Y-71003200D02*
X127427672Y-71003200D01*
%TO.N,/ESP32/MTCK*%
X125236000Y-83472000D02*
X125624000Y-83860000D01*
X129050000Y-84977000D02*
X129602000Y-84977000D01*
X129602000Y-84977000D02*
X130015000Y-85390000D01*
X127256267Y-68475562D02*
X125095562Y-68475562D01*
X121710000Y-65090000D02*
X121710000Y-64210000D01*
X127933000Y-83860000D02*
X129050000Y-84977000D01*
X130015000Y-85390000D02*
X130015000Y-87326000D01*
X125624000Y-83860000D02*
X127933000Y-83860000D01*
X125095562Y-68475562D02*
X121710000Y-65090000D01*
%TO.N,/ESP32/MTDO*%
X128745000Y-85476000D02*
X128745000Y-87326000D01*
X127620000Y-84351000D02*
X128745000Y-85476000D01*
X125009764Y-67421764D02*
X127188198Y-67421764D01*
X122980000Y-64210000D02*
X122980000Y-65392000D01*
X124752000Y-84351000D02*
X127620000Y-84351000D01*
X124253000Y-83852000D02*
X124752000Y-84351000D01*
X127188198Y-67421764D02*
X127290717Y-67524283D01*
X122980000Y-65392000D02*
X125009764Y-67421764D01*
%TO.N,/ESP32/MTDI*%
X125412756Y-66543756D02*
X124250000Y-65381000D01*
X127270301Y-66543756D02*
X125412756Y-66543756D01*
X126700400Y-84757400D02*
X127475000Y-85532000D01*
X127475000Y-85532000D02*
X127475000Y-87326000D01*
X124382800Y-85168000D02*
X124793400Y-84757400D01*
X124253000Y-85168000D02*
X124382800Y-85168000D01*
X124250000Y-65381000D02*
X124250000Y-64210000D01*
X124793400Y-84757400D02*
X126700400Y-84757400D01*
%TO.N,/ESP32/MTMS*%
X131133000Y-84822000D02*
X131285000Y-84974000D01*
X131285000Y-84974000D02*
X131285000Y-87326000D01*
X125520000Y-65287000D02*
X125520000Y-64210000D01*
X127287000Y-65592000D02*
X125825000Y-65592000D01*
X125825000Y-65592000D02*
X125520000Y-65287000D01*
%TD*%
%TA.AperFunction,Conductor*%
%TO.N,GND*%
G36*
X105468945Y-68608062D02*
G01*
X105515044Y-68653344D01*
X105532635Y-68715521D01*
X105587982Y-72090776D01*
X105576353Y-72145749D01*
X105541983Y-72190200D01*
X101741439Y-75312494D01*
X101741436Y-75312497D01*
X101730600Y-75321400D01*
X101730658Y-75335427D01*
X101730658Y-75335429D01*
X101758932Y-82136342D01*
X101744857Y-82194736D01*
X101705347Y-82239979D01*
X101649380Y-82261788D01*
X101574449Y-82271653D01*
X101574445Y-82271653D01*
X101566264Y-82272731D01*
X101558645Y-82275886D01*
X101558637Y-82275889D01*
X101439393Y-82325283D01*
X101439390Y-82325284D01*
X101431765Y-82328443D01*
X101425220Y-82333464D01*
X101425213Y-82333469D01*
X101322812Y-82412044D01*
X101322808Y-82412047D01*
X101316267Y-82417067D01*
X101311247Y-82423608D01*
X101311244Y-82423612D01*
X101232669Y-82526013D01*
X101232664Y-82526020D01*
X101227643Y-82532565D01*
X101224484Y-82540190D01*
X101224483Y-82540193D01*
X101175089Y-82659437D01*
X101175086Y-82659445D01*
X101171931Y-82667064D01*
X101152929Y-82811400D01*
X101154007Y-82819588D01*
X101170852Y-82947547D01*
X101170853Y-82947553D01*
X101171931Y-82955736D01*
X101175090Y-82963364D01*
X101175091Y-82963365D01*
X101224482Y-83082606D01*
X101224483Y-83082609D01*
X101227643Y-83090236D01*
X101316267Y-83205733D01*
X101431764Y-83294357D01*
X101566264Y-83350069D01*
X101654990Y-83361749D01*
X101710670Y-83383357D01*
X101750144Y-83428181D01*
X101764542Y-83486147D01*
X101809470Y-94292615D01*
X101792622Y-94356083D01*
X101746129Y-94402455D01*
X101682617Y-94419136D01*
X94765614Y-94372247D01*
X94703014Y-94355106D01*
X94657251Y-94309080D01*
X94640468Y-94246385D01*
X94620600Y-75311400D01*
X92300399Y-72576525D01*
X92278253Y-72538581D01*
X92270482Y-72495340D01*
X92267144Y-71183600D01*
X94811129Y-71183600D01*
X94812207Y-71191788D01*
X94829052Y-71319747D01*
X94829053Y-71319753D01*
X94830131Y-71327936D01*
X94833290Y-71335564D01*
X94833291Y-71335565D01*
X94882682Y-71454806D01*
X94882683Y-71454809D01*
X94885843Y-71462436D01*
X94974467Y-71577933D01*
X95039605Y-71627916D01*
X95075906Y-71672149D01*
X95088900Y-71727877D01*
X95088900Y-73635857D01*
X95088717Y-73638485D01*
X95086782Y-73644260D01*
X95087321Y-73655921D01*
X95087321Y-73655923D01*
X95088766Y-73687172D01*
X95088900Y-73692991D01*
X95088900Y-73709535D01*
X95089937Y-73715087D01*
X95090293Y-73720214D01*
X95091075Y-73737131D01*
X95091075Y-73737134D01*
X95091615Y-73748793D01*
X95096329Y-73759471D01*
X95098194Y-73767398D01*
X95101134Y-73774987D01*
X95103280Y-73786463D01*
X95115995Y-73806998D01*
X95124128Y-73822428D01*
X95133884Y-73844522D01*
X95142140Y-73852778D01*
X95146738Y-73859490D01*
X95152221Y-73865504D01*
X95158369Y-73875433D01*
X95172113Y-73885812D01*
X95177639Y-73889985D01*
X95190802Y-73901440D01*
X95376018Y-74086656D01*
X95406236Y-74135249D01*
X95411845Y-74192196D01*
X95401129Y-74273600D01*
X95402207Y-74281788D01*
X95419052Y-74409747D01*
X95419053Y-74409753D01*
X95420131Y-74417936D01*
X95423290Y-74425564D01*
X95423291Y-74425565D01*
X95472682Y-74544806D01*
X95472683Y-74544809D01*
X95475843Y-74552436D01*
X95564467Y-74667933D01*
X95679964Y-74756557D01*
X95814464Y-74812269D01*
X95958800Y-74831271D01*
X96103136Y-74812269D01*
X96237636Y-74756557D01*
X96353133Y-74667933D01*
X96441757Y-74552436D01*
X96497469Y-74417936D01*
X96516471Y-74273600D01*
X96497469Y-74129264D01*
X96441757Y-73994765D01*
X96353133Y-73879267D01*
X96307852Y-73844522D01*
X96244186Y-73795669D01*
X96237636Y-73790643D01*
X96230009Y-73787483D01*
X96230006Y-73787482D01*
X96110765Y-73738091D01*
X96110764Y-73738090D01*
X96103136Y-73734931D01*
X96094953Y-73733853D01*
X96094947Y-73733852D01*
X95966988Y-73717007D01*
X95958800Y-73715929D01*
X95950611Y-73717007D01*
X95877396Y-73726645D01*
X95820449Y-73721036D01*
X95771856Y-73690818D01*
X95685605Y-73604567D01*
X95658291Y-73563690D01*
X95648700Y-73515472D01*
X95648700Y-71727877D01*
X95661694Y-71672149D01*
X95697994Y-71627916D01*
X95763133Y-71577933D01*
X95851757Y-71462436D01*
X95907469Y-71327936D01*
X95926471Y-71183600D01*
X95907469Y-71039264D01*
X95851757Y-70904765D01*
X95763133Y-70789267D01*
X95647636Y-70700643D01*
X95640009Y-70697483D01*
X95640006Y-70697482D01*
X95520765Y-70648091D01*
X95520764Y-70648090D01*
X95513136Y-70644931D01*
X95504953Y-70643853D01*
X95504947Y-70643852D01*
X95376988Y-70627007D01*
X95368800Y-70625929D01*
X95360612Y-70627007D01*
X95232649Y-70643853D01*
X95232645Y-70643853D01*
X95224464Y-70644931D01*
X95216845Y-70648086D01*
X95216837Y-70648089D01*
X95097593Y-70697483D01*
X95097590Y-70697484D01*
X95089965Y-70700643D01*
X95083420Y-70705664D01*
X95083413Y-70705669D01*
X94981012Y-70784244D01*
X94981008Y-70784247D01*
X94974467Y-70789267D01*
X94969447Y-70795808D01*
X94969444Y-70795812D01*
X94890869Y-70898213D01*
X94890864Y-70898220D01*
X94885843Y-70904765D01*
X94882684Y-70912390D01*
X94882683Y-70912393D01*
X94833289Y-71031637D01*
X94833286Y-71031645D01*
X94830131Y-71039264D01*
X94811129Y-71183600D01*
X92267144Y-71183600D01*
X92260920Y-68737526D01*
X92277663Y-68674449D01*
X92323718Y-68628207D01*
X92386726Y-68611209D01*
X105406462Y-68591587D01*
X105468945Y-68608062D01*
G37*
%TD.AperFunction*%
%TD*%
%TA.AperFunction,Conductor*%
%TO.N,/VDD*%
G36*
X108795953Y-86278077D02*
G01*
X108858124Y-86295600D01*
X108903443Y-86341627D01*
X108920000Y-86404062D01*
X108920000Y-112327363D01*
X108910409Y-112375581D01*
X108883095Y-112416458D01*
X108822699Y-112476853D01*
X108822695Y-112476857D01*
X108817094Y-112482459D01*
X108813062Y-112489275D01*
X108813060Y-112489279D01*
X108738365Y-112615581D01*
X108738362Y-112615587D01*
X108734331Y-112622404D01*
X108732119Y-112630015D01*
X108732119Y-112630017D01*
X108690765Y-112772356D01*
X108690763Y-112772364D01*
X108688971Y-112778534D01*
X108688466Y-112784939D01*
X108688466Y-112784944D01*
X108686294Y-112812549D01*
X108686100Y-112815011D01*
X108686100Y-112817478D01*
X108686100Y-112817479D01*
X108686100Y-112942516D01*
X108686100Y-112942540D01*
X108686101Y-112944988D01*
X108686293Y-112947432D01*
X108686294Y-112947450D01*
X108688465Y-112975045D01*
X108688466Y-112975052D01*
X108688971Y-112981466D01*
X108690767Y-112987648D01*
X108690768Y-112987653D01*
X108719005Y-113084847D01*
X108719005Y-113155150D01*
X108690767Y-113252349D01*
X108690765Y-113252357D01*
X108688971Y-113258534D01*
X108686100Y-113295011D01*
X108686100Y-113297478D01*
X108686100Y-113297479D01*
X108686100Y-113422516D01*
X108686100Y-113422540D01*
X108686101Y-113424988D01*
X108686293Y-113427432D01*
X108686294Y-113427450D01*
X108688465Y-113455045D01*
X108688466Y-113455052D01*
X108688971Y-113461466D01*
X108690767Y-113467648D01*
X108690768Y-113467653D01*
X108719005Y-113564848D01*
X108719005Y-113635152D01*
X108690766Y-113732352D01*
X108690764Y-113732361D01*
X108688971Y-113738534D01*
X108686100Y-113775011D01*
X108686100Y-113777478D01*
X108686100Y-113777479D01*
X108686100Y-113902516D01*
X108686100Y-113902540D01*
X108686101Y-113904988D01*
X108686293Y-113907432D01*
X108686294Y-113907450D01*
X108688465Y-113935045D01*
X108688466Y-113935052D01*
X108688971Y-113941466D01*
X108690767Y-113947648D01*
X108690768Y-113947653D01*
X108719005Y-114044847D01*
X108719005Y-114115150D01*
X108690767Y-114212349D01*
X108690765Y-114212356D01*
X108688971Y-114218534D01*
X108686100Y-114255011D01*
X108686100Y-114257481D01*
X108686043Y-114258936D01*
X108667576Y-114319829D01*
X108621709Y-114363933D01*
X108560140Y-114380000D01*
X102819859Y-114380000D01*
X102758290Y-114363933D01*
X102712424Y-114319830D01*
X102693956Y-114258939D01*
X102693899Y-114257488D01*
X102693899Y-114255012D01*
X102691029Y-114218534D01*
X102660993Y-114115149D01*
X102660993Y-114044849D01*
X102691029Y-113941466D01*
X102693900Y-113904989D01*
X102693899Y-113775012D01*
X102691029Y-113738534D01*
X102660993Y-113635149D01*
X102660993Y-113564848D01*
X102691029Y-113461466D01*
X102693900Y-113424989D01*
X102693899Y-113295012D01*
X102691029Y-113258534D01*
X102660993Y-113155150D01*
X102660993Y-113084850D01*
X102691029Y-112981466D01*
X102693900Y-112944989D01*
X102693899Y-112815012D01*
X102691029Y-112778534D01*
X102645669Y-112622404D01*
X102562906Y-112482459D01*
X102506905Y-112426458D01*
X102479591Y-112385581D01*
X102470000Y-112337363D01*
X102470000Y-86307969D01*
X102487208Y-86244406D01*
X102534131Y-86198205D01*
X102597953Y-86181984D01*
X108795953Y-86278077D01*
G37*
%TD.AperFunction*%
%TD*%
M02*
