%TF.GenerationSoftware,KiCad,Pcbnew,(6.0.0-0)*%
%TF.CreationDate,2022-03-04T22:46:30-08:00*%
%TF.ProjectId,bitaxe,62697461-7865-42e6-9b69-6361645f7063,rev?*%
%TF.SameCoordinates,Original*%
%TF.FileFunction,Copper,L3,Inr*%
%TF.FilePolarity,Positive*%
%FSLAX46Y46*%
G04 Gerber Fmt 4.6, Leading zero omitted, Abs format (unit mm)*
G04 Created by KiCad (PCBNEW (6.0.0-0)) date 2022-03-04 22:46:30*
%MOMM*%
%LPD*%
G01*
G04 APERTURE LIST*
%TA.AperFunction,ComponentPad*%
%ADD10R,1.700000X1.700000*%
%TD*%
%TA.AperFunction,ComponentPad*%
%ADD11O,1.700000X1.700000*%
%TD*%
%TA.AperFunction,ViaPad*%
%ADD12C,0.800000*%
%TD*%
%TA.AperFunction,ViaPad*%
%ADD13C,1.000000*%
%TD*%
%TA.AperFunction,Conductor*%
%ADD14C,1.000000*%
%TD*%
G04 APERTURE END LIST*
D10*
%TO.N,/1V8_2*%
%TO.C,J3*%
X74960000Y-104860000D03*
D11*
%TO.N,/CI*%
X77500000Y-104860000D03*
%TO.N,/RO*%
X80040000Y-104860000D03*
%TO.N,/RST_N*%
X82580000Y-104860000D03*
%TO.N,GND*%
X85120000Y-104860000D03*
%TD*%
D10*
%TO.N,GND*%
%TO.C,J4*%
X104850000Y-52790000D03*
D11*
%TO.N,/5V*%
X107390000Y-52790000D03*
%TD*%
D10*
%TO.N,GND*%
%TO.C,J2*%
X87990000Y-52780000D03*
D11*
%TO.N,/VIN*%
X90530000Y-52780000D03*
%TD*%
D10*
%TO.N,GND*%
%TO.C,J5*%
X63610000Y-89540000D03*
D11*
%TO.N,/5V*%
X63610000Y-92080000D03*
%TO.N,/PWM*%
X63610000Y-94620000D03*
%TD*%
D12*
%TO.N,/0V8_1*%
X99520000Y-65860000D03*
%TO.N,Net-(IC1-Pad16)*%
X107660000Y-75920000D03*
%TO.N,Net-(IC1-Pad15)*%
X112950000Y-76540000D03*
%TO.N,Net-(IC2-Pad15)*%
X101450000Y-95110000D03*
%TO.N,Net-(IC2-Pad16)*%
X97910000Y-94900000D03*
%TO.N,/A*%
X82640000Y-70780000D03*
%TO.N,GND*%
X69470000Y-85250000D03*
D13*
X80300000Y-80560000D03*
X75910000Y-88290000D03*
X99070000Y-78830000D03*
X105850000Y-80960000D03*
X106290000Y-92260000D03*
%TO.N,/1V8_1*%
X104720000Y-69430000D03*
X101650000Y-64360000D03*
%TO.N,/A*%
X106220000Y-75610000D03*
D12*
%TO.N,GND*%
X89380000Y-98730000D03*
%TO.N,/A*%
X61440000Y-70480000D03*
%TO.N,Net-(IC1-Pad20)*%
X66980000Y-74456667D03*
%TO.N,Net-(IC1-Pad21)*%
X66980000Y-71766667D03*
%TO.N,Net-(IC1-Pad22)*%
X66960000Y-69176667D03*
%TO.N,Net-(IC1-Pad23)*%
X66940000Y-66496667D03*
%TO.N,Net-(IC2-Pad20)*%
X93290000Y-94580000D03*
%TO.N,Net-(IC2-Pad21)*%
X89700000Y-94340000D03*
%TO.N,Net-(IC2-Pad22)*%
X85970000Y-95150000D03*
%TO.N,Net-(IC2-Pad23)*%
X81990000Y-95280000D03*
%TO.N,GND*%
X83160000Y-88210000D03*
%TO.N,/0V8_2*%
X102020000Y-81400000D03*
%TO.N,GND*%
X97900000Y-84060000D03*
%TO.N,/A*%
X97930000Y-66310000D03*
D13*
X107950000Y-66510000D03*
%TO.N,GND*%
X112020000Y-85090000D03*
X108060000Y-88040000D03*
%TO.N,/A*%
X112200000Y-66580000D03*
X108730000Y-68440000D03*
D12*
%TO.N,/VIN*%
X91800000Y-64570000D03*
X87990000Y-64570000D03*
X86780000Y-64570000D03*
X90500000Y-64570000D03*
X89250000Y-64570000D03*
%TO.N,/A*%
X86710000Y-66700000D03*
X87990000Y-82050000D03*
X91800000Y-82050000D03*
X86710000Y-70870000D03*
X86710000Y-69280000D03*
X89245000Y-70870000D03*
X91780000Y-66700000D03*
X89250000Y-82050000D03*
X91780000Y-70870000D03*
X87997500Y-67930000D03*
X89265000Y-67930000D03*
X87977500Y-70870000D03*
X90512500Y-66700000D03*
X86740000Y-82050000D03*
X86730000Y-67930000D03*
X90512500Y-70870000D03*
X90512500Y-69280000D03*
X87977500Y-66700000D03*
X89245000Y-69280000D03*
X91800000Y-67930000D03*
X90500000Y-82050000D03*
X90532500Y-67930000D03*
X89245000Y-66700000D03*
X87977500Y-69280000D03*
X91780000Y-69280000D03*
%TO.N,GND*%
X86750000Y-85580000D03*
X89290000Y-84310000D03*
X86750000Y-86800000D03*
X91820000Y-85580000D03*
X91820000Y-86800000D03*
X90510000Y-86800000D03*
X86760000Y-84310000D03*
X91850000Y-88210000D03*
X89280000Y-85580000D03*
X88000000Y-85580000D03*
X90540000Y-88210000D03*
X89280000Y-86800000D03*
X90520000Y-84310000D03*
X90510000Y-85580000D03*
X89310000Y-88210000D03*
X91830000Y-84310000D03*
X86780000Y-88210000D03*
X88000000Y-86800000D03*
X88010000Y-84310000D03*
X88030000Y-88210000D03*
%TO.N,Net-(C8-Pad1)*%
X81390000Y-85120000D03*
%TO.N,Net-(C11-Pad1)*%
X80290000Y-87390000D03*
%TO.N,/CI*%
X77510000Y-98010000D03*
%TO.N,/RST_N*%
X69510000Y-82170000D03*
D13*
%TO.N,/5V*%
X112020000Y-87170000D03*
X112530000Y-68180000D03*
D12*
%TO.N,Net-(IC1-Pad3)*%
X98540000Y-61260000D03*
%TO.N,Net-(IC1-Pad4)*%
X98560000Y-62960000D03*
%TO.N,Net-(C3-Pad1)*%
X73140000Y-70480000D03*
%TO.N,Net-(IC1-Pad25)*%
X76150000Y-69070000D03*
%TO.N,Net-(IC1-Pad26)*%
X76120000Y-67410000D03*
%TO.N,Net-(IC1-Pad27)*%
X96860000Y-73820000D03*
X77950000Y-68280000D03*
%TO.N,Net-(IC1-Pad28)*%
X77950000Y-66700000D03*
X95800000Y-73640000D03*
%TO.N,Net-(IC1-Pad29)*%
X76120000Y-65850000D03*
%TO.N,Net-(IC1-Pad30)*%
X79200000Y-64840000D03*
X94660000Y-73530000D03*
%TO.N,Net-(IC1-Pad31)*%
X75520000Y-64250000D03*
%TO.N,Net-(IC1-Pad32)*%
X93480000Y-73230000D03*
X80790000Y-63200000D03*
%TO.N,Net-(IC2-Pad4)*%
X97410000Y-81300000D03*
%TO.N,Net-(IC2-Pad6)*%
X102120000Y-76340000D03*
%TO.N,Net-(IC2-Pad27)*%
X75730000Y-86870000D03*
%TO.N,Net-(IC2-Pad29)*%
X74000000Y-85250000D03*
%TO.N,Net-(IC2-Pad30)*%
X73960000Y-83690000D03*
%TO.N,Net-(IC2-Pad31)*%
X73980000Y-82100000D03*
%TO.N,Net-(IC2-Pad32)*%
X73980000Y-80530000D03*
%TO.N,Net-(IC1-Pad9)*%
X100550000Y-66400000D03*
%TO.N,Net-(IC1-Pad10)*%
X100550000Y-67910000D03*
%TO.N,Net-(IC1-Pad11)*%
X100550000Y-69400000D03*
%TO.N,Net-(IC1-Pad12)*%
X100550000Y-70910000D03*
%TO.N,Net-(IC1-Pad13)*%
X100550000Y-72400000D03*
%TO.N,Net-(IC1-Pad14)*%
X100550000Y-73910000D03*
%TO.N,Net-(IC2-Pad9)*%
X100350000Y-82770000D03*
%TO.N,Net-(IC2-Pad10)*%
X100330000Y-84280000D03*
%TO.N,Net-(IC2-Pad11)*%
X100360000Y-85790000D03*
%TO.N,Net-(IC2-Pad12)*%
X100340000Y-87300000D03*
%TO.N,Net-(IC2-Pad13)*%
X100340000Y-88820000D03*
%TO.N,Net-(IC2-Pad14)*%
X100350000Y-90330000D03*
%TD*%
D14*
%TO.N,/5V*%
X63610000Y-92080000D02*
X104840951Y-92080000D01*
X104840951Y-92080000D02*
X107729040Y-89191911D01*
X107729040Y-89191911D02*
X109998089Y-89191911D01*
X109998089Y-89191911D02*
X112020000Y-87170000D01*
%TD*%
%TA.AperFunction,Conductor*%
%TO.N,/A*%
G36*
X66027824Y-66060002D02*
G01*
X66074317Y-66113658D01*
X66084421Y-66183932D01*
X66079536Y-66204936D01*
X66046458Y-66306739D01*
X66026496Y-66496667D01*
X66046458Y-66686595D01*
X66105473Y-66868223D01*
X66108776Y-66873945D01*
X66108777Y-66873946D01*
X66114215Y-66883365D01*
X66200960Y-67033611D01*
X66205378Y-67038518D01*
X66205379Y-67038519D01*
X66321324Y-67167289D01*
X66328747Y-67175533D01*
X66399083Y-67226635D01*
X66471329Y-67279125D01*
X66483248Y-67287785D01*
X66489276Y-67290469D01*
X66489278Y-67290470D01*
X66591323Y-67335903D01*
X66657712Y-67365461D01*
X66751112Y-67385314D01*
X66838056Y-67403795D01*
X66838061Y-67403795D01*
X66844513Y-67405167D01*
X67035487Y-67405167D01*
X67041939Y-67403795D01*
X67041944Y-67403795D01*
X67128888Y-67385314D01*
X67222288Y-67365461D01*
X67288677Y-67335903D01*
X67390722Y-67290470D01*
X67390724Y-67290469D01*
X67396752Y-67287785D01*
X67408672Y-67279125D01*
X67480917Y-67226635D01*
X67551253Y-67175533D01*
X67558676Y-67167289D01*
X67674621Y-67038519D01*
X67674622Y-67038518D01*
X67679040Y-67033611D01*
X67765785Y-66883365D01*
X67771223Y-66873946D01*
X67771224Y-66873945D01*
X67774527Y-66868223D01*
X67833542Y-66686595D01*
X67853504Y-66496667D01*
X67833542Y-66306739D01*
X67800464Y-66204936D01*
X67798436Y-66133969D01*
X67835099Y-66073171D01*
X67898811Y-66041845D01*
X67920297Y-66040000D01*
X75134937Y-66040000D01*
X75203058Y-66060002D01*
X75249551Y-66113658D01*
X75254770Y-66127063D01*
X75281742Y-66210072D01*
X75285473Y-66221556D01*
X75288776Y-66227277D01*
X75294551Y-66237279D01*
X75380960Y-66386944D01*
X75385378Y-66391851D01*
X75385379Y-66391852D01*
X75394383Y-66401852D01*
X75508747Y-66528866D01*
X75514090Y-66532748D01*
X75518108Y-66536366D01*
X75555346Y-66596813D01*
X75553992Y-66667797D01*
X75518108Y-66723634D01*
X75514090Y-66727252D01*
X75508747Y-66731134D01*
X75504326Y-66736044D01*
X75397147Y-66855079D01*
X75380960Y-66873056D01*
X75347377Y-66931223D01*
X75291565Y-67027893D01*
X75285473Y-67038444D01*
X75226458Y-67220072D01*
X75225768Y-67226633D01*
X75225768Y-67226635D01*
X75224503Y-67238670D01*
X75206496Y-67410000D01*
X75226458Y-67599928D01*
X75285473Y-67781556D01*
X75380960Y-67946944D01*
X75385378Y-67951851D01*
X75385379Y-67951852D01*
X75504180Y-68083794D01*
X75508747Y-68088866D01*
X75580900Y-68141288D01*
X75591462Y-68148962D01*
X75634816Y-68205184D01*
X75640891Y-68275920D01*
X75607760Y-68338712D01*
X75591462Y-68352834D01*
X75538747Y-68391134D01*
X75534326Y-68396044D01*
X75534325Y-68396045D01*
X75444504Y-68495802D01*
X75410960Y-68533056D01*
X75379851Y-68586939D01*
X75346173Y-68645271D01*
X75315473Y-68698444D01*
X75256458Y-68880072D01*
X75255768Y-68886633D01*
X75255768Y-68886635D01*
X75247768Y-68962749D01*
X75236496Y-69070000D01*
X75237186Y-69076565D01*
X75252832Y-69225425D01*
X75256458Y-69259928D01*
X75315473Y-69441556D01*
X75410960Y-69606944D01*
X75415378Y-69611851D01*
X75415379Y-69611852D01*
X75484737Y-69688882D01*
X75538747Y-69748866D01*
X75613325Y-69803050D01*
X75678802Y-69850622D01*
X75693248Y-69861118D01*
X75699276Y-69863802D01*
X75699278Y-69863803D01*
X75850714Y-69931226D01*
X75867712Y-69938794D01*
X75961113Y-69958647D01*
X76048056Y-69977128D01*
X76048061Y-69977128D01*
X76054513Y-69978500D01*
X76245487Y-69978500D01*
X76251939Y-69977128D01*
X76251944Y-69977128D01*
X76338887Y-69958647D01*
X76432288Y-69938794D01*
X76449286Y-69931226D01*
X76600722Y-69863803D01*
X76600724Y-69863802D01*
X76606752Y-69861118D01*
X76621199Y-69850622D01*
X76686675Y-69803050D01*
X76761253Y-69748866D01*
X76815263Y-69688882D01*
X76884621Y-69611852D01*
X76884622Y-69611851D01*
X76889040Y-69606944D01*
X76984527Y-69441556D01*
X77043542Y-69259928D01*
X77047169Y-69225425D01*
X77062814Y-69076565D01*
X77063504Y-69070000D01*
X77054439Y-68983754D01*
X77067211Y-68913916D01*
X77115713Y-68862070D01*
X77184546Y-68844675D01*
X77251856Y-68867256D01*
X77273385Y-68886274D01*
X77338747Y-68958866D01*
X77368470Y-68980461D01*
X77482675Y-69063436D01*
X77493248Y-69071118D01*
X77499276Y-69073802D01*
X77499278Y-69073803D01*
X77617542Y-69126457D01*
X77667712Y-69148794D01*
X77757297Y-69167836D01*
X77848056Y-69187128D01*
X77848061Y-69187128D01*
X77854513Y-69188500D01*
X78045487Y-69188500D01*
X78051939Y-69187128D01*
X78051944Y-69187128D01*
X78142703Y-69167836D01*
X78232288Y-69148794D01*
X78282458Y-69126457D01*
X78400722Y-69073803D01*
X78400724Y-69073802D01*
X78406752Y-69071118D01*
X78417326Y-69063436D01*
X78531530Y-68980461D01*
X78561253Y-68958866D01*
X78628705Y-68883953D01*
X78684621Y-68821852D01*
X78684622Y-68821851D01*
X78689040Y-68816944D01*
X78753584Y-68705151D01*
X78781223Y-68657279D01*
X78781224Y-68657278D01*
X78784527Y-68651556D01*
X78843542Y-68469928D01*
X78846970Y-68437318D01*
X78862814Y-68286565D01*
X78862814Y-68286564D01*
X78863504Y-68280000D01*
X78843542Y-68090072D01*
X78784527Y-67908444D01*
X78689040Y-67743056D01*
X78674255Y-67726635D01*
X78565675Y-67606045D01*
X78565674Y-67606044D01*
X78561253Y-67601134D01*
X78548593Y-67591936D01*
X78505239Y-67535714D01*
X78499164Y-67464978D01*
X78532295Y-67402186D01*
X78548593Y-67388064D01*
X78555909Y-67382749D01*
X78555911Y-67382747D01*
X78561253Y-67378866D01*
X78573323Y-67365461D01*
X78684621Y-67241852D01*
X78684622Y-67241851D01*
X78689040Y-67236944D01*
X78784527Y-67071556D01*
X78843542Y-66889928D01*
X78844715Y-66878774D01*
X78862814Y-66706565D01*
X78862814Y-66706564D01*
X78863504Y-66700000D01*
X78858366Y-66651118D01*
X78844232Y-66516635D01*
X78844232Y-66516633D01*
X78843542Y-66510072D01*
X78784527Y-66328444D01*
X78727113Y-66229000D01*
X78710375Y-66160005D01*
X78733595Y-66092913D01*
X78789403Y-66049026D01*
X78836232Y-66040000D01*
X98531688Y-66040000D01*
X98599809Y-66060002D01*
X98646302Y-66113658D01*
X98651520Y-66127061D01*
X98685473Y-66231556D01*
X98780960Y-66396944D01*
X98785378Y-66401851D01*
X98785379Y-66401852D01*
X98899743Y-66528866D01*
X98908747Y-66538866D01*
X99063248Y-66651118D01*
X99069276Y-66653802D01*
X99069278Y-66653803D01*
X99226122Y-66723634D01*
X99237712Y-66728794D01*
X99331112Y-66748647D01*
X99418056Y-66767128D01*
X99418061Y-66767128D01*
X99424513Y-66768500D01*
X99615487Y-66768500D01*
X99621944Y-66767128D01*
X99626336Y-66766666D01*
X99696175Y-66779439D01*
X99748624Y-66828976D01*
X99771284Y-66868223D01*
X99810960Y-66936944D01*
X99815378Y-66941851D01*
X99815379Y-66941852D01*
X99931385Y-67070690D01*
X99962103Y-67134697D01*
X99953338Y-67205151D01*
X99931385Y-67239310D01*
X99816563Y-67366833D01*
X99810960Y-67373056D01*
X99715473Y-67538444D01*
X99656458Y-67720072D01*
X99655768Y-67726633D01*
X99655768Y-67726635D01*
X99637261Y-67902721D01*
X99636496Y-67910000D01*
X99656458Y-68099928D01*
X99715473Y-68281556D01*
X99718776Y-68287278D01*
X99718777Y-68287279D01*
X99748472Y-68338712D01*
X99810960Y-68446944D01*
X99815378Y-68451851D01*
X99815379Y-68451852D01*
X99922381Y-68570690D01*
X99953099Y-68634697D01*
X99944334Y-68705151D01*
X99922381Y-68739310D01*
X99868287Y-68799388D01*
X99810960Y-68863056D01*
X99781628Y-68913861D01*
X99723154Y-69015141D01*
X99715473Y-69028444D01*
X99656458Y-69210072D01*
X99655768Y-69216633D01*
X99655768Y-69216635D01*
X99653386Y-69239301D01*
X99636496Y-69400000D01*
X99656458Y-69589928D01*
X99715473Y-69771556D01*
X99810960Y-69936944D01*
X99815378Y-69941851D01*
X99815379Y-69941852D01*
X99931385Y-70070690D01*
X99962103Y-70134697D01*
X99953338Y-70205151D01*
X99931385Y-70239310D01*
X99822240Y-70360528D01*
X99810960Y-70373056D01*
X99715473Y-70538444D01*
X99656458Y-70720072D01*
X99636496Y-70910000D01*
X99637186Y-70916565D01*
X99655700Y-71092712D01*
X99656458Y-71099928D01*
X99715473Y-71281556D01*
X99810960Y-71446944D01*
X99815378Y-71451851D01*
X99815379Y-71451852D01*
X99922381Y-71570690D01*
X99953099Y-71634697D01*
X99944334Y-71705151D01*
X99922381Y-71739310D01*
X99810960Y-71863056D01*
X99715473Y-72028444D01*
X99656458Y-72210072D01*
X99655768Y-72216633D01*
X99655768Y-72216635D01*
X99644602Y-72322872D01*
X99636496Y-72400000D01*
X99637186Y-72406565D01*
X99653080Y-72557785D01*
X99656458Y-72589928D01*
X99715473Y-72771556D01*
X99810960Y-72936944D01*
X99815378Y-72941851D01*
X99815379Y-72941852D01*
X99931385Y-73070690D01*
X99962103Y-73134697D01*
X99953338Y-73205151D01*
X99931385Y-73239310D01*
X99810960Y-73373056D01*
X99715473Y-73538444D01*
X99656458Y-73720072D01*
X99655768Y-73726633D01*
X99655768Y-73726635D01*
X99649874Y-73782712D01*
X99636496Y-73910000D01*
X99637186Y-73916565D01*
X99654901Y-74085111D01*
X99656458Y-74099928D01*
X99715473Y-74281556D01*
X99810960Y-74446944D01*
X99815378Y-74451851D01*
X99815379Y-74451852D01*
X99861207Y-74502749D01*
X99938747Y-74588866D01*
X99973070Y-74613803D01*
X100076286Y-74688794D01*
X100093248Y-74701118D01*
X100099276Y-74703802D01*
X100099278Y-74703803D01*
X100154749Y-74728500D01*
X100267712Y-74778794D01*
X100361113Y-74798647D01*
X100448056Y-74817128D01*
X100448061Y-74817128D01*
X100454513Y-74818500D01*
X100645487Y-74818500D01*
X100651939Y-74817128D01*
X100651944Y-74817128D01*
X100738887Y-74798647D01*
X100832288Y-74778794D01*
X100945251Y-74728500D01*
X101000722Y-74703803D01*
X101000724Y-74703802D01*
X101006752Y-74701118D01*
X101023715Y-74688794D01*
X101126930Y-74613803D01*
X101161253Y-74588866D01*
X101238793Y-74502749D01*
X101284621Y-74451852D01*
X101284622Y-74451851D01*
X101289040Y-74446944D01*
X101384527Y-74281556D01*
X101443542Y-74099928D01*
X101445100Y-74085111D01*
X101462814Y-73916565D01*
X101463504Y-73910000D01*
X101450126Y-73782712D01*
X101444232Y-73726635D01*
X101444232Y-73726633D01*
X101443542Y-73720072D01*
X101384527Y-73538444D01*
X101289040Y-73373056D01*
X101168615Y-73239310D01*
X101137897Y-73175303D01*
X101146662Y-73104849D01*
X101168615Y-73070690D01*
X101284621Y-72941852D01*
X101284622Y-72941851D01*
X101289040Y-72936944D01*
X101384527Y-72771556D01*
X101443542Y-72589928D01*
X101446921Y-72557785D01*
X101462814Y-72406565D01*
X101463504Y-72400000D01*
X101455398Y-72322872D01*
X101444232Y-72216635D01*
X101444232Y-72216633D01*
X101443542Y-72210072D01*
X101384527Y-72028444D01*
X101289040Y-71863056D01*
X101177619Y-71739310D01*
X101146901Y-71675303D01*
X101155666Y-71604849D01*
X101177619Y-71570690D01*
X101284621Y-71451852D01*
X101284622Y-71451851D01*
X101289040Y-71446944D01*
X101384527Y-71281556D01*
X101443542Y-71099928D01*
X101444301Y-71092712D01*
X101462814Y-70916565D01*
X101463504Y-70910000D01*
X101443542Y-70720072D01*
X101384527Y-70538444D01*
X101289040Y-70373056D01*
X101277760Y-70360528D01*
X101168615Y-70239310D01*
X101137897Y-70175303D01*
X101146662Y-70104849D01*
X101168615Y-70070690D01*
X101284621Y-69941852D01*
X101284622Y-69941851D01*
X101289040Y-69936944D01*
X101384527Y-69771556D01*
X101443542Y-69589928D01*
X101461838Y-69415851D01*
X103706719Y-69415851D01*
X103723268Y-69612934D01*
X103777783Y-69803050D01*
X103780602Y-69808535D01*
X103848252Y-69940166D01*
X103868187Y-69978956D01*
X103991035Y-70133953D01*
X103995728Y-70137947D01*
X103995729Y-70137948D01*
X104105223Y-70231134D01*
X104141650Y-70262136D01*
X104314294Y-70358624D01*
X104502392Y-70419740D01*
X104698777Y-70443158D01*
X104704912Y-70442686D01*
X104704914Y-70442686D01*
X104889830Y-70428457D01*
X104889834Y-70428456D01*
X104895972Y-70427984D01*
X105086463Y-70374798D01*
X105091967Y-70372018D01*
X105091969Y-70372017D01*
X105257495Y-70288404D01*
X105257497Y-70288403D01*
X105262996Y-70285625D01*
X105418847Y-70163861D01*
X105521047Y-70045461D01*
X105544049Y-70018813D01*
X105544050Y-70018811D01*
X105548078Y-70014145D01*
X105645769Y-69842179D01*
X105708197Y-69654513D01*
X105732985Y-69458295D01*
X105733219Y-69441556D01*
X105733331Y-69433523D01*
X105733331Y-69433520D01*
X105733380Y-69430000D01*
X105714080Y-69233167D01*
X105701781Y-69192429D01*
X105676478Y-69108624D01*
X105656916Y-69043831D01*
X105564066Y-68869204D01*
X105478382Y-68764145D01*
X105442960Y-68720713D01*
X105442957Y-68720710D01*
X105439065Y-68715938D01*
X105432724Y-68710692D01*
X105291425Y-68593799D01*
X105291421Y-68593797D01*
X105286675Y-68589870D01*
X105112701Y-68495802D01*
X104923768Y-68437318D01*
X104917643Y-68436674D01*
X104917642Y-68436674D01*
X104733204Y-68417289D01*
X104733202Y-68417289D01*
X104727075Y-68416645D01*
X104644576Y-68424153D01*
X104536251Y-68434011D01*
X104536248Y-68434012D01*
X104530112Y-68434570D01*
X104524206Y-68436308D01*
X104524202Y-68436309D01*
X104432273Y-68463365D01*
X104340381Y-68490410D01*
X104334923Y-68493263D01*
X104334919Y-68493265D01*
X104311851Y-68505325D01*
X104165110Y-68582040D01*
X104010975Y-68705968D01*
X103883846Y-68857474D01*
X103880879Y-68862872D01*
X103880875Y-68862877D01*
X103825971Y-68962749D01*
X103788567Y-69030787D01*
X103786706Y-69036654D01*
X103786705Y-69036656D01*
X103738537Y-69188500D01*
X103728765Y-69219306D01*
X103706719Y-69415851D01*
X101461838Y-69415851D01*
X101463504Y-69400000D01*
X101446614Y-69239301D01*
X101444232Y-69216635D01*
X101444232Y-69216633D01*
X101443542Y-69210072D01*
X101384527Y-69028444D01*
X101376847Y-69015141D01*
X101318372Y-68913861D01*
X101289040Y-68863056D01*
X101231713Y-68799388D01*
X101177619Y-68739310D01*
X101146901Y-68675303D01*
X101155666Y-68604849D01*
X101177619Y-68570690D01*
X101284621Y-68451852D01*
X101284622Y-68451851D01*
X101289040Y-68446944D01*
X101351528Y-68338712D01*
X101381223Y-68287279D01*
X101381224Y-68287278D01*
X101384527Y-68281556D01*
X101422122Y-68165851D01*
X111516719Y-68165851D01*
X111517235Y-68171995D01*
X111530590Y-68331038D01*
X111533268Y-68362934D01*
X111548830Y-68417204D01*
X111582050Y-68533056D01*
X111587783Y-68553050D01*
X111590602Y-68558535D01*
X111673951Y-68720713D01*
X111678187Y-68728956D01*
X111801035Y-68883953D01*
X111805728Y-68887947D01*
X111805729Y-68887948D01*
X111921809Y-68986739D01*
X111951650Y-69012136D01*
X112124294Y-69108624D01*
X112312392Y-69169740D01*
X112508777Y-69193158D01*
X112514912Y-69192686D01*
X112514914Y-69192686D01*
X112699830Y-69178457D01*
X112699834Y-69178456D01*
X112705972Y-69177984D01*
X112896463Y-69124798D01*
X112901967Y-69122018D01*
X112901969Y-69122017D01*
X113067495Y-69038404D01*
X113067497Y-69038403D01*
X113072996Y-69035625D01*
X113228847Y-68913861D01*
X113358078Y-68764145D01*
X113455769Y-68592179D01*
X113518197Y-68404513D01*
X113542985Y-68208295D01*
X113543380Y-68180000D01*
X113524080Y-67983167D01*
X113518176Y-67963610D01*
X113468697Y-67799731D01*
X113466916Y-67793831D01*
X113374066Y-67619204D01*
X113268690Y-67490000D01*
X113252960Y-67470713D01*
X113252957Y-67470710D01*
X113249065Y-67465938D01*
X113242724Y-67460692D01*
X113101425Y-67343799D01*
X113101421Y-67343797D01*
X113096675Y-67339870D01*
X112922701Y-67245802D01*
X112733768Y-67187318D01*
X112727643Y-67186674D01*
X112727642Y-67186674D01*
X112543204Y-67167289D01*
X112543202Y-67167289D01*
X112537075Y-67166645D01*
X112454576Y-67174153D01*
X112346251Y-67184011D01*
X112346248Y-67184012D01*
X112340112Y-67184570D01*
X112334206Y-67186308D01*
X112334202Y-67186309D01*
X112240816Y-67213794D01*
X112150381Y-67240410D01*
X112144923Y-67243263D01*
X112144919Y-67243265D01*
X112054626Y-67290470D01*
X111975110Y-67332040D01*
X111820975Y-67455968D01*
X111693846Y-67607474D01*
X111690879Y-67612872D01*
X111690875Y-67612877D01*
X111628472Y-67726390D01*
X111598567Y-67780787D01*
X111596706Y-67786654D01*
X111596705Y-67786656D01*
X111545859Y-67946944D01*
X111538765Y-67969306D01*
X111516719Y-68165851D01*
X101422122Y-68165851D01*
X101443542Y-68099928D01*
X101463504Y-67910000D01*
X101462739Y-67902721D01*
X101444232Y-67726635D01*
X101444232Y-67726633D01*
X101443542Y-67720072D01*
X101384527Y-67538444D01*
X101289040Y-67373056D01*
X101283437Y-67366833D01*
X101168615Y-67239310D01*
X101137897Y-67175303D01*
X101146662Y-67104849D01*
X101168615Y-67070690D01*
X101284621Y-66941852D01*
X101284622Y-66941851D01*
X101289040Y-66936944D01*
X101328716Y-66868223D01*
X101381223Y-66777279D01*
X101381224Y-66777278D01*
X101384527Y-66771556D01*
X101443542Y-66589928D01*
X101450476Y-66523960D01*
X101462814Y-66406565D01*
X101463504Y-66400000D01*
X101445800Y-66231556D01*
X101444232Y-66216635D01*
X101444232Y-66216633D01*
X101443542Y-66210072D01*
X101441503Y-66203795D01*
X101440129Y-66197334D01*
X101441647Y-66197011D01*
X101439844Y-66133973D01*
X101476504Y-66073174D01*
X101540216Y-66041846D01*
X101561706Y-66040000D01*
X118156001Y-66040000D01*
X118224122Y-66060002D01*
X118270615Y-66113658D01*
X118282001Y-66166000D01*
X118282000Y-82914000D01*
X118261998Y-82982121D01*
X118208342Y-83028614D01*
X118156000Y-83040000D01*
X101375063Y-83040000D01*
X101306942Y-83019998D01*
X101260449Y-82966342D01*
X101249753Y-82900829D01*
X101249884Y-82899589D01*
X101263504Y-82770000D01*
X101262814Y-82763435D01*
X101244232Y-82586635D01*
X101244232Y-82586633D01*
X101243542Y-82580072D01*
X101184527Y-82398444D01*
X101089040Y-82233056D01*
X101065695Y-82207128D01*
X100965675Y-82096045D01*
X100965674Y-82096044D01*
X100961253Y-82091134D01*
X100806752Y-81978882D01*
X100800724Y-81976198D01*
X100800722Y-81976197D01*
X100638319Y-81903891D01*
X100638318Y-81903891D01*
X100632288Y-81901206D01*
X100538887Y-81881353D01*
X100451944Y-81862872D01*
X100451939Y-81862872D01*
X100445487Y-81861500D01*
X100254513Y-81861500D01*
X100248061Y-81862872D01*
X100248056Y-81862872D01*
X100161113Y-81881353D01*
X100067712Y-81901206D01*
X100061682Y-81903891D01*
X100061681Y-81903891D01*
X99899278Y-81976197D01*
X99899276Y-81976198D01*
X99893248Y-81978882D01*
X99738747Y-82091134D01*
X99734326Y-82096044D01*
X99734325Y-82096045D01*
X99634306Y-82207128D01*
X99610960Y-82233056D01*
X99515473Y-82398444D01*
X99456458Y-82580072D01*
X99455768Y-82586633D01*
X99455768Y-82586635D01*
X99437186Y-82763435D01*
X99436496Y-82770000D01*
X99450117Y-82899589D01*
X99450247Y-82900829D01*
X99437475Y-82970668D01*
X99388973Y-83022514D01*
X99324937Y-83040000D01*
X74650647Y-83040000D01*
X74582526Y-83019998D01*
X74571991Y-83011954D01*
X74571253Y-83011134D01*
X74565908Y-83007251D01*
X74565904Y-83007247D01*
X74561709Y-83004199D01*
X74518356Y-82947976D01*
X74512282Y-82877240D01*
X74545415Y-82814449D01*
X74561706Y-82800333D01*
X74591253Y-82778866D01*
X74719040Y-82636944D01*
X74814527Y-82471556D01*
X74873542Y-82289928D01*
X74876046Y-82266109D01*
X74892814Y-82106565D01*
X74893504Y-82100000D01*
X74880774Y-81978882D01*
X74874232Y-81916635D01*
X74874232Y-81916633D01*
X74873542Y-81910072D01*
X74814527Y-81728444D01*
X74794561Y-81693861D01*
X74738179Y-81596206D01*
X74719040Y-81563056D01*
X74702013Y-81544145D01*
X74595675Y-81426045D01*
X74595674Y-81426044D01*
X74591253Y-81421134D01*
X74585475Y-81416936D01*
X74585285Y-81416689D01*
X74581002Y-81412833D01*
X74581707Y-81412050D01*
X74542121Y-81360713D01*
X74536046Y-81289977D01*
X74569178Y-81227185D01*
X74585475Y-81213064D01*
X74585487Y-81213056D01*
X74591253Y-81208866D01*
X74618691Y-81178393D01*
X74714621Y-81071852D01*
X74714622Y-81071851D01*
X74719040Y-81066944D01*
X74788953Y-80945851D01*
X74811223Y-80907279D01*
X74811224Y-80907278D01*
X74814527Y-80901556D01*
X74873542Y-80719928D01*
X74885496Y-80606197D01*
X74891838Y-80545851D01*
X79286719Y-80545851D01*
X79303268Y-80742934D01*
X79304967Y-80748858D01*
X79337713Y-80863056D01*
X79357783Y-80933050D01*
X79448187Y-81108956D01*
X79571035Y-81263953D01*
X79575728Y-81267947D01*
X79575729Y-81267948D01*
X79706077Y-81378882D01*
X79721650Y-81392136D01*
X79894294Y-81488624D01*
X80082392Y-81549740D01*
X80278777Y-81573158D01*
X80284912Y-81572686D01*
X80284914Y-81572686D01*
X80469830Y-81558457D01*
X80469834Y-81558456D01*
X80475972Y-81557984D01*
X80666463Y-81504798D01*
X80671967Y-81502018D01*
X80671969Y-81502017D01*
X80837495Y-81418404D01*
X80837497Y-81418403D01*
X80842996Y-81415625D01*
X80989446Y-81301206D01*
X80990990Y-81300000D01*
X96496496Y-81300000D01*
X96497186Y-81306565D01*
X96509228Y-81421134D01*
X96516458Y-81489928D01*
X96575473Y-81671556D01*
X96670960Y-81836944D01*
X96675378Y-81841851D01*
X96675379Y-81841852D01*
X96793607Y-81973158D01*
X96798747Y-81978866D01*
X96897843Y-82050864D01*
X96936385Y-82078866D01*
X96953248Y-82091118D01*
X96959276Y-82093802D01*
X96959278Y-82093803D01*
X97115675Y-82163435D01*
X97127712Y-82168794D01*
X97214479Y-82187237D01*
X97308056Y-82207128D01*
X97308061Y-82207128D01*
X97314513Y-82208500D01*
X97505487Y-82208500D01*
X97511939Y-82207128D01*
X97511944Y-82207128D01*
X97605521Y-82187237D01*
X97692288Y-82168794D01*
X97704325Y-82163435D01*
X97860722Y-82093803D01*
X97860724Y-82093802D01*
X97866752Y-82091118D01*
X97883616Y-82078866D01*
X97922157Y-82050864D01*
X98021253Y-81978866D01*
X98026393Y-81973158D01*
X98144621Y-81841852D01*
X98144622Y-81841851D01*
X98149040Y-81836944D01*
X98244527Y-81671556D01*
X98303542Y-81489928D01*
X98310773Y-81421134D01*
X98312994Y-81400000D01*
X101106496Y-81400000D01*
X101107186Y-81406565D01*
X101124235Y-81568774D01*
X101126458Y-81589928D01*
X101185473Y-81771556D01*
X101188776Y-81777278D01*
X101188777Y-81777279D01*
X101197355Y-81792136D01*
X101280960Y-81936944D01*
X101285378Y-81941851D01*
X101285379Y-81941852D01*
X101325702Y-81986635D01*
X101408747Y-82078866D01*
X101507843Y-82150864D01*
X101543218Y-82176565D01*
X101563248Y-82191118D01*
X101569276Y-82193802D01*
X101569278Y-82193803D01*
X101731681Y-82266109D01*
X101737712Y-82268794D01*
X101806263Y-82283365D01*
X101918056Y-82307128D01*
X101918061Y-82307128D01*
X101924513Y-82308500D01*
X102115487Y-82308500D01*
X102121939Y-82307128D01*
X102121944Y-82307128D01*
X102233737Y-82283365D01*
X102302288Y-82268794D01*
X102308319Y-82266109D01*
X102470722Y-82193803D01*
X102470724Y-82193802D01*
X102476752Y-82191118D01*
X102496783Y-82176565D01*
X102532157Y-82150864D01*
X102631253Y-82078866D01*
X102714298Y-81986635D01*
X102754621Y-81941852D01*
X102754622Y-81941851D01*
X102759040Y-81936944D01*
X102842645Y-81792136D01*
X102851223Y-81777279D01*
X102851224Y-81777278D01*
X102854527Y-81771556D01*
X102913542Y-81589928D01*
X102915766Y-81568774D01*
X102932814Y-81406565D01*
X102933504Y-81400000D01*
X102923403Y-81303891D01*
X102914232Y-81216635D01*
X102914232Y-81216633D01*
X102913542Y-81210072D01*
X102854527Y-81028444D01*
X102806842Y-80945851D01*
X104836719Y-80945851D01*
X104837235Y-80951995D01*
X104851060Y-81116635D01*
X104853268Y-81142934D01*
X104873448Y-81213311D01*
X104900189Y-81306565D01*
X104907783Y-81333050D01*
X104910602Y-81338535D01*
X104991552Y-81496045D01*
X104998187Y-81508956D01*
X105121035Y-81663953D01*
X105125728Y-81667947D01*
X105125729Y-81667948D01*
X105247469Y-81771556D01*
X105271650Y-81792136D01*
X105444294Y-81888624D01*
X105632392Y-81949740D01*
X105828777Y-81973158D01*
X105834912Y-81972686D01*
X105834914Y-81972686D01*
X106019830Y-81958457D01*
X106019834Y-81958456D01*
X106025972Y-81957984D01*
X106216463Y-81904798D01*
X106221967Y-81902018D01*
X106221969Y-81902017D01*
X106387495Y-81818404D01*
X106387497Y-81818403D01*
X106392996Y-81815625D01*
X106548847Y-81693861D01*
X106667564Y-81556326D01*
X106674049Y-81548813D01*
X106674050Y-81548811D01*
X106678078Y-81544145D01*
X106775769Y-81372179D01*
X106838197Y-81184513D01*
X106862985Y-80988295D01*
X106863380Y-80960000D01*
X106844080Y-80763167D01*
X106831390Y-80721134D01*
X106802680Y-80626045D01*
X106786916Y-80573831D01*
X106694066Y-80399204D01*
X106623709Y-80312938D01*
X106572960Y-80250713D01*
X106572957Y-80250710D01*
X106569065Y-80245938D01*
X106562724Y-80240692D01*
X106421425Y-80123799D01*
X106421421Y-80123797D01*
X106416675Y-80119870D01*
X106242701Y-80025802D01*
X106053768Y-79967318D01*
X106047643Y-79966674D01*
X106047642Y-79966674D01*
X105863204Y-79947289D01*
X105863202Y-79947289D01*
X105857075Y-79946645D01*
X105774576Y-79954153D01*
X105666251Y-79964011D01*
X105666248Y-79964012D01*
X105660112Y-79964570D01*
X105654206Y-79966308D01*
X105654202Y-79966309D01*
X105563323Y-79993056D01*
X105470381Y-80020410D01*
X105464923Y-80023263D01*
X105464919Y-80023265D01*
X105374147Y-80070720D01*
X105295110Y-80112040D01*
X105140975Y-80235968D01*
X105013846Y-80387474D01*
X105010879Y-80392872D01*
X105010875Y-80392877D01*
X104955903Y-80492872D01*
X104918567Y-80560787D01*
X104916706Y-80566654D01*
X104916705Y-80566656D01*
X104910959Y-80584771D01*
X104858765Y-80749306D01*
X104841046Y-80907279D01*
X104838672Y-80928444D01*
X104836719Y-80945851D01*
X102806842Y-80945851D01*
X102759040Y-80863056D01*
X102645353Y-80736793D01*
X102635675Y-80726045D01*
X102635674Y-80726044D01*
X102631253Y-80721134D01*
X102500375Y-80626045D01*
X102482094Y-80612763D01*
X102482093Y-80612762D01*
X102476752Y-80608882D01*
X102470724Y-80606198D01*
X102470722Y-80606197D01*
X102308319Y-80533891D01*
X102308318Y-80533891D01*
X102302288Y-80531206D01*
X102208888Y-80511353D01*
X102121944Y-80492872D01*
X102121939Y-80492872D01*
X102115487Y-80491500D01*
X101924513Y-80491500D01*
X101918061Y-80492872D01*
X101918056Y-80492872D01*
X101831112Y-80511353D01*
X101737712Y-80531206D01*
X101731682Y-80533891D01*
X101731681Y-80533891D01*
X101569278Y-80606197D01*
X101569276Y-80606198D01*
X101563248Y-80608882D01*
X101557907Y-80612762D01*
X101557906Y-80612763D01*
X101539625Y-80626045D01*
X101408747Y-80721134D01*
X101404326Y-80726044D01*
X101404325Y-80726045D01*
X101394648Y-80736793D01*
X101280960Y-80863056D01*
X101185473Y-81028444D01*
X101126458Y-81210072D01*
X101125768Y-81216633D01*
X101125768Y-81216635D01*
X101116597Y-81303891D01*
X101106496Y-81400000D01*
X98312994Y-81400000D01*
X98322814Y-81306565D01*
X98323504Y-81300000D01*
X98313409Y-81203955D01*
X98304232Y-81116635D01*
X98304232Y-81116633D01*
X98303542Y-81110072D01*
X98244527Y-80928444D01*
X98149040Y-80763056D01*
X98136660Y-80749306D01*
X98025675Y-80626045D01*
X98025674Y-80626044D01*
X98021253Y-80621134D01*
X97895590Y-80529834D01*
X97872094Y-80512763D01*
X97872093Y-80512762D01*
X97866752Y-80508882D01*
X97860724Y-80506198D01*
X97860722Y-80506197D01*
X97698319Y-80433891D01*
X97698318Y-80433891D01*
X97692288Y-80431206D01*
X97598888Y-80411353D01*
X97511944Y-80392872D01*
X97511939Y-80392872D01*
X97505487Y-80391500D01*
X97314513Y-80391500D01*
X97308061Y-80392872D01*
X97308056Y-80392872D01*
X97221112Y-80411353D01*
X97127712Y-80431206D01*
X97121682Y-80433891D01*
X97121681Y-80433891D01*
X96959278Y-80506197D01*
X96959276Y-80506198D01*
X96953248Y-80508882D01*
X96947907Y-80512762D01*
X96947906Y-80512763D01*
X96924410Y-80529834D01*
X96798747Y-80621134D01*
X96794326Y-80626044D01*
X96794325Y-80626045D01*
X96683341Y-80749306D01*
X96670960Y-80763056D01*
X96575473Y-80928444D01*
X96516458Y-81110072D01*
X96515768Y-81116633D01*
X96515768Y-81116635D01*
X96506591Y-81203955D01*
X96496496Y-81300000D01*
X80990990Y-81300000D01*
X80993991Y-81297655D01*
X80998847Y-81293861D01*
X81128078Y-81144145D01*
X81225769Y-80972179D01*
X81288197Y-80784513D01*
X81312985Y-80588295D01*
X81313380Y-80560000D01*
X81294080Y-80363167D01*
X81236916Y-80173831D01*
X81144066Y-79999204D01*
X81073709Y-79912938D01*
X81022960Y-79850713D01*
X81022957Y-79850710D01*
X81019065Y-79845938D01*
X81012724Y-79840692D01*
X80871425Y-79723799D01*
X80871421Y-79723797D01*
X80866675Y-79719870D01*
X80692701Y-79625802D01*
X80503768Y-79567318D01*
X80497643Y-79566674D01*
X80497642Y-79566674D01*
X80313204Y-79547289D01*
X80313202Y-79547289D01*
X80307075Y-79546645D01*
X80224576Y-79554153D01*
X80116251Y-79564011D01*
X80116248Y-79564012D01*
X80110112Y-79564570D01*
X80104206Y-79566308D01*
X80104202Y-79566309D01*
X79999076Y-79597249D01*
X79920381Y-79620410D01*
X79914923Y-79623263D01*
X79914919Y-79623265D01*
X79848205Y-79658143D01*
X79745110Y-79712040D01*
X79590975Y-79835968D01*
X79587011Y-79840692D01*
X79585338Y-79842686D01*
X79463846Y-79987474D01*
X79460879Y-79992872D01*
X79460875Y-79992877D01*
X79442775Y-80025802D01*
X79368567Y-80160787D01*
X79366706Y-80166654D01*
X79366705Y-80166656D01*
X79342802Y-80242009D01*
X79308765Y-80349306D01*
X79286719Y-80545851D01*
X74891838Y-80545851D01*
X74892814Y-80536565D01*
X74893504Y-80530000D01*
X74883403Y-80433891D01*
X74874232Y-80346635D01*
X74874232Y-80346633D01*
X74873542Y-80340072D01*
X74814527Y-80158444D01*
X74719040Y-79993056D01*
X74695866Y-79967318D01*
X74595675Y-79856045D01*
X74595674Y-79856044D01*
X74591253Y-79851134D01*
X74466545Y-79760528D01*
X74442094Y-79742763D01*
X74442093Y-79742762D01*
X74436752Y-79738882D01*
X74430724Y-79736198D01*
X74430722Y-79736197D01*
X74268319Y-79663891D01*
X74268318Y-79663891D01*
X74262288Y-79661206D01*
X74168887Y-79641353D01*
X74081944Y-79622872D01*
X74081939Y-79622872D01*
X74075487Y-79621500D01*
X73884513Y-79621500D01*
X73878061Y-79622872D01*
X73878056Y-79622872D01*
X73791113Y-79641353D01*
X73697712Y-79661206D01*
X73691682Y-79663891D01*
X73691681Y-79663891D01*
X73529278Y-79736197D01*
X73529276Y-79736198D01*
X73523248Y-79738882D01*
X73517907Y-79742762D01*
X73517906Y-79742763D01*
X73493455Y-79760528D01*
X73368747Y-79851134D01*
X73364326Y-79856044D01*
X73364325Y-79856045D01*
X73264135Y-79967318D01*
X73240960Y-79993056D01*
X73145473Y-80158444D01*
X73086458Y-80340072D01*
X73085768Y-80346633D01*
X73085768Y-80346635D01*
X73076597Y-80433891D01*
X73066496Y-80530000D01*
X73067186Y-80536565D01*
X73074505Y-80606197D01*
X73086458Y-80719928D01*
X73145473Y-80901556D01*
X73148776Y-80907278D01*
X73148777Y-80907279D01*
X73171047Y-80945851D01*
X73240960Y-81066944D01*
X73245378Y-81071851D01*
X73245379Y-81071852D01*
X73341309Y-81178393D01*
X73368747Y-81208866D01*
X73374513Y-81213056D01*
X73374525Y-81213064D01*
X73374715Y-81213311D01*
X73378998Y-81217167D01*
X73378293Y-81217950D01*
X73417879Y-81269287D01*
X73423954Y-81340023D01*
X73390822Y-81402815D01*
X73374525Y-81416936D01*
X73368747Y-81421134D01*
X73364326Y-81426044D01*
X73364325Y-81426045D01*
X73257988Y-81544145D01*
X73240960Y-81563056D01*
X73221821Y-81596206D01*
X73165440Y-81693861D01*
X73145473Y-81728444D01*
X73086458Y-81910072D01*
X73085768Y-81916633D01*
X73085768Y-81916635D01*
X73079226Y-81978882D01*
X73066496Y-82100000D01*
X73067186Y-82106565D01*
X73083955Y-82266109D01*
X73086458Y-82289928D01*
X73145473Y-82471556D01*
X73240960Y-82636944D01*
X73368747Y-82778866D01*
X73374089Y-82782747D01*
X73374096Y-82782753D01*
X73378291Y-82785801D01*
X73421644Y-82842024D01*
X73427718Y-82912760D01*
X73394585Y-82975551D01*
X73378294Y-82989667D01*
X73348747Y-83011134D01*
X73348746Y-83011135D01*
X73348132Y-83010290D01*
X73289658Y-83038353D01*
X73269353Y-83040000D01*
X70232155Y-83040000D01*
X70164034Y-83019998D01*
X70117541Y-82966342D01*
X70107437Y-82896068D01*
X70138519Y-82829690D01*
X70244621Y-82711852D01*
X70244622Y-82711851D01*
X70249040Y-82706944D01*
X70344527Y-82541556D01*
X70403542Y-82359928D01*
X70409092Y-82307128D01*
X70422814Y-82176565D01*
X70423504Y-82170000D01*
X70415731Y-82096045D01*
X70404232Y-81986635D01*
X70404232Y-81986633D01*
X70403542Y-81980072D01*
X70344527Y-81798444D01*
X70249040Y-81633056D01*
X70210208Y-81589928D01*
X70125675Y-81496045D01*
X70125674Y-81496044D01*
X70121253Y-81491134D01*
X70012404Y-81412050D01*
X69972094Y-81382763D01*
X69972093Y-81382762D01*
X69966752Y-81378882D01*
X69960724Y-81376198D01*
X69960722Y-81376197D01*
X69798319Y-81303891D01*
X69798318Y-81303891D01*
X69792288Y-81301206D01*
X69698887Y-81281353D01*
X69611944Y-81262872D01*
X69611939Y-81262872D01*
X69605487Y-81261500D01*
X69414513Y-81261500D01*
X69408061Y-81262872D01*
X69408056Y-81262872D01*
X69321113Y-81281353D01*
X69227712Y-81301206D01*
X69221682Y-81303891D01*
X69221681Y-81303891D01*
X69059278Y-81376197D01*
X69059276Y-81376198D01*
X69053248Y-81378882D01*
X69047907Y-81382762D01*
X69047906Y-81382763D01*
X69007596Y-81412050D01*
X68898747Y-81491134D01*
X68894326Y-81496044D01*
X68894325Y-81496045D01*
X68809793Y-81589928D01*
X68770960Y-81633056D01*
X68675473Y-81798444D01*
X68616458Y-81980072D01*
X68615768Y-81986633D01*
X68615768Y-81986635D01*
X68604269Y-82096045D01*
X68596496Y-82170000D01*
X68597186Y-82176565D01*
X68610909Y-82307128D01*
X68616458Y-82359928D01*
X68675473Y-82541556D01*
X68770960Y-82706944D01*
X68775378Y-82711851D01*
X68775379Y-82711852D01*
X68881481Y-82829690D01*
X68912198Y-82893697D01*
X68903434Y-82964151D01*
X68857971Y-83018682D01*
X68787845Y-83040000D01*
X59883432Y-83040000D01*
X59815311Y-83019998D01*
X59768818Y-82966342D01*
X59757432Y-82914000D01*
X59757432Y-78815851D01*
X98056719Y-78815851D01*
X98073268Y-79012934D01*
X98127783Y-79203050D01*
X98218187Y-79378956D01*
X98341035Y-79533953D01*
X98345728Y-79537947D01*
X98345729Y-79537948D01*
X98448958Y-79625802D01*
X98491650Y-79662136D01*
X98664294Y-79758624D01*
X98852392Y-79819740D01*
X99048777Y-79843158D01*
X99054912Y-79842686D01*
X99054914Y-79842686D01*
X99239830Y-79828457D01*
X99239834Y-79828456D01*
X99245972Y-79827984D01*
X99436463Y-79774798D01*
X99441967Y-79772018D01*
X99441969Y-79772017D01*
X99607495Y-79688404D01*
X99607497Y-79688403D01*
X99612996Y-79685625D01*
X99768847Y-79563861D01*
X99898078Y-79414145D01*
X99995769Y-79242179D01*
X100058197Y-79054513D01*
X100082985Y-78858295D01*
X100083380Y-78830000D01*
X100064080Y-78633167D01*
X100006916Y-78443831D01*
X99914066Y-78269204D01*
X99843709Y-78182938D01*
X99792960Y-78120713D01*
X99792957Y-78120710D01*
X99789065Y-78115938D01*
X99782724Y-78110692D01*
X99641425Y-77993799D01*
X99641421Y-77993797D01*
X99636675Y-77989870D01*
X99462701Y-77895802D01*
X99273768Y-77837318D01*
X99267643Y-77836674D01*
X99267642Y-77836674D01*
X99083204Y-77817289D01*
X99083202Y-77817289D01*
X99077075Y-77816645D01*
X98994576Y-77824153D01*
X98886251Y-77834011D01*
X98886248Y-77834012D01*
X98880112Y-77834570D01*
X98874206Y-77836308D01*
X98874202Y-77836309D01*
X98769076Y-77867249D01*
X98690381Y-77890410D01*
X98684923Y-77893263D01*
X98684919Y-77893265D01*
X98594147Y-77940720D01*
X98515110Y-77982040D01*
X98360975Y-78105968D01*
X98233846Y-78257474D01*
X98230879Y-78262872D01*
X98230875Y-78262877D01*
X98227397Y-78269204D01*
X98138567Y-78430787D01*
X98136706Y-78436654D01*
X98136705Y-78436656D01*
X98080627Y-78613436D01*
X98078765Y-78619306D01*
X98056719Y-78815851D01*
X59757432Y-78815851D01*
X59757432Y-76340000D01*
X101206496Y-76340000D01*
X101226458Y-76529928D01*
X101285473Y-76711556D01*
X101380960Y-76876944D01*
X101508747Y-77018866D01*
X101663248Y-77131118D01*
X101669276Y-77133802D01*
X101669278Y-77133803D01*
X101831681Y-77206109D01*
X101837712Y-77208794D01*
X101903365Y-77222749D01*
X102018056Y-77247128D01*
X102018061Y-77247128D01*
X102024513Y-77248500D01*
X102215487Y-77248500D01*
X102221939Y-77247128D01*
X102221944Y-77247128D01*
X102336635Y-77222749D01*
X102402288Y-77208794D01*
X102408319Y-77206109D01*
X102570722Y-77133803D01*
X102570724Y-77133802D01*
X102576752Y-77131118D01*
X102731253Y-77018866D01*
X102859040Y-76876944D01*
X102954527Y-76711556D01*
X103013542Y-76529928D01*
X103033504Y-76340000D01*
X103015473Y-76168444D01*
X103014232Y-76156635D01*
X103014232Y-76156633D01*
X103013542Y-76150072D01*
X102954527Y-75968444D01*
X102926558Y-75920000D01*
X106746496Y-75920000D01*
X106766458Y-76109928D01*
X106825473Y-76291556D01*
X106828776Y-76297278D01*
X106828777Y-76297279D01*
X106859257Y-76350072D01*
X106920960Y-76456944D01*
X107048747Y-76598866D01*
X107203248Y-76711118D01*
X107209276Y-76713802D01*
X107209278Y-76713803D01*
X107371681Y-76786109D01*
X107377712Y-76788794D01*
X107471113Y-76808647D01*
X107558056Y-76827128D01*
X107558061Y-76827128D01*
X107564513Y-76828500D01*
X107755487Y-76828500D01*
X107761939Y-76827128D01*
X107761944Y-76827128D01*
X107848887Y-76808647D01*
X107942288Y-76788794D01*
X107948319Y-76786109D01*
X108110722Y-76713803D01*
X108110724Y-76713802D01*
X108116752Y-76711118D01*
X108271253Y-76598866D01*
X108324256Y-76540000D01*
X112036496Y-76540000D01*
X112037186Y-76546565D01*
X112055129Y-76717279D01*
X112056458Y-76729928D01*
X112115473Y-76911556D01*
X112210960Y-77076944D01*
X112215378Y-77081851D01*
X112215379Y-77081852D01*
X112329678Y-77208794D01*
X112338747Y-77218866D01*
X112493248Y-77331118D01*
X112499276Y-77333802D01*
X112499278Y-77333803D01*
X112661681Y-77406109D01*
X112667712Y-77408794D01*
X112761112Y-77428647D01*
X112848056Y-77447128D01*
X112848061Y-77447128D01*
X112854513Y-77448500D01*
X113045487Y-77448500D01*
X113051939Y-77447128D01*
X113051944Y-77447128D01*
X113138888Y-77428647D01*
X113232288Y-77408794D01*
X113238319Y-77406109D01*
X113400722Y-77333803D01*
X113400724Y-77333802D01*
X113406752Y-77331118D01*
X113561253Y-77218866D01*
X113570322Y-77208794D01*
X113684621Y-77081852D01*
X113684622Y-77081851D01*
X113689040Y-77076944D01*
X113784527Y-76911556D01*
X113843542Y-76729928D01*
X113844872Y-76717279D01*
X113862814Y-76546565D01*
X113863504Y-76540000D01*
X113843542Y-76350072D01*
X113784527Y-76168444D01*
X113689040Y-76003056D01*
X113561253Y-75861134D01*
X113406752Y-75748882D01*
X113400724Y-75746198D01*
X113400722Y-75746197D01*
X113238319Y-75673891D01*
X113238318Y-75673891D01*
X113232288Y-75671206D01*
X113138887Y-75651353D01*
X113051944Y-75632872D01*
X113051939Y-75632872D01*
X113045487Y-75631500D01*
X112854513Y-75631500D01*
X112848061Y-75632872D01*
X112848056Y-75632872D01*
X112761113Y-75651353D01*
X112667712Y-75671206D01*
X112661682Y-75673891D01*
X112661681Y-75673891D01*
X112499278Y-75746197D01*
X112499276Y-75746198D01*
X112493248Y-75748882D01*
X112338747Y-75861134D01*
X112210960Y-76003056D01*
X112115473Y-76168444D01*
X112056458Y-76350072D01*
X112036496Y-76540000D01*
X108324256Y-76540000D01*
X108399040Y-76456944D01*
X108460743Y-76350072D01*
X108491223Y-76297279D01*
X108491224Y-76297278D01*
X108494527Y-76291556D01*
X108553542Y-76109928D01*
X108573504Y-75920000D01*
X108553542Y-75730072D01*
X108494527Y-75548444D01*
X108399040Y-75383056D01*
X108381698Y-75363795D01*
X108275675Y-75246045D01*
X108275674Y-75246044D01*
X108271253Y-75241134D01*
X108131251Y-75139416D01*
X108122094Y-75132763D01*
X108122093Y-75132762D01*
X108116752Y-75128882D01*
X108110724Y-75126198D01*
X108110722Y-75126197D01*
X107948319Y-75053891D01*
X107948318Y-75053891D01*
X107942288Y-75051206D01*
X107848887Y-75031353D01*
X107761944Y-75012872D01*
X107761939Y-75012872D01*
X107755487Y-75011500D01*
X107564513Y-75011500D01*
X107558061Y-75012872D01*
X107558056Y-75012872D01*
X107471113Y-75031353D01*
X107377712Y-75051206D01*
X107371682Y-75053891D01*
X107371681Y-75053891D01*
X107209278Y-75126197D01*
X107209276Y-75126198D01*
X107203248Y-75128882D01*
X107197907Y-75132762D01*
X107197906Y-75132763D01*
X107188749Y-75139416D01*
X107048747Y-75241134D01*
X107044326Y-75246044D01*
X107044325Y-75246045D01*
X106938303Y-75363795D01*
X106920960Y-75383056D01*
X106825473Y-75548444D01*
X106766458Y-75730072D01*
X106746496Y-75920000D01*
X102926558Y-75920000D01*
X102922768Y-75913435D01*
X102892571Y-75861134D01*
X102859040Y-75803056D01*
X102742740Y-75673891D01*
X102735675Y-75666045D01*
X102735674Y-75666044D01*
X102731253Y-75661134D01*
X102576752Y-75548882D01*
X102570724Y-75546198D01*
X102570722Y-75546197D01*
X102408319Y-75473891D01*
X102408318Y-75473891D01*
X102402288Y-75471206D01*
X102308888Y-75451353D01*
X102221944Y-75432872D01*
X102221939Y-75432872D01*
X102215487Y-75431500D01*
X102024513Y-75431500D01*
X102018061Y-75432872D01*
X102018056Y-75432872D01*
X101931112Y-75451353D01*
X101837712Y-75471206D01*
X101831682Y-75473891D01*
X101831681Y-75473891D01*
X101669278Y-75546197D01*
X101669276Y-75546198D01*
X101663248Y-75548882D01*
X101508747Y-75661134D01*
X101504326Y-75666044D01*
X101504325Y-75666045D01*
X101497261Y-75673891D01*
X101380960Y-75803056D01*
X101347429Y-75861134D01*
X101317233Y-75913435D01*
X101285473Y-75968444D01*
X101226458Y-76150072D01*
X101225768Y-76156633D01*
X101225768Y-76156635D01*
X101224527Y-76168444D01*
X101206496Y-76340000D01*
X59757432Y-76340000D01*
X59757432Y-74456667D01*
X66066496Y-74456667D01*
X66067186Y-74463232D01*
X66080799Y-74592749D01*
X66086458Y-74646595D01*
X66145473Y-74828223D01*
X66240960Y-74993611D01*
X66245378Y-74998518D01*
X66245379Y-74998519D01*
X66291583Y-75049834D01*
X66368747Y-75135533D01*
X66467843Y-75207531D01*
X66514094Y-75241134D01*
X66523248Y-75247785D01*
X66529276Y-75250469D01*
X66529278Y-75250470D01*
X66691681Y-75322776D01*
X66697712Y-75325461D01*
X66791112Y-75345314D01*
X66878056Y-75363795D01*
X66878061Y-75363795D01*
X66884513Y-75365167D01*
X67075487Y-75365167D01*
X67081939Y-75363795D01*
X67081944Y-75363795D01*
X67168888Y-75345314D01*
X67262288Y-75325461D01*
X67268319Y-75322776D01*
X67430722Y-75250470D01*
X67430724Y-75250469D01*
X67436752Y-75247785D01*
X67445907Y-75241134D01*
X67492157Y-75207531D01*
X67591253Y-75135533D01*
X67668417Y-75049834D01*
X67714621Y-74998519D01*
X67714622Y-74998518D01*
X67719040Y-74993611D01*
X67814527Y-74828223D01*
X67873542Y-74646595D01*
X67879202Y-74592749D01*
X67892814Y-74463232D01*
X67893504Y-74456667D01*
X67881573Y-74343147D01*
X67874232Y-74273302D01*
X67874232Y-74273300D01*
X67873542Y-74266739D01*
X67814527Y-74085111D01*
X67719040Y-73919723D01*
X67710286Y-73910000D01*
X67595675Y-73782712D01*
X67595674Y-73782711D01*
X67591253Y-73777801D01*
X67436752Y-73665549D01*
X67430724Y-73662865D01*
X67430722Y-73662864D01*
X67268319Y-73590558D01*
X67268318Y-73590558D01*
X67262288Y-73587873D01*
X67168887Y-73568020D01*
X67081944Y-73549539D01*
X67081939Y-73549539D01*
X67075487Y-73548167D01*
X66884513Y-73548167D01*
X66878061Y-73549539D01*
X66878056Y-73549539D01*
X66791113Y-73568020D01*
X66697712Y-73587873D01*
X66691682Y-73590558D01*
X66691681Y-73590558D01*
X66529278Y-73662864D01*
X66529276Y-73662865D01*
X66523248Y-73665549D01*
X66368747Y-73777801D01*
X66364326Y-73782711D01*
X66364325Y-73782712D01*
X66249715Y-73910000D01*
X66240960Y-73919723D01*
X66145473Y-74085111D01*
X66086458Y-74266739D01*
X66085768Y-74273300D01*
X66085768Y-74273302D01*
X66078427Y-74343147D01*
X66066496Y-74456667D01*
X59757432Y-74456667D01*
X59757432Y-73230000D01*
X92566496Y-73230000D01*
X92567186Y-73236565D01*
X92582133Y-73378774D01*
X92586458Y-73419928D01*
X92645473Y-73601556D01*
X92740960Y-73766944D01*
X92745378Y-73771851D01*
X92745379Y-73771852D01*
X92788732Y-73820000D01*
X92868747Y-73908866D01*
X93023248Y-74021118D01*
X93029276Y-74023802D01*
X93029278Y-74023803D01*
X93185518Y-74093365D01*
X93197712Y-74098794D01*
X93291112Y-74118647D01*
X93378056Y-74137128D01*
X93378061Y-74137128D01*
X93384513Y-74138500D01*
X93575487Y-74138500D01*
X93581939Y-74137128D01*
X93581944Y-74137128D01*
X93668888Y-74118647D01*
X93762288Y-74098794D01*
X93778905Y-74091396D01*
X93812395Y-74076485D01*
X93882762Y-74067051D01*
X93947059Y-74097157D01*
X93957276Y-74107277D01*
X94048747Y-74208866D01*
X94203248Y-74321118D01*
X94209276Y-74323802D01*
X94209278Y-74323803D01*
X94371679Y-74396108D01*
X94377712Y-74398794D01*
X94471113Y-74418647D01*
X94558056Y-74437128D01*
X94558061Y-74437128D01*
X94564513Y-74438500D01*
X94755487Y-74438500D01*
X94761939Y-74437128D01*
X94761944Y-74437128D01*
X94848887Y-74418647D01*
X94942288Y-74398794D01*
X94948315Y-74396111D01*
X94948323Y-74396108D01*
X95096858Y-74329976D01*
X95167225Y-74320542D01*
X95222167Y-74343147D01*
X95343248Y-74431118D01*
X95349276Y-74433802D01*
X95349278Y-74433803D01*
X95511679Y-74506108D01*
X95517712Y-74508794D01*
X95611112Y-74528647D01*
X95698056Y-74547128D01*
X95698061Y-74547128D01*
X95704513Y-74548500D01*
X95895487Y-74548500D01*
X95901939Y-74547128D01*
X95901944Y-74547128D01*
X95988888Y-74528647D01*
X96082288Y-74508794D01*
X96088315Y-74506111D01*
X96088323Y-74506108D01*
X96127516Y-74488658D01*
X96197883Y-74479224D01*
X96252825Y-74501829D01*
X96315174Y-74547128D01*
X96403248Y-74611118D01*
X96409276Y-74613802D01*
X96409278Y-74613803D01*
X96571681Y-74686109D01*
X96577712Y-74688794D01*
X96671113Y-74708647D01*
X96758056Y-74727128D01*
X96758061Y-74727128D01*
X96764513Y-74728500D01*
X96955487Y-74728500D01*
X96961939Y-74727128D01*
X96961944Y-74727128D01*
X97048887Y-74708647D01*
X97142288Y-74688794D01*
X97148319Y-74686109D01*
X97310722Y-74613803D01*
X97310724Y-74613802D01*
X97316752Y-74611118D01*
X97471253Y-74498866D01*
X97599040Y-74356944D01*
X97694527Y-74191556D01*
X97753542Y-74009928D01*
X97773504Y-73820000D01*
X97763001Y-73720072D01*
X97754232Y-73636635D01*
X97754232Y-73636633D01*
X97753542Y-73630072D01*
X97694527Y-73448444D01*
X97599040Y-73283056D01*
X97557180Y-73236565D01*
X97475675Y-73146045D01*
X97475674Y-73146044D01*
X97471253Y-73141134D01*
X97316752Y-73028882D01*
X97310724Y-73026198D01*
X97310722Y-73026197D01*
X97148319Y-72953891D01*
X97148318Y-72953891D01*
X97142288Y-72951206D01*
X97048290Y-72931226D01*
X96961944Y-72912872D01*
X96961939Y-72912872D01*
X96955487Y-72911500D01*
X96764513Y-72911500D01*
X96758061Y-72912872D01*
X96758056Y-72912872D01*
X96671710Y-72931226D01*
X96577712Y-72951206D01*
X96571685Y-72953889D01*
X96571677Y-72953892D01*
X96532484Y-72971342D01*
X96462117Y-72980776D01*
X96407175Y-72958171D01*
X96262094Y-72852763D01*
X96262093Y-72852762D01*
X96256752Y-72848882D01*
X96250724Y-72846198D01*
X96250722Y-72846197D01*
X96088319Y-72773891D01*
X96088318Y-72773891D01*
X96082288Y-72771206D01*
X95988888Y-72751353D01*
X95901944Y-72732872D01*
X95901939Y-72732872D01*
X95895487Y-72731500D01*
X95704513Y-72731500D01*
X95698061Y-72732872D01*
X95698056Y-72732872D01*
X95611112Y-72751353D01*
X95517712Y-72771206D01*
X95511685Y-72773889D01*
X95511677Y-72773892D01*
X95363142Y-72840024D01*
X95292775Y-72849458D01*
X95237833Y-72826853D01*
X95122094Y-72742763D01*
X95122093Y-72742762D01*
X95116752Y-72738882D01*
X95110724Y-72736198D01*
X95110722Y-72736197D01*
X94948319Y-72663891D01*
X94948318Y-72663891D01*
X94942288Y-72661206D01*
X94827623Y-72636833D01*
X94761944Y-72622872D01*
X94761939Y-72622872D01*
X94755487Y-72621500D01*
X94564513Y-72621500D01*
X94558061Y-72622872D01*
X94558056Y-72622872D01*
X94492377Y-72636833D01*
X94377712Y-72661206D01*
X94371682Y-72663891D01*
X94371681Y-72663891D01*
X94327605Y-72683515D01*
X94257238Y-72692949D01*
X94192941Y-72662843D01*
X94182720Y-72652719D01*
X94091253Y-72551134D01*
X93951251Y-72449416D01*
X93942094Y-72442763D01*
X93942093Y-72442762D01*
X93936752Y-72438882D01*
X93930724Y-72436198D01*
X93930722Y-72436197D01*
X93768319Y-72363891D01*
X93768318Y-72363891D01*
X93762288Y-72361206D01*
X93668887Y-72341353D01*
X93581944Y-72322872D01*
X93581939Y-72322872D01*
X93575487Y-72321500D01*
X93384513Y-72321500D01*
X93378061Y-72322872D01*
X93378056Y-72322872D01*
X93291113Y-72341353D01*
X93197712Y-72361206D01*
X93191682Y-72363891D01*
X93191681Y-72363891D01*
X93029278Y-72436197D01*
X93029276Y-72436198D01*
X93023248Y-72438882D01*
X93017907Y-72442762D01*
X93017906Y-72442763D01*
X93008749Y-72449416D01*
X92868747Y-72551134D01*
X92864329Y-72556041D01*
X92864325Y-72556045D01*
X92758303Y-72673795D01*
X92740960Y-72693056D01*
X92714502Y-72738882D01*
X92650994Y-72848882D01*
X92645473Y-72858444D01*
X92586458Y-73040072D01*
X92585768Y-73046633D01*
X92585768Y-73046635D01*
X92579650Y-73104849D01*
X92566496Y-73230000D01*
X59757432Y-73230000D01*
X59757432Y-71766667D01*
X66066496Y-71766667D01*
X66086458Y-71956595D01*
X66145473Y-72138223D01*
X66240960Y-72303611D01*
X66245378Y-72308518D01*
X66245379Y-72308519D01*
X66291583Y-72359834D01*
X66368747Y-72445533D01*
X66467843Y-72517531D01*
X66514094Y-72551134D01*
X66523248Y-72557785D01*
X66529276Y-72560469D01*
X66529278Y-72560470D01*
X66691681Y-72632776D01*
X66697712Y-72635461D01*
X66778904Y-72652719D01*
X66878056Y-72673795D01*
X66878061Y-72673795D01*
X66884513Y-72675167D01*
X67075487Y-72675167D01*
X67081939Y-72673795D01*
X67081944Y-72673795D01*
X67181096Y-72652719D01*
X67262288Y-72635461D01*
X67268319Y-72632776D01*
X67430722Y-72560470D01*
X67430724Y-72560469D01*
X67436752Y-72557785D01*
X67445907Y-72551134D01*
X67492157Y-72517531D01*
X67591253Y-72445533D01*
X67668417Y-72359834D01*
X67714621Y-72308519D01*
X67714622Y-72308518D01*
X67719040Y-72303611D01*
X67814527Y-72138223D01*
X67873542Y-71956595D01*
X67893504Y-71766667D01*
X67888718Y-71721134D01*
X67874232Y-71583302D01*
X67874232Y-71583300D01*
X67873542Y-71576739D01*
X67814527Y-71395111D01*
X67719040Y-71229723D01*
X67658737Y-71162749D01*
X67595675Y-71092712D01*
X67595674Y-71092711D01*
X67591253Y-71087801D01*
X67436752Y-70975549D01*
X67430724Y-70972865D01*
X67430722Y-70972864D01*
X67268319Y-70900558D01*
X67268318Y-70900558D01*
X67262288Y-70897873D01*
X67168887Y-70878020D01*
X67081944Y-70859539D01*
X67081939Y-70859539D01*
X67075487Y-70858167D01*
X66884513Y-70858167D01*
X66878061Y-70859539D01*
X66878056Y-70859539D01*
X66791113Y-70878020D01*
X66697712Y-70897873D01*
X66691682Y-70900558D01*
X66691681Y-70900558D01*
X66529278Y-70972864D01*
X66529276Y-70972865D01*
X66523248Y-70975549D01*
X66368747Y-71087801D01*
X66364326Y-71092711D01*
X66364325Y-71092712D01*
X66301264Y-71162749D01*
X66240960Y-71229723D01*
X66145473Y-71395111D01*
X66086458Y-71576739D01*
X66085768Y-71583300D01*
X66085768Y-71583302D01*
X66071282Y-71721134D01*
X66066496Y-71766667D01*
X59757432Y-71766667D01*
X59757432Y-70480000D01*
X72226496Y-70480000D01*
X72246458Y-70669928D01*
X72305473Y-70851556D01*
X72400960Y-71016944D01*
X72405378Y-71021851D01*
X72405379Y-71021852D01*
X72464760Y-71087801D01*
X72528747Y-71158866D01*
X72683248Y-71271118D01*
X72689276Y-71273802D01*
X72689278Y-71273803D01*
X72706692Y-71281556D01*
X72857712Y-71348794D01*
X72951112Y-71368647D01*
X73038056Y-71387128D01*
X73038061Y-71387128D01*
X73044513Y-71388500D01*
X73235487Y-71388500D01*
X73241939Y-71387128D01*
X73241944Y-71387128D01*
X73328888Y-71368647D01*
X73422288Y-71348794D01*
X73573308Y-71281556D01*
X73590722Y-71273803D01*
X73590724Y-71273802D01*
X73596752Y-71271118D01*
X73751253Y-71158866D01*
X73815240Y-71087801D01*
X73874621Y-71021852D01*
X73874622Y-71021851D01*
X73879040Y-71016944D01*
X73974527Y-70851556D01*
X74033542Y-70669928D01*
X74053504Y-70480000D01*
X74047247Y-70420469D01*
X74034232Y-70296635D01*
X74034232Y-70296633D01*
X74033542Y-70290072D01*
X73974527Y-70108444D01*
X73879040Y-69943056D01*
X73807681Y-69863803D01*
X73755675Y-69806045D01*
X73755674Y-69806044D01*
X73751253Y-69801134D01*
X73637544Y-69718519D01*
X73602094Y-69692763D01*
X73602093Y-69692762D01*
X73596752Y-69688882D01*
X73590724Y-69686198D01*
X73590722Y-69686197D01*
X73428319Y-69613891D01*
X73428318Y-69613891D01*
X73422288Y-69611206D01*
X73328888Y-69591353D01*
X73241944Y-69572872D01*
X73241939Y-69572872D01*
X73235487Y-69571500D01*
X73044513Y-69571500D01*
X73038061Y-69572872D01*
X73038056Y-69572872D01*
X72951112Y-69591353D01*
X72857712Y-69611206D01*
X72851682Y-69613891D01*
X72851681Y-69613891D01*
X72689278Y-69686197D01*
X72689276Y-69686198D01*
X72683248Y-69688882D01*
X72677907Y-69692762D01*
X72677906Y-69692763D01*
X72642456Y-69718519D01*
X72528747Y-69801134D01*
X72524326Y-69806044D01*
X72524325Y-69806045D01*
X72472320Y-69863803D01*
X72400960Y-69943056D01*
X72305473Y-70108444D01*
X72246458Y-70290072D01*
X72245768Y-70296633D01*
X72245768Y-70296635D01*
X72232753Y-70420469D01*
X72226496Y-70480000D01*
X59757432Y-70480000D01*
X59757432Y-69176667D01*
X66046496Y-69176667D01*
X66047186Y-69183232D01*
X66050361Y-69213436D01*
X66066458Y-69366595D01*
X66125473Y-69548223D01*
X66220960Y-69713611D01*
X66348747Y-69855533D01*
X66360130Y-69863803D01*
X66469212Y-69943056D01*
X66503248Y-69967785D01*
X66509276Y-69970469D01*
X66509278Y-69970470D01*
X66617859Y-70018813D01*
X66677712Y-70045461D01*
X66771113Y-70065314D01*
X66858056Y-70083795D01*
X66858061Y-70083795D01*
X66864513Y-70085167D01*
X67055487Y-70085167D01*
X67061939Y-70083795D01*
X67061944Y-70083795D01*
X67148887Y-70065314D01*
X67242288Y-70045461D01*
X67302141Y-70018813D01*
X67410722Y-69970470D01*
X67410724Y-69970469D01*
X67416752Y-69967785D01*
X67450789Y-69943056D01*
X67559870Y-69863803D01*
X67571253Y-69855533D01*
X67699040Y-69713611D01*
X67794527Y-69548223D01*
X67853542Y-69366595D01*
X67869640Y-69213436D01*
X67872814Y-69183232D01*
X67873504Y-69176667D01*
X67866553Y-69110528D01*
X67854232Y-68993302D01*
X67854232Y-68993300D01*
X67853542Y-68986739D01*
X67794527Y-68805111D01*
X67699040Y-68639723D01*
X67667640Y-68604849D01*
X67575675Y-68502712D01*
X67575674Y-68502711D01*
X67571253Y-68497801D01*
X67434430Y-68398393D01*
X67422094Y-68389430D01*
X67422093Y-68389429D01*
X67416752Y-68385549D01*
X67410724Y-68382865D01*
X67410722Y-68382864D01*
X67248319Y-68310558D01*
X67248318Y-68310558D01*
X67242288Y-68307873D01*
X67142038Y-68286564D01*
X67061944Y-68269539D01*
X67061939Y-68269539D01*
X67055487Y-68268167D01*
X66864513Y-68268167D01*
X66858061Y-68269539D01*
X66858056Y-68269539D01*
X66777962Y-68286564D01*
X66677712Y-68307873D01*
X66671682Y-68310558D01*
X66671681Y-68310558D01*
X66509278Y-68382864D01*
X66509276Y-68382865D01*
X66503248Y-68385549D01*
X66497907Y-68389429D01*
X66497906Y-68389430D01*
X66485570Y-68398393D01*
X66348747Y-68497801D01*
X66344326Y-68502711D01*
X66344325Y-68502712D01*
X66252361Y-68604849D01*
X66220960Y-68639723D01*
X66125473Y-68805111D01*
X66066458Y-68986739D01*
X66065768Y-68993300D01*
X66065768Y-68993302D01*
X66053447Y-69110528D01*
X66046496Y-69176667D01*
X59757432Y-69176667D01*
X59757432Y-66166000D01*
X59777434Y-66097879D01*
X59831090Y-66051386D01*
X59883432Y-66040000D01*
X65959703Y-66040000D01*
X66027824Y-66060002D01*
G37*
%TD.AperFunction*%
%TD*%
M02*
