%TF.GenerationSoftware,KiCad,Pcbnew,7.0.1*%
%TF.CreationDate,2023-05-29T11:52:31-05:00*%
%TF.ProjectId,bitaxeMax,62697461-7865-44d6-9178-2e6b69636164,rev?*%
%TF.SameCoordinates,Original*%
%TF.FileFunction,Copper,L4,Bot*%
%TF.FilePolarity,Positive*%
%FSLAX46Y46*%
G04 Gerber Fmt 4.6, Leading zero omitted, Abs format (unit mm)*
G04 Created by KiCad (PCBNEW 7.0.1) date 2023-05-29 11:52:31*
%MOMM*%
%LPD*%
G01*
G04 APERTURE LIST*
G04 Aperture macros list*
%AMRoundRect*
0 Rectangle with rounded corners*
0 $1 Rounding radius*
0 $2 $3 $4 $5 $6 $7 $8 $9 X,Y pos of 4 corners*
0 Add a 4 corners polygon primitive as box body*
4,1,4,$2,$3,$4,$5,$6,$7,$8,$9,$2,$3,0*
0 Add four circle primitives for the rounded corners*
1,1,$1+$1,$2,$3*
1,1,$1+$1,$4,$5*
1,1,$1+$1,$6,$7*
1,1,$1+$1,$8,$9*
0 Add four rect primitives between the rounded corners*
20,1,$1+$1,$2,$3,$4,$5,0*
20,1,$1+$1,$4,$5,$6,$7,0*
20,1,$1+$1,$6,$7,$8,$9,0*
20,1,$1+$1,$8,$9,$2,$3,0*%
G04 Aperture macros list end*
%TA.AperFunction,ComponentPad*%
%ADD10C,0.500000*%
%TD*%
%TA.AperFunction,ComponentPad*%
%ADD11C,0.400000*%
%TD*%
%TA.AperFunction,ComponentPad*%
%ADD12C,1.574800*%
%TD*%
%TA.AperFunction,ComponentPad*%
%ADD13R,1.700000X1.700000*%
%TD*%
%TA.AperFunction,ComponentPad*%
%ADD14O,1.700000X1.700000*%
%TD*%
%TA.AperFunction,ComponentPad*%
%ADD15C,2.520000*%
%TD*%
%TA.AperFunction,SMDPad,CuDef*%
%ADD16R,0.900000X1.500000*%
%TD*%
%TA.AperFunction,SMDPad,CuDef*%
%ADD17R,1.500000X0.900000*%
%TD*%
%TA.AperFunction,SMDPad,CuDef*%
%ADD18R,0.900000X0.900000*%
%TD*%
%TA.AperFunction,ConnectorPad*%
%ADD19C,0.787400*%
%TD*%
%TA.AperFunction,SMDPad,CuDef*%
%ADD20R,1.193800X0.711200*%
%TD*%
%TA.AperFunction,SMDPad,CuDef*%
%ADD21RoundRect,0.250000X-0.550000X1.500000X-0.550000X-1.500000X0.550000X-1.500000X0.550000X1.500000X0*%
%TD*%
%TA.AperFunction,SMDPad,CuDef*%
%ADD22R,0.457200X2.997200*%
%TD*%
%TA.AperFunction,ViaPad*%
%ADD23C,0.800000*%
%TD*%
%TA.AperFunction,ViaPad*%
%ADD24C,1.000000*%
%TD*%
%TA.AperFunction,ViaPad*%
%ADD25C,1.200000*%
%TD*%
%TA.AperFunction,Conductor*%
%ADD26C,0.254000*%
%TD*%
%TA.AperFunction,Conductor*%
%ADD27C,0.508000*%
%TD*%
%TA.AperFunction,Conductor*%
%ADD28C,1.000000*%
%TD*%
G04 APERTURE END LIST*
D10*
%TO.P,U2,16,GND*%
%TO.N,GND*%
X116324000Y-99576000D03*
%TO.P,U2,17,GND*%
X116324000Y-100576000D03*
%TO.P,U2,18,GND*%
X115324000Y-100576000D03*
%TO.P,U2,19,GND*%
X115324000Y-99576000D03*
%TD*%
D11*
%TO.P,U9,11,GND*%
%TO.N,GND*%
X98201691Y-68847200D03*
X99151691Y-69422200D03*
X97251691Y-69422200D03*
X98201691Y-69997200D03*
%TD*%
D12*
%TO.P,J4,1,Pin_1*%
%TO.N,GND*%
X89524400Y-159275851D03*
%TO.P,J4,2,Pin_2*%
%TO.N,/5V*%
X92064400Y-159275851D03*
%TO.P,J4,3,Pin_3*%
%TO.N,/Fan/FAN_TACH*%
X94604400Y-159275851D03*
%TO.P,J4,4,Pin_4*%
%TO.N,/Fan/FAN_PWM*%
X97144400Y-159275851D03*
%TD*%
D13*
%TO.P,J9,1,Pin_1*%
%TO.N,GND*%
X84859000Y-50049000D03*
D14*
%TO.P,J9,2,Pin_2*%
%TO.N,/3V3*%
X84859000Y-52589000D03*
%TO.P,J9,3,Pin_3*%
%TO.N,/SCL*%
X84859000Y-55129000D03*
%TO.P,J9,4,Pin_4*%
%TO.N,/SDA*%
X84859000Y-57669000D03*
%TD*%
D15*
%TO.P,J2,1,Pin_1*%
%TO.N,GND*%
X85190000Y-63390000D03*
X80110000Y-63390000D03*
%TD*%
%TO.P,J1,1,Pin_1*%
%TO.N,/Power/VIN*%
X85190000Y-70810000D03*
X80110000Y-70810000D03*
%TD*%
D13*
%TO.P,J6,1,Pin_1*%
%TO.N,/BI*%
X101626000Y-49799000D03*
D14*
%TO.P,J6,2,Pin_2*%
%TO.N,/RST*%
X104166000Y-49799000D03*
%TO.P,J6,3,Pin_3*%
%TO.N,/RX*%
X106706000Y-49799000D03*
%TO.P,J6,4,Pin_4*%
%TO.N,/TX*%
X109246000Y-49799000D03*
%TO.P,J6,5,Pin_5*%
%TO.N,/SDA*%
X111786000Y-49799000D03*
%TO.P,J6,6,Pin_6*%
%TO.N,/SCL*%
X114326000Y-49799000D03*
%TO.P,J6,7,Pin_7*%
%TO.N,/3V3*%
X116866000Y-49799000D03*
%TO.P,J6,8,Pin_8*%
%TO.N,GND*%
X119406000Y-49799000D03*
%TD*%
D13*
%TO.P,J7,1,Pin_1*%
%TO.N,/Power/VIN*%
X83000000Y-76540000D03*
D14*
%TO.P,J7,2,Pin_2*%
%TO.N,/5V*%
X85540000Y-76540000D03*
%TD*%
D13*
%TO.P,J3,1,Pin_1*%
%TO.N,/BM1397/1V8*%
X109875000Y-159292000D03*
D14*
%TO.P,J3,2,Pin_2*%
%TO.N,/BM1397/CI*%
X112415000Y-159292000D03*
%TO.P,J3,3,Pin_3*%
%TO.N,/BM1397/RO*%
X114955000Y-159292000D03*
%TO.P,J3,4,Pin_4*%
%TO.N,/BM1397/RST_N*%
X117495000Y-159292000D03*
%TO.P,J3,5,Pin_5*%
%TO.N,GND*%
X120035000Y-159292000D03*
%TD*%
D16*
%TO.P,U12,1,GND*%
%TO.N,GND*%
X131870000Y-81710000D03*
%TO.P,U12,2,3V3*%
%TO.N,/3V3*%
X130600000Y-81710000D03*
%TO.P,U12,3,EN*%
%TO.N,/ESP32/EN*%
X129330000Y-81710000D03*
%TO.P,U12,4,GPIO4/TOUCH4/ADC1_CH3*%
%TO.N,unconnected-(U12-GPIO4{slash}TOUCH4{slash}ADC1_CH3-Pad4)*%
X128060000Y-81710000D03*
%TO.P,U12,5,GPIO5/TOUCH5/ADC1_CH4*%
%TO.N,/ESP32/LEDZ_R*%
X126790000Y-81710000D03*
%TO.P,U12,6,GPIO6/TOUCH6/ADC1_CH5*%
%TO.N,/ESP32/LEDZ_G*%
X125520000Y-81710000D03*
%TO.P,U12,7,GPIO7/TOUCH7/ADC1_CH6*%
%TO.N,/ESP32/LEDZ_B*%
X124250000Y-81710000D03*
%TO.P,U12,8,GPIO15/U0RTS/ADC2_CH4/XTAL_32K_P*%
%TO.N,/ESP32/XIN32*%
X122980000Y-81710000D03*
%TO.P,U12,9,GPIO16/U0CTS/ADC2_CH5/XTAL_32K_NH5*%
%TO.N,/ESP32/XOUT32*%
X121710000Y-81710000D03*
%TO.P,U12,10,GPIO17/U1TXD/ADC2_CH6*%
%TO.N,/TX*%
X120440000Y-81710000D03*
%TO.P,U12,11,GPIO18/U1RXD/ADC2_CH7/CLK_OUT3*%
%TO.N,/RX*%
X119170000Y-81710000D03*
%TO.P,U12,12,GPIO8/TOUCH8/ADC1_CH7/SUBSPICS1*%
%TO.N,unconnected-(U12-GPIO8{slash}TOUCH8{slash}ADC1_CH7{slash}SUBSPICS1-Pad12)*%
X117900000Y-81710000D03*
%TO.P,U12,13,GPIO19/U1RTS/ADC2_CH8/CLK_OUT2/USB_D-*%
%TO.N,/BM1397/CLKI*%
X116630000Y-81710000D03*
%TO.P,U12,14,GPIO20/U1CTS/ADC2_CH9/CLK_OUT1/USB_D+*%
%TO.N,unconnected-(U12-GPIO20{slash}U1CTS{slash}ADC2_CH9{slash}CLK_OUT1{slash}USB_D+-Pad14)*%
X115360000Y-81710000D03*
D17*
%TO.P,U12,15,GPIO3/TOUCH3/ADC1_CH2\u002A*%
%TO.N,Net-(JP4-C)*%
X114110000Y-79945000D03*
%TO.P,U12,16,\u002AGPIO46*%
%TO.N,unconnected-(U12-\u002AGPIO46-Pad16)*%
X114110000Y-78675000D03*
%TO.P,U12,17,GPIO9/TOUCH9/ADC1_CH8/FSPIHD/SUBSPIHD*%
%TO.N,unconnected-(U12-GPIO9{slash}TOUCH9{slash}ADC1_CH8{slash}FSPIHD{slash}SUBSPIHD-Pad17)*%
X114110000Y-77405000D03*
%TO.P,U12,18,GPIO10/TOUCH10/ADC1_CH9/FSPICS0/FSPIIO4/SUBSPICS0*%
%TO.N,/BI*%
X114110000Y-76135000D03*
%TO.P,U12,19,GPIO11/TOUCH11/ADC2_CH0/FSPID/FSPIIO5/SUBSPID*%
%TO.N,/Power/PGOOD*%
X114110000Y-74865000D03*
%TO.P,U12,20,GPIO12/TOUCH12/ADC2_CH1/FSPICLK/FSPIIO6/SUBSPICLK*%
%TO.N,/ESP32/FAN_ALERT*%
X114110000Y-73595000D03*
%TO.P,U12,21,GPIO13/TOUCH13/ADC2_CH2/FSPIQ/FSPIIO7/SUBSPIQ*%
%TO.N,unconnected-(U12-GPIO13{slash}TOUCH13{slash}ADC2_CH2{slash}FSPIQ{slash}FSPIIO7{slash}SUBSPIQ-Pad21)*%
X114110000Y-72325000D03*
%TO.P,U12,22,GPIO14/TOUCH14/ADC2_CH3/FSPIWP/FSPIDQS/SUBSPIWP*%
%TO.N,unconnected-(U12-GPIO14{slash}TOUCH14{slash}ADC2_CH3{slash}FSPIWP{slash}FSPIDQS{slash}SUBSPIWP-Pad22)*%
X114110000Y-71055000D03*
%TO.P,U12,23,GPIO21*%
%TO.N,unconnected-(U12-GPIO21-Pad23)*%
X114110000Y-69785000D03*
%TO.P,U12,24,GPIO47/SPICLK_P/SUBSPICLK_P_DIFF*%
%TO.N,/SDA*%
X114110000Y-68515000D03*
%TO.P,U12,25,GPIO48/SPICLK_N/SUBSPICLK_N_DIFF*%
%TO.N,/SCL*%
X114110000Y-67245000D03*
%TO.P,U12,26,\u002AGPIO45*%
%TO.N,unconnected-(U12-\u002AGPIO45-Pad26)*%
X114110000Y-65975000D03*
D16*
%TO.P,U12,27,GPIO0/BOOT\u002A*%
%TO.N,/ESP32/IO0*%
X115360000Y-64210000D03*
%TO.P,U12,28,SPIIO6/GPIO35/FSPID/SUBSPID*%
%TO.N,/ESP32/LEDX_R*%
X116630000Y-64210000D03*
%TO.P,U12,29,SPIIO7/GPIO36/FSPICLK/SUBSPICLK*%
%TO.N,/ESP32/LEDX_G*%
X117900000Y-64210000D03*
%TO.P,U12,30,SPIDQS/GPIO37/FSPIQ/SUBSPIQ*%
%TO.N,/ESP32/LEDX_B*%
X119170000Y-64210000D03*
%TO.P,U12,31,GPIO38/FSPIWP/SUBSPIWP*%
%TO.N,unconnected-(U12-GPIO38{slash}FSPIWP{slash}SUBSPIWP-Pad31)*%
X120440000Y-64210000D03*
%TO.P,U12,32,MTCK/GPIO39/CLK_OUT3/SUBSPICS1*%
%TO.N,/ESP32/MTCK*%
X121710000Y-64210000D03*
%TO.P,U12,33,MTDO/GPIO40/CLK_OUT2*%
%TO.N,/ESP32/MTDO*%
X122980000Y-64210000D03*
%TO.P,U12,34,MTDI/GPIO41/CLK_OUT1*%
%TO.N,/ESP32/MTDI*%
X124250000Y-64210000D03*
%TO.P,U12,35,MTMS/GPIO42*%
%TO.N,/ESP32/MTMS*%
X125520000Y-64210000D03*
%TO.P,U12,36,U0RXD/GPIO44/CLK_OUT2*%
%TO.N,/ESP32/P_RX*%
X126790000Y-64210000D03*
%TO.P,U12,37,U0TXD/GPIO43/CLK_OUT1*%
%TO.N,/ESP32/P_TX*%
X128060000Y-64210000D03*
%TO.P,U12,38,GPIO2/TOUCH2/ADC1_CH1*%
%TO.N,/VDD*%
X129330000Y-64210000D03*
%TO.P,U12,39,GPIO1/TOUCH1/ADC1_CH0*%
%TO.N,/RST*%
X130600000Y-64210000D03*
%TO.P,U12,40,GND*%
%TO.N,GND*%
X131870000Y-64210000D03*
D18*
%TO.P,U12,41,GND*%
X122750000Y-75860000D03*
X124150000Y-75860000D03*
X125550000Y-75860000D03*
X122750000Y-74460000D03*
X124150000Y-74460000D03*
X125550000Y-74460000D03*
X122750000Y-73060000D03*
X124150000Y-73060000D03*
X125550000Y-73060000D03*
%TD*%
D14*
%TO.P,IC1,34,VSS_0*%
%TO.N,GND*%
X124460000Y-141578000D03*
D13*
X124460000Y-144118000D03*
D14*
%TO.P,IC1,33,VDD*%
%TO.N,/VDD*%
X87460000Y-100938000D03*
X87460000Y-103478000D03*
%TO.P,IC1,32,VDD3_1*%
%TO.N,Net-(IC1-VDD3_1)*%
X87460000Y-106018000D03*
%TO.P,IC1,31,VDD2_1*%
%TO.N,Net-(IC1-VDD2_1)*%
X87460000Y-108558000D03*
%TO.P,IC1,30,VDD1_1*%
%TO.N,Net-(IC1-VDD1_1)*%
X87460000Y-111098000D03*
%TO.P,IC1,29,BO*%
%TO.N,Net-(IC1-BO)*%
X87460000Y-113638000D03*
%TO.P,IC1,28,NRSTO*%
%TO.N,Net-(IC1-NRSTO)*%
X87460000Y-116178000D03*
%TO.P,IC1,27,RI*%
%TO.N,Net-(IC1-RI)*%
X87460000Y-118718000D03*
%TO.P,IC1,26,CO*%
%TO.N,Net-(IC1-CO)*%
X87460000Y-121258000D03*
%TO.P,IC1,25,CLKO*%
%TO.N,Net-(IC1-CLKO)*%
X87460000Y-123798000D03*
%TO.P,IC1,24,TF*%
%TO.N,unconnected-(IC1-TF-Pad24)*%
X87460000Y-126338000D03*
%TO.P,IC1,23,RF*%
%TO.N,unconnected-(IC1-RF-Pad23)*%
X87460000Y-128878000D03*
%TO.P,IC1,22,TEMP_P*%
%TO.N,/TEMP_P*%
X87460000Y-131418000D03*
%TO.P,IC1,21,TEMP_N*%
%TO.N,/TEMP_N*%
X87460000Y-133958000D03*
%TO.P,IC1,20,PIN_MODE*%
%TO.N,Net-(IC1-PIN_MODE)*%
X87460000Y-136498000D03*
%TO.P,IC1,19,VSS*%
%TO.N,GND*%
X87460000Y-139038000D03*
%TO.P,IC1,18,VDDIO_08_1*%
%TO.N,/BM1397/0V8*%
X87460000Y-141578000D03*
D13*
%TO.P,IC1,17,VDDIO_18_1*%
%TO.N,/BM1397/1V8*%
X87460000Y-144118000D03*
D14*
%TO.P,IC1,16,VDDIO_18_0*%
X124460000Y-139038000D03*
%TO.P,IC1,15,VDDIO_08_0*%
%TO.N,/BM1397/0V8*%
X124460000Y-136498000D03*
%TO.P,IC1,14,PLL_VDD*%
X124460000Y-133958000D03*
%TO.P,IC1,13,PLL_VSS*%
%TO.N,GND*%
X124460000Y-131418000D03*
%TO.P,IC1,12,CLKI*%
%TO.N,/BM1397/BM_CLKI*%
X124460000Y-128878000D03*
%TO.P,IC1,11,CI*%
%TO.N,Net-(IC1-CI)*%
X124460000Y-126338000D03*
%TO.P,IC1,10,RO*%
%TO.N,Net-(IC1-RO)*%
X124460000Y-123798000D03*
%TO.P,IC1,9,NRSTI*%
%TO.N,/BM1397/RST_N*%
X124460000Y-121258000D03*
%TO.P,IC1,8,BI*%
%TO.N,/BM1397/BM_BI*%
X124460000Y-118718000D03*
%TO.P,IC1,7,TEST*%
%TO.N,unconnected-(IC1-TEST-Pad7)*%
X124460000Y-116178000D03*
%TO.P,IC1,6,ADDR2*%
%TO.N,Net-(IC1-ADDR2)*%
X124460000Y-113638000D03*
%TO.P,IC1,5,ADDR1*%
%TO.N,Net-(IC1-ADDR1)*%
X124460000Y-111098000D03*
%TO.P,IC1,4,ADDR0*%
%TO.N,Net-(IC1-ADDR0)*%
X124460000Y-108558000D03*
%TO.P,IC1,3,VDD1_0*%
%TO.N,Net-(IC1-VDD1_0)*%
X124460000Y-106018000D03*
%TO.P,IC1,2,VDD2_0*%
%TO.N,Net-(IC1-VDD2_0)*%
X124460000Y-103478000D03*
%TO.P,IC1,1,VDD3_0*%
%TO.N,Net-(IC1-VDD3_0)*%
X124460000Y-100938000D03*
%TD*%
D19*
%TO.P,J5,1,Pin_1*%
%TO.N,/ESP32/EN*%
X129400000Y-58365000D03*
%TO.P,J5,2,Pin_2*%
%TO.N,/3V3*%
X129400000Y-57095000D03*
%TO.P,J5,3,Pin_3*%
%TO.N,/ESP32/P_TX*%
X128130000Y-58365000D03*
%TO.P,J5,4,Pin_4*%
%TO.N,GND*%
X128130000Y-57095000D03*
%TO.P,J5,5,Pin_5*%
%TO.N,/ESP32/P_RX*%
X126860000Y-58365000D03*
%TO.P,J5,6,Pin_6*%
%TO.N,/ESP32/IO0*%
X126860000Y-57095000D03*
%TD*%
D20*
%TO.P,U13,1,BC*%
%TO.N,GND*%
X112698247Y-54179999D03*
%TO.P,U13,2,GC*%
X112698247Y-55180000D03*
%TO.P,U13,3,RC*%
X112698247Y-56180001D03*
%TO.P,U13,4,RA*%
%TO.N,Net-(U13-RA)*%
X109574047Y-56180001D03*
%TO.P,U13,5,GA*%
%TO.N,Net-(U13-GA)*%
X109574047Y-55180000D03*
%TO.P,U13,6,BA*%
%TO.N,Net-(U13-BA)*%
X109574047Y-54179999D03*
%TD*%
D21*
%TO.P,C28,1*%
%TO.N,/5V*%
X103505000Y-155702000D03*
%TO.P,C28,2*%
%TO.N,GND*%
X103505000Y-161102000D03*
%TD*%
D22*
%TO.P,J10,1,1*%
%TO.N,/3V3*%
X131285000Y-90882000D03*
%TO.P,J10,2,2*%
%TO.N,/ESP32/MTMS*%
X131285000Y-87326000D03*
%TO.P,J10,3,3*%
%TO.N,GND*%
X130015000Y-90882000D03*
%TO.P,J10,4,4*%
%TO.N,/ESP32/MTCK*%
X130015000Y-87326000D03*
%TO.P,J10,5,5*%
%TO.N,GND*%
X128745000Y-90882000D03*
%TO.P,J10,6,6*%
%TO.N,/ESP32/MTDO*%
X128745000Y-87326000D03*
%TO.P,J10,7,7*%
%TO.N,GND*%
X127475000Y-90882000D03*
%TO.P,J10,8,8*%
%TO.N,/ESP32/MTDI*%
X127475000Y-87326000D03*
%TO.P,J10,9,9*%
%TO.N,GND*%
X126205000Y-90882000D03*
%TO.P,J10,10,10*%
%TO.N,unconnected-(J10-Pad10)*%
X126205000Y-87326000D03*
%TD*%
D20*
%TO.P,U4,1,BC*%
%TO.N,GND*%
X101864394Y-54209999D03*
%TO.P,U4,2,GC*%
X101864394Y-55210000D03*
%TO.P,U4,3,RC*%
X101864394Y-56210001D03*
%TO.P,U4,4,RA*%
%TO.N,Net-(U4-RA)*%
X98740194Y-56210001D03*
%TO.P,U4,5,GA*%
%TO.N,Net-(U4-GA)*%
X98740194Y-55210000D03*
%TO.P,U4,6,BA*%
%TO.N,Net-(U4-BA)*%
X98740194Y-54209999D03*
%TD*%
D23*
%TO.N,GND*%
X80410000Y-139600000D03*
X78090000Y-82060000D03*
X100850600Y-73131400D03*
X116910000Y-128990000D03*
D24*
X126719000Y-75842000D03*
D23*
X97320000Y-93500000D03*
X131300000Y-62500000D03*
X125984000Y-155956000D03*
X116078000Y-116459000D03*
X97320000Y-87878600D03*
X100580000Y-87270000D03*
X97320000Y-84830000D03*
X98860000Y-84830000D03*
X114230000Y-55160000D03*
X102870000Y-115590000D03*
X98447000Y-141981000D03*
X98860000Y-93500000D03*
X112127000Y-72909100D03*
X106450000Y-116920000D03*
X128120000Y-55550000D03*
X95400600Y-69431400D03*
D24*
X103505000Y-163482000D03*
D23*
X94890000Y-62470000D03*
X97320000Y-86310000D03*
X80660000Y-87760000D03*
X97320000Y-89650000D03*
X126238000Y-95758000D03*
D24*
X126719000Y-74372000D03*
D23*
X102108000Y-120904000D03*
X90360055Y-101249945D03*
X94473900Y-140345000D03*
X98860000Y-91520000D03*
X117730000Y-123190000D03*
X121210000Y-74547000D03*
X98860000Y-86310000D03*
X97320000Y-91520000D03*
X102570000Y-57250000D03*
X94426000Y-130811000D03*
X115749000Y-66446000D03*
X114046000Y-95377000D03*
X112512000Y-61250000D03*
X101854000Y-131318000D03*
X98860000Y-89650000D03*
X104630000Y-116950000D03*
X86970000Y-82770000D03*
D24*
X126719000Y-73012000D03*
D23*
X107917500Y-138920000D03*
X107017500Y-136840000D03*
X108120000Y-115580000D03*
D24*
X132450000Y-84290000D03*
D23*
X109347000Y-120904000D03*
X98860000Y-87878600D03*
X83089194Y-128660806D03*
X96840000Y-98140000D03*
X92910000Y-102990000D03*
X115951000Y-110490000D03*
X100580000Y-85521400D03*
%TO.N,/BM1397/1V8*%
X113030000Y-132080000D03*
X114427000Y-97155000D03*
X112903000Y-139065000D03*
X98320000Y-123300000D03*
X117602000Y-102235000D03*
%TO.N,/BM1397/0V8*%
X90487500Y-142176500D03*
X106117500Y-134090000D03*
X106426000Y-123698000D03*
%TO.N,/VDD*%
X110361000Y-82986000D03*
X115517000Y-67970000D03*
D24*
X103332000Y-103605000D03*
D25*
X107870000Y-90540000D03*
X107910000Y-92670000D03*
D23*
X108330000Y-104270000D03*
D25*
X103378000Y-111506000D03*
D23*
X103000000Y-62838100D03*
D25*
X108458000Y-111379000D03*
X107910000Y-94640000D03*
X105880000Y-90540000D03*
X105880000Y-88500000D03*
X107850000Y-88520000D03*
X105930000Y-94670000D03*
X105900000Y-92650000D03*
D23*
%TO.N,/ESP32/EN*%
X132665000Y-68760000D03*
X129348000Y-80241000D03*
%TO.N,/5V*%
X100470000Y-66770000D03*
X94365000Y-142363000D03*
X93599000Y-132588000D03*
D25*
X109323000Y-63360000D03*
D23*
X101037500Y-137800000D03*
X101473000Y-155735000D03*
%TO.N,/3V3*%
X115457000Y-62413000D03*
X116332000Y-94996000D03*
X129610000Y-55490000D03*
D24*
X129310000Y-83980000D03*
D23*
X112358000Y-81708000D03*
X110536000Y-72864000D03*
X131744000Y-76848000D03*
X98427000Y-143379100D03*
X83700000Y-87750000D03*
X80772000Y-128214000D03*
X94100000Y-97190000D03*
X120396000Y-94996000D03*
X82990000Y-85090000D03*
%TO.N,/TX*%
X115412000Y-84554000D03*
%TO.N,/RX*%
X113836000Y-83855000D03*
%TO.N,/BM1397/RST_N*%
X117549000Y-156036000D03*
X122174000Y-121285000D03*
X114046000Y-103759000D03*
X122174000Y-121285000D03*
X114300000Y-108839000D03*
%TO.N,/BM1397/CI*%
X115316000Y-119253000D03*
X113411000Y-104648000D03*
X112379000Y-155999000D03*
%TO.N,/RST*%
X120676000Y-54726000D03*
X121437000Y-70037900D03*
%TO.N,/BM1397/RO*%
X114919000Y-155999000D03*
X111760000Y-102616000D03*
X111760000Y-105791000D03*
X115316000Y-117856000D03*
%TO.N,/SCL*%
X120743000Y-68680100D03*
X85120000Y-86810000D03*
X83680594Y-126873000D03*
X109646000Y-67269000D03*
X86360000Y-91440000D03*
X89535000Y-97028000D03*
%TO.N,/Power/OUT0*%
X89308734Y-91153086D03*
X89730000Y-75310000D03*
%TO.N,Net-(U7-DP)*%
X94361000Y-120396000D03*
X82169000Y-132588000D03*
%TO.N,Net-(U7-DN)*%
X92456000Y-118110000D03*
X81534000Y-131826000D03*
%TO.N,/BI*%
X117717100Y-76139000D03*
X115546000Y-76073000D03*
%TO.N,Net-(U9-BOOT)*%
X95368800Y-71183600D03*
X95958800Y-74273600D03*
%TO.N,/ESP32/P_TX*%
X128060000Y-61549000D03*
%TO.N,/ESP32/P_RX*%
X124447000Y-61551000D03*
%TO.N,/ESP32/IO0*%
X124830000Y-55100000D03*
X122113000Y-68573000D03*
%TO.N,/ESP32/XIN32*%
X124019000Y-80080000D03*
%TO.N,/BM1397/CLKI*%
X117264000Y-79858000D03*
%TO.N,/ESP32/XOUT32*%
X121248000Y-80100000D03*
%TO.N,/Power/PGOOD*%
X108278900Y-71440000D03*
%TO.N,/ESP32/LEDX_B*%
X93950000Y-57520000D03*
%TO.N,/ESP32/FAN_ALERT*%
X111108000Y-81876000D03*
X108585000Y-132588000D03*
X110497000Y-73924000D03*
%TO.N,/ESP32/LEDZ_B*%
X116044000Y-70126000D03*
%TO.N,/ESP32/LEDX_G*%
X94129945Y-58660055D03*
%TO.N,/ESP32/LEDZ_G*%
X117097000Y-70138000D03*
%TO.N,/BM1397/BM_BI*%
X115062000Y-107950000D03*
X115062000Y-103759000D03*
%TO.N,/SDA*%
X108222000Y-68481000D03*
X117403141Y-73987441D03*
X84730000Y-85730000D03*
X88401100Y-91440000D03*
X82804000Y-139954000D03*
X90805000Y-96139000D03*
X90357445Y-62412445D03*
%TO.N,/ESP32/LEDX_R*%
X94319890Y-59810110D03*
%TO.N,/ESP32/LEDZ_R*%
X118065584Y-70146474D03*
%TO.N,/ESP32/MTCK*%
X125236000Y-83472000D03*
X127256267Y-68475562D03*
%TO.N,/ESP32/MTDO*%
X124253000Y-83852000D03*
X127290717Y-67524283D03*
%TO.N,/ESP32/MTDI*%
X127270301Y-66543756D03*
X124253000Y-85168000D03*
%TO.N,/ESP32/MTMS*%
X127287000Y-65592000D03*
X131133000Y-84822000D03*
%TO.N,Net-(JP4-C)*%
X112273000Y-80390000D03*
%TO.N,Net-(Q2-G)*%
X101710600Y-82811400D03*
X102700000Y-75260000D03*
%TO.N,Net-(U4-BA)*%
X97500000Y-54210000D03*
%TO.N,Net-(U13-BA)*%
X108340000Y-54180000D03*
%TO.N,Net-(U3-A)*%
X124587000Y-97917000D03*
X117094000Y-120523000D03*
%TO.N,Net-(U4-GA)*%
X97520000Y-55200000D03*
%TO.N,Net-(U13-GA)*%
X108320000Y-55170000D03*
%TO.N,Net-(U4-RA)*%
X97540000Y-56230000D03*
%TO.N,Net-(U13-RA)*%
X108310000Y-56190000D03*
%TD*%
D26*
%TO.N,/BM1397/CI*%
X115316000Y-154432000D02*
X113749000Y-155999000D01*
X115316000Y-119253000D02*
X115316000Y-154432000D01*
X113749000Y-155999000D02*
X112379000Y-155999000D01*
%TO.N,/BM1397/RO*%
X116230600Y-118770600D02*
X115316000Y-117856000D01*
X116230600Y-154687400D02*
X116230600Y-118770600D01*
X114919000Y-155999000D02*
X116230600Y-154687400D01*
%TO.N,/BM1397/RST_N*%
X122174000Y-151384000D02*
X122174000Y-121285000D01*
X117549000Y-156009000D02*
X122174000Y-151384000D01*
X117549000Y-156036000D02*
X117549000Y-156009000D01*
%TO.N,GND*%
X126238000Y-90915000D02*
X126205000Y-90882000D01*
X129770000Y-91933000D02*
X126205000Y-91933000D01*
X130029000Y-91674000D02*
X129770000Y-91933000D01*
D27*
X128130000Y-57095000D02*
X128130000Y-55560000D01*
X131870000Y-64210000D02*
X131870000Y-63070000D01*
D26*
X126205000Y-90882000D02*
X126205000Y-91933000D01*
D28*
X122750000Y-75860000D02*
X126701000Y-75860000D01*
D27*
X101864394Y-56210001D02*
X101864394Y-56544394D01*
D28*
X122750000Y-73060000D02*
X126671000Y-73060000D01*
D26*
X130015000Y-90882000D02*
X130015000Y-91660000D01*
D28*
X132450000Y-84290000D02*
X131870000Y-83710000D01*
D26*
X126238000Y-95758000D02*
X126238000Y-90915000D01*
X130015000Y-91660000D02*
X130029000Y-91674000D01*
D28*
X126671000Y-73060000D02*
X126719000Y-73012000D01*
D27*
X101864394Y-56210001D02*
X101864394Y-54209999D01*
D28*
X122750000Y-74460000D02*
X126631000Y-74460000D01*
D27*
X131870000Y-63070000D02*
X131300000Y-62500000D01*
X112698247Y-55180000D02*
X114210000Y-55180000D01*
X103505000Y-163482000D02*
X103505000Y-161102000D01*
X128130000Y-55560000D02*
X128120000Y-55550000D01*
X112698247Y-54179999D02*
X112698247Y-56180001D01*
X101864394Y-56544394D02*
X102570000Y-57250000D01*
D28*
X126631000Y-74460000D02*
X126719000Y-74372000D01*
D27*
X114210000Y-55180000D02*
X114230000Y-55160000D01*
D28*
X126701000Y-75860000D02*
X126719000Y-75842000D01*
X131870000Y-83710000D02*
X131870000Y-81710000D01*
D26*
%TO.N,/BM1397/1V8*%
X116234315Y-102235000D02*
X114427000Y-100427685D01*
D27*
X111760000Y-97155000D02*
X114427000Y-97155000D01*
X111956400Y-109162400D02*
X110726400Y-107932400D01*
X113030000Y-138938000D02*
X112903000Y-139065000D01*
X113030000Y-132080000D02*
X110726400Y-129776400D01*
X110726400Y-129776400D02*
X111956400Y-128546400D01*
D26*
X114427000Y-100427685D02*
X114427000Y-97155000D01*
X117602000Y-102235000D02*
X116234315Y-102235000D01*
D27*
X113030000Y-132080000D02*
X113030000Y-138938000D01*
X110726400Y-98188600D02*
X111760000Y-97155000D01*
X111956400Y-128546400D02*
X111956400Y-109162400D01*
X110726400Y-107932400D02*
X110726400Y-98188600D01*
%TO.N,/BM1397/0V8*%
X102362000Y-144780000D02*
X106117500Y-141024500D01*
X106117500Y-141024500D02*
X106117500Y-134090000D01*
X106426000Y-133781500D02*
X106117500Y-134090000D01*
X90487500Y-142176500D02*
X93091000Y-144780000D01*
X106426000Y-123698000D02*
X106426000Y-133781500D01*
X93091000Y-144780000D02*
X102362000Y-144780000D01*
D26*
%TO.N,/VDD*%
X103133100Y-62838100D02*
X103000000Y-62838100D01*
X115517000Y-67970000D02*
X116906000Y-69359000D01*
X110300000Y-82925000D02*
X110300000Y-76960000D01*
X110300000Y-76960000D02*
X107110000Y-73770000D01*
X116906000Y-69359000D02*
X128630000Y-69359000D01*
X128630000Y-69359000D02*
X129330000Y-68659000D01*
X107110000Y-73770000D02*
X107110000Y-66815000D01*
X110361000Y-82986000D02*
X110300000Y-82925000D01*
X129330000Y-68659000D02*
X129330000Y-64210000D01*
X107110000Y-66815000D02*
X103133100Y-62838100D01*
%TO.N,/ESP32/EN*%
X129348000Y-80241000D02*
X129348000Y-80228000D01*
X132665000Y-62605000D02*
X132665000Y-68760000D01*
X132665000Y-78605000D02*
X131780000Y-79490000D01*
X130050000Y-79490000D02*
X129330000Y-80210000D01*
X129348000Y-80228000D02*
X129330000Y-80210000D01*
X129390000Y-59330000D02*
X132665000Y-62605000D01*
X129500000Y-58355000D02*
X129390000Y-58465000D01*
X129400000Y-59320000D02*
X129400000Y-58365000D01*
X131780000Y-79490000D02*
X130050000Y-79490000D01*
X129330000Y-80210000D02*
X129330000Y-81710000D01*
X129390000Y-59330000D02*
X129400000Y-59320000D01*
X132665000Y-68760000D02*
X132665000Y-78605000D01*
D27*
%TO.N,/5V*%
X101506000Y-155702000D02*
X101473000Y-155735000D01*
X103505000Y-155702000D02*
X101506000Y-155702000D01*
X100905500Y-137668000D02*
X101037500Y-137800000D01*
X101473000Y-155735000D02*
X101440000Y-155702000D01*
D26*
%TO.N,/3V3*%
X123952000Y-94996000D02*
X125730000Y-96774000D01*
D28*
X130600000Y-82690000D02*
X130600000Y-81710000D01*
D26*
X120396000Y-94996000D02*
X116332000Y-94996000D01*
X131285000Y-93505000D02*
X131285000Y-90882000D01*
X120396000Y-94996000D02*
X123952000Y-94996000D01*
D27*
X129400000Y-55700000D02*
X129610000Y-55490000D01*
D26*
X125730000Y-96774000D02*
X128016000Y-96774000D01*
D28*
X129310000Y-83980000D02*
X130600000Y-82690000D01*
D27*
X129400000Y-57095000D02*
X129400000Y-55700000D01*
D26*
X128016000Y-96774000D02*
X131285000Y-93505000D01*
%TO.N,/TX*%
X119281000Y-84554000D02*
X120440000Y-83395000D01*
X115412000Y-84554000D02*
X119281000Y-84554000D01*
X120440000Y-83395000D02*
X120440000Y-81710000D01*
%TO.N,/RX*%
X113836000Y-83855000D02*
X118414000Y-83855000D01*
X118414000Y-83855000D02*
X119170000Y-83099000D01*
X119170000Y-83099000D02*
X119170000Y-81710000D01*
%TO.N,/BM1397/RST_N*%
X114046000Y-103759000D02*
X114300000Y-104013000D01*
X114300000Y-104013000D02*
X114300000Y-108839000D01*
%TO.N,/BM1397/CI*%
X113411000Y-116911817D02*
X115316000Y-118816817D01*
X113411000Y-104648000D02*
X113411000Y-116911817D01*
X115316000Y-118816817D02*
X115316000Y-119253000D01*
%TO.N,/RST*%
X104166000Y-51281000D02*
X104166000Y-49799000D01*
X130550000Y-64260000D02*
X130600000Y-64210000D01*
X121437000Y-70037900D02*
X128525836Y-70037900D01*
X105268000Y-52383000D02*
X104166000Y-51281000D01*
X118333000Y-52383000D02*
X105268000Y-52383000D01*
X120676000Y-54726000D02*
X118333000Y-52383000D01*
X128525836Y-70037900D02*
X130550000Y-68013736D01*
X130550000Y-68013736D02*
X130550000Y-64260000D01*
%TO.N,/BM1397/RO*%
X111760000Y-102616000D02*
X111760000Y-105791000D01*
%TO.N,/SCL*%
X83680594Y-98183406D02*
X84836000Y-97028000D01*
X120743000Y-68680100D02*
X117408100Y-68680100D01*
X84849183Y-86810000D02*
X85120000Y-86810000D01*
X87990000Y-89810000D02*
X87990000Y-89340000D01*
X84004200Y-85965017D02*
X84849183Y-86810000D01*
X89611200Y-61384200D02*
X88761064Y-61384200D01*
X117408100Y-68680100D02*
X115973000Y-67245000D01*
X115973000Y-67245000D02*
X114110000Y-67245000D01*
X89611200Y-61384200D02*
X89611200Y-57093200D01*
X109670000Y-67245000D02*
X114110000Y-67245000D01*
X109646000Y-67269000D02*
X109670000Y-67245000D01*
X87567632Y-62577632D02*
X87567632Y-79787632D01*
X83680594Y-126873000D02*
X83680594Y-98183406D01*
X84836000Y-97028000D02*
X89535000Y-97028000D01*
X87567632Y-79787632D02*
X84004200Y-83351064D01*
X88761064Y-61384200D02*
X87567632Y-62577632D01*
X85460000Y-86810000D02*
X85120000Y-86810000D01*
X84004200Y-83351064D02*
X84004200Y-85965017D01*
X87647000Y-55129000D02*
X84859000Y-55129000D01*
X87990000Y-89340000D02*
X85460000Y-86810000D01*
X109266000Y-67269000D02*
X103381200Y-61384200D01*
X89611200Y-57093200D02*
X87647000Y-55129000D01*
X103381200Y-61384200D02*
X89611200Y-61384200D01*
X86360000Y-91440000D02*
X87990000Y-89810000D01*
X109646000Y-67269000D02*
X109266000Y-67269000D01*
%TO.N,/Power/OUT0*%
X89080000Y-88900000D02*
X88456400Y-88276400D01*
X88456400Y-76583600D02*
X89730000Y-75310000D01*
X88456400Y-88276400D02*
X88456400Y-76583600D01*
X89308734Y-91153086D02*
X89080000Y-90924352D01*
X89080000Y-90924352D02*
X89080000Y-88900000D01*
%TO.N,Net-(U7-DP)*%
X84582000Y-130175000D02*
X82169000Y-132588000D01*
X94361000Y-120396000D02*
X94361000Y-124206000D01*
X88392000Y-130175000D02*
X84582000Y-130175000D01*
X94361000Y-124206000D02*
X88392000Y-130175000D01*
%TO.N,Net-(U7-DN)*%
X85725000Y-127635000D02*
X81534000Y-131826000D01*
X92456000Y-124460000D02*
X89281000Y-127635000D01*
X92456000Y-118110000D02*
X92456000Y-124460000D01*
X89281000Y-127635000D02*
X85725000Y-127635000D01*
%TO.N,/BI*%
X117717100Y-76139000D02*
X117713100Y-76135000D01*
X117713100Y-76135000D02*
X114110000Y-76135000D01*
%TO.N,Net-(U9-BOOT)*%
X95368800Y-73683600D02*
X95368800Y-71183600D01*
X95958800Y-74273600D02*
X95368800Y-73683600D01*
%TO.N,/ESP32/P_TX*%
X128060000Y-64210000D02*
X128060000Y-61549000D01*
X128060000Y-58525000D02*
X128060000Y-61549000D01*
X128230000Y-58355000D02*
X128060000Y-58525000D01*
%TO.N,/ESP32/P_RX*%
X126790000Y-64210000D02*
X126790000Y-61478000D01*
X124520000Y-61478000D02*
X124447000Y-61551000D01*
X126790000Y-61478000D02*
X124520000Y-61478000D01*
X126790000Y-61478000D02*
X126790000Y-58525000D01*
X126790000Y-58525000D02*
X126960000Y-58355000D01*
%TO.N,/ESP32/IO0*%
X126830000Y-56955000D02*
X126960000Y-57085000D01*
X122113000Y-68573000D02*
X121540700Y-68000700D01*
X117843700Y-68000700D02*
X116965817Y-67122817D01*
X116965817Y-66474000D02*
X115360000Y-64868183D01*
X121540700Y-68000700D02*
X117843700Y-68000700D01*
X126310000Y-55100000D02*
X126830000Y-55620000D01*
X115360000Y-64868183D02*
X115360000Y-64210000D01*
X124830000Y-55100000D02*
X126310000Y-55100000D01*
X126830000Y-55620000D02*
X126830000Y-56955000D01*
X116965817Y-67122817D02*
X116965817Y-66474000D01*
%TO.N,/ESP32/XIN32*%
X122980000Y-81119000D02*
X124019000Y-80080000D01*
X122980000Y-81710000D02*
X122980000Y-81119000D01*
%TO.N,/BM1397/CLKI*%
X116623000Y-80532000D02*
X116630000Y-80539000D01*
X117264000Y-79858000D02*
X116623000Y-80499000D01*
X116630000Y-80539000D02*
X116630000Y-81710000D01*
X116623000Y-80499000D02*
X116623000Y-80532000D01*
%TO.N,/ESP32/XOUT32*%
X121710000Y-81710000D02*
X121710000Y-80562000D01*
X121710000Y-80562000D02*
X121248000Y-80100000D01*
%TO.N,/Power/PGOOD*%
X109615000Y-74865000D02*
X108278900Y-73528900D01*
X114110000Y-74865000D02*
X109615000Y-74865000D01*
X108278900Y-73528900D02*
X108278900Y-71440000D01*
%TO.N,/ESP32/LEDX_B*%
X119170000Y-60650000D02*
X119170000Y-64210000D01*
X93950000Y-57520000D02*
X96147200Y-59717200D01*
X96147200Y-59717200D02*
X118237200Y-59717200D01*
X118237200Y-59717200D02*
X119170000Y-60650000D01*
%TO.N,/ESP32/FAN_ALERT*%
X110833000Y-73588000D02*
X114103000Y-73588000D01*
X111108000Y-84413200D02*
X111108000Y-81876000D01*
X110497000Y-73924000D02*
X110833000Y-73588000D01*
X110193000Y-85328200D02*
X111108000Y-84413200D01*
X114103000Y-73588000D02*
X114110000Y-73595000D01*
X110193000Y-130980000D02*
X110193000Y-85328200D01*
X108585000Y-132588000D02*
X110193000Y-130980000D01*
%TO.N,/ESP32/LEDZ_B*%
X125272000Y-79918000D02*
X124250000Y-80940000D01*
X127918000Y-72643000D02*
X127918000Y-77938000D01*
X127091000Y-71816000D02*
X127918000Y-72643000D01*
X117734000Y-71816000D02*
X127091000Y-71816000D01*
X124250000Y-80940000D02*
X124250000Y-81710000D01*
X116044000Y-70126000D02*
X117734000Y-71816000D01*
X125938000Y-79918000D02*
X125272000Y-79918000D01*
X127918000Y-77938000D02*
X125938000Y-79918000D01*
%TO.N,/ESP32/LEDX_G*%
X94129945Y-58660055D02*
X95599890Y-60130000D01*
X117290000Y-60130000D02*
X117900000Y-60740000D01*
X95599890Y-60130000D02*
X117290000Y-60130000D01*
X117900000Y-60740000D02*
X117900000Y-64210000D01*
%TO.N,/ESP32/LEDZ_G*%
X125520000Y-80910736D02*
X125520000Y-81710000D01*
X127259336Y-71409600D02*
X128324400Y-72474664D01*
X117097000Y-70138000D02*
X118368600Y-71409600D01*
X128324400Y-72474664D02*
X128324400Y-78106336D01*
X118368600Y-71409600D02*
X127259336Y-71409600D01*
X128324400Y-78106336D02*
X125520000Y-80910736D01*
%TO.N,/BM1397/BM_BI*%
X115062000Y-107950000D02*
X115062000Y-103759000D01*
%TO.N,/SDA*%
X84410600Y-85410600D02*
X84410600Y-83519400D01*
X117403141Y-73987441D02*
X115322000Y-71906300D01*
X84410600Y-83519400D02*
X88050000Y-79880000D01*
X88500000Y-91341100D02*
X88500000Y-89140000D01*
X102959600Y-61790600D02*
X107600000Y-66431000D01*
X114110000Y-68515000D02*
X108256000Y-68515000D01*
X88500000Y-89140000D02*
X85090000Y-85730000D01*
X114913000Y-68515000D02*
X114110000Y-68515000D01*
X90357445Y-62412445D02*
X90357445Y-61868445D01*
X90357445Y-61868445D02*
X90279600Y-61790600D01*
X84730000Y-85730000D02*
X84410600Y-85410600D01*
X78867000Y-102422264D02*
X85150264Y-96139000D01*
X108256000Y-68515000D02*
X108222000Y-68481000D01*
X82804000Y-139954000D02*
X78867000Y-136017000D01*
X115322000Y-68924000D02*
X114913000Y-68515000D01*
X88050000Y-79880000D02*
X88050000Y-62670000D01*
X115322000Y-71906300D02*
X115322000Y-68924000D01*
X85090000Y-85730000D02*
X84730000Y-85730000D01*
X88929400Y-61790600D02*
X90279600Y-61790600D01*
X85150264Y-96139000D02*
X90805000Y-96139000D01*
X78867000Y-136017000D02*
X78867000Y-102422264D01*
X107600000Y-66431000D02*
X107600000Y-67859000D01*
X90279600Y-61790600D02*
X102959600Y-61790600D01*
X88401100Y-91440000D02*
X88500000Y-91341100D01*
X107600000Y-67859000D02*
X108222000Y-68481000D01*
X88050000Y-62670000D02*
X88929400Y-61790600D01*
%TO.N,/ESP32/LEDX_R*%
X94319890Y-59810110D02*
X95046180Y-60536400D01*
X95046180Y-60536400D02*
X115770000Y-60536400D01*
X115770000Y-60536400D02*
X116630000Y-61396400D01*
X116630000Y-61396400D02*
X116630000Y-64210000D01*
%TO.N,/ESP32/LEDZ_R*%
X128730800Y-72306328D02*
X128730800Y-78274672D01*
X118065584Y-70146474D02*
X118922310Y-71003200D01*
X127427672Y-71003200D02*
X128730800Y-72306328D01*
X128730800Y-78274672D02*
X126790000Y-80215472D01*
X126790000Y-80215472D02*
X126790000Y-81710000D01*
X118922310Y-71003200D02*
X127427672Y-71003200D01*
%TO.N,/ESP32/MTCK*%
X125236000Y-83472000D02*
X125624000Y-83860000D01*
X129050000Y-84977000D02*
X129602000Y-84977000D01*
X129602000Y-84977000D02*
X130015000Y-85390000D01*
X127256267Y-68475562D02*
X125095562Y-68475562D01*
X121710000Y-65090000D02*
X121710000Y-64210000D01*
X127933000Y-83860000D02*
X129050000Y-84977000D01*
X130015000Y-85390000D02*
X130015000Y-87326000D01*
X125624000Y-83860000D02*
X127933000Y-83860000D01*
X125095562Y-68475562D02*
X121710000Y-65090000D01*
%TO.N,/ESP32/MTDO*%
X128745000Y-85476000D02*
X128745000Y-87326000D01*
X127620000Y-84351000D02*
X128745000Y-85476000D01*
X125009764Y-67421764D02*
X127188198Y-67421764D01*
X122980000Y-64210000D02*
X122980000Y-65392000D01*
X124752000Y-84351000D02*
X127620000Y-84351000D01*
X124253000Y-83852000D02*
X124752000Y-84351000D01*
X127188198Y-67421764D02*
X127290717Y-67524283D01*
X122980000Y-65392000D02*
X125009764Y-67421764D01*
%TO.N,/ESP32/MTDI*%
X125412756Y-66543756D02*
X124250000Y-65381000D01*
X127270301Y-66543756D02*
X125412756Y-66543756D01*
X126700400Y-84757400D02*
X127475000Y-85532000D01*
X127475000Y-85532000D02*
X127475000Y-87326000D01*
X124382800Y-85168000D02*
X124793400Y-84757400D01*
X124253000Y-85168000D02*
X124382800Y-85168000D01*
X124250000Y-65381000D02*
X124250000Y-64210000D01*
X124793400Y-84757400D02*
X126700400Y-84757400D01*
%TO.N,/ESP32/MTMS*%
X131133000Y-84822000D02*
X131285000Y-84974000D01*
X131285000Y-84974000D02*
X131285000Y-87326000D01*
X125520000Y-65287000D02*
X125520000Y-64210000D01*
X127287000Y-65592000D02*
X125825000Y-65592000D01*
X125825000Y-65592000D02*
X125520000Y-65287000D01*
%TO.N,Net-(JP4-C)*%
X114110000Y-79945000D02*
X112718000Y-79945000D01*
X112718000Y-79945000D02*
X112273000Y-80390000D01*
%TO.N,Net-(Q2-G)*%
X102700000Y-75260000D02*
X102080000Y-75880000D01*
X102080000Y-75880000D02*
X102080000Y-82442000D01*
X102080000Y-82442000D02*
X101710600Y-82811400D01*
%TO.N,Net-(U4-BA)*%
X97500000Y-54210000D02*
X98740194Y-54209999D01*
%TO.N,Net-(U13-BA)*%
X108340000Y-54180000D02*
X109574047Y-54179999D01*
%TO.N,Net-(U3-A)*%
X121494600Y-116122400D02*
X117094000Y-120523000D01*
X121494600Y-101009400D02*
X121494600Y-116122400D01*
X124587000Y-97917000D02*
X121494600Y-101009400D01*
%TO.N,Net-(U4-GA)*%
X97520000Y-55200000D02*
X98730194Y-55200000D01*
X98730194Y-55200000D02*
X98740194Y-55210000D01*
%TO.N,Net-(U13-GA)*%
X108320000Y-55170000D02*
X109564047Y-55170000D01*
X109564047Y-55170000D02*
X109574047Y-55180000D01*
%TO.N,Net-(U4-RA)*%
X98720195Y-56230000D02*
X98740194Y-56210001D01*
X97540000Y-56230000D02*
X98720195Y-56230000D01*
%TO.N,Net-(U13-RA)*%
X108310000Y-56190000D02*
X109564048Y-56190000D01*
X109564048Y-56190000D02*
X109574047Y-56180001D01*
%TD*%
%TA.AperFunction,Conductor*%
%TO.N,GND*%
G36*
X105468945Y-68608062D02*
G01*
X105515044Y-68653344D01*
X105532635Y-68715521D01*
X105587982Y-72090776D01*
X105576353Y-72145749D01*
X105541983Y-72190200D01*
X101730600Y-75321400D01*
X101758932Y-82136342D01*
X101744857Y-82194736D01*
X101705347Y-82239979D01*
X101649380Y-82261788D01*
X101566264Y-82272730D01*
X101431763Y-82328443D01*
X101316266Y-82417066D01*
X101227643Y-82532563D01*
X101171930Y-82667064D01*
X101152929Y-82811400D01*
X101171930Y-82955735D01*
X101227643Y-83090237D01*
X101316266Y-83205733D01*
X101431762Y-83294356D01*
X101431763Y-83294356D01*
X101431764Y-83294357D01*
X101566264Y-83350069D01*
X101654990Y-83361749D01*
X101710670Y-83383357D01*
X101750144Y-83428181D01*
X101764542Y-83486147D01*
X101809470Y-94292615D01*
X101792622Y-94356083D01*
X101746129Y-94402455D01*
X101682617Y-94419136D01*
X94765614Y-94372247D01*
X94703014Y-94355106D01*
X94657251Y-94309080D01*
X94640468Y-94246385D01*
X94620600Y-75311400D01*
X92300399Y-72576525D01*
X92278253Y-72538581D01*
X92270482Y-72495340D01*
X92267144Y-71183600D01*
X94811129Y-71183600D01*
X94830130Y-71327935D01*
X94885843Y-71462437D01*
X94974466Y-71577933D01*
X95039604Y-71627915D01*
X95075906Y-71672149D01*
X95088900Y-71727877D01*
X95088900Y-73617387D01*
X95086282Y-73633436D01*
X95088766Y-73687172D01*
X95088900Y-73692990D01*
X95088900Y-73710875D01*
X95090498Y-73724661D01*
X95091614Y-73748792D01*
X95093728Y-73753579D01*
X95102317Y-73781314D01*
X95103279Y-73786463D01*
X95115991Y-73806992D01*
X95124129Y-73822429D01*
X95133883Y-73844521D01*
X95133884Y-73844522D01*
X95137584Y-73848222D01*
X95155611Y-73870979D01*
X95158369Y-73875433D01*
X95177641Y-73889987D01*
X95190802Y-73901440D01*
X95376018Y-74086656D01*
X95406236Y-74135249D01*
X95411845Y-74192196D01*
X95401128Y-74273599D01*
X95420130Y-74417935D01*
X95475843Y-74552437D01*
X95564466Y-74667933D01*
X95679962Y-74756556D01*
X95679963Y-74756556D01*
X95679964Y-74756557D01*
X95814464Y-74812269D01*
X95958800Y-74831271D01*
X96103136Y-74812269D01*
X96237636Y-74756557D01*
X96353133Y-74667933D01*
X96441757Y-74552436D01*
X96497469Y-74417936D01*
X96516471Y-74273600D01*
X96497469Y-74129264D01*
X96441757Y-73994765D01*
X96441756Y-73994764D01*
X96441756Y-73994763D01*
X96353132Y-73879266D01*
X96237637Y-73790643D01*
X96103135Y-73734930D01*
X95958799Y-73715928D01*
X95877396Y-73726645D01*
X95820449Y-73721036D01*
X95771856Y-73690818D01*
X95685605Y-73604567D01*
X95658291Y-73563690D01*
X95648700Y-73515472D01*
X95648700Y-71727877D01*
X95661694Y-71672149D01*
X95697996Y-71627915D01*
X95763133Y-71577933D01*
X95851756Y-71462437D01*
X95851755Y-71462437D01*
X95851757Y-71462436D01*
X95907469Y-71327936D01*
X95926471Y-71183600D01*
X95907469Y-71039264D01*
X95851757Y-70904765D01*
X95851756Y-70904764D01*
X95851756Y-70904763D01*
X95763132Y-70789266D01*
X95647637Y-70700643D01*
X95513135Y-70644930D01*
X95368800Y-70625929D01*
X95224464Y-70644930D01*
X95089963Y-70700643D01*
X94974466Y-70789266D01*
X94885843Y-70904763D01*
X94830130Y-71039264D01*
X94811129Y-71183600D01*
X92267144Y-71183600D01*
X92260920Y-68737526D01*
X92277663Y-68674449D01*
X92323718Y-68628207D01*
X92386726Y-68611209D01*
X105406462Y-68591587D01*
X105468945Y-68608062D01*
G37*
%TD.AperFunction*%
%TD*%
%TA.AperFunction,Conductor*%
%TO.N,/VDD*%
G36*
X108795953Y-86278077D02*
G01*
X108858124Y-86295600D01*
X108903443Y-86341627D01*
X108920000Y-86404062D01*
X108920000Y-114254000D01*
X108903119Y-114317000D01*
X108857000Y-114363119D01*
X108794000Y-114380000D01*
X102596000Y-114380000D01*
X102533000Y-114363119D01*
X102486881Y-114317000D01*
X102470000Y-114254000D01*
X102470000Y-86307969D01*
X102487208Y-86244406D01*
X102534131Y-86198205D01*
X102597953Y-86181984D01*
X108795953Y-86278077D01*
G37*
%TD.AperFunction*%
%TD*%
M02*
