%TF.GenerationSoftware,KiCad,Pcbnew,7.0.1*%
%TF.CreationDate,2023-05-29T11:49:04-05:00*%
%TF.ProjectId,bitaxeMax,62697461-7865-44d6-9178-2e6b69636164,rev?*%
%TF.SameCoordinates,Original*%
%TF.FileFunction,Drillmap*%
%TF.FilePolarity,Positive*%
%FSLAX45Y45*%
G04 Gerber Fmt 4.5, Leading zero omitted, Abs format (unit mm)*
G04 Created by KiCad (PCBNEW 7.0.1) date 2023-05-29 11:49:04*
%MOMM*%
%LPD*%
G01*
G04 APERTURE LIST*
%ADD10C,0.100000*%
%ADD11C,0.200000*%
%ADD12C,0.030000*%
%ADD13C,0.040000*%
%ADD14C,0.060000*%
%ADD15C,0.080000*%
%ADD16C,0.106680*%
%ADD17C,0.140000*%
G04 APERTURE END LIST*
D10*
X7869066Y-4750000D02*
G75*
G03*
X7719000Y-4900066I4J-150070D01*
G01*
X7719000Y-16349934D02*
G75*
G03*
X7869066Y-16500000I150070J4D01*
G01*
X13372000Y-4900000D02*
X13372000Y-16349934D01*
X13221934Y-16500000D02*
G75*
G03*
X13372000Y-16349934I-4J150070D01*
G01*
X13221934Y-16500000D02*
X7869066Y-16500000D01*
X7869066Y-4750000D02*
X13221934Y-4750000D01*
X7719000Y-4900066D02*
X7719000Y-16349934D01*
X13372000Y-4900000D02*
G75*
G03*
X13221934Y-4750000I-150030J-30D01*
G01*
D11*
D12*
X9710169Y-6927220D02*
X9740169Y-6957220D01*
X9740169Y-6927220D02*
X9710169Y-6957220D01*
X9805169Y-6869720D02*
X9835169Y-6899720D01*
X9835169Y-6869720D02*
X9805169Y-6899720D01*
X9805169Y-6984720D02*
X9835169Y-7014720D01*
X9835169Y-6984720D02*
X9805169Y-7014720D01*
X9900169Y-6927220D02*
X9930169Y-6957220D01*
X9930169Y-6927220D02*
X9900169Y-6957220D01*
X11517400Y-9942600D02*
X11547400Y-9972600D01*
X11547400Y-9942600D02*
X11517400Y-9972600D01*
X11517400Y-10042600D02*
X11547400Y-10072600D01*
X11547400Y-10042600D02*
X11517400Y-10072600D01*
X11617400Y-9942600D02*
X11647400Y-9972600D01*
X11647400Y-9942600D02*
X11617400Y-9972600D01*
X11617400Y-10042600D02*
X11647400Y-10072600D01*
X11647400Y-10042600D02*
X11617400Y-10072600D01*
D13*
X7829000Y-8206000D02*
G75*
G03*
X7829000Y-8206000I-20000J0D01*
G01*
X8061000Y-13960000D02*
G75*
G03*
X8061000Y-13960000I-20000J0D01*
G01*
X8086000Y-8776000D02*
G75*
G03*
X8086000Y-8776000I-20000J0D01*
G01*
X8097200Y-12821400D02*
G75*
G03*
X8097200Y-12821400I-20000J0D01*
G01*
X8173400Y-13182600D02*
G75*
G03*
X8173400Y-13182600I-20000J0D01*
G01*
X8236900Y-13258800D02*
G75*
G03*
X8236900Y-13258800I-20000J0D01*
G01*
X8300400Y-13995400D02*
G75*
G03*
X8300400Y-13995400I-20000J0D01*
G01*
X8319000Y-8509000D02*
G75*
G03*
X8319000Y-8509000I-20000J0D01*
G01*
X8328919Y-12866081D02*
G75*
G03*
X8328919Y-12866081I-20000J0D01*
G01*
X8388059Y-12687300D02*
G75*
G03*
X8388059Y-12687300I-20000J0D01*
G01*
X8390000Y-8775000D02*
G75*
G03*
X8390000Y-8775000I-20000J0D01*
G01*
X8493000Y-8573000D02*
G75*
G03*
X8493000Y-8573000I-20000J0D01*
G01*
X8532000Y-8681000D02*
G75*
G03*
X8532000Y-8681000I-20000J0D01*
G01*
X8656000Y-9144000D02*
G75*
G03*
X8656000Y-9144000I-20000J0D01*
G01*
X8717000Y-8277000D02*
G75*
G03*
X8717000Y-8277000I-20000J0D01*
G01*
X8860110Y-9144000D02*
G75*
G03*
X8860110Y-9144000I-20000J0D01*
G01*
X8950873Y-9115309D02*
G75*
G03*
X8950873Y-9115309I-20000J0D01*
G01*
X8973500Y-9702800D02*
G75*
G03*
X8973500Y-9702800I-20000J0D01*
G01*
X8993000Y-7531000D02*
G75*
G03*
X8993000Y-7531000I-20000J0D01*
G01*
X9055745Y-6241244D02*
G75*
G03*
X9055745Y-6241244I-20000J0D01*
G01*
X9056006Y-10124995D02*
G75*
G03*
X9056006Y-10124995I-20000J0D01*
G01*
X9068750Y-14217650D02*
G75*
G03*
X9068750Y-14217650I-20000J0D01*
G01*
X9100500Y-9613900D02*
G75*
G03*
X9100500Y-9613900I-20000J0D01*
G01*
X9265600Y-11811000D02*
G75*
G03*
X9265600Y-11811000I-20000J0D01*
G01*
X9311000Y-10299000D02*
G75*
G03*
X9311000Y-10299000I-20000J0D01*
G01*
X9379900Y-13258800D02*
G75*
G03*
X9379900Y-13258800I-20000J0D01*
G01*
X9415000Y-5752000D02*
G75*
G03*
X9415000Y-5752000I-20000J0D01*
G01*
X9430000Y-9719000D02*
G75*
G03*
X9430000Y-9719000I-20000J0D01*
G01*
X9432995Y-5866005D02*
G75*
G03*
X9432995Y-5866005I-20000J0D01*
G01*
X9451989Y-5981011D02*
G75*
G03*
X9451989Y-5981011I-20000J0D01*
G01*
X9456100Y-12039600D02*
G75*
G03*
X9456100Y-12039600I-20000J0D01*
G01*
X9456500Y-14236300D02*
G75*
G03*
X9456500Y-14236300I-20000J0D01*
G01*
X9462600Y-13081100D02*
G75*
G03*
X9462600Y-13081100I-20000J0D01*
G01*
X9467390Y-14034500D02*
G75*
G03*
X9467390Y-14034500I-20000J0D01*
G01*
X9509000Y-6247000D02*
G75*
G03*
X9509000Y-6247000I-20000J0D01*
G01*
X9556880Y-7118360D02*
G75*
G03*
X9556880Y-7118360I-20000J0D01*
G01*
X9560060Y-6943140D02*
G75*
G03*
X9560060Y-6943140I-20000J0D01*
G01*
X9615880Y-7427360D02*
G75*
G03*
X9615880Y-7427360I-20000J0D01*
G01*
X9704000Y-9814000D02*
G75*
G03*
X9704000Y-9814000I-20000J0D01*
G01*
X9752000Y-8483000D02*
G75*
G03*
X9752000Y-8483000I-20000J0D01*
G01*
X9752000Y-8631000D02*
G75*
G03*
X9752000Y-8631000I-20000J0D01*
G01*
X9752000Y-8787860D02*
G75*
G03*
X9752000Y-8787860I-20000J0D01*
G01*
X9752000Y-8965000D02*
G75*
G03*
X9752000Y-8965000I-20000J0D01*
G01*
X9752000Y-9152000D02*
G75*
G03*
X9752000Y-9152000I-20000J0D01*
G01*
X9752000Y-9350000D02*
G75*
G03*
X9752000Y-9350000I-20000J0D01*
G01*
X9770000Y-5421000D02*
G75*
G03*
X9770000Y-5421000I-20000J0D01*
G01*
X9772000Y-5520000D02*
G75*
G03*
X9772000Y-5520000I-20000J0D01*
G01*
X9774000Y-5623000D02*
G75*
G03*
X9774000Y-5623000I-20000J0D01*
G01*
X9852000Y-12330000D02*
G75*
G03*
X9852000Y-12330000I-20000J0D01*
G01*
X9862700Y-14337910D02*
G75*
G03*
X9862700Y-14337910I-20000J0D01*
G01*
X9864700Y-14198100D02*
G75*
G03*
X9864700Y-14198100I-20000J0D01*
G01*
X9906000Y-8483000D02*
G75*
G03*
X9906000Y-8483000I-20000J0D01*
G01*
X9906000Y-8631000D02*
G75*
G03*
X9906000Y-8631000I-20000J0D01*
G01*
X9906000Y-8787860D02*
G75*
G03*
X9906000Y-8787860I-20000J0D01*
G01*
X9906000Y-8965000D02*
G75*
G03*
X9906000Y-8965000I-20000J0D01*
G01*
X9906000Y-9152000D02*
G75*
G03*
X9906000Y-9152000I-20000J0D01*
G01*
X9906000Y-9350000D02*
G75*
G03*
X9906000Y-9350000I-20000J0D01*
G01*
X10067000Y-6677000D02*
G75*
G03*
X10067000Y-6677000I-20000J0D01*
G01*
X10078000Y-8552140D02*
G75*
G03*
X10078000Y-8552140I-20000J0D01*
G01*
X10078000Y-8727000D02*
G75*
G03*
X10078000Y-8727000I-20000J0D01*
G01*
X10105060Y-7313140D02*
G75*
G03*
X10105060Y-7313140I-20000J0D01*
G01*
X10123750Y-13780000D02*
G75*
G03*
X10123750Y-13780000I-20000J0D01*
G01*
X10167300Y-15573500D02*
G75*
G03*
X10167300Y-15573500I-20000J0D01*
G01*
X10191060Y-8281140D02*
G75*
G03*
X10191060Y-8281140I-20000J0D01*
G01*
X10205400Y-13131800D02*
G75*
G03*
X10205400Y-13131800I-20000J0D01*
G01*
X10230800Y-12090400D02*
G75*
G03*
X10230800Y-12090400I-20000J0D01*
G01*
X10277000Y-5725000D02*
G75*
G03*
X10277000Y-5725000I-20000J0D01*
G01*
X10290000Y-7526000D02*
G75*
G03*
X10290000Y-7526000I-20000J0D01*
G01*
X10307000Y-11559000D02*
G75*
G03*
X10307000Y-11559000I-20000J0D01*
G01*
X10320000Y-6283810D02*
G75*
G03*
X10320000Y-6283810I-20000J0D01*
G01*
X10483000Y-11695000D02*
G75*
G03*
X10483000Y-11695000I-20000J0D01*
G01*
X10631750Y-13409000D02*
G75*
G03*
X10631750Y-13409000I-20000J0D01*
G01*
X10662600Y-12369800D02*
G75*
G03*
X10662600Y-12369800I-20000J0D01*
G01*
X10665000Y-11692000D02*
G75*
G03*
X10665000Y-11692000I-20000J0D01*
G01*
X10721750Y-13684000D02*
G75*
G03*
X10721750Y-13684000I-20000J0D01*
G01*
X10811750Y-13892000D02*
G75*
G03*
X10811750Y-13892000I-20000J0D01*
G01*
X10832000Y-11558000D02*
G75*
G03*
X10832000Y-11558000I-20000J0D01*
G01*
X10842200Y-6848100D02*
G75*
G03*
X10842200Y-6848100I-20000J0D01*
G01*
X10847890Y-7144000D02*
G75*
G03*
X10847890Y-7144000I-20000J0D01*
G01*
X10851000Y-5619000D02*
G75*
G03*
X10851000Y-5619000I-20000J0D01*
G01*
X10852000Y-5517000D02*
G75*
G03*
X10852000Y-5517000I-20000J0D01*
G01*
X10853000Y-10427000D02*
G75*
G03*
X10853000Y-10427000I-20000J0D01*
G01*
X10854000Y-5418000D02*
G75*
G03*
X10854000Y-5418000I-20000J0D01*
G01*
X10878500Y-13258800D02*
G75*
G03*
X10878500Y-13258800I-20000J0D01*
G01*
X10954700Y-12090400D02*
G75*
G03*
X10954700Y-12090400I-20000J0D01*
G01*
X10984600Y-6726900D02*
G75*
G03*
X10984600Y-6726900I-20000J0D01*
G01*
X11056100Y-8298600D02*
G75*
G03*
X11056100Y-8298600I-20000J0D01*
G01*
X11069700Y-7392400D02*
G75*
G03*
X11069700Y-7392400I-20000J0D01*
G01*
X11073600Y-7286400D02*
G75*
G03*
X11073600Y-7286400I-20000J0D01*
G01*
X11130800Y-8187600D02*
G75*
G03*
X11130800Y-8187600I-20000J0D01*
G01*
X11196000Y-10261600D02*
G75*
G03*
X11196000Y-10261600I-20000J0D01*
G01*
X11196000Y-10579100D02*
G75*
G03*
X11196000Y-10579100I-20000J0D01*
G01*
X11232700Y-7290910D02*
G75*
G03*
X11232700Y-7290910I-20000J0D01*
G01*
X11247300Y-8039000D02*
G75*
G03*
X11247300Y-8039000I-20000J0D01*
G01*
X11255800Y-8170800D02*
G75*
G03*
X11255800Y-8170800I-20000J0D01*
G01*
X11257900Y-15599900D02*
G75*
G03*
X11257900Y-15599900I-20000J0D01*
G01*
X11271200Y-6125000D02*
G75*
G03*
X11271200Y-6125000I-20000J0D01*
G01*
X11310300Y-13906500D02*
G75*
G03*
X11310300Y-13906500I-20000J0D01*
G01*
X11323000Y-13208000D02*
G75*
G03*
X11323000Y-13208000I-20000J0D01*
G01*
X11361100Y-10464800D02*
G75*
G03*
X11361100Y-10464800I-20000J0D01*
G01*
X11403600Y-8385500D02*
G75*
G03*
X11403600Y-8385500I-20000J0D01*
G01*
X11424600Y-9537700D02*
G75*
G03*
X11424600Y-9537700I-20000J0D01*
G01*
X11424600Y-10375900D02*
G75*
G03*
X11424600Y-10375900I-20000J0D01*
G01*
X11443000Y-5516000D02*
G75*
G03*
X11443000Y-5516000I-20000J0D01*
G01*
X11450000Y-10883900D02*
G75*
G03*
X11450000Y-10883900I-20000J0D01*
G01*
X11462700Y-9715500D02*
G75*
G03*
X11462700Y-9715500I-20000J0D01*
G01*
X11511900Y-15599900D02*
G75*
G03*
X11511900Y-15599900I-20000J0D01*
G01*
X11526200Y-10375900D02*
G75*
G03*
X11526200Y-10375900I-20000J0D01*
G01*
X11526200Y-10795000D02*
G75*
G03*
X11526200Y-10795000I-20000J0D01*
G01*
X11551600Y-11785600D02*
G75*
G03*
X11551600Y-11785600I-20000J0D01*
G01*
X11551600Y-11925300D02*
G75*
G03*
X11551600Y-11925300I-20000J0D01*
G01*
X11561200Y-8455400D02*
G75*
G03*
X11561200Y-8455400I-20000J0D01*
G01*
X11565700Y-6241300D02*
G75*
G03*
X11565700Y-6241300I-20000J0D01*
G01*
X11571700Y-6797000D02*
G75*
G03*
X11571700Y-6797000I-20000J0D01*
G01*
X11574600Y-7607300D02*
G75*
G03*
X11574600Y-7607300I-20000J0D01*
G01*
X11594900Y-6644600D02*
G75*
G03*
X11594900Y-6644600I-20000J0D01*
G01*
X11615100Y-11049000D02*
G75*
G03*
X11615100Y-11049000I-20000J0D01*
G01*
X11624400Y-7012600D02*
G75*
G03*
X11624400Y-7012600I-20000J0D01*
G01*
X11627800Y-11645900D02*
G75*
G03*
X11627800Y-11645900I-20000J0D01*
G01*
X11653200Y-9499600D02*
G75*
G03*
X11653200Y-9499600I-20000J0D01*
G01*
X11711000Y-12899000D02*
G75*
G03*
X11711000Y-12899000I-20000J0D01*
G01*
X11729400Y-12052300D02*
G75*
G03*
X11729400Y-12052300I-20000J0D01*
G01*
X11729700Y-7013800D02*
G75*
G03*
X11729700Y-7013800I-20000J0D01*
G01*
X11746400Y-7985800D02*
G75*
G03*
X11746400Y-7985800I-20000J0D01*
G01*
X11760314Y-7398744D02*
G75*
G03*
X11760314Y-7398744I-20000J0D01*
G01*
X11774900Y-15603600D02*
G75*
G03*
X11774900Y-15603600I-20000J0D01*
G01*
X11780200Y-10223500D02*
G75*
G03*
X11780200Y-10223500I-20000J0D01*
G01*
X11791710Y-7613900D02*
G75*
G03*
X11791710Y-7613900I-20000J0D01*
G01*
X11793000Y-12319000D02*
G75*
G03*
X11793000Y-12319000I-20000J0D01*
G01*
X11826558Y-7014647D02*
G75*
G03*
X11826558Y-7014647I-20000J0D01*
G01*
X12059600Y-9499600D02*
G75*
G03*
X12059600Y-9499600I-20000J0D01*
G01*
X12087600Y-5472600D02*
G75*
G03*
X12087600Y-5472600I-20000J0D01*
G01*
X12094300Y-6868010D02*
G75*
G03*
X12094300Y-6868010I-20000J0D01*
G01*
X12141000Y-7454700D02*
G75*
G03*
X12141000Y-7454700I-20000J0D01*
G01*
X12144800Y-8010000D02*
G75*
G03*
X12144800Y-8010000I-20000J0D01*
G01*
X12163700Y-7003790D02*
G75*
G03*
X12163700Y-7003790I-20000J0D01*
G01*
X12231300Y-6857300D02*
G75*
G03*
X12231300Y-6857300I-20000J0D01*
G01*
X12237400Y-12128500D02*
G75*
G03*
X12237400Y-12128500I-20000J0D01*
G01*
X12237400Y-12128500D02*
G75*
G03*
X12237400Y-12128500I-20000J0D01*
G01*
X12421900Y-8008000D02*
G75*
G03*
X12421900Y-8008000I-20000J0D01*
G01*
X12445300Y-8385200D02*
G75*
G03*
X12445300Y-8385200I-20000J0D01*
G01*
X12445300Y-8516800D02*
G75*
G03*
X12445300Y-8516800I-20000J0D01*
G01*
X12464700Y-6155100D02*
G75*
G03*
X12464700Y-6155100I-20000J0D01*
G01*
X12478700Y-9791700D02*
G75*
G03*
X12478700Y-9791700I-20000J0D01*
G01*
X12503000Y-5510000D02*
G75*
G03*
X12503000Y-5510000I-20000J0D01*
G01*
X12543600Y-8347200D02*
G75*
G03*
X12543600Y-8347200I-20000J0D01*
G01*
X12618400Y-15595600D02*
G75*
G03*
X12618400Y-15595600I-20000J0D01*
G01*
X12643800Y-9575800D02*
G75*
G03*
X12643800Y-9575800I-20000J0D01*
G01*
X12745627Y-6847556D02*
G75*
G03*
X12745627Y-6847556I-20000J0D01*
G01*
X12747030Y-6654376D02*
G75*
G03*
X12747030Y-6654376I-20000J0D01*
G01*
X12748700Y-6559200D02*
G75*
G03*
X12748700Y-6559200I-20000J0D01*
G01*
X12749072Y-6752428D02*
G75*
G03*
X12749072Y-6752428I-20000J0D01*
G01*
X12826000Y-6154900D02*
G75*
G03*
X12826000Y-6154900I-20000J0D01*
G01*
X12832000Y-5555000D02*
G75*
G03*
X12832000Y-5555000I-20000J0D01*
G01*
X12954800Y-8024100D02*
G75*
G03*
X12954800Y-8024100I-20000J0D01*
G01*
X12981000Y-5549000D02*
G75*
G03*
X12981000Y-5549000I-20000J0D01*
G01*
X13133300Y-8482200D02*
G75*
G03*
X13133300Y-8482200I-20000J0D01*
G01*
X13150000Y-6250000D02*
G75*
G03*
X13150000Y-6250000I-20000J0D01*
G01*
X13194400Y-7684800D02*
G75*
G03*
X13194400Y-7684800I-20000J0D01*
G01*
X13286500Y-6876000D02*
G75*
G03*
X13286500Y-6876000I-20000J0D01*
G01*
D14*
X10333200Y-10330500D02*
X10333200Y-10390500D01*
X10303200Y-10360500D02*
X10363200Y-10360500D01*
X10350500Y-16318200D02*
X10350500Y-16378200D01*
X10320500Y-16348200D02*
X10380500Y-16348200D01*
X12671900Y-7271200D02*
X12671900Y-7331200D01*
X12641900Y-7301200D02*
X12701900Y-7301200D01*
X12671900Y-7407200D02*
X12671900Y-7467200D01*
X12641900Y-7437200D02*
X12701900Y-7437200D01*
X12671900Y-7554200D02*
X12671900Y-7614200D01*
X12641900Y-7584200D02*
X12701900Y-7584200D01*
X12931000Y-8368000D02*
X12931000Y-8428000D01*
X12901000Y-8398000D02*
X12961000Y-8398000D01*
X13245000Y-8399000D02*
X13245000Y-8459000D01*
X13215000Y-8429000D02*
X13275000Y-8429000D01*
D15*
X10366085Y-11178885D02*
X10366085Y-11122316D01*
X10309516Y-11122316D01*
X10309516Y-11178885D01*
X10366085Y-11178885D01*
X10616285Y-8878285D02*
X10616285Y-8821716D01*
X10559716Y-8821716D01*
X10559716Y-8878285D01*
X10616285Y-8878285D01*
X10616285Y-9082285D02*
X10616285Y-9025716D01*
X10559716Y-9025716D01*
X10559716Y-9082285D01*
X10616285Y-9082285D01*
X10618285Y-9293285D02*
X10618285Y-9236716D01*
X10561716Y-9236716D01*
X10561716Y-9293285D01*
X10618285Y-9293285D01*
X10621285Y-9495285D02*
X10621285Y-9438716D01*
X10564716Y-9438716D01*
X10564716Y-9495285D01*
X10621285Y-9495285D01*
X10813285Y-8880285D02*
X10813285Y-8823716D01*
X10756716Y-8823716D01*
X10756716Y-8880285D01*
X10813285Y-8880285D01*
X10815285Y-9082285D02*
X10815285Y-9025716D01*
X10758716Y-9025716D01*
X10758716Y-9082285D01*
X10815285Y-9082285D01*
X10819285Y-9295285D02*
X10819285Y-9238716D01*
X10762716Y-9238716D01*
X10762716Y-9295285D01*
X10819285Y-9295285D01*
X10819285Y-9492285D02*
X10819285Y-9435716D01*
X10762716Y-9435716D01*
X10762716Y-9492285D01*
X10819285Y-9492285D01*
X10874085Y-11166185D02*
X10874085Y-11109616D01*
X10817516Y-11109616D01*
X10817516Y-11166185D01*
X10874085Y-11166185D01*
X10960585Y-6364284D02*
X10960585Y-6307715D01*
X10904016Y-6307715D01*
X10904016Y-6364284D01*
X10960585Y-6364284D01*
D10*
X8300000Y-7704000D02*
X8350000Y-7654000D01*
X8300000Y-7604000D01*
X8250000Y-7654000D01*
X8300000Y-7704000D01*
X8485900Y-5054900D02*
X8535900Y-5004900D01*
X8485900Y-4954900D01*
X8435900Y-5004900D01*
X8485900Y-5054900D01*
X8485900Y-5308900D02*
X8535900Y-5258900D01*
X8485900Y-5208900D01*
X8435900Y-5258900D01*
X8485900Y-5308900D01*
X8485900Y-5562900D02*
X8535900Y-5512900D01*
X8485900Y-5462900D01*
X8435900Y-5512900D01*
X8485900Y-5562900D01*
X8485900Y-5816900D02*
X8535900Y-5766900D01*
X8485900Y-5716900D01*
X8435900Y-5766900D01*
X8485900Y-5816900D01*
X8554000Y-7704000D02*
X8604000Y-7654000D01*
X8554000Y-7604000D01*
X8504000Y-7654000D01*
X8554000Y-7704000D01*
X8746000Y-10143800D02*
X8796000Y-10093800D01*
X8746000Y-10043800D01*
X8696000Y-10093800D01*
X8746000Y-10143800D01*
X8746000Y-10397800D02*
X8796000Y-10347800D01*
X8746000Y-10297800D01*
X8696000Y-10347800D01*
X8746000Y-10397800D01*
X8746000Y-10651800D02*
X8796000Y-10601800D01*
X8746000Y-10551800D01*
X8696000Y-10601800D01*
X8746000Y-10651800D01*
X8746000Y-10905800D02*
X8796000Y-10855800D01*
X8746000Y-10805800D01*
X8696000Y-10855800D01*
X8746000Y-10905800D01*
X8746000Y-11159800D02*
X8796000Y-11109800D01*
X8746000Y-11059800D01*
X8696000Y-11109800D01*
X8746000Y-11159800D01*
X8746000Y-11413800D02*
X8796000Y-11363800D01*
X8746000Y-11313800D01*
X8696000Y-11363800D01*
X8746000Y-11413800D01*
X8746000Y-11667800D02*
X8796000Y-11617800D01*
X8746000Y-11567800D01*
X8696000Y-11617800D01*
X8746000Y-11667800D01*
X8746000Y-11921800D02*
X8796000Y-11871800D01*
X8746000Y-11821800D01*
X8696000Y-11871800D01*
X8746000Y-11921800D01*
X8746000Y-12175800D02*
X8796000Y-12125800D01*
X8746000Y-12075800D01*
X8696000Y-12125800D01*
X8746000Y-12175800D01*
X8746000Y-12429800D02*
X8796000Y-12379800D01*
X8746000Y-12329800D01*
X8696000Y-12379800D01*
X8746000Y-12429800D01*
X8746000Y-12683800D02*
X8796000Y-12633800D01*
X8746000Y-12583800D01*
X8696000Y-12633800D01*
X8746000Y-12683800D01*
X8746000Y-12937800D02*
X8796000Y-12887800D01*
X8746000Y-12837800D01*
X8696000Y-12887800D01*
X8746000Y-12937800D01*
X8746000Y-13191800D02*
X8796000Y-13141800D01*
X8746000Y-13091800D01*
X8696000Y-13141800D01*
X8746000Y-13191800D01*
X8746000Y-13445800D02*
X8796000Y-13395800D01*
X8746000Y-13345800D01*
X8696000Y-13395800D01*
X8746000Y-13445800D01*
X8746000Y-13699800D02*
X8796000Y-13649800D01*
X8746000Y-13599800D01*
X8696000Y-13649800D01*
X8746000Y-13699800D01*
X8746000Y-13953800D02*
X8796000Y-13903800D01*
X8746000Y-13853800D01*
X8696000Y-13903800D01*
X8746000Y-13953800D01*
X8746000Y-14207800D02*
X8796000Y-14157800D01*
X8746000Y-14107800D01*
X8696000Y-14157800D01*
X8746000Y-14207800D01*
X8746000Y-14461800D02*
X8796000Y-14411800D01*
X8746000Y-14361800D01*
X8696000Y-14411800D01*
X8746000Y-14461800D01*
X10162600Y-5029900D02*
X10212600Y-4979900D01*
X10162600Y-4929900D01*
X10112600Y-4979900D01*
X10162600Y-5029900D01*
X10416600Y-5029900D02*
X10466600Y-4979900D01*
X10416600Y-4929900D01*
X10366600Y-4979900D01*
X10416600Y-5029900D01*
X10670600Y-5029900D02*
X10720600Y-4979900D01*
X10670600Y-4929900D01*
X10620600Y-4979900D01*
X10670600Y-5029900D01*
X10924600Y-5029900D02*
X10974600Y-4979900D01*
X10924600Y-4929900D01*
X10874600Y-4979900D01*
X10924600Y-5029900D01*
X10987500Y-15979200D02*
X11037500Y-15929200D01*
X10987500Y-15879200D01*
X10937500Y-15929200D01*
X10987500Y-15979200D01*
X11178600Y-5029900D02*
X11228600Y-4979900D01*
X11178600Y-4929900D01*
X11128600Y-4979900D01*
X11178600Y-5029900D01*
X11241500Y-15979200D02*
X11291500Y-15929200D01*
X11241500Y-15879200D01*
X11191500Y-15929200D01*
X11241500Y-15979200D01*
X11432600Y-5029900D02*
X11482600Y-4979900D01*
X11432600Y-4929900D01*
X11382600Y-4979900D01*
X11432600Y-5029900D01*
X11495500Y-15979200D02*
X11545500Y-15929200D01*
X11495500Y-15879200D01*
X11445500Y-15929200D01*
X11495500Y-15979200D01*
X11686600Y-5029900D02*
X11736600Y-4979900D01*
X11686600Y-4929900D01*
X11636600Y-4979900D01*
X11686600Y-5029900D01*
X11749500Y-15979200D02*
X11799500Y-15929200D01*
X11749500Y-15879200D01*
X11699500Y-15929200D01*
X11749500Y-15979200D01*
X11940600Y-5029900D02*
X11990600Y-4979900D01*
X11940600Y-4929900D01*
X11890600Y-4979900D01*
X11940600Y-5029900D01*
X12003500Y-15979200D02*
X12053500Y-15929200D01*
X12003500Y-15879200D01*
X11953500Y-15929200D01*
X12003500Y-15979200D01*
X12446000Y-10143800D02*
X12496000Y-10093800D01*
X12446000Y-10043800D01*
X12396000Y-10093800D01*
X12446000Y-10143800D01*
X12446000Y-10397800D02*
X12496000Y-10347800D01*
X12446000Y-10297800D01*
X12396000Y-10347800D01*
X12446000Y-10397800D01*
X12446000Y-10651800D02*
X12496000Y-10601800D01*
X12446000Y-10551800D01*
X12396000Y-10601800D01*
X12446000Y-10651800D01*
X12446000Y-10905800D02*
X12496000Y-10855800D01*
X12446000Y-10805800D01*
X12396000Y-10855800D01*
X12446000Y-10905800D01*
X12446000Y-11159800D02*
X12496000Y-11109800D01*
X12446000Y-11059800D01*
X12396000Y-11109800D01*
X12446000Y-11159800D01*
X12446000Y-11413800D02*
X12496000Y-11363800D01*
X12446000Y-11313800D01*
X12396000Y-11363800D01*
X12446000Y-11413800D01*
X12446000Y-11667800D02*
X12496000Y-11617800D01*
X12446000Y-11567800D01*
X12396000Y-11617800D01*
X12446000Y-11667800D01*
X12446000Y-11921800D02*
X12496000Y-11871800D01*
X12446000Y-11821800D01*
X12396000Y-11871800D01*
X12446000Y-11921800D01*
X12446000Y-12175800D02*
X12496000Y-12125800D01*
X12446000Y-12075800D01*
X12396000Y-12125800D01*
X12446000Y-12175800D01*
X12446000Y-12429800D02*
X12496000Y-12379800D01*
X12446000Y-12329800D01*
X12396000Y-12379800D01*
X12446000Y-12429800D01*
X12446000Y-12683800D02*
X12496000Y-12633800D01*
X12446000Y-12583800D01*
X12396000Y-12633800D01*
X12446000Y-12683800D01*
X12446000Y-12937800D02*
X12496000Y-12887800D01*
X12446000Y-12837800D01*
X12396000Y-12887800D01*
X12446000Y-12937800D01*
X12446000Y-13191800D02*
X12496000Y-13141800D01*
X12446000Y-13091800D01*
X12396000Y-13141800D01*
X12446000Y-13191800D01*
X12446000Y-13445800D02*
X12496000Y-13395800D01*
X12446000Y-13345800D01*
X12396000Y-13395800D01*
X12446000Y-13445800D01*
X12446000Y-13699800D02*
X12496000Y-13649800D01*
X12446000Y-13599800D01*
X12396000Y-13649800D01*
X12446000Y-13699800D01*
X12446000Y-13953800D02*
X12496000Y-13903800D01*
X12446000Y-13853800D01*
X12396000Y-13903800D01*
X12446000Y-13953800D01*
X12446000Y-14207800D02*
X12496000Y-14157800D01*
X12446000Y-14107800D01*
X12396000Y-14157800D01*
X12446000Y-14207800D01*
X12446000Y-14461800D02*
X12496000Y-14411800D01*
X12446000Y-14361800D01*
X12396000Y-14411800D01*
X12446000Y-14461800D01*
D16*
X8899100Y-15874245D02*
X9005780Y-15980925D01*
X9005780Y-15874245D02*
X8899100Y-15980925D01*
X9005780Y-15927585D02*
G75*
G03*
X9005780Y-15927585I-53340J0D01*
G01*
X9153100Y-15874245D02*
X9259780Y-15980925D01*
X9259780Y-15874245D02*
X9153100Y-15980925D01*
X9259780Y-15927585D02*
G75*
G03*
X9259780Y-15927585I-53340J0D01*
G01*
X9407100Y-15874245D02*
X9513780Y-15980925D01*
X9513780Y-15874245D02*
X9407100Y-15980925D01*
X9513780Y-15927585D02*
G75*
G03*
X9513780Y-15927585I-53340J0D01*
G01*
X9661100Y-15874245D02*
X9767780Y-15980925D01*
X9767780Y-15874245D02*
X9661100Y-15980925D01*
X9767780Y-15927585D02*
G75*
G03*
X9767780Y-15927585I-53340J0D01*
G01*
D17*
X7941000Y-6269000D02*
X8081000Y-6409000D01*
X8081000Y-6269000D02*
X7941000Y-6409000D01*
X8011000Y-6269000D02*
X8011000Y-6409000D01*
X7941000Y-6339000D02*
X8081000Y-6339000D01*
X7941000Y-7011000D02*
X8081000Y-7151000D01*
X8081000Y-7011000D02*
X7941000Y-7151000D01*
X8011000Y-7011000D02*
X8011000Y-7151000D01*
X7941000Y-7081000D02*
X8081000Y-7081000D01*
X8449000Y-6269000D02*
X8589000Y-6409000D01*
X8589000Y-6269000D02*
X8449000Y-6409000D01*
X8519000Y-6269000D02*
X8519000Y-6409000D01*
X8449000Y-6339000D02*
X8589000Y-6339000D01*
X8449000Y-7011000D02*
X8589000Y-7151000D01*
X8589000Y-7011000D02*
X8449000Y-7151000D01*
X8519000Y-7011000D02*
X8519000Y-7151000D01*
X8449000Y-7081000D02*
X8589000Y-7081000D01*
D11*
X7961619Y-16817524D02*
X7961619Y-16617524D01*
X7961619Y-16617524D02*
X8009238Y-16617524D01*
X8009238Y-16617524D02*
X8037809Y-16627048D01*
X8037809Y-16627048D02*
X8056857Y-16646095D01*
X8056857Y-16646095D02*
X8066381Y-16665143D01*
X8066381Y-16665143D02*
X8075905Y-16703238D01*
X8075905Y-16703238D02*
X8075905Y-16731809D01*
X8075905Y-16731809D02*
X8066381Y-16769905D01*
X8066381Y-16769905D02*
X8056857Y-16788952D01*
X8056857Y-16788952D02*
X8037809Y-16808000D01*
X8037809Y-16808000D02*
X8009238Y-16817524D01*
X8009238Y-16817524D02*
X7961619Y-16817524D01*
X8161619Y-16817524D02*
X8161619Y-16684190D01*
X8161619Y-16722286D02*
X8171143Y-16703238D01*
X8171143Y-16703238D02*
X8180667Y-16693714D01*
X8180667Y-16693714D02*
X8199714Y-16684190D01*
X8199714Y-16684190D02*
X8218762Y-16684190D01*
X8285428Y-16817524D02*
X8285428Y-16684190D01*
X8285428Y-16617524D02*
X8275905Y-16627048D01*
X8275905Y-16627048D02*
X8285428Y-16636571D01*
X8285428Y-16636571D02*
X8294952Y-16627048D01*
X8294952Y-16627048D02*
X8285428Y-16617524D01*
X8285428Y-16617524D02*
X8285428Y-16636571D01*
X8409238Y-16817524D02*
X8390190Y-16808000D01*
X8390190Y-16808000D02*
X8380667Y-16788952D01*
X8380667Y-16788952D02*
X8380667Y-16617524D01*
X8514000Y-16817524D02*
X8494952Y-16808000D01*
X8494952Y-16808000D02*
X8485429Y-16788952D01*
X8485429Y-16788952D02*
X8485429Y-16617524D01*
X8742571Y-16817524D02*
X8742571Y-16617524D01*
X8742571Y-16617524D02*
X8809238Y-16760381D01*
X8809238Y-16760381D02*
X8875905Y-16617524D01*
X8875905Y-16617524D02*
X8875905Y-16817524D01*
X9056857Y-16817524D02*
X9056857Y-16712762D01*
X9056857Y-16712762D02*
X9047333Y-16693714D01*
X9047333Y-16693714D02*
X9028286Y-16684190D01*
X9028286Y-16684190D02*
X8990190Y-16684190D01*
X8990190Y-16684190D02*
X8971143Y-16693714D01*
X9056857Y-16808000D02*
X9037810Y-16817524D01*
X9037810Y-16817524D02*
X8990190Y-16817524D01*
X8990190Y-16817524D02*
X8971143Y-16808000D01*
X8971143Y-16808000D02*
X8961619Y-16788952D01*
X8961619Y-16788952D02*
X8961619Y-16769905D01*
X8961619Y-16769905D02*
X8971143Y-16750857D01*
X8971143Y-16750857D02*
X8990190Y-16741333D01*
X8990190Y-16741333D02*
X9037810Y-16741333D01*
X9037810Y-16741333D02*
X9056857Y-16731809D01*
X9152095Y-16684190D02*
X9152095Y-16884190D01*
X9152095Y-16693714D02*
X9171143Y-16684190D01*
X9171143Y-16684190D02*
X9209238Y-16684190D01*
X9209238Y-16684190D02*
X9228286Y-16693714D01*
X9228286Y-16693714D02*
X9237810Y-16703238D01*
X9237810Y-16703238D02*
X9247333Y-16722286D01*
X9247333Y-16722286D02*
X9247333Y-16779429D01*
X9247333Y-16779429D02*
X9237810Y-16798476D01*
X9237810Y-16798476D02*
X9228286Y-16808000D01*
X9228286Y-16808000D02*
X9209238Y-16817524D01*
X9209238Y-16817524D02*
X9171143Y-16817524D01*
X9171143Y-16817524D02*
X9152095Y-16808000D01*
X9333048Y-16798476D02*
X9342571Y-16808000D01*
X9342571Y-16808000D02*
X9333048Y-16817524D01*
X9333048Y-16817524D02*
X9323524Y-16808000D01*
X9323524Y-16808000D02*
X9333048Y-16798476D01*
X9333048Y-16798476D02*
X9333048Y-16817524D01*
X9333048Y-16693714D02*
X9342571Y-16703238D01*
X9342571Y-16703238D02*
X9333048Y-16712762D01*
X9333048Y-16712762D02*
X9323524Y-16703238D01*
X9323524Y-16703238D02*
X9333048Y-16693714D01*
X9333048Y-16693714D02*
X9333048Y-16712762D01*
D12*
X7684000Y-17130000D02*
X7714000Y-17160000D01*
X7714000Y-17130000D02*
X7684000Y-17160000D01*
D11*
X7999714Y-17037524D02*
X8018762Y-17037524D01*
X8018762Y-17037524D02*
X8037809Y-17047048D01*
X8037809Y-17047048D02*
X8047333Y-17056571D01*
X8047333Y-17056571D02*
X8056857Y-17075619D01*
X8056857Y-17075619D02*
X8066381Y-17113714D01*
X8066381Y-17113714D02*
X8066381Y-17161333D01*
X8066381Y-17161333D02*
X8056857Y-17199429D01*
X8056857Y-17199429D02*
X8047333Y-17218476D01*
X8047333Y-17218476D02*
X8037809Y-17228000D01*
X8037809Y-17228000D02*
X8018762Y-17237524D01*
X8018762Y-17237524D02*
X7999714Y-17237524D01*
X7999714Y-17237524D02*
X7980667Y-17228000D01*
X7980667Y-17228000D02*
X7971143Y-17218476D01*
X7971143Y-17218476D02*
X7961619Y-17199429D01*
X7961619Y-17199429D02*
X7952095Y-17161333D01*
X7952095Y-17161333D02*
X7952095Y-17113714D01*
X7952095Y-17113714D02*
X7961619Y-17075619D01*
X7961619Y-17075619D02*
X7971143Y-17056571D01*
X7971143Y-17056571D02*
X7980667Y-17047048D01*
X7980667Y-17047048D02*
X7999714Y-17037524D01*
X8152095Y-17218476D02*
X8161619Y-17228000D01*
X8161619Y-17228000D02*
X8152095Y-17237524D01*
X8152095Y-17237524D02*
X8142571Y-17228000D01*
X8142571Y-17228000D02*
X8152095Y-17218476D01*
X8152095Y-17218476D02*
X8152095Y-17237524D01*
X8228286Y-17037524D02*
X8352095Y-17037524D01*
X8352095Y-17037524D02*
X8285428Y-17113714D01*
X8285428Y-17113714D02*
X8314000Y-17113714D01*
X8314000Y-17113714D02*
X8333048Y-17123238D01*
X8333048Y-17123238D02*
X8342571Y-17132762D01*
X8342571Y-17132762D02*
X8352095Y-17151810D01*
X8352095Y-17151810D02*
X8352095Y-17199429D01*
X8352095Y-17199429D02*
X8342571Y-17218476D01*
X8342571Y-17218476D02*
X8333048Y-17228000D01*
X8333048Y-17228000D02*
X8314000Y-17237524D01*
X8314000Y-17237524D02*
X8256857Y-17237524D01*
X8256857Y-17237524D02*
X8237809Y-17228000D01*
X8237809Y-17228000D02*
X8228286Y-17218476D01*
X8475905Y-17037524D02*
X8494952Y-17037524D01*
X8494952Y-17037524D02*
X8514000Y-17047048D01*
X8514000Y-17047048D02*
X8523524Y-17056571D01*
X8523524Y-17056571D02*
X8533048Y-17075619D01*
X8533048Y-17075619D02*
X8542571Y-17113714D01*
X8542571Y-17113714D02*
X8542571Y-17161333D01*
X8542571Y-17161333D02*
X8533048Y-17199429D01*
X8533048Y-17199429D02*
X8523524Y-17218476D01*
X8523524Y-17218476D02*
X8514000Y-17228000D01*
X8514000Y-17228000D02*
X8494952Y-17237524D01*
X8494952Y-17237524D02*
X8475905Y-17237524D01*
X8475905Y-17237524D02*
X8456857Y-17228000D01*
X8456857Y-17228000D02*
X8447333Y-17218476D01*
X8447333Y-17218476D02*
X8437810Y-17199429D01*
X8437810Y-17199429D02*
X8428286Y-17161333D01*
X8428286Y-17161333D02*
X8428286Y-17113714D01*
X8428286Y-17113714D02*
X8437810Y-17075619D01*
X8437810Y-17075619D02*
X8447333Y-17056571D01*
X8447333Y-17056571D02*
X8456857Y-17047048D01*
X8456857Y-17047048D02*
X8475905Y-17037524D01*
X8666381Y-17037524D02*
X8685429Y-17037524D01*
X8685429Y-17037524D02*
X8704476Y-17047048D01*
X8704476Y-17047048D02*
X8714000Y-17056571D01*
X8714000Y-17056571D02*
X8723524Y-17075619D01*
X8723524Y-17075619D02*
X8733048Y-17113714D01*
X8733048Y-17113714D02*
X8733048Y-17161333D01*
X8733048Y-17161333D02*
X8723524Y-17199429D01*
X8723524Y-17199429D02*
X8714000Y-17218476D01*
X8714000Y-17218476D02*
X8704476Y-17228000D01*
X8704476Y-17228000D02*
X8685429Y-17237524D01*
X8685429Y-17237524D02*
X8666381Y-17237524D01*
X8666381Y-17237524D02*
X8647333Y-17228000D01*
X8647333Y-17228000D02*
X8637810Y-17218476D01*
X8637810Y-17218476D02*
X8628286Y-17199429D01*
X8628286Y-17199429D02*
X8618762Y-17161333D01*
X8618762Y-17161333D02*
X8618762Y-17113714D01*
X8618762Y-17113714D02*
X8628286Y-17075619D01*
X8628286Y-17075619D02*
X8637810Y-17056571D01*
X8637810Y-17056571D02*
X8647333Y-17047048D01*
X8647333Y-17047048D02*
X8666381Y-17037524D01*
X8818762Y-17237524D02*
X8818762Y-17104190D01*
X8818762Y-17123238D02*
X8828286Y-17113714D01*
X8828286Y-17113714D02*
X8847333Y-17104190D01*
X8847333Y-17104190D02*
X8875905Y-17104190D01*
X8875905Y-17104190D02*
X8894952Y-17113714D01*
X8894952Y-17113714D02*
X8904476Y-17132762D01*
X8904476Y-17132762D02*
X8904476Y-17237524D01*
X8904476Y-17132762D02*
X8914000Y-17113714D01*
X8914000Y-17113714D02*
X8933048Y-17104190D01*
X8933048Y-17104190D02*
X8961619Y-17104190D01*
X8961619Y-17104190D02*
X8980667Y-17113714D01*
X8980667Y-17113714D02*
X8990191Y-17132762D01*
X8990191Y-17132762D02*
X8990191Y-17237524D01*
X9085429Y-17237524D02*
X9085429Y-17104190D01*
X9085429Y-17123238D02*
X9094952Y-17113714D01*
X9094952Y-17113714D02*
X9114000Y-17104190D01*
X9114000Y-17104190D02*
X9142572Y-17104190D01*
X9142572Y-17104190D02*
X9161619Y-17113714D01*
X9161619Y-17113714D02*
X9171143Y-17132762D01*
X9171143Y-17132762D02*
X9171143Y-17237524D01*
X9171143Y-17132762D02*
X9180667Y-17113714D01*
X9180667Y-17113714D02*
X9199714Y-17104190D01*
X9199714Y-17104190D02*
X9228286Y-17104190D01*
X9228286Y-17104190D02*
X9247333Y-17113714D01*
X9247333Y-17113714D02*
X9256857Y-17132762D01*
X9256857Y-17132762D02*
X9256857Y-17237524D01*
X9647333Y-17028000D02*
X9475905Y-17285143D01*
X9904476Y-17037524D02*
X9923524Y-17037524D01*
X9923524Y-17037524D02*
X9942572Y-17047048D01*
X9942572Y-17047048D02*
X9952095Y-17056571D01*
X9952095Y-17056571D02*
X9961619Y-17075619D01*
X9961619Y-17075619D02*
X9971143Y-17113714D01*
X9971143Y-17113714D02*
X9971143Y-17161333D01*
X9971143Y-17161333D02*
X9961619Y-17199429D01*
X9961619Y-17199429D02*
X9952095Y-17218476D01*
X9952095Y-17218476D02*
X9942572Y-17228000D01*
X9942572Y-17228000D02*
X9923524Y-17237524D01*
X9923524Y-17237524D02*
X9904476Y-17237524D01*
X9904476Y-17237524D02*
X9885429Y-17228000D01*
X9885429Y-17228000D02*
X9875905Y-17218476D01*
X9875905Y-17218476D02*
X9866381Y-17199429D01*
X9866381Y-17199429D02*
X9856857Y-17161333D01*
X9856857Y-17161333D02*
X9856857Y-17113714D01*
X9856857Y-17113714D02*
X9866381Y-17075619D01*
X9866381Y-17075619D02*
X9875905Y-17056571D01*
X9875905Y-17056571D02*
X9885429Y-17047048D01*
X9885429Y-17047048D02*
X9904476Y-17037524D01*
X10056857Y-17218476D02*
X10066381Y-17228000D01*
X10066381Y-17228000D02*
X10056857Y-17237524D01*
X10056857Y-17237524D02*
X10047334Y-17228000D01*
X10047334Y-17228000D02*
X10056857Y-17218476D01*
X10056857Y-17218476D02*
X10056857Y-17237524D01*
X10190191Y-17037524D02*
X10209238Y-17037524D01*
X10209238Y-17037524D02*
X10228286Y-17047048D01*
X10228286Y-17047048D02*
X10237810Y-17056571D01*
X10237810Y-17056571D02*
X10247334Y-17075619D01*
X10247334Y-17075619D02*
X10256857Y-17113714D01*
X10256857Y-17113714D02*
X10256857Y-17161333D01*
X10256857Y-17161333D02*
X10247334Y-17199429D01*
X10247334Y-17199429D02*
X10237810Y-17218476D01*
X10237810Y-17218476D02*
X10228286Y-17228000D01*
X10228286Y-17228000D02*
X10209238Y-17237524D01*
X10209238Y-17237524D02*
X10190191Y-17237524D01*
X10190191Y-17237524D02*
X10171143Y-17228000D01*
X10171143Y-17228000D02*
X10161619Y-17218476D01*
X10161619Y-17218476D02*
X10152095Y-17199429D01*
X10152095Y-17199429D02*
X10142572Y-17161333D01*
X10142572Y-17161333D02*
X10142572Y-17113714D01*
X10142572Y-17113714D02*
X10152095Y-17075619D01*
X10152095Y-17075619D02*
X10161619Y-17056571D01*
X10161619Y-17056571D02*
X10171143Y-17047048D01*
X10171143Y-17047048D02*
X10190191Y-17037524D01*
X10447334Y-17237524D02*
X10333048Y-17237524D01*
X10390191Y-17237524D02*
X10390191Y-17037524D01*
X10390191Y-17037524D02*
X10371143Y-17066095D01*
X10371143Y-17066095D02*
X10352095Y-17085143D01*
X10352095Y-17085143D02*
X10333048Y-17094667D01*
X10637810Y-17237524D02*
X10523524Y-17237524D01*
X10580667Y-17237524D02*
X10580667Y-17037524D01*
X10580667Y-17037524D02*
X10561619Y-17066095D01*
X10561619Y-17066095D02*
X10542572Y-17085143D01*
X10542572Y-17085143D02*
X10523524Y-17094667D01*
X10752095Y-17123238D02*
X10733048Y-17113714D01*
X10733048Y-17113714D02*
X10723524Y-17104190D01*
X10723524Y-17104190D02*
X10714000Y-17085143D01*
X10714000Y-17085143D02*
X10714000Y-17075619D01*
X10714000Y-17075619D02*
X10723524Y-17056571D01*
X10723524Y-17056571D02*
X10733048Y-17047048D01*
X10733048Y-17047048D02*
X10752095Y-17037524D01*
X10752095Y-17037524D02*
X10790191Y-17037524D01*
X10790191Y-17037524D02*
X10809238Y-17047048D01*
X10809238Y-17047048D02*
X10818762Y-17056571D01*
X10818762Y-17056571D02*
X10828286Y-17075619D01*
X10828286Y-17075619D02*
X10828286Y-17085143D01*
X10828286Y-17085143D02*
X10818762Y-17104190D01*
X10818762Y-17104190D02*
X10809238Y-17113714D01*
X10809238Y-17113714D02*
X10790191Y-17123238D01*
X10790191Y-17123238D02*
X10752095Y-17123238D01*
X10752095Y-17123238D02*
X10733048Y-17132762D01*
X10733048Y-17132762D02*
X10723524Y-17142286D01*
X10723524Y-17142286D02*
X10714000Y-17161333D01*
X10714000Y-17161333D02*
X10714000Y-17199429D01*
X10714000Y-17199429D02*
X10723524Y-17218476D01*
X10723524Y-17218476D02*
X10733048Y-17228000D01*
X10733048Y-17228000D02*
X10752095Y-17237524D01*
X10752095Y-17237524D02*
X10790191Y-17237524D01*
X10790191Y-17237524D02*
X10809238Y-17228000D01*
X10809238Y-17228000D02*
X10818762Y-17218476D01*
X10818762Y-17218476D02*
X10828286Y-17199429D01*
X10828286Y-17199429D02*
X10828286Y-17161333D01*
X10828286Y-17161333D02*
X10818762Y-17142286D01*
X10818762Y-17142286D02*
X10809238Y-17132762D01*
X10809238Y-17132762D02*
X10790191Y-17123238D01*
X10904476Y-17037524D02*
X10904476Y-17075619D01*
X10980667Y-17037524D02*
X10980667Y-17075619D01*
X11275905Y-17313714D02*
X11266381Y-17304190D01*
X11266381Y-17304190D02*
X11247334Y-17275619D01*
X11247334Y-17275619D02*
X11237810Y-17256571D01*
X11237810Y-17256571D02*
X11228286Y-17228000D01*
X11228286Y-17228000D02*
X11218762Y-17180381D01*
X11218762Y-17180381D02*
X11218762Y-17142286D01*
X11218762Y-17142286D02*
X11228286Y-17094667D01*
X11228286Y-17094667D02*
X11237810Y-17066095D01*
X11237810Y-17066095D02*
X11247334Y-17047048D01*
X11247334Y-17047048D02*
X11266381Y-17018476D01*
X11266381Y-17018476D02*
X11275905Y-17008952D01*
X11380667Y-17123238D02*
X11361619Y-17113714D01*
X11361619Y-17113714D02*
X11352095Y-17104190D01*
X11352095Y-17104190D02*
X11342572Y-17085143D01*
X11342572Y-17085143D02*
X11342572Y-17075619D01*
X11342572Y-17075619D02*
X11352095Y-17056571D01*
X11352095Y-17056571D02*
X11361619Y-17047048D01*
X11361619Y-17047048D02*
X11380667Y-17037524D01*
X11380667Y-17037524D02*
X11418762Y-17037524D01*
X11418762Y-17037524D02*
X11437810Y-17047048D01*
X11437810Y-17047048D02*
X11447334Y-17056571D01*
X11447334Y-17056571D02*
X11456857Y-17075619D01*
X11456857Y-17075619D02*
X11456857Y-17085143D01*
X11456857Y-17085143D02*
X11447334Y-17104190D01*
X11447334Y-17104190D02*
X11437810Y-17113714D01*
X11437810Y-17113714D02*
X11418762Y-17123238D01*
X11418762Y-17123238D02*
X11380667Y-17123238D01*
X11380667Y-17123238D02*
X11361619Y-17132762D01*
X11361619Y-17132762D02*
X11352095Y-17142286D01*
X11352095Y-17142286D02*
X11342572Y-17161333D01*
X11342572Y-17161333D02*
X11342572Y-17199429D01*
X11342572Y-17199429D02*
X11352095Y-17218476D01*
X11352095Y-17218476D02*
X11361619Y-17228000D01*
X11361619Y-17228000D02*
X11380667Y-17237524D01*
X11380667Y-17237524D02*
X11418762Y-17237524D01*
X11418762Y-17237524D02*
X11437810Y-17228000D01*
X11437810Y-17228000D02*
X11447334Y-17218476D01*
X11447334Y-17218476D02*
X11456857Y-17199429D01*
X11456857Y-17199429D02*
X11456857Y-17161333D01*
X11456857Y-17161333D02*
X11447334Y-17142286D01*
X11447334Y-17142286D02*
X11437810Y-17132762D01*
X11437810Y-17132762D02*
X11418762Y-17123238D01*
X11694953Y-17237524D02*
X11694953Y-17037524D01*
X11780667Y-17237524D02*
X11780667Y-17132762D01*
X11780667Y-17132762D02*
X11771143Y-17113714D01*
X11771143Y-17113714D02*
X11752096Y-17104190D01*
X11752096Y-17104190D02*
X11723524Y-17104190D01*
X11723524Y-17104190D02*
X11704476Y-17113714D01*
X11704476Y-17113714D02*
X11694953Y-17123238D01*
X11904476Y-17237524D02*
X11885429Y-17228000D01*
X11885429Y-17228000D02*
X11875905Y-17218476D01*
X11875905Y-17218476D02*
X11866381Y-17199429D01*
X11866381Y-17199429D02*
X11866381Y-17142286D01*
X11866381Y-17142286D02*
X11875905Y-17123238D01*
X11875905Y-17123238D02*
X11885429Y-17113714D01*
X11885429Y-17113714D02*
X11904476Y-17104190D01*
X11904476Y-17104190D02*
X11933048Y-17104190D01*
X11933048Y-17104190D02*
X11952096Y-17113714D01*
X11952096Y-17113714D02*
X11961619Y-17123238D01*
X11961619Y-17123238D02*
X11971143Y-17142286D01*
X11971143Y-17142286D02*
X11971143Y-17199429D01*
X11971143Y-17199429D02*
X11961619Y-17218476D01*
X11961619Y-17218476D02*
X11952096Y-17228000D01*
X11952096Y-17228000D02*
X11933048Y-17237524D01*
X11933048Y-17237524D02*
X11904476Y-17237524D01*
X12085429Y-17237524D02*
X12066381Y-17228000D01*
X12066381Y-17228000D02*
X12056857Y-17208952D01*
X12056857Y-17208952D02*
X12056857Y-17037524D01*
X12237810Y-17228000D02*
X12218762Y-17237524D01*
X12218762Y-17237524D02*
X12180667Y-17237524D01*
X12180667Y-17237524D02*
X12161619Y-17228000D01*
X12161619Y-17228000D02*
X12152096Y-17208952D01*
X12152096Y-17208952D02*
X12152096Y-17132762D01*
X12152096Y-17132762D02*
X12161619Y-17113714D01*
X12161619Y-17113714D02*
X12180667Y-17104190D01*
X12180667Y-17104190D02*
X12218762Y-17104190D01*
X12218762Y-17104190D02*
X12237810Y-17113714D01*
X12237810Y-17113714D02*
X12247334Y-17132762D01*
X12247334Y-17132762D02*
X12247334Y-17151810D01*
X12247334Y-17151810D02*
X12152096Y-17170857D01*
X12323524Y-17228000D02*
X12342572Y-17237524D01*
X12342572Y-17237524D02*
X12380667Y-17237524D01*
X12380667Y-17237524D02*
X12399715Y-17228000D01*
X12399715Y-17228000D02*
X12409238Y-17208952D01*
X12409238Y-17208952D02*
X12409238Y-17199429D01*
X12409238Y-17199429D02*
X12399715Y-17180381D01*
X12399715Y-17180381D02*
X12380667Y-17170857D01*
X12380667Y-17170857D02*
X12352096Y-17170857D01*
X12352096Y-17170857D02*
X12333048Y-17161333D01*
X12333048Y-17161333D02*
X12323524Y-17142286D01*
X12323524Y-17142286D02*
X12323524Y-17132762D01*
X12323524Y-17132762D02*
X12333048Y-17113714D01*
X12333048Y-17113714D02*
X12352096Y-17104190D01*
X12352096Y-17104190D02*
X12380667Y-17104190D01*
X12380667Y-17104190D02*
X12399715Y-17113714D01*
X12475905Y-17313714D02*
X12485429Y-17304190D01*
X12485429Y-17304190D02*
X12504477Y-17275619D01*
X12504477Y-17275619D02*
X12514000Y-17256571D01*
X12514000Y-17256571D02*
X12523524Y-17228000D01*
X12523524Y-17228000D02*
X12533048Y-17180381D01*
X12533048Y-17180381D02*
X12533048Y-17142286D01*
X12533048Y-17142286D02*
X12523524Y-17094667D01*
X12523524Y-17094667D02*
X12514000Y-17066095D01*
X12514000Y-17066095D02*
X12504477Y-17047048D01*
X12504477Y-17047048D02*
X12485429Y-17018476D01*
X12485429Y-17018476D02*
X12475905Y-17008952D01*
D13*
X7714000Y-17409000D02*
G75*
G03*
X7714000Y-17409000I-20000J0D01*
G01*
D11*
X7999714Y-17301524D02*
X8018762Y-17301524D01*
X8018762Y-17301524D02*
X8037809Y-17311048D01*
X8037809Y-17311048D02*
X8047333Y-17320571D01*
X8047333Y-17320571D02*
X8056857Y-17339619D01*
X8056857Y-17339619D02*
X8066381Y-17377714D01*
X8066381Y-17377714D02*
X8066381Y-17425333D01*
X8066381Y-17425333D02*
X8056857Y-17463429D01*
X8056857Y-17463429D02*
X8047333Y-17482476D01*
X8047333Y-17482476D02*
X8037809Y-17492000D01*
X8037809Y-17492000D02*
X8018762Y-17501524D01*
X8018762Y-17501524D02*
X7999714Y-17501524D01*
X7999714Y-17501524D02*
X7980667Y-17492000D01*
X7980667Y-17492000D02*
X7971143Y-17482476D01*
X7971143Y-17482476D02*
X7961619Y-17463429D01*
X7961619Y-17463429D02*
X7952095Y-17425333D01*
X7952095Y-17425333D02*
X7952095Y-17377714D01*
X7952095Y-17377714D02*
X7961619Y-17339619D01*
X7961619Y-17339619D02*
X7971143Y-17320571D01*
X7971143Y-17320571D02*
X7980667Y-17311048D01*
X7980667Y-17311048D02*
X7999714Y-17301524D01*
X8152095Y-17482476D02*
X8161619Y-17492000D01*
X8161619Y-17492000D02*
X8152095Y-17501524D01*
X8152095Y-17501524D02*
X8142571Y-17492000D01*
X8142571Y-17492000D02*
X8152095Y-17482476D01*
X8152095Y-17482476D02*
X8152095Y-17501524D01*
X8333048Y-17368190D02*
X8333048Y-17501524D01*
X8285428Y-17292000D02*
X8237809Y-17434857D01*
X8237809Y-17434857D02*
X8361619Y-17434857D01*
X8475905Y-17301524D02*
X8494952Y-17301524D01*
X8494952Y-17301524D02*
X8514000Y-17311048D01*
X8514000Y-17311048D02*
X8523524Y-17320571D01*
X8523524Y-17320571D02*
X8533048Y-17339619D01*
X8533048Y-17339619D02*
X8542571Y-17377714D01*
X8542571Y-17377714D02*
X8542571Y-17425333D01*
X8542571Y-17425333D02*
X8533048Y-17463429D01*
X8533048Y-17463429D02*
X8523524Y-17482476D01*
X8523524Y-17482476D02*
X8514000Y-17492000D01*
X8514000Y-17492000D02*
X8494952Y-17501524D01*
X8494952Y-17501524D02*
X8475905Y-17501524D01*
X8475905Y-17501524D02*
X8456857Y-17492000D01*
X8456857Y-17492000D02*
X8447333Y-17482476D01*
X8447333Y-17482476D02*
X8437810Y-17463429D01*
X8437810Y-17463429D02*
X8428286Y-17425333D01*
X8428286Y-17425333D02*
X8428286Y-17377714D01*
X8428286Y-17377714D02*
X8437810Y-17339619D01*
X8437810Y-17339619D02*
X8447333Y-17320571D01*
X8447333Y-17320571D02*
X8456857Y-17311048D01*
X8456857Y-17311048D02*
X8475905Y-17301524D01*
X8666381Y-17301524D02*
X8685429Y-17301524D01*
X8685429Y-17301524D02*
X8704476Y-17311048D01*
X8704476Y-17311048D02*
X8714000Y-17320571D01*
X8714000Y-17320571D02*
X8723524Y-17339619D01*
X8723524Y-17339619D02*
X8733048Y-17377714D01*
X8733048Y-17377714D02*
X8733048Y-17425333D01*
X8733048Y-17425333D02*
X8723524Y-17463429D01*
X8723524Y-17463429D02*
X8714000Y-17482476D01*
X8714000Y-17482476D02*
X8704476Y-17492000D01*
X8704476Y-17492000D02*
X8685429Y-17501524D01*
X8685429Y-17501524D02*
X8666381Y-17501524D01*
X8666381Y-17501524D02*
X8647333Y-17492000D01*
X8647333Y-17492000D02*
X8637810Y-17482476D01*
X8637810Y-17482476D02*
X8628286Y-17463429D01*
X8628286Y-17463429D02*
X8618762Y-17425333D01*
X8618762Y-17425333D02*
X8618762Y-17377714D01*
X8618762Y-17377714D02*
X8628286Y-17339619D01*
X8628286Y-17339619D02*
X8637810Y-17320571D01*
X8637810Y-17320571D02*
X8647333Y-17311048D01*
X8647333Y-17311048D02*
X8666381Y-17301524D01*
X8818762Y-17501524D02*
X8818762Y-17368190D01*
X8818762Y-17387238D02*
X8828286Y-17377714D01*
X8828286Y-17377714D02*
X8847333Y-17368190D01*
X8847333Y-17368190D02*
X8875905Y-17368190D01*
X8875905Y-17368190D02*
X8894952Y-17377714D01*
X8894952Y-17377714D02*
X8904476Y-17396762D01*
X8904476Y-17396762D02*
X8904476Y-17501524D01*
X8904476Y-17396762D02*
X8914000Y-17377714D01*
X8914000Y-17377714D02*
X8933048Y-17368190D01*
X8933048Y-17368190D02*
X8961619Y-17368190D01*
X8961619Y-17368190D02*
X8980667Y-17377714D01*
X8980667Y-17377714D02*
X8990191Y-17396762D01*
X8990191Y-17396762D02*
X8990191Y-17501524D01*
X9085429Y-17501524D02*
X9085429Y-17368190D01*
X9085429Y-17387238D02*
X9094952Y-17377714D01*
X9094952Y-17377714D02*
X9114000Y-17368190D01*
X9114000Y-17368190D02*
X9142572Y-17368190D01*
X9142572Y-17368190D02*
X9161619Y-17377714D01*
X9161619Y-17377714D02*
X9171143Y-17396762D01*
X9171143Y-17396762D02*
X9171143Y-17501524D01*
X9171143Y-17396762D02*
X9180667Y-17377714D01*
X9180667Y-17377714D02*
X9199714Y-17368190D01*
X9199714Y-17368190D02*
X9228286Y-17368190D01*
X9228286Y-17368190D02*
X9247333Y-17377714D01*
X9247333Y-17377714D02*
X9256857Y-17396762D01*
X9256857Y-17396762D02*
X9256857Y-17501524D01*
X9647333Y-17292000D02*
X9475905Y-17549143D01*
X9904476Y-17301524D02*
X9923524Y-17301524D01*
X9923524Y-17301524D02*
X9942572Y-17311048D01*
X9942572Y-17311048D02*
X9952095Y-17320571D01*
X9952095Y-17320571D02*
X9961619Y-17339619D01*
X9961619Y-17339619D02*
X9971143Y-17377714D01*
X9971143Y-17377714D02*
X9971143Y-17425333D01*
X9971143Y-17425333D02*
X9961619Y-17463429D01*
X9961619Y-17463429D02*
X9952095Y-17482476D01*
X9952095Y-17482476D02*
X9942572Y-17492000D01*
X9942572Y-17492000D02*
X9923524Y-17501524D01*
X9923524Y-17501524D02*
X9904476Y-17501524D01*
X9904476Y-17501524D02*
X9885429Y-17492000D01*
X9885429Y-17492000D02*
X9875905Y-17482476D01*
X9875905Y-17482476D02*
X9866381Y-17463429D01*
X9866381Y-17463429D02*
X9856857Y-17425333D01*
X9856857Y-17425333D02*
X9856857Y-17377714D01*
X9856857Y-17377714D02*
X9866381Y-17339619D01*
X9866381Y-17339619D02*
X9875905Y-17320571D01*
X9875905Y-17320571D02*
X9885429Y-17311048D01*
X9885429Y-17311048D02*
X9904476Y-17301524D01*
X10056857Y-17482476D02*
X10066381Y-17492000D01*
X10066381Y-17492000D02*
X10056857Y-17501524D01*
X10056857Y-17501524D02*
X10047334Y-17492000D01*
X10047334Y-17492000D02*
X10056857Y-17482476D01*
X10056857Y-17482476D02*
X10056857Y-17501524D01*
X10190191Y-17301524D02*
X10209238Y-17301524D01*
X10209238Y-17301524D02*
X10228286Y-17311048D01*
X10228286Y-17311048D02*
X10237810Y-17320571D01*
X10237810Y-17320571D02*
X10247334Y-17339619D01*
X10247334Y-17339619D02*
X10256857Y-17377714D01*
X10256857Y-17377714D02*
X10256857Y-17425333D01*
X10256857Y-17425333D02*
X10247334Y-17463429D01*
X10247334Y-17463429D02*
X10237810Y-17482476D01*
X10237810Y-17482476D02*
X10228286Y-17492000D01*
X10228286Y-17492000D02*
X10209238Y-17501524D01*
X10209238Y-17501524D02*
X10190191Y-17501524D01*
X10190191Y-17501524D02*
X10171143Y-17492000D01*
X10171143Y-17492000D02*
X10161619Y-17482476D01*
X10161619Y-17482476D02*
X10152095Y-17463429D01*
X10152095Y-17463429D02*
X10142572Y-17425333D01*
X10142572Y-17425333D02*
X10142572Y-17377714D01*
X10142572Y-17377714D02*
X10152095Y-17339619D01*
X10152095Y-17339619D02*
X10161619Y-17320571D01*
X10161619Y-17320571D02*
X10171143Y-17311048D01*
X10171143Y-17311048D02*
X10190191Y-17301524D01*
X10447334Y-17501524D02*
X10333048Y-17501524D01*
X10390191Y-17501524D02*
X10390191Y-17301524D01*
X10390191Y-17301524D02*
X10371143Y-17330095D01*
X10371143Y-17330095D02*
X10352095Y-17349143D01*
X10352095Y-17349143D02*
X10333048Y-17358667D01*
X10628286Y-17301524D02*
X10533048Y-17301524D01*
X10533048Y-17301524D02*
X10523524Y-17396762D01*
X10523524Y-17396762D02*
X10533048Y-17387238D01*
X10533048Y-17387238D02*
X10552095Y-17377714D01*
X10552095Y-17377714D02*
X10599715Y-17377714D01*
X10599715Y-17377714D02*
X10618762Y-17387238D01*
X10618762Y-17387238D02*
X10628286Y-17396762D01*
X10628286Y-17396762D02*
X10637810Y-17415810D01*
X10637810Y-17415810D02*
X10637810Y-17463429D01*
X10637810Y-17463429D02*
X10628286Y-17482476D01*
X10628286Y-17482476D02*
X10618762Y-17492000D01*
X10618762Y-17492000D02*
X10599715Y-17501524D01*
X10599715Y-17501524D02*
X10552095Y-17501524D01*
X10552095Y-17501524D02*
X10533048Y-17492000D01*
X10533048Y-17492000D02*
X10523524Y-17482476D01*
X10704476Y-17301524D02*
X10837810Y-17301524D01*
X10837810Y-17301524D02*
X10752095Y-17501524D01*
X10904476Y-17301524D02*
X10904476Y-17339619D01*
X10980667Y-17301524D02*
X10980667Y-17339619D01*
X11275905Y-17577714D02*
X11266381Y-17568190D01*
X11266381Y-17568190D02*
X11247334Y-17539619D01*
X11247334Y-17539619D02*
X11237810Y-17520571D01*
X11237810Y-17520571D02*
X11228286Y-17492000D01*
X11228286Y-17492000D02*
X11218762Y-17444381D01*
X11218762Y-17444381D02*
X11218762Y-17406286D01*
X11218762Y-17406286D02*
X11228286Y-17358667D01*
X11228286Y-17358667D02*
X11237810Y-17330095D01*
X11237810Y-17330095D02*
X11247334Y-17311048D01*
X11247334Y-17311048D02*
X11266381Y-17282476D01*
X11266381Y-17282476D02*
X11275905Y-17272952D01*
X11456857Y-17501524D02*
X11342572Y-17501524D01*
X11399714Y-17501524D02*
X11399714Y-17301524D01*
X11399714Y-17301524D02*
X11380667Y-17330095D01*
X11380667Y-17330095D02*
X11361619Y-17349143D01*
X11361619Y-17349143D02*
X11342572Y-17358667D01*
X11628286Y-17301524D02*
X11590191Y-17301524D01*
X11590191Y-17301524D02*
X11571143Y-17311048D01*
X11571143Y-17311048D02*
X11561619Y-17320571D01*
X11561619Y-17320571D02*
X11542572Y-17349143D01*
X11542572Y-17349143D02*
X11533048Y-17387238D01*
X11533048Y-17387238D02*
X11533048Y-17463429D01*
X11533048Y-17463429D02*
X11542572Y-17482476D01*
X11542572Y-17482476D02*
X11552095Y-17492000D01*
X11552095Y-17492000D02*
X11571143Y-17501524D01*
X11571143Y-17501524D02*
X11609238Y-17501524D01*
X11609238Y-17501524D02*
X11628286Y-17492000D01*
X11628286Y-17492000D02*
X11637810Y-17482476D01*
X11637810Y-17482476D02*
X11647334Y-17463429D01*
X11647334Y-17463429D02*
X11647334Y-17415810D01*
X11647334Y-17415810D02*
X11637810Y-17396762D01*
X11637810Y-17396762D02*
X11628286Y-17387238D01*
X11628286Y-17387238D02*
X11609238Y-17377714D01*
X11609238Y-17377714D02*
X11571143Y-17377714D01*
X11571143Y-17377714D02*
X11552095Y-17387238D01*
X11552095Y-17387238D02*
X11542572Y-17396762D01*
X11542572Y-17396762D02*
X11533048Y-17415810D01*
X11771143Y-17301524D02*
X11790191Y-17301524D01*
X11790191Y-17301524D02*
X11809238Y-17311048D01*
X11809238Y-17311048D02*
X11818762Y-17320571D01*
X11818762Y-17320571D02*
X11828286Y-17339619D01*
X11828286Y-17339619D02*
X11837810Y-17377714D01*
X11837810Y-17377714D02*
X11837810Y-17425333D01*
X11837810Y-17425333D02*
X11828286Y-17463429D01*
X11828286Y-17463429D02*
X11818762Y-17482476D01*
X11818762Y-17482476D02*
X11809238Y-17492000D01*
X11809238Y-17492000D02*
X11790191Y-17501524D01*
X11790191Y-17501524D02*
X11771143Y-17501524D01*
X11771143Y-17501524D02*
X11752095Y-17492000D01*
X11752095Y-17492000D02*
X11742572Y-17482476D01*
X11742572Y-17482476D02*
X11733048Y-17463429D01*
X11733048Y-17463429D02*
X11723524Y-17425333D01*
X11723524Y-17425333D02*
X11723524Y-17377714D01*
X11723524Y-17377714D02*
X11733048Y-17339619D01*
X11733048Y-17339619D02*
X11742572Y-17320571D01*
X11742572Y-17320571D02*
X11752095Y-17311048D01*
X11752095Y-17311048D02*
X11771143Y-17301524D01*
X12075905Y-17501524D02*
X12075905Y-17301524D01*
X12161619Y-17501524D02*
X12161619Y-17396762D01*
X12161619Y-17396762D02*
X12152096Y-17377714D01*
X12152096Y-17377714D02*
X12133048Y-17368190D01*
X12133048Y-17368190D02*
X12104476Y-17368190D01*
X12104476Y-17368190D02*
X12085429Y-17377714D01*
X12085429Y-17377714D02*
X12075905Y-17387238D01*
X12285429Y-17501524D02*
X12266381Y-17492000D01*
X12266381Y-17492000D02*
X12256857Y-17482476D01*
X12256857Y-17482476D02*
X12247334Y-17463429D01*
X12247334Y-17463429D02*
X12247334Y-17406286D01*
X12247334Y-17406286D02*
X12256857Y-17387238D01*
X12256857Y-17387238D02*
X12266381Y-17377714D01*
X12266381Y-17377714D02*
X12285429Y-17368190D01*
X12285429Y-17368190D02*
X12314000Y-17368190D01*
X12314000Y-17368190D02*
X12333048Y-17377714D01*
X12333048Y-17377714D02*
X12342572Y-17387238D01*
X12342572Y-17387238D02*
X12352096Y-17406286D01*
X12352096Y-17406286D02*
X12352096Y-17463429D01*
X12352096Y-17463429D02*
X12342572Y-17482476D01*
X12342572Y-17482476D02*
X12333048Y-17492000D01*
X12333048Y-17492000D02*
X12314000Y-17501524D01*
X12314000Y-17501524D02*
X12285429Y-17501524D01*
X12466381Y-17501524D02*
X12447334Y-17492000D01*
X12447334Y-17492000D02*
X12437810Y-17472952D01*
X12437810Y-17472952D02*
X12437810Y-17301524D01*
X12618762Y-17492000D02*
X12599715Y-17501524D01*
X12599715Y-17501524D02*
X12561619Y-17501524D01*
X12561619Y-17501524D02*
X12542572Y-17492000D01*
X12542572Y-17492000D02*
X12533048Y-17472952D01*
X12533048Y-17472952D02*
X12533048Y-17396762D01*
X12533048Y-17396762D02*
X12542572Y-17377714D01*
X12542572Y-17377714D02*
X12561619Y-17368190D01*
X12561619Y-17368190D02*
X12599715Y-17368190D01*
X12599715Y-17368190D02*
X12618762Y-17377714D01*
X12618762Y-17377714D02*
X12628286Y-17396762D01*
X12628286Y-17396762D02*
X12628286Y-17415810D01*
X12628286Y-17415810D02*
X12533048Y-17434857D01*
X12704477Y-17492000D02*
X12723524Y-17501524D01*
X12723524Y-17501524D02*
X12761619Y-17501524D01*
X12761619Y-17501524D02*
X12780667Y-17492000D01*
X12780667Y-17492000D02*
X12790191Y-17472952D01*
X12790191Y-17472952D02*
X12790191Y-17463429D01*
X12790191Y-17463429D02*
X12780667Y-17444381D01*
X12780667Y-17444381D02*
X12761619Y-17434857D01*
X12761619Y-17434857D02*
X12733048Y-17434857D01*
X12733048Y-17434857D02*
X12714000Y-17425333D01*
X12714000Y-17425333D02*
X12704477Y-17406286D01*
X12704477Y-17406286D02*
X12704477Y-17396762D01*
X12704477Y-17396762D02*
X12714000Y-17377714D01*
X12714000Y-17377714D02*
X12733048Y-17368190D01*
X12733048Y-17368190D02*
X12761619Y-17368190D01*
X12761619Y-17368190D02*
X12780667Y-17377714D01*
X12856858Y-17577714D02*
X12866381Y-17568190D01*
X12866381Y-17568190D02*
X12885429Y-17539619D01*
X12885429Y-17539619D02*
X12894953Y-17520571D01*
X12894953Y-17520571D02*
X12904477Y-17492000D01*
X12904477Y-17492000D02*
X12914000Y-17444381D01*
X12914000Y-17444381D02*
X12914000Y-17406286D01*
X12914000Y-17406286D02*
X12904477Y-17358667D01*
X12904477Y-17358667D02*
X12894953Y-17330095D01*
X12894953Y-17330095D02*
X12885429Y-17311048D01*
X12885429Y-17311048D02*
X12866381Y-17282476D01*
X12866381Y-17282476D02*
X12856858Y-17272952D01*
D14*
X7684000Y-17643000D02*
X7684000Y-17703000D01*
X7654000Y-17673000D02*
X7714000Y-17673000D01*
D11*
X7999714Y-17565524D02*
X8018762Y-17565524D01*
X8018762Y-17565524D02*
X8037809Y-17575048D01*
X8037809Y-17575048D02*
X8047333Y-17584571D01*
X8047333Y-17584571D02*
X8056857Y-17603619D01*
X8056857Y-17603619D02*
X8066381Y-17641714D01*
X8066381Y-17641714D02*
X8066381Y-17689333D01*
X8066381Y-17689333D02*
X8056857Y-17727429D01*
X8056857Y-17727429D02*
X8047333Y-17746476D01*
X8047333Y-17746476D02*
X8037809Y-17756000D01*
X8037809Y-17756000D02*
X8018762Y-17765524D01*
X8018762Y-17765524D02*
X7999714Y-17765524D01*
X7999714Y-17765524D02*
X7980667Y-17756000D01*
X7980667Y-17756000D02*
X7971143Y-17746476D01*
X7971143Y-17746476D02*
X7961619Y-17727429D01*
X7961619Y-17727429D02*
X7952095Y-17689333D01*
X7952095Y-17689333D02*
X7952095Y-17641714D01*
X7952095Y-17641714D02*
X7961619Y-17603619D01*
X7961619Y-17603619D02*
X7971143Y-17584571D01*
X7971143Y-17584571D02*
X7980667Y-17575048D01*
X7980667Y-17575048D02*
X7999714Y-17565524D01*
X8152095Y-17746476D02*
X8161619Y-17756000D01*
X8161619Y-17756000D02*
X8152095Y-17765524D01*
X8152095Y-17765524D02*
X8142571Y-17756000D01*
X8142571Y-17756000D02*
X8152095Y-17746476D01*
X8152095Y-17746476D02*
X8152095Y-17765524D01*
X8333048Y-17565524D02*
X8294952Y-17565524D01*
X8294952Y-17565524D02*
X8275905Y-17575048D01*
X8275905Y-17575048D02*
X8266381Y-17584571D01*
X8266381Y-17584571D02*
X8247333Y-17613143D01*
X8247333Y-17613143D02*
X8237809Y-17651238D01*
X8237809Y-17651238D02*
X8237809Y-17727429D01*
X8237809Y-17727429D02*
X8247333Y-17746476D01*
X8247333Y-17746476D02*
X8256857Y-17756000D01*
X8256857Y-17756000D02*
X8275905Y-17765524D01*
X8275905Y-17765524D02*
X8314000Y-17765524D01*
X8314000Y-17765524D02*
X8333048Y-17756000D01*
X8333048Y-17756000D02*
X8342571Y-17746476D01*
X8342571Y-17746476D02*
X8352095Y-17727429D01*
X8352095Y-17727429D02*
X8352095Y-17679810D01*
X8352095Y-17679810D02*
X8342571Y-17660762D01*
X8342571Y-17660762D02*
X8333048Y-17651238D01*
X8333048Y-17651238D02*
X8314000Y-17641714D01*
X8314000Y-17641714D02*
X8275905Y-17641714D01*
X8275905Y-17641714D02*
X8256857Y-17651238D01*
X8256857Y-17651238D02*
X8247333Y-17660762D01*
X8247333Y-17660762D02*
X8237809Y-17679810D01*
X8475905Y-17565524D02*
X8494952Y-17565524D01*
X8494952Y-17565524D02*
X8514000Y-17575048D01*
X8514000Y-17575048D02*
X8523524Y-17584571D01*
X8523524Y-17584571D02*
X8533048Y-17603619D01*
X8533048Y-17603619D02*
X8542571Y-17641714D01*
X8542571Y-17641714D02*
X8542571Y-17689333D01*
X8542571Y-17689333D02*
X8533048Y-17727429D01*
X8533048Y-17727429D02*
X8523524Y-17746476D01*
X8523524Y-17746476D02*
X8514000Y-17756000D01*
X8514000Y-17756000D02*
X8494952Y-17765524D01*
X8494952Y-17765524D02*
X8475905Y-17765524D01*
X8475905Y-17765524D02*
X8456857Y-17756000D01*
X8456857Y-17756000D02*
X8447333Y-17746476D01*
X8447333Y-17746476D02*
X8437810Y-17727429D01*
X8437810Y-17727429D02*
X8428286Y-17689333D01*
X8428286Y-17689333D02*
X8428286Y-17641714D01*
X8428286Y-17641714D02*
X8437810Y-17603619D01*
X8437810Y-17603619D02*
X8447333Y-17584571D01*
X8447333Y-17584571D02*
X8456857Y-17575048D01*
X8456857Y-17575048D02*
X8475905Y-17565524D01*
X8666381Y-17565524D02*
X8685429Y-17565524D01*
X8685429Y-17565524D02*
X8704476Y-17575048D01*
X8704476Y-17575048D02*
X8714000Y-17584571D01*
X8714000Y-17584571D02*
X8723524Y-17603619D01*
X8723524Y-17603619D02*
X8733048Y-17641714D01*
X8733048Y-17641714D02*
X8733048Y-17689333D01*
X8733048Y-17689333D02*
X8723524Y-17727429D01*
X8723524Y-17727429D02*
X8714000Y-17746476D01*
X8714000Y-17746476D02*
X8704476Y-17756000D01*
X8704476Y-17756000D02*
X8685429Y-17765524D01*
X8685429Y-17765524D02*
X8666381Y-17765524D01*
X8666381Y-17765524D02*
X8647333Y-17756000D01*
X8647333Y-17756000D02*
X8637810Y-17746476D01*
X8637810Y-17746476D02*
X8628286Y-17727429D01*
X8628286Y-17727429D02*
X8618762Y-17689333D01*
X8618762Y-17689333D02*
X8618762Y-17641714D01*
X8618762Y-17641714D02*
X8628286Y-17603619D01*
X8628286Y-17603619D02*
X8637810Y-17584571D01*
X8637810Y-17584571D02*
X8647333Y-17575048D01*
X8647333Y-17575048D02*
X8666381Y-17565524D01*
X8818762Y-17765524D02*
X8818762Y-17632190D01*
X8818762Y-17651238D02*
X8828286Y-17641714D01*
X8828286Y-17641714D02*
X8847333Y-17632190D01*
X8847333Y-17632190D02*
X8875905Y-17632190D01*
X8875905Y-17632190D02*
X8894952Y-17641714D01*
X8894952Y-17641714D02*
X8904476Y-17660762D01*
X8904476Y-17660762D02*
X8904476Y-17765524D01*
X8904476Y-17660762D02*
X8914000Y-17641714D01*
X8914000Y-17641714D02*
X8933048Y-17632190D01*
X8933048Y-17632190D02*
X8961619Y-17632190D01*
X8961619Y-17632190D02*
X8980667Y-17641714D01*
X8980667Y-17641714D02*
X8990191Y-17660762D01*
X8990191Y-17660762D02*
X8990191Y-17765524D01*
X9085429Y-17765524D02*
X9085429Y-17632190D01*
X9085429Y-17651238D02*
X9094952Y-17641714D01*
X9094952Y-17641714D02*
X9114000Y-17632190D01*
X9114000Y-17632190D02*
X9142572Y-17632190D01*
X9142572Y-17632190D02*
X9161619Y-17641714D01*
X9161619Y-17641714D02*
X9171143Y-17660762D01*
X9171143Y-17660762D02*
X9171143Y-17765524D01*
X9171143Y-17660762D02*
X9180667Y-17641714D01*
X9180667Y-17641714D02*
X9199714Y-17632190D01*
X9199714Y-17632190D02*
X9228286Y-17632190D01*
X9228286Y-17632190D02*
X9247333Y-17641714D01*
X9247333Y-17641714D02*
X9256857Y-17660762D01*
X9256857Y-17660762D02*
X9256857Y-17765524D01*
X9647333Y-17556000D02*
X9475905Y-17813143D01*
X9904476Y-17565524D02*
X9923524Y-17565524D01*
X9923524Y-17565524D02*
X9942572Y-17575048D01*
X9942572Y-17575048D02*
X9952095Y-17584571D01*
X9952095Y-17584571D02*
X9961619Y-17603619D01*
X9961619Y-17603619D02*
X9971143Y-17641714D01*
X9971143Y-17641714D02*
X9971143Y-17689333D01*
X9971143Y-17689333D02*
X9961619Y-17727429D01*
X9961619Y-17727429D02*
X9952095Y-17746476D01*
X9952095Y-17746476D02*
X9942572Y-17756000D01*
X9942572Y-17756000D02*
X9923524Y-17765524D01*
X9923524Y-17765524D02*
X9904476Y-17765524D01*
X9904476Y-17765524D02*
X9885429Y-17756000D01*
X9885429Y-17756000D02*
X9875905Y-17746476D01*
X9875905Y-17746476D02*
X9866381Y-17727429D01*
X9866381Y-17727429D02*
X9856857Y-17689333D01*
X9856857Y-17689333D02*
X9856857Y-17641714D01*
X9856857Y-17641714D02*
X9866381Y-17603619D01*
X9866381Y-17603619D02*
X9875905Y-17584571D01*
X9875905Y-17584571D02*
X9885429Y-17575048D01*
X9885429Y-17575048D02*
X9904476Y-17565524D01*
X10056857Y-17746476D02*
X10066381Y-17756000D01*
X10066381Y-17756000D02*
X10056857Y-17765524D01*
X10056857Y-17765524D02*
X10047334Y-17756000D01*
X10047334Y-17756000D02*
X10056857Y-17746476D01*
X10056857Y-17746476D02*
X10056857Y-17765524D01*
X10190191Y-17565524D02*
X10209238Y-17565524D01*
X10209238Y-17565524D02*
X10228286Y-17575048D01*
X10228286Y-17575048D02*
X10237810Y-17584571D01*
X10237810Y-17584571D02*
X10247334Y-17603619D01*
X10247334Y-17603619D02*
X10256857Y-17641714D01*
X10256857Y-17641714D02*
X10256857Y-17689333D01*
X10256857Y-17689333D02*
X10247334Y-17727429D01*
X10247334Y-17727429D02*
X10237810Y-17746476D01*
X10237810Y-17746476D02*
X10228286Y-17756000D01*
X10228286Y-17756000D02*
X10209238Y-17765524D01*
X10209238Y-17765524D02*
X10190191Y-17765524D01*
X10190191Y-17765524D02*
X10171143Y-17756000D01*
X10171143Y-17756000D02*
X10161619Y-17746476D01*
X10161619Y-17746476D02*
X10152095Y-17727429D01*
X10152095Y-17727429D02*
X10142572Y-17689333D01*
X10142572Y-17689333D02*
X10142572Y-17641714D01*
X10142572Y-17641714D02*
X10152095Y-17603619D01*
X10152095Y-17603619D02*
X10161619Y-17584571D01*
X10161619Y-17584571D02*
X10171143Y-17575048D01*
X10171143Y-17575048D02*
X10190191Y-17565524D01*
X10333048Y-17584571D02*
X10342572Y-17575048D01*
X10342572Y-17575048D02*
X10361619Y-17565524D01*
X10361619Y-17565524D02*
X10409238Y-17565524D01*
X10409238Y-17565524D02*
X10428286Y-17575048D01*
X10428286Y-17575048D02*
X10437810Y-17584571D01*
X10437810Y-17584571D02*
X10447334Y-17603619D01*
X10447334Y-17603619D02*
X10447334Y-17622667D01*
X10447334Y-17622667D02*
X10437810Y-17651238D01*
X10437810Y-17651238D02*
X10323524Y-17765524D01*
X10323524Y-17765524D02*
X10447334Y-17765524D01*
X10514000Y-17565524D02*
X10637810Y-17565524D01*
X10637810Y-17565524D02*
X10571143Y-17641714D01*
X10571143Y-17641714D02*
X10599715Y-17641714D01*
X10599715Y-17641714D02*
X10618762Y-17651238D01*
X10618762Y-17651238D02*
X10628286Y-17660762D01*
X10628286Y-17660762D02*
X10637810Y-17679810D01*
X10637810Y-17679810D02*
X10637810Y-17727429D01*
X10637810Y-17727429D02*
X10628286Y-17746476D01*
X10628286Y-17746476D02*
X10618762Y-17756000D01*
X10618762Y-17756000D02*
X10599715Y-17765524D01*
X10599715Y-17765524D02*
X10542572Y-17765524D01*
X10542572Y-17765524D02*
X10523524Y-17756000D01*
X10523524Y-17756000D02*
X10514000Y-17746476D01*
X10809238Y-17565524D02*
X10771143Y-17565524D01*
X10771143Y-17565524D02*
X10752095Y-17575048D01*
X10752095Y-17575048D02*
X10742572Y-17584571D01*
X10742572Y-17584571D02*
X10723524Y-17613143D01*
X10723524Y-17613143D02*
X10714000Y-17651238D01*
X10714000Y-17651238D02*
X10714000Y-17727429D01*
X10714000Y-17727429D02*
X10723524Y-17746476D01*
X10723524Y-17746476D02*
X10733048Y-17756000D01*
X10733048Y-17756000D02*
X10752095Y-17765524D01*
X10752095Y-17765524D02*
X10790191Y-17765524D01*
X10790191Y-17765524D02*
X10809238Y-17756000D01*
X10809238Y-17756000D02*
X10818762Y-17746476D01*
X10818762Y-17746476D02*
X10828286Y-17727429D01*
X10828286Y-17727429D02*
X10828286Y-17679810D01*
X10828286Y-17679810D02*
X10818762Y-17660762D01*
X10818762Y-17660762D02*
X10809238Y-17651238D01*
X10809238Y-17651238D02*
X10790191Y-17641714D01*
X10790191Y-17641714D02*
X10752095Y-17641714D01*
X10752095Y-17641714D02*
X10733048Y-17651238D01*
X10733048Y-17651238D02*
X10723524Y-17660762D01*
X10723524Y-17660762D02*
X10714000Y-17679810D01*
X10904476Y-17565524D02*
X10904476Y-17603619D01*
X10980667Y-17565524D02*
X10980667Y-17603619D01*
X11275905Y-17841714D02*
X11266381Y-17832190D01*
X11266381Y-17832190D02*
X11247334Y-17803619D01*
X11247334Y-17803619D02*
X11237810Y-17784571D01*
X11237810Y-17784571D02*
X11228286Y-17756000D01*
X11228286Y-17756000D02*
X11218762Y-17708381D01*
X11218762Y-17708381D02*
X11218762Y-17670286D01*
X11218762Y-17670286D02*
X11228286Y-17622667D01*
X11228286Y-17622667D02*
X11237810Y-17594095D01*
X11237810Y-17594095D02*
X11247334Y-17575048D01*
X11247334Y-17575048D02*
X11266381Y-17546476D01*
X11266381Y-17546476D02*
X11275905Y-17536952D01*
X11333048Y-17565524D02*
X11466381Y-17565524D01*
X11466381Y-17565524D02*
X11380667Y-17765524D01*
X11694953Y-17765524D02*
X11694953Y-17565524D01*
X11780667Y-17765524D02*
X11780667Y-17660762D01*
X11780667Y-17660762D02*
X11771143Y-17641714D01*
X11771143Y-17641714D02*
X11752096Y-17632190D01*
X11752096Y-17632190D02*
X11723524Y-17632190D01*
X11723524Y-17632190D02*
X11704476Y-17641714D01*
X11704476Y-17641714D02*
X11694953Y-17651238D01*
X11904476Y-17765524D02*
X11885429Y-17756000D01*
X11885429Y-17756000D02*
X11875905Y-17746476D01*
X11875905Y-17746476D02*
X11866381Y-17727429D01*
X11866381Y-17727429D02*
X11866381Y-17670286D01*
X11866381Y-17670286D02*
X11875905Y-17651238D01*
X11875905Y-17651238D02*
X11885429Y-17641714D01*
X11885429Y-17641714D02*
X11904476Y-17632190D01*
X11904476Y-17632190D02*
X11933048Y-17632190D01*
X11933048Y-17632190D02*
X11952096Y-17641714D01*
X11952096Y-17641714D02*
X11961619Y-17651238D01*
X11961619Y-17651238D02*
X11971143Y-17670286D01*
X11971143Y-17670286D02*
X11971143Y-17727429D01*
X11971143Y-17727429D02*
X11961619Y-17746476D01*
X11961619Y-17746476D02*
X11952096Y-17756000D01*
X11952096Y-17756000D02*
X11933048Y-17765524D01*
X11933048Y-17765524D02*
X11904476Y-17765524D01*
X12085429Y-17765524D02*
X12066381Y-17756000D01*
X12066381Y-17756000D02*
X12056857Y-17736952D01*
X12056857Y-17736952D02*
X12056857Y-17565524D01*
X12237810Y-17756000D02*
X12218762Y-17765524D01*
X12218762Y-17765524D02*
X12180667Y-17765524D01*
X12180667Y-17765524D02*
X12161619Y-17756000D01*
X12161619Y-17756000D02*
X12152096Y-17736952D01*
X12152096Y-17736952D02*
X12152096Y-17660762D01*
X12152096Y-17660762D02*
X12161619Y-17641714D01*
X12161619Y-17641714D02*
X12180667Y-17632190D01*
X12180667Y-17632190D02*
X12218762Y-17632190D01*
X12218762Y-17632190D02*
X12237810Y-17641714D01*
X12237810Y-17641714D02*
X12247334Y-17660762D01*
X12247334Y-17660762D02*
X12247334Y-17679810D01*
X12247334Y-17679810D02*
X12152096Y-17698857D01*
X12323524Y-17756000D02*
X12342572Y-17765524D01*
X12342572Y-17765524D02*
X12380667Y-17765524D01*
X12380667Y-17765524D02*
X12399715Y-17756000D01*
X12399715Y-17756000D02*
X12409238Y-17736952D01*
X12409238Y-17736952D02*
X12409238Y-17727429D01*
X12409238Y-17727429D02*
X12399715Y-17708381D01*
X12399715Y-17708381D02*
X12380667Y-17698857D01*
X12380667Y-17698857D02*
X12352096Y-17698857D01*
X12352096Y-17698857D02*
X12333048Y-17689333D01*
X12333048Y-17689333D02*
X12323524Y-17670286D01*
X12323524Y-17670286D02*
X12323524Y-17660762D01*
X12323524Y-17660762D02*
X12333048Y-17641714D01*
X12333048Y-17641714D02*
X12352096Y-17632190D01*
X12352096Y-17632190D02*
X12380667Y-17632190D01*
X12380667Y-17632190D02*
X12399715Y-17641714D01*
X12475905Y-17841714D02*
X12485429Y-17832190D01*
X12485429Y-17832190D02*
X12504477Y-17803619D01*
X12504477Y-17803619D02*
X12514000Y-17784571D01*
X12514000Y-17784571D02*
X12523524Y-17756000D01*
X12523524Y-17756000D02*
X12533048Y-17708381D01*
X12533048Y-17708381D02*
X12533048Y-17670286D01*
X12533048Y-17670286D02*
X12523524Y-17622667D01*
X12523524Y-17622667D02*
X12514000Y-17594095D01*
X12514000Y-17594095D02*
X12504477Y-17575048D01*
X12504477Y-17575048D02*
X12485429Y-17546476D01*
X12485429Y-17546476D02*
X12475905Y-17536952D01*
D15*
X7702284Y-17965285D02*
X7702284Y-17908716D01*
X7645715Y-17908716D01*
X7645715Y-17965285D01*
X7702284Y-17965285D01*
D11*
X7999714Y-17829524D02*
X8018762Y-17829524D01*
X8018762Y-17829524D02*
X8037809Y-17839048D01*
X8037809Y-17839048D02*
X8047333Y-17848571D01*
X8047333Y-17848571D02*
X8056857Y-17867619D01*
X8056857Y-17867619D02*
X8066381Y-17905714D01*
X8066381Y-17905714D02*
X8066381Y-17953333D01*
X8066381Y-17953333D02*
X8056857Y-17991429D01*
X8056857Y-17991429D02*
X8047333Y-18010476D01*
X8047333Y-18010476D02*
X8037809Y-18020000D01*
X8037809Y-18020000D02*
X8018762Y-18029524D01*
X8018762Y-18029524D02*
X7999714Y-18029524D01*
X7999714Y-18029524D02*
X7980667Y-18020000D01*
X7980667Y-18020000D02*
X7971143Y-18010476D01*
X7971143Y-18010476D02*
X7961619Y-17991429D01*
X7961619Y-17991429D02*
X7952095Y-17953333D01*
X7952095Y-17953333D02*
X7952095Y-17905714D01*
X7952095Y-17905714D02*
X7961619Y-17867619D01*
X7961619Y-17867619D02*
X7971143Y-17848571D01*
X7971143Y-17848571D02*
X7980667Y-17839048D01*
X7980667Y-17839048D02*
X7999714Y-17829524D01*
X8152095Y-18010476D02*
X8161619Y-18020000D01*
X8161619Y-18020000D02*
X8152095Y-18029524D01*
X8152095Y-18029524D02*
X8142571Y-18020000D01*
X8142571Y-18020000D02*
X8152095Y-18010476D01*
X8152095Y-18010476D02*
X8152095Y-18029524D01*
X8275905Y-17915238D02*
X8256857Y-17905714D01*
X8256857Y-17905714D02*
X8247333Y-17896190D01*
X8247333Y-17896190D02*
X8237809Y-17877143D01*
X8237809Y-17877143D02*
X8237809Y-17867619D01*
X8237809Y-17867619D02*
X8247333Y-17848571D01*
X8247333Y-17848571D02*
X8256857Y-17839048D01*
X8256857Y-17839048D02*
X8275905Y-17829524D01*
X8275905Y-17829524D02*
X8314000Y-17829524D01*
X8314000Y-17829524D02*
X8333048Y-17839048D01*
X8333048Y-17839048D02*
X8342571Y-17848571D01*
X8342571Y-17848571D02*
X8352095Y-17867619D01*
X8352095Y-17867619D02*
X8352095Y-17877143D01*
X8352095Y-17877143D02*
X8342571Y-17896190D01*
X8342571Y-17896190D02*
X8333048Y-17905714D01*
X8333048Y-17905714D02*
X8314000Y-17915238D01*
X8314000Y-17915238D02*
X8275905Y-17915238D01*
X8275905Y-17915238D02*
X8256857Y-17924762D01*
X8256857Y-17924762D02*
X8247333Y-17934286D01*
X8247333Y-17934286D02*
X8237809Y-17953333D01*
X8237809Y-17953333D02*
X8237809Y-17991429D01*
X8237809Y-17991429D02*
X8247333Y-18010476D01*
X8247333Y-18010476D02*
X8256857Y-18020000D01*
X8256857Y-18020000D02*
X8275905Y-18029524D01*
X8275905Y-18029524D02*
X8314000Y-18029524D01*
X8314000Y-18029524D02*
X8333048Y-18020000D01*
X8333048Y-18020000D02*
X8342571Y-18010476D01*
X8342571Y-18010476D02*
X8352095Y-17991429D01*
X8352095Y-17991429D02*
X8352095Y-17953333D01*
X8352095Y-17953333D02*
X8342571Y-17934286D01*
X8342571Y-17934286D02*
X8333048Y-17924762D01*
X8333048Y-17924762D02*
X8314000Y-17915238D01*
X8475905Y-17829524D02*
X8494952Y-17829524D01*
X8494952Y-17829524D02*
X8514000Y-17839048D01*
X8514000Y-17839048D02*
X8523524Y-17848571D01*
X8523524Y-17848571D02*
X8533048Y-17867619D01*
X8533048Y-17867619D02*
X8542571Y-17905714D01*
X8542571Y-17905714D02*
X8542571Y-17953333D01*
X8542571Y-17953333D02*
X8533048Y-17991429D01*
X8533048Y-17991429D02*
X8523524Y-18010476D01*
X8523524Y-18010476D02*
X8514000Y-18020000D01*
X8514000Y-18020000D02*
X8494952Y-18029524D01*
X8494952Y-18029524D02*
X8475905Y-18029524D01*
X8475905Y-18029524D02*
X8456857Y-18020000D01*
X8456857Y-18020000D02*
X8447333Y-18010476D01*
X8447333Y-18010476D02*
X8437810Y-17991429D01*
X8437810Y-17991429D02*
X8428286Y-17953333D01*
X8428286Y-17953333D02*
X8428286Y-17905714D01*
X8428286Y-17905714D02*
X8437810Y-17867619D01*
X8437810Y-17867619D02*
X8447333Y-17848571D01*
X8447333Y-17848571D02*
X8456857Y-17839048D01*
X8456857Y-17839048D02*
X8475905Y-17829524D01*
X8666381Y-17829524D02*
X8685429Y-17829524D01*
X8685429Y-17829524D02*
X8704476Y-17839048D01*
X8704476Y-17839048D02*
X8714000Y-17848571D01*
X8714000Y-17848571D02*
X8723524Y-17867619D01*
X8723524Y-17867619D02*
X8733048Y-17905714D01*
X8733048Y-17905714D02*
X8733048Y-17953333D01*
X8733048Y-17953333D02*
X8723524Y-17991429D01*
X8723524Y-17991429D02*
X8714000Y-18010476D01*
X8714000Y-18010476D02*
X8704476Y-18020000D01*
X8704476Y-18020000D02*
X8685429Y-18029524D01*
X8685429Y-18029524D02*
X8666381Y-18029524D01*
X8666381Y-18029524D02*
X8647333Y-18020000D01*
X8647333Y-18020000D02*
X8637810Y-18010476D01*
X8637810Y-18010476D02*
X8628286Y-17991429D01*
X8628286Y-17991429D02*
X8618762Y-17953333D01*
X8618762Y-17953333D02*
X8618762Y-17905714D01*
X8618762Y-17905714D02*
X8628286Y-17867619D01*
X8628286Y-17867619D02*
X8637810Y-17848571D01*
X8637810Y-17848571D02*
X8647333Y-17839048D01*
X8647333Y-17839048D02*
X8666381Y-17829524D01*
X8818762Y-18029524D02*
X8818762Y-17896190D01*
X8818762Y-17915238D02*
X8828286Y-17905714D01*
X8828286Y-17905714D02*
X8847333Y-17896190D01*
X8847333Y-17896190D02*
X8875905Y-17896190D01*
X8875905Y-17896190D02*
X8894952Y-17905714D01*
X8894952Y-17905714D02*
X8904476Y-17924762D01*
X8904476Y-17924762D02*
X8904476Y-18029524D01*
X8904476Y-17924762D02*
X8914000Y-17905714D01*
X8914000Y-17905714D02*
X8933048Y-17896190D01*
X8933048Y-17896190D02*
X8961619Y-17896190D01*
X8961619Y-17896190D02*
X8980667Y-17905714D01*
X8980667Y-17905714D02*
X8990191Y-17924762D01*
X8990191Y-17924762D02*
X8990191Y-18029524D01*
X9085429Y-18029524D02*
X9085429Y-17896190D01*
X9085429Y-17915238D02*
X9094952Y-17905714D01*
X9094952Y-17905714D02*
X9114000Y-17896190D01*
X9114000Y-17896190D02*
X9142572Y-17896190D01*
X9142572Y-17896190D02*
X9161619Y-17905714D01*
X9161619Y-17905714D02*
X9171143Y-17924762D01*
X9171143Y-17924762D02*
X9171143Y-18029524D01*
X9171143Y-17924762D02*
X9180667Y-17905714D01*
X9180667Y-17905714D02*
X9199714Y-17896190D01*
X9199714Y-17896190D02*
X9228286Y-17896190D01*
X9228286Y-17896190D02*
X9247333Y-17905714D01*
X9247333Y-17905714D02*
X9256857Y-17924762D01*
X9256857Y-17924762D02*
X9256857Y-18029524D01*
X9647333Y-17820000D02*
X9475905Y-18077143D01*
X9904476Y-17829524D02*
X9923524Y-17829524D01*
X9923524Y-17829524D02*
X9942572Y-17839048D01*
X9942572Y-17839048D02*
X9952095Y-17848571D01*
X9952095Y-17848571D02*
X9961619Y-17867619D01*
X9961619Y-17867619D02*
X9971143Y-17905714D01*
X9971143Y-17905714D02*
X9971143Y-17953333D01*
X9971143Y-17953333D02*
X9961619Y-17991429D01*
X9961619Y-17991429D02*
X9952095Y-18010476D01*
X9952095Y-18010476D02*
X9942572Y-18020000D01*
X9942572Y-18020000D02*
X9923524Y-18029524D01*
X9923524Y-18029524D02*
X9904476Y-18029524D01*
X9904476Y-18029524D02*
X9885429Y-18020000D01*
X9885429Y-18020000D02*
X9875905Y-18010476D01*
X9875905Y-18010476D02*
X9866381Y-17991429D01*
X9866381Y-17991429D02*
X9856857Y-17953333D01*
X9856857Y-17953333D02*
X9856857Y-17905714D01*
X9856857Y-17905714D02*
X9866381Y-17867619D01*
X9866381Y-17867619D02*
X9875905Y-17848571D01*
X9875905Y-17848571D02*
X9885429Y-17839048D01*
X9885429Y-17839048D02*
X9904476Y-17829524D01*
X10056857Y-18010476D02*
X10066381Y-18020000D01*
X10066381Y-18020000D02*
X10056857Y-18029524D01*
X10056857Y-18029524D02*
X10047334Y-18020000D01*
X10047334Y-18020000D02*
X10056857Y-18010476D01*
X10056857Y-18010476D02*
X10056857Y-18029524D01*
X10190191Y-17829524D02*
X10209238Y-17829524D01*
X10209238Y-17829524D02*
X10228286Y-17839048D01*
X10228286Y-17839048D02*
X10237810Y-17848571D01*
X10237810Y-17848571D02*
X10247334Y-17867619D01*
X10247334Y-17867619D02*
X10256857Y-17905714D01*
X10256857Y-17905714D02*
X10256857Y-17953333D01*
X10256857Y-17953333D02*
X10247334Y-17991429D01*
X10247334Y-17991429D02*
X10237810Y-18010476D01*
X10237810Y-18010476D02*
X10228286Y-18020000D01*
X10228286Y-18020000D02*
X10209238Y-18029524D01*
X10209238Y-18029524D02*
X10190191Y-18029524D01*
X10190191Y-18029524D02*
X10171143Y-18020000D01*
X10171143Y-18020000D02*
X10161619Y-18010476D01*
X10161619Y-18010476D02*
X10152095Y-17991429D01*
X10152095Y-17991429D02*
X10142572Y-17953333D01*
X10142572Y-17953333D02*
X10142572Y-17905714D01*
X10142572Y-17905714D02*
X10152095Y-17867619D01*
X10152095Y-17867619D02*
X10161619Y-17848571D01*
X10161619Y-17848571D02*
X10171143Y-17839048D01*
X10171143Y-17839048D02*
X10190191Y-17829524D01*
X10323524Y-17829524D02*
X10447334Y-17829524D01*
X10447334Y-17829524D02*
X10380667Y-17905714D01*
X10380667Y-17905714D02*
X10409238Y-17905714D01*
X10409238Y-17905714D02*
X10428286Y-17915238D01*
X10428286Y-17915238D02*
X10437810Y-17924762D01*
X10437810Y-17924762D02*
X10447334Y-17943810D01*
X10447334Y-17943810D02*
X10447334Y-17991429D01*
X10447334Y-17991429D02*
X10437810Y-18010476D01*
X10437810Y-18010476D02*
X10428286Y-18020000D01*
X10428286Y-18020000D02*
X10409238Y-18029524D01*
X10409238Y-18029524D02*
X10352095Y-18029524D01*
X10352095Y-18029524D02*
X10333048Y-18020000D01*
X10333048Y-18020000D02*
X10323524Y-18010476D01*
X10637810Y-18029524D02*
X10523524Y-18029524D01*
X10580667Y-18029524D02*
X10580667Y-17829524D01*
X10580667Y-17829524D02*
X10561619Y-17858095D01*
X10561619Y-17858095D02*
X10542572Y-17877143D01*
X10542572Y-17877143D02*
X10523524Y-17886667D01*
X10818762Y-17829524D02*
X10723524Y-17829524D01*
X10723524Y-17829524D02*
X10714000Y-17924762D01*
X10714000Y-17924762D02*
X10723524Y-17915238D01*
X10723524Y-17915238D02*
X10742572Y-17905714D01*
X10742572Y-17905714D02*
X10790191Y-17905714D01*
X10790191Y-17905714D02*
X10809238Y-17915238D01*
X10809238Y-17915238D02*
X10818762Y-17924762D01*
X10818762Y-17924762D02*
X10828286Y-17943810D01*
X10828286Y-17943810D02*
X10828286Y-17991429D01*
X10828286Y-17991429D02*
X10818762Y-18010476D01*
X10818762Y-18010476D02*
X10809238Y-18020000D01*
X10809238Y-18020000D02*
X10790191Y-18029524D01*
X10790191Y-18029524D02*
X10742572Y-18029524D01*
X10742572Y-18029524D02*
X10723524Y-18020000D01*
X10723524Y-18020000D02*
X10714000Y-18010476D01*
X10904476Y-17829524D02*
X10904476Y-17867619D01*
X10980667Y-17829524D02*
X10980667Y-17867619D01*
X11275905Y-18105714D02*
X11266381Y-18096190D01*
X11266381Y-18096190D02*
X11247334Y-18067619D01*
X11247334Y-18067619D02*
X11237810Y-18048571D01*
X11237810Y-18048571D02*
X11228286Y-18020000D01*
X11228286Y-18020000D02*
X11218762Y-17972381D01*
X11218762Y-17972381D02*
X11218762Y-17934286D01*
X11218762Y-17934286D02*
X11228286Y-17886667D01*
X11228286Y-17886667D02*
X11237810Y-17858095D01*
X11237810Y-17858095D02*
X11247334Y-17839048D01*
X11247334Y-17839048D02*
X11266381Y-17810476D01*
X11266381Y-17810476D02*
X11275905Y-17800952D01*
X11456857Y-18029524D02*
X11342572Y-18029524D01*
X11399714Y-18029524D02*
X11399714Y-17829524D01*
X11399714Y-17829524D02*
X11380667Y-17858095D01*
X11380667Y-17858095D02*
X11361619Y-17877143D01*
X11361619Y-17877143D02*
X11342572Y-17886667D01*
X11647334Y-18029524D02*
X11533048Y-18029524D01*
X11590191Y-18029524D02*
X11590191Y-17829524D01*
X11590191Y-17829524D02*
X11571143Y-17858095D01*
X11571143Y-17858095D02*
X11552095Y-17877143D01*
X11552095Y-17877143D02*
X11533048Y-17886667D01*
X11885429Y-18029524D02*
X11885429Y-17829524D01*
X11971143Y-18029524D02*
X11971143Y-17924762D01*
X11971143Y-17924762D02*
X11961619Y-17905714D01*
X11961619Y-17905714D02*
X11942572Y-17896190D01*
X11942572Y-17896190D02*
X11914000Y-17896190D01*
X11914000Y-17896190D02*
X11894953Y-17905714D01*
X11894953Y-17905714D02*
X11885429Y-17915238D01*
X12094953Y-18029524D02*
X12075905Y-18020000D01*
X12075905Y-18020000D02*
X12066381Y-18010476D01*
X12066381Y-18010476D02*
X12056857Y-17991429D01*
X12056857Y-17991429D02*
X12056857Y-17934286D01*
X12056857Y-17934286D02*
X12066381Y-17915238D01*
X12066381Y-17915238D02*
X12075905Y-17905714D01*
X12075905Y-17905714D02*
X12094953Y-17896190D01*
X12094953Y-17896190D02*
X12123524Y-17896190D01*
X12123524Y-17896190D02*
X12142572Y-17905714D01*
X12142572Y-17905714D02*
X12152096Y-17915238D01*
X12152096Y-17915238D02*
X12161619Y-17934286D01*
X12161619Y-17934286D02*
X12161619Y-17991429D01*
X12161619Y-17991429D02*
X12152096Y-18010476D01*
X12152096Y-18010476D02*
X12142572Y-18020000D01*
X12142572Y-18020000D02*
X12123524Y-18029524D01*
X12123524Y-18029524D02*
X12094953Y-18029524D01*
X12275905Y-18029524D02*
X12256857Y-18020000D01*
X12256857Y-18020000D02*
X12247334Y-18000952D01*
X12247334Y-18000952D02*
X12247334Y-17829524D01*
X12428286Y-18020000D02*
X12409238Y-18029524D01*
X12409238Y-18029524D02*
X12371143Y-18029524D01*
X12371143Y-18029524D02*
X12352096Y-18020000D01*
X12352096Y-18020000D02*
X12342572Y-18000952D01*
X12342572Y-18000952D02*
X12342572Y-17924762D01*
X12342572Y-17924762D02*
X12352096Y-17905714D01*
X12352096Y-17905714D02*
X12371143Y-17896190D01*
X12371143Y-17896190D02*
X12409238Y-17896190D01*
X12409238Y-17896190D02*
X12428286Y-17905714D01*
X12428286Y-17905714D02*
X12437810Y-17924762D01*
X12437810Y-17924762D02*
X12437810Y-17943810D01*
X12437810Y-17943810D02*
X12342572Y-17962857D01*
X12514000Y-18020000D02*
X12533048Y-18029524D01*
X12533048Y-18029524D02*
X12571143Y-18029524D01*
X12571143Y-18029524D02*
X12590191Y-18020000D01*
X12590191Y-18020000D02*
X12599715Y-18000952D01*
X12599715Y-18000952D02*
X12599715Y-17991429D01*
X12599715Y-17991429D02*
X12590191Y-17972381D01*
X12590191Y-17972381D02*
X12571143Y-17962857D01*
X12571143Y-17962857D02*
X12542572Y-17962857D01*
X12542572Y-17962857D02*
X12523524Y-17953333D01*
X12523524Y-17953333D02*
X12514000Y-17934286D01*
X12514000Y-17934286D02*
X12514000Y-17924762D01*
X12514000Y-17924762D02*
X12523524Y-17905714D01*
X12523524Y-17905714D02*
X12542572Y-17896190D01*
X12542572Y-17896190D02*
X12571143Y-17896190D01*
X12571143Y-17896190D02*
X12590191Y-17905714D01*
X12666381Y-18105714D02*
X12675905Y-18096190D01*
X12675905Y-18096190D02*
X12694953Y-18067619D01*
X12694953Y-18067619D02*
X12704477Y-18048571D01*
X12704477Y-18048571D02*
X12714000Y-18020000D01*
X12714000Y-18020000D02*
X12723524Y-17972381D01*
X12723524Y-17972381D02*
X12723524Y-17934286D01*
X12723524Y-17934286D02*
X12714000Y-17886667D01*
X12714000Y-17886667D02*
X12704477Y-17858095D01*
X12704477Y-17858095D02*
X12694953Y-17839048D01*
X12694953Y-17839048D02*
X12675905Y-17810476D01*
X12675905Y-17810476D02*
X12666381Y-17800952D01*
D10*
X7664000Y-18251000D02*
X7714000Y-18201000D01*
X7664000Y-18151000D01*
X7614000Y-18201000D01*
X7664000Y-18251000D01*
D11*
X8066381Y-18293524D02*
X7952095Y-18293524D01*
X8009238Y-18293524D02*
X8009238Y-18093524D01*
X8009238Y-18093524D02*
X7990190Y-18122095D01*
X7990190Y-18122095D02*
X7971143Y-18141143D01*
X7971143Y-18141143D02*
X7952095Y-18150667D01*
X8152095Y-18274476D02*
X8161619Y-18284000D01*
X8161619Y-18284000D02*
X8152095Y-18293524D01*
X8152095Y-18293524D02*
X8142571Y-18284000D01*
X8142571Y-18284000D02*
X8152095Y-18274476D01*
X8152095Y-18274476D02*
X8152095Y-18293524D01*
X8285428Y-18093524D02*
X8304476Y-18093524D01*
X8304476Y-18093524D02*
X8323524Y-18103048D01*
X8323524Y-18103048D02*
X8333048Y-18112571D01*
X8333048Y-18112571D02*
X8342571Y-18131619D01*
X8342571Y-18131619D02*
X8352095Y-18169714D01*
X8352095Y-18169714D02*
X8352095Y-18217333D01*
X8352095Y-18217333D02*
X8342571Y-18255429D01*
X8342571Y-18255429D02*
X8333048Y-18274476D01*
X8333048Y-18274476D02*
X8323524Y-18284000D01*
X8323524Y-18284000D02*
X8304476Y-18293524D01*
X8304476Y-18293524D02*
X8285428Y-18293524D01*
X8285428Y-18293524D02*
X8266381Y-18284000D01*
X8266381Y-18284000D02*
X8256857Y-18274476D01*
X8256857Y-18274476D02*
X8247333Y-18255429D01*
X8247333Y-18255429D02*
X8237809Y-18217333D01*
X8237809Y-18217333D02*
X8237809Y-18169714D01*
X8237809Y-18169714D02*
X8247333Y-18131619D01*
X8247333Y-18131619D02*
X8256857Y-18112571D01*
X8256857Y-18112571D02*
X8266381Y-18103048D01*
X8266381Y-18103048D02*
X8285428Y-18093524D01*
X8475905Y-18093524D02*
X8494952Y-18093524D01*
X8494952Y-18093524D02*
X8514000Y-18103048D01*
X8514000Y-18103048D02*
X8523524Y-18112571D01*
X8523524Y-18112571D02*
X8533048Y-18131619D01*
X8533048Y-18131619D02*
X8542571Y-18169714D01*
X8542571Y-18169714D02*
X8542571Y-18217333D01*
X8542571Y-18217333D02*
X8533048Y-18255429D01*
X8533048Y-18255429D02*
X8523524Y-18274476D01*
X8523524Y-18274476D02*
X8514000Y-18284000D01*
X8514000Y-18284000D02*
X8494952Y-18293524D01*
X8494952Y-18293524D02*
X8475905Y-18293524D01*
X8475905Y-18293524D02*
X8456857Y-18284000D01*
X8456857Y-18284000D02*
X8447333Y-18274476D01*
X8447333Y-18274476D02*
X8437810Y-18255429D01*
X8437810Y-18255429D02*
X8428286Y-18217333D01*
X8428286Y-18217333D02*
X8428286Y-18169714D01*
X8428286Y-18169714D02*
X8437810Y-18131619D01*
X8437810Y-18131619D02*
X8447333Y-18112571D01*
X8447333Y-18112571D02*
X8456857Y-18103048D01*
X8456857Y-18103048D02*
X8475905Y-18093524D01*
X8666381Y-18093524D02*
X8685429Y-18093524D01*
X8685429Y-18093524D02*
X8704476Y-18103048D01*
X8704476Y-18103048D02*
X8714000Y-18112571D01*
X8714000Y-18112571D02*
X8723524Y-18131619D01*
X8723524Y-18131619D02*
X8733048Y-18169714D01*
X8733048Y-18169714D02*
X8733048Y-18217333D01*
X8733048Y-18217333D02*
X8723524Y-18255429D01*
X8723524Y-18255429D02*
X8714000Y-18274476D01*
X8714000Y-18274476D02*
X8704476Y-18284000D01*
X8704476Y-18284000D02*
X8685429Y-18293524D01*
X8685429Y-18293524D02*
X8666381Y-18293524D01*
X8666381Y-18293524D02*
X8647333Y-18284000D01*
X8647333Y-18284000D02*
X8637810Y-18274476D01*
X8637810Y-18274476D02*
X8628286Y-18255429D01*
X8628286Y-18255429D02*
X8618762Y-18217333D01*
X8618762Y-18217333D02*
X8618762Y-18169714D01*
X8618762Y-18169714D02*
X8628286Y-18131619D01*
X8628286Y-18131619D02*
X8637810Y-18112571D01*
X8637810Y-18112571D02*
X8647333Y-18103048D01*
X8647333Y-18103048D02*
X8666381Y-18093524D01*
X8818762Y-18293524D02*
X8818762Y-18160190D01*
X8818762Y-18179238D02*
X8828286Y-18169714D01*
X8828286Y-18169714D02*
X8847333Y-18160190D01*
X8847333Y-18160190D02*
X8875905Y-18160190D01*
X8875905Y-18160190D02*
X8894952Y-18169714D01*
X8894952Y-18169714D02*
X8904476Y-18188762D01*
X8904476Y-18188762D02*
X8904476Y-18293524D01*
X8904476Y-18188762D02*
X8914000Y-18169714D01*
X8914000Y-18169714D02*
X8933048Y-18160190D01*
X8933048Y-18160190D02*
X8961619Y-18160190D01*
X8961619Y-18160190D02*
X8980667Y-18169714D01*
X8980667Y-18169714D02*
X8990191Y-18188762D01*
X8990191Y-18188762D02*
X8990191Y-18293524D01*
X9085429Y-18293524D02*
X9085429Y-18160190D01*
X9085429Y-18179238D02*
X9094952Y-18169714D01*
X9094952Y-18169714D02*
X9114000Y-18160190D01*
X9114000Y-18160190D02*
X9142572Y-18160190D01*
X9142572Y-18160190D02*
X9161619Y-18169714D01*
X9161619Y-18169714D02*
X9171143Y-18188762D01*
X9171143Y-18188762D02*
X9171143Y-18293524D01*
X9171143Y-18188762D02*
X9180667Y-18169714D01*
X9180667Y-18169714D02*
X9199714Y-18160190D01*
X9199714Y-18160190D02*
X9228286Y-18160190D01*
X9228286Y-18160190D02*
X9247333Y-18169714D01*
X9247333Y-18169714D02*
X9256857Y-18188762D01*
X9256857Y-18188762D02*
X9256857Y-18293524D01*
X9647333Y-18084000D02*
X9475905Y-18341143D01*
X9904476Y-18093524D02*
X9923524Y-18093524D01*
X9923524Y-18093524D02*
X9942572Y-18103048D01*
X9942572Y-18103048D02*
X9952095Y-18112571D01*
X9952095Y-18112571D02*
X9961619Y-18131619D01*
X9961619Y-18131619D02*
X9971143Y-18169714D01*
X9971143Y-18169714D02*
X9971143Y-18217333D01*
X9971143Y-18217333D02*
X9961619Y-18255429D01*
X9961619Y-18255429D02*
X9952095Y-18274476D01*
X9952095Y-18274476D02*
X9942572Y-18284000D01*
X9942572Y-18284000D02*
X9923524Y-18293524D01*
X9923524Y-18293524D02*
X9904476Y-18293524D01*
X9904476Y-18293524D02*
X9885429Y-18284000D01*
X9885429Y-18284000D02*
X9875905Y-18274476D01*
X9875905Y-18274476D02*
X9866381Y-18255429D01*
X9866381Y-18255429D02*
X9856857Y-18217333D01*
X9856857Y-18217333D02*
X9856857Y-18169714D01*
X9856857Y-18169714D02*
X9866381Y-18131619D01*
X9866381Y-18131619D02*
X9875905Y-18112571D01*
X9875905Y-18112571D02*
X9885429Y-18103048D01*
X9885429Y-18103048D02*
X9904476Y-18093524D01*
X10056857Y-18274476D02*
X10066381Y-18284000D01*
X10066381Y-18284000D02*
X10056857Y-18293524D01*
X10056857Y-18293524D02*
X10047334Y-18284000D01*
X10047334Y-18284000D02*
X10056857Y-18274476D01*
X10056857Y-18274476D02*
X10056857Y-18293524D01*
X10190191Y-18093524D02*
X10209238Y-18093524D01*
X10209238Y-18093524D02*
X10228286Y-18103048D01*
X10228286Y-18103048D02*
X10237810Y-18112571D01*
X10237810Y-18112571D02*
X10247334Y-18131619D01*
X10247334Y-18131619D02*
X10256857Y-18169714D01*
X10256857Y-18169714D02*
X10256857Y-18217333D01*
X10256857Y-18217333D02*
X10247334Y-18255429D01*
X10247334Y-18255429D02*
X10237810Y-18274476D01*
X10237810Y-18274476D02*
X10228286Y-18284000D01*
X10228286Y-18284000D02*
X10209238Y-18293524D01*
X10209238Y-18293524D02*
X10190191Y-18293524D01*
X10190191Y-18293524D02*
X10171143Y-18284000D01*
X10171143Y-18284000D02*
X10161619Y-18274476D01*
X10161619Y-18274476D02*
X10152095Y-18255429D01*
X10152095Y-18255429D02*
X10142572Y-18217333D01*
X10142572Y-18217333D02*
X10142572Y-18169714D01*
X10142572Y-18169714D02*
X10152095Y-18131619D01*
X10152095Y-18131619D02*
X10161619Y-18112571D01*
X10161619Y-18112571D02*
X10171143Y-18103048D01*
X10171143Y-18103048D02*
X10190191Y-18093524D01*
X10323524Y-18093524D02*
X10447334Y-18093524D01*
X10447334Y-18093524D02*
X10380667Y-18169714D01*
X10380667Y-18169714D02*
X10409238Y-18169714D01*
X10409238Y-18169714D02*
X10428286Y-18179238D01*
X10428286Y-18179238D02*
X10437810Y-18188762D01*
X10437810Y-18188762D02*
X10447334Y-18207810D01*
X10447334Y-18207810D02*
X10447334Y-18255429D01*
X10447334Y-18255429D02*
X10437810Y-18274476D01*
X10437810Y-18274476D02*
X10428286Y-18284000D01*
X10428286Y-18284000D02*
X10409238Y-18293524D01*
X10409238Y-18293524D02*
X10352095Y-18293524D01*
X10352095Y-18293524D02*
X10333048Y-18284000D01*
X10333048Y-18284000D02*
X10323524Y-18274476D01*
X10542572Y-18293524D02*
X10580667Y-18293524D01*
X10580667Y-18293524D02*
X10599715Y-18284000D01*
X10599715Y-18284000D02*
X10609238Y-18274476D01*
X10609238Y-18274476D02*
X10628286Y-18245905D01*
X10628286Y-18245905D02*
X10637810Y-18207810D01*
X10637810Y-18207810D02*
X10637810Y-18131619D01*
X10637810Y-18131619D02*
X10628286Y-18112571D01*
X10628286Y-18112571D02*
X10618762Y-18103048D01*
X10618762Y-18103048D02*
X10599715Y-18093524D01*
X10599715Y-18093524D02*
X10561619Y-18093524D01*
X10561619Y-18093524D02*
X10542572Y-18103048D01*
X10542572Y-18103048D02*
X10533048Y-18112571D01*
X10533048Y-18112571D02*
X10523524Y-18131619D01*
X10523524Y-18131619D02*
X10523524Y-18179238D01*
X10523524Y-18179238D02*
X10533048Y-18198286D01*
X10533048Y-18198286D02*
X10542572Y-18207810D01*
X10542572Y-18207810D02*
X10561619Y-18217333D01*
X10561619Y-18217333D02*
X10599715Y-18217333D01*
X10599715Y-18217333D02*
X10618762Y-18207810D01*
X10618762Y-18207810D02*
X10628286Y-18198286D01*
X10628286Y-18198286D02*
X10637810Y-18179238D01*
X10809238Y-18160190D02*
X10809238Y-18293524D01*
X10761619Y-18084000D02*
X10714000Y-18226857D01*
X10714000Y-18226857D02*
X10837810Y-18226857D01*
X10904476Y-18093524D02*
X10904476Y-18131619D01*
X10980667Y-18093524D02*
X10980667Y-18131619D01*
X11275905Y-18369714D02*
X11266381Y-18360190D01*
X11266381Y-18360190D02*
X11247334Y-18331619D01*
X11247334Y-18331619D02*
X11237810Y-18312571D01*
X11237810Y-18312571D02*
X11228286Y-18284000D01*
X11228286Y-18284000D02*
X11218762Y-18236381D01*
X11218762Y-18236381D02*
X11218762Y-18198286D01*
X11218762Y-18198286D02*
X11228286Y-18150667D01*
X11228286Y-18150667D02*
X11237810Y-18122095D01*
X11237810Y-18122095D02*
X11247334Y-18103048D01*
X11247334Y-18103048D02*
X11266381Y-18074476D01*
X11266381Y-18074476D02*
X11275905Y-18064952D01*
X11447334Y-18093524D02*
X11352095Y-18093524D01*
X11352095Y-18093524D02*
X11342572Y-18188762D01*
X11342572Y-18188762D02*
X11352095Y-18179238D01*
X11352095Y-18179238D02*
X11371143Y-18169714D01*
X11371143Y-18169714D02*
X11418762Y-18169714D01*
X11418762Y-18169714D02*
X11437810Y-18179238D01*
X11437810Y-18179238D02*
X11447334Y-18188762D01*
X11447334Y-18188762D02*
X11456857Y-18207810D01*
X11456857Y-18207810D02*
X11456857Y-18255429D01*
X11456857Y-18255429D02*
X11447334Y-18274476D01*
X11447334Y-18274476D02*
X11437810Y-18284000D01*
X11437810Y-18284000D02*
X11418762Y-18293524D01*
X11418762Y-18293524D02*
X11371143Y-18293524D01*
X11371143Y-18293524D02*
X11352095Y-18284000D01*
X11352095Y-18284000D02*
X11342572Y-18274476D01*
X11637810Y-18093524D02*
X11542572Y-18093524D01*
X11542572Y-18093524D02*
X11533048Y-18188762D01*
X11533048Y-18188762D02*
X11542572Y-18179238D01*
X11542572Y-18179238D02*
X11561619Y-18169714D01*
X11561619Y-18169714D02*
X11609238Y-18169714D01*
X11609238Y-18169714D02*
X11628286Y-18179238D01*
X11628286Y-18179238D02*
X11637810Y-18188762D01*
X11637810Y-18188762D02*
X11647334Y-18207810D01*
X11647334Y-18207810D02*
X11647334Y-18255429D01*
X11647334Y-18255429D02*
X11637810Y-18274476D01*
X11637810Y-18274476D02*
X11628286Y-18284000D01*
X11628286Y-18284000D02*
X11609238Y-18293524D01*
X11609238Y-18293524D02*
X11561619Y-18293524D01*
X11561619Y-18293524D02*
X11542572Y-18284000D01*
X11542572Y-18284000D02*
X11533048Y-18274476D01*
X11885429Y-18293524D02*
X11885429Y-18093524D01*
X11971143Y-18293524D02*
X11971143Y-18188762D01*
X11971143Y-18188762D02*
X11961619Y-18169714D01*
X11961619Y-18169714D02*
X11942572Y-18160190D01*
X11942572Y-18160190D02*
X11914000Y-18160190D01*
X11914000Y-18160190D02*
X11894953Y-18169714D01*
X11894953Y-18169714D02*
X11885429Y-18179238D01*
X12094953Y-18293524D02*
X12075905Y-18284000D01*
X12075905Y-18284000D02*
X12066381Y-18274476D01*
X12066381Y-18274476D02*
X12056857Y-18255429D01*
X12056857Y-18255429D02*
X12056857Y-18198286D01*
X12056857Y-18198286D02*
X12066381Y-18179238D01*
X12066381Y-18179238D02*
X12075905Y-18169714D01*
X12075905Y-18169714D02*
X12094953Y-18160190D01*
X12094953Y-18160190D02*
X12123524Y-18160190D01*
X12123524Y-18160190D02*
X12142572Y-18169714D01*
X12142572Y-18169714D02*
X12152096Y-18179238D01*
X12152096Y-18179238D02*
X12161619Y-18198286D01*
X12161619Y-18198286D02*
X12161619Y-18255429D01*
X12161619Y-18255429D02*
X12152096Y-18274476D01*
X12152096Y-18274476D02*
X12142572Y-18284000D01*
X12142572Y-18284000D02*
X12123524Y-18293524D01*
X12123524Y-18293524D02*
X12094953Y-18293524D01*
X12275905Y-18293524D02*
X12256857Y-18284000D01*
X12256857Y-18284000D02*
X12247334Y-18264952D01*
X12247334Y-18264952D02*
X12247334Y-18093524D01*
X12428286Y-18284000D02*
X12409238Y-18293524D01*
X12409238Y-18293524D02*
X12371143Y-18293524D01*
X12371143Y-18293524D02*
X12352096Y-18284000D01*
X12352096Y-18284000D02*
X12342572Y-18264952D01*
X12342572Y-18264952D02*
X12342572Y-18188762D01*
X12342572Y-18188762D02*
X12352096Y-18169714D01*
X12352096Y-18169714D02*
X12371143Y-18160190D01*
X12371143Y-18160190D02*
X12409238Y-18160190D01*
X12409238Y-18160190D02*
X12428286Y-18169714D01*
X12428286Y-18169714D02*
X12437810Y-18188762D01*
X12437810Y-18188762D02*
X12437810Y-18207810D01*
X12437810Y-18207810D02*
X12342572Y-18226857D01*
X12514000Y-18284000D02*
X12533048Y-18293524D01*
X12533048Y-18293524D02*
X12571143Y-18293524D01*
X12571143Y-18293524D02*
X12590191Y-18284000D01*
X12590191Y-18284000D02*
X12599715Y-18264952D01*
X12599715Y-18264952D02*
X12599715Y-18255429D01*
X12599715Y-18255429D02*
X12590191Y-18236381D01*
X12590191Y-18236381D02*
X12571143Y-18226857D01*
X12571143Y-18226857D02*
X12542572Y-18226857D01*
X12542572Y-18226857D02*
X12523524Y-18217333D01*
X12523524Y-18217333D02*
X12514000Y-18198286D01*
X12514000Y-18198286D02*
X12514000Y-18188762D01*
X12514000Y-18188762D02*
X12523524Y-18169714D01*
X12523524Y-18169714D02*
X12542572Y-18160190D01*
X12542572Y-18160190D02*
X12571143Y-18160190D01*
X12571143Y-18160190D02*
X12590191Y-18169714D01*
X12666381Y-18369714D02*
X12675905Y-18360190D01*
X12675905Y-18360190D02*
X12694953Y-18331619D01*
X12694953Y-18331619D02*
X12704477Y-18312571D01*
X12704477Y-18312571D02*
X12714000Y-18284000D01*
X12714000Y-18284000D02*
X12723524Y-18236381D01*
X12723524Y-18236381D02*
X12723524Y-18198286D01*
X12723524Y-18198286D02*
X12714000Y-18150667D01*
X12714000Y-18150667D02*
X12704477Y-18122095D01*
X12704477Y-18122095D02*
X12694953Y-18103048D01*
X12694953Y-18103048D02*
X12675905Y-18074476D01*
X12675905Y-18074476D02*
X12666381Y-18064952D01*
D16*
X7607320Y-18411660D02*
X7714000Y-18518340D01*
X7714000Y-18411660D02*
X7607320Y-18518340D01*
X7714000Y-18465000D02*
G75*
G03*
X7714000Y-18465000I-53340J0D01*
G01*
D11*
X8066381Y-18557524D02*
X7952095Y-18557524D01*
X8009238Y-18557524D02*
X8009238Y-18357524D01*
X8009238Y-18357524D02*
X7990190Y-18386095D01*
X7990190Y-18386095D02*
X7971143Y-18405143D01*
X7971143Y-18405143D02*
X7952095Y-18414667D01*
X8152095Y-18538476D02*
X8161619Y-18548000D01*
X8161619Y-18548000D02*
X8152095Y-18557524D01*
X8152095Y-18557524D02*
X8142571Y-18548000D01*
X8142571Y-18548000D02*
X8152095Y-18538476D01*
X8152095Y-18538476D02*
X8152095Y-18557524D01*
X8285428Y-18357524D02*
X8304476Y-18357524D01*
X8304476Y-18357524D02*
X8323524Y-18367048D01*
X8323524Y-18367048D02*
X8333048Y-18376571D01*
X8333048Y-18376571D02*
X8342571Y-18395619D01*
X8342571Y-18395619D02*
X8352095Y-18433714D01*
X8352095Y-18433714D02*
X8352095Y-18481333D01*
X8352095Y-18481333D02*
X8342571Y-18519429D01*
X8342571Y-18519429D02*
X8333048Y-18538476D01*
X8333048Y-18538476D02*
X8323524Y-18548000D01*
X8323524Y-18548000D02*
X8304476Y-18557524D01*
X8304476Y-18557524D02*
X8285428Y-18557524D01*
X8285428Y-18557524D02*
X8266381Y-18548000D01*
X8266381Y-18548000D02*
X8256857Y-18538476D01*
X8256857Y-18538476D02*
X8247333Y-18519429D01*
X8247333Y-18519429D02*
X8237809Y-18481333D01*
X8237809Y-18481333D02*
X8237809Y-18433714D01*
X8237809Y-18433714D02*
X8247333Y-18395619D01*
X8247333Y-18395619D02*
X8256857Y-18376571D01*
X8256857Y-18376571D02*
X8266381Y-18367048D01*
X8266381Y-18367048D02*
X8285428Y-18357524D01*
X8523524Y-18357524D02*
X8485429Y-18357524D01*
X8485429Y-18357524D02*
X8466381Y-18367048D01*
X8466381Y-18367048D02*
X8456857Y-18376571D01*
X8456857Y-18376571D02*
X8437810Y-18405143D01*
X8437810Y-18405143D02*
X8428286Y-18443238D01*
X8428286Y-18443238D02*
X8428286Y-18519429D01*
X8428286Y-18519429D02*
X8437810Y-18538476D01*
X8437810Y-18538476D02*
X8447333Y-18548000D01*
X8447333Y-18548000D02*
X8466381Y-18557524D01*
X8466381Y-18557524D02*
X8504476Y-18557524D01*
X8504476Y-18557524D02*
X8523524Y-18548000D01*
X8523524Y-18548000D02*
X8533048Y-18538476D01*
X8533048Y-18538476D02*
X8542571Y-18519429D01*
X8542571Y-18519429D02*
X8542571Y-18471810D01*
X8542571Y-18471810D02*
X8533048Y-18452762D01*
X8533048Y-18452762D02*
X8523524Y-18443238D01*
X8523524Y-18443238D02*
X8504476Y-18433714D01*
X8504476Y-18433714D02*
X8466381Y-18433714D01*
X8466381Y-18433714D02*
X8447333Y-18443238D01*
X8447333Y-18443238D02*
X8437810Y-18452762D01*
X8437810Y-18452762D02*
X8428286Y-18471810D01*
X8609238Y-18357524D02*
X8742571Y-18357524D01*
X8742571Y-18357524D02*
X8656857Y-18557524D01*
X8818762Y-18557524D02*
X8818762Y-18424190D01*
X8818762Y-18443238D02*
X8828286Y-18433714D01*
X8828286Y-18433714D02*
X8847333Y-18424190D01*
X8847333Y-18424190D02*
X8875905Y-18424190D01*
X8875905Y-18424190D02*
X8894952Y-18433714D01*
X8894952Y-18433714D02*
X8904476Y-18452762D01*
X8904476Y-18452762D02*
X8904476Y-18557524D01*
X8904476Y-18452762D02*
X8914000Y-18433714D01*
X8914000Y-18433714D02*
X8933048Y-18424190D01*
X8933048Y-18424190D02*
X8961619Y-18424190D01*
X8961619Y-18424190D02*
X8980667Y-18433714D01*
X8980667Y-18433714D02*
X8990191Y-18452762D01*
X8990191Y-18452762D02*
X8990191Y-18557524D01*
X9085429Y-18557524D02*
X9085429Y-18424190D01*
X9085429Y-18443238D02*
X9094952Y-18433714D01*
X9094952Y-18433714D02*
X9114000Y-18424190D01*
X9114000Y-18424190D02*
X9142572Y-18424190D01*
X9142572Y-18424190D02*
X9161619Y-18433714D01*
X9161619Y-18433714D02*
X9171143Y-18452762D01*
X9171143Y-18452762D02*
X9171143Y-18557524D01*
X9171143Y-18452762D02*
X9180667Y-18433714D01*
X9180667Y-18433714D02*
X9199714Y-18424190D01*
X9199714Y-18424190D02*
X9228286Y-18424190D01*
X9228286Y-18424190D02*
X9247333Y-18433714D01*
X9247333Y-18433714D02*
X9256857Y-18452762D01*
X9256857Y-18452762D02*
X9256857Y-18557524D01*
X9647333Y-18348000D02*
X9475905Y-18605143D01*
X9904476Y-18357524D02*
X9923524Y-18357524D01*
X9923524Y-18357524D02*
X9942572Y-18367048D01*
X9942572Y-18367048D02*
X9952095Y-18376571D01*
X9952095Y-18376571D02*
X9961619Y-18395619D01*
X9961619Y-18395619D02*
X9971143Y-18433714D01*
X9971143Y-18433714D02*
X9971143Y-18481333D01*
X9971143Y-18481333D02*
X9961619Y-18519429D01*
X9961619Y-18519429D02*
X9952095Y-18538476D01*
X9952095Y-18538476D02*
X9942572Y-18548000D01*
X9942572Y-18548000D02*
X9923524Y-18557524D01*
X9923524Y-18557524D02*
X9904476Y-18557524D01*
X9904476Y-18557524D02*
X9885429Y-18548000D01*
X9885429Y-18548000D02*
X9875905Y-18538476D01*
X9875905Y-18538476D02*
X9866381Y-18519429D01*
X9866381Y-18519429D02*
X9856857Y-18481333D01*
X9856857Y-18481333D02*
X9856857Y-18433714D01*
X9856857Y-18433714D02*
X9866381Y-18395619D01*
X9866381Y-18395619D02*
X9875905Y-18376571D01*
X9875905Y-18376571D02*
X9885429Y-18367048D01*
X9885429Y-18367048D02*
X9904476Y-18357524D01*
X10056857Y-18538476D02*
X10066381Y-18548000D01*
X10066381Y-18548000D02*
X10056857Y-18557524D01*
X10056857Y-18557524D02*
X10047334Y-18548000D01*
X10047334Y-18548000D02*
X10056857Y-18538476D01*
X10056857Y-18538476D02*
X10056857Y-18557524D01*
X10190191Y-18357524D02*
X10209238Y-18357524D01*
X10209238Y-18357524D02*
X10228286Y-18367048D01*
X10228286Y-18367048D02*
X10237810Y-18376571D01*
X10237810Y-18376571D02*
X10247334Y-18395619D01*
X10247334Y-18395619D02*
X10256857Y-18433714D01*
X10256857Y-18433714D02*
X10256857Y-18481333D01*
X10256857Y-18481333D02*
X10247334Y-18519429D01*
X10247334Y-18519429D02*
X10237810Y-18538476D01*
X10237810Y-18538476D02*
X10228286Y-18548000D01*
X10228286Y-18548000D02*
X10209238Y-18557524D01*
X10209238Y-18557524D02*
X10190191Y-18557524D01*
X10190191Y-18557524D02*
X10171143Y-18548000D01*
X10171143Y-18548000D02*
X10161619Y-18538476D01*
X10161619Y-18538476D02*
X10152095Y-18519429D01*
X10152095Y-18519429D02*
X10142572Y-18481333D01*
X10142572Y-18481333D02*
X10142572Y-18433714D01*
X10142572Y-18433714D02*
X10152095Y-18395619D01*
X10152095Y-18395619D02*
X10161619Y-18376571D01*
X10161619Y-18376571D02*
X10171143Y-18367048D01*
X10171143Y-18367048D02*
X10190191Y-18357524D01*
X10428286Y-18424190D02*
X10428286Y-18557524D01*
X10380667Y-18348000D02*
X10333048Y-18490857D01*
X10333048Y-18490857D02*
X10456857Y-18490857D01*
X10523524Y-18376571D02*
X10533048Y-18367048D01*
X10533048Y-18367048D02*
X10552095Y-18357524D01*
X10552095Y-18357524D02*
X10599715Y-18357524D01*
X10599715Y-18357524D02*
X10618762Y-18367048D01*
X10618762Y-18367048D02*
X10628286Y-18376571D01*
X10628286Y-18376571D02*
X10637810Y-18395619D01*
X10637810Y-18395619D02*
X10637810Y-18414667D01*
X10637810Y-18414667D02*
X10628286Y-18443238D01*
X10628286Y-18443238D02*
X10514000Y-18557524D01*
X10514000Y-18557524D02*
X10637810Y-18557524D01*
X10761619Y-18357524D02*
X10780667Y-18357524D01*
X10780667Y-18357524D02*
X10799715Y-18367048D01*
X10799715Y-18367048D02*
X10809238Y-18376571D01*
X10809238Y-18376571D02*
X10818762Y-18395619D01*
X10818762Y-18395619D02*
X10828286Y-18433714D01*
X10828286Y-18433714D02*
X10828286Y-18481333D01*
X10828286Y-18481333D02*
X10818762Y-18519429D01*
X10818762Y-18519429D02*
X10809238Y-18538476D01*
X10809238Y-18538476D02*
X10799715Y-18548000D01*
X10799715Y-18548000D02*
X10780667Y-18557524D01*
X10780667Y-18557524D02*
X10761619Y-18557524D01*
X10761619Y-18557524D02*
X10742572Y-18548000D01*
X10742572Y-18548000D02*
X10733048Y-18538476D01*
X10733048Y-18538476D02*
X10723524Y-18519429D01*
X10723524Y-18519429D02*
X10714000Y-18481333D01*
X10714000Y-18481333D02*
X10714000Y-18433714D01*
X10714000Y-18433714D02*
X10723524Y-18395619D01*
X10723524Y-18395619D02*
X10733048Y-18376571D01*
X10733048Y-18376571D02*
X10742572Y-18367048D01*
X10742572Y-18367048D02*
X10761619Y-18357524D01*
X10904476Y-18357524D02*
X10904476Y-18395619D01*
X10980667Y-18357524D02*
X10980667Y-18395619D01*
X11275905Y-18633714D02*
X11266381Y-18624190D01*
X11266381Y-18624190D02*
X11247334Y-18595619D01*
X11247334Y-18595619D02*
X11237810Y-18576571D01*
X11237810Y-18576571D02*
X11228286Y-18548000D01*
X11228286Y-18548000D02*
X11218762Y-18500381D01*
X11218762Y-18500381D02*
X11218762Y-18462286D01*
X11218762Y-18462286D02*
X11228286Y-18414667D01*
X11228286Y-18414667D02*
X11237810Y-18386095D01*
X11237810Y-18386095D02*
X11247334Y-18367048D01*
X11247334Y-18367048D02*
X11266381Y-18338476D01*
X11266381Y-18338476D02*
X11275905Y-18328952D01*
X11437810Y-18424190D02*
X11437810Y-18557524D01*
X11390191Y-18348000D02*
X11342572Y-18490857D01*
X11342572Y-18490857D02*
X11466381Y-18490857D01*
X11694953Y-18557524D02*
X11694953Y-18357524D01*
X11780667Y-18557524D02*
X11780667Y-18452762D01*
X11780667Y-18452762D02*
X11771143Y-18433714D01*
X11771143Y-18433714D02*
X11752096Y-18424190D01*
X11752096Y-18424190D02*
X11723524Y-18424190D01*
X11723524Y-18424190D02*
X11704476Y-18433714D01*
X11704476Y-18433714D02*
X11694953Y-18443238D01*
X11904476Y-18557524D02*
X11885429Y-18548000D01*
X11885429Y-18548000D02*
X11875905Y-18538476D01*
X11875905Y-18538476D02*
X11866381Y-18519429D01*
X11866381Y-18519429D02*
X11866381Y-18462286D01*
X11866381Y-18462286D02*
X11875905Y-18443238D01*
X11875905Y-18443238D02*
X11885429Y-18433714D01*
X11885429Y-18433714D02*
X11904476Y-18424190D01*
X11904476Y-18424190D02*
X11933048Y-18424190D01*
X11933048Y-18424190D02*
X11952096Y-18433714D01*
X11952096Y-18433714D02*
X11961619Y-18443238D01*
X11961619Y-18443238D02*
X11971143Y-18462286D01*
X11971143Y-18462286D02*
X11971143Y-18519429D01*
X11971143Y-18519429D02*
X11961619Y-18538476D01*
X11961619Y-18538476D02*
X11952096Y-18548000D01*
X11952096Y-18548000D02*
X11933048Y-18557524D01*
X11933048Y-18557524D02*
X11904476Y-18557524D01*
X12085429Y-18557524D02*
X12066381Y-18548000D01*
X12066381Y-18548000D02*
X12056857Y-18528952D01*
X12056857Y-18528952D02*
X12056857Y-18357524D01*
X12237810Y-18548000D02*
X12218762Y-18557524D01*
X12218762Y-18557524D02*
X12180667Y-18557524D01*
X12180667Y-18557524D02*
X12161619Y-18548000D01*
X12161619Y-18548000D02*
X12152096Y-18528952D01*
X12152096Y-18528952D02*
X12152096Y-18452762D01*
X12152096Y-18452762D02*
X12161619Y-18433714D01*
X12161619Y-18433714D02*
X12180667Y-18424190D01*
X12180667Y-18424190D02*
X12218762Y-18424190D01*
X12218762Y-18424190D02*
X12237810Y-18433714D01*
X12237810Y-18433714D02*
X12247334Y-18452762D01*
X12247334Y-18452762D02*
X12247334Y-18471810D01*
X12247334Y-18471810D02*
X12152096Y-18490857D01*
X12323524Y-18548000D02*
X12342572Y-18557524D01*
X12342572Y-18557524D02*
X12380667Y-18557524D01*
X12380667Y-18557524D02*
X12399715Y-18548000D01*
X12399715Y-18548000D02*
X12409238Y-18528952D01*
X12409238Y-18528952D02*
X12409238Y-18519429D01*
X12409238Y-18519429D02*
X12399715Y-18500381D01*
X12399715Y-18500381D02*
X12380667Y-18490857D01*
X12380667Y-18490857D02*
X12352096Y-18490857D01*
X12352096Y-18490857D02*
X12333048Y-18481333D01*
X12333048Y-18481333D02*
X12323524Y-18462286D01*
X12323524Y-18462286D02*
X12323524Y-18452762D01*
X12323524Y-18452762D02*
X12333048Y-18433714D01*
X12333048Y-18433714D02*
X12352096Y-18424190D01*
X12352096Y-18424190D02*
X12380667Y-18424190D01*
X12380667Y-18424190D02*
X12399715Y-18433714D01*
X12475905Y-18633714D02*
X12485429Y-18624190D01*
X12485429Y-18624190D02*
X12504477Y-18595619D01*
X12504477Y-18595619D02*
X12514000Y-18576571D01*
X12514000Y-18576571D02*
X12523524Y-18548000D01*
X12523524Y-18548000D02*
X12533048Y-18500381D01*
X12533048Y-18500381D02*
X12533048Y-18462286D01*
X12533048Y-18462286D02*
X12523524Y-18414667D01*
X12523524Y-18414667D02*
X12514000Y-18386095D01*
X12514000Y-18386095D02*
X12504477Y-18367048D01*
X12504477Y-18367048D02*
X12485429Y-18338476D01*
X12485429Y-18338476D02*
X12475905Y-18328952D01*
D17*
X7574000Y-18659000D02*
X7714000Y-18799000D01*
X7714000Y-18659000D02*
X7574000Y-18799000D01*
X7644000Y-18659000D02*
X7644000Y-18799000D01*
X7574000Y-18729000D02*
X7714000Y-18729000D01*
D11*
X8066381Y-18821524D02*
X7952095Y-18821524D01*
X8009238Y-18821524D02*
X8009238Y-18621524D01*
X8009238Y-18621524D02*
X7990190Y-18650095D01*
X7990190Y-18650095D02*
X7971143Y-18669143D01*
X7971143Y-18669143D02*
X7952095Y-18678667D01*
X8152095Y-18802476D02*
X8161619Y-18812000D01*
X8161619Y-18812000D02*
X8152095Y-18821524D01*
X8152095Y-18821524D02*
X8142571Y-18812000D01*
X8142571Y-18812000D02*
X8152095Y-18802476D01*
X8152095Y-18802476D02*
X8152095Y-18821524D01*
X8333048Y-18688190D02*
X8333048Y-18821524D01*
X8285428Y-18612000D02*
X8237809Y-18754857D01*
X8237809Y-18754857D02*
X8361619Y-18754857D01*
X8475905Y-18621524D02*
X8494952Y-18621524D01*
X8494952Y-18621524D02*
X8514000Y-18631048D01*
X8514000Y-18631048D02*
X8523524Y-18640571D01*
X8523524Y-18640571D02*
X8533048Y-18659619D01*
X8533048Y-18659619D02*
X8542571Y-18697714D01*
X8542571Y-18697714D02*
X8542571Y-18745333D01*
X8542571Y-18745333D02*
X8533048Y-18783429D01*
X8533048Y-18783429D02*
X8523524Y-18802476D01*
X8523524Y-18802476D02*
X8514000Y-18812000D01*
X8514000Y-18812000D02*
X8494952Y-18821524D01*
X8494952Y-18821524D02*
X8475905Y-18821524D01*
X8475905Y-18821524D02*
X8456857Y-18812000D01*
X8456857Y-18812000D02*
X8447333Y-18802476D01*
X8447333Y-18802476D02*
X8437810Y-18783429D01*
X8437810Y-18783429D02*
X8428286Y-18745333D01*
X8428286Y-18745333D02*
X8428286Y-18697714D01*
X8428286Y-18697714D02*
X8437810Y-18659619D01*
X8437810Y-18659619D02*
X8447333Y-18640571D01*
X8447333Y-18640571D02*
X8456857Y-18631048D01*
X8456857Y-18631048D02*
X8475905Y-18621524D01*
X8666381Y-18621524D02*
X8685429Y-18621524D01*
X8685429Y-18621524D02*
X8704476Y-18631048D01*
X8704476Y-18631048D02*
X8714000Y-18640571D01*
X8714000Y-18640571D02*
X8723524Y-18659619D01*
X8723524Y-18659619D02*
X8733048Y-18697714D01*
X8733048Y-18697714D02*
X8733048Y-18745333D01*
X8733048Y-18745333D02*
X8723524Y-18783429D01*
X8723524Y-18783429D02*
X8714000Y-18802476D01*
X8714000Y-18802476D02*
X8704476Y-18812000D01*
X8704476Y-18812000D02*
X8685429Y-18821524D01*
X8685429Y-18821524D02*
X8666381Y-18821524D01*
X8666381Y-18821524D02*
X8647333Y-18812000D01*
X8647333Y-18812000D02*
X8637810Y-18802476D01*
X8637810Y-18802476D02*
X8628286Y-18783429D01*
X8628286Y-18783429D02*
X8618762Y-18745333D01*
X8618762Y-18745333D02*
X8618762Y-18697714D01*
X8618762Y-18697714D02*
X8628286Y-18659619D01*
X8628286Y-18659619D02*
X8637810Y-18640571D01*
X8637810Y-18640571D02*
X8647333Y-18631048D01*
X8647333Y-18631048D02*
X8666381Y-18621524D01*
X8818762Y-18821524D02*
X8818762Y-18688190D01*
X8818762Y-18707238D02*
X8828286Y-18697714D01*
X8828286Y-18697714D02*
X8847333Y-18688190D01*
X8847333Y-18688190D02*
X8875905Y-18688190D01*
X8875905Y-18688190D02*
X8894952Y-18697714D01*
X8894952Y-18697714D02*
X8904476Y-18716762D01*
X8904476Y-18716762D02*
X8904476Y-18821524D01*
X8904476Y-18716762D02*
X8914000Y-18697714D01*
X8914000Y-18697714D02*
X8933048Y-18688190D01*
X8933048Y-18688190D02*
X8961619Y-18688190D01*
X8961619Y-18688190D02*
X8980667Y-18697714D01*
X8980667Y-18697714D02*
X8990191Y-18716762D01*
X8990191Y-18716762D02*
X8990191Y-18821524D01*
X9085429Y-18821524D02*
X9085429Y-18688190D01*
X9085429Y-18707238D02*
X9094952Y-18697714D01*
X9094952Y-18697714D02*
X9114000Y-18688190D01*
X9114000Y-18688190D02*
X9142572Y-18688190D01*
X9142572Y-18688190D02*
X9161619Y-18697714D01*
X9161619Y-18697714D02*
X9171143Y-18716762D01*
X9171143Y-18716762D02*
X9171143Y-18821524D01*
X9171143Y-18716762D02*
X9180667Y-18697714D01*
X9180667Y-18697714D02*
X9199714Y-18688190D01*
X9199714Y-18688190D02*
X9228286Y-18688190D01*
X9228286Y-18688190D02*
X9247333Y-18697714D01*
X9247333Y-18697714D02*
X9256857Y-18716762D01*
X9256857Y-18716762D02*
X9256857Y-18821524D01*
X9647333Y-18612000D02*
X9475905Y-18869143D01*
X9904476Y-18621524D02*
X9923524Y-18621524D01*
X9923524Y-18621524D02*
X9942572Y-18631048D01*
X9942572Y-18631048D02*
X9952095Y-18640571D01*
X9952095Y-18640571D02*
X9961619Y-18659619D01*
X9961619Y-18659619D02*
X9971143Y-18697714D01*
X9971143Y-18697714D02*
X9971143Y-18745333D01*
X9971143Y-18745333D02*
X9961619Y-18783429D01*
X9961619Y-18783429D02*
X9952095Y-18802476D01*
X9952095Y-18802476D02*
X9942572Y-18812000D01*
X9942572Y-18812000D02*
X9923524Y-18821524D01*
X9923524Y-18821524D02*
X9904476Y-18821524D01*
X9904476Y-18821524D02*
X9885429Y-18812000D01*
X9885429Y-18812000D02*
X9875905Y-18802476D01*
X9875905Y-18802476D02*
X9866381Y-18783429D01*
X9866381Y-18783429D02*
X9856857Y-18745333D01*
X9856857Y-18745333D02*
X9856857Y-18697714D01*
X9856857Y-18697714D02*
X9866381Y-18659619D01*
X9866381Y-18659619D02*
X9875905Y-18640571D01*
X9875905Y-18640571D02*
X9885429Y-18631048D01*
X9885429Y-18631048D02*
X9904476Y-18621524D01*
X10056857Y-18802476D02*
X10066381Y-18812000D01*
X10066381Y-18812000D02*
X10056857Y-18821524D01*
X10056857Y-18821524D02*
X10047334Y-18812000D01*
X10047334Y-18812000D02*
X10056857Y-18802476D01*
X10056857Y-18802476D02*
X10056857Y-18821524D01*
X10190191Y-18621524D02*
X10209238Y-18621524D01*
X10209238Y-18621524D02*
X10228286Y-18631048D01*
X10228286Y-18631048D02*
X10237810Y-18640571D01*
X10237810Y-18640571D02*
X10247334Y-18659619D01*
X10247334Y-18659619D02*
X10256857Y-18697714D01*
X10256857Y-18697714D02*
X10256857Y-18745333D01*
X10256857Y-18745333D02*
X10247334Y-18783429D01*
X10247334Y-18783429D02*
X10237810Y-18802476D01*
X10237810Y-18802476D02*
X10228286Y-18812000D01*
X10228286Y-18812000D02*
X10209238Y-18821524D01*
X10209238Y-18821524D02*
X10190191Y-18821524D01*
X10190191Y-18821524D02*
X10171143Y-18812000D01*
X10171143Y-18812000D02*
X10161619Y-18802476D01*
X10161619Y-18802476D02*
X10152095Y-18783429D01*
X10152095Y-18783429D02*
X10142572Y-18745333D01*
X10142572Y-18745333D02*
X10142572Y-18697714D01*
X10142572Y-18697714D02*
X10152095Y-18659619D01*
X10152095Y-18659619D02*
X10161619Y-18640571D01*
X10161619Y-18640571D02*
X10171143Y-18631048D01*
X10171143Y-18631048D02*
X10190191Y-18621524D01*
X10437810Y-18621524D02*
X10342572Y-18621524D01*
X10342572Y-18621524D02*
X10333048Y-18716762D01*
X10333048Y-18716762D02*
X10342572Y-18707238D01*
X10342572Y-18707238D02*
X10361619Y-18697714D01*
X10361619Y-18697714D02*
X10409238Y-18697714D01*
X10409238Y-18697714D02*
X10428286Y-18707238D01*
X10428286Y-18707238D02*
X10437810Y-18716762D01*
X10437810Y-18716762D02*
X10447334Y-18735810D01*
X10447334Y-18735810D02*
X10447334Y-18783429D01*
X10447334Y-18783429D02*
X10437810Y-18802476D01*
X10437810Y-18802476D02*
X10428286Y-18812000D01*
X10428286Y-18812000D02*
X10409238Y-18821524D01*
X10409238Y-18821524D02*
X10361619Y-18821524D01*
X10361619Y-18821524D02*
X10342572Y-18812000D01*
X10342572Y-18812000D02*
X10333048Y-18802476D01*
X10628286Y-18621524D02*
X10533048Y-18621524D01*
X10533048Y-18621524D02*
X10523524Y-18716762D01*
X10523524Y-18716762D02*
X10533048Y-18707238D01*
X10533048Y-18707238D02*
X10552095Y-18697714D01*
X10552095Y-18697714D02*
X10599715Y-18697714D01*
X10599715Y-18697714D02*
X10618762Y-18707238D01*
X10618762Y-18707238D02*
X10628286Y-18716762D01*
X10628286Y-18716762D02*
X10637810Y-18735810D01*
X10637810Y-18735810D02*
X10637810Y-18783429D01*
X10637810Y-18783429D02*
X10628286Y-18802476D01*
X10628286Y-18802476D02*
X10618762Y-18812000D01*
X10618762Y-18812000D02*
X10599715Y-18821524D01*
X10599715Y-18821524D02*
X10552095Y-18821524D01*
X10552095Y-18821524D02*
X10533048Y-18812000D01*
X10533048Y-18812000D02*
X10523524Y-18802476D01*
X10828286Y-18821524D02*
X10714000Y-18821524D01*
X10771143Y-18821524D02*
X10771143Y-18621524D01*
X10771143Y-18621524D02*
X10752095Y-18650095D01*
X10752095Y-18650095D02*
X10733048Y-18669143D01*
X10733048Y-18669143D02*
X10714000Y-18678667D01*
X10904476Y-18621524D02*
X10904476Y-18659619D01*
X10980667Y-18621524D02*
X10980667Y-18659619D01*
X11275905Y-18897714D02*
X11266381Y-18888190D01*
X11266381Y-18888190D02*
X11247334Y-18859619D01*
X11247334Y-18859619D02*
X11237810Y-18840571D01*
X11237810Y-18840571D02*
X11228286Y-18812000D01*
X11228286Y-18812000D02*
X11218762Y-18764381D01*
X11218762Y-18764381D02*
X11218762Y-18726286D01*
X11218762Y-18726286D02*
X11228286Y-18678667D01*
X11228286Y-18678667D02*
X11237810Y-18650095D01*
X11237810Y-18650095D02*
X11247334Y-18631048D01*
X11247334Y-18631048D02*
X11266381Y-18602476D01*
X11266381Y-18602476D02*
X11275905Y-18592952D01*
X11437810Y-18688190D02*
X11437810Y-18821524D01*
X11390191Y-18612000D02*
X11342572Y-18754857D01*
X11342572Y-18754857D02*
X11466381Y-18754857D01*
X11694953Y-18821524D02*
X11694953Y-18621524D01*
X11780667Y-18821524D02*
X11780667Y-18716762D01*
X11780667Y-18716762D02*
X11771143Y-18697714D01*
X11771143Y-18697714D02*
X11752096Y-18688190D01*
X11752096Y-18688190D02*
X11723524Y-18688190D01*
X11723524Y-18688190D02*
X11704476Y-18697714D01*
X11704476Y-18697714D02*
X11694953Y-18707238D01*
X11904476Y-18821524D02*
X11885429Y-18812000D01*
X11885429Y-18812000D02*
X11875905Y-18802476D01*
X11875905Y-18802476D02*
X11866381Y-18783429D01*
X11866381Y-18783429D02*
X11866381Y-18726286D01*
X11866381Y-18726286D02*
X11875905Y-18707238D01*
X11875905Y-18707238D02*
X11885429Y-18697714D01*
X11885429Y-18697714D02*
X11904476Y-18688190D01*
X11904476Y-18688190D02*
X11933048Y-18688190D01*
X11933048Y-18688190D02*
X11952096Y-18697714D01*
X11952096Y-18697714D02*
X11961619Y-18707238D01*
X11961619Y-18707238D02*
X11971143Y-18726286D01*
X11971143Y-18726286D02*
X11971143Y-18783429D01*
X11971143Y-18783429D02*
X11961619Y-18802476D01*
X11961619Y-18802476D02*
X11952096Y-18812000D01*
X11952096Y-18812000D02*
X11933048Y-18821524D01*
X11933048Y-18821524D02*
X11904476Y-18821524D01*
X12085429Y-18821524D02*
X12066381Y-18812000D01*
X12066381Y-18812000D02*
X12056857Y-18792952D01*
X12056857Y-18792952D02*
X12056857Y-18621524D01*
X12237810Y-18812000D02*
X12218762Y-18821524D01*
X12218762Y-18821524D02*
X12180667Y-18821524D01*
X12180667Y-18821524D02*
X12161619Y-18812000D01*
X12161619Y-18812000D02*
X12152096Y-18792952D01*
X12152096Y-18792952D02*
X12152096Y-18716762D01*
X12152096Y-18716762D02*
X12161619Y-18697714D01*
X12161619Y-18697714D02*
X12180667Y-18688190D01*
X12180667Y-18688190D02*
X12218762Y-18688190D01*
X12218762Y-18688190D02*
X12237810Y-18697714D01*
X12237810Y-18697714D02*
X12247334Y-18716762D01*
X12247334Y-18716762D02*
X12247334Y-18735810D01*
X12247334Y-18735810D02*
X12152096Y-18754857D01*
X12323524Y-18812000D02*
X12342572Y-18821524D01*
X12342572Y-18821524D02*
X12380667Y-18821524D01*
X12380667Y-18821524D02*
X12399715Y-18812000D01*
X12399715Y-18812000D02*
X12409238Y-18792952D01*
X12409238Y-18792952D02*
X12409238Y-18783429D01*
X12409238Y-18783429D02*
X12399715Y-18764381D01*
X12399715Y-18764381D02*
X12380667Y-18754857D01*
X12380667Y-18754857D02*
X12352096Y-18754857D01*
X12352096Y-18754857D02*
X12333048Y-18745333D01*
X12333048Y-18745333D02*
X12323524Y-18726286D01*
X12323524Y-18726286D02*
X12323524Y-18716762D01*
X12323524Y-18716762D02*
X12333048Y-18697714D01*
X12333048Y-18697714D02*
X12352096Y-18688190D01*
X12352096Y-18688190D02*
X12380667Y-18688190D01*
X12380667Y-18688190D02*
X12399715Y-18697714D01*
X12475905Y-18897714D02*
X12485429Y-18888190D01*
X12485429Y-18888190D02*
X12504477Y-18859619D01*
X12504477Y-18859619D02*
X12514000Y-18840571D01*
X12514000Y-18840571D02*
X12523524Y-18812000D01*
X12523524Y-18812000D02*
X12533048Y-18764381D01*
X12533048Y-18764381D02*
X12533048Y-18726286D01*
X12533048Y-18726286D02*
X12523524Y-18678667D01*
X12523524Y-18678667D02*
X12514000Y-18650095D01*
X12514000Y-18650095D02*
X12504477Y-18631048D01*
X12504477Y-18631048D02*
X12485429Y-18602476D01*
X12485429Y-18602476D02*
X12475905Y-18592952D01*
M02*
