M48
; DRILL file {KiCad 7.0.7} date Mon Sep 11 20:33:57 2023
; FORMAT={-:-/ absolute / inch / decimal}
; #@! TF.CreationDate,2023-09-11T20:33:57-04:00
; #@! TF.GenerationSoftware,Kicad,Pcbnew,7.0.7
; #@! TF.FileFunction,Plated,1,4,PTH
FMAT,2
INCH
; #@! TA.AperFunction,Plated,PTH,ComponentDrill
T1C0.0118
; #@! TA.AperFunction,Plated,PTH,ViaDrill
T2C0.0157
; #@! TA.AperFunction,Plated,PTH,ComponentDrill
T3C0.0197
; #@! TA.AperFunction,Plated,PTH,ViaDrill
T4C0.0236
; #@! TA.AperFunction,Plated,PTH,ComponentDrill
T5C0.0236
; #@! TA.AperFunction,Plated,PTH,ViaDrill
T6C0.0315
; #@! TA.AperFunction,Plated,PTH,ComponentDrill
T7C0.0394
; #@! TA.AperFunction,Plated,PTH,ComponentDrill
T8C0.0420
; #@! TA.AperFunction,Plated,PTH,ComponentDrill
T9C0.1181
%
G90
G05
T1
X3.8288Y-2.7332
X3.8662Y-2.7105
X3.8662Y-2.7558
X3.9036Y-2.7332
X4.5639Y-3.8884
X4.5639Y-3.9278
X4.6032Y-3.8884
X4.6032Y-3.9278
T2
X3.0744Y-3.2307
X3.1756Y-3.4551
X3.2673Y-3.35
X3.2953Y-3.4547
X3.3358Y-3.3752
X3.3512Y-3.4177
X3.424Y-3.2587
X3.4993Y-5.1641
X3.5575Y-3.9862
X3.5587Y-3.7886
X3.578Y-5.1646
X3.5786Y-5.0909
X3.6Y-3.7417
X3.6016Y-4.7676
X3.6024Y-3.7909
X3.639Y-4.677
X3.6579Y-4.0547
X3.7047Y-3.8264
X3.7236Y-5.4091
X3.7279Y-2.8598
X3.7358Y-2.4594
X3.74Y-4.628
X3.7504Y-5.2217
X3.7547Y-2.8025
X3.77Y-2.7335
X3.7779Y-2.9242
X3.7838Y-4.4143
X3.7846Y-4.3669
X3.79Y-4.573
X3.8054Y-4.7504
X3.81Y-4.524
X3.8126Y-3.8638
X3.8176Y-4.4424
X3.8187Y-4.4813
X3.8315Y-3.3398
X3.8315Y-3.398
X3.8315Y-3.4598
X3.8315Y-3.5295
X3.8315Y-3.6031
X3.8315Y-3.6811
X3.835Y-4.29
X3.8406Y-4.8326
X3.847Y-4.751
X3.876Y-5.1654
X3.882Y-4.221
X3.8843Y-5.4297
X3.8851Y-5.3746
X3.8921Y-3.3398
X3.8921Y-3.398
X3.8921Y-3.4598
X3.8921Y-3.5295
X3.8921Y-3.6031
X3.8921Y-3.6811
X3.9131Y-4.8318
X3.9431Y-4.8685
X3.9555Y-2.6287
X3.9598Y-3.367
X3.9598Y-3.4358
X3.9705Y-2.8792
X3.977Y-4.7943
X3.977Y-4.9673
X3.98Y-4.292
X4.0044Y-3.2603
X4.019Y-4.294
X4.0433Y-2.963
X4.0551Y-4.1039
X4.076Y-5.0193
X4.0977Y-4.5447
X4.0994Y-4.4531
X4.0997Y-4.6249
X4.1114Y-5.1276
X4.1115Y-4.9189
X4.1281Y-4.6678
X4.1286Y-4.5819
X4.13Y-2.426
X4.1398Y-4.4839
X4.1469Y-5.2094
X4.15Y-2.4739
X4.1584Y-4.5435
X4.1604Y-4.6237
X4.1802Y-4.4531
X4.1888Y-4.6667
X4.1893Y-4.5807
X4.2163Y-4.5435
X4.2183Y-4.6237
X4.2206Y-4.485
X4.2629Y-2.8126
X4.265Y-4.1051
X4.2704Y-4.9189
X4.3094Y-4.8316
X4.3449Y-3.2672
X4.3523Y-2.7824
X4.3646Y-4.7965
X4.3799Y-4.1736
X4.4074Y-4.0178
X4.4146Y-5.0154
X4.422Y-3.753
X4.4296Y-2.4114
X4.4303Y-4.2441
X4.4458Y-4.0172
X4.4473Y-3.8443
X4.448Y-5.1677
X4.4596Y-3.8925
X4.4886Y-3.7471
X4.5214Y-4.5865
X4.5303Y-4.3764
X4.5315Y-4.4311
X4.5456Y-2.4572
X4.5488Y-4.5189
X4.5501Y-4.0231
X4.5566Y-3.7947
X4.5628Y-3.1474
X4.5747Y-2.7028
X4.5838Y-4.5597
X4.6028Y-5.0783
X4.6031Y-2.8368
X4.6122Y-4.491
X4.6131Y-3.7966
X4.6131Y-4.0226
X4.63Y-4.8781
X4.6362Y-2.8642
X4.7366Y-3.937
X4.772Y-2.9349
X4.7735Y-3.1535
X4.781Y-2.7574
X4.7977Y-5.1516
X4.8071Y-2.7915
X4.8076Y-2.6997
X4.8708Y-3.8725
X4.8826Y-3.1528
X4.888Y-3.6993
X4.8881Y-3.5804
X4.8995Y-2.4233
X4.9146Y-2.1693
X4.9722Y-4.1015
X5.0302Y-3.9575
X5.0417Y-2.4232
X5.0441Y-2.187
X5.1028Y-2.1846
X5.1551Y-3.0217
X5.1882Y-2.4453
X5.2085Y-4.2812
X5.223Y-2.7071
T3
X3.0888Y-5.6626
X3.0928Y-2.01
X3.1147Y-5.6
X3.1147Y-5.7253
X3.1188Y-1.9474
X3.1188Y-2.0726
X3.1774Y-5.5741
X3.1774Y-5.7512
X3.1814Y-1.9214
X3.1814Y-2.0986
X3.24Y-5.6
X3.24Y-5.7253
X3.2441Y-1.9474
X3.2441Y-2.0726
X3.2659Y-5.6626
X3.27Y-2.01
X5.0388Y-2.0126
X5.0414Y-5.6586
X5.0647Y-1.95
X5.0647Y-2.0753
X5.0674Y-5.5959
X5.0674Y-5.7212
X5.1274Y-1.9241
X5.1274Y-2.1012
X5.13Y-5.57
X5.13Y-5.7472
X5.19Y-1.95
X5.19Y-2.0753
X5.1926Y-5.5959
X5.1926Y-5.7212
X5.2159Y-2.0126
X5.2186Y-5.6586
T4
X3.9671Y-5.7437
X4.5111Y-3.4803
X4.79Y-3.58
X4.79Y-3.72
X4.9889Y-2.8745
X4.9889Y-2.928
X4.9889Y-2.9859
X5.0909Y-3.3063
X5.1673Y-3.93
X5.2146Y-3.3185
T6
X4.1685Y-3.4843
X4.1685Y-3.5646
X4.1693Y-3.6476
X4.1705Y-3.7272
X4.2461Y-3.485
X4.2469Y-3.5646
X4.2484Y-3.6484
X4.2484Y-3.726
X4.3041Y-2.4945
T7
X3.2677Y-3.0134
X3.3677Y-3.0134
X3.39Y-1.97
X3.39Y-2.07
X3.39Y-2.17
X3.39Y-2.27
X4.3051Y-5.6528
X4.4051Y-5.6528
X4.5051Y-5.6528
X4.6051Y-5.6528
X4.7051Y-5.6528
T8
X3.5284Y-5.6544
X3.6284Y-5.6544
X3.7284Y-5.6544
X3.8284Y-5.6544
T9
X3.1774Y-5.6626
X3.1814Y-2.01
X5.1274Y-2.0126
X5.13Y-5.6586
T5
G00X5.0194Y-3.4699
M15
G01X4.9761Y-3.4699
M16
G05
G00X5.0194Y-3.8101
M15
G01X4.9761Y-3.8101
M16
G05
G00X5.1781Y-3.4699
M15
G01X5.1466Y-3.4699
M16
G05
G00X5.1781Y-3.8101
M15
G01X5.1466Y-3.8101
M16
G05
T7
G00X3.245Y-2.7002
M15
G01X3.245Y-2.7789
M16
G05
G00X3.3237Y-2.5545
M15
G01X3.4025Y-2.5545
M16
G05
G00X3.4812Y-2.6903
M15
G01X3.4812Y-2.7887
M16
G05
T0
M30
