%TF.GenerationSoftware,KiCad,Pcbnew,(6.0.0-0)*%
%TF.CreationDate,2022-06-10T19:58:53-07:00*%
%TF.ProjectId,bitaxe,62697461-7865-42e6-9b69-6361645f7063,rev?*%
%TF.SameCoordinates,Original*%
%TF.FileFunction,Legend,Bot*%
%TF.FilePolarity,Positive*%
%FSLAX46Y46*%
G04 Gerber Fmt 4.6, Leading zero omitted, Abs format (unit mm)*
G04 Created by KiCad (PCBNEW (6.0.0-0)) date 2022-06-10 19:58:53*
%MOMM*%
%LPD*%
G01*
G04 APERTURE LIST*
G04 Aperture macros list*
%AMRoundRect*
0 Rectangle with rounded corners*
0 $1 Rounding radius*
0 $2 $3 $4 $5 $6 $7 $8 $9 X,Y pos of 4 corners*
0 Add a 4 corners polygon primitive as box body*
4,1,4,$2,$3,$4,$5,$6,$7,$8,$9,$2,$3,0*
0 Add four circle primitives for the rounded corners*
1,1,$1+$1,$2,$3*
1,1,$1+$1,$4,$5*
1,1,$1+$1,$6,$7*
1,1,$1+$1,$8,$9*
0 Add four rect primitives between the rounded corners*
20,1,$1+$1,$2,$3,$4,$5,0*
20,1,$1+$1,$4,$5,$6,$7,0*
20,1,$1+$1,$6,$7,$8,$9,0*
20,1,$1+$1,$8,$9,$2,$3,0*%
G04 Aperture macros list end*
%ADD10C,0.150000*%
%ADD11C,0.120000*%
%ADD12C,0.250000*%
%ADD13O,2.190000X1.740000*%
%ADD14RoundRect,0.250000X-0.845000X0.620000X-0.845000X-0.620000X0.845000X-0.620000X0.845000X0.620000X0*%
%ADD15C,2.520000*%
%ADD16C,3.500000*%
%ADD17O,1.700000X1.700000*%
%ADD18R,1.700000X1.700000*%
%ADD19C,1.500000*%
%ADD20RoundRect,0.236600X0.295000X0.000000X-0.295000X0.000000X-0.295000X0.000000X0.295000X0.000000X0*%
%ADD21RoundRect,0.101600X3.150000X0.925000X-3.150000X0.925000X-3.150000X-0.925000X3.150000X-0.925000X0*%
%ADD22RoundRect,0.101600X3.150000X2.775000X-3.150000X2.775000X-3.150000X-2.775000X3.150000X-2.775000X0*%
G04 APERTURE END LIST*
D10*
X69050000Y-56640000D02*
X109030000Y-56640000D01*
X109030000Y-56640000D02*
X109030000Y-96630000D01*
X109030000Y-96630000D02*
X69050000Y-96630000D01*
X69050000Y-96630000D02*
X69050000Y-56640000D01*
X92972380Y-47161427D02*
X93972380Y-47494761D01*
X92972380Y-47828094D01*
X93972380Y-48161427D02*
X92972380Y-48161427D01*
X93972380Y-48637618D02*
X92972380Y-48637618D01*
X93972380Y-49209046D01*
X92972380Y-49209046D01*
X83059880Y-100759046D02*
X82583690Y-100425713D01*
X83059880Y-100187618D02*
X82059880Y-100187618D01*
X82059880Y-100568570D01*
X82107500Y-100663808D01*
X82155119Y-100711427D01*
X82250357Y-100759046D01*
X82393214Y-100759046D01*
X82488452Y-100711427D01*
X82536071Y-100663808D01*
X82583690Y-100568570D01*
X82583690Y-100187618D01*
X83012261Y-101139999D02*
X83059880Y-101282856D01*
X83059880Y-101520951D01*
X83012261Y-101616189D01*
X82964642Y-101663808D01*
X82869404Y-101711427D01*
X82774166Y-101711427D01*
X82678928Y-101663808D01*
X82631309Y-101616189D01*
X82583690Y-101520951D01*
X82536071Y-101330475D01*
X82488452Y-101235237D01*
X82440833Y-101187618D01*
X82345595Y-101139999D01*
X82250357Y-101139999D01*
X82155119Y-101187618D01*
X82107500Y-101235237D01*
X82059880Y-101330475D01*
X82059880Y-101568570D01*
X82107500Y-101711427D01*
X82059880Y-101997142D02*
X82059880Y-102568570D01*
X83059880Y-102282856D02*
X82059880Y-102282856D01*
X113281904Y-80080000D02*
X113377142Y-80032380D01*
X113520000Y-80032380D01*
X113662857Y-80080000D01*
X113758095Y-80175238D01*
X113805714Y-80270476D01*
X113853333Y-80460952D01*
X113853333Y-80603809D01*
X113805714Y-80794285D01*
X113758095Y-80889523D01*
X113662857Y-80984761D01*
X113520000Y-81032380D01*
X113424761Y-81032380D01*
X113281904Y-80984761D01*
X113234285Y-80937142D01*
X113234285Y-80603809D01*
X113424761Y-80603809D01*
X112805714Y-81032380D02*
X112805714Y-80032380D01*
X112234285Y-81032380D01*
X112234285Y-80032380D01*
X111758095Y-81032380D02*
X111758095Y-80032380D01*
X111520000Y-80032380D01*
X111377142Y-80080000D01*
X111281904Y-80175238D01*
X111234285Y-80270476D01*
X111186666Y-80460952D01*
X111186666Y-80603809D01*
X111234285Y-80794285D01*
X111281904Y-80889523D01*
X111377142Y-80984761D01*
X111520000Y-81032380D01*
X111758095Y-81032380D01*
X75462380Y-100663809D02*
X75462380Y-100092380D01*
X75462380Y-100378095D02*
X74462380Y-100378095D01*
X74605238Y-100282857D01*
X74700476Y-100187618D01*
X74748095Y-100092380D01*
X74462380Y-100949523D02*
X75462380Y-101282857D01*
X74462380Y-101616190D01*
X74890952Y-102092380D02*
X74843333Y-101997142D01*
X74795714Y-101949523D01*
X74700476Y-101901904D01*
X74652857Y-101901904D01*
X74557619Y-101949523D01*
X74510000Y-101997142D01*
X74462380Y-102092380D01*
X74462380Y-102282857D01*
X74510000Y-102378095D01*
X74557619Y-102425714D01*
X74652857Y-102473333D01*
X74700476Y-102473333D01*
X74795714Y-102425714D01*
X74843333Y-102378095D01*
X74890952Y-102282857D01*
X74890952Y-102092380D01*
X74938571Y-101997142D01*
X74986190Y-101949523D01*
X75081428Y-101901904D01*
X75271904Y-101901904D01*
X75367142Y-101949523D01*
X75414761Y-101997142D01*
X75462380Y-102092380D01*
X75462380Y-102282857D01*
X75414761Y-102378095D01*
X75367142Y-102425714D01*
X75271904Y-102473333D01*
X75081428Y-102473333D01*
X74986190Y-102425714D01*
X74938571Y-102378095D01*
X74890952Y-102282857D01*
X64609523Y-86808571D02*
X64942857Y-86808571D01*
X64942857Y-87332380D02*
X64942857Y-86332380D01*
X64466666Y-86332380D01*
X64133333Y-87046666D02*
X63657142Y-87046666D01*
X64228571Y-87332380D02*
X63895238Y-86332380D01*
X63561904Y-87332380D01*
X63228571Y-87332380D02*
X63228571Y-86332380D01*
X62657142Y-87332380D01*
X62657142Y-86332380D01*
X77994880Y-101044762D02*
X77518690Y-100711428D01*
X77994880Y-100473333D02*
X76994880Y-100473333D01*
X76994880Y-100854285D01*
X77042500Y-100949524D01*
X77090119Y-100997143D01*
X77185357Y-101044762D01*
X77328214Y-101044762D01*
X77423452Y-100997143D01*
X77471071Y-100949524D01*
X77518690Y-100854285D01*
X77518690Y-100473333D01*
X76994880Y-101378095D02*
X77994880Y-102044762D01*
X76994880Y-102044762D02*
X77994880Y-101378095D01*
X77994880Y-102425714D02*
X76994880Y-102425714D01*
X84640000Y-100378095D02*
X84592380Y-100282857D01*
X84592380Y-100140000D01*
X84640000Y-99997142D01*
X84735238Y-99901904D01*
X84830476Y-99854285D01*
X85020952Y-99806666D01*
X85163809Y-99806666D01*
X85354285Y-99854285D01*
X85449523Y-99901904D01*
X85544761Y-99997142D01*
X85592380Y-100140000D01*
X85592380Y-100235238D01*
X85544761Y-100378095D01*
X85497142Y-100425714D01*
X85163809Y-100425714D01*
X85163809Y-100235238D01*
X85592380Y-100854285D02*
X84592380Y-100854285D01*
X85592380Y-101425714D01*
X84592380Y-101425714D01*
X85592380Y-101901904D02*
X84592380Y-101901904D01*
X84592380Y-102140000D01*
X84640000Y-102282857D01*
X84735238Y-102378095D01*
X84830476Y-102425714D01*
X85020952Y-102473333D01*
X85163809Y-102473333D01*
X85354285Y-102425714D01*
X85449523Y-102378095D01*
X85544761Y-102282857D01*
X85592380Y-102140000D01*
X85592380Y-101901904D01*
X79527380Y-99997142D02*
X79527380Y-100568571D01*
X80527380Y-100282857D02*
X79527380Y-100282857D01*
X79527380Y-100806666D02*
X80527380Y-101473333D01*
X79527380Y-101473333D02*
X80527380Y-100806666D01*
X79527380Y-102044761D02*
X79527380Y-102235237D01*
X79575000Y-102330476D01*
X79670238Y-102425714D01*
X79860714Y-102473333D01*
X80194047Y-102473333D01*
X80384523Y-102425714D01*
X80479761Y-102330476D01*
X80527380Y-102235237D01*
X80527380Y-102044761D01*
X80479761Y-101949523D01*
X80384523Y-101854285D01*
X80194047Y-101806666D01*
X79860714Y-101806666D01*
X79670238Y-101854285D01*
X79575000Y-101949523D01*
X79527380Y-102044761D01*
X77750000Y-47828095D02*
X77702380Y-47732857D01*
X77702380Y-47590000D01*
X77750000Y-47447142D01*
X77845238Y-47351904D01*
X77940476Y-47304285D01*
X78130952Y-47256666D01*
X78273809Y-47256666D01*
X78464285Y-47304285D01*
X78559523Y-47351904D01*
X78654761Y-47447142D01*
X78702380Y-47590000D01*
X78702380Y-47685238D01*
X78654761Y-47828095D01*
X78607142Y-47875714D01*
X78273809Y-47875714D01*
X78273809Y-47685238D01*
X78702380Y-48304285D02*
X77702380Y-48304285D01*
X78702380Y-48875714D01*
X77702380Y-48875714D01*
X78702380Y-49351904D02*
X77702380Y-49351904D01*
X77702380Y-49590000D01*
X77750000Y-49732857D01*
X77845238Y-49828095D01*
X77940476Y-49875714D01*
X78130952Y-49923333D01*
X78273809Y-49923333D01*
X78464285Y-49875714D01*
X78559523Y-49828095D01*
X78654761Y-49732857D01*
X78702380Y-49590000D01*
X78702380Y-49351904D01*
X113805714Y-78141428D02*
X113043809Y-78141428D01*
X113424761Y-78522380D02*
X113424761Y-77760476D01*
X112091428Y-77522380D02*
X112567619Y-77522380D01*
X112615238Y-77998571D01*
X112567619Y-77950952D01*
X112472380Y-77903333D01*
X112234285Y-77903333D01*
X112139047Y-77950952D01*
X112091428Y-77998571D01*
X112043809Y-78093809D01*
X112043809Y-78331904D01*
X112091428Y-78427142D01*
X112139047Y-78474761D01*
X112234285Y-78522380D01*
X112472380Y-78522380D01*
X112567619Y-78474761D01*
X112615238Y-78427142D01*
X111758095Y-77522380D02*
X111424761Y-78522380D01*
X111091428Y-77522380D01*
D11*
%TO.C,J5*%
X60920000Y-95480000D02*
X60320000Y-95480000D01*
X60920000Y-93880000D02*
X60920000Y-95480000D01*
X60320000Y-93880000D02*
X60920000Y-93880000D01*
X60920000Y-92940000D02*
X60320000Y-92940000D01*
X60920000Y-91340000D02*
X60920000Y-92940000D01*
X60320000Y-91340000D02*
X60920000Y-91340000D01*
X60920000Y-90400000D02*
X60320000Y-90400000D01*
X60920000Y-88800000D02*
X60920000Y-90400000D01*
X60320000Y-88800000D02*
X60920000Y-88800000D01*
X66340000Y-94430000D02*
X65340000Y-94430000D01*
X66340000Y-89850000D02*
X65340000Y-89850000D01*
X64810000Y-94430000D02*
X65340000Y-94680000D01*
X64810000Y-89850000D02*
X64810000Y-94430000D01*
X65340000Y-89600000D02*
X64810000Y-89850000D01*
X65340000Y-94680000D02*
X66340000Y-94680000D01*
X65340000Y-89600000D02*
X65340000Y-94680000D01*
X66340000Y-89600000D02*
X65340000Y-89600000D01*
X61350000Y-87930000D02*
X65350000Y-87930000D01*
X60320000Y-96060000D02*
X60320000Y-88220000D01*
X66340000Y-96060000D02*
X60320000Y-96060000D01*
X66340000Y-88220000D02*
X66340000Y-96060000D01*
X60320000Y-88220000D02*
X66340000Y-88220000D01*
%TO.C,J2*%
X79130000Y-47180000D02*
X79130000Y-55180000D01*
X85630000Y-55180000D02*
X85630000Y-47180000D01*
X79130000Y-55180000D02*
X85630000Y-55180000D01*
X85630000Y-47180000D02*
X79130000Y-47180000D01*
%TO.C,J1*%
X92540000Y-47180000D02*
X86040000Y-47180000D01*
X86040000Y-55180000D02*
X92540000Y-55180000D01*
X92540000Y-55180000D02*
X92540000Y-47180000D01*
X86040000Y-47180000D02*
X86040000Y-55180000D01*
%TO.C,J3*%
X76230000Y-103530000D02*
X76230000Y-106190000D01*
X76230000Y-106190000D02*
X86450000Y-106190000D01*
X73630000Y-103530000D02*
X73630000Y-104860000D01*
X86450000Y-103530000D02*
X86450000Y-106190000D01*
X76230000Y-103530000D02*
X86450000Y-103530000D01*
X74960000Y-103530000D02*
X73630000Y-103530000D01*
%TO.C,J4*%
X114560000Y-82075000D02*
X115890000Y-82075000D01*
X114560000Y-80745000D02*
X114560000Y-82075000D01*
X117220000Y-79475000D02*
X117220000Y-76875000D01*
X114560000Y-76875000D02*
X117220000Y-76875000D01*
X114560000Y-79475000D02*
X114560000Y-76875000D01*
X114560000Y-79475000D02*
X117220000Y-79475000D01*
%TO.C,kibuzzard-6222FC9E*%
G36*
X97920000Y-104716337D02*
G01*
X98012075Y-104786188D01*
X98069225Y-104887787D01*
X98096212Y-105005263D01*
X97499312Y-105005263D01*
X97515187Y-104889375D01*
X97565987Y-104789362D01*
X97654887Y-104717925D01*
X97788237Y-104690937D01*
X97920000Y-104716337D01*
G37*
G36*
X105841625Y-104724275D02*
G01*
X105947987Y-104767138D01*
X105947987Y-105576763D01*
X105854325Y-105589462D01*
X105770187Y-105592637D01*
X105633662Y-105566841D01*
X105528887Y-105489450D01*
X105462212Y-105350147D01*
X105439987Y-105138613D01*
X105457053Y-104953669D01*
X105508250Y-104817937D01*
X105594372Y-104734594D01*
X105716212Y-104706812D01*
X105841625Y-104724275D01*
G37*
G36*
X101055312Y-105254500D02*
G01*
X101155325Y-105281488D01*
X101223587Y-105335463D01*
X101248987Y-105427538D01*
X101172787Y-105572000D01*
X100975937Y-105614862D01*
X100852112Y-105613275D01*
X100747337Y-105605337D01*
X100747337Y-105262438D01*
X100839412Y-105251325D01*
X100937837Y-105246562D01*
X101055312Y-105254500D01*
G37*
G36*
X95391642Y-103029354D02*
G01*
X106999971Y-103029354D01*
X108068358Y-106590646D01*
X96460029Y-106590646D01*
X96021562Y-105129088D01*
X97121487Y-105129088D01*
X97123075Y-105208462D01*
X97127837Y-105275138D01*
X98096212Y-105275138D01*
X98066050Y-105405709D01*
X97975562Y-105505325D01*
X97837450Y-105568428D01*
X97664412Y-105589462D01*
X97440575Y-105564063D01*
X97261187Y-105513263D01*
X97207212Y-105846638D01*
X97423112Y-105905375D01*
X97680287Y-105929188D01*
X97860866Y-105916884D01*
X97959378Y-105894263D01*
X98658187Y-105894263D01*
X99064587Y-105894263D01*
X99150312Y-105741069D01*
X99236037Y-105605337D01*
X99319381Y-105484688D01*
X99397962Y-105376738D01*
X99488450Y-105502150D01*
X99569412Y-105624388D01*
X99646406Y-105752181D01*
X99724987Y-105894263D01*
X100121862Y-105894263D01*
X100101265Y-105859338D01*
X100372687Y-105859338D01*
X100626687Y-105903788D01*
X100805281Y-105922838D01*
X101004512Y-105929188D01*
X101263275Y-105903788D01*
X101398062Y-105846638D01*
X101861762Y-105846638D01*
X102095125Y-105910138D01*
X102338012Y-105929188D01*
X102579312Y-105906963D01*
X102737356Y-105830763D01*
X103465137Y-105830763D01*
X103692150Y-105908550D01*
X103887412Y-105929188D01*
X104027509Y-105918075D01*
X104143000Y-105884738D01*
X104308100Y-105756150D01*
X104395412Y-105551363D01*
X104414462Y-105421981D01*
X104420812Y-105275138D01*
X104420812Y-105148137D01*
X105043112Y-105148137D01*
X105055019Y-105317603D01*
X105090737Y-105470400D01*
X105149475Y-105604147D01*
X105230437Y-105716462D01*
X105332831Y-105806553D01*
X105455862Y-105873625D01*
X105598737Y-105915297D01*
X105760662Y-105929188D01*
X105914650Y-105923631D01*
X106071812Y-105906963D01*
X106217862Y-105881563D01*
X106338512Y-105849813D01*
X106338512Y-103757487D01*
X105947987Y-103690812D01*
X105947987Y-104436937D01*
X105789237Y-104384550D01*
X105636837Y-104370262D01*
X105499519Y-104384153D01*
X105379662Y-104425825D01*
X105193925Y-104584575D01*
X105128441Y-104697684D01*
X105081212Y-104830637D01*
X105052637Y-104981450D01*
X105043112Y-105148137D01*
X104420812Y-105148137D01*
X104420812Y-104725862D01*
X104833562Y-104725862D01*
X104833562Y-104402013D01*
X104030287Y-104402013D01*
X104030287Y-105325938D01*
X103981075Y-105524375D01*
X103817562Y-105589462D01*
X103687387Y-105575175D01*
X103515937Y-105516437D01*
X103465137Y-105830763D01*
X102737356Y-105830763D01*
X102757112Y-105821238D01*
X102868237Y-105641850D01*
X102896812Y-105508103D01*
X102906337Y-105338638D01*
X102906337Y-104725862D01*
X103246062Y-104725862D01*
X103246062Y-104402013D01*
X102906337Y-104402013D01*
X102906337Y-104027362D01*
X102574391Y-103973387D01*
X104046162Y-103973387D01*
X104119187Y-104154362D01*
X104293812Y-104221037D01*
X104466850Y-104154362D01*
X104538287Y-103973387D01*
X104466850Y-103789237D01*
X104293812Y-103722562D01*
X104119187Y-103789237D01*
X104046162Y-103973387D01*
X102574391Y-103973387D01*
X102515812Y-103963862D01*
X102515812Y-104402013D01*
X101890337Y-104402013D01*
X101890337Y-104725862D01*
X102515812Y-104725862D01*
X102515812Y-105329113D01*
X102499937Y-105462463D01*
X102455487Y-105541837D01*
X102385637Y-105579937D01*
X102293562Y-105589462D01*
X102193550Y-105586288D01*
X102104650Y-105575175D01*
X102015750Y-105551363D01*
X101915737Y-105510088D01*
X101861762Y-105846638D01*
X101398062Y-105846638D01*
X101461712Y-105819650D01*
X101588712Y-105667250D01*
X101633162Y-105437063D01*
X101582362Y-105217987D01*
X101445837Y-105075113D01*
X101248987Y-104997325D01*
X101017212Y-104973512D01*
X100873544Y-104979863D01*
X100747337Y-104998912D01*
X100747337Y-104951287D01*
X100817187Y-104765550D01*
X100912437Y-104709591D01*
X101058487Y-104690937D01*
X101272800Y-104706812D01*
X101439487Y-104744912D01*
X101493462Y-104430587D01*
X101287087Y-104384550D01*
X101151356Y-104369072D01*
X101010862Y-104363913D01*
X100842191Y-104374628D01*
X100704475Y-104406775D01*
X100509212Y-104527425D01*
X100404437Y-104717925D01*
X100372687Y-104970337D01*
X100372687Y-105859338D01*
X100101265Y-105859338D01*
X100012325Y-105708525D01*
X99882150Y-105511675D01*
X99739275Y-105313238D01*
X99594812Y-105125913D01*
X100118687Y-104402013D01*
X99709112Y-104402013D01*
X99378912Y-104868738D01*
X99074112Y-104402013D01*
X98677237Y-104402013D01*
X99159837Y-105119562D01*
X99010612Y-105314825D01*
X98870912Y-105522788D01*
X98750262Y-105722813D01*
X98658187Y-105894263D01*
X97959378Y-105894263D01*
X98021600Y-105879975D01*
X98161300Y-105818856D01*
X98278775Y-105733925D01*
X98372834Y-105625578D01*
X98442287Y-105494212D01*
X98485150Y-105339431D01*
X98499437Y-105160837D01*
X98484356Y-104975894D01*
X98439112Y-104814762D01*
X98369262Y-104677841D01*
X98280362Y-104565525D01*
X98174794Y-104477816D01*
X98054937Y-104414712D01*
X97926350Y-104376612D01*
X97794587Y-104363913D01*
X97592093Y-104385608D01*
X97424876Y-104450696D01*
X97292937Y-104559175D01*
X97197687Y-104709282D01*
X97140537Y-104899253D01*
X97121487Y-105129088D01*
X96021562Y-105129088D01*
X95391642Y-103029354D01*
G37*
%TO.C,IC1*%
X93340000Y-71700000D02*
X93340000Y-63600000D01*
X85240000Y-63600000D02*
X85240000Y-71700000D01*
X93340000Y-63600000D02*
X85240000Y-63600000D01*
X85240000Y-71700000D02*
X93340000Y-71700000D01*
D12*
X93969000Y-63636000D02*
G75*
G03*
X93969000Y-63636000I-125000J0D01*
G01*
%TO.C,kibuzzard-62A3C9C0*%
G36*
X89573784Y-103183654D02*
G01*
X94906408Y-103183654D01*
X95906216Y-106516346D01*
X90573592Y-106516346D01*
X90375154Y-105854887D01*
X91235050Y-105854887D01*
X92517750Y-105854887D01*
X92525687Y-105775512D01*
X92524100Y-105708838D01*
X92509416Y-105556437D01*
X92465362Y-105416737D01*
X92398687Y-105288547D01*
X92316137Y-105170675D01*
X92222475Y-105061931D01*
X92122462Y-104961125D01*
X92022450Y-104866272D01*
X91928787Y-104775387D01*
X91779562Y-104603938D01*
X91720825Y-104435663D01*
X91793850Y-104249925D01*
X91978000Y-104184837D01*
X92171675Y-104229287D01*
X92371700Y-104378512D01*
X92382959Y-104362638D01*
X92746350Y-104362638D01*
X92814811Y-104583598D01*
X92886844Y-104795628D01*
X92962448Y-104998729D01*
X93041625Y-105192900D01*
X93147458Y-105435082D01*
X93249058Y-105655744D01*
X93346425Y-105854887D01*
X93673450Y-105854887D01*
X93769229Y-105655744D01*
X93866067Y-105435082D01*
X93963962Y-105192900D01*
X94036888Y-104998729D01*
X94108028Y-104795628D01*
X94177382Y-104583598D01*
X94244950Y-104362638D01*
X93835375Y-104362638D01*
X93804022Y-104487256D01*
X93767112Y-104619812D01*
X93726234Y-104756734D01*
X93682975Y-104894450D01*
X93638128Y-105030578D01*
X93592488Y-105162738D01*
X93505175Y-105400863D01*
X93413100Y-105162738D01*
X93362697Y-105030578D01*
X93313088Y-104894450D01*
X93264669Y-104756734D01*
X93217838Y-104619812D01*
X93176166Y-104487256D01*
X93143225Y-104362638D01*
X92746350Y-104362638D01*
X92382959Y-104362638D01*
X92565375Y-104105462D01*
X92428453Y-103989575D01*
X92271687Y-103908613D01*
X92105397Y-103860988D01*
X91939900Y-103845113D01*
X91708125Y-103880037D01*
X91511275Y-103984812D01*
X91374750Y-104161025D01*
X91323950Y-104407087D01*
X91362050Y-104602350D01*
X91463650Y-104784912D01*
X91606525Y-104956362D01*
X91768450Y-105115113D01*
X91863700Y-105205600D01*
X91965300Y-105313550D01*
X92046262Y-105426262D01*
X92079600Y-105531038D01*
X91235050Y-105531038D01*
X91235050Y-105854887D01*
X90375154Y-105854887D01*
X89573784Y-103183654D01*
G37*
D11*
%TO.C,IC2*%
X93340000Y-89140000D02*
X93340000Y-81040000D01*
X93340000Y-81040000D02*
X85240000Y-81040000D01*
X85240000Y-89140000D02*
X93340000Y-89140000D01*
X85240000Y-81040000D02*
X85240000Y-89140000D01*
D12*
X93969000Y-81076000D02*
G75*
G03*
X93969000Y-81076000I-125000J0D01*
G01*
%TD*%
%LPC*%
D13*
%TO.C,J5*%
X63350000Y-94680000D03*
X63350000Y-92140000D03*
D14*
X63350000Y-89600000D03*
%TD*%
D15*
%TO.C,J2*%
X82380000Y-48640000D03*
X82380000Y-53720000D03*
%TD*%
%TO.C,J1*%
X89290000Y-53720000D03*
X89290000Y-48640000D03*
%TD*%
D16*
%TO.C,H2*%
X68364000Y-55924000D03*
%TD*%
%TO.C,H1*%
X109730000Y-97290000D03*
%TD*%
D17*
%TO.C,J3*%
X85120000Y-104860000D03*
X82580000Y-104860000D03*
X80040000Y-104860000D03*
X77500000Y-104860000D03*
D18*
X74960000Y-104860000D03*
%TD*%
%TO.C,J4*%
X115890000Y-80745000D03*
D17*
X115890000Y-78205000D03*
%TD*%
D19*
%TO.C,H6*%
X63060000Y-103550000D03*
%TD*%
%TO.C,H5*%
X62820000Y-49620000D03*
%TD*%
%TO.C,H4*%
X115060000Y-103790000D03*
%TD*%
%TO.C,H3*%
X115420000Y-49500000D03*
%TD*%
D20*
%TO.C,IC1*%
X93224600Y-64050000D03*
X93224600Y-64530000D03*
X93224600Y-65010000D03*
X93224600Y-65490000D03*
X93224600Y-65970000D03*
X93224600Y-66450000D03*
X93224600Y-66930000D03*
X93224600Y-67410000D03*
X93224600Y-67890000D03*
X93224600Y-68370000D03*
X93224600Y-68850000D03*
X93224600Y-69330000D03*
X93224600Y-69810000D03*
X93224600Y-70290000D03*
X93224600Y-70770000D03*
X93224600Y-71250000D03*
X85355400Y-71250000D03*
X85355400Y-70770000D03*
X85355400Y-70290000D03*
X85355400Y-69810000D03*
X85355400Y-69330000D03*
X85355400Y-68850000D03*
X85355400Y-68370000D03*
X85355400Y-67890000D03*
X85355400Y-67410000D03*
X85355400Y-66930000D03*
X85355400Y-66450000D03*
X85355400Y-65970000D03*
X85355400Y-65490000D03*
X85355400Y-65010000D03*
X85355400Y-64530000D03*
X85355400Y-64050000D03*
D21*
X89290000Y-64650000D03*
D22*
X89290000Y-68850000D03*
%TD*%
D20*
%TO.C,IC2*%
X93224600Y-81490000D03*
X93224600Y-81970000D03*
X93224600Y-82450000D03*
X93224600Y-82930000D03*
X93224600Y-83410000D03*
X93224600Y-83890000D03*
X93224600Y-84370000D03*
X93224600Y-84850000D03*
X93224600Y-85330000D03*
X93224600Y-85810000D03*
X93224600Y-86290000D03*
X93224600Y-86770000D03*
X93224600Y-87250000D03*
X93224600Y-87730000D03*
X93224600Y-88210000D03*
X93224600Y-88690000D03*
X85355400Y-88690000D03*
X85355400Y-88210000D03*
X85355400Y-87730000D03*
X85355400Y-87250000D03*
X85355400Y-86770000D03*
X85355400Y-86290000D03*
X85355400Y-85810000D03*
X85355400Y-85330000D03*
X85355400Y-84850000D03*
X85355400Y-84370000D03*
X85355400Y-83890000D03*
X85355400Y-83410000D03*
X85355400Y-82930000D03*
X85355400Y-82450000D03*
X85355400Y-81970000D03*
X85355400Y-81490000D03*
D21*
X89290000Y-82090000D03*
D22*
X89290000Y-86290000D03*
%TD*%
M02*
