M48
; DRILL file {KiCad (6.0.8-1)-1} date Thursday, December 08, 2022 at 11:01:06 PM
; FORMAT={-:-/ absolute / inch / decimal}
; #@! TF.CreationDate,2022-12-08T23:01:06-05:00
; #@! TF.GenerationSoftware,Kicad,Pcbnew,(6.0.8-1)-1
; #@! TF.FileFunction,Plated,1,4,PTH
FMAT,2
INCH
; #@! TA.AperFunction,Plated,PTH,ComponentDrill
T1C0.0118
; #@! TA.AperFunction,Plated,PTH,ViaDrill
T2C0.0157
; #@! TA.AperFunction,Plated,PTH,ViaDrill
T3C0.0236
; #@! TA.AperFunction,Plated,PTH,ViaDrill
T4C0.0315
; #@! TA.AperFunction,Plated,PTH,ComponentDrill
T5C0.0394
; #@! TA.AperFunction,Plated,PTH,ComponentDrill
T6C0.0469
; #@! TA.AperFunction,Plated,PTH,ComponentDrill
T7C0.0551
%
G90
G05
T1
X3.8288Y-2.7332
X3.8662Y-2.7105
X3.8662Y-2.7558
X3.9036Y-2.7332
X4.8685Y-3.9
X4.8685Y-3.9394
X4.9079Y-3.9
X4.9079Y-3.9394
T2
X3.0744Y-3.2307
X3.1657Y-5.1165
X3.1657Y-5.4961
X3.1756Y-3.4551
X3.263Y-5.2106
X3.2673Y-3.35
X3.2678Y-5.0834
X3.2953Y-3.4547
X3.3075Y-4.8717
X3.3347Y-4.8974
X3.3358Y-3.3752
X3.3512Y-3.4177
X3.376Y-5.1654
X3.424Y-3.2587
X3.4409Y-5.1209
X3.4783Y-5.1654
X3.5004Y-5.4547
X3.5252Y-4.9594
X3.5327Y-2.965
X3.5575Y-3.9862
X3.5587Y-3.7886
X3.6Y-3.7417
X3.6024Y-3.7909
X3.6504Y-2.4594
X3.6579Y-4.0547
X3.6988Y-2.2646
X3.7047Y-3.8264
X3.7059Y-2.3095
X3.7134Y-2.3547
X3.7165Y-4.4291
X3.7307Y-5.3976
X3.7358Y-2.4594
X3.7445Y-5.0945
X3.7547Y-2.8025
X3.7559Y-2.7335
X3.7779Y-2.9242
X3.7811Y-4.4276
X3.7846Y-4.3669
X3.7866Y-4.5653
X3.7882Y-4.6539
X3.7937Y-4.7508
X3.8126Y-3.8638
X3.8315Y-3.3398
X3.8315Y-3.398
X3.8315Y-3.4598
X3.8315Y-3.5295
X3.8315Y-3.6031
X3.8315Y-3.6811
X3.8323Y-4.665
X3.8386Y-2.1343
X3.8386Y-4.5929
X3.8394Y-2.1732
X3.8402Y-2.2138
X3.8445Y-4.8957
X3.848Y-5.3764
X3.8516Y-4.3717
X3.8559Y-5.4264
X3.8709Y-4.8543
X3.876Y-5.1654
X3.8917Y-4.2472
X3.8921Y-3.3398
X3.8921Y-3.398
X3.8921Y-3.4598
X3.8921Y-3.5295
X3.8921Y-3.6031
X3.8921Y-3.6811
X3.9441Y-4.1748
X3.9555Y-2.6287
X3.9598Y-3.367
X3.9598Y-3.4358
X3.9705Y-2.8792
X4.0044Y-3.2603
X4.026Y-4.8634
X4.0382Y-2.2539
X4.0433Y-2.963
X4.0551Y-2.4739
X4.0551Y-4.1039
X4.0591Y-4.4843
X4.0594Y-4.5508
X4.0594Y-4.6043
X4.0594Y-4.6579
X4.0594Y-4.7114
X4.076Y-5.0193
X4.0994Y-4.4531
X4.1114Y-5.1276
X4.1193Y-4.5508
X4.1193Y-4.6043
X4.1193Y-4.6579
X4.1193Y-4.7114
X4.1346Y-2.2709
X4.1398Y-4.4839
X4.1469Y-5.2094
X4.1637Y-2.2976
X4.1802Y-4.4531
X4.1909Y-4.5496
X4.1909Y-4.6031
X4.1909Y-4.6567
X4.1909Y-4.7102
X4.2024Y-2.3243
X4.2206Y-4.485
X4.2567Y-4.5504
X4.2567Y-4.6039
X4.2567Y-4.6575
X4.2567Y-4.711
X4.261Y-4.4547
X4.2629Y-2.8126
X4.2642Y-2.2122
X4.2646Y-2.172
X4.265Y-4.1051
X4.2654Y-2.1331
X4.3055Y-2.7701
X4.3059Y-2.6421
X4.3425Y-3.3173
X4.3795Y-4.8976
X4.3799Y-4.1736
X4.3803Y-3.5224
X4.385Y-4.8524
X4.3972Y-2.8256
X4.4146Y-5.0154
X4.4287Y-3.7043
X4.4291Y-2.6689
X4.4299Y-2.7776
X4.4299Y-3.4429
X4.4303Y-4.2441
X4.448Y-5.1677
X4.4701Y-4.3717
X4.4839Y-3.5248
X4.4972Y-2.1717
X4.5154Y-4.6941
X4.5165Y-4.789
X4.5197Y-4.6409
X4.5303Y-4.3764
X4.552Y-2.6551
X4.5669Y-2.7004
X4.5744Y-4.5909
X4.5819Y-2.7504
X4.5827Y-3.524
X4.5949Y-2.8004
X4.6028Y-5.0783
X4.6087Y-2.85
X4.6252Y-2.8965
X4.626Y-3.3031
X4.6291Y-3.4453
X4.6299Y-3.6984
X4.635Y-2.7425
X4.635Y-4.85
X4.6843Y-3.5287
X4.6909Y-3.2988
X4.7091Y-3.0945
X4.715Y-5.0303
X4.7157Y-4.3949
X4.7161Y-4.4906
X4.7173Y-4.3004
X4.7185Y-3.8827
X4.7205Y-3.9224
X4.7287Y-4.6181
X4.7398Y-2.6161
X4.7406Y-3.298
X4.7437Y-3.9539
X4.752Y-3.8559
X4.7602Y-2.2504
X4.7685Y-4.7925
X4.7732Y-3.7724
X4.7799Y-3.5315
X4.7815Y-3.7138
X4.7827Y-2.8366
X4.7925Y-4.7531
X4.7984Y-4.7087
X4.8012Y-4.6492
X4.8382Y-3.7768
X4.8534Y-3.0496
X4.8854Y-3.8224
X4.886Y-4.0043
X4.8874Y-2.596
X4.8898Y-3.1406
X4.894Y-4.2534
X4.8949Y-3.5287
X4.8988Y-3.7791
X4.9146Y-2.1693
X4.9339Y-3.3835
X4.9516Y-4.0232
X4.961Y-3.6441
X4.9736Y-2.7512
X4.9988Y-4.0846
X5.0008Y-2.5957
X5.0236Y-3.1295
X5.0441Y-2.187
X5.0854Y-3.7366
X5.0886Y-2.8528
X5.0886Y-3.1185
X5.0909Y-2.7142
X5.1016Y-4.0248
X5.1028Y-2.1846
X5.126Y-3.8067
X5.1398Y-2.5945
X5.1555Y-4.0579
X5.1693Y-2.4606
X5.1874Y-3.0685
T3
X5.0079Y-2.8768
X5.0079Y-2.9303
X5.0079Y-2.9882
X5.0909Y-3.3063
X5.2146Y-3.3185
T4
X4.1685Y-3.4843
X4.1685Y-3.5646
X4.1693Y-3.6476
X4.1705Y-3.7272
X4.2461Y-3.485
X4.2469Y-3.5646
X4.2484Y-3.6484
X4.2484Y-3.726
X4.848Y-2.7504
T5
X3.2677Y-3.0134
X3.3677Y-3.0134
X4.3051Y-5.6528
X4.4051Y-5.6528
X4.4622Y-2.0035
X4.5051Y-5.6528
X4.5622Y-2.0035
X4.6051Y-5.6528
X4.6622Y-2.0035
X4.7051Y-5.6528
X4.7622Y-2.0035
X4.8622Y-2.0035
X4.9622Y-2.0035
X5.0622Y-2.0035
X5.1622Y-2.0035
T6
X3.5425Y-5.6098
X3.6425Y-5.6098
X3.7425Y-5.6098
X3.8425Y-5.6098
T7
X3.1539Y-2.4957
X3.1539Y-2.7878
X3.3539Y-2.4957
X3.3539Y-2.7878
T0
M30
