%TF.GenerationSoftware,KiCad,Pcbnew,7.0.1*%
%TF.CreationDate,2023-05-29T11:52:31-05:00*%
%TF.ProjectId,bitaxeMax,62697461-7865-44d6-9178-2e6b69636164,rev?*%
%TF.SameCoordinates,Original*%
%TF.FileFunction,Copper,L3,Inr*%
%TF.FilePolarity,Positive*%
%FSLAX46Y46*%
G04 Gerber Fmt 4.6, Leading zero omitted, Abs format (unit mm)*
G04 Created by KiCad (PCBNEW 7.0.1) date 2023-05-29 11:52:31*
%MOMM*%
%LPD*%
G01*
G04 APERTURE LIST*
%TA.AperFunction,ComponentPad*%
%ADD10C,0.500000*%
%TD*%
%TA.AperFunction,ComponentPad*%
%ADD11C,0.400000*%
%TD*%
%TA.AperFunction,ComponentPad*%
%ADD12C,1.574800*%
%TD*%
%TA.AperFunction,ComponentPad*%
%ADD13R,1.700000X1.700000*%
%TD*%
%TA.AperFunction,ComponentPad*%
%ADD14O,1.700000X1.700000*%
%TD*%
%TA.AperFunction,ComponentPad*%
%ADD15C,2.520000*%
%TD*%
%TA.AperFunction,ViaPad*%
%ADD16C,0.800000*%
%TD*%
%TA.AperFunction,ViaPad*%
%ADD17C,1.000000*%
%TD*%
%TA.AperFunction,ViaPad*%
%ADD18C,1.200000*%
%TD*%
%TA.AperFunction,Conductor*%
%ADD19C,0.508000*%
%TD*%
%TA.AperFunction,Conductor*%
%ADD20C,1.500000*%
%TD*%
%TA.AperFunction,Conductor*%
%ADD21C,1.000000*%
%TD*%
%TA.AperFunction,Conductor*%
%ADD22C,0.254000*%
%TD*%
G04 APERTURE END LIST*
D10*
%TO.N,GND*%
%TO.C,U2*%
X116324000Y-99576000D03*
X116324000Y-100576000D03*
X115324000Y-100576000D03*
X115324000Y-99576000D03*
%TD*%
D11*
%TO.N,GND*%
%TO.C,U9*%
X98201691Y-68847200D03*
X99151691Y-69422200D03*
X97251691Y-69422200D03*
X98201691Y-69997200D03*
%TD*%
D12*
%TO.N,GND*%
%TO.C,J4*%
X89524400Y-159275851D03*
%TO.N,/5V*%
X92064400Y-159275851D03*
%TO.N,/Fan/FAN_TACH*%
X94604400Y-159275851D03*
%TO.N,/Fan/FAN_PWM*%
X97144400Y-159275851D03*
%TD*%
D13*
%TO.N,GND*%
%TO.C,J9*%
X84859000Y-50049000D03*
D14*
%TO.N,/3V3*%
X84859000Y-52589000D03*
%TO.N,/SCL*%
X84859000Y-55129000D03*
%TO.N,/SDA*%
X84859000Y-57669000D03*
%TD*%
D15*
%TO.N,GND*%
%TO.C,J2*%
X85190000Y-63390000D03*
X80110000Y-63390000D03*
%TD*%
%TO.N,/Power/VIN*%
%TO.C,J1*%
X85190000Y-70810000D03*
X80110000Y-70810000D03*
%TD*%
D13*
%TO.N,/BI*%
%TO.C,J6*%
X101626000Y-49799000D03*
D14*
%TO.N,/RST*%
X104166000Y-49799000D03*
%TO.N,/RX*%
X106706000Y-49799000D03*
%TO.N,/TX*%
X109246000Y-49799000D03*
%TO.N,/SDA*%
X111786000Y-49799000D03*
%TO.N,/SCL*%
X114326000Y-49799000D03*
%TO.N,/3V3*%
X116866000Y-49799000D03*
%TO.N,GND*%
X119406000Y-49799000D03*
%TD*%
D13*
%TO.N,/Power/VIN*%
%TO.C,J7*%
X83000000Y-76540000D03*
D14*
%TO.N,/5V*%
X85540000Y-76540000D03*
%TD*%
D13*
%TO.N,/BM1397/1V8*%
%TO.C,J3*%
X109875000Y-159292000D03*
D14*
%TO.N,/BM1397/CI*%
X112415000Y-159292000D03*
%TO.N,/BM1397/RO*%
X114955000Y-159292000D03*
%TO.N,/BM1397/RST_N*%
X117495000Y-159292000D03*
%TO.N,GND*%
X120035000Y-159292000D03*
%TD*%
D16*
%TO.N,GND*%
X80410000Y-139600000D03*
X78090000Y-82060000D03*
X100850600Y-73131400D03*
X116910000Y-128990000D03*
D17*
X126719000Y-75842000D03*
D16*
X97320000Y-93500000D03*
X131300000Y-62500000D03*
X125984000Y-155956000D03*
X116078000Y-116459000D03*
X97320000Y-87878600D03*
X100580000Y-87270000D03*
X97320000Y-84830000D03*
X98860000Y-84830000D03*
X114230000Y-55160000D03*
X102870000Y-115590000D03*
X98447000Y-141981000D03*
X98860000Y-93500000D03*
X112127000Y-72909100D03*
X106450000Y-116920000D03*
X128120000Y-55550000D03*
X95400600Y-69431400D03*
D17*
X103505000Y-163482000D03*
D16*
X94890000Y-62470000D03*
X97320000Y-86310000D03*
X80660000Y-87760000D03*
X97320000Y-89650000D03*
X126238000Y-95758000D03*
D17*
X126719000Y-74372000D03*
D16*
X102108000Y-120904000D03*
X90360055Y-101249945D03*
X94473900Y-140345000D03*
X98860000Y-91520000D03*
X117730000Y-123190000D03*
X121210000Y-74547000D03*
X98860000Y-86310000D03*
X97320000Y-91520000D03*
X102570000Y-57250000D03*
X94426000Y-130811000D03*
X115749000Y-66446000D03*
X114046000Y-95377000D03*
X112512000Y-61250000D03*
X101854000Y-131318000D03*
X98860000Y-89650000D03*
X104630000Y-116950000D03*
X86970000Y-82770000D03*
D17*
X126719000Y-73012000D03*
D16*
X107917500Y-138920000D03*
X107017500Y-136840000D03*
X108120000Y-115580000D03*
D17*
X132450000Y-84290000D03*
D16*
X109347000Y-120904000D03*
X98860000Y-87878600D03*
X83089194Y-128660806D03*
X96840000Y-98140000D03*
X92910000Y-102990000D03*
X115951000Y-110490000D03*
X100580000Y-85521400D03*
%TO.N,/BM1397/1V8*%
X113030000Y-132080000D03*
X114427000Y-97155000D03*
X112903000Y-139065000D03*
X98320000Y-123300000D03*
X117602000Y-102235000D03*
%TO.N,/BM1397/0V8*%
X90487500Y-142176500D03*
X106117500Y-134090000D03*
X106426000Y-123698000D03*
%TO.N,/VDD*%
X110361000Y-82986000D03*
X115517000Y-67970000D03*
D17*
X103332000Y-103605000D03*
D18*
X107870000Y-90540000D03*
X107910000Y-92670000D03*
D16*
X108330000Y-104270000D03*
D18*
X103378000Y-111506000D03*
D16*
X103000000Y-62838100D03*
D18*
X108458000Y-111379000D03*
X107910000Y-94640000D03*
X105880000Y-90540000D03*
X105880000Y-88500000D03*
X107850000Y-88520000D03*
X105930000Y-94670000D03*
X105900000Y-92650000D03*
D16*
%TO.N,/ESP32/EN*%
X132665000Y-68760000D03*
X129348000Y-80241000D03*
%TO.N,/5V*%
X100470000Y-66770000D03*
X94365000Y-142363000D03*
X93599000Y-132588000D03*
D18*
X109323000Y-63360000D03*
D16*
X101037500Y-137800000D03*
X101473000Y-155735000D03*
%TO.N,/3V3*%
X115457000Y-62413000D03*
X116332000Y-94996000D03*
X129610000Y-55490000D03*
D17*
X129310000Y-83980000D03*
D16*
X112358000Y-81708000D03*
X110536000Y-72864000D03*
X131744000Y-76848000D03*
X98427000Y-143379100D03*
X83700000Y-87750000D03*
X80772000Y-128214000D03*
X94100000Y-97190000D03*
X120396000Y-94996000D03*
X82990000Y-85090000D03*
%TO.N,/TX*%
X115412000Y-84554000D03*
%TO.N,/RX*%
X113836000Y-83855000D03*
%TO.N,/BM1397/RST_N*%
X117549000Y-156036000D03*
X122174000Y-121285000D03*
X114046000Y-103759000D03*
X122174000Y-121285000D03*
X114300000Y-108839000D03*
%TO.N,/BM1397/CI*%
X115316000Y-119253000D03*
X113411000Y-104648000D03*
X112379000Y-155999000D03*
%TO.N,/RST*%
X120676000Y-54726000D03*
X121437000Y-70037900D03*
%TO.N,/BM1397/RO*%
X114919000Y-155999000D03*
X111760000Y-102616000D03*
X111760000Y-105791000D03*
X115316000Y-117856000D03*
%TO.N,/SCL*%
X120743000Y-68680100D03*
X85120000Y-86810000D03*
X83680594Y-126873000D03*
X109646000Y-67269000D03*
X86360000Y-91440000D03*
X89535000Y-97028000D03*
%TO.N,/Power/OUT0*%
X89308734Y-91153086D03*
X89730000Y-75310000D03*
%TO.N,Net-(U7-DP)*%
X94361000Y-120396000D03*
X82169000Y-132588000D03*
%TO.N,Net-(U7-DN)*%
X92456000Y-118110000D03*
X81534000Y-131826000D03*
%TO.N,/BI*%
X117717100Y-76139000D03*
X115546000Y-76073000D03*
%TO.N,Net-(U9-BOOT)*%
X95368800Y-71183600D03*
X95958800Y-74273600D03*
%TO.N,/ESP32/P_TX*%
X128060000Y-61549000D03*
%TO.N,/ESP32/P_RX*%
X124447000Y-61551000D03*
%TO.N,/ESP32/IO0*%
X124830000Y-55100000D03*
X122113000Y-68573000D03*
%TO.N,/ESP32/XIN32*%
X124019000Y-80080000D03*
%TO.N,/BM1397/CLKI*%
X117264000Y-79858000D03*
%TO.N,/ESP32/XOUT32*%
X121248000Y-80100000D03*
%TO.N,/Power/PGOOD*%
X108278900Y-71440000D03*
%TO.N,/ESP32/LEDX_B*%
X93950000Y-57520000D03*
%TO.N,/ESP32/FAN_ALERT*%
X111108000Y-81876000D03*
X108585000Y-132588000D03*
X110497000Y-73924000D03*
%TO.N,/ESP32/LEDZ_B*%
X116044000Y-70126000D03*
%TO.N,/ESP32/LEDX_G*%
X94129945Y-58660055D03*
%TO.N,/ESP32/LEDZ_G*%
X117097000Y-70138000D03*
%TO.N,/BM1397/BM_BI*%
X115062000Y-107950000D03*
X115062000Y-103759000D03*
%TO.N,/SDA*%
X108222000Y-68481000D03*
X117403141Y-73987441D03*
X84730000Y-85730000D03*
X88401100Y-91440000D03*
X82804000Y-139954000D03*
X90805000Y-96139000D03*
X90357445Y-62412445D03*
%TO.N,/ESP32/LEDX_R*%
X94319890Y-59810110D03*
%TO.N,/ESP32/LEDZ_R*%
X118065584Y-70146474D03*
%TO.N,/ESP32/MTCK*%
X125236000Y-83472000D03*
X127256267Y-68475562D03*
%TO.N,/ESP32/MTDO*%
X124253000Y-83852000D03*
X127290717Y-67524283D03*
%TO.N,/ESP32/MTDI*%
X127270301Y-66543756D03*
X124253000Y-85168000D03*
%TO.N,/ESP32/MTMS*%
X127287000Y-65592000D03*
X131133000Y-84822000D03*
%TO.N,Net-(JP4-C)*%
X112273000Y-80390000D03*
%TO.N,Net-(Q2-G)*%
X101710600Y-82811400D03*
X102700000Y-75260000D03*
%TO.N,Net-(U4-BA)*%
X97500000Y-54210000D03*
%TO.N,Net-(U13-BA)*%
X108340000Y-54180000D03*
%TO.N,Net-(U3-A)*%
X124587000Y-97917000D03*
X117094000Y-120523000D03*
%TO.N,Net-(U4-GA)*%
X97520000Y-55200000D03*
%TO.N,Net-(U13-GA)*%
X108320000Y-55170000D03*
%TO.N,Net-(U4-RA)*%
X97540000Y-56230000D03*
%TO.N,Net-(U13-RA)*%
X108310000Y-56190000D03*
%TD*%
D19*
%TO.N,/5V*%
X101440000Y-155702000D02*
X92161000Y-155702000D01*
X101473000Y-155735000D02*
X101440000Y-155702000D01*
D20*
X85540000Y-79838000D02*
X85540000Y-76540000D01*
X79035000Y-133460000D02*
X79035000Y-86343000D01*
X79035000Y-86343000D02*
X85540000Y-79838000D01*
X84836000Y-150365725D02*
X84836000Y-134922000D01*
X84836000Y-134922000D02*
X80505000Y-134922000D01*
X80501000Y-134926000D02*
X79035000Y-133460000D01*
X92064400Y-157594125D02*
X84836000Y-150365725D01*
X80505000Y-134922000D02*
X80501000Y-134926000D01*
X92064400Y-159275851D02*
X92064400Y-157594125D01*
X92161000Y-159179251D02*
X92064400Y-159275851D01*
X92161000Y-142367000D02*
X92161000Y-159179251D01*
D19*
X94361000Y-142367000D02*
X92161000Y-142367000D01*
D20*
X85540000Y-76540000D02*
X88470000Y-73610000D01*
D21*
X100490000Y-66750000D02*
X100490000Y-64140000D01*
D22*
X94365000Y-142363000D02*
X94361000Y-142367000D01*
D19*
X93055000Y-137800000D02*
X92161000Y-136906000D01*
D21*
X100470000Y-66770000D02*
X100490000Y-66750000D01*
D20*
X100490000Y-64140000D02*
X108543000Y-64140000D01*
X93599000Y-132588000D02*
X92161000Y-134026000D01*
D19*
X101037500Y-137800000D02*
X93055000Y-137800000D01*
D20*
X88470000Y-73610000D02*
X88470000Y-68240000D01*
X92161000Y-134026000D02*
X92161000Y-136906000D01*
D22*
X100470000Y-66770000D02*
X100270000Y-66970000D01*
D20*
X88470000Y-68240000D02*
X92570000Y-64140000D01*
X92161000Y-136906000D02*
X92161000Y-142367000D01*
X108543000Y-64140000D02*
X109323000Y-63360000D01*
X92570000Y-64140000D02*
X100490000Y-64140000D01*
D22*
%TO.N,/3V3*%
X116866000Y-49799000D02*
X118133000Y-51066000D01*
X116866000Y-49799000D02*
X115549000Y-51116000D01*
D20*
X115673000Y-52589000D02*
X116409000Y-52589000D01*
X84859000Y-52589000D02*
X115673000Y-52589000D01*
X116409000Y-52589000D02*
X116652000Y-52346000D01*
D22*
X118133000Y-51291000D02*
X117078000Y-52346000D01*
X118133000Y-51066000D02*
X118133000Y-51291000D01*
X117078000Y-52346000D02*
X116652000Y-52346000D01*
X115549000Y-51116000D02*
X115549000Y-51167000D01*
%TD*%
%TA.AperFunction,Conductor*%
%TO.N,/3V3*%
G36*
X117120000Y-49671000D02*
G01*
X117120000Y-51133391D01*
X117200514Y-51119955D01*
X117413368Y-51046883D01*
X117611302Y-50939766D01*
X117788903Y-50801533D01*
X117941323Y-50635960D01*
X118030217Y-50499899D01*
X118075730Y-50458000D01*
X118135700Y-50442814D01*
X118195669Y-50458000D01*
X118241183Y-50499898D01*
X118330278Y-50636268D01*
X118482762Y-50801908D01*
X118660421Y-50940187D01*
X118660424Y-50940189D01*
X118858426Y-51047342D01*
X119071365Y-51120444D01*
X119293431Y-51157500D01*
X119518566Y-51157500D01*
X119518569Y-51157500D01*
X119740635Y-51120444D01*
X119953574Y-51047342D01*
X120151576Y-50940189D01*
X120329240Y-50801906D01*
X120481722Y-50636268D01*
X120604860Y-50447791D01*
X120695296Y-50241616D01*
X120750564Y-50023368D01*
X120769156Y-49799000D01*
X120768940Y-49796403D01*
X120769687Y-49792580D01*
X120770018Y-49788595D01*
X120770459Y-49788631D01*
X120782088Y-49729106D01*
X120828529Y-49678658D01*
X120894511Y-49660000D01*
X129453295Y-49660000D01*
X129518660Y-49678281D01*
X129565058Y-49727820D01*
X129579025Y-49794241D01*
X129556508Y-49858270D01*
X129508967Y-49926165D01*
X129409096Y-50140336D01*
X129347937Y-50368590D01*
X129327341Y-50604000D01*
X129347937Y-50839409D01*
X129409096Y-51067662D01*
X129508965Y-51281829D01*
X129644507Y-51475404D01*
X129811595Y-51642492D01*
X129811598Y-51642494D01*
X129811599Y-51642495D01*
X130005171Y-51778035D01*
X130219337Y-51877903D01*
X130447592Y-51939063D01*
X130624034Y-51954500D01*
X130741960Y-51954500D01*
X130741966Y-51954500D01*
X130918408Y-51939063D01*
X131146663Y-51877903D01*
X131360829Y-51778035D01*
X131554401Y-51642495D01*
X131721495Y-51475401D01*
X131857035Y-51281830D01*
X131956903Y-51067663D01*
X132018063Y-50839408D01*
X132038659Y-50604000D01*
X132018063Y-50368592D01*
X131956903Y-50140337D01*
X131857035Y-49926171D01*
X131809490Y-49858270D01*
X131786974Y-49794241D01*
X131800941Y-49727820D01*
X131847339Y-49678281D01*
X131912704Y-49660000D01*
X133593500Y-49660000D01*
X133656500Y-49676881D01*
X133702619Y-49723000D01*
X133719500Y-49786000D01*
X133719500Y-68299210D01*
X133702619Y-68362210D01*
X133656500Y-68408329D01*
X133593500Y-68425210D01*
X133530500Y-68408329D01*
X133484381Y-68362210D01*
X133404041Y-68223057D01*
X133276252Y-68081133D01*
X133199002Y-68025007D01*
X133121752Y-67968882D01*
X132947288Y-67891206D01*
X132760487Y-67851500D01*
X132569513Y-67851500D01*
X132444979Y-67877970D01*
X132382711Y-67891206D01*
X132322906Y-67917833D01*
X132213026Y-67966755D01*
X132208246Y-67968883D01*
X132053747Y-68081133D01*
X131925958Y-68223057D01*
X131830472Y-68388443D01*
X131771458Y-68570070D01*
X131761429Y-68665490D01*
X131751496Y-68760000D01*
X131760652Y-68847118D01*
X131771458Y-68949929D01*
X131830472Y-69131556D01*
X131925958Y-69296942D01*
X131965235Y-69340563D01*
X132053747Y-69438866D01*
X132208248Y-69551118D01*
X132382712Y-69628794D01*
X132569513Y-69668500D01*
X132760485Y-69668500D01*
X132760487Y-69668500D01*
X132947288Y-69628794D01*
X133121752Y-69551118D01*
X133276253Y-69438866D01*
X133404040Y-69296944D01*
X133484380Y-69157790D01*
X133530500Y-69111671D01*
X133593500Y-69094790D01*
X133656500Y-69111671D01*
X133702619Y-69157790D01*
X133719500Y-69220790D01*
X133719500Y-163494833D01*
X133719179Y-163503828D01*
X133714532Y-163568757D01*
X133714465Y-163569649D01*
X133709152Y-163637143D01*
X133703281Y-163711724D01*
X133700791Y-163728615D01*
X133681343Y-163818006D01*
X133680741Y-163820636D01*
X133654016Y-163931946D01*
X133649553Y-163946565D01*
X133615729Y-164037244D01*
X133614082Y-164041429D01*
X133572300Y-164142296D01*
X133566479Y-164154462D01*
X133519116Y-164241199D01*
X133515961Y-164246649D01*
X133459953Y-164338044D01*
X133453389Y-164347718D01*
X133393632Y-164427543D01*
X133388575Y-164433864D01*
X133319455Y-164514793D01*
X133312739Y-164522057D01*
X133242063Y-164592733D01*
X133234799Y-164599449D01*
X133153848Y-164668588D01*
X133147526Y-164673645D01*
X133067726Y-164733383D01*
X133058053Y-164739947D01*
X132966629Y-164795973D01*
X132961179Y-164799128D01*
X132874467Y-164846477D01*
X132862300Y-164852298D01*
X132761413Y-164894088D01*
X132757228Y-164895735D01*
X132666579Y-164929547D01*
X132651961Y-164934010D01*
X132540547Y-164960760D01*
X132537916Y-164961362D01*
X132448627Y-164980787D01*
X132431731Y-164983278D01*
X132289546Y-164994472D01*
X132288651Y-164994540D01*
X132226224Y-164999007D01*
X132223825Y-164999179D01*
X132214833Y-164999500D01*
X78695167Y-164999500D01*
X78686174Y-164999179D01*
X78680868Y-164998799D01*
X78621241Y-164994532D01*
X78620349Y-164994465D01*
X78574022Y-164990818D01*
X78478271Y-164983281D01*
X78461383Y-164980791D01*
X78371992Y-164961343D01*
X78369362Y-164960741D01*
X78258052Y-164934016D01*
X78243433Y-164929553D01*
X78152754Y-164895729D01*
X78148569Y-164894082D01*
X78047702Y-164852300D01*
X78035536Y-164846479D01*
X77948799Y-164799116D01*
X77943349Y-164795961D01*
X77851954Y-164739953D01*
X77842280Y-164733389D01*
X77762455Y-164673632D01*
X77756147Y-164668585D01*
X77675194Y-164599445D01*
X77667941Y-164592739D01*
X77597265Y-164522063D01*
X77590549Y-164514799D01*
X77521410Y-164433848D01*
X77516360Y-164427535D01*
X77456614Y-164347725D01*
X77450051Y-164338053D01*
X77394018Y-164246617D01*
X77390870Y-164241179D01*
X77343517Y-164154459D01*
X77337705Y-164142311D01*
X77295895Y-164041377D01*
X77294263Y-164037228D01*
X77260451Y-163946579D01*
X77255992Y-163931975D01*
X77229227Y-163820499D01*
X77228636Y-163817916D01*
X77209211Y-163728627D01*
X77206721Y-163711738D01*
X77195514Y-163569388D01*
X77195457Y-163568628D01*
X77190821Y-163503827D01*
X77190500Y-163494836D01*
X77190500Y-163481999D01*
X102491619Y-163481999D01*
X102511091Y-163679701D01*
X102568758Y-163869802D01*
X102662406Y-164045007D01*
X102788431Y-164198568D01*
X102941992Y-164324593D01*
X102941996Y-164324595D01*
X103117196Y-164418241D01*
X103212247Y-164447074D01*
X103307298Y-164475908D01*
X103505000Y-164495380D01*
X103702701Y-164475908D01*
X103892804Y-164418241D01*
X104068004Y-164324595D01*
X104068005Y-164324593D01*
X104068007Y-164324593D01*
X104221568Y-164198568D01*
X104347593Y-164045007D01*
X104347595Y-164045004D01*
X104441241Y-163869804D01*
X104498908Y-163679701D01*
X104518380Y-163482000D01*
X104498908Y-163284299D01*
X104441241Y-163094196D01*
X104347595Y-162918996D01*
X104347593Y-162918992D01*
X104221568Y-162765431D01*
X104068007Y-162639406D01*
X103892802Y-162545758D01*
X103702701Y-162488091D01*
X103505000Y-162468619D01*
X103307298Y-162488091D01*
X103117197Y-162545758D01*
X102941992Y-162639406D01*
X102788431Y-162765431D01*
X102662406Y-162918992D01*
X102568758Y-163094197D01*
X102511091Y-163284298D01*
X102491619Y-163481999D01*
X77190500Y-163481999D01*
X77190500Y-161544000D01*
X78664341Y-161544000D01*
X78684937Y-161779409D01*
X78746096Y-162007662D01*
X78845965Y-162221829D01*
X78981507Y-162415404D01*
X79148595Y-162582492D01*
X79148598Y-162582494D01*
X79148599Y-162582495D01*
X79342171Y-162718035D01*
X79556337Y-162817903D01*
X79784592Y-162879063D01*
X79961034Y-162894500D01*
X80078960Y-162894500D01*
X80078966Y-162894500D01*
X80255408Y-162879063D01*
X80483663Y-162817903D01*
X80697829Y-162718035D01*
X80891401Y-162582495D01*
X81058495Y-162415401D01*
X81194035Y-162221830D01*
X81293903Y-162007663D01*
X81355063Y-161779408D01*
X81375659Y-161544000D01*
X81355063Y-161308592D01*
X81293903Y-161080337D01*
X81194035Y-160866171D01*
X81058495Y-160672599D01*
X81058494Y-160672598D01*
X81058492Y-160672595D01*
X80891404Y-160505507D01*
X80697829Y-160369965D01*
X80483662Y-160270096D01*
X80255409Y-160208937D01*
X80230201Y-160206731D01*
X80078966Y-160193500D01*
X79961034Y-160193500D01*
X79828702Y-160205077D01*
X79784590Y-160208937D01*
X79556337Y-160270096D01*
X79342170Y-160369965D01*
X79148595Y-160505507D01*
X78981507Y-160672595D01*
X78845965Y-160866169D01*
X78746096Y-161080336D01*
X78684937Y-161308590D01*
X78664341Y-161544000D01*
X77190500Y-161544000D01*
X77190500Y-139600000D01*
X79496496Y-139600000D01*
X79516458Y-139789929D01*
X79575472Y-139971556D01*
X79670958Y-140136942D01*
X79798747Y-140278866D01*
X79953248Y-140391118D01*
X80127712Y-140468794D01*
X80314513Y-140508500D01*
X80505485Y-140508500D01*
X80505487Y-140508500D01*
X80692288Y-140468794D01*
X80866752Y-140391118D01*
X81021253Y-140278866D01*
X81149040Y-140136944D01*
X81244527Y-139971556D01*
X81303542Y-139789928D01*
X81323504Y-139600000D01*
X81303542Y-139410072D01*
X81258464Y-139271336D01*
X81244527Y-139228443D01*
X81149041Y-139063057D01*
X81021252Y-138921133D01*
X80944002Y-138865007D01*
X80866752Y-138808882D01*
X80692288Y-138731206D01*
X80505487Y-138691500D01*
X80314513Y-138691500D01*
X80234535Y-138708500D01*
X80127711Y-138731206D01*
X79953246Y-138808883D01*
X79798747Y-138921133D01*
X79670958Y-139063057D01*
X79575472Y-139228443D01*
X79516458Y-139410070D01*
X79496496Y-139600000D01*
X77190500Y-139600000D01*
X77190500Y-84556889D01*
X77207103Y-84494373D01*
X77252536Y-84448332D01*
X77314822Y-84430900D01*
X78882293Y-84410064D01*
X78939972Y-84423184D01*
X78985308Y-84461181D01*
X79008308Y-84515681D01*
X79003902Y-84574670D01*
X78973062Y-84625148D01*
X78200085Y-85398126D01*
X78189551Y-85407540D01*
X78161783Y-85429684D01*
X78117933Y-85479874D01*
X78112151Y-85486059D01*
X78105133Y-85493077D01*
X78078850Y-85524559D01*
X78077017Y-85526707D01*
X78012733Y-85600286D01*
X78010525Y-85603982D01*
X77999097Y-85620090D01*
X77996327Y-85623407D01*
X77948094Y-85708410D01*
X77946674Y-85710850D01*
X77896546Y-85794752D01*
X77895031Y-85798789D01*
X77886662Y-85816677D01*
X77884532Y-85820431D01*
X77852265Y-85912646D01*
X77851302Y-85915304D01*
X77816949Y-86006838D01*
X77816180Y-86011076D01*
X77811137Y-86030185D01*
X77809711Y-86034258D01*
X77794416Y-86130821D01*
X77793943Y-86133605D01*
X77776500Y-86229731D01*
X77776500Y-86234034D01*
X77774949Y-86253745D01*
X77774274Y-86258003D01*
X77776468Y-86355711D01*
X77776500Y-86358539D01*
X77776500Y-133382244D01*
X77775708Y-133396350D01*
X77771731Y-133431648D01*
X77775112Y-133481789D01*
X77776215Y-133498153D01*
X77776500Y-133506628D01*
X77776500Y-133516524D01*
X77780171Y-133557328D01*
X77780392Y-133560140D01*
X77786969Y-133657665D01*
X77788022Y-133661845D01*
X77791330Y-133681315D01*
X77791717Y-133685619D01*
X77817711Y-133779805D01*
X77818433Y-133782537D01*
X77842323Y-133877343D01*
X77844104Y-133881265D01*
X77850840Y-133899844D01*
X77851985Y-133903992D01*
X77894379Y-133992025D01*
X77895576Y-133994584D01*
X77936004Y-134083587D01*
X77938455Y-134087124D01*
X77948404Y-134104209D01*
X77950275Y-134108093D01*
X77950276Y-134108094D01*
X78007720Y-134187159D01*
X78009356Y-134189465D01*
X78065013Y-134269801D01*
X78068051Y-134272839D01*
X78080895Y-134287876D01*
X78083427Y-134291362D01*
X78154089Y-134358921D01*
X78156110Y-134360898D01*
X79589126Y-135793914D01*
X79593034Y-135798001D01*
X79648494Y-135858677D01*
X79713880Y-135908462D01*
X79718301Y-135911988D01*
X79781401Y-135964667D01*
X79781406Y-135964671D01*
X79798744Y-135974508D01*
X79812872Y-135983834D01*
X79828732Y-135995910D01*
X79856029Y-136009818D01*
X79901969Y-136033227D01*
X79906947Y-136035905D01*
X79978433Y-136076468D01*
X79997255Y-136083054D01*
X80012816Y-136089705D01*
X80030575Y-136098754D01*
X80109308Y-136122395D01*
X80114629Y-136124124D01*
X80192254Y-136151287D01*
X80211942Y-136154404D01*
X80228455Y-136158174D01*
X80247538Y-136163905D01*
X80329222Y-136173108D01*
X80334797Y-136173863D01*
X80416000Y-136186725D01*
X80435919Y-136186277D01*
X80452847Y-136187037D01*
X80472648Y-136189269D01*
X80472648Y-136189268D01*
X80472649Y-136189269D01*
X80479268Y-136188822D01*
X80554678Y-136183737D01*
X80560270Y-136183486D01*
X80642476Y-136181642D01*
X80642477Y-136181641D01*
X80651560Y-136181438D01*
X80660822Y-136180500D01*
X83451500Y-136180500D01*
X83514500Y-136197381D01*
X83560619Y-136243500D01*
X83577500Y-136306500D01*
X83577500Y-139145724D01*
X83558933Y-139211559D01*
X83508703Y-139257991D01*
X83441614Y-139271336D01*
X83377439Y-139247660D01*
X83260753Y-139162883D01*
X83260752Y-139162882D01*
X83086288Y-139085206D01*
X82899487Y-139045500D01*
X82708513Y-139045500D01*
X82583978Y-139071970D01*
X82521711Y-139085206D01*
X82347246Y-139162883D01*
X82192747Y-139275133D01*
X82064958Y-139417057D01*
X81969472Y-139582443D01*
X81910458Y-139764070D01*
X81890496Y-139954000D01*
X81910458Y-140143929D01*
X81969472Y-140325556D01*
X82064958Y-140490942D01*
X82064960Y-140490944D01*
X82192747Y-140632866D01*
X82347248Y-140745118D01*
X82521712Y-140822794D01*
X82708513Y-140862500D01*
X82899485Y-140862500D01*
X82899487Y-140862500D01*
X83086288Y-140822794D01*
X83260752Y-140745118D01*
X83350428Y-140679964D01*
X83377439Y-140660340D01*
X83441614Y-140636664D01*
X83508703Y-140650009D01*
X83558933Y-140696441D01*
X83577500Y-140762276D01*
X83577500Y-150287969D01*
X83576708Y-150302075D01*
X83572731Y-150337370D01*
X83577215Y-150403878D01*
X83577500Y-150412353D01*
X83577500Y-150422249D01*
X83581171Y-150463053D01*
X83581392Y-150465865D01*
X83587969Y-150563390D01*
X83589022Y-150567570D01*
X83592330Y-150587040D01*
X83592717Y-150591344D01*
X83618711Y-150685530D01*
X83619433Y-150688262D01*
X83643323Y-150783068D01*
X83645104Y-150786990D01*
X83651840Y-150805569D01*
X83652985Y-150809717D01*
X83695379Y-150897750D01*
X83696576Y-150900309D01*
X83737004Y-150989312D01*
X83739455Y-150992849D01*
X83749404Y-151009934D01*
X83751275Y-151013818D01*
X83751276Y-151013819D01*
X83808720Y-151092884D01*
X83810356Y-151095190D01*
X83866013Y-151175526D01*
X83869051Y-151178564D01*
X83881895Y-151193601D01*
X83884427Y-151197087D01*
X83955089Y-151264646D01*
X83957110Y-151266623D01*
X90768995Y-158078508D01*
X90796309Y-158119385D01*
X90805900Y-158167603D01*
X90805900Y-158447069D01*
X90790102Y-158508155D01*
X90746670Y-158553923D01*
X90686494Y-158572896D01*
X90624665Y-158560317D01*
X90576687Y-158519340D01*
X90520906Y-158439677D01*
X90360573Y-158279344D01*
X90174825Y-158149282D01*
X89969317Y-158053451D01*
X89750290Y-157994764D01*
X89524400Y-157975001D01*
X89298509Y-157994764D01*
X89079482Y-158053451D01*
X88873974Y-158149282D01*
X88688226Y-158279344D01*
X88527893Y-158439677D01*
X88397831Y-158625425D01*
X88302000Y-158830933D01*
X88243313Y-159049960D01*
X88223550Y-159275851D01*
X88243313Y-159501741D01*
X88302000Y-159720768D01*
X88397831Y-159926276D01*
X88527893Y-160112024D01*
X88688226Y-160272357D01*
X88688229Y-160272359D01*
X88688230Y-160272360D01*
X88873975Y-160402420D01*
X88983652Y-160453563D01*
X89079482Y-160498250D01*
X89124984Y-160510442D01*
X89298510Y-160556938D01*
X89524400Y-160576701D01*
X89750290Y-160556938D01*
X89969317Y-160498250D01*
X90174825Y-160402420D01*
X90360570Y-160272360D01*
X90520909Y-160112021D01*
X90650969Y-159926276D01*
X90680205Y-159863578D01*
X90726700Y-159810562D01*
X90794400Y-159790829D01*
X90862100Y-159810562D01*
X90908595Y-159863579D01*
X90937831Y-159926276D01*
X91067893Y-160112024D01*
X91228226Y-160272357D01*
X91228229Y-160272359D01*
X91228230Y-160272360D01*
X91413975Y-160402420D01*
X91523652Y-160453563D01*
X91619482Y-160498250D01*
X91664984Y-160510442D01*
X91838510Y-160556938D01*
X92064400Y-160576701D01*
X92290290Y-160556938D01*
X92509317Y-160498250D01*
X92714825Y-160402420D01*
X92900570Y-160272360D01*
X93060909Y-160112021D01*
X93190969Y-159926276D01*
X93220205Y-159863577D01*
X93266698Y-159810561D01*
X93334398Y-159790828D01*
X93402098Y-159810560D01*
X93448593Y-159863577D01*
X93477829Y-159926274D01*
X93607893Y-160112024D01*
X93768226Y-160272357D01*
X93953973Y-160402419D01*
X93953974Y-160402419D01*
X93953975Y-160402420D01*
X94019959Y-160433189D01*
X94090857Y-160466249D01*
X94142372Y-160510442D01*
X94163487Y-160574947D01*
X94148075Y-160641047D01*
X94100609Y-160689562D01*
X94073541Y-160705189D01*
X93933231Y-160831526D01*
X93822252Y-160984276D01*
X93779483Y-161080337D01*
X93745455Y-161156764D01*
X93706200Y-161341447D01*
X93706200Y-161530257D01*
X93745455Y-161714940D01*
X93822251Y-161887426D01*
X93909607Y-162007662D01*
X93933231Y-162040177D01*
X94073541Y-162166513D01*
X94237056Y-162260919D01*
X94323482Y-162289000D01*
X94416625Y-162319264D01*
X94557323Y-162334052D01*
X94651474Y-162334052D01*
X94651477Y-162334052D01*
X94792175Y-162319264D01*
X94971743Y-162260919D01*
X95135257Y-162166514D01*
X95275570Y-162040176D01*
X95386549Y-161887426D01*
X95463345Y-161714940D01*
X95499679Y-161543999D01*
X129454341Y-161543999D01*
X129474937Y-161779409D01*
X129536096Y-162007662D01*
X129635965Y-162221829D01*
X129771507Y-162415404D01*
X129938595Y-162582492D01*
X129938598Y-162582494D01*
X129938599Y-162582495D01*
X130132171Y-162718035D01*
X130346337Y-162817903D01*
X130574592Y-162879063D01*
X130751034Y-162894500D01*
X130868960Y-162894500D01*
X130868966Y-162894500D01*
X131045408Y-162879063D01*
X131273663Y-162817903D01*
X131487829Y-162718035D01*
X131681401Y-162582495D01*
X131848495Y-162415401D01*
X131984035Y-162221830D01*
X132083903Y-162007663D01*
X132145063Y-161779408D01*
X132165659Y-161544000D01*
X132145063Y-161308592D01*
X132083903Y-161080337D01*
X131984035Y-160866171D01*
X131848495Y-160672599D01*
X131848494Y-160672598D01*
X131848492Y-160672595D01*
X131681404Y-160505507D01*
X131487829Y-160369965D01*
X131273662Y-160270096D01*
X131045409Y-160208937D01*
X131020201Y-160206731D01*
X130868966Y-160193500D01*
X130751034Y-160193500D01*
X130618702Y-160205077D01*
X130574590Y-160208937D01*
X130346337Y-160270096D01*
X130132170Y-160369965D01*
X129938595Y-160505507D01*
X129771507Y-160672595D01*
X129635965Y-160866169D01*
X129536096Y-161080336D01*
X129474937Y-161308590D01*
X129454341Y-161543999D01*
X95499679Y-161543999D01*
X95502600Y-161530257D01*
X95502600Y-161341447D01*
X95463345Y-161156764D01*
X95386549Y-160984278D01*
X95275570Y-160831528D01*
X95275568Y-160831526D01*
X95135259Y-160705191D01*
X95108191Y-160689563D01*
X95060724Y-160641048D01*
X95045312Y-160574947D01*
X95066427Y-160510442D01*
X95117940Y-160466250D01*
X95254825Y-160402420D01*
X95440570Y-160272360D01*
X95600909Y-160112021D01*
X95730969Y-159926276D01*
X95760205Y-159863578D01*
X95806700Y-159810562D01*
X95874400Y-159790829D01*
X95942100Y-159810562D01*
X95988595Y-159863579D01*
X96017831Y-159926276D01*
X96147893Y-160112024D01*
X96308226Y-160272357D01*
X96308229Y-160272359D01*
X96308230Y-160272360D01*
X96493975Y-160402420D01*
X96603652Y-160453563D01*
X96699482Y-160498250D01*
X96744984Y-160510442D01*
X96918510Y-160556938D01*
X97144400Y-160576701D01*
X97370290Y-160556938D01*
X97589317Y-160498250D01*
X97794825Y-160402420D01*
X97980570Y-160272360D01*
X98062292Y-160190638D01*
X108516500Y-160190638D01*
X108523011Y-160251201D01*
X108530059Y-160270096D01*
X108574111Y-160388205D01*
X108661738Y-160505261D01*
X108778794Y-160592888D01*
X108778795Y-160592888D01*
X108778796Y-160592889D01*
X108915799Y-160643989D01*
X108976362Y-160650500D01*
X110773638Y-160650500D01*
X110834201Y-160643989D01*
X110971204Y-160592889D01*
X111088261Y-160505261D01*
X111175889Y-160388204D01*
X111219999Y-160269941D01*
X111256530Y-160217903D01*
X111313821Y-160190327D01*
X111377282Y-160194237D01*
X111430753Y-160228636D01*
X111471002Y-160272357D01*
X111491762Y-160294908D01*
X111611629Y-160388205D01*
X111669424Y-160433189D01*
X111867426Y-160540342D01*
X112080365Y-160613444D01*
X112302431Y-160650500D01*
X112527566Y-160650500D01*
X112527569Y-160650500D01*
X112749635Y-160613444D01*
X112962574Y-160540342D01*
X113160576Y-160433189D01*
X113338240Y-160294906D01*
X113490722Y-160129268D01*
X113579518Y-159993354D01*
X113625031Y-159951458D01*
X113685000Y-159936272D01*
X113744969Y-159951458D01*
X113790481Y-159993354D01*
X113879278Y-160129268D01*
X114008921Y-160270097D01*
X114031762Y-160294908D01*
X114151629Y-160388205D01*
X114209424Y-160433189D01*
X114407426Y-160540342D01*
X114620365Y-160613444D01*
X114842431Y-160650500D01*
X115067566Y-160650500D01*
X115067569Y-160650500D01*
X115289635Y-160613444D01*
X115502574Y-160540342D01*
X115700576Y-160433189D01*
X115878240Y-160294906D01*
X116030722Y-160129268D01*
X116119518Y-159993354D01*
X116165031Y-159951458D01*
X116225000Y-159936272D01*
X116284969Y-159951458D01*
X116330481Y-159993354D01*
X116419278Y-160129268D01*
X116548921Y-160270097D01*
X116571762Y-160294908D01*
X116691629Y-160388205D01*
X116749424Y-160433189D01*
X116947426Y-160540342D01*
X117160365Y-160613444D01*
X117382431Y-160650500D01*
X117607566Y-160650500D01*
X117607569Y-160650500D01*
X117829635Y-160613444D01*
X118042574Y-160540342D01*
X118240576Y-160433189D01*
X118418240Y-160294906D01*
X118570722Y-160129268D01*
X118659518Y-159993354D01*
X118705031Y-159951458D01*
X118765000Y-159936272D01*
X118824969Y-159951458D01*
X118870481Y-159993354D01*
X118959278Y-160129268D01*
X119088921Y-160270097D01*
X119111762Y-160294908D01*
X119231629Y-160388205D01*
X119289424Y-160433189D01*
X119487426Y-160540342D01*
X119700365Y-160613444D01*
X119922431Y-160650500D01*
X120147566Y-160650500D01*
X120147569Y-160650500D01*
X120369635Y-160613444D01*
X120582574Y-160540342D01*
X120780576Y-160433189D01*
X120958240Y-160294906D01*
X121110722Y-160129268D01*
X121233860Y-159940791D01*
X121324296Y-159734616D01*
X121379564Y-159516368D01*
X121398156Y-159292000D01*
X121379564Y-159067632D01*
X121324296Y-158849384D01*
X121233860Y-158643209D01*
X121110722Y-158454732D01*
X120958240Y-158289094D01*
X120958239Y-158289093D01*
X120958237Y-158289091D01*
X120780578Y-158150812D01*
X120582573Y-158043657D01*
X120429510Y-157991111D01*
X120369635Y-157970556D01*
X120147569Y-157933500D01*
X119922431Y-157933500D01*
X119700365Y-157970556D01*
X119700362Y-157970556D01*
X119700362Y-157970557D01*
X119487426Y-158043657D01*
X119289421Y-158150812D01*
X119111762Y-158289091D01*
X118959278Y-158454731D01*
X118913677Y-158524528D01*
X118870481Y-158590645D01*
X118824969Y-158632542D01*
X118765000Y-158647728D01*
X118705031Y-158632542D01*
X118659518Y-158590645D01*
X118570722Y-158454732D01*
X118418240Y-158289094D01*
X118418239Y-158289093D01*
X118418237Y-158289091D01*
X118240578Y-158150812D01*
X118042573Y-158043657D01*
X117889510Y-157991111D01*
X117829635Y-157970556D01*
X117607569Y-157933500D01*
X117382431Y-157933500D01*
X117160365Y-157970556D01*
X117160362Y-157970556D01*
X117160362Y-157970557D01*
X116947426Y-158043657D01*
X116749421Y-158150812D01*
X116571762Y-158289091D01*
X116419278Y-158454731D01*
X116373677Y-158524528D01*
X116330481Y-158590645D01*
X116284969Y-158632542D01*
X116225000Y-158647728D01*
X116165031Y-158632542D01*
X116119518Y-158590645D01*
X116030722Y-158454732D01*
X115878240Y-158289094D01*
X115878239Y-158289093D01*
X115878237Y-158289091D01*
X115700578Y-158150812D01*
X115502573Y-158043657D01*
X115349510Y-157991111D01*
X115289635Y-157970556D01*
X115067569Y-157933500D01*
X114842431Y-157933500D01*
X114620365Y-157970556D01*
X114620362Y-157970556D01*
X114620362Y-157970557D01*
X114407426Y-158043657D01*
X114209421Y-158150812D01*
X114031762Y-158289091D01*
X113879278Y-158454731D01*
X113833677Y-158524528D01*
X113790481Y-158590645D01*
X113744969Y-158632542D01*
X113685000Y-158647728D01*
X113625031Y-158632542D01*
X113579518Y-158590645D01*
X113490722Y-158454732D01*
X113338240Y-158289094D01*
X113338239Y-158289093D01*
X113338237Y-158289091D01*
X113160578Y-158150812D01*
X112962573Y-158043657D01*
X112809510Y-157991111D01*
X112749635Y-157970556D01*
X112527569Y-157933500D01*
X112302431Y-157933500D01*
X112080365Y-157970556D01*
X112080362Y-157970556D01*
X112080362Y-157970557D01*
X111867426Y-158043657D01*
X111669421Y-158150812D01*
X111491758Y-158289094D01*
X111430754Y-158355362D01*
X111377282Y-158389762D01*
X111313820Y-158393672D01*
X111256530Y-158366096D01*
X111219998Y-158314056D01*
X111210688Y-158289094D01*
X111175889Y-158195796D01*
X111154784Y-158167603D01*
X111088261Y-158078738D01*
X110971205Y-157991111D01*
X110902702Y-157965561D01*
X110834201Y-157940011D01*
X110773638Y-157933500D01*
X108976362Y-157933500D01*
X108915799Y-157940011D01*
X108778794Y-157991111D01*
X108661738Y-158078738D01*
X108574111Y-158195794D01*
X108542949Y-158279344D01*
X108523011Y-158332799D01*
X108516500Y-158393362D01*
X108516500Y-160190638D01*
X98062292Y-160190638D01*
X98140909Y-160112021D01*
X98270969Y-159926276D01*
X98366799Y-159720768D01*
X98425487Y-159501741D01*
X98445250Y-159275851D01*
X98425487Y-159049961D01*
X98366799Y-158830934D01*
X98270969Y-158625426D01*
X98140909Y-158439681D01*
X98140908Y-158439680D01*
X98140906Y-158439677D01*
X97980573Y-158279344D01*
X97794825Y-158149282D01*
X97589317Y-158053451D01*
X97370290Y-157994764D01*
X97144400Y-157975001D01*
X96918509Y-157994764D01*
X96699482Y-158053451D01*
X96493974Y-158149282D01*
X96308226Y-158279344D01*
X96147893Y-158439677D01*
X96017830Y-158625426D01*
X95988593Y-158688124D01*
X95942097Y-158741140D01*
X95874398Y-158760872D01*
X95806698Y-158741139D01*
X95760204Y-158688121D01*
X95730969Y-158625426D01*
X95600906Y-158439677D01*
X95440573Y-158279344D01*
X95254825Y-158149282D01*
X95049317Y-158053451D01*
X94830290Y-157994764D01*
X94604400Y-157975001D01*
X94378509Y-157994764D01*
X94159482Y-158053451D01*
X93953974Y-158149282D01*
X93768226Y-158279344D01*
X93634595Y-158412976D01*
X93584436Y-158443714D01*
X93525789Y-158448330D01*
X93471439Y-158425817D01*
X93433233Y-158381084D01*
X93419500Y-158323881D01*
X93419500Y-156590500D01*
X93436381Y-156527500D01*
X93482500Y-156481381D01*
X93545500Y-156464500D01*
X100890498Y-156464500D01*
X100929434Y-156470667D01*
X100964558Y-156488564D01*
X101016243Y-156526115D01*
X101016245Y-156526116D01*
X101016248Y-156526118D01*
X101190712Y-156603794D01*
X101377513Y-156643500D01*
X101568485Y-156643500D01*
X101568487Y-156643500D01*
X101755288Y-156603794D01*
X101929752Y-156526118D01*
X102084253Y-156413866D01*
X102212040Y-156271944D01*
X102307527Y-156106556D01*
X102342474Y-155999000D01*
X111465496Y-155999000D01*
X111485458Y-156188929D01*
X111544472Y-156370556D01*
X111639958Y-156535942D01*
X111639960Y-156535944D01*
X111767747Y-156677866D01*
X111922248Y-156790118D01*
X112096712Y-156867794D01*
X112283513Y-156907500D01*
X112474485Y-156907500D01*
X112474487Y-156907500D01*
X112661288Y-156867794D01*
X112835752Y-156790118D01*
X112990253Y-156677866D01*
X113118040Y-156535944D01*
X113213527Y-156370556D01*
X113272542Y-156188928D01*
X113292504Y-155999000D01*
X114005496Y-155999000D01*
X114025458Y-156188929D01*
X114084472Y-156370556D01*
X114179958Y-156535942D01*
X114179960Y-156535944D01*
X114307747Y-156677866D01*
X114462248Y-156790118D01*
X114636712Y-156867794D01*
X114823513Y-156907500D01*
X115014485Y-156907500D01*
X115014487Y-156907500D01*
X115201288Y-156867794D01*
X115375752Y-156790118D01*
X115530253Y-156677866D01*
X115658040Y-156535944D01*
X115753527Y-156370556D01*
X115812542Y-156188928D01*
X115828615Y-156035999D01*
X116635496Y-156035999D01*
X116655458Y-156225929D01*
X116714472Y-156407556D01*
X116809958Y-156572942D01*
X116837737Y-156603794D01*
X116937747Y-156714866D01*
X117092248Y-156827118D01*
X117266712Y-156904794D01*
X117453513Y-156944500D01*
X117644485Y-156944500D01*
X117644487Y-156944500D01*
X117831288Y-156904794D01*
X118005752Y-156827118D01*
X118160253Y-156714866D01*
X118288040Y-156572944D01*
X118383527Y-156407556D01*
X118442542Y-156225928D01*
X118462504Y-156036000D01*
X118454096Y-155955999D01*
X125070496Y-155955999D01*
X125090458Y-156145929D01*
X125149472Y-156327556D01*
X125244958Y-156492942D01*
X125283677Y-156535944D01*
X125372747Y-156634866D01*
X125527248Y-156747118D01*
X125701712Y-156824794D01*
X125888513Y-156864500D01*
X126079485Y-156864500D01*
X126079487Y-156864500D01*
X126266288Y-156824794D01*
X126440752Y-156747118D01*
X126595253Y-156634866D01*
X126723040Y-156492944D01*
X126818527Y-156327556D01*
X126877542Y-156145928D01*
X126897504Y-155956000D01*
X126877542Y-155766072D01*
X126832499Y-155627444D01*
X126818527Y-155584443D01*
X126723041Y-155419057D01*
X126595252Y-155277133D01*
X126518002Y-155221007D01*
X126440752Y-155164882D01*
X126266288Y-155087206D01*
X126079487Y-155047500D01*
X125888513Y-155047500D01*
X125763979Y-155073970D01*
X125701711Y-155087206D01*
X125527246Y-155164883D01*
X125372747Y-155277133D01*
X125244958Y-155419057D01*
X125149472Y-155584443D01*
X125090458Y-155766070D01*
X125070496Y-155955999D01*
X118454096Y-155955999D01*
X118442542Y-155846072D01*
X118383527Y-155664444D01*
X118383527Y-155664443D01*
X118288041Y-155499057D01*
X118216008Y-155419056D01*
X118160253Y-155357134D01*
X118005752Y-155244882D01*
X117831288Y-155167206D01*
X117644487Y-155127500D01*
X117453513Y-155127500D01*
X117328978Y-155153970D01*
X117266711Y-155167206D01*
X117092246Y-155244883D01*
X116937747Y-155357133D01*
X116809958Y-155499057D01*
X116714472Y-155664443D01*
X116655458Y-155846070D01*
X116635496Y-156035999D01*
X115828615Y-156035999D01*
X115832504Y-155999000D01*
X115812542Y-155809072D01*
X115753527Y-155627444D01*
X115753527Y-155627443D01*
X115658041Y-155462057D01*
X115530252Y-155320133D01*
X115375753Y-155207883D01*
X115375752Y-155207882D01*
X115201288Y-155130206D01*
X115014487Y-155090500D01*
X114823513Y-155090500D01*
X114698978Y-155116970D01*
X114636711Y-155130206D01*
X114553608Y-155167206D01*
X114484316Y-155198057D01*
X114462246Y-155207883D01*
X114307747Y-155320133D01*
X114179958Y-155462057D01*
X114084472Y-155627443D01*
X114025458Y-155809070D01*
X114005496Y-155999000D01*
X113292504Y-155999000D01*
X113272542Y-155809072D01*
X113213527Y-155627444D01*
X113213527Y-155627443D01*
X113118041Y-155462057D01*
X112990252Y-155320133D01*
X112835753Y-155207883D01*
X112835752Y-155207882D01*
X112661288Y-155130206D01*
X112474487Y-155090500D01*
X112283513Y-155090500D01*
X112158978Y-155116970D01*
X112096711Y-155130206D01*
X112013608Y-155167206D01*
X111944316Y-155198057D01*
X111922246Y-155207883D01*
X111767747Y-155320133D01*
X111639958Y-155462057D01*
X111544472Y-155627443D01*
X111485458Y-155809070D01*
X111465496Y-155999000D01*
X102342474Y-155999000D01*
X102366542Y-155924928D01*
X102386504Y-155735000D01*
X102366542Y-155545072D01*
X102307527Y-155363444D01*
X102307527Y-155363443D01*
X102212041Y-155198057D01*
X102084252Y-155056133D01*
X101929753Y-154943883D01*
X101929752Y-154943882D01*
X101755288Y-154866206D01*
X101568487Y-154826500D01*
X101377513Y-154826500D01*
X101190712Y-154866206D01*
X101190710Y-154866206D01*
X101190709Y-154866207D01*
X101050555Y-154928607D01*
X100999307Y-154939500D01*
X93545500Y-154939500D01*
X93482500Y-154922619D01*
X93436381Y-154876500D01*
X93419500Y-154813500D01*
X93419500Y-144117999D01*
X123446619Y-144117999D01*
X123466091Y-144315701D01*
X123523758Y-144505802D01*
X123617406Y-144681007D01*
X123743431Y-144834568D01*
X123896992Y-144960593D01*
X123896996Y-144960595D01*
X124072196Y-145054241D01*
X124167247Y-145083074D01*
X124262298Y-145111908D01*
X124410450Y-145126500D01*
X124410453Y-145126500D01*
X124509547Y-145126500D01*
X124509550Y-145126500D01*
X124657701Y-145111908D01*
X124657700Y-145111908D01*
X124847804Y-145054241D01*
X125023004Y-144960595D01*
X125023005Y-144960593D01*
X125023007Y-144960593D01*
X125176568Y-144834568D01*
X125302593Y-144681007D01*
X125302595Y-144681004D01*
X125396241Y-144505804D01*
X125453908Y-144315701D01*
X125473380Y-144118000D01*
X125453908Y-143920299D01*
X125396241Y-143730196D01*
X125302595Y-143554996D01*
X125302593Y-143554992D01*
X125176568Y-143401431D01*
X125023007Y-143275406D01*
X124847802Y-143181758D01*
X124657701Y-143124091D01*
X124509550Y-143109500D01*
X124509547Y-143109500D01*
X124410453Y-143109500D01*
X124410450Y-143109500D01*
X124262298Y-143124091D01*
X124072197Y-143181758D01*
X123896992Y-143275406D01*
X123743431Y-143401431D01*
X123617406Y-143554992D01*
X123523758Y-143730197D01*
X123466091Y-143920298D01*
X123446619Y-144117999D01*
X93419500Y-144117999D01*
X93419500Y-143255500D01*
X93436381Y-143192500D01*
X93482500Y-143146381D01*
X93545500Y-143129500D01*
X93833425Y-143129500D01*
X93872362Y-143135667D01*
X93907486Y-143153564D01*
X93908248Y-143154118D01*
X94082712Y-143231794D01*
X94269513Y-143271500D01*
X94460485Y-143271500D01*
X94460487Y-143271500D01*
X94647288Y-143231794D01*
X94821752Y-143154118D01*
X94976253Y-143041866D01*
X95104040Y-142899944D01*
X95199527Y-142734556D01*
X95258542Y-142552928D01*
X95278504Y-142363000D01*
X95258542Y-142173072D01*
X95199527Y-141991444D01*
X95199527Y-141991443D01*
X95193498Y-141981000D01*
X97533496Y-141981000D01*
X97553458Y-142170929D01*
X97612472Y-142352556D01*
X97707958Y-142517942D01*
X97756549Y-142571908D01*
X97835747Y-142659866D01*
X97990248Y-142772118D01*
X98164712Y-142849794D01*
X98351513Y-142889500D01*
X98542485Y-142889500D01*
X98542487Y-142889500D01*
X98729288Y-142849794D01*
X98903752Y-142772118D01*
X99058253Y-142659866D01*
X99186040Y-142517944D01*
X99281527Y-142352556D01*
X99340542Y-142170928D01*
X99360504Y-141981000D01*
X99340542Y-141791072D01*
X99305795Y-141684133D01*
X99281527Y-141609443D01*
X99263373Y-141577999D01*
X123446619Y-141577999D01*
X123466091Y-141775701D01*
X123523758Y-141965802D01*
X123617406Y-142141007D01*
X123743431Y-142294568D01*
X123896992Y-142420593D01*
X123896996Y-142420595D01*
X124072196Y-142514241D01*
X124167247Y-142543074D01*
X124262298Y-142571908D01*
X124410450Y-142586500D01*
X124410453Y-142586500D01*
X124509547Y-142586500D01*
X124509550Y-142586500D01*
X124657701Y-142571908D01*
X124657700Y-142571908D01*
X124847804Y-142514241D01*
X125023004Y-142420595D01*
X125023005Y-142420593D01*
X125023007Y-142420593D01*
X125176568Y-142294568D01*
X125302593Y-142141007D01*
X125302595Y-142141004D01*
X125396241Y-141965804D01*
X125453908Y-141775701D01*
X125473380Y-141578000D01*
X125465465Y-141497634D01*
X125453908Y-141380298D01*
X125421578Y-141273722D01*
X125396241Y-141190196D01*
X125302595Y-141014996D01*
X125302593Y-141014992D01*
X125176568Y-140861431D01*
X125023007Y-140735406D01*
X124847802Y-140641758D01*
X124657701Y-140584091D01*
X124509550Y-140569500D01*
X124509547Y-140569500D01*
X124410453Y-140569500D01*
X124410450Y-140569500D01*
X124262298Y-140584091D01*
X124072197Y-140641758D01*
X123896992Y-140735406D01*
X123743431Y-140861431D01*
X123617406Y-141014992D01*
X123523758Y-141190197D01*
X123466091Y-141380298D01*
X123446619Y-141577999D01*
X99263373Y-141577999D01*
X99186041Y-141444057D01*
X99116472Y-141366793D01*
X99058253Y-141302134D01*
X99019147Y-141273722D01*
X98936664Y-141213794D01*
X98903752Y-141189882D01*
X98729288Y-141112206D01*
X98542487Y-141072500D01*
X98351513Y-141072500D01*
X98226978Y-141098970D01*
X98164711Y-141112206D01*
X97990246Y-141189883D01*
X97835747Y-141302133D01*
X97707958Y-141444057D01*
X97612472Y-141609443D01*
X97553458Y-141791070D01*
X97533496Y-141981000D01*
X95193498Y-141981000D01*
X95104041Y-141826057D01*
X94976252Y-141684133D01*
X94873450Y-141609443D01*
X94821752Y-141571882D01*
X94647288Y-141494206D01*
X94647286Y-141494205D01*
X94647285Y-141494205D01*
X94621948Y-141488819D01*
X94561893Y-141457422D01*
X94526788Y-141399455D01*
X94526789Y-141331688D01*
X94561895Y-141273722D01*
X94621947Y-141242327D01*
X94756188Y-141213794D01*
X94930652Y-141136118D01*
X95085153Y-141023866D01*
X95212940Y-140881944D01*
X95308427Y-140716556D01*
X95367442Y-140534928D01*
X95387404Y-140345000D01*
X95367442Y-140155072D01*
X95308686Y-139974241D01*
X95308427Y-139973443D01*
X95212941Y-139808057D01*
X95085152Y-139666133D01*
X94930653Y-139553883D01*
X94930652Y-139553882D01*
X94756188Y-139476206D01*
X94569387Y-139436500D01*
X94378413Y-139436500D01*
X94253878Y-139462970D01*
X94191611Y-139476206D01*
X94017146Y-139553883D01*
X93862647Y-139666133D01*
X93734858Y-139808057D01*
X93654619Y-139947036D01*
X93608500Y-139993155D01*
X93545500Y-140010036D01*
X93482500Y-139993155D01*
X93436381Y-139947036D01*
X93419500Y-139884036D01*
X93419500Y-138920000D01*
X107003996Y-138920000D01*
X107023958Y-139109929D01*
X107082972Y-139291556D01*
X107178458Y-139456942D01*
X107196286Y-139476742D01*
X107306247Y-139598866D01*
X107460748Y-139711118D01*
X107635212Y-139788794D01*
X107822013Y-139828500D01*
X108012985Y-139828500D01*
X108012987Y-139828500D01*
X108199788Y-139788794D01*
X108374252Y-139711118D01*
X108528753Y-139598866D01*
X108656540Y-139456944D01*
X108752027Y-139291556D01*
X108811042Y-139109928D01*
X108815764Y-139065000D01*
X111989496Y-139065000D01*
X112009458Y-139254929D01*
X112068472Y-139436556D01*
X112163958Y-139601942D01*
X112163960Y-139601944D01*
X112291747Y-139743866D01*
X112446248Y-139856118D01*
X112620712Y-139933794D01*
X112807513Y-139973500D01*
X112998485Y-139973500D01*
X112998487Y-139973500D01*
X113185288Y-139933794D01*
X113359752Y-139856118D01*
X113514253Y-139743866D01*
X113642040Y-139601944D01*
X113737527Y-139436556D01*
X113796542Y-139254928D01*
X113816504Y-139065000D01*
X113813666Y-139037999D01*
X123446619Y-139037999D01*
X123466091Y-139235701D01*
X123523758Y-139425802D01*
X123617406Y-139601007D01*
X123743431Y-139754568D01*
X123896992Y-139880593D01*
X123932951Y-139899813D01*
X124072196Y-139974241D01*
X124167247Y-140003074D01*
X124262298Y-140031908D01*
X124410450Y-140046500D01*
X124410453Y-140046500D01*
X124509547Y-140046500D01*
X124509550Y-140046500D01*
X124657701Y-140031908D01*
X124729803Y-140010036D01*
X124847804Y-139974241D01*
X125023004Y-139880595D01*
X125023005Y-139880593D01*
X125023007Y-139880593D01*
X125176568Y-139754568D01*
X125302593Y-139601007D01*
X125302595Y-139601004D01*
X125396241Y-139425804D01*
X125453908Y-139235701D01*
X125473380Y-139038000D01*
X125453908Y-138840299D01*
X125396241Y-138650196D01*
X125302595Y-138474996D01*
X125302593Y-138474992D01*
X125176568Y-138321431D01*
X125023007Y-138195406D01*
X124847802Y-138101758D01*
X124657701Y-138044091D01*
X124509550Y-138029500D01*
X124509547Y-138029500D01*
X124410453Y-138029500D01*
X124410450Y-138029500D01*
X124262298Y-138044091D01*
X124072197Y-138101758D01*
X123896992Y-138195406D01*
X123743431Y-138321431D01*
X123617406Y-138474992D01*
X123523758Y-138650197D01*
X123466091Y-138840298D01*
X123446619Y-139037999D01*
X113813666Y-139037999D01*
X113796542Y-138875072D01*
X113737527Y-138693444D01*
X113737527Y-138693443D01*
X113642041Y-138528057D01*
X113514252Y-138386133D01*
X113359753Y-138273883D01*
X113359752Y-138273882D01*
X113185288Y-138196206D01*
X112998487Y-138156500D01*
X112807513Y-138156500D01*
X112682978Y-138182970D01*
X112620711Y-138196206D01*
X112446246Y-138273883D01*
X112291747Y-138386133D01*
X112163958Y-138528057D01*
X112068472Y-138693443D01*
X112009458Y-138875070D01*
X111989496Y-139065000D01*
X108815764Y-139065000D01*
X108831004Y-138920000D01*
X108811042Y-138730072D01*
X108752027Y-138548444D01*
X108752027Y-138548443D01*
X108656541Y-138383057D01*
X108528752Y-138241133D01*
X108374253Y-138128883D01*
X108374252Y-138128882D01*
X108199788Y-138051206D01*
X108012987Y-138011500D01*
X107822013Y-138011500D01*
X107697479Y-138037970D01*
X107635211Y-138051206D01*
X107460746Y-138128883D01*
X107306247Y-138241133D01*
X107178458Y-138383057D01*
X107082972Y-138548443D01*
X107023958Y-138730070D01*
X107003996Y-138920000D01*
X93419500Y-138920000D01*
X93419500Y-138688500D01*
X93436381Y-138625500D01*
X93482500Y-138579381D01*
X93545500Y-138562500D01*
X100500419Y-138562500D01*
X100539355Y-138568667D01*
X100574477Y-138586562D01*
X100580748Y-138591118D01*
X100755212Y-138668794D01*
X100942013Y-138708500D01*
X101132985Y-138708500D01*
X101132987Y-138708500D01*
X101319788Y-138668794D01*
X101494252Y-138591118D01*
X101648753Y-138478866D01*
X101776540Y-138336944D01*
X101872027Y-138171556D01*
X101931042Y-137989928D01*
X101951004Y-137800000D01*
X101931042Y-137610072D01*
X101872027Y-137428444D01*
X101872027Y-137428443D01*
X101776541Y-137263057D01*
X101648752Y-137121133D01*
X101525153Y-137031333D01*
X101494252Y-137008882D01*
X101319788Y-136931206D01*
X101132987Y-136891500D01*
X100942013Y-136891500D01*
X100847921Y-136911500D01*
X100755211Y-136931206D01*
X100677535Y-136965789D01*
X100580748Y-137008882D01*
X100580746Y-137008883D01*
X100580747Y-137008883D01*
X100574479Y-137013437D01*
X100539355Y-137031333D01*
X100500419Y-137037500D01*
X93545500Y-137037500D01*
X93482500Y-137020619D01*
X93436381Y-136974500D01*
X93419500Y-136911500D01*
X93419500Y-136839999D01*
X106103996Y-136839999D01*
X106123958Y-137029929D01*
X106182972Y-137211556D01*
X106278458Y-137376942D01*
X106278460Y-137376944D01*
X106406247Y-137518866D01*
X106560748Y-137631118D01*
X106735212Y-137708794D01*
X106922013Y-137748500D01*
X107112985Y-137748500D01*
X107112987Y-137748500D01*
X107299788Y-137708794D01*
X107474252Y-137631118D01*
X107628753Y-137518866D01*
X107756540Y-137376944D01*
X107852027Y-137211556D01*
X107911042Y-137029928D01*
X107931004Y-136840000D01*
X107911042Y-136650072D01*
X107880431Y-136555862D01*
X107861631Y-136498000D01*
X123446619Y-136498000D01*
X123466091Y-136695701D01*
X123523758Y-136885802D01*
X123617406Y-137061007D01*
X123743431Y-137214568D01*
X123896992Y-137340593D01*
X123896996Y-137340595D01*
X124072196Y-137434241D01*
X124167247Y-137463074D01*
X124262298Y-137491908D01*
X124410450Y-137506500D01*
X124410453Y-137506500D01*
X124509547Y-137506500D01*
X124509550Y-137506500D01*
X124657701Y-137491908D01*
X124657700Y-137491908D01*
X124847804Y-137434241D01*
X125023004Y-137340595D01*
X125023005Y-137340593D01*
X125023007Y-137340593D01*
X125176568Y-137214568D01*
X125302593Y-137061007D01*
X125318454Y-137031333D01*
X125396241Y-136885804D01*
X125453908Y-136695701D01*
X125473380Y-136498000D01*
X125453908Y-136300299D01*
X125396241Y-136110196D01*
X125302595Y-135934996D01*
X125302593Y-135934992D01*
X125176568Y-135781431D01*
X125023007Y-135655406D01*
X124847802Y-135561758D01*
X124657701Y-135504091D01*
X124509550Y-135489500D01*
X124509547Y-135489500D01*
X124410453Y-135489500D01*
X124410450Y-135489500D01*
X124262298Y-135504091D01*
X124072197Y-135561758D01*
X123896992Y-135655406D01*
X123743431Y-135781431D01*
X123617406Y-135934992D01*
X123523758Y-136110197D01*
X123466091Y-136300298D01*
X123446619Y-136498000D01*
X107861631Y-136498000D01*
X107852027Y-136468443D01*
X107756541Y-136303057D01*
X107649107Y-136183739D01*
X107628753Y-136161134D01*
X107615198Y-136151286D01*
X107525139Y-136085854D01*
X107474252Y-136048882D01*
X107299788Y-135971206D01*
X107112987Y-135931500D01*
X106922013Y-135931500D01*
X106797478Y-135957970D01*
X106735211Y-135971206D01*
X106560746Y-136048883D01*
X106406247Y-136161133D01*
X106278458Y-136303057D01*
X106182972Y-136468443D01*
X106123958Y-136650070D01*
X106103996Y-136839999D01*
X93419500Y-136839999D01*
X93419500Y-134599478D01*
X93429091Y-134551260D01*
X93456405Y-134510383D01*
X93876789Y-134089999D01*
X105203996Y-134089999D01*
X105223958Y-134279929D01*
X105282972Y-134461556D01*
X105378458Y-134626942D01*
X105440979Y-134696379D01*
X105506247Y-134768866D01*
X105660748Y-134881118D01*
X105835212Y-134958794D01*
X106022013Y-134998500D01*
X106212985Y-134998500D01*
X106212987Y-134998500D01*
X106399788Y-134958794D01*
X106574252Y-134881118D01*
X106728753Y-134768866D01*
X106856540Y-134626944D01*
X106952027Y-134461556D01*
X107011042Y-134279928D01*
X107031004Y-134090000D01*
X107017130Y-133957999D01*
X123446619Y-133957999D01*
X123466091Y-134155701D01*
X123523758Y-134345802D01*
X123617406Y-134521007D01*
X123743431Y-134674568D01*
X123896992Y-134800593D01*
X123896996Y-134800595D01*
X124072196Y-134894241D01*
X124167247Y-134923074D01*
X124262298Y-134951908D01*
X124410450Y-134966500D01*
X124410453Y-134966500D01*
X124509547Y-134966500D01*
X124509550Y-134966500D01*
X124657701Y-134951908D01*
X124672486Y-134947423D01*
X124847804Y-134894241D01*
X125023004Y-134800595D01*
X125023005Y-134800593D01*
X125023007Y-134800593D01*
X125176568Y-134674568D01*
X125302593Y-134521007D01*
X125339263Y-134452402D01*
X125396241Y-134345804D01*
X125453908Y-134155701D01*
X125473380Y-133958000D01*
X125459454Y-133816605D01*
X125453908Y-133760298D01*
X125404374Y-133597007D01*
X125396241Y-133570196D01*
X125302595Y-133394996D01*
X125302593Y-133394992D01*
X125176568Y-133241431D01*
X125023007Y-133115406D01*
X124847802Y-133021758D01*
X124657701Y-132964091D01*
X124509550Y-132949500D01*
X124509547Y-132949500D01*
X124410453Y-132949500D01*
X124410450Y-132949500D01*
X124262298Y-132964091D01*
X124072197Y-133021758D01*
X123896992Y-133115406D01*
X123743431Y-133241431D01*
X123617406Y-133394992D01*
X123523758Y-133570197D01*
X123466091Y-133760298D01*
X123446619Y-133957999D01*
X107017130Y-133957999D01*
X107011042Y-133900072D01*
X106979002Y-133801463D01*
X106952027Y-133718443D01*
X106856541Y-133553057D01*
X106769865Y-133456794D01*
X106728753Y-133411134D01*
X106701605Y-133391410D01*
X106584608Y-133306406D01*
X106574252Y-133298882D01*
X106399788Y-133221206D01*
X106212987Y-133181500D01*
X106022013Y-133181500D01*
X105899416Y-133207559D01*
X105835211Y-133221206D01*
X105789783Y-133241432D01*
X105668374Y-133295487D01*
X105660746Y-133298883D01*
X105506247Y-133411133D01*
X105378458Y-133553057D01*
X105282972Y-133718443D01*
X105223958Y-133900070D01*
X105203996Y-134089999D01*
X93876789Y-134089999D01*
X94528859Y-133437929D01*
X94534106Y-133431645D01*
X94637671Y-133307594D01*
X94749468Y-133110567D01*
X94824287Y-132896746D01*
X94859725Y-132673000D01*
X94857817Y-132587999D01*
X107671496Y-132587999D01*
X107691458Y-132777929D01*
X107750472Y-132959556D01*
X107845958Y-133124942D01*
X107845960Y-133124944D01*
X107973747Y-133266866D01*
X108128248Y-133379118D01*
X108302712Y-133456794D01*
X108489513Y-133496500D01*
X108680485Y-133496500D01*
X108680487Y-133496500D01*
X108867288Y-133456794D01*
X109041752Y-133379118D01*
X109196253Y-133266866D01*
X109324040Y-133124944D01*
X109419527Y-132959556D01*
X109478542Y-132777928D01*
X109498504Y-132588000D01*
X109478542Y-132398072D01*
X109447931Y-132303862D01*
X109419527Y-132216443D01*
X109340751Y-132080000D01*
X112116496Y-132080000D01*
X112136458Y-132269929D01*
X112195472Y-132451556D01*
X112290958Y-132616942D01*
X112340726Y-132672215D01*
X112418747Y-132758866D01*
X112573248Y-132871118D01*
X112747712Y-132948794D01*
X112934513Y-132988500D01*
X113125485Y-132988500D01*
X113125487Y-132988500D01*
X113312288Y-132948794D01*
X113486752Y-132871118D01*
X113641253Y-132758866D01*
X113769040Y-132616944D01*
X113864527Y-132451556D01*
X113923542Y-132269928D01*
X113943504Y-132080000D01*
X113923542Y-131890072D01*
X113875360Y-131741784D01*
X113864527Y-131708443D01*
X113769041Y-131543057D01*
X113656438Y-131417999D01*
X123446619Y-131417999D01*
X123466091Y-131615701D01*
X123523758Y-131805802D01*
X123617406Y-131981007D01*
X123743431Y-132134568D01*
X123896992Y-132260593D01*
X123896996Y-132260595D01*
X124072196Y-132354241D01*
X124167247Y-132383074D01*
X124262298Y-132411908D01*
X124410450Y-132426500D01*
X124410453Y-132426500D01*
X124509547Y-132426500D01*
X124509550Y-132426500D01*
X124657701Y-132411908D01*
X124703312Y-132398072D01*
X124847804Y-132354241D01*
X125023004Y-132260595D01*
X125023005Y-132260593D01*
X125023007Y-132260593D01*
X125176568Y-132134568D01*
X125302593Y-131981007D01*
X125302595Y-131981004D01*
X125396241Y-131805804D01*
X125453908Y-131615701D01*
X125473380Y-131418000D01*
X125453908Y-131220299D01*
X125396241Y-131030196D01*
X125302595Y-130854996D01*
X125302593Y-130854992D01*
X125176568Y-130701431D01*
X125023007Y-130575406D01*
X124847802Y-130481758D01*
X124657701Y-130424091D01*
X124509550Y-130409500D01*
X124509547Y-130409500D01*
X124410453Y-130409500D01*
X124410450Y-130409500D01*
X124262298Y-130424091D01*
X124072197Y-130481758D01*
X123896992Y-130575406D01*
X123743431Y-130701431D01*
X123617406Y-130854992D01*
X123523758Y-131030197D01*
X123466091Y-131220298D01*
X123446619Y-131417999D01*
X113656438Y-131417999D01*
X113641252Y-131401133D01*
X113526829Y-131318000D01*
X113486752Y-131288882D01*
X113312288Y-131211206D01*
X113125487Y-131171500D01*
X112934513Y-131171500D01*
X112809978Y-131197970D01*
X112747711Y-131211206D01*
X112573246Y-131288883D01*
X112418747Y-131401133D01*
X112290958Y-131543057D01*
X112195472Y-131708443D01*
X112136458Y-131890070D01*
X112116496Y-132080000D01*
X109340751Y-132080000D01*
X109324041Y-132051057D01*
X109196252Y-131909133D01*
X109041753Y-131796883D01*
X109041752Y-131796882D01*
X108867288Y-131719206D01*
X108680487Y-131679500D01*
X108489513Y-131679500D01*
X108364978Y-131705970D01*
X108302711Y-131719206D01*
X108128246Y-131796883D01*
X107973747Y-131909133D01*
X107845958Y-132051057D01*
X107750472Y-132216443D01*
X107691458Y-132398070D01*
X107671496Y-132587999D01*
X94857817Y-132587999D01*
X94854642Y-132446524D01*
X94809201Y-132224593D01*
X94724865Y-132014343D01*
X94633458Y-131868873D01*
X94614553Y-131811958D01*
X94624101Y-131752749D01*
X94659941Y-131704661D01*
X94696916Y-131686812D01*
X94696190Y-131685180D01*
X94708286Y-131679794D01*
X94708288Y-131679794D01*
X94882752Y-131602118D01*
X95037253Y-131489866D01*
X95165040Y-131347944D01*
X95182328Y-131318000D01*
X100940496Y-131318000D01*
X100960458Y-131507929D01*
X101019472Y-131689556D01*
X101114958Y-131854942D01*
X101242747Y-131996866D01*
X101397248Y-132109118D01*
X101571712Y-132186794D01*
X101758513Y-132226500D01*
X101949485Y-132226500D01*
X101949487Y-132226500D01*
X102136288Y-132186794D01*
X102310752Y-132109118D01*
X102465253Y-131996866D01*
X102593040Y-131854944D01*
X102688527Y-131689556D01*
X102747542Y-131507928D01*
X102767504Y-131318000D01*
X102747542Y-131128072D01*
X102706231Y-131000930D01*
X102688527Y-130946443D01*
X102593041Y-130781057D01*
X102465252Y-130639133D01*
X102310753Y-130526883D01*
X102310752Y-130526882D01*
X102136288Y-130449206D01*
X101949487Y-130409500D01*
X101758513Y-130409500D01*
X101633978Y-130435970D01*
X101571711Y-130449206D01*
X101397246Y-130526883D01*
X101242747Y-130639133D01*
X101114958Y-130781057D01*
X101019472Y-130946443D01*
X100960458Y-131128070D01*
X100940496Y-131318000D01*
X95182328Y-131318000D01*
X95260527Y-131182556D01*
X95319542Y-131000928D01*
X95339504Y-130811000D01*
X95319542Y-130621072D01*
X95260527Y-130439444D01*
X95260527Y-130439443D01*
X95165041Y-130274057D01*
X95037252Y-130132133D01*
X94882753Y-130019883D01*
X94882752Y-130019882D01*
X94708288Y-129942206D01*
X94521487Y-129902500D01*
X94330513Y-129902500D01*
X94205979Y-129928970D01*
X94143711Y-129942206D01*
X93969246Y-130019883D01*
X93814747Y-130132133D01*
X93686958Y-130274057D01*
X93591472Y-130439443D01*
X93532458Y-130621070D01*
X93512496Y-130811000D01*
X93532458Y-131000930D01*
X93587482Y-131170276D01*
X93592412Y-131226826D01*
X93572020Y-131279800D01*
X93530445Y-131318449D01*
X93476126Y-131334927D01*
X93401330Y-131339970D01*
X93181663Y-131395320D01*
X93181663Y-131395321D01*
X93051503Y-131454443D01*
X92975408Y-131489007D01*
X92789195Y-131618015D01*
X91326084Y-133081126D01*
X91315551Y-133090540D01*
X91287783Y-133112684D01*
X91243933Y-133162874D01*
X91238151Y-133169059D01*
X91231133Y-133176077D01*
X91204850Y-133207559D01*
X91203017Y-133209707D01*
X91138733Y-133283286D01*
X91136525Y-133286982D01*
X91125097Y-133303090D01*
X91122327Y-133306407D01*
X91074094Y-133391410D01*
X91072674Y-133393850D01*
X91062348Y-133411133D01*
X91035068Y-133456794D01*
X91022546Y-133477752D01*
X91021031Y-133481789D01*
X91012662Y-133499677D01*
X91010532Y-133503431D01*
X90978265Y-133595646D01*
X90977302Y-133598304D01*
X90942949Y-133689838D01*
X90942180Y-133694076D01*
X90937137Y-133713185D01*
X90935711Y-133717258D01*
X90920416Y-133813821D01*
X90919943Y-133816605D01*
X90902500Y-133912731D01*
X90902500Y-133917034D01*
X90900949Y-133936745D01*
X90900274Y-133941003D01*
X90902468Y-134038711D01*
X90902500Y-134041539D01*
X90902500Y-141180318D01*
X90890226Y-141234562D01*
X90855794Y-141278238D01*
X90805914Y-141302837D01*
X90750306Y-141303564D01*
X90582987Y-141268000D01*
X90392013Y-141268000D01*
X90267478Y-141294470D01*
X90205211Y-141307706D01*
X90030746Y-141385383D01*
X89876247Y-141497633D01*
X89748458Y-141639557D01*
X89652972Y-141804943D01*
X89593958Y-141986570D01*
X89573996Y-142176499D01*
X89593958Y-142366429D01*
X89652972Y-142548056D01*
X89748458Y-142713442D01*
X89748460Y-142713444D01*
X89876247Y-142855366D01*
X90030748Y-142967618D01*
X90205212Y-143045294D01*
X90392013Y-143085000D01*
X90582985Y-143085000D01*
X90582987Y-143085000D01*
X90750306Y-143049435D01*
X90805914Y-143050163D01*
X90855794Y-143074762D01*
X90890226Y-143118438D01*
X90902500Y-143172682D01*
X90902500Y-154348247D01*
X90888767Y-154405450D01*
X90850561Y-154450183D01*
X90796211Y-154472696D01*
X90737564Y-154468080D01*
X90687405Y-154437342D01*
X86131405Y-149881342D01*
X86104091Y-149840465D01*
X86094500Y-149792247D01*
X86094500Y-144118000D01*
X86446619Y-144118000D01*
X86466091Y-144315701D01*
X86523758Y-144505802D01*
X86617406Y-144681007D01*
X86743431Y-144834568D01*
X86896992Y-144960593D01*
X86896996Y-144960595D01*
X87072196Y-145054241D01*
X87167247Y-145083074D01*
X87262298Y-145111908D01*
X87410450Y-145126500D01*
X87410453Y-145126500D01*
X87509547Y-145126500D01*
X87509550Y-145126500D01*
X87657701Y-145111908D01*
X87657700Y-145111908D01*
X87847804Y-145054241D01*
X88023004Y-144960595D01*
X88023005Y-144960593D01*
X88023007Y-144960593D01*
X88176568Y-144834568D01*
X88302593Y-144681007D01*
X88302595Y-144681004D01*
X88396241Y-144505804D01*
X88453908Y-144315701D01*
X88473380Y-144118000D01*
X88453908Y-143920299D01*
X88396241Y-143730196D01*
X88302595Y-143554996D01*
X88302593Y-143554992D01*
X88176568Y-143401431D01*
X88023007Y-143275406D01*
X87847802Y-143181758D01*
X87657701Y-143124091D01*
X87509550Y-143109500D01*
X87509547Y-143109500D01*
X87410453Y-143109500D01*
X87410450Y-143109500D01*
X87262298Y-143124091D01*
X87072197Y-143181758D01*
X86896992Y-143275406D01*
X86743431Y-143401431D01*
X86617406Y-143554992D01*
X86523758Y-143730197D01*
X86466091Y-143920298D01*
X86446619Y-144118000D01*
X86094500Y-144118000D01*
X86094500Y-141578000D01*
X86446619Y-141578000D01*
X86466091Y-141775701D01*
X86523758Y-141965802D01*
X86617406Y-142141007D01*
X86743431Y-142294568D01*
X86896992Y-142420593D01*
X86896996Y-142420595D01*
X87072196Y-142514241D01*
X87167247Y-142543074D01*
X87262298Y-142571908D01*
X87410450Y-142586500D01*
X87410453Y-142586500D01*
X87509547Y-142586500D01*
X87509550Y-142586500D01*
X87657701Y-142571908D01*
X87657700Y-142571908D01*
X87847804Y-142514241D01*
X88023004Y-142420595D01*
X88023005Y-142420593D01*
X88023007Y-142420593D01*
X88176568Y-142294568D01*
X88302593Y-142141007D01*
X88302595Y-142141004D01*
X88396241Y-141965804D01*
X88453908Y-141775701D01*
X88473380Y-141578000D01*
X88465465Y-141497634D01*
X88453908Y-141380298D01*
X88421578Y-141273722D01*
X88396241Y-141190196D01*
X88302595Y-141014996D01*
X88302593Y-141014992D01*
X88176568Y-140861431D01*
X88023007Y-140735406D01*
X87847802Y-140641758D01*
X87657701Y-140584091D01*
X87509550Y-140569500D01*
X87509547Y-140569500D01*
X87410453Y-140569500D01*
X87410450Y-140569500D01*
X87262298Y-140584091D01*
X87072197Y-140641758D01*
X86896992Y-140735406D01*
X86743431Y-140861431D01*
X86617406Y-141014992D01*
X86523758Y-141190197D01*
X86466091Y-141380298D01*
X86446619Y-141578000D01*
X86094500Y-141578000D01*
X86094500Y-139038000D01*
X86446619Y-139038000D01*
X86466091Y-139235701D01*
X86523758Y-139425802D01*
X86617406Y-139601007D01*
X86743431Y-139754568D01*
X86896992Y-139880593D01*
X86932951Y-139899813D01*
X87072196Y-139974241D01*
X87167247Y-140003074D01*
X87262298Y-140031908D01*
X87410450Y-140046500D01*
X87410453Y-140046500D01*
X87509547Y-140046500D01*
X87509550Y-140046500D01*
X87657701Y-140031908D01*
X87729803Y-140010036D01*
X87847804Y-139974241D01*
X88023004Y-139880595D01*
X88023005Y-139880593D01*
X88023007Y-139880593D01*
X88176568Y-139754568D01*
X88302593Y-139601007D01*
X88302595Y-139601004D01*
X88396241Y-139425804D01*
X88453908Y-139235701D01*
X88473380Y-139038000D01*
X88453908Y-138840299D01*
X88396241Y-138650196D01*
X88302595Y-138474996D01*
X88302593Y-138474992D01*
X88176568Y-138321431D01*
X88023007Y-138195406D01*
X87847802Y-138101758D01*
X87657701Y-138044091D01*
X87509550Y-138029500D01*
X87509547Y-138029500D01*
X87410453Y-138029500D01*
X87410450Y-138029500D01*
X87262298Y-138044091D01*
X87072197Y-138101758D01*
X86896992Y-138195406D01*
X86743431Y-138321431D01*
X86617406Y-138474992D01*
X86523758Y-138650197D01*
X86466091Y-138840298D01*
X86446619Y-139038000D01*
X86094500Y-139038000D01*
X86094500Y-136498000D01*
X86446619Y-136498000D01*
X86466091Y-136695701D01*
X86523758Y-136885802D01*
X86617406Y-137061007D01*
X86743431Y-137214568D01*
X86896992Y-137340593D01*
X86896996Y-137340595D01*
X87072196Y-137434241D01*
X87167247Y-137463074D01*
X87262298Y-137491908D01*
X87410450Y-137506500D01*
X87410453Y-137506500D01*
X87509547Y-137506500D01*
X87509550Y-137506500D01*
X87657701Y-137491908D01*
X87657700Y-137491908D01*
X87847804Y-137434241D01*
X88023004Y-137340595D01*
X88023005Y-137340593D01*
X88023007Y-137340593D01*
X88176568Y-137214568D01*
X88302593Y-137061007D01*
X88318454Y-137031333D01*
X88396241Y-136885804D01*
X88453908Y-136695701D01*
X88473380Y-136498000D01*
X88453908Y-136300299D01*
X88396241Y-136110196D01*
X88302595Y-135934996D01*
X88302593Y-135934992D01*
X88176568Y-135781431D01*
X88023007Y-135655406D01*
X87847802Y-135561758D01*
X87657701Y-135504091D01*
X87509550Y-135489500D01*
X87509547Y-135489500D01*
X87410453Y-135489500D01*
X87410450Y-135489500D01*
X87262298Y-135504091D01*
X87072197Y-135561758D01*
X86896992Y-135655406D01*
X86743431Y-135781431D01*
X86617406Y-135934992D01*
X86523758Y-136110197D01*
X86466091Y-136300298D01*
X86446619Y-136498000D01*
X86094500Y-136498000D01*
X86094500Y-134953077D01*
X86094627Y-134947423D01*
X86098315Y-134865310D01*
X86087281Y-134783853D01*
X86086648Y-134778235D01*
X86085805Y-134768866D01*
X86079281Y-134696378D01*
X86073976Y-134677158D01*
X86070581Y-134660574D01*
X86067906Y-134640825D01*
X86042492Y-134562613D01*
X86040895Y-134557292D01*
X86019014Y-134478007D01*
X86010368Y-134460055D01*
X86004059Y-134444325D01*
X85997903Y-134425380D01*
X85997903Y-134425379D01*
X85958949Y-134352992D01*
X85956390Y-134347969D01*
X85920725Y-134273907D01*
X85909012Y-134257786D01*
X85899999Y-134243442D01*
X85890556Y-134225894D01*
X85839303Y-134161625D01*
X85835878Y-134157126D01*
X85787571Y-134090637D01*
X85786904Y-134089999D01*
X85773167Y-134076865D01*
X85761738Y-134064361D01*
X85749314Y-134048782D01*
X85741024Y-134041539D01*
X85687419Y-133994705D01*
X85683247Y-133990892D01*
X85648844Y-133958000D01*
X86446619Y-133958000D01*
X86466091Y-134155701D01*
X86523758Y-134345802D01*
X86617406Y-134521007D01*
X86743431Y-134674568D01*
X86896992Y-134800593D01*
X86896996Y-134800595D01*
X87072196Y-134894241D01*
X87167247Y-134923074D01*
X87262298Y-134951908D01*
X87410450Y-134966500D01*
X87410453Y-134966500D01*
X87509547Y-134966500D01*
X87509550Y-134966500D01*
X87657701Y-134951908D01*
X87672486Y-134947423D01*
X87847804Y-134894241D01*
X88023004Y-134800595D01*
X88023005Y-134800593D01*
X88023007Y-134800593D01*
X88176568Y-134674568D01*
X88302593Y-134521007D01*
X88339263Y-134452402D01*
X88396241Y-134345804D01*
X88453908Y-134155701D01*
X88473380Y-133958000D01*
X88459454Y-133816605D01*
X88453908Y-133760298D01*
X88404374Y-133597007D01*
X88396241Y-133570196D01*
X88302595Y-133394996D01*
X88302593Y-133394992D01*
X88176568Y-133241431D01*
X88023007Y-133115406D01*
X87847802Y-133021758D01*
X87657701Y-132964091D01*
X87509550Y-132949500D01*
X87509547Y-132949500D01*
X87410453Y-132949500D01*
X87410450Y-132949500D01*
X87262298Y-132964091D01*
X87072197Y-133021758D01*
X86896992Y-133115406D01*
X86743431Y-133241431D01*
X86617406Y-133394992D01*
X86523758Y-133570197D01*
X86466091Y-133760298D01*
X86446619Y-133958000D01*
X85648844Y-133958000D01*
X85623834Y-133934088D01*
X85607210Y-133923115D01*
X85593721Y-133912845D01*
X85578717Y-133899736D01*
X85541227Y-133877337D01*
X85508137Y-133857566D01*
X85503366Y-133854568D01*
X85434776Y-133809292D01*
X85434774Y-133809291D01*
X85416455Y-133801460D01*
X85401362Y-133793770D01*
X85384249Y-133783546D01*
X85307283Y-133754660D01*
X85302036Y-133752556D01*
X85226470Y-133720257D01*
X85226468Y-133720256D01*
X85226467Y-133720256D01*
X85207038Y-133715821D01*
X85190811Y-133710948D01*
X85172161Y-133703949D01*
X85091282Y-133689271D01*
X85085745Y-133688137D01*
X85005615Y-133669849D01*
X84985712Y-133668955D01*
X84968869Y-133667057D01*
X84949268Y-133663500D01*
X84949267Y-133663500D01*
X84867077Y-133663500D01*
X84861425Y-133663373D01*
X84857148Y-133663180D01*
X84779310Y-133659684D01*
X84759561Y-133662360D01*
X84742648Y-133663500D01*
X82579802Y-133663500D01*
X82514531Y-133645276D01*
X82468140Y-133595875D01*
X82454051Y-133529588D01*
X82476337Y-133465590D01*
X82528551Y-133422394D01*
X82625752Y-133379118D01*
X82780253Y-133266866D01*
X82908040Y-133124944D01*
X83003527Y-132959556D01*
X83062542Y-132777928D01*
X83082504Y-132588000D01*
X83062542Y-132398072D01*
X83031931Y-132303862D01*
X83003527Y-132216443D01*
X82908041Y-132051057D01*
X82780252Y-131909133D01*
X82625753Y-131796883D01*
X82625752Y-131796882D01*
X82501998Y-131741783D01*
X82451309Y-131700735D01*
X82427938Y-131639843D01*
X82427542Y-131636072D01*
X82368527Y-131454444D01*
X82347486Y-131418000D01*
X86446619Y-131418000D01*
X86466091Y-131615701D01*
X86523758Y-131805802D01*
X86617406Y-131981007D01*
X86743431Y-132134568D01*
X86896992Y-132260593D01*
X86896996Y-132260595D01*
X87072196Y-132354241D01*
X87167247Y-132383074D01*
X87262298Y-132411908D01*
X87410450Y-132426500D01*
X87410453Y-132426500D01*
X87509547Y-132426500D01*
X87509550Y-132426500D01*
X87657701Y-132411908D01*
X87703312Y-132398072D01*
X87847804Y-132354241D01*
X88023004Y-132260595D01*
X88023005Y-132260593D01*
X88023007Y-132260593D01*
X88176568Y-132134568D01*
X88302593Y-131981007D01*
X88302595Y-131981004D01*
X88396241Y-131805804D01*
X88453908Y-131615701D01*
X88473380Y-131418000D01*
X88453908Y-131220299D01*
X88396241Y-131030196D01*
X88302595Y-130854996D01*
X88302593Y-130854992D01*
X88176568Y-130701431D01*
X88023007Y-130575406D01*
X87847802Y-130481758D01*
X87657701Y-130424091D01*
X87509550Y-130409500D01*
X87509547Y-130409500D01*
X87410453Y-130409500D01*
X87410450Y-130409500D01*
X87262298Y-130424091D01*
X87072197Y-130481758D01*
X86896992Y-130575406D01*
X86743431Y-130701431D01*
X86617406Y-130854992D01*
X86523758Y-131030197D01*
X86466091Y-131220298D01*
X86446619Y-131418000D01*
X82347486Y-131418000D01*
X82273041Y-131289057D01*
X82145252Y-131147133D01*
X81990753Y-131034883D01*
X81990752Y-131034882D01*
X81816288Y-130957206D01*
X81629487Y-130917500D01*
X81438513Y-130917500D01*
X81313979Y-130943970D01*
X81251711Y-130957206D01*
X81077246Y-131034883D01*
X80922747Y-131147133D01*
X80794958Y-131289057D01*
X80699472Y-131454443D01*
X80640458Y-131636070D01*
X80620496Y-131826000D01*
X80640458Y-132015929D01*
X80699472Y-132197556D01*
X80794958Y-132362942D01*
X80922747Y-132504866D01*
X81077248Y-132617118D01*
X81201001Y-132672216D01*
X81251685Y-132713259D01*
X81275060Y-132774146D01*
X81275457Y-132777924D01*
X81275457Y-132777926D01*
X81275458Y-132777928D01*
X81289064Y-132819805D01*
X81334472Y-132959556D01*
X81429958Y-133124942D01*
X81429960Y-133124944D01*
X81557747Y-133266866D01*
X81712248Y-133379118D01*
X81809448Y-133422394D01*
X81861663Y-133465590D01*
X81883949Y-133529588D01*
X81869860Y-133595875D01*
X81823469Y-133645276D01*
X81758198Y-133663500D01*
X81070478Y-133663500D01*
X81022260Y-133653909D01*
X80981383Y-133626595D01*
X80330405Y-132975617D01*
X80303091Y-132934740D01*
X80293500Y-132886522D01*
X80293500Y-128660806D01*
X82175690Y-128660806D01*
X82195652Y-128850735D01*
X82254666Y-129032362D01*
X82350152Y-129197748D01*
X82350154Y-129197750D01*
X82477941Y-129339672D01*
X82632442Y-129451924D01*
X82806906Y-129529600D01*
X82993707Y-129569306D01*
X83184679Y-129569306D01*
X83184681Y-129569306D01*
X83371482Y-129529600D01*
X83545946Y-129451924D01*
X83700447Y-129339672D01*
X83828234Y-129197750D01*
X83923721Y-129032362D01*
X83973877Y-128877999D01*
X86446619Y-128877999D01*
X86466091Y-129075701D01*
X86523758Y-129265802D01*
X86617406Y-129441007D01*
X86743431Y-129594568D01*
X86896992Y-129720593D01*
X86896996Y-129720595D01*
X87072196Y-129814241D01*
X87167247Y-129843074D01*
X87262298Y-129871908D01*
X87410450Y-129886500D01*
X87410453Y-129886500D01*
X87509547Y-129886500D01*
X87509550Y-129886500D01*
X87657701Y-129871908D01*
X87700935Y-129858793D01*
X87847804Y-129814241D01*
X88023004Y-129720595D01*
X88023005Y-129720593D01*
X88023007Y-129720593D01*
X88176568Y-129594568D01*
X88302593Y-129441007D01*
X88302595Y-129441004D01*
X88396241Y-129265804D01*
X88453908Y-129075701D01*
X88462349Y-128990000D01*
X115996496Y-128990000D01*
X116016458Y-129179929D01*
X116075472Y-129361556D01*
X116170958Y-129526942D01*
X116173351Y-129529600D01*
X116298747Y-129668866D01*
X116453248Y-129781118D01*
X116627712Y-129858794D01*
X116814513Y-129898500D01*
X117005485Y-129898500D01*
X117005487Y-129898500D01*
X117192288Y-129858794D01*
X117366752Y-129781118D01*
X117521253Y-129668866D01*
X117649040Y-129526944D01*
X117744527Y-129361556D01*
X117803542Y-129179928D01*
X117823504Y-128990000D01*
X117811732Y-128877999D01*
X123446619Y-128877999D01*
X123466091Y-129075701D01*
X123523758Y-129265802D01*
X123617406Y-129441007D01*
X123743431Y-129594568D01*
X123896992Y-129720593D01*
X123896996Y-129720595D01*
X124072196Y-129814241D01*
X124167247Y-129843074D01*
X124262298Y-129871908D01*
X124410450Y-129886500D01*
X124410453Y-129886500D01*
X124509547Y-129886500D01*
X124509550Y-129886500D01*
X124657701Y-129871908D01*
X124700935Y-129858793D01*
X124847804Y-129814241D01*
X125023004Y-129720595D01*
X125023005Y-129720593D01*
X125023007Y-129720593D01*
X125176568Y-129594568D01*
X125302593Y-129441007D01*
X125302595Y-129441004D01*
X125396241Y-129265804D01*
X125453908Y-129075701D01*
X125473380Y-128878000D01*
X125453908Y-128680299D01*
X125396241Y-128490196D01*
X125302595Y-128314996D01*
X125302593Y-128314992D01*
X125176568Y-128161431D01*
X125023007Y-128035406D01*
X124847802Y-127941758D01*
X124657701Y-127884091D01*
X124509550Y-127869500D01*
X124509547Y-127869500D01*
X124410453Y-127869500D01*
X124410450Y-127869500D01*
X124262298Y-127884091D01*
X124072197Y-127941758D01*
X123896992Y-128035406D01*
X123743431Y-128161431D01*
X123617406Y-128314992D01*
X123523758Y-128490197D01*
X123466091Y-128680298D01*
X123446619Y-128877999D01*
X117811732Y-128877999D01*
X117803542Y-128800072D01*
X117764625Y-128680298D01*
X117744527Y-128618443D01*
X117649041Y-128453057D01*
X117521252Y-128311133D01*
X117366753Y-128198883D01*
X117366752Y-128198882D01*
X117192288Y-128121206D01*
X117005487Y-128081500D01*
X116814513Y-128081500D01*
X116689978Y-128107970D01*
X116627711Y-128121206D01*
X116453246Y-128198883D01*
X116298747Y-128311133D01*
X116170958Y-128453057D01*
X116075472Y-128618443D01*
X116016458Y-128800070D01*
X115996496Y-128990000D01*
X88462349Y-128990000D01*
X88473380Y-128878000D01*
X88453908Y-128680299D01*
X88396241Y-128490196D01*
X88302595Y-128314996D01*
X88302593Y-128314992D01*
X88176568Y-128161431D01*
X88023007Y-128035406D01*
X87847802Y-127941758D01*
X87657701Y-127884091D01*
X87509550Y-127869500D01*
X87509547Y-127869500D01*
X87410453Y-127869500D01*
X87410450Y-127869500D01*
X87262298Y-127884091D01*
X87072197Y-127941758D01*
X86896992Y-128035406D01*
X86743431Y-128161431D01*
X86617406Y-128314992D01*
X86523758Y-128490197D01*
X86466091Y-128680298D01*
X86446619Y-128877999D01*
X83973877Y-128877999D01*
X83982736Y-128850734D01*
X84002698Y-128660806D01*
X83982736Y-128470878D01*
X83952125Y-128376668D01*
X83923721Y-128289249D01*
X83828235Y-128123863D01*
X83707142Y-127989376D01*
X83677531Y-127931262D01*
X83680945Y-127866129D01*
X83716468Y-127811429D01*
X83774581Y-127781818D01*
X83776077Y-127781500D01*
X83776081Y-127781500D01*
X83962882Y-127741794D01*
X84137346Y-127664118D01*
X84291847Y-127551866D01*
X84419634Y-127409944D01*
X84515121Y-127244556D01*
X84574136Y-127062928D01*
X84594098Y-126873000D01*
X84574136Y-126683072D01*
X84515121Y-126501444D01*
X84515121Y-126501443D01*
X84420756Y-126337999D01*
X86446619Y-126337999D01*
X86466091Y-126535701D01*
X86523758Y-126725802D01*
X86617406Y-126901007D01*
X86743431Y-127054568D01*
X86896992Y-127180593D01*
X86896996Y-127180595D01*
X87072196Y-127274241D01*
X87167247Y-127303074D01*
X87262298Y-127331908D01*
X87410450Y-127346500D01*
X87410453Y-127346500D01*
X87509547Y-127346500D01*
X87509550Y-127346500D01*
X87657701Y-127331908D01*
X87657700Y-127331908D01*
X87847804Y-127274241D01*
X88023004Y-127180595D01*
X88023005Y-127180593D01*
X88023007Y-127180593D01*
X88176568Y-127054568D01*
X88302593Y-126901007D01*
X88317563Y-126873000D01*
X88396241Y-126725804D01*
X88453908Y-126535701D01*
X88473380Y-126338000D01*
X88473380Y-126337999D01*
X123446619Y-126337999D01*
X123466091Y-126535701D01*
X123523758Y-126725802D01*
X123617406Y-126901007D01*
X123743431Y-127054568D01*
X123896992Y-127180593D01*
X123896996Y-127180595D01*
X124072196Y-127274241D01*
X124167247Y-127303074D01*
X124262298Y-127331908D01*
X124410450Y-127346500D01*
X124410453Y-127346500D01*
X124509547Y-127346500D01*
X124509550Y-127346500D01*
X124657701Y-127331908D01*
X124657700Y-127331908D01*
X124847804Y-127274241D01*
X125023004Y-127180595D01*
X125023005Y-127180593D01*
X125023007Y-127180593D01*
X125176568Y-127054568D01*
X125302593Y-126901007D01*
X125317563Y-126873000D01*
X125396241Y-126725804D01*
X125453908Y-126535701D01*
X125473380Y-126338000D01*
X125453908Y-126140299D01*
X125436187Y-126081882D01*
X125396241Y-125950197D01*
X125396241Y-125950196D01*
X125302595Y-125774996D01*
X125302593Y-125774992D01*
X125176568Y-125621431D01*
X125023007Y-125495406D01*
X124847802Y-125401758D01*
X124657701Y-125344091D01*
X124509550Y-125329500D01*
X124509547Y-125329500D01*
X124410453Y-125329500D01*
X124410450Y-125329500D01*
X124262298Y-125344091D01*
X124072197Y-125401758D01*
X123896992Y-125495406D01*
X123743431Y-125621431D01*
X123617406Y-125774992D01*
X123523758Y-125950197D01*
X123466091Y-126140298D01*
X123446619Y-126337999D01*
X88473380Y-126337999D01*
X88453908Y-126140299D01*
X88436187Y-126081882D01*
X88396241Y-125950197D01*
X88396241Y-125950196D01*
X88302595Y-125774996D01*
X88302593Y-125774992D01*
X88176568Y-125621431D01*
X88023007Y-125495406D01*
X87847802Y-125401758D01*
X87657701Y-125344091D01*
X87509550Y-125329500D01*
X87509547Y-125329500D01*
X87410453Y-125329500D01*
X87410450Y-125329500D01*
X87262298Y-125344091D01*
X87072197Y-125401758D01*
X86896992Y-125495406D01*
X86743431Y-125621431D01*
X86617406Y-125774992D01*
X86523758Y-125950197D01*
X86466091Y-126140298D01*
X86446619Y-126337999D01*
X84420756Y-126337999D01*
X84419635Y-126336057D01*
X84291846Y-126194133D01*
X84137347Y-126081883D01*
X84137346Y-126081882D01*
X83962882Y-126004206D01*
X83776081Y-125964500D01*
X83585107Y-125964500D01*
X83460573Y-125990970D01*
X83398305Y-126004206D01*
X83223840Y-126081883D01*
X83069341Y-126194133D01*
X82941552Y-126336057D01*
X82846066Y-126501443D01*
X82787052Y-126683070D01*
X82767090Y-126872999D01*
X82787052Y-127062929D01*
X82846066Y-127244556D01*
X82941552Y-127409942D01*
X83062645Y-127544429D01*
X83092256Y-127602543D01*
X83088842Y-127667676D01*
X83053320Y-127722376D01*
X82995207Y-127751986D01*
X82806908Y-127792011D01*
X82806905Y-127792012D01*
X82806906Y-127792012D01*
X82632865Y-127869500D01*
X82632440Y-127869689D01*
X82477941Y-127981939D01*
X82350152Y-128123863D01*
X82254666Y-128289249D01*
X82195652Y-128470876D01*
X82175690Y-128660806D01*
X80293500Y-128660806D01*
X80293500Y-123797999D01*
X86446619Y-123797999D01*
X86466091Y-123995701D01*
X86523758Y-124185802D01*
X86617406Y-124361007D01*
X86743431Y-124514568D01*
X86896992Y-124640593D01*
X86896996Y-124640595D01*
X87072196Y-124734241D01*
X87167247Y-124763074D01*
X87262298Y-124791908D01*
X87410450Y-124806500D01*
X87410453Y-124806500D01*
X87509547Y-124806500D01*
X87509550Y-124806500D01*
X87657701Y-124791908D01*
X87657701Y-124791907D01*
X87847804Y-124734241D01*
X88023004Y-124640595D01*
X88023005Y-124640593D01*
X88023007Y-124640593D01*
X88176568Y-124514568D01*
X88302593Y-124361007D01*
X88302595Y-124361004D01*
X88396241Y-124185804D01*
X88453908Y-123995701D01*
X88473380Y-123798000D01*
X88453908Y-123600299D01*
X88442155Y-123561556D01*
X88396241Y-123410197D01*
X88396241Y-123410196D01*
X88337340Y-123300000D01*
X97406496Y-123300000D01*
X97426458Y-123489929D01*
X97485472Y-123671556D01*
X97580958Y-123836942D01*
X97580960Y-123836944D01*
X97708747Y-123978866D01*
X97863248Y-124091118D01*
X98037712Y-124168794D01*
X98224513Y-124208500D01*
X98415485Y-124208500D01*
X98415487Y-124208500D01*
X98602288Y-124168794D01*
X98776752Y-124091118D01*
X98931253Y-123978866D01*
X99059040Y-123836944D01*
X99139260Y-123697999D01*
X105512496Y-123697999D01*
X105532458Y-123887929D01*
X105591472Y-124069556D01*
X105686958Y-124234942D01*
X105814747Y-124376866D01*
X105969248Y-124489118D01*
X106143712Y-124566794D01*
X106330513Y-124606500D01*
X106521485Y-124606500D01*
X106521487Y-124606500D01*
X106708288Y-124566794D01*
X106882752Y-124489118D01*
X107037253Y-124376866D01*
X107165040Y-124234944D01*
X107260527Y-124069556D01*
X107319542Y-123887928D01*
X107339504Y-123698000D01*
X107319542Y-123508072D01*
X107287740Y-123410196D01*
X107260527Y-123326443D01*
X107181751Y-123190000D01*
X116816496Y-123190000D01*
X116836458Y-123379929D01*
X116895472Y-123561556D01*
X116990958Y-123726942D01*
X117090004Y-123836944D01*
X117118747Y-123868866D01*
X117273248Y-123981118D01*
X117447712Y-124058794D01*
X117634513Y-124098500D01*
X117825485Y-124098500D01*
X117825487Y-124098500D01*
X118012288Y-124058794D01*
X118186752Y-123981118D01*
X118341253Y-123868866D01*
X118405062Y-123797999D01*
X123446619Y-123797999D01*
X123466091Y-123995701D01*
X123523758Y-124185802D01*
X123617406Y-124361007D01*
X123743431Y-124514568D01*
X123896992Y-124640593D01*
X123896996Y-124640595D01*
X124072196Y-124734241D01*
X124167247Y-124763074D01*
X124262298Y-124791908D01*
X124410450Y-124806500D01*
X124410453Y-124806500D01*
X124509547Y-124806500D01*
X124509550Y-124806500D01*
X124657701Y-124791908D01*
X124657701Y-124791907D01*
X124847804Y-124734241D01*
X125023004Y-124640595D01*
X125023005Y-124640593D01*
X125023007Y-124640593D01*
X125176568Y-124514568D01*
X125302593Y-124361007D01*
X125302595Y-124361004D01*
X125396241Y-124185804D01*
X125453908Y-123995701D01*
X125473380Y-123798000D01*
X125453908Y-123600299D01*
X125442155Y-123561556D01*
X125396241Y-123410197D01*
X125396241Y-123410196D01*
X125302595Y-123234996D01*
X125302593Y-123234992D01*
X125176568Y-123081431D01*
X125023007Y-122955406D01*
X124847802Y-122861758D01*
X124657701Y-122804091D01*
X124509550Y-122789500D01*
X124509547Y-122789500D01*
X124410453Y-122789500D01*
X124410450Y-122789500D01*
X124262298Y-122804091D01*
X124072197Y-122861758D01*
X123896992Y-122955406D01*
X123743431Y-123081431D01*
X123617406Y-123234992D01*
X123523758Y-123410197D01*
X123466091Y-123600298D01*
X123446619Y-123797999D01*
X118405062Y-123797999D01*
X118469040Y-123726944D01*
X118564527Y-123561556D01*
X118623542Y-123379928D01*
X118643504Y-123190000D01*
X118623542Y-123000072D01*
X118564527Y-122818444D01*
X118564527Y-122818443D01*
X118469041Y-122653057D01*
X118341252Y-122511133D01*
X118186753Y-122398883D01*
X118186752Y-122398882D01*
X118012288Y-122321206D01*
X117825487Y-122281500D01*
X117634513Y-122281500D01*
X117509978Y-122307970D01*
X117447711Y-122321206D01*
X117273246Y-122398883D01*
X117118747Y-122511133D01*
X116990958Y-122653057D01*
X116895472Y-122818443D01*
X116836458Y-123000070D01*
X116816496Y-123190000D01*
X107181751Y-123190000D01*
X107165041Y-123161057D01*
X107037252Y-123019133D01*
X106882753Y-122906883D01*
X106882752Y-122906882D01*
X106708288Y-122829206D01*
X106521487Y-122789500D01*
X106330513Y-122789500D01*
X106205978Y-122815970D01*
X106143711Y-122829206D01*
X105969246Y-122906883D01*
X105814747Y-123019133D01*
X105686958Y-123161057D01*
X105591472Y-123326443D01*
X105532458Y-123508070D01*
X105512496Y-123697999D01*
X99139260Y-123697999D01*
X99154527Y-123671556D01*
X99213542Y-123489928D01*
X99233504Y-123300000D01*
X99213542Y-123110072D01*
X99154527Y-122928444D01*
X99154527Y-122928443D01*
X99059041Y-122763057D01*
X98931252Y-122621133D01*
X98854002Y-122565007D01*
X98776752Y-122508882D01*
X98602288Y-122431206D01*
X98415487Y-122391500D01*
X98224513Y-122391500D01*
X98099978Y-122417970D01*
X98037711Y-122431206D01*
X97863246Y-122508883D01*
X97708747Y-122621133D01*
X97580958Y-122763057D01*
X97485472Y-122928443D01*
X97426458Y-123110070D01*
X97406496Y-123300000D01*
X88337340Y-123300000D01*
X88302595Y-123234996D01*
X88302593Y-123234992D01*
X88176568Y-123081431D01*
X88023007Y-122955406D01*
X87847802Y-122861758D01*
X87657701Y-122804091D01*
X87509550Y-122789500D01*
X87509547Y-122789500D01*
X87410453Y-122789500D01*
X87410450Y-122789500D01*
X87262298Y-122804091D01*
X87072197Y-122861758D01*
X86896992Y-122955406D01*
X86743431Y-123081431D01*
X86617406Y-123234992D01*
X86523758Y-123410197D01*
X86466091Y-123600298D01*
X86446619Y-123797999D01*
X80293500Y-123797999D01*
X80293500Y-121258000D01*
X86446619Y-121258000D01*
X86466091Y-121455701D01*
X86523758Y-121645802D01*
X86617406Y-121821007D01*
X86743431Y-121974568D01*
X86896992Y-122100593D01*
X86896996Y-122100595D01*
X87072196Y-122194241D01*
X87167247Y-122223074D01*
X87262298Y-122251908D01*
X87410450Y-122266500D01*
X87410453Y-122266500D01*
X87509547Y-122266500D01*
X87509550Y-122266500D01*
X87657701Y-122251908D01*
X87657700Y-122251908D01*
X87847804Y-122194241D01*
X88023004Y-122100595D01*
X88023005Y-122100593D01*
X88023007Y-122100593D01*
X88176568Y-121974568D01*
X88302593Y-121821007D01*
X88307140Y-121812500D01*
X88396241Y-121645804D01*
X88453908Y-121455701D01*
X88473380Y-121258000D01*
X88466399Y-121187118D01*
X88453908Y-121060298D01*
X88406495Y-120904000D01*
X88396241Y-120870196D01*
X88302595Y-120694996D01*
X88302593Y-120694992D01*
X88176568Y-120541431D01*
X88023007Y-120415406D01*
X87986701Y-120396000D01*
X93447496Y-120396000D01*
X93467458Y-120585929D01*
X93526472Y-120767556D01*
X93621958Y-120932942D01*
X93621960Y-120932944D01*
X93749747Y-121074866D01*
X93904248Y-121187118D01*
X94078712Y-121264794D01*
X94265513Y-121304500D01*
X94456485Y-121304500D01*
X94456487Y-121304500D01*
X94643288Y-121264794D01*
X94817752Y-121187118D01*
X94972253Y-121074866D01*
X95100040Y-120932944D01*
X95116751Y-120904000D01*
X101194496Y-120904000D01*
X101214458Y-121093929D01*
X101273472Y-121275556D01*
X101368958Y-121440942D01*
X101368960Y-121440944D01*
X101496747Y-121582866D01*
X101651248Y-121695118D01*
X101825712Y-121772794D01*
X102012513Y-121812500D01*
X102203485Y-121812500D01*
X102203487Y-121812500D01*
X102390288Y-121772794D01*
X102564752Y-121695118D01*
X102719253Y-121582866D01*
X102847040Y-121440944D01*
X102942527Y-121275556D01*
X103001542Y-121093928D01*
X103021504Y-120904000D01*
X108433496Y-120904000D01*
X108453458Y-121093929D01*
X108512472Y-121275556D01*
X108607958Y-121440942D01*
X108607960Y-121440944D01*
X108735747Y-121582866D01*
X108890248Y-121695118D01*
X109064712Y-121772794D01*
X109251513Y-121812500D01*
X109442485Y-121812500D01*
X109442487Y-121812500D01*
X109629288Y-121772794D01*
X109803752Y-121695118D01*
X109958253Y-121582866D01*
X110086040Y-121440944D01*
X110181527Y-121275556D01*
X110240542Y-121093928D01*
X110260504Y-120904000D01*
X110240542Y-120714072D01*
X110205470Y-120606133D01*
X110181527Y-120532443D01*
X110176075Y-120523000D01*
X116180496Y-120523000D01*
X116200458Y-120712929D01*
X116259472Y-120894556D01*
X116354958Y-121059942D01*
X116386589Y-121095072D01*
X116482747Y-121201866D01*
X116637248Y-121314118D01*
X116811712Y-121391794D01*
X116998513Y-121431500D01*
X117189485Y-121431500D01*
X117189487Y-121431500D01*
X117376288Y-121391794D01*
X117550752Y-121314118D01*
X117590831Y-121284999D01*
X121260496Y-121284999D01*
X121280458Y-121474929D01*
X121339472Y-121656556D01*
X121434958Y-121821942D01*
X121434960Y-121821944D01*
X121562747Y-121963866D01*
X121717248Y-122076118D01*
X121891712Y-122153794D01*
X122078513Y-122193500D01*
X122269485Y-122193500D01*
X122269487Y-122193500D01*
X122456288Y-122153794D01*
X122630752Y-122076118D01*
X122785253Y-121963866D01*
X122913040Y-121821944D01*
X123008527Y-121656556D01*
X123067542Y-121474928D01*
X123087504Y-121285000D01*
X123084666Y-121257999D01*
X123446619Y-121257999D01*
X123466091Y-121455701D01*
X123523758Y-121645802D01*
X123617406Y-121821007D01*
X123743431Y-121974568D01*
X123896992Y-122100593D01*
X123896996Y-122100595D01*
X124072196Y-122194241D01*
X124167247Y-122223074D01*
X124262298Y-122251908D01*
X124410450Y-122266500D01*
X124410453Y-122266500D01*
X124509547Y-122266500D01*
X124509550Y-122266500D01*
X124657701Y-122251908D01*
X124657700Y-122251908D01*
X124847804Y-122194241D01*
X125023004Y-122100595D01*
X125023005Y-122100593D01*
X125023007Y-122100593D01*
X125176568Y-121974568D01*
X125302593Y-121821007D01*
X125307140Y-121812500D01*
X125396241Y-121645804D01*
X125453908Y-121455701D01*
X125473380Y-121258000D01*
X125466399Y-121187118D01*
X125453908Y-121060298D01*
X125406495Y-120904000D01*
X125396241Y-120870196D01*
X125302595Y-120694996D01*
X125302593Y-120694992D01*
X125176568Y-120541431D01*
X125023007Y-120415406D01*
X124847802Y-120321758D01*
X124657701Y-120264091D01*
X124509550Y-120249500D01*
X124509547Y-120249500D01*
X124410453Y-120249500D01*
X124410450Y-120249500D01*
X124262298Y-120264091D01*
X124072197Y-120321758D01*
X123896992Y-120415406D01*
X123743431Y-120541431D01*
X123617406Y-120694992D01*
X123523758Y-120870197D01*
X123466091Y-121060298D01*
X123446619Y-121257999D01*
X123084666Y-121257999D01*
X123067542Y-121095072D01*
X123014863Y-120932944D01*
X123008527Y-120913443D01*
X122913041Y-120748057D01*
X122785252Y-120606133D01*
X122630753Y-120493883D01*
X122630752Y-120493882D01*
X122456288Y-120416206D01*
X122269487Y-120376500D01*
X122078513Y-120376500D01*
X121953978Y-120402970D01*
X121891711Y-120416206D01*
X121717246Y-120493883D01*
X121562747Y-120606133D01*
X121434958Y-120748057D01*
X121339472Y-120913443D01*
X121280458Y-121095070D01*
X121260496Y-121284999D01*
X117590831Y-121284999D01*
X117705253Y-121201866D01*
X117833040Y-121059944D01*
X117928527Y-120894556D01*
X117987542Y-120712928D01*
X118007504Y-120523000D01*
X117987542Y-120333072D01*
X117946276Y-120206070D01*
X117928527Y-120151443D01*
X117833041Y-119986057D01*
X117705252Y-119844133D01*
X117550753Y-119731883D01*
X117550752Y-119731882D01*
X117376288Y-119654206D01*
X117189487Y-119614500D01*
X116998513Y-119614500D01*
X116873978Y-119640970D01*
X116811711Y-119654206D01*
X116637246Y-119731883D01*
X116482747Y-119844133D01*
X116354958Y-119986057D01*
X116259472Y-120151443D01*
X116200458Y-120333070D01*
X116180496Y-120523000D01*
X110176075Y-120523000D01*
X110086041Y-120367057D01*
X109958252Y-120225133D01*
X109803753Y-120112883D01*
X109803752Y-120112882D01*
X109629288Y-120035206D01*
X109442487Y-119995500D01*
X109251513Y-119995500D01*
X109126979Y-120021970D01*
X109064711Y-120035206D01*
X108890246Y-120112883D01*
X108735747Y-120225133D01*
X108607958Y-120367057D01*
X108512472Y-120532443D01*
X108453458Y-120714070D01*
X108433496Y-120904000D01*
X103021504Y-120904000D01*
X103001542Y-120714072D01*
X102966470Y-120606133D01*
X102942527Y-120532443D01*
X102847041Y-120367057D01*
X102719252Y-120225133D01*
X102564753Y-120112883D01*
X102564752Y-120112882D01*
X102390288Y-120035206D01*
X102203487Y-119995500D01*
X102012513Y-119995500D01*
X101887979Y-120021970D01*
X101825711Y-120035206D01*
X101651246Y-120112883D01*
X101496747Y-120225133D01*
X101368958Y-120367057D01*
X101273472Y-120532443D01*
X101214458Y-120714070D01*
X101194496Y-120904000D01*
X95116751Y-120904000D01*
X95195527Y-120767556D01*
X95254542Y-120585928D01*
X95274504Y-120396000D01*
X95254542Y-120206072D01*
X95195527Y-120024444D01*
X95195527Y-120024443D01*
X95100041Y-119859057D01*
X94972252Y-119717133D01*
X94817753Y-119604883D01*
X94817752Y-119604882D01*
X94643288Y-119527206D01*
X94456487Y-119487500D01*
X94265513Y-119487500D01*
X94140979Y-119513970D01*
X94078711Y-119527206D01*
X93904246Y-119604883D01*
X93749747Y-119717133D01*
X93621958Y-119859057D01*
X93526472Y-120024443D01*
X93467458Y-120206070D01*
X93447496Y-120396000D01*
X87986701Y-120396000D01*
X87847802Y-120321758D01*
X87657701Y-120264091D01*
X87509550Y-120249500D01*
X87509547Y-120249500D01*
X87410453Y-120249500D01*
X87410450Y-120249500D01*
X87262298Y-120264091D01*
X87072197Y-120321758D01*
X86896992Y-120415406D01*
X86743431Y-120541431D01*
X86617406Y-120694992D01*
X86523758Y-120870197D01*
X86466091Y-121060298D01*
X86446619Y-121258000D01*
X80293500Y-121258000D01*
X80293500Y-118718000D01*
X86446619Y-118718000D01*
X86466091Y-118915701D01*
X86523758Y-119105802D01*
X86617406Y-119281007D01*
X86743431Y-119434568D01*
X86896992Y-119560593D01*
X86896996Y-119560595D01*
X87072196Y-119654241D01*
X87167247Y-119683074D01*
X87262298Y-119711908D01*
X87410450Y-119726500D01*
X87410453Y-119726500D01*
X87509547Y-119726500D01*
X87509550Y-119726500D01*
X87657701Y-119711908D01*
X87657700Y-119711908D01*
X87847804Y-119654241D01*
X88023004Y-119560595D01*
X88023005Y-119560593D01*
X88023007Y-119560593D01*
X88176568Y-119434568D01*
X88302593Y-119281007D01*
X88317563Y-119253000D01*
X114402496Y-119253000D01*
X114422458Y-119442929D01*
X114481472Y-119624556D01*
X114576958Y-119789942D01*
X114704747Y-119931866D01*
X114859248Y-120044118D01*
X115033712Y-120121794D01*
X115220513Y-120161500D01*
X115411485Y-120161500D01*
X115411487Y-120161500D01*
X115598288Y-120121794D01*
X115772752Y-120044118D01*
X115927253Y-119931866D01*
X116055040Y-119789944D01*
X116150527Y-119624556D01*
X116209542Y-119442928D01*
X116229504Y-119253000D01*
X116209542Y-119063072D01*
X116150527Y-118881444D01*
X116150527Y-118881443D01*
X116056162Y-118717999D01*
X123446619Y-118717999D01*
X123466091Y-118915701D01*
X123523758Y-119105802D01*
X123617406Y-119281007D01*
X123743431Y-119434568D01*
X123896992Y-119560593D01*
X123896996Y-119560595D01*
X124072196Y-119654241D01*
X124167247Y-119683074D01*
X124262298Y-119711908D01*
X124410450Y-119726500D01*
X124410453Y-119726500D01*
X124509547Y-119726500D01*
X124509550Y-119726500D01*
X124657701Y-119711908D01*
X124657700Y-119711908D01*
X124847804Y-119654241D01*
X125023004Y-119560595D01*
X125023005Y-119560593D01*
X125023007Y-119560593D01*
X125176568Y-119434568D01*
X125302593Y-119281007D01*
X125317563Y-119253000D01*
X125396241Y-119105804D01*
X125453908Y-118915701D01*
X125473380Y-118718000D01*
X125457277Y-118554500D01*
X125453908Y-118520298D01*
X125396241Y-118330197D01*
X125396241Y-118330196D01*
X125302595Y-118154996D01*
X125302593Y-118154992D01*
X125176568Y-118001431D01*
X125023007Y-117875406D01*
X124847802Y-117781758D01*
X124657701Y-117724091D01*
X124509550Y-117709500D01*
X124509547Y-117709500D01*
X124410453Y-117709500D01*
X124410450Y-117709500D01*
X124262298Y-117724091D01*
X124072197Y-117781758D01*
X123896992Y-117875406D01*
X123743431Y-118001431D01*
X123617406Y-118154992D01*
X123523758Y-118330197D01*
X123466091Y-118520298D01*
X123446619Y-118717999D01*
X116056162Y-118717999D01*
X116055039Y-118716054D01*
X115985488Y-118638809D01*
X115956867Y-118584981D01*
X115956867Y-118524016D01*
X115985489Y-118470188D01*
X116055039Y-118392945D01*
X116091268Y-118330196D01*
X116150527Y-118227556D01*
X116209542Y-118045928D01*
X116229504Y-117856000D01*
X116209542Y-117666072D01*
X116159709Y-117512706D01*
X116157286Y-117443289D01*
X116192016Y-117383134D01*
X116253343Y-117350525D01*
X116360288Y-117327794D01*
X116534752Y-117250118D01*
X116689253Y-117137866D01*
X116817040Y-116995944D01*
X116912527Y-116830556D01*
X116971542Y-116648928D01*
X116991504Y-116459000D01*
X116971542Y-116269072D01*
X116941951Y-116177999D01*
X123446619Y-116177999D01*
X123466091Y-116375701D01*
X123523758Y-116565802D01*
X123617406Y-116741007D01*
X123743431Y-116894568D01*
X123896992Y-117020593D01*
X123896996Y-117020595D01*
X124072196Y-117114241D01*
X124156875Y-117139928D01*
X124262298Y-117171908D01*
X124410450Y-117186500D01*
X124410453Y-117186500D01*
X124509547Y-117186500D01*
X124509550Y-117186500D01*
X124657701Y-117171908D01*
X124657700Y-117171908D01*
X124847804Y-117114241D01*
X125023004Y-117020595D01*
X125023005Y-117020593D01*
X125023007Y-117020593D01*
X125176568Y-116894568D01*
X125302593Y-116741007D01*
X125308439Y-116730070D01*
X125396241Y-116565804D01*
X125453908Y-116375701D01*
X125473380Y-116178000D01*
X125453908Y-115980299D01*
X125448222Y-115961556D01*
X125396241Y-115790197D01*
X125396241Y-115790196D01*
X125302595Y-115614996D01*
X125302593Y-115614992D01*
X125176568Y-115461431D01*
X125023007Y-115335406D01*
X124847802Y-115241758D01*
X124657701Y-115184091D01*
X124509550Y-115169500D01*
X124509547Y-115169500D01*
X124410453Y-115169500D01*
X124410450Y-115169500D01*
X124262298Y-115184091D01*
X124072197Y-115241758D01*
X123896992Y-115335406D01*
X123743431Y-115461431D01*
X123617406Y-115614992D01*
X123523758Y-115790197D01*
X123466091Y-115980298D01*
X123446619Y-116177999D01*
X116941951Y-116177999D01*
X116935739Y-116158882D01*
X116912527Y-116087443D01*
X116817041Y-115922057D01*
X116689252Y-115780133D01*
X116534753Y-115667883D01*
X116534752Y-115667882D01*
X116360288Y-115590206D01*
X116173487Y-115550500D01*
X115982513Y-115550500D01*
X115857978Y-115576970D01*
X115795711Y-115590206D01*
X115621246Y-115667883D01*
X115466747Y-115780133D01*
X115338958Y-115922057D01*
X115243472Y-116087443D01*
X115184458Y-116269070D01*
X115164496Y-116459000D01*
X115184458Y-116648929D01*
X115234289Y-116802292D01*
X115236713Y-116871710D01*
X115201983Y-116931865D01*
X115140653Y-116964474D01*
X115033715Y-116987204D01*
X114859246Y-117064883D01*
X114704747Y-117177133D01*
X114576958Y-117319057D01*
X114481472Y-117484443D01*
X114422458Y-117666070D01*
X114402496Y-117855999D01*
X114422458Y-118045929D01*
X114481472Y-118227556D01*
X114576958Y-118392942D01*
X114646512Y-118470190D01*
X114675132Y-118524018D01*
X114675132Y-118584982D01*
X114646512Y-118638810D01*
X114576958Y-118716057D01*
X114481472Y-118881443D01*
X114422458Y-119063070D01*
X114402496Y-119253000D01*
X88317563Y-119253000D01*
X88396241Y-119105804D01*
X88453908Y-118915701D01*
X88473380Y-118718000D01*
X88457277Y-118554500D01*
X88453908Y-118520298D01*
X88396241Y-118330197D01*
X88396241Y-118330196D01*
X88302595Y-118154996D01*
X88302593Y-118154992D01*
X88265669Y-118110000D01*
X91542496Y-118110000D01*
X91562458Y-118299929D01*
X91621472Y-118481556D01*
X91716958Y-118646942D01*
X91780938Y-118717999D01*
X91844747Y-118788866D01*
X91999248Y-118901118D01*
X92173712Y-118978794D01*
X92360513Y-119018500D01*
X92551485Y-119018500D01*
X92551487Y-119018500D01*
X92738288Y-118978794D01*
X92912752Y-118901118D01*
X93067253Y-118788866D01*
X93195040Y-118646944D01*
X93290527Y-118481556D01*
X93349542Y-118299928D01*
X93369504Y-118110000D01*
X93349542Y-117920072D01*
X93291396Y-117741118D01*
X93290527Y-117738443D01*
X93195041Y-117573057D01*
X93067252Y-117431133D01*
X92916432Y-117321556D01*
X92912752Y-117318882D01*
X92738288Y-117241206D01*
X92551487Y-117201500D01*
X92360513Y-117201500D01*
X92235978Y-117227970D01*
X92173711Y-117241206D01*
X92060623Y-117291556D01*
X91999626Y-117318714D01*
X91999246Y-117318883D01*
X91844747Y-117431133D01*
X91716958Y-117573057D01*
X91621472Y-117738443D01*
X91562458Y-117920070D01*
X91542496Y-118110000D01*
X88265669Y-118110000D01*
X88176568Y-118001431D01*
X88023007Y-117875406D01*
X87847802Y-117781758D01*
X87657701Y-117724091D01*
X87509550Y-117709500D01*
X87509547Y-117709500D01*
X87410453Y-117709500D01*
X87410450Y-117709500D01*
X87262298Y-117724091D01*
X87072197Y-117781758D01*
X86896992Y-117875406D01*
X86743431Y-118001431D01*
X86617406Y-118154992D01*
X86523758Y-118330197D01*
X86466091Y-118520298D01*
X86446619Y-118718000D01*
X80293500Y-118718000D01*
X80293500Y-116178000D01*
X86446619Y-116178000D01*
X86466091Y-116375701D01*
X86523758Y-116565802D01*
X86617406Y-116741007D01*
X86743431Y-116894568D01*
X86896992Y-117020593D01*
X86896996Y-117020595D01*
X87072196Y-117114241D01*
X87156875Y-117139928D01*
X87262298Y-117171908D01*
X87410450Y-117186500D01*
X87410453Y-117186500D01*
X87509547Y-117186500D01*
X87509550Y-117186500D01*
X87657701Y-117171908D01*
X87657700Y-117171908D01*
X87847804Y-117114241D01*
X88023004Y-117020595D01*
X88023005Y-117020593D01*
X88023007Y-117020593D01*
X88109024Y-116950000D01*
X103716496Y-116950000D01*
X103736458Y-117139929D01*
X103795472Y-117321556D01*
X103890958Y-117486942D01*
X103968496Y-117573057D01*
X104018747Y-117628866D01*
X104173248Y-117741118D01*
X104347712Y-117818794D01*
X104534513Y-117858500D01*
X104725485Y-117858500D01*
X104725487Y-117858500D01*
X104912288Y-117818794D01*
X105086752Y-117741118D01*
X105241253Y-117628866D01*
X105369040Y-117486944D01*
X105439540Y-117364833D01*
X105485660Y-117318714D01*
X105548660Y-117301833D01*
X105611660Y-117318714D01*
X105657779Y-117364833D01*
X105710958Y-117456942D01*
X105710960Y-117456944D01*
X105838747Y-117598866D01*
X105993248Y-117711118D01*
X106167712Y-117788794D01*
X106354513Y-117828500D01*
X106545485Y-117828500D01*
X106545487Y-117828500D01*
X106732288Y-117788794D01*
X106906752Y-117711118D01*
X107061253Y-117598866D01*
X107189040Y-117456944D01*
X107284527Y-117291556D01*
X107343542Y-117109928D01*
X107363504Y-116920000D01*
X107343542Y-116730072D01*
X107294275Y-116578444D01*
X107284527Y-116548443D01*
X107189041Y-116383057D01*
X107061252Y-116241133D01*
X106974355Y-116177999D01*
X106906752Y-116128882D01*
X106732288Y-116051206D01*
X106545487Y-116011500D01*
X106354513Y-116011500D01*
X106229978Y-116037970D01*
X106167711Y-116051206D01*
X106027696Y-116113544D01*
X105997606Y-116126942D01*
X105993246Y-116128883D01*
X105838747Y-116241133D01*
X105710959Y-116383055D01*
X105640458Y-116505167D01*
X105594338Y-116551286D01*
X105531338Y-116568166D01*
X105468339Y-116551285D01*
X105422220Y-116505166D01*
X105369041Y-116413057D01*
X105241252Y-116271133D01*
X105164002Y-116215007D01*
X105086752Y-116158882D01*
X104912288Y-116081206D01*
X104725487Y-116041500D01*
X104534513Y-116041500D01*
X104409979Y-116067970D01*
X104347711Y-116081206D01*
X104173246Y-116158883D01*
X104018747Y-116271133D01*
X103890958Y-116413057D01*
X103795472Y-116578443D01*
X103736458Y-116760070D01*
X103716496Y-116950000D01*
X88109024Y-116950000D01*
X88176568Y-116894568D01*
X88302593Y-116741007D01*
X88308439Y-116730070D01*
X88396241Y-116565804D01*
X88453908Y-116375701D01*
X88473380Y-116178000D01*
X88453908Y-115980299D01*
X88448222Y-115961556D01*
X88396241Y-115790197D01*
X88396241Y-115790196D01*
X88302595Y-115614996D01*
X88302593Y-115614992D01*
X88282082Y-115589999D01*
X101956496Y-115589999D01*
X101976458Y-115779929D01*
X102035472Y-115961556D01*
X102130958Y-116126942D01*
X102130960Y-116126944D01*
X102258747Y-116268866D01*
X102413248Y-116381118D01*
X102587712Y-116458794D01*
X102774513Y-116498500D01*
X102965485Y-116498500D01*
X102965487Y-116498500D01*
X103152288Y-116458794D01*
X103326752Y-116381118D01*
X103481253Y-116268866D01*
X103609040Y-116126944D01*
X103704527Y-115961556D01*
X103763542Y-115779928D01*
X103783504Y-115590000D01*
X103782453Y-115580000D01*
X107206496Y-115580000D01*
X107226458Y-115769929D01*
X107285472Y-115951556D01*
X107380958Y-116116942D01*
X107380960Y-116116944D01*
X107508747Y-116258866D01*
X107663248Y-116371118D01*
X107837712Y-116448794D01*
X108024513Y-116488500D01*
X108215485Y-116488500D01*
X108215487Y-116488500D01*
X108402288Y-116448794D01*
X108576752Y-116371118D01*
X108731253Y-116258866D01*
X108859040Y-116116944D01*
X108954527Y-115951556D01*
X109013542Y-115769928D01*
X109033504Y-115580000D01*
X109013542Y-115390072D01*
X108965352Y-115241759D01*
X108954527Y-115208443D01*
X108859041Y-115043057D01*
X108731252Y-114901133D01*
X108590517Y-114798883D01*
X108576752Y-114788882D01*
X108402288Y-114711206D01*
X108215487Y-114671500D01*
X108024513Y-114671500D01*
X107899979Y-114697970D01*
X107837711Y-114711206D01*
X107663246Y-114788883D01*
X107508747Y-114901133D01*
X107380958Y-115043057D01*
X107285472Y-115208443D01*
X107226458Y-115390070D01*
X107206496Y-115580000D01*
X103782453Y-115580000D01*
X103763542Y-115400072D01*
X103704527Y-115218444D01*
X103704527Y-115218443D01*
X103609041Y-115053057D01*
X103481252Y-114911133D01*
X103326753Y-114798883D01*
X103326752Y-114798882D01*
X103152288Y-114721206D01*
X102965487Y-114681500D01*
X102774513Y-114681500D01*
X102649979Y-114707970D01*
X102587711Y-114721206D01*
X102447696Y-114783544D01*
X102435709Y-114788882D01*
X102413246Y-114798883D01*
X102258747Y-114911133D01*
X102130958Y-115053057D01*
X102035472Y-115218443D01*
X101976458Y-115400070D01*
X101956496Y-115589999D01*
X88282082Y-115589999D01*
X88176568Y-115461431D01*
X88023007Y-115335406D01*
X87847802Y-115241758D01*
X87657701Y-115184091D01*
X87509550Y-115169500D01*
X87509547Y-115169500D01*
X87410453Y-115169500D01*
X87410450Y-115169500D01*
X87262298Y-115184091D01*
X87072197Y-115241758D01*
X86896992Y-115335406D01*
X86743431Y-115461431D01*
X86617406Y-115614992D01*
X86523758Y-115790197D01*
X86466091Y-115980298D01*
X86446619Y-116178000D01*
X80293500Y-116178000D01*
X80293500Y-113638000D01*
X86446619Y-113638000D01*
X86466091Y-113835701D01*
X86523758Y-114025802D01*
X86617406Y-114201007D01*
X86743431Y-114354568D01*
X86896992Y-114480593D01*
X86896996Y-114480595D01*
X87072196Y-114574241D01*
X87167247Y-114603074D01*
X87262298Y-114631908D01*
X87410450Y-114646500D01*
X87410453Y-114646500D01*
X87509547Y-114646500D01*
X87509550Y-114646500D01*
X87657701Y-114631908D01*
X87657700Y-114631908D01*
X87847804Y-114574241D01*
X88023004Y-114480595D01*
X88023005Y-114480593D01*
X88023007Y-114480593D01*
X88176568Y-114354568D01*
X88302593Y-114201007D01*
X88302595Y-114201004D01*
X88396241Y-114025804D01*
X88453908Y-113835701D01*
X88473380Y-113638000D01*
X88473380Y-113637999D01*
X123446619Y-113637999D01*
X123466091Y-113835701D01*
X123523758Y-114025802D01*
X123617406Y-114201007D01*
X123743431Y-114354568D01*
X123896992Y-114480593D01*
X123896996Y-114480595D01*
X124072196Y-114574241D01*
X124167247Y-114603074D01*
X124262298Y-114631908D01*
X124410450Y-114646500D01*
X124410453Y-114646500D01*
X124509547Y-114646500D01*
X124509550Y-114646500D01*
X124657701Y-114631908D01*
X124657700Y-114631908D01*
X124847804Y-114574241D01*
X125023004Y-114480595D01*
X125023005Y-114480593D01*
X125023007Y-114480593D01*
X125176568Y-114354568D01*
X125302593Y-114201007D01*
X125302595Y-114201004D01*
X125396241Y-114025804D01*
X125453908Y-113835701D01*
X125473380Y-113638000D01*
X125453908Y-113440299D01*
X125396241Y-113250196D01*
X125302595Y-113074996D01*
X125302593Y-113074992D01*
X125176568Y-112921431D01*
X125023007Y-112795406D01*
X124847802Y-112701758D01*
X124657701Y-112644091D01*
X124509550Y-112629500D01*
X124509547Y-112629500D01*
X124410453Y-112629500D01*
X124410450Y-112629500D01*
X124262298Y-112644091D01*
X124072197Y-112701758D01*
X123896992Y-112795406D01*
X123743431Y-112921431D01*
X123617406Y-113074992D01*
X123523758Y-113250197D01*
X123466091Y-113440298D01*
X123446619Y-113637999D01*
X88473380Y-113637999D01*
X88453908Y-113440299D01*
X88396241Y-113250196D01*
X88302595Y-113074996D01*
X88302593Y-113074992D01*
X88176568Y-112921431D01*
X88023007Y-112795406D01*
X87847802Y-112701758D01*
X87657701Y-112644091D01*
X87509550Y-112629500D01*
X87509547Y-112629500D01*
X87410453Y-112629500D01*
X87410450Y-112629500D01*
X87262298Y-112644091D01*
X87072197Y-112701758D01*
X86896992Y-112795406D01*
X86743431Y-112921431D01*
X86617406Y-113074992D01*
X86523758Y-113250197D01*
X86466091Y-113440298D01*
X86446619Y-113638000D01*
X80293500Y-113638000D01*
X80293500Y-111098000D01*
X86446619Y-111098000D01*
X86466091Y-111295701D01*
X86523758Y-111485802D01*
X86617406Y-111661007D01*
X86743431Y-111814568D01*
X86896992Y-111940593D01*
X86896996Y-111940595D01*
X87072196Y-112034241D01*
X87167247Y-112063074D01*
X87262298Y-112091908D01*
X87410450Y-112106500D01*
X87410453Y-112106500D01*
X87509547Y-112106500D01*
X87509550Y-112106500D01*
X87657701Y-112091908D01*
X87657700Y-112091908D01*
X87847804Y-112034241D01*
X88023004Y-111940595D01*
X88023005Y-111940593D01*
X88023007Y-111940593D01*
X88176568Y-111814568D01*
X88302593Y-111661007D01*
X88302595Y-111661004D01*
X88385447Y-111505999D01*
X102264750Y-111505999D01*
X102283705Y-111710557D01*
X102339925Y-111908151D01*
X102368258Y-111965050D01*
X102431497Y-112092050D01*
X102555299Y-112255991D01*
X102707118Y-112394392D01*
X102881782Y-112502540D01*
X103073345Y-112576751D01*
X103275282Y-112614500D01*
X103480716Y-112614500D01*
X103480718Y-112614500D01*
X103682655Y-112576751D01*
X103874218Y-112502540D01*
X104048882Y-112394392D01*
X104200701Y-112255991D01*
X104324503Y-112092050D01*
X104416074Y-111908152D01*
X104472294Y-111710559D01*
X104491249Y-111506000D01*
X104479481Y-111379000D01*
X107344750Y-111379000D01*
X107363705Y-111583557D01*
X107419925Y-111781151D01*
X107436565Y-111814568D01*
X107511497Y-111965050D01*
X107635299Y-112128991D01*
X107787118Y-112267392D01*
X107961782Y-112375540D01*
X108153345Y-112449751D01*
X108355282Y-112487500D01*
X108560716Y-112487500D01*
X108560718Y-112487500D01*
X108762655Y-112449751D01*
X108954218Y-112375540D01*
X109128882Y-112267392D01*
X109280701Y-112128991D01*
X109404503Y-111965050D01*
X109496074Y-111781152D01*
X109552294Y-111583559D01*
X109571249Y-111379000D01*
X109552294Y-111174441D01*
X109496074Y-110976848D01*
X109404503Y-110792950D01*
X109280701Y-110629009D01*
X109128882Y-110490608D01*
X109127900Y-110490000D01*
X115037496Y-110490000D01*
X115057458Y-110679929D01*
X115116472Y-110861556D01*
X115211958Y-111026942D01*
X115211960Y-111026944D01*
X115339747Y-111168866D01*
X115494248Y-111281118D01*
X115668712Y-111358794D01*
X115855513Y-111398500D01*
X116046485Y-111398500D01*
X116046487Y-111398500D01*
X116233288Y-111358794D01*
X116407752Y-111281118D01*
X116562253Y-111168866D01*
X116626062Y-111097999D01*
X123446619Y-111097999D01*
X123466091Y-111295701D01*
X123523758Y-111485802D01*
X123617406Y-111661007D01*
X123743431Y-111814568D01*
X123896992Y-111940593D01*
X123896996Y-111940595D01*
X124072196Y-112034241D01*
X124167247Y-112063074D01*
X124262298Y-112091908D01*
X124410450Y-112106500D01*
X124410453Y-112106500D01*
X124509547Y-112106500D01*
X124509550Y-112106500D01*
X124657701Y-112091908D01*
X124657700Y-112091908D01*
X124847804Y-112034241D01*
X125023004Y-111940595D01*
X125023005Y-111940593D01*
X125023007Y-111940593D01*
X125176568Y-111814568D01*
X125302593Y-111661007D01*
X125302595Y-111661004D01*
X125396241Y-111485804D01*
X125453908Y-111295701D01*
X125473380Y-111098000D01*
X125466381Y-111026942D01*
X125453908Y-110900298D01*
X125396241Y-110710197D01*
X125396241Y-110710196D01*
X125302595Y-110534996D01*
X125302593Y-110534992D01*
X125176568Y-110381431D01*
X125023007Y-110255406D01*
X124847802Y-110161758D01*
X124657701Y-110104091D01*
X124509550Y-110089500D01*
X124509547Y-110089500D01*
X124410453Y-110089500D01*
X124410450Y-110089500D01*
X124262298Y-110104091D01*
X124072197Y-110161758D01*
X123896992Y-110255406D01*
X123743431Y-110381431D01*
X123617406Y-110534992D01*
X123523758Y-110710197D01*
X123466091Y-110900298D01*
X123446619Y-111097999D01*
X116626062Y-111097999D01*
X116690040Y-111026944D01*
X116785527Y-110861556D01*
X116844542Y-110679928D01*
X116864504Y-110490000D01*
X116844542Y-110300072D01*
X116785527Y-110118444D01*
X116785527Y-110118443D01*
X116690041Y-109953057D01*
X116562252Y-109811133D01*
X116407753Y-109698883D01*
X116407752Y-109698882D01*
X116233288Y-109621206D01*
X116046487Y-109581500D01*
X115855513Y-109581500D01*
X115730978Y-109607970D01*
X115668711Y-109621206D01*
X115494246Y-109698883D01*
X115339747Y-109811133D01*
X115211958Y-109953057D01*
X115116472Y-110118443D01*
X115057458Y-110300070D01*
X115037496Y-110490000D01*
X109127900Y-110490000D01*
X109039475Y-110435249D01*
X108954219Y-110382460D01*
X108762655Y-110308249D01*
X108718912Y-110300072D01*
X108560718Y-110270500D01*
X108355282Y-110270500D01*
X108220657Y-110295665D01*
X108153344Y-110308249D01*
X107961780Y-110382460D01*
X107787119Y-110490607D01*
X107787117Y-110490608D01*
X107787118Y-110490608D01*
X107647807Y-110617607D01*
X107635298Y-110629010D01*
X107511497Y-110792949D01*
X107419925Y-110976848D01*
X107363705Y-111174442D01*
X107344750Y-111379000D01*
X104479481Y-111379000D01*
X104472294Y-111301441D01*
X104416074Y-111103848D01*
X104324503Y-110919950D01*
X104200701Y-110756009D01*
X104048882Y-110617608D01*
X103915460Y-110534996D01*
X103874219Y-110509460D01*
X103682655Y-110435249D01*
X103480718Y-110397500D01*
X103275282Y-110397500D01*
X103140657Y-110422665D01*
X103073344Y-110435249D01*
X102881780Y-110509460D01*
X102707119Y-110617607D01*
X102638756Y-110679928D01*
X102605553Y-110710197D01*
X102555298Y-110756010D01*
X102431497Y-110919949D01*
X102339925Y-111103848D01*
X102283705Y-111301442D01*
X102264750Y-111505999D01*
X88385447Y-111505999D01*
X88396241Y-111485804D01*
X88453908Y-111295701D01*
X88473380Y-111098000D01*
X88466381Y-111026942D01*
X88453908Y-110900298D01*
X88396241Y-110710197D01*
X88396241Y-110710196D01*
X88302595Y-110534996D01*
X88302593Y-110534992D01*
X88176568Y-110381431D01*
X88023007Y-110255406D01*
X87847802Y-110161758D01*
X87657701Y-110104091D01*
X87509550Y-110089500D01*
X87509547Y-110089500D01*
X87410453Y-110089500D01*
X87410450Y-110089500D01*
X87262298Y-110104091D01*
X87072197Y-110161758D01*
X86896992Y-110255406D01*
X86743431Y-110381431D01*
X86617406Y-110534992D01*
X86523758Y-110710197D01*
X86466091Y-110900298D01*
X86446619Y-111098000D01*
X80293500Y-111098000D01*
X80293500Y-108558000D01*
X86446619Y-108558000D01*
X86466091Y-108755701D01*
X86523758Y-108945802D01*
X86617406Y-109121007D01*
X86743431Y-109274568D01*
X86896992Y-109400593D01*
X86896996Y-109400595D01*
X87072196Y-109494241D01*
X87167247Y-109523074D01*
X87262298Y-109551908D01*
X87410450Y-109566500D01*
X87410453Y-109566500D01*
X87509547Y-109566500D01*
X87509550Y-109566500D01*
X87657701Y-109551908D01*
X87657700Y-109551908D01*
X87847804Y-109494241D01*
X88023004Y-109400595D01*
X88023005Y-109400593D01*
X88023007Y-109400593D01*
X88176568Y-109274568D01*
X88302593Y-109121007D01*
X88302595Y-109121004D01*
X88396241Y-108945804D01*
X88428640Y-108839000D01*
X113386496Y-108839000D01*
X113406458Y-109028929D01*
X113465472Y-109210556D01*
X113560958Y-109375942D01*
X113560960Y-109375944D01*
X113688747Y-109517866D01*
X113843248Y-109630118D01*
X114017712Y-109707794D01*
X114204513Y-109747500D01*
X114395485Y-109747500D01*
X114395487Y-109747500D01*
X114582288Y-109707794D01*
X114756752Y-109630118D01*
X114911253Y-109517866D01*
X115039040Y-109375944D01*
X115134527Y-109210556D01*
X115193542Y-109028928D01*
X115203118Y-108937808D01*
X115219309Y-108887979D01*
X115254368Y-108849043D01*
X115302229Y-108827733D01*
X115344288Y-108818794D01*
X115518752Y-108741118D01*
X115673253Y-108628866D01*
X115737061Y-108558000D01*
X123446619Y-108558000D01*
X123466091Y-108755701D01*
X123523758Y-108945802D01*
X123617406Y-109121007D01*
X123743431Y-109274568D01*
X123896992Y-109400593D01*
X123896996Y-109400595D01*
X124072196Y-109494241D01*
X124167247Y-109523074D01*
X124262298Y-109551908D01*
X124410450Y-109566500D01*
X124410453Y-109566500D01*
X124509547Y-109566500D01*
X124509550Y-109566500D01*
X124657701Y-109551908D01*
X124657700Y-109551908D01*
X124847804Y-109494241D01*
X125023004Y-109400595D01*
X125023005Y-109400593D01*
X125023007Y-109400593D01*
X125176568Y-109274568D01*
X125302593Y-109121007D01*
X125302595Y-109121004D01*
X125396241Y-108945804D01*
X125453908Y-108755701D01*
X125473380Y-108558000D01*
X125453908Y-108360299D01*
X125442155Y-108321556D01*
X125396241Y-108170197D01*
X125396241Y-108170196D01*
X125302595Y-107994996D01*
X125302593Y-107994992D01*
X125176568Y-107841431D01*
X125023007Y-107715406D01*
X124847802Y-107621758D01*
X124657701Y-107564091D01*
X124509550Y-107549500D01*
X124509547Y-107549500D01*
X124410453Y-107549500D01*
X124410450Y-107549500D01*
X124262298Y-107564091D01*
X124072197Y-107621758D01*
X123896992Y-107715406D01*
X123743431Y-107841431D01*
X123617406Y-107994992D01*
X123523758Y-108170197D01*
X123466091Y-108360298D01*
X123446619Y-108558000D01*
X115737061Y-108558000D01*
X115801040Y-108486944D01*
X115896527Y-108321556D01*
X115955542Y-108139928D01*
X115975504Y-107950000D01*
X115955542Y-107760072D01*
X115896527Y-107578444D01*
X115896527Y-107578443D01*
X115801041Y-107413057D01*
X115673252Y-107271133D01*
X115518753Y-107158883D01*
X115518752Y-107158882D01*
X115344288Y-107081206D01*
X115157487Y-107041500D01*
X114966513Y-107041500D01*
X114841978Y-107067970D01*
X114779711Y-107081206D01*
X114605246Y-107158883D01*
X114450747Y-107271133D01*
X114322958Y-107413057D01*
X114227472Y-107578443D01*
X114168458Y-107760070D01*
X114158881Y-107851192D01*
X114142690Y-107901020D01*
X114107632Y-107939956D01*
X114059768Y-107961266D01*
X114017715Y-107970204D01*
X113843246Y-108047883D01*
X113688747Y-108160133D01*
X113560958Y-108302057D01*
X113465472Y-108467443D01*
X113406458Y-108649070D01*
X113386496Y-108839000D01*
X88428640Y-108839000D01*
X88453908Y-108755701D01*
X88473380Y-108558000D01*
X88453908Y-108360299D01*
X88442155Y-108321556D01*
X88396241Y-108170197D01*
X88396241Y-108170196D01*
X88302595Y-107994996D01*
X88302593Y-107994992D01*
X88176568Y-107841431D01*
X88023007Y-107715406D01*
X87847802Y-107621758D01*
X87657701Y-107564091D01*
X87509550Y-107549500D01*
X87509547Y-107549500D01*
X87410453Y-107549500D01*
X87410450Y-107549500D01*
X87262298Y-107564091D01*
X87072197Y-107621758D01*
X86896992Y-107715406D01*
X86743431Y-107841431D01*
X86617406Y-107994992D01*
X86523758Y-108170197D01*
X86466091Y-108360298D01*
X86446619Y-108558000D01*
X80293500Y-108558000D01*
X80293500Y-106018000D01*
X86446619Y-106018000D01*
X86466091Y-106215701D01*
X86523758Y-106405802D01*
X86617406Y-106581007D01*
X86743431Y-106734568D01*
X86896992Y-106860593D01*
X86896996Y-106860595D01*
X87072196Y-106954241D01*
X87167247Y-106983074D01*
X87262298Y-107011908D01*
X87410450Y-107026500D01*
X87410453Y-107026500D01*
X87509547Y-107026500D01*
X87509550Y-107026500D01*
X87657701Y-107011908D01*
X87657701Y-107011907D01*
X87847804Y-106954241D01*
X88023004Y-106860595D01*
X88023005Y-106860593D01*
X88023007Y-106860593D01*
X88176568Y-106734568D01*
X88302593Y-106581007D01*
X88302595Y-106581004D01*
X88396241Y-106405804D01*
X88453908Y-106215701D01*
X88473380Y-106018000D01*
X88453908Y-105820299D01*
X88445020Y-105791000D01*
X110846496Y-105791000D01*
X110866458Y-105980929D01*
X110925472Y-106162556D01*
X111020958Y-106327942D01*
X111091065Y-106405804D01*
X111148747Y-106469866D01*
X111303248Y-106582118D01*
X111477712Y-106659794D01*
X111664513Y-106699500D01*
X111855485Y-106699500D01*
X111855487Y-106699500D01*
X112042288Y-106659794D01*
X112216752Y-106582118D01*
X112371253Y-106469866D01*
X112499040Y-106327944D01*
X112594527Y-106162556D01*
X112641496Y-106018000D01*
X123446619Y-106018000D01*
X123466091Y-106215701D01*
X123523758Y-106405802D01*
X123617406Y-106581007D01*
X123743431Y-106734568D01*
X123896992Y-106860593D01*
X123896996Y-106860595D01*
X124072196Y-106954241D01*
X124167247Y-106983074D01*
X124262298Y-107011908D01*
X124410450Y-107026500D01*
X124410453Y-107026500D01*
X124509547Y-107026500D01*
X124509550Y-107026500D01*
X124657701Y-107011908D01*
X124657701Y-107011907D01*
X124847804Y-106954241D01*
X125023004Y-106860595D01*
X125023005Y-106860593D01*
X125023007Y-106860593D01*
X125176568Y-106734568D01*
X125302593Y-106581007D01*
X125302595Y-106581004D01*
X125396241Y-106405804D01*
X125453908Y-106215701D01*
X125473380Y-106018000D01*
X125453908Y-105820299D01*
X125396241Y-105630196D01*
X125302595Y-105454996D01*
X125302593Y-105454992D01*
X125176568Y-105301431D01*
X125023007Y-105175406D01*
X124847802Y-105081758D01*
X124657701Y-105024091D01*
X124509550Y-105009500D01*
X124509547Y-105009500D01*
X124410453Y-105009500D01*
X124410450Y-105009500D01*
X124262298Y-105024091D01*
X124072197Y-105081758D01*
X123896992Y-105175406D01*
X123743431Y-105301431D01*
X123617406Y-105454992D01*
X123523758Y-105630197D01*
X123466091Y-105820298D01*
X123446619Y-106018000D01*
X112641496Y-106018000D01*
X112653542Y-105980928D01*
X112673504Y-105791000D01*
X112653542Y-105601072D01*
X112611568Y-105471890D01*
X112607633Y-105409344D01*
X112634316Y-105352638D01*
X112685017Y-105315802D01*
X112747193Y-105307948D01*
X112805461Y-105331017D01*
X112954248Y-105439118D01*
X113128712Y-105516794D01*
X113315513Y-105556500D01*
X113506485Y-105556500D01*
X113506487Y-105556500D01*
X113693288Y-105516794D01*
X113867752Y-105439118D01*
X114022253Y-105326866D01*
X114150040Y-105184944D01*
X114245527Y-105019556D01*
X114304542Y-104837928D01*
X114318942Y-104700913D01*
X114342315Y-104640027D01*
X114393003Y-104598981D01*
X114502752Y-104550118D01*
X114554000Y-104539225D01*
X114605247Y-104550117D01*
X114605248Y-104550118D01*
X114779712Y-104627794D01*
X114966513Y-104667500D01*
X115157485Y-104667500D01*
X115157487Y-104667500D01*
X115344288Y-104627794D01*
X115518752Y-104550118D01*
X115673253Y-104437866D01*
X115801040Y-104295944D01*
X115896527Y-104130556D01*
X115955542Y-103948928D01*
X115975504Y-103759000D01*
X115955542Y-103569072D01*
X115925951Y-103478000D01*
X123446619Y-103478000D01*
X123466091Y-103675701D01*
X123523758Y-103865802D01*
X123617406Y-104041007D01*
X123743431Y-104194568D01*
X123896992Y-104320593D01*
X123896996Y-104320595D01*
X124072196Y-104414241D01*
X124167247Y-104443074D01*
X124262298Y-104471908D01*
X124410450Y-104486500D01*
X124410453Y-104486500D01*
X124509547Y-104486500D01*
X124509550Y-104486500D01*
X124657701Y-104471908D01*
X124657700Y-104471908D01*
X124847804Y-104414241D01*
X125023004Y-104320595D01*
X125023005Y-104320593D01*
X125023007Y-104320593D01*
X125176568Y-104194568D01*
X125302593Y-104041007D01*
X125328359Y-103992802D01*
X125396241Y-103865804D01*
X125453908Y-103675701D01*
X125473380Y-103478000D01*
X125466399Y-103407118D01*
X125453908Y-103280298D01*
X125415275Y-103152942D01*
X125396241Y-103090196D01*
X125302595Y-102914996D01*
X125302593Y-102914992D01*
X125176568Y-102761431D01*
X125023007Y-102635406D01*
X124847802Y-102541758D01*
X124657701Y-102484091D01*
X124509550Y-102469500D01*
X124509547Y-102469500D01*
X124410453Y-102469500D01*
X124410450Y-102469500D01*
X124262298Y-102484091D01*
X124072197Y-102541758D01*
X123896992Y-102635406D01*
X123743431Y-102761431D01*
X123617406Y-102914992D01*
X123523758Y-103090197D01*
X123466091Y-103280298D01*
X123446619Y-103478000D01*
X115925951Y-103478000D01*
X115924931Y-103474862D01*
X115896527Y-103387443D01*
X115801041Y-103222057D01*
X115730308Y-103143500D01*
X115673253Y-103080134D01*
X115518752Y-102967882D01*
X115344288Y-102890206D01*
X115157487Y-102850500D01*
X114966513Y-102850500D01*
X114841978Y-102876970D01*
X114779711Y-102890206D01*
X114724041Y-102914992D01*
X114605248Y-102967882D01*
X114605247Y-102967882D01*
X114554000Y-102978775D01*
X114502752Y-102967882D01*
X114328288Y-102890206D01*
X114141487Y-102850500D01*
X113950513Y-102850500D01*
X113825978Y-102876970D01*
X113763711Y-102890206D01*
X113589246Y-102967883D01*
X113434747Y-103080133D01*
X113306958Y-103222057D01*
X113211472Y-103387443D01*
X113152458Y-103569070D01*
X113138058Y-103706082D01*
X113114684Y-103766972D01*
X113063998Y-103808017D01*
X112954248Y-103856881D01*
X112799747Y-103969133D01*
X112671958Y-104111057D01*
X112576472Y-104276443D01*
X112517458Y-104458070D01*
X112497496Y-104647999D01*
X112517458Y-104837930D01*
X112559431Y-104967109D01*
X112563366Y-105029656D01*
X112536682Y-105086361D01*
X112485981Y-105123197D01*
X112423806Y-105131051D01*
X112365537Y-105107981D01*
X112250074Y-105024092D01*
X112216752Y-104999882D01*
X112042288Y-104922206D01*
X111855487Y-104882500D01*
X111664513Y-104882500D01*
X111539978Y-104908970D01*
X111477711Y-104922206D01*
X111303246Y-104999883D01*
X111148747Y-105112133D01*
X111020958Y-105254057D01*
X110925472Y-105419443D01*
X110866458Y-105601070D01*
X110846496Y-105791000D01*
X88445020Y-105791000D01*
X88396241Y-105630196D01*
X88302595Y-105454996D01*
X88302593Y-105454992D01*
X88176568Y-105301431D01*
X88023007Y-105175406D01*
X87847802Y-105081758D01*
X87657701Y-105024091D01*
X87509550Y-105009500D01*
X87509547Y-105009500D01*
X87410453Y-105009500D01*
X87410450Y-105009500D01*
X87262298Y-105024091D01*
X87072197Y-105081758D01*
X86896992Y-105175406D01*
X86743431Y-105301431D01*
X86617406Y-105454992D01*
X86523758Y-105630197D01*
X86466091Y-105820298D01*
X86446619Y-106018000D01*
X80293500Y-106018000D01*
X80293500Y-103478000D01*
X86446619Y-103478000D01*
X86466091Y-103675701D01*
X86523758Y-103865802D01*
X86617406Y-104041007D01*
X86743431Y-104194568D01*
X86896992Y-104320593D01*
X86896996Y-104320595D01*
X87072196Y-104414241D01*
X87167247Y-104443074D01*
X87262298Y-104471908D01*
X87410450Y-104486500D01*
X87410453Y-104486500D01*
X87509547Y-104486500D01*
X87509550Y-104486500D01*
X87657701Y-104471908D01*
X87657700Y-104471908D01*
X87847804Y-104414241D01*
X88023004Y-104320595D01*
X88023005Y-104320593D01*
X88023007Y-104320593D01*
X88176568Y-104194568D01*
X88302593Y-104041007D01*
X88328359Y-103992802D01*
X88396241Y-103865804D01*
X88453908Y-103675701D01*
X88473380Y-103478000D01*
X88466399Y-103407118D01*
X88453908Y-103280298D01*
X88415275Y-103152942D01*
X88396241Y-103090196D01*
X88342685Y-102990000D01*
X91996496Y-102990000D01*
X92016458Y-103179929D01*
X92075472Y-103361556D01*
X92170958Y-103526942D01*
X92170960Y-103526944D01*
X92298747Y-103668866D01*
X92453248Y-103781118D01*
X92627712Y-103858794D01*
X92814513Y-103898500D01*
X93005485Y-103898500D01*
X93005487Y-103898500D01*
X93192288Y-103858794D01*
X93366752Y-103781118D01*
X93521253Y-103668866D01*
X93578758Y-103605000D01*
X102318619Y-103605000D01*
X102338091Y-103802701D01*
X102395758Y-103992802D01*
X102489406Y-104168007D01*
X102615431Y-104321568D01*
X102768992Y-104447593D01*
X102792071Y-104459929D01*
X102944196Y-104541241D01*
X102973460Y-104550118D01*
X103134298Y-104598908D01*
X103332000Y-104618380D01*
X103529701Y-104598908D01*
X103719804Y-104541241D01*
X103895004Y-104447595D01*
X103895005Y-104447593D01*
X103895007Y-104447593D01*
X104048568Y-104321568D01*
X104090889Y-104270000D01*
X107416496Y-104270000D01*
X107436458Y-104459929D01*
X107495472Y-104641556D01*
X107590958Y-104806942D01*
X107590960Y-104806944D01*
X107718747Y-104948866D01*
X107873248Y-105061118D01*
X108047712Y-105138794D01*
X108234513Y-105178500D01*
X108425485Y-105178500D01*
X108425487Y-105178500D01*
X108612288Y-105138794D01*
X108786752Y-105061118D01*
X108941253Y-104948866D01*
X109069040Y-104806944D01*
X109164527Y-104641556D01*
X109223542Y-104459928D01*
X109243504Y-104270000D01*
X109223542Y-104080072D01*
X109180931Y-103948929D01*
X109164527Y-103898443D01*
X109069041Y-103733057D01*
X108941252Y-103591133D01*
X108852901Y-103526942D01*
X108786752Y-103478882D01*
X108612288Y-103401206D01*
X108425487Y-103361500D01*
X108234513Y-103361500D01*
X108112457Y-103387444D01*
X108047711Y-103401206D01*
X107873246Y-103478883D01*
X107718747Y-103591133D01*
X107590958Y-103733057D01*
X107495472Y-103898443D01*
X107436458Y-104080070D01*
X107416496Y-104270000D01*
X104090889Y-104270000D01*
X104174593Y-104168007D01*
X104194611Y-104130556D01*
X104268241Y-103992804D01*
X104325908Y-103802701D01*
X104345380Y-103605000D01*
X104333541Y-103484793D01*
X104325908Y-103407298D01*
X104287383Y-103280298D01*
X104268241Y-103217196D01*
X104174595Y-103041996D01*
X104174593Y-103041992D01*
X104048568Y-102888431D01*
X103895007Y-102762406D01*
X103719802Y-102668758D01*
X103545880Y-102615999D01*
X110846496Y-102615999D01*
X110866458Y-102805929D01*
X110925472Y-102987556D01*
X111020958Y-103152942D01*
X111135630Y-103280298D01*
X111148747Y-103294866D01*
X111303248Y-103407118D01*
X111477712Y-103484794D01*
X111664513Y-103524500D01*
X111855485Y-103524500D01*
X111855487Y-103524500D01*
X112042288Y-103484794D01*
X112216752Y-103407118D01*
X112371253Y-103294866D01*
X112499040Y-103152944D01*
X112594527Y-102987556D01*
X112653542Y-102805928D01*
X112673504Y-102616000D01*
X112653542Y-102426072D01*
X112594527Y-102244444D01*
X112594527Y-102244443D01*
X112589075Y-102235000D01*
X116688496Y-102235000D01*
X116708458Y-102424929D01*
X116767472Y-102606556D01*
X116862958Y-102771942D01*
X116893559Y-102805928D01*
X116990747Y-102913866D01*
X117145248Y-103026118D01*
X117319712Y-103103794D01*
X117506513Y-103143500D01*
X117697485Y-103143500D01*
X117697487Y-103143500D01*
X117884288Y-103103794D01*
X118058752Y-103026118D01*
X118213253Y-102913866D01*
X118341040Y-102771944D01*
X118436527Y-102606556D01*
X118495542Y-102424928D01*
X118515504Y-102235000D01*
X118495542Y-102045072D01*
X118460470Y-101937133D01*
X118436527Y-101863443D01*
X118341041Y-101698057D01*
X118213252Y-101556133D01*
X118058753Y-101443883D01*
X118058752Y-101443882D01*
X117884288Y-101366206D01*
X117697487Y-101326500D01*
X117506513Y-101326500D01*
X117381978Y-101352970D01*
X117319711Y-101366206D01*
X117179696Y-101428544D01*
X117154253Y-101439873D01*
X117145246Y-101443883D01*
X116990747Y-101556133D01*
X116862958Y-101698057D01*
X116767472Y-101863443D01*
X116708458Y-102045070D01*
X116688496Y-102235000D01*
X112589075Y-102235000D01*
X112499041Y-102079057D01*
X112371252Y-101937133D01*
X112216753Y-101824883D01*
X112216752Y-101824882D01*
X112042288Y-101747206D01*
X111855487Y-101707500D01*
X111664513Y-101707500D01*
X111539979Y-101733970D01*
X111477711Y-101747206D01*
X111303246Y-101824883D01*
X111148747Y-101937133D01*
X111020958Y-102079057D01*
X110925472Y-102244443D01*
X110866458Y-102426070D01*
X110846496Y-102615999D01*
X103545880Y-102615999D01*
X103529701Y-102611091D01*
X103332000Y-102591619D01*
X103134298Y-102611091D01*
X102944197Y-102668758D01*
X102768992Y-102762406D01*
X102615431Y-102888431D01*
X102489406Y-103041992D01*
X102395758Y-103217197D01*
X102338091Y-103407298D01*
X102318619Y-103605000D01*
X93578758Y-103605000D01*
X93649040Y-103526944D01*
X93744527Y-103361556D01*
X93803542Y-103179928D01*
X93823504Y-102990000D01*
X93803542Y-102800072D01*
X93772931Y-102705862D01*
X93744527Y-102618443D01*
X93649041Y-102453057D01*
X93521252Y-102311133D01*
X93366753Y-102198883D01*
X93366752Y-102198882D01*
X93192288Y-102121206D01*
X93005487Y-102081500D01*
X92814513Y-102081500D01*
X92689978Y-102107970D01*
X92627711Y-102121206D01*
X92453246Y-102198883D01*
X92298747Y-102311133D01*
X92170958Y-102453057D01*
X92075472Y-102618443D01*
X92016458Y-102800070D01*
X91996496Y-102990000D01*
X88342685Y-102990000D01*
X88302595Y-102914996D01*
X88302593Y-102914992D01*
X88176568Y-102761431D01*
X88023007Y-102635406D01*
X87847802Y-102541758D01*
X87657701Y-102484091D01*
X87509550Y-102469500D01*
X87509547Y-102469500D01*
X87410453Y-102469500D01*
X87410450Y-102469500D01*
X87262298Y-102484091D01*
X87072197Y-102541758D01*
X86896992Y-102635406D01*
X86743431Y-102761431D01*
X86617406Y-102914992D01*
X86523758Y-103090197D01*
X86466091Y-103280298D01*
X86446619Y-103478000D01*
X80293500Y-103478000D01*
X80293500Y-100938000D01*
X86446619Y-100938000D01*
X86466091Y-101135701D01*
X86523758Y-101325802D01*
X86617406Y-101501007D01*
X86743431Y-101654568D01*
X86896992Y-101780593D01*
X86908771Y-101786889D01*
X87072196Y-101874241D01*
X87167247Y-101903074D01*
X87262298Y-101931908D01*
X87410450Y-101946500D01*
X87410453Y-101946500D01*
X87509547Y-101946500D01*
X87509550Y-101946500D01*
X87657701Y-101931908D01*
X87667910Y-101928811D01*
X87847804Y-101874241D01*
X88023004Y-101780595D01*
X88023005Y-101780593D01*
X88023007Y-101780593D01*
X88176568Y-101654568D01*
X88302593Y-101501007D01*
X88302595Y-101501004D01*
X88396241Y-101325804D01*
X88419253Y-101249945D01*
X89446551Y-101249945D01*
X89466513Y-101439874D01*
X89525527Y-101621501D01*
X89621013Y-101786887D01*
X89621015Y-101786889D01*
X89748802Y-101928811D01*
X89903303Y-102041063D01*
X90077767Y-102118739D01*
X90264568Y-102158445D01*
X90455540Y-102158445D01*
X90455542Y-102158445D01*
X90642343Y-102118739D01*
X90816807Y-102041063D01*
X90971308Y-101928811D01*
X91099095Y-101786889D01*
X91194582Y-101621501D01*
X91253597Y-101439873D01*
X91273559Y-101249945D01*
X91253597Y-101060017D01*
X91194582Y-100878389D01*
X91194582Y-100878388D01*
X91099096Y-100713002D01*
X90975738Y-100575999D01*
X114560701Y-100575999D01*
X114579838Y-100745852D01*
X114636290Y-100907183D01*
X114727229Y-101051910D01*
X114848089Y-101172770D01*
X114992816Y-101263709D01*
X115154147Y-101320161D01*
X115154150Y-101320162D01*
X115324000Y-101339299D01*
X115493850Y-101320162D01*
X115655183Y-101263709D01*
X115756965Y-101199754D01*
X115824000Y-101180442D01*
X115891034Y-101199754D01*
X115992817Y-101263709D01*
X115992819Y-101263710D01*
X116154147Y-101320161D01*
X116154150Y-101320162D01*
X116324000Y-101339299D01*
X116493850Y-101320162D01*
X116655183Y-101263709D01*
X116799909Y-101172771D01*
X116920771Y-101051909D01*
X116992345Y-100938000D01*
X123446619Y-100938000D01*
X123466091Y-101135701D01*
X123523758Y-101325802D01*
X123617406Y-101501007D01*
X123743431Y-101654568D01*
X123896992Y-101780593D01*
X123908771Y-101786889D01*
X124072196Y-101874241D01*
X124167247Y-101903074D01*
X124262298Y-101931908D01*
X124410450Y-101946500D01*
X124410453Y-101946500D01*
X124509547Y-101946500D01*
X124509550Y-101946500D01*
X124657701Y-101931908D01*
X124667910Y-101928811D01*
X124847804Y-101874241D01*
X125023004Y-101780595D01*
X125023005Y-101780593D01*
X125023007Y-101780593D01*
X125176568Y-101654568D01*
X125302593Y-101501007D01*
X125302595Y-101501004D01*
X125396241Y-101325804D01*
X125453908Y-101135701D01*
X125473380Y-100938000D01*
X125453908Y-100740299D01*
X125396241Y-100550196D01*
X125319247Y-100406150D01*
X125302593Y-100374992D01*
X125176568Y-100221431D01*
X125023007Y-100095406D01*
X124847802Y-100001758D01*
X124657701Y-99944091D01*
X124509550Y-99929500D01*
X124509547Y-99929500D01*
X124410453Y-99929500D01*
X124410450Y-99929500D01*
X124262298Y-99944091D01*
X124072197Y-100001758D01*
X123896992Y-100095406D01*
X123743431Y-100221431D01*
X123617406Y-100374992D01*
X123523758Y-100550197D01*
X123466091Y-100740298D01*
X123446619Y-100938000D01*
X116992345Y-100938000D01*
X117011709Y-100907183D01*
X117068162Y-100745850D01*
X117087299Y-100576000D01*
X117068162Y-100406150D01*
X117068161Y-100406147D01*
X117011710Y-100244819D01*
X116997015Y-100221432D01*
X116947754Y-100143034D01*
X116928442Y-100076000D01*
X116947754Y-100008965D01*
X117011709Y-99907183D01*
X117068162Y-99745850D01*
X117087299Y-99576000D01*
X117068162Y-99406150D01*
X117011709Y-99244817D01*
X117011709Y-99244816D01*
X116920770Y-99100089D01*
X116799910Y-98979229D01*
X116655183Y-98888290D01*
X116493852Y-98831838D01*
X116324000Y-98812701D01*
X116154147Y-98831838D01*
X115992816Y-98888290D01*
X115891036Y-98952244D01*
X115824000Y-98971557D01*
X115756964Y-98952244D01*
X115655183Y-98888290D01*
X115493852Y-98831838D01*
X115324000Y-98812701D01*
X115154147Y-98831838D01*
X114992816Y-98888290D01*
X114848089Y-98979229D01*
X114727229Y-99100089D01*
X114636290Y-99244816D01*
X114579838Y-99406147D01*
X114560701Y-99575999D01*
X114579838Y-99745852D01*
X114632543Y-99896473D01*
X114636291Y-99907183D01*
X114700244Y-100008963D01*
X114719557Y-100075999D01*
X114700244Y-100143035D01*
X114636290Y-100244816D01*
X114579838Y-100406147D01*
X114560701Y-100575999D01*
X90975738Y-100575999D01*
X90971307Y-100571078D01*
X90816808Y-100458828D01*
X90816807Y-100458827D01*
X90642343Y-100381151D01*
X90455542Y-100341445D01*
X90264568Y-100341445D01*
X90140033Y-100367915D01*
X90077766Y-100381151D01*
X89903301Y-100458828D01*
X89748802Y-100571078D01*
X89621013Y-100713002D01*
X89525527Y-100878388D01*
X89466513Y-101060015D01*
X89446551Y-101249945D01*
X88419253Y-101249945D01*
X88453908Y-101135701D01*
X88473380Y-100938000D01*
X88453908Y-100740299D01*
X88396241Y-100550196D01*
X88319247Y-100406150D01*
X88302593Y-100374992D01*
X88176568Y-100221431D01*
X88023007Y-100095406D01*
X87847802Y-100001758D01*
X87657701Y-99944091D01*
X87509550Y-99929500D01*
X87509547Y-99929500D01*
X87410453Y-99929500D01*
X87410450Y-99929500D01*
X87262298Y-99944091D01*
X87072197Y-100001758D01*
X86896992Y-100095406D01*
X86743431Y-100221431D01*
X86617406Y-100374992D01*
X86523758Y-100550197D01*
X86466091Y-100740298D01*
X86446619Y-100938000D01*
X80293500Y-100938000D01*
X80293500Y-88766491D01*
X80305774Y-88712247D01*
X80340206Y-88668570D01*
X80390086Y-88643972D01*
X80445693Y-88643244D01*
X80564513Y-88668500D01*
X80755485Y-88668500D01*
X80755487Y-88668500D01*
X80942288Y-88628794D01*
X81116752Y-88551118D01*
X81271253Y-88438866D01*
X81399040Y-88296944D01*
X81494527Y-88131556D01*
X81553542Y-87949928D01*
X81573504Y-87760000D01*
X81553542Y-87570072D01*
X81514284Y-87449249D01*
X81494527Y-87388443D01*
X81399041Y-87223057D01*
X81271252Y-87081133D01*
X81159483Y-86999928D01*
X81116752Y-86968882D01*
X80942288Y-86891206D01*
X80755487Y-86851500D01*
X80610478Y-86851500D01*
X80553275Y-86837767D01*
X80508542Y-86799561D01*
X80486029Y-86745211D01*
X80490645Y-86686564D01*
X80521380Y-86636407D01*
X81427788Y-85729999D01*
X83816496Y-85729999D01*
X83836458Y-85919929D01*
X83895472Y-86101556D01*
X83990958Y-86266942D01*
X84118747Y-86408866D01*
X84187344Y-86458705D01*
X84222402Y-86497641D01*
X84238593Y-86547469D01*
X84233117Y-86599575D01*
X84226457Y-86620070D01*
X84206496Y-86809999D01*
X84226458Y-86999929D01*
X84285472Y-87181556D01*
X84380958Y-87346942D01*
X84380960Y-87346944D01*
X84508747Y-87488866D01*
X84663248Y-87601118D01*
X84837712Y-87678794D01*
X85024513Y-87718500D01*
X85215485Y-87718500D01*
X85215487Y-87718500D01*
X85402288Y-87678794D01*
X85576752Y-87601118D01*
X85731253Y-87488866D01*
X85859040Y-87346944D01*
X85954527Y-87181556D01*
X86013542Y-86999928D01*
X86033504Y-86810000D01*
X86013542Y-86620072D01*
X85974505Y-86499928D01*
X85954527Y-86438443D01*
X85859041Y-86273057D01*
X85820030Y-86229731D01*
X85731253Y-86131134D01*
X85662652Y-86081291D01*
X85627595Y-86042356D01*
X85611405Y-85992525D01*
X85616882Y-85940424D01*
X85623542Y-85919928D01*
X85643504Y-85730000D01*
X85623542Y-85540072D01*
X85587675Y-85429686D01*
X85564527Y-85358443D01*
X85469041Y-85193057D01*
X85341252Y-85051133D01*
X85186753Y-84938883D01*
X85186752Y-84938882D01*
X85012288Y-84861206D01*
X84825487Y-84821500D01*
X84634513Y-84821500D01*
X84509978Y-84847970D01*
X84447711Y-84861206D01*
X84273246Y-84938883D01*
X84118747Y-85051133D01*
X83990958Y-85193057D01*
X83895472Y-85358443D01*
X83836458Y-85540070D01*
X83816496Y-85729999D01*
X81427788Y-85729999D01*
X82763592Y-84394194D01*
X82803687Y-84367211D01*
X82850996Y-84357309D01*
X86282624Y-84311693D01*
X86346244Y-84327960D01*
X86393038Y-84374028D01*
X86410299Y-84437385D01*
X86424353Y-90405203D01*
X86407571Y-90468329D01*
X86361439Y-90514570D01*
X86298353Y-90531500D01*
X86264513Y-90531500D01*
X86139978Y-90557970D01*
X86077711Y-90571206D01*
X85903246Y-90648883D01*
X85748747Y-90761133D01*
X85620958Y-90903057D01*
X85525472Y-91068443D01*
X85466458Y-91250070D01*
X85446496Y-91440000D01*
X85466458Y-91629929D01*
X85525472Y-91811556D01*
X85620958Y-91976942D01*
X85748746Y-92118865D01*
X85748747Y-92118866D01*
X85903248Y-92231118D01*
X86077712Y-92308794D01*
X86264513Y-92348500D01*
X86264515Y-92348500D01*
X86303225Y-92348500D01*
X86366139Y-92365331D01*
X86412245Y-92411329D01*
X86429224Y-92474202D01*
X86440000Y-97050000D01*
X88509919Y-97047356D01*
X88569137Y-97062054D01*
X88614507Y-97102852D01*
X88635389Y-97160184D01*
X88641458Y-97217929D01*
X88700472Y-97399556D01*
X88795958Y-97564942D01*
X88795960Y-97564944D01*
X88923747Y-97706866D01*
X89078248Y-97819118D01*
X89252712Y-97896794D01*
X89439513Y-97936500D01*
X89630485Y-97936500D01*
X89630487Y-97936500D01*
X89817288Y-97896794D01*
X89991752Y-97819118D01*
X90146253Y-97706866D01*
X90274040Y-97564944D01*
X90369527Y-97399556D01*
X90428542Y-97217928D01*
X90434886Y-97157566D01*
X90455707Y-97100324D01*
X90500948Y-97059536D01*
X90560030Y-97044738D01*
X90682384Y-97044581D01*
X90708741Y-97047336D01*
X90709512Y-97047500D01*
X90709513Y-97047500D01*
X90900483Y-97047500D01*
X90900487Y-97047500D01*
X90902744Y-97047020D01*
X90928775Y-97044267D01*
X96490434Y-97037164D01*
X96555756Y-97055321D01*
X96602212Y-97104703D01*
X96616350Y-97171011D01*
X96594078Y-97235047D01*
X96541844Y-97278271D01*
X96383246Y-97348883D01*
X96228747Y-97461133D01*
X96100958Y-97603057D01*
X96005472Y-97768443D01*
X95946458Y-97950070D01*
X95926496Y-98140000D01*
X95946458Y-98329929D01*
X96005472Y-98511556D01*
X96100958Y-98676942D01*
X96100960Y-98676944D01*
X96228747Y-98818866D01*
X96383248Y-98931118D01*
X96557712Y-99008794D01*
X96744513Y-99048500D01*
X96935485Y-99048500D01*
X96935487Y-99048500D01*
X97122288Y-99008794D01*
X97296752Y-98931118D01*
X97451253Y-98818866D01*
X97579040Y-98676944D01*
X97674527Y-98511556D01*
X97733542Y-98329928D01*
X97753504Y-98140000D01*
X97733542Y-97950072D01*
X97690992Y-97819118D01*
X97674527Y-97768443D01*
X97579041Y-97603057D01*
X97451252Y-97461133D01*
X97366498Y-97399556D01*
X97296752Y-97348882D01*
X97136154Y-97277379D01*
X97083959Y-97234210D01*
X97061658Y-97170250D01*
X97075699Y-97103984D01*
X97122023Y-97054565D01*
X97187243Y-97036274D01*
X109930000Y-97020000D01*
X109930347Y-95377000D01*
X113132496Y-95377000D01*
X113152458Y-95566929D01*
X113211472Y-95748556D01*
X113306958Y-95913942D01*
X113306960Y-95913944D01*
X113434747Y-96055866D01*
X113589248Y-96168118D01*
X113763712Y-96245794D01*
X113772428Y-96247646D01*
X113824495Y-96272145D01*
X113860239Y-96317241D01*
X113872205Y-96373527D01*
X113857897Y-96429263D01*
X113820299Y-96472825D01*
X113815750Y-96476129D01*
X113687958Y-96618057D01*
X113592472Y-96783443D01*
X113533458Y-96965070D01*
X113513496Y-97155000D01*
X113533458Y-97344929D01*
X113592472Y-97526556D01*
X113687958Y-97691942D01*
X113719589Y-97727072D01*
X113815747Y-97833866D01*
X113970248Y-97946118D01*
X114144712Y-98023794D01*
X114331513Y-98063500D01*
X114522485Y-98063500D01*
X114522487Y-98063500D01*
X114709288Y-98023794D01*
X114883752Y-97946118D01*
X114923831Y-97916999D01*
X123673496Y-97916999D01*
X123693458Y-98106929D01*
X123752472Y-98288556D01*
X123847958Y-98453942D01*
X123847960Y-98453944D01*
X123975747Y-98595866D01*
X124130248Y-98708118D01*
X124304712Y-98785794D01*
X124491513Y-98825500D01*
X124682485Y-98825500D01*
X124682487Y-98825500D01*
X124869288Y-98785794D01*
X125043752Y-98708118D01*
X125198253Y-98595866D01*
X125326040Y-98453944D01*
X125421527Y-98288556D01*
X125480542Y-98106928D01*
X125500504Y-97917000D01*
X125480542Y-97727072D01*
X125440247Y-97603057D01*
X125421527Y-97545443D01*
X125326041Y-97380057D01*
X125198252Y-97238133D01*
X125043753Y-97125883D01*
X125043752Y-97125882D01*
X124869288Y-97048206D01*
X124682487Y-97008500D01*
X124491513Y-97008500D01*
X124366978Y-97034970D01*
X124304711Y-97048206D01*
X124130246Y-97125883D01*
X123975747Y-97238133D01*
X123847958Y-97380057D01*
X123752472Y-97545443D01*
X123693458Y-97727070D01*
X123673496Y-97916999D01*
X114923831Y-97916999D01*
X115038253Y-97833866D01*
X115166040Y-97691944D01*
X115261527Y-97526556D01*
X115320542Y-97344928D01*
X115340504Y-97155000D01*
X115320542Y-96965072D01*
X115279277Y-96838072D01*
X115261527Y-96783443D01*
X115166041Y-96618057D01*
X115038252Y-96476133D01*
X114883753Y-96363883D01*
X114883752Y-96363882D01*
X114728914Y-96294944D01*
X114709284Y-96286204D01*
X114700568Y-96284352D01*
X114648500Y-96259850D01*
X114612757Y-96214752D01*
X114600794Y-96158465D01*
X114615105Y-96102729D01*
X114652704Y-96059170D01*
X114657253Y-96055866D01*
X114785040Y-95913944D01*
X114875074Y-95758000D01*
X125324496Y-95758000D01*
X125344458Y-95947929D01*
X125403472Y-96129556D01*
X125498958Y-96294942D01*
X125498960Y-96294944D01*
X125626747Y-96436866D01*
X125781248Y-96549118D01*
X125955712Y-96626794D01*
X126142513Y-96666500D01*
X126333485Y-96666500D01*
X126333487Y-96666500D01*
X126520288Y-96626794D01*
X126694752Y-96549118D01*
X126849253Y-96436866D01*
X126977040Y-96294944D01*
X127072527Y-96129556D01*
X127131542Y-95947928D01*
X127151504Y-95758000D01*
X127131542Y-95568072D01*
X127083427Y-95419991D01*
X127072527Y-95386443D01*
X126977041Y-95221057D01*
X126849252Y-95079133D01*
X126694753Y-94966883D01*
X126694752Y-94966882D01*
X126520288Y-94889206D01*
X126333487Y-94849500D01*
X126142513Y-94849500D01*
X126024620Y-94874559D01*
X125955711Y-94889206D01*
X125781246Y-94966883D01*
X125626747Y-95079133D01*
X125498958Y-95221057D01*
X125403472Y-95386443D01*
X125344458Y-95568070D01*
X125324496Y-95758000D01*
X114875074Y-95758000D01*
X114880527Y-95748556D01*
X114939542Y-95566928D01*
X114959504Y-95377000D01*
X114939542Y-95187072D01*
X114880527Y-95005444D01*
X114880527Y-95005443D01*
X114785041Y-94840057D01*
X114657252Y-94698133D01*
X114502753Y-94585883D01*
X114502752Y-94585882D01*
X114328288Y-94508206D01*
X114141487Y-94468500D01*
X113950513Y-94468500D01*
X113825979Y-94494970D01*
X113763711Y-94508206D01*
X113589246Y-94585883D01*
X113434747Y-94698133D01*
X113306958Y-94840057D01*
X113211472Y-95005443D01*
X113152458Y-95187070D01*
X113132496Y-95377000D01*
X109930347Y-95377000D01*
X109932753Y-83979332D01*
X109945035Y-83925104D01*
X109979468Y-83881437D01*
X110029345Y-83856846D01*
X110084945Y-83856119D01*
X110265513Y-83894500D01*
X110456485Y-83894500D01*
X110456487Y-83894500D01*
X110642324Y-83854999D01*
X112922496Y-83854999D01*
X112942458Y-84044929D01*
X113001472Y-84226556D01*
X113096958Y-84391942D01*
X113156837Y-84458444D01*
X113224747Y-84533866D01*
X113379248Y-84646118D01*
X113553712Y-84723794D01*
X113740513Y-84763500D01*
X113931485Y-84763500D01*
X113931487Y-84763500D01*
X114118288Y-84723794D01*
X114292752Y-84646118D01*
X114316338Y-84628981D01*
X114377225Y-84605608D01*
X114441645Y-84615811D01*
X114492333Y-84656856D01*
X114515706Y-84717744D01*
X114516342Y-84723793D01*
X114518458Y-84743929D01*
X114577472Y-84925556D01*
X114672958Y-85090942D01*
X114672960Y-85090944D01*
X114800747Y-85232866D01*
X114955248Y-85345118D01*
X115129712Y-85422794D01*
X115316513Y-85462500D01*
X115507485Y-85462500D01*
X115507487Y-85462500D01*
X115694288Y-85422794D01*
X115868752Y-85345118D01*
X116023253Y-85232866D01*
X116081659Y-85168000D01*
X123339496Y-85168000D01*
X123359458Y-85357929D01*
X123418472Y-85539556D01*
X123513958Y-85704942D01*
X123536520Y-85730000D01*
X123641747Y-85846866D01*
X123796248Y-85959118D01*
X123970712Y-86036794D01*
X124157513Y-86076500D01*
X124348485Y-86076500D01*
X124348487Y-86076500D01*
X124535288Y-86036794D01*
X124709752Y-85959118D01*
X124864253Y-85846866D01*
X124992040Y-85704944D01*
X125087527Y-85539556D01*
X125146542Y-85357928D01*
X125166504Y-85168000D01*
X125146542Y-84978072D01*
X125095831Y-84822000D01*
X130219496Y-84822000D01*
X130239458Y-85011929D01*
X130298472Y-85193556D01*
X130393958Y-85358942D01*
X130457656Y-85429686D01*
X130521747Y-85500866D01*
X130676248Y-85613118D01*
X130850712Y-85690794D01*
X131037513Y-85730500D01*
X131228485Y-85730500D01*
X131228487Y-85730500D01*
X131415288Y-85690794D01*
X131589752Y-85613118D01*
X131744253Y-85500866D01*
X131872040Y-85358944D01*
X131915578Y-85283533D01*
X131953555Y-85242540D01*
X132005528Y-85222002D01*
X132061272Y-85225961D01*
X132252298Y-85283908D01*
X132450000Y-85303380D01*
X132647701Y-85283908D01*
X132837804Y-85226241D01*
X133013004Y-85132595D01*
X133013005Y-85132593D01*
X133013007Y-85132593D01*
X133166568Y-85006568D01*
X133292593Y-84853007D01*
X133298191Y-84842534D01*
X133386241Y-84677804D01*
X133443908Y-84487701D01*
X133463380Y-84290000D01*
X133452787Y-84182444D01*
X133443908Y-84092298D01*
X133399863Y-83947101D01*
X133386241Y-83902196D01*
X133292595Y-83726996D01*
X133292593Y-83726992D01*
X133166568Y-83573431D01*
X133013007Y-83447406D01*
X132837802Y-83353758D01*
X132647701Y-83296091D01*
X132450000Y-83276619D01*
X132252298Y-83296091D01*
X132062197Y-83353758D01*
X131886992Y-83447406D01*
X131733431Y-83573431D01*
X131607406Y-83726993D01*
X131523885Y-83883250D01*
X131489030Y-83924150D01*
X131440303Y-83946807D01*
X131386566Y-83947101D01*
X131228487Y-83913500D01*
X131037513Y-83913500D01*
X130912978Y-83939970D01*
X130850711Y-83953206D01*
X130676246Y-84030883D01*
X130521747Y-84143133D01*
X130393958Y-84285057D01*
X130298472Y-84450443D01*
X130239458Y-84632070D01*
X130219496Y-84822000D01*
X125095831Y-84822000D01*
X125087527Y-84796444D01*
X125000736Y-84646118D01*
X124992039Y-84631054D01*
X124958954Y-84594311D01*
X124930332Y-84540482D01*
X124930332Y-84479517D01*
X124958955Y-84425688D01*
X124973598Y-84409426D01*
X125028298Y-84373904D01*
X125093430Y-84370492D01*
X125140512Y-84380500D01*
X125140513Y-84380500D01*
X125331485Y-84380500D01*
X125331487Y-84380500D01*
X125518288Y-84340794D01*
X125692752Y-84263118D01*
X125847253Y-84150866D01*
X125975040Y-84008944D01*
X126070527Y-83843556D01*
X126129542Y-83661928D01*
X126149504Y-83472000D01*
X126129542Y-83282072D01*
X126070527Y-83100444D01*
X126070527Y-83100443D01*
X125975041Y-82935057D01*
X125847252Y-82793133D01*
X125692753Y-82680883D01*
X125692752Y-82680882D01*
X125518288Y-82603206D01*
X125331487Y-82563500D01*
X125140513Y-82563500D01*
X125015978Y-82589970D01*
X124953711Y-82603206D01*
X124779246Y-82680883D01*
X124624747Y-82793133D01*
X124515403Y-82914572D01*
X124460703Y-82950094D01*
X124395571Y-82953508D01*
X124348487Y-82943500D01*
X124157513Y-82943500D01*
X124039898Y-82968500D01*
X123970711Y-82983206D01*
X123796246Y-83060883D01*
X123641747Y-83173133D01*
X123513958Y-83315057D01*
X123418472Y-83480443D01*
X123359458Y-83662070D01*
X123339496Y-83852000D01*
X123359458Y-84041929D01*
X123418472Y-84223556D01*
X123513960Y-84388945D01*
X123547044Y-84425688D01*
X123575666Y-84479516D01*
X123575667Y-84540480D01*
X123547046Y-84594308D01*
X123513960Y-84631054D01*
X123418472Y-84796443D01*
X123359458Y-84978070D01*
X123339496Y-85168000D01*
X116081659Y-85168000D01*
X116151040Y-85090944D01*
X116246527Y-84925556D01*
X116305542Y-84743928D01*
X116325504Y-84554000D01*
X116305542Y-84364072D01*
X116246527Y-84182444D01*
X116246527Y-84182443D01*
X116151041Y-84017057D01*
X116023252Y-83875133D01*
X115910463Y-83793187D01*
X115868752Y-83762882D01*
X115694288Y-83685206D01*
X115507487Y-83645500D01*
X115316513Y-83645500D01*
X115191978Y-83671970D01*
X115129711Y-83685206D01*
X114955246Y-83762883D01*
X114931662Y-83780018D01*
X114870771Y-83803391D01*
X114806351Y-83793187D01*
X114755664Y-83752140D01*
X114732293Y-83691253D01*
X114729542Y-83665072D01*
X114695765Y-83561118D01*
X114670527Y-83483443D01*
X114575041Y-83318057D01*
X114511146Y-83247095D01*
X114447253Y-83176134D01*
X114446969Y-83175928D01*
X114292753Y-83063883D01*
X114292752Y-83063882D01*
X114118288Y-82986206D01*
X113931487Y-82946500D01*
X113740513Y-82946500D01*
X113615979Y-82972970D01*
X113553711Y-82986206D01*
X113379246Y-83063883D01*
X113224747Y-83176133D01*
X113096958Y-83318057D01*
X113001472Y-83483443D01*
X112942458Y-83665070D01*
X112922496Y-83854999D01*
X110642324Y-83854999D01*
X110643288Y-83854794D01*
X110817752Y-83777118D01*
X110972253Y-83664866D01*
X111100040Y-83522944D01*
X111195527Y-83357556D01*
X111254542Y-83175928D01*
X111274504Y-82986000D01*
X111264094Y-82886962D01*
X111272579Y-82826596D01*
X111308413Y-82777274D01*
X111363206Y-82750550D01*
X111390288Y-82744794D01*
X111564752Y-82667118D01*
X111719253Y-82554866D01*
X111847040Y-82412944D01*
X111942527Y-82247556D01*
X112001542Y-82065928D01*
X112021504Y-81876000D01*
X112001542Y-81686072D01*
X111942527Y-81504444D01*
X111915621Y-81457841D01*
X111898989Y-81402753D01*
X111908585Y-81346014D01*
X111942409Y-81299459D01*
X111993406Y-81272799D01*
X112050935Y-81271595D01*
X112139911Y-81290507D01*
X112177512Y-81298500D01*
X112177513Y-81298500D01*
X112368485Y-81298500D01*
X112368487Y-81298500D01*
X112555288Y-81258794D01*
X112729752Y-81181118D01*
X112884253Y-81068866D01*
X113012040Y-80926944D01*
X113107527Y-80761556D01*
X113166542Y-80579928D01*
X113186504Y-80390000D01*
X113166542Y-80200072D01*
X113117395Y-80048814D01*
X113107527Y-80018443D01*
X113014895Y-79858000D01*
X116350496Y-79858000D01*
X116370458Y-80047929D01*
X116429472Y-80229556D01*
X116524958Y-80394942D01*
X116593762Y-80471357D01*
X116652747Y-80536866D01*
X116807248Y-80649118D01*
X116981712Y-80726794D01*
X117168513Y-80766500D01*
X117359485Y-80766500D01*
X117359487Y-80766500D01*
X117546288Y-80726794D01*
X117720752Y-80649118D01*
X117875253Y-80536866D01*
X118003040Y-80394944D01*
X118098527Y-80229556D01*
X118140623Y-80099999D01*
X120334496Y-80099999D01*
X120354458Y-80289929D01*
X120413472Y-80471556D01*
X120508958Y-80636942D01*
X120525551Y-80655370D01*
X120636747Y-80778866D01*
X120791248Y-80891118D01*
X120965712Y-80968794D01*
X121152513Y-81008500D01*
X121343485Y-81008500D01*
X121343487Y-81008500D01*
X121530288Y-80968794D01*
X121704752Y-80891118D01*
X121859253Y-80778866D01*
X121987040Y-80636944D01*
X122082527Y-80471556D01*
X122141542Y-80289928D01*
X122161504Y-80100000D01*
X122159402Y-80080000D01*
X123105496Y-80080000D01*
X123125458Y-80269929D01*
X123184472Y-80451556D01*
X123279958Y-80616942D01*
X123314559Y-80655370D01*
X123407747Y-80758866D01*
X123562248Y-80871118D01*
X123736712Y-80948794D01*
X123923513Y-80988500D01*
X124114485Y-80988500D01*
X124114487Y-80988500D01*
X124301288Y-80948794D01*
X124475752Y-80871118D01*
X124630253Y-80758866D01*
X124758040Y-80616944D01*
X124853527Y-80451556D01*
X124912542Y-80269928D01*
X124915582Y-80241000D01*
X128434496Y-80241000D01*
X128439639Y-80289929D01*
X128454458Y-80430929D01*
X128513472Y-80612556D01*
X128608958Y-80777942D01*
X128608960Y-80777944D01*
X128736747Y-80919866D01*
X128891248Y-81032118D01*
X129065712Y-81109794D01*
X129252513Y-81149500D01*
X129443485Y-81149500D01*
X129443487Y-81149500D01*
X129630288Y-81109794D01*
X129804752Y-81032118D01*
X129959253Y-80919866D01*
X130087040Y-80777944D01*
X130182527Y-80612556D01*
X130241542Y-80430928D01*
X130261504Y-80241000D01*
X130241542Y-80051072D01*
X130195727Y-79910070D01*
X130182527Y-79869443D01*
X130087041Y-79704057D01*
X129959252Y-79562133D01*
X129804753Y-79449883D01*
X129804752Y-79449882D01*
X129630288Y-79372206D01*
X129443487Y-79332500D01*
X129252513Y-79332500D01*
X129127979Y-79358970D01*
X129065711Y-79372206D01*
X128891246Y-79449883D01*
X128736747Y-79562133D01*
X128608958Y-79704057D01*
X128513472Y-79869443D01*
X128454458Y-80051070D01*
X128444402Y-80146746D01*
X128434496Y-80241000D01*
X124915582Y-80241000D01*
X124932504Y-80080000D01*
X124912542Y-79890072D01*
X124881931Y-79795862D01*
X124853527Y-79708443D01*
X124758041Y-79543057D01*
X124630252Y-79401133D01*
X124520037Y-79321057D01*
X124475752Y-79288882D01*
X124301288Y-79211206D01*
X124114487Y-79171500D01*
X123923513Y-79171500D01*
X123829421Y-79191500D01*
X123736711Y-79211206D01*
X123562246Y-79288883D01*
X123407747Y-79401133D01*
X123279958Y-79543057D01*
X123184472Y-79708443D01*
X123125458Y-79890070D01*
X123105496Y-80080000D01*
X122159402Y-80080000D01*
X122141542Y-79910072D01*
X122082527Y-79728444D01*
X122082527Y-79728443D01*
X121987041Y-79563057D01*
X121859252Y-79421133D01*
X121704753Y-79308883D01*
X121704752Y-79308882D01*
X121530288Y-79231206D01*
X121343487Y-79191500D01*
X121152513Y-79191500D01*
X121027979Y-79217970D01*
X120965711Y-79231206D01*
X120791246Y-79308883D01*
X120636747Y-79421133D01*
X120508958Y-79563057D01*
X120413472Y-79728443D01*
X120354458Y-79910070D01*
X120334496Y-80099999D01*
X118140623Y-80099999D01*
X118157542Y-80047928D01*
X118177504Y-79858000D01*
X118157542Y-79668072D01*
X118098527Y-79486444D01*
X118098527Y-79486443D01*
X118003041Y-79321057D01*
X117875252Y-79179133D01*
X117720753Y-79066883D01*
X117720752Y-79066882D01*
X117546288Y-78989206D01*
X117359487Y-78949500D01*
X117168513Y-78949500D01*
X117043978Y-78975970D01*
X116981711Y-78989206D01*
X116807246Y-79066883D01*
X116652747Y-79179133D01*
X116524958Y-79321057D01*
X116429472Y-79486443D01*
X116370458Y-79668070D01*
X116350496Y-79858000D01*
X113014895Y-79858000D01*
X113012041Y-79853057D01*
X112884252Y-79711133D01*
X112729753Y-79598883D01*
X112729752Y-79598882D01*
X112555288Y-79521206D01*
X112368487Y-79481500D01*
X112177513Y-79481500D01*
X112052978Y-79507970D01*
X111990711Y-79521206D01*
X111816246Y-79598883D01*
X111661747Y-79711133D01*
X111533958Y-79853057D01*
X111438472Y-80018443D01*
X111379458Y-80200070D01*
X111359496Y-80390000D01*
X111379458Y-80579929D01*
X111438472Y-80761556D01*
X111465378Y-80808158D01*
X111482010Y-80863247D01*
X111472414Y-80919985D01*
X111438590Y-80966540D01*
X111387594Y-80993200D01*
X111330064Y-80994404D01*
X111203487Y-80967500D01*
X111012513Y-80967500D01*
X110891605Y-80993200D01*
X110825711Y-81007206D01*
X110651246Y-81084883D01*
X110496747Y-81197133D01*
X110368958Y-81339057D01*
X110273472Y-81504443D01*
X110214458Y-81686070D01*
X110194496Y-81876000D01*
X110204904Y-81975034D01*
X110196419Y-82035404D01*
X110160585Y-82084724D01*
X110105792Y-82111449D01*
X110085370Y-82115790D01*
X110029752Y-82115061D01*
X109979868Y-82090456D01*
X109945438Y-82046771D01*
X109933173Y-81992521D01*
X109934422Y-76072999D01*
X114632496Y-76072999D01*
X114652458Y-76262929D01*
X114711472Y-76444556D01*
X114806958Y-76609942D01*
X114874174Y-76684593D01*
X114934747Y-76751866D01*
X115089248Y-76864118D01*
X115263712Y-76941794D01*
X115450513Y-76981500D01*
X115641485Y-76981500D01*
X115641487Y-76981500D01*
X115828288Y-76941794D01*
X116002752Y-76864118D01*
X116157253Y-76751866D01*
X116285040Y-76609944D01*
X116380527Y-76444556D01*
X116439542Y-76262928D01*
X116452567Y-76139000D01*
X116803596Y-76139000D01*
X116811952Y-76218500D01*
X116823558Y-76328929D01*
X116882572Y-76510556D01*
X116978058Y-76675942D01*
X117105847Y-76817866D01*
X117260348Y-76930118D01*
X117434812Y-77007794D01*
X117621613Y-77047500D01*
X117812585Y-77047500D01*
X117812587Y-77047500D01*
X117999388Y-77007794D01*
X118173852Y-76930118D01*
X118328353Y-76817866D01*
X118456140Y-76675944D01*
X118551627Y-76510556D01*
X118610642Y-76328928D01*
X118630604Y-76139000D01*
X118610642Y-75949072D01*
X118575852Y-75842000D01*
X125705619Y-75842000D01*
X125725091Y-76039701D01*
X125782758Y-76229802D01*
X125876406Y-76405007D01*
X126002431Y-76558568D01*
X126155992Y-76684593D01*
X126155996Y-76684595D01*
X126331196Y-76778241D01*
X126426247Y-76807074D01*
X126521298Y-76835908D01*
X126719000Y-76855380D01*
X126916701Y-76835908D01*
X127106804Y-76778241D01*
X127282004Y-76684595D01*
X127282005Y-76684593D01*
X127282007Y-76684593D01*
X127435568Y-76558568D01*
X127561593Y-76405007D01*
X127561595Y-76405004D01*
X127655241Y-76229804D01*
X127712908Y-76039701D01*
X127732380Y-75842000D01*
X127712908Y-75644299D01*
X127709042Y-75631556D01*
X127680073Y-75536056D01*
X127655241Y-75454196D01*
X127561595Y-75278996D01*
X127486040Y-75186932D01*
X127460732Y-75135612D01*
X127460732Y-75078388D01*
X127486040Y-75027067D01*
X127561595Y-74935004D01*
X127655241Y-74759804D01*
X127712908Y-74569701D01*
X127732380Y-74372000D01*
X127713210Y-74177370D01*
X127712908Y-74174298D01*
X127684074Y-74079247D01*
X127655241Y-73984196D01*
X127561595Y-73808996D01*
X127531176Y-73771930D01*
X127505868Y-73720609D01*
X127505869Y-73663385D01*
X127531178Y-73612065D01*
X127561595Y-73575004D01*
X127655241Y-73399804D01*
X127712908Y-73209701D01*
X127732380Y-73012000D01*
X127712908Y-72814299D01*
X127655241Y-72624196D01*
X127561595Y-72448996D01*
X127561593Y-72448992D01*
X127435568Y-72295431D01*
X127282007Y-72169406D01*
X127106802Y-72075758D01*
X126916701Y-72018091D01*
X126718999Y-71998619D01*
X126521298Y-72018091D01*
X126331197Y-72075758D01*
X126155992Y-72169406D01*
X126002431Y-72295431D01*
X125876406Y-72448992D01*
X125782758Y-72624197D01*
X125725091Y-72814298D01*
X125705619Y-73011999D01*
X125725091Y-73209701D01*
X125778892Y-73387056D01*
X125782759Y-73399804D01*
X125876405Y-73575004D01*
X125906822Y-73612067D01*
X125932131Y-73663389D01*
X125932131Y-73720611D01*
X125906822Y-73771933D01*
X125876404Y-73808997D01*
X125782758Y-73984197D01*
X125725091Y-74174298D01*
X125705619Y-74371999D01*
X125725091Y-74569701D01*
X125782758Y-74759802D01*
X125876404Y-74935003D01*
X125951958Y-75027065D01*
X125977267Y-75078387D01*
X125977268Y-75135610D01*
X125951959Y-75186932D01*
X125876404Y-75278996D01*
X125782758Y-75454197D01*
X125725091Y-75644298D01*
X125705619Y-75842000D01*
X118575852Y-75842000D01*
X118551627Y-75767444D01*
X118551627Y-75767443D01*
X118456141Y-75602057D01*
X118328352Y-75460133D01*
X118173853Y-75347883D01*
X118173852Y-75347882D01*
X117999388Y-75270206D01*
X117812587Y-75230500D01*
X117621613Y-75230500D01*
X117497078Y-75256970D01*
X117434811Y-75270206D01*
X117260346Y-75347883D01*
X117105847Y-75460133D01*
X116978058Y-75602057D01*
X116882572Y-75767443D01*
X116823558Y-75949070D01*
X116804669Y-76128794D01*
X116803596Y-76139000D01*
X116452567Y-76139000D01*
X116459504Y-76073000D01*
X116439542Y-75883072D01*
X116380527Y-75701444D01*
X116380527Y-75701443D01*
X116285041Y-75536057D01*
X116157252Y-75394133D01*
X116016207Y-75291658D01*
X116002752Y-75281882D01*
X115828288Y-75204206D01*
X115641487Y-75164500D01*
X115450513Y-75164500D01*
X115344970Y-75186934D01*
X115263711Y-75204206D01*
X115089246Y-75281883D01*
X114934747Y-75394133D01*
X114806958Y-75536057D01*
X114711472Y-75701443D01*
X114652458Y-75883070D01*
X114632496Y-76072999D01*
X109934422Y-76072999D01*
X109934678Y-74862103D01*
X109949956Y-74801997D01*
X109992064Y-74756457D01*
X110050798Y-74736525D01*
X110111922Y-74747029D01*
X110214712Y-74792794D01*
X110401513Y-74832500D01*
X110592485Y-74832500D01*
X110592487Y-74832500D01*
X110779288Y-74792794D01*
X110953752Y-74715118D01*
X111108253Y-74602866D01*
X111236040Y-74460944D01*
X111331527Y-74295556D01*
X111390542Y-74113928D01*
X111403836Y-73987440D01*
X116489637Y-73987440D01*
X116509599Y-74177370D01*
X116568613Y-74358997D01*
X116664099Y-74524383D01*
X116760218Y-74631134D01*
X116791888Y-74666307D01*
X116946389Y-74778559D01*
X117120853Y-74856235D01*
X117307654Y-74895941D01*
X117498626Y-74895941D01*
X117498628Y-74895941D01*
X117685429Y-74856235D01*
X117859893Y-74778559D01*
X118014394Y-74666307D01*
X118121818Y-74547000D01*
X120296496Y-74547000D01*
X120316458Y-74736929D01*
X120375472Y-74918556D01*
X120470958Y-75083942D01*
X120564662Y-75188011D01*
X120598747Y-75225866D01*
X120753248Y-75338118D01*
X120927712Y-75415794D01*
X121114513Y-75455500D01*
X121305485Y-75455500D01*
X121305487Y-75455500D01*
X121492288Y-75415794D01*
X121666752Y-75338118D01*
X121821253Y-75225866D01*
X121949040Y-75083944D01*
X122044527Y-74918556D01*
X122103542Y-74736928D01*
X122123504Y-74547000D01*
X122103542Y-74357072D01*
X122045153Y-74177370D01*
X122044527Y-74175443D01*
X121949041Y-74010057D01*
X121871555Y-73924000D01*
X121821253Y-73868134D01*
X121666752Y-73755882D01*
X121492288Y-73678206D01*
X121305487Y-73638500D01*
X121114513Y-73638500D01*
X120997439Y-73663385D01*
X120927711Y-73678206D01*
X120753246Y-73755883D01*
X120598747Y-73868133D01*
X120470958Y-74010057D01*
X120375472Y-74175443D01*
X120316458Y-74357070D01*
X120296496Y-74547000D01*
X118121818Y-74547000D01*
X118142181Y-74524385D01*
X118237668Y-74358997D01*
X118296683Y-74177369D01*
X118316645Y-73987441D01*
X118296683Y-73797513D01*
X118263374Y-73695000D01*
X118237668Y-73615884D01*
X118142182Y-73450498D01*
X118014393Y-73308574D01*
X117859894Y-73196324D01*
X117859893Y-73196323D01*
X117685429Y-73118647D01*
X117498628Y-73078941D01*
X117307654Y-73078941D01*
X117213153Y-73099028D01*
X117120852Y-73118647D01*
X116946387Y-73196324D01*
X116791888Y-73308574D01*
X116664099Y-73450498D01*
X116568613Y-73615884D01*
X116509599Y-73797511D01*
X116489637Y-73987440D01*
X111403836Y-73987440D01*
X111410504Y-73924000D01*
X111393145Y-73758844D01*
X111400357Y-73701758D01*
X111432202Y-73653828D01*
X111482037Y-73625056D01*
X111539468Y-73621443D01*
X111592515Y-73643741D01*
X111670248Y-73700218D01*
X111844712Y-73777894D01*
X112031513Y-73817600D01*
X112222485Y-73817600D01*
X112222487Y-73817600D01*
X112409288Y-73777894D01*
X112583752Y-73700218D01*
X112738253Y-73587966D01*
X112866040Y-73446044D01*
X112961527Y-73280656D01*
X113020542Y-73099028D01*
X113040504Y-72909100D01*
X113020542Y-72719172D01*
X112989931Y-72624962D01*
X112961527Y-72537543D01*
X112866041Y-72372157D01*
X112738252Y-72230233D01*
X112654529Y-72169405D01*
X112583752Y-72117982D01*
X112409288Y-72040306D01*
X112222487Y-72000600D01*
X112031513Y-72000600D01*
X111906978Y-72027070D01*
X111844711Y-72040306D01*
X111670246Y-72117983D01*
X111515747Y-72230233D01*
X111387958Y-72372157D01*
X111292472Y-72537543D01*
X111233458Y-72719170D01*
X111233457Y-72719172D01*
X111233458Y-72719172D01*
X111213496Y-72909100D01*
X111227862Y-73045789D01*
X111230854Y-73074251D01*
X111223641Y-73131341D01*
X111191797Y-73179271D01*
X111141962Y-73208043D01*
X111084531Y-73211657D01*
X111031483Y-73189357D01*
X110953753Y-73132883D01*
X110953752Y-73132882D01*
X110779288Y-73055206D01*
X110592487Y-73015500D01*
X110401513Y-73015500D01*
X110214712Y-73055206D01*
X110214710Y-73055206D01*
X110214709Y-73055207D01*
X110112322Y-73100792D01*
X110051181Y-73111296D01*
X109992438Y-73091350D01*
X109950333Y-73045789D01*
X109935074Y-72985661D01*
X109935678Y-70125999D01*
X115130496Y-70125999D01*
X115150458Y-70315929D01*
X115209472Y-70497556D01*
X115304958Y-70662942D01*
X115353421Y-70716766D01*
X115432747Y-70804866D01*
X115587248Y-70917118D01*
X115761712Y-70994794D01*
X115948513Y-71034500D01*
X116139485Y-71034500D01*
X116139487Y-71034500D01*
X116326288Y-70994794D01*
X116500752Y-70917118D01*
X116500755Y-70917115D01*
X116510547Y-70912756D01*
X116574968Y-70902553D01*
X116635858Y-70925928D01*
X116640248Y-70929118D01*
X116814712Y-71006794D01*
X117001513Y-71046500D01*
X117192485Y-71046500D01*
X117192487Y-71046500D01*
X117379288Y-71006794D01*
X117520527Y-70943910D01*
X117571774Y-70933017D01*
X117623022Y-70943909D01*
X117783296Y-71015268D01*
X117970097Y-71054974D01*
X118161069Y-71054974D01*
X118161071Y-71054974D01*
X118347872Y-71015268D01*
X118522336Y-70937592D01*
X118676837Y-70825340D01*
X118804624Y-70683418D01*
X118900111Y-70518030D01*
X118959126Y-70336402D01*
X118979088Y-70146474D01*
X118959126Y-69956546D01*
X118900111Y-69774918D01*
X118900111Y-69774917D01*
X118804625Y-69609531D01*
X118689345Y-69481500D01*
X118676837Y-69467608D01*
X118616064Y-69423454D01*
X118544044Y-69371128D01*
X118522336Y-69355356D01*
X118347872Y-69277680D01*
X118161071Y-69237974D01*
X117970097Y-69237974D01*
X117783296Y-69277680D01*
X117783294Y-69277680D01*
X117783293Y-69277681D01*
X117642056Y-69340563D01*
X117590808Y-69351456D01*
X117539560Y-69340563D01*
X117379290Y-69269207D01*
X117379288Y-69269206D01*
X117192487Y-69229500D01*
X117001513Y-69229500D01*
X116814712Y-69269206D01*
X116814710Y-69269206D01*
X116814709Y-69269207D01*
X116630452Y-69351243D01*
X116566034Y-69361446D01*
X116505145Y-69338074D01*
X116500752Y-69334882D01*
X116326288Y-69257206D01*
X116298968Y-69251399D01*
X116139487Y-69217500D01*
X115948513Y-69217500D01*
X115852191Y-69237974D01*
X115761711Y-69257206D01*
X115587246Y-69334883D01*
X115432747Y-69447133D01*
X115304958Y-69589057D01*
X115209472Y-69754443D01*
X115150458Y-69936070D01*
X115130496Y-70125999D01*
X109935678Y-70125999D01*
X109936081Y-68216117D01*
X109945263Y-68168932D01*
X109971451Y-68128615D01*
X110010829Y-68101044D01*
X110102752Y-68060118D01*
X110226788Y-67970000D01*
X114603496Y-67970000D01*
X114623458Y-68159929D01*
X114682472Y-68341556D01*
X114777958Y-68506942D01*
X114777960Y-68506944D01*
X114905747Y-68648866D01*
X115060248Y-68761118D01*
X115234712Y-68838794D01*
X115421513Y-68878500D01*
X115612485Y-68878500D01*
X115612487Y-68878500D01*
X115799288Y-68838794D01*
X115973752Y-68761118D01*
X116085263Y-68680100D01*
X119829496Y-68680100D01*
X119837109Y-68752534D01*
X119849458Y-68870029D01*
X119908472Y-69051656D01*
X120003958Y-69217042D01*
X120124793Y-69351243D01*
X120131747Y-69358966D01*
X120286248Y-69471218D01*
X120460712Y-69548894D01*
X120492133Y-69555572D01*
X120553461Y-69588180D01*
X120588192Y-69648335D01*
X120585768Y-69717754D01*
X120543458Y-69847969D01*
X120523496Y-70037899D01*
X120543458Y-70227829D01*
X120602472Y-70409456D01*
X120697958Y-70574842D01*
X120778709Y-70664525D01*
X120825747Y-70716766D01*
X120980248Y-70829018D01*
X121154712Y-70906694D01*
X121341513Y-70946400D01*
X121532485Y-70946400D01*
X121532487Y-70946400D01*
X121719288Y-70906694D01*
X121893752Y-70829018D01*
X122048253Y-70716766D01*
X122176040Y-70574844D01*
X122271527Y-70409456D01*
X122330542Y-70227828D01*
X122350504Y-70037900D01*
X122330542Y-69847972D01*
X122271527Y-69666344D01*
X122271527Y-69666343D01*
X122256294Y-69639959D01*
X122239586Y-69583553D01*
X122250306Y-69525710D01*
X122286119Y-69479039D01*
X122339213Y-69453712D01*
X122395288Y-69441794D01*
X122569752Y-69364118D01*
X122724253Y-69251866D01*
X122852040Y-69109944D01*
X122947527Y-68944556D01*
X123006542Y-68762928D01*
X123026504Y-68573000D01*
X123016263Y-68475561D01*
X126342763Y-68475561D01*
X126362725Y-68665491D01*
X126421739Y-68847118D01*
X126517225Y-69012504D01*
X126591316Y-69094790D01*
X126645014Y-69154428D01*
X126799515Y-69266680D01*
X126973979Y-69344356D01*
X127160780Y-69384062D01*
X127351752Y-69384062D01*
X127351754Y-69384062D01*
X127538555Y-69344356D01*
X127713019Y-69266680D01*
X127867520Y-69154428D01*
X127995307Y-69012506D01*
X128090794Y-68847118D01*
X128149809Y-68665490D01*
X128169771Y-68475562D01*
X128149809Y-68285634D01*
X128102067Y-68138700D01*
X128090795Y-68104008D01*
X128084299Y-68092757D01*
X128067418Y-68029756D01*
X128084300Y-67966755D01*
X128097406Y-67944056D01*
X128125244Y-67895839D01*
X128184259Y-67714211D01*
X128204221Y-67524283D01*
X128184259Y-67334355D01*
X128125244Y-67152727D01*
X128116143Y-67136963D01*
X128082873Y-67079338D01*
X128065992Y-67016337D01*
X128082872Y-66953338D01*
X128104828Y-66915312D01*
X128163843Y-66733684D01*
X128183805Y-66543756D01*
X128163843Y-66353828D01*
X128104828Y-66172200D01*
X128089320Y-66145339D01*
X128072439Y-66082338D01*
X128089321Y-66019338D01*
X128121527Y-65963557D01*
X128140701Y-65904542D01*
X128180542Y-65781928D01*
X128200504Y-65592000D01*
X128180542Y-65402072D01*
X128140878Y-65280000D01*
X128121527Y-65220443D01*
X128026041Y-65055057D01*
X127898252Y-64913133D01*
X127743753Y-64800883D01*
X127743752Y-64800882D01*
X127569288Y-64723206D01*
X127382487Y-64683500D01*
X127191513Y-64683500D01*
X127066979Y-64709970D01*
X127004711Y-64723206D01*
X126830246Y-64800883D01*
X126675747Y-64913133D01*
X126547958Y-65055057D01*
X126452472Y-65220443D01*
X126393458Y-65402070D01*
X126373496Y-65592000D01*
X126393458Y-65781929D01*
X126452472Y-65963556D01*
X126467981Y-65990419D01*
X126484860Y-66053416D01*
X126467980Y-66116414D01*
X126435774Y-66172198D01*
X126376759Y-66353826D01*
X126363720Y-66477883D01*
X126356797Y-66543756D01*
X126366485Y-66635928D01*
X126376759Y-66733685D01*
X126435773Y-66915312D01*
X126478144Y-66988700D01*
X126495025Y-67051700D01*
X126478145Y-67114699D01*
X126456189Y-67152728D01*
X126397175Y-67334353D01*
X126377213Y-67524283D01*
X126397175Y-67714212D01*
X126456189Y-67895837D01*
X126462685Y-67907089D01*
X126479564Y-67970087D01*
X126462684Y-68033085D01*
X126421740Y-68104004D01*
X126362725Y-68285632D01*
X126342763Y-68475561D01*
X123016263Y-68475561D01*
X123006542Y-68383072D01*
X122947527Y-68201444D01*
X122947527Y-68201443D01*
X122852041Y-68036057D01*
X122769203Y-67944056D01*
X122724253Y-67894134D01*
X122717163Y-67888983D01*
X122602870Y-67805944D01*
X122569752Y-67781882D01*
X122395288Y-67704206D01*
X122208487Y-67664500D01*
X122017513Y-67664500D01*
X121898101Y-67689882D01*
X121830711Y-67704206D01*
X121696616Y-67763909D01*
X121660314Y-67780072D01*
X121656246Y-67781883D01*
X121501746Y-67894133D01*
X121461032Y-67939351D01*
X121410490Y-67973441D01*
X121349861Y-67979813D01*
X121293336Y-67956975D01*
X121269079Y-67939351D01*
X121199752Y-67888982D01*
X121025288Y-67811306D01*
X120838487Y-67771600D01*
X120647513Y-67771600D01*
X120522978Y-67798070D01*
X120460711Y-67811306D01*
X120286246Y-67888983D01*
X120131747Y-68001233D01*
X120003958Y-68143157D01*
X119908472Y-68308543D01*
X119849458Y-68490170D01*
X119831031Y-68665491D01*
X119829496Y-68680100D01*
X116085263Y-68680100D01*
X116128253Y-68648866D01*
X116256040Y-68506944D01*
X116351527Y-68341556D01*
X116410542Y-68159928D01*
X116430504Y-67970000D01*
X116410542Y-67780072D01*
X116351527Y-67598444D01*
X116351527Y-67598443D01*
X116256039Y-67433054D01*
X116223136Y-67396511D01*
X116192686Y-67334080D01*
X116199947Y-67265000D01*
X116242709Y-67210266D01*
X116360253Y-67124866D01*
X116488040Y-66982944D01*
X116583527Y-66817556D01*
X116642542Y-66635928D01*
X116662504Y-66446000D01*
X116642542Y-66256072D01*
X116597164Y-66116414D01*
X116583527Y-66074443D01*
X116488041Y-65909057D01*
X116373574Y-65781929D01*
X116360253Y-65767134D01*
X116205752Y-65654882D01*
X116031288Y-65577206D01*
X115844487Y-65537500D01*
X115653513Y-65537500D01*
X115528979Y-65563970D01*
X115466711Y-65577206D01*
X115292246Y-65654883D01*
X115137747Y-65767133D01*
X115009958Y-65909057D01*
X114914472Y-66074443D01*
X114855458Y-66256070D01*
X114835496Y-66446000D01*
X114855458Y-66635929D01*
X114914472Y-66817556D01*
X115009960Y-66982945D01*
X115042863Y-67019488D01*
X115073313Y-67081918D01*
X115066052Y-67150998D01*
X115023289Y-67205734D01*
X115017053Y-67210265D01*
X114922399Y-67279036D01*
X114905746Y-67291135D01*
X114777958Y-67433057D01*
X114682472Y-67598443D01*
X114623458Y-67780070D01*
X114603496Y-67970000D01*
X110226788Y-67970000D01*
X110257253Y-67947866D01*
X110385040Y-67805944D01*
X110480527Y-67640556D01*
X110539542Y-67458928D01*
X110559504Y-67269000D01*
X110539542Y-67079072D01*
X110486333Y-66915312D01*
X110480527Y-66897443D01*
X110385041Y-66732057D01*
X110257252Y-66590133D01*
X110102753Y-66477883D01*
X110102752Y-66477882D01*
X110011231Y-66437134D01*
X109971838Y-66409548D01*
X109945649Y-66369212D01*
X109936481Y-66322005D01*
X109936850Y-64578094D01*
X109946445Y-64529897D01*
X109973749Y-64489037D01*
X110252861Y-64209926D01*
X110361672Y-64079593D01*
X110473468Y-63882566D01*
X110548288Y-63668745D01*
X110583725Y-63445000D01*
X110578642Y-63218523D01*
X110533202Y-62996593D01*
X110448865Y-62786343D01*
X110448863Y-62786341D01*
X110448863Y-62786339D01*
X110328343Y-62594533D01*
X110241935Y-62500000D01*
X130386496Y-62500000D01*
X130406458Y-62689929D01*
X130465472Y-62871556D01*
X130560958Y-63036942D01*
X130560960Y-63036944D01*
X130688747Y-63178866D01*
X130843248Y-63291118D01*
X131017712Y-63368794D01*
X131204513Y-63408500D01*
X131395485Y-63408500D01*
X131395487Y-63408500D01*
X131582288Y-63368794D01*
X131756752Y-63291118D01*
X131911253Y-63178866D01*
X132039040Y-63036944D01*
X132134527Y-62871556D01*
X132193542Y-62689928D01*
X132213504Y-62500000D01*
X132193542Y-62310072D01*
X132147159Y-62167321D01*
X132134527Y-62128443D01*
X132039041Y-61963057D01*
X131911252Y-61821133D01*
X131798108Y-61738929D01*
X131756752Y-61708882D01*
X131582288Y-61631206D01*
X131395487Y-61591500D01*
X131204513Y-61591500D01*
X131079979Y-61617970D01*
X131017711Y-61631206D01*
X130843246Y-61708883D01*
X130688747Y-61821133D01*
X130560958Y-61963057D01*
X130465472Y-62128443D01*
X130406458Y-62310070D01*
X130386496Y-62500000D01*
X110241935Y-62500000D01*
X110214514Y-62470000D01*
X110175505Y-62427322D01*
X110175504Y-62427321D01*
X110175503Y-62427320D01*
X109987026Y-62283814D01*
X109950448Y-62239493D01*
X109937355Y-62183540D01*
X109937552Y-61250000D01*
X111598496Y-61250000D01*
X111618458Y-61439929D01*
X111677472Y-61621556D01*
X111772958Y-61786942D01*
X111852697Y-61875501D01*
X111900747Y-61928866D01*
X112055248Y-62041118D01*
X112229712Y-62118794D01*
X112416513Y-62158500D01*
X112607485Y-62158500D01*
X112607487Y-62158500D01*
X112794288Y-62118794D01*
X112968752Y-62041118D01*
X113123253Y-61928866D01*
X113251040Y-61786944D01*
X113346527Y-61621556D01*
X113369453Y-61550999D01*
X123533496Y-61550999D01*
X123553458Y-61740929D01*
X123612472Y-61922556D01*
X123707958Y-62087942D01*
X123735737Y-62118794D01*
X123835747Y-62229866D01*
X123990248Y-62342118D01*
X124164712Y-62419794D01*
X124351513Y-62459500D01*
X124542485Y-62459500D01*
X124542487Y-62459500D01*
X124729288Y-62419794D01*
X124903752Y-62342118D01*
X125058253Y-62229866D01*
X125186040Y-62087944D01*
X125281527Y-61922556D01*
X125340542Y-61740928D01*
X125360504Y-61551000D01*
X125360294Y-61549000D01*
X127146496Y-61549000D01*
X127166458Y-61738929D01*
X127225472Y-61920556D01*
X127320958Y-62085942D01*
X127394232Y-62167321D01*
X127448747Y-62227866D01*
X127603248Y-62340118D01*
X127777712Y-62417794D01*
X127964513Y-62457500D01*
X128155485Y-62457500D01*
X128155487Y-62457500D01*
X128342288Y-62417794D01*
X128516752Y-62340118D01*
X128671253Y-62227866D01*
X128799040Y-62085944D01*
X128894527Y-61920556D01*
X128953542Y-61738928D01*
X128973504Y-61549000D01*
X128953542Y-61359072D01*
X128894527Y-61177444D01*
X128894527Y-61177443D01*
X128799041Y-61012057D01*
X128671252Y-60870133D01*
X128519506Y-60759883D01*
X128516752Y-60757882D01*
X128342288Y-60680206D01*
X128155487Y-60640500D01*
X127964513Y-60640500D01*
X127839978Y-60666970D01*
X127777711Y-60680206D01*
X127603246Y-60757883D01*
X127448747Y-60870133D01*
X127320958Y-61012057D01*
X127225472Y-61177443D01*
X127166458Y-61359070D01*
X127146496Y-61549000D01*
X125360294Y-61549000D01*
X125340542Y-61361072D01*
X125281527Y-61179444D01*
X125281527Y-61179443D01*
X125186041Y-61014057D01*
X125122146Y-60943094D01*
X125058253Y-60872134D01*
X125055500Y-60870134D01*
X124903753Y-60759883D01*
X124903752Y-60759882D01*
X124729288Y-60682206D01*
X124542487Y-60642500D01*
X124351513Y-60642500D01*
X124226978Y-60668970D01*
X124164711Y-60682206D01*
X123990246Y-60759883D01*
X123835747Y-60872133D01*
X123707958Y-61014057D01*
X123612472Y-61179443D01*
X123553458Y-61361070D01*
X123533496Y-61550999D01*
X113369453Y-61550999D01*
X113405542Y-61439928D01*
X113425504Y-61250000D01*
X113405542Y-61060072D01*
X113346527Y-60878444D01*
X113346527Y-60878443D01*
X113251041Y-60713057D01*
X113123252Y-60571133D01*
X113046002Y-60515007D01*
X112968752Y-60458882D01*
X112794288Y-60381206D01*
X112607487Y-60341500D01*
X112416513Y-60341500D01*
X112291978Y-60367970D01*
X112229711Y-60381206D01*
X112055246Y-60458883D01*
X111900747Y-60571133D01*
X111772958Y-60713057D01*
X111677472Y-60878443D01*
X111618458Y-61060070D01*
X111598496Y-61250000D01*
X109937552Y-61250000D01*
X109938072Y-58789659D01*
X124840393Y-58789659D01*
X124870668Y-58961355D01*
X124939721Y-59121439D01*
X125043830Y-59261281D01*
X125043831Y-59261282D01*
X125043832Y-59261283D01*
X125080850Y-59292345D01*
X125177385Y-59373349D01*
X125255977Y-59412819D01*
X125333185Y-59451594D01*
X125502829Y-59491800D01*
X125633436Y-59491800D01*
X125763164Y-59476637D01*
X125926993Y-59417008D01*
X126072654Y-59321205D01*
X126192296Y-59194393D01*
X126279467Y-59043407D01*
X126329469Y-58876388D01*
X126339607Y-58702340D01*
X126309332Y-58530646D01*
X126240279Y-58370562D01*
X126230442Y-58357349D01*
X126136169Y-58230718D01*
X126002614Y-58118650D01*
X125846817Y-58040407D01*
X125846816Y-58040406D01*
X125846815Y-58040406D01*
X125677171Y-58000200D01*
X125546564Y-58000200D01*
X125416834Y-58015363D01*
X125253006Y-58074991D01*
X125107348Y-58170792D01*
X124987703Y-58297607D01*
X124900533Y-58448593D01*
X124850531Y-58615612D01*
X124840393Y-58789659D01*
X109938072Y-58789659D01*
X109938286Y-57773660D01*
X129920393Y-57773660D01*
X129935530Y-57859507D01*
X129950668Y-57945355D01*
X130019721Y-58105439D01*
X130123830Y-58245281D01*
X130257385Y-58357349D01*
X130283691Y-58370560D01*
X130413185Y-58435594D01*
X130582829Y-58475800D01*
X130713436Y-58475800D01*
X130843164Y-58460637D01*
X131006993Y-58401008D01*
X131152654Y-58305205D01*
X131272296Y-58178393D01*
X131359467Y-58027407D01*
X131409469Y-57860388D01*
X131419607Y-57686340D01*
X131389332Y-57514646D01*
X131320279Y-57354562D01*
X131310442Y-57341349D01*
X131216169Y-57214718D01*
X131082614Y-57102650D01*
X130926817Y-57024407D01*
X130926816Y-57024406D01*
X130926815Y-57024406D01*
X130757171Y-56984200D01*
X130626564Y-56984200D01*
X130496834Y-56999363D01*
X130333006Y-57058991D01*
X130187348Y-57154792D01*
X130067703Y-57281607D01*
X130008006Y-57385008D01*
X129980533Y-57432593D01*
X129930531Y-57599612D01*
X129920393Y-57773660D01*
X109938286Y-57773660D01*
X109938838Y-55159999D01*
X113316496Y-55159999D01*
X113336458Y-55349929D01*
X113395472Y-55531556D01*
X113490958Y-55696942D01*
X113490960Y-55696944D01*
X113618747Y-55838866D01*
X113773248Y-55951118D01*
X113947712Y-56028794D01*
X114134513Y-56068500D01*
X114325485Y-56068500D01*
X114325487Y-56068500D01*
X114512288Y-56028794D01*
X114686752Y-55951118D01*
X114841253Y-55838866D01*
X114969040Y-55696944D01*
X115064527Y-55531556D01*
X115123542Y-55349928D01*
X115143504Y-55160000D01*
X115123542Y-54970072D01*
X115077524Y-54828444D01*
X115064527Y-54788443D01*
X115028475Y-54725999D01*
X119762496Y-54725999D01*
X119782458Y-54915929D01*
X119841472Y-55097556D01*
X119936958Y-55262942D01*
X120024414Y-55360072D01*
X120064747Y-55404866D01*
X120219248Y-55517118D01*
X120393712Y-55594794D01*
X120580513Y-55634500D01*
X120771485Y-55634500D01*
X120771487Y-55634500D01*
X120958288Y-55594794D01*
X121132752Y-55517118D01*
X121287253Y-55404866D01*
X121415040Y-55262944D01*
X121509117Y-55099999D01*
X123916496Y-55099999D01*
X123936458Y-55289929D01*
X123995472Y-55471556D01*
X124090958Y-55636942D01*
X124090960Y-55636944D01*
X124218747Y-55778866D01*
X124373248Y-55891118D01*
X124547712Y-55968794D01*
X124734513Y-56008500D01*
X124734515Y-56008500D01*
X124938171Y-56008500D01*
X124994720Y-56021902D01*
X125039239Y-56059258D01*
X125062257Y-56112620D01*
X125058878Y-56170637D01*
X125029820Y-56220967D01*
X124987703Y-56265607D01*
X124900533Y-56416593D01*
X124850531Y-56583612D01*
X124840393Y-56757659D01*
X124870668Y-56929355D01*
X124939721Y-57089439D01*
X125043830Y-57229281D01*
X125177385Y-57341349D01*
X125203691Y-57354560D01*
X125333185Y-57419594D01*
X125502829Y-57459800D01*
X125633436Y-57459800D01*
X125763164Y-57444637D01*
X125926993Y-57385008D01*
X126072654Y-57289205D01*
X126192296Y-57162393D01*
X126279467Y-57011407D01*
X126329469Y-56844388D01*
X126339607Y-56670340D01*
X126309332Y-56498646D01*
X126240279Y-56338562D01*
X126159457Y-56230000D01*
X126136169Y-56198718D01*
X126125779Y-56190000D01*
X126102704Y-56170637D01*
X126002614Y-56086650D01*
X125846817Y-56008407D01*
X125846816Y-56008406D01*
X125846815Y-56008406D01*
X125677171Y-55968200D01*
X125553777Y-55968200D01*
X125497753Y-55955060D01*
X125453414Y-55918380D01*
X125430009Y-55865810D01*
X125432419Y-55808316D01*
X125460141Y-55757890D01*
X125569039Y-55636945D01*
X125619238Y-55549999D01*
X127206496Y-55549999D01*
X127226458Y-55739929D01*
X127285472Y-55921556D01*
X127380958Y-56086942D01*
X127380960Y-56086944D01*
X127508747Y-56228866D01*
X127663248Y-56341118D01*
X127837712Y-56418794D01*
X128024513Y-56458500D01*
X128215485Y-56458500D01*
X128215487Y-56458500D01*
X128402288Y-56418794D01*
X128576752Y-56341118D01*
X128731253Y-56228866D01*
X128859040Y-56086944D01*
X128954527Y-55921556D01*
X129013542Y-55739928D01*
X129033504Y-55550000D01*
X129013542Y-55360072D01*
X128954527Y-55178444D01*
X128954527Y-55178443D01*
X128859041Y-55013057D01*
X128731252Y-54871133D01*
X128576753Y-54758883D01*
X128576752Y-54758882D01*
X128402288Y-54681206D01*
X128215487Y-54641500D01*
X128024513Y-54641500D01*
X127899978Y-54667970D01*
X127837711Y-54681206D01*
X127663246Y-54758883D01*
X127508747Y-54871133D01*
X127380958Y-55013057D01*
X127285472Y-55178443D01*
X127226458Y-55360070D01*
X127206496Y-55549999D01*
X125619238Y-55549999D01*
X125664527Y-55471556D01*
X125686196Y-55404866D01*
X125723542Y-55289928D01*
X125743504Y-55100000D01*
X125723542Y-54910072D01*
X125684022Y-54788443D01*
X125664527Y-54728443D01*
X125569041Y-54563057D01*
X125441252Y-54421133D01*
X125286753Y-54308883D01*
X125286752Y-54308882D01*
X125112288Y-54231206D01*
X124925487Y-54191500D01*
X124734513Y-54191500D01*
X124647478Y-54210000D01*
X124547711Y-54231206D01*
X124373246Y-54308883D01*
X124218747Y-54421133D01*
X124090958Y-54563057D01*
X123995472Y-54728443D01*
X123936458Y-54910070D01*
X123916496Y-55099999D01*
X121509117Y-55099999D01*
X121510527Y-55097556D01*
X121569542Y-54915928D01*
X121589504Y-54726000D01*
X121569542Y-54536072D01*
X121515219Y-54368883D01*
X121510527Y-54354443D01*
X121415041Y-54189057D01*
X121287252Y-54047133D01*
X121132753Y-53934883D01*
X121132752Y-53934882D01*
X120958288Y-53857206D01*
X120771487Y-53817500D01*
X120580513Y-53817500D01*
X120481980Y-53838444D01*
X120393711Y-53857206D01*
X120219246Y-53934883D01*
X120064747Y-54047133D01*
X119936958Y-54189057D01*
X119841472Y-54354443D01*
X119782458Y-54536070D01*
X119762496Y-54725999D01*
X115028475Y-54725999D01*
X114969041Y-54623057D01*
X114841252Y-54481133D01*
X114729483Y-54399928D01*
X114686752Y-54368882D01*
X114512288Y-54291206D01*
X114325487Y-54251500D01*
X114134513Y-54251500D01*
X114009978Y-54277970D01*
X113947711Y-54291206D01*
X113773246Y-54368883D01*
X113618747Y-54481133D01*
X113490958Y-54623057D01*
X113395472Y-54788443D01*
X113336458Y-54970070D01*
X113316496Y-55159999D01*
X109938838Y-55159999D01*
X109939708Y-51042124D01*
X109952516Y-50986806D01*
X109988316Y-50942725D01*
X109991570Y-50940192D01*
X109991576Y-50940189D01*
X110169240Y-50801906D01*
X110321722Y-50636268D01*
X110410518Y-50500354D01*
X110456031Y-50458458D01*
X110516000Y-50443272D01*
X110575969Y-50458458D01*
X110621481Y-50500354D01*
X110688543Y-50603000D01*
X110710278Y-50636268D01*
X110862762Y-50801908D01*
X111040421Y-50940187D01*
X111040424Y-50940189D01*
X111238426Y-51047342D01*
X111451365Y-51120444D01*
X111673431Y-51157500D01*
X111898566Y-51157500D01*
X111898569Y-51157500D01*
X112120635Y-51120444D01*
X112333574Y-51047342D01*
X112531576Y-50940189D01*
X112709240Y-50801906D01*
X112861722Y-50636268D01*
X112950518Y-50500354D01*
X112996031Y-50458458D01*
X113056000Y-50443272D01*
X113115969Y-50458458D01*
X113161481Y-50500354D01*
X113228543Y-50603000D01*
X113250278Y-50636268D01*
X113402762Y-50801908D01*
X113580421Y-50940187D01*
X113580424Y-50940189D01*
X113778426Y-51047342D01*
X113991365Y-51120444D01*
X114213431Y-51157500D01*
X114438566Y-51157500D01*
X114438569Y-51157500D01*
X114660635Y-51120444D01*
X114873574Y-51047342D01*
X115071576Y-50940189D01*
X115249240Y-50801906D01*
X115401722Y-50636268D01*
X115490818Y-50499896D01*
X115536329Y-50457999D01*
X115596299Y-50442813D01*
X115656268Y-50457999D01*
X115701782Y-50499897D01*
X115790678Y-50635962D01*
X115943096Y-50801533D01*
X116120697Y-50939766D01*
X116318631Y-51046883D01*
X116531485Y-51119955D01*
X116612000Y-51133391D01*
X116612000Y-49671000D01*
X116614947Y-49660000D01*
X117117053Y-49660000D01*
X117120000Y-49671000D01*
G37*
%TD.AperFunction*%
%TD*%
M02*
