%TF.GenerationSoftware,KiCad,Pcbnew,7.0.8*%
%TF.CreationDate,2023-11-18T18:08:07-05:00*%
%TF.ProjectId,bitaxeUltra,62697461-7865-4556-9c74-72612e6b6963,rev?*%
%TF.SameCoordinates,Original*%
%TF.FileFunction,Legend,Top*%
%TF.FilePolarity,Positive*%
%FSLAX46Y46*%
G04 Gerber Fmt 4.6, Leading zero omitted, Abs format (unit mm)*
G04 Created by KiCad (PCBNEW 7.0.8) date 2023-11-18 18:08:07*
%MOMM*%
%LPD*%
G01*
G04 APERTURE LIST*
G04 Aperture macros list*
%AMRoundRect*
0 Rectangle with rounded corners*
0 $1 Rounding radius*
0 $2 $3 $4 $5 $6 $7 $8 $9 X,Y pos of 4 corners*
0 Add a 4 corners polygon primitive as box body*
4,1,4,$2,$3,$4,$5,$6,$7,$8,$9,$2,$3,0*
0 Add four circle primitives for the rounded corners*
1,1,$1+$1,$2,$3*
1,1,$1+$1,$4,$5*
1,1,$1+$1,$6,$7*
1,1,$1+$1,$8,$9*
0 Add four rect primitives between the rounded corners*
20,1,$1+$1,$2,$3,$4,$5,0*
20,1,$1+$1,$4,$5,$6,$7,0*
20,1,$1+$1,$6,$7,$8,$9,0*
20,1,$1+$1,$8,$9,$2,$3,0*%
%AMFreePoly0*
4,1,35,0.005000,-4.560000,0.003536,-4.563536,0.000000,-4.565000,-5.000000,-4.565000,-5.003536,-4.563536,-5.005000,-4.560000,-5.005000,-3.898000,-5.003536,-3.894464,-5.000000,-3.893000,-4.325000,-3.893000,-4.325000,-3.269700,-5.000000,-3.269700,-5.003536,-3.268236,-5.005000,-3.264700,-5.005000,-2.599700,-5.003536,-2.596164,-5.000000,-2.594700,-4.325000,-2.594700,-4.325000,-1.971400,-5.000000,-1.971400,
-5.003536,-1.969936,-5.005000,-1.966400,-5.005000,-1.301400,-5.003536,-1.297864,-5.000000,-1.296400,-4.325000,-1.296400,-4.325000,-0.673100,-5.000000,-0.673100,-5.003536,-0.671636,-5.005000,-0.668100,-5.005000,0.000000,-5.003536,0.003536,-5.000000,0.005000,0.005000,0.005000,0.005000,-4.560000,0.005000,-4.560000,$1*%
%AMFreePoly1*
4,1,45,-0.124646,1.700354,-0.124500,1.700000,-0.124500,1.200500,0.124500,1.200500,0.124500,1.700000,0.124646,1.700354,0.125000,1.700500,0.375000,1.700500,0.375354,1.700354,0.375500,1.700000,0.375500,1.200500,0.825000,1.200500,0.825354,1.200354,0.825500,1.200000,0.825500,-1.200000,0.825354,-1.200354,0.825000,-1.200500,0.375500,-1.200500,0.375500,-1.700000,0.375354,-1.700354,
0.375000,-1.700500,0.125000,-1.700500,0.124646,-1.700354,0.124500,-1.700000,0.124500,-1.200500,-0.124500,-1.200500,-0.124500,-1.700000,-0.124646,-1.700354,-0.125000,-1.700500,-0.375000,-1.700500,-0.375354,-1.700354,-0.375500,-1.700000,-0.375500,-1.200500,-0.825000,-1.200500,-0.825354,-1.200354,-0.825500,-1.200000,-0.825500,1.200000,-0.825354,1.200354,-0.825000,1.200500,-0.375500,1.200500,
-0.375500,1.700000,-0.375354,1.700354,-0.375000,1.700500,-0.125000,1.700500,-0.124646,1.700354,-0.124646,1.700354,$1*%
G04 Aperture macros list end*
%ADD10C,0.150000*%
%ADD11C,0.120000*%
%ADD12C,0.100000*%
%ADD13C,0.310599*%
%ADD14C,0.254165*%
%ADD15C,0.127000*%
%ADD16C,0.200000*%
%ADD17C,0.280227*%
%ADD18C,0.306982*%
%ADD19C,0.313180*%
%ADD20RoundRect,0.250000X0.250000X0.475000X-0.250000X0.475000X-0.250000X-0.475000X0.250000X-0.475000X0*%
%ADD21RoundRect,0.140000X0.140000X0.170000X-0.140000X0.170000X-0.140000X-0.170000X0.140000X-0.170000X0*%
%ADD22RoundRect,0.250000X-1.000000X-0.650000X1.000000X-0.650000X1.000000X0.650000X-1.000000X0.650000X0*%
%ADD23RoundRect,0.100000X-0.637500X-0.100000X0.637500X-0.100000X0.637500X0.100000X-0.637500X0.100000X0*%
%ADD24RoundRect,0.140000X-0.170000X0.140000X-0.170000X-0.140000X0.170000X-0.140000X0.170000X0.140000X0*%
%ADD25C,2.000000*%
%ADD26RoundRect,0.135000X-0.185000X0.135000X-0.185000X-0.135000X0.185000X-0.135000X0.185000X0.135000X0*%
%ADD27RoundRect,0.135000X0.135000X0.185000X-0.135000X0.185000X-0.135000X-0.185000X0.135000X-0.185000X0*%
%ADD28C,1.500000*%
%ADD29R,0.700000X0.450000*%
%ADD30C,3.000000*%
%ADD31RoundRect,0.250000X-0.475000X0.250000X-0.475000X-0.250000X0.475000X-0.250000X0.475000X0.250000X0*%
%ADD32RoundRect,0.250000X-0.250000X-0.475000X0.250000X-0.475000X0.250000X0.475000X-0.250000X0.475000X0*%
%ADD33R,1.168400X1.600200*%
%ADD34RoundRect,0.150000X-0.512500X-0.150000X0.512500X-0.150000X0.512500X0.150000X-0.512500X0.150000X0*%
%ADD35RoundRect,0.140000X0.170000X-0.140000X0.170000X0.140000X-0.170000X0.140000X-0.170000X-0.140000X0*%
%ADD36R,0.400000X1.100000*%
%ADD37RoundRect,0.140000X-0.140000X-0.170000X0.140000X-0.170000X0.140000X0.170000X-0.140000X0.170000X0*%
%ADD38C,0.800000*%
%ADD39C,6.000000*%
%ADD40RoundRect,0.007800X-0.122200X0.442200X-0.122200X-0.442200X0.122200X-0.442200X0.122200X0.442200X0*%
%ADD41RoundRect,0.007800X-0.442200X-0.122200X0.442200X-0.122200X0.442200X0.122200X-0.442200X0.122200X0*%
%ADD42R,2.050000X2.050000*%
%ADD43R,3.100000X2.000000*%
%ADD44RoundRect,0.135000X0.185000X-0.135000X0.185000X0.135000X-0.185000X0.135000X-0.185000X-0.135000X0*%
%ADD45R,1.100000X0.400000*%
%ADD46RoundRect,0.135000X-0.135000X-0.185000X0.135000X-0.185000X0.135000X0.185000X-0.135000X0.185000X0*%
%ADD47RoundRect,0.250000X-1.025000X0.875000X-1.025000X-0.875000X1.025000X-0.875000X1.025000X0.875000X0*%
%ADD48R,0.700000X0.800000*%
%ADD49FreePoly0,270.000000*%
%ADD50RoundRect,0.050000X-0.070000X0.250000X-0.070000X-0.250000X0.070000X-0.250000X0.070000X0.250000X0*%
%ADD51C,0.400000*%
%ADD52FreePoly1,270.000000*%
%ADD53R,1.600000X2.700000*%
%ADD54FreePoly0,90.000000*%
%ADD55RoundRect,0.250000X-0.325000X-1.100000X0.325000X-1.100000X0.325000X1.100000X-0.325000X1.100000X0*%
%ADD56R,1.100000X1.300000*%
%ADD57RoundRect,0.250000X0.325000X0.650000X-0.325000X0.650000X-0.325000X-0.650000X0.325000X-0.650000X0*%
%ADD58R,0.952500X0.558800*%
%ADD59C,1.295400*%
%ADD60C,1.574800*%
%ADD61R,1.700000X1.700000*%
%ADD62O,1.700000X1.700000*%
%ADD63O,2.100000X1.000000*%
%ADD64O,1.800000X1.000000*%
%ADD65C,0.650000*%
%ADD66C,0.990600*%
%ADD67C,1.600000*%
%ADD68C,1.800000*%
%ADD69RoundRect,0.250000X-0.750000X0.600000X-0.750000X-0.600000X0.750000X-0.600000X0.750000X0.600000X0*%
%ADD70O,2.000000X1.700000*%
G04 APERTURE END LIST*
D10*
X106387142Y-71439580D02*
X106339523Y-71487200D01*
X106339523Y-71487200D02*
X106196666Y-71534819D01*
X106196666Y-71534819D02*
X106101428Y-71534819D01*
X106101428Y-71534819D02*
X105958571Y-71487200D01*
X105958571Y-71487200D02*
X105863333Y-71391961D01*
X105863333Y-71391961D02*
X105815714Y-71296723D01*
X105815714Y-71296723D02*
X105768095Y-71106247D01*
X105768095Y-71106247D02*
X105768095Y-70963390D01*
X105768095Y-70963390D02*
X105815714Y-70772914D01*
X105815714Y-70772914D02*
X105863333Y-70677676D01*
X105863333Y-70677676D02*
X105958571Y-70582438D01*
X105958571Y-70582438D02*
X106101428Y-70534819D01*
X106101428Y-70534819D02*
X106196666Y-70534819D01*
X106196666Y-70534819D02*
X106339523Y-70582438D01*
X106339523Y-70582438D02*
X106387142Y-70630057D01*
X107244285Y-70868152D02*
X107244285Y-71534819D01*
X107006190Y-70487200D02*
X106768095Y-71201485D01*
X106768095Y-71201485D02*
X107387142Y-71201485D01*
X107672857Y-70534819D02*
X108291904Y-70534819D01*
X108291904Y-70534819D02*
X107958571Y-70915771D01*
X107958571Y-70915771D02*
X108101428Y-70915771D01*
X108101428Y-70915771D02*
X108196666Y-70963390D01*
X108196666Y-70963390D02*
X108244285Y-71011009D01*
X108244285Y-71011009D02*
X108291904Y-71106247D01*
X108291904Y-71106247D02*
X108291904Y-71344342D01*
X108291904Y-71344342D02*
X108244285Y-71439580D01*
X108244285Y-71439580D02*
X108196666Y-71487200D01*
X108196666Y-71487200D02*
X108101428Y-71534819D01*
X108101428Y-71534819D02*
X107815714Y-71534819D01*
X107815714Y-71534819D02*
X107720476Y-71487200D01*
X107720476Y-71487200D02*
X107672857Y-71439580D01*
X118437142Y-103899580D02*
X118389523Y-103947200D01*
X118389523Y-103947200D02*
X118246666Y-103994819D01*
X118246666Y-103994819D02*
X118151428Y-103994819D01*
X118151428Y-103994819D02*
X118008571Y-103947200D01*
X118008571Y-103947200D02*
X117913333Y-103851961D01*
X117913333Y-103851961D02*
X117865714Y-103756723D01*
X117865714Y-103756723D02*
X117818095Y-103566247D01*
X117818095Y-103566247D02*
X117818095Y-103423390D01*
X117818095Y-103423390D02*
X117865714Y-103232914D01*
X117865714Y-103232914D02*
X117913333Y-103137676D01*
X117913333Y-103137676D02*
X118008571Y-103042438D01*
X118008571Y-103042438D02*
X118151428Y-102994819D01*
X118151428Y-102994819D02*
X118246666Y-102994819D01*
X118246666Y-102994819D02*
X118389523Y-103042438D01*
X118389523Y-103042438D02*
X118437142Y-103090057D01*
X119389523Y-103994819D02*
X118818095Y-103994819D01*
X119103809Y-103994819D02*
X119103809Y-102994819D01*
X119103809Y-102994819D02*
X119008571Y-103137676D01*
X119008571Y-103137676D02*
X118913333Y-103232914D01*
X118913333Y-103232914D02*
X118818095Y-103280533D01*
X119865714Y-103994819D02*
X120056190Y-103994819D01*
X120056190Y-103994819D02*
X120151428Y-103947200D01*
X120151428Y-103947200D02*
X120199047Y-103899580D01*
X120199047Y-103899580D02*
X120294285Y-103756723D01*
X120294285Y-103756723D02*
X120341904Y-103566247D01*
X120341904Y-103566247D02*
X120341904Y-103185295D01*
X120341904Y-103185295D02*
X120294285Y-103090057D01*
X120294285Y-103090057D02*
X120246666Y-103042438D01*
X120246666Y-103042438D02*
X120151428Y-102994819D01*
X120151428Y-102994819D02*
X119960952Y-102994819D01*
X119960952Y-102994819D02*
X119865714Y-103042438D01*
X119865714Y-103042438D02*
X119818095Y-103090057D01*
X119818095Y-103090057D02*
X119770476Y-103185295D01*
X119770476Y-103185295D02*
X119770476Y-103423390D01*
X119770476Y-103423390D02*
X119818095Y-103518628D01*
X119818095Y-103518628D02*
X119865714Y-103566247D01*
X119865714Y-103566247D02*
X119960952Y-103613866D01*
X119960952Y-103613866D02*
X120151428Y-103613866D01*
X120151428Y-103613866D02*
X120246666Y-103566247D01*
X120246666Y-103566247D02*
X120294285Y-103518628D01*
X120294285Y-103518628D02*
X120341904Y-103423390D01*
X118641905Y-86346819D02*
X118641905Y-85346819D01*
X118641905Y-85346819D02*
X118880000Y-85346819D01*
X118880000Y-85346819D02*
X119022857Y-85394438D01*
X119022857Y-85394438D02*
X119118095Y-85489676D01*
X119118095Y-85489676D02*
X119165714Y-85584914D01*
X119165714Y-85584914D02*
X119213333Y-85775390D01*
X119213333Y-85775390D02*
X119213333Y-85918247D01*
X119213333Y-85918247D02*
X119165714Y-86108723D01*
X119165714Y-86108723D02*
X119118095Y-86203961D01*
X119118095Y-86203961D02*
X119022857Y-86299200D01*
X119022857Y-86299200D02*
X118880000Y-86346819D01*
X118880000Y-86346819D02*
X118641905Y-86346819D01*
X120165714Y-86346819D02*
X119594286Y-86346819D01*
X119880000Y-86346819D02*
X119880000Y-85346819D01*
X119880000Y-85346819D02*
X119784762Y-85489676D01*
X119784762Y-85489676D02*
X119689524Y-85584914D01*
X119689524Y-85584914D02*
X119594286Y-85632533D01*
X80648095Y-84584819D02*
X80648095Y-85394342D01*
X80648095Y-85394342D02*
X80695714Y-85489580D01*
X80695714Y-85489580D02*
X80743333Y-85537200D01*
X80743333Y-85537200D02*
X80838571Y-85584819D01*
X80838571Y-85584819D02*
X81029047Y-85584819D01*
X81029047Y-85584819D02*
X81124285Y-85537200D01*
X81124285Y-85537200D02*
X81171904Y-85489580D01*
X81171904Y-85489580D02*
X81219523Y-85394342D01*
X81219523Y-85394342D02*
X81219523Y-84584819D01*
X81838571Y-85013390D02*
X81743333Y-84965771D01*
X81743333Y-84965771D02*
X81695714Y-84918152D01*
X81695714Y-84918152D02*
X81648095Y-84822914D01*
X81648095Y-84822914D02*
X81648095Y-84775295D01*
X81648095Y-84775295D02*
X81695714Y-84680057D01*
X81695714Y-84680057D02*
X81743333Y-84632438D01*
X81743333Y-84632438D02*
X81838571Y-84584819D01*
X81838571Y-84584819D02*
X82029047Y-84584819D01*
X82029047Y-84584819D02*
X82124285Y-84632438D01*
X82124285Y-84632438D02*
X82171904Y-84680057D01*
X82171904Y-84680057D02*
X82219523Y-84775295D01*
X82219523Y-84775295D02*
X82219523Y-84822914D01*
X82219523Y-84822914D02*
X82171904Y-84918152D01*
X82171904Y-84918152D02*
X82124285Y-84965771D01*
X82124285Y-84965771D02*
X82029047Y-85013390D01*
X82029047Y-85013390D02*
X81838571Y-85013390D01*
X81838571Y-85013390D02*
X81743333Y-85061009D01*
X81743333Y-85061009D02*
X81695714Y-85108628D01*
X81695714Y-85108628D02*
X81648095Y-85203866D01*
X81648095Y-85203866D02*
X81648095Y-85394342D01*
X81648095Y-85394342D02*
X81695714Y-85489580D01*
X81695714Y-85489580D02*
X81743333Y-85537200D01*
X81743333Y-85537200D02*
X81838571Y-85584819D01*
X81838571Y-85584819D02*
X82029047Y-85584819D01*
X82029047Y-85584819D02*
X82124285Y-85537200D01*
X82124285Y-85537200D02*
X82171904Y-85489580D01*
X82171904Y-85489580D02*
X82219523Y-85394342D01*
X82219523Y-85394342D02*
X82219523Y-85203866D01*
X82219523Y-85203866D02*
X82171904Y-85108628D01*
X82171904Y-85108628D02*
X82124285Y-85061009D01*
X82124285Y-85061009D02*
X82029047Y-85013390D01*
X112932380Y-112942666D02*
X112980000Y-112990285D01*
X112980000Y-112990285D02*
X113027619Y-113133142D01*
X113027619Y-113133142D02*
X113027619Y-113228380D01*
X113027619Y-113228380D02*
X112980000Y-113371237D01*
X112980000Y-113371237D02*
X112884761Y-113466475D01*
X112884761Y-113466475D02*
X112789523Y-113514094D01*
X112789523Y-113514094D02*
X112599047Y-113561713D01*
X112599047Y-113561713D02*
X112456190Y-113561713D01*
X112456190Y-113561713D02*
X112265714Y-113514094D01*
X112265714Y-113514094D02*
X112170476Y-113466475D01*
X112170476Y-113466475D02*
X112075238Y-113371237D01*
X112075238Y-113371237D02*
X112027619Y-113228380D01*
X112027619Y-113228380D02*
X112027619Y-113133142D01*
X112027619Y-113133142D02*
X112075238Y-112990285D01*
X112075238Y-112990285D02*
X112122857Y-112942666D01*
X112027619Y-112609332D02*
X112027619Y-111942666D01*
X112027619Y-111942666D02*
X113027619Y-112371237D01*
X121300571Y-50400009D02*
X120967238Y-50400009D01*
X120967238Y-50923819D02*
X120967238Y-49923819D01*
X120967238Y-49923819D02*
X121443428Y-49923819D01*
X121824381Y-50923819D02*
X121824381Y-49923819D01*
X122300571Y-50923819D02*
X122300571Y-49923819D01*
X122300571Y-49923819D02*
X122538666Y-49923819D01*
X122538666Y-49923819D02*
X122681523Y-49971438D01*
X122681523Y-49971438D02*
X122776761Y-50066676D01*
X122776761Y-50066676D02*
X122824380Y-50161914D01*
X122824380Y-50161914D02*
X122871999Y-50352390D01*
X122871999Y-50352390D02*
X122871999Y-50495247D01*
X122871999Y-50495247D02*
X122824380Y-50685723D01*
X122824380Y-50685723D02*
X122776761Y-50780961D01*
X122776761Y-50780961D02*
X122681523Y-50876200D01*
X122681523Y-50876200D02*
X122538666Y-50923819D01*
X122538666Y-50923819D02*
X122300571Y-50923819D01*
X123252952Y-50019057D02*
X123300571Y-49971438D01*
X123300571Y-49971438D02*
X123395809Y-49923819D01*
X123395809Y-49923819D02*
X123633904Y-49923819D01*
X123633904Y-49923819D02*
X123729142Y-49971438D01*
X123729142Y-49971438D02*
X123776761Y-50019057D01*
X123776761Y-50019057D02*
X123824380Y-50114295D01*
X123824380Y-50114295D02*
X123824380Y-50209533D01*
X123824380Y-50209533D02*
X123776761Y-50352390D01*
X123776761Y-50352390D02*
X123205333Y-50923819D01*
X123205333Y-50923819D02*
X123824380Y-50923819D01*
X128330571Y-139104009D02*
X127997238Y-139104009D01*
X127997238Y-139627819D02*
X127997238Y-138627819D01*
X127997238Y-138627819D02*
X128473428Y-138627819D01*
X128854381Y-139627819D02*
X128854381Y-138627819D01*
X129330571Y-139627819D02*
X129330571Y-138627819D01*
X129330571Y-138627819D02*
X129568666Y-138627819D01*
X129568666Y-138627819D02*
X129711523Y-138675438D01*
X129711523Y-138675438D02*
X129806761Y-138770676D01*
X129806761Y-138770676D02*
X129854380Y-138865914D01*
X129854380Y-138865914D02*
X129901999Y-139056390D01*
X129901999Y-139056390D02*
X129901999Y-139199247D01*
X129901999Y-139199247D02*
X129854380Y-139389723D01*
X129854380Y-139389723D02*
X129806761Y-139484961D01*
X129806761Y-139484961D02*
X129711523Y-139580200D01*
X129711523Y-139580200D02*
X129568666Y-139627819D01*
X129568666Y-139627819D02*
X129330571Y-139627819D01*
X130759142Y-138961152D02*
X130759142Y-139627819D01*
X130521047Y-138580200D02*
X130282952Y-139294485D01*
X130282952Y-139294485D02*
X130901999Y-139294485D01*
X91074819Y-62222857D02*
X90598628Y-62556190D01*
X91074819Y-62794285D02*
X90074819Y-62794285D01*
X90074819Y-62794285D02*
X90074819Y-62413333D01*
X90074819Y-62413333D02*
X90122438Y-62318095D01*
X90122438Y-62318095D02*
X90170057Y-62270476D01*
X90170057Y-62270476D02*
X90265295Y-62222857D01*
X90265295Y-62222857D02*
X90408152Y-62222857D01*
X90408152Y-62222857D02*
X90503390Y-62270476D01*
X90503390Y-62270476D02*
X90551009Y-62318095D01*
X90551009Y-62318095D02*
X90598628Y-62413333D01*
X90598628Y-62413333D02*
X90598628Y-62794285D01*
X91074819Y-61270476D02*
X91074819Y-61841904D01*
X91074819Y-61556190D02*
X90074819Y-61556190D01*
X90074819Y-61556190D02*
X90217676Y-61651428D01*
X90217676Y-61651428D02*
X90312914Y-61746666D01*
X90312914Y-61746666D02*
X90360533Y-61841904D01*
X90074819Y-60937142D02*
X90074819Y-60318095D01*
X90074819Y-60318095D02*
X90455771Y-60651428D01*
X90455771Y-60651428D02*
X90455771Y-60508571D01*
X90455771Y-60508571D02*
X90503390Y-60413333D01*
X90503390Y-60413333D02*
X90551009Y-60365714D01*
X90551009Y-60365714D02*
X90646247Y-60318095D01*
X90646247Y-60318095D02*
X90884342Y-60318095D01*
X90884342Y-60318095D02*
X90979580Y-60365714D01*
X90979580Y-60365714D02*
X91027200Y-60413333D01*
X91027200Y-60413333D02*
X91074819Y-60508571D01*
X91074819Y-60508571D02*
X91074819Y-60794285D01*
X91074819Y-60794285D02*
X91027200Y-60889523D01*
X91027200Y-60889523D02*
X90979580Y-60937142D01*
X80654571Y-139000009D02*
X80321238Y-139000009D01*
X80321238Y-139523819D02*
X80321238Y-138523819D01*
X80321238Y-138523819D02*
X80797428Y-138523819D01*
X81178381Y-139523819D02*
X81178381Y-138523819D01*
X81654571Y-139523819D02*
X81654571Y-138523819D01*
X81654571Y-138523819D02*
X81892666Y-138523819D01*
X81892666Y-138523819D02*
X82035523Y-138571438D01*
X82035523Y-138571438D02*
X82130761Y-138666676D01*
X82130761Y-138666676D02*
X82178380Y-138761914D01*
X82178380Y-138761914D02*
X82225999Y-138952390D01*
X82225999Y-138952390D02*
X82225999Y-139095247D01*
X82225999Y-139095247D02*
X82178380Y-139285723D01*
X82178380Y-139285723D02*
X82130761Y-139380961D01*
X82130761Y-139380961D02*
X82035523Y-139476200D01*
X82035523Y-139476200D02*
X81892666Y-139523819D01*
X81892666Y-139523819D02*
X81654571Y-139523819D01*
X82559333Y-138523819D02*
X83178380Y-138523819D01*
X83178380Y-138523819D02*
X82845047Y-138904771D01*
X82845047Y-138904771D02*
X82987904Y-138904771D01*
X82987904Y-138904771D02*
X83083142Y-138952390D01*
X83083142Y-138952390D02*
X83130761Y-139000009D01*
X83130761Y-139000009D02*
X83178380Y-139095247D01*
X83178380Y-139095247D02*
X83178380Y-139333342D01*
X83178380Y-139333342D02*
X83130761Y-139428580D01*
X83130761Y-139428580D02*
X83083142Y-139476200D01*
X83083142Y-139476200D02*
X82987904Y-139523819D01*
X82987904Y-139523819D02*
X82702190Y-139523819D01*
X82702190Y-139523819D02*
X82606952Y-139476200D01*
X82606952Y-139476200D02*
X82559333Y-139428580D01*
X122040333Y-117178819D02*
X121707000Y-116702628D01*
X121468905Y-117178819D02*
X121468905Y-116178819D01*
X121468905Y-116178819D02*
X121849857Y-116178819D01*
X121849857Y-116178819D02*
X121945095Y-116226438D01*
X121945095Y-116226438D02*
X121992714Y-116274057D01*
X121992714Y-116274057D02*
X122040333Y-116369295D01*
X122040333Y-116369295D02*
X122040333Y-116512152D01*
X122040333Y-116512152D02*
X121992714Y-116607390D01*
X121992714Y-116607390D02*
X121945095Y-116655009D01*
X121945095Y-116655009D02*
X121849857Y-116702628D01*
X121849857Y-116702628D02*
X121468905Y-116702628D01*
X122897476Y-116178819D02*
X122707000Y-116178819D01*
X122707000Y-116178819D02*
X122611762Y-116226438D01*
X122611762Y-116226438D02*
X122564143Y-116274057D01*
X122564143Y-116274057D02*
X122468905Y-116416914D01*
X122468905Y-116416914D02*
X122421286Y-116607390D01*
X122421286Y-116607390D02*
X122421286Y-116988342D01*
X122421286Y-116988342D02*
X122468905Y-117083580D01*
X122468905Y-117083580D02*
X122516524Y-117131200D01*
X122516524Y-117131200D02*
X122611762Y-117178819D01*
X122611762Y-117178819D02*
X122802238Y-117178819D01*
X122802238Y-117178819D02*
X122897476Y-117131200D01*
X122897476Y-117131200D02*
X122945095Y-117083580D01*
X122945095Y-117083580D02*
X122992714Y-116988342D01*
X122992714Y-116988342D02*
X122992714Y-116750247D01*
X122992714Y-116750247D02*
X122945095Y-116655009D01*
X122945095Y-116655009D02*
X122897476Y-116607390D01*
X122897476Y-116607390D02*
X122802238Y-116559771D01*
X122802238Y-116559771D02*
X122611762Y-116559771D01*
X122611762Y-116559771D02*
X122516524Y-116607390D01*
X122516524Y-116607390D02*
X122468905Y-116655009D01*
X122468905Y-116655009D02*
X122421286Y-116750247D01*
X115083333Y-129329580D02*
X115035714Y-129377200D01*
X115035714Y-129377200D02*
X114892857Y-129424819D01*
X114892857Y-129424819D02*
X114797619Y-129424819D01*
X114797619Y-129424819D02*
X114654762Y-129377200D01*
X114654762Y-129377200D02*
X114559524Y-129281961D01*
X114559524Y-129281961D02*
X114511905Y-129186723D01*
X114511905Y-129186723D02*
X114464286Y-128996247D01*
X114464286Y-128996247D02*
X114464286Y-128853390D01*
X114464286Y-128853390D02*
X114511905Y-128662914D01*
X114511905Y-128662914D02*
X114559524Y-128567676D01*
X114559524Y-128567676D02*
X114654762Y-128472438D01*
X114654762Y-128472438D02*
X114797619Y-128424819D01*
X114797619Y-128424819D02*
X114892857Y-128424819D01*
X114892857Y-128424819D02*
X115035714Y-128472438D01*
X115035714Y-128472438D02*
X115083333Y-128520057D01*
X116035714Y-129424819D02*
X115464286Y-129424819D01*
X115750000Y-129424819D02*
X115750000Y-128424819D01*
X115750000Y-128424819D02*
X115654762Y-128567676D01*
X115654762Y-128567676D02*
X115559524Y-128662914D01*
X115559524Y-128662914D02*
X115464286Y-128710533D01*
X82335905Y-112154619D02*
X82907333Y-112154619D01*
X82621619Y-113154619D02*
X82621619Y-112154619D01*
X83240667Y-113154619D02*
X83240667Y-112154619D01*
X83240667Y-112154619D02*
X83621619Y-112154619D01*
X83621619Y-112154619D02*
X83716857Y-112202238D01*
X83716857Y-112202238D02*
X83764476Y-112249857D01*
X83764476Y-112249857D02*
X83812095Y-112345095D01*
X83812095Y-112345095D02*
X83812095Y-112487952D01*
X83812095Y-112487952D02*
X83764476Y-112583190D01*
X83764476Y-112583190D02*
X83716857Y-112630809D01*
X83716857Y-112630809D02*
X83621619Y-112678428D01*
X83621619Y-112678428D02*
X83240667Y-112678428D01*
X84145429Y-112154619D02*
X84764476Y-112154619D01*
X84764476Y-112154619D02*
X84431143Y-112535571D01*
X84431143Y-112535571D02*
X84574000Y-112535571D01*
X84574000Y-112535571D02*
X84669238Y-112583190D01*
X84669238Y-112583190D02*
X84716857Y-112630809D01*
X84716857Y-112630809D02*
X84764476Y-112726047D01*
X84764476Y-112726047D02*
X84764476Y-112964142D01*
X84764476Y-112964142D02*
X84716857Y-113059380D01*
X84716857Y-113059380D02*
X84669238Y-113107000D01*
X84669238Y-113107000D02*
X84574000Y-113154619D01*
X84574000Y-113154619D02*
X84288286Y-113154619D01*
X84288286Y-113154619D02*
X84193048Y-113107000D01*
X84193048Y-113107000D02*
X84145429Y-113059380D01*
X85335905Y-112583190D02*
X85240667Y-112535571D01*
X85240667Y-112535571D02*
X85193048Y-112487952D01*
X85193048Y-112487952D02*
X85145429Y-112392714D01*
X85145429Y-112392714D02*
X85145429Y-112345095D01*
X85145429Y-112345095D02*
X85193048Y-112249857D01*
X85193048Y-112249857D02*
X85240667Y-112202238D01*
X85240667Y-112202238D02*
X85335905Y-112154619D01*
X85335905Y-112154619D02*
X85526381Y-112154619D01*
X85526381Y-112154619D02*
X85621619Y-112202238D01*
X85621619Y-112202238D02*
X85669238Y-112249857D01*
X85669238Y-112249857D02*
X85716857Y-112345095D01*
X85716857Y-112345095D02*
X85716857Y-112392714D01*
X85716857Y-112392714D02*
X85669238Y-112487952D01*
X85669238Y-112487952D02*
X85621619Y-112535571D01*
X85621619Y-112535571D02*
X85526381Y-112583190D01*
X85526381Y-112583190D02*
X85335905Y-112583190D01*
X85335905Y-112583190D02*
X85240667Y-112630809D01*
X85240667Y-112630809D02*
X85193048Y-112678428D01*
X85193048Y-112678428D02*
X85145429Y-112773666D01*
X85145429Y-112773666D02*
X85145429Y-112964142D01*
X85145429Y-112964142D02*
X85193048Y-113059380D01*
X85193048Y-113059380D02*
X85240667Y-113107000D01*
X85240667Y-113107000D02*
X85335905Y-113154619D01*
X85335905Y-113154619D02*
X85526381Y-113154619D01*
X85526381Y-113154619D02*
X85621619Y-113107000D01*
X85621619Y-113107000D02*
X85669238Y-113059380D01*
X85669238Y-113059380D02*
X85716857Y-112964142D01*
X85716857Y-112964142D02*
X85716857Y-112773666D01*
X85716857Y-112773666D02*
X85669238Y-112678428D01*
X85669238Y-112678428D02*
X85621619Y-112630809D01*
X85621619Y-112630809D02*
X85526381Y-112583190D01*
X110584761Y-68330057D02*
X110489523Y-68282438D01*
X110489523Y-68282438D02*
X110394285Y-68187200D01*
X110394285Y-68187200D02*
X110251428Y-68044342D01*
X110251428Y-68044342D02*
X110156190Y-67996723D01*
X110156190Y-67996723D02*
X110060952Y-67996723D01*
X110108571Y-68234819D02*
X110013333Y-68187200D01*
X110013333Y-68187200D02*
X109918095Y-68091961D01*
X109918095Y-68091961D02*
X109870476Y-67901485D01*
X109870476Y-67901485D02*
X109870476Y-67568152D01*
X109870476Y-67568152D02*
X109918095Y-67377676D01*
X109918095Y-67377676D02*
X110013333Y-67282438D01*
X110013333Y-67282438D02*
X110108571Y-67234819D01*
X110108571Y-67234819D02*
X110299047Y-67234819D01*
X110299047Y-67234819D02*
X110394285Y-67282438D01*
X110394285Y-67282438D02*
X110489523Y-67377676D01*
X110489523Y-67377676D02*
X110537142Y-67568152D01*
X110537142Y-67568152D02*
X110537142Y-67901485D01*
X110537142Y-67901485D02*
X110489523Y-68091961D01*
X110489523Y-68091961D02*
X110394285Y-68187200D01*
X110394285Y-68187200D02*
X110299047Y-68234819D01*
X110299047Y-68234819D02*
X110108571Y-68234819D01*
X111394285Y-67568152D02*
X111394285Y-68234819D01*
X111156190Y-67187200D02*
X110918095Y-67901485D01*
X110918095Y-67901485D02*
X111537142Y-67901485D01*
X99974142Y-63404380D02*
X99926523Y-63452000D01*
X99926523Y-63452000D02*
X99783666Y-63499619D01*
X99783666Y-63499619D02*
X99688428Y-63499619D01*
X99688428Y-63499619D02*
X99545571Y-63452000D01*
X99545571Y-63452000D02*
X99450333Y-63356761D01*
X99450333Y-63356761D02*
X99402714Y-63261523D01*
X99402714Y-63261523D02*
X99355095Y-63071047D01*
X99355095Y-63071047D02*
X99355095Y-62928190D01*
X99355095Y-62928190D02*
X99402714Y-62737714D01*
X99402714Y-62737714D02*
X99450333Y-62642476D01*
X99450333Y-62642476D02*
X99545571Y-62547238D01*
X99545571Y-62547238D02*
X99688428Y-62499619D01*
X99688428Y-62499619D02*
X99783666Y-62499619D01*
X99783666Y-62499619D02*
X99926523Y-62547238D01*
X99926523Y-62547238D02*
X99974142Y-62594857D01*
X100831285Y-62832952D02*
X100831285Y-63499619D01*
X100593190Y-62452000D02*
X100355095Y-63166285D01*
X100355095Y-63166285D02*
X100974142Y-63166285D01*
X101878904Y-63499619D02*
X101307476Y-63499619D01*
X101593190Y-63499619D02*
X101593190Y-62499619D01*
X101593190Y-62499619D02*
X101497952Y-62642476D01*
X101497952Y-62642476D02*
X101402714Y-62737714D01*
X101402714Y-62737714D02*
X101307476Y-62785333D01*
X129365905Y-72023819D02*
X129937333Y-72023819D01*
X129651619Y-73023819D02*
X129651619Y-72023819D01*
X130270667Y-73023819D02*
X130270667Y-72023819D01*
X130270667Y-72023819D02*
X130651619Y-72023819D01*
X130651619Y-72023819D02*
X130746857Y-72071438D01*
X130746857Y-72071438D02*
X130794476Y-72119057D01*
X130794476Y-72119057D02*
X130842095Y-72214295D01*
X130842095Y-72214295D02*
X130842095Y-72357152D01*
X130842095Y-72357152D02*
X130794476Y-72452390D01*
X130794476Y-72452390D02*
X130746857Y-72500009D01*
X130746857Y-72500009D02*
X130651619Y-72547628D01*
X130651619Y-72547628D02*
X130270667Y-72547628D01*
X131794476Y-73023819D02*
X131223048Y-73023819D01*
X131508762Y-73023819D02*
X131508762Y-72023819D01*
X131508762Y-72023819D02*
X131413524Y-72166676D01*
X131413524Y-72166676D02*
X131318286Y-72261914D01*
X131318286Y-72261914D02*
X131223048Y-72309533D01*
X132270667Y-73023819D02*
X132461143Y-73023819D01*
X132461143Y-73023819D02*
X132556381Y-72976200D01*
X132556381Y-72976200D02*
X132604000Y-72928580D01*
X132604000Y-72928580D02*
X132699238Y-72785723D01*
X132699238Y-72785723D02*
X132746857Y-72595247D01*
X132746857Y-72595247D02*
X132746857Y-72214295D01*
X132746857Y-72214295D02*
X132699238Y-72119057D01*
X132699238Y-72119057D02*
X132651619Y-72071438D01*
X132651619Y-72071438D02*
X132556381Y-72023819D01*
X132556381Y-72023819D02*
X132365905Y-72023819D01*
X132365905Y-72023819D02*
X132270667Y-72071438D01*
X132270667Y-72071438D02*
X132223048Y-72119057D01*
X132223048Y-72119057D02*
X132175429Y-72214295D01*
X132175429Y-72214295D02*
X132175429Y-72452390D01*
X132175429Y-72452390D02*
X132223048Y-72547628D01*
X132223048Y-72547628D02*
X132270667Y-72595247D01*
X132270667Y-72595247D02*
X132365905Y-72642866D01*
X132365905Y-72642866D02*
X132556381Y-72642866D01*
X132556381Y-72642866D02*
X132651619Y-72595247D01*
X132651619Y-72595247D02*
X132699238Y-72547628D01*
X132699238Y-72547628D02*
X132746857Y-72452390D01*
X116173333Y-108249580D02*
X116125714Y-108297200D01*
X116125714Y-108297200D02*
X115982857Y-108344819D01*
X115982857Y-108344819D02*
X115887619Y-108344819D01*
X115887619Y-108344819D02*
X115744762Y-108297200D01*
X115744762Y-108297200D02*
X115649524Y-108201961D01*
X115649524Y-108201961D02*
X115601905Y-108106723D01*
X115601905Y-108106723D02*
X115554286Y-107916247D01*
X115554286Y-107916247D02*
X115554286Y-107773390D01*
X115554286Y-107773390D02*
X115601905Y-107582914D01*
X115601905Y-107582914D02*
X115649524Y-107487676D01*
X115649524Y-107487676D02*
X115744762Y-107392438D01*
X115744762Y-107392438D02*
X115887619Y-107344819D01*
X115887619Y-107344819D02*
X115982857Y-107344819D01*
X115982857Y-107344819D02*
X116125714Y-107392438D01*
X116125714Y-107392438D02*
X116173333Y-107440057D01*
X116506667Y-107344819D02*
X117125714Y-107344819D01*
X117125714Y-107344819D02*
X116792381Y-107725771D01*
X116792381Y-107725771D02*
X116935238Y-107725771D01*
X116935238Y-107725771D02*
X117030476Y-107773390D01*
X117030476Y-107773390D02*
X117078095Y-107821009D01*
X117078095Y-107821009D02*
X117125714Y-107916247D01*
X117125714Y-107916247D02*
X117125714Y-108154342D01*
X117125714Y-108154342D02*
X117078095Y-108249580D01*
X117078095Y-108249580D02*
X117030476Y-108297200D01*
X117030476Y-108297200D02*
X116935238Y-108344819D01*
X116935238Y-108344819D02*
X116649524Y-108344819D01*
X116649524Y-108344819D02*
X116554286Y-108297200D01*
X116554286Y-108297200D02*
X116506667Y-108249580D01*
X128935333Y-99403819D02*
X128602000Y-98927628D01*
X128363905Y-99403819D02*
X128363905Y-98403819D01*
X128363905Y-98403819D02*
X128744857Y-98403819D01*
X128744857Y-98403819D02*
X128840095Y-98451438D01*
X128840095Y-98451438D02*
X128887714Y-98499057D01*
X128887714Y-98499057D02*
X128935333Y-98594295D01*
X128935333Y-98594295D02*
X128935333Y-98737152D01*
X128935333Y-98737152D02*
X128887714Y-98832390D01*
X128887714Y-98832390D02*
X128840095Y-98880009D01*
X128840095Y-98880009D02*
X128744857Y-98927628D01*
X128744857Y-98927628D02*
X128363905Y-98927628D01*
X129840095Y-98403819D02*
X129363905Y-98403819D01*
X129363905Y-98403819D02*
X129316286Y-98880009D01*
X129316286Y-98880009D02*
X129363905Y-98832390D01*
X129363905Y-98832390D02*
X129459143Y-98784771D01*
X129459143Y-98784771D02*
X129697238Y-98784771D01*
X129697238Y-98784771D02*
X129792476Y-98832390D01*
X129792476Y-98832390D02*
X129840095Y-98880009D01*
X129840095Y-98880009D02*
X129887714Y-98975247D01*
X129887714Y-98975247D02*
X129887714Y-99213342D01*
X129887714Y-99213342D02*
X129840095Y-99308580D01*
X129840095Y-99308580D02*
X129792476Y-99356200D01*
X129792476Y-99356200D02*
X129697238Y-99403819D01*
X129697238Y-99403819D02*
X129459143Y-99403819D01*
X129459143Y-99403819D02*
X129363905Y-99356200D01*
X129363905Y-99356200D02*
X129316286Y-99308580D01*
X102147580Y-71815857D02*
X102195200Y-71863476D01*
X102195200Y-71863476D02*
X102242819Y-72006333D01*
X102242819Y-72006333D02*
X102242819Y-72101571D01*
X102242819Y-72101571D02*
X102195200Y-72244428D01*
X102195200Y-72244428D02*
X102099961Y-72339666D01*
X102099961Y-72339666D02*
X102004723Y-72387285D01*
X102004723Y-72387285D02*
X101814247Y-72434904D01*
X101814247Y-72434904D02*
X101671390Y-72434904D01*
X101671390Y-72434904D02*
X101480914Y-72387285D01*
X101480914Y-72387285D02*
X101385676Y-72339666D01*
X101385676Y-72339666D02*
X101290438Y-72244428D01*
X101290438Y-72244428D02*
X101242819Y-72101571D01*
X101242819Y-72101571D02*
X101242819Y-72006333D01*
X101242819Y-72006333D02*
X101290438Y-71863476D01*
X101290438Y-71863476D02*
X101338057Y-71815857D01*
X101242819Y-71482523D02*
X101242819Y-70863476D01*
X101242819Y-70863476D02*
X101623771Y-71196809D01*
X101623771Y-71196809D02*
X101623771Y-71053952D01*
X101623771Y-71053952D02*
X101671390Y-70958714D01*
X101671390Y-70958714D02*
X101719009Y-70911095D01*
X101719009Y-70911095D02*
X101814247Y-70863476D01*
X101814247Y-70863476D02*
X102052342Y-70863476D01*
X102052342Y-70863476D02*
X102147580Y-70911095D01*
X102147580Y-70911095D02*
X102195200Y-70958714D01*
X102195200Y-70958714D02*
X102242819Y-71053952D01*
X102242819Y-71053952D02*
X102242819Y-71339666D01*
X102242819Y-71339666D02*
X102195200Y-71434904D01*
X102195200Y-71434904D02*
X102147580Y-71482523D01*
X101671390Y-70292047D02*
X101623771Y-70387285D01*
X101623771Y-70387285D02*
X101576152Y-70434904D01*
X101576152Y-70434904D02*
X101480914Y-70482523D01*
X101480914Y-70482523D02*
X101433295Y-70482523D01*
X101433295Y-70482523D02*
X101338057Y-70434904D01*
X101338057Y-70434904D02*
X101290438Y-70387285D01*
X101290438Y-70387285D02*
X101242819Y-70292047D01*
X101242819Y-70292047D02*
X101242819Y-70101571D01*
X101242819Y-70101571D02*
X101290438Y-70006333D01*
X101290438Y-70006333D02*
X101338057Y-69958714D01*
X101338057Y-69958714D02*
X101433295Y-69911095D01*
X101433295Y-69911095D02*
X101480914Y-69911095D01*
X101480914Y-69911095D02*
X101576152Y-69958714D01*
X101576152Y-69958714D02*
X101623771Y-70006333D01*
X101623771Y-70006333D02*
X101671390Y-70101571D01*
X101671390Y-70101571D02*
X101671390Y-70292047D01*
X101671390Y-70292047D02*
X101719009Y-70387285D01*
X101719009Y-70387285D02*
X101766628Y-70434904D01*
X101766628Y-70434904D02*
X101861866Y-70482523D01*
X101861866Y-70482523D02*
X102052342Y-70482523D01*
X102052342Y-70482523D02*
X102147580Y-70434904D01*
X102147580Y-70434904D02*
X102195200Y-70387285D01*
X102195200Y-70387285D02*
X102242819Y-70292047D01*
X102242819Y-70292047D02*
X102242819Y-70101571D01*
X102242819Y-70101571D02*
X102195200Y-70006333D01*
X102195200Y-70006333D02*
X102147580Y-69958714D01*
X102147580Y-69958714D02*
X102052342Y-69911095D01*
X102052342Y-69911095D02*
X101861866Y-69911095D01*
X101861866Y-69911095D02*
X101766628Y-69958714D01*
X101766628Y-69958714D02*
X101719009Y-70006333D01*
X101719009Y-70006333D02*
X101671390Y-70101571D01*
X103301905Y-99221040D02*
X103873333Y-99221040D01*
X103587619Y-100221040D02*
X103587619Y-99221040D01*
X104206667Y-100221040D02*
X104206667Y-99221040D01*
X104206667Y-99221040D02*
X104587619Y-99221040D01*
X104587619Y-99221040D02*
X104682857Y-99268659D01*
X104682857Y-99268659D02*
X104730476Y-99316278D01*
X104730476Y-99316278D02*
X104778095Y-99411516D01*
X104778095Y-99411516D02*
X104778095Y-99554373D01*
X104778095Y-99554373D02*
X104730476Y-99649611D01*
X104730476Y-99649611D02*
X104682857Y-99697230D01*
X104682857Y-99697230D02*
X104587619Y-99744849D01*
X104587619Y-99744849D02*
X104206667Y-99744849D01*
X105111429Y-99221040D02*
X105730476Y-99221040D01*
X105730476Y-99221040D02*
X105397143Y-99601992D01*
X105397143Y-99601992D02*
X105540000Y-99601992D01*
X105540000Y-99601992D02*
X105635238Y-99649611D01*
X105635238Y-99649611D02*
X105682857Y-99697230D01*
X105682857Y-99697230D02*
X105730476Y-99792468D01*
X105730476Y-99792468D02*
X105730476Y-100030563D01*
X105730476Y-100030563D02*
X105682857Y-100125801D01*
X105682857Y-100125801D02*
X105635238Y-100173421D01*
X105635238Y-100173421D02*
X105540000Y-100221040D01*
X105540000Y-100221040D02*
X105254286Y-100221040D01*
X105254286Y-100221040D02*
X105159048Y-100173421D01*
X105159048Y-100173421D02*
X105111429Y-100125801D01*
X106635238Y-99221040D02*
X106159048Y-99221040D01*
X106159048Y-99221040D02*
X106111429Y-99697230D01*
X106111429Y-99697230D02*
X106159048Y-99649611D01*
X106159048Y-99649611D02*
X106254286Y-99601992D01*
X106254286Y-99601992D02*
X106492381Y-99601992D01*
X106492381Y-99601992D02*
X106587619Y-99649611D01*
X106587619Y-99649611D02*
X106635238Y-99697230D01*
X106635238Y-99697230D02*
X106682857Y-99792468D01*
X106682857Y-99792468D02*
X106682857Y-100030563D01*
X106682857Y-100030563D02*
X106635238Y-100125801D01*
X106635238Y-100125801D02*
X106587619Y-100173421D01*
X106587619Y-100173421D02*
X106492381Y-100221040D01*
X106492381Y-100221040D02*
X106254286Y-100221040D01*
X106254286Y-100221040D02*
X106159048Y-100173421D01*
X106159048Y-100173421D02*
X106111429Y-100125801D01*
X108978095Y-131544819D02*
X109549523Y-131544819D01*
X109263809Y-132544819D02*
X109263809Y-131544819D01*
X109882857Y-132544819D02*
X109882857Y-131544819D01*
X109882857Y-131544819D02*
X110263809Y-131544819D01*
X110263809Y-131544819D02*
X110359047Y-131592438D01*
X110359047Y-131592438D02*
X110406666Y-131640057D01*
X110406666Y-131640057D02*
X110454285Y-131735295D01*
X110454285Y-131735295D02*
X110454285Y-131878152D01*
X110454285Y-131878152D02*
X110406666Y-131973390D01*
X110406666Y-131973390D02*
X110359047Y-132021009D01*
X110359047Y-132021009D02*
X110263809Y-132068628D01*
X110263809Y-132068628D02*
X109882857Y-132068628D01*
X111359047Y-131544819D02*
X110882857Y-131544819D01*
X110882857Y-131544819D02*
X110835238Y-132021009D01*
X110835238Y-132021009D02*
X110882857Y-131973390D01*
X110882857Y-131973390D02*
X110978095Y-131925771D01*
X110978095Y-131925771D02*
X111216190Y-131925771D01*
X111216190Y-131925771D02*
X111311428Y-131973390D01*
X111311428Y-131973390D02*
X111359047Y-132021009D01*
X111359047Y-132021009D02*
X111406666Y-132116247D01*
X111406666Y-132116247D02*
X111406666Y-132354342D01*
X111406666Y-132354342D02*
X111359047Y-132449580D01*
X111359047Y-132449580D02*
X111311428Y-132497200D01*
X111311428Y-132497200D02*
X111216190Y-132544819D01*
X111216190Y-132544819D02*
X110978095Y-132544819D01*
X110978095Y-132544819D02*
X110882857Y-132497200D01*
X110882857Y-132497200D02*
X110835238Y-132449580D01*
X107109580Y-132352857D02*
X107157200Y-132400476D01*
X107157200Y-132400476D02*
X107204819Y-132543333D01*
X107204819Y-132543333D02*
X107204819Y-132638571D01*
X107204819Y-132638571D02*
X107157200Y-132781428D01*
X107157200Y-132781428D02*
X107061961Y-132876666D01*
X107061961Y-132876666D02*
X106966723Y-132924285D01*
X106966723Y-132924285D02*
X106776247Y-132971904D01*
X106776247Y-132971904D02*
X106633390Y-132971904D01*
X106633390Y-132971904D02*
X106442914Y-132924285D01*
X106442914Y-132924285D02*
X106347676Y-132876666D01*
X106347676Y-132876666D02*
X106252438Y-132781428D01*
X106252438Y-132781428D02*
X106204819Y-132638571D01*
X106204819Y-132638571D02*
X106204819Y-132543333D01*
X106204819Y-132543333D02*
X106252438Y-132400476D01*
X106252438Y-132400476D02*
X106300057Y-132352857D01*
X106300057Y-131971904D02*
X106252438Y-131924285D01*
X106252438Y-131924285D02*
X106204819Y-131829047D01*
X106204819Y-131829047D02*
X106204819Y-131590952D01*
X106204819Y-131590952D02*
X106252438Y-131495714D01*
X106252438Y-131495714D02*
X106300057Y-131448095D01*
X106300057Y-131448095D02*
X106395295Y-131400476D01*
X106395295Y-131400476D02*
X106490533Y-131400476D01*
X106490533Y-131400476D02*
X106633390Y-131448095D01*
X106633390Y-131448095D02*
X107204819Y-132019523D01*
X107204819Y-132019523D02*
X107204819Y-131400476D01*
X106204819Y-130495714D02*
X106204819Y-130971904D01*
X106204819Y-130971904D02*
X106681009Y-131019523D01*
X106681009Y-131019523D02*
X106633390Y-130971904D01*
X106633390Y-130971904D02*
X106585771Y-130876666D01*
X106585771Y-130876666D02*
X106585771Y-130638571D01*
X106585771Y-130638571D02*
X106633390Y-130543333D01*
X106633390Y-130543333D02*
X106681009Y-130495714D01*
X106681009Y-130495714D02*
X106776247Y-130448095D01*
X106776247Y-130448095D02*
X107014342Y-130448095D01*
X107014342Y-130448095D02*
X107109580Y-130495714D01*
X107109580Y-130495714D02*
X107157200Y-130543333D01*
X107157200Y-130543333D02*
X107204819Y-130638571D01*
X107204819Y-130638571D02*
X107204819Y-130876666D01*
X107204819Y-130876666D02*
X107157200Y-130971904D01*
X107157200Y-130971904D02*
X107109580Y-131019523D01*
X92067142Y-68599580D02*
X92019523Y-68647200D01*
X92019523Y-68647200D02*
X91876666Y-68694819D01*
X91876666Y-68694819D02*
X91781428Y-68694819D01*
X91781428Y-68694819D02*
X91638571Y-68647200D01*
X91638571Y-68647200D02*
X91543333Y-68551961D01*
X91543333Y-68551961D02*
X91495714Y-68456723D01*
X91495714Y-68456723D02*
X91448095Y-68266247D01*
X91448095Y-68266247D02*
X91448095Y-68123390D01*
X91448095Y-68123390D02*
X91495714Y-67932914D01*
X91495714Y-67932914D02*
X91543333Y-67837676D01*
X91543333Y-67837676D02*
X91638571Y-67742438D01*
X91638571Y-67742438D02*
X91781428Y-67694819D01*
X91781428Y-67694819D02*
X91876666Y-67694819D01*
X91876666Y-67694819D02*
X92019523Y-67742438D01*
X92019523Y-67742438D02*
X92067142Y-67790057D01*
X92924285Y-68028152D02*
X92924285Y-68694819D01*
X92686190Y-67647200D02*
X92448095Y-68361485D01*
X92448095Y-68361485D02*
X93067142Y-68361485D01*
X93924285Y-67694819D02*
X93448095Y-67694819D01*
X93448095Y-67694819D02*
X93400476Y-68171009D01*
X93400476Y-68171009D02*
X93448095Y-68123390D01*
X93448095Y-68123390D02*
X93543333Y-68075771D01*
X93543333Y-68075771D02*
X93781428Y-68075771D01*
X93781428Y-68075771D02*
X93876666Y-68123390D01*
X93876666Y-68123390D02*
X93924285Y-68171009D01*
X93924285Y-68171009D02*
X93971904Y-68266247D01*
X93971904Y-68266247D02*
X93971904Y-68504342D01*
X93971904Y-68504342D02*
X93924285Y-68599580D01*
X93924285Y-68599580D02*
X93876666Y-68647200D01*
X93876666Y-68647200D02*
X93781428Y-68694819D01*
X93781428Y-68694819D02*
X93543333Y-68694819D01*
X93543333Y-68694819D02*
X93448095Y-68647200D01*
X93448095Y-68647200D02*
X93400476Y-68599580D01*
X118915809Y-78451628D02*
X118915809Y-78927819D01*
X118582476Y-77927819D02*
X118915809Y-78451628D01*
X118915809Y-78451628D02*
X119249142Y-77927819D01*
X120106285Y-78927819D02*
X119534857Y-78927819D01*
X119820571Y-78927819D02*
X119820571Y-77927819D01*
X119820571Y-77927819D02*
X119725333Y-78070676D01*
X119725333Y-78070676D02*
X119630095Y-78165914D01*
X119630095Y-78165914D02*
X119534857Y-78213533D01*
X95366105Y-140932819D02*
X95937533Y-140932819D01*
X95651819Y-141932819D02*
X95651819Y-140932819D01*
X96270867Y-141932819D02*
X96270867Y-140932819D01*
X96270867Y-140932819D02*
X96651819Y-140932819D01*
X96651819Y-140932819D02*
X96747057Y-140980438D01*
X96747057Y-140980438D02*
X96794676Y-141028057D01*
X96794676Y-141028057D02*
X96842295Y-141123295D01*
X96842295Y-141123295D02*
X96842295Y-141266152D01*
X96842295Y-141266152D02*
X96794676Y-141361390D01*
X96794676Y-141361390D02*
X96747057Y-141409009D01*
X96747057Y-141409009D02*
X96651819Y-141456628D01*
X96651819Y-141456628D02*
X96270867Y-141456628D01*
X97794676Y-141932819D02*
X97223248Y-141932819D01*
X97508962Y-141932819D02*
X97508962Y-140932819D01*
X97508962Y-140932819D02*
X97413724Y-141075676D01*
X97413724Y-141075676D02*
X97318486Y-141170914D01*
X97318486Y-141170914D02*
X97223248Y-141218533D01*
X98651819Y-140932819D02*
X98461343Y-140932819D01*
X98461343Y-140932819D02*
X98366105Y-140980438D01*
X98366105Y-140980438D02*
X98318486Y-141028057D01*
X98318486Y-141028057D02*
X98223248Y-141170914D01*
X98223248Y-141170914D02*
X98175629Y-141361390D01*
X98175629Y-141361390D02*
X98175629Y-141742342D01*
X98175629Y-141742342D02*
X98223248Y-141837580D01*
X98223248Y-141837580D02*
X98270867Y-141885200D01*
X98270867Y-141885200D02*
X98366105Y-141932819D01*
X98366105Y-141932819D02*
X98556581Y-141932819D01*
X98556581Y-141932819D02*
X98651819Y-141885200D01*
X98651819Y-141885200D02*
X98699438Y-141837580D01*
X98699438Y-141837580D02*
X98747057Y-141742342D01*
X98747057Y-141742342D02*
X98747057Y-141504247D01*
X98747057Y-141504247D02*
X98699438Y-141409009D01*
X98699438Y-141409009D02*
X98651819Y-141361390D01*
X98651819Y-141361390D02*
X98556581Y-141313771D01*
X98556581Y-141313771D02*
X98366105Y-141313771D01*
X98366105Y-141313771D02*
X98270867Y-141361390D01*
X98270867Y-141361390D02*
X98223248Y-141409009D01*
X98223248Y-141409009D02*
X98175629Y-141504247D01*
X85979905Y-145438819D02*
X86551333Y-145438819D01*
X86265619Y-146438819D02*
X86265619Y-145438819D01*
X86884667Y-146438819D02*
X86884667Y-145438819D01*
X86884667Y-145438819D02*
X87265619Y-145438819D01*
X87265619Y-145438819D02*
X87360857Y-145486438D01*
X87360857Y-145486438D02*
X87408476Y-145534057D01*
X87408476Y-145534057D02*
X87456095Y-145629295D01*
X87456095Y-145629295D02*
X87456095Y-145772152D01*
X87456095Y-145772152D02*
X87408476Y-145867390D01*
X87408476Y-145867390D02*
X87360857Y-145915009D01*
X87360857Y-145915009D02*
X87265619Y-145962628D01*
X87265619Y-145962628D02*
X86884667Y-145962628D01*
X88408476Y-146438819D02*
X87837048Y-146438819D01*
X88122762Y-146438819D02*
X88122762Y-145438819D01*
X88122762Y-145438819D02*
X88027524Y-145581676D01*
X88027524Y-145581676D02*
X87932286Y-145676914D01*
X87932286Y-145676914D02*
X87837048Y-145724533D01*
X89313238Y-145438819D02*
X88837048Y-145438819D01*
X88837048Y-145438819D02*
X88789429Y-145915009D01*
X88789429Y-145915009D02*
X88837048Y-145867390D01*
X88837048Y-145867390D02*
X88932286Y-145819771D01*
X88932286Y-145819771D02*
X89170381Y-145819771D01*
X89170381Y-145819771D02*
X89265619Y-145867390D01*
X89265619Y-145867390D02*
X89313238Y-145915009D01*
X89313238Y-145915009D02*
X89360857Y-146010247D01*
X89360857Y-146010247D02*
X89360857Y-146248342D01*
X89360857Y-146248342D02*
X89313238Y-146343580D01*
X89313238Y-146343580D02*
X89265619Y-146391200D01*
X89265619Y-146391200D02*
X89170381Y-146438819D01*
X89170381Y-146438819D02*
X88932286Y-146438819D01*
X88932286Y-146438819D02*
X88837048Y-146391200D01*
X88837048Y-146391200D02*
X88789429Y-146343580D01*
X92991095Y-126362819D02*
X92991095Y-127172342D01*
X92991095Y-127172342D02*
X93038714Y-127267580D01*
X93038714Y-127267580D02*
X93086333Y-127315200D01*
X93086333Y-127315200D02*
X93181571Y-127362819D01*
X93181571Y-127362819D02*
X93372047Y-127362819D01*
X93372047Y-127362819D02*
X93467285Y-127315200D01*
X93467285Y-127315200D02*
X93514904Y-127267580D01*
X93514904Y-127267580D02*
X93562523Y-127172342D01*
X93562523Y-127172342D02*
X93562523Y-126362819D01*
X94514904Y-126362819D02*
X94038714Y-126362819D01*
X94038714Y-126362819D02*
X93991095Y-126839009D01*
X93991095Y-126839009D02*
X94038714Y-126791390D01*
X94038714Y-126791390D02*
X94133952Y-126743771D01*
X94133952Y-126743771D02*
X94372047Y-126743771D01*
X94372047Y-126743771D02*
X94467285Y-126791390D01*
X94467285Y-126791390D02*
X94514904Y-126839009D01*
X94514904Y-126839009D02*
X94562523Y-126934247D01*
X94562523Y-126934247D02*
X94562523Y-127172342D01*
X94562523Y-127172342D02*
X94514904Y-127267580D01*
X94514904Y-127267580D02*
X94467285Y-127315200D01*
X94467285Y-127315200D02*
X94372047Y-127362819D01*
X94372047Y-127362819D02*
X94133952Y-127362819D01*
X94133952Y-127362819D02*
X94038714Y-127315200D01*
X94038714Y-127315200D02*
X93991095Y-127267580D01*
X127667142Y-83099580D02*
X127619523Y-83147200D01*
X127619523Y-83147200D02*
X127476666Y-83194819D01*
X127476666Y-83194819D02*
X127381428Y-83194819D01*
X127381428Y-83194819D02*
X127238571Y-83147200D01*
X127238571Y-83147200D02*
X127143333Y-83051961D01*
X127143333Y-83051961D02*
X127095714Y-82956723D01*
X127095714Y-82956723D02*
X127048095Y-82766247D01*
X127048095Y-82766247D02*
X127048095Y-82623390D01*
X127048095Y-82623390D02*
X127095714Y-82432914D01*
X127095714Y-82432914D02*
X127143333Y-82337676D01*
X127143333Y-82337676D02*
X127238571Y-82242438D01*
X127238571Y-82242438D02*
X127381428Y-82194819D01*
X127381428Y-82194819D02*
X127476666Y-82194819D01*
X127476666Y-82194819D02*
X127619523Y-82242438D01*
X127619523Y-82242438D02*
X127667142Y-82290057D01*
X128571904Y-82194819D02*
X128095714Y-82194819D01*
X128095714Y-82194819D02*
X128048095Y-82671009D01*
X128048095Y-82671009D02*
X128095714Y-82623390D01*
X128095714Y-82623390D02*
X128190952Y-82575771D01*
X128190952Y-82575771D02*
X128429047Y-82575771D01*
X128429047Y-82575771D02*
X128524285Y-82623390D01*
X128524285Y-82623390D02*
X128571904Y-82671009D01*
X128571904Y-82671009D02*
X128619523Y-82766247D01*
X128619523Y-82766247D02*
X128619523Y-83004342D01*
X128619523Y-83004342D02*
X128571904Y-83099580D01*
X128571904Y-83099580D02*
X128524285Y-83147200D01*
X128524285Y-83147200D02*
X128429047Y-83194819D01*
X128429047Y-83194819D02*
X128190952Y-83194819D01*
X128190952Y-83194819D02*
X128095714Y-83147200D01*
X128095714Y-83147200D02*
X128048095Y-83099580D01*
X129571904Y-83194819D02*
X129000476Y-83194819D01*
X129286190Y-83194819D02*
X129286190Y-82194819D01*
X129286190Y-82194819D02*
X129190952Y-82337676D01*
X129190952Y-82337676D02*
X129095714Y-82432914D01*
X129095714Y-82432914D02*
X129000476Y-82480533D01*
X120968095Y-119524819D02*
X121539523Y-119524819D01*
X121253809Y-120524819D02*
X121253809Y-119524819D01*
X121872857Y-120524819D02*
X121872857Y-119524819D01*
X121872857Y-119524819D02*
X122253809Y-119524819D01*
X122253809Y-119524819D02*
X122349047Y-119572438D01*
X122349047Y-119572438D02*
X122396666Y-119620057D01*
X122396666Y-119620057D02*
X122444285Y-119715295D01*
X122444285Y-119715295D02*
X122444285Y-119858152D01*
X122444285Y-119858152D02*
X122396666Y-119953390D01*
X122396666Y-119953390D02*
X122349047Y-120001009D01*
X122349047Y-120001009D02*
X122253809Y-120048628D01*
X122253809Y-120048628D02*
X121872857Y-120048628D01*
X123015714Y-119953390D02*
X122920476Y-119905771D01*
X122920476Y-119905771D02*
X122872857Y-119858152D01*
X122872857Y-119858152D02*
X122825238Y-119762914D01*
X122825238Y-119762914D02*
X122825238Y-119715295D01*
X122825238Y-119715295D02*
X122872857Y-119620057D01*
X122872857Y-119620057D02*
X122920476Y-119572438D01*
X122920476Y-119572438D02*
X123015714Y-119524819D01*
X123015714Y-119524819D02*
X123206190Y-119524819D01*
X123206190Y-119524819D02*
X123301428Y-119572438D01*
X123301428Y-119572438D02*
X123349047Y-119620057D01*
X123349047Y-119620057D02*
X123396666Y-119715295D01*
X123396666Y-119715295D02*
X123396666Y-119762914D01*
X123396666Y-119762914D02*
X123349047Y-119858152D01*
X123349047Y-119858152D02*
X123301428Y-119905771D01*
X123301428Y-119905771D02*
X123206190Y-119953390D01*
X123206190Y-119953390D02*
X123015714Y-119953390D01*
X123015714Y-119953390D02*
X122920476Y-120001009D01*
X122920476Y-120001009D02*
X122872857Y-120048628D01*
X122872857Y-120048628D02*
X122825238Y-120143866D01*
X122825238Y-120143866D02*
X122825238Y-120334342D01*
X122825238Y-120334342D02*
X122872857Y-120429580D01*
X122872857Y-120429580D02*
X122920476Y-120477200D01*
X122920476Y-120477200D02*
X123015714Y-120524819D01*
X123015714Y-120524819D02*
X123206190Y-120524819D01*
X123206190Y-120524819D02*
X123301428Y-120477200D01*
X123301428Y-120477200D02*
X123349047Y-120429580D01*
X123349047Y-120429580D02*
X123396666Y-120334342D01*
X123396666Y-120334342D02*
X123396666Y-120143866D01*
X123396666Y-120143866D02*
X123349047Y-120048628D01*
X123349047Y-120048628D02*
X123301428Y-120001009D01*
X123301428Y-120001009D02*
X123206190Y-119953390D01*
X117741905Y-57164819D02*
X118313333Y-57164819D01*
X118027619Y-58164819D02*
X118027619Y-57164819D01*
X118646667Y-58164819D02*
X118646667Y-57164819D01*
X118646667Y-57164819D02*
X119027619Y-57164819D01*
X119027619Y-57164819D02*
X119122857Y-57212438D01*
X119122857Y-57212438D02*
X119170476Y-57260057D01*
X119170476Y-57260057D02*
X119218095Y-57355295D01*
X119218095Y-57355295D02*
X119218095Y-57498152D01*
X119218095Y-57498152D02*
X119170476Y-57593390D01*
X119170476Y-57593390D02*
X119122857Y-57641009D01*
X119122857Y-57641009D02*
X119027619Y-57688628D01*
X119027619Y-57688628D02*
X118646667Y-57688628D01*
X119599048Y-57260057D02*
X119646667Y-57212438D01*
X119646667Y-57212438D02*
X119741905Y-57164819D01*
X119741905Y-57164819D02*
X119980000Y-57164819D01*
X119980000Y-57164819D02*
X120075238Y-57212438D01*
X120075238Y-57212438D02*
X120122857Y-57260057D01*
X120122857Y-57260057D02*
X120170476Y-57355295D01*
X120170476Y-57355295D02*
X120170476Y-57450533D01*
X120170476Y-57450533D02*
X120122857Y-57593390D01*
X120122857Y-57593390D02*
X119551429Y-58164819D01*
X119551429Y-58164819D02*
X120170476Y-58164819D01*
X120503810Y-57164819D02*
X121122857Y-57164819D01*
X121122857Y-57164819D02*
X120789524Y-57545771D01*
X120789524Y-57545771D02*
X120932381Y-57545771D01*
X120932381Y-57545771D02*
X121027619Y-57593390D01*
X121027619Y-57593390D02*
X121075238Y-57641009D01*
X121075238Y-57641009D02*
X121122857Y-57736247D01*
X121122857Y-57736247D02*
X121122857Y-57974342D01*
X121122857Y-57974342D02*
X121075238Y-58069580D01*
X121075238Y-58069580D02*
X121027619Y-58117200D01*
X121027619Y-58117200D02*
X120932381Y-58164819D01*
X120932381Y-58164819D02*
X120646667Y-58164819D01*
X120646667Y-58164819D02*
X120551429Y-58117200D01*
X120551429Y-58117200D02*
X120503810Y-58069580D01*
X101558095Y-127294819D02*
X101558095Y-128104342D01*
X101558095Y-128104342D02*
X101605714Y-128199580D01*
X101605714Y-128199580D02*
X101653333Y-128247200D01*
X101653333Y-128247200D02*
X101748571Y-128294819D01*
X101748571Y-128294819D02*
X101939047Y-128294819D01*
X101939047Y-128294819D02*
X102034285Y-128247200D01*
X102034285Y-128247200D02*
X102081904Y-128199580D01*
X102081904Y-128199580D02*
X102129523Y-128104342D01*
X102129523Y-128104342D02*
X102129523Y-127294819D01*
X103034285Y-127294819D02*
X102843809Y-127294819D01*
X102843809Y-127294819D02*
X102748571Y-127342438D01*
X102748571Y-127342438D02*
X102700952Y-127390057D01*
X102700952Y-127390057D02*
X102605714Y-127532914D01*
X102605714Y-127532914D02*
X102558095Y-127723390D01*
X102558095Y-127723390D02*
X102558095Y-128104342D01*
X102558095Y-128104342D02*
X102605714Y-128199580D01*
X102605714Y-128199580D02*
X102653333Y-128247200D01*
X102653333Y-128247200D02*
X102748571Y-128294819D01*
X102748571Y-128294819D02*
X102939047Y-128294819D01*
X102939047Y-128294819D02*
X103034285Y-128247200D01*
X103034285Y-128247200D02*
X103081904Y-128199580D01*
X103081904Y-128199580D02*
X103129523Y-128104342D01*
X103129523Y-128104342D02*
X103129523Y-127866247D01*
X103129523Y-127866247D02*
X103081904Y-127771009D01*
X103081904Y-127771009D02*
X103034285Y-127723390D01*
X103034285Y-127723390D02*
X102939047Y-127675771D01*
X102939047Y-127675771D02*
X102748571Y-127675771D01*
X102748571Y-127675771D02*
X102653333Y-127723390D01*
X102653333Y-127723390D02*
X102605714Y-127771009D01*
X102605714Y-127771009D02*
X102558095Y-127866247D01*
X90990895Y-112865819D02*
X91562323Y-112865819D01*
X91276609Y-113865819D02*
X91276609Y-112865819D01*
X91895657Y-113865819D02*
X91895657Y-112865819D01*
X91895657Y-112865819D02*
X92276609Y-112865819D01*
X92276609Y-112865819D02*
X92371847Y-112913438D01*
X92371847Y-112913438D02*
X92419466Y-112961057D01*
X92419466Y-112961057D02*
X92467085Y-113056295D01*
X92467085Y-113056295D02*
X92467085Y-113199152D01*
X92467085Y-113199152D02*
X92419466Y-113294390D01*
X92419466Y-113294390D02*
X92371847Y-113342009D01*
X92371847Y-113342009D02*
X92276609Y-113389628D01*
X92276609Y-113389628D02*
X91895657Y-113389628D01*
X93419466Y-113865819D02*
X92848038Y-113865819D01*
X93133752Y-113865819D02*
X93133752Y-112865819D01*
X93133752Y-112865819D02*
X93038514Y-113008676D01*
X93038514Y-113008676D02*
X92943276Y-113103914D01*
X92943276Y-113103914D02*
X92848038Y-113151533D01*
X107859580Y-122546666D02*
X107907200Y-122594285D01*
X107907200Y-122594285D02*
X107954819Y-122737142D01*
X107954819Y-122737142D02*
X107954819Y-122832380D01*
X107954819Y-122832380D02*
X107907200Y-122975237D01*
X107907200Y-122975237D02*
X107811961Y-123070475D01*
X107811961Y-123070475D02*
X107716723Y-123118094D01*
X107716723Y-123118094D02*
X107526247Y-123165713D01*
X107526247Y-123165713D02*
X107383390Y-123165713D01*
X107383390Y-123165713D02*
X107192914Y-123118094D01*
X107192914Y-123118094D02*
X107097676Y-123070475D01*
X107097676Y-123070475D02*
X107002438Y-122975237D01*
X107002438Y-122975237D02*
X106954819Y-122832380D01*
X106954819Y-122832380D02*
X106954819Y-122737142D01*
X106954819Y-122737142D02*
X107002438Y-122594285D01*
X107002438Y-122594285D02*
X107050057Y-122546666D01*
X107288152Y-121689523D02*
X107954819Y-121689523D01*
X106907200Y-121927618D02*
X107621485Y-122165713D01*
X107621485Y-122165713D02*
X107621485Y-121546666D01*
X82564505Y-114796219D02*
X83135933Y-114796219D01*
X82850219Y-115796219D02*
X82850219Y-114796219D01*
X83469267Y-115796219D02*
X83469267Y-114796219D01*
X83469267Y-114796219D02*
X83850219Y-114796219D01*
X83850219Y-114796219D02*
X83945457Y-114843838D01*
X83945457Y-114843838D02*
X83993076Y-114891457D01*
X83993076Y-114891457D02*
X84040695Y-114986695D01*
X84040695Y-114986695D02*
X84040695Y-115129552D01*
X84040695Y-115129552D02*
X83993076Y-115224790D01*
X83993076Y-115224790D02*
X83945457Y-115272409D01*
X83945457Y-115272409D02*
X83850219Y-115320028D01*
X83850219Y-115320028D02*
X83469267Y-115320028D01*
X84897838Y-115129552D02*
X84897838Y-115796219D01*
X84659743Y-114748600D02*
X84421648Y-115462885D01*
X84421648Y-115462885D02*
X85040695Y-115462885D01*
X85326410Y-114796219D02*
X85945457Y-114796219D01*
X85945457Y-114796219D02*
X85612124Y-115177171D01*
X85612124Y-115177171D02*
X85754981Y-115177171D01*
X85754981Y-115177171D02*
X85850219Y-115224790D01*
X85850219Y-115224790D02*
X85897838Y-115272409D01*
X85897838Y-115272409D02*
X85945457Y-115367647D01*
X85945457Y-115367647D02*
X85945457Y-115605742D01*
X85945457Y-115605742D02*
X85897838Y-115700980D01*
X85897838Y-115700980D02*
X85850219Y-115748600D01*
X85850219Y-115748600D02*
X85754981Y-115796219D01*
X85754981Y-115796219D02*
X85469267Y-115796219D01*
X85469267Y-115796219D02*
X85374029Y-115748600D01*
X85374029Y-115748600D02*
X85326410Y-115700980D01*
X98551619Y-116759104D02*
X99361142Y-116759104D01*
X99361142Y-116759104D02*
X99456380Y-116711485D01*
X99456380Y-116711485D02*
X99504000Y-116663866D01*
X99504000Y-116663866D02*
X99551619Y-116568628D01*
X99551619Y-116568628D02*
X99551619Y-116378152D01*
X99551619Y-116378152D02*
X99504000Y-116282914D01*
X99504000Y-116282914D02*
X99456380Y-116235295D01*
X99456380Y-116235295D02*
X99361142Y-116187676D01*
X99361142Y-116187676D02*
X98551619Y-116187676D01*
X98551619Y-115806723D02*
X98551619Y-115140057D01*
X98551619Y-115140057D02*
X99551619Y-115568628D01*
X98507142Y-103499580D02*
X98459523Y-103547200D01*
X98459523Y-103547200D02*
X98316666Y-103594819D01*
X98316666Y-103594819D02*
X98221428Y-103594819D01*
X98221428Y-103594819D02*
X98078571Y-103547200D01*
X98078571Y-103547200D02*
X97983333Y-103451961D01*
X97983333Y-103451961D02*
X97935714Y-103356723D01*
X97935714Y-103356723D02*
X97888095Y-103166247D01*
X97888095Y-103166247D02*
X97888095Y-103023390D01*
X97888095Y-103023390D02*
X97935714Y-102832914D01*
X97935714Y-102832914D02*
X97983333Y-102737676D01*
X97983333Y-102737676D02*
X98078571Y-102642438D01*
X98078571Y-102642438D02*
X98221428Y-102594819D01*
X98221428Y-102594819D02*
X98316666Y-102594819D01*
X98316666Y-102594819D02*
X98459523Y-102642438D01*
X98459523Y-102642438D02*
X98507142Y-102690057D01*
X99459523Y-103594819D02*
X98888095Y-103594819D01*
X99173809Y-103594819D02*
X99173809Y-102594819D01*
X99173809Y-102594819D02*
X99078571Y-102737676D01*
X99078571Y-102737676D02*
X98983333Y-102832914D01*
X98983333Y-102832914D02*
X98888095Y-102880533D01*
X99840476Y-102690057D02*
X99888095Y-102642438D01*
X99888095Y-102642438D02*
X99983333Y-102594819D01*
X99983333Y-102594819D02*
X100221428Y-102594819D01*
X100221428Y-102594819D02*
X100316666Y-102642438D01*
X100316666Y-102642438D02*
X100364285Y-102690057D01*
X100364285Y-102690057D02*
X100411904Y-102785295D01*
X100411904Y-102785295D02*
X100411904Y-102880533D01*
X100411904Y-102880533D02*
X100364285Y-103023390D01*
X100364285Y-103023390D02*
X99792857Y-103594819D01*
X99792857Y-103594819D02*
X100411904Y-103594819D01*
X128177142Y-80999580D02*
X128129523Y-81047200D01*
X128129523Y-81047200D02*
X127986666Y-81094819D01*
X127986666Y-81094819D02*
X127891428Y-81094819D01*
X127891428Y-81094819D02*
X127748571Y-81047200D01*
X127748571Y-81047200D02*
X127653333Y-80951961D01*
X127653333Y-80951961D02*
X127605714Y-80856723D01*
X127605714Y-80856723D02*
X127558095Y-80666247D01*
X127558095Y-80666247D02*
X127558095Y-80523390D01*
X127558095Y-80523390D02*
X127605714Y-80332914D01*
X127605714Y-80332914D02*
X127653333Y-80237676D01*
X127653333Y-80237676D02*
X127748571Y-80142438D01*
X127748571Y-80142438D02*
X127891428Y-80094819D01*
X127891428Y-80094819D02*
X127986666Y-80094819D01*
X127986666Y-80094819D02*
X128129523Y-80142438D01*
X128129523Y-80142438D02*
X128177142Y-80190057D01*
X129081904Y-80094819D02*
X128605714Y-80094819D01*
X128605714Y-80094819D02*
X128558095Y-80571009D01*
X128558095Y-80571009D02*
X128605714Y-80523390D01*
X128605714Y-80523390D02*
X128700952Y-80475771D01*
X128700952Y-80475771D02*
X128939047Y-80475771D01*
X128939047Y-80475771D02*
X129034285Y-80523390D01*
X129034285Y-80523390D02*
X129081904Y-80571009D01*
X129081904Y-80571009D02*
X129129523Y-80666247D01*
X129129523Y-80666247D02*
X129129523Y-80904342D01*
X129129523Y-80904342D02*
X129081904Y-80999580D01*
X129081904Y-80999580D02*
X129034285Y-81047200D01*
X129034285Y-81047200D02*
X128939047Y-81094819D01*
X128939047Y-81094819D02*
X128700952Y-81094819D01*
X128700952Y-81094819D02*
X128605714Y-81047200D01*
X128605714Y-81047200D02*
X128558095Y-80999580D01*
X129510476Y-80190057D02*
X129558095Y-80142438D01*
X129558095Y-80142438D02*
X129653333Y-80094819D01*
X129653333Y-80094819D02*
X129891428Y-80094819D01*
X129891428Y-80094819D02*
X129986666Y-80142438D01*
X129986666Y-80142438D02*
X130034285Y-80190057D01*
X130034285Y-80190057D02*
X130081904Y-80285295D01*
X130081904Y-80285295D02*
X130081904Y-80380533D01*
X130081904Y-80380533D02*
X130034285Y-80523390D01*
X130034285Y-80523390D02*
X129462857Y-81094819D01*
X129462857Y-81094819D02*
X130081904Y-81094819D01*
X128593333Y-102284819D02*
X128260000Y-101808628D01*
X128021905Y-102284819D02*
X128021905Y-101284819D01*
X128021905Y-101284819D02*
X128402857Y-101284819D01*
X128402857Y-101284819D02*
X128498095Y-101332438D01*
X128498095Y-101332438D02*
X128545714Y-101380057D01*
X128545714Y-101380057D02*
X128593333Y-101475295D01*
X128593333Y-101475295D02*
X128593333Y-101618152D01*
X128593333Y-101618152D02*
X128545714Y-101713390D01*
X128545714Y-101713390D02*
X128498095Y-101761009D01*
X128498095Y-101761009D02*
X128402857Y-101808628D01*
X128402857Y-101808628D02*
X128021905Y-101808628D01*
X129545714Y-102284819D02*
X128974286Y-102284819D01*
X129260000Y-102284819D02*
X129260000Y-101284819D01*
X129260000Y-101284819D02*
X129164762Y-101427676D01*
X129164762Y-101427676D02*
X129069524Y-101522914D01*
X129069524Y-101522914D02*
X128974286Y-101570533D01*
X125772580Y-76384857D02*
X125820200Y-76432476D01*
X125820200Y-76432476D02*
X125867819Y-76575333D01*
X125867819Y-76575333D02*
X125867819Y-76670571D01*
X125867819Y-76670571D02*
X125820200Y-76813428D01*
X125820200Y-76813428D02*
X125724961Y-76908666D01*
X125724961Y-76908666D02*
X125629723Y-76956285D01*
X125629723Y-76956285D02*
X125439247Y-77003904D01*
X125439247Y-77003904D02*
X125296390Y-77003904D01*
X125296390Y-77003904D02*
X125105914Y-76956285D01*
X125105914Y-76956285D02*
X125010676Y-76908666D01*
X125010676Y-76908666D02*
X124915438Y-76813428D01*
X124915438Y-76813428D02*
X124867819Y-76670571D01*
X124867819Y-76670571D02*
X124867819Y-76575333D01*
X124867819Y-76575333D02*
X124915438Y-76432476D01*
X124915438Y-76432476D02*
X124963057Y-76384857D01*
X124867819Y-76051523D02*
X124867819Y-75432476D01*
X124867819Y-75432476D02*
X125248771Y-75765809D01*
X125248771Y-75765809D02*
X125248771Y-75622952D01*
X125248771Y-75622952D02*
X125296390Y-75527714D01*
X125296390Y-75527714D02*
X125344009Y-75480095D01*
X125344009Y-75480095D02*
X125439247Y-75432476D01*
X125439247Y-75432476D02*
X125677342Y-75432476D01*
X125677342Y-75432476D02*
X125772580Y-75480095D01*
X125772580Y-75480095D02*
X125820200Y-75527714D01*
X125820200Y-75527714D02*
X125867819Y-75622952D01*
X125867819Y-75622952D02*
X125867819Y-75908666D01*
X125867819Y-75908666D02*
X125820200Y-76003904D01*
X125820200Y-76003904D02*
X125772580Y-76051523D01*
X124867819Y-74813428D02*
X124867819Y-74718190D01*
X124867819Y-74718190D02*
X124915438Y-74622952D01*
X124915438Y-74622952D02*
X124963057Y-74575333D01*
X124963057Y-74575333D02*
X125058295Y-74527714D01*
X125058295Y-74527714D02*
X125248771Y-74480095D01*
X125248771Y-74480095D02*
X125486866Y-74480095D01*
X125486866Y-74480095D02*
X125677342Y-74527714D01*
X125677342Y-74527714D02*
X125772580Y-74575333D01*
X125772580Y-74575333D02*
X125820200Y-74622952D01*
X125820200Y-74622952D02*
X125867819Y-74718190D01*
X125867819Y-74718190D02*
X125867819Y-74813428D01*
X125867819Y-74813428D02*
X125820200Y-74908666D01*
X125820200Y-74908666D02*
X125772580Y-74956285D01*
X125772580Y-74956285D02*
X125677342Y-75003904D01*
X125677342Y-75003904D02*
X125486866Y-75051523D01*
X125486866Y-75051523D02*
X125248771Y-75051523D01*
X125248771Y-75051523D02*
X125058295Y-75003904D01*
X125058295Y-75003904D02*
X124963057Y-74956285D01*
X124963057Y-74956285D02*
X124915438Y-74908666D01*
X124915438Y-74908666D02*
X124867819Y-74813428D01*
X80524571Y-55863009D02*
X80191238Y-55863009D01*
X80191238Y-56386819D02*
X80191238Y-55386819D01*
X80191238Y-55386819D02*
X80667428Y-55386819D01*
X81048381Y-56386819D02*
X81048381Y-55386819D01*
X81524571Y-56386819D02*
X81524571Y-55386819D01*
X81524571Y-55386819D02*
X81762666Y-55386819D01*
X81762666Y-55386819D02*
X81905523Y-55434438D01*
X81905523Y-55434438D02*
X82000761Y-55529676D01*
X82000761Y-55529676D02*
X82048380Y-55624914D01*
X82048380Y-55624914D02*
X82095999Y-55815390D01*
X82095999Y-55815390D02*
X82095999Y-55958247D01*
X82095999Y-55958247D02*
X82048380Y-56148723D01*
X82048380Y-56148723D02*
X82000761Y-56243961D01*
X82000761Y-56243961D02*
X81905523Y-56339200D01*
X81905523Y-56339200D02*
X81762666Y-56386819D01*
X81762666Y-56386819D02*
X81524571Y-56386819D01*
X83048380Y-56386819D02*
X82476952Y-56386819D01*
X82762666Y-56386819D02*
X82762666Y-55386819D01*
X82762666Y-55386819D02*
X82667428Y-55529676D01*
X82667428Y-55529676D02*
X82572190Y-55624914D01*
X82572190Y-55624914D02*
X82476952Y-55672533D01*
X118992295Y-99914523D02*
X119639914Y-99914523D01*
X119639914Y-99914523D02*
X119716104Y-99876428D01*
X119716104Y-99876428D02*
X119754200Y-99838333D01*
X119754200Y-99838333D02*
X119792295Y-99762142D01*
X119792295Y-99762142D02*
X119792295Y-99609761D01*
X119792295Y-99609761D02*
X119754200Y-99533571D01*
X119754200Y-99533571D02*
X119716104Y-99495476D01*
X119716104Y-99495476D02*
X119639914Y-99457380D01*
X119639914Y-99457380D02*
X118992295Y-99457380D01*
X119068485Y-99114524D02*
X119030390Y-99076428D01*
X119030390Y-99076428D02*
X118992295Y-99000238D01*
X118992295Y-99000238D02*
X118992295Y-98809762D01*
X118992295Y-98809762D02*
X119030390Y-98733571D01*
X119030390Y-98733571D02*
X119068485Y-98695476D01*
X119068485Y-98695476D02*
X119144676Y-98657381D01*
X119144676Y-98657381D02*
X119220866Y-98657381D01*
X119220866Y-98657381D02*
X119335152Y-98695476D01*
X119335152Y-98695476D02*
X119792295Y-99152619D01*
X119792295Y-99152619D02*
X119792295Y-98657381D01*
X95454819Y-62142857D02*
X94978628Y-62476190D01*
X95454819Y-62714285D02*
X94454819Y-62714285D01*
X94454819Y-62714285D02*
X94454819Y-62333333D01*
X94454819Y-62333333D02*
X94502438Y-62238095D01*
X94502438Y-62238095D02*
X94550057Y-62190476D01*
X94550057Y-62190476D02*
X94645295Y-62142857D01*
X94645295Y-62142857D02*
X94788152Y-62142857D01*
X94788152Y-62142857D02*
X94883390Y-62190476D01*
X94883390Y-62190476D02*
X94931009Y-62238095D01*
X94931009Y-62238095D02*
X94978628Y-62333333D01*
X94978628Y-62333333D02*
X94978628Y-62714285D01*
X95454819Y-61190476D02*
X95454819Y-61761904D01*
X95454819Y-61476190D02*
X94454819Y-61476190D01*
X94454819Y-61476190D02*
X94597676Y-61571428D01*
X94597676Y-61571428D02*
X94692914Y-61666666D01*
X94692914Y-61666666D02*
X94740533Y-61761904D01*
X94454819Y-60571428D02*
X94454819Y-60476190D01*
X94454819Y-60476190D02*
X94502438Y-60380952D01*
X94502438Y-60380952D02*
X94550057Y-60333333D01*
X94550057Y-60333333D02*
X94645295Y-60285714D01*
X94645295Y-60285714D02*
X94835771Y-60238095D01*
X94835771Y-60238095D02*
X95073866Y-60238095D01*
X95073866Y-60238095D02*
X95264342Y-60285714D01*
X95264342Y-60285714D02*
X95359580Y-60333333D01*
X95359580Y-60333333D02*
X95407200Y-60380952D01*
X95407200Y-60380952D02*
X95454819Y-60476190D01*
X95454819Y-60476190D02*
X95454819Y-60571428D01*
X95454819Y-60571428D02*
X95407200Y-60666666D01*
X95407200Y-60666666D02*
X95359580Y-60714285D01*
X95359580Y-60714285D02*
X95264342Y-60761904D01*
X95264342Y-60761904D02*
X95073866Y-60809523D01*
X95073866Y-60809523D02*
X94835771Y-60809523D01*
X94835771Y-60809523D02*
X94645295Y-60761904D01*
X94645295Y-60761904D02*
X94550057Y-60714285D01*
X94550057Y-60714285D02*
X94502438Y-60666666D01*
X94502438Y-60666666D02*
X94454819Y-60571428D01*
X82211905Y-106144819D02*
X82783333Y-106144819D01*
X82497619Y-107144819D02*
X82497619Y-106144819D01*
X83116667Y-107144819D02*
X83116667Y-106144819D01*
X83116667Y-106144819D02*
X83497619Y-106144819D01*
X83497619Y-106144819D02*
X83592857Y-106192438D01*
X83592857Y-106192438D02*
X83640476Y-106240057D01*
X83640476Y-106240057D02*
X83688095Y-106335295D01*
X83688095Y-106335295D02*
X83688095Y-106478152D01*
X83688095Y-106478152D02*
X83640476Y-106573390D01*
X83640476Y-106573390D02*
X83592857Y-106621009D01*
X83592857Y-106621009D02*
X83497619Y-106668628D01*
X83497619Y-106668628D02*
X83116667Y-106668628D01*
X84545238Y-106478152D02*
X84545238Y-107144819D01*
X84307143Y-106097200D02*
X84069048Y-106811485D01*
X84069048Y-106811485D02*
X84688095Y-106811485D01*
X85021429Y-106240057D02*
X85069048Y-106192438D01*
X85069048Y-106192438D02*
X85164286Y-106144819D01*
X85164286Y-106144819D02*
X85402381Y-106144819D01*
X85402381Y-106144819D02*
X85497619Y-106192438D01*
X85497619Y-106192438D02*
X85545238Y-106240057D01*
X85545238Y-106240057D02*
X85592857Y-106335295D01*
X85592857Y-106335295D02*
X85592857Y-106430533D01*
X85592857Y-106430533D02*
X85545238Y-106573390D01*
X85545238Y-106573390D02*
X84973810Y-107144819D01*
X84973810Y-107144819D02*
X85592857Y-107144819D01*
X129305905Y-63784819D02*
X129877333Y-63784819D01*
X129591619Y-64784819D02*
X129591619Y-63784819D01*
X130210667Y-64784819D02*
X130210667Y-63784819D01*
X130210667Y-63784819D02*
X130591619Y-63784819D01*
X130591619Y-63784819D02*
X130686857Y-63832438D01*
X130686857Y-63832438D02*
X130734476Y-63880057D01*
X130734476Y-63880057D02*
X130782095Y-63975295D01*
X130782095Y-63975295D02*
X130782095Y-64118152D01*
X130782095Y-64118152D02*
X130734476Y-64213390D01*
X130734476Y-64213390D02*
X130686857Y-64261009D01*
X130686857Y-64261009D02*
X130591619Y-64308628D01*
X130591619Y-64308628D02*
X130210667Y-64308628D01*
X131734476Y-64784819D02*
X131163048Y-64784819D01*
X131448762Y-64784819D02*
X131448762Y-63784819D01*
X131448762Y-63784819D02*
X131353524Y-63927676D01*
X131353524Y-63927676D02*
X131258286Y-64022914D01*
X131258286Y-64022914D02*
X131163048Y-64070533D01*
X132067810Y-63784819D02*
X132734476Y-63784819D01*
X132734476Y-63784819D02*
X132305905Y-64784819D01*
X109975780Y-78744733D02*
X109975780Y-78268543D01*
X109975780Y-78268543D02*
X110975780Y-78268543D01*
X109975780Y-79601876D02*
X109975780Y-79030448D01*
X109975780Y-79316162D02*
X110975780Y-79316162D01*
X110975780Y-79316162D02*
X110832923Y-79220924D01*
X110832923Y-79220924D02*
X110737685Y-79125686D01*
X110737685Y-79125686D02*
X110690066Y-79030448D01*
X93954819Y-62292857D02*
X93478628Y-62626190D01*
X93954819Y-62864285D02*
X92954819Y-62864285D01*
X92954819Y-62864285D02*
X92954819Y-62483333D01*
X92954819Y-62483333D02*
X93002438Y-62388095D01*
X93002438Y-62388095D02*
X93050057Y-62340476D01*
X93050057Y-62340476D02*
X93145295Y-62292857D01*
X93145295Y-62292857D02*
X93288152Y-62292857D01*
X93288152Y-62292857D02*
X93383390Y-62340476D01*
X93383390Y-62340476D02*
X93431009Y-62388095D01*
X93431009Y-62388095D02*
X93478628Y-62483333D01*
X93478628Y-62483333D02*
X93478628Y-62864285D01*
X93954819Y-61340476D02*
X93954819Y-61911904D01*
X93954819Y-61626190D02*
X92954819Y-61626190D01*
X92954819Y-61626190D02*
X93097676Y-61721428D01*
X93097676Y-61721428D02*
X93192914Y-61816666D01*
X93192914Y-61816666D02*
X93240533Y-61911904D01*
X92954819Y-60435714D02*
X92954819Y-60911904D01*
X92954819Y-60911904D02*
X93431009Y-60959523D01*
X93431009Y-60959523D02*
X93383390Y-60911904D01*
X93383390Y-60911904D02*
X93335771Y-60816666D01*
X93335771Y-60816666D02*
X93335771Y-60578571D01*
X93335771Y-60578571D02*
X93383390Y-60483333D01*
X93383390Y-60483333D02*
X93431009Y-60435714D01*
X93431009Y-60435714D02*
X93526247Y-60388095D01*
X93526247Y-60388095D02*
X93764342Y-60388095D01*
X93764342Y-60388095D02*
X93859580Y-60435714D01*
X93859580Y-60435714D02*
X93907200Y-60483333D01*
X93907200Y-60483333D02*
X93954819Y-60578571D01*
X93954819Y-60578571D02*
X93954819Y-60816666D01*
X93954819Y-60816666D02*
X93907200Y-60911904D01*
X93907200Y-60911904D02*
X93859580Y-60959523D01*
X96334342Y-105159980D02*
X96286723Y-105207600D01*
X96286723Y-105207600D02*
X96143866Y-105255219D01*
X96143866Y-105255219D02*
X96048628Y-105255219D01*
X96048628Y-105255219D02*
X95905771Y-105207600D01*
X95905771Y-105207600D02*
X95810533Y-105112361D01*
X95810533Y-105112361D02*
X95762914Y-105017123D01*
X95762914Y-105017123D02*
X95715295Y-104826647D01*
X95715295Y-104826647D02*
X95715295Y-104683790D01*
X95715295Y-104683790D02*
X95762914Y-104493314D01*
X95762914Y-104493314D02*
X95810533Y-104398076D01*
X95810533Y-104398076D02*
X95905771Y-104302838D01*
X95905771Y-104302838D02*
X96048628Y-104255219D01*
X96048628Y-104255219D02*
X96143866Y-104255219D01*
X96143866Y-104255219D02*
X96286723Y-104302838D01*
X96286723Y-104302838D02*
X96334342Y-104350457D01*
X97286723Y-105255219D02*
X96715295Y-105255219D01*
X97001009Y-105255219D02*
X97001009Y-104255219D01*
X97001009Y-104255219D02*
X96905771Y-104398076D01*
X96905771Y-104398076D02*
X96810533Y-104493314D01*
X96810533Y-104493314D02*
X96715295Y-104540933D01*
X98191485Y-104255219D02*
X97715295Y-104255219D01*
X97715295Y-104255219D02*
X97667676Y-104731409D01*
X97667676Y-104731409D02*
X97715295Y-104683790D01*
X97715295Y-104683790D02*
X97810533Y-104636171D01*
X97810533Y-104636171D02*
X98048628Y-104636171D01*
X98048628Y-104636171D02*
X98143866Y-104683790D01*
X98143866Y-104683790D02*
X98191485Y-104731409D01*
X98191485Y-104731409D02*
X98239104Y-104826647D01*
X98239104Y-104826647D02*
X98239104Y-105064742D01*
X98239104Y-105064742D02*
X98191485Y-105159980D01*
X98191485Y-105159980D02*
X98143866Y-105207600D01*
X98143866Y-105207600D02*
X98048628Y-105255219D01*
X98048628Y-105255219D02*
X97810533Y-105255219D01*
X97810533Y-105255219D02*
X97715295Y-105207600D01*
X97715295Y-105207600D02*
X97667676Y-105159980D01*
X94237142Y-103684819D02*
X93903809Y-103208628D01*
X93665714Y-103684819D02*
X93665714Y-102684819D01*
X93665714Y-102684819D02*
X94046666Y-102684819D01*
X94046666Y-102684819D02*
X94141904Y-102732438D01*
X94141904Y-102732438D02*
X94189523Y-102780057D01*
X94189523Y-102780057D02*
X94237142Y-102875295D01*
X94237142Y-102875295D02*
X94237142Y-103018152D01*
X94237142Y-103018152D02*
X94189523Y-103113390D01*
X94189523Y-103113390D02*
X94141904Y-103161009D01*
X94141904Y-103161009D02*
X94046666Y-103208628D01*
X94046666Y-103208628D02*
X93665714Y-103208628D01*
X95189523Y-103684819D02*
X94618095Y-103684819D01*
X94903809Y-103684819D02*
X94903809Y-102684819D01*
X94903809Y-102684819D02*
X94808571Y-102827676D01*
X94808571Y-102827676D02*
X94713333Y-102922914D01*
X94713333Y-102922914D02*
X94618095Y-102970533D01*
X96046666Y-102684819D02*
X95856190Y-102684819D01*
X95856190Y-102684819D02*
X95760952Y-102732438D01*
X95760952Y-102732438D02*
X95713333Y-102780057D01*
X95713333Y-102780057D02*
X95618095Y-102922914D01*
X95618095Y-102922914D02*
X95570476Y-103113390D01*
X95570476Y-103113390D02*
X95570476Y-103494342D01*
X95570476Y-103494342D02*
X95618095Y-103589580D01*
X95618095Y-103589580D02*
X95665714Y-103637200D01*
X95665714Y-103637200D02*
X95760952Y-103684819D01*
X95760952Y-103684819D02*
X95951428Y-103684819D01*
X95951428Y-103684819D02*
X96046666Y-103637200D01*
X96046666Y-103637200D02*
X96094285Y-103589580D01*
X96094285Y-103589580D02*
X96141904Y-103494342D01*
X96141904Y-103494342D02*
X96141904Y-103256247D01*
X96141904Y-103256247D02*
X96094285Y-103161009D01*
X96094285Y-103161009D02*
X96046666Y-103113390D01*
X96046666Y-103113390D02*
X95951428Y-103065771D01*
X95951428Y-103065771D02*
X95760952Y-103065771D01*
X95760952Y-103065771D02*
X95665714Y-103113390D01*
X95665714Y-103113390D02*
X95618095Y-103161009D01*
X95618095Y-103161009D02*
X95570476Y-103256247D01*
X104169580Y-123012857D02*
X104217200Y-123060476D01*
X104217200Y-123060476D02*
X104264819Y-123203333D01*
X104264819Y-123203333D02*
X104264819Y-123298571D01*
X104264819Y-123298571D02*
X104217200Y-123441428D01*
X104217200Y-123441428D02*
X104121961Y-123536666D01*
X104121961Y-123536666D02*
X104026723Y-123584285D01*
X104026723Y-123584285D02*
X103836247Y-123631904D01*
X103836247Y-123631904D02*
X103693390Y-123631904D01*
X103693390Y-123631904D02*
X103502914Y-123584285D01*
X103502914Y-123584285D02*
X103407676Y-123536666D01*
X103407676Y-123536666D02*
X103312438Y-123441428D01*
X103312438Y-123441428D02*
X103264819Y-123298571D01*
X103264819Y-123298571D02*
X103264819Y-123203333D01*
X103264819Y-123203333D02*
X103312438Y-123060476D01*
X103312438Y-123060476D02*
X103360057Y-123012857D01*
X104264819Y-122060476D02*
X104264819Y-122631904D01*
X104264819Y-122346190D02*
X103264819Y-122346190D01*
X103264819Y-122346190D02*
X103407676Y-122441428D01*
X103407676Y-122441428D02*
X103502914Y-122536666D01*
X103502914Y-122536666D02*
X103550533Y-122631904D01*
X103264819Y-121203333D02*
X103264819Y-121393809D01*
X103264819Y-121393809D02*
X103312438Y-121489047D01*
X103312438Y-121489047D02*
X103360057Y-121536666D01*
X103360057Y-121536666D02*
X103502914Y-121631904D01*
X103502914Y-121631904D02*
X103693390Y-121679523D01*
X103693390Y-121679523D02*
X104074342Y-121679523D01*
X104074342Y-121679523D02*
X104169580Y-121631904D01*
X104169580Y-121631904D02*
X104217200Y-121584285D01*
X104217200Y-121584285D02*
X104264819Y-121489047D01*
X104264819Y-121489047D02*
X104264819Y-121298571D01*
X104264819Y-121298571D02*
X104217200Y-121203333D01*
X104217200Y-121203333D02*
X104169580Y-121155714D01*
X104169580Y-121155714D02*
X104074342Y-121108095D01*
X104074342Y-121108095D02*
X103836247Y-121108095D01*
X103836247Y-121108095D02*
X103741009Y-121155714D01*
X103741009Y-121155714D02*
X103693390Y-121203333D01*
X103693390Y-121203333D02*
X103645771Y-121298571D01*
X103645771Y-121298571D02*
X103645771Y-121489047D01*
X103645771Y-121489047D02*
X103693390Y-121584285D01*
X103693390Y-121584285D02*
X103741009Y-121631904D01*
X103741009Y-121631904D02*
X103836247Y-121679523D01*
X113957142Y-60119580D02*
X113909523Y-60167200D01*
X113909523Y-60167200D02*
X113766666Y-60214819D01*
X113766666Y-60214819D02*
X113671428Y-60214819D01*
X113671428Y-60214819D02*
X113528571Y-60167200D01*
X113528571Y-60167200D02*
X113433333Y-60071961D01*
X113433333Y-60071961D02*
X113385714Y-59976723D01*
X113385714Y-59976723D02*
X113338095Y-59786247D01*
X113338095Y-59786247D02*
X113338095Y-59643390D01*
X113338095Y-59643390D02*
X113385714Y-59452914D01*
X113385714Y-59452914D02*
X113433333Y-59357676D01*
X113433333Y-59357676D02*
X113528571Y-59262438D01*
X113528571Y-59262438D02*
X113671428Y-59214819D01*
X113671428Y-59214819D02*
X113766666Y-59214819D01*
X113766666Y-59214819D02*
X113909523Y-59262438D01*
X113909523Y-59262438D02*
X113957142Y-59310057D01*
X114814285Y-59548152D02*
X114814285Y-60214819D01*
X114576190Y-59167200D02*
X114338095Y-59881485D01*
X114338095Y-59881485D02*
X114957142Y-59881485D01*
X115385714Y-60214819D02*
X115576190Y-60214819D01*
X115576190Y-60214819D02*
X115671428Y-60167200D01*
X115671428Y-60167200D02*
X115719047Y-60119580D01*
X115719047Y-60119580D02*
X115814285Y-59976723D01*
X115814285Y-59976723D02*
X115861904Y-59786247D01*
X115861904Y-59786247D02*
X115861904Y-59405295D01*
X115861904Y-59405295D02*
X115814285Y-59310057D01*
X115814285Y-59310057D02*
X115766666Y-59262438D01*
X115766666Y-59262438D02*
X115671428Y-59214819D01*
X115671428Y-59214819D02*
X115480952Y-59214819D01*
X115480952Y-59214819D02*
X115385714Y-59262438D01*
X115385714Y-59262438D02*
X115338095Y-59310057D01*
X115338095Y-59310057D02*
X115290476Y-59405295D01*
X115290476Y-59405295D02*
X115290476Y-59643390D01*
X115290476Y-59643390D02*
X115338095Y-59738628D01*
X115338095Y-59738628D02*
X115385714Y-59786247D01*
X115385714Y-59786247D02*
X115480952Y-59833866D01*
X115480952Y-59833866D02*
X115671428Y-59833866D01*
X115671428Y-59833866D02*
X115766666Y-59786247D01*
X115766666Y-59786247D02*
X115814285Y-59738628D01*
X115814285Y-59738628D02*
X115861904Y-59643390D01*
X93718142Y-108741380D02*
X93670523Y-108789000D01*
X93670523Y-108789000D02*
X93527666Y-108836619D01*
X93527666Y-108836619D02*
X93432428Y-108836619D01*
X93432428Y-108836619D02*
X93289571Y-108789000D01*
X93289571Y-108789000D02*
X93194333Y-108693761D01*
X93194333Y-108693761D02*
X93146714Y-108598523D01*
X93146714Y-108598523D02*
X93099095Y-108408047D01*
X93099095Y-108408047D02*
X93099095Y-108265190D01*
X93099095Y-108265190D02*
X93146714Y-108074714D01*
X93146714Y-108074714D02*
X93194333Y-107979476D01*
X93194333Y-107979476D02*
X93289571Y-107884238D01*
X93289571Y-107884238D02*
X93432428Y-107836619D01*
X93432428Y-107836619D02*
X93527666Y-107836619D01*
X93527666Y-107836619D02*
X93670523Y-107884238D01*
X93670523Y-107884238D02*
X93718142Y-107931857D01*
X94670523Y-108836619D02*
X94099095Y-108836619D01*
X94384809Y-108836619D02*
X94384809Y-107836619D01*
X94384809Y-107836619D02*
X94289571Y-107979476D01*
X94289571Y-107979476D02*
X94194333Y-108074714D01*
X94194333Y-108074714D02*
X94099095Y-108122333D01*
X95241952Y-108265190D02*
X95146714Y-108217571D01*
X95146714Y-108217571D02*
X95099095Y-108169952D01*
X95099095Y-108169952D02*
X95051476Y-108074714D01*
X95051476Y-108074714D02*
X95051476Y-108027095D01*
X95051476Y-108027095D02*
X95099095Y-107931857D01*
X95099095Y-107931857D02*
X95146714Y-107884238D01*
X95146714Y-107884238D02*
X95241952Y-107836619D01*
X95241952Y-107836619D02*
X95432428Y-107836619D01*
X95432428Y-107836619D02*
X95527666Y-107884238D01*
X95527666Y-107884238D02*
X95575285Y-107931857D01*
X95575285Y-107931857D02*
X95622904Y-108027095D01*
X95622904Y-108027095D02*
X95622904Y-108074714D01*
X95622904Y-108074714D02*
X95575285Y-108169952D01*
X95575285Y-108169952D02*
X95527666Y-108217571D01*
X95527666Y-108217571D02*
X95432428Y-108265190D01*
X95432428Y-108265190D02*
X95241952Y-108265190D01*
X95241952Y-108265190D02*
X95146714Y-108312809D01*
X95146714Y-108312809D02*
X95099095Y-108360428D01*
X95099095Y-108360428D02*
X95051476Y-108455666D01*
X95051476Y-108455666D02*
X95051476Y-108646142D01*
X95051476Y-108646142D02*
X95099095Y-108741380D01*
X95099095Y-108741380D02*
X95146714Y-108789000D01*
X95146714Y-108789000D02*
X95241952Y-108836619D01*
X95241952Y-108836619D02*
X95432428Y-108836619D01*
X95432428Y-108836619D02*
X95527666Y-108789000D01*
X95527666Y-108789000D02*
X95575285Y-108741380D01*
X95575285Y-108741380D02*
X95622904Y-108646142D01*
X95622904Y-108646142D02*
X95622904Y-108455666D01*
X95622904Y-108455666D02*
X95575285Y-108360428D01*
X95575285Y-108360428D02*
X95527666Y-108312809D01*
X95527666Y-108312809D02*
X95432428Y-108265190D01*
X128142905Y-59470819D02*
X128714333Y-59470819D01*
X128428619Y-60470819D02*
X128428619Y-59470819D01*
X129047667Y-60470819D02*
X129047667Y-59470819D01*
X129047667Y-59470819D02*
X129428619Y-59470819D01*
X129428619Y-59470819D02*
X129523857Y-59518438D01*
X129523857Y-59518438D02*
X129571476Y-59566057D01*
X129571476Y-59566057D02*
X129619095Y-59661295D01*
X129619095Y-59661295D02*
X129619095Y-59804152D01*
X129619095Y-59804152D02*
X129571476Y-59899390D01*
X129571476Y-59899390D02*
X129523857Y-59947009D01*
X129523857Y-59947009D02*
X129428619Y-59994628D01*
X129428619Y-59994628D02*
X129047667Y-59994628D01*
X130571476Y-60470819D02*
X130000048Y-60470819D01*
X130285762Y-60470819D02*
X130285762Y-59470819D01*
X130285762Y-59470819D02*
X130190524Y-59613676D01*
X130190524Y-59613676D02*
X130095286Y-59708914D01*
X130095286Y-59708914D02*
X130000048Y-59756533D01*
X131142905Y-59899390D02*
X131047667Y-59851771D01*
X131047667Y-59851771D02*
X131000048Y-59804152D01*
X131000048Y-59804152D02*
X130952429Y-59708914D01*
X130952429Y-59708914D02*
X130952429Y-59661295D01*
X130952429Y-59661295D02*
X131000048Y-59566057D01*
X131000048Y-59566057D02*
X131047667Y-59518438D01*
X131047667Y-59518438D02*
X131142905Y-59470819D01*
X131142905Y-59470819D02*
X131333381Y-59470819D01*
X131333381Y-59470819D02*
X131428619Y-59518438D01*
X131428619Y-59518438D02*
X131476238Y-59566057D01*
X131476238Y-59566057D02*
X131523857Y-59661295D01*
X131523857Y-59661295D02*
X131523857Y-59708914D01*
X131523857Y-59708914D02*
X131476238Y-59804152D01*
X131476238Y-59804152D02*
X131428619Y-59851771D01*
X131428619Y-59851771D02*
X131333381Y-59899390D01*
X131333381Y-59899390D02*
X131142905Y-59899390D01*
X131142905Y-59899390D02*
X131047667Y-59947009D01*
X131047667Y-59947009D02*
X131000048Y-59994628D01*
X131000048Y-59994628D02*
X130952429Y-60089866D01*
X130952429Y-60089866D02*
X130952429Y-60280342D01*
X130952429Y-60280342D02*
X131000048Y-60375580D01*
X131000048Y-60375580D02*
X131047667Y-60423200D01*
X131047667Y-60423200D02*
X131142905Y-60470819D01*
X131142905Y-60470819D02*
X131333381Y-60470819D01*
X131333381Y-60470819D02*
X131428619Y-60423200D01*
X131428619Y-60423200D02*
X131476238Y-60375580D01*
X131476238Y-60375580D02*
X131523857Y-60280342D01*
X131523857Y-60280342D02*
X131523857Y-60089866D01*
X131523857Y-60089866D02*
X131476238Y-59994628D01*
X131476238Y-59994628D02*
X131428619Y-59947009D01*
X131428619Y-59947009D02*
X131333381Y-59899390D01*
X99977142Y-65539580D02*
X99929523Y-65587200D01*
X99929523Y-65587200D02*
X99786666Y-65634819D01*
X99786666Y-65634819D02*
X99691428Y-65634819D01*
X99691428Y-65634819D02*
X99548571Y-65587200D01*
X99548571Y-65587200D02*
X99453333Y-65491961D01*
X99453333Y-65491961D02*
X99405714Y-65396723D01*
X99405714Y-65396723D02*
X99358095Y-65206247D01*
X99358095Y-65206247D02*
X99358095Y-65063390D01*
X99358095Y-65063390D02*
X99405714Y-64872914D01*
X99405714Y-64872914D02*
X99453333Y-64777676D01*
X99453333Y-64777676D02*
X99548571Y-64682438D01*
X99548571Y-64682438D02*
X99691428Y-64634819D01*
X99691428Y-64634819D02*
X99786666Y-64634819D01*
X99786666Y-64634819D02*
X99929523Y-64682438D01*
X99929523Y-64682438D02*
X99977142Y-64730057D01*
X100834285Y-64968152D02*
X100834285Y-65634819D01*
X100596190Y-64587200D02*
X100358095Y-65301485D01*
X100358095Y-65301485D02*
X100977142Y-65301485D01*
X101548571Y-64634819D02*
X101643809Y-64634819D01*
X101643809Y-64634819D02*
X101739047Y-64682438D01*
X101739047Y-64682438D02*
X101786666Y-64730057D01*
X101786666Y-64730057D02*
X101834285Y-64825295D01*
X101834285Y-64825295D02*
X101881904Y-65015771D01*
X101881904Y-65015771D02*
X101881904Y-65253866D01*
X101881904Y-65253866D02*
X101834285Y-65444342D01*
X101834285Y-65444342D02*
X101786666Y-65539580D01*
X101786666Y-65539580D02*
X101739047Y-65587200D01*
X101739047Y-65587200D02*
X101643809Y-65634819D01*
X101643809Y-65634819D02*
X101548571Y-65634819D01*
X101548571Y-65634819D02*
X101453333Y-65587200D01*
X101453333Y-65587200D02*
X101405714Y-65539580D01*
X101405714Y-65539580D02*
X101358095Y-65444342D01*
X101358095Y-65444342D02*
X101310476Y-65253866D01*
X101310476Y-65253866D02*
X101310476Y-65015771D01*
X101310476Y-65015771D02*
X101358095Y-64825295D01*
X101358095Y-64825295D02*
X101405714Y-64730057D01*
X101405714Y-64730057D02*
X101453333Y-64682438D01*
X101453333Y-64682438D02*
X101548571Y-64634819D01*
X90701905Y-96604819D02*
X90701905Y-97414342D01*
X90701905Y-97414342D02*
X90749524Y-97509580D01*
X90749524Y-97509580D02*
X90797143Y-97557200D01*
X90797143Y-97557200D02*
X90892381Y-97604819D01*
X90892381Y-97604819D02*
X91082857Y-97604819D01*
X91082857Y-97604819D02*
X91178095Y-97557200D01*
X91178095Y-97557200D02*
X91225714Y-97509580D01*
X91225714Y-97509580D02*
X91273333Y-97414342D01*
X91273333Y-97414342D02*
X91273333Y-96604819D01*
X92273333Y-97604819D02*
X91701905Y-97604819D01*
X91987619Y-97604819D02*
X91987619Y-96604819D01*
X91987619Y-96604819D02*
X91892381Y-96747676D01*
X91892381Y-96747676D02*
X91797143Y-96842914D01*
X91797143Y-96842914D02*
X91701905Y-96890533D01*
X92892381Y-96604819D02*
X92987619Y-96604819D01*
X92987619Y-96604819D02*
X93082857Y-96652438D01*
X93082857Y-96652438D02*
X93130476Y-96700057D01*
X93130476Y-96700057D02*
X93178095Y-96795295D01*
X93178095Y-96795295D02*
X93225714Y-96985771D01*
X93225714Y-96985771D02*
X93225714Y-97223866D01*
X93225714Y-97223866D02*
X93178095Y-97414342D01*
X93178095Y-97414342D02*
X93130476Y-97509580D01*
X93130476Y-97509580D02*
X93082857Y-97557200D01*
X93082857Y-97557200D02*
X92987619Y-97604819D01*
X92987619Y-97604819D02*
X92892381Y-97604819D01*
X92892381Y-97604819D02*
X92797143Y-97557200D01*
X92797143Y-97557200D02*
X92749524Y-97509580D01*
X92749524Y-97509580D02*
X92701905Y-97414342D01*
X92701905Y-97414342D02*
X92654286Y-97223866D01*
X92654286Y-97223866D02*
X92654286Y-96985771D01*
X92654286Y-96985771D02*
X92701905Y-96795295D01*
X92701905Y-96795295D02*
X92749524Y-96700057D01*
X92749524Y-96700057D02*
X92797143Y-96652438D01*
X92797143Y-96652438D02*
X92892381Y-96604819D01*
X117971905Y-104764819D02*
X118543333Y-104764819D01*
X118257619Y-105764819D02*
X118257619Y-104764819D01*
X118876667Y-105764819D02*
X118876667Y-104764819D01*
X118876667Y-104764819D02*
X119257619Y-104764819D01*
X119257619Y-104764819D02*
X119352857Y-104812438D01*
X119352857Y-104812438D02*
X119400476Y-104860057D01*
X119400476Y-104860057D02*
X119448095Y-104955295D01*
X119448095Y-104955295D02*
X119448095Y-105098152D01*
X119448095Y-105098152D02*
X119400476Y-105193390D01*
X119400476Y-105193390D02*
X119352857Y-105241009D01*
X119352857Y-105241009D02*
X119257619Y-105288628D01*
X119257619Y-105288628D02*
X118876667Y-105288628D01*
X119781429Y-104764819D02*
X120400476Y-104764819D01*
X120400476Y-104764819D02*
X120067143Y-105145771D01*
X120067143Y-105145771D02*
X120210000Y-105145771D01*
X120210000Y-105145771D02*
X120305238Y-105193390D01*
X120305238Y-105193390D02*
X120352857Y-105241009D01*
X120352857Y-105241009D02*
X120400476Y-105336247D01*
X120400476Y-105336247D02*
X120400476Y-105574342D01*
X120400476Y-105574342D02*
X120352857Y-105669580D01*
X120352857Y-105669580D02*
X120305238Y-105717200D01*
X120305238Y-105717200D02*
X120210000Y-105764819D01*
X120210000Y-105764819D02*
X119924286Y-105764819D01*
X119924286Y-105764819D02*
X119829048Y-105717200D01*
X119829048Y-105717200D02*
X119781429Y-105669580D01*
X121257619Y-104764819D02*
X121067143Y-104764819D01*
X121067143Y-104764819D02*
X120971905Y-104812438D01*
X120971905Y-104812438D02*
X120924286Y-104860057D01*
X120924286Y-104860057D02*
X120829048Y-105002914D01*
X120829048Y-105002914D02*
X120781429Y-105193390D01*
X120781429Y-105193390D02*
X120781429Y-105574342D01*
X120781429Y-105574342D02*
X120829048Y-105669580D01*
X120829048Y-105669580D02*
X120876667Y-105717200D01*
X120876667Y-105717200D02*
X120971905Y-105764819D01*
X120971905Y-105764819D02*
X121162381Y-105764819D01*
X121162381Y-105764819D02*
X121257619Y-105717200D01*
X121257619Y-105717200D02*
X121305238Y-105669580D01*
X121305238Y-105669580D02*
X121352857Y-105574342D01*
X121352857Y-105574342D02*
X121352857Y-105336247D01*
X121352857Y-105336247D02*
X121305238Y-105241009D01*
X121305238Y-105241009D02*
X121257619Y-105193390D01*
X121257619Y-105193390D02*
X121162381Y-105145771D01*
X121162381Y-105145771D02*
X120971905Y-105145771D01*
X120971905Y-105145771D02*
X120876667Y-105193390D01*
X120876667Y-105193390D02*
X120829048Y-105241009D01*
X120829048Y-105241009D02*
X120781429Y-105336247D01*
X106862742Y-67902780D02*
X106815123Y-67950400D01*
X106815123Y-67950400D02*
X106672266Y-67998019D01*
X106672266Y-67998019D02*
X106577028Y-67998019D01*
X106577028Y-67998019D02*
X106434171Y-67950400D01*
X106434171Y-67950400D02*
X106338933Y-67855161D01*
X106338933Y-67855161D02*
X106291314Y-67759923D01*
X106291314Y-67759923D02*
X106243695Y-67569447D01*
X106243695Y-67569447D02*
X106243695Y-67426590D01*
X106243695Y-67426590D02*
X106291314Y-67236114D01*
X106291314Y-67236114D02*
X106338933Y-67140876D01*
X106338933Y-67140876D02*
X106434171Y-67045638D01*
X106434171Y-67045638D02*
X106577028Y-66998019D01*
X106577028Y-66998019D02*
X106672266Y-66998019D01*
X106672266Y-66998019D02*
X106815123Y-67045638D01*
X106815123Y-67045638D02*
X106862742Y-67093257D01*
X107196076Y-66998019D02*
X107815123Y-66998019D01*
X107815123Y-66998019D02*
X107481790Y-67378971D01*
X107481790Y-67378971D02*
X107624647Y-67378971D01*
X107624647Y-67378971D02*
X107719885Y-67426590D01*
X107719885Y-67426590D02*
X107767504Y-67474209D01*
X107767504Y-67474209D02*
X107815123Y-67569447D01*
X107815123Y-67569447D02*
X107815123Y-67807542D01*
X107815123Y-67807542D02*
X107767504Y-67902780D01*
X107767504Y-67902780D02*
X107719885Y-67950400D01*
X107719885Y-67950400D02*
X107624647Y-67998019D01*
X107624647Y-67998019D02*
X107338933Y-67998019D01*
X107338933Y-67998019D02*
X107243695Y-67950400D01*
X107243695Y-67950400D02*
X107196076Y-67902780D01*
X108291314Y-67998019D02*
X108481790Y-67998019D01*
X108481790Y-67998019D02*
X108577028Y-67950400D01*
X108577028Y-67950400D02*
X108624647Y-67902780D01*
X108624647Y-67902780D02*
X108719885Y-67759923D01*
X108719885Y-67759923D02*
X108767504Y-67569447D01*
X108767504Y-67569447D02*
X108767504Y-67188495D01*
X108767504Y-67188495D02*
X108719885Y-67093257D01*
X108719885Y-67093257D02*
X108672266Y-67045638D01*
X108672266Y-67045638D02*
X108577028Y-66998019D01*
X108577028Y-66998019D02*
X108386552Y-66998019D01*
X108386552Y-66998019D02*
X108291314Y-67045638D01*
X108291314Y-67045638D02*
X108243695Y-67093257D01*
X108243695Y-67093257D02*
X108196076Y-67188495D01*
X108196076Y-67188495D02*
X108196076Y-67426590D01*
X108196076Y-67426590D02*
X108243695Y-67521828D01*
X108243695Y-67521828D02*
X108291314Y-67569447D01*
X108291314Y-67569447D02*
X108386552Y-67617066D01*
X108386552Y-67617066D02*
X108577028Y-67617066D01*
X108577028Y-67617066D02*
X108672266Y-67569447D01*
X108672266Y-67569447D02*
X108719885Y-67521828D01*
X108719885Y-67521828D02*
X108767504Y-67426590D01*
X90921105Y-115456619D02*
X91492533Y-115456619D01*
X91206819Y-116456619D02*
X91206819Y-115456619D01*
X91825867Y-116456619D02*
X91825867Y-115456619D01*
X91825867Y-115456619D02*
X92206819Y-115456619D01*
X92206819Y-115456619D02*
X92302057Y-115504238D01*
X92302057Y-115504238D02*
X92349676Y-115551857D01*
X92349676Y-115551857D02*
X92397295Y-115647095D01*
X92397295Y-115647095D02*
X92397295Y-115789952D01*
X92397295Y-115789952D02*
X92349676Y-115885190D01*
X92349676Y-115885190D02*
X92302057Y-115932809D01*
X92302057Y-115932809D02*
X92206819Y-115980428D01*
X92206819Y-115980428D02*
X91825867Y-115980428D01*
X93254438Y-115789952D02*
X93254438Y-116456619D01*
X93016343Y-115409000D02*
X92778248Y-116123285D01*
X92778248Y-116123285D02*
X93397295Y-116123285D01*
X94206819Y-115789952D02*
X94206819Y-116456619D01*
X93968724Y-115409000D02*
X93730629Y-116123285D01*
X93730629Y-116123285D02*
X94349676Y-116123285D01*
X120359580Y-76444857D02*
X120407200Y-76492476D01*
X120407200Y-76492476D02*
X120454819Y-76635333D01*
X120454819Y-76635333D02*
X120454819Y-76730571D01*
X120454819Y-76730571D02*
X120407200Y-76873428D01*
X120407200Y-76873428D02*
X120311961Y-76968666D01*
X120311961Y-76968666D02*
X120216723Y-77016285D01*
X120216723Y-77016285D02*
X120026247Y-77063904D01*
X120026247Y-77063904D02*
X119883390Y-77063904D01*
X119883390Y-77063904D02*
X119692914Y-77016285D01*
X119692914Y-77016285D02*
X119597676Y-76968666D01*
X119597676Y-76968666D02*
X119502438Y-76873428D01*
X119502438Y-76873428D02*
X119454819Y-76730571D01*
X119454819Y-76730571D02*
X119454819Y-76635333D01*
X119454819Y-76635333D02*
X119502438Y-76492476D01*
X119502438Y-76492476D02*
X119550057Y-76444857D01*
X119454819Y-76111523D02*
X119454819Y-75492476D01*
X119454819Y-75492476D02*
X119835771Y-75825809D01*
X119835771Y-75825809D02*
X119835771Y-75682952D01*
X119835771Y-75682952D02*
X119883390Y-75587714D01*
X119883390Y-75587714D02*
X119931009Y-75540095D01*
X119931009Y-75540095D02*
X120026247Y-75492476D01*
X120026247Y-75492476D02*
X120264342Y-75492476D01*
X120264342Y-75492476D02*
X120359580Y-75540095D01*
X120359580Y-75540095D02*
X120407200Y-75587714D01*
X120407200Y-75587714D02*
X120454819Y-75682952D01*
X120454819Y-75682952D02*
X120454819Y-75968666D01*
X120454819Y-75968666D02*
X120407200Y-76063904D01*
X120407200Y-76063904D02*
X120359580Y-76111523D01*
X120454819Y-74540095D02*
X120454819Y-75111523D01*
X120454819Y-74825809D02*
X119454819Y-74825809D01*
X119454819Y-74825809D02*
X119597676Y-74921047D01*
X119597676Y-74921047D02*
X119692914Y-75016285D01*
X119692914Y-75016285D02*
X119740533Y-75111523D01*
X81491142Y-89350580D02*
X81443523Y-89398200D01*
X81443523Y-89398200D02*
X81300666Y-89445819D01*
X81300666Y-89445819D02*
X81205428Y-89445819D01*
X81205428Y-89445819D02*
X81062571Y-89398200D01*
X81062571Y-89398200D02*
X80967333Y-89302961D01*
X80967333Y-89302961D02*
X80919714Y-89207723D01*
X80919714Y-89207723D02*
X80872095Y-89017247D01*
X80872095Y-89017247D02*
X80872095Y-88874390D01*
X80872095Y-88874390D02*
X80919714Y-88683914D01*
X80919714Y-88683914D02*
X80967333Y-88588676D01*
X80967333Y-88588676D02*
X81062571Y-88493438D01*
X81062571Y-88493438D02*
X81205428Y-88445819D01*
X81205428Y-88445819D02*
X81300666Y-88445819D01*
X81300666Y-88445819D02*
X81443523Y-88493438D01*
X81443523Y-88493438D02*
X81491142Y-88541057D01*
X81824476Y-88445819D02*
X82443523Y-88445819D01*
X82443523Y-88445819D02*
X82110190Y-88826771D01*
X82110190Y-88826771D02*
X82253047Y-88826771D01*
X82253047Y-88826771D02*
X82348285Y-88874390D01*
X82348285Y-88874390D02*
X82395904Y-88922009D01*
X82395904Y-88922009D02*
X82443523Y-89017247D01*
X82443523Y-89017247D02*
X82443523Y-89255342D01*
X82443523Y-89255342D02*
X82395904Y-89350580D01*
X82395904Y-89350580D02*
X82348285Y-89398200D01*
X82348285Y-89398200D02*
X82253047Y-89445819D01*
X82253047Y-89445819D02*
X81967333Y-89445819D01*
X81967333Y-89445819D02*
X81872095Y-89398200D01*
X81872095Y-89398200D02*
X81824476Y-89350580D01*
X83348285Y-88445819D02*
X82872095Y-88445819D01*
X82872095Y-88445819D02*
X82824476Y-88922009D01*
X82824476Y-88922009D02*
X82872095Y-88874390D01*
X82872095Y-88874390D02*
X82967333Y-88826771D01*
X82967333Y-88826771D02*
X83205428Y-88826771D01*
X83205428Y-88826771D02*
X83300666Y-88874390D01*
X83300666Y-88874390D02*
X83348285Y-88922009D01*
X83348285Y-88922009D02*
X83395904Y-89017247D01*
X83395904Y-89017247D02*
X83395904Y-89255342D01*
X83395904Y-89255342D02*
X83348285Y-89350580D01*
X83348285Y-89350580D02*
X83300666Y-89398200D01*
X83300666Y-89398200D02*
X83205428Y-89445819D01*
X83205428Y-89445819D02*
X82967333Y-89445819D01*
X82967333Y-89445819D02*
X82872095Y-89398200D01*
X82872095Y-89398200D02*
X82824476Y-89350580D01*
X109151580Y-112863857D02*
X109199200Y-112911476D01*
X109199200Y-112911476D02*
X109246819Y-113054333D01*
X109246819Y-113054333D02*
X109246819Y-113149571D01*
X109246819Y-113149571D02*
X109199200Y-113292428D01*
X109199200Y-113292428D02*
X109103961Y-113387666D01*
X109103961Y-113387666D02*
X109008723Y-113435285D01*
X109008723Y-113435285D02*
X108818247Y-113482904D01*
X108818247Y-113482904D02*
X108675390Y-113482904D01*
X108675390Y-113482904D02*
X108484914Y-113435285D01*
X108484914Y-113435285D02*
X108389676Y-113387666D01*
X108389676Y-113387666D02*
X108294438Y-113292428D01*
X108294438Y-113292428D02*
X108246819Y-113149571D01*
X108246819Y-113149571D02*
X108246819Y-113054333D01*
X108246819Y-113054333D02*
X108294438Y-112911476D01*
X108294438Y-112911476D02*
X108342057Y-112863857D01*
X109246819Y-111911476D02*
X109246819Y-112482904D01*
X109246819Y-112197190D02*
X108246819Y-112197190D01*
X108246819Y-112197190D02*
X108389676Y-112292428D01*
X108389676Y-112292428D02*
X108484914Y-112387666D01*
X108484914Y-112387666D02*
X108532533Y-112482904D01*
X108246819Y-111292428D02*
X108246819Y-111197190D01*
X108246819Y-111197190D02*
X108294438Y-111101952D01*
X108294438Y-111101952D02*
X108342057Y-111054333D01*
X108342057Y-111054333D02*
X108437295Y-111006714D01*
X108437295Y-111006714D02*
X108627771Y-110959095D01*
X108627771Y-110959095D02*
X108865866Y-110959095D01*
X108865866Y-110959095D02*
X109056342Y-111006714D01*
X109056342Y-111006714D02*
X109151580Y-111054333D01*
X109151580Y-111054333D02*
X109199200Y-111101952D01*
X109199200Y-111101952D02*
X109246819Y-111197190D01*
X109246819Y-111197190D02*
X109246819Y-111292428D01*
X109246819Y-111292428D02*
X109199200Y-111387666D01*
X109199200Y-111387666D02*
X109151580Y-111435285D01*
X109151580Y-111435285D02*
X109056342Y-111482904D01*
X109056342Y-111482904D02*
X108865866Y-111530523D01*
X108865866Y-111530523D02*
X108627771Y-111530523D01*
X108627771Y-111530523D02*
X108437295Y-111482904D01*
X108437295Y-111482904D02*
X108342057Y-111435285D01*
X108342057Y-111435285D02*
X108294438Y-111387666D01*
X108294438Y-111387666D02*
X108246819Y-111292428D01*
X111687780Y-112889257D02*
X111735400Y-112936876D01*
X111735400Y-112936876D02*
X111783019Y-113079733D01*
X111783019Y-113079733D02*
X111783019Y-113174971D01*
X111783019Y-113174971D02*
X111735400Y-113317828D01*
X111735400Y-113317828D02*
X111640161Y-113413066D01*
X111640161Y-113413066D02*
X111544923Y-113460685D01*
X111544923Y-113460685D02*
X111354447Y-113508304D01*
X111354447Y-113508304D02*
X111211590Y-113508304D01*
X111211590Y-113508304D02*
X111021114Y-113460685D01*
X111021114Y-113460685D02*
X110925876Y-113413066D01*
X110925876Y-113413066D02*
X110830638Y-113317828D01*
X110830638Y-113317828D02*
X110783019Y-113174971D01*
X110783019Y-113174971D02*
X110783019Y-113079733D01*
X110783019Y-113079733D02*
X110830638Y-112936876D01*
X110830638Y-112936876D02*
X110878257Y-112889257D01*
X111783019Y-111936876D02*
X111783019Y-112508304D01*
X111783019Y-112222590D02*
X110783019Y-112222590D01*
X110783019Y-112222590D02*
X110925876Y-112317828D01*
X110925876Y-112317828D02*
X111021114Y-112413066D01*
X111021114Y-112413066D02*
X111068733Y-112508304D01*
X111783019Y-110984495D02*
X111783019Y-111555923D01*
X111783019Y-111270209D02*
X110783019Y-111270209D01*
X110783019Y-111270209D02*
X110925876Y-111365447D01*
X110925876Y-111365447D02*
X111021114Y-111460685D01*
X111021114Y-111460685D02*
X111068733Y-111555923D01*
X92484819Y-62322857D02*
X92008628Y-62656190D01*
X92484819Y-62894285D02*
X91484819Y-62894285D01*
X91484819Y-62894285D02*
X91484819Y-62513333D01*
X91484819Y-62513333D02*
X91532438Y-62418095D01*
X91532438Y-62418095D02*
X91580057Y-62370476D01*
X91580057Y-62370476D02*
X91675295Y-62322857D01*
X91675295Y-62322857D02*
X91818152Y-62322857D01*
X91818152Y-62322857D02*
X91913390Y-62370476D01*
X91913390Y-62370476D02*
X91961009Y-62418095D01*
X91961009Y-62418095D02*
X92008628Y-62513333D01*
X92008628Y-62513333D02*
X92008628Y-62894285D01*
X92484819Y-61370476D02*
X92484819Y-61941904D01*
X92484819Y-61656190D02*
X91484819Y-61656190D01*
X91484819Y-61656190D02*
X91627676Y-61751428D01*
X91627676Y-61751428D02*
X91722914Y-61846666D01*
X91722914Y-61846666D02*
X91770533Y-61941904D01*
X91818152Y-60513333D02*
X92484819Y-60513333D01*
X91437200Y-60751428D02*
X92151485Y-60989523D01*
X92151485Y-60989523D02*
X92151485Y-60370476D01*
X106876942Y-66786419D02*
X106543609Y-66310228D01*
X106305514Y-66786419D02*
X106305514Y-65786419D01*
X106305514Y-65786419D02*
X106686466Y-65786419D01*
X106686466Y-65786419D02*
X106781704Y-65834038D01*
X106781704Y-65834038D02*
X106829323Y-65881657D01*
X106829323Y-65881657D02*
X106876942Y-65976895D01*
X106876942Y-65976895D02*
X106876942Y-66119752D01*
X106876942Y-66119752D02*
X106829323Y-66214990D01*
X106829323Y-66214990D02*
X106781704Y-66262609D01*
X106781704Y-66262609D02*
X106686466Y-66310228D01*
X106686466Y-66310228D02*
X106305514Y-66310228D01*
X107829323Y-66786419D02*
X107257895Y-66786419D01*
X107543609Y-66786419D02*
X107543609Y-65786419D01*
X107543609Y-65786419D02*
X107448371Y-65929276D01*
X107448371Y-65929276D02*
X107353133Y-66024514D01*
X107353133Y-66024514D02*
X107257895Y-66072133D01*
X108781704Y-66786419D02*
X108210276Y-66786419D01*
X108495990Y-66786419D02*
X108495990Y-65786419D01*
X108495990Y-65786419D02*
X108400752Y-65929276D01*
X108400752Y-65929276D02*
X108305514Y-66024514D01*
X108305514Y-66024514D02*
X108210276Y-66072133D01*
X99241380Y-124338857D02*
X99289000Y-124386476D01*
X99289000Y-124386476D02*
X99336619Y-124529333D01*
X99336619Y-124529333D02*
X99336619Y-124624571D01*
X99336619Y-124624571D02*
X99289000Y-124767428D01*
X99289000Y-124767428D02*
X99193761Y-124862666D01*
X99193761Y-124862666D02*
X99098523Y-124910285D01*
X99098523Y-124910285D02*
X98908047Y-124957904D01*
X98908047Y-124957904D02*
X98765190Y-124957904D01*
X98765190Y-124957904D02*
X98574714Y-124910285D01*
X98574714Y-124910285D02*
X98479476Y-124862666D01*
X98479476Y-124862666D02*
X98384238Y-124767428D01*
X98384238Y-124767428D02*
X98336619Y-124624571D01*
X98336619Y-124624571D02*
X98336619Y-124529333D01*
X98336619Y-124529333D02*
X98384238Y-124386476D01*
X98384238Y-124386476D02*
X98431857Y-124338857D01*
X99336619Y-123386476D02*
X99336619Y-123957904D01*
X99336619Y-123672190D02*
X98336619Y-123672190D01*
X98336619Y-123672190D02*
X98479476Y-123767428D01*
X98479476Y-123767428D02*
X98574714Y-123862666D01*
X98574714Y-123862666D02*
X98622333Y-123957904D01*
X98669952Y-122529333D02*
X99336619Y-122529333D01*
X98289000Y-122767428D02*
X99003285Y-123005523D01*
X99003285Y-123005523D02*
X99003285Y-122386476D01*
X105057142Y-109429580D02*
X105009523Y-109477200D01*
X105009523Y-109477200D02*
X104866666Y-109524819D01*
X104866666Y-109524819D02*
X104771428Y-109524819D01*
X104771428Y-109524819D02*
X104628571Y-109477200D01*
X104628571Y-109477200D02*
X104533333Y-109381961D01*
X104533333Y-109381961D02*
X104485714Y-109286723D01*
X104485714Y-109286723D02*
X104438095Y-109096247D01*
X104438095Y-109096247D02*
X104438095Y-108953390D01*
X104438095Y-108953390D02*
X104485714Y-108762914D01*
X104485714Y-108762914D02*
X104533333Y-108667676D01*
X104533333Y-108667676D02*
X104628571Y-108572438D01*
X104628571Y-108572438D02*
X104771428Y-108524819D01*
X104771428Y-108524819D02*
X104866666Y-108524819D01*
X104866666Y-108524819D02*
X105009523Y-108572438D01*
X105009523Y-108572438D02*
X105057142Y-108620057D01*
X106009523Y-109524819D02*
X105438095Y-109524819D01*
X105723809Y-109524819D02*
X105723809Y-108524819D01*
X105723809Y-108524819D02*
X105628571Y-108667676D01*
X105628571Y-108667676D02*
X105533333Y-108762914D01*
X105533333Y-108762914D02*
X105438095Y-108810533D01*
X106342857Y-108524819D02*
X106961904Y-108524819D01*
X106961904Y-108524819D02*
X106628571Y-108905771D01*
X106628571Y-108905771D02*
X106771428Y-108905771D01*
X106771428Y-108905771D02*
X106866666Y-108953390D01*
X106866666Y-108953390D02*
X106914285Y-109001009D01*
X106914285Y-109001009D02*
X106961904Y-109096247D01*
X106961904Y-109096247D02*
X106961904Y-109334342D01*
X106961904Y-109334342D02*
X106914285Y-109429580D01*
X106914285Y-109429580D02*
X106866666Y-109477200D01*
X106866666Y-109477200D02*
X106771428Y-109524819D01*
X106771428Y-109524819D02*
X106485714Y-109524819D01*
X106485714Y-109524819D02*
X106390476Y-109477200D01*
X106390476Y-109477200D02*
X106342857Y-109429580D01*
X99226248Y-76656621D02*
X99131010Y-76609002D01*
X99131010Y-76609002D02*
X99035772Y-76513764D01*
X99035772Y-76513764D02*
X98892915Y-76370906D01*
X98892915Y-76370906D02*
X98797677Y-76323287D01*
X98797677Y-76323287D02*
X98702439Y-76323287D01*
X98750058Y-76561383D02*
X98654820Y-76513764D01*
X98654820Y-76513764D02*
X98559582Y-76418525D01*
X98559582Y-76418525D02*
X98511963Y-76228049D01*
X98511963Y-76228049D02*
X98511963Y-75894716D01*
X98511963Y-75894716D02*
X98559582Y-75704240D01*
X98559582Y-75704240D02*
X98654820Y-75609002D01*
X98654820Y-75609002D02*
X98750058Y-75561383D01*
X98750058Y-75561383D02*
X98940534Y-75561383D01*
X98940534Y-75561383D02*
X99035772Y-75609002D01*
X99035772Y-75609002D02*
X99131010Y-75704240D01*
X99131010Y-75704240D02*
X99178629Y-75894716D01*
X99178629Y-75894716D02*
X99178629Y-76228049D01*
X99178629Y-76228049D02*
X99131010Y-76418525D01*
X99131010Y-76418525D02*
X99035772Y-76513764D01*
X99035772Y-76513764D02*
X98940534Y-76561383D01*
X98940534Y-76561383D02*
X98750058Y-76561383D01*
X99559582Y-75656621D02*
X99607201Y-75609002D01*
X99607201Y-75609002D02*
X99702439Y-75561383D01*
X99702439Y-75561383D02*
X99940534Y-75561383D01*
X99940534Y-75561383D02*
X100035772Y-75609002D01*
X100035772Y-75609002D02*
X100083391Y-75656621D01*
X100083391Y-75656621D02*
X100131010Y-75751859D01*
X100131010Y-75751859D02*
X100131010Y-75847097D01*
X100131010Y-75847097D02*
X100083391Y-75989954D01*
X100083391Y-75989954D02*
X99511963Y-76561383D01*
X99511963Y-76561383D02*
X100131010Y-76561383D01*
X102492980Y-108897657D02*
X102540600Y-108945276D01*
X102540600Y-108945276D02*
X102588219Y-109088133D01*
X102588219Y-109088133D02*
X102588219Y-109183371D01*
X102588219Y-109183371D02*
X102540600Y-109326228D01*
X102540600Y-109326228D02*
X102445361Y-109421466D01*
X102445361Y-109421466D02*
X102350123Y-109469085D01*
X102350123Y-109469085D02*
X102159647Y-109516704D01*
X102159647Y-109516704D02*
X102016790Y-109516704D01*
X102016790Y-109516704D02*
X101826314Y-109469085D01*
X101826314Y-109469085D02*
X101731076Y-109421466D01*
X101731076Y-109421466D02*
X101635838Y-109326228D01*
X101635838Y-109326228D02*
X101588219Y-109183371D01*
X101588219Y-109183371D02*
X101588219Y-109088133D01*
X101588219Y-109088133D02*
X101635838Y-108945276D01*
X101635838Y-108945276D02*
X101683457Y-108897657D01*
X101588219Y-108564323D02*
X101588219Y-107945276D01*
X101588219Y-107945276D02*
X101969171Y-108278609D01*
X101969171Y-108278609D02*
X101969171Y-108135752D01*
X101969171Y-108135752D02*
X102016790Y-108040514D01*
X102016790Y-108040514D02*
X102064409Y-107992895D01*
X102064409Y-107992895D02*
X102159647Y-107945276D01*
X102159647Y-107945276D02*
X102397742Y-107945276D01*
X102397742Y-107945276D02*
X102492980Y-107992895D01*
X102492980Y-107992895D02*
X102540600Y-108040514D01*
X102540600Y-108040514D02*
X102588219Y-108135752D01*
X102588219Y-108135752D02*
X102588219Y-108421466D01*
X102588219Y-108421466D02*
X102540600Y-108516704D01*
X102540600Y-108516704D02*
X102492980Y-108564323D01*
X101588219Y-107611942D02*
X101588219Y-106992895D01*
X101588219Y-106992895D02*
X101969171Y-107326228D01*
X101969171Y-107326228D02*
X101969171Y-107183371D01*
X101969171Y-107183371D02*
X102016790Y-107088133D01*
X102016790Y-107088133D02*
X102064409Y-107040514D01*
X102064409Y-107040514D02*
X102159647Y-106992895D01*
X102159647Y-106992895D02*
X102397742Y-106992895D01*
X102397742Y-106992895D02*
X102492980Y-107040514D01*
X102492980Y-107040514D02*
X102540600Y-107088133D01*
X102540600Y-107088133D02*
X102588219Y-107183371D01*
X102588219Y-107183371D02*
X102588219Y-107469085D01*
X102588219Y-107469085D02*
X102540600Y-107564323D01*
X102540600Y-107564323D02*
X102492980Y-107611942D01*
X95972333Y-140180219D02*
X95639000Y-139704028D01*
X95400905Y-140180219D02*
X95400905Y-139180219D01*
X95400905Y-139180219D02*
X95781857Y-139180219D01*
X95781857Y-139180219D02*
X95877095Y-139227838D01*
X95877095Y-139227838D02*
X95924714Y-139275457D01*
X95924714Y-139275457D02*
X95972333Y-139370695D01*
X95972333Y-139370695D02*
X95972333Y-139513552D01*
X95972333Y-139513552D02*
X95924714Y-139608790D01*
X95924714Y-139608790D02*
X95877095Y-139656409D01*
X95877095Y-139656409D02*
X95781857Y-139704028D01*
X95781857Y-139704028D02*
X95400905Y-139704028D01*
X96353286Y-139275457D02*
X96400905Y-139227838D01*
X96400905Y-139227838D02*
X96496143Y-139180219D01*
X96496143Y-139180219D02*
X96734238Y-139180219D01*
X96734238Y-139180219D02*
X96829476Y-139227838D01*
X96829476Y-139227838D02*
X96877095Y-139275457D01*
X96877095Y-139275457D02*
X96924714Y-139370695D01*
X96924714Y-139370695D02*
X96924714Y-139465933D01*
X96924714Y-139465933D02*
X96877095Y-139608790D01*
X96877095Y-139608790D02*
X96305667Y-140180219D01*
X96305667Y-140180219D02*
X96924714Y-140180219D01*
X113944819Y-138191904D02*
X113944819Y-137620476D01*
X114944819Y-137906190D02*
X113944819Y-137906190D01*
X114944819Y-137287142D02*
X113944819Y-137287142D01*
X113944819Y-137287142D02*
X113944819Y-136906190D01*
X113944819Y-136906190D02*
X113992438Y-136810952D01*
X113992438Y-136810952D02*
X114040057Y-136763333D01*
X114040057Y-136763333D02*
X114135295Y-136715714D01*
X114135295Y-136715714D02*
X114278152Y-136715714D01*
X114278152Y-136715714D02*
X114373390Y-136763333D01*
X114373390Y-136763333D02*
X114421009Y-136810952D01*
X114421009Y-136810952D02*
X114468628Y-136906190D01*
X114468628Y-136906190D02*
X114468628Y-137287142D01*
X113944819Y-136382380D02*
X113944819Y-135763333D01*
X113944819Y-135763333D02*
X114325771Y-136096666D01*
X114325771Y-136096666D02*
X114325771Y-135953809D01*
X114325771Y-135953809D02*
X114373390Y-135858571D01*
X114373390Y-135858571D02*
X114421009Y-135810952D01*
X114421009Y-135810952D02*
X114516247Y-135763333D01*
X114516247Y-135763333D02*
X114754342Y-135763333D01*
X114754342Y-135763333D02*
X114849580Y-135810952D01*
X114849580Y-135810952D02*
X114897200Y-135858571D01*
X114897200Y-135858571D02*
X114944819Y-135953809D01*
X114944819Y-135953809D02*
X114944819Y-136239523D01*
X114944819Y-136239523D02*
X114897200Y-136334761D01*
X114897200Y-136334761D02*
X114849580Y-136382380D01*
X89930505Y-105957019D02*
X90501933Y-105957019D01*
X90216219Y-106957019D02*
X90216219Y-105957019D01*
X90835267Y-106957019D02*
X90835267Y-105957019D01*
X90835267Y-105957019D02*
X91216219Y-105957019D01*
X91216219Y-105957019D02*
X91311457Y-106004638D01*
X91311457Y-106004638D02*
X91359076Y-106052257D01*
X91359076Y-106052257D02*
X91406695Y-106147495D01*
X91406695Y-106147495D02*
X91406695Y-106290352D01*
X91406695Y-106290352D02*
X91359076Y-106385590D01*
X91359076Y-106385590D02*
X91311457Y-106433209D01*
X91311457Y-106433209D02*
X91216219Y-106480828D01*
X91216219Y-106480828D02*
X90835267Y-106480828D01*
X92263838Y-106290352D02*
X92263838Y-106957019D01*
X92025743Y-105909400D02*
X91787648Y-106623685D01*
X91787648Y-106623685D02*
X92406695Y-106623685D01*
X93311457Y-106957019D02*
X92740029Y-106957019D01*
X93025743Y-106957019D02*
X93025743Y-105957019D01*
X93025743Y-105957019D02*
X92930505Y-106099876D01*
X92930505Y-106099876D02*
X92835267Y-106195114D01*
X92835267Y-106195114D02*
X92740029Y-106242733D01*
X95287142Y-96339580D02*
X95239523Y-96387200D01*
X95239523Y-96387200D02*
X95096666Y-96434819D01*
X95096666Y-96434819D02*
X95001428Y-96434819D01*
X95001428Y-96434819D02*
X94858571Y-96387200D01*
X94858571Y-96387200D02*
X94763333Y-96291961D01*
X94763333Y-96291961D02*
X94715714Y-96196723D01*
X94715714Y-96196723D02*
X94668095Y-96006247D01*
X94668095Y-96006247D02*
X94668095Y-95863390D01*
X94668095Y-95863390D02*
X94715714Y-95672914D01*
X94715714Y-95672914D02*
X94763333Y-95577676D01*
X94763333Y-95577676D02*
X94858571Y-95482438D01*
X94858571Y-95482438D02*
X95001428Y-95434819D01*
X95001428Y-95434819D02*
X95096666Y-95434819D01*
X95096666Y-95434819D02*
X95239523Y-95482438D01*
X95239523Y-95482438D02*
X95287142Y-95530057D01*
X96144285Y-95768152D02*
X96144285Y-96434819D01*
X95906190Y-95387200D02*
X95668095Y-96101485D01*
X95668095Y-96101485D02*
X96287142Y-96101485D01*
X97096666Y-95768152D02*
X97096666Y-96434819D01*
X96858571Y-95387200D02*
X96620476Y-96101485D01*
X96620476Y-96101485D02*
X97239523Y-96101485D01*
X95967095Y-66409819D02*
X95967095Y-67219342D01*
X95967095Y-67219342D02*
X96014714Y-67314580D01*
X96014714Y-67314580D02*
X96062333Y-67362200D01*
X96062333Y-67362200D02*
X96157571Y-67409819D01*
X96157571Y-67409819D02*
X96348047Y-67409819D01*
X96348047Y-67409819D02*
X96443285Y-67362200D01*
X96443285Y-67362200D02*
X96490904Y-67314580D01*
X96490904Y-67314580D02*
X96538523Y-67219342D01*
X96538523Y-67219342D02*
X96538523Y-66409819D01*
X97062333Y-67409819D02*
X97252809Y-67409819D01*
X97252809Y-67409819D02*
X97348047Y-67362200D01*
X97348047Y-67362200D02*
X97395666Y-67314580D01*
X97395666Y-67314580D02*
X97490904Y-67171723D01*
X97490904Y-67171723D02*
X97538523Y-66981247D01*
X97538523Y-66981247D02*
X97538523Y-66600295D01*
X97538523Y-66600295D02*
X97490904Y-66505057D01*
X97490904Y-66505057D02*
X97443285Y-66457438D01*
X97443285Y-66457438D02*
X97348047Y-66409819D01*
X97348047Y-66409819D02*
X97157571Y-66409819D01*
X97157571Y-66409819D02*
X97062333Y-66457438D01*
X97062333Y-66457438D02*
X97014714Y-66505057D01*
X97014714Y-66505057D02*
X96967095Y-66600295D01*
X96967095Y-66600295D02*
X96967095Y-66838390D01*
X96967095Y-66838390D02*
X97014714Y-66933628D01*
X97014714Y-66933628D02*
X97062333Y-66981247D01*
X97062333Y-66981247D02*
X97157571Y-67028866D01*
X97157571Y-67028866D02*
X97348047Y-67028866D01*
X97348047Y-67028866D02*
X97443285Y-66981247D01*
X97443285Y-66981247D02*
X97490904Y-66933628D01*
X97490904Y-66933628D02*
X97538523Y-66838390D01*
X103371905Y-101939707D02*
X103943333Y-101939707D01*
X103657619Y-102939707D02*
X103657619Y-101939707D01*
X104276667Y-102939707D02*
X104276667Y-101939707D01*
X104276667Y-101939707D02*
X104657619Y-101939707D01*
X104657619Y-101939707D02*
X104752857Y-101987326D01*
X104752857Y-101987326D02*
X104800476Y-102034945D01*
X104800476Y-102034945D02*
X104848095Y-102130183D01*
X104848095Y-102130183D02*
X104848095Y-102273040D01*
X104848095Y-102273040D02*
X104800476Y-102368278D01*
X104800476Y-102368278D02*
X104752857Y-102415897D01*
X104752857Y-102415897D02*
X104657619Y-102463516D01*
X104657619Y-102463516D02*
X104276667Y-102463516D01*
X105181429Y-101939707D02*
X105800476Y-101939707D01*
X105800476Y-101939707D02*
X105467143Y-102320659D01*
X105467143Y-102320659D02*
X105610000Y-102320659D01*
X105610000Y-102320659D02*
X105705238Y-102368278D01*
X105705238Y-102368278D02*
X105752857Y-102415897D01*
X105752857Y-102415897D02*
X105800476Y-102511135D01*
X105800476Y-102511135D02*
X105800476Y-102749230D01*
X105800476Y-102749230D02*
X105752857Y-102844468D01*
X105752857Y-102844468D02*
X105705238Y-102892088D01*
X105705238Y-102892088D02*
X105610000Y-102939707D01*
X105610000Y-102939707D02*
X105324286Y-102939707D01*
X105324286Y-102939707D02*
X105229048Y-102892088D01*
X105229048Y-102892088D02*
X105181429Y-102844468D01*
X106657619Y-102273040D02*
X106657619Y-102939707D01*
X106419524Y-101892088D02*
X106181429Y-102606373D01*
X106181429Y-102606373D02*
X106800476Y-102606373D01*
X82361305Y-120231819D02*
X82932733Y-120231819D01*
X82647019Y-121231819D02*
X82647019Y-120231819D01*
X83266067Y-121231819D02*
X83266067Y-120231819D01*
X83266067Y-120231819D02*
X83647019Y-120231819D01*
X83647019Y-120231819D02*
X83742257Y-120279438D01*
X83742257Y-120279438D02*
X83789876Y-120327057D01*
X83789876Y-120327057D02*
X83837495Y-120422295D01*
X83837495Y-120422295D02*
X83837495Y-120565152D01*
X83837495Y-120565152D02*
X83789876Y-120660390D01*
X83789876Y-120660390D02*
X83742257Y-120708009D01*
X83742257Y-120708009D02*
X83647019Y-120755628D01*
X83647019Y-120755628D02*
X83266067Y-120755628D01*
X84694638Y-120565152D02*
X84694638Y-121231819D01*
X84456543Y-120184200D02*
X84218448Y-120898485D01*
X84218448Y-120898485D02*
X84837495Y-120898485D01*
X85647019Y-120231819D02*
X85456543Y-120231819D01*
X85456543Y-120231819D02*
X85361305Y-120279438D01*
X85361305Y-120279438D02*
X85313686Y-120327057D01*
X85313686Y-120327057D02*
X85218448Y-120469914D01*
X85218448Y-120469914D02*
X85170829Y-120660390D01*
X85170829Y-120660390D02*
X85170829Y-121041342D01*
X85170829Y-121041342D02*
X85218448Y-121136580D01*
X85218448Y-121136580D02*
X85266067Y-121184200D01*
X85266067Y-121184200D02*
X85361305Y-121231819D01*
X85361305Y-121231819D02*
X85551781Y-121231819D01*
X85551781Y-121231819D02*
X85647019Y-121184200D01*
X85647019Y-121184200D02*
X85694638Y-121136580D01*
X85694638Y-121136580D02*
X85742257Y-121041342D01*
X85742257Y-121041342D02*
X85742257Y-120803247D01*
X85742257Y-120803247D02*
X85694638Y-120708009D01*
X85694638Y-120708009D02*
X85647019Y-120660390D01*
X85647019Y-120660390D02*
X85551781Y-120612771D01*
X85551781Y-120612771D02*
X85361305Y-120612771D01*
X85361305Y-120612771D02*
X85266067Y-120660390D01*
X85266067Y-120660390D02*
X85218448Y-120708009D01*
X85218448Y-120708009D02*
X85170829Y-120803247D01*
X93060142Y-133627580D02*
X93012523Y-133675200D01*
X93012523Y-133675200D02*
X92869666Y-133722819D01*
X92869666Y-133722819D02*
X92774428Y-133722819D01*
X92774428Y-133722819D02*
X92631571Y-133675200D01*
X92631571Y-133675200D02*
X92536333Y-133579961D01*
X92536333Y-133579961D02*
X92488714Y-133484723D01*
X92488714Y-133484723D02*
X92441095Y-133294247D01*
X92441095Y-133294247D02*
X92441095Y-133151390D01*
X92441095Y-133151390D02*
X92488714Y-132960914D01*
X92488714Y-132960914D02*
X92536333Y-132865676D01*
X92536333Y-132865676D02*
X92631571Y-132770438D01*
X92631571Y-132770438D02*
X92774428Y-132722819D01*
X92774428Y-132722819D02*
X92869666Y-132722819D01*
X92869666Y-132722819D02*
X93012523Y-132770438D01*
X93012523Y-132770438D02*
X93060142Y-132818057D01*
X93441095Y-132818057D02*
X93488714Y-132770438D01*
X93488714Y-132770438D02*
X93583952Y-132722819D01*
X93583952Y-132722819D02*
X93822047Y-132722819D01*
X93822047Y-132722819D02*
X93917285Y-132770438D01*
X93917285Y-132770438D02*
X93964904Y-132818057D01*
X93964904Y-132818057D02*
X94012523Y-132913295D01*
X94012523Y-132913295D02*
X94012523Y-133008533D01*
X94012523Y-133008533D02*
X93964904Y-133151390D01*
X93964904Y-133151390D02*
X93393476Y-133722819D01*
X93393476Y-133722819D02*
X94012523Y-133722819D01*
X94393476Y-132818057D02*
X94441095Y-132770438D01*
X94441095Y-132770438D02*
X94536333Y-132722819D01*
X94536333Y-132722819D02*
X94774428Y-132722819D01*
X94774428Y-132722819D02*
X94869666Y-132770438D01*
X94869666Y-132770438D02*
X94917285Y-132818057D01*
X94917285Y-132818057D02*
X94964904Y-132913295D01*
X94964904Y-132913295D02*
X94964904Y-133008533D01*
X94964904Y-133008533D02*
X94917285Y-133151390D01*
X94917285Y-133151390D02*
X94345857Y-133722819D01*
X94345857Y-133722819D02*
X94964904Y-133722819D01*
X121151905Y-122944819D02*
X121723333Y-122944819D01*
X121437619Y-123944819D02*
X121437619Y-122944819D01*
X122056667Y-123944819D02*
X122056667Y-122944819D01*
X122056667Y-122944819D02*
X122437619Y-122944819D01*
X122437619Y-122944819D02*
X122532857Y-122992438D01*
X122532857Y-122992438D02*
X122580476Y-123040057D01*
X122580476Y-123040057D02*
X122628095Y-123135295D01*
X122628095Y-123135295D02*
X122628095Y-123278152D01*
X122628095Y-123278152D02*
X122580476Y-123373390D01*
X122580476Y-123373390D02*
X122532857Y-123421009D01*
X122532857Y-123421009D02*
X122437619Y-123468628D01*
X122437619Y-123468628D02*
X122056667Y-123468628D01*
X123580476Y-123944819D02*
X123009048Y-123944819D01*
X123294762Y-123944819D02*
X123294762Y-122944819D01*
X123294762Y-122944819D02*
X123199524Y-123087676D01*
X123199524Y-123087676D02*
X123104286Y-123182914D01*
X123104286Y-123182914D02*
X123009048Y-123230533D01*
X124199524Y-122944819D02*
X124294762Y-122944819D01*
X124294762Y-122944819D02*
X124390000Y-122992438D01*
X124390000Y-122992438D02*
X124437619Y-123040057D01*
X124437619Y-123040057D02*
X124485238Y-123135295D01*
X124485238Y-123135295D02*
X124532857Y-123325771D01*
X124532857Y-123325771D02*
X124532857Y-123563866D01*
X124532857Y-123563866D02*
X124485238Y-123754342D01*
X124485238Y-123754342D02*
X124437619Y-123849580D01*
X124437619Y-123849580D02*
X124390000Y-123897200D01*
X124390000Y-123897200D02*
X124294762Y-123944819D01*
X124294762Y-123944819D02*
X124199524Y-123944819D01*
X124199524Y-123944819D02*
X124104286Y-123897200D01*
X124104286Y-123897200D02*
X124056667Y-123849580D01*
X124056667Y-123849580D02*
X124009048Y-123754342D01*
X124009048Y-123754342D02*
X123961429Y-123563866D01*
X123961429Y-123563866D02*
X123961429Y-123325771D01*
X123961429Y-123325771D02*
X124009048Y-123135295D01*
X124009048Y-123135295D02*
X124056667Y-123040057D01*
X124056667Y-123040057D02*
X124104286Y-122992438D01*
X124104286Y-122992438D02*
X124199524Y-122944819D01*
X120807142Y-102169580D02*
X120759523Y-102217200D01*
X120759523Y-102217200D02*
X120616666Y-102264819D01*
X120616666Y-102264819D02*
X120521428Y-102264819D01*
X120521428Y-102264819D02*
X120378571Y-102217200D01*
X120378571Y-102217200D02*
X120283333Y-102121961D01*
X120283333Y-102121961D02*
X120235714Y-102026723D01*
X120235714Y-102026723D02*
X120188095Y-101836247D01*
X120188095Y-101836247D02*
X120188095Y-101693390D01*
X120188095Y-101693390D02*
X120235714Y-101502914D01*
X120235714Y-101502914D02*
X120283333Y-101407676D01*
X120283333Y-101407676D02*
X120378571Y-101312438D01*
X120378571Y-101312438D02*
X120521428Y-101264819D01*
X120521428Y-101264819D02*
X120616666Y-101264819D01*
X120616666Y-101264819D02*
X120759523Y-101312438D01*
X120759523Y-101312438D02*
X120807142Y-101360057D01*
X121188095Y-101360057D02*
X121235714Y-101312438D01*
X121235714Y-101312438D02*
X121330952Y-101264819D01*
X121330952Y-101264819D02*
X121569047Y-101264819D01*
X121569047Y-101264819D02*
X121664285Y-101312438D01*
X121664285Y-101312438D02*
X121711904Y-101360057D01*
X121711904Y-101360057D02*
X121759523Y-101455295D01*
X121759523Y-101455295D02*
X121759523Y-101550533D01*
X121759523Y-101550533D02*
X121711904Y-101693390D01*
X121711904Y-101693390D02*
X121140476Y-102264819D01*
X121140476Y-102264819D02*
X121759523Y-102264819D01*
X122711904Y-102264819D02*
X122140476Y-102264819D01*
X122426190Y-102264819D02*
X122426190Y-101264819D01*
X122426190Y-101264819D02*
X122330952Y-101407676D01*
X122330952Y-101407676D02*
X122235714Y-101502914D01*
X122235714Y-101502914D02*
X122140476Y-101550533D01*
X114763333Y-106109580D02*
X114715714Y-106157200D01*
X114715714Y-106157200D02*
X114572857Y-106204819D01*
X114572857Y-106204819D02*
X114477619Y-106204819D01*
X114477619Y-106204819D02*
X114334762Y-106157200D01*
X114334762Y-106157200D02*
X114239524Y-106061961D01*
X114239524Y-106061961D02*
X114191905Y-105966723D01*
X114191905Y-105966723D02*
X114144286Y-105776247D01*
X114144286Y-105776247D02*
X114144286Y-105633390D01*
X114144286Y-105633390D02*
X114191905Y-105442914D01*
X114191905Y-105442914D02*
X114239524Y-105347676D01*
X114239524Y-105347676D02*
X114334762Y-105252438D01*
X114334762Y-105252438D02*
X114477619Y-105204819D01*
X114477619Y-105204819D02*
X114572857Y-105204819D01*
X114572857Y-105204819D02*
X114715714Y-105252438D01*
X114715714Y-105252438D02*
X114763333Y-105300057D01*
X115620476Y-105204819D02*
X115430000Y-105204819D01*
X115430000Y-105204819D02*
X115334762Y-105252438D01*
X115334762Y-105252438D02*
X115287143Y-105300057D01*
X115287143Y-105300057D02*
X115191905Y-105442914D01*
X115191905Y-105442914D02*
X115144286Y-105633390D01*
X115144286Y-105633390D02*
X115144286Y-106014342D01*
X115144286Y-106014342D02*
X115191905Y-106109580D01*
X115191905Y-106109580D02*
X115239524Y-106157200D01*
X115239524Y-106157200D02*
X115334762Y-106204819D01*
X115334762Y-106204819D02*
X115525238Y-106204819D01*
X115525238Y-106204819D02*
X115620476Y-106157200D01*
X115620476Y-106157200D02*
X115668095Y-106109580D01*
X115668095Y-106109580D02*
X115715714Y-106014342D01*
X115715714Y-106014342D02*
X115715714Y-105776247D01*
X115715714Y-105776247D02*
X115668095Y-105681009D01*
X115668095Y-105681009D02*
X115620476Y-105633390D01*
X115620476Y-105633390D02*
X115525238Y-105585771D01*
X115525238Y-105585771D02*
X115334762Y-105585771D01*
X115334762Y-105585771D02*
X115239524Y-105633390D01*
X115239524Y-105633390D02*
X115191905Y-105681009D01*
X115191905Y-105681009D02*
X115144286Y-105776247D01*
X99629580Y-89922857D02*
X99677200Y-89970476D01*
X99677200Y-89970476D02*
X99724819Y-90113333D01*
X99724819Y-90113333D02*
X99724819Y-90208571D01*
X99724819Y-90208571D02*
X99677200Y-90351428D01*
X99677200Y-90351428D02*
X99581961Y-90446666D01*
X99581961Y-90446666D02*
X99486723Y-90494285D01*
X99486723Y-90494285D02*
X99296247Y-90541904D01*
X99296247Y-90541904D02*
X99153390Y-90541904D01*
X99153390Y-90541904D02*
X98962914Y-90494285D01*
X98962914Y-90494285D02*
X98867676Y-90446666D01*
X98867676Y-90446666D02*
X98772438Y-90351428D01*
X98772438Y-90351428D02*
X98724819Y-90208571D01*
X98724819Y-90208571D02*
X98724819Y-90113333D01*
X98724819Y-90113333D02*
X98772438Y-89970476D01*
X98772438Y-89970476D02*
X98820057Y-89922857D01*
X99058152Y-89065714D02*
X99724819Y-89065714D01*
X98677200Y-89303809D02*
X99391485Y-89541904D01*
X99391485Y-89541904D02*
X99391485Y-88922857D01*
X98724819Y-88113333D02*
X98724819Y-88303809D01*
X98724819Y-88303809D02*
X98772438Y-88399047D01*
X98772438Y-88399047D02*
X98820057Y-88446666D01*
X98820057Y-88446666D02*
X98962914Y-88541904D01*
X98962914Y-88541904D02*
X99153390Y-88589523D01*
X99153390Y-88589523D02*
X99534342Y-88589523D01*
X99534342Y-88589523D02*
X99629580Y-88541904D01*
X99629580Y-88541904D02*
X99677200Y-88494285D01*
X99677200Y-88494285D02*
X99724819Y-88399047D01*
X99724819Y-88399047D02*
X99724819Y-88208571D01*
X99724819Y-88208571D02*
X99677200Y-88113333D01*
X99677200Y-88113333D02*
X99629580Y-88065714D01*
X99629580Y-88065714D02*
X99534342Y-88018095D01*
X99534342Y-88018095D02*
X99296247Y-88018095D01*
X99296247Y-88018095D02*
X99201009Y-88065714D01*
X99201009Y-88065714D02*
X99153390Y-88113333D01*
X99153390Y-88113333D02*
X99105771Y-88208571D01*
X99105771Y-88208571D02*
X99105771Y-88399047D01*
X99105771Y-88399047D02*
X99153390Y-88494285D01*
X99153390Y-88494285D02*
X99201009Y-88541904D01*
X99201009Y-88541904D02*
X99296247Y-88589523D01*
X104602551Y-87446333D02*
X103840647Y-87446333D01*
X104221599Y-87065380D02*
X104221599Y-87827285D01*
X89818761Y-76480057D02*
X89723523Y-76432438D01*
X89723523Y-76432438D02*
X89628285Y-76337200D01*
X89628285Y-76337200D02*
X89485428Y-76194342D01*
X89485428Y-76194342D02*
X89390190Y-76146723D01*
X89390190Y-76146723D02*
X89294952Y-76146723D01*
X89342571Y-76384819D02*
X89247333Y-76337200D01*
X89247333Y-76337200D02*
X89152095Y-76241961D01*
X89152095Y-76241961D02*
X89104476Y-76051485D01*
X89104476Y-76051485D02*
X89104476Y-75718152D01*
X89104476Y-75718152D02*
X89152095Y-75527676D01*
X89152095Y-75527676D02*
X89247333Y-75432438D01*
X89247333Y-75432438D02*
X89342571Y-75384819D01*
X89342571Y-75384819D02*
X89533047Y-75384819D01*
X89533047Y-75384819D02*
X89628285Y-75432438D01*
X89628285Y-75432438D02*
X89723523Y-75527676D01*
X89723523Y-75527676D02*
X89771142Y-75718152D01*
X89771142Y-75718152D02*
X89771142Y-76051485D01*
X89771142Y-76051485D02*
X89723523Y-76241961D01*
X89723523Y-76241961D02*
X89628285Y-76337200D01*
X89628285Y-76337200D02*
X89533047Y-76384819D01*
X89533047Y-76384819D02*
X89342571Y-76384819D01*
X90723523Y-76384819D02*
X90152095Y-76384819D01*
X90437809Y-76384819D02*
X90437809Y-75384819D01*
X90437809Y-75384819D02*
X90342571Y-75527676D01*
X90342571Y-75527676D02*
X90247333Y-75622914D01*
X90247333Y-75622914D02*
X90152095Y-75670533D01*
X93644142Y-73836580D02*
X93596523Y-73884200D01*
X93596523Y-73884200D02*
X93453666Y-73931819D01*
X93453666Y-73931819D02*
X93358428Y-73931819D01*
X93358428Y-73931819D02*
X93215571Y-73884200D01*
X93215571Y-73884200D02*
X93120333Y-73788961D01*
X93120333Y-73788961D02*
X93072714Y-73693723D01*
X93072714Y-73693723D02*
X93025095Y-73503247D01*
X93025095Y-73503247D02*
X93025095Y-73360390D01*
X93025095Y-73360390D02*
X93072714Y-73169914D01*
X93072714Y-73169914D02*
X93120333Y-73074676D01*
X93120333Y-73074676D02*
X93215571Y-72979438D01*
X93215571Y-72979438D02*
X93358428Y-72931819D01*
X93358428Y-72931819D02*
X93453666Y-72931819D01*
X93453666Y-72931819D02*
X93596523Y-72979438D01*
X93596523Y-72979438D02*
X93644142Y-73027057D01*
X94501285Y-73265152D02*
X94501285Y-73931819D01*
X94263190Y-72884200D02*
X94025095Y-73598485D01*
X94025095Y-73598485D02*
X94644142Y-73598485D01*
X94977476Y-73027057D02*
X95025095Y-72979438D01*
X95025095Y-72979438D02*
X95120333Y-72931819D01*
X95120333Y-72931819D02*
X95358428Y-72931819D01*
X95358428Y-72931819D02*
X95453666Y-72979438D01*
X95453666Y-72979438D02*
X95501285Y-73027057D01*
X95501285Y-73027057D02*
X95548904Y-73122295D01*
X95548904Y-73122295D02*
X95548904Y-73217533D01*
X95548904Y-73217533D02*
X95501285Y-73360390D01*
X95501285Y-73360390D02*
X94929857Y-73931819D01*
X94929857Y-73931819D02*
X95548904Y-73931819D01*
X116768095Y-121344819D02*
X117339523Y-121344819D01*
X117053809Y-122344819D02*
X117053809Y-121344819D01*
X117672857Y-122344819D02*
X117672857Y-121344819D01*
X117672857Y-121344819D02*
X118053809Y-121344819D01*
X118053809Y-121344819D02*
X118149047Y-121392438D01*
X118149047Y-121392438D02*
X118196666Y-121440057D01*
X118196666Y-121440057D02*
X118244285Y-121535295D01*
X118244285Y-121535295D02*
X118244285Y-121678152D01*
X118244285Y-121678152D02*
X118196666Y-121773390D01*
X118196666Y-121773390D02*
X118149047Y-121821009D01*
X118149047Y-121821009D02*
X118053809Y-121868628D01*
X118053809Y-121868628D02*
X117672857Y-121868628D01*
X118577619Y-121344819D02*
X119244285Y-121344819D01*
X119244285Y-121344819D02*
X118815714Y-122344819D01*
X90031942Y-86137980D02*
X89984323Y-86185600D01*
X89984323Y-86185600D02*
X89841466Y-86233219D01*
X89841466Y-86233219D02*
X89746228Y-86233219D01*
X89746228Y-86233219D02*
X89603371Y-86185600D01*
X89603371Y-86185600D02*
X89508133Y-86090361D01*
X89508133Y-86090361D02*
X89460514Y-85995123D01*
X89460514Y-85995123D02*
X89412895Y-85804647D01*
X89412895Y-85804647D02*
X89412895Y-85661790D01*
X89412895Y-85661790D02*
X89460514Y-85471314D01*
X89460514Y-85471314D02*
X89508133Y-85376076D01*
X89508133Y-85376076D02*
X89603371Y-85280838D01*
X89603371Y-85280838D02*
X89746228Y-85233219D01*
X89746228Y-85233219D02*
X89841466Y-85233219D01*
X89841466Y-85233219D02*
X89984323Y-85280838D01*
X89984323Y-85280838D02*
X90031942Y-85328457D01*
X90365276Y-85233219D02*
X90984323Y-85233219D01*
X90984323Y-85233219D02*
X90650990Y-85614171D01*
X90650990Y-85614171D02*
X90793847Y-85614171D01*
X90793847Y-85614171D02*
X90889085Y-85661790D01*
X90889085Y-85661790D02*
X90936704Y-85709409D01*
X90936704Y-85709409D02*
X90984323Y-85804647D01*
X90984323Y-85804647D02*
X90984323Y-86042742D01*
X90984323Y-86042742D02*
X90936704Y-86137980D01*
X90936704Y-86137980D02*
X90889085Y-86185600D01*
X90889085Y-86185600D02*
X90793847Y-86233219D01*
X90793847Y-86233219D02*
X90508133Y-86233219D01*
X90508133Y-86233219D02*
X90412895Y-86185600D01*
X90412895Y-86185600D02*
X90365276Y-86137980D01*
X91841466Y-85566552D02*
X91841466Y-86233219D01*
X91603371Y-85185600D02*
X91365276Y-85899885D01*
X91365276Y-85899885D02*
X91984323Y-85899885D01*
X82261905Y-109264819D02*
X82833333Y-109264819D01*
X82547619Y-110264819D02*
X82547619Y-109264819D01*
X83166667Y-110264819D02*
X83166667Y-109264819D01*
X83166667Y-109264819D02*
X83547619Y-109264819D01*
X83547619Y-109264819D02*
X83642857Y-109312438D01*
X83642857Y-109312438D02*
X83690476Y-109360057D01*
X83690476Y-109360057D02*
X83738095Y-109455295D01*
X83738095Y-109455295D02*
X83738095Y-109598152D01*
X83738095Y-109598152D02*
X83690476Y-109693390D01*
X83690476Y-109693390D02*
X83642857Y-109741009D01*
X83642857Y-109741009D02*
X83547619Y-109788628D01*
X83547619Y-109788628D02*
X83166667Y-109788628D01*
X84595238Y-109598152D02*
X84595238Y-110264819D01*
X84357143Y-109217200D02*
X84119048Y-109931485D01*
X84119048Y-109931485D02*
X84738095Y-109931485D01*
X85309524Y-109264819D02*
X85404762Y-109264819D01*
X85404762Y-109264819D02*
X85500000Y-109312438D01*
X85500000Y-109312438D02*
X85547619Y-109360057D01*
X85547619Y-109360057D02*
X85595238Y-109455295D01*
X85595238Y-109455295D02*
X85642857Y-109645771D01*
X85642857Y-109645771D02*
X85642857Y-109883866D01*
X85642857Y-109883866D02*
X85595238Y-110074342D01*
X85595238Y-110074342D02*
X85547619Y-110169580D01*
X85547619Y-110169580D02*
X85500000Y-110217200D01*
X85500000Y-110217200D02*
X85404762Y-110264819D01*
X85404762Y-110264819D02*
X85309524Y-110264819D01*
X85309524Y-110264819D02*
X85214286Y-110217200D01*
X85214286Y-110217200D02*
X85166667Y-110169580D01*
X85166667Y-110169580D02*
X85119048Y-110074342D01*
X85119048Y-110074342D02*
X85071429Y-109883866D01*
X85071429Y-109883866D02*
X85071429Y-109645771D01*
X85071429Y-109645771D02*
X85119048Y-109455295D01*
X85119048Y-109455295D02*
X85166667Y-109360057D01*
X85166667Y-109360057D02*
X85214286Y-109312438D01*
X85214286Y-109312438D02*
X85309524Y-109264819D01*
X116494819Y-138161904D02*
X116494819Y-137590476D01*
X117494819Y-137876190D02*
X116494819Y-137876190D01*
X117494819Y-137257142D02*
X116494819Y-137257142D01*
X116494819Y-137257142D02*
X116494819Y-136876190D01*
X116494819Y-136876190D02*
X116542438Y-136780952D01*
X116542438Y-136780952D02*
X116590057Y-136733333D01*
X116590057Y-136733333D02*
X116685295Y-136685714D01*
X116685295Y-136685714D02*
X116828152Y-136685714D01*
X116828152Y-136685714D02*
X116923390Y-136733333D01*
X116923390Y-136733333D02*
X116971009Y-136780952D01*
X116971009Y-136780952D02*
X117018628Y-136876190D01*
X117018628Y-136876190D02*
X117018628Y-137257142D01*
X116828152Y-135828571D02*
X117494819Y-135828571D01*
X116447200Y-136066666D02*
X117161485Y-136304761D01*
X117161485Y-136304761D02*
X117161485Y-135685714D01*
X112214819Y-125811904D02*
X113024342Y-125811904D01*
X113024342Y-125811904D02*
X113119580Y-125764285D01*
X113119580Y-125764285D02*
X113167200Y-125716666D01*
X113167200Y-125716666D02*
X113214819Y-125621428D01*
X113214819Y-125621428D02*
X113214819Y-125430952D01*
X113214819Y-125430952D02*
X113167200Y-125335714D01*
X113167200Y-125335714D02*
X113119580Y-125288095D01*
X113119580Y-125288095D02*
X113024342Y-125240476D01*
X113024342Y-125240476D02*
X112214819Y-125240476D01*
X113214819Y-124240476D02*
X113214819Y-124811904D01*
X113214819Y-124526190D02*
X112214819Y-124526190D01*
X112214819Y-124526190D02*
X112357676Y-124621428D01*
X112357676Y-124621428D02*
X112452914Y-124716666D01*
X112452914Y-124716666D02*
X112500533Y-124811904D01*
X96734905Y-125542819D02*
X97306333Y-125542819D01*
X97020619Y-126542819D02*
X97020619Y-125542819D01*
X97639667Y-126542819D02*
X97639667Y-125542819D01*
X97639667Y-125542819D02*
X98020619Y-125542819D01*
X98020619Y-125542819D02*
X98115857Y-125590438D01*
X98115857Y-125590438D02*
X98163476Y-125638057D01*
X98163476Y-125638057D02*
X98211095Y-125733295D01*
X98211095Y-125733295D02*
X98211095Y-125876152D01*
X98211095Y-125876152D02*
X98163476Y-125971390D01*
X98163476Y-125971390D02*
X98115857Y-126019009D01*
X98115857Y-126019009D02*
X98020619Y-126066628D01*
X98020619Y-126066628D02*
X97639667Y-126066628D01*
X99163476Y-126542819D02*
X98592048Y-126542819D01*
X98877762Y-126542819D02*
X98877762Y-125542819D01*
X98877762Y-125542819D02*
X98782524Y-125685676D01*
X98782524Y-125685676D02*
X98687286Y-125780914D01*
X98687286Y-125780914D02*
X98592048Y-125828533D01*
X99496810Y-125542819D02*
X100115857Y-125542819D01*
X100115857Y-125542819D02*
X99782524Y-125923771D01*
X99782524Y-125923771D02*
X99925381Y-125923771D01*
X99925381Y-125923771D02*
X100020619Y-125971390D01*
X100020619Y-125971390D02*
X100068238Y-126019009D01*
X100068238Y-126019009D02*
X100115857Y-126114247D01*
X100115857Y-126114247D02*
X100115857Y-126352342D01*
X100115857Y-126352342D02*
X100068238Y-126447580D01*
X100068238Y-126447580D02*
X100020619Y-126495200D01*
X100020619Y-126495200D02*
X99925381Y-126542819D01*
X99925381Y-126542819D02*
X99639667Y-126542819D01*
X99639667Y-126542819D02*
X99544429Y-126495200D01*
X99544429Y-126495200D02*
X99496810Y-126447580D01*
X98567142Y-74744819D02*
X98233809Y-74268628D01*
X97995714Y-74744819D02*
X97995714Y-73744819D01*
X97995714Y-73744819D02*
X98376666Y-73744819D01*
X98376666Y-73744819D02*
X98471904Y-73792438D01*
X98471904Y-73792438D02*
X98519523Y-73840057D01*
X98519523Y-73840057D02*
X98567142Y-73935295D01*
X98567142Y-73935295D02*
X98567142Y-74078152D01*
X98567142Y-74078152D02*
X98519523Y-74173390D01*
X98519523Y-74173390D02*
X98471904Y-74221009D01*
X98471904Y-74221009D02*
X98376666Y-74268628D01*
X98376666Y-74268628D02*
X97995714Y-74268628D01*
X99519523Y-74744819D02*
X98948095Y-74744819D01*
X99233809Y-74744819D02*
X99233809Y-73744819D01*
X99233809Y-73744819D02*
X99138571Y-73887676D01*
X99138571Y-73887676D02*
X99043333Y-73982914D01*
X99043333Y-73982914D02*
X98948095Y-74030533D01*
X99900476Y-73840057D02*
X99948095Y-73792438D01*
X99948095Y-73792438D02*
X100043333Y-73744819D01*
X100043333Y-73744819D02*
X100281428Y-73744819D01*
X100281428Y-73744819D02*
X100376666Y-73792438D01*
X100376666Y-73792438D02*
X100424285Y-73840057D01*
X100424285Y-73840057D02*
X100471904Y-73935295D01*
X100471904Y-73935295D02*
X100471904Y-74030533D01*
X100471904Y-74030533D02*
X100424285Y-74173390D01*
X100424285Y-74173390D02*
X99852857Y-74744819D01*
X99852857Y-74744819D02*
X100471904Y-74744819D01*
X112083333Y-72264819D02*
X111750000Y-71788628D01*
X111511905Y-72264819D02*
X111511905Y-71264819D01*
X111511905Y-71264819D02*
X111892857Y-71264819D01*
X111892857Y-71264819D02*
X111988095Y-71312438D01*
X111988095Y-71312438D02*
X112035714Y-71360057D01*
X112035714Y-71360057D02*
X112083333Y-71455295D01*
X112083333Y-71455295D02*
X112083333Y-71598152D01*
X112083333Y-71598152D02*
X112035714Y-71693390D01*
X112035714Y-71693390D02*
X111988095Y-71741009D01*
X111988095Y-71741009D02*
X111892857Y-71788628D01*
X111892857Y-71788628D02*
X111511905Y-71788628D01*
X112940476Y-71598152D02*
X112940476Y-72264819D01*
X112702381Y-71217200D02*
X112464286Y-71931485D01*
X112464286Y-71931485D02*
X113083333Y-71931485D01*
X117273333Y-110169580D02*
X117225714Y-110217200D01*
X117225714Y-110217200D02*
X117082857Y-110264819D01*
X117082857Y-110264819D02*
X116987619Y-110264819D01*
X116987619Y-110264819D02*
X116844762Y-110217200D01*
X116844762Y-110217200D02*
X116749524Y-110121961D01*
X116749524Y-110121961D02*
X116701905Y-110026723D01*
X116701905Y-110026723D02*
X116654286Y-109836247D01*
X116654286Y-109836247D02*
X116654286Y-109693390D01*
X116654286Y-109693390D02*
X116701905Y-109502914D01*
X116701905Y-109502914D02*
X116749524Y-109407676D01*
X116749524Y-109407676D02*
X116844762Y-109312438D01*
X116844762Y-109312438D02*
X116987619Y-109264819D01*
X116987619Y-109264819D02*
X117082857Y-109264819D01*
X117082857Y-109264819D02*
X117225714Y-109312438D01*
X117225714Y-109312438D02*
X117273333Y-109360057D01*
X117654286Y-109360057D02*
X117701905Y-109312438D01*
X117701905Y-109312438D02*
X117797143Y-109264819D01*
X117797143Y-109264819D02*
X118035238Y-109264819D01*
X118035238Y-109264819D02*
X118130476Y-109312438D01*
X118130476Y-109312438D02*
X118178095Y-109360057D01*
X118178095Y-109360057D02*
X118225714Y-109455295D01*
X118225714Y-109455295D02*
X118225714Y-109550533D01*
X118225714Y-109550533D02*
X118178095Y-109693390D01*
X118178095Y-109693390D02*
X117606667Y-110264819D01*
X117606667Y-110264819D02*
X118225714Y-110264819D01*
X99077142Y-133099580D02*
X99029523Y-133147200D01*
X99029523Y-133147200D02*
X98886666Y-133194819D01*
X98886666Y-133194819D02*
X98791428Y-133194819D01*
X98791428Y-133194819D02*
X98648571Y-133147200D01*
X98648571Y-133147200D02*
X98553333Y-133051961D01*
X98553333Y-133051961D02*
X98505714Y-132956723D01*
X98505714Y-132956723D02*
X98458095Y-132766247D01*
X98458095Y-132766247D02*
X98458095Y-132623390D01*
X98458095Y-132623390D02*
X98505714Y-132432914D01*
X98505714Y-132432914D02*
X98553333Y-132337676D01*
X98553333Y-132337676D02*
X98648571Y-132242438D01*
X98648571Y-132242438D02*
X98791428Y-132194819D01*
X98791428Y-132194819D02*
X98886666Y-132194819D01*
X98886666Y-132194819D02*
X99029523Y-132242438D01*
X99029523Y-132242438D02*
X99077142Y-132290057D01*
X99458095Y-132290057D02*
X99505714Y-132242438D01*
X99505714Y-132242438D02*
X99600952Y-132194819D01*
X99600952Y-132194819D02*
X99839047Y-132194819D01*
X99839047Y-132194819D02*
X99934285Y-132242438D01*
X99934285Y-132242438D02*
X99981904Y-132290057D01*
X99981904Y-132290057D02*
X100029523Y-132385295D01*
X100029523Y-132385295D02*
X100029523Y-132480533D01*
X100029523Y-132480533D02*
X99981904Y-132623390D01*
X99981904Y-132623390D02*
X99410476Y-133194819D01*
X99410476Y-133194819D02*
X100029523Y-133194819D01*
X100362857Y-132194819D02*
X100981904Y-132194819D01*
X100981904Y-132194819D02*
X100648571Y-132575771D01*
X100648571Y-132575771D02*
X100791428Y-132575771D01*
X100791428Y-132575771D02*
X100886666Y-132623390D01*
X100886666Y-132623390D02*
X100934285Y-132671009D01*
X100934285Y-132671009D02*
X100981904Y-132766247D01*
X100981904Y-132766247D02*
X100981904Y-133004342D01*
X100981904Y-133004342D02*
X100934285Y-133099580D01*
X100934285Y-133099580D02*
X100886666Y-133147200D01*
X100886666Y-133147200D02*
X100791428Y-133194819D01*
X100791428Y-133194819D02*
X100505714Y-133194819D01*
X100505714Y-133194819D02*
X100410476Y-133147200D01*
X100410476Y-133147200D02*
X100362857Y-133099580D01*
X88933495Y-120739819D02*
X89504923Y-120739819D01*
X89219209Y-121739819D02*
X89219209Y-120739819D01*
X89838257Y-121739819D02*
X89838257Y-120739819D01*
X89838257Y-120739819D02*
X90219209Y-120739819D01*
X90219209Y-120739819D02*
X90314447Y-120787438D01*
X90314447Y-120787438D02*
X90362066Y-120835057D01*
X90362066Y-120835057D02*
X90409685Y-120930295D01*
X90409685Y-120930295D02*
X90409685Y-121073152D01*
X90409685Y-121073152D02*
X90362066Y-121168390D01*
X90362066Y-121168390D02*
X90314447Y-121216009D01*
X90314447Y-121216009D02*
X90219209Y-121263628D01*
X90219209Y-121263628D02*
X89838257Y-121263628D01*
X91266828Y-120739819D02*
X91076352Y-120739819D01*
X91076352Y-120739819D02*
X90981114Y-120787438D01*
X90981114Y-120787438D02*
X90933495Y-120835057D01*
X90933495Y-120835057D02*
X90838257Y-120977914D01*
X90838257Y-120977914D02*
X90790638Y-121168390D01*
X90790638Y-121168390D02*
X90790638Y-121549342D01*
X90790638Y-121549342D02*
X90838257Y-121644580D01*
X90838257Y-121644580D02*
X90885876Y-121692200D01*
X90885876Y-121692200D02*
X90981114Y-121739819D01*
X90981114Y-121739819D02*
X91171590Y-121739819D01*
X91171590Y-121739819D02*
X91266828Y-121692200D01*
X91266828Y-121692200D02*
X91314447Y-121644580D01*
X91314447Y-121644580D02*
X91362066Y-121549342D01*
X91362066Y-121549342D02*
X91362066Y-121311247D01*
X91362066Y-121311247D02*
X91314447Y-121216009D01*
X91314447Y-121216009D02*
X91266828Y-121168390D01*
X91266828Y-121168390D02*
X91171590Y-121120771D01*
X91171590Y-121120771D02*
X90981114Y-121120771D01*
X90981114Y-121120771D02*
X90885876Y-121168390D01*
X90885876Y-121168390D02*
X90838257Y-121216009D01*
X90838257Y-121216009D02*
X90790638Y-121311247D01*
X112609580Y-119506666D02*
X112657200Y-119554285D01*
X112657200Y-119554285D02*
X112704819Y-119697142D01*
X112704819Y-119697142D02*
X112704819Y-119792380D01*
X112704819Y-119792380D02*
X112657200Y-119935237D01*
X112657200Y-119935237D02*
X112561961Y-120030475D01*
X112561961Y-120030475D02*
X112466723Y-120078094D01*
X112466723Y-120078094D02*
X112276247Y-120125713D01*
X112276247Y-120125713D02*
X112133390Y-120125713D01*
X112133390Y-120125713D02*
X111942914Y-120078094D01*
X111942914Y-120078094D02*
X111847676Y-120030475D01*
X111847676Y-120030475D02*
X111752438Y-119935237D01*
X111752438Y-119935237D02*
X111704819Y-119792380D01*
X111704819Y-119792380D02*
X111704819Y-119697142D01*
X111704819Y-119697142D02*
X111752438Y-119554285D01*
X111752438Y-119554285D02*
X111800057Y-119506666D01*
X111704819Y-118601904D02*
X111704819Y-119078094D01*
X111704819Y-119078094D02*
X112181009Y-119125713D01*
X112181009Y-119125713D02*
X112133390Y-119078094D01*
X112133390Y-119078094D02*
X112085771Y-118982856D01*
X112085771Y-118982856D02*
X112085771Y-118744761D01*
X112085771Y-118744761D02*
X112133390Y-118649523D01*
X112133390Y-118649523D02*
X112181009Y-118601904D01*
X112181009Y-118601904D02*
X112276247Y-118554285D01*
X112276247Y-118554285D02*
X112514342Y-118554285D01*
X112514342Y-118554285D02*
X112609580Y-118601904D01*
X112609580Y-118601904D02*
X112657200Y-118649523D01*
X112657200Y-118649523D02*
X112704819Y-118744761D01*
X112704819Y-118744761D02*
X112704819Y-118982856D01*
X112704819Y-118982856D02*
X112657200Y-119078094D01*
X112657200Y-119078094D02*
X112609580Y-119125713D01*
X123728095Y-112974819D02*
X124299523Y-112974819D01*
X124013809Y-113974819D02*
X124013809Y-112974819D01*
X124632857Y-113974819D02*
X124632857Y-112974819D01*
X124632857Y-112974819D02*
X125013809Y-112974819D01*
X125013809Y-112974819D02*
X125109047Y-113022438D01*
X125109047Y-113022438D02*
X125156666Y-113070057D01*
X125156666Y-113070057D02*
X125204285Y-113165295D01*
X125204285Y-113165295D02*
X125204285Y-113308152D01*
X125204285Y-113308152D02*
X125156666Y-113403390D01*
X125156666Y-113403390D02*
X125109047Y-113451009D01*
X125109047Y-113451009D02*
X125013809Y-113498628D01*
X125013809Y-113498628D02*
X124632857Y-113498628D01*
X125680476Y-113974819D02*
X125870952Y-113974819D01*
X125870952Y-113974819D02*
X125966190Y-113927200D01*
X125966190Y-113927200D02*
X126013809Y-113879580D01*
X126013809Y-113879580D02*
X126109047Y-113736723D01*
X126109047Y-113736723D02*
X126156666Y-113546247D01*
X126156666Y-113546247D02*
X126156666Y-113165295D01*
X126156666Y-113165295D02*
X126109047Y-113070057D01*
X126109047Y-113070057D02*
X126061428Y-113022438D01*
X126061428Y-113022438D02*
X125966190Y-112974819D01*
X125966190Y-112974819D02*
X125775714Y-112974819D01*
X125775714Y-112974819D02*
X125680476Y-113022438D01*
X125680476Y-113022438D02*
X125632857Y-113070057D01*
X125632857Y-113070057D02*
X125585238Y-113165295D01*
X125585238Y-113165295D02*
X125585238Y-113403390D01*
X125585238Y-113403390D02*
X125632857Y-113498628D01*
X125632857Y-113498628D02*
X125680476Y-113546247D01*
X125680476Y-113546247D02*
X125775714Y-113593866D01*
X125775714Y-113593866D02*
X125966190Y-113593866D01*
X125966190Y-113593866D02*
X126061428Y-113546247D01*
X126061428Y-113546247D02*
X126109047Y-113498628D01*
X126109047Y-113498628D02*
X126156666Y-113403390D01*
X100376819Y-111723466D02*
X99900628Y-112056799D01*
X100376819Y-112294894D02*
X99376819Y-112294894D01*
X99376819Y-112294894D02*
X99376819Y-111913942D01*
X99376819Y-111913942D02*
X99424438Y-111818704D01*
X99424438Y-111818704D02*
X99472057Y-111771085D01*
X99472057Y-111771085D02*
X99567295Y-111723466D01*
X99567295Y-111723466D02*
X99710152Y-111723466D01*
X99710152Y-111723466D02*
X99805390Y-111771085D01*
X99805390Y-111771085D02*
X99853009Y-111818704D01*
X99853009Y-111818704D02*
X99900628Y-111913942D01*
X99900628Y-111913942D02*
X99900628Y-112294894D01*
X100376819Y-111247275D02*
X100376819Y-111056799D01*
X100376819Y-111056799D02*
X100329200Y-110961561D01*
X100329200Y-110961561D02*
X100281580Y-110913942D01*
X100281580Y-110913942D02*
X100138723Y-110818704D01*
X100138723Y-110818704D02*
X99948247Y-110771085D01*
X99948247Y-110771085D02*
X99567295Y-110771085D01*
X99567295Y-110771085D02*
X99472057Y-110818704D01*
X99472057Y-110818704D02*
X99424438Y-110866323D01*
X99424438Y-110866323D02*
X99376819Y-110961561D01*
X99376819Y-110961561D02*
X99376819Y-111152037D01*
X99376819Y-111152037D02*
X99424438Y-111247275D01*
X99424438Y-111247275D02*
X99472057Y-111294894D01*
X99472057Y-111294894D02*
X99567295Y-111342513D01*
X99567295Y-111342513D02*
X99805390Y-111342513D01*
X99805390Y-111342513D02*
X99900628Y-111294894D01*
X99900628Y-111294894D02*
X99948247Y-111247275D01*
X99948247Y-111247275D02*
X99995866Y-111152037D01*
X99995866Y-111152037D02*
X99995866Y-110961561D01*
X99995866Y-110961561D02*
X99948247Y-110866323D01*
X99948247Y-110866323D02*
X99900628Y-110818704D01*
X99900628Y-110818704D02*
X99805390Y-110771085D01*
X95038942Y-106760180D02*
X94991323Y-106807800D01*
X94991323Y-106807800D02*
X94848466Y-106855419D01*
X94848466Y-106855419D02*
X94753228Y-106855419D01*
X94753228Y-106855419D02*
X94610371Y-106807800D01*
X94610371Y-106807800D02*
X94515133Y-106712561D01*
X94515133Y-106712561D02*
X94467514Y-106617323D01*
X94467514Y-106617323D02*
X94419895Y-106426847D01*
X94419895Y-106426847D02*
X94419895Y-106283990D01*
X94419895Y-106283990D02*
X94467514Y-106093514D01*
X94467514Y-106093514D02*
X94515133Y-105998276D01*
X94515133Y-105998276D02*
X94610371Y-105903038D01*
X94610371Y-105903038D02*
X94753228Y-105855419D01*
X94753228Y-105855419D02*
X94848466Y-105855419D01*
X94848466Y-105855419D02*
X94991323Y-105903038D01*
X94991323Y-105903038D02*
X95038942Y-105950657D01*
X95991323Y-106855419D02*
X95419895Y-106855419D01*
X95705609Y-106855419D02*
X95705609Y-105855419D01*
X95705609Y-105855419D02*
X95610371Y-105998276D01*
X95610371Y-105998276D02*
X95515133Y-106093514D01*
X95515133Y-106093514D02*
X95419895Y-106141133D01*
X96324657Y-105855419D02*
X96991323Y-105855419D01*
X96991323Y-105855419D02*
X96562752Y-106855419D01*
X113513333Y-104629580D02*
X113465714Y-104677200D01*
X113465714Y-104677200D02*
X113322857Y-104724819D01*
X113322857Y-104724819D02*
X113227619Y-104724819D01*
X113227619Y-104724819D02*
X113084762Y-104677200D01*
X113084762Y-104677200D02*
X112989524Y-104581961D01*
X112989524Y-104581961D02*
X112941905Y-104486723D01*
X112941905Y-104486723D02*
X112894286Y-104296247D01*
X112894286Y-104296247D02*
X112894286Y-104153390D01*
X112894286Y-104153390D02*
X112941905Y-103962914D01*
X112941905Y-103962914D02*
X112989524Y-103867676D01*
X112989524Y-103867676D02*
X113084762Y-103772438D01*
X113084762Y-103772438D02*
X113227619Y-103724819D01*
X113227619Y-103724819D02*
X113322857Y-103724819D01*
X113322857Y-103724819D02*
X113465714Y-103772438D01*
X113465714Y-103772438D02*
X113513333Y-103820057D01*
X114084762Y-104153390D02*
X113989524Y-104105771D01*
X113989524Y-104105771D02*
X113941905Y-104058152D01*
X113941905Y-104058152D02*
X113894286Y-103962914D01*
X113894286Y-103962914D02*
X113894286Y-103915295D01*
X113894286Y-103915295D02*
X113941905Y-103820057D01*
X113941905Y-103820057D02*
X113989524Y-103772438D01*
X113989524Y-103772438D02*
X114084762Y-103724819D01*
X114084762Y-103724819D02*
X114275238Y-103724819D01*
X114275238Y-103724819D02*
X114370476Y-103772438D01*
X114370476Y-103772438D02*
X114418095Y-103820057D01*
X114418095Y-103820057D02*
X114465714Y-103915295D01*
X114465714Y-103915295D02*
X114465714Y-103962914D01*
X114465714Y-103962914D02*
X114418095Y-104058152D01*
X114418095Y-104058152D02*
X114370476Y-104105771D01*
X114370476Y-104105771D02*
X114275238Y-104153390D01*
X114275238Y-104153390D02*
X114084762Y-104153390D01*
X114084762Y-104153390D02*
X113989524Y-104201009D01*
X113989524Y-104201009D02*
X113941905Y-104248628D01*
X113941905Y-104248628D02*
X113894286Y-104343866D01*
X113894286Y-104343866D02*
X113894286Y-104534342D01*
X113894286Y-104534342D02*
X113941905Y-104629580D01*
X113941905Y-104629580D02*
X113989524Y-104677200D01*
X113989524Y-104677200D02*
X114084762Y-104724819D01*
X114084762Y-104724819D02*
X114275238Y-104724819D01*
X114275238Y-104724819D02*
X114370476Y-104677200D01*
X114370476Y-104677200D02*
X114418095Y-104629580D01*
X114418095Y-104629580D02*
X114465714Y-104534342D01*
X114465714Y-104534342D02*
X114465714Y-104343866D01*
X114465714Y-104343866D02*
X114418095Y-104248628D01*
X114418095Y-104248628D02*
X114370476Y-104201009D01*
X114370476Y-104201009D02*
X114275238Y-104153390D01*
X95387142Y-136499580D02*
X95339523Y-136547200D01*
X95339523Y-136547200D02*
X95196666Y-136594819D01*
X95196666Y-136594819D02*
X95101428Y-136594819D01*
X95101428Y-136594819D02*
X94958571Y-136547200D01*
X94958571Y-136547200D02*
X94863333Y-136451961D01*
X94863333Y-136451961D02*
X94815714Y-136356723D01*
X94815714Y-136356723D02*
X94768095Y-136166247D01*
X94768095Y-136166247D02*
X94768095Y-136023390D01*
X94768095Y-136023390D02*
X94815714Y-135832914D01*
X94815714Y-135832914D02*
X94863333Y-135737676D01*
X94863333Y-135737676D02*
X94958571Y-135642438D01*
X94958571Y-135642438D02*
X95101428Y-135594819D01*
X95101428Y-135594819D02*
X95196666Y-135594819D01*
X95196666Y-135594819D02*
X95339523Y-135642438D01*
X95339523Y-135642438D02*
X95387142Y-135690057D01*
X95768095Y-135690057D02*
X95815714Y-135642438D01*
X95815714Y-135642438D02*
X95910952Y-135594819D01*
X95910952Y-135594819D02*
X96149047Y-135594819D01*
X96149047Y-135594819D02*
X96244285Y-135642438D01*
X96244285Y-135642438D02*
X96291904Y-135690057D01*
X96291904Y-135690057D02*
X96339523Y-135785295D01*
X96339523Y-135785295D02*
X96339523Y-135880533D01*
X96339523Y-135880533D02*
X96291904Y-136023390D01*
X96291904Y-136023390D02*
X95720476Y-136594819D01*
X95720476Y-136594819D02*
X96339523Y-136594819D01*
X96815714Y-136594819D02*
X97006190Y-136594819D01*
X97006190Y-136594819D02*
X97101428Y-136547200D01*
X97101428Y-136547200D02*
X97149047Y-136499580D01*
X97149047Y-136499580D02*
X97244285Y-136356723D01*
X97244285Y-136356723D02*
X97291904Y-136166247D01*
X97291904Y-136166247D02*
X97291904Y-135785295D01*
X97291904Y-135785295D02*
X97244285Y-135690057D01*
X97244285Y-135690057D02*
X97196666Y-135642438D01*
X97196666Y-135642438D02*
X97101428Y-135594819D01*
X97101428Y-135594819D02*
X96910952Y-135594819D01*
X96910952Y-135594819D02*
X96815714Y-135642438D01*
X96815714Y-135642438D02*
X96768095Y-135690057D01*
X96768095Y-135690057D02*
X96720476Y-135785295D01*
X96720476Y-135785295D02*
X96720476Y-136023390D01*
X96720476Y-136023390D02*
X96768095Y-136118628D01*
X96768095Y-136118628D02*
X96815714Y-136166247D01*
X96815714Y-136166247D02*
X96910952Y-136213866D01*
X96910952Y-136213866D02*
X97101428Y-136213866D01*
X97101428Y-136213866D02*
X97196666Y-136166247D01*
X97196666Y-136166247D02*
X97244285Y-136118628D01*
X97244285Y-136118628D02*
X97291904Y-136023390D01*
X106091905Y-127006819D02*
X106663333Y-127006819D01*
X106377619Y-128006819D02*
X106377619Y-127006819D01*
X106996667Y-128006819D02*
X106996667Y-127006819D01*
X106996667Y-127006819D02*
X107377619Y-127006819D01*
X107377619Y-127006819D02*
X107472857Y-127054438D01*
X107472857Y-127054438D02*
X107520476Y-127102057D01*
X107520476Y-127102057D02*
X107568095Y-127197295D01*
X107568095Y-127197295D02*
X107568095Y-127340152D01*
X107568095Y-127340152D02*
X107520476Y-127435390D01*
X107520476Y-127435390D02*
X107472857Y-127483009D01*
X107472857Y-127483009D02*
X107377619Y-127530628D01*
X107377619Y-127530628D02*
X106996667Y-127530628D01*
X108520476Y-128006819D02*
X107949048Y-128006819D01*
X108234762Y-128006819D02*
X108234762Y-127006819D01*
X108234762Y-127006819D02*
X108139524Y-127149676D01*
X108139524Y-127149676D02*
X108044286Y-127244914D01*
X108044286Y-127244914D02*
X107949048Y-127292533D01*
X109377619Y-127340152D02*
X109377619Y-128006819D01*
X109139524Y-126959200D02*
X108901429Y-127673485D01*
X108901429Y-127673485D02*
X109520476Y-127673485D01*
X82437505Y-117336219D02*
X83008933Y-117336219D01*
X82723219Y-118336219D02*
X82723219Y-117336219D01*
X83342267Y-118336219D02*
X83342267Y-117336219D01*
X83342267Y-117336219D02*
X83723219Y-117336219D01*
X83723219Y-117336219D02*
X83818457Y-117383838D01*
X83818457Y-117383838D02*
X83866076Y-117431457D01*
X83866076Y-117431457D02*
X83913695Y-117526695D01*
X83913695Y-117526695D02*
X83913695Y-117669552D01*
X83913695Y-117669552D02*
X83866076Y-117764790D01*
X83866076Y-117764790D02*
X83818457Y-117812409D01*
X83818457Y-117812409D02*
X83723219Y-117860028D01*
X83723219Y-117860028D02*
X83342267Y-117860028D01*
X84770838Y-117669552D02*
X84770838Y-118336219D01*
X84532743Y-117288600D02*
X84294648Y-118002885D01*
X84294648Y-118002885D02*
X84913695Y-118002885D01*
X85770838Y-117336219D02*
X85294648Y-117336219D01*
X85294648Y-117336219D02*
X85247029Y-117812409D01*
X85247029Y-117812409D02*
X85294648Y-117764790D01*
X85294648Y-117764790D02*
X85389886Y-117717171D01*
X85389886Y-117717171D02*
X85627981Y-117717171D01*
X85627981Y-117717171D02*
X85723219Y-117764790D01*
X85723219Y-117764790D02*
X85770838Y-117812409D01*
X85770838Y-117812409D02*
X85818457Y-117907647D01*
X85818457Y-117907647D02*
X85818457Y-118145742D01*
X85818457Y-118145742D02*
X85770838Y-118240980D01*
X85770838Y-118240980D02*
X85723219Y-118288600D01*
X85723219Y-118288600D02*
X85627981Y-118336219D01*
X85627981Y-118336219D02*
X85389886Y-118336219D01*
X85389886Y-118336219D02*
X85294648Y-118288600D01*
X85294648Y-118288600D02*
X85247029Y-118240980D01*
X128668333Y-86449819D02*
X128335000Y-85973628D01*
X128096905Y-86449819D02*
X128096905Y-85449819D01*
X128096905Y-85449819D02*
X128477857Y-85449819D01*
X128477857Y-85449819D02*
X128573095Y-85497438D01*
X128573095Y-85497438D02*
X128620714Y-85545057D01*
X128620714Y-85545057D02*
X128668333Y-85640295D01*
X128668333Y-85640295D02*
X128668333Y-85783152D01*
X128668333Y-85783152D02*
X128620714Y-85878390D01*
X128620714Y-85878390D02*
X128573095Y-85926009D01*
X128573095Y-85926009D02*
X128477857Y-85973628D01*
X128477857Y-85973628D02*
X128096905Y-85973628D01*
X129001667Y-85449819D02*
X129620714Y-85449819D01*
X129620714Y-85449819D02*
X129287381Y-85830771D01*
X129287381Y-85830771D02*
X129430238Y-85830771D01*
X129430238Y-85830771D02*
X129525476Y-85878390D01*
X129525476Y-85878390D02*
X129573095Y-85926009D01*
X129573095Y-85926009D02*
X129620714Y-86021247D01*
X129620714Y-86021247D02*
X129620714Y-86259342D01*
X129620714Y-86259342D02*
X129573095Y-86354580D01*
X129573095Y-86354580D02*
X129525476Y-86402200D01*
X129525476Y-86402200D02*
X129430238Y-86449819D01*
X129430238Y-86449819D02*
X129144524Y-86449819D01*
X129144524Y-86449819D02*
X129049286Y-86402200D01*
X129049286Y-86402200D02*
X129001667Y-86354580D01*
X113327142Y-66289580D02*
X113279523Y-66337200D01*
X113279523Y-66337200D02*
X113136666Y-66384819D01*
X113136666Y-66384819D02*
X113041428Y-66384819D01*
X113041428Y-66384819D02*
X112898571Y-66337200D01*
X112898571Y-66337200D02*
X112803333Y-66241961D01*
X112803333Y-66241961D02*
X112755714Y-66146723D01*
X112755714Y-66146723D02*
X112708095Y-65956247D01*
X112708095Y-65956247D02*
X112708095Y-65813390D01*
X112708095Y-65813390D02*
X112755714Y-65622914D01*
X112755714Y-65622914D02*
X112803333Y-65527676D01*
X112803333Y-65527676D02*
X112898571Y-65432438D01*
X112898571Y-65432438D02*
X113041428Y-65384819D01*
X113041428Y-65384819D02*
X113136666Y-65384819D01*
X113136666Y-65384819D02*
X113279523Y-65432438D01*
X113279523Y-65432438D02*
X113327142Y-65480057D01*
X113708095Y-65480057D02*
X113755714Y-65432438D01*
X113755714Y-65432438D02*
X113850952Y-65384819D01*
X113850952Y-65384819D02*
X114089047Y-65384819D01*
X114089047Y-65384819D02*
X114184285Y-65432438D01*
X114184285Y-65432438D02*
X114231904Y-65480057D01*
X114231904Y-65480057D02*
X114279523Y-65575295D01*
X114279523Y-65575295D02*
X114279523Y-65670533D01*
X114279523Y-65670533D02*
X114231904Y-65813390D01*
X114231904Y-65813390D02*
X113660476Y-66384819D01*
X113660476Y-66384819D02*
X114279523Y-66384819D01*
X114612857Y-65384819D02*
X115279523Y-65384819D01*
X115279523Y-65384819D02*
X114850952Y-66384819D01*
X124601905Y-63104819D02*
X125173333Y-63104819D01*
X124887619Y-64104819D02*
X124887619Y-63104819D01*
X125506667Y-64104819D02*
X125506667Y-63104819D01*
X125506667Y-63104819D02*
X125887619Y-63104819D01*
X125887619Y-63104819D02*
X125982857Y-63152438D01*
X125982857Y-63152438D02*
X126030476Y-63200057D01*
X126030476Y-63200057D02*
X126078095Y-63295295D01*
X126078095Y-63295295D02*
X126078095Y-63438152D01*
X126078095Y-63438152D02*
X126030476Y-63533390D01*
X126030476Y-63533390D02*
X125982857Y-63581009D01*
X125982857Y-63581009D02*
X125887619Y-63628628D01*
X125887619Y-63628628D02*
X125506667Y-63628628D01*
X126459048Y-63200057D02*
X126506667Y-63152438D01*
X126506667Y-63152438D02*
X126601905Y-63104819D01*
X126601905Y-63104819D02*
X126840000Y-63104819D01*
X126840000Y-63104819D02*
X126935238Y-63152438D01*
X126935238Y-63152438D02*
X126982857Y-63200057D01*
X126982857Y-63200057D02*
X127030476Y-63295295D01*
X127030476Y-63295295D02*
X127030476Y-63390533D01*
X127030476Y-63390533D02*
X126982857Y-63533390D01*
X126982857Y-63533390D02*
X126411429Y-64104819D01*
X126411429Y-64104819D02*
X127030476Y-64104819D01*
X127411429Y-63200057D02*
X127459048Y-63152438D01*
X127459048Y-63152438D02*
X127554286Y-63104819D01*
X127554286Y-63104819D02*
X127792381Y-63104819D01*
X127792381Y-63104819D02*
X127887619Y-63152438D01*
X127887619Y-63152438D02*
X127935238Y-63200057D01*
X127935238Y-63200057D02*
X127982857Y-63295295D01*
X127982857Y-63295295D02*
X127982857Y-63390533D01*
X127982857Y-63390533D02*
X127935238Y-63533390D01*
X127935238Y-63533390D02*
X127363810Y-64104819D01*
X127363810Y-64104819D02*
X127982857Y-64104819D01*
X111344819Y-138161904D02*
X111344819Y-137590476D01*
X112344819Y-137876190D02*
X111344819Y-137876190D01*
X112344819Y-137257142D02*
X111344819Y-137257142D01*
X111344819Y-137257142D02*
X111344819Y-136876190D01*
X111344819Y-136876190D02*
X111392438Y-136780952D01*
X111392438Y-136780952D02*
X111440057Y-136733333D01*
X111440057Y-136733333D02*
X111535295Y-136685714D01*
X111535295Y-136685714D02*
X111678152Y-136685714D01*
X111678152Y-136685714D02*
X111773390Y-136733333D01*
X111773390Y-136733333D02*
X111821009Y-136780952D01*
X111821009Y-136780952D02*
X111868628Y-136876190D01*
X111868628Y-136876190D02*
X111868628Y-137257142D01*
X111440057Y-136304761D02*
X111392438Y-136257142D01*
X111392438Y-136257142D02*
X111344819Y-136161904D01*
X111344819Y-136161904D02*
X111344819Y-135923809D01*
X111344819Y-135923809D02*
X111392438Y-135828571D01*
X111392438Y-135828571D02*
X111440057Y-135780952D01*
X111440057Y-135780952D02*
X111535295Y-135733333D01*
X111535295Y-135733333D02*
X111630533Y-135733333D01*
X111630533Y-135733333D02*
X111773390Y-135780952D01*
X111773390Y-135780952D02*
X112344819Y-136352380D01*
X112344819Y-136352380D02*
X112344819Y-135733333D01*
X111057142Y-97009580D02*
X111009523Y-97057200D01*
X111009523Y-97057200D02*
X110866666Y-97104819D01*
X110866666Y-97104819D02*
X110771428Y-97104819D01*
X110771428Y-97104819D02*
X110628571Y-97057200D01*
X110628571Y-97057200D02*
X110533333Y-96961961D01*
X110533333Y-96961961D02*
X110485714Y-96866723D01*
X110485714Y-96866723D02*
X110438095Y-96676247D01*
X110438095Y-96676247D02*
X110438095Y-96533390D01*
X110438095Y-96533390D02*
X110485714Y-96342914D01*
X110485714Y-96342914D02*
X110533333Y-96247676D01*
X110533333Y-96247676D02*
X110628571Y-96152438D01*
X110628571Y-96152438D02*
X110771428Y-96104819D01*
X110771428Y-96104819D02*
X110866666Y-96104819D01*
X110866666Y-96104819D02*
X111009523Y-96152438D01*
X111009523Y-96152438D02*
X111057142Y-96200057D01*
X111438095Y-96200057D02*
X111485714Y-96152438D01*
X111485714Y-96152438D02*
X111580952Y-96104819D01*
X111580952Y-96104819D02*
X111819047Y-96104819D01*
X111819047Y-96104819D02*
X111914285Y-96152438D01*
X111914285Y-96152438D02*
X111961904Y-96200057D01*
X111961904Y-96200057D02*
X112009523Y-96295295D01*
X112009523Y-96295295D02*
X112009523Y-96390533D01*
X112009523Y-96390533D02*
X111961904Y-96533390D01*
X111961904Y-96533390D02*
X111390476Y-97104819D01*
X111390476Y-97104819D02*
X112009523Y-97104819D01*
X112628571Y-96104819D02*
X112723809Y-96104819D01*
X112723809Y-96104819D02*
X112819047Y-96152438D01*
X112819047Y-96152438D02*
X112866666Y-96200057D01*
X112866666Y-96200057D02*
X112914285Y-96295295D01*
X112914285Y-96295295D02*
X112961904Y-96485771D01*
X112961904Y-96485771D02*
X112961904Y-96723866D01*
X112961904Y-96723866D02*
X112914285Y-96914342D01*
X112914285Y-96914342D02*
X112866666Y-97009580D01*
X112866666Y-97009580D02*
X112819047Y-97057200D01*
X112819047Y-97057200D02*
X112723809Y-97104819D01*
X112723809Y-97104819D02*
X112628571Y-97104819D01*
X112628571Y-97104819D02*
X112533333Y-97057200D01*
X112533333Y-97057200D02*
X112485714Y-97009580D01*
X112485714Y-97009580D02*
X112438095Y-96914342D01*
X112438095Y-96914342D02*
X112390476Y-96723866D01*
X112390476Y-96723866D02*
X112390476Y-96485771D01*
X112390476Y-96485771D02*
X112438095Y-96295295D01*
X112438095Y-96295295D02*
X112485714Y-96200057D01*
X112485714Y-96200057D02*
X112533333Y-96152438D01*
X112533333Y-96152438D02*
X112628571Y-96104819D01*
X101737142Y-94839580D02*
X101689523Y-94887200D01*
X101689523Y-94887200D02*
X101546666Y-94934819D01*
X101546666Y-94934819D02*
X101451428Y-94934819D01*
X101451428Y-94934819D02*
X101308571Y-94887200D01*
X101308571Y-94887200D02*
X101213333Y-94791961D01*
X101213333Y-94791961D02*
X101165714Y-94696723D01*
X101165714Y-94696723D02*
X101118095Y-94506247D01*
X101118095Y-94506247D02*
X101118095Y-94363390D01*
X101118095Y-94363390D02*
X101165714Y-94172914D01*
X101165714Y-94172914D02*
X101213333Y-94077676D01*
X101213333Y-94077676D02*
X101308571Y-93982438D01*
X101308571Y-93982438D02*
X101451428Y-93934819D01*
X101451428Y-93934819D02*
X101546666Y-93934819D01*
X101546666Y-93934819D02*
X101689523Y-93982438D01*
X101689523Y-93982438D02*
X101737142Y-94030057D01*
X102594285Y-94268152D02*
X102594285Y-94934819D01*
X102356190Y-93887200D02*
X102118095Y-94601485D01*
X102118095Y-94601485D02*
X102737142Y-94601485D01*
X103022857Y-93934819D02*
X103689523Y-93934819D01*
X103689523Y-93934819D02*
X103260952Y-94934819D01*
X97152580Y-132280857D02*
X97200200Y-132328476D01*
X97200200Y-132328476D02*
X97247819Y-132471333D01*
X97247819Y-132471333D02*
X97247819Y-132566571D01*
X97247819Y-132566571D02*
X97200200Y-132709428D01*
X97200200Y-132709428D02*
X97104961Y-132804666D01*
X97104961Y-132804666D02*
X97009723Y-132852285D01*
X97009723Y-132852285D02*
X96819247Y-132899904D01*
X96819247Y-132899904D02*
X96676390Y-132899904D01*
X96676390Y-132899904D02*
X96485914Y-132852285D01*
X96485914Y-132852285D02*
X96390676Y-132804666D01*
X96390676Y-132804666D02*
X96295438Y-132709428D01*
X96295438Y-132709428D02*
X96247819Y-132566571D01*
X96247819Y-132566571D02*
X96247819Y-132471333D01*
X96247819Y-132471333D02*
X96295438Y-132328476D01*
X96295438Y-132328476D02*
X96343057Y-132280857D01*
X96343057Y-131899904D02*
X96295438Y-131852285D01*
X96295438Y-131852285D02*
X96247819Y-131757047D01*
X96247819Y-131757047D02*
X96247819Y-131518952D01*
X96247819Y-131518952D02*
X96295438Y-131423714D01*
X96295438Y-131423714D02*
X96343057Y-131376095D01*
X96343057Y-131376095D02*
X96438295Y-131328476D01*
X96438295Y-131328476D02*
X96533533Y-131328476D01*
X96533533Y-131328476D02*
X96676390Y-131376095D01*
X96676390Y-131376095D02*
X97247819Y-131947523D01*
X97247819Y-131947523D02*
X97247819Y-131328476D01*
X96581152Y-130471333D02*
X97247819Y-130471333D01*
X96200200Y-130709428D02*
X96914485Y-130947523D01*
X96914485Y-130947523D02*
X96914485Y-130328476D01*
X90017342Y-89725780D02*
X89969723Y-89773400D01*
X89969723Y-89773400D02*
X89826866Y-89821019D01*
X89826866Y-89821019D02*
X89731628Y-89821019D01*
X89731628Y-89821019D02*
X89588771Y-89773400D01*
X89588771Y-89773400D02*
X89493533Y-89678161D01*
X89493533Y-89678161D02*
X89445914Y-89582923D01*
X89445914Y-89582923D02*
X89398295Y-89392447D01*
X89398295Y-89392447D02*
X89398295Y-89249590D01*
X89398295Y-89249590D02*
X89445914Y-89059114D01*
X89445914Y-89059114D02*
X89493533Y-88963876D01*
X89493533Y-88963876D02*
X89588771Y-88868638D01*
X89588771Y-88868638D02*
X89731628Y-88821019D01*
X89731628Y-88821019D02*
X89826866Y-88821019D01*
X89826866Y-88821019D02*
X89969723Y-88868638D01*
X89969723Y-88868638D02*
X90017342Y-88916257D01*
X90350676Y-88821019D02*
X90969723Y-88821019D01*
X90969723Y-88821019D02*
X90636390Y-89201971D01*
X90636390Y-89201971D02*
X90779247Y-89201971D01*
X90779247Y-89201971D02*
X90874485Y-89249590D01*
X90874485Y-89249590D02*
X90922104Y-89297209D01*
X90922104Y-89297209D02*
X90969723Y-89392447D01*
X90969723Y-89392447D02*
X90969723Y-89630542D01*
X90969723Y-89630542D02*
X90922104Y-89725780D01*
X90922104Y-89725780D02*
X90874485Y-89773400D01*
X90874485Y-89773400D02*
X90779247Y-89821019D01*
X90779247Y-89821019D02*
X90493533Y-89821019D01*
X90493533Y-89821019D02*
X90398295Y-89773400D01*
X90398295Y-89773400D02*
X90350676Y-89725780D01*
X91826866Y-88821019D02*
X91636390Y-88821019D01*
X91636390Y-88821019D02*
X91541152Y-88868638D01*
X91541152Y-88868638D02*
X91493533Y-88916257D01*
X91493533Y-88916257D02*
X91398295Y-89059114D01*
X91398295Y-89059114D02*
X91350676Y-89249590D01*
X91350676Y-89249590D02*
X91350676Y-89630542D01*
X91350676Y-89630542D02*
X91398295Y-89725780D01*
X91398295Y-89725780D02*
X91445914Y-89773400D01*
X91445914Y-89773400D02*
X91541152Y-89821019D01*
X91541152Y-89821019D02*
X91731628Y-89821019D01*
X91731628Y-89821019D02*
X91826866Y-89773400D01*
X91826866Y-89773400D02*
X91874485Y-89725780D01*
X91874485Y-89725780D02*
X91922104Y-89630542D01*
X91922104Y-89630542D02*
X91922104Y-89392447D01*
X91922104Y-89392447D02*
X91874485Y-89297209D01*
X91874485Y-89297209D02*
X91826866Y-89249590D01*
X91826866Y-89249590D02*
X91731628Y-89201971D01*
X91731628Y-89201971D02*
X91541152Y-89201971D01*
X91541152Y-89201971D02*
X91445914Y-89249590D01*
X91445914Y-89249590D02*
X91398295Y-89297209D01*
X91398295Y-89297209D02*
X91350676Y-89392447D01*
X110391580Y-112826666D02*
X110439200Y-112874285D01*
X110439200Y-112874285D02*
X110486819Y-113017142D01*
X110486819Y-113017142D02*
X110486819Y-113112380D01*
X110486819Y-113112380D02*
X110439200Y-113255237D01*
X110439200Y-113255237D02*
X110343961Y-113350475D01*
X110343961Y-113350475D02*
X110248723Y-113398094D01*
X110248723Y-113398094D02*
X110058247Y-113445713D01*
X110058247Y-113445713D02*
X109915390Y-113445713D01*
X109915390Y-113445713D02*
X109724914Y-113398094D01*
X109724914Y-113398094D02*
X109629676Y-113350475D01*
X109629676Y-113350475D02*
X109534438Y-113255237D01*
X109534438Y-113255237D02*
X109486819Y-113112380D01*
X109486819Y-113112380D02*
X109486819Y-113017142D01*
X109486819Y-113017142D02*
X109534438Y-112874285D01*
X109534438Y-112874285D02*
X109582057Y-112826666D01*
X110486819Y-112350475D02*
X110486819Y-112159999D01*
X110486819Y-112159999D02*
X110439200Y-112064761D01*
X110439200Y-112064761D02*
X110391580Y-112017142D01*
X110391580Y-112017142D02*
X110248723Y-111921904D01*
X110248723Y-111921904D02*
X110058247Y-111874285D01*
X110058247Y-111874285D02*
X109677295Y-111874285D01*
X109677295Y-111874285D02*
X109582057Y-111921904D01*
X109582057Y-111921904D02*
X109534438Y-111969523D01*
X109534438Y-111969523D02*
X109486819Y-112064761D01*
X109486819Y-112064761D02*
X109486819Y-112255237D01*
X109486819Y-112255237D02*
X109534438Y-112350475D01*
X109534438Y-112350475D02*
X109582057Y-112398094D01*
X109582057Y-112398094D02*
X109677295Y-112445713D01*
X109677295Y-112445713D02*
X109915390Y-112445713D01*
X109915390Y-112445713D02*
X110010628Y-112398094D01*
X110010628Y-112398094D02*
X110058247Y-112350475D01*
X110058247Y-112350475D02*
X110105866Y-112255237D01*
X110105866Y-112255237D02*
X110105866Y-112064761D01*
X110105866Y-112064761D02*
X110058247Y-111969523D01*
X110058247Y-111969523D02*
X110010628Y-111921904D01*
X110010628Y-111921904D02*
X109915390Y-111874285D01*
X109539905Y-60597819D02*
X109539905Y-61407342D01*
X109539905Y-61407342D02*
X109587524Y-61502580D01*
X109587524Y-61502580D02*
X109635143Y-61550200D01*
X109635143Y-61550200D02*
X109730381Y-61597819D01*
X109730381Y-61597819D02*
X109920857Y-61597819D01*
X109920857Y-61597819D02*
X110016095Y-61550200D01*
X110016095Y-61550200D02*
X110063714Y-61502580D01*
X110063714Y-61502580D02*
X110111333Y-61407342D01*
X110111333Y-61407342D02*
X110111333Y-60597819D01*
X111111333Y-61597819D02*
X110539905Y-61597819D01*
X110825619Y-61597819D02*
X110825619Y-60597819D01*
X110825619Y-60597819D02*
X110730381Y-60740676D01*
X110730381Y-60740676D02*
X110635143Y-60835914D01*
X110635143Y-60835914D02*
X110539905Y-60883533D01*
X112063714Y-61597819D02*
X111492286Y-61597819D01*
X111778000Y-61597819D02*
X111778000Y-60597819D01*
X111778000Y-60597819D02*
X111682762Y-60740676D01*
X111682762Y-60740676D02*
X111587524Y-60835914D01*
X111587524Y-60835914D02*
X111492286Y-60883533D01*
X90042742Y-93060380D02*
X89995123Y-93108000D01*
X89995123Y-93108000D02*
X89852266Y-93155619D01*
X89852266Y-93155619D02*
X89757028Y-93155619D01*
X89757028Y-93155619D02*
X89614171Y-93108000D01*
X89614171Y-93108000D02*
X89518933Y-93012761D01*
X89518933Y-93012761D02*
X89471314Y-92917523D01*
X89471314Y-92917523D02*
X89423695Y-92727047D01*
X89423695Y-92727047D02*
X89423695Y-92584190D01*
X89423695Y-92584190D02*
X89471314Y-92393714D01*
X89471314Y-92393714D02*
X89518933Y-92298476D01*
X89518933Y-92298476D02*
X89614171Y-92203238D01*
X89614171Y-92203238D02*
X89757028Y-92155619D01*
X89757028Y-92155619D02*
X89852266Y-92155619D01*
X89852266Y-92155619D02*
X89995123Y-92203238D01*
X89995123Y-92203238D02*
X90042742Y-92250857D01*
X90376076Y-92155619D02*
X90995123Y-92155619D01*
X90995123Y-92155619D02*
X90661790Y-92536571D01*
X90661790Y-92536571D02*
X90804647Y-92536571D01*
X90804647Y-92536571D02*
X90899885Y-92584190D01*
X90899885Y-92584190D02*
X90947504Y-92631809D01*
X90947504Y-92631809D02*
X90995123Y-92727047D01*
X90995123Y-92727047D02*
X90995123Y-92965142D01*
X90995123Y-92965142D02*
X90947504Y-93060380D01*
X90947504Y-93060380D02*
X90899885Y-93108000D01*
X90899885Y-93108000D02*
X90804647Y-93155619D01*
X90804647Y-93155619D02*
X90518933Y-93155619D01*
X90518933Y-93155619D02*
X90423695Y-93108000D01*
X90423695Y-93108000D02*
X90376076Y-93060380D01*
X91328457Y-92155619D02*
X91995123Y-92155619D01*
X91995123Y-92155619D02*
X91566552Y-93155619D01*
D11*
%TO.C,C43*%
X106125252Y-70222000D02*
X105602748Y-70222000D01*
X106125252Y-68752000D02*
X105602748Y-68752000D01*
%TO.C,C19*%
X116463836Y-103725000D02*
X116248164Y-103725000D01*
X116463836Y-103005000D02*
X116248164Y-103005000D01*
%TO.C,D1*%
X115870000Y-86742000D02*
X115870000Y-90042000D01*
X115870000Y-86742000D02*
X121380000Y-86742000D01*
X115870000Y-90042000D02*
X121380000Y-90042000D01*
D12*
%TO.C,U8*%
X80420000Y-79270000D02*
X84840000Y-79270000D01*
X80440000Y-84270000D02*
X80420000Y-79270000D01*
X84840000Y-79270000D02*
X84840000Y-84270000D01*
X84840000Y-84270000D02*
X80440000Y-84270000D01*
D13*
X78755299Y-79320000D02*
G75*
G03*
X78755299Y-79320000I-155299J0D01*
G01*
D11*
%TO.C,C7*%
X112628000Y-114547764D02*
X112628000Y-114763436D01*
X111908000Y-114547764D02*
X111908000Y-114763436D01*
%TO.C,R13*%
X91029600Y-63925359D02*
X91029600Y-64232641D01*
X90269600Y-63925359D02*
X90269600Y-64232641D01*
%TO.C,R6*%
X122360641Y-115934000D02*
X122053359Y-115934000D01*
X122360641Y-115174000D02*
X122053359Y-115174000D01*
%TO.C,C1*%
X115357836Y-128170000D02*
X115142164Y-128170000D01*
X115357836Y-127450000D02*
X115142164Y-127450000D01*
%TO.C,TP38*%
X87995800Y-112699800D02*
G75*
G03*
X87995800Y-112699800I-950000J0D01*
G01*
%TO.C,Q4*%
X111050000Y-68620000D02*
X109640000Y-68620000D01*
X109640000Y-70940000D02*
X111670000Y-70940000D01*
X109640000Y-70940000D02*
X109640000Y-70280000D01*
X109640000Y-69280000D02*
X109640000Y-68620000D01*
%TO.C,C41*%
X97666652Y-63740800D02*
X97144148Y-63740800D01*
X97666652Y-62270800D02*
X97144148Y-62270800D01*
%TO.C,TP19*%
X132106000Y-74610000D02*
G75*
G03*
X132106000Y-74610000I-950000J0D01*
G01*
%TO.C,C3*%
X114547836Y-108150000D02*
X114332164Y-108150000D01*
X114547836Y-107430000D02*
X114332164Y-107430000D01*
%TO.C,R5*%
X127407641Y-99290000D02*
X127100359Y-99290000D01*
X127407641Y-98530000D02*
X127100359Y-98530000D01*
%TO.C,C38*%
X102518000Y-67900348D02*
X102518000Y-68422852D01*
X101048000Y-67900348D02*
X101048000Y-68422852D01*
%TO.C,TP35*%
X109290000Y-99470000D02*
G75*
G03*
X109290000Y-99470000I-950000J0D01*
G01*
%TO.C,TP5*%
X112390000Y-130160000D02*
G75*
G03*
X112390000Y-130160000I-950000J0D01*
G01*
%TO.C,C25*%
X105900000Y-130132164D02*
X105900000Y-130347836D01*
X105180000Y-130132164D02*
X105180000Y-130347836D01*
%TO.C,C45*%
X93210748Y-65685000D02*
X93733252Y-65685000D01*
X93210748Y-67155000D02*
X93733252Y-67155000D01*
%TO.C,Y1*%
X123125650Y-77421900D02*
X122064350Y-77421900D01*
X122064350Y-79276100D02*
X123125650Y-79276100D01*
%TO.C,TP16*%
X95057000Y-141452600D02*
G75*
G03*
X95057000Y-141452600I-950000J0D01*
G01*
%TO.C,TP15*%
X91805800Y-145948400D02*
G75*
G03*
X91805800Y-145948400I-950000J0D01*
G01*
%TO.C,U5*%
X93753000Y-127748000D02*
X91953000Y-127748000D01*
X93753000Y-127748000D02*
X94553000Y-127748000D01*
X93753000Y-130868000D02*
X92953000Y-130868000D01*
X93753000Y-130868000D02*
X94553000Y-130868000D01*
%TO.C,C51*%
X131128748Y-82005000D02*
X131651252Y-82005000D01*
X131128748Y-83475000D02*
X131651252Y-83475000D01*
%TO.C,TP8*%
X120750000Y-119990000D02*
G75*
G03*
X120750000Y-119990000I-950000J0D01*
G01*
%TO.C,TP23*%
X123506000Y-57528000D02*
G75*
G03*
X123506000Y-57528000I-950000J0D01*
G01*
%TO.C,U6*%
X102320000Y-128680000D02*
X100520000Y-128680000D01*
X102320000Y-128680000D02*
X103120000Y-128680000D01*
X102320000Y-131800000D02*
X101520000Y-131800000D01*
X102320000Y-131800000D02*
X103120000Y-131800000D01*
%TO.C,TP1*%
X90713600Y-114223800D02*
G75*
G03*
X90713600Y-114223800I-950000J0D01*
G01*
%TO.C,C4*%
X108125000Y-122425836D02*
X108125000Y-122210164D01*
X108845000Y-122425836D02*
X108845000Y-122210164D01*
%TO.C,TP43*%
X88097400Y-115316000D02*
G75*
G03*
X88097400Y-115316000I-950000J0D01*
G01*
D10*
%TO.C,U7*%
X102896800Y-114527200D02*
X102896800Y-117527200D01*
X99896800Y-114527200D02*
X102896800Y-114527200D01*
X102896800Y-117527200D02*
X99896800Y-117527200D01*
X99896800Y-117527200D02*
X99896800Y-114527200D01*
D14*
X102903882Y-113023035D02*
G75*
G03*
X102903882Y-113023035I-127082J0D01*
G01*
D11*
%TO.C,C12*%
X99407836Y-104600000D02*
X99192164Y-104600000D01*
X99407836Y-103880000D02*
X99192164Y-103880000D01*
%TO.C,C52*%
X131162164Y-80190000D02*
X131377836Y-80190000D01*
X131162164Y-80910000D02*
X131377836Y-80910000D01*
%TO.C,R1*%
X126990641Y-102038000D02*
X126683359Y-102038000D01*
X126990641Y-101278000D02*
X126683359Y-101278000D01*
%TO.C,C30*%
X123683000Y-76203836D02*
X123683000Y-75988164D01*
X124403000Y-76203836D02*
X124403000Y-75988164D01*
D15*
%TO.C,U2*%
X114672000Y-97515000D02*
X118172000Y-97515000D01*
X118172000Y-101015000D02*
X118172000Y-97515000D01*
X114672000Y-101015000D02*
X114672000Y-97515000D01*
X114672000Y-101015000D02*
X118172000Y-101015000D01*
D16*
X115772000Y-96580000D02*
G75*
G03*
X115772000Y-96580000I-100000J0D01*
G01*
D11*
%TO.C,R10*%
X95208800Y-63929959D02*
X95208800Y-64237241D01*
X94448800Y-63929959D02*
X94448800Y-64237241D01*
%TO.C,TP42*%
X88050000Y-106510000D02*
G75*
G03*
X88050000Y-106510000I-950000J0D01*
G01*
%TO.C,TP17*%
X131994000Y-65978000D02*
G75*
G03*
X131994000Y-65978000I-950000J0D01*
G01*
%TO.C,L1*%
X109500600Y-76921400D02*
X102500600Y-76921400D01*
X102500600Y-76921400D02*
X102500600Y-86921400D01*
X102500600Y-86921400D02*
X109500600Y-86921400D01*
X109500600Y-86921400D02*
X109500600Y-76921400D01*
%TO.C,R15*%
X93085000Y-64232641D02*
X93085000Y-63925359D01*
X93845000Y-64232641D02*
X93845000Y-63925359D01*
%TO.C,C15*%
X98117836Y-106400000D02*
X97902164Y-106400000D01*
X98117836Y-105680000D02*
X97902164Y-105680000D01*
%TO.C,R16*%
X94483641Y-102420000D02*
X94176359Y-102420000D01*
X94483641Y-101660000D02*
X94176359Y-101660000D01*
%TO.C,C16*%
X102286000Y-122425836D02*
X102286000Y-122210164D01*
X103006000Y-122425836D02*
X103006000Y-122210164D01*
%TO.C,C49*%
X114707836Y-61290000D02*
X114492164Y-61290000D01*
X114707836Y-60570000D02*
X114492164Y-60570000D01*
%TO.C,C18*%
X95766836Y-110041000D02*
X95551164Y-110041000D01*
X95766836Y-109321000D02*
X95551164Y-109321000D01*
%TO.C,TP18*%
X130831000Y-61664000D02*
G75*
G03*
X130831000Y-61664000I-950000J0D01*
G01*
%TO.C,C40*%
X97644252Y-66003000D02*
X97121748Y-66003000D01*
X97644252Y-64533000D02*
X97121748Y-64533000D01*
D10*
%TO.C,U10*%
X91540000Y-98040000D02*
X94540000Y-98040000D01*
X91540000Y-101040000D02*
X91540000Y-98040000D01*
X94540000Y-98040000D02*
X94540000Y-101040000D01*
X94540000Y-101040000D02*
X91540000Y-101040000D01*
D14*
X90162917Y-98160000D02*
G75*
G03*
X90162917Y-98160000I-127082J0D01*
G01*
D11*
%TO.C,TP36*%
X117820000Y-105550000D02*
G75*
G03*
X117820000Y-105550000I-950000J0D01*
G01*
%TO.C,C39*%
X105022164Y-67090000D02*
X105237836Y-67090000D01*
X105022164Y-67810000D02*
X105237836Y-67810000D01*
%TO.C,TP44*%
X90637400Y-116840000D02*
G75*
G03*
X90637400Y-116840000I-950000J0D01*
G01*
%TO.C,C31*%
X120799000Y-76212836D02*
X120799000Y-75997164D01*
X121519000Y-76212836D02*
X121519000Y-75997164D01*
%TO.C,C35*%
X82277836Y-88080000D02*
X82062164Y-88080000D01*
X82277836Y-87360000D02*
X82062164Y-87360000D01*
%TO.C,C10*%
X109072000Y-114573164D02*
X109072000Y-114788836D01*
X108352000Y-114573164D02*
X108352000Y-114788836D01*
%TO.C,C11*%
X111510400Y-114598564D02*
X111510400Y-114814236D01*
X110790400Y-114598564D02*
X110790400Y-114814236D01*
%TO.C,R14*%
X92437300Y-63925359D02*
X92437300Y-64232641D01*
X91677300Y-63925359D02*
X91677300Y-64232641D01*
%TO.C,R11*%
X104960359Y-65912000D02*
X105267641Y-65912000D01*
X104960359Y-66672000D02*
X105267641Y-66672000D01*
%TO.C,C14*%
X98719836Y-122148000D02*
X98504164Y-122148000D01*
X98719836Y-121428000D02*
X98504164Y-121428000D01*
%TO.C,C13*%
X107860000Y-109975000D02*
X103340000Y-109975000D01*
X103340000Y-109975000D02*
X103340000Y-118210000D01*
X107860000Y-118210000D02*
X107860000Y-109975000D01*
%TO.C,Q2*%
X100231600Y-77060200D02*
X95131600Y-77060200D01*
X95131600Y-77060200D02*
X95131600Y-83160200D01*
X95131600Y-83160200D02*
X100231600Y-83160200D01*
X100231600Y-83160200D02*
X100231600Y-77060200D01*
D17*
X94891713Y-83480200D02*
G75*
G03*
X94891713Y-83480200I-140113J0D01*
G01*
D11*
%TO.C,C33*%
X101773400Y-110674036D02*
X101773400Y-110458364D01*
X102493400Y-110674036D02*
X102493400Y-110458364D01*
%TO.C,R2*%
X95996359Y-138100000D02*
X96303641Y-138100000D01*
X95996359Y-138860000D02*
X96303641Y-138860000D01*
%TO.C,TP3*%
X115360000Y-140150000D02*
G75*
G03*
X115360000Y-140150000I-950000J0D01*
G01*
%TO.C,TP41*%
X90450000Y-108130000D02*
G75*
G03*
X90450000Y-108130000I-950000J0D01*
G01*
%TO.C,C44*%
X95822164Y-96780000D02*
X96037836Y-96780000D01*
X95822164Y-97500000D02*
X96037836Y-97500000D01*
%TO.C,U9*%
X99701691Y-67922200D02*
X96701691Y-67922200D01*
X96701691Y-67922200D02*
X96701691Y-70922200D01*
X96701691Y-70922200D02*
X99701691Y-70922200D01*
X99701691Y-70922200D02*
X99701691Y-67922200D01*
D18*
X99675182Y-67272200D02*
G75*
G03*
X99675182Y-67272200I-153491J0D01*
G01*
D11*
%TO.C,TP34*%
X109320000Y-102200000D02*
G75*
G03*
X109320000Y-102200000I-950000J0D01*
G01*
%TO.C,TP46*%
X88021200Y-120827800D02*
G75*
G03*
X88021200Y-120827800I-950000J0D01*
G01*
%TO.C,C22*%
X93625164Y-131458000D02*
X93840836Y-131458000D01*
X93625164Y-132178000D02*
X93840836Y-132178000D01*
%TO.C,TP10*%
X120750000Y-123540000D02*
G75*
G03*
X120750000Y-123540000I-950000J0D01*
G01*
%TO.C,C21*%
X123997836Y-102020000D02*
X123782164Y-102020000D01*
X123997836Y-101300000D02*
X123782164Y-101300000D01*
%TO.C,C6*%
X113247836Y-106390000D02*
X113032164Y-106390000D01*
X113247836Y-105670000D02*
X113032164Y-105670000D01*
D15*
%TO.C,C46*%
X104101600Y-91040200D02*
X104101600Y-88240200D01*
X104101600Y-91040200D02*
X100601600Y-91040200D01*
X104101600Y-88240200D02*
X100601600Y-88240200D01*
X100601600Y-91040200D02*
X100601600Y-88240200D01*
D11*
%TO.C,Q1*%
X89169887Y-83116364D02*
X94269887Y-83116364D01*
X94269887Y-83116364D02*
X94269887Y-77016364D01*
X94269887Y-77016364D02*
X89169887Y-77016364D01*
X89169887Y-77016364D02*
X89169887Y-83116364D01*
D17*
X94790000Y-76696364D02*
G75*
G03*
X94790000Y-76696364I-140113J0D01*
G01*
D11*
%TO.C,C42*%
X96561964Y-72768000D02*
X96777636Y-72768000D01*
X96561964Y-73488000D02*
X96777636Y-73488000D01*
%TO.C,TP7*%
X116510000Y-121710000D02*
G75*
G03*
X116510000Y-121710000I-950000J0D01*
G01*
%TO.C,C34*%
X93570348Y-84610200D02*
X94992852Y-84610200D01*
X93570348Y-87330200D02*
X94992852Y-87330200D01*
%TO.C,TP40*%
X88130000Y-109740000D02*
G75*
G03*
X88130000Y-109740000I-950000J0D01*
G01*
%TO.C,TP4*%
X117990000Y-140190000D02*
G75*
G03*
X117990000Y-140190000I-950000J0D01*
G01*
%TO.C,U1*%
X113940000Y-126620000D02*
X116440000Y-126620000D01*
X116440000Y-126620000D02*
X116440000Y-123420000D01*
X116440000Y-123420000D02*
X113940000Y-123420000D01*
X113940000Y-123420000D02*
X113940000Y-126620000D01*
D19*
X117356590Y-126780000D02*
G75*
G03*
X117356590Y-126780000I-156590J0D01*
G01*
D11*
%TO.C,TP13*%
X99423000Y-127736000D02*
G75*
G03*
X99423000Y-127736000I-950000J0D01*
G01*
%TO.C,R12*%
X99006559Y-72743400D02*
X99313841Y-72743400D01*
X99006559Y-73503400D02*
X99313841Y-73503400D01*
%TO.C,R4*%
X110108641Y-72140000D02*
X109801359Y-72140000D01*
X110108641Y-71380000D02*
X109801359Y-71380000D01*
%TO.C,C2*%
X115647836Y-109984000D02*
X115432164Y-109984000D01*
X115647836Y-109264000D02*
X115432164Y-109264000D01*
%TO.C,C23*%
X102102164Y-132250000D02*
X102317836Y-132250000D01*
X102102164Y-132970000D02*
X102317836Y-132970000D01*
%TO.C,TP6*%
X90510400Y-119507000D02*
G75*
G03*
X90510400Y-119507000I-950000J0D01*
G01*
%TO.C,C5*%
X111800000Y-121427836D02*
X111800000Y-121212164D01*
X112520000Y-121427836D02*
X112520000Y-121212164D01*
%TO.C,TP9*%
X123450000Y-113430000D02*
G75*
G03*
X123450000Y-113430000I-950000J0D01*
G01*
%TO.C,R9*%
X100712000Y-111710441D02*
X100712000Y-111403159D01*
X101472000Y-111710441D02*
X101472000Y-111403159D01*
%TO.C,C17*%
X96837836Y-108140000D02*
X96622164Y-108140000D01*
X96837836Y-107420000D02*
X96622164Y-107420000D01*
%TO.C,C8*%
X111917836Y-104600000D02*
X111702164Y-104600000D01*
X111917836Y-103880000D02*
X111702164Y-103880000D01*
%TO.C,C29*%
X96012164Y-137050000D02*
X96227836Y-137050000D01*
X96012164Y-137770000D02*
X96227836Y-137770000D01*
%TO.C,TP14*%
X108780000Y-129200000D02*
G75*
G03*
X108780000Y-129200000I-950000J0D01*
G01*
%TO.C,TP45*%
X88072000Y-117983000D02*
G75*
G03*
X88072000Y-117983000I-950000J0D01*
G01*
%TO.C,R3*%
X127025641Y-86427000D02*
X126718359Y-86427000D01*
X127025641Y-85667000D02*
X126718359Y-85667000D01*
%TO.C,C27*%
X111423164Y-65571000D02*
X111638836Y-65571000D01*
X111423164Y-66291000D02*
X111638836Y-66291000D01*
%TO.C,TP22*%
X127043000Y-61620000D02*
G75*
G03*
X127043000Y-61620000I-950000J0D01*
G01*
%TO.C,TP2*%
X112840000Y-140150000D02*
G75*
G03*
X112840000Y-140150000I-950000J0D01*
G01*
%TO.C,C20*%
X114209836Y-96715000D02*
X113994164Y-96715000D01*
X114209836Y-95995000D02*
X113994164Y-95995000D01*
%TO.C,C47*%
X103022852Y-93520200D02*
X101600348Y-93520200D01*
X103022852Y-91700200D02*
X101600348Y-91700200D01*
%TO.C,C24*%
X97123000Y-129010164D02*
X97123000Y-129225836D01*
X96403000Y-129010164D02*
X96403000Y-129225836D01*
%TO.C,C36*%
X93530348Y-88020200D02*
X94952852Y-88020200D01*
X93530348Y-90740200D02*
X94952852Y-90740200D01*
%TO.C,C9*%
X110342000Y-114602164D02*
X110342000Y-114817836D01*
X109622000Y-114602164D02*
X109622000Y-114817836D01*
D12*
%TO.C,U11*%
X111661300Y-61830600D02*
X111661300Y-64929400D01*
X111661300Y-64929400D02*
X113464700Y-64929400D01*
X113464700Y-61830600D02*
X111661300Y-61830600D01*
X113464700Y-64929400D02*
X113464700Y-61830600D01*
D11*
%TO.C,C37*%
X93530348Y-91380200D02*
X94952852Y-91380200D01*
X93530348Y-94100200D02*
X94952852Y-94100200D01*
%TD*%
%LPC*%
%TO.C,J1*%
X80700000Y-67330000D02*
G75*
G03*
X80700000Y-67330000I-800000J0D01*
G01*
X85300000Y-67330000D02*
G75*
G03*
X85300000Y-67330000I-900000J0D01*
G01*
%TD*%
D20*
%TO.C,C43*%
X106814000Y-69487000D03*
X104914000Y-69487000D03*
%TD*%
D21*
%TO.C,C19*%
X116836000Y-103365000D03*
X115876000Y-103365000D03*
%TD*%
D22*
%TO.C,D1*%
X117380000Y-88392000D03*
X121380000Y-88392000D03*
%TD*%
D23*
%TO.C,U8*%
X79777500Y-79495000D03*
X79777500Y-80145000D03*
X79777500Y-80795000D03*
X79777500Y-81445000D03*
X79777500Y-82095000D03*
X79777500Y-82745000D03*
X79777500Y-83395000D03*
X79777500Y-84045000D03*
X85502500Y-84045000D03*
X85502500Y-83395000D03*
X85502500Y-82745000D03*
X85502500Y-82095000D03*
X85502500Y-81445000D03*
X85502500Y-80795000D03*
X85502500Y-80145000D03*
X85502500Y-79495000D03*
%TD*%
D24*
%TO.C,C7*%
X112268000Y-114175600D03*
X112268000Y-115135600D03*
%TD*%
D25*
%TO.C,FID2*%
X125272800Y-50292000D03*
%TD*%
%TO.C,FID4*%
X132257800Y-139065000D03*
%TD*%
D26*
%TO.C,R13*%
X90649600Y-63569000D03*
X90649600Y-64589000D03*
%TD*%
D25*
%TO.C,FID3*%
X78841600Y-139065000D03*
%TD*%
D27*
%TO.C,R6*%
X122717000Y-115554000D03*
X121697000Y-115554000D03*
%TD*%
D21*
%TO.C,C1*%
X115730000Y-127810000D03*
X114770000Y-127810000D03*
%TD*%
D28*
%TO.C,TP38*%
X87045800Y-112699800D03*
%TD*%
D29*
%TO.C,Q4*%
X111370000Y-70430000D03*
X111370000Y-69130000D03*
X109370000Y-69780000D03*
%TD*%
D20*
%TO.C,C41*%
X98355400Y-63005800D03*
X96455400Y-63005800D03*
%TD*%
D28*
%TO.C,TP19*%
X131156000Y-74610000D03*
%TD*%
D21*
%TO.C,C3*%
X114920000Y-107790000D03*
X113960000Y-107790000D03*
%TD*%
D30*
%TO.C,H6*%
X84764000Y-94984000D03*
%TD*%
D27*
%TO.C,R5*%
X127764000Y-98910000D03*
X126744000Y-98910000D03*
%TD*%
D31*
%TO.C,C38*%
X101783000Y-67211600D03*
X101783000Y-69111600D03*
%TD*%
D28*
%TO.C,TP35*%
X108340000Y-99470000D03*
%TD*%
%TO.C,TP5*%
X111440000Y-130160000D03*
%TD*%
D24*
%TO.C,C25*%
X105540000Y-129760000D03*
X105540000Y-130720000D03*
%TD*%
D32*
%TO.C,C45*%
X92522000Y-66420000D03*
X94422000Y-66420000D03*
%TD*%
D33*
%TO.C,Y1*%
X124017400Y-78349000D03*
X121172600Y-78349000D03*
%TD*%
D28*
%TO.C,TP16*%
X94107000Y-141452600D03*
%TD*%
%TO.C,TP15*%
X90855800Y-145948400D03*
%TD*%
D34*
%TO.C,U5*%
X92615500Y-128358000D03*
X92615500Y-129308000D03*
X92615500Y-130258000D03*
X94890500Y-130258000D03*
X94890500Y-128358000D03*
%TD*%
D32*
%TO.C,C51*%
X130440000Y-82740000D03*
X132340000Y-82740000D03*
%TD*%
D28*
%TO.C,TP8*%
X119800000Y-119990000D03*
%TD*%
%TO.C,TP23*%
X122556000Y-57528000D03*
%TD*%
D34*
%TO.C,U6*%
X101182500Y-129290000D03*
X101182500Y-130240000D03*
X101182500Y-131190000D03*
X103457500Y-131190000D03*
X103457500Y-129290000D03*
%TD*%
D30*
%TO.C,H5*%
X126130000Y-136350000D03*
%TD*%
D28*
%TO.C,TP1*%
X89763600Y-114223800D03*
%TD*%
D35*
%TO.C,C4*%
X108485000Y-122798000D03*
X108485000Y-121838000D03*
%TD*%
D28*
%TO.C,TP43*%
X87147400Y-115316000D03*
%TD*%
D36*
%TO.C,U7*%
X102371800Y-113877200D03*
X101721800Y-113877200D03*
X101071800Y-113877200D03*
X100421800Y-113877200D03*
X100421800Y-118177200D03*
X101071800Y-118177200D03*
X101721800Y-118177200D03*
X102371800Y-118177200D03*
%TD*%
D21*
%TO.C,C12*%
X99780000Y-104240000D03*
X98820000Y-104240000D03*
%TD*%
D37*
%TO.C,C52*%
X130790000Y-80550000D03*
X131750000Y-80550000D03*
%TD*%
D27*
%TO.C,R1*%
X127347000Y-101658000D03*
X126327000Y-101658000D03*
%TD*%
D38*
%TO.C,H7*%
X127985010Y-51120990D03*
X128644020Y-49530000D03*
X128644020Y-52711980D03*
X130235010Y-48870990D03*
D39*
X130235010Y-51120990D03*
D38*
X130235010Y-53370990D03*
X131826000Y-49530000D03*
X131826000Y-52711980D03*
X132485010Y-51120990D03*
%TD*%
D35*
%TO.C,C30*%
X124043000Y-76576000D03*
X124043000Y-75616000D03*
%TD*%
D25*
%TO.C,FID1*%
X78740000Y-55905400D03*
%TD*%
D40*
%TO.C,U2*%
X115672000Y-97580000D03*
D41*
X114737000Y-98265000D03*
X114737000Y-98765000D03*
X114737000Y-99265000D03*
X114737000Y-99765000D03*
X114737000Y-100265000D03*
D40*
X115672000Y-100950000D03*
X117172000Y-100950000D03*
D41*
X118107000Y-100265000D03*
X118107000Y-99765000D03*
X118107000Y-99265000D03*
X118107000Y-98765000D03*
X118107000Y-98265000D03*
D40*
X117172000Y-97580000D03*
D42*
X116422000Y-99265000D03*
%TD*%
D26*
%TO.C,R10*%
X94828800Y-63573600D03*
X94828800Y-64593600D03*
%TD*%
D28*
%TO.C,TP42*%
X87100000Y-106510000D03*
%TD*%
%TO.C,TP17*%
X131044000Y-65978000D03*
%TD*%
D43*
%TO.C,L1*%
X106000600Y-77761400D03*
X106000600Y-86081400D03*
%TD*%
D44*
%TO.C,R15*%
X93465000Y-64589000D03*
X93465000Y-63569000D03*
%TD*%
D21*
%TO.C,C15*%
X98490000Y-106040000D03*
X97530000Y-106040000D03*
%TD*%
D27*
%TO.C,R16*%
X94840000Y-102040000D03*
X93820000Y-102040000D03*
%TD*%
D38*
%TO.C,H9*%
X128052000Y-143728000D03*
X128711010Y-142137010D03*
X128711010Y-145318990D03*
X130302000Y-141478000D03*
D39*
X130302000Y-143728000D03*
D38*
X130302000Y-145978000D03*
X131892990Y-142137010D03*
X131892990Y-145318990D03*
X132552000Y-143728000D03*
%TD*%
D35*
%TO.C,C16*%
X102646000Y-122798000D03*
X102646000Y-121838000D03*
%TD*%
D21*
%TO.C,C49*%
X115080000Y-60930000D03*
X114120000Y-60930000D03*
%TD*%
%TO.C,C18*%
X96139000Y-109681000D03*
X95179000Y-109681000D03*
%TD*%
D28*
%TO.C,TP18*%
X129881000Y-61664000D03*
%TD*%
D20*
%TO.C,C40*%
X98333000Y-65268000D03*
X96433000Y-65268000D03*
%TD*%
D45*
%TO.C,U10*%
X90890000Y-98565000D03*
X90890000Y-99215000D03*
X90890000Y-99865000D03*
X90890000Y-100515000D03*
X95190000Y-100515000D03*
X95190000Y-99865000D03*
X95190000Y-99215000D03*
X95190000Y-98565000D03*
%TD*%
D28*
%TO.C,TP36*%
X116870000Y-105550000D03*
%TD*%
D37*
%TO.C,C39*%
X104650000Y-67450000D03*
X105610000Y-67450000D03*
%TD*%
D28*
%TO.C,TP44*%
X89687400Y-116840000D03*
%TD*%
D38*
%TO.C,H10*%
X78455010Y-143830990D03*
X79114020Y-142240000D03*
X79114020Y-145421980D03*
X80705010Y-141580990D03*
D39*
X80705010Y-143830990D03*
D38*
X80705010Y-146080990D03*
X82296000Y-142240000D03*
X82296000Y-145421980D03*
X82955010Y-143830990D03*
%TD*%
D35*
%TO.C,C31*%
X121159000Y-76585000D03*
X121159000Y-75625000D03*
%TD*%
D21*
%TO.C,C35*%
X82650000Y-87720000D03*
X81690000Y-87720000D03*
%TD*%
D24*
%TO.C,C10*%
X108712000Y-114201000D03*
X108712000Y-115161000D03*
%TD*%
%TO.C,C11*%
X111150400Y-114226400D03*
X111150400Y-115186400D03*
%TD*%
D26*
%TO.C,R14*%
X92057300Y-63569000D03*
X92057300Y-64589000D03*
%TD*%
D46*
%TO.C,R11*%
X104604000Y-66292000D03*
X105624000Y-66292000D03*
%TD*%
D21*
%TO.C,C14*%
X99092000Y-121788000D03*
X98132000Y-121788000D03*
%TD*%
D47*
%TO.C,C13*%
X105600000Y-111360000D03*
X105600000Y-117760000D03*
%TD*%
D48*
%TO.C,Q2*%
X95751600Y-82862700D03*
X97049900Y-82862700D03*
X98313300Y-82862700D03*
X99611600Y-82862700D03*
D49*
X99961600Y-81957700D03*
%TD*%
D35*
%TO.C,C33*%
X102133400Y-111046200D03*
X102133400Y-110086200D03*
%TD*%
D46*
%TO.C,R2*%
X95640000Y-138480000D03*
X96660000Y-138480000D03*
%TD*%
D28*
%TO.C,TP3*%
X114410000Y-140150000D03*
%TD*%
%TO.C,TP41*%
X89500000Y-108130000D03*
%TD*%
D37*
%TO.C,C44*%
X95450000Y-97140000D03*
X96410000Y-97140000D03*
%TD*%
D50*
%TO.C,U9*%
X99201691Y-68022200D03*
X98701691Y-68022200D03*
X98201691Y-68022200D03*
X97701691Y-68022200D03*
X97201691Y-68022200D03*
X97201691Y-70822200D03*
X97701691Y-70822200D03*
X98201691Y-70822200D03*
X98701691Y-70822200D03*
X99201691Y-70822200D03*
D51*
X98201691Y-68847200D03*
X99151691Y-69422200D03*
D52*
X98201691Y-69422200D03*
D51*
X97251691Y-69422200D03*
X98201691Y-69997200D03*
%TD*%
D28*
%TO.C,TP34*%
X108370000Y-102200000D03*
%TD*%
%TO.C,TP46*%
X87071200Y-120827800D03*
%TD*%
D38*
%TO.C,H8*%
X78558000Y-51054000D03*
X79217010Y-49463010D03*
X79217010Y-52644990D03*
X80808000Y-48804000D03*
D39*
X80808000Y-51054000D03*
D38*
X80808000Y-53304000D03*
X82398990Y-49463010D03*
X82398990Y-52644990D03*
X83058000Y-51054000D03*
%TD*%
D37*
%TO.C,C22*%
X93253000Y-131818000D03*
X94213000Y-131818000D03*
%TD*%
D28*
%TO.C,TP10*%
X119800000Y-123540000D03*
%TD*%
D21*
%TO.C,C21*%
X124370000Y-101660000D03*
X123410000Y-101660000D03*
%TD*%
%TO.C,C6*%
X113620000Y-106030000D03*
X112660000Y-106030000D03*
%TD*%
D53*
%TO.C,C46*%
X103851600Y-89640200D03*
X100851600Y-89640200D03*
%TD*%
D48*
%TO.C,Q1*%
X93649887Y-77313864D03*
X92351587Y-77313864D03*
X91088187Y-77313864D03*
X89789887Y-77313864D03*
D54*
X89439887Y-78218864D03*
%TD*%
D37*
%TO.C,C42*%
X96189800Y-73128000D03*
X97149800Y-73128000D03*
%TD*%
D28*
%TO.C,TP7*%
X115560000Y-121710000D03*
%TD*%
D55*
%TO.C,C34*%
X92806600Y-85970200D03*
X95756600Y-85970200D03*
%TD*%
D28*
%TO.C,TP40*%
X87180000Y-109740000D03*
%TD*%
%TO.C,TP4*%
X117040000Y-140190000D03*
%TD*%
D56*
%TO.C,U1*%
X116140000Y-126170000D03*
X116140000Y-123870000D03*
X114240000Y-123870000D03*
X114240000Y-126170000D03*
%TD*%
D28*
%TO.C,TP13*%
X98473000Y-127736000D03*
%TD*%
D46*
%TO.C,R12*%
X98650200Y-73123400D03*
X99670200Y-73123400D03*
%TD*%
D27*
%TO.C,R4*%
X110465000Y-71760000D03*
X109445000Y-71760000D03*
%TD*%
D21*
%TO.C,C2*%
X116020000Y-109624000D03*
X115060000Y-109624000D03*
%TD*%
D37*
%TO.C,C23*%
X101730000Y-132610000D03*
X102690000Y-132610000D03*
%TD*%
D28*
%TO.C,TP6*%
X89560400Y-119507000D03*
%TD*%
D35*
%TO.C,C5*%
X112160000Y-121800000D03*
X112160000Y-120840000D03*
%TD*%
D28*
%TO.C,TP9*%
X122500000Y-113430000D03*
%TD*%
D44*
%TO.C,R9*%
X101092000Y-112066800D03*
X101092000Y-111046800D03*
%TD*%
D21*
%TO.C,C17*%
X97210000Y-107780000D03*
X96250000Y-107780000D03*
%TD*%
%TO.C,C8*%
X112290000Y-104240000D03*
X111330000Y-104240000D03*
%TD*%
D37*
%TO.C,C29*%
X95640000Y-137410000D03*
X96600000Y-137410000D03*
%TD*%
D28*
%TO.C,TP14*%
X107830000Y-129200000D03*
%TD*%
%TO.C,TP45*%
X87122000Y-117983000D03*
%TD*%
D27*
%TO.C,R3*%
X127382000Y-86047000D03*
X126362000Y-86047000D03*
%TD*%
D37*
%TO.C,C27*%
X111051000Y-65931000D03*
X112011000Y-65931000D03*
%TD*%
D28*
%TO.C,TP22*%
X126093000Y-61620000D03*
%TD*%
%TO.C,TP2*%
X111890000Y-140150000D03*
%TD*%
D21*
%TO.C,C20*%
X114582000Y-96355000D03*
X113622000Y-96355000D03*
%TD*%
D57*
%TO.C,C47*%
X103786600Y-92610200D03*
X100836600Y-92610200D03*
%TD*%
D24*
%TO.C,C24*%
X96763000Y-128638000D03*
X96763000Y-129598000D03*
%TD*%
D55*
%TO.C,C36*%
X92766600Y-89380200D03*
X95716600Y-89380200D03*
%TD*%
D24*
%TO.C,C9*%
X109982000Y-114230000D03*
X109982000Y-115190000D03*
%TD*%
D58*
%TO.C,U11*%
X111185050Y-62440200D03*
X111185050Y-63380000D03*
X111185050Y-64319800D03*
X113940950Y-64319800D03*
X113940950Y-62440200D03*
%TD*%
D55*
%TO.C,C37*%
X92766600Y-92740200D03*
X95716600Y-92740200D03*
%TD*%
D59*
%TO.C,J4*%
X94701000Y-145782001D03*
D60*
X89621000Y-143622000D03*
X92161000Y-143622000D03*
X94701000Y-143622000D03*
X97241000Y-143622000D03*
%TD*%
D61*
%TO.C,J7*%
X83000000Y-76540000D03*
D62*
X85540000Y-76540000D03*
%TD*%
D61*
%TO.C,J3*%
X109350000Y-143580000D03*
D62*
X111890000Y-143580000D03*
X114430000Y-143580000D03*
X116970000Y-143580000D03*
X119510000Y-143580000D03*
%TD*%
D63*
%TO.C,J8*%
X126943000Y-96776000D03*
D64*
X131123000Y-96776000D03*
D63*
X126943000Y-88136000D03*
D64*
X131123000Y-88136000D03*
D65*
X127443000Y-95346000D03*
X127443000Y-89566000D03*
%TD*%
D66*
%TO.C,J5*%
X130670000Y-57730000D03*
X125590000Y-58746000D03*
X125590000Y-56714000D03*
%TD*%
D67*
%TO.C,J1*%
X79900000Y-67330000D03*
D68*
X84400000Y-67330000D03*
%TD*%
D69*
%TO.C,J2*%
X80470000Y-130360000D03*
D70*
X80470000Y-132860000D03*
%TD*%
%LPD*%
M02*
