%TF.GenerationSoftware,KiCad,Pcbnew,(6.0.8-1)-1*%
%TF.CreationDate,2022-10-04T16:18:18-04:00*%
%TF.ProjectId,bitaxePro,62697461-7865-4507-926f-2e6b69636164,rev?*%
%TF.SameCoordinates,Original*%
%TF.FileFunction,Copper,L1,Top*%
%TF.FilePolarity,Positive*%
%FSLAX46Y46*%
G04 Gerber Fmt 4.6, Leading zero omitted, Abs format (unit mm)*
G04 Created by KiCad (PCBNEW (6.0.8-1)-1) date 2022-10-04 16:18:18*
%MOMM*%
%LPD*%
G01*
G04 APERTURE LIST*
G04 Aperture macros list*
%AMRoundRect*
0 Rectangle with rounded corners*
0 $1 Rounding radius*
0 $2 $3 $4 $5 $6 $7 $8 $9 X,Y pos of 4 corners*
0 Add a 4 corners polygon primitive as box body*
4,1,4,$2,$3,$4,$5,$6,$7,$8,$9,$2,$3,0*
0 Add four circle primitives for the rounded corners*
1,1,$1+$1,$2,$3*
1,1,$1+$1,$4,$5*
1,1,$1+$1,$6,$7*
1,1,$1+$1,$8,$9*
0 Add four rect primitives between the rounded corners*
20,1,$1+$1,$2,$3,$4,$5,0*
20,1,$1+$1,$4,$5,$6,$7,0*
20,1,$1+$1,$6,$7,$8,$9,0*
20,1,$1+$1,$8,$9,$2,$3,0*%
%AMFreePoly0*
4,1,22,0.500000,-0.750000,0.000000,-0.750000,0.000000,-0.745033,-0.079941,-0.743568,-0.215256,-0.701293,-0.333266,-0.622738,-0.424486,-0.514219,-0.481581,-0.384460,-0.499164,-0.250000,-0.500000,-0.250000,-0.500000,0.250000,-0.499164,0.250000,-0.499963,0.256109,-0.478152,0.396186,-0.417904,0.524511,-0.324060,0.630769,-0.204165,0.706417,-0.067858,0.745374,0.000000,0.744959,0.000000,0.750000,
0.500000,0.750000,0.500000,-0.750000,0.500000,-0.750000,$1*%
%AMFreePoly1*
4,1,20,0.000000,0.744959,0.073905,0.744508,0.209726,0.703889,0.328688,0.626782,0.421226,0.519385,0.479903,0.390333,0.500000,0.250000,0.500000,-0.250000,0.499851,-0.262216,0.476331,-0.402017,0.414519,-0.529596,0.319384,-0.634700,0.198574,-0.708877,0.061801,-0.746166,0.000000,-0.745033,0.000000,-0.750000,-0.500000,-0.750000,-0.500000,0.750000,0.000000,0.750000,0.000000,0.744959,
0.000000,0.744959,$1*%
G04 Aperture macros list end*
%TA.AperFunction,SMDPad,CuDef*%
%ADD10R,0.650000X0.400000*%
%TD*%
%TA.AperFunction,SMDPad,CuDef*%
%ADD11R,0.900000X0.700000*%
%TD*%
%TA.AperFunction,SMDPad,CuDef*%
%ADD12C,1.500000*%
%TD*%
%TA.AperFunction,SMDPad,CuDef*%
%ADD13RoundRect,0.135000X-0.135000X-0.185000X0.135000X-0.185000X0.135000X0.185000X-0.135000X0.185000X0*%
%TD*%
%TA.AperFunction,SMDPad,CuDef*%
%ADD14R,0.700000X0.900000*%
%TD*%
%TA.AperFunction,SMDPad,CuDef*%
%ADD15FreePoly0,180.000000*%
%TD*%
%TA.AperFunction,SMDPad,CuDef*%
%ADD16FreePoly1,180.000000*%
%TD*%
%TA.AperFunction,SMDPad,CuDef*%
%ADD17RoundRect,0.150000X-0.512500X-0.150000X0.512500X-0.150000X0.512500X0.150000X-0.512500X0.150000X0*%
%TD*%
%TA.AperFunction,SMDPad,CuDef*%
%ADD18R,0.850000X0.300000*%
%TD*%
%TA.AperFunction,SMDPad,CuDef*%
%ADD19RoundRect,0.250000X-1.025000X0.875000X-1.025000X-0.875000X1.025000X-0.875000X1.025000X0.875000X0*%
%TD*%
%TA.AperFunction,SMDPad,CuDef*%
%ADD20R,1.100000X1.300000*%
%TD*%
%TA.AperFunction,SMDPad,CuDef*%
%ADD21RoundRect,0.135000X0.135000X0.185000X-0.135000X0.185000X-0.135000X-0.185000X0.135000X-0.185000X0*%
%TD*%
%TA.AperFunction,ComponentPad*%
%ADD22R,1.530000X1.530000*%
%TD*%
%TA.AperFunction,ComponentPad*%
%ADD23C,1.530000*%
%TD*%
%TA.AperFunction,ComponentPad*%
%ADD24R,1.700000X1.700000*%
%TD*%
%TA.AperFunction,ComponentPad*%
%ADD25O,1.700000X1.700000*%
%TD*%
%TA.AperFunction,ComponentPad*%
%ADD26C,2.520000*%
%TD*%
%TA.AperFunction,ComponentPad*%
%ADD27RoundRect,0.250000X-0.620000X-0.845000X0.620000X-0.845000X0.620000X0.845000X-0.620000X0.845000X0*%
%TD*%
%TA.AperFunction,ComponentPad*%
%ADD28O,1.740000X2.190000*%
%TD*%
%TA.AperFunction,ViaPad*%
%ADD29C,0.800000*%
%TD*%
%TA.AperFunction,Conductor*%
%ADD30C,0.508000*%
%TD*%
%TA.AperFunction,Conductor*%
%ADD31C,0.254000*%
%TD*%
%TA.AperFunction,Conductor*%
%ADD32C,0.200000*%
%TD*%
G04 APERTURE END LIST*
%TO.C,JP3*%
G36*
X106210000Y-74770000D02*
G01*
X105710000Y-74770000D01*
X105710000Y-74370000D01*
X106210000Y-74370000D01*
X106210000Y-74770000D01*
G37*
G36*
X106210000Y-75570000D02*
G01*
X105710000Y-75570000D01*
X105710000Y-75170000D01*
X106210000Y-75170000D01*
X106210000Y-75570000D01*
G37*
%TD*%
D10*
%TO.P,U3,1,VCCA*%
%TO.N,/VCCIO*%
X124370000Y-82280000D03*
%TO.P,U3,2,GND*%
%TO.N,GND*%
X124370000Y-82930000D03*
%TO.P,U3,3,A*%
%TO.N,/TX*%
X124370000Y-83580000D03*
%TO.P,U3,4,B*%
%TO.N,/CI*%
X126270000Y-83580000D03*
%TO.P,U3,5,DIR*%
%TO.N,/VCCIO*%
X126270000Y-82930000D03*
%TO.P,U3,6,VCCB*%
%TO.N,/1V8*%
X126270000Y-82280000D03*
%TD*%
%TO.P,U1,1,VCCA*%
%TO.N,/VCCIO*%
X124390000Y-76390000D03*
%TO.P,U1,2,GND*%
%TO.N,GND*%
X124390000Y-77040000D03*
%TO.P,U1,3,A*%
%TO.N,/RX*%
X124390000Y-77690000D03*
%TO.P,U1,4,B*%
%TO.N,/RO*%
X126290000Y-77690000D03*
%TO.P,U1,5,DIR*%
%TO.N,GND*%
X126290000Y-77040000D03*
%TO.P,U1,6,VCCB*%
%TO.N,/1V8*%
X126290000Y-76390000D03*
%TD*%
%TO.P,U4,1,VCCA*%
%TO.N,/VCCIO*%
X124350000Y-70680000D03*
%TO.P,U4,2,GND*%
%TO.N,GND*%
X124350000Y-71330000D03*
%TO.P,U4,3,A*%
%TO.N,/RST*%
X124350000Y-71980000D03*
%TO.P,U4,4,B*%
%TO.N,/RST_N*%
X126250000Y-71980000D03*
%TO.P,U4,5,DIR*%
%TO.N,/VCCIO*%
X126250000Y-71330000D03*
%TO.P,U4,6,VCCB*%
%TO.N,/1V8*%
X126250000Y-70680000D03*
%TD*%
D11*
%TO.P,C23,1,1*%
%TO.N,/VCCIO*%
X121720000Y-76240000D03*
%TO.P,C23,2,2*%
%TO.N,GND*%
X121720000Y-77540000D03*
%TD*%
%TO.P,C7,1,1*%
%TO.N,/VDD*%
X83420000Y-74920000D03*
%TO.P,C7,2,2*%
%TO.N,GND*%
X83420000Y-76220000D03*
%TD*%
D12*
%TO.P,TP1,1,1*%
%TO.N,Net-(TP1-Pad1)*%
X103520000Y-89570000D03*
%TD*%
D13*
%TO.P,R8,1,1*%
%TO.N,Net-(C32-Pad2)*%
X77000000Y-77610000D03*
%TO.P,R8,2,2*%
%TO.N,/TEMP_N*%
X78020000Y-77610000D03*
%TD*%
D14*
%TO.P,R10,1*%
%TO.N,/SCL*%
X111160000Y-59300000D03*
%TO.P,R10,2*%
%TO.N,/VCCIO*%
X112460000Y-59300000D03*
%TD*%
%TO.P,C1,1,1*%
%TO.N,GND*%
X99500000Y-88750000D03*
%TO.P,C1,2,2*%
%TO.N,/1V8*%
X98200000Y-88750000D03*
%TD*%
D15*
%TO.P,JP2,1,A*%
%TO.N,GND*%
X106610000Y-72580000D03*
D16*
%TO.P,JP2,2,B*%
%TO.N,Net-(IC1-Pad5)*%
X105310000Y-72580000D03*
%TD*%
D14*
%TO.P,R5,1*%
%TO.N,GND*%
X102740000Y-77460000D03*
%TO.P,R5,2*%
%TO.N,/RST_N*%
X101440000Y-77460000D03*
%TD*%
%TO.P,C3,1,1*%
%TO.N,Net-(C2-Pad2)*%
X98690000Y-68730000D03*
%TO.P,C3,2,2*%
%TO.N,Net-(C3-Pad2)*%
X97390000Y-68730000D03*
%TD*%
D12*
%TO.P,TP16,1,1*%
%TO.N,/TX*%
X118840000Y-86270000D03*
%TD*%
%TO.P,TP15,1,1*%
%TO.N,GND*%
X95040000Y-91100000D03*
%TD*%
D11*
%TO.P,C22,1,1*%
%TO.N,/0V8*%
X89140000Y-90530000D03*
%TO.P,C22,2,2*%
%TO.N,GND*%
X89140000Y-91830000D03*
%TD*%
D17*
%TO.P,U5,1,VIN*%
%TO.N,/5V*%
X73082500Y-89330000D03*
%TO.P,U5,2,GND*%
%TO.N,GND*%
X73082500Y-90280000D03*
%TO.P,U5,3,EN*%
%TO.N,/5V*%
X73082500Y-91230000D03*
%TO.P,U5,4,PG*%
%TO.N,unconnected-(U5-Pad4)*%
X75357500Y-91230000D03*
%TO.P,U5,5,VOUT*%
%TO.N,/1V8*%
X75357500Y-89330000D03*
%TD*%
D11*
%TO.P,R6,1*%
%TO.N,Net-(IC1-Pad27)*%
X81100000Y-81630000D03*
%TO.P,R6,2*%
%TO.N,/1V8*%
X81100000Y-82930000D03*
%TD*%
D17*
%TO.P,U6,1,VIN*%
%TO.N,/5V*%
X84782500Y-90230000D03*
%TO.P,U6,2,GND*%
%TO.N,GND*%
X84782500Y-91180000D03*
%TO.P,U6,3,EN*%
%TO.N,/5V*%
X84782500Y-92130000D03*
%TO.P,U6,4,PG*%
%TO.N,unconnected-(U6-Pad4)*%
X87057500Y-92130000D03*
%TO.P,U6,5,VOUT*%
%TO.N,/0V8*%
X87057500Y-90230000D03*
%TD*%
D18*
%TO.P,U8,1,VDD*%
%TO.N,/VCCIO*%
X75060000Y-79620000D03*
%TO.P,U8,2,D+*%
%TO.N,Net-(C32-Pad1)*%
X75060000Y-79120000D03*
%TO.P,U8,3,D-*%
%TO.N,Net-(C32-Pad2)*%
X75060000Y-78620000D03*
%TO.P,U8,4,THERM*%
%TO.N,unconnected-(U8-Pad4)*%
X75060000Y-78120000D03*
%TO.P,U8,5,GND*%
%TO.N,GND*%
X73160000Y-78120000D03*
%TO.P,U8,6,ALERT*%
%TO.N,/TEMP_ALRT*%
X73160000Y-78620000D03*
%TO.P,U8,7,SDA*%
%TO.N,/SDA*%
X73160000Y-79120000D03*
%TO.P,U8,8,SCL*%
%TO.N,/SCL*%
X73160000Y-79620000D03*
%TD*%
D11*
%TO.P,C4,1,1*%
%TO.N,/0V8*%
X94260000Y-82910000D03*
%TO.P,C4,2,2*%
%TO.N,GND*%
X94260000Y-81610000D03*
%TD*%
D12*
%TO.P,TP22,1,1*%
%TO.N,/SDA*%
X125960000Y-94340000D03*
%TD*%
D14*
%TO.P,C12,1,1*%
%TO.N,/VDD*%
X83550000Y-65180000D03*
%TO.P,C12,2,2*%
%TO.N,Net-(C12-Pad2)*%
X82250000Y-65180000D03*
%TD*%
%TO.P,C31,1,1*%
%TO.N,/1V8*%
X128660000Y-70410000D03*
%TO.P,C31,2,2*%
%TO.N,GND*%
X129960000Y-70410000D03*
%TD*%
D15*
%TO.P,JP3,1,A*%
%TO.N,GND*%
X106610000Y-74970000D03*
D16*
%TO.P,JP3,2,B*%
%TO.N,Net-(IC1-Pad6)*%
X105310000Y-74970000D03*
%TD*%
D14*
%TO.P,C26,1,1*%
%TO.N,/1V8*%
X128810000Y-77780000D03*
%TO.P,C26,2,2*%
%TO.N,GND*%
X130110000Y-77780000D03*
%TD*%
%TO.P,C15,1,1*%
%TO.N,Net-(C12-Pad2)*%
X82260000Y-66980000D03*
%TO.P,C15,2,2*%
%TO.N,Net-(C15-Pad2)*%
X80960000Y-66980000D03*
%TD*%
%TO.P,R7,1*%
%TO.N,/FAN_TACH*%
X136520000Y-75550000D03*
%TO.P,R7,2*%
%TO.N,/VCCIO*%
X135220000Y-75550000D03*
%TD*%
%TO.P,C32,1,1*%
%TO.N,Net-(C32-Pad1)*%
X78670000Y-78950000D03*
%TO.P,C32,2,2*%
%TO.N,Net-(C32-Pad2)*%
X77370000Y-78950000D03*
%TD*%
D11*
%TO.P,C16,1,1*%
%TO.N,/0V8*%
X84310000Y-82910000D03*
%TO.P,C16,2,2*%
%TO.N,GND*%
X84310000Y-81610000D03*
%TD*%
D14*
%TO.P,R3,1*%
%TO.N,/RO*%
X99440000Y-79780000D03*
%TO.P,R3,2*%
%TO.N,Net-(IC1-Pad10)*%
X98140000Y-79780000D03*
%TD*%
D12*
%TO.P,TP23,1,1*%
%TO.N,/TEMP_ALRT*%
X135900000Y-89360000D03*
%TD*%
%TO.P,TP8,1,1*%
%TO.N,/TEMP_N*%
X72950000Y-76240000D03*
%TD*%
D14*
%TO.P,C18,1,1*%
%TO.N,Net-(C17-Pad2)*%
X79680000Y-70620000D03*
%TO.P,C18,2,2*%
%TO.N,GND*%
X80980000Y-70620000D03*
%TD*%
D12*
%TO.P,TP18,1,1*%
%TO.N,/RST*%
X118800000Y-74290000D03*
%TD*%
D11*
%TO.P,C25,1,1*%
%TO.N,/VCCIO*%
X121730000Y-70290000D03*
%TO.P,C25,2,2*%
%TO.N,GND*%
X121730000Y-71590000D03*
%TD*%
D12*
%TO.P,TP5,1,1*%
%TO.N,Net-(IC1-Pad26)*%
X69910000Y-74970000D03*
%TD*%
%TO.P,TP3,1,1*%
%TO.N,Net-(IC1-Pad29)*%
X72800000Y-68390000D03*
%TD*%
D11*
%TO.P,C10,1,1*%
%TO.N,/VDD*%
X93880000Y-74940000D03*
%TO.P,C10,2,2*%
%TO.N,GND*%
X93880000Y-76240000D03*
%TD*%
%TO.P,C11,1,1*%
%TO.N,/VDD*%
X84970000Y-74910000D03*
%TO.P,C11,2,2*%
%TO.N,GND*%
X84970000Y-76210000D03*
%TD*%
%TO.P,C14,1,1*%
%TO.N,/1V8*%
X82790000Y-82910000D03*
%TO.P,C14,2,2*%
%TO.N,GND*%
X82790000Y-81610000D03*
%TD*%
D19*
%TO.P,C13,1*%
%TO.N,/VDD*%
X89200000Y-72300000D03*
%TO.P,C13,2*%
%TO.N,GND*%
X89200000Y-78700000D03*
%TD*%
D12*
%TO.P,TP7,1,1*%
%TO.N,/TEMP_P*%
X71370000Y-84050000D03*
%TD*%
%TO.P,TP2,1,1*%
%TO.N,Net-(R2-Pad1)*%
X103060000Y-82650000D03*
%TD*%
D14*
%TO.P,C33,1,1*%
%TO.N,/VCCIO*%
X74800000Y-80960000D03*
%TO.P,C33,2,2*%
%TO.N,GND*%
X73500000Y-80960000D03*
%TD*%
D12*
%TO.P,TP13,1,1*%
%TO.N,/RO*%
X98010000Y-101090000D03*
%TD*%
%TO.P,TP17,1,1*%
%TO.N,/RX*%
X118840000Y-80240000D03*
%TD*%
D14*
%TO.P,C29,1,1*%
%TO.N,/1V8*%
X128810000Y-76050000D03*
%TO.P,C29,2,2*%
%TO.N,GND*%
X130110000Y-76050000D03*
%TD*%
%TO.P,C19,1,1*%
%TO.N,/5V*%
X73550000Y-92790000D03*
%TO.P,C19,2,2*%
%TO.N,GND*%
X74850000Y-92790000D03*
%TD*%
%TO.P,C6,1,1*%
%TO.N,Net-(C3-Pad2)*%
X97390000Y-66970000D03*
%TO.P,C6,2,2*%
%TO.N,Net-(C6-Pad2)*%
X96090000Y-66970000D03*
%TD*%
D12*
%TO.P,TP9,1,1*%
%TO.N,Net-(IC1-Pad20)*%
X74580000Y-85740000D03*
%TD*%
%TO.P,TP4,1,1*%
%TO.N,Net-(IC1-Pad28)*%
X72780000Y-71560000D03*
%TD*%
%TO.P,TP14,1,1*%
%TO.N,/RST_N*%
X100640000Y-101130000D03*
%TD*%
%TO.P,TP21,1,1*%
%TO.N,/SCL*%
X125940000Y-91190000D03*
%TD*%
D20*
%TO.P,U2,1,EN*%
%TO.N,Net-(TP1-Pad1)*%
X99740000Y-87110000D03*
%TO.P,U2,2,GND*%
%TO.N,GND*%
X99740000Y-84810000D03*
%TO.P,U2,3,OUT*%
%TO.N,Net-(R2-Pad1)*%
X97840000Y-84810000D03*
%TO.P,U2,4,VIN*%
%TO.N,/1V8*%
X97840000Y-87110000D03*
%TD*%
D12*
%TO.P,TP10,1,1*%
%TO.N,/1V8*%
X81270000Y-88790000D03*
%TD*%
D14*
%TO.P,R11,1*%
%TO.N,/SDA*%
X111160000Y-61950000D03*
%TO.P,R11,2*%
%TO.N,/VCCIO*%
X112460000Y-61950000D03*
%TD*%
%TO.P,R1,1*%
%TO.N,GND*%
X96630000Y-78340000D03*
%TO.P,R1,2*%
%TO.N,Net-(IC1-Pad8)*%
X97930000Y-78340000D03*
%TD*%
%TO.P,C2,1,1*%
%TO.N,GND*%
X97390000Y-70590000D03*
%TO.P,C2,2,2*%
%TO.N,Net-(C2-Pad2)*%
X98690000Y-70590000D03*
%TD*%
%TO.P,C20,1,1*%
%TO.N,/5V*%
X85160000Y-93550000D03*
%TO.P,C20,2,2*%
%TO.N,GND*%
X86460000Y-93550000D03*
%TD*%
D12*
%TO.P,TP19,1,1*%
%TO.N,Net-(TP19-Pad1)*%
X136210000Y-67160000D03*
%TD*%
D14*
%TO.P,C27,1,1*%
%TO.N,/1V8*%
X128810000Y-82160000D03*
%TO.P,C27,2,2*%
%TO.N,GND*%
X130110000Y-82160000D03*
%TD*%
D11*
%TO.P,C5,1,1*%
%TO.N,/1V8*%
X95760000Y-82910000D03*
%TO.P,C5,2,2*%
%TO.N,GND*%
X95760000Y-81610000D03*
%TD*%
D12*
%TO.P,TP6,1,1*%
%TO.N,Net-(IC1-Pad25)*%
X69950000Y-71690000D03*
%TD*%
D14*
%TO.P,R2,1*%
%TO.N,Net-(R2-Pad1)*%
X99450000Y-82600000D03*
%TO.P,R2,2*%
%TO.N,Net-(IC1-Pad12)*%
X98150000Y-82600000D03*
%TD*%
%TO.P,C17,1,1*%
%TO.N,Net-(C15-Pad2)*%
X80980000Y-68720000D03*
%TO.P,C17,2,2*%
%TO.N,Net-(C17-Pad2)*%
X79680000Y-68720000D03*
%TD*%
D15*
%TO.P,JP1,1,A*%
%TO.N,GND*%
X106610000Y-70190000D03*
D16*
%TO.P,JP1,2,B*%
%TO.N,Net-(IC1-Pad4)*%
X105310000Y-70190000D03*
%TD*%
D14*
%TO.P,C30,1,1*%
%TO.N,/1V8*%
X128830000Y-84040000D03*
%TO.P,C30,2,2*%
%TO.N,GND*%
X130130000Y-84040000D03*
%TD*%
%TO.P,C8,1,1*%
%TO.N,Net-(C6-Pad2)*%
X96060000Y-65180000D03*
%TO.P,C8,2,2*%
%TO.N,/VDD*%
X94760000Y-65180000D03*
%TD*%
D12*
%TO.P,TP11,1,1*%
%TO.N,/0V8*%
X91430000Y-90140000D03*
%TD*%
%TO.P,TP12,1,1*%
%TO.N,/CI*%
X95490000Y-101090000D03*
%TD*%
D14*
%TO.P,C28,1,1*%
%TO.N,/1V8*%
X128620000Y-72060000D03*
%TO.P,C28,2,2*%
%TO.N,GND*%
X129920000Y-72060000D03*
%TD*%
D11*
%TO.P,C24,1,1*%
%TO.N,/VCCIO*%
X121690000Y-82230000D03*
%TO.P,C24,2,2*%
%TO.N,GND*%
X121690000Y-83530000D03*
%TD*%
%TO.P,C21,1,1*%
%TO.N,/1V8*%
X77230000Y-89440000D03*
%TO.P,C21,2,2*%
%TO.N,GND*%
X77230000Y-90740000D03*
%TD*%
D14*
%TO.P,R4,1*%
%TO.N,/CI*%
X99440000Y-81140000D03*
%TO.P,R4,2*%
%TO.N,Net-(IC1-Pad11)*%
X98140000Y-81140000D03*
%TD*%
D12*
%TO.P,TP20,1,1*%
%TO.N,/FAN_TACH*%
X136200000Y-72220000D03*
%TD*%
D11*
%TO.P,C9,1,1*%
%TO.N,/VDD*%
X95470000Y-75000000D03*
%TO.P,C9,2,2*%
%TO.N,GND*%
X95470000Y-76300000D03*
%TD*%
D21*
%TO.P,R9,1,1*%
%TO.N,/TEMP_P*%
X79100000Y-80610000D03*
%TO.P,R9,2,2*%
%TO.N,Net-(C32-Pad1)*%
X78080000Y-80610000D03*
%TD*%
D22*
%TO.P,U7,1,GND*%
%TO.N,GND*%
X139146500Y-59517800D03*
D23*
%TO.P,U7,2,3V3*%
%TO.N,/VCCIO*%
X139146500Y-62057800D03*
%TO.P,U7,3,3V3*%
X139146500Y-64597800D03*
%TO.P,U7,4,RST*%
%TO.N,Net-(TP19-Pad1)*%
X139146500Y-67137800D03*
%TO.P,U7,5,GND*%
%TO.N,GND*%
X139146500Y-69677800D03*
%TO.P,U7,6,GPIO4*%
%TO.N,/FAN_TACH*%
X139146500Y-72217800D03*
%TO.P,U7,7,GPIO5*%
%TO.N,unconnected-(U7-Pad7)*%
X139146500Y-74757800D03*
%TO.P,U7,8,GPIO6*%
%TO.N,unconnected-(U7-Pad8)*%
X139146500Y-77297800D03*
%TO.P,U7,9,GPIO7*%
%TO.N,unconnected-(U7-Pad9)*%
X139146500Y-79837800D03*
%TO.P,U7,10,GND*%
%TO.N,GND*%
X139146500Y-82377800D03*
%TO.P,U7,11,GPIO8*%
%TO.N,unconnected-(U7-Pad11)*%
X139146500Y-84917800D03*
%TO.P,U7,12,GPIO9*%
%TO.N,/TEMP_ALRT*%
X139146500Y-87457800D03*
%TO.P,U7,13,5V*%
%TO.N,/5V*%
X139146500Y-89997800D03*
%TO.P,U7,14,5V*%
X139146500Y-92537800D03*
%TO.P,U7,15,GND*%
%TO.N,GND*%
X139146500Y-95077800D03*
%TO.P,U7,16,GND*%
X116286500Y-95077800D03*
%TO.P,U7,17,GND*%
X116286500Y-92537800D03*
%TO.P,U7,18,GPIO19*%
%TO.N,/SDA*%
X116286500Y-89997800D03*
%TO.P,U7,19,GPIO18*%
%TO.N,/SCL*%
X116286500Y-87457800D03*
%TO.P,U7,20,GND*%
%TO.N,GND*%
X116286500Y-84917800D03*
%TO.P,U7,21,GPIO21/U0TXD*%
%TO.N,unconnected-(U7-Pad21)*%
X116286500Y-82377800D03*
%TO.P,U7,22,GPIO20/U0RXD*%
%TO.N,unconnected-(U7-Pad22)*%
X116286500Y-79837800D03*
%TO.P,U7,23,GND*%
%TO.N,GND*%
X116286500Y-77297800D03*
%TO.P,U7,24,GPIO10*%
%TO.N,/RST*%
X116286500Y-74757800D03*
%TO.P,U7,25,GND*%
%TO.N,GND*%
X116286500Y-72217800D03*
%TO.P,U7,26,GPIO3*%
%TO.N,/TX*%
X116286500Y-69677800D03*
%TO.P,U7,27,GPIO2*%
%TO.N,/RX*%
X116286500Y-67137800D03*
%TO.P,U7,28,GPIO1/XTAL_32K_N*%
%TO.N,unconnected-(U7-Pad28)*%
X116286500Y-64597800D03*
%TO.P,U7,29,GPIO0/XTAL_32K_P*%
%TO.N,unconnected-(U7-Pad29)*%
X116286500Y-62057800D03*
%TO.P,U7,30,GND*%
%TO.N,GND*%
X116286500Y-59517800D03*
%TD*%
D24*
%TO.P,J3,1,Pin_1*%
%TO.N,/VCCIO*%
X92950000Y-104520000D03*
D25*
%TO.P,J3,2,Pin_2*%
%TO.N,/CI*%
X95490000Y-104520000D03*
%TO.P,J3,3,Pin_3*%
%TO.N,/RO*%
X98030000Y-104520000D03*
%TO.P,J3,4,Pin_4*%
%TO.N,/RST_N*%
X100570000Y-104520000D03*
%TO.P,J3,5,Pin_5*%
%TO.N,GND*%
X103110000Y-104520000D03*
%TD*%
D24*
%TO.P,J4,1,Pin_1*%
%TO.N,GND*%
X123395000Y-104440000D03*
D25*
%TO.P,J4,2,Pin_2*%
%TO.N,/5V*%
X120855000Y-104440000D03*
%TD*%
D26*
%TO.P,J1,1,Pin_1*%
%TO.N,/VDD*%
X89290000Y-48640000D03*
X89290000Y-53720000D03*
%TD*%
%TO.P,J2,1,Pin_1*%
%TO.N,GND*%
X82380000Y-48640000D03*
X82380000Y-53720000D03*
%TD*%
D27*
%TO.P,J5,1,Pin_1*%
%TO.N,GND*%
X75550000Y-102810000D03*
D28*
%TO.P,J5,2,Pin_2*%
%TO.N,/5V*%
X78090000Y-102810000D03*
%TO.P,J5,3,Pin_3*%
%TO.N,/FAN_TACH*%
X80630000Y-102810000D03*
%TD*%
D29*
%TO.N,GND*%
X72360000Y-80940000D03*
X86710000Y-76530000D03*
X81430000Y-71980000D03*
X131020000Y-83110000D03*
X86710000Y-77890000D03*
X100510000Y-89930000D03*
X88230000Y-80610000D03*
X96580000Y-92200000D03*
X91720000Y-80600000D03*
X131000000Y-71110000D03*
X88230000Y-76530000D03*
X72030000Y-77730000D03*
X90050000Y-77860000D03*
X97140000Y-71980000D03*
X90050000Y-80580000D03*
X90050000Y-79220000D03*
X122750000Y-71540000D03*
X86710000Y-80610000D03*
X101330000Y-84130000D03*
X122790000Y-83490000D03*
X88230000Y-79250000D03*
X122830000Y-77570000D03*
X102760000Y-78720000D03*
X71300000Y-90270000D03*
X130685180Y-76940000D03*
X90050000Y-76500000D03*
X78710000Y-90340000D03*
X88230000Y-77890000D03*
X88930000Y-93260000D03*
X88030000Y-91180000D03*
X91720000Y-76520000D03*
X106600000Y-68290000D03*
X91720000Y-79240000D03*
X91720000Y-77880000D03*
X86710000Y-79250000D03*
%TO.N,Net-(C2-Pad2)*%
X98670000Y-72100000D03*
%TO.N,Net-(C6-Pad2)*%
X94850000Y-66950000D03*
%TO.N,/CI*%
X126560000Y-85031100D03*
X108140000Y-82740000D03*
%TO.N,/VDD*%
X86990000Y-65190000D03*
X88752000Y-74830000D03*
X87726000Y-74050000D03*
X91400000Y-65210000D03*
X91830000Y-74090000D03*
X86700000Y-74840000D03*
X90804000Y-74860000D03*
X89778000Y-74050000D03*
%TO.N,/RO*%
X109350000Y-79010000D03*
X126450000Y-79171100D03*
%TO.N,Net-(C12-Pad2)*%
X83780000Y-66980000D03*
%TO.N,Net-(C15-Pad2)*%
X82450000Y-68820000D03*
%TO.N,/RST_N*%
X126560000Y-73390000D03*
X111520000Y-73650000D03*
X99790000Y-77550000D03*
%TO.N,/5V*%
X85835000Y-94845000D03*
X69350000Y-92140000D03*
X71950000Y-92140000D03*
X82050000Y-92140000D03*
%TO.N,Net-(IC1-Pad4)*%
X103420000Y-70170000D03*
%TO.N,Net-(IC1-Pad5)*%
X103380000Y-72570000D03*
%TO.N,Net-(IC1-Pad6)*%
X103390000Y-75000000D03*
%TO.N,Net-(IC1-Pad25)*%
X81100000Y-77600000D03*
%TO.N,Net-(IC1-Pad26)*%
X79780000Y-76898900D03*
%TO.N,Net-(IC1-Pad27)*%
X79960000Y-81610000D03*
%TO.N,Net-(IC1-Pad28)*%
X78000000Y-73440000D03*
%TO.N,Net-(IC1-Pad29)*%
X79640000Y-73400000D03*
%TO.N,Net-(C17-Pad2)*%
X79730000Y-71860000D03*
%TO.N,/VCCIO*%
X122820000Y-76190000D03*
X75950000Y-80990000D03*
X113620000Y-62010000D03*
X134650000Y-73950000D03*
X122790000Y-81960000D03*
X113760000Y-59300000D03*
X122870000Y-70300000D03*
%TO.N,/TX*%
X113280000Y-70270000D03*
%TO.N,/1V8*%
X127610000Y-75210000D03*
X95730000Y-88330000D03*
X94980000Y-84190000D03*
X127610000Y-81130000D03*
X81920000Y-84240000D03*
X127610000Y-69580000D03*
%TO.N,/0V8*%
X94840000Y-85340000D03*
X81250000Y-85290000D03*
X85860000Y-84470000D03*
X87130000Y-88430000D03*
%TO.N,Net-(IC1-Pad8)*%
X97380000Y-77130000D03*
%TO.N,Net-(C3-Pad2)*%
X96130000Y-68740000D03*
%TO.N,Net-(IC1-Pad10)*%
X97180000Y-79770000D03*
%TO.N,Net-(IC1-Pad11)*%
X97070000Y-81120000D03*
%TO.N,Net-(IC1-Pad12)*%
X97070000Y-82530000D03*
%TO.N,Net-(IC1-Pad20)*%
X76750000Y-84640000D03*
%TO.N,/TEMP_N*%
X80940000Y-79430000D03*
%TO.N,/TEMP_P*%
X79820000Y-79150000D03*
%TO.N,/SCL*%
X125070000Y-87430000D03*
%TO.N,/SDA*%
X123750000Y-89930000D03*
%TO.N,/TEMP_ALRT*%
X132250000Y-83950000D03*
%TD*%
D30*
%TO.N,/1V8*%
X127610000Y-69580000D02*
X127100000Y-69580000D01*
X127100000Y-69580000D02*
X126220000Y-70460000D01*
D31*
%TO.N,/RST*%
X118764300Y-72280000D02*
X124050000Y-72280000D01*
X124050000Y-72280000D02*
X124350000Y-71980000D01*
%TO.N,/RST_N*%
X126560000Y-73390000D02*
X126560000Y-72290000D01*
X126560000Y-72290000D02*
X126250000Y-71980000D01*
%TO.N,/VCCIO*%
X126437500Y-71330000D02*
X125840000Y-71330000D01*
X125840000Y-71330000D02*
X125190000Y-70680000D01*
X125190000Y-70680000D02*
X123250000Y-70680000D01*
X123250000Y-70680000D02*
X122870000Y-70300000D01*
%TO.N,/RO*%
X126450000Y-79171100D02*
X126450000Y-77850000D01*
X126450000Y-77850000D02*
X126290000Y-77690000D01*
%TO.N,/RX*%
X124390000Y-77690000D02*
X124390000Y-78280000D01*
X124390000Y-78280000D02*
X123720000Y-78950000D01*
X119496578Y-78950000D02*
X118888289Y-78341711D01*
X123720000Y-78950000D02*
X119496578Y-78950000D01*
D30*
%TO.N,/1V8*%
X127610000Y-81130000D02*
X127190000Y-81130000D01*
X127190000Y-81130000D02*
X126270000Y-82050000D01*
X127610000Y-75210000D02*
X127270000Y-75210000D01*
X127270000Y-75210000D02*
X126310000Y-76170000D01*
D31*
%TO.N,/VCCIO*%
X124390000Y-76390000D02*
X123610000Y-76390000D01*
X123610000Y-76390000D02*
X123410000Y-76190000D01*
X123410000Y-76190000D02*
X122820000Y-76190000D01*
X126457500Y-82930000D02*
X125690000Y-82930000D01*
X125690000Y-82930000D02*
X125040000Y-82280000D01*
X125040000Y-82280000D02*
X123110000Y-82280000D01*
X123110000Y-82280000D02*
X122790000Y-81960000D01*
%TO.N,/CI*%
X126560000Y-85031100D02*
X126560000Y-83870000D01*
X126560000Y-83870000D02*
X126270000Y-83580000D01*
%TO.N,/TX*%
X124370000Y-83580000D02*
X124370000Y-84190000D01*
X124370000Y-84190000D02*
X123930000Y-84630000D01*
X123930000Y-84630000D02*
X119382178Y-84630000D01*
X119382178Y-84630000D02*
X118921089Y-84168911D01*
%TO.N,GND*%
X73160000Y-78120000D02*
X72420000Y-78120000D01*
X124202500Y-77040000D02*
X123360000Y-77040000D01*
X130110000Y-76050000D02*
X130110000Y-76364820D01*
X73500000Y-80960000D02*
X72380000Y-80960000D01*
X99500000Y-88920000D02*
X100510000Y-89930000D01*
X122800000Y-77540000D02*
X122830000Y-77570000D01*
D30*
X77230000Y-92250000D02*
X77230000Y-90740000D01*
D31*
X95480000Y-91100000D02*
X96580000Y-92200000D01*
X97390000Y-70590000D02*
X97390000Y-71730000D01*
D30*
X86460000Y-93550000D02*
X88640000Y-93550000D01*
D31*
X130130000Y-84000000D02*
X131020000Y-83110000D01*
X99500000Y-88750000D02*
X99500000Y-88920000D01*
X106610000Y-72580000D02*
X106610000Y-70190000D01*
X72380000Y-80960000D02*
X72360000Y-80940000D01*
D30*
X77250000Y-92270000D02*
X77230000Y-92250000D01*
D31*
X106610000Y-74970000D02*
X106610000Y-72580000D01*
X124182500Y-82930000D02*
X123350000Y-82930000D01*
X130110000Y-82160000D02*
X130110000Y-82200000D01*
D30*
X73082500Y-90280000D02*
X71310000Y-90280000D01*
D31*
X106610000Y-70190000D02*
X106610000Y-68300000D01*
D30*
X89140000Y-93050000D02*
X89140000Y-91830000D01*
D31*
X130300000Y-70410000D02*
X131000000Y-71110000D01*
X80980000Y-70620000D02*
X80980000Y-71530000D01*
X130130000Y-84040000D02*
X130130000Y-84000000D01*
D30*
X84782500Y-91180000D02*
X88030000Y-91180000D01*
X88640000Y-93550000D02*
X89140000Y-93050000D01*
D31*
X121730000Y-71590000D02*
X122700000Y-71590000D01*
X130110000Y-77780000D02*
X130110000Y-77515180D01*
X72420000Y-78120000D02*
X72030000Y-77730000D01*
X129920000Y-72060000D02*
X130050000Y-72060000D01*
X106610000Y-68300000D02*
X106600000Y-68290000D01*
X80980000Y-71530000D02*
X81430000Y-71980000D01*
X122700000Y-71590000D02*
X122750000Y-71540000D01*
X124162500Y-71330000D02*
X122960000Y-71330000D01*
D30*
X71310000Y-90280000D02*
X71300000Y-90270000D01*
D31*
X130110000Y-82200000D02*
X131020000Y-83110000D01*
X97390000Y-71730000D02*
X97140000Y-71980000D01*
D30*
X77230000Y-90740000D02*
X78310000Y-90740000D01*
X100650000Y-84810000D02*
X101330000Y-84130000D01*
D31*
X95040000Y-91100000D02*
X95480000Y-91100000D01*
X102740000Y-78700000D02*
X102760000Y-78720000D01*
X123350000Y-82930000D02*
X122790000Y-83490000D01*
X122960000Y-71330000D02*
X122750000Y-71540000D01*
X129960000Y-70410000D02*
X130300000Y-70410000D01*
X121690000Y-83530000D02*
X122750000Y-83530000D01*
X126477500Y-77040000D02*
X124202500Y-77040000D01*
D30*
X74850000Y-92790000D02*
X76730000Y-92790000D01*
D31*
X130110000Y-76364820D02*
X130685180Y-76940000D01*
X122750000Y-83530000D02*
X122790000Y-83490000D01*
D30*
X99740000Y-84810000D02*
X100650000Y-84810000D01*
D31*
X102740000Y-77460000D02*
X102740000Y-78700000D01*
D30*
X78310000Y-90740000D02*
X78710000Y-90340000D01*
D31*
X130050000Y-72060000D02*
X131000000Y-71110000D01*
X130110000Y-77515180D02*
X130685180Y-76940000D01*
D30*
X76730000Y-92790000D02*
X77250000Y-92270000D01*
D31*
X123360000Y-77040000D02*
X122830000Y-77570000D01*
X121720000Y-77540000D02*
X122800000Y-77540000D01*
%TO.N,Net-(C2-Pad2)*%
X98690000Y-70590000D02*
X98690000Y-68730000D01*
X98670000Y-72100000D02*
X98670000Y-70610000D01*
X98670000Y-70610000D02*
X98690000Y-70590000D01*
%TO.N,Net-(C6-Pad2)*%
X96070000Y-66950000D02*
X96090000Y-66970000D01*
X96090000Y-65210000D02*
X96060000Y-65180000D01*
X94850000Y-66950000D02*
X96070000Y-66950000D01*
X96090000Y-66970000D02*
X96090000Y-65210000D01*
%TO.N,/CI*%
X106630000Y-81140000D02*
X99440000Y-81140000D01*
X108140000Y-82740000D02*
X108140000Y-82650000D01*
X108490000Y-83090000D02*
X108490000Y-89430000D01*
X95490000Y-104520000D02*
X95490000Y-101090000D01*
X99790000Y-98130000D02*
X97060000Y-98130000D01*
X95490000Y-99700000D02*
X95490000Y-101090000D01*
X108140000Y-82740000D02*
X108490000Y-83090000D01*
X108140000Y-82650000D02*
X106630000Y-81140000D01*
X97060000Y-98130000D02*
X95490000Y-99700000D01*
X108490000Y-89430000D02*
X99790000Y-98130000D01*
%TO.N,/VDD*%
X83550000Y-65180000D02*
X86980000Y-65180000D01*
X86980000Y-65180000D02*
X86990000Y-65190000D01*
X94760000Y-65180000D02*
X91430000Y-65180000D01*
X91430000Y-65180000D02*
X91400000Y-65210000D01*
%TO.N,/RO*%
X98010000Y-104500000D02*
X98030000Y-104520000D01*
X109350000Y-79010000D02*
X109350000Y-89144058D01*
X98010000Y-101090000D02*
X98010000Y-104500000D01*
X98010000Y-100484058D02*
X98010000Y-101090000D01*
X106480000Y-79780000D02*
X107228911Y-79031089D01*
X99440000Y-79780000D02*
X106480000Y-79780000D01*
X107228911Y-79031089D02*
X109328911Y-79031089D01*
X109328911Y-79031089D02*
X109350000Y-79010000D01*
X109350000Y-89144058D02*
X98010000Y-100484058D01*
%TO.N,Net-(C12-Pad2)*%
X82260000Y-66980000D02*
X82260000Y-65190000D01*
X82260000Y-65190000D02*
X82250000Y-65180000D01*
X83780000Y-66980000D02*
X82260000Y-66980000D01*
%TO.N,Net-(C15-Pad2)*%
X80980000Y-68720000D02*
X80980000Y-67000000D01*
X82450000Y-68820000D02*
X81080000Y-68820000D01*
X81080000Y-68820000D02*
X80980000Y-68720000D01*
X80980000Y-67000000D02*
X80960000Y-66980000D01*
%TO.N,/RST_N*%
X100640000Y-98428115D02*
X100640000Y-101130000D01*
X110046089Y-89022026D02*
X100640000Y-98428115D01*
X102168911Y-76731089D02*
X108551089Y-76731089D01*
X99790000Y-77550000D02*
X101350000Y-77550000D01*
X111520000Y-73650000D02*
X111622178Y-73660000D01*
X110046089Y-75236089D02*
X110046089Y-89022026D01*
X108551089Y-76731089D02*
X110046089Y-75236089D01*
X111622178Y-73660000D02*
X110046089Y-75236089D01*
X100640000Y-104450000D02*
X100570000Y-104520000D01*
X101440000Y-77460000D02*
X102168911Y-76731089D01*
X101350000Y-77550000D02*
X101440000Y-77460000D01*
X100640000Y-101130000D02*
X100640000Y-104450000D01*
D30*
%TO.N,/5V*%
X82710000Y-90240000D02*
X82050000Y-90900000D01*
X70360000Y-89330000D02*
X69350000Y-90340000D01*
X84782500Y-90230000D02*
X84283811Y-90230000D01*
X85160000Y-93550000D02*
X85160000Y-94170000D01*
X84283811Y-90230000D02*
X84273811Y-90240000D01*
X73550000Y-91697500D02*
X73082500Y-91230000D01*
X69350000Y-90340000D02*
X69350000Y-92140000D01*
X73082500Y-91230000D02*
X72860000Y-91230000D01*
X72860000Y-91230000D02*
X71950000Y-92140000D01*
X82050000Y-90900000D02*
X82050000Y-92140000D01*
X84273811Y-90240000D02*
X82710000Y-90240000D01*
X85160000Y-94170000D02*
X85835000Y-94845000D01*
X73082500Y-89330000D02*
X70360000Y-89330000D01*
X84782500Y-92130000D02*
X84782500Y-93172500D01*
X73550000Y-92790000D02*
X73550000Y-91697500D01*
X84782500Y-93172500D02*
X85160000Y-93550000D01*
D31*
%TO.N,Net-(IC1-Pad4)*%
X105290000Y-70170000D02*
X105310000Y-70190000D01*
X103420000Y-70170000D02*
X105290000Y-70170000D01*
%TO.N,Net-(IC1-Pad5)*%
X103380000Y-72570000D02*
X105300000Y-72570000D01*
X105300000Y-72570000D02*
X105310000Y-72580000D01*
%TO.N,Net-(IC1-Pad6)*%
X103390000Y-75000000D02*
X105280000Y-75000000D01*
X105280000Y-75000000D02*
X105310000Y-74970000D01*
%TO.N,Net-(IC1-Pad25)*%
X77718785Y-74118911D02*
X77259874Y-73660000D01*
X81100000Y-76940000D02*
X78278911Y-74118911D01*
X71920000Y-73660000D02*
X69950000Y-71690000D01*
X77259874Y-73660000D02*
X71920000Y-73660000D01*
X81100000Y-77600000D02*
X81100000Y-76940000D01*
X78278911Y-74118911D02*
X77718785Y-74118911D01*
%TO.N,Net-(IC1-Pad26)*%
X77851100Y-74970000D02*
X69910000Y-74970000D01*
X79780000Y-76898900D02*
X77851100Y-74970000D01*
%TO.N,Net-(IC1-Pad27)*%
X79960000Y-81610000D02*
X81080000Y-81610000D01*
X81080000Y-81610000D02*
X81100000Y-81630000D01*
%TO.N,Net-(IC1-Pad28)*%
X77700000Y-73140000D02*
X74360000Y-73140000D01*
X78000000Y-73440000D02*
X77700000Y-73140000D01*
X74360000Y-73140000D02*
X72780000Y-71560000D01*
%TO.N,Net-(IC1-Pad29)*%
X79640000Y-73400000D02*
X78200000Y-71960000D01*
X78200000Y-71960000D02*
X76370000Y-71960000D01*
X76370000Y-71960000D02*
X72800000Y-68390000D01*
%TO.N,Net-(C17-Pad2)*%
X79730000Y-71860000D02*
X79730000Y-70670000D01*
X79680000Y-70620000D02*
X79680000Y-68720000D01*
X79730000Y-70670000D02*
X79680000Y-70620000D01*
%TO.N,/VCCIO*%
X121730000Y-70290000D02*
X122860000Y-70290000D01*
X74800000Y-80960000D02*
X75920000Y-80960000D01*
X122860000Y-70290000D02*
X122870000Y-70300000D01*
X113560000Y-61950000D02*
X112460000Y-61950000D01*
X122770000Y-76240000D02*
X122820000Y-76190000D01*
X135220000Y-75550000D02*
X135220000Y-74520000D01*
X113620000Y-62010000D02*
X113560000Y-61950000D01*
X74800000Y-80960000D02*
X74800000Y-79880000D01*
X122520000Y-82230000D02*
X122790000Y-81960000D01*
X74800000Y-79880000D02*
X75060000Y-79620000D01*
X121690000Y-82230000D02*
X122520000Y-82230000D01*
X75920000Y-80960000D02*
X75950000Y-80990000D01*
X135220000Y-74520000D02*
X134650000Y-73950000D01*
X112460000Y-59300000D02*
X113760000Y-59300000D01*
X121720000Y-76240000D02*
X122770000Y-76240000D01*
%TO.N,/TX*%
X114570000Y-83630000D02*
X113310000Y-82370000D01*
X113310000Y-70300000D02*
X113280000Y-70270000D01*
X113310000Y-82370000D02*
X113310000Y-70300000D01*
X118840000Y-84250000D02*
X118921089Y-84168911D01*
X118088911Y-84168911D02*
X117550000Y-83630000D01*
X118840000Y-86270000D02*
X118840000Y-84250000D01*
X117550000Y-83630000D02*
X114570000Y-83630000D01*
X118921089Y-84168911D02*
X118088911Y-84168911D01*
%TO.N,/RX*%
X114090000Y-76690000D02*
X114090000Y-69334300D01*
X118840000Y-78390000D02*
X118888289Y-78341711D01*
X114090000Y-69334300D02*
X116286500Y-67137800D01*
X115741711Y-78341711D02*
X114090000Y-76690000D01*
X118888289Y-78341711D02*
X115741711Y-78341711D01*
X118840000Y-80240000D02*
X118840000Y-78390000D01*
D30*
%TO.N,/1V8*%
X75357500Y-89330000D02*
X77120000Y-89330000D01*
X127830000Y-69580000D02*
X128660000Y-70410000D01*
D31*
X94980000Y-84190000D02*
X95700000Y-84190000D01*
D30*
X127610000Y-69580000D02*
X127830000Y-69580000D01*
X82770000Y-82930000D02*
X82790000Y-82910000D01*
X98200000Y-87470000D02*
X97840000Y-87110000D01*
X95760000Y-84130000D02*
X95760000Y-87050000D01*
X128810000Y-76050000D02*
X128810000Y-77780000D01*
X77230000Y-89440000D02*
X77230000Y-87420000D01*
X77230000Y-87420000D02*
X77540000Y-87110000D01*
X81960000Y-82930000D02*
X81960000Y-84200000D01*
X77120000Y-89330000D02*
X77230000Y-89440000D01*
X128660000Y-72020000D02*
X128620000Y-72060000D01*
D31*
X80620000Y-89440000D02*
X77230000Y-89440000D01*
D30*
X96080000Y-87980000D02*
X95730000Y-88330000D01*
X98200000Y-88750000D02*
X98200000Y-87470000D01*
X127610000Y-81130000D02*
X127780000Y-81130000D01*
X96080000Y-87110000D02*
X96080000Y-87980000D01*
X95760000Y-82910000D02*
X95760000Y-84130000D01*
X77230000Y-86800000D02*
X81100000Y-82930000D01*
X81960000Y-84200000D02*
X81920000Y-84240000D01*
D31*
X95700000Y-84190000D02*
X95760000Y-84130000D01*
D30*
X77540000Y-87110000D02*
X95700000Y-87110000D01*
X81960000Y-82930000D02*
X82770000Y-82930000D01*
X81100000Y-82930000D02*
X81960000Y-82930000D01*
X128810000Y-82160000D02*
X128810000Y-84020000D01*
D31*
X81270000Y-88790000D02*
X80620000Y-89440000D01*
D30*
X128810000Y-84020000D02*
X128830000Y-84040000D01*
X95700000Y-87110000D02*
X96080000Y-87110000D01*
X95760000Y-87050000D02*
X95700000Y-87110000D01*
X127970000Y-75210000D02*
X128810000Y-76050000D01*
X77230000Y-87420000D02*
X77230000Y-86800000D01*
X127610000Y-75210000D02*
X127970000Y-75210000D01*
X128660000Y-70410000D02*
X128660000Y-72020000D01*
X96080000Y-87110000D02*
X97840000Y-87110000D01*
X127780000Y-81130000D02*
X128810000Y-82160000D01*
D31*
%TO.N,/0V8*%
X84565000Y-84345000D02*
X84565000Y-84115000D01*
X89530000Y-90140000D02*
X89140000Y-90530000D01*
X91430000Y-90140000D02*
X89530000Y-90140000D01*
D30*
X85860000Y-84470000D02*
X93200000Y-84470000D01*
X94260000Y-83410000D02*
X94260000Y-82910000D01*
X93495000Y-84175000D02*
X94260000Y-83410000D01*
X87057500Y-90230000D02*
X87057500Y-88502500D01*
X84310000Y-83860000D02*
X84310000Y-82910000D01*
D31*
X83620000Y-85290000D02*
X84565000Y-84345000D01*
D30*
X93200000Y-84470000D02*
X93495000Y-84175000D01*
X88840000Y-90230000D02*
X89140000Y-90530000D01*
X87057500Y-90230000D02*
X88840000Y-90230000D01*
D31*
X94660000Y-85340000D02*
X93495000Y-84175000D01*
D30*
X87057500Y-88502500D02*
X87130000Y-88430000D01*
D31*
X94840000Y-85340000D02*
X94660000Y-85340000D01*
D30*
X85860000Y-84470000D02*
X84920000Y-84470000D01*
X84920000Y-84470000D02*
X84565000Y-84115000D01*
D31*
X81250000Y-85290000D02*
X83620000Y-85290000D01*
D30*
X84565000Y-84115000D02*
X84310000Y-83860000D01*
D31*
%TO.N,/RST*%
X118800000Y-72315700D02*
X118800000Y-74290000D01*
X116286500Y-74757800D02*
X118764300Y-72280000D01*
X118764300Y-72280000D02*
X118800000Y-72315700D01*
%TO.N,Net-(IC1-Pad8)*%
X97930000Y-78340000D02*
X97930000Y-77680000D01*
X97930000Y-77680000D02*
X97380000Y-77130000D01*
%TO.N,Net-(R2-Pad1)*%
X97840000Y-84810000D02*
X97840000Y-84210000D01*
X97840000Y-84210000D02*
X99450000Y-82600000D01*
X99450000Y-82600000D02*
X103010000Y-82600000D01*
X103010000Y-82600000D02*
X103060000Y-82650000D01*
%TO.N,Net-(C3-Pad2)*%
X96130000Y-68740000D02*
X97380000Y-68740000D01*
X97390000Y-68730000D02*
X97390000Y-66970000D01*
X97380000Y-68740000D02*
X97390000Y-68730000D01*
%TO.N,Net-(IC1-Pad10)*%
X97190000Y-79780000D02*
X97180000Y-79770000D01*
X98140000Y-79780000D02*
X97190000Y-79780000D01*
%TO.N,Net-(IC1-Pad11)*%
X97090000Y-81140000D02*
X97070000Y-81120000D01*
X98140000Y-81140000D02*
X97090000Y-81140000D01*
%TO.N,Net-(IC1-Pad12)*%
X97140000Y-82600000D02*
X97070000Y-82530000D01*
X98150000Y-82600000D02*
X97140000Y-82600000D01*
%TO.N,Net-(TP1-Pad1)*%
X101060000Y-87110000D02*
X99740000Y-87110000D01*
X103520000Y-89570000D02*
X101060000Y-87110000D01*
%TO.N,Net-(IC1-Pad20)*%
X76750000Y-84640000D02*
X75680000Y-84640000D01*
X75680000Y-84640000D02*
X74580000Y-85740000D01*
%TO.N,Net-(C32-Pad1)*%
X77280000Y-80610000D02*
X75781426Y-79111426D01*
X78080000Y-80610000D02*
X77280000Y-80610000D01*
X78080000Y-80000000D02*
X78670000Y-79410000D01*
X75781426Y-79111426D02*
X75103926Y-79111426D01*
X78670000Y-79410000D02*
X78670000Y-78950000D01*
X78080000Y-80610000D02*
X78080000Y-80000000D01*
%TO.N,Net-(C32-Pad2)*%
X77370000Y-78950000D02*
X77370000Y-77980000D01*
X75998574Y-78611426D02*
X75103926Y-78611426D01*
X77370000Y-77980000D02*
X77000000Y-77610000D01*
X77000000Y-77610000D02*
X75998574Y-78611426D01*
%TO.N,/TEMP_N*%
X78020000Y-77610000D02*
X76650000Y-76240000D01*
X78200000Y-77790000D02*
X78020000Y-77610000D01*
X76650000Y-76240000D02*
X72950000Y-76240000D01*
X80940000Y-79430000D02*
X80940000Y-78850000D01*
X79880000Y-77790000D02*
X78200000Y-77790000D01*
X80940000Y-78850000D02*
X79880000Y-77790000D01*
%TO.N,/TEMP_P*%
X79820000Y-79150000D02*
X79820000Y-80000000D01*
X79210000Y-80610000D02*
X79100000Y-80610000D01*
D32*
X71370000Y-84050000D02*
X75660000Y-84050000D01*
D31*
X79820000Y-80000000D02*
X79210000Y-80610000D01*
D32*
X75660000Y-84050000D02*
X79100000Y-80610000D01*
D31*
%TO.N,/FAN_TACH*%
X136200000Y-72220000D02*
X136200000Y-75230000D01*
X139144300Y-72220000D02*
X139146500Y-72217800D01*
X136200000Y-72220000D02*
X139144300Y-72220000D01*
X136200000Y-75230000D02*
X136520000Y-75550000D01*
%TO.N,/SCL*%
X133335920Y-85738138D02*
X131644058Y-87430000D01*
X73160000Y-79620000D02*
X69020000Y-79620000D01*
X69020000Y-79620000D02*
X67450000Y-78050000D01*
X115854097Y-58473889D02*
X123437946Y-58473889D01*
X125070000Y-90320000D02*
X125070000Y-87430000D01*
X67450000Y-78050000D02*
X67450000Y-65265943D01*
X123437946Y-58473889D02*
X133335920Y-68371863D01*
X111397969Y-59537969D02*
X111397969Y-60457969D01*
X115242589Y-59950203D02*
X115242589Y-59085397D01*
X125940000Y-91190000D02*
X125070000Y-90320000D01*
X131644058Y-87430000D02*
X125070000Y-87430000D01*
X111160000Y-59300000D02*
X111397969Y-59537969D01*
X133335920Y-68371863D02*
X133335920Y-85738138D01*
X72257974Y-60457969D02*
X111397969Y-60457969D01*
X115750355Y-60457969D02*
X115242589Y-59950203D01*
X111397969Y-60457969D02*
X115750355Y-60457969D01*
X67450000Y-65265943D02*
X72257974Y-60457969D01*
X115242589Y-59085397D02*
X115854097Y-58473889D01*
%TO.N,/SDA*%
X131748911Y-86751089D02*
X124788785Y-86751089D01*
X132930000Y-85570000D02*
X131748911Y-86751089D01*
X72426111Y-60863889D02*
X111356111Y-60863889D01*
X125960000Y-94340000D02*
X123750000Y-92130000D01*
X67855920Y-65434080D02*
X72426111Y-60863889D01*
X132930000Y-68540000D02*
X132930000Y-85570000D01*
X123750000Y-87789874D02*
X123750000Y-89930000D01*
X124788785Y-86751089D02*
X123750000Y-87789874D01*
X111356111Y-61753889D02*
X111356111Y-60863889D01*
X111160000Y-61950000D02*
X111356111Y-61753889D01*
X125253889Y-60863889D02*
X132930000Y-68540000D01*
X111356111Y-60863889D02*
X125253889Y-60863889D01*
X69120000Y-79120000D02*
X67855920Y-77855920D01*
X123750000Y-92130000D02*
X123750000Y-89930000D01*
X73160000Y-79120000D02*
X69120000Y-79120000D01*
X67855920Y-77855920D02*
X67855920Y-65434080D01*
%TO.N,Net-(TP19-Pad1)*%
X136210000Y-67160000D02*
X139124300Y-67160000D01*
X139124300Y-67160000D02*
X139146500Y-67137800D01*
%TO.N,/TEMP_ALRT*%
X132250000Y-83950000D02*
X132150000Y-83850000D01*
X68261840Y-65602218D02*
X68261840Y-77687782D01*
X137802200Y-87457800D02*
X139146500Y-87457800D01*
X72594249Y-61269809D02*
X68261840Y-65602218D01*
X135900000Y-89360000D02*
X137802200Y-87457800D01*
X132150000Y-68334058D02*
X127135942Y-63320000D01*
X68261840Y-77687782D02*
X69194058Y-78620000D01*
X103909809Y-61269809D02*
X72594249Y-61269809D01*
X132150000Y-83850000D02*
X132150000Y-68334058D01*
X127135942Y-63320000D02*
X105960000Y-63320000D01*
X105960000Y-63320000D02*
X103909809Y-61269809D01*
X69194058Y-78620000D02*
X73160000Y-78620000D01*
%TD*%
%TA.AperFunction,Conductor*%
%TO.N,/VDD*%
G36*
X96401464Y-70210002D02*
G01*
X96447957Y-70263658D01*
X96459341Y-70316656D01*
X96454034Y-71336399D01*
X96433678Y-71404414D01*
X96421672Y-71420053D01*
X96400960Y-71443056D01*
X96305473Y-71608444D01*
X96246458Y-71790072D01*
X96226496Y-71980000D01*
X96246458Y-72169928D01*
X96305473Y-72351556D01*
X96400960Y-72516944D01*
X96405380Y-72521853D01*
X96405383Y-72521857D01*
X96415006Y-72532545D01*
X96445723Y-72596553D01*
X96447367Y-72617510D01*
X96433641Y-75255059D01*
X96413285Y-75323074D01*
X96359388Y-75369287D01*
X96308171Y-75380402D01*
X96001607Y-75381684D01*
X94447017Y-75388183D01*
X94432884Y-75387447D01*
X94381535Y-75381869D01*
X94381527Y-75381869D01*
X94378134Y-75381500D01*
X93381866Y-75381500D01*
X93378469Y-75381869D01*
X93327535Y-75387402D01*
X93327534Y-75387402D01*
X93319684Y-75388255D01*
X93315060Y-75389989D01*
X93289648Y-75393022D01*
X89252118Y-75409904D01*
X85724703Y-75424652D01*
X85667830Y-75410228D01*
X85666705Y-75409385D01*
X85658304Y-75406236D01*
X85658301Y-75406234D01*
X85577586Y-75375976D01*
X85530316Y-75358255D01*
X85468134Y-75351500D01*
X84471866Y-75351500D01*
X84409684Y-75358255D01*
X84368377Y-75373740D01*
X84281704Y-75406232D01*
X84281701Y-75406234D01*
X84273295Y-75409385D01*
X84266106Y-75414773D01*
X84264727Y-75415528D01*
X84204743Y-75431008D01*
X84168324Y-75431160D01*
X84117156Y-75418183D01*
X84116705Y-75419385D01*
X83980316Y-75368255D01*
X83918134Y-75361500D01*
X82921866Y-75361500D01*
X82859684Y-75368255D01*
X82723295Y-75419385D01*
X82719110Y-75422522D01*
X82661222Y-75437461D01*
X82285347Y-75439033D01*
X82217144Y-75419316D01*
X82170427Y-75365855D01*
X82158823Y-75312267D01*
X82165908Y-74148144D01*
X82175706Y-72538394D01*
X82192585Y-72476164D01*
X82264527Y-72351556D01*
X82323542Y-72169928D01*
X82343504Y-71980000D01*
X82323542Y-71790072D01*
X82264527Y-71608444D01*
X82199321Y-71495504D01*
X82182442Y-71431737D01*
X82189238Y-70315233D01*
X82209655Y-70247235D01*
X82263592Y-70201070D01*
X82315236Y-70190000D01*
X96333343Y-70190000D01*
X96401464Y-70210002D01*
G37*
%TD.AperFunction*%
%TD*%
%TA.AperFunction,Conductor*%
%TO.N,GND*%
G36*
X96408995Y-75876895D02*
G01*
X96455511Y-75930530D01*
X96466918Y-75983650D01*
X96448419Y-79187100D01*
X96431540Y-79249372D01*
X96345473Y-79398444D01*
X96286458Y-79580072D01*
X96266496Y-79770000D01*
X96286458Y-79959928D01*
X96345473Y-80141556D01*
X96348776Y-80147278D01*
X96348777Y-80147279D01*
X96424866Y-80279069D01*
X96441745Y-80342796D01*
X96441341Y-80412824D01*
X96420946Y-80480828D01*
X96408979Y-80496407D01*
X96330960Y-80583056D01*
X96235473Y-80748444D01*
X96176458Y-80930072D01*
X96156496Y-81120000D01*
X96176458Y-81309928D01*
X96235473Y-81491556D01*
X96330960Y-81656944D01*
X96400856Y-81734572D01*
X96431572Y-81798577D01*
X96433217Y-81819606D01*
X96433146Y-81831924D01*
X96412752Y-81899929D01*
X96400784Y-81915509D01*
X96369001Y-81950807D01*
X96308554Y-81988046D01*
X96275859Y-81992495D01*
X82240230Y-82047542D01*
X82172031Y-82027807D01*
X82125329Y-81974334D01*
X82113738Y-81920821D01*
X82147720Y-75988251D01*
X82168112Y-75920246D01*
X82222033Y-75874061D01*
X82273663Y-75862973D01*
X94955950Y-75857518D01*
X94965065Y-75858010D01*
X94965068Y-75857947D01*
X94968472Y-75858131D01*
X94971866Y-75858500D01*
X95968134Y-75858500D01*
X95974479Y-75857811D01*
X95988026Y-75857074D01*
X96340868Y-75856923D01*
X96408995Y-75876895D01*
G37*
%TD.AperFunction*%
%TD*%
M02*
