%TF.GenerationSoftware,KiCad,Pcbnew,7.0.10*%
%TF.CreationDate,2024-02-17T13:38:06-05:00*%
%TF.ProjectId,bitaxeUltra,62697461-7865-4556-9c74-72612e6b6963,rev?*%
%TF.SameCoordinates,Original*%
%TF.FileFunction,Copper,L1,Top*%
%TF.FilePolarity,Positive*%
%FSLAX46Y46*%
G04 Gerber Fmt 4.6, Leading zero omitted, Abs format (unit mm)*
G04 Created by KiCad (PCBNEW 7.0.10) date 2024-02-17 13:38:06*
%MOMM*%
%LPD*%
G01*
G04 APERTURE LIST*
G04 Aperture macros list*
%AMRoundRect*
0 Rectangle with rounded corners*
0 $1 Rounding radius*
0 $2 $3 $4 $5 $6 $7 $8 $9 X,Y pos of 4 corners*
0 Add a 4 corners polygon primitive as box body*
4,1,4,$2,$3,$4,$5,$6,$7,$8,$9,$2,$3,0*
0 Add four circle primitives for the rounded corners*
1,1,$1+$1,$2,$3*
1,1,$1+$1,$4,$5*
1,1,$1+$1,$6,$7*
1,1,$1+$1,$8,$9*
0 Add four rect primitives between the rounded corners*
20,1,$1+$1,$2,$3,$4,$5,0*
20,1,$1+$1,$4,$5,$6,$7,0*
20,1,$1+$1,$6,$7,$8,$9,0*
20,1,$1+$1,$8,$9,$2,$3,0*%
%AMFreePoly0*
4,1,45,-0.124646,1.700354,-0.124500,1.700000,-0.124500,1.200500,0.124500,1.200500,0.124500,1.700000,0.124646,1.700354,0.125000,1.700500,0.375000,1.700500,0.375354,1.700354,0.375500,1.700000,0.375500,1.200500,0.825000,1.200500,0.825354,1.200354,0.825500,1.200000,0.825500,-1.200000,0.825354,-1.200354,0.825000,-1.200500,0.375500,-1.200500,0.375500,-1.700000,0.375354,-1.700354,
0.375000,-1.700500,0.125000,-1.700500,0.124646,-1.700354,0.124500,-1.700000,0.124500,-1.200500,-0.124500,-1.200500,-0.124500,-1.700000,-0.124646,-1.700354,-0.125000,-1.700500,-0.375000,-1.700500,-0.375354,-1.700354,-0.375500,-1.700000,-0.375500,-1.200500,-0.825000,-1.200500,-0.825354,-1.200354,-0.825500,-1.200000,-0.825500,1.200000,-0.825354,1.200354,-0.825000,1.200500,-0.375500,1.200500,
-0.375500,1.700000,-0.375354,1.700354,-0.375000,1.700500,-0.125000,1.700500,-0.124646,1.700354,-0.124646,1.700354,$1*%
%AMFreePoly1*
4,1,35,0.005000,-4.560000,0.003536,-4.563536,0.000000,-4.565000,-5.000000,-4.565000,-5.003536,-4.563536,-5.005000,-4.560000,-5.005000,-3.898000,-5.003536,-3.894464,-5.000000,-3.893000,-4.325000,-3.893000,-4.325000,-3.269700,-5.000000,-3.269700,-5.003536,-3.268236,-5.005000,-3.264700,-5.005000,-2.599700,-5.003536,-2.596164,-5.000000,-2.594700,-4.325000,-2.594700,-4.325000,-1.971400,-5.000000,-1.971400,
-5.003536,-1.969936,-5.005000,-1.966400,-5.005000,-1.301400,-5.003536,-1.297864,-5.000000,-1.296400,-4.325000,-1.296400,-4.325000,-0.673100,-5.000000,-0.673100,-5.003536,-0.671636,-5.005000,-0.668100,-5.005000,0.000000,-5.003536,0.003536,-5.000000,0.005000,0.005000,0.005000,0.005000,-4.560000,0.005000,-4.560000,$1*%
G04 Aperture macros list end*
%TA.AperFunction,SMDPad,CuDef*%
%ADD10RoundRect,0.050000X-0.070000X0.250000X-0.070000X-0.250000X0.070000X-0.250000X0.070000X0.250000X0*%
%TD*%
%TA.AperFunction,ComponentPad*%
%ADD11C,0.400000*%
%TD*%
%TA.AperFunction,SMDPad,CuDef*%
%ADD12FreePoly0,270.000000*%
%TD*%
%TA.AperFunction,SMDPad,CuDef*%
%ADD13RoundRect,0.250000X0.250000X0.475000X-0.250000X0.475000X-0.250000X-0.475000X0.250000X-0.475000X0*%
%TD*%
%TA.AperFunction,SMDPad,CuDef*%
%ADD14RoundRect,0.140000X0.140000X0.170000X-0.140000X0.170000X-0.140000X-0.170000X0.140000X-0.170000X0*%
%TD*%
%TA.AperFunction,SMDPad,CuDef*%
%ADD15RoundRect,0.100000X-0.637500X-0.100000X0.637500X-0.100000X0.637500X0.100000X-0.637500X0.100000X0*%
%TD*%
%TA.AperFunction,SMDPad,CuDef*%
%ADD16RoundRect,0.140000X-0.170000X0.140000X-0.170000X-0.140000X0.170000X-0.140000X0.170000X0.140000X0*%
%TD*%
%TA.AperFunction,SMDPad,CuDef*%
%ADD17C,1.000000*%
%TD*%
%TA.AperFunction,SMDPad,CuDef*%
%ADD18RoundRect,0.135000X-0.185000X0.135000X-0.185000X-0.135000X0.185000X-0.135000X0.185000X0.135000X0*%
%TD*%
%TA.AperFunction,SMDPad,CuDef*%
%ADD19RoundRect,0.135000X0.135000X0.185000X-0.135000X0.185000X-0.135000X-0.185000X0.135000X-0.185000X0*%
%TD*%
%TA.AperFunction,SMDPad,CuDef*%
%ADD20C,1.500000*%
%TD*%
%TA.AperFunction,SMDPad,CuDef*%
%ADD21R,0.700000X0.450000*%
%TD*%
%TA.AperFunction,SMDPad,CuDef*%
%ADD22RoundRect,0.250000X-0.250000X-0.475000X0.250000X-0.475000X0.250000X0.475000X-0.250000X0.475000X0*%
%TD*%
%TA.AperFunction,SMDPad,CuDef*%
%ADD23R,1.168400X1.600200*%
%TD*%
%TA.AperFunction,SMDPad,CuDef*%
%ADD24RoundRect,0.150000X-0.512500X-0.150000X0.512500X-0.150000X0.512500X0.150000X-0.512500X0.150000X0*%
%TD*%
%TA.AperFunction,SMDPad,CuDef*%
%ADD25RoundRect,0.140000X-0.140000X-0.170000X0.140000X-0.170000X0.140000X0.170000X-0.140000X0.170000X0*%
%TD*%
%TA.AperFunction,SMDPad,CuDef*%
%ADD26R,0.400000X1.100000*%
%TD*%
%TA.AperFunction,ComponentPad*%
%ADD27C,0.800000*%
%TD*%
%TA.AperFunction,ComponentPad*%
%ADD28C,6.000000*%
%TD*%
%TA.AperFunction,SMDPad,CuDef*%
%ADD29RoundRect,0.140000X0.170000X-0.140000X0.170000X0.140000X-0.170000X0.140000X-0.170000X-0.140000X0*%
%TD*%
%TA.AperFunction,SMDPad,CuDef*%
%ADD30RoundRect,0.007800X-0.122200X0.442200X-0.122200X-0.442200X0.122200X-0.442200X0.122200X0.442200X0*%
%TD*%
%TA.AperFunction,SMDPad,CuDef*%
%ADD31RoundRect,0.007800X-0.442200X-0.122200X0.442200X-0.122200X0.442200X0.122200X-0.442200X0.122200X0*%
%TD*%
%TA.AperFunction,SMDPad,CuDef*%
%ADD32R,2.050000X2.050000*%
%TD*%
%TA.AperFunction,ComponentPad*%
%ADD33C,0.500000*%
%TD*%
%TA.AperFunction,SMDPad,CuDef*%
%ADD34R,3.100000X2.000000*%
%TD*%
%TA.AperFunction,SMDPad,CuDef*%
%ADD35RoundRect,0.135000X0.185000X-0.135000X0.185000X0.135000X-0.185000X0.135000X-0.185000X-0.135000X0*%
%TD*%
%TA.AperFunction,SMDPad,CuDef*%
%ADD36RoundRect,0.135000X-0.135000X-0.185000X0.135000X-0.185000X0.135000X0.185000X-0.135000X0.185000X0*%
%TD*%
%TA.AperFunction,SMDPad,CuDef*%
%ADD37C,3.000000*%
%TD*%
%TA.AperFunction,SMDPad,CuDef*%
%ADD38R,1.100000X0.400000*%
%TD*%
%TA.AperFunction,ComponentPad*%
%ADD39R,1.700000X1.700000*%
%TD*%
%TA.AperFunction,ComponentPad*%
%ADD40O,1.700000X1.700000*%
%TD*%
%TA.AperFunction,SMDPad,CuDef*%
%ADD41RoundRect,0.250000X-1.025000X0.875000X-1.025000X-0.875000X1.025000X-0.875000X1.025000X0.875000X0*%
%TD*%
%TA.AperFunction,SMDPad,CuDef*%
%ADD42R,0.700000X0.800000*%
%TD*%
%TA.AperFunction,SMDPad,CuDef*%
%ADD43FreePoly1,270.000000*%
%TD*%
%TA.AperFunction,SMDPad,CuDef*%
%ADD44R,1.600000X2.700000*%
%TD*%
%TA.AperFunction,SMDPad,CuDef*%
%ADD45FreePoly1,90.000000*%
%TD*%
%TA.AperFunction,SMDPad,CuDef*%
%ADD46RoundRect,0.250000X-0.325000X-1.100000X0.325000X-1.100000X0.325000X1.100000X-0.325000X1.100000X0*%
%TD*%
%TA.AperFunction,SMDPad,CuDef*%
%ADD47R,1.100000X1.300000*%
%TD*%
%TA.AperFunction,SMDPad,CuDef*%
%ADD48RoundRect,0.250000X0.325000X0.650000X-0.325000X0.650000X-0.325000X-0.650000X0.325000X-0.650000X0*%
%TD*%
%TA.AperFunction,SMDPad,CuDef*%
%ADD49R,0.952500X0.558800*%
%TD*%
%TA.AperFunction,ComponentPad*%
%ADD50C,1.574800*%
%TD*%
%TA.AperFunction,ComponentPad*%
%ADD51C,1.700000*%
%TD*%
%TA.AperFunction,ComponentPad*%
%ADD52O,1.800000X1.000000*%
%TD*%
%TA.AperFunction,ComponentPad*%
%ADD53O,2.100000X1.000000*%
%TD*%
%TA.AperFunction,ViaPad*%
%ADD54C,0.800000*%
%TD*%
%TA.AperFunction,ViaPad*%
%ADD55C,1.200000*%
%TD*%
%TA.AperFunction,ViaPad*%
%ADD56C,1.000000*%
%TD*%
%TA.AperFunction,Conductor*%
%ADD57C,0.508000*%
%TD*%
%TA.AperFunction,Conductor*%
%ADD58C,0.254000*%
%TD*%
%TA.AperFunction,Conductor*%
%ADD59C,2.000000*%
%TD*%
%TA.AperFunction,Conductor*%
%ADD60C,1.500000*%
%TD*%
G04 APERTURE END LIST*
D10*
%TO.P,U9,1,VDD*%
%TO.N,/5V*%
X99201691Y-68022200D03*
%TO.P,U9,2,EN/SS*%
%TO.N,Net-(Q4-D)*%
X98701691Y-68022200D03*
%TO.P,U9,3,PGOOD*%
%TO.N,/Power/PGOOD*%
X98201691Y-68022200D03*
%TO.P,U9,4,COMP*%
%TO.N,Net-(U9-COMP)*%
X97701691Y-68022200D03*
%TO.P,U9,5,FB*%
%TO.N,/Power/OUT0*%
X97201691Y-68022200D03*
%TO.P,U9,6,BOOT*%
%TO.N,Net-(U9-BOOT)*%
X97201691Y-70822200D03*
%TO.P,U9,7,HDRV*%
%TO.N,Net-(Q1-G)*%
X97701691Y-70822200D03*
%TO.P,U9,8,SW*%
%TO.N,/Power/SW*%
X98201691Y-70822200D03*
%TO.P,U9,9,LDRV*%
%TO.N,Net-(Q2-G)*%
X98701691Y-70822200D03*
%TO.P,U9,10,BP*%
%TO.N,Net-(U9-BP)*%
X99201691Y-70822200D03*
D11*
%TO.P,U9,11,GND*%
%TO.N,GND*%
X98201691Y-68847200D03*
X99151691Y-69422200D03*
D12*
X98201691Y-69422200D03*
D11*
X97251691Y-69422200D03*
X98201691Y-69997200D03*
%TD*%
D13*
%TO.P,C43,1*%
%TO.N,Net-(U9-BP)*%
X106814000Y-69487000D03*
%TO.P,C43,2*%
%TO.N,GND*%
X104914000Y-69487000D03*
%TD*%
D14*
%TO.P,C19,1*%
%TO.N,/BM1366/1V8*%
X116836000Y-103365000D03*
%TO.P,C19,2*%
%TO.N,GND*%
X115876000Y-103365000D03*
%TD*%
D15*
%TO.P,U8,1,IN+*%
%TO.N,/Power/VIN*%
X79540000Y-80990000D03*
%TO.P,U8,2,IN+*%
X79540000Y-81640000D03*
%TO.P,U8,3,IN+*%
X79540000Y-82290000D03*
%TO.P,U8,4,A1*%
%TO.N,GND*%
X79540000Y-82940000D03*
%TO.P,U8,5,A0*%
X79540000Y-83590000D03*
%TO.P,U8,6,GND*%
X79540000Y-84240000D03*
%TO.P,U8,7,ALERT*%
%TO.N,unconnected-(U8-ALERT-Pad7)*%
X79540000Y-84890000D03*
%TO.P,U8,8,SDA*%
%TO.N,/SDA*%
X79540000Y-85540000D03*
%TO.P,U8,9,SCL*%
%TO.N,/SCL*%
X85265000Y-85540000D03*
%TO.P,U8,10,VS*%
%TO.N,/3V3*%
X85265000Y-84890000D03*
%TO.P,U8,11,GND*%
%TO.N,GND*%
X85265000Y-84240000D03*
%TO.P,U8,12,VBUS*%
%TO.N,/Power/VIN*%
X85265000Y-83590000D03*
%TO.P,U8,13,NC*%
%TO.N,unconnected-(U8-NC-Pad13)*%
X85265000Y-82940000D03*
%TO.P,U8,14,IN-*%
%TO.N,/5V*%
X85265000Y-82290000D03*
%TO.P,U8,15,IN-*%
X85265000Y-81640000D03*
%TO.P,U8,16,IN-*%
X85265000Y-80990000D03*
%TD*%
D16*
%TO.P,C7,1*%
%TO.N,/VDD*%
X112268000Y-114175600D03*
%TO.P,C7,2*%
%TO.N,GND*%
X112268000Y-115135600D03*
%TD*%
D17*
%TO.P,FID2,*%
%TO.N,*%
X125270000Y-50310000D03*
%TD*%
%TO.P,FID4,*%
%TO.N,*%
X132260000Y-139060000D03*
%TD*%
D18*
%TO.P,R13,1*%
%TO.N,/VDD*%
X90649600Y-63569000D03*
%TO.P,R13,2*%
%TO.N,Net-(C45-Pad1)*%
X90649600Y-64589000D03*
%TD*%
D17*
%TO.P,FID3,*%
%TO.N,*%
X78850000Y-139070000D03*
%TD*%
D19*
%TO.P,R6,1*%
%TO.N,GND*%
X122717000Y-115554000D03*
%TO.P,R6,2*%
%TO.N,/BM1366/BI*%
X121697000Y-115554000D03*
%TD*%
D14*
%TO.P,C1,1*%
%TO.N,GND*%
X115730000Y-127810000D03*
%TO.P,C1,2*%
%TO.N,/BM1366/1V8*%
X114770000Y-127810000D03*
%TD*%
D20*
%TO.P,TP38,1,1*%
%TO.N,/BM1366/NRSTO*%
X87071200Y-112699800D03*
%TD*%
D21*
%TO.P,Q4,1,G*%
%TO.N,/ESP32/PWR_EN*%
X111370000Y-70430000D03*
%TO.P,Q4,2,S*%
%TO.N,GND*%
X111370000Y-69130000D03*
%TO.P,Q4,3,D*%
%TO.N,Net-(Q4-D)*%
X109370000Y-69780000D03*
%TD*%
D13*
%TO.P,C41,1*%
%TO.N,Net-(U9-COMP)*%
X98355400Y-63005800D03*
%TO.P,C41,2*%
%TO.N,Net-(C41-Pad2)*%
X96455400Y-63005800D03*
%TD*%
D20*
%TO.P,TP19,1,1*%
%TO.N,/3V3*%
X123610000Y-84120000D03*
%TD*%
D18*
%TO.P,R8,1*%
%TO.N,/3V3*%
X113770000Y-69930000D03*
%TO.P,R8,2*%
%TO.N,/PLUG_SENSE*%
X113770000Y-70950000D03*
%TD*%
D14*
%TO.P,C3,1*%
%TO.N,/BM1366/VDD3_0*%
X114920000Y-107790000D03*
%TO.P,C3,2*%
%TO.N,/BM1366/VDD2_0*%
X113960000Y-107790000D03*
%TD*%
D19*
%TO.P,R5,1*%
%TO.N,GND*%
X85930000Y-100530000D03*
%TO.P,R5,2*%
%TO.N,Net-(J8-CC2)*%
X84910000Y-100530000D03*
%TD*%
D22*
%TO.P,C38,1*%
%TO.N,/5V*%
X93550000Y-95040000D03*
%TO.P,C38,2*%
%TO.N,GND*%
X95450000Y-95040000D03*
%TD*%
D20*
%TO.P,TP35,1,1*%
%TO.N,/BM1366/VDD2_0*%
X111225000Y-99150000D03*
%TD*%
D16*
%TO.P,C25,1*%
%TO.N,/BM1366/0V8*%
X105540000Y-129760000D03*
%TO.P,C25,2*%
%TO.N,GND*%
X105540000Y-130720000D03*
%TD*%
D22*
%TO.P,C45,1*%
%TO.N,Net-(C45-Pad1)*%
X92522000Y-66420000D03*
%TO.P,C45,2*%
%TO.N,/Power/OUT0*%
X94422000Y-66420000D03*
%TD*%
D23*
%TO.P,Y1,1,1*%
%TO.N,/ESP32/XIN32*%
X124017400Y-78349000D03*
%TO.P,Y1,2,2*%
%TO.N,/ESP32/XOUT32*%
X121172600Y-78349000D03*
%TD*%
D20*
%TO.P,TP16,1,1*%
%TO.N,/Fan/FAN_TACH*%
X93610000Y-140380000D03*
%TD*%
%TO.P,TP15,1,1*%
%TO.N,/Fan/FAN_PWM*%
X90300000Y-140410000D03*
%TD*%
D24*
%TO.P,U5,1,VIN*%
%TO.N,/5V*%
X92615500Y-128358000D03*
%TO.P,U5,2,GND*%
%TO.N,GND*%
X92615500Y-129308000D03*
%TO.P,U5,3,EN*%
%TO.N,/5V*%
X92615500Y-130258000D03*
%TO.P,U5,4,PG*%
%TO.N,unconnected-(U5-PG-Pad4)*%
X94890500Y-130258000D03*
%TO.P,U5,5,VOUT*%
%TO.N,/BM1366/1V8*%
X94890500Y-128358000D03*
%TD*%
D22*
%TO.P,C51,1*%
%TO.N,/3V3*%
X130580000Y-84090000D03*
%TO.P,C51,2*%
%TO.N,GND*%
X132480000Y-84090000D03*
%TD*%
D20*
%TO.P,TP8,1,1*%
%TO.N,/BM1366/ADDR0*%
X122470000Y-118660000D03*
%TD*%
%TO.P,TP23,1,1*%
%TO.N,/ESP32/IO0*%
X122556000Y-57528000D03*
%TD*%
D24*
%TO.P,U6,1,VIN*%
%TO.N,/5V*%
X101182500Y-129290000D03*
%TO.P,U6,2,GND*%
%TO.N,GND*%
X101182500Y-130240000D03*
%TO.P,U6,3,EN*%
%TO.N,/5V*%
X101182500Y-131190000D03*
%TO.P,U6,4,PG*%
%TO.N,unconnected-(U6-PG-Pad4)*%
X103457500Y-131190000D03*
%TO.P,U6,5,VOUT*%
%TO.N,/BM1366/0V8*%
X103457500Y-129290000D03*
%TD*%
D20*
%TO.P,TP1,1,1*%
%TO.N,/BM1366/BO*%
X89763600Y-114223800D03*
%TD*%
D25*
%TO.P,C4,1*%
%TO.N,/BM1366/0V8*%
X110210000Y-120130000D03*
%TO.P,C4,2*%
%TO.N,GND*%
X111170000Y-120130000D03*
%TD*%
D20*
%TO.P,TP43,1,1*%
%TO.N,/BM1366/RI*%
X87071200Y-115316000D03*
%TD*%
D26*
%TO.P,U7,1,VDD*%
%TO.N,/3V3*%
X102371800Y-113877200D03*
%TO.P,U7,2,DP*%
%TO.N,unconnected-(U7-DP-Pad2)*%
X101721800Y-113877200D03*
%TO.P,U7,3,DN*%
%TO.N,unconnected-(U7-DN-Pad3)*%
X101071800Y-113877200D03*
%TO.P,U7,4,FAN*%
%TO.N,/Fan/FAN_PWM*%
X100421800Y-113877200D03*
%TO.P,U7,5,GND*%
%TO.N,GND*%
X100421800Y-118177200D03*
%TO.P,U7,6,ALERT/TACH*%
%TO.N,/Fan/FAN_TACH*%
X101071800Y-118177200D03*
%TO.P,U7,7,SMDATA*%
%TO.N,/SDA*%
X101721800Y-118177200D03*
%TO.P,U7,8,SMCLK*%
%TO.N,/SCL*%
X102371800Y-118177200D03*
%TD*%
D14*
%TO.P,C12,1*%
%TO.N,/VDD*%
X99780000Y-104240000D03*
%TO.P,C12,2*%
%TO.N,/BM1366/VDD1_1*%
X98820000Y-104240000D03*
%TD*%
D20*
%TO.P,TP3,1,1*%
%TO.N,/BM1366/RO*%
X122500000Y-107850000D03*
%TD*%
D25*
%TO.P,C52,1*%
%TO.N,/3V3*%
X131050000Y-85700000D03*
%TO.P,C52,2*%
%TO.N,GND*%
X132010000Y-85700000D03*
%TD*%
D19*
%TO.P,R1,1*%
%TO.N,/3V3*%
X127347000Y-101658000D03*
%TO.P,R1,2*%
%TO.N,/ESP32/EN*%
X126327000Y-101658000D03*
%TD*%
D27*
%TO.P,H7,1,1*%
%TO.N,GND*%
X127985010Y-51120990D03*
X128644020Y-49530000D03*
X128644020Y-52711980D03*
X130235010Y-48870990D03*
D28*
X130235010Y-51120990D03*
D27*
X130235010Y-53370990D03*
X131826000Y-49530000D03*
X131826000Y-52711980D03*
X132485010Y-51120990D03*
%TD*%
D29*
%TO.P,C30,1*%
%TO.N,/ESP32/XIN32*%
X124043000Y-76576000D03*
%TO.P,C30,2*%
%TO.N,GND*%
X124043000Y-75616000D03*
%TD*%
D17*
%TO.P,FID1,*%
%TO.N,*%
X78750000Y-55900000D03*
%TD*%
D30*
%TO.P,U2,1,VCCA*%
%TO.N,/BM1366/1V8*%
X115672000Y-97580000D03*
D31*
%TO.P,U2,2,A1*%
%TO.N,/BM1366/RO*%
X114737000Y-98265000D03*
%TO.P,U2,3,A2*%
%TO.N,/BM1366/CI*%
X114737000Y-98765000D03*
%TO.P,U2,4,A3*%
%TO.N,/BM1366/RST_N*%
X114737000Y-99265000D03*
%TO.P,U2,5,A4*%
%TO.N,GND*%
X114737000Y-99765000D03*
%TO.P,U2,6,NC*%
%TO.N,unconnected-(U2-NC-Pad6)*%
X114737000Y-100265000D03*
D30*
%TO.P,U2,7,GND*%
%TO.N,GND*%
X115672000Y-100950000D03*
%TO.P,U2,8,OE*%
%TO.N,/BM1366/1V8*%
X117172000Y-100950000D03*
D31*
%TO.P,U2,9,NC*%
%TO.N,unconnected-(U2-NC-Pad9)*%
X118107000Y-100265000D03*
%TO.P,U2,10,B4*%
%TO.N,GND*%
X118107000Y-99765000D03*
%TO.P,U2,11,B3*%
%TO.N,/RST*%
X118107000Y-99265000D03*
%TO.P,U2,12,B2*%
%TO.N,/TX*%
X118107000Y-98765000D03*
%TO.P,U2,13,B1*%
%TO.N,/RX*%
X118107000Y-98265000D03*
D30*
%TO.P,U2,14,VCCB*%
%TO.N,/3V3*%
X117172000Y-97580000D03*
D32*
%TO.P,U2,15,GND*%
%TO.N,GND*%
X116422000Y-99265000D03*
D33*
%TO.P,U2,16,GND*%
X116922000Y-98765000D03*
%TO.P,U2,17,GND*%
X116922000Y-99765000D03*
%TO.P,U2,18,GND*%
X115922000Y-99765000D03*
%TO.P,U2,19,GND*%
X115922000Y-98765000D03*
%TD*%
D18*
%TO.P,R10,1*%
%TO.N,Net-(C41-Pad2)*%
X94828800Y-63573600D03*
%TO.P,R10,2*%
%TO.N,/Power/OUT0*%
X94828800Y-64593600D03*
%TD*%
D20*
%TO.P,TP42,1,1*%
%TO.N,/BM1366/VDD1_1*%
X87071200Y-106510000D03*
%TD*%
%TO.P,TP17,1,1*%
%TO.N,/ESP32/EN*%
X125500000Y-70190000D03*
%TD*%
D34*
%TO.P,L1,1,1*%
%TO.N,/Power/SW*%
X104570000Y-77870000D03*
%TO.P,L1,2,2*%
%TO.N,/VDD*%
X104570000Y-86190000D03*
%TD*%
D35*
%TO.P,R15,1*%
%TO.N,/Power/OUT0*%
X93465000Y-64589000D03*
%TO.P,R15,2*%
%TO.N,GND*%
X93465000Y-63569000D03*
%TD*%
D14*
%TO.P,C15,1*%
%TO.N,/BM1366/VDD1_1*%
X98490000Y-106040000D03*
%TO.P,C15,2*%
%TO.N,/BM1366/VDD2_1*%
X97530000Y-106040000D03*
%TD*%
D36*
%TO.P,R16,1*%
%TO.N,Net-(U10-FS0)*%
X116330000Y-57110000D03*
%TO.P,R16,2*%
%TO.N,GND*%
X117350000Y-57110000D03*
%TD*%
D27*
%TO.P,H9,1,1*%
%TO.N,GND*%
X128052000Y-143728000D03*
X128711010Y-142137010D03*
X128711010Y-145318990D03*
X130302000Y-141478000D03*
D28*
X130302000Y-143728000D03*
D27*
X130302000Y-145978000D03*
X131892990Y-142137010D03*
X131892990Y-145318990D03*
X132552000Y-143728000D03*
%TD*%
D37*
%TO.P,TP12,1,1*%
%TO.N,GND*%
X84180000Y-75200000D03*
%TD*%
D25*
%TO.P,C16,1*%
%TO.N,Net-(U14-VDDIO_08_1)*%
X103650000Y-121810000D03*
%TO.P,C16,2*%
%TO.N,GND*%
X104610000Y-121810000D03*
%TD*%
D14*
%TO.P,C49,1*%
%TO.N,/3V3*%
X114200000Y-60500000D03*
%TO.P,C49,2*%
%TO.N,GND*%
X113240000Y-60500000D03*
%TD*%
%TO.P,C18,1*%
%TO.N,/BM1366/VDD3_1*%
X96139000Y-109681000D03*
%TO.P,C18,2*%
%TO.N,GND*%
X95179000Y-109681000D03*
%TD*%
D20*
%TO.P,TP18,1,1*%
%TO.N,/ESP32/P_TX*%
X128200000Y-60060000D03*
%TD*%
D13*
%TO.P,C40,1*%
%TO.N,Net-(U9-COMP)*%
X98333000Y-65268000D03*
%TO.P,C40,2*%
%TO.N,/Power/OUT0*%
X96433000Y-65268000D03*
%TD*%
D38*
%TO.P,U10,1,SDA*%
%TO.N,/SDA*%
X112380000Y-59065000D03*
%TO.P,U10,2,SCL*%
%TO.N,/SCL*%
X112380000Y-58415000D03*
%TO.P,U10,3,FS1*%
%TO.N,unconnected-(U10-FS1-Pad3)*%
X112380000Y-57765000D03*
%TO.P,U10,4,GND*%
%TO.N,GND*%
X112380000Y-57115000D03*
%TO.P,U10,5,FS0*%
%TO.N,Net-(U10-FS0)*%
X108080000Y-57115000D03*
%TO.P,U10,6,OUT0*%
%TO.N,/Power/OUT0*%
X108080000Y-57765000D03*
%TO.P,U10,7,OUT1*%
%TO.N,/Power/OUT1*%
X108080000Y-58415000D03*
%TO.P,U10,8,VCC*%
%TO.N,/3V3*%
X108080000Y-59065000D03*
%TD*%
D20*
%TO.P,TP36,1,1*%
%TO.N,/BM1366/VDD3_0*%
X116870000Y-105550000D03*
%TD*%
D25*
%TO.P,C39,1*%
%TO.N,Net-(Q4-D)*%
X104650000Y-67450000D03*
%TO.P,C39,2*%
%TO.N,GND*%
X105610000Y-67450000D03*
%TD*%
D39*
%TO.P,J6,1,Pin_1*%
%TO.N,/5V*%
X99171505Y-51054000D03*
D40*
%TO.P,J6,2,Pin_2*%
%TO.N,GND*%
X101711505Y-51054000D03*
%TO.P,J6,3,Pin_3*%
%TO.N,Net-(J6-Pin_3)*%
X104251505Y-51054000D03*
%TO.P,J6,4,Pin_4*%
%TO.N,Net-(J6-Pin_4)*%
X106791505Y-51054000D03*
%TO.P,J6,5,Pin_5*%
%TO.N,Net-(J6-Pin_5)*%
X109331505Y-51054000D03*
%TO.P,J6,6,Pin_6*%
%TO.N,Net-(J6-Pin_6)*%
X111871505Y-51054000D03*
%TD*%
D20*
%TO.P,TP44,1,1*%
%TO.N,/BM1366/CLKO*%
X89763600Y-116840000D03*
%TD*%
D27*
%TO.P,H10,1,1*%
%TO.N,GND*%
X78455010Y-143830990D03*
X79114020Y-142240000D03*
X79114020Y-145421980D03*
X80705010Y-141580990D03*
D28*
X80705010Y-143830990D03*
D27*
X80705010Y-146080990D03*
X82296000Y-142240000D03*
X82296000Y-145421980D03*
X82955010Y-143830990D03*
%TD*%
D29*
%TO.P,C31,1*%
%TO.N,/ESP32/XOUT32*%
X121159000Y-76585000D03*
%TO.P,C31,2*%
%TO.N,GND*%
X121159000Y-75625000D03*
%TD*%
D37*
%TO.P,TP5,1,1*%
%TO.N,/Power/VIN*%
X84150000Y-62350000D03*
%TD*%
D25*
%TO.P,C35,1*%
%TO.N,/3V3*%
X82890000Y-89480000D03*
%TO.P,C35,2*%
%TO.N,GND*%
X83850000Y-89480000D03*
%TD*%
D16*
%TO.P,C10,1*%
%TO.N,/VDD*%
X108712000Y-114201000D03*
%TO.P,C10,2*%
%TO.N,GND*%
X108712000Y-115161000D03*
%TD*%
%TO.P,C11,1*%
%TO.N,/VDD*%
X111150400Y-114226400D03*
%TO.P,C11,2*%
%TO.N,GND*%
X111150400Y-115186400D03*
%TD*%
D18*
%TO.P,R14,1*%
%TO.N,/VDD*%
X92057300Y-63569000D03*
%TO.P,R14,2*%
%TO.N,/Power/OUT0*%
X92057300Y-64589000D03*
%TD*%
D25*
%TO.P,C14,1*%
%TO.N,Net-(U14-VDDIO_18_1)*%
X103670000Y-120660000D03*
%TO.P,C14,2*%
%TO.N,GND*%
X104630000Y-120660000D03*
%TD*%
D41*
%TO.P,C13,1*%
%TO.N,/VDD*%
X105600000Y-111360000D03*
%TO.P,C13,2*%
%TO.N,GND*%
X105600000Y-117760000D03*
%TD*%
D42*
%TO.P,Q2,1*%
%TO.N,GND*%
X95751600Y-82862700D03*
%TO.P,Q2,2*%
X97049900Y-82862700D03*
%TO.P,Q2,3,S*%
X98313300Y-82862700D03*
%TO.P,Q2,4,G*%
%TO.N,Net-(Q2-G)*%
X99611600Y-82862700D03*
D43*
%TO.P,Q2,5,D*%
%TO.N,/Power/SW*%
X99961600Y-81957700D03*
%TD*%
D29*
%TO.P,C33,1*%
%TO.N,/3V3*%
X101590000Y-111050000D03*
%TO.P,C33,2*%
%TO.N,GND*%
X101590000Y-110090000D03*
%TD*%
D36*
%TO.P,R2,1*%
%TO.N,/Fan/FAN_TACH*%
X92560000Y-136980000D03*
%TO.P,R2,2*%
%TO.N,/3V3*%
X93580000Y-136980000D03*
%TD*%
D20*
%TO.P,TP41,1,1*%
%TO.N,/BM1366/VDD2_1*%
X89763600Y-108130000D03*
%TD*%
%TO.P,TP2,1,1*%
%TO.N,/BM1366/CI*%
X122500000Y-105000000D03*
%TD*%
D25*
%TO.P,C44,1*%
%TO.N,/3V3*%
X113880000Y-58540000D03*
%TO.P,C44,2*%
%TO.N,GND*%
X114840000Y-58540000D03*
%TD*%
D20*
%TO.P,TP34,1,1*%
%TO.N,/BM1366/VDD1_0*%
X110075000Y-101700000D03*
%TD*%
%TO.P,TP46,1,1*%
%TO.N,/BM1366/PIN_MODE*%
X87071200Y-120827800D03*
%TD*%
D27*
%TO.P,H8,1,1*%
%TO.N,GND*%
X78558000Y-51054000D03*
X79217010Y-49463010D03*
X79217010Y-52644990D03*
X80808000Y-48804000D03*
D28*
X80808000Y-51054000D03*
D27*
X80808000Y-53304000D03*
X82398990Y-49463010D03*
X82398990Y-52644990D03*
X83058000Y-51054000D03*
%TD*%
D25*
%TO.P,C22,1*%
%TO.N,/5V*%
X93253000Y-131818000D03*
%TO.P,C22,2*%
%TO.N,GND*%
X94213000Y-131818000D03*
%TD*%
D20*
%TO.P,TP10,1,1*%
%TO.N,/BM1366/ADDR1*%
X122500000Y-121680000D03*
%TD*%
D14*
%TO.P,C21,1*%
%TO.N,/ESP32/EN*%
X124370000Y-101660000D03*
%TO.P,C21,2*%
%TO.N,GND*%
X123410000Y-101660000D03*
%TD*%
%TO.P,C6,1*%
%TO.N,/BM1366/VDD2_0*%
X113620000Y-106030000D03*
%TO.P,C6,2*%
%TO.N,/BM1366/VDD1_0*%
X112660000Y-106030000D03*
%TD*%
D44*
%TO.P,C46,1*%
%TO.N,/VDD*%
X103851600Y-89640200D03*
%TO.P,C46,2*%
%TO.N,GND*%
X100851600Y-89640200D03*
%TD*%
D42*
%TO.P,Q1,1*%
%TO.N,/Power/SW*%
X93649887Y-77313864D03*
%TO.P,Q1,2*%
X92351587Y-77313864D03*
%TO.P,Q1,3,S*%
X91088187Y-77313864D03*
%TO.P,Q1,4,G*%
%TO.N,Net-(Q1-G)*%
X89789887Y-77313864D03*
D45*
%TO.P,Q1,5,D*%
%TO.N,/5V*%
X89439887Y-78218864D03*
%TD*%
D25*
%TO.P,C42,1*%
%TO.N,Net-(U9-BOOT)*%
X96189800Y-73128000D03*
%TO.P,C42,2*%
%TO.N,/Power/SW*%
X97149800Y-73128000D03*
%TD*%
D20*
%TO.P,TP7,1,1*%
%TO.N,/BM1366/CLKI*%
X115560000Y-121710000D03*
%TD*%
D46*
%TO.P,C34,1*%
%TO.N,/5V*%
X92806600Y-85410000D03*
%TO.P,C34,2*%
%TO.N,GND*%
X95756600Y-85410000D03*
%TD*%
D20*
%TO.P,TP40,1,1*%
%TO.N,/BM1366/VDD3_1*%
X87071200Y-109740000D03*
%TD*%
D47*
%TO.P,U1,1,EN*%
%TO.N,/BM1366/1V8*%
X116140000Y-126170000D03*
%TO.P,U1,2,GND*%
%TO.N,GND*%
X116140000Y-123870000D03*
%TO.P,U1,3,OUT*%
%TO.N,/BM1366/CLKI*%
X114240000Y-123870000D03*
%TO.P,U1,4,VIN*%
%TO.N,/BM1366/1V8*%
X114240000Y-126170000D03*
%TD*%
D20*
%TO.P,TP13,1,1*%
%TO.N,/BM1366/1V8*%
X98473000Y-127736000D03*
%TD*%
D36*
%TO.P,R12,1*%
%TO.N,Net-(Q2-G)*%
X98650200Y-73123400D03*
%TO.P,R12,2*%
%TO.N,GND*%
X99670200Y-73123400D03*
%TD*%
D19*
%TO.P,R4,1*%
%TO.N,/3V3*%
X110465000Y-71760000D03*
%TO.P,R4,2*%
%TO.N,/Power/PGOOD*%
X109445000Y-71760000D03*
%TD*%
D14*
%TO.P,C2,1*%
%TO.N,GND*%
X116020000Y-109624000D03*
%TO.P,C2,2*%
%TO.N,/BM1366/VDD3_0*%
X115060000Y-109624000D03*
%TD*%
D36*
%TO.P,R7,1*%
%TO.N,/3V3*%
X109340000Y-74410000D03*
%TO.P,R7,2*%
%TO.N,/ESP32/PWR_EN*%
X110360000Y-74410000D03*
%TD*%
D25*
%TO.P,C23,1*%
%TO.N,/5V*%
X101730000Y-132610000D03*
%TO.P,C23,2*%
%TO.N,GND*%
X102690000Y-132610000D03*
%TD*%
D20*
%TO.P,TP6,1,1*%
%TO.N,/BM1366/INV_CLKO*%
X89763600Y-119507000D03*
%TD*%
D14*
%TO.P,C5,1*%
%TO.N,/BM1366/1V8*%
X113420000Y-120090000D03*
%TO.P,C5,2*%
%TO.N,GND*%
X112460000Y-120090000D03*
%TD*%
D20*
%TO.P,TP9,1,1*%
%TO.N,/BM1366/BI*%
X122500000Y-113430000D03*
%TD*%
D35*
%TO.P,R9,1*%
%TO.N,/Fan/FAN_PWM*%
X100460000Y-112090000D03*
%TO.P,R9,2*%
%TO.N,/3V3*%
X100460000Y-111070000D03*
%TD*%
D14*
%TO.P,C17,1*%
%TO.N,/BM1366/VDD2_1*%
X97210000Y-107780000D03*
%TO.P,C17,2*%
%TO.N,/BM1366/VDD3_1*%
X96250000Y-107780000D03*
%TD*%
%TO.P,C8,1*%
%TO.N,/BM1366/VDD1_0*%
X112290000Y-104240000D03*
%TO.P,C8,2*%
%TO.N,/VDD*%
X111330000Y-104240000D03*
%TD*%
%TO.P,C29,1*%
%TO.N,/5V*%
X98040000Y-137640000D03*
%TO.P,C29,2*%
%TO.N,GND*%
X97080000Y-137640000D03*
%TD*%
D20*
%TO.P,TP14,1,1*%
%TO.N,/BM1366/0V8*%
X107830000Y-129200000D03*
%TD*%
%TO.P,TP45,1,1*%
%TO.N,/BM1366/CO*%
X87071200Y-117983000D03*
%TD*%
D19*
%TO.P,R3,1*%
%TO.N,GND*%
X85920000Y-102000000D03*
%TO.P,R3,2*%
%TO.N,Net-(J8-CC1)*%
X84900000Y-102000000D03*
%TD*%
D25*
%TO.P,C27,1*%
%TO.N,/5V*%
X111051000Y-65931000D03*
%TO.P,C27,2*%
%TO.N,GND*%
X112011000Y-65931000D03*
%TD*%
D20*
%TO.P,TP22,1,1*%
%TO.N,/ESP32/P_RX*%
X123640000Y-61510000D03*
%TD*%
D25*
%TO.P,C20,1*%
%TO.N,/3V3*%
X112095000Y-95745000D03*
%TO.P,C20,2*%
%TO.N,GND*%
X113055000Y-95745000D03*
%TD*%
D48*
%TO.P,C47,1*%
%TO.N,/VDD*%
X103786600Y-92610200D03*
%TO.P,C47,2*%
%TO.N,GND*%
X100836600Y-92610200D03*
%TD*%
D16*
%TO.P,C24,1*%
%TO.N,/BM1366/1V8*%
X96763000Y-128638000D03*
%TO.P,C24,2*%
%TO.N,GND*%
X96763000Y-129598000D03*
%TD*%
D46*
%TO.P,C36,1*%
%TO.N,/5V*%
X92785000Y-88870000D03*
%TO.P,C36,2*%
%TO.N,GND*%
X95735000Y-88870000D03*
%TD*%
D16*
%TO.P,C9,1*%
%TO.N,/VDD*%
X109982000Y-114230000D03*
%TO.P,C9,2*%
%TO.N,GND*%
X109982000Y-115190000D03*
%TD*%
D49*
%TO.P,U11,1,VIN*%
%TO.N,/5V*%
X111185050Y-62440200D03*
%TO.P,U11,2,GND*%
%TO.N,GND*%
X111185050Y-63380000D03*
%TO.P,U11,3,EN*%
%TO.N,/5V*%
X111185050Y-64319800D03*
%TO.P,U11,4,NC*%
%TO.N,unconnected-(U11-NC-Pad4)*%
X113940950Y-64319800D03*
%TO.P,U11,5,VOUT*%
%TO.N,/3V3*%
X113940950Y-62440200D03*
%TD*%
D20*
%TO.P,TP4,1,1*%
%TO.N,/BM1366/RST_N*%
X122500000Y-110650000D03*
%TD*%
D46*
%TO.P,C37,1*%
%TO.N,/5V*%
X92745000Y-92320000D03*
%TO.P,C37,2*%
%TO.N,GND*%
X95695000Y-92320000D03*
%TD*%
D50*
%TO.P,J4,1,Pin_1*%
%TO.N,GND*%
X89621000Y-143622000D03*
%TO.P,J4,2,Pin_2*%
%TO.N,/5V*%
X92161000Y-143622000D03*
%TO.P,J4,3,Pin_3*%
%TO.N,/Fan/FAN_TACH*%
X94701000Y-143622000D03*
%TO.P,J4,4,Pin_4*%
%TO.N,/Fan/FAN_PWM*%
X97241000Y-143622000D03*
%TD*%
D51*
%TO.P,J9,1,Pin_1*%
%TO.N,GND*%
X87005000Y-50292000D03*
D40*
%TO.P,J9,2,Pin_2*%
%TO.N,/3V3*%
X87405000Y-52832000D03*
%TO.P,J9,3,Pin_3*%
%TO.N,/SCL*%
X87005000Y-55372000D03*
%TO.P,J9,4,Pin_4*%
%TO.N,/SDA*%
X87405000Y-57912000D03*
%TD*%
D52*
%TO.P,J8,S1,SHIELD*%
%TO.N,GND*%
X79790000Y-87580000D03*
D53*
X83970000Y-87580000D03*
D52*
X79790000Y-78940000D03*
D53*
X83970000Y-78940000D03*
%TD*%
D54*
%TO.N,GND*%
X103190000Y-69390000D03*
X95758000Y-70612000D03*
D55*
X89840000Y-72570000D03*
D54*
X97490000Y-94550000D03*
D55*
X88000000Y-72550000D03*
X88000000Y-75360000D03*
D54*
X100850600Y-73131400D03*
D55*
X90678000Y-71180000D03*
D54*
X116910000Y-128990000D03*
D56*
X116540000Y-70920000D03*
D55*
X88866000Y-71180000D03*
D54*
X99060000Y-95504000D03*
D55*
X88900000Y-73990000D03*
D54*
X125600000Y-65940000D03*
X96600000Y-112710000D03*
X82620000Y-83780000D03*
D55*
X90680000Y-73990000D03*
D54*
X98530000Y-94570000D03*
X112460000Y-69350000D03*
X99510000Y-94570000D03*
X103886000Y-70358000D03*
X106396000Y-118533000D03*
X97028000Y-95504000D03*
X111140000Y-118640000D03*
X118430000Y-57150000D03*
X98044000Y-95504000D03*
D55*
X84340000Y-72470000D03*
D54*
X104082000Y-115436000D03*
X96070000Y-137650000D03*
X101092000Y-95504000D03*
X98530000Y-118780000D03*
X85920000Y-103290000D03*
X106408000Y-116351000D03*
X128120000Y-55550000D03*
D55*
X85242000Y-71180000D03*
D56*
X100765000Y-145890000D03*
D54*
X94890000Y-62470000D03*
X97550000Y-96520000D03*
X105673000Y-117442000D03*
X100600000Y-96510000D03*
X124109000Y-115539000D03*
D56*
X117910000Y-70950000D03*
D54*
X99584000Y-96510000D03*
X117602000Y-123903000D03*
X101779000Y-71402000D03*
X104855000Y-118563000D03*
X104132000Y-117472000D03*
D55*
X83430000Y-71180000D03*
D54*
X121210000Y-74547000D03*
X96534000Y-96520000D03*
X80837800Y-83578425D03*
X102500000Y-70390000D03*
X94160000Y-70610000D03*
X100076000Y-95504000D03*
X107144000Y-117442000D03*
X90897000Y-129309000D03*
X114140000Y-95310000D03*
X112512000Y-61250000D03*
X105623000Y-115406000D03*
X100600000Y-94570000D03*
X104867000Y-116381000D03*
X101010000Y-70410000D03*
X104600000Y-71380000D03*
D56*
X119454234Y-70914234D03*
D54*
X105330000Y-132320000D03*
X104430000Y-130240000D03*
X114030000Y-57490000D03*
D56*
X126380000Y-83110000D03*
D54*
X98568000Y-96510000D03*
D55*
X87054000Y-71180000D03*
D54*
X115573700Y-102188000D03*
X122620000Y-100670000D03*
D55*
X86090000Y-72500000D03*
X89840000Y-75330000D03*
D54*
X103210000Y-71420000D03*
X101570000Y-108460000D03*
X132297000Y-108743000D03*
X95260000Y-132630000D03*
X107094000Y-115406000D03*
X115099642Y-112550642D03*
D55*
%TO.N,/Power/VIN*%
X83520000Y-67100000D03*
X80008000Y-65208000D03*
X87330000Y-68960000D03*
X78232000Y-68834000D03*
X81786000Y-65208000D03*
X81758000Y-66826000D03*
X89140000Y-65208000D03*
X87330000Y-67100000D03*
X83520000Y-65208000D03*
X89140000Y-67100000D03*
X78232000Y-66826000D03*
X87330000Y-65208000D03*
X89140000Y-68960000D03*
X85552000Y-67100000D03*
X85552000Y-65208000D03*
X78232000Y-65208000D03*
X79980000Y-66826000D03*
X83520000Y-68960000D03*
X85552000Y-68960000D03*
D54*
%TO.N,/BM1366/1V8*%
X114890000Y-96560000D03*
X117172000Y-102173000D03*
X109410000Y-126170000D03*
%TO.N,/BM1366/INV_CLKO*%
X92430600Y-118795800D03*
%TO.N,/VDD*%
X121149900Y-66170000D03*
X103000000Y-104240000D03*
X105152000Y-113890000D03*
D55*
X106685000Y-103175000D03*
X106725000Y-105305000D03*
D54*
X104126000Y-113110000D03*
X108330000Y-104270000D03*
X107204000Y-113920000D03*
D55*
X106725000Y-107275000D03*
D54*
X106178000Y-113110000D03*
D55*
X104695000Y-103175000D03*
X104695000Y-101135000D03*
X106665000Y-101155000D03*
X104745000Y-107305000D03*
X104715000Y-105285000D03*
D54*
%TO.N,/ESP32/EN*%
X126293000Y-104178000D03*
X125650000Y-67760000D03*
X122101300Y-70905000D03*
%TO.N,/5V*%
X88883000Y-131168000D03*
X90881000Y-131182000D03*
X100400000Y-66800000D03*
D55*
X109280000Y-61185155D03*
D54*
X98450000Y-131200000D03*
D55*
X87480000Y-79100000D03*
D54*
X98770000Y-138720000D03*
%TO.N,/3V3*%
X80805000Y-89525000D03*
X110500000Y-73050000D03*
X111925000Y-96665000D03*
X127766000Y-100521000D03*
X129610000Y-55490000D03*
D56*
X126000000Y-84500000D03*
D54*
X123394000Y-86260000D03*
X94490000Y-136740000D03*
X117000534Y-96509102D03*
D55*
X111440000Y-55180000D03*
D54*
X114190000Y-59500000D03*
X82180000Y-84800000D03*
X81790000Y-104050000D03*
X113750000Y-68810000D03*
X100390000Y-109720000D03*
X110950000Y-57470000D03*
D56*
X115370000Y-61560000D03*
D54*
X78550000Y-93640000D03*
%TO.N,/TX*%
X114330000Y-79470000D03*
%TO.N,/RX*%
X113000000Y-79462500D03*
%TO.N,/BM1366/VDD3_0*%
X115070000Y-111160000D03*
%TO.N,/BM1366/VDD2_0*%
X112530000Y-107800000D03*
%TO.N,/RST*%
X121437000Y-70037900D03*
%TO.N,/BM1366/PIN_MODE*%
X91480645Y-121097045D03*
%TO.N,/SCL*%
X100890000Y-60020000D03*
X85380000Y-123600000D03*
X106610000Y-59449183D03*
X87560000Y-85090000D03*
X97680000Y-121690000D03*
%TO.N,/Power/OUT0*%
X96210000Y-67920000D03*
X98310000Y-59870000D03*
%TO.N,/BM1366/0V8*%
X110180000Y-121260000D03*
X103530000Y-127490000D03*
%TO.N,/BM1366/VDD1_0*%
X111250000Y-106010000D03*
%TO.N,/BM1366/VDD1_1*%
X98602800Y-107213400D03*
%TO.N,/BM1366/VDD2_1*%
X97409000Y-108966000D03*
%TO.N,/BM1366/VDD3_1*%
X96130000Y-110920000D03*
%TO.N,Net-(Q4-D)*%
X105330000Y-64740000D03*
X103940000Y-66630000D03*
%TO.N,Net-(U9-BOOT)*%
X94690000Y-73240000D03*
X96200000Y-74090000D03*
%TO.N,/BM1366/CI*%
X118085000Y-108745000D03*
X112970000Y-98790000D03*
%TO.N,/BM1366/RO*%
X112962000Y-97645000D03*
X118150000Y-110880000D03*
%TO.N,/BM1366/RST_N*%
X116920000Y-114090000D03*
X111948000Y-102053000D03*
%TO.N,Net-(Q2-G)*%
X100990000Y-82811400D03*
X102630000Y-74620000D03*
%TO.N,/BM1366/RI*%
X95070000Y-114990000D03*
%TO.N,/BM1366/CLKI*%
X114844000Y-116495900D03*
%TO.N,/BM1366/NRSTO*%
X95050000Y-112699800D03*
%TO.N,/BM1366/BO*%
X95030000Y-113880000D03*
%TO.N,/BM1366/CLKO*%
X95030000Y-116240000D03*
%TO.N,/BM1366/CO*%
X94996000Y-117551200D03*
%TO.N,/ESP32/P_TX*%
X125466555Y-60033445D03*
%TO.N,/ESP32/P_RX*%
X123040000Y-59730000D03*
%TO.N,/ESP32/IO0*%
X124830000Y-55100000D03*
X121828800Y-67530000D03*
X123719000Y-98362000D03*
%TO.N,/ESP32/XIN32*%
X122670000Y-78400000D03*
%TO.N,/BM1366/ADDR0*%
X120680000Y-118590000D03*
%TO.N,/ESP32/XOUT32*%
X119660000Y-78360000D03*
%TO.N,/Power/PGOOD*%
X104940000Y-73540000D03*
%TO.N,/ESP32/PWR_EN*%
X110990000Y-75660000D03*
%TO.N,/SDA*%
X86450000Y-123620000D03*
X86858711Y-86240000D03*
X95850000Y-121520000D03*
X103670000Y-60270000D03*
%TO.N,/BM1366/BI*%
X115590000Y-115040000D03*
%TO.N,/PLUG_SENSE*%
X113800000Y-71990000D03*
X89110000Y-60840000D03*
X102440000Y-60880000D03*
%TO.N,/BM1366/ADDR1*%
X120500000Y-120710000D03*
%TO.N,Net-(J8-CC1)*%
X82960000Y-102010000D03*
%TO.N,Net-(J8-CC2)*%
X81963140Y-100574802D03*
%TO.N,Net-(U14-VDDIO_18_1)*%
X102550000Y-120650000D03*
%TO.N,Net-(U14-VDDIO_08_1)*%
X102590000Y-121850000D03*
%TD*%
D57*
%TO.N,GND*%
X90897000Y-129309000D02*
X90898000Y-129308000D01*
X112513000Y-63759000D02*
X112513000Y-65429000D01*
X96763000Y-129768000D02*
X96763000Y-131278000D01*
X112513000Y-65429000D02*
X112011000Y-65931000D01*
D58*
X116910000Y-128210000D02*
X116910000Y-128990000D01*
D57*
X111189050Y-63376000D02*
X111185050Y-63380000D01*
D58*
X101590000Y-110090000D02*
X101590000Y-108480000D01*
X121159000Y-74598000D02*
X121210000Y-74547000D01*
X112380000Y-57115000D02*
X113655000Y-57115000D01*
X83080000Y-84240000D02*
X82620000Y-83780000D01*
D57*
X117602000Y-123903000D02*
X117569000Y-123870000D01*
D58*
X115130000Y-103060000D02*
X115130000Y-102631700D01*
D59*
X84180000Y-75200000D02*
X84180000Y-72630000D01*
D57*
X115573700Y-102188000D02*
X115573700Y-101048300D01*
D58*
X122717000Y-115554000D02*
X124094000Y-115554000D01*
D57*
X102860000Y-132610000D02*
X105040000Y-132610000D01*
D58*
X115130000Y-102631700D02*
X115573700Y-102188000D01*
X114840000Y-58300000D02*
X114030000Y-57490000D01*
X112460000Y-120090000D02*
X112460000Y-118820000D01*
X100842600Y-73123400D02*
X100850600Y-73131400D01*
D57*
X83850000Y-87700000D02*
X83970000Y-87580000D01*
D58*
X104914000Y-68586000D02*
X104914000Y-69487000D01*
X118390000Y-57110000D02*
X117350000Y-57110000D01*
X121168000Y-75616000D02*
X121159000Y-75625000D01*
X104610000Y-120680000D02*
X104630000Y-120660000D01*
X116020000Y-109624000D02*
X116020000Y-111630284D01*
D57*
X112512000Y-61250000D02*
X112512000Y-60898000D01*
X95461000Y-132620000D02*
X95015000Y-132620000D01*
D58*
X94890000Y-62470000D02*
X94564000Y-62470000D01*
X115900000Y-127810000D02*
X116510000Y-127810000D01*
X105610000Y-67450000D02*
X105610000Y-67890000D01*
D57*
X126380000Y-83110000D02*
X126680000Y-82810000D01*
D58*
X104610000Y-121810000D02*
X104610000Y-120680000D01*
D57*
X105540000Y-132110000D02*
X105540000Y-130890000D01*
X117569000Y-123870000D02*
X116140000Y-123870000D01*
D58*
X80826225Y-83590000D02*
X80837800Y-83578425D01*
X124094000Y-115554000D02*
X124109000Y-115539000D01*
D57*
X96783000Y-131298000D02*
X95461000Y-132620000D01*
D58*
X104630000Y-120660000D02*
X104630000Y-118788000D01*
D57*
X112513000Y-63759000D02*
X112513000Y-61251000D01*
D58*
X121159000Y-75625000D02*
X121159000Y-74598000D01*
D57*
X131200000Y-82810000D02*
X132480000Y-84090000D01*
X101182500Y-130240000D02*
X104430000Y-130240000D01*
X112910000Y-60500000D02*
X113240000Y-60500000D01*
X105040000Y-132610000D02*
X105540000Y-132110000D01*
X83850000Y-89480000D02*
X83850000Y-87700000D01*
D58*
X115876000Y-103365000D02*
X115435000Y-103365000D01*
D57*
X112130000Y-63376000D02*
X111189050Y-63376000D01*
D58*
X114840000Y-58540000D02*
X114840000Y-58300000D01*
X122620000Y-100870000D02*
X123410000Y-101660000D01*
X112240000Y-69130000D02*
X111370000Y-69130000D01*
X118107000Y-99765000D02*
X116922000Y-99765000D01*
X101590000Y-108480000D02*
X101570000Y-108460000D01*
X85920000Y-102000000D02*
X85920000Y-103290000D01*
X96600000Y-112710000D02*
X95179000Y-111289000D01*
X115435000Y-103365000D02*
X115130000Y-103060000D01*
X79540000Y-83590000D02*
X80826225Y-83590000D01*
D57*
X114140000Y-95310000D02*
X113705000Y-95745000D01*
X112512000Y-60898000D02*
X112910000Y-60500000D01*
D58*
X104630000Y-118788000D02*
X104855000Y-118563000D01*
X95179000Y-111289000D02*
X95179000Y-109681000D01*
X79540000Y-82940000D02*
X79540000Y-84240000D01*
X114737000Y-99765000D02*
X115922000Y-99765000D01*
X116020000Y-111630284D02*
X115099642Y-112550642D01*
X118430000Y-57150000D02*
X118390000Y-57110000D01*
X85930000Y-101990000D02*
X85920000Y-102000000D01*
D57*
X115573700Y-101048300D02*
X115672000Y-100950000D01*
X90898000Y-129308000D02*
X92615500Y-129308000D01*
D58*
X105610000Y-67890000D02*
X104914000Y-68586000D01*
X111170000Y-120130000D02*
X111170000Y-118670000D01*
D57*
X95015000Y-132620000D02*
X94213000Y-131818000D01*
X132010000Y-84560000D02*
X132010000Y-85700000D01*
D58*
X85265000Y-84240000D02*
X83080000Y-84240000D01*
X112460000Y-118820000D02*
X112400000Y-118760000D01*
D57*
X126680000Y-82810000D02*
X131200000Y-82810000D01*
D58*
X94564000Y-62470000D02*
X93465000Y-63569000D01*
X113655000Y-57115000D02*
X114030000Y-57490000D01*
X122620000Y-100670000D02*
X122620000Y-100870000D01*
X97070000Y-137650000D02*
X97080000Y-137640000D01*
X116510000Y-127810000D02*
X116910000Y-128210000D01*
X111170000Y-118670000D02*
X111140000Y-118640000D01*
D59*
X84180000Y-72630000D02*
X84340000Y-72470000D01*
D57*
X112513000Y-61251000D02*
X112512000Y-61250000D01*
D58*
X99670200Y-73123400D02*
X100842600Y-73123400D01*
D57*
X96763000Y-131278000D02*
X96783000Y-131298000D01*
D58*
X112460000Y-69350000D02*
X112240000Y-69130000D01*
D57*
X113705000Y-95745000D02*
X113055000Y-95745000D01*
X112513000Y-63759000D02*
X112130000Y-63376000D01*
X132480000Y-84090000D02*
X132010000Y-84560000D01*
D58*
X85930000Y-100530000D02*
X85930000Y-101990000D01*
X96070000Y-137650000D02*
X97070000Y-137650000D01*
X124043000Y-75616000D02*
X121168000Y-75616000D01*
%TO.N,/Power/VIN*%
X83540000Y-83590000D02*
X82000000Y-82050000D01*
D59*
X84150000Y-62350000D02*
X84150000Y-64578000D01*
D58*
X85265000Y-83590000D02*
X83540000Y-83590000D01*
D59*
X84150000Y-64578000D02*
X83520000Y-65208000D01*
D57*
%TO.N,/BM1366/1V8*%
X94890500Y-128358000D02*
X96653000Y-128358000D01*
X117172000Y-102173000D02*
X117172000Y-100950000D01*
X96653000Y-127217000D02*
X97700000Y-126170000D01*
D58*
X117160000Y-103041000D02*
X117160000Y-102185000D01*
D57*
X115337000Y-96560000D02*
X115672000Y-96895000D01*
X117000000Y-111790000D02*
X117000000Y-107980000D01*
D58*
X116140000Y-126170000D02*
X114240000Y-126170000D01*
D57*
X96653000Y-128358000D02*
X96763000Y-128468000D01*
D58*
X98473000Y-127736000D02*
X97709000Y-128500000D01*
D57*
X118650000Y-106330000D02*
X118650000Y-102428000D01*
X118650000Y-102428000D02*
X117172000Y-100950000D01*
X96653000Y-128358000D02*
X96653000Y-127217000D01*
X112480000Y-122700000D02*
X112480000Y-126170000D01*
X114600000Y-127810000D02*
X114250000Y-127460000D01*
D58*
X97709000Y-128500000D02*
X97020000Y-128500000D01*
D57*
X114250000Y-126180000D02*
X114240000Y-126170000D01*
X113630000Y-115160000D02*
X117000000Y-111790000D01*
X113630000Y-121090000D02*
X113630000Y-115160000D01*
D58*
X116836000Y-103365000D02*
X117160000Y-103041000D01*
D57*
X113630000Y-121090000D02*
X112480000Y-122240000D01*
X114890000Y-96560000D02*
X115337000Y-96560000D01*
X114250000Y-127460000D02*
X114250000Y-126180000D01*
X97700000Y-126170000D02*
X112480000Y-126170000D01*
X112480000Y-122240000D02*
X112480000Y-122700000D01*
D58*
X117160000Y-102185000D02*
X117172000Y-102173000D01*
D57*
X117000000Y-107980000D02*
X118650000Y-106330000D01*
X115672000Y-96895000D02*
X115672000Y-97580000D01*
X112480000Y-126170000D02*
X114240000Y-126170000D01*
D58*
%TO.N,/BM1366/INV_CLKO*%
X92430600Y-118795800D02*
X91719400Y-119507000D01*
X91719400Y-119507000D02*
X89560400Y-119507000D01*
%TO.N,/VDD*%
X90649600Y-63569000D02*
X92057300Y-63569000D01*
X105690000Y-61790000D02*
X104111983Y-61790000D01*
X114620000Y-67970000D02*
X114620000Y-75430000D01*
X108360000Y-104240000D02*
X111160000Y-104240000D01*
X111140000Y-84370000D02*
X109428600Y-86081400D01*
X104111383Y-61790600D02*
X91939400Y-61790600D01*
X120229900Y-67090000D02*
X112510000Y-67090000D01*
X103000000Y-104240000D02*
X99950000Y-104240000D01*
X113740000Y-67090000D02*
X114620000Y-67970000D01*
X114620000Y-75430000D02*
X111140000Y-78910000D01*
X110990000Y-67090000D02*
X105690000Y-61790000D01*
X121149900Y-66170000D02*
X120229900Y-67090000D01*
X112510000Y-67090000D02*
X110990000Y-67090000D01*
X91939400Y-61790600D02*
X90649600Y-63080400D01*
X112510000Y-67090000D02*
X113740000Y-67090000D01*
X90649600Y-63080400D02*
X90649600Y-63569000D01*
X111140000Y-78910000D02*
X111140000Y-84370000D01*
X109428600Y-86081400D02*
X106000600Y-86081400D01*
X104111983Y-61790000D02*
X104111383Y-61790600D01*
X108330000Y-104270000D02*
X108360000Y-104240000D01*
%TO.N,/ESP32/EN*%
X124370000Y-101660000D02*
X125360000Y-101660000D01*
X126325000Y-101660000D02*
X126327000Y-101658000D01*
X125360000Y-101660000D02*
X126325000Y-101660000D01*
X125650000Y-67760000D02*
X125500000Y-67910000D01*
X125500000Y-67910000D02*
X125500000Y-70190000D01*
X118023600Y-93630600D02*
X118023600Y-74866400D01*
X126260600Y-104145600D02*
X126260600Y-101724400D01*
X126293000Y-104178000D02*
X126260600Y-104145600D01*
X118023600Y-74866400D02*
X121985000Y-70905000D01*
X125360000Y-100967000D02*
X118023600Y-93630600D01*
X121985000Y-70905000D02*
X122101300Y-70905000D01*
X126260600Y-101724400D02*
X126327000Y-101658000D01*
X125360000Y-101660000D02*
X125360000Y-100967000D01*
%TO.N,/5V*%
X98500000Y-137640000D02*
X98770000Y-137910000D01*
X111051000Y-64453850D02*
X111185050Y-64319800D01*
D57*
X99110000Y-129300000D02*
X98450000Y-129960000D01*
X89893000Y-128358000D02*
X88883000Y-129368000D01*
X109280000Y-63317000D02*
X110282800Y-64319800D01*
X101182500Y-129290000D02*
X100683811Y-129290000D01*
D58*
X100077600Y-66770000D02*
X100370000Y-66770000D01*
D57*
X100683811Y-129290000D02*
X100673811Y-129300000D01*
D58*
X98770000Y-137910000D02*
X98770000Y-138720000D01*
D57*
X93253000Y-131818000D02*
X92615500Y-131180500D01*
D58*
X100370000Y-66770000D02*
X100400000Y-66800000D01*
D57*
X98460000Y-131190000D02*
X98450000Y-131200000D01*
D58*
X100077600Y-66770000D02*
X99201691Y-67645909D01*
D57*
X88883000Y-129368000D02*
X88883000Y-131168000D01*
X90881000Y-131182000D02*
X91805000Y-130258000D01*
D58*
X99201691Y-67645909D02*
X99201691Y-68022200D01*
D57*
X98450000Y-129960000D02*
X98450000Y-131200000D01*
X92615500Y-131180500D02*
X92615500Y-130258000D01*
X100673811Y-129300000D02*
X99110000Y-129300000D01*
X101182500Y-131190000D02*
X98460000Y-131190000D01*
X110282800Y-64319800D02*
X111185050Y-64319800D01*
D58*
X111051000Y-65931000D02*
X111051000Y-64453850D01*
D57*
X91805000Y-130258000D02*
X92615500Y-130258000D01*
X92615500Y-128358000D02*
X89893000Y-128358000D01*
D58*
X98040000Y-137640000D02*
X98500000Y-137640000D01*
D57*
X101182500Y-131190000D02*
X101182500Y-132232500D01*
X109280000Y-61185155D02*
X109280000Y-63317000D01*
X101182500Y-132232500D02*
X101560000Y-132610000D01*
%TO.N,/3V3*%
X111925000Y-96665000D02*
X111925000Y-95915000D01*
X126000000Y-84500000D02*
X126060000Y-84560000D01*
X130110000Y-84560000D02*
X130580000Y-84090000D01*
D60*
X91132000Y-52832000D02*
X93480000Y-55180000D01*
D58*
X113770000Y-69930000D02*
X113770000Y-68830000D01*
X102371800Y-113877200D02*
X102371800Y-111284600D01*
X127766000Y-100521000D02*
X127766000Y-101239000D01*
X110465000Y-73015000D02*
X110500000Y-73050000D01*
X109340000Y-73290000D02*
X109580000Y-73050000D01*
X123610000Y-84120000D02*
X123610000Y-86044000D01*
X102129600Y-111050000D02*
X101590000Y-111050000D01*
X82270000Y-84890000D02*
X82180000Y-84800000D01*
X110875264Y-57470000D02*
X110950000Y-57470000D01*
X109580000Y-73050000D02*
X110500000Y-73050000D01*
D57*
X115070000Y-60500000D02*
X115370000Y-60800000D01*
D58*
X110465000Y-71760000D02*
X110465000Y-73015000D01*
X108080000Y-59065000D02*
X109280264Y-59065000D01*
D60*
X93480000Y-55180000D02*
X111440000Y-55180000D01*
D58*
X127766000Y-101239000D02*
X127347000Y-101658000D01*
X113880000Y-58540000D02*
X113880000Y-59190000D01*
D57*
X80850000Y-89480000D02*
X80805000Y-89525000D01*
X126060000Y-84560000D02*
X130110000Y-84560000D01*
X117000534Y-96509102D02*
X117172000Y-96680568D01*
D58*
X109340000Y-74410000D02*
X109340000Y-73290000D01*
X94250000Y-136980000D02*
X94490000Y-136740000D01*
X85265000Y-84890000D02*
X82270000Y-84890000D01*
D57*
X100390000Y-111000000D02*
X100460000Y-111070000D01*
D58*
X102133400Y-111046200D02*
X102129600Y-111050000D01*
X109280264Y-59065000D02*
X110875264Y-57470000D01*
D60*
X91132000Y-52832000D02*
X87355000Y-52832000D01*
D58*
X102371800Y-111284600D02*
X102133400Y-111046200D01*
X123610000Y-86044000D02*
X123394000Y-86260000D01*
X93580000Y-136980000D02*
X94250000Y-136980000D01*
D57*
X114200000Y-60500000D02*
X115070000Y-60500000D01*
X101570000Y-111070000D02*
X101590000Y-111050000D01*
X111925000Y-95915000D02*
X112095000Y-95745000D01*
X100390000Y-109720000D02*
X100390000Y-111000000D01*
X100460000Y-111070000D02*
X101570000Y-111070000D01*
X115370000Y-60800000D02*
X115370000Y-61560000D01*
X131050000Y-84560000D02*
X130580000Y-84090000D01*
D58*
X113880000Y-59190000D02*
X114190000Y-59500000D01*
D57*
X117172000Y-96680568D02*
X117172000Y-97580000D01*
D58*
X113770000Y-68830000D02*
X113750000Y-68810000D01*
D57*
X131050000Y-85700000D02*
X131050000Y-84560000D01*
X82890000Y-89480000D02*
X80850000Y-89480000D01*
D58*
%TO.N,/TX*%
X117210800Y-82380800D02*
X117210800Y-94051064D01*
X114330000Y-79470000D02*
X114330000Y-79500000D01*
X118872000Y-98765000D02*
X118107000Y-98765000D01*
X114330000Y-79500000D02*
X117210800Y-82380800D01*
X119494200Y-96334464D02*
X119494200Y-98142800D01*
X117210800Y-94051064D02*
X119494200Y-96334464D01*
X119494200Y-98142800D02*
X118872000Y-98765000D01*
%TO.N,/RX*%
X116804400Y-84174400D02*
X116804400Y-94219400D01*
X116804400Y-94219400D02*
X119087800Y-96502800D01*
X113000000Y-79462500D02*
X113000000Y-80370000D01*
X119087800Y-96502800D02*
X119087800Y-97809200D01*
X119087800Y-97809200D02*
X118632000Y-98265000D01*
X113000000Y-80370000D02*
X116804400Y-84174400D01*
X118632000Y-98265000D02*
X118107000Y-98265000D01*
%TO.N,/BM1366/VDD3_0*%
X115060000Y-111150000D02*
X115070000Y-111160000D01*
X115090000Y-109650000D02*
X115090000Y-107790000D01*
X116070000Y-107790000D02*
X116880000Y-106980000D01*
X116880000Y-106980000D02*
X116870000Y-106970000D01*
X114920000Y-107790000D02*
X116070000Y-107790000D01*
X115060000Y-109624000D02*
X115060000Y-111150000D01*
X116870000Y-106970000D02*
X116870000Y-105550000D01*
%TO.N,/BM1366/VDD2_0*%
X111730000Y-102860000D02*
X113180000Y-102860000D01*
X112530000Y-107800000D02*
X113780000Y-107800000D01*
X113600000Y-103280000D02*
X113600000Y-106010000D01*
X113180000Y-102860000D02*
X113600000Y-103280000D01*
X111225000Y-102355000D02*
X111730000Y-102860000D01*
X113790000Y-107790000D02*
X113790000Y-106030000D01*
X113600000Y-106010000D02*
X113620000Y-106030000D01*
X113780000Y-107800000D02*
X113790000Y-107790000D01*
X111225000Y-99150000D02*
X111225000Y-102355000D01*
%TO.N,/RST*%
X117617200Y-74072800D02*
X117617200Y-93870200D01*
X119900600Y-98476400D02*
X119112000Y-99265000D01*
X121422400Y-70267600D02*
X117617200Y-74072800D01*
X117617200Y-93870200D02*
X119900600Y-96153600D01*
X119112000Y-99265000D02*
X118107000Y-99265000D01*
X121422400Y-70047600D02*
X121422400Y-70267600D01*
X119900600Y-96153600D02*
X119900600Y-98476400D01*
%TO.N,/BM1366/PIN_MODE*%
X91480645Y-121097045D02*
X91211400Y-120827800D01*
X91211400Y-120827800D02*
X87071200Y-120827800D01*
%TO.N,/Fan/FAN_TACH*%
X99735000Y-120440000D02*
X101071800Y-119103200D01*
X91980000Y-135225817D02*
X88203600Y-131449417D01*
X92560000Y-136980000D02*
X92000000Y-136980000D01*
X93732800Y-120440000D02*
X99735000Y-120440000D01*
X94701000Y-143622000D02*
X94701000Y-141401000D01*
X94701000Y-141401000D02*
X91980000Y-138680000D01*
X88203600Y-125969200D02*
X93732800Y-120440000D01*
X88203600Y-131449417D02*
X88203600Y-125969200D01*
X91980000Y-138680000D02*
X91980000Y-137000000D01*
X101071800Y-119103200D02*
X101071800Y-118177200D01*
X91980000Y-137000000D02*
X91980000Y-135225817D01*
X92000000Y-136980000D02*
X91980000Y-137000000D01*
%TO.N,/SCL*%
X100329000Y-121690000D02*
X102371800Y-119647200D01*
X97680000Y-121690000D02*
X100329000Y-121690000D01*
X102371800Y-119647200D02*
X102371800Y-118177200D01*
X84894736Y-123600000D02*
X80592368Y-119297632D01*
X84783600Y-90756400D02*
X87560000Y-87980000D01*
X86597894Y-85540000D02*
X87047894Y-85090000D01*
X85380000Y-123600000D02*
X84894736Y-123600000D01*
X87047894Y-85090000D02*
X87560000Y-85090000D01*
X80592368Y-93307632D02*
X83143600Y-90756400D01*
X100890000Y-60020000D02*
X102150000Y-58760000D01*
X80592368Y-119297632D02*
X80592368Y-93307632D01*
X102150000Y-58760000D02*
X105920817Y-58760000D01*
X109260000Y-59660000D02*
X106820817Y-59660000D01*
X106820817Y-59660000D02*
X106610000Y-59449183D01*
X105920817Y-58760000D02*
X106610000Y-59449183D01*
X85265000Y-85540000D02*
X86597894Y-85540000D01*
X83143600Y-90756400D02*
X84783600Y-90756400D01*
X112380000Y-58415000D02*
X110505000Y-58415000D01*
X110505000Y-58415000D02*
X109260000Y-59660000D01*
X87560000Y-87980000D02*
X87560000Y-85090000D01*
%TO.N,/Fan/FAN_PWM*%
X95749400Y-114920600D02*
X98580000Y-112090000D01*
X90900000Y-144171600D02*
X90900000Y-144090000D01*
X90900000Y-139319936D02*
X91573600Y-138646336D01*
X100421800Y-113877200D02*
X100421800Y-112128200D01*
X91573600Y-138646336D02*
X91573600Y-135394153D01*
X98580000Y-112090000D02*
X100460000Y-112090000D01*
X90900000Y-144090000D02*
X90900000Y-139319936D01*
X96153000Y-144710000D02*
X97241000Y-143622000D01*
X95749400Y-117788400D02*
X95749400Y-114920600D01*
X100421800Y-112128200D02*
X100483200Y-112066800D01*
X89800000Y-140410000D02*
X89850000Y-140460000D01*
X87797200Y-131617753D02*
X87797200Y-125740600D01*
X87797200Y-125740600D02*
X95749400Y-117788400D01*
X90900000Y-144090000D02*
X90900000Y-144310000D01*
X91300000Y-144710000D02*
X96153000Y-144710000D01*
X90900000Y-144310000D02*
X91300000Y-144710000D01*
X91573600Y-135394153D02*
X87797200Y-131617753D01*
%TO.N,/Power/OUT0*%
X96210000Y-67920000D02*
X96210000Y-66654200D01*
X92142800Y-64555600D02*
X93462400Y-64555600D01*
X94828800Y-64783600D02*
X95328800Y-65283600D01*
X94824200Y-64589000D02*
X94828800Y-64593600D01*
X94828800Y-64593600D02*
X94828800Y-64783600D01*
X100415000Y-57765000D02*
X98310000Y-59870000D01*
X94422000Y-66122000D02*
X94422000Y-66420000D01*
X97201691Y-68022200D02*
X97201691Y-67199891D01*
X93465000Y-64589000D02*
X94824200Y-64589000D01*
X97201691Y-67199891D02*
X96433000Y-66431200D01*
X96433000Y-66431200D02*
X96433000Y-65268000D01*
X93490000Y-64583200D02*
X93490000Y-65190000D01*
X93462400Y-64555600D02*
X93490000Y-64583200D01*
X96210000Y-66654200D02*
X96433000Y-66431200D01*
X93490000Y-65190000D02*
X94422000Y-66122000D01*
X96417400Y-65283600D02*
X96433000Y-65268000D01*
X95328800Y-65283600D02*
X96417400Y-65283600D01*
X108080000Y-57765000D02*
X100415000Y-57765000D01*
%TO.N,/Power/SW*%
X97149800Y-75769800D02*
X97170000Y-75790000D01*
X97149800Y-73128000D02*
X97149800Y-75769800D01*
X98201691Y-70822200D02*
X98201691Y-72076109D01*
X98201691Y-72076109D02*
X97149800Y-73128000D01*
%TO.N,/BM1366/0V8*%
X105930000Y-129200000D02*
X105540000Y-129590000D01*
X107830000Y-129200000D02*
X105930000Y-129200000D01*
X110210000Y-121230000D02*
X110180000Y-121260000D01*
D57*
X103457500Y-129290000D02*
X103457500Y-127562500D01*
D58*
X110210000Y-120130000D02*
X110210000Y-121230000D01*
D57*
X105240000Y-129290000D02*
X105540000Y-129590000D01*
X103457500Y-129290000D02*
X105240000Y-129290000D01*
X103457500Y-127562500D02*
X103530000Y-127490000D01*
D58*
%TO.N,/BM1366/VDD1_0*%
X111470000Y-103400000D02*
X110075000Y-102005000D01*
X112470000Y-106010000D02*
X112490000Y-106030000D01*
X112100000Y-103400000D02*
X111470000Y-103400000D01*
X112490000Y-104270000D02*
X112460000Y-104240000D01*
X111250000Y-106010000D02*
X112470000Y-106010000D01*
X112290000Y-104240000D02*
X112290000Y-103590000D01*
X112290000Y-103590000D02*
X112100000Y-103400000D01*
X112490000Y-106030000D02*
X112490000Y-104270000D01*
X110075000Y-102005000D02*
X110075000Y-101700000D01*
%TO.N,/BM1366/VDD1_1*%
X98820000Y-105710000D02*
X98490000Y-106040000D01*
X98820000Y-104240000D02*
X98820000Y-105710000D01*
X98602800Y-107213400D02*
X98660000Y-107156200D01*
X96120000Y-104240000D02*
X93830000Y-106530000D01*
X93830000Y-106530000D02*
X93810000Y-106510000D01*
X93810000Y-106510000D02*
X87100000Y-106510000D01*
X98660000Y-107156200D02*
X98660000Y-106040000D01*
X98820000Y-104240000D02*
X96120000Y-104240000D01*
%TO.N,/BM1366/VDD2_1*%
X93610000Y-108150000D02*
X93590000Y-108130000D01*
X97530000Y-106040000D02*
X97530000Y-107460000D01*
X97530000Y-107460000D02*
X97210000Y-107780000D01*
X97409000Y-108966000D02*
X97409000Y-107809000D01*
X95720000Y-106040000D02*
X93610000Y-108150000D01*
X93590000Y-108130000D02*
X89500000Y-108130000D01*
X97530000Y-106040000D02*
X95720000Y-106040000D01*
X97409000Y-107809000D02*
X97380000Y-107780000D01*
%TO.N,/BM1366/VDD3_1*%
X96130000Y-110920000D02*
X96130000Y-109730000D01*
X96080000Y-109680000D02*
X96080000Y-107780000D01*
X96130000Y-109730000D02*
X96080000Y-109680000D01*
X95340000Y-107780000D02*
X93380000Y-109740000D01*
X96250000Y-107780000D02*
X95340000Y-107780000D01*
X93380000Y-109740000D02*
X87180000Y-109740000D01*
%TO.N,Net-(Q4-D)*%
X105330000Y-64740000D02*
X107280000Y-64740000D01*
X104650000Y-67450000D02*
X104650000Y-67340000D01*
X104650000Y-67340000D02*
X103332600Y-66022600D01*
X98701691Y-67439092D02*
X98701691Y-68022200D01*
X103332600Y-66022600D02*
X100118183Y-66022600D01*
X107280000Y-64740000D02*
X109370000Y-66830000D01*
X109370000Y-66830000D02*
X109370000Y-69780000D01*
X100118183Y-66022600D02*
X98701691Y-67439092D01*
%TO.N,Net-(U9-COMP)*%
X98333000Y-63028200D02*
X98355400Y-63005800D01*
X98333000Y-65268000D02*
X98333000Y-63028200D01*
X97701691Y-68022200D02*
X97701691Y-67015309D01*
X98333000Y-66384000D02*
X98333000Y-65268000D01*
X97701691Y-67015309D02*
X98333000Y-66384000D01*
%TO.N,Net-(U9-BOOT)*%
X97201691Y-71398309D02*
X97201691Y-70822200D01*
X96189800Y-73652600D02*
X96189800Y-73128000D01*
X96200000Y-73662800D02*
X96189800Y-73652600D01*
X94690000Y-73240000D02*
X94690000Y-73146062D01*
X96842400Y-71757600D02*
X97201691Y-71398309D01*
X96078462Y-71757600D02*
X96842400Y-71757600D01*
X94690000Y-73146062D02*
X96078462Y-71757600D01*
X96200000Y-74090000D02*
X96200000Y-73662800D01*
%TO.N,Net-(C41-Pad2)*%
X94828800Y-63573600D02*
X95398800Y-63003600D01*
X96453200Y-63003600D02*
X96455400Y-63005800D01*
X95398800Y-63003600D02*
X96453200Y-63003600D01*
%TO.N,Net-(U9-BP)*%
X107760000Y-69487000D02*
X107775000Y-69472000D01*
X106285000Y-72260000D02*
X107775000Y-70770000D01*
X99201691Y-70822200D02*
X99201691Y-71216491D01*
X100245200Y-72260000D02*
X106285000Y-72260000D01*
X107775000Y-70770000D02*
X107775000Y-69472000D01*
X106814000Y-69487000D02*
X107760000Y-69487000D01*
X99201691Y-71216491D02*
X100245200Y-72260000D01*
%TO.N,/BM1366/CI*%
X112970000Y-98790000D02*
X112995000Y-98765000D01*
X112995000Y-98765000D02*
X114737000Y-98765000D01*
X122500000Y-105000000D02*
X118755000Y-108745000D01*
X118755000Y-108745000D02*
X118085000Y-108745000D01*
%TO.N,Net-(C45-Pad1)*%
X92480600Y-66420000D02*
X92522000Y-66420000D01*
X90649600Y-64589000D02*
X92480600Y-66420000D01*
%TO.N,/BM1366/RO*%
X113582000Y-98265000D02*
X114737000Y-98265000D01*
X121180000Y-107850000D02*
X118150000Y-110880000D01*
X122500000Y-107850000D02*
X121180000Y-107850000D01*
X112962000Y-97645000D02*
X113582000Y-98265000D01*
%TO.N,/BM1366/RST_N*%
X112960000Y-99740000D02*
X113520000Y-99740000D01*
X117445000Y-113565000D02*
X119585000Y-113565000D01*
X119585000Y-113565000D02*
X122500000Y-110650000D01*
X116920000Y-114090000D02*
X117445000Y-113565000D01*
X111948000Y-102053000D02*
X111948000Y-100752000D01*
X113520000Y-99740000D02*
X113995000Y-99265000D01*
X111948000Y-100752000D02*
X112960000Y-99740000D01*
X113995000Y-99265000D02*
X114737000Y-99265000D01*
%TO.N,Net-(Q1-G)*%
X94790000Y-74140000D02*
X92480000Y-74140000D01*
X95630400Y-73299600D02*
X94790000Y-74140000D01*
X95630400Y-72780398D02*
X95630400Y-73299600D01*
X97708800Y-71663600D02*
X97208400Y-72164000D01*
X92480000Y-74140000D02*
X89789887Y-76830113D01*
X97701691Y-70822200D02*
X97708800Y-70829309D01*
X96246798Y-72164000D02*
X95630400Y-72780398D01*
X89789887Y-76830113D02*
X89789887Y-77313864D01*
X97708800Y-70829309D02*
X97708800Y-71663600D01*
X97208400Y-72164000D02*
X96246798Y-72164000D01*
%TO.N,Net-(Q2-G)*%
X98691400Y-73082200D02*
X98691400Y-70832491D01*
X98650200Y-73721000D02*
X98650200Y-73123400D01*
X98691400Y-70832491D02*
X98701691Y-70822200D01*
X99549200Y-74620000D02*
X98650200Y-73721000D01*
X100990000Y-82811400D02*
X99662900Y-82811400D01*
X99662900Y-82811400D02*
X99611600Y-82862700D01*
X98650200Y-73123400D02*
X98691400Y-73082200D01*
X102630000Y-74620000D02*
X99549200Y-74620000D01*
%TO.N,/BM1366/RI*%
X95070000Y-114990000D02*
X94744000Y-115316000D01*
X94744000Y-115316000D02*
X87147400Y-115316000D01*
%TO.N,Net-(U10-FS0)*%
X109435000Y-57115000D02*
X108080000Y-57115000D01*
X116330000Y-57110000D02*
X115855600Y-56635600D01*
X115855600Y-56635600D02*
X109914400Y-56635600D01*
X109914400Y-56635600D02*
X109435000Y-57115000D01*
%TO.N,/BM1366/CLKI*%
X115560000Y-121710000D02*
X114260000Y-121710000D01*
X114260000Y-121710000D02*
X114240000Y-121690000D01*
X114240000Y-121690000D02*
X114240000Y-123870000D01*
X114240000Y-117099900D02*
X114240000Y-121690000D01*
X114844000Y-116495900D02*
X114240000Y-117099900D01*
%TO.N,/BM1366/NRSTO*%
X95050000Y-112699800D02*
X87045800Y-112699800D01*
%TO.N,/BM1366/BO*%
X95030000Y-113880000D02*
X94686200Y-114223800D01*
X94686200Y-114223800D02*
X89763600Y-114223800D01*
%TO.N,/BM1366/CLKO*%
X95030000Y-116240000D02*
X94430000Y-116840000D01*
X94430000Y-116840000D02*
X89687400Y-116840000D01*
%TO.N,/BM1366/CO*%
X94996000Y-117551200D02*
X94564200Y-117983000D01*
X94564200Y-117983000D02*
X87122000Y-117983000D01*
%TO.N,/ESP32/P_TX*%
X125466555Y-60033445D02*
X128173445Y-60033445D01*
X128173445Y-60033445D02*
X128200000Y-60060000D01*
%TO.N,/ESP32/P_RX*%
X123640000Y-60330000D02*
X123640000Y-61510000D01*
X123040000Y-59730000D02*
X123640000Y-60330000D01*
%TO.N,/ESP32/IO0*%
X124260000Y-55677000D02*
X124260000Y-55670000D01*
X124260000Y-55670000D02*
X124830000Y-55100000D01*
X122556000Y-57381000D02*
X124260000Y-55677000D01*
X123329736Y-98362000D02*
X123719000Y-98362000D01*
X121828800Y-58255200D02*
X122591000Y-57493000D01*
X122556000Y-57528000D02*
X122556000Y-57381000D01*
X121828800Y-67530000D02*
X121828800Y-58255200D01*
X118430000Y-75537117D02*
X118430000Y-93462264D01*
X122780700Y-71186417D02*
X118430000Y-75537117D01*
X121828800Y-67530000D02*
X122780700Y-68481900D01*
X118430000Y-93462264D02*
X123329736Y-98362000D01*
X122780700Y-68481900D02*
X122780700Y-71186417D01*
%TO.N,/ESP32/XIN32*%
X124043000Y-76576000D02*
X124043000Y-78323400D01*
X122721000Y-78349000D02*
X124017400Y-78349000D01*
X124043000Y-78323400D02*
X124017400Y-78349000D01*
X122670000Y-78400000D02*
X122721000Y-78349000D01*
%TO.N,/BM1366/ADDR0*%
X120680000Y-118590000D02*
X122400000Y-118590000D01*
X122400000Y-118590000D02*
X122470000Y-118660000D01*
%TO.N,/ESP32/XOUT32*%
X119660000Y-78360000D02*
X119671000Y-78349000D01*
X121159000Y-76585000D02*
X121159000Y-78335400D01*
X121159000Y-78335400D02*
X121172600Y-78349000D01*
X119671000Y-78349000D02*
X121172600Y-78349000D01*
%TO.N,/Power/PGOOD*%
X106453336Y-72666400D02*
X108246000Y-70873736D01*
X106453336Y-72666400D02*
X107359736Y-71760000D01*
X108246000Y-67106000D02*
X106610000Y-65470000D01*
X106610000Y-65470000D02*
X99959000Y-65470000D01*
X104940000Y-73540000D02*
X105579736Y-73540000D01*
X99959000Y-65470000D02*
X98201691Y-67227309D01*
X107359736Y-71760000D02*
X109445000Y-71760000D01*
X108246000Y-70873736D02*
X108246000Y-67106000D01*
X105579736Y-73540000D02*
X106453336Y-72666400D01*
X98201691Y-67227309D02*
X98201691Y-67992200D01*
%TO.N,/ESP32/PWR_EN*%
X110360000Y-74410000D02*
X110360000Y-75030000D01*
X112060000Y-74732264D02*
X112060000Y-70700000D01*
X110990000Y-75660000D02*
X111132264Y-75660000D01*
X112060000Y-70700000D02*
X111790000Y-70430000D01*
X111790000Y-70430000D02*
X111370000Y-70430000D01*
X110360000Y-75030000D02*
X110990000Y-75660000D01*
X111132264Y-75660000D02*
X112060000Y-74732264D01*
%TO.N,/SDA*%
X86858711Y-88106553D02*
X84615264Y-90350000D01*
X86858711Y-86240000D02*
X84552778Y-86240000D01*
X110400000Y-60180000D02*
X103760000Y-60180000D01*
X83760778Y-85448000D02*
X83179222Y-85448000D01*
X82975264Y-90350000D02*
X80185968Y-93139296D01*
X86858711Y-86240000D02*
X86858711Y-88106553D01*
X80185968Y-93139296D02*
X80185968Y-119465968D01*
X112380000Y-59065000D02*
X111515000Y-59065000D01*
X101721800Y-119352200D02*
X101721800Y-118177200D01*
X103760000Y-60180000D02*
X103670000Y-60270000D01*
X80185968Y-119465968D02*
X85190000Y-124470000D01*
X85190000Y-124470000D02*
X85770817Y-124470000D01*
X83087222Y-85540000D02*
X79540000Y-85540000D01*
X83179222Y-85448000D02*
X83087222Y-85540000D01*
X84615264Y-90350000D02*
X82975264Y-90350000D01*
X95850000Y-121520000D02*
X96420000Y-120950000D01*
X86450000Y-123790817D02*
X86450000Y-123620000D01*
X85770817Y-124470000D02*
X86450000Y-123790817D01*
X111515000Y-59065000D02*
X110400000Y-60180000D01*
X100124000Y-120950000D02*
X101721800Y-119352200D01*
X96420000Y-120950000D02*
X100124000Y-120950000D01*
X84552778Y-86240000D02*
X83760778Y-85448000D01*
%TO.N,/BM1366/BI*%
X122430000Y-113360000D02*
X122500000Y-113430000D01*
X121697000Y-115554000D02*
X121697000Y-114233000D01*
X116324000Y-115554000D02*
X121697000Y-115554000D01*
X115590000Y-115040000D02*
X115810000Y-115040000D01*
X121697000Y-114233000D02*
X122500000Y-113430000D01*
X115810000Y-115040000D02*
X116324000Y-115554000D01*
%TO.N,/PLUG_SENSE*%
X89140000Y-60870000D02*
X102430000Y-60870000D01*
X113800000Y-70980000D02*
X113770000Y-70950000D01*
X102430000Y-60870000D02*
X102440000Y-60880000D01*
X113800000Y-71990000D02*
X113800000Y-70980000D01*
X89110000Y-60840000D02*
X89140000Y-60870000D01*
%TO.N,/BM1366/ADDR1*%
X120500000Y-120710000D02*
X121530000Y-120710000D01*
X121530000Y-120710000D02*
X122500000Y-121680000D01*
%TO.N,Net-(J8-CC1)*%
X82970000Y-102000000D02*
X84900000Y-102000000D01*
X82960000Y-102010000D02*
X82970000Y-102000000D01*
%TO.N,Net-(J8-CC2)*%
X84910000Y-100530000D02*
X82007942Y-100530000D01*
X82007942Y-100530000D02*
X81963140Y-100574802D01*
%TO.N,Net-(U14-VDDIO_18_1)*%
X102560000Y-120660000D02*
X102550000Y-120650000D01*
X103670000Y-120660000D02*
X102560000Y-120660000D01*
%TO.N,Net-(U14-VDDIO_08_1)*%
X102630000Y-121810000D02*
X102590000Y-121850000D01*
X103650000Y-121810000D02*
X102630000Y-121810000D01*
%TD*%
%TA.AperFunction,Conductor*%
%TO.N,GND*%
G36*
X105384218Y-68641172D02*
G01*
X105452230Y-68661533D01*
X105498440Y-68715432D01*
X105509544Y-68765769D01*
X105543861Y-71852699D01*
X105524618Y-71921038D01*
X105471482Y-71968125D01*
X105417869Y-71980100D01*
X100413329Y-71980100D01*
X100345208Y-71960098D01*
X100324234Y-71943195D01*
X99962287Y-71581248D01*
X99928261Y-71518936D01*
X99925385Y-71491484D01*
X99932012Y-70263620D01*
X99932010Y-70263619D01*
X99932011Y-70263619D01*
X96394101Y-70252597D01*
X96380755Y-71353228D01*
X96359928Y-71421101D01*
X96305713Y-71466940D01*
X96254764Y-71477700D01*
X96141728Y-71477700D01*
X96124316Y-71476491D01*
X96117802Y-71475582D01*
X96074889Y-71477566D01*
X96069072Y-71477700D01*
X96052527Y-71477700D01*
X96052523Y-71477700D01*
X96046734Y-71478237D01*
X96046732Y-71478217D01*
X96037404Y-71479298D01*
X96013273Y-71480414D01*
X96013262Y-71480416D01*
X96008476Y-71482530D01*
X95980748Y-71491117D01*
X95964126Y-71494225D01*
X95963925Y-71493153D01*
X95935781Y-71498427D01*
X93396693Y-71500877D01*
X93328553Y-71480941D01*
X93282008Y-71427330D01*
X93270572Y-71374308D01*
X93270667Y-71353228D01*
X93282630Y-68703490D01*
X93302940Y-68635463D01*
X93356805Y-68589213D01*
X93409290Y-68578064D01*
X105384218Y-68641172D01*
G37*
%TD.AperFunction*%
%TD*%
%TA.AperFunction,Conductor*%
%TO.N,/3V3*%
G36*
X116103404Y-61089886D02*
G01*
X116149348Y-61142526D01*
X116160736Y-61193702D01*
X116169260Y-62625703D01*
X116149975Y-62692858D01*
X116097444Y-62738927D01*
X116045702Y-62750440D01*
X113475183Y-62759556D01*
X113408074Y-62740110D01*
X113362132Y-62687468D01*
X113350745Y-62634819D01*
X113350799Y-62625703D01*
X113359268Y-61202818D01*
X113379351Y-61135901D01*
X113432427Y-61090461D01*
X113482821Y-61079561D01*
X116036297Y-61070441D01*
X116103404Y-61089886D01*
G37*
%TD.AperFunction*%
%TD*%
%TA.AperFunction,Conductor*%
%TO.N,/5V*%
G36*
X93941772Y-78240076D02*
G01*
X93988333Y-78293673D01*
X93999786Y-78346374D01*
X93970213Y-95833920D01*
X93950096Y-95902007D01*
X93896361Y-95948409D01*
X93843921Y-95959707D01*
X89740525Y-95950186D01*
X89672450Y-95930026D01*
X89626347Y-95876842D01*
X87141218Y-90474388D01*
X87129696Y-90423159D01*
X87116149Y-89223462D01*
X87135380Y-89155126D01*
X87153034Y-89132962D01*
X87925156Y-88360840D01*
X87928222Y-88357879D01*
X87973031Y-88316031D01*
X87973031Y-88316030D01*
X87973034Y-88316028D01*
X87993303Y-88282694D01*
X88000553Y-88272045D01*
X88024124Y-88240963D01*
X88030206Y-88225537D01*
X88039761Y-88206297D01*
X88048377Y-88192132D01*
X88058899Y-88154575D01*
X88063004Y-88142366D01*
X88077320Y-88106067D01*
X88079016Y-88089573D01*
X88083029Y-88068458D01*
X88087500Y-88052503D01*
X88087500Y-88013499D01*
X88088161Y-88000612D01*
X88092149Y-87961822D01*
X88089332Y-87945482D01*
X88087500Y-87924075D01*
X88087500Y-85746768D01*
X88107502Y-85678647D01*
X88124400Y-85657677D01*
X88189816Y-85592262D01*
X88285789Y-85439522D01*
X88345368Y-85269255D01*
X88365565Y-85090000D01*
X88345368Y-84910745D01*
X88285789Y-84740478D01*
X88285787Y-84740475D01*
X88285787Y-84740474D01*
X88189817Y-84587739D01*
X88189816Y-84587737D01*
X88062262Y-84460183D01*
X88062260Y-84460182D01*
X87909525Y-84364212D01*
X87909522Y-84364211D01*
X87892509Y-84358258D01*
X87739255Y-84304632D01*
X87560000Y-84284435D01*
X87380745Y-84304632D01*
X87380742Y-84304632D01*
X87380741Y-84304633D01*
X87227489Y-84358258D01*
X87156584Y-84361877D01*
X87094979Y-84326588D01*
X87062233Y-84263595D01*
X87059883Y-84240763D01*
X87040000Y-82480000D01*
X84659289Y-82476203D01*
X84591200Y-82456092D01*
X84544793Y-82402362D01*
X84533499Y-82348721D01*
X84561724Y-79953043D01*
X84582527Y-79885162D01*
X84636727Y-79839305D01*
X84674546Y-79829217D01*
X84708256Y-79825674D01*
X84888278Y-79767181D01*
X84888278Y-79767180D01*
X84888284Y-79767179D01*
X85052216Y-79672533D01*
X85192888Y-79545871D01*
X85304151Y-79392730D01*
X85381144Y-79219803D01*
X85420500Y-79034646D01*
X85420500Y-78845354D01*
X85381144Y-78660197D01*
X85304151Y-78487270D01*
X85304149Y-78487267D01*
X85263315Y-78431063D01*
X85239456Y-78364195D01*
X85255537Y-78295044D01*
X85306451Y-78245563D01*
X85365089Y-78231002D01*
X93873625Y-78220161D01*
X93941772Y-78240076D01*
G37*
%TD.AperFunction*%
%TD*%
%TA.AperFunction,Conductor*%
%TO.N,/VDD*%
G36*
X108841515Y-84445412D02*
G01*
X108909521Y-84465794D01*
X108955713Y-84519709D01*
X108966809Y-84571451D01*
X108961487Y-101082176D01*
X108949682Y-101135384D01*
X108887883Y-101267915D01*
X108887879Y-101267926D01*
X108830885Y-101480629D01*
X108811693Y-101700000D01*
X108830885Y-101919370D01*
X108887879Y-102132073D01*
X108887883Y-102132084D01*
X108949284Y-102263761D01*
X108961089Y-102317051D01*
X108959104Y-108477327D01*
X108939080Y-108545441D01*
X108885409Y-108591916D01*
X108833207Y-108603286D01*
X102609021Y-108608367D01*
X102540884Y-108588421D01*
X102494347Y-108534803D01*
X102482918Y-108482263D01*
X102488163Y-102132073D01*
X102502695Y-84536599D01*
X102522753Y-84468497D01*
X102576447Y-84422048D01*
X102629397Y-84410707D01*
X108841515Y-84445412D01*
G37*
%TD.AperFunction*%
%TD*%
%TA.AperFunction,Conductor*%
%TO.N,GND*%
G36*
X91383039Y-70504685D02*
G01*
X91428794Y-70557489D01*
X91440000Y-70609000D01*
X91440000Y-73028000D01*
X91420315Y-73095039D01*
X91367511Y-73140794D01*
X91316000Y-73152000D01*
X82928000Y-73152000D01*
X82860961Y-73132315D01*
X82815206Y-73079511D01*
X82804000Y-73028000D01*
X82804000Y-70609000D01*
X82823685Y-70541961D01*
X82876489Y-70496206D01*
X82928000Y-70485000D01*
X91316000Y-70485000D01*
X91383039Y-70504685D01*
G37*
%TD.AperFunction*%
%TD*%
%TA.AperFunction,Conductor*%
%TO.N,/Power/SW*%
G36*
X106706533Y-75330226D02*
G01*
X106753231Y-75383703D01*
X106764818Y-75436863D01*
X106745575Y-81834018D01*
X106725369Y-81902078D01*
X106671573Y-81948410D01*
X106620218Y-81959637D01*
X95099948Y-82018355D01*
X95031726Y-81998701D01*
X94984961Y-81945283D01*
X94973306Y-81892653D01*
X94963600Y-77707200D01*
X94963599Y-77707200D01*
X90859628Y-77707200D01*
X90791507Y-77687198D01*
X90745014Y-77633542D01*
X90733638Y-77579583D01*
X90749850Y-76316567D01*
X90770724Y-76248712D01*
X90786733Y-76229104D01*
X91611235Y-75404603D01*
X91673544Y-75370580D01*
X91699839Y-75367702D01*
X106638339Y-75310485D01*
X106706533Y-75330226D01*
G37*
%TD.AperFunction*%
%TD*%
%TA.AperFunction,Conductor*%
%TO.N,/VDD*%
G36*
X112734150Y-109325391D02*
G01*
X112802141Y-109345830D01*
X112848288Y-109399783D01*
X112859338Y-109452050D01*
X112833650Y-114339766D01*
X112813290Y-114407781D01*
X112759391Y-114453991D01*
X112707477Y-114465104D01*
X112569395Y-114464912D01*
X112554548Y-114464013D01*
X112480325Y-114455100D01*
X112480320Y-114455100D01*
X112055680Y-114455100D01*
X112055672Y-114455100D01*
X111988362Y-114463183D01*
X111973166Y-114464082D01*
X103098124Y-114451726D01*
X103030031Y-114431629D01*
X102983613Y-114377909D01*
X102972299Y-114325730D01*
X102972299Y-113295682D01*
X102957446Y-113201896D01*
X102957446Y-113201895D01*
X102913033Y-113114729D01*
X102899300Y-113057527D01*
X102899300Y-111295755D01*
X102899373Y-111291454D01*
X102901467Y-111230149D01*
X102892230Y-111192249D01*
X102889824Y-111179586D01*
X102884514Y-111140944D01*
X102877905Y-111125729D01*
X102871058Y-111105367D01*
X102870530Y-111103200D01*
X102867135Y-111089266D01*
X102848015Y-111055260D01*
X102842286Y-111043727D01*
X102826743Y-111007943D01*
X102816279Y-110995082D01*
X102804194Y-110977324D01*
X102796067Y-110962869D01*
X102768482Y-110935285D01*
X102759847Y-110925717D01*
X102735232Y-110895460D01*
X102721685Y-110885897D01*
X102705253Y-110872055D01*
X102522191Y-110688993D01*
X102516320Y-110682707D01*
X102483335Y-110644879D01*
X102441372Y-110617356D01*
X102434343Y-110612394D01*
X102394365Y-110582077D01*
X102394360Y-110582075D01*
X102389408Y-110580122D01*
X102366526Y-110568265D01*
X102362082Y-110565350D01*
X102362078Y-110565348D01*
X102362075Y-110565347D01*
X102354411Y-110562915D01*
X102295533Y-110523243D01*
X102267450Y-110458036D01*
X102275313Y-110396594D01*
X102290070Y-110359173D01*
X102300500Y-110272320D01*
X102300500Y-109907680D01*
X102290070Y-109820826D01*
X102235562Y-109682605D01*
X102143102Y-109560676D01*
X102117879Y-109494311D01*
X102117500Y-109484543D01*
X102117500Y-109383973D01*
X102137502Y-109315852D01*
X102191158Y-109269359D01*
X102244303Y-109257977D01*
X112734150Y-109325391D01*
G37*
%TD.AperFunction*%
%TD*%
%TA.AperFunction,Conductor*%
%TO.N,GND*%
G36*
X112677649Y-114959814D02*
G01*
X112745674Y-114980139D01*
X112791912Y-115034014D01*
X112803041Y-115084141D01*
X112855933Y-119070454D01*
X112836836Y-119138834D01*
X112783802Y-119186035D01*
X112730383Y-119198125D01*
X103025739Y-119231928D01*
X102957549Y-119212164D01*
X102910869Y-119158670D01*
X102899300Y-119105929D01*
X102899300Y-118996872D01*
X102913033Y-118939669D01*
X102957446Y-118852504D01*
X102972300Y-118758719D01*
X102972299Y-117595682D01*
X102957446Y-117501896D01*
X102928648Y-117445377D01*
X102899850Y-117388857D01*
X102810142Y-117299149D01*
X102734302Y-117260507D01*
X102697104Y-117241554D01*
X102603319Y-117226700D01*
X102603315Y-117226700D01*
X102140281Y-117226700D01*
X102140280Y-117226701D01*
X102066507Y-117238383D01*
X102027093Y-117238383D01*
X101964202Y-117228423D01*
X101953319Y-117226700D01*
X101953318Y-117226700D01*
X101490281Y-117226700D01*
X101490280Y-117226701D01*
X101416507Y-117238383D01*
X101377093Y-117238383D01*
X101314202Y-117228423D01*
X101303319Y-117226700D01*
X101303318Y-117226700D01*
X100840283Y-117226700D01*
X100746497Y-117241553D01*
X100633457Y-117299149D01*
X100543749Y-117388857D01*
X100486155Y-117501894D01*
X100486154Y-117501896D01*
X100471300Y-117595681D01*
X100471300Y-117595684D01*
X100471300Y-118758716D01*
X100487705Y-118862299D01*
X100484893Y-118862744D01*
X100486473Y-118918238D01*
X100453711Y-118975290D01*
X100223909Y-119205092D01*
X100161597Y-119239118D01*
X100135253Y-119241996D01*
X96860375Y-119253404D01*
X96792185Y-119233640D01*
X96745505Y-119180146D01*
X96733941Y-119128478D01*
X96732820Y-118996872D01*
X96698887Y-115011875D01*
X96718308Y-114943587D01*
X96771566Y-114896639D01*
X96825477Y-114884804D01*
X112677649Y-114959814D01*
G37*
%TD.AperFunction*%
%TD*%
%TA.AperFunction,Conductor*%
%TO.N,/5V*%
G36*
X111669847Y-60559883D02*
G01*
X111715776Y-60612535D01*
X111727121Y-60667225D01*
X111682732Y-62629206D01*
X111661536Y-62695783D01*
X111607711Y-62740332D01*
X111559175Y-62750400D01*
X108787257Y-62759578D01*
X108720152Y-62740116D01*
X108674223Y-62687464D01*
X108662878Y-62632774D01*
X108707267Y-60670793D01*
X108728463Y-60604216D01*
X108782288Y-60559667D01*
X108830819Y-60549599D01*
X111602743Y-60540421D01*
X111669847Y-60559883D01*
G37*
%TD.AperFunction*%
%TD*%
%TA.AperFunction,Conductor*%
%TO.N,GND*%
G36*
X98603332Y-82471535D02*
G01*
X98649950Y-82525082D01*
X98661455Y-82576832D01*
X98670000Y-83830000D01*
X101668703Y-83762893D01*
X101737253Y-83781366D01*
X101784935Y-83833968D01*
X101797520Y-83889328D01*
X101748464Y-97122651D01*
X101728210Y-97190697D01*
X101674382Y-97236991D01*
X101622650Y-97248184D01*
X95068338Y-97257814D01*
X95000188Y-97237912D01*
X94953616Y-97184325D01*
X94942153Y-97131664D01*
X94959847Y-82585554D01*
X94979932Y-82517458D01*
X95033644Y-82471031D01*
X95085552Y-82459708D01*
X98535166Y-82451691D01*
X98603332Y-82471535D01*
G37*
%TD.AperFunction*%
%TD*%
%TA.AperFunction,Conductor*%
%TO.N,/Power/VIN*%
G36*
X89695498Y-64526812D02*
G01*
X89763553Y-64547026D01*
X89809877Y-64600828D01*
X89821100Y-64652809D01*
X89821100Y-64788987D01*
X89823970Y-64825464D01*
X89869332Y-64981600D01*
X89952092Y-65121539D01*
X89952098Y-65121546D01*
X90037351Y-65206799D01*
X90071377Y-65269111D01*
X90074256Y-65295852D01*
X90075227Y-68195083D01*
X90075779Y-69845459D01*
X90055801Y-69913585D01*
X90002161Y-69960096D01*
X89949780Y-69971500D01*
X82927992Y-69971500D01*
X82834104Y-69981595D01*
X82818843Y-69983236D01*
X82818841Y-69983236D01*
X82818835Y-69983237D01*
X82767332Y-69994441D01*
X82663171Y-70029110D01*
X82663164Y-70029113D01*
X82661762Y-70030015D01*
X82660517Y-70030380D01*
X82656064Y-70032511D01*
X82655718Y-70031789D01*
X82593649Y-70050010D01*
X82300000Y-70049999D01*
X82305357Y-70495066D01*
X82304084Y-70514512D01*
X82290500Y-70609001D01*
X82290500Y-73028007D01*
X82302237Y-73137164D01*
X82313442Y-73188669D01*
X82332495Y-73245914D01*
X82338934Y-73284188D01*
X82351534Y-74330852D01*
X82337423Y-74390326D01*
X82333474Y-74397947D01*
X82241463Y-74656845D01*
X82241460Y-74656853D01*
X82185557Y-74925877D01*
X82185556Y-74925883D01*
X82166807Y-75199995D01*
X82166807Y-75200004D01*
X82185556Y-75474116D01*
X82185557Y-75474122D01*
X82185558Y-75474130D01*
X82216217Y-75621670D01*
X82241460Y-75743146D01*
X82241462Y-75743154D01*
X82333478Y-76002062D01*
X82358804Y-76050939D01*
X82372921Y-76107389D01*
X82406894Y-78929421D01*
X82406620Y-78935812D01*
X82406620Y-78940592D01*
X82407143Y-78950080D01*
X82448476Y-82383465D01*
X82429295Y-82451822D01*
X82376203Y-82498957D01*
X82323460Y-82510978D01*
X80085655Y-82528292D01*
X80017381Y-82508818D01*
X80004365Y-82499381D01*
X79883223Y-82399164D01*
X79800868Y-82360411D01*
X79737941Y-82330800D01*
X79737939Y-82330799D01*
X79737938Y-82330799D01*
X79737937Y-82330798D01*
X79580227Y-82300713D01*
X79580216Y-82300712D01*
X79419976Y-82310794D01*
X79419971Y-82310794D01*
X79267267Y-82360411D01*
X79131698Y-82446445D01*
X79131697Y-82446446D01*
X79084222Y-82497001D01*
X79023008Y-82532966D01*
X78993348Y-82536743D01*
X77407313Y-82549014D01*
X77339039Y-82529540D01*
X77292133Y-82476245D01*
X77280338Y-82422683D01*
X77280401Y-82399164D01*
X77289594Y-78940003D01*
X78376620Y-78940003D01*
X78396090Y-79137694D01*
X78396091Y-79137700D01*
X78396092Y-79137701D01*
X78453759Y-79327804D01*
X78547405Y-79503004D01*
X78673432Y-79656568D01*
X78826996Y-79782595D01*
X79002196Y-79876241D01*
X79192299Y-79933908D01*
X79192303Y-79933908D01*
X79192305Y-79933909D01*
X79276513Y-79942202D01*
X79340453Y-79948500D01*
X79340462Y-79948500D01*
X80239538Y-79948500D01*
X80239547Y-79948500D01*
X80323761Y-79940205D01*
X80387694Y-79933909D01*
X80387695Y-79933908D01*
X80387701Y-79933908D01*
X80577804Y-79876241D01*
X80753004Y-79782595D01*
X80906568Y-79656568D01*
X81032595Y-79503004D01*
X81126241Y-79327804D01*
X81183908Y-79137701D01*
X81187622Y-79100000D01*
X81203380Y-78940003D01*
X81203380Y-78939996D01*
X81183909Y-78742305D01*
X81183908Y-78742303D01*
X81183908Y-78742299D01*
X81126241Y-78552196D01*
X81032595Y-78376996D01*
X80906568Y-78223432D01*
X80753004Y-78097405D01*
X80577804Y-78003759D01*
X80387701Y-77946092D01*
X80387700Y-77946091D01*
X80387694Y-77946090D01*
X80239553Y-77931500D01*
X80239547Y-77931500D01*
X79340453Y-77931500D01*
X79340446Y-77931500D01*
X79192305Y-77946090D01*
X79002195Y-78003759D01*
X78826995Y-78097405D01*
X78673432Y-78223432D01*
X78547405Y-78376995D01*
X78453759Y-78552195D01*
X78396090Y-78742305D01*
X78376620Y-78939996D01*
X78376620Y-78940003D01*
X77289594Y-78940003D01*
X77316301Y-68890330D01*
X79121710Y-68890330D01*
X79136909Y-69002536D01*
X79151925Y-69113390D01*
X79221484Y-69327467D01*
X79328144Y-69525675D01*
X79328148Y-69525682D01*
X79400833Y-69616825D01*
X79468492Y-69701666D01*
X79638004Y-69849765D01*
X79831236Y-69965215D01*
X80041976Y-70044307D01*
X80041978Y-70044307D01*
X80041980Y-70044308D01*
X80175229Y-70068489D01*
X80263453Y-70084500D01*
X80263454Y-70084500D01*
X80432149Y-70084500D01*
X80432155Y-70084500D01*
X80589759Y-70070315D01*
X80600189Y-70069377D01*
X80600189Y-70069376D01*
X80808137Y-70011986D01*
X80817167Y-70009494D01*
X80817167Y-70009493D01*
X80817170Y-70009493D01*
X81019973Y-69911829D01*
X81202078Y-69779522D01*
X81357632Y-69616825D01*
X81481635Y-69428968D01*
X81570103Y-69221988D01*
X81620191Y-69002537D01*
X81630290Y-68777670D01*
X81600075Y-68554613D01*
X81530517Y-68340536D01*
X81475897Y-68239035D01*
X81423855Y-68142324D01*
X81423851Y-68142317D01*
X81283506Y-67966332D01*
X81113998Y-67818237D01*
X81113996Y-67818235D01*
X80920764Y-67702785D01*
X80710024Y-67623693D01*
X80710019Y-67623691D01*
X80520091Y-67589224D01*
X80488547Y-67583500D01*
X80319845Y-67583500D01*
X80288558Y-67586315D01*
X80151810Y-67598622D01*
X80151810Y-67598623D01*
X79934832Y-67658505D01*
X79732031Y-67756168D01*
X79732023Y-67756173D01*
X79549921Y-67888478D01*
X79549920Y-67888479D01*
X79394369Y-68051172D01*
X79270367Y-68239027D01*
X79270363Y-68239035D01*
X79181897Y-68446011D01*
X79181896Y-68446013D01*
X79131809Y-68665461D01*
X79131809Y-68665463D01*
X79126770Y-68777673D01*
X79121710Y-68890330D01*
X77316301Y-68890330D01*
X77327665Y-64614055D01*
X77347847Y-64545992D01*
X77401626Y-64499642D01*
X77454056Y-64488395D01*
X89695498Y-64526812D01*
G37*
%TD.AperFunction*%
%TD*%
M02*
