%TF.GenerationSoftware,KiCad,Pcbnew,8.0.7*%
%TF.CreationDate,2025-01-03T18:41:47-08:00*%
%TF.ProjectId,bitaxeMax,62697461-7865-44d6-9178-2e6b69636164,rev?*%
%TF.SameCoordinates,Original*%
%TF.FileFunction,Soldermask,Top*%
%TF.FilePolarity,Negative*%
%FSLAX46Y46*%
G04 Gerber Fmt 4.6, Leading zero omitted, Abs format (unit mm)*
G04 Created by KiCad (PCBNEW 8.0.7) date 2025-01-03 18:41:47*
%MOMM*%
%LPD*%
G01*
G04 APERTURE LIST*
G04 Aperture macros list*
%AMRoundRect*
0 Rectangle with rounded corners*
0 $1 Rounding radius*
0 $2 $3 $4 $5 $6 $7 $8 $9 X,Y pos of 4 corners*
0 Add a 4 corners polygon primitive as box body*
4,1,4,$2,$3,$4,$5,$6,$7,$8,$9,$2,$3,0*
0 Add four circle primitives for the rounded corners*
1,1,$1+$1,$2,$3*
1,1,$1+$1,$4,$5*
1,1,$1+$1,$6,$7*
1,1,$1+$1,$8,$9*
0 Add four rect primitives between the rounded corners*
20,1,$1+$1,$2,$3,$4,$5,0*
20,1,$1+$1,$4,$5,$6,$7,0*
20,1,$1+$1,$6,$7,$8,$9,0*
20,1,$1+$1,$8,$9,$2,$3,0*%
%AMFreePoly0*
4,1,19,0.500000,-0.750000,0.000000,-0.750000,0.000000,-0.744911,-0.071157,-0.744911,-0.207708,-0.704816,-0.327430,-0.627875,-0.420627,-0.520320,-0.479746,-0.390866,-0.500000,-0.250000,-0.500000,0.250000,-0.479746,0.390866,-0.420627,0.520320,-0.327430,0.627875,-0.207708,0.704816,-0.071157,0.744911,0.000000,0.744911,0.000000,0.750000,0.500000,0.750000,0.500000,-0.750000,0.500000,-0.750000,
$1*%
%AMFreePoly1*
4,1,19,0.000000,0.744911,0.071157,0.744911,0.207708,0.704816,0.327430,0.627875,0.420627,0.520320,0.479746,0.390866,0.500000,0.250000,0.500000,-0.250000,0.479746,-0.390866,0.420627,-0.520320,0.327430,-0.627875,0.207708,-0.704816,0.071157,-0.744911,0.000000,-0.744911,0.000000,-0.750000,-0.500000,-0.750000,-0.500000,0.750000,0.000000,0.750000,0.000000,0.744911,0.000000,0.744911,
$1*%
%AMFreePoly2*
4,1,35,0.005000,-4.560000,0.003536,-4.563536,0.000000,-4.565000,-5.000000,-4.565000,-5.003536,-4.563536,-5.005000,-4.560000,-5.005000,-3.898000,-5.003536,-3.894464,-5.000000,-3.893000,-4.325000,-3.893000,-4.325000,-3.269700,-5.000000,-3.269700,-5.003536,-3.268236,-5.005000,-3.264700,-5.005000,-2.599700,-5.003536,-2.596164,-5.000000,-2.594700,-4.325000,-2.594700,-4.325000,-1.971400,-5.000000,-1.971400,
-5.003536,-1.969936,-5.005000,-1.966400,-5.005000,-1.301400,-5.003536,-1.297864,-5.000000,-1.296400,-4.325000,-1.296400,-4.325000,-0.673100,-5.000000,-0.673100,-5.003536,-0.671636,-5.005000,-0.668100,-5.005000,0.000000,-5.003536,0.003536,-5.000000,0.005000,0.005000,0.005000,0.005000,-4.560000,0.005000,-4.560000,$1*%
%AMFreePoly3*
4,1,45,-0.199646,1.700354,-0.199500,1.700000,-0.199500,1.200500,0.199500,1.200500,0.199500,1.700000,0.199646,1.700354,0.200000,1.700500,0.450000,1.700500,0.450354,1.700354,0.450500,1.700000,0.450500,1.200500,0.825000,1.200500,0.825354,1.200354,0.825500,1.200000,0.825500,-1.200000,0.825354,-1.200354,0.825000,-1.200500,0.450500,-1.200500,0.450500,-1.700000,0.450354,-1.700354,
0.450000,-1.700500,0.200000,-1.700500,0.199646,-1.700354,0.199500,-1.700000,0.199500,-1.200500,-0.199500,-1.200500,-0.199500,-1.700000,-0.199646,-1.700354,-0.200000,-1.700500,-0.450000,-1.700500,-0.450354,-1.700354,-0.450500,-1.700000,-0.450500,-1.200500,-0.825000,-1.200500,-0.825354,-1.200354,-0.825500,-1.200000,-0.825500,1.200000,-0.825354,1.200354,-0.825000,1.200500,-0.450500,1.200500,
-0.450500,1.700000,-0.450354,1.700354,-0.450000,1.700500,-0.200000,1.700500,-0.199646,1.700354,-0.199646,1.700354,$1*%
G04 Aperture macros list end*
%ADD10RoundRect,0.135000X-0.135000X-0.185000X0.135000X-0.185000X0.135000X0.185000X-0.135000X0.185000X0*%
%ADD11RoundRect,0.250000X0.475000X-0.250000X0.475000X0.250000X-0.475000X0.250000X-0.475000X-0.250000X0*%
%ADD12RoundRect,0.140000X0.140000X0.170000X-0.140000X0.170000X-0.140000X-0.170000X0.140000X-0.170000X0*%
%ADD13RoundRect,0.040600X0.249400X-0.564400X0.249400X0.564400X-0.249400X0.564400X-0.249400X-0.564400X0*%
%ADD14RoundRect,0.100000X-0.637500X-0.100000X0.637500X-0.100000X0.637500X0.100000X-0.637500X0.100000X0*%
%ADD15RoundRect,0.140000X-0.170000X0.140000X-0.170000X-0.140000X0.170000X-0.140000X0.170000X0.140000X0*%
%ADD16RoundRect,0.135000X-0.185000X0.135000X-0.185000X-0.135000X0.185000X-0.135000X0.185000X0.135000X0*%
%ADD17C,1.500000*%
%ADD18RoundRect,0.250000X0.250000X0.475000X-0.250000X0.475000X-0.250000X-0.475000X0.250000X-0.475000X0*%
%ADD19FreePoly0,180.000000*%
%ADD20FreePoly1,180.000000*%
%ADD21RoundRect,0.135000X0.135000X0.185000X-0.135000X0.185000X-0.135000X-0.185000X0.135000X-0.185000X0*%
%ADD22C,3.500000*%
%ADD23RoundRect,0.250000X-0.475000X0.250000X-0.475000X-0.250000X0.475000X-0.250000X0.475000X0.250000X0*%
%ADD24RoundRect,0.250000X-0.250000X-0.475000X0.250000X-0.475000X0.250000X0.475000X-0.250000X0.475000X0*%
%ADD25R,1.168400X1.600200*%
%ADD26RoundRect,0.150000X-0.512500X-0.150000X0.512500X-0.150000X0.512500X0.150000X-0.512500X0.150000X0*%
%ADD27RoundRect,0.140000X-0.140000X-0.170000X0.140000X-0.170000X0.140000X0.170000X-0.140000X0.170000X0*%
%ADD28RoundRect,0.140000X0.170000X-0.140000X0.170000X0.140000X-0.170000X0.140000X-0.170000X-0.140000X0*%
%ADD29R,0.400000X1.100000*%
%ADD30RoundRect,0.007800X-0.122200X0.442200X-0.122200X-0.442200X0.122200X-0.442200X0.122200X0.442200X0*%
%ADD31RoundRect,0.007800X-0.442200X-0.122200X0.442200X-0.122200X0.442200X0.122200X-0.442200X0.122200X0*%
%ADD32R,2.050000X2.050000*%
%ADD33R,3.100000X2.000000*%
%ADD34RoundRect,0.135000X0.185000X-0.135000X0.185000X0.135000X-0.185000X0.135000X-0.185000X-0.135000X0*%
%ADD35C,2.200000*%
%ADD36R,1.100000X0.400000*%
%ADD37RoundRect,0.250000X-1.025000X0.875000X-1.025000X-0.875000X1.025000X-0.875000X1.025000X0.875000X0*%
%ADD38R,0.700000X0.800000*%
%ADD39FreePoly2,270.000000*%
%ADD40R,1.500000X1.000000*%
%ADD41RoundRect,0.007874X-0.112126X0.292126X-0.112126X-0.292126X0.112126X-0.292126X0.112126X0.292126X0*%
%ADD42C,0.400000*%
%ADD43FreePoly3,270.000000*%
%ADD44R,1.600000X2.700000*%
%ADD45FreePoly2,90.000000*%
%ADD46RoundRect,0.250000X-0.325000X-1.100000X0.325000X-1.100000X0.325000X1.100000X-0.325000X1.100000X0*%
%ADD47R,1.100000X1.300000*%
%ADD48RoundRect,0.250000X0.325000X0.650000X-0.325000X0.650000X-0.325000X-0.650000X0.325000X-0.650000X0*%
%ADD49R,0.952500X0.558800*%
%ADD50C,1.295400*%
%ADD51C,1.574800*%
%ADD52R,1.700000X1.700000*%
%ADD53O,1.700000X1.700000*%
%ADD54C,2.520000*%
%ADD55C,0.990600*%
G04 APERTURE END LIST*
D10*
%TO.C,R26*%
X95600000Y-55220000D03*
X96620000Y-55220000D03*
%TD*%
D11*
%TO.C,C43*%
X104265600Y-71247800D03*
X104265600Y-69347800D03*
%TD*%
D12*
%TO.C,C19*%
X124690000Y-102480000D03*
X123730000Y-102480000D03*
%TD*%
D13*
%TO.C,U3*%
X129100000Y-100835000D03*
X130050000Y-100835000D03*
X131000000Y-100835000D03*
X131000000Y-98325000D03*
X130050000Y-98325000D03*
X129100000Y-98325000D03*
%TD*%
D14*
%TO.C,U8*%
X79777500Y-79495000D03*
X79777500Y-80145000D03*
X79777500Y-80795000D03*
X79777500Y-81445000D03*
X79777500Y-82095000D03*
X79777500Y-82745000D03*
X79777500Y-83395000D03*
X79777500Y-84045000D03*
X85502500Y-84045000D03*
X85502500Y-83395000D03*
X85502500Y-82745000D03*
X85502500Y-82095000D03*
X85502500Y-81445000D03*
X85502500Y-80795000D03*
X85502500Y-80145000D03*
X85502500Y-79495000D03*
%TD*%
D15*
%TO.C,C7*%
X99820000Y-114150000D03*
X99820000Y-115110000D03*
%TD*%
D10*
%TO.C,R7*%
X93400000Y-116670000D03*
X94420000Y-116670000D03*
%TD*%
D16*
%TO.C,R13*%
X90649600Y-63569000D03*
X90649600Y-64589000D03*
%TD*%
D17*
%TO.C,TP26*%
X100520000Y-58700000D03*
%TD*%
%TO.C,TP31*%
X126176000Y-88111000D03*
%TD*%
D12*
%TO.C,C1*%
X115730000Y-127810000D03*
X114770000Y-127810000D03*
%TD*%
D18*
%TO.C,C41*%
X98355400Y-63005800D03*
X96455400Y-63005800D03*
%TD*%
D17*
%TO.C,TP19*%
X131156000Y-74610000D03*
%TD*%
D19*
%TO.C,JP2*%
X123010000Y-111640000D03*
D20*
X121710000Y-111640000D03*
%TD*%
D21*
%TO.C,R1*%
X119000000Y-116520000D03*
X117980000Y-116520000D03*
%TD*%
D12*
%TO.C,C3*%
X114920000Y-107790000D03*
X113960000Y-107790000D03*
%TD*%
D22*
%TO.C,H6*%
X84764000Y-94984000D03*
%TD*%
D23*
%TO.C,C38*%
X101783000Y-67211600D03*
X101783000Y-69111600D03*
%TD*%
D17*
%TO.C,TP5*%
X111440000Y-130160000D03*
%TD*%
D10*
%TO.C,R27*%
X106450000Y-55180000D03*
X107470000Y-55180000D03*
%TD*%
D15*
%TO.C,C25*%
X105540000Y-129760000D03*
X105540000Y-130720000D03*
%TD*%
D24*
%TO.C,C45*%
X91120000Y-66420000D03*
X93020000Y-66420000D03*
%TD*%
D25*
%TO.C,Y1*%
X124017400Y-78349000D03*
X121172600Y-78349000D03*
%TD*%
D17*
%TO.C,TP16*%
X85570000Y-139110000D03*
%TD*%
%TO.C,TP15*%
X84690000Y-143470000D03*
%TD*%
D26*
%TO.C,U5*%
X89482500Y-128390000D03*
X89482500Y-129340000D03*
X89482500Y-130290000D03*
X91757500Y-130290000D03*
X91757500Y-128390000D03*
%TD*%
D24*
%TO.C,C51*%
X130440000Y-82740000D03*
X132340000Y-82740000D03*
%TD*%
D17*
%TO.C,TP23*%
X122556000Y-57528000D03*
%TD*%
D16*
%TO.C,R6*%
X97500000Y-120830000D03*
X97500000Y-121850000D03*
%TD*%
D17*
%TO.C,TP30*%
X114630000Y-59948000D03*
%TD*%
D26*
%TO.C,U6*%
X101182500Y-129290000D03*
X101182500Y-130240000D03*
X101182500Y-131190000D03*
X103457500Y-131190000D03*
X103457500Y-129290000D03*
%TD*%
D22*
%TO.C,H5*%
X126130000Y-136350000D03*
%TD*%
D27*
%TO.C,C50*%
X130787000Y-79266000D03*
X131747000Y-79266000D03*
%TD*%
D28*
%TO.C,C4*%
X110660000Y-121800000D03*
X110660000Y-120840000D03*
%TD*%
D29*
%TO.C,U7*%
X82655000Y-134030000D03*
X82005000Y-134030000D03*
X81355000Y-134030000D03*
X80705000Y-134030000D03*
X80705000Y-138330000D03*
X81355000Y-138330000D03*
X82005000Y-138330000D03*
X82655000Y-138330000D03*
%TD*%
D12*
%TO.C,C12*%
X99780000Y-104240000D03*
X98820000Y-104240000D03*
%TD*%
D27*
%TO.C,C52*%
X130790000Y-80550000D03*
X131750000Y-80550000D03*
%TD*%
D19*
%TO.C,JP3*%
X123010000Y-114030000D03*
D20*
X121710000Y-114030000D03*
%TD*%
D10*
%TO.C,R29*%
X106450000Y-56190000D03*
X107470000Y-56190000D03*
%TD*%
D28*
%TO.C,C30*%
X124043000Y-76576000D03*
X124043000Y-75616000D03*
%TD*%
D17*
%TO.C,TP21*%
X130550000Y-91930000D03*
%TD*%
D28*
%TO.C,C26*%
X129140000Y-96810000D03*
X129140000Y-95850000D03*
%TD*%
D30*
%TO.C,U2*%
X123410000Y-97875000D03*
D31*
X122475000Y-98560000D03*
X122475000Y-99060000D03*
X122475000Y-99560000D03*
X122475000Y-100060000D03*
X122475000Y-100560000D03*
D30*
X123410000Y-101245000D03*
X124910000Y-101245000D03*
D31*
X125845000Y-100560000D03*
X125845000Y-100060000D03*
X125845000Y-99560000D03*
X125845000Y-99060000D03*
X125845000Y-98560000D03*
D30*
X124910000Y-97875000D03*
D32*
X124160000Y-99560000D03*
%TD*%
D16*
%TO.C,R10*%
X94828800Y-63573600D03*
X94828800Y-64593600D03*
%TD*%
D17*
%TO.C,TP17*%
X131044000Y-65978000D03*
%TD*%
D33*
%TO.C,L1*%
X106000600Y-77761400D03*
X106000600Y-86081400D03*
%TD*%
D21*
%TO.C,R20*%
X131777000Y-77964000D03*
X130757000Y-77964000D03*
%TD*%
D34*
%TO.C,R15*%
X93465000Y-64589000D03*
X93465000Y-63569000D03*
%TD*%
D17*
%TO.C,TP29*%
X112020000Y-58630000D03*
%TD*%
D12*
%TO.C,C15*%
X98490000Y-106040000D03*
X97530000Y-106040000D03*
%TD*%
D17*
%TO.C,TP32*%
X95310000Y-121910000D03*
%TD*%
D35*
%TO.C,H4*%
X79987000Y-50603000D03*
%TD*%
D21*
%TO.C,R16*%
X94840000Y-102040000D03*
X93820000Y-102040000D03*
%TD*%
D17*
%TO.C,TP28*%
X109370000Y-57428000D03*
%TD*%
D12*
%TO.C,C32*%
X94900000Y-118050000D03*
X93940000Y-118050000D03*
%TD*%
D28*
%TO.C,C16*%
X100710000Y-121800000D03*
X100710000Y-120840000D03*
%TD*%
D21*
%TO.C,R3*%
X116920000Y-117890000D03*
X115900000Y-117890000D03*
%TD*%
D15*
%TO.C,C49*%
X115489000Y-63645000D03*
X115489000Y-64605000D03*
%TD*%
D35*
%TO.C,H3*%
X130980000Y-144470000D03*
%TD*%
D17*
%TO.C,TP12*%
X89350000Y-115300000D03*
%TD*%
D27*
%TO.C,C18*%
X96250000Y-109680000D03*
X97210000Y-109680000D03*
%TD*%
D17*
%TO.C,TP18*%
X129881000Y-61664000D03*
%TD*%
D18*
%TO.C,C40*%
X98333000Y-65268000D03*
X96433000Y-65268000D03*
%TD*%
D36*
%TO.C,U10*%
X90890000Y-98565000D03*
X90890000Y-99215000D03*
X90890000Y-99865000D03*
X90890000Y-100515000D03*
X95190000Y-100515000D03*
X95190000Y-99865000D03*
X95190000Y-99215000D03*
X95190000Y-98565000D03*
%TD*%
D27*
%TO.C,C39*%
X104635400Y-67480800D03*
X105595400Y-67480800D03*
%TD*%
D15*
%TO.C,C21*%
X127450000Y-101330000D03*
X127450000Y-102290000D03*
%TD*%
D28*
%TO.C,C31*%
X121159000Y-76585000D03*
X121159000Y-75625000D03*
%TD*%
D17*
%TO.C,TP8*%
X86310000Y-114030000D03*
%TD*%
%TO.C,TP24*%
X117960000Y-102740000D03*
%TD*%
D12*
%TO.C,C35*%
X82650000Y-87720000D03*
X81690000Y-87720000D03*
%TD*%
D17*
%TO.C,TP6*%
X89200000Y-107450000D03*
%TD*%
D15*
%TO.C,C10*%
X110280000Y-114170000D03*
X110280000Y-115130000D03*
%TD*%
D17*
%TO.C,TP27*%
X103400000Y-58710000D03*
%TD*%
D15*
%TO.C,C11*%
X101370000Y-114140000D03*
X101370000Y-115100000D03*
%TD*%
D16*
%TO.C,R14*%
X92057300Y-63569000D03*
X92057300Y-64589000D03*
%TD*%
D10*
%TO.C,R11*%
X104604000Y-66292000D03*
X105624000Y-66292000D03*
%TD*%
D28*
%TO.C,C14*%
X99190000Y-121800000D03*
X99190000Y-120840000D03*
%TD*%
D35*
%TO.C,H2*%
X130683000Y-50604000D03*
%TD*%
D37*
%TO.C,C13*%
X105600000Y-111360000D03*
X105600000Y-117760000D03*
%TD*%
D35*
%TO.C,H1*%
X80020000Y-144380000D03*
%TD*%
D17*
%TO.C,TP11*%
X91810000Y-121920000D03*
%TD*%
D38*
%TO.C,Q2*%
X95751600Y-82862700D03*
X97049900Y-82862700D03*
X98313300Y-82862700D03*
X99611600Y-82862700D03*
D39*
X99961600Y-81957700D03*
%TD*%
D17*
%TO.C,TP1*%
X120190000Y-124230000D03*
%TD*%
D10*
%TO.C,R23*%
X115910000Y-120520000D03*
X116930000Y-120520000D03*
%TD*%
D28*
%TO.C,C33*%
X82970000Y-131240000D03*
X82970000Y-130280000D03*
%TD*%
D17*
%TO.C,TP3*%
X114410000Y-140150000D03*
%TD*%
D40*
%TO.C,JP4*%
X112551000Y-78590000D03*
X112551000Y-77290000D03*
X112551000Y-75990000D03*
%TD*%
D27*
%TO.C,C44*%
X95450000Y-97140000D03*
X96410000Y-97140000D03*
%TD*%
D41*
%TO.C,U9*%
X99201691Y-68022200D03*
X98701691Y-68022200D03*
X98171691Y-68022200D03*
X97701691Y-68022200D03*
X97201691Y-68022200D03*
X97201691Y-70822200D03*
X97701691Y-70822200D03*
X98201691Y-70822200D03*
X98701691Y-70822200D03*
X99201691Y-70822200D03*
D42*
X98201691Y-68847200D03*
X99151691Y-69422200D03*
D43*
X98201691Y-69422200D03*
D42*
X97251691Y-69422200D03*
X98201691Y-69997200D03*
%TD*%
D10*
%TO.C,R36*%
X95580000Y-138500000D03*
X96600000Y-138500000D03*
%TD*%
D17*
%TO.C,TP25*%
X97680000Y-58680000D03*
%TD*%
D27*
%TO.C,C22*%
X90120000Y-131850000D03*
X91080000Y-131850000D03*
%TD*%
D12*
%TO.C,C6*%
X113620000Y-106030000D03*
X112660000Y-106030000D03*
%TD*%
D44*
%TO.C,C46*%
X103851600Y-89640200D03*
X100851600Y-89640200D03*
%TD*%
D10*
%TO.C,R18*%
X109445000Y-68891000D03*
X110465000Y-68891000D03*
%TD*%
D38*
%TO.C,Q1*%
X93649887Y-77313864D03*
X92351587Y-77313864D03*
X91088187Y-77313864D03*
X89789887Y-77313864D03*
D45*
X89439887Y-78218864D03*
%TD*%
D10*
%TO.C,R25*%
X89810000Y-138540000D03*
X90830000Y-138540000D03*
%TD*%
D17*
%TO.C,TP10*%
X87760000Y-126010000D03*
%TD*%
D10*
%TO.C,R17*%
X90910000Y-102040000D03*
X91930000Y-102040000D03*
%TD*%
D27*
%TO.C,C42*%
X96189800Y-73128000D03*
X97149800Y-73128000D03*
%TD*%
D17*
%TO.C,TP7*%
X89180000Y-110620000D03*
%TD*%
D46*
%TO.C,C34*%
X92806600Y-85970200D03*
X95756600Y-85970200D03*
%TD*%
D17*
%TO.C,TP4*%
X117040000Y-140190000D03*
%TD*%
D47*
%TO.C,U1*%
X116140000Y-126170000D03*
X116140000Y-123870000D03*
X114240000Y-123870000D03*
X114240000Y-126170000D03*
%TD*%
D17*
%TO.C,TP13*%
X97670000Y-127850000D03*
%TD*%
D10*
%TO.C,R12*%
X98650200Y-73123400D03*
X99670200Y-73123400D03*
%TD*%
D21*
%TO.C,R4*%
X110465000Y-71760000D03*
X109445000Y-71760000D03*
%TD*%
D27*
%TO.C,C2*%
X113960000Y-109650000D03*
X114920000Y-109650000D03*
%TD*%
D10*
%TO.C,R19*%
X109445000Y-70325500D03*
X110465000Y-70325500D03*
%TD*%
D21*
%TO.C,R24*%
X90800000Y-137350000D03*
X89780000Y-137350000D03*
%TD*%
D27*
%TO.C,C23*%
X101730000Y-132610000D03*
X102690000Y-132610000D03*
%TD*%
D28*
%TO.C,C5*%
X112160000Y-121800000D03*
X112160000Y-120840000D03*
%TD*%
D17*
%TO.C,TP9*%
X86350000Y-110750000D03*
%TD*%
D21*
%TO.C,R2*%
X116890000Y-121740000D03*
X115870000Y-121740000D03*
%TD*%
D34*
%TO.C,R9*%
X80700000Y-132210000D03*
X80700000Y-131190000D03*
%TD*%
D12*
%TO.C,C17*%
X97210000Y-107780000D03*
X96250000Y-107780000D03*
%TD*%
D19*
%TO.C,JP1*%
X123010000Y-109250000D03*
D20*
X121710000Y-109250000D03*
%TD*%
D10*
%TO.C,R22*%
X106450000Y-54180000D03*
X107470000Y-54180000D03*
%TD*%
D12*
%TO.C,C8*%
X112290000Y-104240000D03*
X111330000Y-104240000D03*
%TD*%
D27*
%TO.C,C29*%
X95640000Y-137410000D03*
X96600000Y-137410000D03*
%TD*%
D17*
%TO.C,TP14*%
X107830000Y-129200000D03*
%TD*%
D27*
%TO.C,C27*%
X111051000Y-65931000D03*
X112011000Y-65931000D03*
%TD*%
D17*
%TO.C,TP22*%
X126093000Y-61620000D03*
%TD*%
%TO.C,TP2*%
X111890000Y-140150000D03*
%TD*%
D12*
%TO.C,C20*%
X122320000Y-96650000D03*
X121360000Y-96650000D03*
%TD*%
D10*
%TO.C,R21*%
X95600000Y-54220000D03*
X96620000Y-54220000D03*
%TD*%
D48*
%TO.C,C47*%
X103786600Y-92610200D03*
X100836600Y-92610200D03*
%TD*%
D15*
%TO.C,C24*%
X93630000Y-128670000D03*
X93630000Y-129630000D03*
%TD*%
D21*
%TO.C,R5*%
X116920000Y-119250000D03*
X115900000Y-119250000D03*
%TD*%
D46*
%TO.C,C36*%
X92766600Y-89380200D03*
X95716600Y-89380200D03*
%TD*%
D15*
%TO.C,C9*%
X111870000Y-114230000D03*
X111870000Y-115190000D03*
%TD*%
D49*
%TO.C,U11*%
X111185050Y-62440200D03*
X111185050Y-63380000D03*
X111185050Y-64319800D03*
X113940950Y-64319800D03*
X113940950Y-62440200D03*
%TD*%
D46*
%TO.C,C37*%
X92766600Y-92740200D03*
X95716600Y-92740200D03*
%TD*%
D10*
%TO.C,R28*%
X95600000Y-56220000D03*
X96620000Y-56220000D03*
%TD*%
D21*
%TO.C,R8*%
X95500000Y-119670000D03*
X94480000Y-119670000D03*
%TD*%
D50*
%TO.C,J4*%
X94701000Y-145782001D03*
D51*
X89621000Y-143622000D03*
X92161000Y-143622000D03*
X94701000Y-143622000D03*
X97241000Y-143622000D03*
%TD*%
D52*
%TO.C,J9*%
X84859000Y-50049000D03*
D53*
X84859000Y-52589000D03*
X84859000Y-55129000D03*
X84859000Y-57669000D03*
%TD*%
D54*
%TO.C,J2*%
X85190000Y-63390000D03*
X80110000Y-63390000D03*
%TD*%
%TO.C,J1*%
X85190000Y-70810000D03*
X80110000Y-70810000D03*
%TD*%
D52*
%TO.C,J6*%
X101626000Y-49799000D03*
D53*
X104166000Y-49799000D03*
X106706000Y-49799000D03*
X109246000Y-49799000D03*
X111786000Y-49799000D03*
X114326000Y-49799000D03*
X116866000Y-49799000D03*
X119406000Y-49799000D03*
%TD*%
D52*
%TO.C,J7*%
X83000000Y-76540000D03*
D53*
X85540000Y-76540000D03*
%TD*%
D52*
%TO.C,J3*%
X109350000Y-143580000D03*
D53*
X111890000Y-143580000D03*
X114430000Y-143580000D03*
X116970000Y-143580000D03*
X119510000Y-143580000D03*
%TD*%
D55*
%TO.C,J5*%
X130670000Y-57730000D03*
X125590000Y-58746000D03*
X125590000Y-56714000D03*
%TD*%
M02*
