%TF.GenerationSoftware,KiCad,Pcbnew,7.0.2*%
%TF.CreationDate,2023-09-06T19:35:35-04:00*%
%TF.ProjectId,bitaxeUltra,62697461-7865-4556-9c74-72612e6b6963,rev?*%
%TF.SameCoordinates,Original*%
%TF.FileFunction,Copper,L4,Bot*%
%TF.FilePolarity,Positive*%
%FSLAX46Y46*%
G04 Gerber Fmt 4.6, Leading zero omitted, Abs format (unit mm)*
G04 Created by KiCad (PCBNEW 7.0.2) date 2023-09-06 19:35:35*
%MOMM*%
%LPD*%
G01*
G04 APERTURE LIST*
G04 Aperture macros list*
%AMRoundRect*
0 Rectangle with rounded corners*
0 $1 Rounding radius*
0 $2 $3 $4 $5 $6 $7 $8 $9 X,Y pos of 4 corners*
0 Add a 4 corners polygon primitive as box body*
4,1,4,$2,$3,$4,$5,$6,$7,$8,$9,$2,$3,0*
0 Add four circle primitives for the rounded corners*
1,1,$1+$1,$2,$3*
1,1,$1+$1,$4,$5*
1,1,$1+$1,$6,$7*
1,1,$1+$1,$8,$9*
0 Add four rect primitives between the rounded corners*
20,1,$1+$1,$2,$3,$4,$5,0*
20,1,$1+$1,$4,$5,$6,$7,0*
20,1,$1+$1,$6,$7,$8,$9,0*
20,1,$1+$1,$8,$9,$2,$3,0*%
G04 Aperture macros list end*
%TA.AperFunction,ComponentPad*%
%ADD10C,0.800000*%
%TD*%
%TA.AperFunction,ComponentPad*%
%ADD11C,6.000000*%
%TD*%
%TA.AperFunction,ComponentPad*%
%ADD12C,0.500000*%
%TD*%
%TA.AperFunction,ComponentPad*%
%ADD13C,0.400000*%
%TD*%
%TA.AperFunction,ComponentPad*%
%ADD14C,1.574800*%
%TD*%
%TA.AperFunction,ComponentPad*%
%ADD15R,1.700000X1.700000*%
%TD*%
%TA.AperFunction,ComponentPad*%
%ADD16O,1.700000X1.700000*%
%TD*%
%TA.AperFunction,SMDPad,CuDef*%
%ADD17R,1.150000X0.600000*%
%TD*%
%TA.AperFunction,SMDPad,CuDef*%
%ADD18R,1.150000X0.300000*%
%TD*%
%TA.AperFunction,ComponentPad*%
%ADD19O,1.800000X1.000000*%
%TD*%
%TA.AperFunction,ComponentPad*%
%ADD20O,2.100000X1.000000*%
%TD*%
%TA.AperFunction,ComponentPad*%
%ADD21R,3.500000X4.000000*%
%TD*%
%TA.AperFunction,ComponentPad*%
%ADD22RoundRect,0.750000X-0.750000X-1.000000X0.750000X-1.000000X0.750000X1.000000X-0.750000X1.000000X0*%
%TD*%
%TA.AperFunction,ComponentPad*%
%ADD23RoundRect,0.875000X-0.875000X-0.875000X0.875000X-0.875000X0.875000X0.875000X-0.875000X0.875000X0*%
%TD*%
%TA.AperFunction,SMDPad,CuDef*%
%ADD24R,0.900000X1.500000*%
%TD*%
%TA.AperFunction,SMDPad,CuDef*%
%ADD25R,1.500000X0.900000*%
%TD*%
%TA.AperFunction,SMDPad,CuDef*%
%ADD26R,0.900000X0.900000*%
%TD*%
%TA.AperFunction,ConnectorPad*%
%ADD27C,0.787400*%
%TD*%
%TA.AperFunction,SMDPad,CuDef*%
%ADD28R,0.792000X0.221000*%
%TD*%
%TA.AperFunction,SMDPad,CuDef*%
%ADD29R,4.277000X1.810000*%
%TD*%
%TA.AperFunction,SMDPad,CuDef*%
%ADD30R,4.277000X4.530000*%
%TD*%
%TA.AperFunction,SMDPad,CuDef*%
%ADD31RoundRect,0.250000X-0.550000X1.500000X-0.550000X-1.500000X0.550000X-1.500000X0.550000X1.500000X0*%
%TD*%
%TA.AperFunction,SMDPad,CuDef*%
%ADD32R,0.508000X1.524000*%
%TD*%
%TA.AperFunction,ViaPad*%
%ADD33C,0.800000*%
%TD*%
%TA.AperFunction,ViaPad*%
%ADD34C,1.000000*%
%TD*%
%TA.AperFunction,ViaPad*%
%ADD35C,1.200000*%
%TD*%
%TA.AperFunction,Conductor*%
%ADD36C,0.508000*%
%TD*%
%TA.AperFunction,Conductor*%
%ADD37C,0.254000*%
%TD*%
%TA.AperFunction,Conductor*%
%ADD38C,1.000000*%
%TD*%
G04 APERTURE END LIST*
D10*
%TO.P,H7,1,1*%
%TO.N,GND*%
X127985010Y-51120990D03*
X128644020Y-49530000D03*
X128644020Y-52711980D03*
X130235010Y-48870990D03*
D11*
X130235010Y-51120990D03*
D10*
X130235010Y-53370990D03*
X131826000Y-49530000D03*
X131826000Y-52711980D03*
X132485010Y-51120990D03*
%TD*%
D12*
%TO.P,U2,16,GND*%
%TO.N,GND*%
X116922000Y-98765000D03*
%TO.P,U2,17,GND*%
X116922000Y-99765000D03*
%TO.P,U2,18,GND*%
X115922000Y-99765000D03*
%TO.P,U2,19,GND*%
X115922000Y-98765000D03*
%TD*%
D10*
%TO.P,H9,1,1*%
%TO.N,GND*%
X128052000Y-143728000D03*
X128711010Y-142137010D03*
X128711010Y-145318990D03*
X130302000Y-141478000D03*
D11*
X130302000Y-143728000D03*
D10*
X130302000Y-145978000D03*
X131892990Y-142137010D03*
X131892990Y-145318990D03*
X132552000Y-143728000D03*
%TD*%
%TO.P,H10,1,1*%
%TO.N,GND*%
X78455010Y-143830990D03*
X79114020Y-142240000D03*
X79114020Y-145421980D03*
X80705010Y-141580990D03*
D11*
X80705010Y-143830990D03*
D10*
X80705010Y-146080990D03*
X82296000Y-142240000D03*
X82296000Y-145421980D03*
X82955010Y-143830990D03*
%TD*%
D13*
%TO.P,U9,11,GND*%
%TO.N,GND*%
X98201691Y-68847200D03*
X99151691Y-69422200D03*
X97251691Y-69422200D03*
X98201691Y-69997200D03*
%TD*%
D10*
%TO.P,H8,1,1*%
%TO.N,GND*%
X78558000Y-51054000D03*
X79217010Y-49463010D03*
X79217010Y-52644990D03*
X80808000Y-48804000D03*
D11*
X80808000Y-51054000D03*
D10*
X80808000Y-53304000D03*
X82398990Y-49463010D03*
X82398990Y-52644990D03*
X83058000Y-51054000D03*
%TD*%
D14*
%TO.P,J4,1,Pin_1*%
%TO.N,GND*%
X89621000Y-143622000D03*
%TO.P,J4,2,Pin_2*%
%TO.N,/5V*%
X92161000Y-143622000D03*
%TO.P,J4,3,Pin_3*%
%TO.N,/Fan/FAN_TACH*%
X94701000Y-143622000D03*
%TO.P,J4,4,Pin_4*%
%TO.N,/Fan/FAN_PWM*%
X97241000Y-143622000D03*
%TD*%
D15*
%TO.P,J9,1,Pin_1*%
%TO.N,GND*%
X86106000Y-50038000D03*
D16*
%TO.P,J9,2,Pin_2*%
%TO.N,/3V3*%
X86106000Y-52578000D03*
%TO.P,J9,3,Pin_3*%
%TO.N,/SCL*%
X86106000Y-55118000D03*
%TO.P,J9,4,Pin_4*%
%TO.N,/SDA*%
X86106000Y-57658000D03*
%TD*%
D15*
%TO.P,J6,1,Pin_1*%
%TO.N,/RST*%
X104293000Y-49587000D03*
D16*
%TO.P,J6,2,Pin_2*%
%TO.N,/RX*%
X106833000Y-49587000D03*
%TO.P,J6,3,Pin_3*%
%TO.N,/TX*%
X109373000Y-49587000D03*
%TO.P,J6,4,Pin_4*%
%TO.N,/SDA*%
X111913000Y-49587000D03*
%TO.P,J6,5,Pin_5*%
%TO.N,/SCL*%
X114453000Y-49587000D03*
%TO.P,J6,6,Pin_6*%
%TO.N,/3V3*%
X116993000Y-49587000D03*
%TO.P,J6,7,Pin_7*%
%TO.N,GND*%
X119533000Y-49587000D03*
%TD*%
D15*
%TO.P,J7,1,Pin_1*%
%TO.N,/Power/VIN*%
X83000000Y-76540000D03*
D16*
%TO.P,J7,2,Pin_2*%
%TO.N,/5V*%
X85540000Y-76540000D03*
%TD*%
D15*
%TO.P,J3,1,Pin_1*%
%TO.N,/BM1366/1V8*%
X109350000Y-143580000D03*
D16*
%TO.P,J3,2,Pin_2*%
%TO.N,/BM1366/CI*%
X111890000Y-143580000D03*
%TO.P,J3,3,Pin_3*%
%TO.N,/BM1366/RO*%
X114430000Y-143580000D03*
%TO.P,J3,4,Pin_4*%
%TO.N,/BM1366/RST_N*%
X116970000Y-143580000D03*
%TO.P,J3,5,Pin_5*%
%TO.N,GND*%
X119510000Y-143580000D03*
%TD*%
D17*
%TO.P,J8,A1,GND*%
%TO.N,GND*%
X126368000Y-89256000D03*
%TO.P,J8,A4,VBUS*%
%TO.N,Net-(D1-Pad2)*%
X126368000Y-90056000D03*
D18*
%TO.P,J8,A5,CC1*%
%TO.N,unconnected-(J8-CC1-PadA5)*%
X126368000Y-91206000D03*
%TO.P,J8,A6,D+*%
%TO.N,Net-(U12-GPIO20{slash}U1CTS{slash}ADC2_CH9{slash}CLK_OUT1{slash}USB_D+)*%
X126368000Y-92206000D03*
%TO.P,J8,A7,D-*%
%TO.N,Net-(U12-GPIO19{slash}U1RTS{slash}ADC2_CH8{slash}CLK_OUT2{slash}USB_D-)*%
X126368000Y-92706000D03*
%TO.P,J8,A8,SBU1*%
%TO.N,unconnected-(J8-SBU1-PadA8)*%
X126368000Y-93706000D03*
D17*
%TO.P,J8,A9,VBUS*%
%TO.N,Net-(D1-Pad2)*%
X126368000Y-94856000D03*
%TO.P,J8,A12,GND*%
%TO.N,GND*%
X126368000Y-95656000D03*
%TO.P,J8,B1,GND*%
X126368000Y-95656000D03*
%TO.P,J8,B4,VBUS*%
%TO.N,Net-(D1-Pad2)*%
X126368000Y-94856000D03*
D18*
%TO.P,J8,B5,CC2*%
%TO.N,unconnected-(J8-CC2-PadB5)*%
X126368000Y-94206000D03*
%TO.P,J8,B6,D+*%
%TO.N,unconnected-(J8-D+-PadB6)*%
X126368000Y-93206000D03*
%TO.P,J8,B7,D-*%
%TO.N,unconnected-(J8-D--PadB7)*%
X126368000Y-91706000D03*
%TO.P,J8,B8,SBU2*%
%TO.N,unconnected-(J8-SBU2-PadB8)*%
X126368000Y-90706000D03*
D17*
%TO.P,J8,B9,VBUS*%
%TO.N,Net-(D1-Pad2)*%
X126368000Y-90056000D03*
%TO.P,J8,B12,GND*%
%TO.N,GND*%
X126368000Y-89256000D03*
D19*
%TO.P,J8,S1,SHIELD*%
X131123000Y-88136000D03*
D20*
X126943000Y-88136000D03*
D19*
X131123000Y-96776000D03*
D20*
X126943000Y-96776000D03*
%TD*%
D21*
%TO.P,J10,1*%
%TO.N,/Power/VIN*%
X88423000Y-69584000D03*
D22*
%TO.P,J10,2*%
%TO.N,GND*%
X82423000Y-69584000D03*
D23*
%TO.P,J10,3*%
%TO.N,unconnected-(J10-Pad3)*%
X85423000Y-64884000D03*
%TD*%
D24*
%TO.P,U12,1,GND*%
%TO.N,GND*%
X131870000Y-81710000D03*
%TO.P,U12,2,3V3*%
%TO.N,/3V3*%
X130600000Y-81710000D03*
%TO.P,U12,3,EN*%
%TO.N,/ESP32/EN*%
X129330000Y-81710000D03*
%TO.P,U12,4,GPIO4/TOUCH4/ADC1_CH3*%
%TO.N,unconnected-(U12-GPIO4{slash}TOUCH4{slash}ADC1_CH3-Pad4)*%
X128060000Y-81710000D03*
%TO.P,U12,5,GPIO5/TOUCH5/ADC1_CH4*%
%TO.N,unconnected-(U12-GPIO5{slash}TOUCH5{slash}ADC1_CH4-Pad5)*%
X126790000Y-81710000D03*
%TO.P,U12,6,GPIO6/TOUCH6/ADC1_CH5*%
%TO.N,unconnected-(U12-GPIO6{slash}TOUCH6{slash}ADC1_CH5-Pad6)*%
X125520000Y-81710000D03*
%TO.P,U12,7,GPIO7/TOUCH7/ADC1_CH6*%
%TO.N,unconnected-(U12-GPIO7{slash}TOUCH7{slash}ADC1_CH6-Pad7)*%
X124250000Y-81710000D03*
%TO.P,U12,8,GPIO15/U0RTS/ADC2_CH4/XTAL_32K_P*%
%TO.N,/ESP32/XIN32*%
X122980000Y-81710000D03*
%TO.P,U12,9,GPIO16/U0CTS/ADC2_CH5/XTAL_32K_NH5*%
%TO.N,/ESP32/XOUT32*%
X121710000Y-81710000D03*
%TO.P,U12,10,GPIO17/U1TXD/ADC2_CH6*%
%TO.N,/TX*%
X120440000Y-81710000D03*
%TO.P,U12,11,GPIO18/U1RXD/ADC2_CH7/CLK_OUT3*%
%TO.N,/RX*%
X119170000Y-81710000D03*
%TO.P,U12,12,GPIO8/TOUCH8/ADC1_CH7/SUBSPICS1*%
%TO.N,unconnected-(U12-GPIO8{slash}TOUCH8{slash}ADC1_CH7{slash}SUBSPICS1-Pad12)*%
X117900000Y-81710000D03*
%TO.P,U12,13,GPIO19/U1RTS/ADC2_CH8/CLK_OUT2/USB_D-*%
%TO.N,Net-(U12-GPIO19{slash}U1RTS{slash}ADC2_CH8{slash}CLK_OUT2{slash}USB_D-)*%
X116630000Y-81710000D03*
%TO.P,U12,14,GPIO20/U1CTS/ADC2_CH9/CLK_OUT1/USB_D+*%
%TO.N,Net-(U12-GPIO20{slash}U1CTS{slash}ADC2_CH9{slash}CLK_OUT1{slash}USB_D+)*%
X115360000Y-81710000D03*
D25*
%TO.P,U12,15,GPIO3/TOUCH3/ADC1_CH2\u002A*%
%TO.N,/3V3*%
X114110000Y-79945000D03*
%TO.P,U12,16,\u002AGPIO46*%
%TO.N,unconnected-(U12-\u002AGPIO46-Pad16)*%
X114110000Y-78675000D03*
%TO.P,U12,17,GPIO9/TOUCH9/ADC1_CH8/FSPIHD/SUBSPIHD*%
%TO.N,unconnected-(U12-GPIO9{slash}TOUCH9{slash}ADC1_CH8{slash}FSPIHD{slash}SUBSPIHD-Pad17)*%
X114110000Y-77405000D03*
%TO.P,U12,18,GPIO10/TOUCH10/ADC1_CH9/FSPICS0/FSPIIO4/SUBSPICS0*%
%TO.N,unconnected-(U12-GPIO10{slash}TOUCH10{slash}ADC1_CH9{slash}FSPICS0{slash}FSPIIO4{slash}SUBSPICS0-Pad18)*%
X114110000Y-76135000D03*
%TO.P,U12,19,GPIO11/TOUCH11/ADC2_CH0/FSPID/FSPIIO5/SUBSPID*%
%TO.N,/Power/PGOOD*%
X114110000Y-74865000D03*
%TO.P,U12,20,GPIO12/TOUCH12/ADC2_CH1/FSPICLK/FSPIIO6/SUBSPICLK*%
%TO.N,unconnected-(U12-GPIO12{slash}TOUCH12{slash}ADC2_CH1{slash}FSPICLK{slash}FSPIIO6{slash}SUBSPICLK-Pad20)*%
X114110000Y-73595000D03*
%TO.P,U12,21,GPIO13/TOUCH13/ADC2_CH2/FSPIQ/FSPIIO7/SUBSPIQ*%
%TO.N,unconnected-(U12-GPIO13{slash}TOUCH13{slash}ADC2_CH2{slash}FSPIQ{slash}FSPIIO7{slash}SUBSPIQ-Pad21)*%
X114110000Y-72325000D03*
%TO.P,U12,22,GPIO14/TOUCH14/ADC2_CH3/FSPIWP/FSPIDQS/SUBSPIWP*%
%TO.N,unconnected-(U12-GPIO14{slash}TOUCH14{slash}ADC2_CH3{slash}FSPIWP{slash}FSPIDQS{slash}SUBSPIWP-Pad22)*%
X114110000Y-71055000D03*
%TO.P,U12,23,GPIO21*%
%TO.N,unconnected-(U12-GPIO21-Pad23)*%
X114110000Y-69785000D03*
%TO.P,U12,24,GPIO47/SPICLK_P/SUBSPICLK_P_DIFF*%
%TO.N,/SDA*%
X114110000Y-68515000D03*
%TO.P,U12,25,GPIO48/SPICLK_N/SUBSPICLK_N_DIFF*%
%TO.N,/SCL*%
X114110000Y-67245000D03*
%TO.P,U12,26,\u002AGPIO45*%
%TO.N,unconnected-(U12-\u002AGPIO45-Pad26)*%
X114110000Y-65975000D03*
D24*
%TO.P,U12,27,GPIO0/BOOT\u002A*%
%TO.N,/ESP32/IO0*%
X115360000Y-64210000D03*
%TO.P,U12,28,SPIIO6/GPIO35/FSPID/SUBSPID*%
%TO.N,unconnected-(U12-SPIIO6{slash}GPIO35{slash}FSPID{slash}SUBSPID-Pad28)*%
X116630000Y-64210000D03*
%TO.P,U12,29,SPIIO7/GPIO36/FSPICLK/SUBSPICLK*%
%TO.N,unconnected-(U12-SPIIO7{slash}GPIO36{slash}FSPICLK{slash}SUBSPICLK-Pad29)*%
X117900000Y-64210000D03*
%TO.P,U12,30,SPIDQS/GPIO37/FSPIQ/SUBSPIQ*%
%TO.N,unconnected-(U12-SPIDQS{slash}GPIO37{slash}FSPIQ{slash}SUBSPIQ-Pad30)*%
X119170000Y-64210000D03*
%TO.P,U12,31,GPIO38/FSPIWP/SUBSPIWP*%
%TO.N,unconnected-(U12-GPIO38{slash}FSPIWP{slash}SUBSPIWP-Pad31)*%
X120440000Y-64210000D03*
%TO.P,U12,32,MTCK/GPIO39/CLK_OUT3/SUBSPICS1*%
%TO.N,unconnected-(U12-MTCK{slash}GPIO39{slash}CLK_OUT3{slash}SUBSPICS1-Pad32)*%
X121710000Y-64210000D03*
%TO.P,U12,33,MTDO/GPIO40/CLK_OUT2*%
%TO.N,unconnected-(U12-MTDO{slash}GPIO40{slash}CLK_OUT2-Pad33)*%
X122980000Y-64210000D03*
%TO.P,U12,34,MTDI/GPIO41/CLK_OUT1*%
%TO.N,unconnected-(U12-MTDI{slash}GPIO41{slash}CLK_OUT1-Pad34)*%
X124250000Y-64210000D03*
%TO.P,U12,35,MTMS/GPIO42*%
%TO.N,unconnected-(U12-MTMS{slash}GPIO42-Pad35)*%
X125520000Y-64210000D03*
%TO.P,U12,36,U0RXD/GPIO44/CLK_OUT2*%
%TO.N,/ESP32/P_RX*%
X126790000Y-64210000D03*
%TO.P,U12,37,U0TXD/GPIO43/CLK_OUT1*%
%TO.N,/ESP32/P_TX*%
X128060000Y-64210000D03*
%TO.P,U12,38,GPIO2/TOUCH2/ADC1_CH1*%
%TO.N,/VDD*%
X129330000Y-64210000D03*
%TO.P,U12,39,GPIO1/TOUCH1/ADC1_CH0*%
%TO.N,/RST*%
X130600000Y-64210000D03*
%TO.P,U12,40,GND*%
%TO.N,GND*%
X131870000Y-64210000D03*
D26*
%TO.P,U12,41,GND*%
X122750000Y-75860000D03*
X124150000Y-75860000D03*
X125550000Y-75860000D03*
X122750000Y-74460000D03*
X124150000Y-74460000D03*
X125550000Y-74460000D03*
X122750000Y-73060000D03*
X124150000Y-73060000D03*
X125550000Y-73060000D03*
%TD*%
D27*
%TO.P,J5,1,Pin_1*%
%TO.N,/ESP32/EN*%
X129400000Y-58365000D03*
%TO.P,J5,2,Pin_2*%
%TO.N,/3V3*%
X129400000Y-57095000D03*
%TO.P,J5,3,Pin_3*%
%TO.N,/ESP32/P_TX*%
X128130000Y-58365000D03*
%TO.P,J5,4,Pin_4*%
%TO.N,GND*%
X128130000Y-57095000D03*
%TO.P,J5,5,Pin_5*%
%TO.N,/ESP32/P_RX*%
X126860000Y-58365000D03*
%TO.P,J5,6,Pin_6*%
%TO.N,/ESP32/IO0*%
X126860000Y-57095000D03*
%TD*%
D28*
%TO.P,U14,1,VDD1_0*%
%TO.N,/BM1366/VDD1_0*%
X108528000Y-112805000D03*
%TO.P,U14,2,VDD2_0*%
%TO.N,/BM1366/VDD2_0*%
X108528000Y-113307000D03*
%TO.P,U14,3,VDD3_0*%
%TO.N,/BM1366/VDD3_0*%
X108528000Y-113809000D03*
%TO.P,U14,4,VDD4_0*%
%TO.N,/BM1366/VDD4_0*%
X108528000Y-114311000D03*
%TO.P,U14,5,NRSTI*%
%TO.N,/BM1366/RST_N*%
X108528000Y-114813000D03*
%TO.P,U14,6,BI*%
%TO.N,/BM1366/BI*%
X108528000Y-115315000D03*
%TO.P,U14,7,RO*%
%TO.N,/BM1366/RO*%
X108528000Y-115817000D03*
%TO.P,U14,8,CLKI*%
%TO.N,/BM1366/CLKI*%
X108528000Y-116319000D03*
%TO.P,U14,9,CI*%
%TO.N,/BM1366/CI*%
X108528000Y-116821000D03*
%TO.P,U14,10,TEMP_P*%
%TO.N,/BM1366/TEMP_P*%
X108528000Y-117323000D03*
%TO.P,U14,11,TEMP_N*%
%TO.N,/BM1366/TEMP_N*%
X108528000Y-117825000D03*
%TO.P,U14,12,MODEO*%
%TO.N,/BM1366/MODE_OUT*%
X108528000Y-118327000D03*
%TO.P,U14,13,VDDIO_08_0*%
%TO.N,/BM1366/0V8*%
X108528000Y-118829000D03*
%TO.P,U14,14,VDDIO_18_0*%
%TO.N,/BM1366/1V8*%
X108528000Y-119331000D03*
%TO.P,U14,15,VDDIO_18_1*%
X102696000Y-119318000D03*
%TO.P,U14,16,VDDIO_08_1*%
%TO.N,/BM1366/0V8*%
X102696000Y-118818000D03*
%TO.P,U14,17,MODE_1*%
%TO.N,/BM1366/MODE_1*%
X102696000Y-118318000D03*
%TO.P,U14,18,MODE_0*%
%TO.N,/BM1366/MODE_0*%
X102696000Y-117818000D03*
%TO.P,U14,19,NC*%
%TO.N,/BM1366/NC*%
X102696000Y-117318000D03*
%TO.P,U14,20,CO*%
%TO.N,/BM1366/CO*%
X102696000Y-116821000D03*
%TO.P,U14,21,CLKO*%
%TO.N,/BM1366/CLKO*%
X102696000Y-116318000D03*
%TO.P,U14,22,RI*%
%TO.N,/BM1366/RI*%
X102696000Y-115817000D03*
%TO.P,U14,23,BO*%
%TO.N,/BM1366/BO*%
X102696000Y-115315000D03*
%TO.P,U14,24,NRSTO*%
%TO.N,/BM1366/NRSTO*%
X102696000Y-114813000D03*
%TO.P,U14,25,VDD4_0*%
%TO.N,/BM1366/VDD4_1*%
X102696000Y-114311000D03*
%TO.P,U14,26,VDD3_1*%
%TO.N,/BM1366/VDD3_1*%
X102696000Y-113818000D03*
%TO.P,U14,27,VDD2_1*%
%TO.N,/BM1366/VDD2_1*%
X102696000Y-113307000D03*
%TO.P,U14,28,VDD1_1*%
%TO.N,/BM1366/VDD1_1*%
X102696000Y-112818000D03*
D29*
%TO.P,U14,29,VDD*%
%TO.N,/VDD*%
X105612000Y-113600000D03*
D30*
%TO.P,U14,30,GND*%
%TO.N,GND*%
X105612000Y-117176000D03*
%TD*%
D31*
%TO.P,C28,1*%
%TO.N,/5V*%
X103490000Y-138720000D03*
%TO.P,C28,2*%
%TO.N,GND*%
X103490000Y-144120000D03*
%TD*%
D32*
%TO.P,SW1,1*%
%TO.N,GND*%
X132345000Y-104448000D03*
%TO.P,SW1,2*%
%TO.N,/ESP32/EN*%
X128027000Y-104448000D03*
%TD*%
%TO.P,SW2,1*%
%TO.N,GND*%
X132241000Y-113155000D03*
%TO.P,SW2,2*%
%TO.N,/ESP32/IO0*%
X127923000Y-113155000D03*
%TD*%
D33*
%TO.N,GND*%
X78090000Y-82060000D03*
X100850600Y-73131400D03*
X116910000Y-128990000D03*
D34*
X126719000Y-75842000D03*
D33*
X97320000Y-93500000D03*
X131780000Y-62110000D03*
X112980000Y-131260000D03*
X97320000Y-87878600D03*
X100580000Y-87270000D03*
X106396000Y-118533000D03*
X97320000Y-84830000D03*
X98860000Y-84830000D03*
X104082000Y-115436000D03*
X98682000Y-136516000D03*
X98860000Y-93500000D03*
X106408000Y-116351000D03*
X128120000Y-55550000D03*
X95758000Y-69431400D03*
D34*
X100765000Y-145890000D03*
D33*
X94890000Y-62470000D03*
X97320000Y-86310000D03*
X105673000Y-117442000D03*
X80660000Y-87760000D03*
X97320000Y-89650000D03*
D34*
X126719000Y-74372000D03*
D33*
X90360055Y-101249945D03*
X98860000Y-91520000D03*
X117602000Y-123903000D03*
X104855000Y-118563000D03*
X104132000Y-117472000D03*
X121210000Y-74547000D03*
X98860000Y-86310000D03*
X97320000Y-91520000D03*
X112922500Y-102037000D03*
X107144000Y-117442000D03*
X90897000Y-129309000D03*
D34*
X131250000Y-99822000D03*
D33*
X112318000Y-95325000D03*
X112512000Y-61250000D03*
X105623000Y-115406000D03*
X98860000Y-89650000D03*
X104867000Y-116381000D03*
X86970000Y-82770000D03*
D34*
X126719000Y-73012000D03*
D33*
X105330000Y-132320000D03*
X104430000Y-130240000D03*
D34*
X132450000Y-84290000D03*
D33*
X98860000Y-87878600D03*
X115573700Y-102188000D03*
X120310000Y-100000000D03*
X102082600Y-109067600D03*
X96840000Y-98140000D03*
X132297000Y-108743000D03*
X92910000Y-102990000D03*
X95260000Y-132630000D03*
X107094000Y-115406000D03*
X100580000Y-85521400D03*
%TO.N,/BM1366/1V8*%
X101015000Y-126170000D03*
X115737362Y-96385646D03*
X118490000Y-127770000D03*
X117172000Y-102173000D03*
X112130000Y-127390000D03*
X109458000Y-122723000D03*
X101015000Y-121775000D03*
%TO.N,/BM1366/VDD4_0*%
X115099642Y-112550642D03*
%TO.N,/VDD*%
X110361000Y-82986000D03*
X116198500Y-68651500D03*
X103000000Y-104240000D03*
X105152000Y-113890000D03*
D35*
X107870000Y-90540000D03*
X107910000Y-92670000D03*
D33*
X104126000Y-113110000D03*
X108330000Y-104270000D03*
X105410000Y-62838100D03*
X107204000Y-113920000D03*
D35*
X107910000Y-94640000D03*
D33*
X106178000Y-113110000D03*
D35*
X105880000Y-90540000D03*
X105880000Y-88500000D03*
X107850000Y-88520000D03*
X105930000Y-94670000D03*
X105900000Y-92650000D03*
D33*
%TO.N,/ESP32/EN*%
X126293000Y-104178000D03*
X132665000Y-68760000D03*
X122101300Y-70905000D03*
D34*
%TO.N,/5V*%
X114580768Y-88400366D03*
D33*
X88883000Y-131168000D03*
X100470000Y-66770000D03*
X94580000Y-137390000D03*
X90881000Y-131182000D03*
D35*
X109323000Y-63360000D03*
D33*
X98450000Y-131200000D03*
%TO.N,/3V3*%
X115457000Y-62413000D03*
X114010000Y-95176000D03*
X127766000Y-100521000D03*
X129610000Y-55490000D03*
X115895000Y-79945000D03*
D34*
X129310000Y-83980000D03*
D33*
X110548000Y-70672000D03*
X130940000Y-76750000D03*
X98662000Y-137914100D03*
X117172000Y-96434000D03*
X83700000Y-87750000D03*
X101092000Y-109016800D03*
X94100000Y-97190000D03*
X82990000Y-85090000D03*
%TO.N,/TX*%
X118240000Y-70860000D03*
%TO.N,/RX*%
X116918500Y-70448500D03*
%TO.N,/BM1366/VDD3_0*%
X115070000Y-111160000D03*
%TO.N,/BM1366/VDD2_0*%
X112530000Y-107800000D03*
%TO.N,/RST*%
X120676000Y-54726000D03*
X121437000Y-70037900D03*
%TO.N,/BM1366/MODE_OUT*%
X110862000Y-121832000D03*
%TO.N,/SCL*%
X120743000Y-68680100D03*
X85120000Y-86810000D03*
X90390000Y-96230000D03*
X97713800Y-120675400D03*
%TO.N,/Power/OUT0*%
X91440000Y-95040000D03*
X94689900Y-72637701D03*
%TO.N,/BM1366/0V8*%
X108468000Y-124939000D03*
X100155000Y-123661000D03*
X104431000Y-124939000D03*
X103530000Y-127490000D03*
%TO.N,/BM1366/VDD1_0*%
X111250000Y-106010000D03*
%TO.N,/BM1366/VDD1_1*%
X98602800Y-107213400D03*
%TO.N,/BM1366/VDD2_1*%
X97409000Y-108966000D03*
%TO.N,/BM1366/MODE_0*%
X91480645Y-121097045D03*
%TO.N,/BM1366/VDD3_1*%
X96130000Y-110920000D03*
%TO.N,/BM1366/VDD4_1*%
X96109000Y-112124000D03*
%TO.N,Net-(U9-BOOT)*%
X95368800Y-71183600D03*
X95958800Y-74273600D03*
%TO.N,/BM1366/CI*%
X121860400Y-130850000D03*
X113272599Y-98869299D03*
%TO.N,/BM1366/RO*%
X112962000Y-97645000D03*
X116428000Y-115817000D03*
%TO.N,/BM1366/RST_N*%
X117148868Y-114071132D03*
X111948000Y-102053000D03*
%TO.N,Net-(Q2-G)*%
X101710600Y-82811400D03*
X102700000Y-75260000D03*
%TO.N,/BM1366/RI*%
X96774000Y-114909600D03*
%TO.N,/BM1366/CLKI*%
X114844000Y-116495900D03*
%TO.N,/BM1366/NRSTO*%
X96967045Y-112836955D03*
%TO.N,/BM1366/BO*%
X96995638Y-113825659D03*
%TO.N,/BM1366/CLKO*%
X96266000Y-116154200D03*
%TO.N,/BM1366/CO*%
X94996000Y-117551200D03*
%TO.N,/ESP32/P_TX*%
X128060000Y-61549000D03*
%TO.N,/ESP32/P_RX*%
X124447000Y-61551000D03*
%TO.N,/ESP32/IO0*%
X124830000Y-55100000D03*
X122113000Y-68573000D03*
X123719000Y-98362000D03*
%TO.N,/ESP32/XIN32*%
X124019000Y-80080000D03*
%TO.N,/BM1366/MODE_1*%
X99393000Y-122727000D03*
%TO.N,/ESP32/XOUT32*%
X121248000Y-80100000D03*
%TO.N,/Power/PGOOD*%
X108278900Y-71440000D03*
%TO.N,/SDA*%
X97777539Y-119687890D03*
X116560000Y-72727000D03*
X84730000Y-85730000D03*
X91500000Y-96290000D03*
X104902000Y-61620400D03*
%TO.N,/BM1366/BI*%
X115540000Y-114780000D03*
%TO.N,/BM1366/NC*%
X92430600Y-118795800D03*
D34*
%TO.N,Net-(D1-Pad2)*%
X121666000Y-90932000D03*
X121666000Y-94488000D03*
%TD*%
D36*
%TO.N,GND*%
X100765000Y-145045000D02*
X100765000Y-145890000D01*
D37*
X132345000Y-104448000D02*
X132345000Y-108695000D01*
D36*
X128130000Y-57095000D02*
X128130000Y-55560000D01*
D37*
X126368000Y-89256000D02*
X126368000Y-88711000D01*
D38*
X122750000Y-75860000D02*
X126701000Y-75860000D01*
X122750000Y-73060000D02*
X126671000Y-73060000D01*
D37*
X132241000Y-108799000D02*
X132297000Y-108743000D01*
D36*
X131870000Y-62200000D02*
X131870000Y-64210000D01*
D38*
X132450000Y-84290000D02*
X131870000Y-83710000D01*
D37*
X132345000Y-108695000D02*
X132297000Y-108743000D01*
D38*
X126671000Y-73060000D02*
X126719000Y-73012000D01*
X122750000Y-74460000D02*
X126631000Y-74460000D01*
D36*
X101690000Y-144120000D02*
X100765000Y-145045000D01*
X128130000Y-55560000D02*
X128120000Y-55550000D01*
D37*
X132241000Y-113155000D02*
X132241000Y-108799000D01*
D36*
X103490000Y-144120000D02*
X101690000Y-144120000D01*
X131780000Y-62110000D02*
X131870000Y-62200000D01*
D38*
X126631000Y-74460000D02*
X126719000Y-74372000D01*
D37*
X126368000Y-88711000D02*
X126943000Y-88136000D01*
D38*
X126701000Y-75860000D02*
X126719000Y-75842000D01*
D37*
X126368000Y-95656000D02*
X126368000Y-96201000D01*
X126368000Y-96201000D02*
X126943000Y-96776000D01*
D38*
X131870000Y-83710000D02*
X131870000Y-81710000D01*
D37*
%TO.N,/BM1366/1V8*%
X101015000Y-121775000D02*
X101668800Y-121775000D01*
X101668800Y-121775000D02*
X102696000Y-120747800D01*
D36*
X118302000Y-98950284D02*
X118302000Y-101043000D01*
X112130000Y-127390000D02*
X112510000Y-127770000D01*
D37*
X109450000Y-122715000D02*
X109450000Y-119488000D01*
X109450000Y-119488000D02*
X109293000Y-119331000D01*
X101015000Y-126170000D02*
X101015000Y-121775000D01*
X102696000Y-120747800D02*
X102696000Y-119318000D01*
D36*
X112510000Y-127770000D02*
X118490000Y-127770000D01*
X118302000Y-101043000D02*
X117172000Y-102173000D01*
X118490000Y-134440000D02*
X109350000Y-143580000D01*
X118490000Y-127770000D02*
X118490000Y-134440000D01*
X115737362Y-96385646D02*
X118302000Y-98950284D01*
D37*
X109293000Y-119331000D02*
X108528000Y-119331000D01*
X109458000Y-122723000D02*
X109450000Y-122715000D01*
%TO.N,/BM1366/VDD4_0*%
X108528000Y-114311000D02*
X113339284Y-114311000D01*
X113339284Y-114311000D02*
X115099642Y-112550642D01*
%TO.N,/VDD*%
X110300000Y-82925000D02*
X110361000Y-82986000D01*
X129330000Y-67790000D02*
X129330000Y-64210000D01*
X116198500Y-68651500D02*
X116906000Y-69359000D01*
X105410000Y-65115000D02*
X107110000Y-66815000D01*
X107110000Y-66815000D02*
X107110000Y-73770000D01*
X127761000Y-69359000D02*
X129330000Y-67790000D01*
X105410000Y-62838100D02*
X105410000Y-65115000D01*
X107110000Y-73770000D02*
X110300000Y-76960000D01*
X116906000Y-69359000D02*
X127761000Y-69359000D01*
X110300000Y-76960000D02*
X110300000Y-82925000D01*
%TO.N,/ESP32/EN*%
X132665000Y-68760000D02*
X132665000Y-76875000D01*
X132665000Y-61435000D02*
X132665000Y-68760000D01*
X128027000Y-104448000D02*
X126563000Y-104448000D01*
X122101300Y-70905000D02*
X130520000Y-70905000D01*
X126563000Y-104448000D02*
X126293000Y-104178000D01*
X131320000Y-60090000D02*
X132665000Y-61435000D01*
X130520000Y-70905000D02*
X132665000Y-68760000D01*
X132665000Y-76875000D02*
X129330000Y-80210000D01*
X129400000Y-58365000D02*
X129400000Y-59350000D01*
X130140000Y-60090000D02*
X131320000Y-60090000D01*
X129400000Y-59350000D02*
X130140000Y-60090000D01*
X129330000Y-80210000D02*
X129330000Y-81710000D01*
D36*
%TO.N,/5V*%
X92161000Y-142859000D02*
X92161000Y-143622000D01*
D37*
X95092000Y-137390000D02*
X96290000Y-138588000D01*
D36*
X95560000Y-139450000D02*
X95560000Y-139460000D01*
X96290000Y-138720000D02*
X95560000Y-139450000D01*
D37*
X94580000Y-137390000D02*
X95092000Y-137390000D01*
D36*
X103490000Y-138720000D02*
X96290000Y-138720000D01*
D37*
X96290000Y-138588000D02*
X96290000Y-138720000D01*
D36*
X95560000Y-139460000D02*
X92161000Y-142859000D01*
D38*
%TO.N,/3V3*%
X130600000Y-82690000D02*
X130600000Y-81710000D01*
D37*
X115895000Y-79945000D02*
X114110000Y-79945000D01*
D36*
X129400000Y-55700000D02*
X129610000Y-55490000D01*
D38*
X129310000Y-83980000D02*
X130600000Y-82690000D01*
D36*
X129400000Y-57095000D02*
X129400000Y-55700000D01*
D37*
%TO.N,/TX*%
X118240000Y-70860000D02*
X120440000Y-73060000D01*
X120440000Y-73060000D02*
X120440000Y-81710000D01*
%TO.N,/RX*%
X116918500Y-70499317D02*
X119170000Y-72750817D01*
X119170000Y-72750817D02*
X119170000Y-81710000D01*
X116918500Y-70448500D02*
X116918500Y-70499317D01*
%TO.N,/BM1366/VDD3_0*%
X108528000Y-113809000D02*
X112421000Y-113809000D01*
X112421000Y-113809000D02*
X115070000Y-111160000D01*
%TO.N,/BM1366/VDD2_0*%
X108528000Y-113307000D02*
X111629000Y-113307000D01*
X111629000Y-113307000D02*
X112530000Y-112406000D01*
X112530000Y-112406000D02*
X112530000Y-107800000D01*
%TO.N,/RST*%
X130550000Y-64260000D02*
X130600000Y-64210000D01*
X104166000Y-51281000D02*
X104166000Y-49799000D01*
X130550000Y-68561000D02*
X130550000Y-64260000D01*
X105268000Y-52383000D02*
X104166000Y-51281000D01*
X121437000Y-70037900D02*
X129073100Y-70037900D01*
X118333000Y-52383000D02*
X105268000Y-52383000D01*
X120676000Y-54726000D02*
X118333000Y-52383000D01*
X129073100Y-70037900D02*
X130550000Y-68561000D01*
%TO.N,/BM1366/MODE_OUT*%
X110156000Y-118327000D02*
X108528000Y-118327000D01*
X110862000Y-119033000D02*
X110156000Y-118327000D01*
X110862000Y-121832000D02*
X110862000Y-119033000D01*
%TO.N,/SCL*%
X87990000Y-93830000D02*
X87990000Y-89340000D01*
X90390000Y-96230000D02*
X87990000Y-93830000D01*
X120743000Y-68680100D02*
X117408100Y-68680100D01*
X85120000Y-86810000D02*
X84849183Y-86810000D01*
X85460000Y-86810000D02*
X85120000Y-86810000D01*
X85801200Y-123571000D02*
X94818200Y-123571000D01*
X108133736Y-67818000D02*
X108717000Y-67818000D01*
X87567632Y-79787632D02*
X87567632Y-77465632D01*
X87636000Y-55118000D02*
X89611200Y-57093200D01*
X80899000Y-118668800D02*
X85801200Y-123571000D01*
X117408100Y-68680100D02*
X115973000Y-67245000D01*
X115973000Y-67245000D02*
X114110000Y-67245000D01*
X84849183Y-86810000D02*
X84004200Y-85965017D01*
X94614632Y-66387632D02*
X95851632Y-66387632D01*
X94283000Y-67956264D02*
X95851632Y-66387632D01*
X89611200Y-61384200D02*
X94614632Y-66387632D01*
X108006400Y-62032400D02*
X108006400Y-67690664D01*
X95851632Y-66387632D02*
X101533264Y-60706000D01*
X84004200Y-83351064D02*
X87567632Y-79787632D01*
X84004200Y-85965017D02*
X84004200Y-83351064D01*
X80899000Y-105721000D02*
X80899000Y-118668800D01*
X108717000Y-67818000D02*
X109266000Y-67269000D01*
X87567632Y-77465632D02*
X94283000Y-70750264D01*
X114086000Y-67269000D02*
X114110000Y-67245000D01*
X86106000Y-55118000D02*
X87636000Y-55118000D01*
X101533264Y-60706000D02*
X106680000Y-60706000D01*
X89611200Y-57093200D02*
X89611200Y-61384200D01*
X87990000Y-89340000D02*
X85460000Y-86810000D01*
X94818200Y-123571000D02*
X97713800Y-120675400D01*
X109266000Y-67269000D02*
X114086000Y-67269000D01*
X90390000Y-96230000D02*
X80899000Y-105721000D01*
X106680000Y-60706000D02*
X108006400Y-62032400D01*
X108006400Y-67690664D02*
X108133736Y-67818000D01*
X94283000Y-70750264D02*
X94283000Y-67956264D01*
%TO.N,/Power/OUT0*%
X89080000Y-88900000D02*
X89080000Y-92680000D01*
X88456400Y-88276400D02*
X89080000Y-88900000D01*
X89080000Y-92680000D02*
X91440000Y-95040000D01*
X88456400Y-78871201D02*
X88456400Y-88276400D01*
X94689900Y-72637701D02*
X88456400Y-78871201D01*
%TO.N,/BM1366/0V8*%
X108528000Y-118829000D02*
X109711000Y-118829000D01*
X102696000Y-118818000D02*
X102130700Y-118818000D01*
X108468000Y-124939000D02*
X104431000Y-124939000D01*
X100733583Y-121095600D02*
X100155000Y-121674183D01*
X110137400Y-119255400D02*
X110137400Y-124516600D01*
X103530000Y-125800000D02*
X103530000Y-127490000D01*
X109715000Y-124939000D02*
X108468000Y-124939000D01*
X110137400Y-124516600D02*
X109715000Y-124939000D01*
X100155000Y-121674183D02*
X100155000Y-123661000D01*
X104391000Y-124939000D02*
X103530000Y-125800000D01*
X104431000Y-124939000D02*
X104391000Y-124939000D01*
X101611600Y-121095600D02*
X100733583Y-121095600D01*
X109711000Y-118829000D02*
X110137400Y-119255400D01*
X102130700Y-118818000D02*
X102020600Y-118928100D01*
X102020600Y-120686600D02*
X101611600Y-121095600D01*
X102020600Y-118928100D02*
X102020600Y-120686600D01*
%TO.N,/BM1366/VDD1_0*%
X111250000Y-112430000D02*
X110873000Y-112807000D01*
X110871000Y-112805000D02*
X108528000Y-112805000D01*
X111250000Y-106010000D02*
X111250000Y-112430000D01*
X110873000Y-112807000D02*
X110871000Y-112805000D01*
%TO.N,/BM1366/VDD1_1*%
X98602800Y-107213400D02*
X98145600Y-107670600D01*
X98145600Y-111210664D02*
X99752936Y-112818000D01*
X99752936Y-112818000D02*
X102696000Y-112818000D01*
X98145600Y-107670600D02*
X98145600Y-111210664D01*
%TO.N,/BM1366/VDD2_1*%
X99667200Y-113307000D02*
X102696000Y-113307000D01*
X97409000Y-108966000D02*
X97409000Y-111048800D01*
X97409000Y-111048800D02*
X99667200Y-113307000D01*
%TO.N,/BM1366/MODE_0*%
X93971227Y-121097045D02*
X91480645Y-121097045D01*
X97250272Y-117818000D02*
X93971227Y-121097045D01*
X102696000Y-117818000D02*
X97250272Y-117818000D01*
%TO.N,/BM1366/VDD3_1*%
X102696000Y-113818000D02*
X99603464Y-113818000D01*
X99603464Y-113818000D02*
X96705464Y-110920000D01*
X96705464Y-110920000D02*
X96130000Y-110920000D01*
%TO.N,/BM1366/VDD4_1*%
X102696000Y-114311000D02*
X99401200Y-114311000D01*
X99401200Y-114311000D02*
X97214200Y-112124000D01*
X97214200Y-112124000D02*
X96109000Y-112124000D01*
%TO.N,Net-(U9-BOOT)*%
X95368800Y-73683600D02*
X95368800Y-71183600D01*
X95958800Y-74273600D02*
X95368800Y-73683600D01*
%TO.N,/BM1366/CI*%
X114445300Y-117175300D02*
X114091000Y-116821000D01*
X120151800Y-129006616D02*
X120151800Y-120992247D01*
X114082000Y-99340264D02*
X114082000Y-105867264D01*
X113611035Y-98869299D02*
X114082000Y-99340264D01*
X121860400Y-130850000D02*
X121860400Y-130715216D01*
X116334852Y-117175300D02*
X114445300Y-117175300D01*
X114082000Y-105867264D02*
X118310000Y-110095264D01*
X114091000Y-116821000D02*
X108528000Y-116821000D01*
X121860400Y-130715216D02*
X120151800Y-129006616D01*
X118310000Y-110095264D02*
X118310000Y-115200152D01*
X113272599Y-98869299D02*
X113611035Y-98869299D01*
X118310000Y-115200152D02*
X116334852Y-117175300D01*
X120151800Y-120992247D02*
X116334852Y-117175300D01*
%TO.N,/BM1366/RO*%
X117903600Y-114341400D02*
X117903600Y-110263600D01*
X116428000Y-115817000D02*
X117903600Y-114341400D01*
X112593199Y-99345199D02*
X112593199Y-98013801D01*
X113675600Y-100427600D02*
X112593199Y-99345199D01*
X108528000Y-115817000D02*
X116428000Y-115817000D01*
X113675600Y-106035600D02*
X113675600Y-100427600D01*
X112593199Y-98013801D02*
X112962000Y-97645000D01*
X117903600Y-110263600D02*
X113675600Y-106035600D01*
%TO.N,/BM1366/RST_N*%
X113627000Y-114813000D02*
X108528000Y-114813000D01*
X114368868Y-114071132D02*
X113627000Y-114813000D01*
X111948000Y-105334000D02*
X111948000Y-102053000D01*
X117148868Y-114071132D02*
X114368868Y-114071132D01*
X117160000Y-110546000D02*
X111948000Y-105334000D01*
X117160000Y-114060000D02*
X117160000Y-110546000D01*
X117148868Y-114071132D02*
X117160000Y-114060000D01*
%TO.N,Net-(Q2-G)*%
X102700000Y-75260000D02*
X102080000Y-75880000D01*
X102080000Y-75880000D02*
X102080000Y-82442000D01*
X102080000Y-82442000D02*
X101710600Y-82811400D01*
%TO.N,/BM1366/RI*%
X102696000Y-115817000D02*
X97681400Y-115817000D01*
X97681400Y-115817000D02*
X96774000Y-114909600D01*
%TO.N,Net-(U12-GPIO19{slash}U1RTS{slash}ADC2_CH8{slash}CLK_OUT2{slash}USB_D-)*%
X116630000Y-82714000D02*
X121272600Y-87356600D01*
X127632800Y-92706000D02*
X126368000Y-92706000D01*
X127818800Y-87356600D02*
X128272400Y-87810200D01*
X128272400Y-92066400D02*
X127632800Y-92706000D01*
X128272400Y-87810200D02*
X128272400Y-92066400D01*
X116630000Y-81710000D02*
X116630000Y-82714000D01*
X121272600Y-87356600D02*
X127818800Y-87356600D01*
%TO.N,Net-(U12-GPIO20{slash}U1CTS{slash}ADC2_CH9{slash}CLK_OUT1{slash}USB_D+)*%
X116223600Y-83062400D02*
X116223600Y-87461336D01*
X120968264Y-92206000D02*
X126368000Y-92206000D01*
X116223600Y-87461336D02*
X120968264Y-92206000D01*
X115900600Y-82250600D02*
X115900600Y-82739400D01*
X115900600Y-82739400D02*
X116223600Y-83062400D01*
X115360000Y-81710000D02*
X115900600Y-82250600D01*
%TO.N,/BM1366/CLKI*%
X114667100Y-116319000D02*
X108528000Y-116319000D01*
X114844000Y-116495900D02*
X114667100Y-116319000D01*
%TO.N,/BM1366/NRSTO*%
X96967045Y-112836955D02*
X98943090Y-114813000D01*
X98943090Y-114813000D02*
X102696000Y-114813000D01*
%TO.N,/BM1366/BO*%
X98484979Y-115315000D02*
X96995638Y-113825659D01*
X102696000Y-115315000D02*
X98484979Y-115315000D01*
%TO.N,/BM1366/CLKO*%
X102696000Y-116318000D02*
X96429800Y-116318000D01*
X96429800Y-116318000D02*
X96266000Y-116154200D01*
%TO.N,/BM1366/CO*%
X102696000Y-116821000D02*
X97097800Y-116821000D01*
X97097800Y-116821000D02*
X96367600Y-117551200D01*
X96367600Y-117551200D02*
X94996000Y-117551200D01*
%TO.N,/ESP32/P_TX*%
X128060000Y-64210000D02*
X128060000Y-61549000D01*
X128060000Y-58525000D02*
X128060000Y-61549000D01*
X128230000Y-58355000D02*
X128060000Y-58525000D01*
%TO.N,/ESP32/P_RX*%
X126790000Y-64210000D02*
X126790000Y-61478000D01*
X124520000Y-61478000D02*
X124447000Y-61551000D01*
X126790000Y-61478000D02*
X124520000Y-61478000D01*
X126790000Y-61478000D02*
X126790000Y-58525000D01*
X126790000Y-58525000D02*
X126960000Y-58355000D01*
%TO.N,/ESP32/IO0*%
X126830000Y-56955000D02*
X126960000Y-57085000D01*
X123682000Y-98399000D02*
X123682000Y-110945000D01*
X121540700Y-68000700D02*
X117843700Y-68000700D01*
X116965817Y-67122817D02*
X116965817Y-67115817D01*
X115360000Y-65510000D02*
X115360000Y-64210000D01*
X117843700Y-68000700D02*
X116965817Y-67122817D01*
X126310000Y-55100000D02*
X126830000Y-55620000D01*
X116965817Y-67115817D02*
X115360000Y-65510000D01*
X122113000Y-68573000D02*
X121540700Y-68000700D01*
X124830000Y-55100000D02*
X126310000Y-55100000D01*
X126830000Y-55620000D02*
X126830000Y-56955000D01*
X123719000Y-98362000D02*
X123682000Y-98399000D01*
X125892000Y-113155000D02*
X127923000Y-113155000D01*
X123682000Y-110945000D02*
X125892000Y-113155000D01*
%TO.N,/ESP32/XIN32*%
X122980000Y-81119000D02*
X124019000Y-80080000D01*
X122980000Y-81710000D02*
X122980000Y-81119000D01*
%TO.N,/BM1366/MODE_1*%
X99393000Y-121861447D02*
X100565247Y-120689200D01*
X101614200Y-120518264D02*
X101614200Y-118759764D01*
X101614200Y-118759764D02*
X102055964Y-118318000D01*
X102055964Y-118318000D02*
X102696000Y-118318000D01*
X99393000Y-122727000D02*
X99393000Y-121861447D01*
X100565247Y-120689200D02*
X101443264Y-120689200D01*
X101443264Y-120689200D02*
X101614200Y-120518264D01*
%TO.N,/ESP32/XOUT32*%
X121710000Y-81710000D02*
X121710000Y-80562000D01*
X121710000Y-80562000D02*
X121248000Y-80100000D01*
%TO.N,/Power/PGOOD*%
X109615000Y-74865000D02*
X108278900Y-73528900D01*
X114110000Y-74865000D02*
X109615000Y-74865000D01*
X108278900Y-73528900D02*
X108278900Y-71440000D01*
%TO.N,/SDA*%
X116560000Y-72727000D02*
X116160000Y-72327000D01*
X107600000Y-67859000D02*
X107600000Y-62388000D01*
X114110000Y-68515000D02*
X108256000Y-68515000D01*
X107600000Y-62388000D02*
X106832400Y-61620400D01*
X94689400Y-70918600D02*
X88050000Y-77558000D01*
X88500000Y-89140000D02*
X85090000Y-85730000D01*
X116160000Y-69762000D02*
X114913000Y-68515000D01*
X97034400Y-120780064D02*
X97034400Y-120393983D01*
X90880600Y-96909400D02*
X90380600Y-96909400D01*
X85969536Y-123164600D02*
X94649864Y-123164600D01*
X94689400Y-69539183D02*
X94689400Y-70918600D01*
X94649864Y-123164600D02*
X97034400Y-120780064D01*
X97034400Y-120393983D02*
X97740493Y-119687890D01*
X114913000Y-68515000D02*
X114110000Y-68515000D01*
X102608183Y-61620400D02*
X94689400Y-69539183D01*
X85090000Y-85730000D02*
X84730000Y-85730000D01*
X97740493Y-119687890D02*
X97777539Y-119687890D01*
X116160000Y-72327000D02*
X116160000Y-69762000D01*
X88050000Y-79880000D02*
X84730000Y-83200000D01*
X88050000Y-77558000D02*
X88050000Y-79880000D01*
X91500000Y-96290000D02*
X90880600Y-96909400D01*
X81305400Y-105984600D02*
X81305400Y-118500464D01*
X106832400Y-61620400D02*
X102608183Y-61620400D01*
X91500000Y-96290000D02*
X91500000Y-96240000D01*
X91500000Y-96240000D02*
X88500000Y-93240000D01*
X90380600Y-96909400D02*
X81305400Y-105984600D01*
X88500000Y-93240000D02*
X88500000Y-89140000D01*
X84730000Y-83200000D02*
X84730000Y-85730000D01*
X81305400Y-118500464D02*
X85969536Y-123164600D01*
X108222000Y-68481000D02*
X107600000Y-67859000D01*
%TO.N,/BM1366/BI*%
X108528000Y-115315000D02*
X115005000Y-115315000D01*
X115005000Y-115315000D02*
X115540000Y-114780000D01*
%TO.N,/BM1366/NC*%
X102696000Y-117318000D02*
X97175536Y-117318000D01*
X97175536Y-117318000D02*
X95697736Y-118795800D01*
X95697736Y-118795800D02*
X92430600Y-118795800D01*
D36*
%TO.N,Net-(D1-Pad2)*%
X121666000Y-94488000D02*
X122034000Y-94856000D01*
X122542000Y-90056000D02*
X126368000Y-90056000D01*
X121666000Y-90932000D02*
X122542000Y-90056000D01*
X122034000Y-94856000D02*
X126368000Y-94856000D01*
%TD*%
%TA.AperFunction,Conductor*%
%TO.N,GND*%
G36*
X105474613Y-68611487D02*
G01*
X105521187Y-68665072D01*
X105532635Y-68715521D01*
X105587982Y-72090776D01*
X105569100Y-72159216D01*
X105541983Y-72190200D01*
X101730600Y-75321400D01*
X101758932Y-82136342D01*
X101739213Y-82204545D01*
X101685751Y-82251261D01*
X101649380Y-82261788D01*
X101566264Y-82272730D01*
X101431763Y-82328443D01*
X101316266Y-82417066D01*
X101227643Y-82532563D01*
X101171930Y-82667064D01*
X101152929Y-82811400D01*
X101171930Y-82955735D01*
X101227643Y-83090237D01*
X101316266Y-83205733D01*
X101431762Y-83294356D01*
X101431763Y-83294356D01*
X101431764Y-83294357D01*
X101566264Y-83350069D01*
X101654989Y-83361749D01*
X101719915Y-83390471D01*
X101759008Y-83449735D01*
X101764542Y-83486147D01*
X101809470Y-94292615D01*
X101789751Y-94360818D01*
X101736289Y-94407534D01*
X101682617Y-94419136D01*
X94765614Y-94372247D01*
X94697630Y-94351784D01*
X94651502Y-94297814D01*
X94640468Y-94246385D01*
X94620600Y-75311400D01*
X94391406Y-75041244D01*
X93682005Y-74205055D01*
X93653188Y-74140170D01*
X93664026Y-74070005D01*
X93688986Y-74034452D01*
X94502959Y-73220479D01*
X94565269Y-73186456D01*
X94608496Y-73184655D01*
X94689900Y-73195372D01*
X94834236Y-73176370D01*
X94914682Y-73143047D01*
X94985271Y-73135459D01*
X95048758Y-73167238D01*
X95084986Y-73228296D01*
X95088900Y-73259457D01*
X95088900Y-73617388D01*
X95086282Y-73633438D01*
X95088766Y-73687172D01*
X95088900Y-73692990D01*
X95088900Y-73710874D01*
X95090498Y-73724661D01*
X95091614Y-73748792D01*
X95093728Y-73753579D01*
X95102317Y-73781314D01*
X95103279Y-73786463D01*
X95115991Y-73806992D01*
X95124129Y-73822429D01*
X95133883Y-73844521D01*
X95133884Y-73844522D01*
X95137584Y-73848222D01*
X95155611Y-73870979D01*
X95158369Y-73875433D01*
X95177641Y-73889987D01*
X95190802Y-73901440D01*
X95376018Y-74086656D01*
X95410044Y-74148968D01*
X95411845Y-74192196D01*
X95401128Y-74273599D01*
X95420130Y-74417935D01*
X95475843Y-74552437D01*
X95564466Y-74667933D01*
X95679962Y-74756556D01*
X95679963Y-74756556D01*
X95679964Y-74756557D01*
X95814464Y-74812269D01*
X95958800Y-74831271D01*
X96103136Y-74812269D01*
X96237636Y-74756557D01*
X96353133Y-74667933D01*
X96441757Y-74552436D01*
X96497469Y-74417936D01*
X96516471Y-74273600D01*
X96497469Y-74129264D01*
X96441757Y-73994765D01*
X96441756Y-73994764D01*
X96441756Y-73994763D01*
X96353132Y-73879266D01*
X96237637Y-73790643D01*
X96103135Y-73734930D01*
X95958799Y-73715928D01*
X95877396Y-73726645D01*
X95807247Y-73715705D01*
X95771856Y-73690818D01*
X95685605Y-73604567D01*
X95651579Y-73542255D01*
X95648700Y-73515472D01*
X95648700Y-71727876D01*
X95668702Y-71659755D01*
X95697992Y-71627916D01*
X95763133Y-71577933D01*
X95851757Y-71462436D01*
X95907469Y-71327936D01*
X95926471Y-71183600D01*
X95907469Y-71039264D01*
X95851757Y-70904765D01*
X95851756Y-70904764D01*
X95851756Y-70904763D01*
X95763132Y-70789266D01*
X95647637Y-70700643D01*
X95513135Y-70644930D01*
X95368800Y-70625929D01*
X95224464Y-70644930D01*
X95143518Y-70678460D01*
X95072929Y-70686049D01*
X95009442Y-70654270D01*
X94973214Y-70593212D01*
X94969300Y-70562051D01*
X94969300Y-69707310D01*
X94989302Y-69639189D01*
X95006195Y-69618225D01*
X95981863Y-68642557D01*
X96044170Y-68608536D01*
X96070749Y-68605657D01*
X105406462Y-68591587D01*
X105474613Y-68611487D01*
G37*
%TD.AperFunction*%
%TD*%
%TA.AperFunction,Conductor*%
%TO.N,/VDD*%
G36*
X108795955Y-86278076D02*
G01*
X108863756Y-86299132D01*
X108909411Y-86353502D01*
X108920000Y-86404061D01*
X108920000Y-112043500D01*
X108899998Y-112111621D01*
X108846342Y-112158114D01*
X108794000Y-112169500D01*
X108488017Y-112169500D01*
X108484096Y-112169995D01*
X108484085Y-112169996D01*
X108365273Y-112185006D01*
X108349481Y-112186000D01*
X108083362Y-112186000D01*
X108080013Y-112186359D01*
X108080013Y-112186360D01*
X108022799Y-112192511D01*
X107885794Y-112243611D01*
X107768738Y-112331238D01*
X107681111Y-112448294D01*
X107676262Y-112461296D01*
X107630011Y-112585299D01*
X107623500Y-112645862D01*
X107623500Y-112964138D01*
X107623860Y-112967486D01*
X107631703Y-113040436D01*
X107627332Y-113040905D01*
X107629503Y-113071327D01*
X107631703Y-113071564D01*
X107630011Y-113087297D01*
X107630011Y-113087299D01*
X107623500Y-113147862D01*
X107623500Y-113466138D01*
X107623860Y-113469486D01*
X107631703Y-113542437D01*
X107627331Y-113542907D01*
X107629506Y-113573328D01*
X107631703Y-113573565D01*
X107630011Y-113589297D01*
X107630011Y-113589299D01*
X107623500Y-113649862D01*
X107623500Y-113968138D01*
X107623860Y-113971486D01*
X107631703Y-114044436D01*
X107627332Y-114044905D01*
X107629503Y-114075327D01*
X107631703Y-114075564D01*
X107630011Y-114091297D01*
X107630011Y-114091299D01*
X107623500Y-114151862D01*
X107623500Y-114155230D01*
X107623500Y-114254000D01*
X107603498Y-114322121D01*
X107549842Y-114368614D01*
X107497500Y-114380000D01*
X103726500Y-114380000D01*
X103658379Y-114359998D01*
X103611886Y-114306342D01*
X103600500Y-114254000D01*
X103600500Y-114155230D01*
X103600500Y-114151862D01*
X103593989Y-114091299D01*
X103593987Y-114091295D01*
X103592555Y-114077970D01*
X103592555Y-114051030D01*
X103593987Y-114037704D01*
X103593989Y-114037701D01*
X103600500Y-113977138D01*
X103600500Y-113658862D01*
X103593989Y-113598299D01*
X103593988Y-113598297D01*
X103592297Y-113582563D01*
X103595322Y-113582237D01*
X103592473Y-113542456D01*
X103592297Y-113542437D01*
X103592402Y-113541456D01*
X103591992Y-113535726D01*
X103593611Y-113530212D01*
X103593988Y-113526703D01*
X103593989Y-113526701D01*
X103600500Y-113466138D01*
X103600500Y-113147862D01*
X103593989Y-113087299D01*
X103593987Y-113087295D01*
X103592770Y-113075970D01*
X103592770Y-113049030D01*
X103593987Y-113037704D01*
X103593989Y-113037701D01*
X103600500Y-112977138D01*
X103600500Y-112658862D01*
X103593989Y-112598299D01*
X103542889Y-112461296D01*
X103542888Y-112461294D01*
X103455261Y-112344238D01*
X103338205Y-112256611D01*
X103269702Y-112231061D01*
X103201201Y-112205511D01*
X103140638Y-112199000D01*
X103137269Y-112199000D01*
X102856461Y-112199000D01*
X102825126Y-112195041D01*
X102789914Y-112186000D01*
X102776283Y-112182500D01*
X102776282Y-112182500D01*
X102596000Y-112182500D01*
X102527879Y-112162498D01*
X102481386Y-112108842D01*
X102470000Y-112056500D01*
X102470000Y-109971420D01*
X102490002Y-109903299D01*
X102530117Y-109868538D01*
X102528638Y-109866502D01*
X102539352Y-109858718D01*
X102693853Y-109746466D01*
X102821640Y-109604544D01*
X102917127Y-109439156D01*
X102976142Y-109257528D01*
X102996104Y-109067600D01*
X102976142Y-108877672D01*
X102917127Y-108696044D01*
X102917127Y-108696043D01*
X102821641Y-108530657D01*
X102693852Y-108388733D01*
X102528638Y-108268698D01*
X102530213Y-108266529D01*
X102490652Y-108232900D01*
X102470006Y-108164972D01*
X102470000Y-108163779D01*
X102470000Y-86307968D01*
X102490002Y-86239847D01*
X102543658Y-86193354D01*
X102597949Y-86181983D01*
X108795955Y-86278076D01*
G37*
%TD.AperFunction*%
%TD*%
M02*
