%TF.GenerationSoftware,KiCad,Pcbnew,7.0.2*%
%TF.CreationDate,2024-01-11T01:28:16+01:00*%
%TF.ProjectId,bitaxe_RGZ_204_MOD_C,62697461-7865-45f5-9247-5a5f3230345f,rev?*%
%TF.SameCoordinates,Original*%
%TF.FileFunction,Soldermask,Top*%
%TF.FilePolarity,Negative*%
%FSLAX46Y46*%
G04 Gerber Fmt 4.6, Leading zero omitted, Abs format (unit mm)*
G04 Created by KiCad (PCBNEW 7.0.2) date 2024-01-11 01:28:16*
%MOMM*%
%LPD*%
G01*
G04 APERTURE LIST*
G04 Aperture macros list*
%AMRoundRect*
0 Rectangle with rounded corners*
0 $1 Rounding radius*
0 $2 $3 $4 $5 $6 $7 $8 $9 X,Y pos of 4 corners*
0 Add a 4 corners polygon primitive as box body*
4,1,4,$2,$3,$4,$5,$6,$7,$8,$9,$2,$3,0*
0 Add four circle primitives for the rounded corners*
1,1,$1+$1,$2,$3*
1,1,$1+$1,$4,$5*
1,1,$1+$1,$6,$7*
1,1,$1+$1,$8,$9*
0 Add four rect primitives between the rounded corners*
20,1,$1+$1,$2,$3,$4,$5,0*
20,1,$1+$1,$4,$5,$6,$7,0*
20,1,$1+$1,$6,$7,$8,$9,0*
20,1,$1+$1,$8,$9,$2,$3,0*%
%AMFreePoly0*
4,1,35,0.005000,-4.560000,0.003536,-4.563536,0.000000,-4.565000,-5.000000,-4.565000,-5.003536,-4.563536,-5.005000,-4.560000,-5.005000,-3.898000,-5.003536,-3.894464,-5.000000,-3.893000,-4.325000,-3.893000,-4.325000,-3.269700,-5.000000,-3.269700,-5.003536,-3.268236,-5.005000,-3.264700,-5.005000,-2.599700,-5.003536,-2.596164,-5.000000,-2.594700,-4.325000,-2.594700,-4.325000,-1.971400,-5.000000,-1.971400,
-5.003536,-1.969936,-5.005000,-1.966400,-5.005000,-1.301400,-5.003536,-1.297864,-5.000000,-1.296400,-4.325000,-1.296400,-4.325000,-0.673100,-5.000000,-0.673100,-5.003536,-0.671636,-5.005000,-0.668100,-5.005000,0.000000,-5.003536,0.003536,-5.000000,0.005000,0.005000,0.005000,0.005000,-4.560000,0.005000,-4.560000,$1*%
%AMFreePoly1*
4,1,45,-0.124646,1.700354,-0.124500,1.700000,-0.124500,1.200500,0.124500,1.200500,0.124500,1.700000,0.124646,1.700354,0.125000,1.700500,0.375000,1.700500,0.375354,1.700354,0.375500,1.700000,0.375500,1.200500,0.825000,1.200500,0.825354,1.200354,0.825500,1.200000,0.825500,-1.200000,0.825354,-1.200354,0.825000,-1.200500,0.375500,-1.200500,0.375500,-1.700000,0.375354,-1.700354,
0.375000,-1.700500,0.125000,-1.700500,0.124646,-1.700354,0.124500,-1.700000,0.124500,-1.200500,-0.124500,-1.200500,-0.124500,-1.700000,-0.124646,-1.700354,-0.125000,-1.700500,-0.375000,-1.700500,-0.375354,-1.700354,-0.375500,-1.700000,-0.375500,-1.200500,-0.825000,-1.200500,-0.825354,-1.200354,-0.825500,-1.200000,-0.825500,1.200000,-0.825354,1.200354,-0.825000,1.200500,-0.375500,1.200500,
-0.375500,1.700000,-0.375354,1.700354,-0.375000,1.700500,-0.125000,1.700500,-0.124646,1.700354,-0.124646,1.700354,$1*%
G04 Aperture macros list end*
%ADD10C,0.120000*%
%ADD11O,1.700000X1.700000*%
%ADD12R,1.700000X1.700000*%
%ADD13RoundRect,0.250000X0.250000X0.475000X-0.250000X0.475000X-0.250000X-0.475000X0.250000X-0.475000X0*%
%ADD14RoundRect,0.140000X0.140000X0.170000X-0.140000X0.170000X-0.140000X-0.170000X0.140000X-0.170000X0*%
%ADD15RoundRect,0.250000X-1.000000X-0.650000X1.000000X-0.650000X1.000000X0.650000X-1.000000X0.650000X0*%
%ADD16RoundRect,0.100000X-0.637500X-0.100000X0.637500X-0.100000X0.637500X0.100000X-0.637500X0.100000X0*%
%ADD17RoundRect,0.140000X-0.170000X0.140000X-0.170000X-0.140000X0.170000X-0.140000X0.170000X0.140000X0*%
%ADD18C,2.000000*%
%ADD19RoundRect,0.135000X-0.185000X0.135000X-0.185000X-0.135000X0.185000X-0.135000X0.185000X0.135000X0*%
%ADD20RoundRect,0.135000X0.135000X0.185000X-0.135000X0.185000X-0.135000X-0.185000X0.135000X-0.185000X0*%
%ADD21C,1.500000*%
%ADD22R,0.700000X0.450000*%
%ADD23RoundRect,0.135000X-0.135000X-0.185000X0.135000X-0.185000X0.135000X0.185000X-0.135000X0.185000X0*%
%ADD24C,3.000000*%
%ADD25RoundRect,0.250000X-0.475000X0.250000X-0.475000X-0.250000X0.475000X-0.250000X0.475000X0.250000X0*%
%ADD26RoundRect,0.250000X-0.250000X-0.475000X0.250000X-0.475000X0.250000X0.475000X-0.250000X0.475000X0*%
%ADD27R,1.168400X1.600200*%
%ADD28RoundRect,0.150000X-0.512500X-0.150000X0.512500X-0.150000X0.512500X0.150000X-0.512500X0.150000X0*%
%ADD29RoundRect,0.140000X0.170000X-0.140000X0.170000X0.140000X-0.170000X0.140000X-0.170000X-0.140000X0*%
%ADD30R,0.400000X1.100000*%
%ADD31RoundRect,0.140000X-0.140000X-0.170000X0.140000X-0.170000X0.140000X0.170000X-0.140000X0.170000X0*%
%ADD32C,0.800000*%
%ADD33C,6.000000*%
%ADD34RoundRect,0.007800X-0.122200X0.442200X-0.122200X-0.442200X0.122200X-0.442200X0.122200X0.442200X0*%
%ADD35RoundRect,0.007800X-0.442200X-0.122200X0.442200X-0.122200X0.442200X0.122200X-0.442200X0.122200X0*%
%ADD36R,2.050000X2.050000*%
%ADD37R,3.100000X2.000000*%
%ADD38RoundRect,0.135000X0.185000X-0.135000X0.185000X0.135000X-0.185000X0.135000X-0.185000X-0.135000X0*%
%ADD39R,1.100000X0.400000*%
%ADD40RoundRect,0.250000X-1.025000X0.875000X-1.025000X-0.875000X1.025000X-0.875000X1.025000X0.875000X0*%
%ADD41R,0.700000X0.800000*%
%ADD42FreePoly0,270.000000*%
%ADD43RoundRect,0.050000X-0.070000X0.250000X-0.070000X-0.250000X0.070000X-0.250000X0.070000X0.250000X0*%
%ADD44C,0.400000*%
%ADD45FreePoly1,270.000000*%
%ADD46R,1.600000X2.700000*%
%ADD47FreePoly0,90.000000*%
%ADD48RoundRect,0.250000X-0.325000X-1.100000X0.325000X-1.100000X0.325000X1.100000X-0.325000X1.100000X0*%
%ADD49R,1.100000X1.300000*%
%ADD50RoundRect,0.250000X0.325000X0.650000X-0.325000X0.650000X-0.325000X-0.650000X0.325000X-0.650000X0*%
%ADD51R,0.952500X0.558800*%
%ADD52C,1.295400*%
%ADD53C,1.574800*%
%ADD54C,0.650000*%
%ADD55O,1.800000X1.000000*%
%ADD56O,2.100000X1.000000*%
%ADD57C,0.990600*%
%ADD58C,1.600000*%
%ADD59C,1.800000*%
%ADD60RoundRect,0.250000X-0.750000X0.600000X-0.750000X-0.600000X0.750000X-0.600000X0.750000X0.600000X0*%
%ADD61O,2.000000X1.700000*%
G04 APERTURE END LIST*
D10*
%TO.C,J1*%
X83258000Y-72442000D02*
G75*
G03*
X83258000Y-72442000I-800000J0D01*
G01*
X87858000Y-72442000D02*
G75*
G03*
X87858000Y-72442000I-900000J0D01*
G01*
%TD*%
D11*
%TO.C,J9*%
X86766400Y-57175400D03*
X86766400Y-54635400D03*
X86766400Y-52095400D03*
D12*
X86766400Y-49555400D03*
%TD*%
D13*
%TO.C,C43*%
X106814000Y-69487000D03*
X104914000Y-69487000D03*
%TD*%
D14*
%TO.C,C19*%
X116836000Y-103365000D03*
X115876000Y-103365000D03*
%TD*%
D15*
%TO.C,D1*%
X121087200Y-92100400D03*
X125087200Y-92100400D03*
%TD*%
D16*
%TO.C,U8*%
X79485500Y-84587000D03*
X79485500Y-85237000D03*
X79485500Y-85887000D03*
X79485500Y-86537000D03*
X79485500Y-87187000D03*
X79485500Y-87837000D03*
X79485500Y-88487000D03*
X79485500Y-89137000D03*
X85210500Y-89137000D03*
X85210500Y-88487000D03*
X85210500Y-87837000D03*
X85210500Y-87187000D03*
X85210500Y-86537000D03*
X85210500Y-85887000D03*
X85210500Y-85237000D03*
X85210500Y-84587000D03*
%TD*%
D17*
%TO.C,C7*%
X112268000Y-114175600D03*
X112268000Y-115135600D03*
%TD*%
D18*
%TO.C,FID2*%
X130275000Y-55679000D03*
%TD*%
%TO.C,FID4*%
X130302000Y-139065000D03*
%TD*%
D19*
%TO.C,R13*%
X90649600Y-63569000D03*
X90649600Y-64589000D03*
%TD*%
D18*
%TO.C,FID3*%
X80808000Y-139065000D03*
%TD*%
D20*
%TO.C,R6*%
X122717000Y-115554000D03*
X121697000Y-115554000D03*
%TD*%
D14*
%TO.C,C1*%
X115730000Y-127810000D03*
X114770000Y-127810000D03*
%TD*%
D21*
%TO.C,TP38*%
X87045800Y-112699800D03*
%TD*%
D22*
%TO.C,Q4*%
X111370000Y-70430000D03*
X111370000Y-69130000D03*
X109370000Y-69780000D03*
%TD*%
D13*
%TO.C,C41*%
X98355400Y-63005800D03*
X96455400Y-63005800D03*
%TD*%
D21*
%TO.C,TP19*%
X123610000Y-87850000D03*
%TD*%
D23*
%TO.C,R8*%
X110365000Y-75979000D03*
X111385000Y-75979000D03*
%TD*%
D14*
%TO.C,C3*%
X114920000Y-107790000D03*
X113960000Y-107790000D03*
%TD*%
D24*
%TO.C,H6*%
X84764000Y-94984000D03*
%TD*%
D20*
%TO.C,R5*%
X127764000Y-107304000D03*
X126744000Y-107304000D03*
%TD*%
D25*
%TO.C,C38*%
X101783000Y-67211600D03*
X101783000Y-69111600D03*
%TD*%
D21*
%TO.C,TP35*%
X110998000Y-99822000D03*
%TD*%
%TO.C,TP5*%
X111440000Y-130160000D03*
%TD*%
D17*
%TO.C,C25*%
X105540000Y-129760000D03*
X105540000Y-130720000D03*
%TD*%
D26*
%TO.C,C45*%
X92522000Y-66420000D03*
X94422000Y-66420000D03*
%TD*%
D27*
%TO.C,Y1*%
X123063000Y-82575400D03*
X120218200Y-82575400D03*
%TD*%
D21*
%TO.C,TP16*%
X94107000Y-141452600D03*
%TD*%
%TO.C,TP15*%
X90855800Y-145948400D03*
%TD*%
D28*
%TO.C,U5*%
X92615500Y-128358000D03*
X92615500Y-129308000D03*
X92615500Y-130258000D03*
X94890500Y-130258000D03*
X94890500Y-128358000D03*
%TD*%
D26*
%TO.C,C51*%
X127218400Y-89077800D03*
X129118400Y-89077800D03*
%TD*%
D21*
%TO.C,TP8*%
X119800000Y-119990000D03*
%TD*%
%TO.C,TP23*%
X127254000Y-56896000D03*
%TD*%
D28*
%TO.C,U6*%
X101182500Y-129290000D03*
X101182500Y-130240000D03*
X101182500Y-131190000D03*
X103457500Y-131190000D03*
X103457500Y-129290000D03*
%TD*%
D24*
%TO.C,H5*%
X126130000Y-136350000D03*
%TD*%
D21*
%TO.C,TP1*%
X89763600Y-114223800D03*
%TD*%
D29*
%TO.C,C4*%
X108485000Y-122798000D03*
X108485000Y-121838000D03*
%TD*%
D21*
%TO.C,TP43*%
X87147400Y-115316000D03*
%TD*%
D30*
%TO.C,U7*%
X102371800Y-113877200D03*
X101721800Y-113877200D03*
X101071800Y-113877200D03*
X100421800Y-113877200D03*
X100421800Y-118177200D03*
X101071800Y-118177200D03*
X101721800Y-118177200D03*
X102371800Y-118177200D03*
%TD*%
D14*
%TO.C,C12*%
X99780000Y-104240000D03*
X98820000Y-104240000D03*
%TD*%
D31*
%TO.C,C52*%
X127840800Y-90576400D03*
X128800800Y-90576400D03*
%TD*%
D20*
%TO.C,R1*%
X127347000Y-110052000D03*
X126327000Y-110052000D03*
%TD*%
D32*
%TO.C,H7*%
X127985010Y-51120990D03*
X128644020Y-49530000D03*
X128644020Y-52711980D03*
X130235010Y-48870990D03*
X130235010Y-53370990D03*
D33*
X130302000Y-51054000D03*
D32*
X131826000Y-49530000D03*
X131826000Y-52711980D03*
X132485010Y-51120990D03*
%TD*%
D29*
%TO.C,C30*%
X123102200Y-80785800D03*
X123102200Y-79825800D03*
%TD*%
D18*
%TO.C,FID1*%
X80808000Y-56769000D03*
%TD*%
D34*
%TO.C,U2*%
X115672000Y-97580000D03*
D35*
X114737000Y-98265000D03*
X114737000Y-98765000D03*
X114737000Y-99265000D03*
X114737000Y-99765000D03*
X114737000Y-100265000D03*
D34*
X115672000Y-100950000D03*
X117172000Y-100950000D03*
D35*
X118107000Y-100265000D03*
X118107000Y-99765000D03*
X118107000Y-99265000D03*
X118107000Y-98765000D03*
X118107000Y-98265000D03*
D34*
X117172000Y-97580000D03*
D36*
X116422000Y-99265000D03*
%TD*%
D19*
%TO.C,R10*%
X94828800Y-63573600D03*
X94828800Y-64593600D03*
%TD*%
D21*
%TO.C,TP42*%
X90170000Y-107442000D03*
%TD*%
%TO.C,TP17*%
X125413000Y-74174000D03*
%TD*%
D37*
%TO.C,L1*%
X105918000Y-82169000D03*
X105918000Y-90489000D03*
%TD*%
D38*
%TO.C,R15*%
X93465000Y-64589000D03*
X93465000Y-63569000D03*
%TD*%
D28*
%TO.C,Q3*%
X122809000Y-54041000D03*
X122809000Y-55941000D03*
X125084000Y-54991000D03*
%TD*%
D14*
%TO.C,C15*%
X98490000Y-106040000D03*
X97530000Y-106040000D03*
%TD*%
D20*
%TO.C,R16*%
X90818000Y-105695000D03*
X89798000Y-105695000D03*
%TD*%
D32*
%TO.C,H9*%
X128052000Y-143728000D03*
X128711010Y-142137010D03*
X128711010Y-145318990D03*
X130302000Y-141478000D03*
D33*
X130302000Y-143831000D03*
D32*
X130302000Y-145978000D03*
X131892990Y-142137010D03*
X131892990Y-145318990D03*
X132552000Y-143728000D03*
%TD*%
D29*
%TO.C,C16*%
X102646000Y-122798000D03*
X102646000Y-121838000D03*
%TD*%
D14*
%TO.C,C49*%
X115080000Y-60930000D03*
X114120000Y-60930000D03*
%TD*%
%TO.C,C18*%
X96139000Y-109681000D03*
X95179000Y-109681000D03*
%TD*%
D21*
%TO.C,TP18*%
X131445000Y-65405000D03*
%TD*%
D13*
%TO.C,C40*%
X98333000Y-65268000D03*
X96433000Y-65268000D03*
%TD*%
D39*
%TO.C,U10*%
X86868000Y-102220000D03*
X86868000Y-102870000D03*
X86868000Y-103520000D03*
X86868000Y-104170000D03*
X91168000Y-104170000D03*
X91168000Y-103520000D03*
X91168000Y-102870000D03*
X91168000Y-102220000D03*
%TD*%
D21*
%TO.C,TP36*%
X116870000Y-105550000D03*
%TD*%
D31*
%TO.C,C39*%
X104650000Y-67450000D03*
X105610000Y-67450000D03*
%TD*%
D21*
%TO.C,TP44*%
X89687400Y-116840000D03*
%TD*%
D32*
%TO.C,H10*%
X78558000Y-143830990D03*
X79217010Y-142240000D03*
X79217010Y-145421980D03*
X80808000Y-141580990D03*
D33*
X80808000Y-143830990D03*
D32*
X80808000Y-146080990D03*
X82398990Y-142240000D03*
X82398990Y-145421980D03*
X83058000Y-143830990D03*
%TD*%
D29*
%TO.C,C31*%
X120218200Y-80794800D03*
X120218200Y-79834800D03*
%TD*%
D14*
%TO.C,C35*%
X82358000Y-92812000D03*
X81398000Y-92812000D03*
%TD*%
D17*
%TO.C,C10*%
X108712000Y-114201000D03*
X108712000Y-115161000D03*
%TD*%
%TO.C,C11*%
X111150400Y-114226400D03*
X111150400Y-115186400D03*
%TD*%
D19*
%TO.C,R14*%
X92057300Y-63569000D03*
X92057300Y-64589000D03*
%TD*%
D20*
%TO.C,R19*%
X121208800Y-53279000D03*
X120188800Y-53279000D03*
%TD*%
D14*
%TO.C,C14*%
X99092000Y-121788000D03*
X98132000Y-121788000D03*
%TD*%
D40*
%TO.C,C13*%
X105600000Y-111360000D03*
X105600000Y-117760000D03*
%TD*%
D41*
%TO.C,Q2*%
X95459600Y-87954700D03*
X96757900Y-87954700D03*
X98021300Y-87954700D03*
X99319600Y-87954700D03*
D42*
X99669600Y-87049700D03*
%TD*%
D29*
%TO.C,C33*%
X102133400Y-111046200D03*
X102133400Y-110086200D03*
%TD*%
D23*
%TO.C,R2*%
X95640000Y-138480000D03*
X96660000Y-138480000D03*
%TD*%
D21*
%TO.C,TP3*%
X114410000Y-140150000D03*
%TD*%
%TO.C,TP41*%
X87122000Y-108966000D03*
%TD*%
D29*
%TO.C,C26*%
X110820200Y-58468200D03*
X110820200Y-57508200D03*
%TD*%
D23*
%TO.C,R17*%
X120216200Y-56279000D03*
X121236200Y-56279000D03*
%TD*%
D31*
%TO.C,C44*%
X91400000Y-100668000D03*
X92360000Y-100668000D03*
%TD*%
D20*
%TO.C,R18*%
X121234200Y-54779000D03*
X120214200Y-54779000D03*
%TD*%
D43*
%TO.C,U9*%
X99201691Y-68022200D03*
X98701691Y-68022200D03*
X98201691Y-68022200D03*
X97701691Y-68022200D03*
X97201691Y-68022200D03*
X97201691Y-70822200D03*
X97701691Y-70822200D03*
X98201691Y-70822200D03*
X98701691Y-70822200D03*
X99201691Y-70822200D03*
D44*
X98201691Y-68847200D03*
X99151691Y-69422200D03*
D45*
X98201691Y-69422200D03*
D44*
X97251691Y-69422200D03*
X98201691Y-69997200D03*
%TD*%
D21*
%TO.C,TP34*%
X108370000Y-102200000D03*
%TD*%
%TO.C,TP46*%
X87071200Y-120827800D03*
%TD*%
D32*
%TO.C,H8*%
X78558000Y-51054000D03*
X79217010Y-49463010D03*
X79217010Y-52644990D03*
X80808000Y-48804000D03*
D33*
X80808000Y-51054000D03*
D32*
X80808000Y-53304000D03*
X82398990Y-49463010D03*
X82398990Y-52644990D03*
X83058000Y-51054000D03*
%TD*%
D31*
%TO.C,C22*%
X93295000Y-131979000D03*
X94255000Y-131979000D03*
%TD*%
D21*
%TO.C,TP10*%
X119800000Y-123540000D03*
%TD*%
D14*
%TO.C,C21*%
X121920000Y-106680000D03*
X120960000Y-106680000D03*
%TD*%
%TO.C,C6*%
X113620000Y-106030000D03*
X112660000Y-106030000D03*
%TD*%
D46*
%TO.C,C46*%
X103559600Y-94732200D03*
X100559600Y-94732200D03*
%TD*%
D41*
%TO.C,Q1*%
X93357887Y-82405864D03*
X92059587Y-82405864D03*
X90796187Y-82405864D03*
X89497887Y-82405864D03*
D47*
X89147887Y-83310864D03*
%TD*%
D31*
%TO.C,C42*%
X96189800Y-73128000D03*
X97149800Y-73128000D03*
%TD*%
D21*
%TO.C,TP7*%
X115560000Y-121710000D03*
%TD*%
D48*
%TO.C,C34*%
X92514600Y-91062200D03*
X95464600Y-91062200D03*
%TD*%
D21*
%TO.C,TP40*%
X89408000Y-110744000D03*
%TD*%
%TO.C,TP4*%
X117040000Y-140190000D03*
%TD*%
D49*
%TO.C,U1*%
X116140000Y-126170000D03*
X116140000Y-123870000D03*
X114240000Y-123870000D03*
X114240000Y-126170000D03*
%TD*%
D21*
%TO.C,TP13*%
X98473000Y-127736000D03*
%TD*%
D23*
%TO.C,R12*%
X98650200Y-73123400D03*
X99670200Y-73123400D03*
%TD*%
D20*
%TO.C,R4*%
X111410000Y-74379000D03*
X110390000Y-74379000D03*
%TD*%
D14*
%TO.C,C2*%
X116020000Y-109624000D03*
X115060000Y-109624000D03*
%TD*%
D23*
%TO.C,R7*%
X110365000Y-77579000D03*
X111385000Y-77579000D03*
%TD*%
D31*
%TO.C,C23*%
X101730000Y-132610000D03*
X102690000Y-132610000D03*
%TD*%
D21*
%TO.C,TP6*%
X89560400Y-119507000D03*
%TD*%
D29*
%TO.C,C5*%
X112160000Y-121800000D03*
X112160000Y-120840000D03*
%TD*%
D21*
%TO.C,TP9*%
X122500000Y-113430000D03*
%TD*%
D38*
%TO.C,R9*%
X101092000Y-112066800D03*
X101092000Y-111046800D03*
%TD*%
D14*
%TO.C,C17*%
X97210000Y-107780000D03*
X96250000Y-107780000D03*
%TD*%
%TO.C,C8*%
X112290000Y-104240000D03*
X111330000Y-104240000D03*
%TD*%
D31*
%TO.C,C29*%
X95640000Y-137410000D03*
X96600000Y-137410000D03*
%TD*%
D21*
%TO.C,TP14*%
X107830000Y-129200000D03*
%TD*%
%TO.C,TP45*%
X87122000Y-117983000D03*
%TD*%
D20*
%TO.C,R3*%
X127382000Y-94441000D03*
X126362000Y-94441000D03*
%TD*%
D31*
%TO.C,C27*%
X111051000Y-65931000D03*
X112011000Y-65931000D03*
%TD*%
D21*
%TO.C,TP22*%
X126365000Y-64262000D03*
%TD*%
%TO.C,TP2*%
X111890000Y-140150000D03*
%TD*%
D14*
%TO.C,C20*%
X114582000Y-96355000D03*
X113622000Y-96355000D03*
%TD*%
D50*
%TO.C,C47*%
X103494600Y-97702200D03*
X100544600Y-97702200D03*
%TD*%
D17*
%TO.C,C24*%
X96763000Y-128638000D03*
X96763000Y-129598000D03*
%TD*%
D48*
%TO.C,C36*%
X92474600Y-94472200D03*
X95424600Y-94472200D03*
%TD*%
D17*
%TO.C,C9*%
X109982000Y-114230000D03*
X109982000Y-115190000D03*
%TD*%
D51*
%TO.C,U11*%
X111185050Y-62440200D03*
X111185050Y-63380000D03*
X111185050Y-64319800D03*
X113940950Y-64319800D03*
X113940950Y-62440200D03*
%TD*%
D48*
%TO.C,C37*%
X92474600Y-97832200D03*
X95424600Y-97832200D03*
%TD*%
D52*
%TO.C,J4*%
X94701000Y-145782001D03*
D53*
X89621000Y-143622000D03*
X92161000Y-143622000D03*
X94701000Y-143622000D03*
X97241000Y-143622000D03*
%TD*%
D12*
%TO.C,J7*%
X82708000Y-81632000D03*
D11*
X85248000Y-81632000D03*
%TD*%
D12*
%TO.C,J3*%
X109350000Y-143580000D03*
D11*
X111890000Y-143580000D03*
X114430000Y-143580000D03*
X116970000Y-143580000D03*
X119510000Y-143580000D03*
%TD*%
D54*
%TO.C,J8*%
X127443000Y-97960000D03*
X127443000Y-103740000D03*
D55*
X131123000Y-96530000D03*
D56*
X126943000Y-96530000D03*
D55*
X131123000Y-105170000D03*
D56*
X126943000Y-105170000D03*
%TD*%
D57*
%TO.C,J5*%
X131979500Y-61304000D03*
X126899500Y-62320000D03*
X126899500Y-60288000D03*
%TD*%
D58*
%TO.C,J1*%
X82458000Y-72442000D03*
D59*
X86958000Y-72442000D03*
%TD*%
D60*
%TO.C,J2*%
X80470000Y-130360000D03*
D61*
X80470000Y-132860000D03*
%TD*%
M02*
