%TF.GenerationSoftware,KiCad,Pcbnew,7.0.9*%
%TF.CreationDate,2024-01-24T17:11:56-05:00*%
%TF.ProjectId,bitaxeSupra,62697461-7865-4537-9570-72612e6b6963,rev?*%
%TF.SameCoordinates,Original*%
%TF.FileFunction,Paste,Bot*%
%TF.FilePolarity,Positive*%
%FSLAX46Y46*%
G04 Gerber Fmt 4.6, Leading zero omitted, Abs format (unit mm)*
G04 Created by KiCad (PCBNEW 7.0.9) date 2024-01-24 17:11:56*
%MOMM*%
%LPD*%
G01*
G04 APERTURE LIST*
G04 Aperture macros list*
%AMRoundRect*
0 Rectangle with rounded corners*
0 $1 Rounding radius*
0 $2 $3 $4 $5 $6 $7 $8 $9 X,Y pos of 4 corners*
0 Add a 4 corners polygon primitive as box body*
4,1,4,$2,$3,$4,$5,$6,$7,$8,$9,$2,$3,0*
0 Add four circle primitives for the rounded corners*
1,1,$1+$1,$2,$3*
1,1,$1+$1,$4,$5*
1,1,$1+$1,$6,$7*
1,1,$1+$1,$8,$9*
0 Add four rect primitives between the rounded corners*
20,1,$1+$1,$2,$3,$4,$5,0*
20,1,$1+$1,$4,$5,$6,$7,0*
20,1,$1+$1,$6,$7,$8,$9,0*
20,1,$1+$1,$8,$9,$2,$3,0*%
G04 Aperture macros list end*
%ADD10C,0.001000*%
%ADD11R,0.792000X0.221000*%
%ADD12R,1.900000X1.000000*%
%ADD13R,1.150000X0.600000*%
%ADD14R,1.150000X0.300000*%
%ADD15O,1.800000X1.000000*%
%ADD16O,2.100000X1.000000*%
%ADD17R,0.900000X1.500000*%
%ADD18R,1.500000X0.900000*%
%ADD19R,0.900000X0.900000*%
%ADD20RoundRect,0.250000X-0.550000X1.500000X-0.550000X-1.500000X0.550000X-1.500000X0.550000X1.500000X0*%
%ADD21R,4.400000X3.300000*%
%ADD22R,6.200000X3.900000*%
%ADD23R,0.900000X1.800000*%
G04 APERTURE END LIST*
D10*
%TO.C,U4*%
X107430562Y-112866000D02*
X106230562Y-112866000D01*
X106230562Y-112866000D02*
X106230562Y-113986000D01*
X106230562Y-113986000D02*
X107430562Y-113986000D01*
X107430562Y-113986000D02*
X107430562Y-112866000D01*
G36*
X107430562Y-112866000D02*
G01*
X106230562Y-112866000D01*
X106230562Y-113986000D01*
X107430562Y-113986000D01*
X107430562Y-112866000D01*
G37*
X107420562Y-115106000D02*
X106220562Y-115106000D01*
X106220562Y-115106000D02*
X106220562Y-117136000D01*
X106220562Y-117136000D02*
X107420562Y-117136000D01*
X107420562Y-117136000D02*
X107420562Y-115106000D01*
G36*
X107420562Y-115106000D02*
G01*
X106220562Y-115106000D01*
X106220562Y-117136000D01*
X107420562Y-117136000D01*
X107420562Y-115106000D01*
G37*
X107420562Y-117966000D02*
X106220562Y-117966000D01*
X106220562Y-117966000D02*
X106220562Y-119986000D01*
X106220562Y-119986000D02*
X107420562Y-119986000D01*
X107420562Y-119986000D02*
X107420562Y-117966000D01*
G36*
X107420562Y-117966000D02*
G01*
X106220562Y-117966000D01*
X106220562Y-119986000D01*
X107420562Y-119986000D01*
X107420562Y-117966000D01*
G37*
X105050562Y-117966000D02*
X103850562Y-117966000D01*
X103850562Y-117966000D02*
X103850562Y-119986000D01*
X103850562Y-119986000D02*
X105050562Y-119986000D01*
X105050562Y-119986000D02*
X105050562Y-117966000D01*
G36*
X105050562Y-117966000D02*
G01*
X103850562Y-117966000D01*
X103850562Y-119986000D01*
X105050562Y-119986000D01*
X105050562Y-117966000D01*
G37*
X105030562Y-115111000D02*
X103830562Y-115111000D01*
X103830562Y-115111000D02*
X103830562Y-117141000D01*
X103830562Y-117141000D02*
X105030562Y-117141000D01*
X105030562Y-117141000D02*
X105030562Y-115111000D01*
G36*
X105030562Y-115111000D02*
G01*
X103830562Y-115111000D01*
X103830562Y-117141000D01*
X105030562Y-117141000D01*
X105030562Y-115111000D01*
G37*
X105020562Y-112866000D02*
X103820562Y-112866000D01*
X103820562Y-112866000D02*
X103820562Y-113976000D01*
X103820562Y-113976000D02*
X105020562Y-113976000D01*
X105020562Y-113976000D02*
X105020562Y-112866000D01*
G36*
X105020562Y-112866000D02*
G01*
X103820562Y-112866000D01*
X103820562Y-113976000D01*
X105020562Y-113976000D01*
X105020562Y-112866000D01*
G37*
%TD*%
D11*
%TO.C,U4*%
X108546562Y-112802000D03*
X108546562Y-113304000D03*
X108546562Y-113806000D03*
X108546562Y-114308000D03*
X108546562Y-114810000D03*
X108546562Y-115312000D03*
X108546562Y-115814000D03*
X108546562Y-116316000D03*
X108546562Y-116818000D03*
X108546562Y-117320000D03*
X108546562Y-117822000D03*
X108546562Y-118324000D03*
X108546562Y-118826000D03*
X108546562Y-119328000D03*
X108546562Y-119830000D03*
X102714562Y-119830000D03*
X102714562Y-119315000D03*
X102714562Y-118815000D03*
X102714562Y-118315000D03*
X102714562Y-117815000D03*
X102714562Y-117315000D03*
X102714562Y-116818000D03*
X102714562Y-116315000D03*
X102714562Y-115814000D03*
X102714562Y-115312000D03*
X102714562Y-114810000D03*
X102714562Y-114308000D03*
X102714562Y-113815000D03*
X102714562Y-113304000D03*
X102714562Y-112815000D03*
%TD*%
D12*
%TO.C,J9*%
X85555000Y-50280000D03*
X88855000Y-52820000D03*
X85555000Y-55360000D03*
X88855000Y-57900000D03*
%TD*%
D13*
%TO.C,J8*%
X126368000Y-89256000D03*
X126368000Y-90056000D03*
D14*
X126368000Y-91206000D03*
X126368000Y-92206000D03*
X126368000Y-92706000D03*
X126368000Y-93706000D03*
D13*
X126368000Y-94856000D03*
X126368000Y-95656000D03*
X126368000Y-95656000D03*
X126368000Y-94856000D03*
D14*
X126368000Y-94206000D03*
X126368000Y-93206000D03*
X126368000Y-91706000D03*
X126368000Y-90706000D03*
D13*
X126368000Y-90056000D03*
X126368000Y-89256000D03*
D15*
X131123000Y-88136000D03*
D16*
X126943000Y-88136000D03*
D15*
X131123000Y-96776000D03*
D16*
X126943000Y-96776000D03*
%TD*%
D17*
%TO.C,U12*%
X125690000Y-81360000D03*
X124420000Y-81360000D03*
X123150000Y-81360000D03*
X121880000Y-81360000D03*
X120610000Y-81360000D03*
X119340000Y-81360000D03*
X118070000Y-81360000D03*
X116800000Y-81360000D03*
X115530000Y-81360000D03*
X114260000Y-81360000D03*
X112990000Y-81360000D03*
X111720000Y-81360000D03*
X110450000Y-81360000D03*
X109180000Y-81360000D03*
D18*
X107930000Y-79595000D03*
X107930000Y-78325000D03*
X107930000Y-77055000D03*
X107930000Y-75785000D03*
X107930000Y-74515000D03*
X107930000Y-73245000D03*
X107930000Y-71975000D03*
X107930000Y-70705000D03*
X107930000Y-69435000D03*
X107930000Y-68165000D03*
X107930000Y-66895000D03*
X107930000Y-65625000D03*
D17*
X109180000Y-63860000D03*
X110450000Y-63860000D03*
X111720000Y-63860000D03*
X112990000Y-63860000D03*
X114260000Y-63860000D03*
X115530000Y-63860000D03*
X116800000Y-63860000D03*
X118070000Y-63860000D03*
X119340000Y-63860000D03*
X120610000Y-63860000D03*
X121880000Y-63860000D03*
X123150000Y-63860000D03*
X124420000Y-63860000D03*
X125690000Y-63860000D03*
D19*
X116570000Y-75510000D03*
X117970000Y-75510000D03*
X119370000Y-75510000D03*
X116570000Y-74110000D03*
X117970000Y-74110000D03*
X119370000Y-74110000D03*
X116570000Y-72710000D03*
X117970000Y-72710000D03*
X119370000Y-72710000D03*
%TD*%
D20*
%TO.C,C28*%
X103490000Y-138720000D03*
X103490000Y-144120000D03*
%TD*%
D21*
%TO.C,J1*%
X93176000Y-68134000D03*
D22*
X84176000Y-75284000D03*
X84176000Y-62384000D03*
%TD*%
D23*
%TO.C,SW1*%
X132246000Y-104448000D03*
X128136000Y-104448000D03*
%TD*%
%TO.C,SW2*%
X132142000Y-113155000D03*
X128032000Y-113155000D03*
%TD*%
M02*
