%TF.GenerationSoftware,KiCad,Pcbnew,8.0.2*%
%TF.CreationDate,2024-09-03T18:11:36-04:00*%
%TF.ProjectId,bitaxeUltra,62697461-7865-4556-9c74-72612e6b6963,rev?*%
%TF.SameCoordinates,Original*%
%TF.FileFunction,Paste,Bot*%
%TF.FilePolarity,Positive*%
%FSLAX46Y46*%
G04 Gerber Fmt 4.6, Leading zero omitted, Abs format (unit mm)*
G04 Created by KiCad (PCBNEW 8.0.2) date 2024-09-03 18:11:36*
%MOMM*%
%LPD*%
G01*
G04 APERTURE LIST*
G04 Aperture macros list*
%AMRoundRect*
0 Rectangle with rounded corners*
0 $1 Rounding radius*
0 $2 $3 $4 $5 $6 $7 $8 $9 X,Y pos of 4 corners*
0 Add a 4 corners polygon primitive as box body*
4,1,4,$2,$3,$4,$5,$6,$7,$8,$9,$2,$3,0*
0 Add four circle primitives for the rounded corners*
1,1,$1+$1,$2,$3*
1,1,$1+$1,$4,$5*
1,1,$1+$1,$6,$7*
1,1,$1+$1,$8,$9*
0 Add four rect primitives between the rounded corners*
20,1,$1+$1,$2,$3,$4,$5,0*
20,1,$1+$1,$4,$5,$6,$7,0*
20,1,$1+$1,$6,$7,$8,$9,0*
20,1,$1+$1,$8,$9,$2,$3,0*%
G04 Aperture macros list end*
%ADD10C,0.001000*%
%ADD11R,2.000000X2.000000*%
%ADD12RoundRect,0.150000X0.425000X-0.150000X0.425000X0.150000X-0.425000X0.150000X-0.425000X-0.150000X0*%
%ADD13RoundRect,0.075000X0.500000X-0.075000X0.500000X0.075000X-0.500000X0.075000X-0.500000X-0.075000X0*%
%ADD14O,1.800000X1.000000*%
%ADD15O,2.100000X1.000000*%
%ADD16R,0.900000X1.500000*%
%ADD17R,1.500000X0.900000*%
%ADD18R,0.900000X0.900000*%
%ADD19RoundRect,0.055250X0.340750X0.055250X-0.340750X0.055250X-0.340750X-0.055250X0.340750X-0.055250X0*%
%ADD20RoundRect,0.250000X-0.550000X1.500000X-0.550000X-1.500000X0.550000X-1.500000X0.550000X1.500000X0*%
%ADD21R,0.900000X1.800000*%
G04 APERTURE END LIST*
%TO.C,U14*%
D10*
X103862000Y-113948000D02*
X105062000Y-113948000D01*
X105062000Y-113158000D01*
X103862000Y-113158000D01*
X103862000Y-113948000D01*
G36*
X103862000Y-113948000D02*
G01*
X105062000Y-113948000D01*
X105062000Y-113158000D01*
X103862000Y-113158000D01*
X103862000Y-113948000D01*
G37*
X103892000Y-117618000D02*
X105092000Y-117618000D01*
X105092000Y-116828000D01*
X103892000Y-116828000D01*
X103892000Y-117618000D01*
G36*
X103892000Y-117618000D02*
G01*
X105092000Y-117618000D01*
X105092000Y-116828000D01*
X103892000Y-116828000D01*
X103892000Y-117618000D01*
G37*
X103912000Y-116028000D02*
X105112000Y-116028000D01*
X105112000Y-115238000D01*
X103912000Y-115238000D01*
X103912000Y-116028000D01*
G36*
X103912000Y-116028000D02*
G01*
X105112000Y-116028000D01*
X105112000Y-115238000D01*
X103912000Y-115238000D01*
X103912000Y-116028000D01*
G37*
X103912000Y-119058000D02*
X105112000Y-119058000D01*
X105112000Y-118268000D01*
X103912000Y-118268000D01*
X103912000Y-119058000D01*
G36*
X103912000Y-119058000D02*
G01*
X105112000Y-119058000D01*
X105112000Y-118268000D01*
X103912000Y-118268000D01*
X103912000Y-119058000D01*
G37*
X105992000Y-113953000D02*
X107192000Y-113953000D01*
X107192000Y-113163000D01*
X105992000Y-113163000D01*
X105992000Y-113953000D01*
G36*
X105992000Y-113953000D02*
G01*
X107192000Y-113953000D01*
X107192000Y-113163000D01*
X105992000Y-113163000D01*
X105992000Y-113953000D01*
G37*
X106022000Y-117623000D02*
X107222000Y-117623000D01*
X107222000Y-116833000D01*
X106022000Y-116833000D01*
X106022000Y-117623000D01*
G36*
X106022000Y-117623000D02*
G01*
X107222000Y-117623000D01*
X107222000Y-116833000D01*
X106022000Y-116833000D01*
X106022000Y-117623000D01*
G37*
X106042000Y-116033000D02*
X107242000Y-116033000D01*
X107242000Y-115243000D01*
X106042000Y-115243000D01*
X106042000Y-116033000D01*
G36*
X106042000Y-116033000D02*
G01*
X107242000Y-116033000D01*
X107242000Y-115243000D01*
X106042000Y-115243000D01*
X106042000Y-116033000D01*
G37*
X106042000Y-119063000D02*
X107242000Y-119063000D01*
X107242000Y-118273000D01*
X106042000Y-118273000D01*
X106042000Y-119063000D01*
G36*
X106042000Y-119063000D02*
G01*
X107242000Y-119063000D01*
X107242000Y-118273000D01*
X106042000Y-118273000D01*
X106042000Y-119063000D01*
G37*
%TD*%
D11*
%TO.C,J1*%
X82160000Y-72500000D03*
X88360000Y-72500000D03*
X82160000Y-61500000D03*
X88360000Y-61500000D03*
%TD*%
D12*
%TO.C,J8*%
X84545000Y-86460000D03*
X84545000Y-85660000D03*
D13*
X84545000Y-84510000D03*
X84545000Y-83510000D03*
X84545000Y-83010000D03*
X84545000Y-82010000D03*
D12*
X84545000Y-80060000D03*
X84545000Y-80860000D03*
D13*
X84545000Y-81510000D03*
X84545000Y-82510000D03*
X84545000Y-84010000D03*
X84545000Y-85010000D03*
D14*
X79790000Y-87580000D03*
D15*
X83970000Y-87580000D03*
D14*
X79790000Y-78940000D03*
D15*
X83970000Y-78940000D03*
%TD*%
D16*
%TO.C,U12*%
X125690000Y-81360000D03*
X124420000Y-81360000D03*
X123150000Y-81360000D03*
X121880000Y-81360000D03*
X120610000Y-81360000D03*
X119340000Y-81360000D03*
X118070000Y-81360000D03*
X116800000Y-81360000D03*
X115530000Y-81360000D03*
X114260000Y-81360000D03*
X112990000Y-81360000D03*
X111720000Y-81360000D03*
X110450000Y-81360000D03*
X109180000Y-81360000D03*
D17*
X107930000Y-79595000D03*
X107930000Y-78325000D03*
X107930000Y-77055000D03*
X107930000Y-75785000D03*
X107930000Y-74515000D03*
X107930000Y-73245000D03*
X107930000Y-71975000D03*
X107930000Y-70705000D03*
X107930000Y-69435000D03*
X107930000Y-68165000D03*
X107930000Y-66895000D03*
X107930000Y-65625000D03*
D16*
X109180000Y-63860000D03*
X110450000Y-63860000D03*
X111720000Y-63860000D03*
X112990000Y-63860000D03*
X114260000Y-63860000D03*
X115530000Y-63860000D03*
X116800000Y-63860000D03*
X118070000Y-63860000D03*
X119340000Y-63860000D03*
X120610000Y-63860000D03*
X121880000Y-63860000D03*
X123150000Y-63860000D03*
X124420000Y-63860000D03*
X125690000Y-63860000D03*
D18*
X116570000Y-75510000D03*
X117970000Y-75510000D03*
X119370000Y-75510000D03*
X116570000Y-74110000D03*
X117970000Y-74110000D03*
X119370000Y-74110000D03*
X116570000Y-72710000D03*
X117970000Y-72710000D03*
X119370000Y-72710000D03*
%TD*%
D19*
%TO.C,U14*%
X108528000Y-112805000D03*
X108528000Y-113307000D03*
X108528000Y-113809000D03*
X108528000Y-114311000D03*
X108528000Y-114813000D03*
X108528000Y-115315000D03*
X108528000Y-115817000D03*
X108528000Y-116319000D03*
X108528000Y-116821000D03*
X108528000Y-117323000D03*
X108528000Y-117825000D03*
X108528000Y-118327000D03*
X108528000Y-118829000D03*
X108528000Y-119331000D03*
X102696000Y-119331000D03*
X102696000Y-118829000D03*
X102696000Y-118327000D03*
X102696000Y-117825000D03*
X102696000Y-117323000D03*
X102696000Y-116821000D03*
X102696000Y-116319000D03*
X102696000Y-115817000D03*
X102696000Y-115315000D03*
X102696000Y-114813000D03*
X102696000Y-114311000D03*
X102696000Y-113809000D03*
X102696000Y-113307000D03*
X102696000Y-112805000D03*
%TD*%
D20*
%TO.C,C28*%
X103490000Y-138720000D03*
X103490000Y-144120000D03*
%TD*%
D21*
%TO.C,SW1*%
X132246000Y-104448000D03*
X128136000Y-104448000D03*
%TD*%
%TO.C,SW2*%
X132142000Y-113155000D03*
X128032000Y-113155000D03*
%TD*%
M02*
