%TF.GenerationSoftware,KiCad,Pcbnew,7.0.1*%
%TF.CreationDate,2023-05-29T11:52:31-05:00*%
%TF.ProjectId,bitaxeMax,62697461-7865-44d6-9178-2e6b69636164,rev?*%
%TF.SameCoordinates,Original*%
%TF.FileFunction,Copper,L1,Top*%
%TF.FilePolarity,Positive*%
%FSLAX46Y46*%
G04 Gerber Fmt 4.6, Leading zero omitted, Abs format (unit mm)*
G04 Created by KiCad (PCBNEW 7.0.1) date 2023-05-29 11:52:31*
%MOMM*%
%LPD*%
G01*
G04 APERTURE LIST*
G04 Aperture macros list*
%AMRoundRect*
0 Rectangle with rounded corners*
0 $1 Rounding radius*
0 $2 $3 $4 $5 $6 $7 $8 $9 X,Y pos of 4 corners*
0 Add a 4 corners polygon primitive as box body*
4,1,4,$2,$3,$4,$5,$6,$7,$8,$9,$2,$3,0*
0 Add four circle primitives for the rounded corners*
1,1,$1+$1,$2,$3*
1,1,$1+$1,$4,$5*
1,1,$1+$1,$6,$7*
1,1,$1+$1,$8,$9*
0 Add four rect primitives between the rounded corners*
20,1,$1+$1,$2,$3,$4,$5,0*
20,1,$1+$1,$4,$5,$6,$7,0*
20,1,$1+$1,$6,$7,$8,$9,0*
20,1,$1+$1,$8,$9,$2,$3,0*%
%AMFreePoly0*
4,1,19,0.500000,-0.750000,0.000000,-0.750000,0.000000,-0.744911,-0.071157,-0.744911,-0.207708,-0.704816,-0.327430,-0.627875,-0.420627,-0.520320,-0.479746,-0.390866,-0.500000,-0.250000,-0.500000,0.250000,-0.479746,0.390866,-0.420627,0.520320,-0.327430,0.627875,-0.207708,0.704816,-0.071157,0.744911,0.000000,0.744911,0.000000,0.750000,0.500000,0.750000,0.500000,-0.750000,0.500000,-0.750000,
$1*%
%AMFreePoly1*
4,1,19,0.000000,0.744911,0.071157,0.744911,0.207708,0.704816,0.327430,0.627875,0.420627,0.520320,0.479746,0.390866,0.500000,0.250000,0.500000,-0.250000,0.479746,-0.390866,0.420627,-0.520320,0.327430,-0.627875,0.207708,-0.704816,0.071157,-0.744911,0.000000,-0.744911,0.000000,-0.750000,-0.500000,-0.750000,-0.500000,0.750000,0.000000,0.750000,0.000000,0.744911,0.000000,0.744911,
$1*%
%AMFreePoly2*
4,1,35,0.005000,-4.560000,0.003536,-4.563536,0.000000,-4.565000,-5.000000,-4.565000,-5.003536,-4.563536,-5.005000,-4.560000,-5.005000,-3.898000,-5.003536,-3.894464,-5.000000,-3.893000,-4.325000,-3.893000,-4.325000,-3.269700,-5.000000,-3.269700,-5.003536,-3.268236,-5.005000,-3.264700,-5.005000,-2.599700,-5.003536,-2.596164,-5.000000,-2.594700,-4.325000,-2.594700,-4.325000,-1.971400,-5.000000,-1.971400,
-5.003536,-1.969936,-5.005000,-1.966400,-5.005000,-1.301400,-5.003536,-1.297864,-5.000000,-1.296400,-4.325000,-1.296400,-4.325000,-0.673100,-5.000000,-0.673100,-5.003536,-0.671636,-5.005000,-0.668100,-5.005000,0.000000,-5.003536,0.003536,-5.000000,0.005000,0.005000,0.005000,0.005000,-4.560000,0.005000,-4.560000,$1*%
%AMFreePoly3*
4,1,45,-0.199646,1.700354,-0.199500,1.700000,-0.199500,1.200500,0.199500,1.200500,0.199500,1.700000,0.199646,1.700354,0.200000,1.700500,0.450000,1.700500,0.450354,1.700354,0.450500,1.700000,0.450500,1.200500,0.825000,1.200500,0.825354,1.200354,0.825500,1.200000,0.825500,-1.200000,0.825354,-1.200354,0.825000,-1.200500,0.450500,-1.200500,0.450500,-1.700000,0.450354,-1.700354,
0.450000,-1.700500,0.200000,-1.700500,0.199646,-1.700354,0.199500,-1.700000,0.199500,-1.200500,-0.199500,-1.200500,-0.199500,-1.700000,-0.199646,-1.700354,-0.200000,-1.700500,-0.450000,-1.700500,-0.450354,-1.700354,-0.450500,-1.700000,-0.450500,-1.200500,-0.825000,-1.200500,-0.825354,-1.200354,-0.825500,-1.200000,-0.825500,1.200000,-0.825354,1.200354,-0.825000,1.200500,-0.450500,1.200500,
-0.450500,1.700000,-0.450354,1.700354,-0.450000,1.700500,-0.200000,1.700500,-0.199646,1.700354,-0.199646,1.700354,$1*%
G04 Aperture macros list end*
%TA.AperFunction,SMDPad,CuDef*%
%ADD10RoundRect,0.135000X-0.135000X-0.185000X0.135000X-0.185000X0.135000X0.185000X-0.135000X0.185000X0*%
%TD*%
%TA.AperFunction,SMDPad,CuDef*%
%ADD11RoundRect,0.250000X0.475000X-0.250000X0.475000X0.250000X-0.475000X0.250000X-0.475000X-0.250000X0*%
%TD*%
%TA.AperFunction,SMDPad,CuDef*%
%ADD12RoundRect,0.140000X-0.170000X0.140000X-0.170000X-0.140000X0.170000X-0.140000X0.170000X0.140000X0*%
%TD*%
%TA.AperFunction,SMDPad,CuDef*%
%ADD13RoundRect,0.040600X0.249400X-0.564400X0.249400X0.564400X-0.249400X0.564400X-0.249400X-0.564400X0*%
%TD*%
%TA.AperFunction,SMDPad,CuDef*%
%ADD14RoundRect,0.100000X-0.637500X-0.100000X0.637500X-0.100000X0.637500X0.100000X-0.637500X0.100000X0*%
%TD*%
%TA.AperFunction,SMDPad,CuDef*%
%ADD15RoundRect,0.135000X-0.185000X0.135000X-0.185000X-0.135000X0.185000X-0.135000X0.185000X0.135000X0*%
%TD*%
%TA.AperFunction,SMDPad,CuDef*%
%ADD16C,1.500000*%
%TD*%
%TA.AperFunction,SMDPad,CuDef*%
%ADD17RoundRect,0.140000X0.140000X0.170000X-0.140000X0.170000X-0.140000X-0.170000X0.140000X-0.170000X0*%
%TD*%
%TA.AperFunction,SMDPad,CuDef*%
%ADD18RoundRect,0.250000X0.250000X0.475000X-0.250000X0.475000X-0.250000X-0.475000X0.250000X-0.475000X0*%
%TD*%
%TA.AperFunction,SMDPad,CuDef*%
%ADD19FreePoly0,180.000000*%
%TD*%
%TA.AperFunction,SMDPad,CuDef*%
%ADD20FreePoly1,180.000000*%
%TD*%
%TA.AperFunction,SMDPad,CuDef*%
%ADD21RoundRect,0.250000X-0.475000X0.250000X-0.475000X-0.250000X0.475000X-0.250000X0.475000X0.250000X0*%
%TD*%
%TA.AperFunction,SMDPad,CuDef*%
%ADD22RoundRect,0.250000X-0.250000X-0.475000X0.250000X-0.475000X0.250000X0.475000X-0.250000X0.475000X0*%
%TD*%
%TA.AperFunction,SMDPad,CuDef*%
%ADD23R,1.168400X1.600200*%
%TD*%
%TA.AperFunction,SMDPad,CuDef*%
%ADD24RoundRect,0.150000X-0.512500X-0.150000X0.512500X-0.150000X0.512500X0.150000X-0.512500X0.150000X0*%
%TD*%
%TA.AperFunction,SMDPad,CuDef*%
%ADD25RoundRect,0.140000X-0.140000X-0.170000X0.140000X-0.170000X0.140000X0.170000X-0.140000X0.170000X0*%
%TD*%
%TA.AperFunction,SMDPad,CuDef*%
%ADD26RoundRect,0.140000X0.170000X-0.140000X0.170000X0.140000X-0.170000X0.140000X-0.170000X-0.140000X0*%
%TD*%
%TA.AperFunction,SMDPad,CuDef*%
%ADD27R,0.400000X1.100000*%
%TD*%
%TA.AperFunction,SMDPad,CuDef*%
%ADD28RoundRect,0.007800X-0.122200X0.442200X-0.122200X-0.442200X0.122200X-0.442200X0.122200X0.442200X0*%
%TD*%
%TA.AperFunction,SMDPad,CuDef*%
%ADD29RoundRect,0.007800X-0.442200X-0.122200X0.442200X-0.122200X0.442200X0.122200X-0.442200X0.122200X0*%
%TD*%
%TA.AperFunction,SMDPad,CuDef*%
%ADD30R,2.050000X2.050000*%
%TD*%
%TA.AperFunction,ComponentPad*%
%ADD31C,0.500000*%
%TD*%
%TA.AperFunction,SMDPad,CuDef*%
%ADD32R,3.100000X2.000000*%
%TD*%
%TA.AperFunction,SMDPad,CuDef*%
%ADD33RoundRect,0.135000X0.135000X0.185000X-0.135000X0.185000X-0.135000X-0.185000X0.135000X-0.185000X0*%
%TD*%
%TA.AperFunction,SMDPad,CuDef*%
%ADD34RoundRect,0.135000X0.185000X-0.135000X0.185000X0.135000X-0.185000X0.135000X-0.185000X-0.135000X0*%
%TD*%
%TA.AperFunction,SMDPad,CuDef*%
%ADD35R,1.100000X0.400000*%
%TD*%
%TA.AperFunction,SMDPad,CuDef*%
%ADD36RoundRect,0.250000X-1.025000X0.875000X-1.025000X-0.875000X1.025000X-0.875000X1.025000X0.875000X0*%
%TD*%
%TA.AperFunction,SMDPad,CuDef*%
%ADD37R,0.700000X0.800000*%
%TD*%
%TA.AperFunction,SMDPad,CuDef*%
%ADD38FreePoly2,270.000000*%
%TD*%
%TA.AperFunction,SMDPad,CuDef*%
%ADD39R,1.500000X1.000000*%
%TD*%
%TA.AperFunction,SMDPad,CuDef*%
%ADD40RoundRect,0.007874X-0.112126X0.292126X-0.112126X-0.292126X0.112126X-0.292126X0.112126X0.292126X0*%
%TD*%
%TA.AperFunction,ComponentPad*%
%ADD41C,0.400000*%
%TD*%
%TA.AperFunction,SMDPad,CuDef*%
%ADD42FreePoly3,270.000000*%
%TD*%
%TA.AperFunction,SMDPad,CuDef*%
%ADD43R,1.600000X2.700000*%
%TD*%
%TA.AperFunction,SMDPad,CuDef*%
%ADD44FreePoly2,90.000000*%
%TD*%
%TA.AperFunction,SMDPad,CuDef*%
%ADD45RoundRect,0.250000X-0.325000X-1.100000X0.325000X-1.100000X0.325000X1.100000X-0.325000X1.100000X0*%
%TD*%
%TA.AperFunction,SMDPad,CuDef*%
%ADD46R,1.100000X1.300000*%
%TD*%
%TA.AperFunction,SMDPad,CuDef*%
%ADD47RoundRect,0.250000X0.325000X0.650000X-0.325000X0.650000X-0.325000X-0.650000X0.325000X-0.650000X0*%
%TD*%
%TA.AperFunction,SMDPad,CuDef*%
%ADD48R,0.952500X0.558800*%
%TD*%
%TA.AperFunction,ComponentPad*%
%ADD49C,1.574800*%
%TD*%
%TA.AperFunction,ComponentPad*%
%ADD50R,1.700000X1.700000*%
%TD*%
%TA.AperFunction,ComponentPad*%
%ADD51O,1.700000X1.700000*%
%TD*%
%TA.AperFunction,ComponentPad*%
%ADD52C,2.520000*%
%TD*%
%TA.AperFunction,ViaPad*%
%ADD53C,0.800000*%
%TD*%
%TA.AperFunction,ViaPad*%
%ADD54C,1.000000*%
%TD*%
%TA.AperFunction,ViaPad*%
%ADD55C,1.200000*%
%TD*%
%TA.AperFunction,Conductor*%
%ADD56C,0.254000*%
%TD*%
%TA.AperFunction,Conductor*%
%ADD57C,0.508000*%
%TD*%
%TA.AperFunction,Conductor*%
%ADD58C,1.000000*%
%TD*%
%TA.AperFunction,Conductor*%
%ADD59C,0.400000*%
%TD*%
%TA.AperFunction,Conductor*%
%ADD60C,0.200000*%
%TD*%
G04 APERTURE END LIST*
%TA.AperFunction,EtchedComponent*%
%TO.C,JP3*%
G36*
X129028000Y-113988000D02*
G01*
X128528000Y-113988000D01*
X128528000Y-113588000D01*
X129028000Y-113588000D01*
X129028000Y-113988000D01*
G37*
%TD.AperFunction*%
%TA.AperFunction,EtchedComponent*%
G36*
X129028000Y-113188000D02*
G01*
X128528000Y-113188000D01*
X128528000Y-112788000D01*
X129028000Y-112788000D01*
X129028000Y-113188000D01*
G37*
%TD.AperFunction*%
%TA.AperFunction,EtchedComponent*%
%TO.C,JP4*%
G36*
X112351000Y-78190000D02*
G01*
X111951000Y-78190000D01*
X111951000Y-77690000D01*
X112351000Y-77690000D01*
X112351000Y-78190000D01*
G37*
%TD.AperFunction*%
%TA.AperFunction,EtchedComponent*%
G36*
X113151000Y-78190000D02*
G01*
X112751000Y-78190000D01*
X112751000Y-77690000D01*
X113151000Y-77690000D01*
X113151000Y-78190000D01*
G37*
%TD.AperFunction*%
%TD*%
D10*
%TO.P,R26,1*%
%TO.N,/ESP32/LEDX_G*%
X95600000Y-55220000D03*
%TO.P,R26,2*%
%TO.N,Net-(U4-GA)*%
X96620000Y-55220000D03*
%TD*%
D11*
%TO.P,C43,1*%
%TO.N,Net-(U9-BP)*%
X104265600Y-71247800D03*
%TO.P,C43,2*%
%TO.N,GND*%
X104265600Y-69347800D03*
%TD*%
D12*
%TO.P,C19,1*%
%TO.N,/BM1397/1V8*%
X119126000Y-102136000D03*
%TO.P,C19,2*%
%TO.N,GND*%
X119126000Y-103096000D03*
%TD*%
D13*
%TO.P,U3,1,VCCA*%
%TO.N,/BM1397/1V8*%
X121478000Y-96505000D03*
%TO.P,U3,2,GND*%
%TO.N,GND*%
X122428000Y-96505000D03*
%TO.P,U3,3,A*%
%TO.N,Net-(U3-A)*%
X123378000Y-96505000D03*
%TO.P,U3,4,B*%
%TO.N,/BM1397/CLKI*%
X123378000Y-93995000D03*
%TO.P,U3,5,DIR*%
%TO.N,GND*%
X122428000Y-93995000D03*
%TO.P,U3,6,VCCB*%
%TO.N,/3V3*%
X121478000Y-93995000D03*
%TD*%
D14*
%TO.P,U8,1,IN+*%
%TO.N,/Power/VIN*%
X79777500Y-79495000D03*
%TO.P,U8,2,IN+*%
X79777500Y-80145000D03*
%TO.P,U8,3,IN+*%
X79777500Y-80795000D03*
%TO.P,U8,4,A1*%
%TO.N,GND*%
X79777500Y-81445000D03*
%TO.P,U8,5,A0*%
X79777500Y-82095000D03*
%TO.P,U8,6,GND*%
X79777500Y-82745000D03*
%TO.P,U8,7,ALERT*%
%TO.N,unconnected-(U8-ALERT-Pad7)*%
X79777500Y-83395000D03*
%TO.P,U8,8,SDA*%
%TO.N,/SDA*%
X79777500Y-84045000D03*
%TO.P,U8,9,SCL*%
%TO.N,/SCL*%
X85502500Y-84045000D03*
%TO.P,U8,10,VS*%
%TO.N,/3V3*%
X85502500Y-83395000D03*
%TO.P,U8,11,GND*%
%TO.N,GND*%
X85502500Y-82745000D03*
%TO.P,U8,12,VBUS*%
%TO.N,/Power/VIN*%
X85502500Y-82095000D03*
%TO.P,U8,13,NC*%
%TO.N,unconnected-(U8-NC-Pad13)*%
X85502500Y-81445000D03*
%TO.P,U8,14,IN-*%
%TO.N,/5V*%
X85502500Y-80795000D03*
%TO.P,U8,15,IN-*%
X85502500Y-80145000D03*
%TO.P,U8,16,IN-*%
X85502500Y-79495000D03*
%TD*%
D12*
%TO.P,C7,1*%
%TO.N,/VDD*%
X99820000Y-114150000D03*
%TO.P,C7,2*%
%TO.N,GND*%
X99820000Y-115110000D03*
%TD*%
D10*
%TO.P,R7,1,1*%
%TO.N,Net-(U7-DN)*%
X93400000Y-116670000D03*
%TO.P,R7,2,2*%
%TO.N,/TEMP_N*%
X94420000Y-116670000D03*
%TD*%
D15*
%TO.P,R13,1*%
%TO.N,/VDD*%
X90649600Y-63569000D03*
%TO.P,R13,2*%
%TO.N,Net-(C45-Pad1)*%
X90649600Y-64589000D03*
%TD*%
D16*
%TO.P,TP26,1,1*%
%TO.N,/ESP32/LEDX_G*%
X100520000Y-58700000D03*
%TD*%
%TO.P,TP31,1,1*%
%TO.N,GND*%
X129540000Y-99060000D03*
%TD*%
D17*
%TO.P,C1,1*%
%TO.N,GND*%
X115730000Y-127810000D03*
%TO.P,C1,2*%
%TO.N,/BM1397/1V8*%
X114770000Y-127810000D03*
%TD*%
D18*
%TO.P,C41,1*%
%TO.N,Net-(U9-COMP)*%
X98355400Y-63005800D03*
%TO.P,C41,2*%
%TO.N,Net-(C41-Pad2)*%
X96455400Y-63005800D03*
%TD*%
D16*
%TO.P,TP19,1,1*%
%TO.N,/3V3*%
X131156000Y-74610000D03*
%TD*%
D19*
%TO.P,JP2,1,A*%
%TO.N,GND*%
X129428000Y-110998000D03*
D20*
%TO.P,JP2,2,B*%
%TO.N,Net-(IC1-ADDR1)*%
X128128000Y-110998000D03*
%TD*%
D10*
%TO.P,R1,1*%
%TO.N,GND*%
X118360000Y-116520000D03*
%TO.P,R1,2*%
%TO.N,/BM1397/RST_N*%
X119380000Y-116520000D03*
%TD*%
D17*
%TO.P,C3,1*%
%TO.N,Net-(IC1-VDD1_0)*%
X118082000Y-108630000D03*
%TO.P,C3,2*%
%TO.N,Net-(IC1-VDD2_0)*%
X117122000Y-108630000D03*
%TD*%
D21*
%TO.P,C38,1*%
%TO.N,/5V*%
X101783000Y-67211600D03*
%TO.P,C38,2*%
%TO.N,GND*%
X101783000Y-69111600D03*
%TD*%
D16*
%TO.P,TP5,1,1*%
%TO.N,GND*%
X124460000Y-154940000D03*
%TD*%
D10*
%TO.P,R27,1*%
%TO.N,/ESP32/LEDZ_G*%
X106450000Y-55180000D03*
%TO.P,R27,2*%
%TO.N,Net-(U13-GA)*%
X107470000Y-55180000D03*
%TD*%
D12*
%TO.P,C25,1*%
%TO.N,/BM1397/0V8*%
X108127500Y-136360000D03*
%TO.P,C25,2*%
%TO.N,GND*%
X108127500Y-137320000D03*
%TD*%
D22*
%TO.P,C45,1*%
%TO.N,Net-(C45-Pad1)*%
X91120000Y-66420000D03*
%TO.P,C45,2*%
%TO.N,/Power/OUT0*%
X93020000Y-66420000D03*
%TD*%
D23*
%TO.P,Y1,1,1*%
%TO.N,/ESP32/XIN32*%
X124017400Y-78349000D03*
%TO.P,Y1,2,2*%
%TO.N,/ESP32/XOUT32*%
X121172600Y-78349000D03*
%TD*%
D16*
%TO.P,TP16,1,1*%
%TO.N,/Fan/FAN_TACH*%
X81280000Y-142875000D03*
%TD*%
%TO.P,TP15,1,1*%
%TO.N,/Fan/FAN_PWM*%
X82042000Y-154940000D03*
%TD*%
D24*
%TO.P,U5,1,VIN*%
%TO.N,/5V*%
X96144500Y-129860000D03*
%TO.P,U5,2,GND*%
%TO.N,GND*%
X96144500Y-130810000D03*
%TO.P,U5,3,EN*%
%TO.N,/5V*%
X96144500Y-131760000D03*
%TO.P,U5,4,PG*%
%TO.N,unconnected-(U5-PG-Pad4)*%
X98419500Y-131760000D03*
%TO.P,U5,5,VOUT*%
%TO.N,/BM1397/1V8*%
X98419500Y-129860000D03*
%TD*%
D22*
%TO.P,C51,1*%
%TO.N,/3V3*%
X130440000Y-82740000D03*
%TO.P,C51,2*%
%TO.N,GND*%
X132340000Y-82740000D03*
%TD*%
D16*
%TO.P,TP23,1,1*%
%TO.N,/ESP32/IO0*%
X122556000Y-57528000D03*
%TD*%
D15*
%TO.P,R6,1*%
%TO.N,Net-(IC1-RI)*%
X97500000Y-120800000D03*
%TO.P,R6,2*%
%TO.N,/BM1397/1V8*%
X97500000Y-121820000D03*
%TD*%
D16*
%TO.P,TP30,1,1*%
%TO.N,/ESP32/LEDZ_B*%
X114630000Y-59948000D03*
%TD*%
D24*
%TO.P,U6,1,VIN*%
%TO.N,/5V*%
X103770000Y-135890000D03*
%TO.P,U6,2,GND*%
%TO.N,GND*%
X103770000Y-136840000D03*
%TO.P,U6,3,EN*%
%TO.N,/5V*%
X103770000Y-137790000D03*
%TO.P,U6,4,PG*%
%TO.N,unconnected-(U6-PG-Pad4)*%
X106045000Y-137790000D03*
%TO.P,U6,5,VOUT*%
%TO.N,/BM1397/0V8*%
X106045000Y-135890000D03*
%TD*%
D25*
%TO.P,C50,1*%
%TO.N,/ESP32/EN*%
X130787000Y-79266000D03*
%TO.P,C50,2*%
%TO.N,GND*%
X131747000Y-79266000D03*
%TD*%
D26*
%TO.P,C4,1*%
%TO.N,/BM1397/0V8*%
X110660000Y-121800000D03*
%TO.P,C4,2*%
%TO.N,GND*%
X110660000Y-120840000D03*
%TD*%
D27*
%TO.P,U7,1,VDD*%
%TO.N,/3V3*%
X82655000Y-134030000D03*
%TO.P,U7,2,DP*%
%TO.N,Net-(U7-DP)*%
X82005000Y-134030000D03*
%TO.P,U7,3,DN*%
%TO.N,Net-(U7-DN)*%
X81355000Y-134030000D03*
%TO.P,U7,4,FAN*%
%TO.N,/Fan/FAN_PWM*%
X80705000Y-134030000D03*
%TO.P,U7,5,GND*%
%TO.N,GND*%
X80705000Y-138330000D03*
%TO.P,U7,6,ALERT/TACH*%
%TO.N,/Fan/FAN_TACH*%
X81355000Y-138330000D03*
%TO.P,U7,7,SMDATA*%
%TO.N,/SDA*%
X82005000Y-138330000D03*
%TO.P,U7,8,SMCLK*%
%TO.N,/SCL*%
X82655000Y-138330000D03*
%TD*%
D17*
%TO.P,C12,1*%
%TO.N,/VDD*%
X96492000Y-105918000D03*
%TO.P,C12,2*%
%TO.N,Net-(IC1-VDD3_1)*%
X95532000Y-105918000D03*
%TD*%
D25*
%TO.P,C52,1*%
%TO.N,/3V3*%
X130790000Y-80550000D03*
%TO.P,C52,2*%
%TO.N,GND*%
X131750000Y-80550000D03*
%TD*%
D19*
%TO.P,JP3,1,A*%
%TO.N,GND*%
X129428000Y-113388000D03*
D20*
%TO.P,JP3,2,B*%
%TO.N,Net-(IC1-ADDR2)*%
X128128000Y-113388000D03*
%TD*%
D10*
%TO.P,R29,1*%
%TO.N,/ESP32/LEDZ_R*%
X106450000Y-56190000D03*
%TO.P,R29,2*%
%TO.N,Net-(U13-RA)*%
X107470000Y-56190000D03*
%TD*%
D26*
%TO.P,C30,1*%
%TO.N,/ESP32/XIN32*%
X124043000Y-76576000D03*
%TO.P,C30,2*%
%TO.N,GND*%
X124043000Y-75616000D03*
%TD*%
D16*
%TO.P,TP21,1,1*%
%TO.N,/BM1397/CLKI*%
X131064000Y-94742000D03*
%TD*%
D25*
%TO.P,C26,1*%
%TO.N,/3V3*%
X121440000Y-92202000D03*
%TO.P,C26,2*%
%TO.N,GND*%
X122400000Y-92202000D03*
%TD*%
D28*
%TO.P,U2,1,VCCA*%
%TO.N,/BM1397/1V8*%
X115074000Y-98391000D03*
D29*
%TO.P,U2,2,A1*%
%TO.N,/BM1397/RO*%
X114139000Y-99076000D03*
%TO.P,U2,3,A2*%
%TO.N,/BM1397/CI*%
X114139000Y-99576000D03*
%TO.P,U2,4,A3*%
%TO.N,/BM1397/RST_N*%
X114139000Y-100076000D03*
%TO.P,U2,5,A4*%
%TO.N,/BM1397/BM_BI*%
X114139000Y-100576000D03*
%TO.P,U2,6*%
%TO.N,N/C*%
X114139000Y-101076000D03*
D28*
%TO.P,U2,7,GND*%
%TO.N,GND*%
X115074000Y-101761000D03*
%TO.P,U2,8,OE*%
%TO.N,/BM1397/1V8*%
X116574000Y-101761000D03*
D29*
%TO.P,U2,9*%
%TO.N,N/C*%
X117509000Y-101076000D03*
%TO.P,U2,10,B4*%
%TO.N,/BI*%
X117509000Y-100576000D03*
%TO.P,U2,11,B3*%
%TO.N,/RST*%
X117509000Y-100076000D03*
%TO.P,U2,12,B2*%
%TO.N,/TX*%
X117509000Y-99576000D03*
%TO.P,U2,13,B1*%
%TO.N,/RX*%
X117509000Y-99076000D03*
D28*
%TO.P,U2,14,VCCB*%
%TO.N,/3V3*%
X116574000Y-98391000D03*
D30*
%TO.P,U2,15,GND*%
%TO.N,GND*%
X115824000Y-100076000D03*
D31*
%TO.P,U2,16,GND*%
X116324000Y-99576000D03*
%TO.P,U2,17,GND*%
X116324000Y-100576000D03*
%TO.P,U2,18,GND*%
X115324000Y-100576000D03*
%TO.P,U2,19,GND*%
X115324000Y-99576000D03*
%TD*%
D15*
%TO.P,R10,1*%
%TO.N,Net-(C41-Pad2)*%
X94828800Y-63573600D03*
%TO.P,R10,2*%
%TO.N,/Power/OUT0*%
X94828800Y-64593600D03*
%TD*%
D16*
%TO.P,TP17,1,1*%
%TO.N,/ESP32/EN*%
X131044000Y-65978000D03*
%TD*%
D32*
%TO.P,L1,1,1*%
%TO.N,/Power/SW*%
X106000600Y-77761400D03*
%TO.P,L1,2,2*%
%TO.N,/VDD*%
X106000600Y-86081400D03*
%TD*%
D33*
%TO.P,R20,1*%
%TO.N,/3V3*%
X131777000Y-77964000D03*
%TO.P,R20,2*%
%TO.N,/ESP32/EN*%
X130757000Y-77964000D03*
%TD*%
D34*
%TO.P,R15,1*%
%TO.N,/Power/OUT0*%
X93465000Y-64589000D03*
%TO.P,R15,2*%
%TO.N,GND*%
X93465000Y-63569000D03*
%TD*%
D16*
%TO.P,TP29,1,1*%
%TO.N,/ESP32/LEDZ_G*%
X112020000Y-58630000D03*
%TD*%
D17*
%TO.P,C15,1*%
%TO.N,Net-(IC1-VDD3_1)*%
X95476000Y-107696000D03*
%TO.P,C15,2*%
%TO.N,Net-(IC1-VDD2_1)*%
X94516000Y-107696000D03*
%TD*%
D16*
%TO.P,TP32,1,1*%
%TO.N,Net-(IC1-RI)*%
X82550000Y-117856000D03*
%TD*%
D33*
%TO.P,R16,1*%
%TO.N,Net-(U10-FS0)*%
X94840000Y-102040000D03*
%TO.P,R16,2*%
%TO.N,GND*%
X93820000Y-102040000D03*
%TD*%
D16*
%TO.P,TP28,1,1*%
%TO.N,/ESP32/LEDZ_R*%
X109370000Y-57428000D03*
%TD*%
D17*
%TO.P,C32,1*%
%TO.N,Net-(U7-DP)*%
X94390000Y-118050000D03*
%TO.P,C32,2*%
%TO.N,Net-(U7-DN)*%
X93430000Y-118050000D03*
%TD*%
D26*
%TO.P,C16,1*%
%TO.N,/BM1397/0V8*%
X100710000Y-121800000D03*
%TO.P,C16,2*%
%TO.N,GND*%
X100710000Y-120840000D03*
%TD*%
D10*
%TO.P,R3,1*%
%TO.N,/BM1397/RO*%
X118360000Y-117890000D03*
%TO.P,R3,2*%
%TO.N,Net-(IC1-RO)*%
X119380000Y-117890000D03*
%TD*%
D12*
%TO.P,C49,1*%
%TO.N,/3V3*%
X115489000Y-63645000D03*
%TO.P,C49,2*%
%TO.N,GND*%
X115489000Y-64605000D03*
%TD*%
D16*
%TO.P,TP12,1,1*%
%TO.N,/TEMP_N*%
X96012000Y-125476000D03*
%TD*%
D25*
%TO.P,C18,1*%
%TO.N,Net-(IC1-VDD1_1)*%
X93490000Y-111125000D03*
%TO.P,C18,2*%
%TO.N,GND*%
X94450000Y-111125000D03*
%TD*%
D16*
%TO.P,TP18,1,1*%
%TO.N,/ESP32/P_TX*%
X129881000Y-61664000D03*
%TD*%
D18*
%TO.P,C40,1*%
%TO.N,Net-(U9-COMP)*%
X98333000Y-65268000D03*
%TO.P,C40,2*%
%TO.N,/Power/OUT0*%
X96433000Y-65268000D03*
%TD*%
D35*
%TO.P,U10,1,SDA*%
%TO.N,/SDA*%
X90890000Y-98565000D03*
%TO.P,U10,2,SCL*%
%TO.N,/SCL*%
X90890000Y-99215000D03*
%TO.P,U10,3,FS1*%
%TO.N,Net-(U10-FS1)*%
X90890000Y-99865000D03*
%TO.P,U10,4,GND*%
%TO.N,GND*%
X90890000Y-100515000D03*
%TO.P,U10,5,FS0*%
%TO.N,Net-(U10-FS0)*%
X95190000Y-100515000D03*
%TO.P,U10,6,OUT0*%
%TO.N,/Power/OUT0*%
X95190000Y-99865000D03*
%TO.P,U10,7,OUT1*%
%TO.N,/Power/OUT1*%
X95190000Y-99215000D03*
%TO.P,U10,8,VCC*%
%TO.N,/3V3*%
X95190000Y-98565000D03*
%TD*%
D25*
%TO.P,C39,1*%
%TO.N,Net-(U9-SS)*%
X104635400Y-67480800D03*
%TO.P,C39,2*%
%TO.N,GND*%
X105595400Y-67480800D03*
%TD*%
D12*
%TO.P,C21,1*%
%TO.N,/BM1397/1V8*%
X120396000Y-102136000D03*
%TO.P,C21,2*%
%TO.N,GND*%
X120396000Y-103096000D03*
%TD*%
D26*
%TO.P,C31,1*%
%TO.N,/ESP32/XOUT32*%
X121159000Y-76585000D03*
%TO.P,C31,2*%
%TO.N,GND*%
X121159000Y-75625000D03*
%TD*%
D16*
%TO.P,TP8,1,1*%
%TO.N,Net-(IC1-CO)*%
X82296000Y-121285000D03*
%TD*%
%TO.P,TP24,1,1*%
%TO.N,/BM1397/BM_BI*%
X128651000Y-118745000D03*
%TD*%
D17*
%TO.P,C35,1*%
%TO.N,/3V3*%
X82650000Y-87720000D03*
%TO.P,C35,2*%
%TO.N,GND*%
X81690000Y-87720000D03*
%TD*%
D16*
%TO.P,TP6,1,1*%
%TO.N,Net-(IC1-BO)*%
X82804000Y-108331000D03*
%TD*%
D12*
%TO.P,C10,1*%
%TO.N,/VDD*%
X110280000Y-114170000D03*
%TO.P,C10,2*%
%TO.N,GND*%
X110280000Y-115130000D03*
%TD*%
D16*
%TO.P,TP27,1,1*%
%TO.N,/ESP32/LEDX_B*%
X103400000Y-58710000D03*
%TD*%
D12*
%TO.P,C11,1*%
%TO.N,/VDD*%
X101370000Y-114140000D03*
%TO.P,C11,2*%
%TO.N,GND*%
X101370000Y-115100000D03*
%TD*%
D15*
%TO.P,R14,1*%
%TO.N,/VDD*%
X92057300Y-63569000D03*
%TO.P,R14,2*%
%TO.N,/Power/OUT0*%
X92057300Y-64589000D03*
%TD*%
D10*
%TO.P,R11,1*%
%TO.N,/Power/PGOOD*%
X104604000Y-66292000D03*
%TO.P,R11,2*%
%TO.N,Net-(U9-BP)*%
X105624000Y-66292000D03*
%TD*%
D26*
%TO.P,C14,1*%
%TO.N,/BM1397/1V8*%
X99190000Y-121800000D03*
%TO.P,C14,2*%
%TO.N,GND*%
X99190000Y-120840000D03*
%TD*%
D36*
%TO.P,C13,1*%
%TO.N,/VDD*%
X105600000Y-111360000D03*
%TO.P,C13,2*%
%TO.N,GND*%
X105600000Y-117760000D03*
%TD*%
D16*
%TO.P,TP11,1,1*%
%TO.N,/TEMP_P*%
X93472000Y-125476000D03*
%TD*%
D37*
%TO.P,Q2,1*%
%TO.N,GND*%
X95751600Y-82862700D03*
%TO.P,Q2,2*%
X97049900Y-82862700D03*
%TO.P,Q2,3,S*%
X98313300Y-82862700D03*
%TO.P,Q2,4,G*%
%TO.N,Net-(Q2-G)*%
X99611600Y-82862700D03*
D38*
%TO.P,Q2,5,D*%
%TO.N,/Power/SW*%
X99961600Y-81957700D03*
%TD*%
D16*
%TO.P,TP1,1,1*%
%TO.N,Net-(U1-OUT)*%
X114300000Y-121920000D03*
%TD*%
D33*
%TO.P,R23,1*%
%TO.N,/BM1397/BM_CLKI*%
X119420000Y-120520000D03*
%TO.P,R23,2*%
%TO.N,Net-(U3-A)*%
X118400000Y-120520000D03*
%TD*%
D26*
%TO.P,C33,1*%
%TO.N,/3V3*%
X83058000Y-130782000D03*
%TO.P,C33,2*%
%TO.N,GND*%
X83058000Y-129822000D03*
%TD*%
D16*
%TO.P,TP3,1,1*%
%TO.N,/BM1397/RO*%
X114935000Y-152614000D03*
%TD*%
D39*
%TO.P,JP4,1,A*%
%TO.N,/3V3*%
X112551000Y-78590000D03*
%TO.P,JP4,2,C*%
%TO.N,Net-(JP4-C)*%
X112551000Y-77290000D03*
%TO.P,JP4,3,B*%
%TO.N,GND*%
X112551000Y-75990000D03*
%TD*%
D25*
%TO.P,C44,1*%
%TO.N,/3V3*%
X95450000Y-97140000D03*
%TO.P,C44,2*%
%TO.N,GND*%
X96410000Y-97140000D03*
%TD*%
D40*
%TO.P,U9,1,VDD*%
%TO.N,/5V*%
X99201691Y-68022200D03*
%TO.P,U9,2,SS*%
%TO.N,Net-(U9-SS)*%
X98701691Y-68022200D03*
%TO.P,U9,3,PGOOD*%
%TO.N,/Power/PGOOD*%
X98171691Y-68022200D03*
%TO.P,U9,4,COMP*%
%TO.N,Net-(U9-COMP)*%
X97701691Y-68022200D03*
%TO.P,U9,5,FB*%
%TO.N,/Power/OUT0*%
X97201691Y-68022200D03*
%TO.P,U9,6,BOOT*%
%TO.N,Net-(U9-BOOT)*%
X97201691Y-70822200D03*
%TO.P,U9,7,HDRV*%
%TO.N,Net-(Q1-G)*%
X97701691Y-70822200D03*
%TO.P,U9,8,SW*%
%TO.N,/Power/SW*%
X98201691Y-70822200D03*
%TO.P,U9,9,LDRV*%
%TO.N,Net-(Q2-G)*%
X98701691Y-70822200D03*
%TO.P,U9,10,BP*%
%TO.N,Net-(U9-BP)*%
X99201691Y-70822200D03*
D41*
%TO.P,U9,11,GND*%
%TO.N,GND*%
X98201691Y-68847200D03*
X99151691Y-69422200D03*
D42*
X98201691Y-69422200D03*
D41*
X97251691Y-69422200D03*
X98201691Y-69997200D03*
%TD*%
D10*
%TO.P,R36,1*%
%TO.N,/Fan/FAN_TACH*%
X95345000Y-143965000D03*
%TO.P,R36,2*%
%TO.N,/3V3*%
X96365000Y-143965000D03*
%TD*%
D16*
%TO.P,TP25,1,1*%
%TO.N,/ESP32/LEDX_R*%
X97680000Y-58680000D03*
%TD*%
D25*
%TO.P,C22,1*%
%TO.N,/5V*%
X96782000Y-133320000D03*
%TO.P,C22,2*%
%TO.N,GND*%
X97742000Y-133320000D03*
%TD*%
D17*
%TO.P,C6,1*%
%TO.N,Net-(IC1-VDD2_0)*%
X116782000Y-106870000D03*
%TO.P,C6,2*%
%TO.N,Net-(IC1-VDD3_0)*%
X115822000Y-106870000D03*
%TD*%
D43*
%TO.P,C46,1*%
%TO.N,/VDD*%
X103851600Y-89640200D03*
%TO.P,C46,2*%
%TO.N,GND*%
X100851600Y-89640200D03*
%TD*%
D10*
%TO.P,R18,1*%
%TO.N,/SCL*%
X109445000Y-68891000D03*
%TO.P,R18,2*%
%TO.N,/3V3*%
X110465000Y-68891000D03*
%TD*%
D37*
%TO.P,Q1,1*%
%TO.N,/Power/SW*%
X93649887Y-77313864D03*
%TO.P,Q1,2*%
X92351587Y-77313864D03*
%TO.P,Q1,3,S*%
X91088187Y-77313864D03*
%TO.P,Q1,4,G*%
%TO.N,Net-(Q1-G)*%
X89789887Y-77313864D03*
D44*
%TO.P,Q1,5,D*%
%TO.N,/5V*%
X89439887Y-78218864D03*
%TD*%
D10*
%TO.P,R25,1*%
%TO.N,GND*%
X95375000Y-140335000D03*
%TO.P,R25,2*%
%TO.N,/ESP32/FAN_ALERT*%
X96395000Y-140335000D03*
%TD*%
D16*
%TO.P,TP10,1,1*%
%TO.N,Net-(IC1-PIN_MODE)*%
X84201000Y-142875000D03*
%TD*%
D10*
%TO.P,R17,1*%
%TO.N,Net-(U10-FS1)*%
X90910000Y-102040000D03*
%TO.P,R17,2*%
%TO.N,GND*%
X91930000Y-102040000D03*
%TD*%
D25*
%TO.P,C42,1*%
%TO.N,Net-(U9-BOOT)*%
X96189800Y-73128000D03*
%TO.P,C42,2*%
%TO.N,/Power/SW*%
X97149800Y-73128000D03*
%TD*%
D16*
%TO.P,TP7,1,1*%
%TO.N,Net-(IC1-NRSTO)*%
X82550000Y-114427000D03*
%TD*%
D45*
%TO.P,C34,1*%
%TO.N,/5V*%
X92806600Y-85970200D03*
%TO.P,C34,2*%
%TO.N,GND*%
X95756600Y-85970200D03*
%TD*%
D16*
%TO.P,TP4,1,1*%
%TO.N,/BM1397/RST_N*%
X117565000Y-152654000D03*
%TD*%
D46*
%TO.P,U1,1,EN*%
%TO.N,/BM1397/1V8*%
X116140000Y-126170000D03*
%TO.P,U1,2,GND*%
%TO.N,GND*%
X116140000Y-123870000D03*
%TO.P,U1,3,OUT*%
%TO.N,Net-(U1-OUT)*%
X114240000Y-123870000D03*
%TO.P,U1,4,VIN*%
%TO.N,/BM1397/1V8*%
X114240000Y-126170000D03*
%TD*%
D16*
%TO.P,TP13,1,1*%
%TO.N,/BM1397/1V8*%
X104332000Y-129320000D03*
%TD*%
D10*
%TO.P,R12,1*%
%TO.N,Net-(Q2-G)*%
X98650200Y-73123400D03*
%TO.P,R12,2*%
%TO.N,GND*%
X99670200Y-73123400D03*
%TD*%
D33*
%TO.P,R4,1*%
%TO.N,/3V3*%
X110465000Y-71760000D03*
%TO.P,R4,2*%
%TO.N,/Power/PGOOD*%
X109445000Y-71760000D03*
%TD*%
D25*
%TO.P,C2,1*%
%TO.N,GND*%
X117122000Y-110490000D03*
%TO.P,C2,2*%
%TO.N,Net-(IC1-VDD1_0)*%
X118082000Y-110490000D03*
%TD*%
D10*
%TO.P,R19,1*%
%TO.N,/SDA*%
X109445000Y-70325500D03*
%TO.P,R19,2*%
%TO.N,/3V3*%
X110465000Y-70325500D03*
%TD*%
D33*
%TO.P,R24,1*%
%TO.N,/ESP32/FAN_ALERT*%
X96365000Y-139145000D03*
%TO.P,R24,2*%
%TO.N,/Fan/FAN_TACH*%
X95345000Y-139145000D03*
%TD*%
D25*
%TO.P,C23,1*%
%TO.N,/5V*%
X104317500Y-139210000D03*
%TO.P,C23,2*%
%TO.N,GND*%
X105277500Y-139210000D03*
%TD*%
D26*
%TO.P,C5,1*%
%TO.N,/BM1397/1V8*%
X112160000Y-121800000D03*
%TO.P,C5,2*%
%TO.N,GND*%
X112160000Y-120840000D03*
%TD*%
D16*
%TO.P,TP9,1,1*%
%TO.N,Net-(IC1-CLKO)*%
X82423000Y-124968000D03*
%TD*%
D10*
%TO.P,R2,1*%
%TO.N,Net-(U1-OUT)*%
X118360000Y-121740000D03*
%TO.P,R2,2*%
%TO.N,/BM1397/BM_CLKI*%
X119380000Y-121740000D03*
%TD*%
D34*
%TO.P,R9,1*%
%TO.N,/Fan/FAN_PWM*%
X80772000Y-130812000D03*
%TO.P,R9,2*%
%TO.N,/3V3*%
X80772000Y-129792000D03*
%TD*%
D17*
%TO.P,C17,1*%
%TO.N,Net-(IC1-VDD2_1)*%
X94450000Y-109220000D03*
%TO.P,C17,2*%
%TO.N,Net-(IC1-VDD1_1)*%
X93490000Y-109220000D03*
%TD*%
D19*
%TO.P,JP1,1,A*%
%TO.N,GND*%
X129428000Y-108608000D03*
D20*
%TO.P,JP1,2,B*%
%TO.N,Net-(IC1-ADDR0)*%
X128128000Y-108608000D03*
%TD*%
D10*
%TO.P,R22,1*%
%TO.N,/ESP32/LEDZ_B*%
X106450000Y-54180000D03*
%TO.P,R22,2*%
%TO.N,Net-(U13-BA)*%
X107470000Y-54180000D03*
%TD*%
D17*
%TO.P,C8,1*%
%TO.N,Net-(IC1-VDD3_0)*%
X112290000Y-104240000D03*
%TO.P,C8,2*%
%TO.N,/VDD*%
X111330000Y-104240000D03*
%TD*%
D25*
%TO.P,C29,1*%
%TO.N,/5V*%
X95405000Y-142875000D03*
%TO.P,C29,2*%
%TO.N,GND*%
X96365000Y-142875000D03*
%TD*%
D16*
%TO.P,TP14,1,1*%
%TO.N,/BM1397/0V8*%
X110417500Y-135800000D03*
%TD*%
D25*
%TO.P,C27,1*%
%TO.N,/5V*%
X111051000Y-65931000D03*
%TO.P,C27,2*%
%TO.N,GND*%
X112011000Y-65931000D03*
%TD*%
D16*
%TO.P,TP22,1,1*%
%TO.N,/ESP32/P_RX*%
X126093000Y-61620000D03*
%TD*%
%TO.P,TP2,1,1*%
%TO.N,/BM1397/CI*%
X112415000Y-152614000D03*
%TD*%
D17*
%TO.P,C20,1*%
%TO.N,/3V3*%
X116332000Y-96012000D03*
%TO.P,C20,2*%
%TO.N,GND*%
X115372000Y-96012000D03*
%TD*%
D10*
%TO.P,R21,1*%
%TO.N,/ESP32/LEDX_B*%
X95600000Y-54220000D03*
%TO.P,R21,2*%
%TO.N,Net-(U4-BA)*%
X96620000Y-54220000D03*
%TD*%
D47*
%TO.P,C47,1*%
%TO.N,/VDD*%
X103786600Y-92610200D03*
%TO.P,C47,2*%
%TO.N,GND*%
X100836600Y-92610200D03*
%TD*%
D12*
%TO.P,C24,1*%
%TO.N,/BM1397/1V8*%
X100292000Y-130140000D03*
%TO.P,C24,2*%
%TO.N,GND*%
X100292000Y-131100000D03*
%TD*%
D10*
%TO.P,R5,1*%
%TO.N,/BM1397/CI*%
X118360000Y-119250000D03*
%TO.P,R5,2*%
%TO.N,Net-(IC1-CI)*%
X119380000Y-119250000D03*
%TD*%
D45*
%TO.P,C36,1*%
%TO.N,/5V*%
X92766600Y-89380200D03*
%TO.P,C36,2*%
%TO.N,GND*%
X95716600Y-89380200D03*
%TD*%
D12*
%TO.P,C9,1*%
%TO.N,/VDD*%
X111870000Y-114230000D03*
%TO.P,C9,2*%
%TO.N,GND*%
X111870000Y-115190000D03*
%TD*%
D48*
%TO.P,U11,1,VIN*%
%TO.N,/5V*%
X111185050Y-62440200D03*
%TO.P,U11,2,GND*%
%TO.N,GND*%
X111185050Y-63380000D03*
%TO.P,U11,3,EN*%
%TO.N,/5V*%
X111185050Y-64319800D03*
%TO.P,U11,4*%
%TO.N,N/C*%
X113940950Y-64319800D03*
%TO.P,U11,5,VOUT*%
%TO.N,/3V3*%
X113940950Y-62440200D03*
%TD*%
D45*
%TO.P,C37,1*%
%TO.N,/5V*%
X92766600Y-92740200D03*
%TO.P,C37,2*%
%TO.N,GND*%
X95716600Y-92740200D03*
%TD*%
D10*
%TO.P,R28,1*%
%TO.N,/ESP32/LEDX_R*%
X95600000Y-56220000D03*
%TO.P,R28,2*%
%TO.N,Net-(U4-RA)*%
X96620000Y-56220000D03*
%TD*%
%TO.P,R8,1,1*%
%TO.N,/TEMP_P*%
X93400000Y-119380000D03*
%TO.P,R8,2,2*%
%TO.N,Net-(U7-DP)*%
X94420000Y-119380000D03*
%TD*%
D49*
%TO.P,J4,1,Pin_1*%
%TO.N,GND*%
X89524400Y-159275851D03*
%TO.P,J4,2,Pin_2*%
%TO.N,/5V*%
X92064400Y-159275851D03*
%TO.P,J4,3,Pin_3*%
%TO.N,/Fan/FAN_TACH*%
X94604400Y-159275851D03*
%TO.P,J4,4,Pin_4*%
%TO.N,/Fan/FAN_PWM*%
X97144400Y-159275851D03*
%TD*%
D50*
%TO.P,J9,1,Pin_1*%
%TO.N,GND*%
X84859000Y-50049000D03*
D51*
%TO.P,J9,2,Pin_2*%
%TO.N,/3V3*%
X84859000Y-52589000D03*
%TO.P,J9,3,Pin_3*%
%TO.N,/SCL*%
X84859000Y-55129000D03*
%TO.P,J9,4,Pin_4*%
%TO.N,/SDA*%
X84859000Y-57669000D03*
%TD*%
D52*
%TO.P,J2,1,Pin_1*%
%TO.N,GND*%
X85190000Y-63390000D03*
X80110000Y-63390000D03*
%TD*%
%TO.P,J1,1,Pin_1*%
%TO.N,/Power/VIN*%
X85190000Y-70810000D03*
X80110000Y-70810000D03*
%TD*%
D50*
%TO.P,J6,1,Pin_1*%
%TO.N,/BI*%
X101626000Y-49799000D03*
D51*
%TO.P,J6,2,Pin_2*%
%TO.N,/RST*%
X104166000Y-49799000D03*
%TO.P,J6,3,Pin_3*%
%TO.N,/RX*%
X106706000Y-49799000D03*
%TO.P,J6,4,Pin_4*%
%TO.N,/TX*%
X109246000Y-49799000D03*
%TO.P,J6,5,Pin_5*%
%TO.N,/SDA*%
X111786000Y-49799000D03*
%TO.P,J6,6,Pin_6*%
%TO.N,/SCL*%
X114326000Y-49799000D03*
%TO.P,J6,7,Pin_7*%
%TO.N,/3V3*%
X116866000Y-49799000D03*
%TO.P,J6,8,Pin_8*%
%TO.N,GND*%
X119406000Y-49799000D03*
%TD*%
D50*
%TO.P,J7,1,Pin_1*%
%TO.N,/Power/VIN*%
X83000000Y-76540000D03*
D51*
%TO.P,J7,2,Pin_2*%
%TO.N,/5V*%
X85540000Y-76540000D03*
%TD*%
D50*
%TO.P,J3,1,Pin_1*%
%TO.N,/BM1397/1V8*%
X109875000Y-159292000D03*
D51*
%TO.P,J3,2,Pin_2*%
%TO.N,/BM1397/CI*%
X112415000Y-159292000D03*
%TO.P,J3,3,Pin_3*%
%TO.N,/BM1397/RO*%
X114955000Y-159292000D03*
%TO.P,J3,4,Pin_4*%
%TO.N,/BM1397/RST_N*%
X117495000Y-159292000D03*
%TO.P,J3,5,Pin_5*%
%TO.N,GND*%
X120035000Y-159292000D03*
%TD*%
%TO.P,IC1,34,VSS_0*%
%TO.N,GND*%
X124460000Y-141578000D03*
D50*
X124460000Y-144118000D03*
D51*
%TO.P,IC1,33,VDD*%
%TO.N,/VDD*%
X87460000Y-100938000D03*
X87460000Y-103478000D03*
%TO.P,IC1,32,VDD3_1*%
%TO.N,Net-(IC1-VDD3_1)*%
X87460000Y-106018000D03*
%TO.P,IC1,31,VDD2_1*%
%TO.N,Net-(IC1-VDD2_1)*%
X87460000Y-108558000D03*
%TO.P,IC1,30,VDD1_1*%
%TO.N,Net-(IC1-VDD1_1)*%
X87460000Y-111098000D03*
%TO.P,IC1,29,BO*%
%TO.N,Net-(IC1-BO)*%
X87460000Y-113638000D03*
%TO.P,IC1,28,NRSTO*%
%TO.N,Net-(IC1-NRSTO)*%
X87460000Y-116178000D03*
%TO.P,IC1,27,RI*%
%TO.N,Net-(IC1-RI)*%
X87460000Y-118718000D03*
%TO.P,IC1,26,CO*%
%TO.N,Net-(IC1-CO)*%
X87460000Y-121258000D03*
%TO.P,IC1,25,CLKO*%
%TO.N,Net-(IC1-CLKO)*%
X87460000Y-123798000D03*
%TO.P,IC1,24,TF*%
%TO.N,unconnected-(IC1-TF-Pad24)*%
X87460000Y-126338000D03*
%TO.P,IC1,23,RF*%
%TO.N,unconnected-(IC1-RF-Pad23)*%
X87460000Y-128878000D03*
%TO.P,IC1,22,TEMP_P*%
%TO.N,/TEMP_P*%
X87460000Y-131418000D03*
%TO.P,IC1,21,TEMP_N*%
%TO.N,/TEMP_N*%
X87460000Y-133958000D03*
%TO.P,IC1,20,PIN_MODE*%
%TO.N,Net-(IC1-PIN_MODE)*%
X87460000Y-136498000D03*
%TO.P,IC1,19,VSS*%
%TO.N,GND*%
X87460000Y-139038000D03*
%TO.P,IC1,18,VDDIO_08_1*%
%TO.N,/BM1397/0V8*%
X87460000Y-141578000D03*
D50*
%TO.P,IC1,17,VDDIO_18_1*%
%TO.N,/BM1397/1V8*%
X87460000Y-144118000D03*
D51*
%TO.P,IC1,16,VDDIO_18_0*%
X124460000Y-139038000D03*
%TO.P,IC1,15,VDDIO_08_0*%
%TO.N,/BM1397/0V8*%
X124460000Y-136498000D03*
%TO.P,IC1,14,PLL_VDD*%
X124460000Y-133958000D03*
%TO.P,IC1,13,PLL_VSS*%
%TO.N,GND*%
X124460000Y-131418000D03*
%TO.P,IC1,12,CLKI*%
%TO.N,/BM1397/BM_CLKI*%
X124460000Y-128878000D03*
%TO.P,IC1,11,CI*%
%TO.N,Net-(IC1-CI)*%
X124460000Y-126338000D03*
%TO.P,IC1,10,RO*%
%TO.N,Net-(IC1-RO)*%
X124460000Y-123798000D03*
%TO.P,IC1,9,NRSTI*%
%TO.N,/BM1397/RST_N*%
X124460000Y-121258000D03*
%TO.P,IC1,8,BI*%
%TO.N,/BM1397/BM_BI*%
X124460000Y-118718000D03*
%TO.P,IC1,7,TEST*%
%TO.N,unconnected-(IC1-TEST-Pad7)*%
X124460000Y-116178000D03*
%TO.P,IC1,6,ADDR2*%
%TO.N,Net-(IC1-ADDR2)*%
X124460000Y-113638000D03*
%TO.P,IC1,5,ADDR1*%
%TO.N,Net-(IC1-ADDR1)*%
X124460000Y-111098000D03*
%TO.P,IC1,4,ADDR0*%
%TO.N,Net-(IC1-ADDR0)*%
X124460000Y-108558000D03*
%TO.P,IC1,3,VDD1_0*%
%TO.N,Net-(IC1-VDD1_0)*%
X124460000Y-106018000D03*
%TO.P,IC1,2,VDD2_0*%
%TO.N,Net-(IC1-VDD2_0)*%
X124460000Y-103478000D03*
%TO.P,IC1,1,VDD3_0*%
%TO.N,Net-(IC1-VDD3_0)*%
X124460000Y-100938000D03*
%TD*%
D53*
%TO.N,GND*%
X80410000Y-139600000D03*
X78090000Y-82060000D03*
X100850600Y-73131400D03*
X116910000Y-128990000D03*
D54*
X126719000Y-75842000D03*
D53*
X97320000Y-93500000D03*
X131300000Y-62500000D03*
X125984000Y-155956000D03*
X116078000Y-116459000D03*
X97320000Y-87878600D03*
X100580000Y-87270000D03*
X97320000Y-84830000D03*
X98860000Y-84830000D03*
X114230000Y-55160000D03*
X102870000Y-115590000D03*
X98447000Y-141981000D03*
X98860000Y-93500000D03*
X112127000Y-72909100D03*
X106450000Y-116920000D03*
X128120000Y-55550000D03*
X95400600Y-69431400D03*
D54*
X103505000Y-163482000D03*
D53*
X94890000Y-62470000D03*
X97320000Y-86310000D03*
X80660000Y-87760000D03*
X97320000Y-89650000D03*
X126238000Y-95758000D03*
D54*
X126719000Y-74372000D03*
D53*
X102108000Y-120904000D03*
X90360055Y-101249945D03*
X94473900Y-140345000D03*
X98860000Y-91520000D03*
X117730000Y-123190000D03*
X121210000Y-74547000D03*
X98860000Y-86310000D03*
X97320000Y-91520000D03*
X102570000Y-57250000D03*
X94426000Y-130811000D03*
X115749000Y-66446000D03*
X114046000Y-95377000D03*
X112512000Y-61250000D03*
X101854000Y-131318000D03*
X98860000Y-89650000D03*
X104630000Y-116950000D03*
X86970000Y-82770000D03*
D54*
X126719000Y-73012000D03*
D53*
X107917500Y-138920000D03*
X107017500Y-136840000D03*
X108120000Y-115580000D03*
D54*
X132450000Y-84290000D03*
D53*
X109347000Y-120904000D03*
X98860000Y-87878600D03*
X83089194Y-128660806D03*
X96840000Y-98140000D03*
X92910000Y-102990000D03*
X115951000Y-110490000D03*
X100580000Y-85521400D03*
%TO.N,/BM1397/1V8*%
X113030000Y-132080000D03*
X114427000Y-97155000D03*
X112903000Y-139065000D03*
X98320000Y-123300000D03*
X117602000Y-102235000D03*
%TO.N,/BM1397/0V8*%
X90487500Y-142176500D03*
X106117500Y-134090000D03*
X106426000Y-123698000D03*
%TO.N,/VDD*%
X110361000Y-82986000D03*
X115517000Y-67970000D03*
D54*
X103332000Y-103605000D03*
D55*
X107870000Y-90540000D03*
X107910000Y-92670000D03*
D53*
X108330000Y-104270000D03*
D55*
X103378000Y-111506000D03*
D53*
X103000000Y-62838100D03*
D55*
X108458000Y-111379000D03*
X107910000Y-94640000D03*
X105880000Y-90540000D03*
X105880000Y-88500000D03*
X107850000Y-88520000D03*
X105930000Y-94670000D03*
X105900000Y-92650000D03*
D53*
%TO.N,/ESP32/EN*%
X132665000Y-68760000D03*
X129348000Y-80241000D03*
%TO.N,/5V*%
X100470000Y-66770000D03*
X94365000Y-142363000D03*
X93599000Y-132588000D03*
D55*
X109323000Y-63360000D03*
D53*
X101037500Y-137800000D03*
X101473000Y-155735000D03*
%TO.N,/3V3*%
X115457000Y-62413000D03*
X116332000Y-94996000D03*
X129610000Y-55490000D03*
D54*
X129310000Y-83980000D03*
D53*
X112358000Y-81708000D03*
X110536000Y-72864000D03*
X131744000Y-76848000D03*
X98427000Y-143379100D03*
X83700000Y-87750000D03*
X80772000Y-128214000D03*
X94100000Y-97190000D03*
X120396000Y-94996000D03*
X82990000Y-85090000D03*
%TO.N,/TX*%
X115412000Y-84554000D03*
%TO.N,/RX*%
X113836000Y-83855000D03*
%TO.N,/BM1397/RST_N*%
X117549000Y-156036000D03*
X122174000Y-121285000D03*
X114046000Y-103759000D03*
X122174000Y-121285000D03*
X114300000Y-108839000D03*
%TO.N,/BM1397/CI*%
X115316000Y-119253000D03*
X113411000Y-104648000D03*
X112379000Y-155999000D03*
%TO.N,/RST*%
X120676000Y-54726000D03*
X121437000Y-70037900D03*
%TO.N,/BM1397/RO*%
X114919000Y-155999000D03*
X111760000Y-102616000D03*
X111760000Y-105791000D03*
X115316000Y-117856000D03*
%TO.N,/SCL*%
X120743000Y-68680100D03*
X85120000Y-86810000D03*
X83680594Y-126873000D03*
X109646000Y-67269000D03*
X86360000Y-91440000D03*
X89535000Y-97028000D03*
%TO.N,/Power/OUT0*%
X89308734Y-91153086D03*
X89730000Y-75310000D03*
%TO.N,Net-(U7-DP)*%
X94361000Y-120396000D03*
X82169000Y-132588000D03*
%TO.N,Net-(U7-DN)*%
X92456000Y-118110000D03*
X81534000Y-131826000D03*
%TO.N,/BI*%
X117717100Y-76139000D03*
X115546000Y-76073000D03*
%TO.N,Net-(U9-BOOT)*%
X95368800Y-71183600D03*
X95958800Y-74273600D03*
%TO.N,/ESP32/P_TX*%
X128060000Y-61549000D03*
%TO.N,/ESP32/P_RX*%
X124447000Y-61551000D03*
%TO.N,/ESP32/IO0*%
X124830000Y-55100000D03*
X122113000Y-68573000D03*
%TO.N,/ESP32/XIN32*%
X124019000Y-80080000D03*
%TO.N,/BM1397/CLKI*%
X117264000Y-79858000D03*
%TO.N,/ESP32/XOUT32*%
X121248000Y-80100000D03*
%TO.N,/Power/PGOOD*%
X108278900Y-71440000D03*
%TO.N,/ESP32/LEDX_B*%
X93950000Y-57520000D03*
%TO.N,/ESP32/FAN_ALERT*%
X111108000Y-81876000D03*
X108585000Y-132588000D03*
X110497000Y-73924000D03*
%TO.N,/ESP32/LEDZ_B*%
X116044000Y-70126000D03*
%TO.N,/ESP32/LEDX_G*%
X94129945Y-58660055D03*
%TO.N,/ESP32/LEDZ_G*%
X117097000Y-70138000D03*
%TO.N,/BM1397/BM_BI*%
X115062000Y-107950000D03*
X115062000Y-103759000D03*
%TO.N,/SDA*%
X108222000Y-68481000D03*
X117403141Y-73987441D03*
X84730000Y-85730000D03*
X88401100Y-91440000D03*
X82804000Y-139954000D03*
X90805000Y-96139000D03*
X90357445Y-62412445D03*
%TO.N,/ESP32/LEDX_R*%
X94319890Y-59810110D03*
%TO.N,/ESP32/LEDZ_R*%
X118065584Y-70146474D03*
%TO.N,/ESP32/MTCK*%
X125236000Y-83472000D03*
X127256267Y-68475562D03*
%TO.N,/ESP32/MTDO*%
X124253000Y-83852000D03*
X127290717Y-67524283D03*
%TO.N,/ESP32/MTDI*%
X127270301Y-66543756D03*
X124253000Y-85168000D03*
%TO.N,/ESP32/MTMS*%
X127287000Y-65592000D03*
X131133000Y-84822000D03*
%TO.N,Net-(JP4-C)*%
X112273000Y-80390000D03*
%TO.N,Net-(Q2-G)*%
X101710600Y-82811400D03*
X102700000Y-75260000D03*
%TO.N,Net-(U4-BA)*%
X97500000Y-54210000D03*
%TO.N,Net-(U13-BA)*%
X108340000Y-54180000D03*
%TO.N,Net-(U3-A)*%
X124587000Y-97917000D03*
X117094000Y-120523000D03*
%TO.N,Net-(U4-GA)*%
X97520000Y-55200000D03*
%TO.N,Net-(U13-GA)*%
X108320000Y-55170000D03*
%TO.N,Net-(U4-RA)*%
X97540000Y-56230000D03*
%TO.N,Net-(U13-RA)*%
X108310000Y-56190000D03*
%TD*%
D56*
%TO.N,Net-(IC1-ADDR0)*%
X124487000Y-108585000D02*
X124460000Y-108558000D01*
X128105000Y-108585000D02*
X124487000Y-108585000D01*
X128128000Y-108608000D02*
X128105000Y-108585000D01*
%TO.N,Net-(U7-DP)*%
X94420000Y-119380000D02*
X94420000Y-120337000D01*
%TO.N,/Fan/FAN_TACH*%
X90297000Y-147320000D02*
X81302841Y-147320000D01*
X93652000Y-143965000D02*
X90297000Y-147320000D01*
X95345000Y-143965000D02*
X93652000Y-143965000D01*
%TO.N,/BM1397/CI*%
X112415000Y-159292000D02*
X112415000Y-152614000D01*
%TO.N,/BM1397/RST_N*%
X117565000Y-159222000D02*
X117495000Y-159292000D01*
X117565000Y-152654000D02*
X117565000Y-159222000D01*
%TO.N,/BM1397/RO*%
X114935000Y-159272000D02*
X114955000Y-159292000D01*
X114935000Y-152614000D02*
X114935000Y-159272000D01*
D57*
%TO.N,/BM1397/0V8*%
X123762000Y-135800000D02*
X124460000Y-136498000D01*
X110417500Y-135800000D02*
X123762000Y-135800000D01*
D58*
X124460000Y-136498000D02*
X124460000Y-133985000D01*
D57*
%TO.N,/BM1397/1V8*%
X97510000Y-121820000D02*
X99040000Y-121820000D01*
X97500000Y-121830000D02*
X97510000Y-121820000D01*
D58*
%TO.N,/VDD*%
X103378000Y-103551000D02*
X103332000Y-103505000D01*
X103378000Y-111506000D02*
X103378000Y-103551000D01*
X90932000Y-104355000D02*
X94562681Y-104355000D01*
X94562681Y-104355000D02*
X95412681Y-103505000D01*
X95412681Y-103505000D02*
X103332000Y-103505000D01*
D57*
%TO.N,/BM1397/1V8*%
X109875000Y-142093000D02*
X112903000Y-139065000D01*
X109875000Y-159292000D02*
X109875000Y-142093000D01*
D56*
%TO.N,/Fan/FAN_TACH*%
X90558251Y-163322000D02*
X94604400Y-159275851D01*
X85598000Y-155956000D02*
X85598000Y-163322000D01*
X81280000Y-151638000D02*
X85598000Y-155956000D01*
X81350000Y-138405000D02*
X81280000Y-151638000D01*
X85598000Y-163322000D02*
X90558251Y-163322000D01*
%TO.N,/Fan/FAN_PWM*%
X95250000Y-164338000D02*
X97144400Y-162443600D01*
X97144400Y-162443600D02*
X97144400Y-159275851D01*
X84673400Y-164338000D02*
X95250000Y-164338000D01*
X84673400Y-157734000D02*
X84673400Y-164338000D01*
X82042000Y-155102600D02*
X82042000Y-154940000D01*
X84673400Y-157734000D02*
X82042000Y-155102600D01*
X79780000Y-134030000D02*
X80705000Y-134030000D01*
X82042000Y-154940000D02*
X79280000Y-152178000D01*
X79280000Y-152178000D02*
X79280000Y-134530000D01*
X79280000Y-134530000D02*
X79780000Y-134030000D01*
D57*
%TO.N,GND*%
X112513000Y-63759000D02*
X112513000Y-65429000D01*
D56*
X109347000Y-120904000D02*
X106203000Y-117760000D01*
X102870000Y-115590000D02*
X102850000Y-115570000D01*
X125730000Y-95250000D02*
X122428000Y-95250000D01*
D57*
X112513000Y-65429000D02*
X112011000Y-65931000D01*
D56*
X110660000Y-120840000D02*
X109411000Y-120840000D01*
D57*
X111189050Y-63376000D02*
X111185050Y-63380000D01*
D56*
X126238000Y-95758000D02*
X129540000Y-99060000D01*
X115900000Y-127980000D02*
X116910000Y-128990000D01*
X97965000Y-115110000D02*
X94450000Y-111595000D01*
X122428000Y-95250000D02*
X122428000Y-92230000D01*
X121159000Y-74598000D02*
X121210000Y-74547000D01*
D57*
X131750000Y-79269000D02*
X131747000Y-79266000D01*
X115453000Y-64570000D02*
X115453000Y-65940000D01*
X90890000Y-100515000D02*
X90215000Y-100515000D01*
D56*
X124900000Y-154940000D02*
X126000000Y-156040000D01*
X109411000Y-120840000D02*
X109347000Y-120904000D01*
D57*
X80705000Y-138330000D02*
X80705000Y-139305000D01*
X90130000Y-101019890D02*
X90360055Y-101249945D01*
D56*
X110280000Y-115130000D02*
X111810000Y-115130000D01*
D57*
X105447500Y-139210000D02*
X107627500Y-139210000D01*
D56*
X109830000Y-115580000D02*
X110280000Y-115130000D01*
X115900000Y-127810000D02*
X115900000Y-127980000D01*
X116078000Y-116459000D02*
X116017000Y-116520000D01*
X97259000Y-141981000D02*
X96365000Y-142875000D01*
X100842600Y-73123400D02*
X100850600Y-73131400D01*
X112551000Y-75990000D02*
X112551000Y-73333100D01*
D57*
X90130000Y-100600000D02*
X90130000Y-101019890D01*
D56*
X121168000Y-75616000D02*
X121159000Y-75625000D01*
X101840000Y-115570000D02*
X101370000Y-115100000D01*
D57*
X96400000Y-97700000D02*
X96840000Y-98140000D01*
D56*
X105600000Y-117760000D02*
X105940000Y-117760000D01*
D57*
X95375000Y-140335000D02*
X94483900Y-140335000D01*
X132450000Y-84290000D02*
X132450000Y-82850000D01*
X96400000Y-97310000D02*
X96400000Y-97700000D01*
X132450000Y-82850000D02*
X132340000Y-82740000D01*
X101806000Y-131270000D02*
X100292000Y-131270000D01*
D56*
X111810000Y-115130000D02*
X111870000Y-115190000D01*
D57*
X78125000Y-82095000D02*
X78090000Y-82060000D01*
D56*
X94890000Y-62470000D02*
X94564000Y-62470000D01*
D57*
X101854000Y-131318000D02*
X101806000Y-131270000D01*
D56*
X105595400Y-67480800D02*
X105608800Y-67494200D01*
X115824000Y-100076000D02*
X115062000Y-100838000D01*
X99190000Y-120840000D02*
X100710000Y-120840000D01*
X105608800Y-67494200D02*
X105608800Y-68193600D01*
D57*
X80660000Y-87760000D02*
X80700000Y-87720000D01*
D56*
X129540000Y-113276000D02*
X129428000Y-113388000D01*
X94450000Y-111595000D02*
X94450000Y-111125000D01*
D57*
X108127500Y-138710000D02*
X108127500Y-137490000D01*
D56*
X101360000Y-115110000D02*
X101370000Y-115100000D01*
D57*
X80705000Y-139305000D02*
X80410000Y-139600000D01*
D56*
X102850000Y-115570000D02*
X101840000Y-115570000D01*
X103430000Y-115590000D02*
X105600000Y-117760000D01*
D57*
X112513000Y-63759000D02*
X112513000Y-61251000D01*
X92940000Y-102960000D02*
X92910000Y-102990000D01*
D56*
X121159000Y-75625000D02*
X121159000Y-74598000D01*
X115062000Y-100838000D02*
X115062000Y-102870000D01*
X116952000Y-110490000D02*
X115951000Y-110490000D01*
D57*
X114046000Y-95377000D02*
X114737000Y-95377000D01*
D56*
X105600000Y-117760000D02*
X105252000Y-117760000D01*
D57*
X103770000Y-136840000D02*
X107017500Y-136840000D01*
X107627500Y-139210000D02*
X108127500Y-138710000D01*
X115453000Y-65940000D02*
X115433000Y-65960000D01*
X83058000Y-129822000D02*
X83058000Y-128692000D01*
D56*
X122428000Y-94262000D02*
X122400000Y-94234000D01*
D57*
X99792000Y-133320000D02*
X97912000Y-133320000D01*
X80700000Y-87720000D02*
X81690000Y-87720000D01*
X112130000Y-63376000D02*
X111189050Y-63376000D01*
D56*
X116139000Y-116520000D02*
X116078000Y-116459000D01*
X122428000Y-96505000D02*
X122428000Y-93995000D01*
X108120000Y-115580000D02*
X109830000Y-115580000D01*
D57*
X86945000Y-82745000D02*
X86970000Y-82770000D01*
D56*
X112160000Y-120840000D02*
X110660000Y-120840000D01*
D57*
X92940000Y-102040000D02*
X92940000Y-102960000D01*
D56*
X102044000Y-120840000D02*
X102108000Y-120904000D01*
D57*
X91930000Y-102040000D02*
X92940000Y-102040000D01*
X114737000Y-95377000D02*
X115372000Y-96012000D01*
D56*
X115062000Y-102870000D02*
X115288000Y-103096000D01*
X126238000Y-95758000D02*
X125730000Y-95250000D01*
D57*
X115749000Y-66236000D02*
X115749000Y-66446000D01*
D56*
X105252000Y-117760000D02*
X102108000Y-120904000D01*
D57*
X100292000Y-132780000D02*
X100312000Y-132800000D01*
D56*
X118360000Y-116520000D02*
X116139000Y-116520000D01*
D57*
X131750000Y-80550000D02*
X131750000Y-79269000D01*
X100312000Y-132800000D02*
X99792000Y-133320000D01*
X94427000Y-130810000D02*
X96144500Y-130810000D01*
X117050000Y-123870000D02*
X117730000Y-123190000D01*
X90215000Y-100515000D02*
X90130000Y-100600000D01*
D56*
X99820000Y-115110000D02*
X97965000Y-115110000D01*
X100710000Y-120840000D02*
X102044000Y-120840000D01*
X94564000Y-62470000D02*
X93465000Y-63569000D01*
X112551000Y-73333100D02*
X112127000Y-72909100D01*
X102870000Y-115590000D02*
X103430000Y-115590000D01*
X99820000Y-115110000D02*
X101360000Y-115110000D01*
D57*
X79777500Y-82095000D02*
X78125000Y-82095000D01*
D56*
X119126000Y-103096000D02*
X120396000Y-103096000D01*
D57*
X112513000Y-61251000D02*
X112512000Y-61250000D01*
X92940000Y-102040000D02*
X93820000Y-102040000D01*
D56*
X99670200Y-73123400D02*
X100842600Y-73123400D01*
D59*
X79777500Y-81445000D02*
X79777500Y-82095000D01*
D56*
X129540000Y-99060000D02*
X129540000Y-113276000D01*
X106203000Y-117760000D02*
X105600000Y-117760000D01*
X98447000Y-141981000D02*
X97259000Y-141981000D01*
D57*
X132340000Y-82740000D02*
X132340000Y-81140000D01*
X112513000Y-63759000D02*
X112130000Y-63376000D01*
D59*
X79777500Y-82745000D02*
X79777500Y-82095000D01*
D57*
X85502500Y-82745000D02*
X86945000Y-82745000D01*
X132340000Y-81140000D02*
X131750000Y-80550000D01*
D56*
X105608800Y-68193600D02*
X104454600Y-69347800D01*
X115288000Y-103096000D02*
X119126000Y-103096000D01*
X104454600Y-69347800D02*
X104265600Y-69347800D01*
D57*
X116140000Y-123870000D02*
X117050000Y-123870000D01*
X115453000Y-65940000D02*
X115749000Y-66236000D01*
D56*
X124043000Y-75616000D02*
X121168000Y-75616000D01*
X105940000Y-117760000D02*
X108120000Y-115580000D01*
D57*
X100292000Y-131270000D02*
X100292000Y-132780000D01*
D56*
%TO.N,/Power/VIN*%
X83935000Y-82095000D02*
X82635000Y-80795000D01*
X82635000Y-80795000D02*
X79777500Y-80795000D01*
X85502500Y-82095000D02*
X83935000Y-82095000D01*
D57*
%TO.N,/BM1397/1V8*%
X98419500Y-129860000D02*
X100182000Y-129860000D01*
D56*
X117602000Y-102235000D02*
X116586000Y-102235000D01*
D57*
X94234000Y-127762000D02*
X92710000Y-129286000D01*
X113030000Y-132080000D02*
X114250000Y-130860000D01*
D56*
X119027000Y-102235000D02*
X117602000Y-102235000D01*
X116586000Y-102235000D02*
X116574000Y-102223000D01*
D57*
X90297000Y-144145000D02*
X87460000Y-144145000D01*
X100292000Y-125272000D02*
X98320000Y-123300000D01*
X98287000Y-127762000D02*
X94234000Y-127762000D01*
X92710000Y-141732000D02*
X90297000Y-144145000D01*
D56*
X121478000Y-96505000D02*
X121478000Y-101054000D01*
D57*
X98360000Y-121990000D02*
X98360000Y-123260000D01*
D56*
X121478000Y-101054000D02*
X120396000Y-102136000D01*
X103682000Y-129970000D02*
X100292000Y-129970000D01*
D57*
X92710000Y-129286000D02*
X92710000Y-141732000D01*
X100292000Y-126170000D02*
X112268000Y-126170000D01*
X114240000Y-126170000D02*
X116140000Y-126170000D01*
X98419500Y-129860000D02*
X98419500Y-127894500D01*
X114250000Y-126180000D02*
X114240000Y-126170000D01*
X114250000Y-130860000D02*
X114250000Y-126180000D01*
D56*
X115074000Y-98391000D02*
X115074000Y-97802000D01*
D57*
X98360000Y-123260000D02*
X98320000Y-123300000D01*
X112160000Y-121970000D02*
X112160000Y-126062000D01*
D56*
X115074000Y-97802000D02*
X114427000Y-97155000D01*
D57*
X112903000Y-139065000D02*
X124460000Y-139065000D01*
X100292000Y-129970000D02*
X100292000Y-125272000D01*
X112160000Y-126062000D02*
X112268000Y-126170000D01*
D56*
X104332000Y-129320000D02*
X103682000Y-129970000D01*
X120396000Y-102136000D02*
X119126000Y-102136000D01*
X121478000Y-96027000D02*
X121427000Y-96027000D01*
X116574000Y-102223000D02*
X116574000Y-101761000D01*
D57*
X112268000Y-126170000D02*
X114240000Y-126170000D01*
D56*
X119126000Y-102136000D02*
X119027000Y-102235000D01*
D57*
X98419500Y-127894500D02*
X98287000Y-127762000D01*
%TO.N,/BM1397/0V8*%
X106045000Y-135890000D02*
X106045000Y-134162500D01*
X107827500Y-135890000D02*
X108127500Y-136190000D01*
X106426000Y-121800000D02*
X110660000Y-121800000D01*
X106045000Y-135890000D02*
X107827500Y-135890000D01*
X110417500Y-135800000D02*
X108517500Y-135800000D01*
X106045000Y-134162500D02*
X106117500Y-134090000D01*
X106426000Y-121800000D02*
X106426000Y-123444000D01*
X108517500Y-135800000D02*
X108127500Y-136190000D01*
X100710000Y-121800000D02*
X106426000Y-121800000D01*
X87460000Y-141605000D02*
X89916000Y-141605000D01*
X89916000Y-141605000D02*
X90487500Y-142176500D01*
D56*
%TO.N,/VDD*%
X108458000Y-104398000D02*
X108330000Y-104270000D01*
X90649600Y-63569000D02*
X92057300Y-63569000D01*
D58*
X88310000Y-104355000D02*
X90932000Y-104355000D01*
D56*
X103378000Y-112132000D02*
X101370000Y-114140000D01*
X93398900Y-61790600D02*
X101952500Y-61790600D01*
D58*
X87460000Y-103505000D02*
X88310000Y-104355000D01*
D56*
X111870000Y-114230000D02*
X110340000Y-114230000D01*
X91260500Y-62469500D02*
X92720000Y-62469500D01*
X106442000Y-85640000D02*
X106000600Y-86081400D01*
X99830000Y-114140000D02*
X99820000Y-114150000D01*
D58*
X108458000Y-111379000D02*
X105619000Y-111379000D01*
D56*
X115511867Y-67975133D02*
X111680133Y-67975133D01*
X110340000Y-114230000D02*
X110280000Y-114170000D01*
X90649600Y-63080400D02*
X91260500Y-62469500D01*
X108360000Y-104240000D02*
X111160000Y-104240000D01*
X115517000Y-67970000D02*
X115511867Y-67975133D01*
X107707000Y-85640000D02*
X106442000Y-85640000D01*
X110280000Y-114170000D02*
X110280000Y-113201000D01*
D58*
X103378000Y-111506000D02*
X105454000Y-111506000D01*
D56*
X103378000Y-111506000D02*
X103378000Y-112132000D01*
X106543100Y-62838100D02*
X103000000Y-62838100D01*
X90649600Y-63569000D02*
X90649600Y-63080400D01*
X110361000Y-82986000D02*
X107707000Y-85640000D01*
X110280000Y-113201000D02*
X108458000Y-111379000D01*
D58*
X87460000Y-103505000D02*
X87460000Y-100965000D01*
D56*
X90683000Y-63535600D02*
X90649600Y-63569000D01*
X105454000Y-111506000D02*
X105600000Y-111360000D01*
X90649600Y-63569000D02*
X90640600Y-63560000D01*
X96492000Y-105918000D02*
X96492000Y-103505000D01*
X105619000Y-111379000D02*
X105600000Y-111360000D01*
X101370000Y-114140000D02*
X99830000Y-114140000D01*
X92720000Y-62469500D02*
X93398900Y-61790600D01*
X108330000Y-104270000D02*
X108360000Y-104240000D01*
X101952500Y-61790600D02*
X103000000Y-62838100D01*
X111680133Y-67975133D02*
X106543100Y-62838100D01*
X90850000Y-104355000D02*
X90932000Y-104355000D01*
X108458000Y-111379000D02*
X108458000Y-104398000D01*
D58*
X87502000Y-103463000D02*
X87460000Y-103505000D01*
D56*
%TO.N,/ESP32/EN*%
X131044000Y-65978000D02*
X131044000Y-67139000D01*
X130019000Y-79266000D02*
X130787000Y-79266000D01*
X129348000Y-80241000D02*
X129348000Y-79937000D01*
X130787000Y-79266000D02*
X130787000Y-77994000D01*
X130787000Y-77994000D02*
X130757000Y-77964000D01*
X131044000Y-67139000D02*
X132665000Y-68760000D01*
X129348000Y-79937000D02*
X130019000Y-79266000D01*
%TO.N,/5V*%
X111051000Y-64453850D02*
X111185050Y-64319800D01*
D57*
X101697500Y-135900000D02*
X101037500Y-136560000D01*
X103770000Y-135890000D02*
X103271311Y-135890000D01*
D56*
X94877000Y-142875000D02*
X95405000Y-142875000D01*
D57*
X111185050Y-64319800D02*
X110282800Y-64319800D01*
X103271311Y-135890000D02*
X103261311Y-135900000D01*
D58*
X109323000Y-63360000D02*
X109323000Y-62650000D01*
D57*
X93599000Y-130497578D02*
X94236578Y-129860000D01*
X96782000Y-133320000D02*
X96144500Y-132682500D01*
X93665000Y-131760000D02*
X96144500Y-131760000D01*
X94236578Y-129860000D02*
X96144500Y-129860000D01*
D56*
X94365000Y-142363000D02*
X94877000Y-142875000D01*
D58*
X109323000Y-62650000D02*
X109971000Y-62002000D01*
D56*
X100077600Y-66770000D02*
X99201691Y-67645909D01*
D57*
X93599000Y-131826000D02*
X93665000Y-131760000D01*
D56*
X100470000Y-66770000D02*
X100077600Y-66770000D01*
X99201691Y-67645909D02*
X99201691Y-68022200D01*
D57*
X101037500Y-136560000D02*
X101037500Y-137800000D01*
X96144500Y-132682500D02*
X96144500Y-131760000D01*
D56*
X100911600Y-67211600D02*
X101783000Y-67211600D01*
D57*
X103261311Y-135900000D02*
X101697500Y-135900000D01*
X103770000Y-137790000D02*
X101047500Y-137790000D01*
D56*
X111051000Y-65931000D02*
X111051000Y-64453850D01*
D57*
X110282800Y-64319800D02*
X110028000Y-64065000D01*
X93599000Y-132588000D02*
X93599000Y-130497578D01*
X103770000Y-137790000D02*
X103770000Y-138832500D01*
D58*
X109971000Y-62002000D02*
X111205000Y-62002000D01*
D57*
X110028000Y-64065000D02*
X109323000Y-63360000D01*
D56*
X100470000Y-66770000D02*
X100911600Y-67211600D01*
D57*
X103770000Y-138832500D02*
X104147500Y-139210000D01*
%TO.N,/3V3*%
X116332000Y-95862000D02*
X116332000Y-94996000D01*
X83792000Y-130782000D02*
X82347637Y-130782000D01*
X110500000Y-70391000D02*
X110485000Y-70376000D01*
X83700000Y-87750000D02*
X83670000Y-87720000D01*
X95440000Y-97310000D02*
X94220000Y-97310000D01*
X130440000Y-82850000D02*
X129310000Y-83980000D01*
X83947000Y-130937000D02*
X83792000Y-130782000D01*
D56*
X131777000Y-77964000D02*
X131777000Y-76881000D01*
X112551000Y-78590000D02*
X113200000Y-79239000D01*
X112380000Y-81708000D02*
X112358000Y-81708000D01*
X97841100Y-143965000D02*
X96365000Y-143965000D01*
X121463000Y-93980000D02*
X120396000Y-93980000D01*
D57*
X110536000Y-71796000D02*
X110500000Y-71760000D01*
X95190000Y-98565000D02*
X95190000Y-97560000D01*
X80772000Y-129792000D02*
X80772000Y-128214000D01*
X83439000Y-133985000D02*
X83947000Y-133477000D01*
X110485000Y-68911000D02*
X110465000Y-68891000D01*
X82990000Y-85090000D02*
X82990000Y-84925000D01*
X130440000Y-80900000D02*
X130440000Y-82740000D01*
D56*
X121440000Y-92202000D02*
X121440000Y-93957000D01*
D57*
X83670000Y-87720000D02*
X82650000Y-87720000D01*
D56*
X116332000Y-98149000D02*
X116574000Y-98391000D01*
D57*
X115453000Y-63610000D02*
X115453000Y-62480000D01*
X110500000Y-71760000D02*
X110500000Y-70391000D01*
D58*
X113940950Y-62440200D02*
X115492800Y-62440200D01*
D57*
X94220000Y-97310000D02*
X94100000Y-97190000D01*
D58*
X115492800Y-62440200D02*
X115493000Y-62440000D01*
D56*
X113200000Y-80888000D02*
X112380000Y-81708000D01*
D57*
X130440000Y-82740000D02*
X130440000Y-82850000D01*
X82347637Y-130782000D02*
X81357637Y-129792000D01*
X82990000Y-84925000D02*
X84520000Y-83395000D01*
D56*
X131156000Y-74610000D02*
X131156000Y-76260000D01*
D57*
X110536000Y-72864000D02*
X110536000Y-71796000D01*
D56*
X98427000Y-143379100D02*
X97841100Y-143965000D01*
D57*
X130790000Y-80550000D02*
X130440000Y-80900000D01*
X95190000Y-97560000D02*
X95440000Y-97310000D01*
D56*
X113200000Y-79239000D02*
X113200000Y-80888000D01*
X131156000Y-76260000D02*
X131744000Y-76848000D01*
D57*
X83947000Y-133477000D02*
X83947000Y-130937000D01*
D59*
X84520000Y-83395000D02*
X85502500Y-83395000D01*
D57*
X82804000Y-133985000D02*
X83439000Y-133985000D01*
X115453000Y-62480000D02*
X115493000Y-62440000D01*
D56*
X121478000Y-93995000D02*
X121463000Y-93980000D01*
D57*
X110485000Y-70376000D02*
X110485000Y-68911000D01*
X81357637Y-129792000D02*
X80772000Y-129792000D01*
D56*
X120396000Y-93980000D02*
X120396000Y-94996000D01*
X116332000Y-96012000D02*
X116332000Y-98149000D01*
X131777000Y-76881000D02*
X131744000Y-76848000D01*
%TO.N,/TX*%
X110170000Y-51943000D02*
X109246000Y-51019000D01*
X115995753Y-77158800D02*
X116631800Y-76522753D01*
X114242400Y-78908336D02*
X115991936Y-77158800D01*
X118356000Y-99576000D02*
X117509000Y-99576000D01*
X109246000Y-51019000D02*
X109246000Y-49799000D01*
X115991936Y-77158800D02*
X115995753Y-77158800D01*
X115691000Y-87451000D02*
X118618000Y-90378000D01*
X118618000Y-90378000D02*
X118618000Y-99314000D01*
X113488528Y-51943000D02*
X110170000Y-51943000D01*
X115412000Y-84470183D02*
X114242400Y-83300583D01*
X115691000Y-84833000D02*
X115691000Y-87451000D01*
X119642800Y-70787672D02*
X119642800Y-58097272D01*
X119642800Y-58097272D02*
X113488528Y-51943000D01*
X116631800Y-76522753D02*
X116631800Y-73798672D01*
X115412000Y-84554000D02*
X115412000Y-84470183D01*
X118618000Y-99314000D02*
X118356000Y-99576000D01*
X115412000Y-84554000D02*
X115691000Y-84833000D01*
X114242400Y-83300583D02*
X114242400Y-78908336D01*
X116631800Y-73798672D02*
X119642800Y-70787672D01*
%TO.N,/RX*%
X115827417Y-76752400D02*
X116225400Y-76354417D01*
X107984400Y-52349400D02*
X106706000Y-51071000D01*
X113836000Y-86170736D02*
X113836000Y-83855000D01*
X119236400Y-58265608D02*
X113320192Y-52349400D01*
X113836000Y-83855000D02*
X113836000Y-78740000D01*
X118110000Y-90444736D02*
X113836000Y-86170736D01*
X106706000Y-51071000D02*
X106706000Y-49799000D01*
X115823600Y-76752400D02*
X115827417Y-76752400D01*
X116225400Y-76354417D02*
X116225400Y-73630336D01*
X113836000Y-78740000D02*
X115823600Y-76752400D01*
X119236400Y-70619336D02*
X119236400Y-58265608D01*
X113320192Y-52349400D02*
X107984400Y-52349400D01*
X117509000Y-99076000D02*
X118110000Y-98475000D01*
X118110000Y-98475000D02*
X118110000Y-90444736D01*
X116225400Y-73630336D02*
X119236400Y-70619336D01*
%TO.N,/BM1397/RST_N*%
X118195664Y-114833400D02*
X118770400Y-114833400D01*
X121920000Y-116840000D02*
X121920000Y-121158000D01*
X113593702Y-100076000D02*
X114139000Y-100076000D01*
X119380000Y-115443000D02*
X119380000Y-116520000D01*
X122047000Y-121285000D02*
X122174000Y-121285000D01*
X113003200Y-102716200D02*
X113003200Y-100666502D01*
X114300000Y-108839000D02*
X114300000Y-110937736D01*
X121920000Y-121158000D02*
X122047000Y-121285000D01*
X114300000Y-110937736D02*
X118195664Y-114833400D01*
X121600000Y-116520000D02*
X121920000Y-116840000D01*
X118770400Y-114833400D02*
X119380000Y-115443000D01*
X113003200Y-100666502D02*
X113593702Y-100076000D01*
X119380000Y-116520000D02*
X121600000Y-116520000D01*
X122174000Y-121285000D02*
X124460000Y-121285000D01*
X114046000Y-103759000D02*
X113003200Y-102716200D01*
%TO.N,/BM1397/CI*%
X115449000Y-119250000D02*
X115316000Y-119253000D01*
X112596800Y-100498166D02*
X112596800Y-103270618D01*
X114139000Y-99576000D02*
X113518966Y-99576000D01*
X115316000Y-119253000D02*
X115443000Y-119250000D01*
X113518966Y-99576000D02*
X112596800Y-100498166D01*
X113411000Y-104084818D02*
X113411000Y-104648000D01*
X115443000Y-119250000D02*
X115446000Y-119250000D01*
X118360000Y-119250000D02*
X115449000Y-119250000D01*
X112596800Y-103270618D02*
X113411000Y-104084818D01*
%TO.N,/RST*%
X116164089Y-77565200D02*
X116160272Y-77565200D01*
X120676000Y-54726000D02*
X121422400Y-55472400D01*
X116160272Y-77565200D02*
X114648800Y-79076672D01*
X118430736Y-100076000D02*
X117509000Y-100076000D01*
X114648800Y-79076672D02*
X114648800Y-82171064D01*
X114648800Y-82171064D02*
X116097400Y-83619664D01*
X119126000Y-99380736D02*
X118430736Y-100076000D01*
X116097400Y-83619664D02*
X116097400Y-87237400D01*
X121422400Y-70984600D02*
X117038200Y-75368800D01*
X119126000Y-90266000D02*
X119126000Y-99380736D01*
X121422400Y-55472400D02*
X121422400Y-70984600D01*
X117038200Y-76691089D02*
X116164089Y-77565200D01*
X116097400Y-87237400D02*
X119126000Y-90266000D01*
X117038200Y-75368800D02*
X117038200Y-76691089D01*
%TO.N,/BM1397/RO*%
X114139000Y-99076000D02*
X113444230Y-99076000D01*
X111760000Y-106680000D02*
X111760000Y-105791000D01*
X111760000Y-100760230D02*
X111760000Y-102616000D01*
X115350000Y-117890000D02*
X115316000Y-117856000D01*
X113620600Y-116160600D02*
X113620600Y-108540600D01*
X113620600Y-108540600D02*
X111760000Y-106680000D01*
X115316000Y-117856000D02*
X113620600Y-116160600D01*
X113444230Y-99076000D02*
X111760000Y-100760230D01*
X118360000Y-117890000D02*
X115350000Y-117890000D01*
D60*
%TO.N,/TEMP_N*%
X95842000Y-116670000D02*
X95885000Y-116713000D01*
X90424000Y-133985000D02*
X87460000Y-133985000D01*
X95885000Y-116713000D02*
X95885000Y-127255600D01*
X94420000Y-116670000D02*
X95842000Y-116670000D01*
X90551000Y-133858000D02*
X90424000Y-133985000D01*
X94024242Y-127255600D02*
X90551000Y-130728842D01*
X95885000Y-127255600D02*
X94024242Y-127255600D01*
X90551000Y-130728842D02*
X90551000Y-133858000D01*
%TO.N,/TEMP_P*%
X93400000Y-119380000D02*
X93400000Y-127326000D01*
X89281000Y-131445000D02*
X87460000Y-131445000D01*
X93400000Y-127326000D02*
X89281000Y-131445000D01*
D56*
%TO.N,/Fan/FAN_TACH*%
X95345000Y-143965000D02*
X95255000Y-143965000D01*
X93599000Y-139145000D02*
X95345000Y-139145000D01*
X93599000Y-144018000D02*
X93599000Y-139145000D01*
X93408500Y-144208500D02*
X93599000Y-144018000D01*
%TO.N,/SCL*%
X114326000Y-51631000D02*
X114326000Y-49799000D01*
X89580000Y-94660000D02*
X89580000Y-96983000D01*
X89580000Y-96983000D02*
X89535000Y-97028000D01*
X120455600Y-68392700D02*
X120455600Y-57760600D01*
X120743000Y-68680100D02*
X120455600Y-68392700D01*
X85502500Y-86427500D02*
X85502500Y-84045000D01*
X109445000Y-67470000D02*
X109445000Y-68891000D01*
X86360000Y-91440000D02*
X89580000Y-94660000D01*
X85120000Y-86810000D02*
X85502500Y-86427500D01*
X84709000Y-138330000D02*
X82655000Y-138330000D01*
X89580000Y-98563800D02*
X90231200Y-99215000D01*
X84709000Y-127901406D02*
X84709000Y-138330000D01*
X89535000Y-97028000D02*
X89580000Y-97073000D01*
X120455600Y-57760600D02*
X114326000Y-51631000D01*
X109646000Y-67269000D02*
X109445000Y-67470000D01*
X83680594Y-126873000D02*
X84709000Y-127901406D01*
X89580000Y-97073000D02*
X89580000Y-98563800D01*
X90231200Y-99215000D02*
X90890000Y-99215000D01*
%TO.N,/Fan/FAN_PWM*%
X80705000Y-130879000D02*
X80705000Y-134030000D01*
X80772000Y-130812000D02*
X80705000Y-130879000D01*
%TO.N,/Power/OUT0*%
X94828800Y-64783600D02*
X95328800Y-65283600D01*
X89730000Y-75310000D02*
X92240000Y-72800000D01*
X93020000Y-67160000D02*
X93020000Y-66420000D01*
X94824200Y-64589000D02*
X94828800Y-64593600D01*
X94828800Y-64593600D02*
X94828800Y-64783600D01*
X96775000Y-99865000D02*
X95190000Y-99865000D01*
X97201691Y-68022200D02*
X97201691Y-67199891D01*
X92240000Y-67940000D02*
X93020000Y-67160000D01*
X93490000Y-65190000D02*
X93020000Y-65660000D01*
X89308734Y-91456019D02*
X94132715Y-96280000D01*
X93465000Y-64589000D02*
X94824200Y-64589000D01*
X92142800Y-64555600D02*
X93462400Y-64555600D01*
X97201691Y-67199891D02*
X96433000Y-66431200D01*
X93490000Y-64583200D02*
X93490000Y-65190000D01*
X96433000Y-66431200D02*
X96433000Y-65268000D01*
X89308734Y-91153086D02*
X89308734Y-91456019D01*
X96740000Y-96280000D02*
X98240000Y-97780000D01*
X98240000Y-97780000D02*
X98240000Y-98400000D01*
X92240000Y-72800000D02*
X92240000Y-67940000D01*
X96417400Y-65283600D02*
X96433000Y-65268000D01*
X93462400Y-64555600D02*
X93490000Y-64583200D01*
X94132715Y-96280000D02*
X96740000Y-96280000D01*
X95328800Y-65283600D02*
X96417400Y-65283600D01*
X98240000Y-98400000D02*
X96775000Y-99865000D01*
X93020000Y-65660000D02*
X93020000Y-66420000D01*
%TO.N,/Power/SW*%
X97149800Y-74232200D02*
X96002000Y-75380000D01*
X96002000Y-75380000D02*
X94420000Y-75380000D01*
X98201691Y-70822200D02*
X98201691Y-72076109D01*
X93649887Y-76150113D02*
X93649887Y-77313864D01*
X98201691Y-72076109D02*
X97149800Y-73128000D01*
X94420000Y-75380000D02*
X93649887Y-76150113D01*
X97149800Y-73128000D02*
X97149800Y-74232200D01*
%TO.N,Net-(IC1-VDD1_0)*%
X118252000Y-110490000D02*
X118252000Y-108630000D01*
X121875000Y-108630000D02*
X124460000Y-106045000D01*
X118082000Y-108630000D02*
X121875000Y-108630000D01*
%TO.N,Net-(IC1-VDD2_0)*%
X121095000Y-106870000D02*
X124460000Y-103505000D01*
X116952000Y-108630000D02*
X116952000Y-106870000D01*
X116782000Y-106870000D02*
X121095000Y-106870000D01*
%TO.N,Net-(IC1-VDD3_0)*%
X112613000Y-106870000D02*
X112460000Y-106717000D01*
X115822000Y-106870000D02*
X116901000Y-105791000D01*
X119634000Y-105791000D02*
X124460000Y-100965000D01*
X112460000Y-106717000D02*
X112460000Y-104240000D01*
X116901000Y-105791000D02*
X119634000Y-105791000D01*
X115822000Y-106870000D02*
X112613000Y-106870000D01*
D57*
X124910000Y-101245000D02*
X124910000Y-101330000D01*
D56*
%TO.N,Net-(IC1-VDD3_1)*%
X95532000Y-105918000D02*
X95532000Y-107640000D01*
X95532000Y-107640000D02*
X95476000Y-107696000D01*
X95532000Y-105918000D02*
X95405000Y-106045000D01*
X95405000Y-106045000D02*
X87460000Y-106045000D01*
%TO.N,Net-(IC1-VDD2_1)*%
X94516000Y-108458000D02*
X94516000Y-109116000D01*
X87587000Y-108458000D02*
X87460000Y-108585000D01*
X94516000Y-107696000D02*
X94516000Y-108458000D01*
X94516000Y-109154000D02*
X94450000Y-109220000D01*
X94516000Y-107696000D02*
X94516000Y-109154000D01*
X94516000Y-108458000D02*
X87587000Y-108458000D01*
%TO.N,Net-(IC1-VDD1_1)*%
X87460000Y-111125000D02*
X93490000Y-111125000D01*
X93490000Y-109220000D02*
X93490000Y-111125000D01*
%TO.N,Net-(C41-Pad2)*%
X94828800Y-63573600D02*
X95398800Y-63003600D01*
X96453200Y-63003600D02*
X96455400Y-63005800D01*
X95398800Y-63003600D02*
X96453200Y-63003600D01*
%TO.N,Net-(U7-DP)*%
X82005000Y-134030000D02*
X82005000Y-132752000D01*
X94361000Y-120396000D02*
X94420000Y-120337000D01*
X94390000Y-118050000D02*
X94420000Y-119350000D01*
X82005000Y-132752000D02*
X82169000Y-132588000D01*
%TO.N,Net-(U7-DN)*%
X93400000Y-118020000D02*
X93430000Y-118050000D01*
X93400000Y-116670000D02*
X93400000Y-118020000D01*
X93370000Y-118110000D02*
X92456000Y-118110000D01*
X81355000Y-132005000D02*
X81534000Y-131826000D01*
X93430000Y-118050000D02*
X93370000Y-118110000D01*
X81355000Y-134030000D02*
X81355000Y-132005000D01*
%TO.N,Net-(C45-Pad1)*%
X90649600Y-64589000D02*
X91120000Y-65059400D01*
X91120000Y-65059400D02*
X91120000Y-66420000D01*
%TO.N,/BI*%
X117717100Y-76139000D02*
X117717100Y-76586925D01*
X103194800Y-52755800D02*
X101626000Y-51187000D01*
X118505472Y-100576000D02*
X117509000Y-100576000D01*
X116503800Y-86993800D02*
X119634000Y-90124000D01*
X116332425Y-77971600D02*
X116328608Y-77971600D01*
X116503800Y-83451328D02*
X116503800Y-86993800D01*
X101626000Y-51187000D02*
X101626000Y-49799000D01*
X115055200Y-82002728D02*
X116503800Y-83451328D01*
X115546000Y-73735000D02*
X118830000Y-70451000D01*
X118830000Y-70451000D02*
X118830000Y-58462200D01*
X118830000Y-58462200D02*
X113123600Y-52755800D01*
X119634000Y-90124000D02*
X119634000Y-99447472D01*
X115055200Y-79245008D02*
X115055200Y-82002728D01*
X115546000Y-76073000D02*
X115546000Y-73735000D01*
X119634000Y-99447472D02*
X118505472Y-100576000D01*
X113123600Y-52755800D02*
X103194800Y-52755800D01*
X116328608Y-77971600D02*
X115055200Y-79245008D01*
X117717100Y-76586925D02*
X116332425Y-77971600D01*
%TO.N,Net-(U9-SS)*%
X102603000Y-66022600D02*
X104025400Y-67445000D01*
X98701691Y-67439092D02*
X100118183Y-66022600D01*
X104025400Y-67445000D02*
X104671200Y-67445000D01*
X98701691Y-68022200D02*
X98701691Y-67439092D01*
X100118183Y-66022600D02*
X102603000Y-66022600D01*
X104671200Y-67445000D02*
X104635400Y-67480800D01*
%TO.N,Net-(U9-COMP)*%
X98333000Y-63028200D02*
X98355400Y-63005800D01*
X97701691Y-68022200D02*
X97701691Y-67240909D01*
X98333000Y-66609600D02*
X98333000Y-65268000D01*
X98333000Y-65268000D02*
X98333000Y-63028200D01*
X97701691Y-67240909D02*
X98333000Y-66609600D01*
%TO.N,Net-(U9-BOOT)*%
X97201691Y-70822200D02*
X95730200Y-70822200D01*
X95958800Y-73883600D02*
X96189800Y-73652600D01*
X95958800Y-74273600D02*
X95958800Y-73883600D01*
X95730200Y-70822200D02*
X95368800Y-71183600D01*
X96189800Y-73652600D02*
X96189800Y-73128000D01*
%TO.N,Net-(U9-BP)*%
X99478800Y-71493600D02*
X104019800Y-71493600D01*
X104019800Y-71493600D02*
X104265600Y-71247800D01*
X106798800Y-66663600D02*
X106430600Y-66295400D01*
X99201691Y-70822200D02*
X99201691Y-71216491D01*
X104265600Y-71247800D02*
X105984600Y-71247800D01*
X106798800Y-70433600D02*
X106798800Y-66663600D01*
X99201691Y-71216491D02*
X99478800Y-71493600D01*
X106430600Y-66295400D02*
X105631200Y-66295400D01*
X105984600Y-71247800D02*
X106798800Y-70433600D01*
%TO.N,Net-(IC1-ADDR0)*%
X124308576Y-108035637D02*
X124224363Y-108035637D01*
%TO.N,Net-(IC1-ADDR1)*%
X128001000Y-111125000D02*
X124460000Y-111125000D01*
X128128000Y-110998000D02*
X128001000Y-111125000D01*
%TO.N,/ESP32/P_TX*%
X128175000Y-61664000D02*
X128060000Y-61549000D01*
X129881000Y-61664000D02*
X128175000Y-61664000D01*
%TO.N,/ESP32/P_RX*%
X126024000Y-61551000D02*
X126093000Y-61620000D01*
X124447000Y-61551000D02*
X126024000Y-61551000D01*
%TO.N,/ESP32/IO0*%
X121828800Y-58255200D02*
X122591000Y-57493000D01*
X124260000Y-55677000D02*
X124260000Y-55670000D01*
X124260000Y-55670000D02*
X124830000Y-55100000D01*
X122556000Y-57381000D02*
X124260000Y-55677000D01*
X122556000Y-57528000D02*
X122556000Y-57381000D01*
X122113000Y-68573000D02*
X121828800Y-68288800D01*
X121828800Y-68288800D02*
X121828800Y-58255200D01*
%TO.N,/ESP32/XIN32*%
X124043000Y-76576000D02*
X124043000Y-78323400D01*
X124019000Y-80080000D02*
X124019000Y-78350600D01*
X124043000Y-78323400D02*
X124017400Y-78349000D01*
X124019000Y-78350600D02*
X124017400Y-78349000D01*
%TO.N,/BM1397/CLKI*%
X117264000Y-83062056D02*
X117264000Y-79858000D01*
X116910200Y-84906200D02*
X116910200Y-83415856D01*
X116910200Y-83415856D02*
X117264000Y-83062056D01*
X123378000Y-93293264D02*
X123378000Y-91374000D01*
X131064000Y-94742000D02*
X129672000Y-93350000D01*
X129672000Y-93350000D02*
X123378000Y-93350000D01*
X123378000Y-91374000D02*
X116910200Y-84906200D01*
%TO.N,Net-(IC1-ADDR2)*%
X127851000Y-113665000D02*
X124460000Y-113665000D01*
X128128000Y-113388000D02*
X127851000Y-113665000D01*
%TO.N,/ESP32/XOUT32*%
X121248000Y-80100000D02*
X121248000Y-78424400D01*
X121159000Y-76585000D02*
X121159000Y-78335400D01*
X121159000Y-78335400D02*
X121172600Y-78349000D01*
X121248000Y-78424400D02*
X121172600Y-78349000D01*
%TO.N,/Power/PGOOD*%
X98171691Y-67345645D02*
X99977336Y-65540000D01*
X108598900Y-71760000D02*
X108278900Y-71440000D01*
X105150000Y-65470000D02*
X104611200Y-66008800D01*
X104611200Y-66176600D02*
X104611200Y-66295400D01*
X99977336Y-65540000D02*
X103974600Y-65540000D01*
X103974600Y-65540000D02*
X104611200Y-66176600D01*
X107510000Y-70671100D02*
X107510000Y-66370000D01*
X108278900Y-71440000D02*
X107510000Y-70671100D01*
X106610000Y-65470000D02*
X105150000Y-65470000D01*
X104611200Y-66008800D02*
X104611200Y-66295400D01*
X109480000Y-71760000D02*
X108598900Y-71760000D01*
X98171691Y-68022200D02*
X98171691Y-67345645D01*
X107510000Y-66370000D02*
X106610000Y-65470000D01*
%TO.N,Net-(IC1-RO)*%
X121412000Y-121920000D02*
X123317000Y-123825000D01*
X119380000Y-117890000D02*
X121378000Y-117890000D01*
X121412000Y-117924000D02*
X121412000Y-121920000D01*
X121378000Y-117890000D02*
X121412000Y-117924000D01*
X123317000Y-123825000D02*
X124460000Y-123825000D01*
%TO.N,Net-(IC1-CI)*%
X121005600Y-120875600D02*
X121005600Y-122910600D01*
X124333000Y-126365000D02*
X124460000Y-126365000D01*
X121005600Y-122910600D02*
X124460000Y-126365000D01*
X119380000Y-119250000D02*
X121005600Y-120875600D01*
%TO.N,/ESP32/LEDX_B*%
X95550000Y-54170000D02*
X95600000Y-54220000D01*
X93033600Y-58436400D02*
X93950000Y-57520000D01*
X93961664Y-61026400D02*
X93033600Y-60098336D01*
X93033600Y-60098336D02*
X93033600Y-58436400D01*
X94050000Y-54710000D02*
X94590000Y-54170000D01*
X101083600Y-61026400D02*
X93961664Y-61026400D01*
X93950000Y-57520000D02*
X94050000Y-57420000D01*
X94590000Y-54170000D02*
X95550000Y-54170000D01*
X94050000Y-57420000D02*
X94050000Y-54710000D01*
X103400000Y-58710000D02*
X101083600Y-61026400D01*
%TO.N,Net-(IC1-PIN_MODE)*%
X87460000Y-136525000D02*
X84201000Y-139784000D01*
X84201000Y-139784000D02*
X84201000Y-142875000D01*
%TO.N,/ESP32/FAN_ALERT*%
X110218000Y-80986000D02*
X111108000Y-81876000D01*
X110218000Y-75989000D02*
X110218000Y-80986000D01*
X110497000Y-73924000D02*
X110497000Y-75710000D01*
X110497000Y-75710000D02*
X110218000Y-75989000D01*
X96395000Y-140335000D02*
X96395000Y-139175000D01*
X102922000Y-132588000D02*
X108585000Y-132588000D01*
X96365000Y-139145000D02*
X102922000Y-132588000D01*
X96395000Y-139175000D02*
X96365000Y-139145000D01*
%TO.N,/ESP32/LEDZ_B*%
X116673000Y-60370472D02*
X116250528Y-59948000D01*
X105020000Y-57680000D02*
X105020000Y-54390000D01*
X105230000Y-54180000D02*
X106450000Y-54180000D01*
X116250528Y-59948000D02*
X114630000Y-59948000D01*
X114630000Y-59948000D02*
X107288000Y-59948000D01*
X116044000Y-70126000D02*
X116673000Y-69497000D01*
X116673000Y-69497000D02*
X116673000Y-60370472D01*
X107288000Y-59948000D02*
X105020000Y-57680000D01*
X105020000Y-54390000D02*
X105230000Y-54180000D01*
D57*
%TO.N,unconnected-(IC1-RF-Pad23)*%
X87764000Y-129341000D02*
X87765000Y-129340000D01*
D56*
%TO.N,/ESP32/LEDX_G*%
X93440000Y-59930000D02*
X93440000Y-59240000D01*
X94019945Y-58660055D02*
X94129945Y-58660055D01*
X100520000Y-58700000D02*
X98600000Y-60620000D01*
X94130000Y-60620000D02*
X93440000Y-59930000D01*
X98600000Y-60620000D02*
X94130000Y-60620000D01*
X94730000Y-58060000D02*
X94730000Y-55740000D01*
X94129945Y-58660055D02*
X94730000Y-58060000D01*
X93440000Y-59240000D02*
X94019945Y-58660055D01*
X94730000Y-55740000D02*
X95250000Y-55220000D01*
X95250000Y-55220000D02*
X95600000Y-55220000D01*
%TO.N,unconnected-(IC1-TF-Pad24)*%
X87800000Y-125970000D02*
X87760000Y-126010000D01*
%TO.N,/ESP32/LEDZ_G*%
X117097000Y-70138000D02*
X117079400Y-70120400D01*
X105870000Y-55180000D02*
X106450000Y-55180000D01*
X107054000Y-58630000D02*
X105758402Y-57334402D01*
X112020000Y-58630000D02*
X107054000Y-58630000D01*
X117079400Y-60202136D02*
X115507264Y-58630000D01*
X105758402Y-57334402D02*
X105758402Y-55291598D01*
X115507264Y-58630000D02*
X112020000Y-58630000D01*
X117079400Y-70120400D02*
X117079400Y-60202136D01*
X105758402Y-55291598D02*
X105870000Y-55180000D01*
%TO.N,Net-(IC1-CLKO)*%
X83566000Y-123825000D02*
X87460000Y-123825000D01*
X82423000Y-124968000D02*
X83566000Y-123825000D01*
%TO.N,/BM1397/BM_BI*%
X115062000Y-107950000D02*
X115062000Y-111125000D01*
X115062000Y-103759000D02*
X113409600Y-102106600D01*
X115062000Y-111125000D02*
X118364000Y-114427000D01*
X113409600Y-102106600D02*
X113409600Y-100834838D01*
X113409600Y-100834838D02*
X113668438Y-100576000D01*
X120142000Y-114427000D02*
X124460000Y-118745000D01*
X118364000Y-114427000D02*
X120142000Y-114427000D01*
X113668438Y-100576000D02*
X114139000Y-100576000D01*
X128651000Y-118745000D02*
X124460000Y-118745000D01*
%TO.N,/SDA*%
X84859000Y-57669000D02*
X88334000Y-57669000D01*
X84730000Y-85730000D02*
X84370000Y-86090000D01*
X108222000Y-69133000D02*
X109465000Y-70376000D01*
X90760600Y-93799500D02*
X90760600Y-96094600D01*
X120049200Y-57928936D02*
X113651264Y-51531000D01*
X117403141Y-73987441D02*
X120049200Y-71341382D01*
X88401100Y-91440000D02*
X90760600Y-93799500D01*
X113651264Y-51531000D02*
X112288000Y-51531000D01*
X90805000Y-96139000D02*
X90760600Y-96183400D01*
X112288000Y-51531000D02*
X111786000Y-51029000D01*
X120049200Y-71341382D02*
X120049200Y-57928936D01*
X82005000Y-139155000D02*
X82804000Y-139954000D01*
X90357445Y-59692445D02*
X90357445Y-62412445D01*
X84370000Y-86090000D02*
X80540000Y-86090000D01*
X108222000Y-68481000D02*
X108222000Y-69133000D01*
X82005000Y-138330000D02*
X82005000Y-139155000D01*
X90760600Y-98435600D02*
X90890000Y-98565000D01*
X111786000Y-51029000D02*
X111786000Y-49799000D01*
X90760600Y-96183400D02*
X90760600Y-98435600D01*
X88989000Y-58324000D02*
X90357445Y-59692445D01*
X88334000Y-57669000D02*
X88989000Y-58324000D01*
X79777500Y-85327500D02*
X79777500Y-84045000D01*
X90760600Y-96094600D02*
X90805000Y-96139000D01*
X80540000Y-86090000D02*
X79777500Y-85327500D01*
%TO.N,Net-(IC1-CO)*%
X82296000Y-121285000D02*
X87460000Y-121285000D01*
%TO.N,Net-(IC1-RI)*%
X96266000Y-115443000D02*
X97500000Y-116677000D01*
X97500000Y-116677000D02*
X97500000Y-120830000D01*
X91948000Y-115443000D02*
X96266000Y-115443000D01*
X87460000Y-118745000D02*
X90297000Y-118745000D01*
X90297000Y-117094000D02*
X91948000Y-115443000D01*
X90297000Y-118745000D02*
X90297000Y-117094000D01*
X83439000Y-118745000D02*
X87460000Y-118745000D01*
X82550000Y-117856000D02*
X83439000Y-118745000D01*
X97350000Y-120840000D02*
X97500000Y-120690000D01*
%TO.N,Net-(IC1-NRSTO)*%
X84328000Y-116205000D02*
X87460000Y-116205000D01*
X82550000Y-114427000D02*
X84328000Y-116205000D01*
%TO.N,/BM1397/BM_CLKI*%
X119420000Y-121700000D02*
X119380000Y-121740000D01*
X119380000Y-123825000D02*
X119380000Y-121740000D01*
X124460000Y-128905000D02*
X119380000Y-123825000D01*
X119420000Y-120520000D02*
X119420000Y-121700000D01*
%TO.N,/ESP32/LEDX_R*%
X95440000Y-58690000D02*
X95690000Y-58690000D01*
X95690000Y-56310000D02*
X95600000Y-56220000D01*
X95700000Y-58680000D02*
X95690000Y-58690000D01*
X97680000Y-58680000D02*
X95700000Y-58680000D01*
X95690000Y-58690000D02*
X95690000Y-56310000D01*
X94319890Y-59810110D02*
X95440000Y-58690000D01*
%TO.N,/ESP32/LEDZ_R*%
X106949000Y-57428000D02*
X109370000Y-57428000D01*
X117485800Y-69566690D02*
X117485800Y-60033800D01*
X114880000Y-57428000D02*
X109370000Y-57428000D01*
X106923000Y-57402000D02*
X106450000Y-56929000D01*
X106450000Y-56929000D02*
X106450000Y-56190000D01*
X117485800Y-60033800D02*
X114880000Y-57428000D01*
X118065584Y-70146474D02*
X117485800Y-69566690D01*
X106923000Y-57402000D02*
X106949000Y-57428000D01*
%TO.N,/ESP32/MTCK*%
X128060488Y-69324488D02*
X127256267Y-68520267D01*
X127256267Y-68520267D02*
X127256267Y-68475562D01*
X127281232Y-81442768D02*
X127281232Y-79622743D01*
X125236000Y-83472000D02*
X125252000Y-83472000D01*
X127281232Y-79622743D02*
X128060488Y-78843487D01*
X125252000Y-83472000D02*
X127281232Y-81442768D01*
X128060488Y-78843487D02*
X128060488Y-69324488D01*
%TO.N,/ESP32/MTDO*%
X128473200Y-79005511D02*
X128473200Y-68706766D01*
X124552400Y-84151400D02*
X125659600Y-84151400D01*
X128473200Y-68706766D02*
X127290717Y-67524283D01*
X125659600Y-84151400D02*
X127717800Y-82093200D01*
X127717800Y-82093200D02*
X127717800Y-79760911D01*
X124253000Y-83852000D02*
X124552400Y-84151400D01*
X127717800Y-79760911D02*
X128473200Y-79005511D01*
%TO.N,/ESP32/MTDI*%
X128124200Y-79929247D02*
X128879600Y-79173847D01*
X124697000Y-84724000D02*
X126244000Y-84724000D01*
X128879600Y-68153055D02*
X127270301Y-66543756D01*
X124253000Y-85168000D02*
X124697000Y-84724000D01*
X128879600Y-79173847D02*
X128879600Y-68153055D01*
X126244000Y-84724000D02*
X128124200Y-82843800D01*
X128124200Y-82843800D02*
X128124200Y-79929247D01*
%TO.N,/ESP32/MTMS*%
X128530600Y-80097583D02*
X129286000Y-79342183D01*
X129286000Y-67591000D02*
X127287000Y-65592000D01*
X129286000Y-79342183D02*
X129286000Y-67591000D01*
X130729000Y-85226000D02*
X131133000Y-84822000D01*
X128530600Y-84085136D02*
X128530600Y-84891600D01*
X128865000Y-85226000D02*
X130729000Y-85226000D01*
X128530600Y-84085136D02*
X128530600Y-80097583D01*
X128530600Y-84891600D02*
X128865000Y-85226000D01*
%TO.N,Net-(IC1-BO)*%
X82804000Y-108331000D02*
X82804000Y-111379000D01*
X85090000Y-113665000D02*
X87460000Y-113665000D01*
X82804000Y-111379000D02*
X85090000Y-113665000D01*
%TO.N,Net-(JP4-C)*%
X110912000Y-77550000D02*
X111172000Y-77290000D01*
X112273000Y-80390000D02*
X111606000Y-80390000D01*
X110912000Y-79696000D02*
X110912000Y-77550000D01*
X111172000Y-77290000D02*
X112551000Y-77290000D01*
X111606000Y-80390000D02*
X110912000Y-79696000D01*
%TO.N,Net-(Q1-G)*%
X97108800Y-72263600D02*
X94106400Y-72263600D01*
X97708800Y-71663600D02*
X97108800Y-72263600D01*
X97701691Y-70822200D02*
X97708800Y-70829309D01*
X89789887Y-76580113D02*
X89789887Y-77313864D01*
X97708800Y-70829309D02*
X97708800Y-71663600D01*
X94106400Y-72263600D02*
X89789887Y-76580113D01*
%TO.N,Net-(Q2-G)*%
X98691400Y-73082200D02*
X98691400Y-70832491D01*
X98691400Y-70832491D02*
X98701691Y-70822200D01*
X100189200Y-75260000D02*
X98650200Y-73721000D01*
X102700000Y-75260000D02*
X100189200Y-75260000D01*
X101710600Y-82811400D02*
X99662900Y-82811400D01*
X98650200Y-73123400D02*
X98691400Y-73082200D01*
X98650200Y-73721000D02*
X98650200Y-73123400D01*
X99662900Y-82811400D02*
X99611600Y-82862700D01*
%TO.N,Net-(U1-OUT)*%
X118180000Y-121920000D02*
X118360000Y-121740000D01*
X114300000Y-121920000D02*
X118180000Y-121920000D01*
X114240000Y-123870000D02*
X114240000Y-121980000D01*
X114240000Y-121980000D02*
X114300000Y-121920000D01*
%TO.N,Net-(U10-FS0)*%
X96320000Y-102040000D02*
X96710000Y-101650000D01*
X96405000Y-100515000D02*
X95190000Y-100515000D01*
X94840000Y-102040000D02*
X96320000Y-102040000D01*
X96710000Y-100820000D02*
X96405000Y-100515000D01*
X96710000Y-101650000D02*
X96710000Y-100820000D01*
%TO.N,Net-(U10-FS1)*%
X89775000Y-99865000D02*
X90890000Y-99865000D01*
X89480000Y-100160000D02*
X89775000Y-99865000D01*
X90190000Y-102040000D02*
X89480000Y-101330000D01*
X89480000Y-101330000D02*
X89480000Y-100160000D01*
X90910000Y-102040000D02*
X90190000Y-102040000D01*
%TO.N,Net-(U4-BA)*%
X97490000Y-54220000D02*
X97500000Y-54210000D01*
X96620000Y-54220000D02*
X97490000Y-54220000D01*
%TO.N,Net-(U13-BA)*%
X107470000Y-54180000D02*
X108340000Y-54180000D01*
%TO.N,Net-(U3-A)*%
X117097000Y-120520000D02*
X117094000Y-120523000D01*
X123571000Y-97917000D02*
X124587000Y-97917000D01*
X118400000Y-120520000D02*
X117097000Y-120520000D01*
X123378000Y-97724000D02*
X123571000Y-97917000D01*
X123378000Y-96505000D02*
X123378000Y-97724000D01*
%TO.N,Net-(U4-GA)*%
X97500000Y-55220000D02*
X97520000Y-55200000D01*
X96620000Y-55220000D02*
X97500000Y-55220000D01*
%TO.N,Net-(U13-GA)*%
X107470000Y-55180000D02*
X108310000Y-55180000D01*
X108310000Y-55180000D02*
X108320000Y-55170000D01*
%TO.N,Net-(U4-RA)*%
X97530000Y-56220000D02*
X97540000Y-56230000D01*
X96620000Y-56220000D02*
X97530000Y-56220000D01*
%TO.N,Net-(U13-RA)*%
X107470000Y-56190000D02*
X108310000Y-56190000D01*
%TD*%
%TA.AperFunction,Conductor*%
%TO.N,GND*%
G36*
X105384386Y-68641560D02*
G01*
X105446702Y-68658204D01*
X105492618Y-68703504D01*
X105510100Y-68765591D01*
X105531563Y-70139182D01*
X105515303Y-70203089D01*
X105468990Y-70250031D01*
X105405308Y-70267151D01*
X103875286Y-70263871D01*
X92645627Y-70239800D01*
X92582744Y-70222830D01*
X92536736Y-70176723D01*
X92519900Y-70113801D01*
X92519900Y-68740203D01*
X92536826Y-68677125D01*
X92583056Y-68630994D01*
X92646170Y-68614203D01*
X105384386Y-68641560D01*
G37*
%TD.AperFunction*%
%TD*%
%TA.AperFunction,Conductor*%
%TO.N,/5V*%
G36*
X88700308Y-75088348D02*
G01*
X88766878Y-75107650D01*
X88813168Y-75159245D01*
X88825165Y-75227516D01*
X88816496Y-75309999D01*
X88836458Y-75499929D01*
X88895472Y-75681555D01*
X88898749Y-75687231D01*
X88915629Y-75750904D01*
X88902505Y-78214435D01*
X89292164Y-78210450D01*
X89314919Y-78214436D01*
X89314949Y-78214161D01*
X89330685Y-78215852D01*
X89330686Y-78215853D01*
X89359197Y-78218918D01*
X89391248Y-78222364D01*
X89391249Y-78222364D01*
X90188525Y-78222364D01*
X90188526Y-78222364D01*
X90203665Y-78220736D01*
X90249088Y-78215853D01*
X90270278Y-78207949D01*
X90313012Y-78200013D01*
X90517846Y-78197918D01*
X90567348Y-78207502D01*
X90574463Y-78210450D01*
X90632089Y-78234320D01*
X90632092Y-78234320D01*
X90632095Y-78234322D01*
X90695095Y-78251203D01*
X90828000Y-78268700D01*
X93944300Y-78268700D01*
X94007253Y-78285554D01*
X94053365Y-78331607D01*
X94070299Y-78394535D01*
X94077212Y-83773380D01*
X94090439Y-94066611D01*
X94073841Y-94129281D01*
X94028280Y-94175402D01*
X93965818Y-94192765D01*
X93008270Y-94203245D01*
X92959311Y-94193924D01*
X92917796Y-94166348D01*
X90230433Y-91478985D01*
X90197009Y-91419301D01*
X90199696Y-91350951D01*
X90202276Y-91343014D01*
X90222238Y-91153086D01*
X90202276Y-90963158D01*
X90143261Y-90781530D01*
X90143261Y-90781529D01*
X90047775Y-90616143D01*
X89946874Y-90504081D01*
X89919987Y-90474220D01*
X89765486Y-90361968D01*
X89591022Y-90284292D01*
X89404221Y-90244586D01*
X89213247Y-90244586D01*
X89088713Y-90271056D01*
X89026445Y-90284292D01*
X88851980Y-90361969D01*
X88697479Y-90474220D01*
X88670592Y-90504081D01*
X88615893Y-90539602D01*
X88550762Y-90543015D01*
X88519798Y-90536433D01*
X88496587Y-90531500D01*
X88305613Y-90531500D01*
X88181078Y-90557970D01*
X88118811Y-90571206D01*
X87944346Y-90648883D01*
X87789847Y-90761133D01*
X87662059Y-90903055D01*
X87656352Y-90912942D01*
X87611948Y-90958052D01*
X87551212Y-90975878D01*
X87489473Y-90961922D01*
X87442310Y-90919705D01*
X87437813Y-90912942D01*
X87150914Y-90481454D01*
X87135300Y-90448387D01*
X87129839Y-90412231D01*
X87101649Y-83773379D01*
X87114244Y-83717930D01*
X87149935Y-83673665D01*
X87201447Y-83649600D01*
X87252288Y-83638794D01*
X87426752Y-83561118D01*
X87581253Y-83448866D01*
X87709040Y-83306944D01*
X87804527Y-83141556D01*
X87863542Y-82959928D01*
X87883504Y-82770000D01*
X87863542Y-82580072D01*
X87804527Y-82398444D01*
X87804527Y-82398443D01*
X87709041Y-82233057D01*
X87581252Y-82091133D01*
X87426753Y-81978883D01*
X87426752Y-81978882D01*
X87252288Y-81901206D01*
X87252284Y-81901204D01*
X87192925Y-81888587D01*
X87141690Y-81864739D01*
X87106032Y-81820896D01*
X87093124Y-81765879D01*
X87090000Y-81030000D01*
X84782850Y-81050598D01*
X84719031Y-81033898D01*
X84672397Y-80987240D01*
X84655731Y-80923414D01*
X84709826Y-75199412D01*
X84727175Y-75136790D01*
X84773423Y-75091140D01*
X84836266Y-75074606D01*
X88700308Y-75088348D01*
G37*
%TD.AperFunction*%
%TD*%
%TA.AperFunction,Conductor*%
%TO.N,/VDD*%
G36*
X109416243Y-84420914D02*
G01*
X109479101Y-84437829D01*
X109525130Y-84483860D01*
X109542042Y-84546721D01*
X109558871Y-95552531D01*
X109542144Y-95615456D01*
X109496239Y-95661630D01*
X109433412Y-95678723D01*
X102634298Y-95707927D01*
X102571086Y-95691236D01*
X102524747Y-95645116D01*
X102507757Y-95581987D01*
X102502856Y-84536254D01*
X102519751Y-84473174D01*
X102565955Y-84427023D01*
X102629053Y-84410199D01*
X109416243Y-84420914D01*
G37*
%TD.AperFunction*%
%TD*%
%TA.AperFunction,Conductor*%
%TO.N,/Power/SW*%
G36*
X109442200Y-76044881D02*
G01*
X109488319Y-76091000D01*
X109505200Y-76154000D01*
X109505200Y-81871000D01*
X109488319Y-81934000D01*
X109442200Y-81980119D01*
X109379200Y-81997000D01*
X95059600Y-81997000D01*
X94996600Y-81980119D01*
X94950481Y-81934000D01*
X94933600Y-81871000D01*
X94933600Y-77755200D01*
X90828000Y-77755200D01*
X90765000Y-77738319D01*
X90718881Y-77692200D01*
X90702000Y-77629200D01*
X90702000Y-76154000D01*
X90718881Y-76091000D01*
X90765000Y-76044881D01*
X90828000Y-76028000D01*
X109379200Y-76028000D01*
X109442200Y-76044881D01*
G37*
%TD.AperFunction*%
%TD*%
%TA.AperFunction,Conductor*%
%TO.N,GND*%
G36*
X98611080Y-82367451D02*
G01*
X98656942Y-82411514D01*
X98675438Y-82472362D01*
X98692774Y-82905774D01*
X98730599Y-83851399D01*
X98730601Y-83851401D01*
X100766164Y-84677718D01*
X101682169Y-85049561D01*
X101723388Y-85076731D01*
X101751003Y-85117654D01*
X101760776Y-85166045D01*
X101779737Y-94263938D01*
X101762977Y-94326991D01*
X101716929Y-94373209D01*
X101653938Y-94390201D01*
X94756591Y-94401199D01*
X94693566Y-94384420D01*
X94647374Y-94338378D01*
X94630390Y-94275411D01*
X94610809Y-82477607D01*
X94627620Y-82414521D01*
X94673749Y-82368316D01*
X94736809Y-82351400D01*
X98549540Y-82351400D01*
X98611080Y-82367451D01*
G37*
%TD.AperFunction*%
%TD*%
%TA.AperFunction,Conductor*%
%TO.N,/Power/VIN*%
G36*
X86818470Y-67570769D02*
G01*
X86881361Y-67587673D01*
X86927413Y-67633723D01*
X86944321Y-67696616D01*
X86952438Y-74361830D01*
X86935391Y-74425270D01*
X86888728Y-74471509D01*
X86825135Y-74487976D01*
X84052593Y-74459294D01*
X83981381Y-80885396D01*
X83964040Y-80947804D01*
X83917986Y-80993351D01*
X83855389Y-81010000D01*
X80402702Y-81010000D01*
X80358022Y-81001812D01*
X80319149Y-80978312D01*
X80182930Y-80857633D01*
X80030585Y-80777676D01*
X80030584Y-80777675D01*
X80030583Y-80777675D01*
X79863528Y-80736500D01*
X79691472Y-80736500D01*
X79524417Y-80777675D01*
X79524416Y-80777675D01*
X79524414Y-80777676D01*
X79372069Y-80857633D01*
X79235851Y-80978312D01*
X79196978Y-81001812D01*
X79152298Y-81010000D01*
X78476039Y-81010000D01*
X78413028Y-80993113D01*
X78366907Y-80946977D01*
X78350039Y-80883961D01*
X78350085Y-80736500D01*
X78354128Y-67687019D01*
X78371046Y-67623997D01*
X78417224Y-67577887D01*
X78480271Y-67561062D01*
X86818470Y-67570769D01*
G37*
%TD.AperFunction*%
%TD*%
M02*
