%TF.GenerationSoftware,KiCad,Pcbnew,7.0.6-0*%
%TF.CreationDate,2023-11-19T23:35:54-05:00*%
%TF.ProjectId,bitaxeUltra,62697461-7865-4556-9c74-72612e6b6963,rev?*%
%TF.SameCoordinates,Original*%
%TF.FileFunction,Paste,Bot*%
%TF.FilePolarity,Positive*%
%FSLAX46Y46*%
G04 Gerber Fmt 4.6, Leading zero omitted, Abs format (unit mm)*
G04 Created by KiCad (PCBNEW 7.0.6-0) date 2023-11-19 23:35:54*
%MOMM*%
%LPD*%
G01*
G04 APERTURE LIST*
G04 Aperture macros list*
%AMRoundRect*
0 Rectangle with rounded corners*
0 $1 Rounding radius*
0 $2 $3 $4 $5 $6 $7 $8 $9 X,Y pos of 4 corners*
0 Add a 4 corners polygon primitive as box body*
4,1,4,$2,$3,$4,$5,$6,$7,$8,$9,$2,$3,0*
0 Add four circle primitives for the rounded corners*
1,1,$1+$1,$2,$3*
1,1,$1+$1,$4,$5*
1,1,$1+$1,$6,$7*
1,1,$1+$1,$8,$9*
0 Add four rect primitives between the rounded corners*
20,1,$1+$1,$2,$3,$4,$5,0*
20,1,$1+$1,$4,$5,$6,$7,0*
20,1,$1+$1,$6,$7,$8,$9,0*
20,1,$1+$1,$8,$9,$2,$3,0*%
G04 Aperture macros list end*
%ADD10C,0.001000*%
%ADD11RoundRect,0.250000X0.750000X-0.750000X0.750000X0.750000X-0.750000X0.750000X-0.750000X-0.750000X0*%
%ADD12R,1.900000X1.000000*%
%ADD13R,1.150000X0.600000*%
%ADD14R,1.150000X0.300000*%
%ADD15O,1.800000X1.000000*%
%ADD16O,2.100000X1.000000*%
%ADD17R,0.900000X1.500000*%
%ADD18R,1.500000X0.900000*%
%ADD19R,0.900000X0.900000*%
%ADD20R,0.792000X0.221000*%
%ADD21RoundRect,0.250000X-0.550000X1.500000X-0.550000X-1.500000X0.550000X-1.500000X0.550000X1.500000X0*%
%ADD22R,0.508000X1.524000*%
G04 APERTURE END LIST*
D10*
%TO.C,U14*%
X107242000Y-118273000D02*
X106042000Y-118273000D01*
X106042000Y-118273000D02*
X106042000Y-119063000D01*
X106042000Y-119063000D02*
X107242000Y-119063000D01*
X107242000Y-119063000D02*
X107242000Y-118273000D01*
G36*
X107242000Y-118273000D02*
G01*
X106042000Y-118273000D01*
X106042000Y-119063000D01*
X107242000Y-119063000D01*
X107242000Y-118273000D01*
G37*
X107242000Y-115243000D02*
X106042000Y-115243000D01*
X106042000Y-115243000D02*
X106042000Y-116033000D01*
X106042000Y-116033000D02*
X107242000Y-116033000D01*
X107242000Y-116033000D02*
X107242000Y-115243000D01*
G36*
X107242000Y-115243000D02*
G01*
X106042000Y-115243000D01*
X106042000Y-116033000D01*
X107242000Y-116033000D01*
X107242000Y-115243000D01*
G37*
X107222000Y-116833000D02*
X106022000Y-116833000D01*
X106022000Y-116833000D02*
X106022000Y-117623000D01*
X106022000Y-117623000D02*
X107222000Y-117623000D01*
X107222000Y-117623000D02*
X107222000Y-116833000D01*
G36*
X107222000Y-116833000D02*
G01*
X106022000Y-116833000D01*
X106022000Y-117623000D01*
X107222000Y-117623000D01*
X107222000Y-116833000D01*
G37*
X107192000Y-113163000D02*
X105992000Y-113163000D01*
X105992000Y-113163000D02*
X105992000Y-113953000D01*
X105992000Y-113953000D02*
X107192000Y-113953000D01*
X107192000Y-113953000D02*
X107192000Y-113163000D01*
G36*
X107192000Y-113163000D02*
G01*
X105992000Y-113163000D01*
X105992000Y-113953000D01*
X107192000Y-113953000D01*
X107192000Y-113163000D01*
G37*
X105112000Y-118268000D02*
X103912000Y-118268000D01*
X103912000Y-118268000D02*
X103912000Y-119058000D01*
X103912000Y-119058000D02*
X105112000Y-119058000D01*
X105112000Y-119058000D02*
X105112000Y-118268000D01*
G36*
X105112000Y-118268000D02*
G01*
X103912000Y-118268000D01*
X103912000Y-119058000D01*
X105112000Y-119058000D01*
X105112000Y-118268000D01*
G37*
X105112000Y-115238000D02*
X103912000Y-115238000D01*
X103912000Y-115238000D02*
X103912000Y-116028000D01*
X103912000Y-116028000D02*
X105112000Y-116028000D01*
X105112000Y-116028000D02*
X105112000Y-115238000D01*
G36*
X105112000Y-115238000D02*
G01*
X103912000Y-115238000D01*
X103912000Y-116028000D01*
X105112000Y-116028000D01*
X105112000Y-115238000D01*
G37*
X105092000Y-116828000D02*
X103892000Y-116828000D01*
X103892000Y-116828000D02*
X103892000Y-117618000D01*
X103892000Y-117618000D02*
X105092000Y-117618000D01*
X105092000Y-117618000D02*
X105092000Y-116828000D01*
G36*
X105092000Y-116828000D02*
G01*
X103892000Y-116828000D01*
X103892000Y-117618000D01*
X105092000Y-117618000D01*
X105092000Y-116828000D01*
G37*
X105062000Y-113158000D02*
X103862000Y-113158000D01*
X103862000Y-113158000D02*
X103862000Y-113948000D01*
X103862000Y-113948000D02*
X105062000Y-113948000D01*
X105062000Y-113948000D02*
X105062000Y-113158000D01*
G36*
X105062000Y-113158000D02*
G01*
X103862000Y-113158000D01*
X103862000Y-113948000D01*
X105062000Y-113948000D01*
X105062000Y-113158000D01*
G37*
%TD*%
D11*
%TO.C,J1*%
X88900000Y-72850000D03*
X82750000Y-72850000D03*
X82750000Y-61850000D03*
X88900000Y-61850000D03*
%TD*%
D12*
%TO.C,J9*%
X85555000Y-50280000D03*
X88855000Y-52820000D03*
X85555000Y-55360000D03*
X88855000Y-57900000D03*
%TD*%
D13*
%TO.C,J8*%
X126368000Y-89256000D03*
X126368000Y-90056000D03*
D14*
X126368000Y-91206000D03*
X126368000Y-92206000D03*
X126368000Y-92706000D03*
X126368000Y-93706000D03*
D13*
X126368000Y-94856000D03*
X126368000Y-95656000D03*
X126368000Y-95656000D03*
X126368000Y-94856000D03*
D14*
X126368000Y-94206000D03*
X126368000Y-93206000D03*
X126368000Y-91706000D03*
X126368000Y-90706000D03*
D13*
X126368000Y-90056000D03*
X126368000Y-89256000D03*
D15*
X131123000Y-88136000D03*
D16*
X126943000Y-88136000D03*
D15*
X131123000Y-96776000D03*
D16*
X126943000Y-96776000D03*
%TD*%
D17*
%TO.C,U12*%
X125690000Y-81360000D03*
X124420000Y-81360000D03*
X123150000Y-81360000D03*
X121880000Y-81360000D03*
X120610000Y-81360000D03*
X119340000Y-81360000D03*
X118070000Y-81360000D03*
X116800000Y-81360000D03*
X115530000Y-81360000D03*
X114260000Y-81360000D03*
X112990000Y-81360000D03*
X111720000Y-81360000D03*
X110450000Y-81360000D03*
X109180000Y-81360000D03*
D18*
X107930000Y-79595000D03*
X107930000Y-78325000D03*
X107930000Y-77055000D03*
X107930000Y-75785000D03*
X107930000Y-74515000D03*
X107930000Y-73245000D03*
X107930000Y-71975000D03*
X107930000Y-70705000D03*
X107930000Y-69435000D03*
X107930000Y-68165000D03*
X107930000Y-66895000D03*
X107930000Y-65625000D03*
D17*
X109180000Y-63860000D03*
X110450000Y-63860000D03*
X111720000Y-63860000D03*
X112990000Y-63860000D03*
X114260000Y-63860000D03*
X115530000Y-63860000D03*
X116800000Y-63860000D03*
X118070000Y-63860000D03*
X119340000Y-63860000D03*
X120610000Y-63860000D03*
X121880000Y-63860000D03*
X123150000Y-63860000D03*
X124420000Y-63860000D03*
X125690000Y-63860000D03*
D19*
X116570000Y-75510000D03*
X117970000Y-75510000D03*
X119370000Y-75510000D03*
X116570000Y-74110000D03*
X117970000Y-74110000D03*
X119370000Y-74110000D03*
X116570000Y-72710000D03*
X117970000Y-72710000D03*
X119370000Y-72710000D03*
%TD*%
D20*
%TO.C,U14*%
X108528000Y-112805000D03*
X108528000Y-113307000D03*
X108528000Y-113809000D03*
X108528000Y-114311000D03*
X108528000Y-114813000D03*
X108528000Y-115315000D03*
X108528000Y-115817000D03*
X108528000Y-116319000D03*
X108528000Y-116821000D03*
X108528000Y-117323000D03*
X108528000Y-117825000D03*
X108528000Y-118327000D03*
X108528000Y-118829000D03*
X108528000Y-119331000D03*
X102696000Y-119318000D03*
X102696000Y-118818000D03*
X102696000Y-118318000D03*
X102696000Y-117818000D03*
X102696000Y-117318000D03*
X102696000Y-116821000D03*
X102696000Y-116318000D03*
X102696000Y-115817000D03*
X102696000Y-115315000D03*
X102696000Y-114813000D03*
X102696000Y-114311000D03*
X102696000Y-113818000D03*
X102696000Y-113307000D03*
X102696000Y-112818000D03*
%TD*%
D21*
%TO.C,C28*%
X103490000Y-138720000D03*
X103490000Y-144120000D03*
%TD*%
D22*
%TO.C,SW1*%
X132345000Y-104448000D03*
X128027000Y-104448000D03*
%TD*%
%TO.C,SW2*%
X132241000Y-113155000D03*
X127923000Y-113155000D03*
%TD*%
M02*
