%TF.GenerationSoftware,KiCad,Pcbnew,(7.0.0-0)*%
%TF.CreationDate,2023-03-05T22:11:08-05:00*%
%TF.ProjectId,bitaxeMax,62697461-7865-44d6-9178-2e6b69636164,rev?*%
%TF.SameCoordinates,Original*%
%TF.FileFunction,Legend,Bot*%
%TF.FilePolarity,Positive*%
%FSLAX46Y46*%
G04 Gerber Fmt 4.6, Leading zero omitted, Abs format (unit mm)*
G04 Created by KiCad (PCBNEW (7.0.0-0)) date 2023-03-05 22:11:08*
%MOMM*%
%LPD*%
G01*
G04 APERTURE LIST*
G04 Aperture macros list*
%AMRoundRect*
0 Rectangle with rounded corners*
0 $1 Rounding radius*
0 $2 $3 $4 $5 $6 $7 $8 $9 X,Y pos of 4 corners*
0 Add a 4 corners polygon primitive as box body*
4,1,4,$2,$3,$4,$5,$6,$7,$8,$9,$2,$3,0*
0 Add four circle primitives for the rounded corners*
1,1,$1+$1,$2,$3*
1,1,$1+$1,$4,$5*
1,1,$1+$1,$6,$7*
1,1,$1+$1,$8,$9*
0 Add four rect primitives between the rounded corners*
20,1,$1+$1,$2,$3,$4,$5,0*
20,1,$1+$1,$4,$5,$6,$7,0*
20,1,$1+$1,$6,$7,$8,$9,0*
20,1,$1+$1,$8,$9,$2,$3,0*%
G04 Aperture macros list end*
%ADD10C,0.150000*%
%ADD11C,0.250000*%
%ADD12C,0.120000*%
%ADD13C,0.399559*%
%ADD14C,0.100000*%
%ADD15C,0.325707*%
%ADD16R,0.457200X2.997200*%
%ADD17C,3.500000*%
%ADD18C,2.200000*%
%ADD19C,0.400000*%
%ADD20C,1.295400*%
%ADD21C,1.574800*%
%ADD22R,1.700000X1.700000*%
%ADD23O,1.700000X1.700000*%
%ADD24C,2.520000*%
%ADD25R,0.900000X1.500000*%
%ADD26R,1.500000X0.900000*%
%ADD27R,0.900000X0.900000*%
%ADD28RoundRect,0.236600X0.295000X0.000000X-0.295000X0.000000X-0.295000X0.000000X0.295000X0.000000X0*%
%ADD29RoundRect,0.101600X3.150000X0.925000X-3.150000X0.925000X-3.150000X-0.925000X3.150000X-0.925000X0*%
%ADD30RoundRect,0.101600X3.150000X2.775000X-3.150000X2.775000X-3.150000X-2.775000X3.150000X-2.775000X0*%
%ADD31C,0.990600*%
%ADD32C,0.787400*%
%ADD33R,1.193800X0.711200*%
%ADD34RoundRect,0.250000X-0.550000X1.500000X-0.550000X-1.500000X0.550000X-1.500000X0.550000X1.500000X0*%
G04 APERTURE END LIST*
D10*
X85450000Y-95700000D02*
X125430000Y-95700000D01*
X125430000Y-95700000D02*
X125430000Y-135690000D01*
X125430000Y-135690000D02*
X85450000Y-135690000D01*
X85450000Y-135690000D02*
X85450000Y-95700000D01*
X117414880Y-140152046D02*
X116938690Y-139818713D01*
X117414880Y-139580618D02*
X116414880Y-139580618D01*
X116414880Y-139580618D02*
X116414880Y-139961570D01*
X116414880Y-139961570D02*
X116462500Y-140056808D01*
X116462500Y-140056808D02*
X116510119Y-140104427D01*
X116510119Y-140104427D02*
X116605357Y-140152046D01*
X116605357Y-140152046D02*
X116748214Y-140152046D01*
X116748214Y-140152046D02*
X116843452Y-140104427D01*
X116843452Y-140104427D02*
X116891071Y-140056808D01*
X116891071Y-140056808D02*
X116938690Y-139961570D01*
X116938690Y-139961570D02*
X116938690Y-139580618D01*
X117367261Y-140532999D02*
X117414880Y-140675856D01*
X117414880Y-140675856D02*
X117414880Y-140913951D01*
X117414880Y-140913951D02*
X117367261Y-141009189D01*
X117367261Y-141009189D02*
X117319642Y-141056808D01*
X117319642Y-141056808D02*
X117224404Y-141104427D01*
X117224404Y-141104427D02*
X117129166Y-141104427D01*
X117129166Y-141104427D02*
X117033928Y-141056808D01*
X117033928Y-141056808D02*
X116986309Y-141009189D01*
X116986309Y-141009189D02*
X116938690Y-140913951D01*
X116938690Y-140913951D02*
X116891071Y-140723475D01*
X116891071Y-140723475D02*
X116843452Y-140628237D01*
X116843452Y-140628237D02*
X116795833Y-140580618D01*
X116795833Y-140580618D02*
X116700595Y-140532999D01*
X116700595Y-140532999D02*
X116605357Y-140532999D01*
X116605357Y-140532999D02*
X116510119Y-140580618D01*
X116510119Y-140580618D02*
X116462500Y-140628237D01*
X116462500Y-140628237D02*
X116414880Y-140723475D01*
X116414880Y-140723475D02*
X116414880Y-140961570D01*
X116414880Y-140961570D02*
X116462500Y-141104427D01*
X116414880Y-141390142D02*
X116414880Y-141961570D01*
X117414880Y-141675856D02*
X116414880Y-141675856D01*
X91576380Y-138827523D02*
X91576380Y-138351333D01*
X91576380Y-138351333D02*
X92052571Y-138303714D01*
X92052571Y-138303714D02*
X92004952Y-138351333D01*
X92004952Y-138351333D02*
X91957333Y-138446571D01*
X91957333Y-138446571D02*
X91957333Y-138684666D01*
X91957333Y-138684666D02*
X92004952Y-138779904D01*
X92004952Y-138779904D02*
X92052571Y-138827523D01*
X92052571Y-138827523D02*
X92147809Y-138875142D01*
X92147809Y-138875142D02*
X92385904Y-138875142D01*
X92385904Y-138875142D02*
X92481142Y-138827523D01*
X92481142Y-138827523D02*
X92528761Y-138779904D01*
X92528761Y-138779904D02*
X92576380Y-138684666D01*
X92576380Y-138684666D02*
X92576380Y-138446571D01*
X92576380Y-138446571D02*
X92528761Y-138351333D01*
X92528761Y-138351333D02*
X92481142Y-138303714D01*
X91576380Y-139160857D02*
X92576380Y-139494190D01*
X92576380Y-139494190D02*
X91576380Y-139827523D01*
X109817380Y-140056809D02*
X109817380Y-139485381D01*
X109817380Y-139771095D02*
X108817380Y-139771095D01*
X108817380Y-139771095D02*
X108960238Y-139675857D01*
X108960238Y-139675857D02*
X109055476Y-139580619D01*
X109055476Y-139580619D02*
X109103095Y-139485381D01*
X108817380Y-140342524D02*
X109817380Y-140675857D01*
X109817380Y-140675857D02*
X108817380Y-141009190D01*
X109245952Y-141485381D02*
X109198333Y-141390143D01*
X109198333Y-141390143D02*
X109150714Y-141342524D01*
X109150714Y-141342524D02*
X109055476Y-141294905D01*
X109055476Y-141294905D02*
X109007857Y-141294905D01*
X109007857Y-141294905D02*
X108912619Y-141342524D01*
X108912619Y-141342524D02*
X108865000Y-141390143D01*
X108865000Y-141390143D02*
X108817380Y-141485381D01*
X108817380Y-141485381D02*
X108817380Y-141675857D01*
X108817380Y-141675857D02*
X108865000Y-141771095D01*
X108865000Y-141771095D02*
X108912619Y-141818714D01*
X108912619Y-141818714D02*
X109007857Y-141866333D01*
X109007857Y-141866333D02*
X109055476Y-141866333D01*
X109055476Y-141866333D02*
X109150714Y-141818714D01*
X109150714Y-141818714D02*
X109198333Y-141771095D01*
X109198333Y-141771095D02*
X109245952Y-141675857D01*
X109245952Y-141675857D02*
X109245952Y-141485381D01*
X109245952Y-141485381D02*
X109293571Y-141390143D01*
X109293571Y-141390143D02*
X109341190Y-141342524D01*
X109341190Y-141342524D02*
X109436428Y-141294905D01*
X109436428Y-141294905D02*
X109626904Y-141294905D01*
X109626904Y-141294905D02*
X109722142Y-141342524D01*
X109722142Y-141342524D02*
X109769761Y-141390143D01*
X109769761Y-141390143D02*
X109817380Y-141485381D01*
X109817380Y-141485381D02*
X109817380Y-141675857D01*
X109817380Y-141675857D02*
X109769761Y-141771095D01*
X109769761Y-141771095D02*
X109722142Y-141818714D01*
X109722142Y-141818714D02*
X109626904Y-141866333D01*
X109626904Y-141866333D02*
X109436428Y-141866333D01*
X109436428Y-141866333D02*
X109341190Y-141818714D01*
X109341190Y-141818714D02*
X109293571Y-141771095D01*
X109293571Y-141771095D02*
X109245952Y-141675857D01*
X105945238Y-110429761D02*
X106802380Y-111715476D01*
X105059523Y-110572619D02*
X105011904Y-110525000D01*
X105011904Y-110525000D02*
X104916666Y-110477380D01*
X104916666Y-110477380D02*
X104678571Y-110477380D01*
X104678571Y-110477380D02*
X104583333Y-110525000D01*
X104583333Y-110525000D02*
X104535714Y-110572619D01*
X104535714Y-110572619D02*
X104488095Y-110667857D01*
X104488095Y-110667857D02*
X104488095Y-110763095D01*
X104488095Y-110763095D02*
X104535714Y-110905952D01*
X104535714Y-110905952D02*
X105107142Y-111477380D01*
X105107142Y-111477380D02*
X104488095Y-111477380D01*
X103535714Y-111477380D02*
X104107142Y-111477380D01*
X103821428Y-111477380D02*
X103821428Y-110477380D01*
X103821428Y-110477380D02*
X103916666Y-110620238D01*
X103916666Y-110620238D02*
X104011904Y-110715476D01*
X104011904Y-110715476D02*
X104107142Y-110763095D01*
X103107142Y-111477380D02*
X103107142Y-110477380D01*
X103107142Y-110477380D02*
X102773809Y-111191666D01*
X102773809Y-111191666D02*
X102440476Y-110477380D01*
X102440476Y-110477380D02*
X102440476Y-111477380D01*
X87078809Y-88535571D02*
X86935952Y-88583190D01*
X86935952Y-88583190D02*
X86888333Y-88630809D01*
X86888333Y-88630809D02*
X86840714Y-88726047D01*
X86840714Y-88726047D02*
X86840714Y-88868904D01*
X86840714Y-88868904D02*
X86888333Y-88964142D01*
X86888333Y-88964142D02*
X86935952Y-89011761D01*
X86935952Y-89011761D02*
X87031190Y-89059380D01*
X87031190Y-89059380D02*
X87412142Y-89059380D01*
X87412142Y-89059380D02*
X87412142Y-88059380D01*
X87412142Y-88059380D02*
X87078809Y-88059380D01*
X87078809Y-88059380D02*
X86983571Y-88107000D01*
X86983571Y-88107000D02*
X86935952Y-88154619D01*
X86935952Y-88154619D02*
X86888333Y-88249857D01*
X86888333Y-88249857D02*
X86888333Y-88345095D01*
X86888333Y-88345095D02*
X86935952Y-88440333D01*
X86935952Y-88440333D02*
X86983571Y-88487952D01*
X86983571Y-88487952D02*
X87078809Y-88535571D01*
X87078809Y-88535571D02*
X87412142Y-88535571D01*
X86412142Y-89059380D02*
X86412142Y-88059380D01*
X86412142Y-88059380D02*
X86078809Y-88773666D01*
X86078809Y-88773666D02*
X85745476Y-88059380D01*
X85745476Y-88059380D02*
X85745476Y-89059380D01*
X84745476Y-89059380D02*
X85316904Y-89059380D01*
X85031190Y-89059380D02*
X85031190Y-88059380D01*
X85031190Y-88059380D02*
X85126428Y-88202238D01*
X85126428Y-88202238D02*
X85221666Y-88297476D01*
X85221666Y-88297476D02*
X85316904Y-88345095D01*
X84412142Y-88059380D02*
X83793095Y-88059380D01*
X83793095Y-88059380D02*
X84126428Y-88440333D01*
X84126428Y-88440333D02*
X83983571Y-88440333D01*
X83983571Y-88440333D02*
X83888333Y-88487952D01*
X83888333Y-88487952D02*
X83840714Y-88535571D01*
X83840714Y-88535571D02*
X83793095Y-88630809D01*
X83793095Y-88630809D02*
X83793095Y-88868904D01*
X83793095Y-88868904D02*
X83840714Y-88964142D01*
X83840714Y-88964142D02*
X83888333Y-89011761D01*
X83888333Y-89011761D02*
X83983571Y-89059380D01*
X83983571Y-89059380D02*
X84269285Y-89059380D01*
X84269285Y-89059380D02*
X84364523Y-89011761D01*
X84364523Y-89011761D02*
X84412142Y-88964142D01*
X83316904Y-89059380D02*
X83126428Y-89059380D01*
X83126428Y-89059380D02*
X83031190Y-89011761D01*
X83031190Y-89011761D02*
X82983571Y-88964142D01*
X82983571Y-88964142D02*
X82888333Y-88821285D01*
X82888333Y-88821285D02*
X82840714Y-88630809D01*
X82840714Y-88630809D02*
X82840714Y-88249857D01*
X82840714Y-88249857D02*
X82888333Y-88154619D01*
X82888333Y-88154619D02*
X82935952Y-88107000D01*
X82935952Y-88107000D02*
X83031190Y-88059380D01*
X83031190Y-88059380D02*
X83221666Y-88059380D01*
X83221666Y-88059380D02*
X83316904Y-88107000D01*
X83316904Y-88107000D02*
X83364523Y-88154619D01*
X83364523Y-88154619D02*
X83412142Y-88249857D01*
X83412142Y-88249857D02*
X83412142Y-88487952D01*
X83412142Y-88487952D02*
X83364523Y-88583190D01*
X83364523Y-88583190D02*
X83316904Y-88630809D01*
X83316904Y-88630809D02*
X83221666Y-88678428D01*
X83221666Y-88678428D02*
X83031190Y-88678428D01*
X83031190Y-88678428D02*
X82935952Y-88630809D01*
X82935952Y-88630809D02*
X82888333Y-88583190D01*
X82888333Y-88583190D02*
X82840714Y-88487952D01*
X82507380Y-88059380D02*
X81840714Y-88059380D01*
X81840714Y-88059380D02*
X82269285Y-89059380D01*
X81002618Y-88059380D02*
X80669285Y-89059380D01*
X80669285Y-89059380D02*
X80335952Y-88059380D01*
X80050237Y-88154619D02*
X80002618Y-88107000D01*
X80002618Y-88107000D02*
X79907380Y-88059380D01*
X79907380Y-88059380D02*
X79669285Y-88059380D01*
X79669285Y-88059380D02*
X79574047Y-88107000D01*
X79574047Y-88107000D02*
X79526428Y-88154619D01*
X79526428Y-88154619D02*
X79478809Y-88249857D01*
X79478809Y-88249857D02*
X79478809Y-88345095D01*
X79478809Y-88345095D02*
X79526428Y-88487952D01*
X79526428Y-88487952D02*
X80097856Y-89059380D01*
X80097856Y-89059380D02*
X79478809Y-89059380D01*
X79050237Y-88964142D02*
X79002618Y-89011761D01*
X79002618Y-89011761D02*
X79050237Y-89059380D01*
X79050237Y-89059380D02*
X79097856Y-89011761D01*
X79097856Y-89011761D02*
X79050237Y-88964142D01*
X79050237Y-88964142D02*
X79050237Y-89059380D01*
X78621666Y-88154619D02*
X78574047Y-88107000D01*
X78574047Y-88107000D02*
X78478809Y-88059380D01*
X78478809Y-88059380D02*
X78240714Y-88059380D01*
X78240714Y-88059380D02*
X78145476Y-88107000D01*
X78145476Y-88107000D02*
X78097857Y-88154619D01*
X78097857Y-88154619D02*
X78050238Y-88249857D01*
X78050238Y-88249857D02*
X78050238Y-88345095D01*
X78050238Y-88345095D02*
X78097857Y-88487952D01*
X78097857Y-88487952D02*
X78669285Y-89059380D01*
X78669285Y-89059380D02*
X78050238Y-89059380D01*
D11*
X108279523Y-110742380D02*
X108089047Y-110647142D01*
X108089047Y-110647142D02*
X107898571Y-110742380D01*
X107898571Y-110742380D02*
X107803333Y-110932857D01*
X107803333Y-110932857D02*
X107898571Y-111123333D01*
X107898571Y-111123333D02*
X108089047Y-111218571D01*
X108089047Y-111218571D02*
X108279523Y-111123333D01*
X108279523Y-111123333D02*
X108660475Y-110742380D01*
X108660475Y-110742380D02*
X108850952Y-110647142D01*
X108850952Y-110647142D02*
X109041428Y-110742380D01*
X109041428Y-110742380D02*
X109136666Y-110932857D01*
X109136666Y-110932857D02*
X109041428Y-111123333D01*
X109041428Y-111123333D02*
X108850952Y-111218571D01*
X108850952Y-111218571D02*
X108660475Y-111123333D01*
X108660475Y-111123333D02*
X108279523Y-110742380D01*
D10*
X112349880Y-140437762D02*
X111873690Y-140104429D01*
X112349880Y-139866334D02*
X111349880Y-139866334D01*
X111349880Y-139866334D02*
X111349880Y-140247286D01*
X111349880Y-140247286D02*
X111397500Y-140342524D01*
X111397500Y-140342524D02*
X111445119Y-140390143D01*
X111445119Y-140390143D02*
X111540357Y-140437762D01*
X111540357Y-140437762D02*
X111683214Y-140437762D01*
X111683214Y-140437762D02*
X111778452Y-140390143D01*
X111778452Y-140390143D02*
X111826071Y-140342524D01*
X111826071Y-140342524D02*
X111873690Y-140247286D01*
X111873690Y-140247286D02*
X111873690Y-139866334D01*
X111349880Y-140771096D02*
X112349880Y-141437762D01*
X111349880Y-141437762D02*
X112349880Y-140771096D01*
X112349880Y-141818715D02*
X111349880Y-141818715D01*
X97632380Y-136958238D02*
X96632380Y-136958238D01*
X96632380Y-136958238D02*
X96632380Y-137339190D01*
X96632380Y-137339190D02*
X96680000Y-137434428D01*
X96680000Y-137434428D02*
X96727619Y-137482047D01*
X96727619Y-137482047D02*
X96822857Y-137529666D01*
X96822857Y-137529666D02*
X96965714Y-137529666D01*
X96965714Y-137529666D02*
X97060952Y-137482047D01*
X97060952Y-137482047D02*
X97108571Y-137434428D01*
X97108571Y-137434428D02*
X97156190Y-137339190D01*
X97156190Y-137339190D02*
X97156190Y-136958238D01*
X96632380Y-137863000D02*
X97632380Y-138101095D01*
X97632380Y-138101095D02*
X96918095Y-138291571D01*
X96918095Y-138291571D02*
X97632380Y-138482047D01*
X97632380Y-138482047D02*
X96632380Y-138720143D01*
X97632380Y-139101095D02*
X96632380Y-139101095D01*
X96632380Y-139101095D02*
X97346666Y-139434428D01*
X97346666Y-139434428D02*
X96632380Y-139767761D01*
X96632380Y-139767761D02*
X97632380Y-139767761D01*
X118995000Y-139771095D02*
X118947380Y-139675857D01*
X118947380Y-139675857D02*
X118947380Y-139533000D01*
X118947380Y-139533000D02*
X118995000Y-139390143D01*
X118995000Y-139390143D02*
X119090238Y-139294905D01*
X119090238Y-139294905D02*
X119185476Y-139247286D01*
X119185476Y-139247286D02*
X119375952Y-139199667D01*
X119375952Y-139199667D02*
X119518809Y-139199667D01*
X119518809Y-139199667D02*
X119709285Y-139247286D01*
X119709285Y-139247286D02*
X119804523Y-139294905D01*
X119804523Y-139294905D02*
X119899761Y-139390143D01*
X119899761Y-139390143D02*
X119947380Y-139533000D01*
X119947380Y-139533000D02*
X119947380Y-139628238D01*
X119947380Y-139628238D02*
X119899761Y-139771095D01*
X119899761Y-139771095D02*
X119852142Y-139818714D01*
X119852142Y-139818714D02*
X119518809Y-139818714D01*
X119518809Y-139818714D02*
X119518809Y-139628238D01*
X119947380Y-140247286D02*
X118947380Y-140247286D01*
X118947380Y-140247286D02*
X119947380Y-140818714D01*
X119947380Y-140818714D02*
X118947380Y-140818714D01*
X119947380Y-141294905D02*
X118947380Y-141294905D01*
X118947380Y-141294905D02*
X118947380Y-141533000D01*
X118947380Y-141533000D02*
X118995000Y-141675857D01*
X118995000Y-141675857D02*
X119090238Y-141771095D01*
X119090238Y-141771095D02*
X119185476Y-141818714D01*
X119185476Y-141818714D02*
X119375952Y-141866333D01*
X119375952Y-141866333D02*
X119518809Y-141866333D01*
X119518809Y-141866333D02*
X119709285Y-141818714D01*
X119709285Y-141818714D02*
X119804523Y-141771095D01*
X119804523Y-141771095D02*
X119899761Y-141675857D01*
X119899761Y-141675857D02*
X119947380Y-141533000D01*
X119947380Y-141533000D02*
X119947380Y-141294905D01*
X113882380Y-139390143D02*
X113882380Y-139961571D01*
X114882380Y-139675857D02*
X113882380Y-139675857D01*
X113882380Y-140199667D02*
X114882380Y-140866333D01*
X113882380Y-140866333D02*
X114882380Y-140199667D01*
X113882380Y-141437762D02*
X113882380Y-141628238D01*
X113882380Y-141628238D02*
X113930000Y-141723476D01*
X113930000Y-141723476D02*
X114025238Y-141818714D01*
X114025238Y-141818714D02*
X114215714Y-141866333D01*
X114215714Y-141866333D02*
X114549047Y-141866333D01*
X114549047Y-141866333D02*
X114739523Y-141818714D01*
X114739523Y-141818714D02*
X114834761Y-141723476D01*
X114834761Y-141723476D02*
X114882380Y-141628238D01*
X114882380Y-141628238D02*
X114882380Y-141437762D01*
X114882380Y-141437762D02*
X114834761Y-141342524D01*
X114834761Y-141342524D02*
X114739523Y-141247286D01*
X114739523Y-141247286D02*
X114549047Y-141199667D01*
X114549047Y-141199667D02*
X114215714Y-141199667D01*
X114215714Y-141199667D02*
X114025238Y-141247286D01*
X114025238Y-141247286D02*
X113930000Y-141342524D01*
X113930000Y-141342524D02*
X113882380Y-141437762D01*
X94099880Y-137482047D02*
X94099880Y-138053475D01*
X95099880Y-137767761D02*
X94099880Y-137767761D01*
X94814166Y-138339190D02*
X94814166Y-138815380D01*
X95099880Y-138243952D02*
X94099880Y-138577285D01*
X94099880Y-138577285D02*
X95099880Y-138910618D01*
X95004642Y-139815380D02*
X95052261Y-139767761D01*
X95052261Y-139767761D02*
X95099880Y-139624904D01*
X95099880Y-139624904D02*
X95099880Y-139529666D01*
X95099880Y-139529666D02*
X95052261Y-139386809D01*
X95052261Y-139386809D02*
X94957023Y-139291571D01*
X94957023Y-139291571D02*
X94861785Y-139243952D01*
X94861785Y-139243952D02*
X94671309Y-139196333D01*
X94671309Y-139196333D02*
X94528452Y-139196333D01*
X94528452Y-139196333D02*
X94337976Y-139243952D01*
X94337976Y-139243952D02*
X94242738Y-139291571D01*
X94242738Y-139291571D02*
X94147500Y-139386809D01*
X94147500Y-139386809D02*
X94099880Y-139529666D01*
X94099880Y-139529666D02*
X94099880Y-139624904D01*
X94099880Y-139624904D02*
X94147500Y-139767761D01*
X94147500Y-139767761D02*
X94195119Y-139815380D01*
X89082500Y-137720143D02*
X89034880Y-137624905D01*
X89034880Y-137624905D02*
X89034880Y-137482048D01*
X89034880Y-137482048D02*
X89082500Y-137339191D01*
X89082500Y-137339191D02*
X89177738Y-137243953D01*
X89177738Y-137243953D02*
X89272976Y-137196334D01*
X89272976Y-137196334D02*
X89463452Y-137148715D01*
X89463452Y-137148715D02*
X89606309Y-137148715D01*
X89606309Y-137148715D02*
X89796785Y-137196334D01*
X89796785Y-137196334D02*
X89892023Y-137243953D01*
X89892023Y-137243953D02*
X89987261Y-137339191D01*
X89987261Y-137339191D02*
X90034880Y-137482048D01*
X90034880Y-137482048D02*
X90034880Y-137577286D01*
X90034880Y-137577286D02*
X89987261Y-137720143D01*
X89987261Y-137720143D02*
X89939642Y-137767762D01*
X89939642Y-137767762D02*
X89606309Y-137767762D01*
X89606309Y-137767762D02*
X89606309Y-137577286D01*
X90034880Y-138196334D02*
X89034880Y-138196334D01*
X89034880Y-138196334D02*
X90034880Y-138767762D01*
X90034880Y-138767762D02*
X89034880Y-138767762D01*
X90034880Y-139243953D02*
X89034880Y-139243953D01*
X89034880Y-139243953D02*
X89034880Y-139482048D01*
X89034880Y-139482048D02*
X89082500Y-139624905D01*
X89082500Y-139624905D02*
X89177738Y-139720143D01*
X89177738Y-139720143D02*
X89272976Y-139767762D01*
X89272976Y-139767762D02*
X89463452Y-139815381D01*
X89463452Y-139815381D02*
X89606309Y-139815381D01*
X89606309Y-139815381D02*
X89796785Y-139767762D01*
X89796785Y-139767762D02*
X89892023Y-139720143D01*
X89892023Y-139720143D02*
X89987261Y-139624905D01*
X89987261Y-139624905D02*
X90034880Y-139482048D01*
X90034880Y-139482048D02*
X90034880Y-139243953D01*
%TO.C,J10*%
X123900380Y-88190476D02*
X124614666Y-88190476D01*
X124614666Y-88190476D02*
X124757523Y-88142857D01*
X124757523Y-88142857D02*
X124852761Y-88047619D01*
X124852761Y-88047619D02*
X124900380Y-87904762D01*
X124900380Y-87904762D02*
X124900380Y-87809524D01*
X124900380Y-89190476D02*
X124900380Y-88619048D01*
X124900380Y-88904762D02*
X123900380Y-88904762D01*
X123900380Y-88904762D02*
X124043238Y-88809524D01*
X124043238Y-88809524D02*
X124138476Y-88714286D01*
X124138476Y-88714286D02*
X124186095Y-88619048D01*
X123900380Y-89809524D02*
X123900380Y-89904762D01*
X123900380Y-89904762D02*
X123948000Y-90000000D01*
X123948000Y-90000000D02*
X123995619Y-90047619D01*
X123995619Y-90047619D02*
X124090857Y-90095238D01*
X124090857Y-90095238D02*
X124281333Y-90142857D01*
X124281333Y-90142857D02*
X124519428Y-90142857D01*
X124519428Y-90142857D02*
X124709904Y-90095238D01*
X124709904Y-90095238D02*
X124805142Y-90047619D01*
X124805142Y-90047619D02*
X124852761Y-90000000D01*
X124852761Y-90000000D02*
X124900380Y-89904762D01*
X124900380Y-89904762D02*
X124900380Y-89809524D01*
X124900380Y-89809524D02*
X124852761Y-89714286D01*
X124852761Y-89714286D02*
X124805142Y-89666667D01*
X124805142Y-89666667D02*
X124709904Y-89619048D01*
X124709904Y-89619048D02*
X124519428Y-89571429D01*
X124519428Y-89571429D02*
X124281333Y-89571429D01*
X124281333Y-89571429D02*
X124090857Y-89619048D01*
X124090857Y-89619048D02*
X123995619Y-89666667D01*
X123995619Y-89666667D02*
X123948000Y-89714286D01*
X123948000Y-89714286D02*
X123900380Y-89809524D01*
%TO.C,J7*%
X81003333Y-75907380D02*
X81003333Y-76621666D01*
X81003333Y-76621666D02*
X81050952Y-76764523D01*
X81050952Y-76764523D02*
X81146190Y-76859761D01*
X81146190Y-76859761D02*
X81289047Y-76907380D01*
X81289047Y-76907380D02*
X81384285Y-76907380D01*
X80622380Y-75907380D02*
X79955714Y-75907380D01*
X79955714Y-75907380D02*
X80384285Y-76907380D01*
%TO.C,C28*%
X106790857Y-137347142D02*
X106838476Y-137394761D01*
X106838476Y-137394761D02*
X106981333Y-137442380D01*
X106981333Y-137442380D02*
X107076571Y-137442380D01*
X107076571Y-137442380D02*
X107219428Y-137394761D01*
X107219428Y-137394761D02*
X107314666Y-137299523D01*
X107314666Y-137299523D02*
X107362285Y-137204285D01*
X107362285Y-137204285D02*
X107409904Y-137013809D01*
X107409904Y-137013809D02*
X107409904Y-136870952D01*
X107409904Y-136870952D02*
X107362285Y-136680476D01*
X107362285Y-136680476D02*
X107314666Y-136585238D01*
X107314666Y-136585238D02*
X107219428Y-136490000D01*
X107219428Y-136490000D02*
X107076571Y-136442380D01*
X107076571Y-136442380D02*
X106981333Y-136442380D01*
X106981333Y-136442380D02*
X106838476Y-136490000D01*
X106838476Y-136490000D02*
X106790857Y-136537619D01*
X106409904Y-136537619D02*
X106362285Y-136490000D01*
X106362285Y-136490000D02*
X106267047Y-136442380D01*
X106267047Y-136442380D02*
X106028952Y-136442380D01*
X106028952Y-136442380D02*
X105933714Y-136490000D01*
X105933714Y-136490000D02*
X105886095Y-136537619D01*
X105886095Y-136537619D02*
X105838476Y-136632857D01*
X105838476Y-136632857D02*
X105838476Y-136728095D01*
X105838476Y-136728095D02*
X105886095Y-136870952D01*
X105886095Y-136870952D02*
X106457523Y-137442380D01*
X106457523Y-137442380D02*
X105838476Y-137442380D01*
X105267047Y-136870952D02*
X105362285Y-136823333D01*
X105362285Y-136823333D02*
X105409904Y-136775714D01*
X105409904Y-136775714D02*
X105457523Y-136680476D01*
X105457523Y-136680476D02*
X105457523Y-136632857D01*
X105457523Y-136632857D02*
X105409904Y-136537619D01*
X105409904Y-136537619D02*
X105362285Y-136490000D01*
X105362285Y-136490000D02*
X105267047Y-136442380D01*
X105267047Y-136442380D02*
X105076571Y-136442380D01*
X105076571Y-136442380D02*
X104981333Y-136490000D01*
X104981333Y-136490000D02*
X104933714Y-136537619D01*
X104933714Y-136537619D02*
X104886095Y-136632857D01*
X104886095Y-136632857D02*
X104886095Y-136680476D01*
X104886095Y-136680476D02*
X104933714Y-136775714D01*
X104933714Y-136775714D02*
X104981333Y-136823333D01*
X104981333Y-136823333D02*
X105076571Y-136870952D01*
X105076571Y-136870952D02*
X105267047Y-136870952D01*
X105267047Y-136870952D02*
X105362285Y-136918571D01*
X105362285Y-136918571D02*
X105409904Y-136966190D01*
X105409904Y-136966190D02*
X105457523Y-137061428D01*
X105457523Y-137061428D02*
X105457523Y-137251904D01*
X105457523Y-137251904D02*
X105409904Y-137347142D01*
X105409904Y-137347142D02*
X105362285Y-137394761D01*
X105362285Y-137394761D02*
X105267047Y-137442380D01*
X105267047Y-137442380D02*
X105076571Y-137442380D01*
X105076571Y-137442380D02*
X104981333Y-137394761D01*
X104981333Y-137394761D02*
X104933714Y-137347142D01*
X104933714Y-137347142D02*
X104886095Y-137251904D01*
X104886095Y-137251904D02*
X104886095Y-137061428D01*
X104886095Y-137061428D02*
X104933714Y-136966190D01*
X104933714Y-136966190D02*
X104981333Y-136918571D01*
X104981333Y-136918571D02*
X105076571Y-136870952D01*
D12*
%TO.C,J10*%
X132047000Y-87262500D02*
X132047000Y-90945500D01*
X125443000Y-90945500D02*
X125443000Y-87262500D01*
D13*
X132394779Y-91884000D02*
G75*
G03*
X132394779Y-91884000I-199779J0D01*
G01*
D12*
%TO.C,J4*%
X98663400Y-146289000D02*
X95540175Y-146289000D01*
X88198600Y-146289000D02*
X88198600Y-140193000D01*
X93861825Y-146289000D02*
X88198600Y-146289000D01*
X88198600Y-140193000D02*
X98663400Y-140193000D01*
X98663400Y-140193000D02*
X98663400Y-146289000D01*
%TO.C,J9*%
X86189000Y-51319000D02*
X86189000Y-58999000D01*
X86189000Y-48719000D02*
X84859000Y-48719000D01*
X83529000Y-51319000D02*
X83529000Y-58999000D01*
X86189000Y-58999000D02*
X83529000Y-58999000D01*
X86189000Y-51319000D02*
X83529000Y-51319000D01*
X86189000Y-50049000D02*
X86189000Y-48719000D01*
%TO.C,J2*%
X86650000Y-66640000D02*
X86650000Y-60140000D01*
X86650000Y-60140000D02*
X78650000Y-60140000D01*
X78650000Y-60140000D02*
X78650000Y-66640000D01*
X78650000Y-66640000D02*
X86650000Y-66640000D01*
%TO.C,J1*%
X86650000Y-74060000D02*
X86650000Y-67560000D01*
X78650000Y-67560000D02*
X78650000Y-74060000D01*
X78650000Y-74060000D02*
X86650000Y-74060000D01*
X86650000Y-67560000D02*
X78650000Y-67560000D01*
%TO.C,J6*%
X102896000Y-51129000D02*
X120736000Y-51129000D01*
X102896000Y-48469000D02*
X120736000Y-48469000D01*
X100296000Y-48469000D02*
X100296000Y-49799000D01*
X102896000Y-48469000D02*
X102896000Y-51129000D01*
X101626000Y-48469000D02*
X100296000Y-48469000D01*
X120736000Y-48469000D02*
X120736000Y-51129000D01*
%TO.C,J7*%
X83000000Y-75210000D02*
X81670000Y-75210000D01*
X84270000Y-77870000D02*
X86870000Y-77870000D01*
X84270000Y-75210000D02*
X86870000Y-75210000D01*
X84270000Y-75210000D02*
X84270000Y-77870000D01*
X86870000Y-75210000D02*
X86870000Y-77870000D01*
X81670000Y-75210000D02*
X81670000Y-76540000D01*
%TO.C,J3*%
X109350000Y-142250000D02*
X108020000Y-142250000D01*
X110620000Y-142250000D02*
X120840000Y-142250000D01*
X120840000Y-142250000D02*
X120840000Y-144910000D01*
X108020000Y-142250000D02*
X108020000Y-143580000D01*
X110620000Y-144910000D02*
X120840000Y-144910000D01*
X110620000Y-142250000D02*
X110620000Y-144910000D01*
%TO.C,U12*%
X114610000Y-63960000D02*
X113860000Y-63960000D01*
X114610000Y-81960000D02*
X113860000Y-81960000D01*
X113860000Y-63960000D02*
X113860000Y-64960000D01*
X113860000Y-81960000D02*
X113860000Y-80960000D01*
%TO.C,IC1*%
X109740000Y-112430000D02*
X101640000Y-112430000D01*
X101640000Y-112430000D02*
X101640000Y-120530000D01*
X101640000Y-120530000D02*
X109740000Y-120530000D01*
X109740000Y-120530000D02*
X109740000Y-112430000D01*
D11*
X110369000Y-112466000D02*
G75*
G03*
X110369000Y-112466000I-125000J0D01*
G01*
D12*
%TO.C,J5*%
X130035000Y-59000000D02*
X130035000Y-58365000D01*
X129400000Y-59000000D02*
X130035000Y-59000000D01*
D14*
%TO.C,U13*%
X112888747Y-53427400D02*
X112888747Y-56932600D01*
X112888747Y-56932600D02*
X109383547Y-56932600D01*
X109383547Y-53427400D02*
X112888747Y-53427400D01*
X109383547Y-56932600D02*
X109383547Y-53427400D01*
D15*
X113919000Y-53620000D02*
G75*
G03*
X113919000Y-53620000I-162853J0D01*
G01*
%TO.C,kibuzzard-6387EEBE*%
G36*
X99627057Y-60969709D02*
G01*
X98436432Y-60969709D01*
X98436432Y-60374396D01*
X99627057Y-60374396D01*
X100007105Y-60374396D01*
X100067470Y-60220806D01*
X100139979Y-60051499D01*
X100220346Y-59874334D01*
X100304285Y-59697169D01*
X100387152Y-59868976D01*
X100470020Y-60047213D01*
X100547173Y-60219734D01*
X100612895Y-60374396D01*
X100992943Y-60374396D01*
X100908646Y-60188659D01*
X100850067Y-60075788D01*
X100785774Y-59954344D01*
X100716837Y-59826828D01*
X100644328Y-59695740D01*
X100571461Y-59565367D01*
X100501452Y-59439994D01*
X100964368Y-58605604D01*
X100584320Y-58605604D01*
X100304285Y-59171389D01*
X100009963Y-58605604D01*
X99655632Y-58605604D01*
X100107118Y-59431421D01*
X100030679Y-59557151D01*
X99955670Y-59688596D01*
X99883875Y-59821113D01*
X99817081Y-59950058D01*
X99756717Y-60072930D01*
X99704210Y-60187230D01*
X99627057Y-60374396D01*
X98436432Y-60374396D01*
X98436432Y-58010291D01*
X99627057Y-58010291D01*
X100992943Y-58010291D01*
X102183568Y-58010291D01*
X102183568Y-60969709D01*
X100992943Y-60969709D01*
X100007105Y-60969709D01*
X99627057Y-60969709D01*
G37*
%TO.C,kibuzzard-6387EECB*%
G36*
X109366445Y-60909709D02*
G01*
X109366445Y-60022931D01*
X110557070Y-60022931D01*
X110557070Y-60314396D01*
X111722930Y-60314396D01*
X111722930Y-60111514D01*
X111657922Y-59985427D01*
X111588627Y-59852910D01*
X111512904Y-59712535D01*
X111428608Y-59562874D01*
X111336096Y-59402139D01*
X111235726Y-59228546D01*
X111126070Y-59040666D01*
X111005697Y-58837069D01*
X111685783Y-58837069D01*
X111685783Y-58545604D01*
X110582787Y-58545604D01*
X110582787Y-58791349D01*
X110700659Y-58974229D01*
X110808530Y-59145679D01*
X110907828Y-59307485D01*
X110999982Y-59461432D01*
X111086065Y-59608594D01*
X111167146Y-59750040D01*
X111243942Y-59887557D01*
X111317165Y-60022931D01*
X110557070Y-60022931D01*
X109366445Y-60022931D01*
X109366445Y-57950291D01*
X110557070Y-57950291D01*
X111722930Y-57950291D01*
X112913555Y-57950291D01*
X112913555Y-60909709D01*
X111722930Y-60909709D01*
X110557070Y-60909709D01*
X109366445Y-60909709D01*
G37*
D12*
%TO.C,C28*%
X101144437Y-138010000D02*
X102430000Y-138010000D01*
X106900000Y-139074437D02*
X106900000Y-144830000D01*
X100080000Y-144830000D02*
X102430000Y-144830000D01*
X105835563Y-138010000D02*
X106900000Y-139074437D01*
X105835563Y-138010000D02*
X104550000Y-138010000D01*
X101144437Y-138010000D02*
X100080000Y-139074437D01*
X100080000Y-139074437D02*
X100080000Y-144830000D01*
X106900000Y-144830000D02*
X104550000Y-144830000D01*
X101642500Y-136982500D02*
X101642500Y-137770000D01*
X101248750Y-137376250D02*
X102036250Y-137376250D01*
%TO.C,kibuzzard-6392B1E5*%
G36*
X87315530Y-66712655D02*
G01*
X87315530Y-66349752D01*
X88305177Y-66349752D01*
X88305177Y-66712655D01*
X88515204Y-66783378D01*
X88750947Y-66858387D01*
X88916524Y-66908870D01*
X89081782Y-66957447D01*
X89246724Y-67004120D01*
X89408490Y-67048252D01*
X89564224Y-67089210D01*
X89713925Y-67126992D01*
X89913950Y-67174141D01*
X90073970Y-67207002D01*
X90073970Y-66835527D01*
X89925737Y-66814096D01*
X89755359Y-66784092D01*
X89571050Y-66748017D01*
X89381026Y-66708369D01*
X89189574Y-66665506D01*
X89000979Y-66619786D01*
X88823457Y-66572995D01*
X88665222Y-66526917D01*
X88821313Y-66481197D01*
X88998121Y-66435477D01*
X89186716Y-66391186D01*
X89378169Y-66349752D01*
X89568550Y-66311176D01*
X89753930Y-66275457D01*
X89925380Y-66244025D01*
X90073970Y-66218307D01*
X90073970Y-65849690D01*
X89892519Y-65887909D01*
X89691065Y-65933986D01*
X89474252Y-65987564D01*
X89246724Y-66048286D01*
X89090514Y-66092577D01*
X88932399Y-66139726D01*
X88772379Y-66189732D01*
X88613152Y-66241802D01*
X88457419Y-66295142D01*
X88305177Y-66349752D01*
X87315530Y-66349752D01*
X87315530Y-62957900D01*
X88936685Y-62957900D01*
X88936685Y-64386650D01*
X89199575Y-64386650D01*
X89199575Y-62957900D01*
X88936685Y-62957900D01*
X87315530Y-62957900D01*
X87315530Y-60576650D01*
X91026470Y-60576650D01*
X91026470Y-62957900D01*
X91026470Y-71416100D01*
X91026470Y-73797350D01*
X87315530Y-73797350D01*
X87315530Y-71416100D01*
X87315530Y-70967472D01*
X88413762Y-70967472D01*
X88910967Y-70967472D01*
X88910967Y-71416100D01*
X89199575Y-71416100D01*
X89199575Y-70967472D01*
X89696780Y-70967472D01*
X89696780Y-70664577D01*
X89199575Y-70664577D01*
X89199575Y-70215950D01*
X88910967Y-70215950D01*
X88910967Y-70664577D01*
X88413762Y-70664577D01*
X88413762Y-70967472D01*
X87315530Y-70967472D01*
X87315530Y-70664577D01*
X87315530Y-68095685D01*
X88268030Y-68095685D01*
X88276602Y-68235702D01*
X88298034Y-68372862D01*
X88328037Y-68491449D01*
X88359470Y-68572887D01*
X88650935Y-68501450D01*
X88593785Y-68341430D01*
X88574497Y-68232131D01*
X88568067Y-68098542D01*
X88590927Y-67928521D01*
X88649506Y-67822794D01*
X88730945Y-67769930D01*
X88825242Y-67755642D01*
X88960974Y-67779931D01*
X89066701Y-67877086D01*
X89135281Y-68084255D01*
X89153498Y-68239274D01*
X89159570Y-68435727D01*
X89397100Y-68410010D01*
X89629629Y-68390007D01*
X89855728Y-68375006D01*
X90073970Y-68364290D01*
X90073970Y-67461320D01*
X89782505Y-67461320D01*
X89782505Y-68069967D01*
X89591052Y-68084255D01*
X89428175Y-68098542D01*
X89398965Y-67882325D01*
X89341815Y-67706113D01*
X89256725Y-67569905D01*
X89144330Y-67473068D01*
X89005265Y-67414965D01*
X88839530Y-67395597D01*
X88612359Y-67438460D01*
X88430907Y-67569905D01*
X88362327Y-67669203D01*
X88310892Y-67789932D01*
X88278746Y-67932093D01*
X88268030Y-68095685D01*
X87315530Y-68095685D01*
X87315530Y-66712655D01*
G37*
D14*
%TO.C,U4*%
X98549694Y-53457400D02*
X102054894Y-53457400D01*
X98549694Y-56962600D02*
X98549694Y-53457400D01*
X102054894Y-53457400D02*
X102054894Y-56962600D01*
X102054894Y-56962600D02*
X98549694Y-56962600D01*
D15*
X103085147Y-53650000D02*
G75*
G03*
X103085147Y-53650000I-162853J0D01*
G01*
%TO.C,kibuzzard-63D74789*%
G36*
X81486990Y-82810844D02*
G01*
X81717177Y-82985469D01*
X81860052Y-83239469D01*
X81927521Y-83533156D01*
X80435271Y-83533156D01*
X80474958Y-83243437D01*
X80601958Y-82993406D01*
X80824208Y-82814813D01*
X81157583Y-82747344D01*
X81486990Y-82810844D01*
G37*
G36*
X96405521Y-87496615D02*
G01*
X92532021Y-87496615D01*
X89198271Y-87496615D01*
X83332458Y-87496615D01*
X80887708Y-87496615D01*
X79490708Y-87496615D01*
X76514146Y-87496615D01*
X76514146Y-83842719D01*
X79490708Y-83842719D01*
X79494677Y-84041156D01*
X79506583Y-84207844D01*
X81927521Y-84207844D01*
X81852115Y-84534273D01*
X81625896Y-84783312D01*
X81280615Y-84941070D01*
X80848021Y-84993656D01*
X80288427Y-84930156D01*
X79839958Y-84803156D01*
X79705021Y-85636594D01*
X80244771Y-85783438D01*
X80887708Y-85842969D01*
X81339154Y-85812211D01*
X81585443Y-85755656D01*
X83332458Y-85755656D01*
X84348458Y-85755656D01*
X84562771Y-85372672D01*
X84777083Y-85033344D01*
X84985443Y-84731719D01*
X85181896Y-84461844D01*
X85408115Y-84775375D01*
X85610521Y-85080969D01*
X85803005Y-85400453D01*
X85999458Y-85755656D01*
X86991646Y-85755656D01*
X86940154Y-85668344D01*
X87618708Y-85668344D01*
X88253708Y-85779469D01*
X88700193Y-85827094D01*
X89198271Y-85842969D01*
X89845177Y-85779469D01*
X90182146Y-85636594D01*
X91341396Y-85636594D01*
X91924802Y-85795344D01*
X92532021Y-85842969D01*
X93135271Y-85787406D01*
X93530383Y-85596906D01*
X95349833Y-85596906D01*
X95917365Y-85791375D01*
X96405521Y-85842969D01*
X96755763Y-85815188D01*
X97044490Y-85731844D01*
X97457240Y-85410375D01*
X97675521Y-84898406D01*
X97723146Y-84574953D01*
X97739021Y-84207844D01*
X97739021Y-83890344D01*
X99294771Y-83890344D01*
X99324536Y-84314008D01*
X99413833Y-84696000D01*
X99560677Y-85030367D01*
X99763083Y-85311156D01*
X100019068Y-85536383D01*
X100326646Y-85704063D01*
X100683833Y-85808242D01*
X101088646Y-85842969D01*
X101473615Y-85829078D01*
X101866521Y-85787406D01*
X102231646Y-85723906D01*
X102533271Y-85644531D01*
X102533271Y-80413719D01*
X101556958Y-80247031D01*
X101556958Y-82112344D01*
X101160083Y-81981375D01*
X100779083Y-81945656D01*
X100435786Y-81980383D01*
X100136146Y-82084562D01*
X99671802Y-82481437D01*
X99508091Y-82764211D01*
X99390021Y-83096594D01*
X99318583Y-83473625D01*
X99294771Y-83890344D01*
X97739021Y-83890344D01*
X97739021Y-82834656D01*
X98770896Y-82834656D01*
X98770896Y-82025031D01*
X97421521Y-82025031D01*
X96762708Y-82025031D01*
X96762708Y-84334844D01*
X96639677Y-84830938D01*
X96230896Y-84993656D01*
X95905458Y-84957938D01*
X95476833Y-84811094D01*
X95349833Y-85596906D01*
X93530383Y-85596906D01*
X93579771Y-85573094D01*
X93857583Y-85124625D01*
X93929021Y-84790258D01*
X93952833Y-84366594D01*
X93952833Y-82834656D01*
X94802146Y-82834656D01*
X94802146Y-82025031D01*
X93952833Y-82025031D01*
X93952833Y-81088406D01*
X93122971Y-80953469D01*
X96802396Y-80953469D01*
X96984958Y-81405906D01*
X97421521Y-81572594D01*
X97854115Y-81405906D01*
X98032708Y-80953469D01*
X97854115Y-80493094D01*
X97421521Y-80326406D01*
X96984958Y-80493094D01*
X96802396Y-80953469D01*
X93122971Y-80953469D01*
X92976521Y-80929656D01*
X92976521Y-82025031D01*
X91412833Y-82025031D01*
X91412833Y-82834656D01*
X92976521Y-82834656D01*
X92976521Y-84342781D01*
X92936833Y-84676156D01*
X92825708Y-84874594D01*
X92651083Y-84969844D01*
X92420896Y-84993656D01*
X92170865Y-84985719D01*
X91948615Y-84957938D01*
X91726365Y-84898406D01*
X91476333Y-84795219D01*
X91341396Y-85636594D01*
X90182146Y-85636594D01*
X90341271Y-85569125D01*
X90658771Y-85188125D01*
X90769896Y-84612656D01*
X90642896Y-84064969D01*
X90301583Y-83707781D01*
X89809458Y-83513312D01*
X89230021Y-83453781D01*
X88870849Y-83469656D01*
X88555333Y-83517281D01*
X88555333Y-83398219D01*
X88729958Y-82933875D01*
X88968083Y-82793977D01*
X89333208Y-82747344D01*
X89868990Y-82787031D01*
X90285708Y-82882281D01*
X90420646Y-82096469D01*
X89904708Y-81981375D01*
X89565380Y-81942680D01*
X89214146Y-81929781D01*
X88792466Y-81956570D01*
X88448177Y-82036937D01*
X87960021Y-82338562D01*
X87698083Y-82814813D01*
X87618708Y-83445844D01*
X87618708Y-85668344D01*
X86940154Y-85668344D01*
X86717802Y-85291313D01*
X86392365Y-84799188D01*
X86035177Y-84303094D01*
X85674021Y-83834781D01*
X86983708Y-82025031D01*
X85959771Y-82025031D01*
X85134271Y-83191844D01*
X84372271Y-82025031D01*
X83380083Y-82025031D01*
X84586583Y-83818906D01*
X84213521Y-84307063D01*
X83864271Y-84826969D01*
X83562646Y-85327031D01*
X83332458Y-85755656D01*
X81585443Y-85755656D01*
X81740990Y-85719938D01*
X82090240Y-85567141D01*
X82383927Y-85354813D01*
X82619076Y-85083945D01*
X82792708Y-84755531D01*
X82899865Y-84368578D01*
X82935583Y-83922094D01*
X82897880Y-83459734D01*
X82784771Y-83056906D01*
X82610146Y-82714602D01*
X82387896Y-82433812D01*
X82123974Y-82214539D01*
X81824333Y-82056781D01*
X81502865Y-81961531D01*
X81173458Y-81929781D01*
X80667222Y-81984021D01*
X80249181Y-82146740D01*
X79919333Y-82417937D01*
X79681208Y-82793205D01*
X79538333Y-83268132D01*
X79490708Y-83842719D01*
X76514146Y-83842719D01*
X76514146Y-78593385D01*
X79490708Y-78593385D01*
X102533271Y-78593385D01*
X109147854Y-78593385D01*
X109147854Y-87496615D01*
X102533271Y-87496615D01*
X101088646Y-87496615D01*
X96405521Y-87496615D01*
G37*
G36*
X101291052Y-82830688D02*
G01*
X101556958Y-82937844D01*
X101556958Y-84961906D01*
X101322802Y-84993656D01*
X101112458Y-85001594D01*
X100771146Y-84937102D01*
X100509208Y-84743625D01*
X100342521Y-84395367D01*
X100286958Y-83866531D01*
X100329622Y-83404172D01*
X100457615Y-83064844D01*
X100672919Y-82856484D01*
X100977521Y-82787031D01*
X101291052Y-82830688D01*
G37*
G36*
X89325271Y-84156250D02*
G01*
X89575302Y-84223719D01*
X89745958Y-84358656D01*
X89809458Y-84588844D01*
X89618958Y-84950000D01*
X89126833Y-85057156D01*
X88817271Y-85053188D01*
X88555333Y-85033344D01*
X88555333Y-84176094D01*
X88785521Y-84148313D01*
X89031583Y-84136406D01*
X89325271Y-84156250D01*
G37*
%TD*%
%LPC*%
D12*
%TO.C,U12*%
X139360000Y-81960000D02*
X139360000Y-63960000D01*
%TD*%
D16*
%TO.C,J10*%
X131284999Y-90881999D03*
X131284999Y-87325999D03*
X130014999Y-90881999D03*
X130014999Y-87325999D03*
X128744999Y-90881999D03*
X128744999Y-87325999D03*
X127474999Y-90881999D03*
X127474999Y-87325999D03*
X126204999Y-90881999D03*
X126204999Y-87325999D03*
%TD*%
D17*
%TO.C,H6*%
X84764000Y-94984000D03*
%TD*%
%TO.C,H5*%
X126130000Y-136350000D03*
%TD*%
D18*
%TO.C,H4*%
X79987000Y-50603000D03*
%TD*%
%TO.C,H3*%
X130980000Y-144470000D03*
%TD*%
%TO.C,H2*%
X130683000Y-50604000D03*
%TD*%
%TO.C,H1*%
X80020000Y-144380000D03*
%TD*%
D19*
%TO.C,U9*%
X97251691Y-69422200D03*
X99151691Y-69422200D03*
X98201691Y-69997200D03*
X98201691Y-68847200D03*
%TD*%
D20*
%TO.C,J4*%
X94701000Y-145782001D03*
D21*
X89621000Y-143622000D03*
X92161000Y-143622000D03*
X94701000Y-143622000D03*
X97241000Y-143622000D03*
%TD*%
D22*
%TO.C,J9*%
X84858999Y-50048999D03*
D23*
X84858999Y-52588999D03*
X84858999Y-55128999D03*
X84858999Y-57668999D03*
%TD*%
D24*
%TO.C,J2*%
X85190000Y-63390000D03*
X80110000Y-63390000D03*
%TD*%
%TO.C,J1*%
X85190000Y-70810000D03*
X80110000Y-70810000D03*
%TD*%
D22*
%TO.C,J6*%
X101625999Y-49798999D03*
D23*
X104165999Y-49798999D03*
X106705999Y-49798999D03*
X109245999Y-49798999D03*
X111785999Y-49798999D03*
X114325999Y-49798999D03*
X116865999Y-49798999D03*
X119405999Y-49798999D03*
%TD*%
D22*
%TO.C,J7*%
X82999999Y-76539999D03*
D23*
X85539999Y-76539999D03*
%TD*%
D22*
%TO.C,J3*%
X109349999Y-143579999D03*
D23*
X111889999Y-143579999D03*
X114429999Y-143579999D03*
X116969999Y-143579999D03*
X119509999Y-143579999D03*
%TD*%
D25*
%TO.C,U12*%
X131869999Y-81709999D03*
X130599999Y-81709999D03*
X129329999Y-81709999D03*
X128059999Y-81709999D03*
X126789999Y-81709999D03*
X125519999Y-81709999D03*
X124249999Y-81709999D03*
X122979999Y-81709999D03*
X121709999Y-81709999D03*
X120439999Y-81709999D03*
X119169999Y-81709999D03*
X117899999Y-81709999D03*
X116629999Y-81709999D03*
X115359999Y-81709999D03*
D26*
X114109999Y-79944999D03*
X114109999Y-78674999D03*
X114109999Y-77404999D03*
X114109999Y-76134999D03*
X114109999Y-74864999D03*
X114109999Y-73594999D03*
X114109999Y-72324999D03*
X114109999Y-71054999D03*
X114109999Y-69784999D03*
X114109999Y-68514999D03*
X114109999Y-67244999D03*
X114109999Y-65974999D03*
D25*
X115359999Y-64209999D03*
X116629999Y-64209999D03*
X117899999Y-64209999D03*
X119169999Y-64209999D03*
X120439999Y-64209999D03*
X121709999Y-64209999D03*
X122979999Y-64209999D03*
X124249999Y-64209999D03*
X125519999Y-64209999D03*
X126789999Y-64209999D03*
X128059999Y-64209999D03*
X129329999Y-64209999D03*
X130599999Y-64209999D03*
X131869999Y-64209999D03*
D27*
X124149999Y-74459999D03*
X125549999Y-75859999D03*
X122749999Y-75859999D03*
X122749999Y-74459999D03*
X122749999Y-73059999D03*
X124149999Y-75859999D03*
X125549999Y-73059999D03*
X124149999Y-73059999D03*
X125549999Y-74459999D03*
%TD*%
D28*
%TO.C,IC1*%
X109624600Y-112880000D03*
X109624600Y-113360000D03*
X109624600Y-113840000D03*
X109624600Y-114320000D03*
X109624600Y-114800000D03*
X109624600Y-115280000D03*
X109624600Y-115760000D03*
X109624600Y-116240000D03*
X109624600Y-116720000D03*
X109624600Y-117200000D03*
X109624600Y-117680000D03*
X109624600Y-118160000D03*
X109624600Y-118640000D03*
X109624600Y-119120000D03*
X109624600Y-119600000D03*
X109624600Y-120080000D03*
X101755400Y-120080000D03*
X101755400Y-119600000D03*
X101755400Y-119120000D03*
X101755400Y-118640000D03*
X101755400Y-118160000D03*
X101755400Y-117680000D03*
X101755400Y-117200000D03*
X101755400Y-116720000D03*
X101755400Y-116240000D03*
X101755400Y-115760000D03*
X101755400Y-115280000D03*
X101755400Y-114800000D03*
X101755400Y-114320000D03*
X101755400Y-113840000D03*
X101755400Y-113360000D03*
X101755400Y-112880000D03*
D29*
X105690000Y-113480000D03*
D30*
X105690000Y-117680000D03*
%TD*%
D31*
%TO.C,J5*%
X125590000Y-56714000D03*
X130670000Y-57730000D03*
X125590000Y-58746000D03*
D32*
X129400000Y-58365000D03*
X129400000Y-57095000D03*
X128130000Y-58365000D03*
X128130000Y-57095000D03*
X126860000Y-58365000D03*
X126860000Y-57095000D03*
%TD*%
D33*
%TO.C,U13*%
X112698246Y-54179998D03*
X112698246Y-55179999D03*
X112698246Y-56180000D03*
X109574046Y-56180000D03*
X109574046Y-55179999D03*
X109574046Y-54179998D03*
%TD*%
D34*
%TO.C,C28*%
X103490000Y-138720000D03*
X103490000Y-144120000D03*
%TD*%
D33*
%TO.C,U4*%
X101864393Y-54209998D03*
X101864393Y-55209999D03*
X101864393Y-56210000D03*
X98740193Y-56210000D03*
X98740193Y-55209999D03*
X98740193Y-54209998D03*
%TD*%
M02*
