%TF.GenerationSoftware,KiCad,Pcbnew,7.0.9*%
%TF.CreationDate,2024-02-14T23:05:42-05:00*%
%TF.ProjectId,bitaxeSupra,62697461-7865-4537-9570-72612e6b6963,rev?*%
%TF.SameCoordinates,Original*%
%TF.FileFunction,Soldermask,Top*%
%TF.FilePolarity,Negative*%
%FSLAX46Y46*%
G04 Gerber Fmt 4.6, Leading zero omitted, Abs format (unit mm)*
G04 Created by KiCad (PCBNEW 7.0.9) date 2024-02-14 23:05:42*
%MOMM*%
%LPD*%
G01*
G04 APERTURE LIST*
G04 Aperture macros list*
%AMRoundRect*
0 Rectangle with rounded corners*
0 $1 Rounding radius*
0 $2 $3 $4 $5 $6 $7 $8 $9 X,Y pos of 4 corners*
0 Add a 4 corners polygon primitive as box body*
4,1,4,$2,$3,$4,$5,$6,$7,$8,$9,$2,$3,0*
0 Add four circle primitives for the rounded corners*
1,1,$1+$1,$2,$3*
1,1,$1+$1,$4,$5*
1,1,$1+$1,$6,$7*
1,1,$1+$1,$8,$9*
0 Add four rect primitives between the rounded corners*
20,1,$1+$1,$2,$3,$4,$5,0*
20,1,$1+$1,$4,$5,$6,$7,0*
20,1,$1+$1,$6,$7,$8,$9,0*
20,1,$1+$1,$8,$9,$2,$3,0*%
%AMFreePoly0*
4,1,35,0.005000,-4.560000,0.003536,-4.563536,0.000000,-4.565000,-5.000000,-4.565000,-5.003536,-4.563536,-5.005000,-4.560000,-5.005000,-3.898000,-5.003536,-3.894464,-5.000000,-3.893000,-4.325000,-3.893000,-4.325000,-3.269700,-5.000000,-3.269700,-5.003536,-3.268236,-5.005000,-3.264700,-5.005000,-2.599700,-5.003536,-2.596164,-5.000000,-2.594700,-4.325000,-2.594700,-4.325000,-1.971400,-5.000000,-1.971400,
-5.003536,-1.969936,-5.005000,-1.966400,-5.005000,-1.301400,-5.003536,-1.297864,-5.000000,-1.296400,-4.325000,-1.296400,-4.325000,-0.673100,-5.000000,-0.673100,-5.003536,-0.671636,-5.005000,-0.668100,-5.005000,0.000000,-5.003536,0.003536,-5.000000,0.005000,0.005000,0.005000,0.005000,-4.560000,0.005000,-4.560000,$1*%
%AMFreePoly1*
4,1,45,-0.124646,1.700354,-0.124500,1.700000,-0.124500,1.200500,0.124500,1.200500,0.124500,1.700000,0.124646,1.700354,0.125000,1.700500,0.375000,1.700500,0.375354,1.700354,0.375500,1.700000,0.375500,1.200500,0.825000,1.200500,0.825354,1.200354,0.825500,1.200000,0.825500,-1.200000,0.825354,-1.200354,0.825000,-1.200500,0.375500,-1.200500,0.375500,-1.700000,0.375354,-1.700354,
0.375000,-1.700500,0.125000,-1.700500,0.124646,-1.700354,0.124500,-1.700000,0.124500,-1.200500,-0.124500,-1.200500,-0.124500,-1.700000,-0.124646,-1.700354,-0.125000,-1.700500,-0.375000,-1.700500,-0.375354,-1.700354,-0.375500,-1.700000,-0.375500,-1.200500,-0.825000,-1.200500,-0.825354,-1.200354,-0.825500,-1.200000,-0.825500,1.200000,-0.825354,1.200354,-0.825000,1.200500,-0.375500,1.200500,
-0.375500,1.700000,-0.375354,1.700354,-0.375000,1.700500,-0.125000,1.700500,-0.124646,1.700354,-0.124646,1.700354,$1*%
G04 Aperture macros list end*
%ADD10RoundRect,0.250000X0.250000X0.475000X-0.250000X0.475000X-0.250000X-0.475000X0.250000X-0.475000X0*%
%ADD11RoundRect,0.100000X-0.637500X-0.100000X0.637500X-0.100000X0.637500X0.100000X-0.637500X0.100000X0*%
%ADD12C,1.500000*%
%ADD13C,2.000000*%
%ADD14RoundRect,0.135000X-0.185000X0.135000X-0.185000X-0.135000X0.185000X-0.135000X0.185000X0.135000X0*%
%ADD15RoundRect,0.140000X0.140000X0.170000X-0.140000X0.170000X-0.140000X-0.170000X0.140000X-0.170000X0*%
%ADD16R,0.700000X0.450000*%
%ADD17RoundRect,0.140000X-0.170000X0.140000X-0.170000X-0.140000X0.170000X-0.140000X0.170000X0.140000X0*%
%ADD18C,3.000000*%
%ADD19RoundRect,0.135000X0.135000X0.185000X-0.135000X0.185000X-0.135000X-0.185000X0.135000X-0.185000X0*%
%ADD20RoundRect,0.250000X-0.250000X-0.475000X0.250000X-0.475000X0.250000X0.475000X-0.250000X0.475000X0*%
%ADD21RoundRect,0.150000X-0.512500X-0.150000X0.512500X-0.150000X0.512500X0.150000X-0.512500X0.150000X0*%
%ADD22R,1.168400X1.600200*%
%ADD23RoundRect,0.140000X0.170000X-0.140000X0.170000X0.140000X-0.170000X0.140000X-0.170000X-0.140000X0*%
%ADD24RoundRect,0.140000X-0.140000X-0.170000X0.140000X-0.170000X0.140000X0.170000X-0.140000X0.170000X0*%
%ADD25R,1.100000X1.300000*%
%ADD26C,0.800000*%
%ADD27C,6.000000*%
%ADD28RoundRect,0.250000X-1.025000X0.875000X-1.025000X-0.875000X1.025000X-0.875000X1.025000X0.875000X0*%
%ADD29R,3.100000X2.000000*%
%ADD30RoundRect,0.135000X0.185000X-0.135000X0.185000X0.135000X-0.185000X0.135000X-0.185000X-0.135000X0*%
%ADD31R,0.400000X1.100000*%
%ADD32RoundRect,0.135000X-0.135000X-0.185000X0.135000X-0.185000X0.135000X0.185000X-0.135000X0.185000X0*%
%ADD33R,1.100000X0.400000*%
%ADD34R,1.700000X1.700000*%
%ADD35O,1.700000X1.700000*%
%ADD36C,3.500000*%
%ADD37R,0.700000X0.800000*%
%ADD38FreePoly0,270.000000*%
%ADD39RoundRect,0.007800X-0.122200X0.442200X-0.122200X-0.442200X0.122200X-0.442200X0.122200X0.442200X0*%
%ADD40RoundRect,0.007800X-0.442200X-0.122200X0.442200X-0.122200X0.442200X0.122200X-0.442200X0.122200X0*%
%ADD41R,2.050000X2.050000*%
%ADD42RoundRect,0.050000X-0.070000X0.250000X-0.070000X-0.250000X0.070000X-0.250000X0.070000X0.250000X0*%
%ADD43C,0.400000*%
%ADD44FreePoly1,270.000000*%
%ADD45R,1.600000X2.700000*%
%ADD46FreePoly0,90.000000*%
%ADD47RoundRect,0.250000X-0.325000X-1.100000X0.325000X-1.100000X0.325000X1.100000X-0.325000X1.100000X0*%
%ADD48RoundRect,0.250000X0.325000X0.650000X-0.325000X0.650000X-0.325000X-0.650000X0.325000X-0.650000X0*%
%ADD49R,0.952500X0.558800*%
%ADD50C,1.295400*%
%ADD51C,1.574800*%
%ADD52C,1.700000*%
%ADD53C,0.650000*%
%ADD54O,1.800000X1.000000*%
%ADD55O,2.100000X1.000000*%
%ADD56C,0.990600*%
G04 APERTURE END LIST*
D10*
%TO.C,C43*%
X106814000Y-69487000D03*
X104914000Y-69487000D03*
%TD*%
D11*
%TO.C,U8*%
X79540000Y-80990000D03*
X79540000Y-81640000D03*
X79540000Y-82290000D03*
X79540000Y-82940000D03*
X79540000Y-83590000D03*
X79540000Y-84240000D03*
X79540000Y-84890000D03*
X79540000Y-85540000D03*
X85265000Y-85540000D03*
X85265000Y-84890000D03*
X85265000Y-84240000D03*
X85265000Y-83590000D03*
X85265000Y-82940000D03*
X85265000Y-82290000D03*
X85265000Y-81640000D03*
X85265000Y-80990000D03*
%TD*%
D12*
%TO.C,TP13*%
X98453000Y-127966000D03*
%TD*%
D13*
%TO.C,FID2*%
X125270000Y-50310000D03*
%TD*%
%TO.C,FID4*%
X132260000Y-139060000D03*
%TD*%
D14*
%TO.C,R13*%
X90649600Y-63569000D03*
X90649600Y-64589000D03*
%TD*%
D13*
%TO.C,FID3*%
X78850000Y-139070000D03*
%TD*%
D15*
%TO.C,C12*%
X99760000Y-104470000D03*
X98800000Y-104470000D03*
%TD*%
D12*
%TO.C,TP3*%
X119260000Y-121350000D03*
%TD*%
%TO.C,TP2*%
X120820000Y-119010000D03*
%TD*%
D16*
%TO.C,Q4*%
X111370000Y-70430000D03*
X111370000Y-69130000D03*
X109370000Y-69780000D03*
%TD*%
D15*
%TO.C,C14*%
X99072000Y-122018000D03*
X98112000Y-122018000D03*
%TD*%
D10*
%TO.C,C41*%
X98355400Y-63005800D03*
X96455400Y-63005800D03*
%TD*%
D12*
%TO.C,TP19*%
X123610000Y-84120000D03*
%TD*%
D17*
%TO.C,C11*%
X111130400Y-114456400D03*
X111130400Y-115416400D03*
%TD*%
D14*
%TO.C,R8*%
X113770000Y-69930000D03*
X113770000Y-70950000D03*
%TD*%
D15*
%TO.C,C17*%
X97190000Y-108010000D03*
X96230000Y-108010000D03*
%TD*%
D18*
%TO.C,H6*%
X84764000Y-94984000D03*
%TD*%
D17*
%TO.C,C10*%
X108692000Y-114431000D03*
X108692000Y-115391000D03*
%TD*%
D19*
%TO.C,R5*%
X85930000Y-100530000D03*
X84910000Y-100530000D03*
%TD*%
D20*
%TO.C,C38*%
X93550000Y-95040000D03*
X95450000Y-95040000D03*
%TD*%
D21*
%TO.C,U6*%
X101162500Y-129520000D03*
X101162500Y-130470000D03*
X101162500Y-131420000D03*
X103437500Y-131420000D03*
X103437500Y-129520000D03*
%TD*%
D20*
%TO.C,C45*%
X92522000Y-66420000D03*
X94422000Y-66420000D03*
%TD*%
D22*
%TO.C,Y1*%
X124017400Y-78349000D03*
X121172600Y-78349000D03*
%TD*%
D12*
%TO.C,TP11*%
X113150000Y-96080000D03*
%TD*%
%TO.C,TP16*%
X93610000Y-140380000D03*
%TD*%
%TO.C,TP15*%
X90300000Y-140410000D03*
%TD*%
%TO.C,TP1*%
X87080000Y-118492000D03*
%TD*%
D20*
%TO.C,C51*%
X130580000Y-84090000D03*
X132480000Y-84090000D03*
%TD*%
D12*
%TO.C,TP40*%
X87080000Y-109678000D03*
%TD*%
%TO.C,TP23*%
X122556000Y-57528000D03*
%TD*%
%TO.C,TP35*%
X111205000Y-99380000D03*
%TD*%
D18*
%TO.C,H5*%
X126130000Y-136350000D03*
%TD*%
D23*
%TO.C,C16*%
X102626000Y-123028000D03*
X102626000Y-122068000D03*
%TD*%
%TO.C,C5*%
X112140000Y-122030000D03*
X112140000Y-121070000D03*
%TD*%
D24*
%TO.C,C52*%
X131050000Y-85700000D03*
X132010000Y-85700000D03*
%TD*%
D25*
%TO.C,U1*%
X116120000Y-126400000D03*
X116120000Y-124100000D03*
X114220000Y-124100000D03*
X114220000Y-126400000D03*
%TD*%
D24*
%TO.C,C23*%
X101710000Y-132840000D03*
X102670000Y-132840000D03*
%TD*%
D26*
%TO.C,H7*%
X127985010Y-51120990D03*
X128644020Y-49530000D03*
X128644020Y-52711980D03*
X130235010Y-48870990D03*
D27*
X130235010Y-51120990D03*
D26*
X130235010Y-53370990D03*
X131826000Y-49530000D03*
X131826000Y-52711980D03*
X132485010Y-51120990D03*
%TD*%
D23*
%TO.C,C30*%
X124043000Y-76576000D03*
X124043000Y-75616000D03*
%TD*%
D15*
%TO.C,C1*%
X115710000Y-128040000D03*
X114750000Y-128040000D03*
%TD*%
D13*
%TO.C,FID1*%
X78750000Y-55900000D03*
%TD*%
D14*
%TO.C,R10*%
X94828800Y-63573600D03*
X94828800Y-64593600D03*
%TD*%
D12*
%TO.C,TP5*%
X110340000Y-96570000D03*
%TD*%
%TO.C,TP41*%
X89890000Y-108360000D03*
%TD*%
D19*
%TO.C,R17*%
X123720000Y-118980000D03*
X122700000Y-118980000D03*
%TD*%
D12*
%TO.C,TP17*%
X124360000Y-105950000D03*
%TD*%
D28*
%TO.C,C13*%
X105580000Y-111590000D03*
X105580000Y-117990000D03*
%TD*%
D12*
%TO.C,TP9*%
X119280000Y-112180000D03*
%TD*%
D29*
%TO.C,L1*%
X104570000Y-77870000D03*
X104570000Y-86190000D03*
%TD*%
D12*
%TO.C,TP7*%
X114480000Y-121940000D03*
%TD*%
D30*
%TO.C,R9*%
X99098400Y-112302200D03*
X99098400Y-111282200D03*
%TD*%
D15*
%TO.C,C21*%
X124350000Y-101890000D03*
X123390000Y-101890000D03*
%TD*%
D30*
%TO.C,R15*%
X93465000Y-64589000D03*
X93465000Y-63569000D03*
%TD*%
D31*
%TO.C,U7*%
X102351800Y-114107200D03*
X101701800Y-114107200D03*
X101051800Y-114107200D03*
X100401800Y-114107200D03*
X100401800Y-118407200D03*
X101051800Y-118407200D03*
X101701800Y-118407200D03*
X102351800Y-118407200D03*
%TD*%
D32*
%TO.C,R16*%
X116330000Y-57110000D03*
X117350000Y-57110000D03*
%TD*%
D12*
%TO.C,TP38*%
X87080000Y-112616000D03*
%TD*%
D21*
%TO.C,U5*%
X92595500Y-128588000D03*
X92595500Y-129538000D03*
X92595500Y-130488000D03*
X94870500Y-130488000D03*
X94870500Y-128588000D03*
%TD*%
D26*
%TO.C,H9*%
X128052000Y-143728000D03*
X128711010Y-142137010D03*
X128711010Y-145318990D03*
X130302000Y-141478000D03*
D27*
X130302000Y-143728000D03*
D26*
X130302000Y-145978000D03*
X131892990Y-142137010D03*
X131892990Y-145318990D03*
X132552000Y-143728000D03*
%TD*%
D18*
%TO.C,TP12*%
X84180000Y-75200000D03*
%TD*%
D17*
%TO.C,C9*%
X109962000Y-114460000D03*
X109962000Y-115420000D03*
%TD*%
D15*
%TO.C,C49*%
X114200000Y-60500000D03*
X113240000Y-60500000D03*
%TD*%
D12*
%TO.C,TP18*%
X128200000Y-60060000D03*
%TD*%
D10*
%TO.C,C40*%
X98333000Y-65268000D03*
X96433000Y-65268000D03*
%TD*%
D33*
%TO.C,U10*%
X112380000Y-59065000D03*
X112380000Y-58415000D03*
X112380000Y-57765000D03*
X112380000Y-57115000D03*
X108080000Y-57115000D03*
X108080000Y-57765000D03*
X108080000Y-58415000D03*
X108080000Y-59065000D03*
%TD*%
D30*
%TO.C,R6*%
X117660000Y-115430000D03*
X117660000Y-114410000D03*
%TD*%
D24*
%TO.C,C39*%
X104650000Y-67450000D03*
X105610000Y-67450000D03*
%TD*%
D34*
%TO.C,J6*%
X99171505Y-51054000D03*
D35*
X101711505Y-51054000D03*
X104251505Y-51054000D03*
X106791505Y-51054000D03*
X109331505Y-51054000D03*
X111871505Y-51054000D03*
%TD*%
D12*
%TO.C,TP8*%
X120820000Y-114390000D03*
%TD*%
%TO.C,TP46*%
X89890000Y-122890000D03*
%TD*%
D26*
%TO.C,H10*%
X78455010Y-143830990D03*
X79114020Y-142240000D03*
X79114020Y-145421980D03*
X80705010Y-141580990D03*
D27*
X80705010Y-143830990D03*
D26*
X80705010Y-146080990D03*
X82296000Y-142240000D03*
X82296000Y-145421980D03*
X82955010Y-143830990D03*
%TD*%
D19*
%TO.C,R18*%
X115270000Y-120160000D03*
X114250000Y-120160000D03*
%TD*%
D23*
%TO.C,C31*%
X121159000Y-76585000D03*
X121159000Y-75625000D03*
%TD*%
D18*
%TO.C,TP20*%
X84150000Y-62350000D03*
%TD*%
D24*
%TO.C,C35*%
X82890000Y-89480000D03*
X83850000Y-89480000D03*
%TD*%
D23*
%TO.C,C33*%
X100139800Y-111281600D03*
X100139800Y-110321600D03*
%TD*%
D14*
%TO.C,R14*%
X92057300Y-63569000D03*
X92057300Y-64589000D03*
%TD*%
D36*
%TO.C,H2*%
X84710000Y-136360000D03*
%TD*%
D24*
%TO.C,C20*%
X119425000Y-101505000D03*
X120385000Y-101505000D03*
%TD*%
D15*
%TO.C,C18*%
X96119000Y-109911000D03*
X95159000Y-109911000D03*
%TD*%
%TO.C,C2*%
X116000000Y-109854000D03*
X115040000Y-109854000D03*
%TD*%
D37*
%TO.C,Q2*%
X95751600Y-82862700D03*
X97049900Y-82862700D03*
X98313300Y-82862700D03*
X99611600Y-82862700D03*
D38*
X99961600Y-81957700D03*
%TD*%
D39*
%TO.C,U2*%
X115652000Y-97810000D03*
D40*
X114717000Y-98495000D03*
X114717000Y-98995000D03*
X114717000Y-99495000D03*
X114717000Y-99995000D03*
X114717000Y-100495000D03*
D39*
X115652000Y-101180000D03*
X117152000Y-101180000D03*
D40*
X118087000Y-100495000D03*
X118087000Y-99995000D03*
X118087000Y-99495000D03*
X118087000Y-98995000D03*
X118087000Y-98495000D03*
D39*
X117152000Y-97810000D03*
D41*
X116402000Y-99495000D03*
%TD*%
D32*
%TO.C,R2*%
X92560000Y-136980000D03*
X93580000Y-136980000D03*
%TD*%
D15*
%TO.C,C6*%
X113600000Y-106260000D03*
X112640000Y-106260000D03*
%TD*%
D24*
%TO.C,C44*%
X113880000Y-58540000D03*
X114840000Y-58540000D03*
%TD*%
D42*
%TO.C,U9*%
X99201691Y-68022200D03*
X98701691Y-68022200D03*
X98201691Y-68022200D03*
X97701691Y-68022200D03*
X97201691Y-68022200D03*
X97201691Y-70822200D03*
X97701691Y-70822200D03*
X98201691Y-70822200D03*
X98701691Y-70822200D03*
X99201691Y-70822200D03*
D43*
X98201691Y-68847200D03*
X99151691Y-69422200D03*
D44*
X98201691Y-69422200D03*
D43*
X97251691Y-69422200D03*
X98201691Y-69997200D03*
%TD*%
D12*
%TO.C,TP34*%
X110055000Y-101930000D03*
%TD*%
D24*
%TO.C,C22*%
X93233000Y-132048000D03*
X94193000Y-132048000D03*
%TD*%
D23*
%TO.C,C4*%
X108465000Y-123028000D03*
X108465000Y-122068000D03*
%TD*%
D26*
%TO.C,H8*%
X78558000Y-51054000D03*
X79217010Y-49463010D03*
X79217010Y-52644990D03*
X80808000Y-48804000D03*
D27*
X80808000Y-51054000D03*
D26*
X80808000Y-53304000D03*
X82398990Y-49463010D03*
X82398990Y-52644990D03*
X83058000Y-51054000D03*
%TD*%
D17*
%TO.C,C7*%
X112248000Y-114405600D03*
X112248000Y-115365600D03*
%TD*%
D19*
%TO.C,R11*%
X122120000Y-116640000D03*
X121100000Y-116640000D03*
%TD*%
D45*
%TO.C,C46*%
X103851600Y-89640200D03*
X100851600Y-89640200D03*
%TD*%
D37*
%TO.C,Q1*%
X93649887Y-77313864D03*
X92351587Y-77313864D03*
X91088187Y-77313864D03*
X89789887Y-77313864D03*
D46*
X89439887Y-78218864D03*
%TD*%
D15*
%TO.C,C8*%
X112270000Y-104470000D03*
X111310000Y-104470000D03*
%TD*%
D24*
%TO.C,C42*%
X96189800Y-73128000D03*
X97149800Y-73128000D03*
%TD*%
D47*
%TO.C,C34*%
X92806600Y-85410000D03*
X95756600Y-85410000D03*
%TD*%
D12*
%TO.C,TP14*%
X107810000Y-129430000D03*
%TD*%
D36*
%TO.C,H1*%
X126060000Y-94910000D03*
%TD*%
D32*
%TO.C,R12*%
X98650200Y-73123400D03*
X99670200Y-73123400D03*
%TD*%
D12*
%TO.C,TP10*%
X119280000Y-116660000D03*
%TD*%
D19*
%TO.C,R4*%
X110465000Y-71760000D03*
X109445000Y-71760000D03*
%TD*%
D12*
%TO.C,TP44*%
X89890000Y-114520000D03*
%TD*%
D32*
%TO.C,R7*%
X109340000Y-74410000D03*
X110360000Y-74410000D03*
%TD*%
D12*
%TO.C,TP36*%
X116850000Y-105780000D03*
%TD*%
D15*
%TO.C,C3*%
X114900000Y-108020000D03*
X113940000Y-108020000D03*
%TD*%
D12*
%TO.C,TP42*%
X87080000Y-106740000D03*
%TD*%
D32*
%TO.C,R1*%
X123350000Y-100460000D03*
X124370000Y-100460000D03*
%TD*%
D15*
%TO.C,C29*%
X98040000Y-137640000D03*
X97080000Y-137640000D03*
%TD*%
%TO.C,C19*%
X116816000Y-103595000D03*
X115856000Y-103595000D03*
%TD*%
D19*
%TO.C,R3*%
X85920000Y-102000000D03*
X84900000Y-102000000D03*
%TD*%
D24*
%TO.C,C27*%
X111051000Y-65931000D03*
X112011000Y-65931000D03*
%TD*%
D12*
%TO.C,TP43*%
X87080000Y-115554000D03*
%TD*%
%TO.C,TP22*%
X123640000Y-61510000D03*
%TD*%
%TO.C,TP4*%
X87080000Y-121430000D03*
%TD*%
%TO.C,TP45*%
X89890000Y-117310000D03*
%TD*%
D48*
%TO.C,C47*%
X103786600Y-92610200D03*
X100836600Y-92610200D03*
%TD*%
D17*
%TO.C,C24*%
X96743000Y-128868000D03*
X96743000Y-129828000D03*
%TD*%
D12*
%TO.C,TP6*%
X89890000Y-120100000D03*
%TD*%
D47*
%TO.C,C36*%
X92785000Y-88870000D03*
X95735000Y-88870000D03*
%TD*%
D15*
%TO.C,C15*%
X98470000Y-106270000D03*
X97510000Y-106270000D03*
%TD*%
D49*
%TO.C,U11*%
X111185050Y-62440200D03*
X111185050Y-63380000D03*
X111185050Y-64319800D03*
X113940950Y-64319800D03*
X113940950Y-62440200D03*
%TD*%
D47*
%TO.C,C37*%
X92745000Y-92320000D03*
X95695000Y-92320000D03*
%TD*%
D17*
%TO.C,C25*%
X105520000Y-129990000D03*
X105520000Y-130950000D03*
%TD*%
D50*
%TO.C,J4*%
X94701000Y-145782001D03*
D51*
X89621000Y-143622000D03*
X92161000Y-143622000D03*
X94701000Y-143622000D03*
X97241000Y-143622000D03*
%TD*%
D52*
%TO.C,J9*%
X87005000Y-50292000D03*
D35*
X87405000Y-52832000D03*
X87005000Y-55372000D03*
X87405000Y-57912000D03*
%TD*%
D53*
%TO.C,J8*%
X83470000Y-86150000D03*
X83470000Y-80370000D03*
D54*
X79790000Y-87580000D03*
D55*
X83970000Y-87580000D03*
D54*
X79790000Y-78940000D03*
D55*
X83970000Y-78940000D03*
%TD*%
D56*
%TO.C,J5*%
X130670000Y-57730000D03*
X125590000Y-58746000D03*
X125590000Y-56714000D03*
%TD*%
D13*
%TO.C,J1*%
X80376000Y-68834000D03*
%TD*%
M02*
