%TF.GenerationSoftware,KiCad,Pcbnew,(6.0.8-1)-1*%
%TF.CreationDate,2022-10-04T16:18:19-04:00*%
%TF.ProjectId,bitaxePro,62697461-7865-4507-926f-2e6b69636164,rev?*%
%TF.SameCoordinates,Original*%
%TF.FileFunction,Soldermask,Bot*%
%TF.FilePolarity,Negative*%
%FSLAX46Y46*%
G04 Gerber Fmt 4.6, Leading zero omitted, Abs format (unit mm)*
G04 Created by KiCad (PCBNEW (6.0.8-1)-1) date 2022-10-04 16:18:19*
%MOMM*%
%LPD*%
G01*
G04 APERTURE LIST*
G04 Aperture macros list*
%AMRoundRect*
0 Rectangle with rounded corners*
0 $1 Rounding radius*
0 $2 $3 $4 $5 $6 $7 $8 $9 X,Y pos of 4 corners*
0 Add a 4 corners polygon primitive as box body*
4,1,4,$2,$3,$4,$5,$6,$7,$8,$9,$2,$3,0*
0 Add four circle primitives for the rounded corners*
1,1,$1+$1,$2,$3*
1,1,$1+$1,$4,$5*
1,1,$1+$1,$6,$7*
1,1,$1+$1,$8,$9*
0 Add four rect primitives between the rounded corners*
20,1,$1+$1,$2,$3,$4,$5,0*
20,1,$1+$1,$4,$5,$6,$7,0*
20,1,$1+$1,$6,$7,$8,$9,0*
20,1,$1+$1,$8,$9,$2,$3,0*%
G04 Aperture macros list end*
%ADD10C,3.500000*%
%ADD11C,2.200000*%
%ADD12R,1.530000X1.530000*%
%ADD13C,1.530000*%
%ADD14R,1.700000X1.700000*%
%ADD15O,1.700000X1.700000*%
%ADD16RoundRect,0.236600X0.295000X0.000000X-0.295000X0.000000X-0.295000X0.000000X0.295000X0.000000X0*%
%ADD17RoundRect,0.101600X3.150000X0.925000X-3.150000X0.925000X-3.150000X-0.925000X3.150000X-0.925000X0*%
%ADD18RoundRect,0.101600X3.150000X2.775000X-3.150000X2.775000X-3.150000X-2.775000X3.150000X-2.775000X0*%
%ADD19C,2.520000*%
%ADD20RoundRect,0.250000X-0.620000X-0.845000X0.620000X-0.845000X0.620000X0.845000X-0.620000X0.845000X0*%
%ADD21O,1.740000X2.190000*%
G04 APERTURE END LIST*
D10*
%TO.C,H2*%
X68364000Y-55924000D03*
%TD*%
%TO.C,H1*%
X109730000Y-97290000D03*
%TD*%
D11*
%TO.C,H6*%
X66780000Y-49050000D03*
%TD*%
%TO.C,H5*%
X66330000Y-104130000D03*
%TD*%
%TO.C,H4*%
X142080000Y-49730000D03*
%TD*%
%TO.C,H3*%
X141930000Y-103680000D03*
%TD*%
D12*
%TO.C,U7*%
X139146500Y-59517800D03*
D13*
X139146500Y-62057800D03*
X139146500Y-64597800D03*
X139146500Y-67137800D03*
X139146500Y-69677800D03*
X139146500Y-72217800D03*
X139146500Y-74757800D03*
X139146500Y-77297800D03*
X139146500Y-79837800D03*
X139146500Y-82377800D03*
X139146500Y-84917800D03*
X139146500Y-87457800D03*
X139146500Y-89997800D03*
X139146500Y-92537800D03*
X139146500Y-95077800D03*
X116286500Y-95077800D03*
X116286500Y-92537800D03*
X116286500Y-89997800D03*
X116286500Y-87457800D03*
X116286500Y-84917800D03*
X116286500Y-82377800D03*
X116286500Y-79837800D03*
X116286500Y-77297800D03*
X116286500Y-74757800D03*
X116286500Y-72217800D03*
X116286500Y-69677800D03*
X116286500Y-67137800D03*
X116286500Y-64597800D03*
X116286500Y-62057800D03*
X116286500Y-59517800D03*
%TD*%
D14*
%TO.C,J3*%
X92950000Y-104520000D03*
D15*
X95490000Y-104520000D03*
X98030000Y-104520000D03*
X100570000Y-104520000D03*
X103110000Y-104520000D03*
%TD*%
D14*
%TO.C,J4*%
X123395000Y-104440000D03*
D15*
X120855000Y-104440000D03*
%TD*%
D16*
%TO.C,IC1*%
X93224600Y-73820000D03*
X93224600Y-74300000D03*
X93224600Y-74780000D03*
X93224600Y-75260000D03*
X93224600Y-75740000D03*
X93224600Y-76220000D03*
X93224600Y-76700000D03*
X93224600Y-77180000D03*
X93224600Y-77660000D03*
X93224600Y-78140000D03*
X93224600Y-78620000D03*
X93224600Y-79100000D03*
X93224600Y-79580000D03*
X93224600Y-80060000D03*
X93224600Y-80540000D03*
X93224600Y-81020000D03*
X85355400Y-81020000D03*
X85355400Y-80540000D03*
X85355400Y-80060000D03*
X85355400Y-79580000D03*
X85355400Y-79100000D03*
X85355400Y-78620000D03*
X85355400Y-78140000D03*
X85355400Y-77660000D03*
X85355400Y-77180000D03*
X85355400Y-76700000D03*
X85355400Y-76220000D03*
X85355400Y-75740000D03*
X85355400Y-75260000D03*
X85355400Y-74780000D03*
X85355400Y-74300000D03*
X85355400Y-73820000D03*
D17*
X89290000Y-74420000D03*
D18*
X89290000Y-78620000D03*
%TD*%
D19*
%TO.C,J1*%
X89290000Y-48640000D03*
X89290000Y-53720000D03*
%TD*%
%TO.C,J2*%
X82380000Y-48640000D03*
X82380000Y-53720000D03*
%TD*%
D20*
%TO.C,J5*%
X75550000Y-102810000D03*
D21*
X78090000Y-102810000D03*
X80630000Y-102810000D03*
%TD*%
M02*
