M48
; DRILL file {KiCad (6.0.8-1)-1} date Tuesday, October 04, 2022 at 04:18:28 PM
; FORMAT={-:-/ absolute / inch / decimal}
; #@! TF.CreationDate,2022-10-04T16:18:28-04:00
; #@! TF.GenerationSoftware,Kicad,Pcbnew,(6.0.8-1)-1
; #@! TF.FileFunction,Plated,1,4,PTH
FMAT,2
INCH
; #@! TA.AperFunction,Plated,PTH,ViaDrill
T1C0.0157
; #@! TA.AperFunction,Plated,PTH,ComponentDrill
T2C0.0394
; #@! TA.AperFunction,Plated,PTH,ComponentDrill
T3C0.0402
; #@! TA.AperFunction,Plated,PTH,ComponentDrill
T4C0.0469
; #@! TA.AperFunction,Plated,PTH,ComponentDrill
T5C0.0551
%
G90
G05
T1
X2.7303Y-3.6276
X2.8071Y-3.5539
X2.8327Y-3.6276
X2.8358Y-3.0602
X2.8488Y-3.1866
X2.9902Y-3.1886
X3.0217Y-3.3323
X3.0709Y-2.8913
X3.0988Y-3.5567
X3.1354Y-2.8898
X3.139Y-2.8291
X3.1409Y-3.0275
X3.1425Y-3.1161
X3.148Y-3.213
X3.1866Y-3.1272
X3.1929Y-3.0551
X3.1988Y-3.3579
X3.2059Y-2.8339
X3.2252Y-3.3165
X3.2303Y-3.6276
X3.2461Y-2.7094
X3.2984Y-2.637
X3.3793Y-3.7341
X3.3803Y-3.3256
X3.4134Y-2.9465
X3.4138Y-3.013
X3.4138Y-3.0665
X3.4138Y-3.1201
X3.4138Y-3.1736
X3.4248Y-2.5665
X3.4303Y-3.4815
X3.4538Y-2.9154
X3.4657Y-3.5898
X3.4736Y-3.013
X3.4736Y-3.0665
X3.4736Y-3.1201
X3.4736Y-3.1736
X3.4942Y-2.9461
X3.5012Y-3.6717
X3.5346Y-2.9154
X3.5453Y-3.0118
X3.5453Y-3.0654
X3.5453Y-3.1189
X3.5453Y-3.1724
X3.575Y-2.9472
X3.5984Y-2.5673
X3.611Y-3.0126
X3.611Y-3.0661
X3.611Y-3.1197
X3.611Y-3.1732
X3.6154Y-2.9169
X3.7339Y-3.3598
X3.7343Y-2.6358
X3.7394Y-3.3146
X3.7689Y-3.4776
X3.7846Y-2.7063
X3.8024Y-3.6299
X3.8217Y-3.1937
X3.8217Y-3.2492
X3.8244Y-2.8339
X3.826Y-3.1406
X3.8339Y-3.0366
X3.8846Y-2.8386
X3.9287Y-3.0531
X3.9571Y-3.5406
X3.9894Y-3.3122
X4.0457Y-3.0992
X4.0701Y-2.8571
X4.0705Y-2.9528
X4.0717Y-2.7626
X4.1969Y-2.6886
X4.2575Y-3.2575
X4.3051Y-3.1106
X4.3906Y-2.8996
X4.4598Y-2.7665
X4.4732Y-2.4413
X4.4787Y-2.3346
X4.8327Y-2.8165
X4.8343Y-3.2268
X4.8343Y-3.287
X4.8354Y-2.9996
X4.8358Y-3.0539
X4.8374Y-2.7677
X4.872Y-3.5406
X4.924Y-3.4421
X4.9783Y-3.117
X4.9827Y-2.8894
X4.9827Y-3.3477
X5.024Y-2.7394
X5.024Y-2.961
X5.024Y-3.1941
X5.1451Y-3.0291
X5.1575Y-2.7996
X5.1583Y-3.272
X5.2067Y-3.3051
X5.3012Y-2.9114
T2
X3.6594Y-4.115
X3.7594Y-4.115
X3.8594Y-4.115
X3.9594Y-4.115
X4.0594Y-4.115
X4.7581Y-4.1118
X4.8581Y-4.1118
T3
X4.5782Y-2.3432
X4.5782Y-2.4432
X4.5782Y-2.5432
X4.5782Y-2.6432
X4.5782Y-2.7432
X4.5782Y-2.8432
X4.5782Y-2.9432
X4.5782Y-3.0432
X4.5782Y-3.1432
X4.5782Y-3.2432
X4.5782Y-3.3432
X4.5782Y-3.4432
X4.5782Y-3.5432
X4.5782Y-3.6432
X4.5782Y-3.7432
X5.4782Y-2.3432
X5.4782Y-2.4432
X5.4782Y-2.5432
X5.4782Y-2.6432
X5.4782Y-2.7432
X5.4782Y-2.8432
X5.4782Y-2.9432
X5.4782Y-3.0432
X5.4782Y-3.1432
X5.4782Y-3.2432
X5.4782Y-3.3432
X5.4782Y-3.4432
X5.4782Y-3.5432
X5.4782Y-3.6432
X5.4782Y-3.7432
T4
X2.9744Y-4.0476
X3.0744Y-4.0476
X3.1744Y-4.0476
T5
X3.2433Y-1.915
X3.2433Y-2.115
X3.5154Y-1.915
X3.5154Y-2.115
T0
M30
