%TF.GenerationSoftware,KiCad,Pcbnew,(6.0.8-1)-1*%
%TF.CreationDate,2022-12-08T22:42:01-05:00*%
%TF.ProjectId,bitaxeMax,62697461-7865-44d6-9178-2e6b69636164,rev?*%
%TF.SameCoordinates,Original*%
%TF.FileFunction,Legend,Bot*%
%TF.FilePolarity,Positive*%
%FSLAX46Y46*%
G04 Gerber Fmt 4.6, Leading zero omitted, Abs format (unit mm)*
G04 Created by KiCad (PCBNEW (6.0.8-1)-1) date 2022-12-08 22:42:01*
%MOMM*%
%LPD*%
G01*
G04 APERTURE LIST*
G04 Aperture macros list*
%AMRoundRect*
0 Rectangle with rounded corners*
0 $1 Rounding radius*
0 $2 $3 $4 $5 $6 $7 $8 $9 X,Y pos of 4 corners*
0 Add a 4 corners polygon primitive as box body*
4,1,4,$2,$3,$4,$5,$6,$7,$8,$9,$2,$3,0*
0 Add four circle primitives for the rounded corners*
1,1,$1+$1,$2,$3*
1,1,$1+$1,$4,$5*
1,1,$1+$1,$6,$7*
1,1,$1+$1,$8,$9*
0 Add four rect primitives between the rounded corners*
20,1,$1+$1,$2,$3,$4,$5,0*
20,1,$1+$1,$4,$5,$6,$7,0*
20,1,$1+$1,$6,$7,$8,$9,0*
20,1,$1+$1,$8,$9,$2,$3,0*%
G04 Aperture macros list end*
%ADD10C,0.150000*%
%ADD11C,0.250000*%
%ADD12C,0.120000*%
%ADD13C,0.100000*%
%ADD14C,0.325707*%
%ADD15R,0.900000X1.500000*%
%ADD16R,1.500000X0.900000*%
%ADD17R,0.900000X0.900000*%
%ADD18C,3.500000*%
%ADD19C,2.200000*%
%ADD20RoundRect,0.250000X-0.550000X1.500000X-0.550000X-1.500000X0.550000X-1.500000X0.550000X1.500000X0*%
%ADD21C,0.400000*%
%ADD22RoundRect,0.250000X-0.620000X-0.845000X0.620000X-0.845000X0.620000X0.845000X-0.620000X0.845000X0*%
%ADD23O,1.740000X2.190000*%
%ADD24C,2.520000*%
%ADD25R,1.700000X1.700000*%
%ADD26O,1.700000X1.700000*%
%ADD27RoundRect,0.236600X0.295000X0.000000X-0.295000X0.000000X-0.295000X0.000000X0.295000X0.000000X0*%
%ADD28RoundRect,0.101600X3.150000X0.925000X-3.150000X0.925000X-3.150000X-0.925000X3.150000X-0.925000X0*%
%ADD29RoundRect,0.101600X3.150000X2.775000X-3.150000X2.775000X-3.150000X-2.775000X3.150000X-2.775000X0*%
%ADD30C,0.990600*%
%ADD31C,0.787400*%
%ADD32R,1.193800X0.711200*%
%ADD33R,1.000000X3.150000*%
G04 APERTURE END LIST*
D10*
X85450000Y-95700000D02*
X125430000Y-95700000D01*
X125430000Y-95700000D02*
X125430000Y-135690000D01*
X125430000Y-135690000D02*
X85450000Y-135690000D01*
X85450000Y-135690000D02*
X85450000Y-95700000D01*
X117449880Y-139479046D02*
X116973690Y-139145713D01*
X117449880Y-138907618D02*
X116449880Y-138907618D01*
X116449880Y-139288570D01*
X116497500Y-139383808D01*
X116545119Y-139431427D01*
X116640357Y-139479046D01*
X116783214Y-139479046D01*
X116878452Y-139431427D01*
X116926071Y-139383808D01*
X116973690Y-139288570D01*
X116973690Y-138907618D01*
X117402261Y-139859999D02*
X117449880Y-140002856D01*
X117449880Y-140240951D01*
X117402261Y-140336189D01*
X117354642Y-140383808D01*
X117259404Y-140431427D01*
X117164166Y-140431427D01*
X117068928Y-140383808D01*
X117021309Y-140336189D01*
X116973690Y-140240951D01*
X116926071Y-140050475D01*
X116878452Y-139955237D01*
X116830833Y-139907618D01*
X116735595Y-139859999D01*
X116640357Y-139859999D01*
X116545119Y-139907618D01*
X116497500Y-139955237D01*
X116449880Y-140050475D01*
X116449880Y-140288570D01*
X116497500Y-140431427D01*
X116449880Y-140717142D02*
X116449880Y-141288570D01*
X117449880Y-141002856D02*
X116449880Y-141002856D01*
X128055232Y-46759047D02*
X128055232Y-47378095D01*
X128436185Y-47044762D01*
X128436185Y-47187619D01*
X128483804Y-47282857D01*
X128531423Y-47330476D01*
X128626661Y-47378095D01*
X128864756Y-47378095D01*
X128959994Y-47330476D01*
X129007613Y-47282857D01*
X129055232Y-47187619D01*
X129055232Y-46901904D01*
X129007613Y-46806666D01*
X128959994Y-46759047D01*
X128055232Y-47663809D02*
X129055232Y-47997143D01*
X128055232Y-48330476D01*
X128055232Y-48568571D02*
X128055232Y-49187619D01*
X128436185Y-48854285D01*
X128436185Y-48997143D01*
X128483804Y-49092381D01*
X128531423Y-49140000D01*
X128626661Y-49187619D01*
X128864756Y-49187619D01*
X128959994Y-49140000D01*
X129007613Y-49092381D01*
X129055232Y-48997143D01*
X129055232Y-48711428D01*
X129007613Y-48616190D01*
X128959994Y-48568571D01*
X111525714Y-94325714D02*
X111525714Y-94992380D01*
X111763809Y-93944761D02*
X112001904Y-94659047D01*
X111382857Y-94659047D01*
X111097142Y-93992380D02*
X110430476Y-93992380D01*
X110859047Y-94992380D01*
X119220476Y-94992380D02*
X119791904Y-94992380D01*
X119506190Y-94992380D02*
X119506190Y-93992380D01*
X119601428Y-94135238D01*
X119696666Y-94230476D01*
X119791904Y-94278095D01*
X118887142Y-93992380D02*
X118268095Y-93992380D01*
X118601428Y-94373333D01*
X118458571Y-94373333D01*
X118363333Y-94420952D01*
X118315714Y-94468571D01*
X118268095Y-94563809D01*
X118268095Y-94801904D01*
X118315714Y-94897142D01*
X118363333Y-94944761D01*
X118458571Y-94992380D01*
X118744285Y-94992380D01*
X118839523Y-94944761D01*
X118887142Y-94897142D01*
X130680000Y-47092381D02*
X130632380Y-46997143D01*
X130632380Y-46854286D01*
X130680000Y-46711428D01*
X130775238Y-46616190D01*
X130870476Y-46568571D01*
X131060952Y-46520952D01*
X131203809Y-46520952D01*
X131394285Y-46568571D01*
X131489523Y-46616190D01*
X131584761Y-46711428D01*
X131632380Y-46854286D01*
X131632380Y-46949524D01*
X131584761Y-47092381D01*
X131537142Y-47140000D01*
X131203809Y-47140000D01*
X131203809Y-46949524D01*
X131632380Y-47568571D02*
X130632380Y-47568571D01*
X131632380Y-48140000D01*
X130632380Y-48140000D01*
X131632380Y-48616190D02*
X130632380Y-48616190D01*
X130632380Y-48854286D01*
X130680000Y-48997143D01*
X130775238Y-49092381D01*
X130870476Y-49140000D01*
X131060952Y-49187619D01*
X131203809Y-49187619D01*
X131394285Y-49140000D01*
X131489523Y-49092381D01*
X131584761Y-48997143D01*
X131632380Y-48854286D01*
X131632380Y-48616190D01*
X92017380Y-138067618D02*
X92017380Y-137591428D01*
X92493571Y-137543809D01*
X92445952Y-137591428D01*
X92398333Y-137686666D01*
X92398333Y-137924761D01*
X92445952Y-138019999D01*
X92493571Y-138067618D01*
X92588809Y-138115237D01*
X92826904Y-138115237D01*
X92922142Y-138067618D01*
X92969761Y-138019999D01*
X93017380Y-137924761D01*
X93017380Y-137686666D01*
X92969761Y-137591428D01*
X92922142Y-137543809D01*
X92017380Y-138400952D02*
X93017380Y-138734285D01*
X92017380Y-139067618D01*
X109852380Y-139383809D02*
X109852380Y-138812380D01*
X109852380Y-139098095D02*
X108852380Y-139098095D01*
X108995238Y-139002857D01*
X109090476Y-138907618D01*
X109138095Y-138812380D01*
X108852380Y-139669523D02*
X109852380Y-140002857D01*
X108852380Y-140336190D01*
X109280952Y-140812380D02*
X109233333Y-140717142D01*
X109185714Y-140669523D01*
X109090476Y-140621904D01*
X109042857Y-140621904D01*
X108947619Y-140669523D01*
X108900000Y-140717142D01*
X108852380Y-140812380D01*
X108852380Y-141002857D01*
X108900000Y-141098095D01*
X108947619Y-141145714D01*
X109042857Y-141193333D01*
X109090476Y-141193333D01*
X109185714Y-141145714D01*
X109233333Y-141098095D01*
X109280952Y-141002857D01*
X109280952Y-140812380D01*
X109328571Y-140717142D01*
X109376190Y-140669523D01*
X109471428Y-140621904D01*
X109661904Y-140621904D01*
X109757142Y-140669523D01*
X109804761Y-140717142D01*
X109852380Y-140812380D01*
X109852380Y-141002857D01*
X109804761Y-141098095D01*
X109757142Y-141145714D01*
X109661904Y-141193333D01*
X109471428Y-141193333D01*
X109376190Y-141145714D01*
X109328571Y-141098095D01*
X109280952Y-141002857D01*
X106026190Y-110514761D02*
X106883333Y-111800476D01*
X104978571Y-110657619D02*
X104930952Y-110610000D01*
X104835714Y-110562380D01*
X104597619Y-110562380D01*
X104502380Y-110610000D01*
X104454761Y-110657619D01*
X104407142Y-110752857D01*
X104407142Y-110848095D01*
X104454761Y-110990952D01*
X105026190Y-111562380D01*
X104407142Y-111562380D01*
X103454761Y-111562380D02*
X104026190Y-111562380D01*
X103740476Y-111562380D02*
X103740476Y-110562380D01*
X103835714Y-110705238D01*
X103930952Y-110800476D01*
X104026190Y-110848095D01*
X103026190Y-111562380D02*
X103026190Y-110562380D01*
X102692857Y-111276666D01*
X102359523Y-110562380D01*
X102359523Y-111562380D01*
X123853329Y-46759047D02*
X123900948Y-46901904D01*
X123900948Y-47139999D01*
X123853329Y-47235237D01*
X123805710Y-47282856D01*
X123710472Y-47330475D01*
X123615234Y-47330475D01*
X123519996Y-47282856D01*
X123472377Y-47235237D01*
X123424758Y-47139999D01*
X123377139Y-46949523D01*
X123329520Y-46854285D01*
X123281901Y-46806666D01*
X123186663Y-46759047D01*
X123091425Y-46759047D01*
X122996187Y-46806666D01*
X122948568Y-46854285D01*
X122900948Y-46949523D01*
X122900948Y-47187618D01*
X122948568Y-47330475D01*
X123900948Y-47759047D02*
X122900948Y-47759047D01*
X122900948Y-47997142D01*
X122948568Y-48139999D01*
X123043806Y-48235237D01*
X123139044Y-48282856D01*
X123329520Y-48330475D01*
X123472377Y-48330475D01*
X123662853Y-48282856D01*
X123758091Y-48235237D01*
X123853329Y-48139999D01*
X123900948Y-47997142D01*
X123900948Y-47759047D01*
X123615234Y-48711428D02*
X123615234Y-49187618D01*
X123900948Y-48616190D02*
X122900948Y-48949523D01*
X123900948Y-49282856D01*
X113068571Y-48473333D02*
X113116190Y-48616190D01*
X113163809Y-48663809D01*
X113259047Y-48711428D01*
X113401904Y-48711428D01*
X113497142Y-48663809D01*
X113544761Y-48616190D01*
X113592380Y-48520952D01*
X113592380Y-48140000D01*
X112592380Y-48140000D01*
X112592380Y-48473333D01*
X112640000Y-48568571D01*
X112687619Y-48616190D01*
X112782857Y-48663809D01*
X112878095Y-48663809D01*
X112973333Y-48616190D01*
X113020952Y-48568571D01*
X113068571Y-48473333D01*
X113068571Y-48140000D01*
X113592380Y-49140000D02*
X112592380Y-49140000D01*
X121680476Y-94992380D02*
X122251904Y-94992380D01*
X121966190Y-94992380D02*
X121966190Y-93992380D01*
X122061428Y-94135238D01*
X122156666Y-94230476D01*
X122251904Y-94278095D01*
X121299523Y-94087619D02*
X121251904Y-94040000D01*
X121156666Y-93992380D01*
X120918571Y-93992380D01*
X120823333Y-94040000D01*
X120775714Y-94087619D01*
X120728095Y-94182857D01*
X120728095Y-94278095D01*
X120775714Y-94420952D01*
X121347142Y-94992380D01*
X120728095Y-94992380D01*
X116530476Y-94992380D02*
X117101904Y-94992380D01*
X116816190Y-94992380D02*
X116816190Y-93992380D01*
X116911428Y-94135238D01*
X117006666Y-94230476D01*
X117101904Y-94278095D01*
X115673333Y-94325714D02*
X115673333Y-94992380D01*
X115911428Y-93944761D02*
X116149523Y-94659047D01*
X115530476Y-94659047D01*
X120323806Y-47759047D02*
X120323806Y-48330475D01*
X121323806Y-48044761D02*
X120323806Y-48044761D01*
X120323806Y-48568571D02*
X121323806Y-49235237D01*
X120323806Y-49235237D02*
X121323806Y-48568571D01*
X79519523Y-51942380D02*
X79186190Y-52942380D01*
X78852857Y-51942380D01*
X78567142Y-52037619D02*
X78519523Y-51990000D01*
X78424285Y-51942380D01*
X78186190Y-51942380D01*
X78090952Y-51990000D01*
X78043333Y-52037619D01*
X77995714Y-52132857D01*
X77995714Y-52228095D01*
X78043333Y-52370952D01*
X78614761Y-52942380D01*
X77995714Y-52942380D01*
D11*
X108279523Y-110912380D02*
X108089047Y-110817142D01*
X107898571Y-110912380D01*
X107803333Y-111102857D01*
X107898571Y-111293333D01*
X108089047Y-111388571D01*
X108279523Y-111293333D01*
X108660476Y-110912380D01*
X108850952Y-110817142D01*
X109041428Y-110912380D01*
X109136666Y-111102857D01*
X109041428Y-111293333D01*
X108850952Y-111388571D01*
X108660476Y-111293333D01*
X108279523Y-110912380D01*
D10*
X114611904Y-94087619D02*
X114564285Y-94040000D01*
X114469047Y-93992380D01*
X114230952Y-93992380D01*
X114135714Y-94040000D01*
X114088095Y-94087619D01*
X114040476Y-94182857D01*
X114040476Y-94278095D01*
X114088095Y-94420952D01*
X114659523Y-94992380D01*
X114040476Y-94992380D01*
X113088095Y-94992380D02*
X113659523Y-94992380D01*
X113373809Y-94992380D02*
X113373809Y-93992380D01*
X113469047Y-94135238D01*
X113564285Y-94230476D01*
X113659523Y-94278095D01*
X117083809Y-84391428D02*
X116321904Y-84391428D01*
X115321904Y-83820000D02*
X115417142Y-83772380D01*
X115560000Y-83772380D01*
X115702857Y-83820000D01*
X115798095Y-83915238D01*
X115845714Y-84010476D01*
X115893333Y-84200952D01*
X115893333Y-84343809D01*
X115845714Y-84534285D01*
X115798095Y-84629523D01*
X115702857Y-84724761D01*
X115560000Y-84772380D01*
X115464761Y-84772380D01*
X115321904Y-84724761D01*
X115274285Y-84677142D01*
X115274285Y-84343809D01*
X115464761Y-84343809D01*
X114845714Y-84772380D02*
X114845714Y-83772380D01*
X114274285Y-84772380D01*
X114274285Y-83772380D01*
X113798095Y-84772380D02*
X113798095Y-83772380D01*
X113560000Y-83772380D01*
X113417142Y-83820000D01*
X113321904Y-83915238D01*
X113274285Y-84010476D01*
X113226666Y-84200952D01*
X113226666Y-84343809D01*
X113274285Y-84534285D01*
X113321904Y-84629523D01*
X113417142Y-84724761D01*
X113560000Y-84772380D01*
X113798095Y-84772380D01*
X112798095Y-84391428D02*
X112036190Y-84391428D01*
X112384880Y-139764762D02*
X111908690Y-139431428D01*
X112384880Y-139193333D02*
X111384880Y-139193333D01*
X111384880Y-139574285D01*
X111432500Y-139669524D01*
X111480119Y-139717143D01*
X111575357Y-139764762D01*
X111718214Y-139764762D01*
X111813452Y-139717143D01*
X111861071Y-139669524D01*
X111908690Y-139574285D01*
X111908690Y-139193333D01*
X111384880Y-140098095D02*
X112384880Y-140764762D01*
X111384880Y-140764762D02*
X112384880Y-140098095D01*
X112384880Y-141145714D02*
X111384880Y-141145714D01*
X98082380Y-136115238D02*
X97082380Y-136115238D01*
X97082380Y-136496190D01*
X97130000Y-136591428D01*
X97177619Y-136639047D01*
X97272857Y-136686666D01*
X97415714Y-136686666D01*
X97510952Y-136639047D01*
X97558571Y-136591428D01*
X97606190Y-136496190D01*
X97606190Y-136115238D01*
X97082380Y-137020000D02*
X98082380Y-137258095D01*
X97368095Y-137448571D01*
X98082380Y-137639047D01*
X97082380Y-137877142D01*
X98082380Y-138258095D02*
X97082380Y-138258095D01*
X97796666Y-138591428D01*
X97082380Y-138924761D01*
X98082380Y-138924761D01*
X119030000Y-139098095D02*
X118982380Y-139002857D01*
X118982380Y-138860000D01*
X119030000Y-138717142D01*
X119125238Y-138621904D01*
X119220476Y-138574285D01*
X119410952Y-138526666D01*
X119553809Y-138526666D01*
X119744285Y-138574285D01*
X119839523Y-138621904D01*
X119934761Y-138717142D01*
X119982380Y-138860000D01*
X119982380Y-138955238D01*
X119934761Y-139098095D01*
X119887142Y-139145714D01*
X119553809Y-139145714D01*
X119553809Y-138955238D01*
X119982380Y-139574285D02*
X118982380Y-139574285D01*
X119982380Y-140145714D01*
X118982380Y-140145714D01*
X119982380Y-140621904D02*
X118982380Y-140621904D01*
X118982380Y-140860000D01*
X119030000Y-141002857D01*
X119125238Y-141098095D01*
X119220476Y-141145714D01*
X119410952Y-141193333D01*
X119553809Y-141193333D01*
X119744285Y-141145714D01*
X119839523Y-141098095D01*
X119934761Y-141002857D01*
X119982380Y-140860000D01*
X119982380Y-140621904D01*
X113917380Y-138717142D02*
X113917380Y-139288571D01*
X114917380Y-139002857D02*
X113917380Y-139002857D01*
X113917380Y-139526666D02*
X114917380Y-140193333D01*
X113917380Y-140193333D02*
X114917380Y-139526666D01*
X113917380Y-140764761D02*
X113917380Y-140955237D01*
X113965000Y-141050476D01*
X114060238Y-141145714D01*
X114250714Y-141193333D01*
X114584047Y-141193333D01*
X114774523Y-141145714D01*
X114869761Y-141050476D01*
X114917380Y-140955237D01*
X114917380Y-140764761D01*
X114869761Y-140669523D01*
X114774523Y-140574285D01*
X114584047Y-140526666D01*
X114250714Y-140526666D01*
X114060238Y-140574285D01*
X113965000Y-140669523D01*
X113917380Y-140764761D01*
X94549880Y-136639047D02*
X94549880Y-137210475D01*
X95549880Y-136924761D02*
X94549880Y-136924761D01*
X95264166Y-137496190D02*
X95264166Y-137972380D01*
X95549880Y-137400952D02*
X94549880Y-137734285D01*
X95549880Y-138067618D01*
X95454642Y-138972380D02*
X95502261Y-138924761D01*
X95549880Y-138781904D01*
X95549880Y-138686666D01*
X95502261Y-138543809D01*
X95407023Y-138448571D01*
X95311785Y-138400952D01*
X95121309Y-138353333D01*
X94978452Y-138353333D01*
X94787976Y-138400952D01*
X94692738Y-138448571D01*
X94597500Y-138543809D01*
X94549880Y-138686666D01*
X94549880Y-138781904D01*
X94597500Y-138924761D01*
X94645119Y-138972380D01*
X116169522Y-47473332D02*
X115693332Y-47139999D01*
X116169522Y-46901904D02*
X115169522Y-46901904D01*
X115169522Y-47282856D01*
X115217142Y-47378094D01*
X115264761Y-47425713D01*
X115359999Y-47473332D01*
X115502856Y-47473332D01*
X115598094Y-47425713D01*
X115645713Y-47378094D01*
X115693332Y-47282856D01*
X115693332Y-46901904D01*
X116121903Y-47854285D02*
X116169522Y-47997142D01*
X116169522Y-48235237D01*
X116121903Y-48330475D01*
X116074284Y-48378094D01*
X115979046Y-48425713D01*
X115883808Y-48425713D01*
X115788570Y-48378094D01*
X115740951Y-48330475D01*
X115693332Y-48235237D01*
X115645713Y-48044761D01*
X115598094Y-47949523D01*
X115550475Y-47901904D01*
X115455237Y-47854285D01*
X115359999Y-47854285D01*
X115264761Y-47901904D01*
X115217142Y-47949523D01*
X115169522Y-48044761D01*
X115169522Y-48282856D01*
X115217142Y-48425713D01*
X115169522Y-48711428D02*
X115169522Y-49282856D01*
X116169522Y-48997142D02*
X115169522Y-48997142D01*
X127146190Y-94070000D02*
X127241428Y-94022380D01*
X127384285Y-94022380D01*
X127527142Y-94070000D01*
X127622380Y-94165238D01*
X127670000Y-94260476D01*
X127717619Y-94450952D01*
X127717619Y-94593809D01*
X127670000Y-94784285D01*
X127622380Y-94879523D01*
X127527142Y-94974761D01*
X127384285Y-95022380D01*
X127289047Y-95022380D01*
X127146190Y-94974761D01*
X127098571Y-94927142D01*
X127098571Y-94593809D01*
X127289047Y-94593809D01*
X126670000Y-95022380D02*
X126670000Y-94022380D01*
X126289047Y-94022380D01*
X126193809Y-94070000D01*
X126146190Y-94117619D01*
X126098571Y-94212857D01*
X126098571Y-94355714D01*
X126146190Y-94450952D01*
X126193809Y-94498571D01*
X126289047Y-94546190D01*
X126670000Y-94546190D01*
X125670000Y-95022380D02*
X125670000Y-94022380D01*
X125003333Y-94022380D02*
X124812857Y-94022380D01*
X124717619Y-94070000D01*
X124622380Y-94165238D01*
X124574761Y-94355714D01*
X124574761Y-94689047D01*
X124622380Y-94879523D01*
X124717619Y-94974761D01*
X124812857Y-95022380D01*
X125003333Y-95022380D01*
X125098571Y-94974761D01*
X125193809Y-94879523D01*
X125241428Y-94689047D01*
X125241428Y-94355714D01*
X125193809Y-94165238D01*
X125098571Y-94070000D01*
X125003333Y-94022380D01*
X124098571Y-95022380D02*
X123908095Y-95022380D01*
X123812857Y-94974761D01*
X123765238Y-94927142D01*
X123670000Y-94784285D01*
X123622380Y-94593809D01*
X123622380Y-94212857D01*
X123670000Y-94117619D01*
X123717619Y-94070000D01*
X123812857Y-94022380D01*
X124003333Y-94022380D01*
X124098571Y-94070000D01*
X124146190Y-94117619D01*
X124193809Y-94212857D01*
X124193809Y-94450952D01*
X124146190Y-94546190D01*
X124098571Y-94593809D01*
X124003333Y-94641428D01*
X123812857Y-94641428D01*
X123717619Y-94593809D01*
X123670000Y-94546190D01*
X123622380Y-94450952D01*
X126430471Y-46806666D02*
X126478090Y-46949523D01*
X126478090Y-47187619D01*
X126430471Y-47282857D01*
X126382852Y-47330476D01*
X126287614Y-47378095D01*
X126192376Y-47378095D01*
X126097138Y-47330476D01*
X126049519Y-47282857D01*
X126001900Y-47187619D01*
X125954281Y-46997143D01*
X125906662Y-46901904D01*
X125859043Y-46854285D01*
X125763805Y-46806666D01*
X125668567Y-46806666D01*
X125573329Y-46854285D01*
X125525710Y-46901904D01*
X125478090Y-46997143D01*
X125478090Y-47235238D01*
X125525710Y-47378095D01*
X126382852Y-48378095D02*
X126430471Y-48330476D01*
X126478090Y-48187619D01*
X126478090Y-48092381D01*
X126430471Y-47949523D01*
X126335233Y-47854285D01*
X126239995Y-47806666D01*
X126049519Y-47759047D01*
X125906662Y-47759047D01*
X125716186Y-47806666D01*
X125620948Y-47854285D01*
X125525710Y-47949523D01*
X125478090Y-48092381D01*
X125478090Y-48187619D01*
X125525710Y-48330476D01*
X125573329Y-48378095D01*
X126478090Y-49282857D02*
X126478090Y-48806666D01*
X125478090Y-48806666D01*
X89532500Y-136877143D02*
X89484880Y-136781905D01*
X89484880Y-136639048D01*
X89532500Y-136496190D01*
X89627738Y-136400952D01*
X89722976Y-136353333D01*
X89913452Y-136305714D01*
X90056309Y-136305714D01*
X90246785Y-136353333D01*
X90342023Y-136400952D01*
X90437261Y-136496190D01*
X90484880Y-136639048D01*
X90484880Y-136734286D01*
X90437261Y-136877143D01*
X90389642Y-136924762D01*
X90056309Y-136924762D01*
X90056309Y-136734286D01*
X90484880Y-137353333D02*
X89484880Y-137353333D01*
X90484880Y-137924762D01*
X89484880Y-137924762D01*
X90484880Y-138400952D02*
X89484880Y-138400952D01*
X89484880Y-138639048D01*
X89532500Y-138781905D01*
X89627738Y-138877143D01*
X89722976Y-138924762D01*
X89913452Y-138972381D01*
X90056309Y-138972381D01*
X90246785Y-138924762D01*
X90342023Y-138877143D01*
X90437261Y-138781905D01*
X90484880Y-138639048D01*
X90484880Y-138400952D01*
X118746664Y-48235238D02*
X118270474Y-47901905D01*
X118746664Y-47663809D02*
X117746664Y-47663809D01*
X117746664Y-48044762D01*
X117794284Y-48140000D01*
X117841903Y-48187619D01*
X117937141Y-48235238D01*
X118079998Y-48235238D01*
X118175236Y-48187619D01*
X118222855Y-48140000D01*
X118270474Y-48044762D01*
X118270474Y-47663809D01*
X117746664Y-48568571D02*
X118746664Y-49235238D01*
X117746664Y-49235238D02*
X118746664Y-48568571D01*
%TO.C,C28*%
X108252857Y-137677142D02*
X108300476Y-137724761D01*
X108443333Y-137772380D01*
X108538571Y-137772380D01*
X108681428Y-137724761D01*
X108776666Y-137629523D01*
X108824285Y-137534285D01*
X108871904Y-137343809D01*
X108871904Y-137200952D01*
X108824285Y-137010476D01*
X108776666Y-136915238D01*
X108681428Y-136820000D01*
X108538571Y-136772380D01*
X108443333Y-136772380D01*
X108300476Y-136820000D01*
X108252857Y-136867619D01*
X107871904Y-136867619D02*
X107824285Y-136820000D01*
X107729047Y-136772380D01*
X107490952Y-136772380D01*
X107395714Y-136820000D01*
X107348095Y-136867619D01*
X107300476Y-136962857D01*
X107300476Y-137058095D01*
X107348095Y-137200952D01*
X107919523Y-137772380D01*
X107300476Y-137772380D01*
X106729047Y-137200952D02*
X106824285Y-137153333D01*
X106871904Y-137105714D01*
X106919523Y-137010476D01*
X106919523Y-136962857D01*
X106871904Y-136867619D01*
X106824285Y-136820000D01*
X106729047Y-136772380D01*
X106538571Y-136772380D01*
X106443333Y-136820000D01*
X106395714Y-136867619D01*
X106348095Y-136962857D01*
X106348095Y-137010476D01*
X106395714Y-137105714D01*
X106443333Y-137153333D01*
X106538571Y-137200952D01*
X106729047Y-137200952D01*
X106824285Y-137248571D01*
X106871904Y-137296190D01*
X106919523Y-137391428D01*
X106919523Y-137581904D01*
X106871904Y-137677142D01*
X106824285Y-137724761D01*
X106729047Y-137772380D01*
X106538571Y-137772380D01*
X106443333Y-137724761D01*
X106395714Y-137677142D01*
X106348095Y-137581904D01*
X106348095Y-137391428D01*
X106395714Y-137296190D01*
X106443333Y-137248571D01*
X106538571Y-137200952D01*
%TO.C,J7*%
X81003333Y-75992380D02*
X81003333Y-76706666D01*
X81050952Y-76849523D01*
X81146190Y-76944761D01*
X81289047Y-76992380D01*
X81384285Y-76992380D01*
X80622380Y-75992380D02*
X79955714Y-75992380D01*
X80384285Y-76992380D01*
D12*
%TO.C,U12*%
X114610000Y-81960000D02*
X113860000Y-81960000D01*
X113860000Y-81960000D02*
X113860000Y-80960000D01*
X114610000Y-63960000D02*
X113860000Y-63960000D01*
X113860000Y-63960000D02*
X113860000Y-64960000D01*
%TO.C,C28*%
X101144437Y-138010000D02*
X102430000Y-138010000D01*
X106900000Y-139074437D02*
X106900000Y-144830000D01*
X100080000Y-144830000D02*
X102430000Y-144830000D01*
X105835563Y-138010000D02*
X106900000Y-139074437D01*
X105835563Y-138010000D02*
X104550000Y-138010000D01*
X101144437Y-138010000D02*
X100080000Y-139074437D01*
X100080000Y-139074437D02*
X100080000Y-144830000D01*
X106900000Y-144830000D02*
X104550000Y-144830000D01*
X101642500Y-136982500D02*
X101642500Y-137770000D01*
X101248750Y-137376250D02*
X102036250Y-137376250D01*
%TO.C,J4*%
X96800000Y-145520000D02*
X96800000Y-144920000D01*
X90230000Y-141030000D02*
X97350000Y-141030000D01*
X94260000Y-145520000D02*
X94260000Y-144920000D01*
X93320000Y-144920000D02*
X93320000Y-145520000D01*
X96800000Y-144920000D02*
X98400000Y-144920000D01*
X88310000Y-144490000D02*
X88310000Y-140490000D01*
X89980000Y-140500000D02*
X97600000Y-140500000D01*
X95860000Y-144920000D02*
X95860000Y-145520000D01*
X98980000Y-145520000D02*
X88600000Y-145520000D01*
X97600000Y-140500000D02*
X97600000Y-139500000D01*
X89180000Y-144920000D02*
X90780000Y-144920000D01*
X90230000Y-139500000D02*
X90230000Y-140500000D01*
X89980000Y-140500000D02*
X90230000Y-141030000D01*
X89980000Y-139500000D02*
X89980000Y-140500000D01*
X91720000Y-145520000D02*
X91720000Y-144920000D01*
X91720000Y-144920000D02*
X93320000Y-144920000D01*
X98400000Y-144920000D02*
X98400000Y-145520000D01*
X97350000Y-139500000D02*
X97350000Y-140500000D01*
X98980000Y-139500000D02*
X98980000Y-145520000D01*
X89180000Y-145520000D02*
X89180000Y-144920000D01*
X97350000Y-141030000D02*
X97600000Y-140500000D01*
X94260000Y-144920000D02*
X95860000Y-144920000D01*
X88600000Y-145520000D02*
X88600000Y-139500000D01*
X90780000Y-144920000D02*
X90780000Y-145520000D01*
X88600000Y-139500000D02*
X98980000Y-139500000D01*
%TO.C,J2*%
X86650000Y-66640000D02*
X86650000Y-60140000D01*
X86650000Y-60140000D02*
X78650000Y-60140000D01*
X78650000Y-60140000D02*
X78650000Y-66640000D01*
X78650000Y-66640000D02*
X86650000Y-66640000D01*
%TO.C,J1*%
X86650000Y-74060000D02*
X86650000Y-67560000D01*
X78650000Y-67560000D02*
X78650000Y-74060000D01*
X78650000Y-74060000D02*
X86650000Y-74060000D01*
X86650000Y-67560000D02*
X78650000Y-67560000D01*
%TO.C,J6*%
X114610000Y-52220000D02*
X132450000Y-52220000D01*
X114610000Y-49560000D02*
X132450000Y-49560000D01*
X112010000Y-49560000D02*
X112010000Y-50890000D01*
X114610000Y-49560000D02*
X114610000Y-52220000D01*
X113340000Y-49560000D02*
X112010000Y-49560000D01*
X132450000Y-49560000D02*
X132450000Y-52220000D01*
%TO.C,J7*%
X83000000Y-75210000D02*
X81670000Y-75210000D01*
X84270000Y-77870000D02*
X86870000Y-77870000D01*
X84270000Y-75210000D02*
X86870000Y-75210000D01*
X84270000Y-75210000D02*
X84270000Y-77870000D01*
X86870000Y-75210000D02*
X86870000Y-77870000D01*
X81670000Y-75210000D02*
X81670000Y-76540000D01*
%TO.C,J3*%
X109350000Y-142250000D02*
X108020000Y-142250000D01*
X110620000Y-142250000D02*
X120840000Y-142250000D01*
X120840000Y-142250000D02*
X120840000Y-144910000D01*
X108020000Y-142250000D02*
X108020000Y-143580000D01*
X110620000Y-144910000D02*
X120840000Y-144910000D01*
X110620000Y-142250000D02*
X110620000Y-144910000D01*
%TO.C,IC1*%
X109740000Y-112430000D02*
X101640000Y-112430000D01*
X101640000Y-112430000D02*
X101640000Y-120530000D01*
X101640000Y-120530000D02*
X109740000Y-120530000D01*
X109740000Y-120530000D02*
X109740000Y-112430000D01*
D11*
X110369000Y-112466000D02*
G75*
G03*
X110369000Y-112466000I-125000J0D01*
G01*
D12*
%TO.C,J5*%
X130035000Y-59000000D02*
X130035000Y-58365000D01*
X129400000Y-59000000D02*
X130035000Y-59000000D01*
%TO.C,kibuzzard-6387FBC5*%
G36*
X87503465Y-61600282D02*
G01*
X87530182Y-61420166D01*
X87574426Y-61243536D01*
X87635769Y-61072092D01*
X87713622Y-60907488D01*
X87807233Y-60751306D01*
X87915702Y-60605052D01*
X88037985Y-60470135D01*
X88172902Y-60347852D01*
X88319156Y-60239383D01*
X88475337Y-60145772D01*
X88639942Y-60067919D01*
X88811385Y-60006576D01*
X88988016Y-59962332D01*
X89168132Y-59935615D01*
X89350000Y-59926680D01*
X89531868Y-59935615D01*
X89711984Y-59962332D01*
X89888615Y-60006576D01*
X90060058Y-60067919D01*
X90224663Y-60145772D01*
X90380844Y-60239383D01*
X90527098Y-60347852D01*
X90662015Y-60470135D01*
X90784298Y-60605052D01*
X90892767Y-60751306D01*
X90986378Y-60907488D01*
X91064231Y-61072092D01*
X91125574Y-61243536D01*
X91169818Y-61420166D01*
X91196535Y-61600282D01*
X91205470Y-61782150D01*
X91205470Y-73097850D01*
X91196535Y-73279718D01*
X91169818Y-73459834D01*
X91125574Y-73636465D01*
X91064231Y-73807908D01*
X90986378Y-73972513D01*
X90892767Y-74128694D01*
X90784298Y-74274948D01*
X90662015Y-74409865D01*
X90527098Y-74532148D01*
X90380844Y-74640617D01*
X90224662Y-74734228D01*
X90060058Y-74812081D01*
X89888615Y-74873424D01*
X89711984Y-74917668D01*
X89531868Y-74944385D01*
X89350000Y-74953320D01*
X89168132Y-74944385D01*
X88988016Y-74917668D01*
X88811385Y-74873424D01*
X88639942Y-74812081D01*
X88475338Y-74734228D01*
X88319156Y-74640617D01*
X88172902Y-74532148D01*
X88037985Y-74409865D01*
X87915702Y-74274948D01*
X87807233Y-74128694D01*
X87713622Y-73972513D01*
X87635769Y-73807908D01*
X87574426Y-73636465D01*
X87530182Y-73459834D01*
X87503465Y-73279718D01*
X87494530Y-73097850D01*
X87494530Y-71220473D01*
X88592762Y-71220473D01*
X89089967Y-71220473D01*
X89089967Y-71669100D01*
X89378575Y-71669100D01*
X89378575Y-71220473D01*
X89875780Y-71220473D01*
X89875780Y-70917578D01*
X89378575Y-70917578D01*
X89378575Y-70468950D01*
X89089967Y-70468950D01*
X89089967Y-70917578D01*
X88592762Y-70917578D01*
X88592762Y-71220473D01*
X87494530Y-71220473D01*
X87494530Y-68348685D01*
X88447030Y-68348685D01*
X88455602Y-68488703D01*
X88477034Y-68625863D01*
X88507037Y-68744449D01*
X88538470Y-68825888D01*
X88829935Y-68754450D01*
X88772785Y-68594430D01*
X88753497Y-68485131D01*
X88747067Y-68351543D01*
X88769927Y-68181521D01*
X88828506Y-68075794D01*
X88909945Y-68022930D01*
X89004242Y-68008643D01*
X89139974Y-68032931D01*
X89245701Y-68130086D01*
X89314281Y-68337255D01*
X89332498Y-68492274D01*
X89338570Y-68688728D01*
X89576100Y-68663010D01*
X89808629Y-68643008D01*
X90034728Y-68628006D01*
X90252970Y-68617290D01*
X90252970Y-67714320D01*
X89961505Y-67714320D01*
X89961505Y-68322968D01*
X89770052Y-68337255D01*
X89607175Y-68351543D01*
X89577965Y-68135325D01*
X89520815Y-67959113D01*
X89435725Y-67822905D01*
X89323330Y-67726068D01*
X89184265Y-67667965D01*
X89018530Y-67648598D01*
X88791359Y-67691460D01*
X88609907Y-67822905D01*
X88541327Y-67922203D01*
X88489892Y-68042933D01*
X88457746Y-68185093D01*
X88447030Y-68348685D01*
X87494530Y-68348685D01*
X87494530Y-66965655D01*
X88484177Y-66965655D01*
X88694204Y-67036378D01*
X88929947Y-67111388D01*
X89095524Y-67161870D01*
X89260782Y-67210448D01*
X89425724Y-67257120D01*
X89587490Y-67301253D01*
X89743224Y-67342210D01*
X89892925Y-67379993D01*
X90092950Y-67427141D01*
X90252970Y-67460003D01*
X90252970Y-67088528D01*
X90104737Y-67067096D01*
X89934359Y-67037093D01*
X89750050Y-67001017D01*
X89560026Y-66961369D01*
X89368574Y-66918506D01*
X89179979Y-66872786D01*
X89002457Y-66825995D01*
X88844222Y-66779918D01*
X89000313Y-66734198D01*
X89177121Y-66688478D01*
X89365716Y-66644186D01*
X89557169Y-66602753D01*
X89747550Y-66564176D01*
X89932930Y-66528458D01*
X90104380Y-66497025D01*
X90252970Y-66471308D01*
X90252970Y-66102690D01*
X90071519Y-66140909D01*
X89870065Y-66186986D01*
X89653252Y-66240564D01*
X89425724Y-66301286D01*
X89269514Y-66345578D01*
X89111399Y-66392726D01*
X88951379Y-66442733D01*
X88792152Y-66494803D01*
X88636419Y-66548143D01*
X88484177Y-66602753D01*
X88484177Y-66965655D01*
X87494530Y-66965655D01*
X87494530Y-64639650D01*
X89115685Y-64639650D01*
X89378575Y-64639650D01*
X89378575Y-63210900D01*
X89115685Y-63210900D01*
X89115685Y-64639650D01*
X87494530Y-64639650D01*
X87494530Y-61782150D01*
X87503465Y-61600282D01*
G37*
D13*
%TO.C,U13*%
X112888747Y-53427400D02*
X112888747Y-56932600D01*
X112888747Y-56932600D02*
X109383547Y-56932600D01*
X109383547Y-53427400D02*
X112888747Y-53427400D01*
X109383547Y-56932600D02*
X109383547Y-53427400D01*
D14*
X113919000Y-53620000D02*
G75*
G03*
X113919000Y-53620000I-162853J0D01*
G01*
%TO.C,kibuzzard-6387EEBE*%
G36*
X98436432Y-58010291D02*
G01*
X102183568Y-58010291D01*
X102183568Y-60969709D01*
X98436432Y-60969709D01*
X98436432Y-60374396D01*
X99627057Y-60374396D01*
X100007105Y-60374396D01*
X100067470Y-60220806D01*
X100139979Y-60051499D01*
X100220346Y-59874334D01*
X100304285Y-59697169D01*
X100387152Y-59868976D01*
X100470020Y-60047213D01*
X100547173Y-60219734D01*
X100612895Y-60374396D01*
X100992943Y-60374396D01*
X100908646Y-60188659D01*
X100850067Y-60075788D01*
X100785774Y-59954344D01*
X100716837Y-59826828D01*
X100644328Y-59695740D01*
X100571461Y-59565367D01*
X100501452Y-59439994D01*
X100964368Y-58605604D01*
X100584320Y-58605604D01*
X100304285Y-59171389D01*
X100009963Y-58605604D01*
X99655632Y-58605604D01*
X100107118Y-59431421D01*
X100030679Y-59557151D01*
X99955670Y-59688596D01*
X99883875Y-59821113D01*
X99817081Y-59950058D01*
X99756717Y-60072930D01*
X99704210Y-60187230D01*
X99627057Y-60374396D01*
X98436432Y-60374396D01*
X98436432Y-58010291D01*
G37*
%TO.C,kibuzzard-6387EECB*%
G36*
X109366445Y-57950291D02*
G01*
X112913555Y-57950291D01*
X112913555Y-60909709D01*
X109366445Y-60909709D01*
X109366445Y-60314396D01*
X110557070Y-60314396D01*
X111722930Y-60314396D01*
X111722930Y-60111514D01*
X111657922Y-59985427D01*
X111588627Y-59852910D01*
X111512904Y-59712535D01*
X111428608Y-59562874D01*
X111336096Y-59402139D01*
X111235726Y-59228546D01*
X111126070Y-59040666D01*
X111005697Y-58837069D01*
X111685783Y-58837069D01*
X111685783Y-58545604D01*
X110582787Y-58545604D01*
X110582787Y-58791349D01*
X110700659Y-58974229D01*
X110808530Y-59145679D01*
X110907828Y-59307485D01*
X110999982Y-59461432D01*
X111086065Y-59608594D01*
X111167146Y-59750040D01*
X111243942Y-59887557D01*
X111317165Y-60022931D01*
X110557070Y-60022931D01*
X110557070Y-60314396D01*
X109366445Y-60314396D01*
X109366445Y-57950291D01*
G37*
D12*
%TO.C,J8*%
X109910000Y-92040000D02*
X109910000Y-86840000D01*
X110480000Y-92040000D02*
X109910000Y-92040000D01*
X123180000Y-92040000D02*
X122160000Y-92040000D01*
X118100000Y-86840000D02*
X117080000Y-86840000D01*
X113020000Y-92040000D02*
X112000000Y-92040000D01*
X110480000Y-86840000D02*
X109910000Y-86840000D01*
X125270000Y-92040000D02*
X125270000Y-86840000D01*
X115560000Y-92040000D02*
X114540000Y-92040000D01*
X118100000Y-92040000D02*
X117080000Y-92040000D01*
X113020000Y-86840000D02*
X112000000Y-86840000D01*
X123180000Y-86840000D02*
X122160000Y-86840000D01*
X124700000Y-93480000D02*
X124700000Y-92040000D01*
X120640000Y-86840000D02*
X119620000Y-86840000D01*
X125270000Y-86840000D02*
X124700000Y-86840000D01*
X115560000Y-86840000D02*
X114540000Y-86840000D01*
X125270000Y-92040000D02*
X124700000Y-92040000D01*
X120640000Y-92040000D02*
X119620000Y-92040000D01*
%TO.C,kibuzzard-6387EF3C*%
G36*
X106421950Y-50161463D02*
G01*
X106533869Y-50449594D01*
X106417188Y-50732962D01*
X106124294Y-50861550D01*
X105824256Y-50732962D01*
X105700431Y-50447212D01*
X105814731Y-50159081D01*
X106119531Y-50028112D01*
X106421950Y-50161463D01*
G37*
G36*
X78378921Y-47026150D02*
G01*
X109162769Y-47026150D01*
X110881079Y-52753850D01*
X80097231Y-52753850D01*
X79658128Y-51290175D01*
X81883169Y-51290175D01*
X82066525Y-51580687D01*
X82376088Y-51747375D01*
X82668981Y-51556875D01*
X83573856Y-50518650D01*
X84478731Y-51556875D01*
X84771625Y-51747375D01*
X85081187Y-51578306D01*
X85225774Y-51356850D01*
X85412181Y-51356850D01*
X85481237Y-51519966D01*
X85688406Y-51666413D01*
X85943200Y-51747375D01*
X86095600Y-51704513D01*
X86181325Y-51614025D01*
X86255144Y-51471150D01*
X86502794Y-50956800D01*
X87822006Y-50956800D01*
X88069656Y-51471150D01*
X88143475Y-51609263D01*
X88229200Y-51697369D01*
X88381600Y-51742613D01*
X88636394Y-51661650D01*
X88843563Y-51518775D01*
X88912619Y-51356850D01*
X88887219Y-51280650D01*
X89174556Y-51280650D01*
X89219800Y-51541397D01*
X89355531Y-51666413D01*
X89584131Y-51694987D01*
X89803206Y-51671175D01*
X89927031Y-51614025D01*
X89993706Y-51518775D01*
X90017519Y-51271125D01*
X90017519Y-49675687D01*
X90163966Y-49866783D01*
X90365181Y-50144794D01*
X90552109Y-50406136D01*
X90655694Y-50547225D01*
X90741419Y-50659144D01*
X90858100Y-50744869D01*
X91058125Y-50799637D01*
X91253387Y-50749631D01*
X91379594Y-50652000D01*
X91417694Y-50599612D01*
X91559378Y-50413280D01*
X91793931Y-50092406D01*
X92010625Y-49794155D01*
X92098731Y-49675687D01*
X92098731Y-51280650D01*
X92105875Y-51444956D01*
X92151119Y-51566400D01*
X92279706Y-51662841D01*
X92522594Y-51694987D01*
X92758337Y-51662841D01*
X92884544Y-51566400D01*
X92929788Y-51442575D01*
X92936931Y-51271125D01*
X92936931Y-50144794D01*
X93246494Y-50144794D01*
X93282808Y-50399587D01*
X93391750Y-50578181D01*
X93713219Y-50718675D01*
X94841931Y-50718675D01*
X94684769Y-50942513D01*
X94370444Y-51033000D01*
X94123984Y-51018713D01*
X93937056Y-50975850D01*
X93884669Y-50956800D01*
X93694169Y-50904412D01*
X93432231Y-51118725D01*
X93370319Y-51337800D01*
X93433720Y-51523240D01*
X93623922Y-51655697D01*
X93940926Y-51735171D01*
X94384731Y-51761663D01*
X94717511Y-51731302D01*
X95011000Y-51640219D01*
X95254483Y-51499130D01*
X95437244Y-51318750D01*
X95468436Y-51268744D01*
X95927781Y-51268744D01*
X96099231Y-51559256D01*
X96389744Y-51728325D01*
X96680256Y-51556875D01*
X97204131Y-51028237D01*
X97732769Y-51556875D01*
X98020900Y-51728325D01*
X98311412Y-51559256D01*
X98480969Y-51275888D01*
X98747181Y-51275888D01*
X98754325Y-51440194D01*
X98794806Y-51566400D01*
X98909702Y-51659269D01*
X99121037Y-51690225D01*
X99468700Y-51625931D01*
X99571094Y-51437812D01*
X99806242Y-51627122D01*
X100159262Y-51690225D01*
X100427285Y-51648421D01*
X100682079Y-51523008D01*
X100923644Y-51313988D01*
X101119435Y-51049669D01*
X101236910Y-50758362D01*
X101276069Y-50440069D01*
X101236646Y-50122040D01*
X101118377Y-49831527D01*
X100958742Y-49618537D01*
X101466569Y-49618537D01*
X101498716Y-49860234D01*
X101595156Y-49985250D01*
X101721362Y-50025731D01*
X101885669Y-50032875D01*
X102195231Y-50013825D01*
X102195231Y-50671050D01*
X102154750Y-50856787D01*
X102002350Y-50913937D01*
X101830900Y-50921081D01*
X101704694Y-50966325D01*
X101595156Y-51285412D01*
X101628494Y-51527109D01*
X101728506Y-51652125D01*
X101854713Y-51692606D01*
X102014256Y-51699750D01*
X102317998Y-51674879D01*
X102568823Y-51600267D01*
X102766731Y-51475912D01*
X102909606Y-51292292D01*
X102911943Y-51285412D01*
X103723994Y-51285412D01*
X103731137Y-51449719D01*
X103776381Y-51575925D01*
X103899016Y-51668794D01*
X104143094Y-51699750D01*
X104384791Y-51667603D01*
X104509806Y-51571163D01*
X104550287Y-51447338D01*
X104557431Y-51280650D01*
X104557431Y-50444831D01*
X104866994Y-50444831D01*
X104906152Y-50762860D01*
X105023627Y-51053373D01*
X105219419Y-51316369D01*
X105460190Y-51524067D01*
X105712602Y-51648685D01*
X105976656Y-51690225D01*
X106323128Y-51633075D01*
X106552919Y-51461625D01*
X106674362Y-51636647D01*
X106962494Y-51694987D01*
X107204191Y-51662841D01*
X107329206Y-51566400D01*
X107369688Y-51440194D01*
X107376831Y-51275888D01*
X107376831Y-48432675D01*
X107369688Y-48268369D01*
X107329206Y-48146925D01*
X107203000Y-48050484D01*
X106957731Y-48018337D01*
X106717225Y-48050484D01*
X106595781Y-48146925D01*
X106550537Y-48273131D01*
X106543394Y-48437437D01*
X106543394Y-49428037D01*
X106312413Y-49253016D01*
X106000469Y-49194675D01*
X105725567Y-49236479D01*
X105466010Y-49361892D01*
X105221800Y-49570912D01*
X105024685Y-49835231D01*
X104906417Y-50126537D01*
X104866994Y-50444831D01*
X104557431Y-50444831D01*
X104557431Y-49609012D01*
X104550287Y-49444706D01*
X104509806Y-49318500D01*
X104383600Y-49225631D01*
X104140712Y-49194976D01*
X104138331Y-49194675D01*
X103814481Y-49275637D01*
X103728756Y-49480425D01*
X103723994Y-49618537D01*
X103723994Y-51285412D01*
X102911943Y-51285412D01*
X102995331Y-51039879D01*
X103023906Y-50718675D01*
X103023906Y-50013825D01*
X103219169Y-50028112D01*
X103393000Y-49947150D01*
X103462056Y-49670925D01*
X103438244Y-49387556D01*
X103371569Y-49261350D01*
X103181069Y-49199437D01*
X103023906Y-49218487D01*
X103023906Y-48727950D01*
X103016762Y-48566025D01*
X102971519Y-48451725D01*
X102951897Y-48437437D01*
X103723994Y-48437437D01*
X103731137Y-48601744D01*
X103774000Y-48725569D01*
X103900206Y-48823200D01*
X104140712Y-48851775D01*
X104381219Y-48823200D01*
X104507425Y-48723187D01*
X104550287Y-48596981D01*
X104557431Y-48432675D01*
X104550287Y-48268369D01*
X104509806Y-48146925D01*
X104383600Y-48050484D01*
X104138331Y-48018337D01*
X103897825Y-48050484D01*
X103776381Y-48146925D01*
X103731137Y-48273131D01*
X103723994Y-48437437D01*
X102951897Y-48437437D01*
X102848884Y-48362428D01*
X102604806Y-48332662D01*
X102346441Y-48376716D01*
X102219044Y-48508875D01*
X102195231Y-48751762D01*
X102195231Y-49218487D01*
X101878525Y-49199437D01*
X101716600Y-49206581D01*
X101590394Y-49251825D01*
X101497525Y-49374459D01*
X101466569Y-49618537D01*
X100958742Y-49618537D01*
X100921263Y-49568531D01*
X100677052Y-49360833D01*
X100417496Y-49236215D01*
X100142594Y-49194675D01*
X99847319Y-49251825D01*
X99661581Y-49358981D01*
X99575856Y-49456612D01*
X99467509Y-49256587D01*
X99199619Y-49189912D01*
X98923394Y-49218487D01*
X98797188Y-49318500D01*
X98754325Y-49444706D01*
X98747181Y-49609012D01*
X98747181Y-51275888D01*
X98480969Y-51275888D01*
X98485244Y-51268744D01*
X98313794Y-50975850D01*
X97785156Y-50442450D01*
X98313794Y-49909050D01*
X98485244Y-49616156D01*
X98311412Y-49323262D01*
X98020900Y-49151812D01*
X97732769Y-49323262D01*
X97204131Y-49856662D01*
X96680256Y-49323262D01*
X96389744Y-49151812D01*
X96099231Y-49323262D01*
X95927781Y-49616156D01*
X96099231Y-49909050D01*
X96627869Y-50442450D01*
X96099231Y-50975850D01*
X95927781Y-51268744D01*
X95468436Y-51268744D01*
X95603931Y-51051521D01*
X95703944Y-50764183D01*
X95737281Y-50456737D01*
X95694154Y-50083410D01*
X95564773Y-49763529D01*
X95349137Y-49497094D01*
X95068944Y-49297333D01*
X94745887Y-49177477D01*
X94379969Y-49137525D01*
X94071002Y-49166695D01*
X93806087Y-49254206D01*
X93585227Y-49400058D01*
X93408419Y-49604250D01*
X93286975Y-49863211D01*
X93246494Y-50144794D01*
X92936931Y-50144794D01*
X92936931Y-48627937D01*
X92929788Y-48463631D01*
X92884544Y-48337425D01*
X92755956Y-48244556D01*
X92513069Y-48213600D01*
X92291612Y-48244556D01*
X92170169Y-48308850D01*
X92141594Y-48337425D01*
X91060506Y-49756650D01*
X90758183Y-49357171D01*
X90498912Y-49015986D01*
X90282695Y-48733093D01*
X90109530Y-48508494D01*
X89979419Y-48342187D01*
X89843092Y-48245747D01*
X89596038Y-48213600D01*
X89352555Y-48245747D01*
X89226944Y-48342187D01*
X89181700Y-48470775D01*
X89174556Y-48637462D01*
X89174556Y-51280650D01*
X88887219Y-51280650D01*
X88831656Y-51113963D01*
X87545781Y-48451725D01*
X87386238Y-48275512D01*
X87160019Y-48208837D01*
X86936181Y-48270750D01*
X86779019Y-48456487D01*
X85493144Y-51113963D01*
X85412181Y-51356850D01*
X85225774Y-51356850D01*
X85269306Y-51290175D01*
X85102619Y-50985375D01*
X84145356Y-49932862D01*
X85102619Y-48880350D01*
X85269306Y-48580312D01*
X85083569Y-48287419D01*
X84771625Y-48118350D01*
X84478731Y-48308850D01*
X83573856Y-49347075D01*
X82668981Y-48308850D01*
X82376088Y-48118350D01*
X82068906Y-48285037D01*
X81883169Y-48580312D01*
X82045094Y-48880350D01*
X83002356Y-49932862D01*
X82045094Y-50985375D01*
X81883169Y-51290175D01*
X79658128Y-51290175D01*
X78378921Y-47026150D01*
G37*
G36*
X87479106Y-50251950D02*
G01*
X86845694Y-50251950D01*
X87164781Y-49599487D01*
X87479106Y-50251950D01*
G37*
G36*
X94699056Y-50016206D02*
G01*
X94851456Y-50285287D01*
X94251381Y-50285287D01*
X94070406Y-50132887D01*
X94153750Y-49956675D01*
X94391875Y-49890000D01*
X94699056Y-50016206D01*
G37*
G36*
X100325950Y-50156700D02*
G01*
X100442631Y-50447212D01*
X100318806Y-50730581D01*
X100018769Y-50856787D01*
X99725875Y-50728200D01*
X99609194Y-50444831D01*
X99721112Y-50156700D01*
X100021150Y-50023350D01*
X100325950Y-50156700D01*
G37*
D13*
%TO.C,U4*%
X98549694Y-53457400D02*
X102054894Y-53457400D01*
X98549694Y-56962600D02*
X98549694Y-53457400D01*
X102054894Y-53457400D02*
X102054894Y-56962600D01*
X102054894Y-56962600D02*
X98549694Y-56962600D01*
D14*
X103085147Y-53650000D02*
G75*
G03*
X103085147Y-53650000I-162853J0D01*
G01*
%TD*%
%LPC*%
D12*
%TO.C,U12*%
X139360000Y-81960000D02*
X139360000Y-63960000D01*
%TD*%
D15*
%TO.C,U12*%
X131870000Y-81710000D03*
X130600000Y-81710000D03*
X129330000Y-81710000D03*
X128060000Y-81710000D03*
X126790000Y-81710000D03*
X125520000Y-81710000D03*
X124250000Y-81710000D03*
X122980000Y-81710000D03*
X121710000Y-81710000D03*
X120440000Y-81710000D03*
X119170000Y-81710000D03*
X117900000Y-81710000D03*
X116630000Y-81710000D03*
X115360000Y-81710000D03*
D16*
X114110000Y-79945000D03*
X114110000Y-78675000D03*
X114110000Y-77405000D03*
X114110000Y-76135000D03*
X114110000Y-74865000D03*
X114110000Y-73595000D03*
X114110000Y-72325000D03*
X114110000Y-71055000D03*
X114110000Y-69785000D03*
X114110000Y-68515000D03*
X114110000Y-67245000D03*
X114110000Y-65975000D03*
D15*
X115360000Y-64210000D03*
X116630000Y-64210000D03*
X117900000Y-64210000D03*
X119170000Y-64210000D03*
X120440000Y-64210000D03*
X121710000Y-64210000D03*
X122980000Y-64210000D03*
X124250000Y-64210000D03*
X125520000Y-64210000D03*
X126790000Y-64210000D03*
X128060000Y-64210000D03*
X129330000Y-64210000D03*
X130600000Y-64210000D03*
X131870000Y-64210000D03*
D17*
X124150000Y-74460000D03*
X124150000Y-75860000D03*
X125550000Y-75860000D03*
X125550000Y-73060000D03*
X122750000Y-74460000D03*
X124150000Y-73060000D03*
X122750000Y-73060000D03*
X125550000Y-74460000D03*
X122750000Y-75860000D03*
%TD*%
D18*
%TO.C,H6*%
X84764000Y-94984000D03*
%TD*%
%TO.C,H5*%
X126130000Y-136350000D03*
%TD*%
D19*
%TO.C,H4*%
X79940000Y-56350000D03*
%TD*%
%TO.C,H3*%
X130980000Y-144470000D03*
%TD*%
%TO.C,H2*%
X130900000Y-86930000D03*
%TD*%
%TO.C,H1*%
X80020000Y-144380000D03*
%TD*%
D20*
%TO.C,C28*%
X103490000Y-138720000D03*
X103490000Y-144120000D03*
%TD*%
D21*
%TO.C,U9*%
X97251691Y-69422200D03*
X99151691Y-69422200D03*
X98201691Y-69997200D03*
X98201691Y-68847200D03*
%TD*%
D22*
%TO.C,J4*%
X89980000Y-142490000D03*
D23*
X92520000Y-142490000D03*
X95060000Y-142490000D03*
X97600000Y-142490000D03*
%TD*%
D24*
%TO.C,J2*%
X85190000Y-63390000D03*
X80110000Y-63390000D03*
%TD*%
%TO.C,J1*%
X85190000Y-70810000D03*
X80110000Y-70810000D03*
%TD*%
D25*
%TO.C,J6*%
X113340000Y-50890000D03*
D26*
X115880000Y-50890000D03*
X118420000Y-50890000D03*
X120960000Y-50890000D03*
X123500000Y-50890000D03*
X126040000Y-50890000D03*
X128580000Y-50890000D03*
X131120000Y-50890000D03*
%TD*%
D25*
%TO.C,J7*%
X83000000Y-76540000D03*
D26*
X85540000Y-76540000D03*
%TD*%
D25*
%TO.C,J3*%
X109350000Y-143580000D03*
D26*
X111890000Y-143580000D03*
X114430000Y-143580000D03*
X116970000Y-143580000D03*
X119510000Y-143580000D03*
%TD*%
D27*
%TO.C,IC1*%
X109624600Y-112880000D03*
X109624600Y-113360000D03*
X109624600Y-113840000D03*
X109624600Y-114320000D03*
X109624600Y-114800000D03*
X109624600Y-115280000D03*
X109624600Y-115760000D03*
X109624600Y-116240000D03*
X109624600Y-116720000D03*
X109624600Y-117200000D03*
X109624600Y-117680000D03*
X109624600Y-118160000D03*
X109624600Y-118640000D03*
X109624600Y-119120000D03*
X109624600Y-119600000D03*
X109624600Y-120080000D03*
X101755400Y-120080000D03*
X101755400Y-119600000D03*
X101755400Y-119120000D03*
X101755400Y-118640000D03*
X101755400Y-118160000D03*
X101755400Y-117680000D03*
X101755400Y-117200000D03*
X101755400Y-116720000D03*
X101755400Y-116240000D03*
X101755400Y-115760000D03*
X101755400Y-115280000D03*
X101755400Y-114800000D03*
X101755400Y-114320000D03*
X101755400Y-113840000D03*
X101755400Y-113360000D03*
X101755400Y-112880000D03*
D28*
X105690000Y-113480000D03*
D29*
X105690000Y-117680000D03*
%TD*%
D30*
%TO.C,J5*%
X125590000Y-56714000D03*
X130670000Y-57730000D03*
X125590000Y-58746000D03*
D31*
X129400000Y-58365000D03*
X129400000Y-57095000D03*
X128130000Y-58365000D03*
X128130000Y-57095000D03*
X126860000Y-58365000D03*
X126860000Y-57095000D03*
%TD*%
D32*
%TO.C,U13*%
X112698247Y-54179999D03*
X112698247Y-55180000D03*
X112698247Y-56180001D03*
X109574047Y-56180001D03*
X109574047Y-55180000D03*
X109574047Y-54179999D03*
%TD*%
D33*
%TO.C,J8*%
X123940000Y-91965000D03*
X123940000Y-86915000D03*
X121400000Y-91965000D03*
X121400000Y-86915000D03*
X118860000Y-91965000D03*
X118860000Y-86915000D03*
X116320000Y-91965000D03*
X116320000Y-86915000D03*
X113780000Y-91965000D03*
X113780000Y-86915000D03*
X111240000Y-91965000D03*
X111240000Y-86915000D03*
%TD*%
D32*
%TO.C,U4*%
X101864394Y-54209999D03*
X101864394Y-55210000D03*
X101864394Y-56210001D03*
X98740194Y-56210001D03*
X98740194Y-55210000D03*
X98740194Y-54209999D03*
%TD*%
M02*
