%TF.GenerationSoftware,KiCad,Pcbnew,(6.0.0-0)*%
%TF.CreationDate,2022-06-10T22:05:25-07:00*%
%TF.ProjectId,bitaxe,62697461-7865-42e6-9b69-6361645f7063,rev?*%
%TF.SameCoordinates,Original*%
%TF.FileFunction,Legend,Top*%
%TF.FilePolarity,Positive*%
%FSLAX46Y46*%
G04 Gerber Fmt 4.6, Leading zero omitted, Abs format (unit mm)*
G04 Created by KiCad (PCBNEW (6.0.0-0)) date 2022-06-10 22:05:25*
%MOMM*%
%LPD*%
G01*
G04 APERTURE LIST*
G04 Aperture macros list*
%AMRoundRect*
0 Rectangle with rounded corners*
0 $1 Rounding radius*
0 $2 $3 $4 $5 $6 $7 $8 $9 X,Y pos of 4 corners*
0 Add a 4 corners polygon primitive as box body*
4,1,4,$2,$3,$4,$5,$6,$7,$8,$9,$2,$3,0*
0 Add four circle primitives for the rounded corners*
1,1,$1+$1,$2,$3*
1,1,$1+$1,$4,$5*
1,1,$1+$1,$6,$7*
1,1,$1+$1,$8,$9*
0 Add four rect primitives between the rounded corners*
20,1,$1+$1,$2,$3,$4,$5,0*
20,1,$1+$1,$4,$5,$6,$7,0*
20,1,$1+$1,$6,$7,$8,$9,0*
20,1,$1+$1,$8,$9,$2,$3,0*%
%AMFreePoly0*
4,1,22,0.500000,-0.750000,0.000000,-0.750000,0.000000,-0.745033,-0.079941,-0.743568,-0.215256,-0.701293,-0.333266,-0.622738,-0.424486,-0.514219,-0.481581,-0.384460,-0.499164,-0.250000,-0.500000,-0.250000,-0.500000,0.250000,-0.499164,0.250000,-0.499963,0.256109,-0.478152,0.396186,-0.417904,0.524511,-0.324060,0.630769,-0.204165,0.706417,-0.067858,0.745374,0.000000,0.744959,0.000000,0.750000,
0.500000,0.750000,0.500000,-0.750000,0.500000,-0.750000,$1*%
%AMFreePoly1*
4,1,20,0.000000,0.744959,0.073905,0.744508,0.209726,0.703889,0.328688,0.626782,0.421226,0.519385,0.479903,0.390333,0.500000,0.250000,0.500000,-0.250000,0.499851,-0.262216,0.476331,-0.402017,0.414519,-0.529596,0.319384,-0.634700,0.198574,-0.708877,0.061801,-0.746166,0.000000,-0.745033,0.000000,-0.750000,-0.500000,-0.750000,-0.500000,0.750000,0.000000,0.750000,0.000000,0.744959,
0.000000,0.744959,$1*%
G04 Aperture macros list end*
%ADD10C,0.150000*%
%ADD11C,0.120000*%
%ADD12C,0.100000*%
%ADD13C,0.152400*%
%ADD14C,0.299806*%
%ADD15R,0.558800X1.422400*%
%ADD16C,1.500000*%
%ADD17O,2.190000X1.740000*%
%ADD18RoundRect,0.250000X-0.845000X0.620000X-0.845000X-0.620000X0.845000X-0.620000X0.845000X0.620000X0*%
%ADD19RoundRect,0.101600X0.450000X-0.350000X0.450000X0.350000X-0.450000X0.350000X-0.450000X-0.350000X0*%
%ADD20C,2.520000*%
%ADD21RoundRect,0.101600X-0.350000X-0.450000X0.350000X-0.450000X0.350000X0.450000X-0.350000X0.450000X0*%
%ADD22RoundRect,0.101600X-0.450000X0.350000X-0.450000X-0.350000X0.450000X-0.350000X0.450000X0.350000X0*%
%ADD23C,3.500000*%
%ADD24FreePoly0,0.000000*%
%ADD25FreePoly1,0.000000*%
%ADD26RoundRect,0.101600X0.350000X0.450000X-0.350000X0.450000X-0.350000X-0.450000X0.350000X-0.450000X0*%
%ADD27O,1.700000X1.700000*%
%ADD28R,1.700000X1.700000*%
%ADD29FreePoly0,270.000000*%
%ADD30FreePoly1,270.000000*%
%ADD31RoundRect,0.250000X1.025000X-0.875000X1.025000X0.875000X-1.025000X0.875000X-1.025000X-0.875000X0*%
%ADD32RoundRect,0.101600X-0.375000X0.350000X-0.375000X-0.350000X0.375000X-0.350000X0.375000X0.350000X0*%
G04 APERTURE END LIST*
D10*
X67963333Y-92121428D02*
X67201428Y-92121428D01*
X67582380Y-92502380D02*
X67582380Y-91740476D01*
X66249047Y-91502380D02*
X66725238Y-91502380D01*
X66772857Y-91978571D01*
X66725238Y-91930952D01*
X66629999Y-91883333D01*
X66391904Y-91883333D01*
X66296666Y-91930952D01*
X66249047Y-91978571D01*
X66201428Y-92073809D01*
X66201428Y-92311904D01*
X66249047Y-92407142D01*
X66296666Y-92454761D01*
X66391904Y-92502380D01*
X66629999Y-92502380D01*
X66725238Y-92454761D01*
X66772857Y-92407142D01*
X65915714Y-91502380D02*
X65582380Y-92502380D01*
X65249047Y-91502380D01*
X67915714Y-95244761D02*
X67772857Y-95292380D01*
X67534761Y-95292380D01*
X67439523Y-95244761D01*
X67391904Y-95197142D01*
X67344285Y-95101904D01*
X67344285Y-95006666D01*
X67391904Y-94911428D01*
X67439523Y-94863809D01*
X67534761Y-94816190D01*
X67725238Y-94768571D01*
X67820476Y-94720952D01*
X67868095Y-94673333D01*
X67915714Y-94578095D01*
X67915714Y-94482857D01*
X67868095Y-94387619D01*
X67820476Y-94340000D01*
X67725238Y-94292380D01*
X67487142Y-94292380D01*
X67344285Y-94340000D01*
X66915714Y-95292380D02*
X66915714Y-94292380D01*
X66534761Y-94292380D01*
X66439523Y-94340000D01*
X66391904Y-94387619D01*
X66344285Y-94482857D01*
X66344285Y-94625714D01*
X66391904Y-94720952D01*
X66439523Y-94768571D01*
X66534761Y-94816190D01*
X66915714Y-94816190D01*
X65915714Y-95292380D02*
X65915714Y-94292380D01*
X65677619Y-94292380D01*
X65534761Y-94340000D01*
X65439523Y-94435238D01*
X65391904Y-94530476D01*
X65344285Y-94720952D01*
X65344285Y-94863809D01*
X65391904Y-95054285D01*
X65439523Y-95149523D01*
X65534761Y-95244761D01*
X65677619Y-95292380D01*
X65915714Y-95292380D01*
X67439523Y-89000000D02*
X67534761Y-88952380D01*
X67677619Y-88952380D01*
X67820476Y-89000000D01*
X67915714Y-89095238D01*
X67963333Y-89190476D01*
X68010952Y-89380952D01*
X68010952Y-89523809D01*
X67963333Y-89714285D01*
X67915714Y-89809523D01*
X67820476Y-89904761D01*
X67677619Y-89952380D01*
X67582380Y-89952380D01*
X67439523Y-89904761D01*
X67391904Y-89857142D01*
X67391904Y-89523809D01*
X67582380Y-89523809D01*
X66963333Y-89952380D02*
X66963333Y-88952380D01*
X66391904Y-89952380D01*
X66391904Y-88952380D01*
X65915714Y-89952380D02*
X65915714Y-88952380D01*
X65677619Y-88952380D01*
X65534761Y-89000000D01*
X65439523Y-89095238D01*
X65391904Y-89190476D01*
X65344285Y-89380952D01*
X65344285Y-89523809D01*
X65391904Y-89714285D01*
X65439523Y-89809523D01*
X65534761Y-89904761D01*
X65677619Y-89952380D01*
X65915714Y-89952380D01*
X91485714Y-99552380D02*
X90914285Y-99552380D01*
X91200000Y-99552380D02*
X91200000Y-98552380D01*
X91104761Y-98695238D01*
X91009523Y-98790476D01*
X90914285Y-98838095D01*
X61836666Y-65992380D02*
X62455714Y-65992380D01*
X62122380Y-66373333D01*
X62265238Y-66373333D01*
X62360476Y-66420952D01*
X62408095Y-66468571D01*
X62455714Y-66563809D01*
X62455714Y-66801904D01*
X62408095Y-66897142D01*
X62360476Y-66944761D01*
X62265238Y-66992380D01*
X61979523Y-66992380D01*
X61884285Y-66944761D01*
X61836666Y-66897142D01*
X83406666Y-98552380D02*
X84025714Y-98552380D01*
X83692380Y-98933333D01*
X83835238Y-98933333D01*
X83930476Y-98980952D01*
X83978095Y-99028571D01*
X84025714Y-99123809D01*
X84025714Y-99361904D01*
X83978095Y-99457142D01*
X83930476Y-99504761D01*
X83835238Y-99552380D01*
X83549523Y-99552380D01*
X83454285Y-99504761D01*
X83406666Y-99457142D01*
X87254285Y-98647619D02*
X87301904Y-98600000D01*
X87397142Y-98552380D01*
X87635238Y-98552380D01*
X87730476Y-98600000D01*
X87778095Y-98647619D01*
X87825714Y-98742857D01*
X87825714Y-98838095D01*
X87778095Y-98980952D01*
X87206666Y-99552380D01*
X87825714Y-99552380D01*
X62465714Y-72222380D02*
X61894285Y-72222380D01*
X62180000Y-72222380D02*
X62180000Y-71222380D01*
X62084761Y-71365238D01*
X61989523Y-71460476D01*
X61894285Y-71508095D01*
X94952380Y-98552380D02*
X95047619Y-98552380D01*
X95142857Y-98600000D01*
X95190476Y-98647619D01*
X95238095Y-98742857D01*
X95285714Y-98933333D01*
X95285714Y-99171428D01*
X95238095Y-99361904D01*
X95190476Y-99457142D01*
X95142857Y-99504761D01*
X95047619Y-99552380D01*
X94952380Y-99552380D01*
X94857142Y-99504761D01*
X94809523Y-99457142D01*
X94761904Y-99361904D01*
X94714285Y-99171428D01*
X94714285Y-98933333D01*
X94761904Y-98742857D01*
X94809523Y-98647619D01*
X94857142Y-98600000D01*
X94952380Y-98552380D01*
X61894285Y-68727619D02*
X61941904Y-68680000D01*
X62037142Y-68632380D01*
X62275238Y-68632380D01*
X62370476Y-68680000D01*
X62418095Y-68727619D01*
X62465714Y-68822857D01*
X62465714Y-68918095D01*
X62418095Y-69060952D01*
X61846666Y-69632380D01*
X62465714Y-69632380D01*
X62122380Y-73942380D02*
X62217619Y-73942380D01*
X62312857Y-73990000D01*
X62360476Y-74037619D01*
X62408095Y-74132857D01*
X62455714Y-74323333D01*
X62455714Y-74561428D01*
X62408095Y-74751904D01*
X62360476Y-74847142D01*
X62312857Y-74894761D01*
X62217619Y-74942380D01*
X62122380Y-74942380D01*
X62027142Y-74894761D01*
X61979523Y-74847142D01*
X61931904Y-74751904D01*
X61884285Y-74561428D01*
X61884285Y-74323333D01*
X61931904Y-74132857D01*
X61979523Y-74037619D01*
X62027142Y-73990000D01*
X62122380Y-73942380D01*
%TO.C,IC3*%
X108452380Y-91326190D02*
X107452380Y-91326190D01*
X108357142Y-90278571D02*
X108404761Y-90326190D01*
X108452380Y-90469047D01*
X108452380Y-90564285D01*
X108404761Y-90707142D01*
X108309523Y-90802380D01*
X108214285Y-90850000D01*
X108023809Y-90897619D01*
X107880952Y-90897619D01*
X107690476Y-90850000D01*
X107595238Y-90802380D01*
X107500000Y-90707142D01*
X107452380Y-90564285D01*
X107452380Y-90469047D01*
X107500000Y-90326190D01*
X107547619Y-90278571D01*
X107452380Y-89945238D02*
X107452380Y-89326190D01*
X107833333Y-89659523D01*
X107833333Y-89516666D01*
X107880952Y-89421428D01*
X107928571Y-89373809D01*
X108023809Y-89326190D01*
X108261904Y-89326190D01*
X108357142Y-89373809D01*
X108404761Y-89421428D01*
X108452380Y-89516666D01*
X108452380Y-89802380D01*
X108404761Y-89897619D01*
X108357142Y-89945238D01*
%TO.C,IC4*%
X109162380Y-72016190D02*
X108162380Y-72016190D01*
X109067142Y-70968571D02*
X109114761Y-71016190D01*
X109162380Y-71159047D01*
X109162380Y-71254285D01*
X109114761Y-71397142D01*
X109019523Y-71492380D01*
X108924285Y-71540000D01*
X108733809Y-71587619D01*
X108590952Y-71587619D01*
X108400476Y-71540000D01*
X108305238Y-71492380D01*
X108210000Y-71397142D01*
X108162380Y-71254285D01*
X108162380Y-71159047D01*
X108210000Y-71016190D01*
X108257619Y-70968571D01*
X108495714Y-70111428D02*
X109162380Y-70111428D01*
X108114761Y-70349523D02*
X108829047Y-70587619D01*
X108829047Y-69968571D01*
%TO.C,TP24*%
X108421904Y-58994380D02*
X108993333Y-58994380D01*
X108707619Y-59994380D02*
X108707619Y-58994380D01*
X109326666Y-59994380D02*
X109326666Y-58994380D01*
X109707619Y-58994380D01*
X109802857Y-59042000D01*
X109850476Y-59089619D01*
X109898095Y-59184857D01*
X109898095Y-59327714D01*
X109850476Y-59422952D01*
X109802857Y-59470571D01*
X109707619Y-59518190D01*
X109326666Y-59518190D01*
X110279047Y-59089619D02*
X110326666Y-59042000D01*
X110421904Y-58994380D01*
X110660000Y-58994380D01*
X110755238Y-59042000D01*
X110802857Y-59089619D01*
X110850476Y-59184857D01*
X110850476Y-59280095D01*
X110802857Y-59422952D01*
X110231428Y-59994380D01*
X110850476Y-59994380D01*
X111707619Y-59327714D02*
X111707619Y-59994380D01*
X111469523Y-58946761D02*
X111231428Y-59661047D01*
X111850476Y-59661047D01*
%TO.C,TP23*%
X103921904Y-58994380D02*
X104493333Y-58994380D01*
X104207619Y-59994380D02*
X104207619Y-58994380D01*
X104826666Y-59994380D02*
X104826666Y-58994380D01*
X105207619Y-58994380D01*
X105302857Y-59042000D01*
X105350476Y-59089619D01*
X105398095Y-59184857D01*
X105398095Y-59327714D01*
X105350476Y-59422952D01*
X105302857Y-59470571D01*
X105207619Y-59518190D01*
X104826666Y-59518190D01*
X105779047Y-59089619D02*
X105826666Y-59042000D01*
X105921904Y-58994380D01*
X106160000Y-58994380D01*
X106255238Y-59042000D01*
X106302857Y-59089619D01*
X106350476Y-59184857D01*
X106350476Y-59280095D01*
X106302857Y-59422952D01*
X105731428Y-59994380D01*
X106350476Y-59994380D01*
X106683809Y-58994380D02*
X107302857Y-58994380D01*
X106969523Y-59375333D01*
X107112380Y-59375333D01*
X107207619Y-59422952D01*
X107255238Y-59470571D01*
X107302857Y-59565809D01*
X107302857Y-59803904D01*
X107255238Y-59899142D01*
X107207619Y-59946761D01*
X107112380Y-59994380D01*
X106826666Y-59994380D01*
X106731428Y-59946761D01*
X106683809Y-59899142D01*
%TO.C,TP22*%
X102751904Y-54204380D02*
X103323333Y-54204380D01*
X103037619Y-55204380D02*
X103037619Y-54204380D01*
X103656666Y-55204380D02*
X103656666Y-54204380D01*
X104037619Y-54204380D01*
X104132857Y-54252000D01*
X104180476Y-54299619D01*
X104228095Y-54394857D01*
X104228095Y-54537714D01*
X104180476Y-54632952D01*
X104132857Y-54680571D01*
X104037619Y-54728190D01*
X103656666Y-54728190D01*
X104609047Y-54299619D02*
X104656666Y-54252000D01*
X104751904Y-54204380D01*
X104990000Y-54204380D01*
X105085238Y-54252000D01*
X105132857Y-54299619D01*
X105180476Y-54394857D01*
X105180476Y-54490095D01*
X105132857Y-54632952D01*
X104561428Y-55204380D01*
X105180476Y-55204380D01*
X105561428Y-54299619D02*
X105609047Y-54252000D01*
X105704285Y-54204380D01*
X105942380Y-54204380D01*
X106037619Y-54252000D01*
X106085238Y-54299619D01*
X106132857Y-54394857D01*
X106132857Y-54490095D01*
X106085238Y-54632952D01*
X105513809Y-55204380D01*
X106132857Y-55204380D01*
%TO.C,TP21*%
X98481904Y-54144380D02*
X99053333Y-54144380D01*
X98767619Y-55144380D02*
X98767619Y-54144380D01*
X99386666Y-55144380D02*
X99386666Y-54144380D01*
X99767619Y-54144380D01*
X99862857Y-54192000D01*
X99910476Y-54239619D01*
X99958095Y-54334857D01*
X99958095Y-54477714D01*
X99910476Y-54572952D01*
X99862857Y-54620571D01*
X99767619Y-54668190D01*
X99386666Y-54668190D01*
X100339047Y-54239619D02*
X100386666Y-54192000D01*
X100481904Y-54144380D01*
X100720000Y-54144380D01*
X100815238Y-54192000D01*
X100862857Y-54239619D01*
X100910476Y-54334857D01*
X100910476Y-54430095D01*
X100862857Y-54572952D01*
X100291428Y-55144380D01*
X100910476Y-55144380D01*
X101862857Y-55144380D02*
X101291428Y-55144380D01*
X101577142Y-55144380D02*
X101577142Y-54144380D01*
X101481904Y-54287238D01*
X101386666Y-54382476D01*
X101291428Y-54430095D01*
%TO.C,C22*%
X114877142Y-74412976D02*
X114924761Y-74460595D01*
X114972380Y-74603452D01*
X114972380Y-74698690D01*
X114924761Y-74841547D01*
X114829523Y-74936785D01*
X114734285Y-74984404D01*
X114543809Y-75032023D01*
X114400952Y-75032023D01*
X114210476Y-74984404D01*
X114115238Y-74936785D01*
X114020000Y-74841547D01*
X113972380Y-74698690D01*
X113972380Y-74603452D01*
X114020000Y-74460595D01*
X114067619Y-74412976D01*
X114067619Y-74032023D02*
X114020000Y-73984404D01*
X113972380Y-73889166D01*
X113972380Y-73651071D01*
X114020000Y-73555833D01*
X114067619Y-73508214D01*
X114162857Y-73460595D01*
X114258095Y-73460595D01*
X114400952Y-73508214D01*
X114972380Y-74079642D01*
X114972380Y-73460595D01*
X114067619Y-73079642D02*
X114020000Y-73032023D01*
X113972380Y-72936785D01*
X113972380Y-72698690D01*
X114020000Y-72603452D01*
X114067619Y-72555833D01*
X114162857Y-72508214D01*
X114258095Y-72508214D01*
X114400952Y-72555833D01*
X114972380Y-73127261D01*
X114972380Y-72508214D01*
%TO.C,R30*%
X105007023Y-68364380D02*
X104673690Y-67888190D01*
X104435595Y-68364380D02*
X104435595Y-67364380D01*
X104816547Y-67364380D01*
X104911785Y-67412000D01*
X104959404Y-67459619D01*
X105007023Y-67554857D01*
X105007023Y-67697714D01*
X104959404Y-67792952D01*
X104911785Y-67840571D01*
X104816547Y-67888190D01*
X104435595Y-67888190D01*
X105340357Y-67364380D02*
X105959404Y-67364380D01*
X105626071Y-67745333D01*
X105768928Y-67745333D01*
X105864166Y-67792952D01*
X105911785Y-67840571D01*
X105959404Y-67935809D01*
X105959404Y-68173904D01*
X105911785Y-68269142D01*
X105864166Y-68316761D01*
X105768928Y-68364380D01*
X105483214Y-68364380D01*
X105387976Y-68316761D01*
X105340357Y-68269142D01*
X106578452Y-67364380D02*
X106673690Y-67364380D01*
X106768928Y-67412000D01*
X106816547Y-67459619D01*
X106864166Y-67554857D01*
X106911785Y-67745333D01*
X106911785Y-67983428D01*
X106864166Y-68173904D01*
X106816547Y-68269142D01*
X106768928Y-68316761D01*
X106673690Y-68364380D01*
X106578452Y-68364380D01*
X106483214Y-68316761D01*
X106435595Y-68269142D01*
X106387976Y-68173904D01*
X106340357Y-67983428D01*
X106340357Y-67745333D01*
X106387976Y-67554857D01*
X106435595Y-67459619D01*
X106483214Y-67412000D01*
X106578452Y-67364380D01*
%TO.C,C7*%
X96577142Y-85690357D02*
X96624761Y-85737976D01*
X96672380Y-85880833D01*
X96672380Y-85976071D01*
X96624761Y-86118928D01*
X96529523Y-86214166D01*
X96434285Y-86261785D01*
X96243809Y-86309404D01*
X96100952Y-86309404D01*
X95910476Y-86261785D01*
X95815238Y-86214166D01*
X95720000Y-86118928D01*
X95672380Y-85976071D01*
X95672380Y-85880833D01*
X95720000Y-85737976D01*
X95767619Y-85690357D01*
X95672380Y-85357023D02*
X95672380Y-84690357D01*
X96672380Y-85118928D01*
%TO.C,C1*%
X103707023Y-94117142D02*
X103659404Y-94164761D01*
X103516547Y-94212380D01*
X103421309Y-94212380D01*
X103278452Y-94164761D01*
X103183214Y-94069523D01*
X103135595Y-93974285D01*
X103087976Y-93783809D01*
X103087976Y-93640952D01*
X103135595Y-93450476D01*
X103183214Y-93355238D01*
X103278452Y-93260000D01*
X103421309Y-93212380D01*
X103516547Y-93212380D01*
X103659404Y-93260000D01*
X103707023Y-93307619D01*
X104659404Y-94212380D02*
X104087976Y-94212380D01*
X104373690Y-94212380D02*
X104373690Y-93212380D01*
X104278452Y-93355238D01*
X104183214Y-93450476D01*
X104087976Y-93498095D01*
%TO.C,R6*%
X71277023Y-69545714D02*
X70943690Y-69069524D01*
X70705595Y-69545714D02*
X70705595Y-68545714D01*
X71086547Y-68545714D01*
X71181785Y-68593334D01*
X71229404Y-68640953D01*
X71277023Y-68736191D01*
X71277023Y-68879048D01*
X71229404Y-68974286D01*
X71181785Y-69021905D01*
X71086547Y-69069524D01*
X70705595Y-69069524D01*
X72134166Y-68545714D02*
X71943690Y-68545714D01*
X71848452Y-68593334D01*
X71800833Y-68640953D01*
X71705595Y-68783810D01*
X71657976Y-68974286D01*
X71657976Y-69355238D01*
X71705595Y-69450476D01*
X71753214Y-69498095D01*
X71848452Y-69545714D01*
X72038928Y-69545714D01*
X72134166Y-69498095D01*
X72181785Y-69450476D01*
X72229404Y-69355238D01*
X72229404Y-69117143D01*
X72181785Y-69021905D01*
X72134166Y-68974286D01*
X72038928Y-68926667D01*
X71848452Y-68926667D01*
X71753214Y-68974286D01*
X71705595Y-69021905D01*
X71657976Y-69117143D01*
%TO.C,R14*%
X80762380Y-83492738D02*
X80286190Y-83826071D01*
X80762380Y-84064166D02*
X79762380Y-84064166D01*
X79762380Y-83683214D01*
X79810000Y-83587976D01*
X79857619Y-83540357D01*
X79952857Y-83492738D01*
X80095714Y-83492738D01*
X80190952Y-83540357D01*
X80238571Y-83587976D01*
X80286190Y-83683214D01*
X80286190Y-84064166D01*
X80762380Y-82540357D02*
X80762380Y-83111785D01*
X80762380Y-82826071D02*
X79762380Y-82826071D01*
X79905238Y-82921309D01*
X80000476Y-83016547D01*
X80048095Y-83111785D01*
X80095714Y-81683214D02*
X80762380Y-81683214D01*
X79714761Y-81921309D02*
X80429047Y-82159404D01*
X80429047Y-81540357D01*
%TO.C,R5*%
X97777023Y-76402380D02*
X97443690Y-75926190D01*
X97205595Y-76402380D02*
X97205595Y-75402380D01*
X97586547Y-75402380D01*
X97681785Y-75450000D01*
X97729404Y-75497619D01*
X97777023Y-75592857D01*
X97777023Y-75735714D01*
X97729404Y-75830952D01*
X97681785Y-75878571D01*
X97586547Y-75926190D01*
X97205595Y-75926190D01*
X98681785Y-75402380D02*
X98205595Y-75402380D01*
X98157976Y-75878571D01*
X98205595Y-75830952D01*
X98300833Y-75783333D01*
X98538928Y-75783333D01*
X98634166Y-75830952D01*
X98681785Y-75878571D01*
X98729404Y-75973809D01*
X98729404Y-76211904D01*
X98681785Y-76307142D01*
X98634166Y-76354761D01*
X98538928Y-76402380D01*
X98300833Y-76402380D01*
X98205595Y-76354761D01*
X98157976Y-76307142D01*
%TO.C,C3*%
X71367023Y-72667142D02*
X71319404Y-72714761D01*
X71176547Y-72762380D01*
X71081309Y-72762380D01*
X70938452Y-72714761D01*
X70843214Y-72619523D01*
X70795595Y-72524285D01*
X70747976Y-72333809D01*
X70747976Y-72190952D01*
X70795595Y-72000476D01*
X70843214Y-71905238D01*
X70938452Y-71810000D01*
X71081309Y-71762380D01*
X71176547Y-71762380D01*
X71319404Y-71810000D01*
X71367023Y-71857619D01*
X71700357Y-71762380D02*
X72319404Y-71762380D01*
X71986071Y-72143333D01*
X72128928Y-72143333D01*
X72224166Y-72190952D01*
X72271785Y-72238571D01*
X72319404Y-72333809D01*
X72319404Y-72571904D01*
X72271785Y-72667142D01*
X72224166Y-72714761D01*
X72128928Y-72762380D01*
X71843214Y-72762380D01*
X71747976Y-72714761D01*
X71700357Y-72667142D01*
%TO.C,TP15*%
X93301904Y-88904380D02*
X93873333Y-88904380D01*
X93587619Y-89904380D02*
X93587619Y-88904380D01*
X94206666Y-89904380D02*
X94206666Y-88904380D01*
X94587619Y-88904380D01*
X94682857Y-88952000D01*
X94730476Y-88999619D01*
X94778095Y-89094857D01*
X94778095Y-89237714D01*
X94730476Y-89332952D01*
X94682857Y-89380571D01*
X94587619Y-89428190D01*
X94206666Y-89428190D01*
X95730476Y-89904380D02*
X95159047Y-89904380D01*
X95444761Y-89904380D02*
X95444761Y-88904380D01*
X95349523Y-89047238D01*
X95254285Y-89142476D01*
X95159047Y-89190095D01*
X96635238Y-88904380D02*
X96159047Y-88904380D01*
X96111428Y-89380571D01*
X96159047Y-89332952D01*
X96254285Y-89285333D01*
X96492380Y-89285333D01*
X96587619Y-89332952D01*
X96635238Y-89380571D01*
X96682857Y-89475809D01*
X96682857Y-89713904D01*
X96635238Y-89809142D01*
X96587619Y-89856761D01*
X96492380Y-89904380D01*
X96254285Y-89904380D01*
X96159047Y-89856761D01*
X96111428Y-89809142D01*
%TO.C,TP4*%
X115498095Y-61204380D02*
X116069523Y-61204380D01*
X115783809Y-62204380D02*
X115783809Y-61204380D01*
X116402857Y-62204380D02*
X116402857Y-61204380D01*
X116783809Y-61204380D01*
X116879047Y-61252000D01*
X116926666Y-61299619D01*
X116974285Y-61394857D01*
X116974285Y-61537714D01*
X116926666Y-61632952D01*
X116879047Y-61680571D01*
X116783809Y-61728190D01*
X116402857Y-61728190D01*
X117831428Y-61537714D02*
X117831428Y-62204380D01*
X117593333Y-61156761D02*
X117355238Y-61871047D01*
X117974285Y-61871047D01*
%TO.C,R16*%
X67997261Y-81072380D02*
X67663928Y-80596190D01*
X67425833Y-81072380D02*
X67425833Y-80072380D01*
X67806785Y-80072380D01*
X67902023Y-80120000D01*
X67949642Y-80167619D01*
X67997261Y-80262857D01*
X67997261Y-80405714D01*
X67949642Y-80500952D01*
X67902023Y-80548571D01*
X67806785Y-80596190D01*
X67425833Y-80596190D01*
X68949642Y-81072380D02*
X68378214Y-81072380D01*
X68663928Y-81072380D02*
X68663928Y-80072380D01*
X68568690Y-80215238D01*
X68473452Y-80310476D01*
X68378214Y-80358095D01*
X69806785Y-80072380D02*
X69616309Y-80072380D01*
X69521071Y-80120000D01*
X69473452Y-80167619D01*
X69378214Y-80310476D01*
X69330595Y-80500952D01*
X69330595Y-80881904D01*
X69378214Y-80977142D01*
X69425833Y-81024761D01*
X69521071Y-81072380D01*
X69711547Y-81072380D01*
X69806785Y-81024761D01*
X69854404Y-80977142D01*
X69902023Y-80881904D01*
X69902023Y-80643809D01*
X69854404Y-80548571D01*
X69806785Y-80500952D01*
X69711547Y-80453333D01*
X69521071Y-80453333D01*
X69425833Y-80500952D01*
X69378214Y-80548571D01*
X69330595Y-80643809D01*
%TO.C,R29*%
X105007023Y-66932380D02*
X104673690Y-66456190D01*
X104435595Y-66932380D02*
X104435595Y-65932380D01*
X104816547Y-65932380D01*
X104911785Y-65980000D01*
X104959404Y-66027619D01*
X105007023Y-66122857D01*
X105007023Y-66265714D01*
X104959404Y-66360952D01*
X104911785Y-66408571D01*
X104816547Y-66456190D01*
X104435595Y-66456190D01*
X105387976Y-66027619D02*
X105435595Y-65980000D01*
X105530833Y-65932380D01*
X105768928Y-65932380D01*
X105864166Y-65980000D01*
X105911785Y-66027619D01*
X105959404Y-66122857D01*
X105959404Y-66218095D01*
X105911785Y-66360952D01*
X105340357Y-66932380D01*
X105959404Y-66932380D01*
X106435595Y-66932380D02*
X106626071Y-66932380D01*
X106721309Y-66884761D01*
X106768928Y-66837142D01*
X106864166Y-66694285D01*
X106911785Y-66503809D01*
X106911785Y-66122857D01*
X106864166Y-66027619D01*
X106816547Y-65980000D01*
X106721309Y-65932380D01*
X106530833Y-65932380D01*
X106435595Y-65980000D01*
X106387976Y-66027619D01*
X106340357Y-66122857D01*
X106340357Y-66360952D01*
X106387976Y-66456190D01*
X106435595Y-66503809D01*
X106530833Y-66551428D01*
X106721309Y-66551428D01*
X106816547Y-66503809D01*
X106864166Y-66456190D01*
X106911785Y-66360952D01*
%TO.C,R24*%
X104567261Y-89310380D02*
X104233928Y-88834190D01*
X103995833Y-89310380D02*
X103995833Y-88310380D01*
X104376785Y-88310380D01*
X104472023Y-88358000D01*
X104519642Y-88405619D01*
X104567261Y-88500857D01*
X104567261Y-88643714D01*
X104519642Y-88738952D01*
X104472023Y-88786571D01*
X104376785Y-88834190D01*
X103995833Y-88834190D01*
X104948214Y-88405619D02*
X104995833Y-88358000D01*
X105091071Y-88310380D01*
X105329166Y-88310380D01*
X105424404Y-88358000D01*
X105472023Y-88405619D01*
X105519642Y-88500857D01*
X105519642Y-88596095D01*
X105472023Y-88738952D01*
X104900595Y-89310380D01*
X105519642Y-89310380D01*
X106376785Y-88643714D02*
X106376785Y-89310380D01*
X106138690Y-88262761D02*
X105900595Y-88977047D01*
X106519642Y-88977047D01*
%TO.C,TP5*%
X74588095Y-76782380D02*
X75159523Y-76782380D01*
X74873809Y-77782380D02*
X74873809Y-76782380D01*
X75492857Y-77782380D02*
X75492857Y-76782380D01*
X75873809Y-76782380D01*
X75969047Y-76830000D01*
X76016666Y-76877619D01*
X76064285Y-76972857D01*
X76064285Y-77115714D01*
X76016666Y-77210952D01*
X75969047Y-77258571D01*
X75873809Y-77306190D01*
X75492857Y-77306190D01*
X76969047Y-76782380D02*
X76492857Y-76782380D01*
X76445238Y-77258571D01*
X76492857Y-77210952D01*
X76588095Y-77163333D01*
X76826190Y-77163333D01*
X76921428Y-77210952D01*
X76969047Y-77258571D01*
X77016666Y-77353809D01*
X77016666Y-77591904D01*
X76969047Y-77687142D01*
X76921428Y-77734761D01*
X76826190Y-77782380D01*
X76588095Y-77782380D01*
X76492857Y-77734761D01*
X76445238Y-77687142D01*
%TO.C,R31*%
X106127023Y-69822380D02*
X105793690Y-69346190D01*
X105555595Y-69822380D02*
X105555595Y-68822380D01*
X105936547Y-68822380D01*
X106031785Y-68870000D01*
X106079404Y-68917619D01*
X106127023Y-69012857D01*
X106127023Y-69155714D01*
X106079404Y-69250952D01*
X106031785Y-69298571D01*
X105936547Y-69346190D01*
X105555595Y-69346190D01*
X106460357Y-68822380D02*
X107079404Y-68822380D01*
X106746071Y-69203333D01*
X106888928Y-69203333D01*
X106984166Y-69250952D01*
X107031785Y-69298571D01*
X107079404Y-69393809D01*
X107079404Y-69631904D01*
X107031785Y-69727142D01*
X106984166Y-69774761D01*
X106888928Y-69822380D01*
X106603214Y-69822380D01*
X106507976Y-69774761D01*
X106460357Y-69727142D01*
X108031785Y-69822380D02*
X107460357Y-69822380D01*
X107746071Y-69822380D02*
X107746071Y-68822380D01*
X107650833Y-68965238D01*
X107555595Y-69060476D01*
X107460357Y-69108095D01*
%TO.C,C6*%
X84527142Y-68330357D02*
X84574761Y-68377976D01*
X84622380Y-68520833D01*
X84622380Y-68616071D01*
X84574761Y-68758928D01*
X84479523Y-68854166D01*
X84384285Y-68901785D01*
X84193809Y-68949404D01*
X84050952Y-68949404D01*
X83860476Y-68901785D01*
X83765238Y-68854166D01*
X83670000Y-68758928D01*
X83622380Y-68616071D01*
X83622380Y-68520833D01*
X83670000Y-68377976D01*
X83717619Y-68330357D01*
X83622380Y-67473214D02*
X83622380Y-67663690D01*
X83670000Y-67758928D01*
X83717619Y-67806547D01*
X83860476Y-67901785D01*
X84050952Y-67949404D01*
X84431904Y-67949404D01*
X84527142Y-67901785D01*
X84574761Y-67854166D01*
X84622380Y-67758928D01*
X84622380Y-67568452D01*
X84574761Y-67473214D01*
X84527142Y-67425595D01*
X84431904Y-67377976D01*
X84193809Y-67377976D01*
X84098571Y-67425595D01*
X84050952Y-67473214D01*
X84003333Y-67568452D01*
X84003333Y-67758928D01*
X84050952Y-67854166D01*
X84098571Y-67901785D01*
X84193809Y-67949404D01*
%TO.C,R10*%
X66977261Y-85772380D02*
X66643928Y-85296190D01*
X66405833Y-85772380D02*
X66405833Y-84772380D01*
X66786785Y-84772380D01*
X66882023Y-84820000D01*
X66929642Y-84867619D01*
X66977261Y-84962857D01*
X66977261Y-85105714D01*
X66929642Y-85200952D01*
X66882023Y-85248571D01*
X66786785Y-85296190D01*
X66405833Y-85296190D01*
X67929642Y-85772380D02*
X67358214Y-85772380D01*
X67643928Y-85772380D02*
X67643928Y-84772380D01*
X67548690Y-84915238D01*
X67453452Y-85010476D01*
X67358214Y-85058095D01*
X68548690Y-84772380D02*
X68643928Y-84772380D01*
X68739166Y-84820000D01*
X68786785Y-84867619D01*
X68834404Y-84962857D01*
X68882023Y-85153333D01*
X68882023Y-85391428D01*
X68834404Y-85581904D01*
X68786785Y-85677142D01*
X68739166Y-85724761D01*
X68643928Y-85772380D01*
X68548690Y-85772380D01*
X68453452Y-85724761D01*
X68405833Y-85677142D01*
X68358214Y-85581904D01*
X68310595Y-85391428D01*
X68310595Y-85153333D01*
X68358214Y-84962857D01*
X68405833Y-84867619D01*
X68453452Y-84820000D01*
X68548690Y-84772380D01*
%TO.C,TP16*%
X96241904Y-98132380D02*
X96813333Y-98132380D01*
X96527619Y-99132380D02*
X96527619Y-98132380D01*
X97146666Y-99132380D02*
X97146666Y-98132380D01*
X97527619Y-98132380D01*
X97622857Y-98180000D01*
X97670476Y-98227619D01*
X97718095Y-98322857D01*
X97718095Y-98465714D01*
X97670476Y-98560952D01*
X97622857Y-98608571D01*
X97527619Y-98656190D01*
X97146666Y-98656190D01*
X98670476Y-99132380D02*
X98099047Y-99132380D01*
X98384761Y-99132380D02*
X98384761Y-98132380D01*
X98289523Y-98275238D01*
X98194285Y-98370476D01*
X98099047Y-98418095D01*
X99527619Y-98132380D02*
X99337142Y-98132380D01*
X99241904Y-98180000D01*
X99194285Y-98227619D01*
X99099047Y-98370476D01*
X99051428Y-98560952D01*
X99051428Y-98941904D01*
X99099047Y-99037142D01*
X99146666Y-99084761D01*
X99241904Y-99132380D01*
X99432380Y-99132380D01*
X99527619Y-99084761D01*
X99575238Y-99037142D01*
X99622857Y-98941904D01*
X99622857Y-98703809D01*
X99575238Y-98608571D01*
X99527619Y-98560952D01*
X99432380Y-98513333D01*
X99241904Y-98513333D01*
X99146666Y-98560952D01*
X99099047Y-98608571D01*
X99051428Y-98703809D01*
%TO.C,R27*%
X104567261Y-84724380D02*
X104233928Y-84248190D01*
X103995833Y-84724380D02*
X103995833Y-83724380D01*
X104376785Y-83724380D01*
X104472023Y-83772000D01*
X104519642Y-83819619D01*
X104567261Y-83914857D01*
X104567261Y-84057714D01*
X104519642Y-84152952D01*
X104472023Y-84200571D01*
X104376785Y-84248190D01*
X103995833Y-84248190D01*
X104948214Y-83819619D02*
X104995833Y-83772000D01*
X105091071Y-83724380D01*
X105329166Y-83724380D01*
X105424404Y-83772000D01*
X105472023Y-83819619D01*
X105519642Y-83914857D01*
X105519642Y-84010095D01*
X105472023Y-84152952D01*
X104900595Y-84724380D01*
X105519642Y-84724380D01*
X105852976Y-83724380D02*
X106519642Y-83724380D01*
X106091071Y-84724380D01*
%TO.C,R4*%
X71397023Y-67915712D02*
X71063690Y-67439522D01*
X70825595Y-67915712D02*
X70825595Y-66915712D01*
X71206547Y-66915712D01*
X71301785Y-66963332D01*
X71349404Y-67010951D01*
X71397023Y-67106189D01*
X71397023Y-67249046D01*
X71349404Y-67344284D01*
X71301785Y-67391903D01*
X71206547Y-67439522D01*
X70825595Y-67439522D01*
X72254166Y-67249046D02*
X72254166Y-67915712D01*
X72016071Y-66868093D02*
X71777976Y-67582379D01*
X72397023Y-67582379D01*
%TO.C,R34*%
X105007023Y-74372380D02*
X104673690Y-73896190D01*
X104435595Y-74372380D02*
X104435595Y-73372380D01*
X104816547Y-73372380D01*
X104911785Y-73420000D01*
X104959404Y-73467619D01*
X105007023Y-73562857D01*
X105007023Y-73705714D01*
X104959404Y-73800952D01*
X104911785Y-73848571D01*
X104816547Y-73896190D01*
X104435595Y-73896190D01*
X105340357Y-73372380D02*
X105959404Y-73372380D01*
X105626071Y-73753333D01*
X105768928Y-73753333D01*
X105864166Y-73800952D01*
X105911785Y-73848571D01*
X105959404Y-73943809D01*
X105959404Y-74181904D01*
X105911785Y-74277142D01*
X105864166Y-74324761D01*
X105768928Y-74372380D01*
X105483214Y-74372380D01*
X105387976Y-74324761D01*
X105340357Y-74277142D01*
X106816547Y-73705714D02*
X106816547Y-74372380D01*
X106578452Y-73324761D02*
X106340357Y-74039047D01*
X106959404Y-74039047D01*
%TO.C,R33*%
X105007023Y-72920380D02*
X104673690Y-72444190D01*
X104435595Y-72920380D02*
X104435595Y-71920380D01*
X104816547Y-71920380D01*
X104911785Y-71968000D01*
X104959404Y-72015619D01*
X105007023Y-72110857D01*
X105007023Y-72253714D01*
X104959404Y-72348952D01*
X104911785Y-72396571D01*
X104816547Y-72444190D01*
X104435595Y-72444190D01*
X105340357Y-71920380D02*
X105959404Y-71920380D01*
X105626071Y-72301333D01*
X105768928Y-72301333D01*
X105864166Y-72348952D01*
X105911785Y-72396571D01*
X105959404Y-72491809D01*
X105959404Y-72729904D01*
X105911785Y-72825142D01*
X105864166Y-72872761D01*
X105768928Y-72920380D01*
X105483214Y-72920380D01*
X105387976Y-72872761D01*
X105340357Y-72825142D01*
X106292738Y-71920380D02*
X106911785Y-71920380D01*
X106578452Y-72301333D01*
X106721309Y-72301333D01*
X106816547Y-72348952D01*
X106864166Y-72396571D01*
X106911785Y-72491809D01*
X106911785Y-72729904D01*
X106864166Y-72825142D01*
X106816547Y-72872761D01*
X106721309Y-72920380D01*
X106435595Y-72920380D01*
X106340357Y-72872761D01*
X106292738Y-72825142D01*
%TO.C,R32*%
X105007023Y-71328380D02*
X104673690Y-70852190D01*
X104435595Y-71328380D02*
X104435595Y-70328380D01*
X104816547Y-70328380D01*
X104911785Y-70376000D01*
X104959404Y-70423619D01*
X105007023Y-70518857D01*
X105007023Y-70661714D01*
X104959404Y-70756952D01*
X104911785Y-70804571D01*
X104816547Y-70852190D01*
X104435595Y-70852190D01*
X105340357Y-70328380D02*
X105959404Y-70328380D01*
X105626071Y-70709333D01*
X105768928Y-70709333D01*
X105864166Y-70756952D01*
X105911785Y-70804571D01*
X105959404Y-70899809D01*
X105959404Y-71137904D01*
X105911785Y-71233142D01*
X105864166Y-71280761D01*
X105768928Y-71328380D01*
X105483214Y-71328380D01*
X105387976Y-71280761D01*
X105340357Y-71233142D01*
X106340357Y-70423619D02*
X106387976Y-70376000D01*
X106483214Y-70328380D01*
X106721309Y-70328380D01*
X106816547Y-70376000D01*
X106864166Y-70423619D01*
X106911785Y-70518857D01*
X106911785Y-70614095D01*
X106864166Y-70756952D01*
X106292738Y-71328380D01*
X106911785Y-71328380D01*
%TO.C,TP19*%
X107631904Y-73394380D02*
X108203333Y-73394380D01*
X107917619Y-74394380D02*
X107917619Y-73394380D01*
X108536666Y-74394380D02*
X108536666Y-73394380D01*
X108917619Y-73394380D01*
X109012857Y-73442000D01*
X109060476Y-73489619D01*
X109108095Y-73584857D01*
X109108095Y-73727714D01*
X109060476Y-73822952D01*
X109012857Y-73870571D01*
X108917619Y-73918190D01*
X108536666Y-73918190D01*
X110060476Y-74394380D02*
X109489047Y-74394380D01*
X109774761Y-74394380D02*
X109774761Y-73394380D01*
X109679523Y-73537238D01*
X109584285Y-73632476D01*
X109489047Y-73680095D01*
X110536666Y-74394380D02*
X110727142Y-74394380D01*
X110822380Y-74346761D01*
X110870000Y-74299142D01*
X110965238Y-74156285D01*
X111012857Y-73965809D01*
X111012857Y-73584857D01*
X110965238Y-73489619D01*
X110917619Y-73442000D01*
X110822380Y-73394380D01*
X110631904Y-73394380D01*
X110536666Y-73442000D01*
X110489047Y-73489619D01*
X110441428Y-73584857D01*
X110441428Y-73822952D01*
X110489047Y-73918190D01*
X110536666Y-73965809D01*
X110631904Y-74013428D01*
X110822380Y-74013428D01*
X110917619Y-73965809D01*
X110965238Y-73918190D01*
X111012857Y-73822952D01*
%TO.C,R25*%
X104567261Y-87818380D02*
X104233928Y-87342190D01*
X103995833Y-87818380D02*
X103995833Y-86818380D01*
X104376785Y-86818380D01*
X104472023Y-86866000D01*
X104519642Y-86913619D01*
X104567261Y-87008857D01*
X104567261Y-87151714D01*
X104519642Y-87246952D01*
X104472023Y-87294571D01*
X104376785Y-87342190D01*
X103995833Y-87342190D01*
X104948214Y-86913619D02*
X104995833Y-86866000D01*
X105091071Y-86818380D01*
X105329166Y-86818380D01*
X105424404Y-86866000D01*
X105472023Y-86913619D01*
X105519642Y-87008857D01*
X105519642Y-87104095D01*
X105472023Y-87246952D01*
X104900595Y-87818380D01*
X105519642Y-87818380D01*
X106424404Y-86818380D02*
X105948214Y-86818380D01*
X105900595Y-87294571D01*
X105948214Y-87246952D01*
X106043452Y-87199333D01*
X106281547Y-87199333D01*
X106376785Y-87246952D01*
X106424404Y-87294571D01*
X106472023Y-87389809D01*
X106472023Y-87627904D01*
X106424404Y-87723142D01*
X106376785Y-87770761D01*
X106281547Y-87818380D01*
X106043452Y-87818380D01*
X105948214Y-87770761D01*
X105900595Y-87723142D01*
%TO.C,C16*%
X82877142Y-81142738D02*
X82924761Y-81190357D01*
X82972380Y-81333214D01*
X82972380Y-81428452D01*
X82924761Y-81571309D01*
X82829523Y-81666547D01*
X82734285Y-81714166D01*
X82543809Y-81761785D01*
X82400952Y-81761785D01*
X82210476Y-81714166D01*
X82115238Y-81666547D01*
X82020000Y-81571309D01*
X81972380Y-81428452D01*
X81972380Y-81333214D01*
X82020000Y-81190357D01*
X82067619Y-81142738D01*
X82972380Y-80190357D02*
X82972380Y-80761785D01*
X82972380Y-80476071D02*
X81972380Y-80476071D01*
X82115238Y-80571309D01*
X82210476Y-80666547D01*
X82258095Y-80761785D01*
X81972380Y-79333214D02*
X81972380Y-79523690D01*
X82020000Y-79618928D01*
X82067619Y-79666547D01*
X82210476Y-79761785D01*
X82400952Y-79809404D01*
X82781904Y-79809404D01*
X82877142Y-79761785D01*
X82924761Y-79714166D01*
X82972380Y-79618928D01*
X82972380Y-79428452D01*
X82924761Y-79333214D01*
X82877142Y-79285595D01*
X82781904Y-79237976D01*
X82543809Y-79237976D01*
X82448571Y-79285595D01*
X82400952Y-79333214D01*
X82353333Y-79428452D01*
X82353333Y-79618928D01*
X82400952Y-79714166D01*
X82448571Y-79761785D01*
X82543809Y-79809404D01*
%TO.C,TP3*%
X115248095Y-75852380D02*
X115819523Y-75852380D01*
X115533809Y-76852380D02*
X115533809Y-75852380D01*
X116152857Y-76852380D02*
X116152857Y-75852380D01*
X116533809Y-75852380D01*
X116629047Y-75900000D01*
X116676666Y-75947619D01*
X116724285Y-76042857D01*
X116724285Y-76185714D01*
X116676666Y-76280952D01*
X116629047Y-76328571D01*
X116533809Y-76376190D01*
X116152857Y-76376190D01*
X117057619Y-75852380D02*
X117676666Y-75852380D01*
X117343333Y-76233333D01*
X117486190Y-76233333D01*
X117581428Y-76280952D01*
X117629047Y-76328571D01*
X117676666Y-76423809D01*
X117676666Y-76661904D01*
X117629047Y-76757142D01*
X117581428Y-76804761D01*
X117486190Y-76852380D01*
X117200476Y-76852380D01*
X117105238Y-76804761D01*
X117057619Y-76757142D01*
%TO.C,R22*%
X116647023Y-67962380D02*
X116313690Y-67486190D01*
X116075595Y-67962380D02*
X116075595Y-66962380D01*
X116456547Y-66962380D01*
X116551785Y-67010000D01*
X116599404Y-67057619D01*
X116647023Y-67152857D01*
X116647023Y-67295714D01*
X116599404Y-67390952D01*
X116551785Y-67438571D01*
X116456547Y-67486190D01*
X116075595Y-67486190D01*
X117027976Y-67057619D02*
X117075595Y-67010000D01*
X117170833Y-66962380D01*
X117408928Y-66962380D01*
X117504166Y-67010000D01*
X117551785Y-67057619D01*
X117599404Y-67152857D01*
X117599404Y-67248095D01*
X117551785Y-67390952D01*
X116980357Y-67962380D01*
X117599404Y-67962380D01*
X117980357Y-67057619D02*
X118027976Y-67010000D01*
X118123214Y-66962380D01*
X118361309Y-66962380D01*
X118456547Y-67010000D01*
X118504166Y-67057619D01*
X118551785Y-67152857D01*
X118551785Y-67248095D01*
X118504166Y-67390952D01*
X117932738Y-67962380D01*
X118551785Y-67962380D01*
%TO.C,TP8*%
X79118095Y-59204380D02*
X79689523Y-59204380D01*
X79403809Y-60204380D02*
X79403809Y-59204380D01*
X80022857Y-60204380D02*
X80022857Y-59204380D01*
X80403809Y-59204380D01*
X80499047Y-59252000D01*
X80546666Y-59299619D01*
X80594285Y-59394857D01*
X80594285Y-59537714D01*
X80546666Y-59632952D01*
X80499047Y-59680571D01*
X80403809Y-59728190D01*
X80022857Y-59728190D01*
X81165714Y-59632952D02*
X81070476Y-59585333D01*
X81022857Y-59537714D01*
X80975238Y-59442476D01*
X80975238Y-59394857D01*
X81022857Y-59299619D01*
X81070476Y-59252000D01*
X81165714Y-59204380D01*
X81356190Y-59204380D01*
X81451428Y-59252000D01*
X81499047Y-59299619D01*
X81546666Y-59394857D01*
X81546666Y-59442476D01*
X81499047Y-59537714D01*
X81451428Y-59585333D01*
X81356190Y-59632952D01*
X81165714Y-59632952D01*
X81070476Y-59680571D01*
X81022857Y-59728190D01*
X80975238Y-59823428D01*
X80975238Y-60013904D01*
X81022857Y-60109142D01*
X81070476Y-60156761D01*
X81165714Y-60204380D01*
X81356190Y-60204380D01*
X81451428Y-60156761D01*
X81499047Y-60109142D01*
X81546666Y-60013904D01*
X81546666Y-59823428D01*
X81499047Y-59728190D01*
X81451428Y-59680571D01*
X81356190Y-59632952D01*
%TO.C,C18*%
X86577142Y-83522857D02*
X86624761Y-83570476D01*
X86672380Y-83713333D01*
X86672380Y-83808571D01*
X86624761Y-83951428D01*
X86529523Y-84046666D01*
X86434285Y-84094285D01*
X86243809Y-84141904D01*
X86100952Y-84141904D01*
X85910476Y-84094285D01*
X85815238Y-84046666D01*
X85720000Y-83951428D01*
X85672380Y-83808571D01*
X85672380Y-83713333D01*
X85720000Y-83570476D01*
X85767619Y-83522857D01*
X86672380Y-82570476D02*
X86672380Y-83141904D01*
X86672380Y-82856190D02*
X85672380Y-82856190D01*
X85815238Y-82951428D01*
X85910476Y-83046666D01*
X85958095Y-83141904D01*
X86100952Y-81999047D02*
X86053333Y-82094285D01*
X86005714Y-82141904D01*
X85910476Y-82189523D01*
X85862857Y-82189523D01*
X85767619Y-82141904D01*
X85720000Y-82094285D01*
X85672380Y-81999047D01*
X85672380Y-81808571D01*
X85720000Y-81713333D01*
X85767619Y-81665714D01*
X85862857Y-81618095D01*
X85910476Y-81618095D01*
X86005714Y-81665714D01*
X86053333Y-81713333D01*
X86100952Y-81808571D01*
X86100952Y-81999047D01*
X86148571Y-82094285D01*
X86196190Y-82141904D01*
X86291428Y-82189523D01*
X86481904Y-82189523D01*
X86577142Y-82141904D01*
X86624761Y-82094285D01*
X86672380Y-81999047D01*
X86672380Y-81808571D01*
X86624761Y-81713333D01*
X86577142Y-81665714D01*
X86481904Y-81618095D01*
X86291428Y-81618095D01*
X86196190Y-81665714D01*
X86148571Y-81713333D01*
X86100952Y-81808571D01*
%TO.C,R28*%
X104567261Y-83262380D02*
X104233928Y-82786190D01*
X103995833Y-83262380D02*
X103995833Y-82262380D01*
X104376785Y-82262380D01*
X104472023Y-82310000D01*
X104519642Y-82357619D01*
X104567261Y-82452857D01*
X104567261Y-82595714D01*
X104519642Y-82690952D01*
X104472023Y-82738571D01*
X104376785Y-82786190D01*
X103995833Y-82786190D01*
X104948214Y-82357619D02*
X104995833Y-82310000D01*
X105091071Y-82262380D01*
X105329166Y-82262380D01*
X105424404Y-82310000D01*
X105472023Y-82357619D01*
X105519642Y-82452857D01*
X105519642Y-82548095D01*
X105472023Y-82690952D01*
X104900595Y-83262380D01*
X105519642Y-83262380D01*
X106091071Y-82690952D02*
X105995833Y-82643333D01*
X105948214Y-82595714D01*
X105900595Y-82500476D01*
X105900595Y-82452857D01*
X105948214Y-82357619D01*
X105995833Y-82310000D01*
X106091071Y-82262380D01*
X106281547Y-82262380D01*
X106376785Y-82310000D01*
X106424404Y-82357619D01*
X106472023Y-82452857D01*
X106472023Y-82500476D01*
X106424404Y-82595714D01*
X106376785Y-82643333D01*
X106281547Y-82690952D01*
X106091071Y-82690952D01*
X105995833Y-82738571D01*
X105948214Y-82786190D01*
X105900595Y-82881428D01*
X105900595Y-83071904D01*
X105948214Y-83167142D01*
X105995833Y-83214761D01*
X106091071Y-83262380D01*
X106281547Y-83262380D01*
X106376785Y-83214761D01*
X106424404Y-83167142D01*
X106472023Y-83071904D01*
X106472023Y-82881428D01*
X106424404Y-82786190D01*
X106376785Y-82738571D01*
X106281547Y-82690952D01*
%TO.C,R2*%
X71277023Y-64742380D02*
X70943690Y-64266190D01*
X70705595Y-64742380D02*
X70705595Y-63742380D01*
X71086547Y-63742380D01*
X71181785Y-63790000D01*
X71229404Y-63837619D01*
X71277023Y-63932857D01*
X71277023Y-64075714D01*
X71229404Y-64170952D01*
X71181785Y-64218571D01*
X71086547Y-64266190D01*
X70705595Y-64266190D01*
X71657976Y-63837619D02*
X71705595Y-63790000D01*
X71800833Y-63742380D01*
X72038928Y-63742380D01*
X72134166Y-63790000D01*
X72181785Y-63837619D01*
X72229404Y-63932857D01*
X72229404Y-64028095D01*
X72181785Y-64170952D01*
X71610357Y-64742380D01*
X72229404Y-64742380D01*
%TO.C,C10*%
X84447142Y-81122738D02*
X84494761Y-81170357D01*
X84542380Y-81313214D01*
X84542380Y-81408452D01*
X84494761Y-81551309D01*
X84399523Y-81646547D01*
X84304285Y-81694166D01*
X84113809Y-81741785D01*
X83970952Y-81741785D01*
X83780476Y-81694166D01*
X83685238Y-81646547D01*
X83590000Y-81551309D01*
X83542380Y-81408452D01*
X83542380Y-81313214D01*
X83590000Y-81170357D01*
X83637619Y-81122738D01*
X84542380Y-80170357D02*
X84542380Y-80741785D01*
X84542380Y-80456071D02*
X83542380Y-80456071D01*
X83685238Y-80551309D01*
X83780476Y-80646547D01*
X83828095Y-80741785D01*
X83542380Y-79551309D02*
X83542380Y-79456071D01*
X83590000Y-79360833D01*
X83637619Y-79313214D01*
X83732857Y-79265595D01*
X83923333Y-79217976D01*
X84161428Y-79217976D01*
X84351904Y-79265595D01*
X84447142Y-79313214D01*
X84494761Y-79360833D01*
X84542380Y-79456071D01*
X84542380Y-79551309D01*
X84494761Y-79646547D01*
X84447142Y-79694166D01*
X84351904Y-79741785D01*
X84161428Y-79789404D01*
X83923333Y-79789404D01*
X83732857Y-79741785D01*
X83637619Y-79694166D01*
X83590000Y-79646547D01*
X83542380Y-79551309D01*
%TO.C,R26*%
X104567261Y-86256380D02*
X104233928Y-85780190D01*
X103995833Y-86256380D02*
X103995833Y-85256380D01*
X104376785Y-85256380D01*
X104472023Y-85304000D01*
X104519642Y-85351619D01*
X104567261Y-85446857D01*
X104567261Y-85589714D01*
X104519642Y-85684952D01*
X104472023Y-85732571D01*
X104376785Y-85780190D01*
X103995833Y-85780190D01*
X104948214Y-85351619D02*
X104995833Y-85304000D01*
X105091071Y-85256380D01*
X105329166Y-85256380D01*
X105424404Y-85304000D01*
X105472023Y-85351619D01*
X105519642Y-85446857D01*
X105519642Y-85542095D01*
X105472023Y-85684952D01*
X104900595Y-86256380D01*
X105519642Y-86256380D01*
X106376785Y-85256380D02*
X106186309Y-85256380D01*
X106091071Y-85304000D01*
X106043452Y-85351619D01*
X105948214Y-85494476D01*
X105900595Y-85684952D01*
X105900595Y-86065904D01*
X105948214Y-86161142D01*
X105995833Y-86208761D01*
X106091071Y-86256380D01*
X106281547Y-86256380D01*
X106376785Y-86208761D01*
X106424404Y-86161142D01*
X106472023Y-86065904D01*
X106472023Y-85827809D01*
X106424404Y-85732571D01*
X106376785Y-85684952D01*
X106281547Y-85637333D01*
X106091071Y-85637333D01*
X105995833Y-85684952D01*
X105948214Y-85732571D01*
X105900595Y-85827809D01*
%TO.C,C11*%
X76987261Y-89607142D02*
X76939642Y-89654761D01*
X76796785Y-89702380D01*
X76701547Y-89702380D01*
X76558690Y-89654761D01*
X76463452Y-89559523D01*
X76415833Y-89464285D01*
X76368214Y-89273809D01*
X76368214Y-89130952D01*
X76415833Y-88940476D01*
X76463452Y-88845238D01*
X76558690Y-88750000D01*
X76701547Y-88702380D01*
X76796785Y-88702380D01*
X76939642Y-88750000D01*
X76987261Y-88797619D01*
X77939642Y-89702380D02*
X77368214Y-89702380D01*
X77653928Y-89702380D02*
X77653928Y-88702380D01*
X77558690Y-88845238D01*
X77463452Y-88940476D01*
X77368214Y-88988095D01*
X78892023Y-89702380D02*
X78320595Y-89702380D01*
X78606309Y-89702380D02*
X78606309Y-88702380D01*
X78511071Y-88845238D01*
X78415833Y-88940476D01*
X78320595Y-88988095D01*
%TO.C,R23*%
X104567261Y-90872380D02*
X104233928Y-90396190D01*
X103995833Y-90872380D02*
X103995833Y-89872380D01*
X104376785Y-89872380D01*
X104472023Y-89920000D01*
X104519642Y-89967619D01*
X104567261Y-90062857D01*
X104567261Y-90205714D01*
X104519642Y-90300952D01*
X104472023Y-90348571D01*
X104376785Y-90396190D01*
X103995833Y-90396190D01*
X104948214Y-89967619D02*
X104995833Y-89920000D01*
X105091071Y-89872380D01*
X105329166Y-89872380D01*
X105424404Y-89920000D01*
X105472023Y-89967619D01*
X105519642Y-90062857D01*
X105519642Y-90158095D01*
X105472023Y-90300952D01*
X104900595Y-90872380D01*
X105519642Y-90872380D01*
X105852976Y-89872380D02*
X106472023Y-89872380D01*
X106138690Y-90253333D01*
X106281547Y-90253333D01*
X106376785Y-90300952D01*
X106424404Y-90348571D01*
X106472023Y-90443809D01*
X106472023Y-90681904D01*
X106424404Y-90777142D01*
X106376785Y-90824761D01*
X106281547Y-90872380D01*
X105995833Y-90872380D01*
X105900595Y-90824761D01*
X105852976Y-90777142D01*
%TO.C,R12*%
X100107023Y-60252380D02*
X99773690Y-59776190D01*
X99535595Y-60252380D02*
X99535595Y-59252380D01*
X99916547Y-59252380D01*
X100011785Y-59300000D01*
X100059404Y-59347619D01*
X100107023Y-59442857D01*
X100107023Y-59585714D01*
X100059404Y-59680952D01*
X100011785Y-59728571D01*
X99916547Y-59776190D01*
X99535595Y-59776190D01*
X101059404Y-60252380D02*
X100487976Y-60252380D01*
X100773690Y-60252380D02*
X100773690Y-59252380D01*
X100678452Y-59395238D01*
X100583214Y-59490476D01*
X100487976Y-59538095D01*
X101440357Y-59347619D02*
X101487976Y-59300000D01*
X101583214Y-59252380D01*
X101821309Y-59252380D01*
X101916547Y-59300000D01*
X101964166Y-59347619D01*
X102011785Y-59442857D01*
X102011785Y-59538095D01*
X101964166Y-59680952D01*
X101392738Y-60252380D01*
X102011785Y-60252380D01*
%TO.C,C14*%
X95137142Y-86612738D02*
X95184761Y-86660357D01*
X95232380Y-86803214D01*
X95232380Y-86898452D01*
X95184761Y-87041309D01*
X95089523Y-87136547D01*
X94994285Y-87184166D01*
X94803809Y-87231785D01*
X94660952Y-87231785D01*
X94470476Y-87184166D01*
X94375238Y-87136547D01*
X94280000Y-87041309D01*
X94232380Y-86898452D01*
X94232380Y-86803214D01*
X94280000Y-86660357D01*
X94327619Y-86612738D01*
X95232380Y-85660357D02*
X95232380Y-86231785D01*
X95232380Y-85946071D02*
X94232380Y-85946071D01*
X94375238Y-86041309D01*
X94470476Y-86136547D01*
X94518095Y-86231785D01*
X94565714Y-84803214D02*
X95232380Y-84803214D01*
X94184761Y-85041309D02*
X94899047Y-85279404D01*
X94899047Y-84660357D01*
%TO.C,TP7*%
X75868095Y-59204380D02*
X76439523Y-59204380D01*
X76153809Y-60204380D02*
X76153809Y-59204380D01*
X76772857Y-60204380D02*
X76772857Y-59204380D01*
X77153809Y-59204380D01*
X77249047Y-59252000D01*
X77296666Y-59299619D01*
X77344285Y-59394857D01*
X77344285Y-59537714D01*
X77296666Y-59632952D01*
X77249047Y-59680571D01*
X77153809Y-59728190D01*
X76772857Y-59728190D01*
X77677619Y-59204380D02*
X78344285Y-59204380D01*
X77915714Y-60204380D01*
%TO.C,R19*%
X115642380Y-93892738D02*
X115166190Y-94226071D01*
X115642380Y-94464166D02*
X114642380Y-94464166D01*
X114642380Y-94083214D01*
X114690000Y-93987976D01*
X114737619Y-93940357D01*
X114832857Y-93892738D01*
X114975714Y-93892738D01*
X115070952Y-93940357D01*
X115118571Y-93987976D01*
X115166190Y-94083214D01*
X115166190Y-94464166D01*
X115642380Y-92940357D02*
X115642380Y-93511785D01*
X115642380Y-93226071D02*
X114642380Y-93226071D01*
X114785238Y-93321309D01*
X114880476Y-93416547D01*
X114928095Y-93511785D01*
X115642380Y-92464166D02*
X115642380Y-92273690D01*
X115594761Y-92178452D01*
X115547142Y-92130833D01*
X115404285Y-92035595D01*
X115213809Y-91987976D01*
X114832857Y-91987976D01*
X114737619Y-92035595D01*
X114690000Y-92083214D01*
X114642380Y-92178452D01*
X114642380Y-92368928D01*
X114690000Y-92464166D01*
X114737619Y-92511785D01*
X114832857Y-92559404D01*
X115070952Y-92559404D01*
X115166190Y-92511785D01*
X115213809Y-92464166D01*
X115261428Y-92368928D01*
X115261428Y-92178452D01*
X115213809Y-92083214D01*
X115166190Y-92035595D01*
X115070952Y-91987976D01*
%TO.C,TP13*%
X78091904Y-99534380D02*
X78663333Y-99534380D01*
X78377619Y-100534380D02*
X78377619Y-99534380D01*
X78996666Y-100534380D02*
X78996666Y-99534380D01*
X79377619Y-99534380D01*
X79472857Y-99582000D01*
X79520476Y-99629619D01*
X79568095Y-99724857D01*
X79568095Y-99867714D01*
X79520476Y-99962952D01*
X79472857Y-100010571D01*
X79377619Y-100058190D01*
X78996666Y-100058190D01*
X80520476Y-100534380D02*
X79949047Y-100534380D01*
X80234761Y-100534380D02*
X80234761Y-99534380D01*
X80139523Y-99677238D01*
X80044285Y-99772476D01*
X79949047Y-99820095D01*
X80853809Y-99534380D02*
X81472857Y-99534380D01*
X81139523Y-99915333D01*
X81282380Y-99915333D01*
X81377619Y-99962952D01*
X81425238Y-100010571D01*
X81472857Y-100105809D01*
X81472857Y-100343904D01*
X81425238Y-100439142D01*
X81377619Y-100486761D01*
X81282380Y-100534380D01*
X80996666Y-100534380D01*
X80901428Y-100486761D01*
X80853809Y-100439142D01*
%TO.C,C26*%
X116587261Y-66347142D02*
X116539642Y-66394761D01*
X116396785Y-66442380D01*
X116301547Y-66442380D01*
X116158690Y-66394761D01*
X116063452Y-66299523D01*
X116015833Y-66204285D01*
X115968214Y-66013809D01*
X115968214Y-65870952D01*
X116015833Y-65680476D01*
X116063452Y-65585238D01*
X116158690Y-65490000D01*
X116301547Y-65442380D01*
X116396785Y-65442380D01*
X116539642Y-65490000D01*
X116587261Y-65537619D01*
X116968214Y-65537619D02*
X117015833Y-65490000D01*
X117111071Y-65442380D01*
X117349166Y-65442380D01*
X117444404Y-65490000D01*
X117492023Y-65537619D01*
X117539642Y-65632857D01*
X117539642Y-65728095D01*
X117492023Y-65870952D01*
X116920595Y-66442380D01*
X117539642Y-66442380D01*
X118396785Y-65442380D02*
X118206309Y-65442380D01*
X118111071Y-65490000D01*
X118063452Y-65537619D01*
X117968214Y-65680476D01*
X117920595Y-65870952D01*
X117920595Y-66251904D01*
X117968214Y-66347142D01*
X118015833Y-66394761D01*
X118111071Y-66442380D01*
X118301547Y-66442380D01*
X118396785Y-66394761D01*
X118444404Y-66347142D01*
X118492023Y-66251904D01*
X118492023Y-66013809D01*
X118444404Y-65918571D01*
X118396785Y-65870952D01*
X118301547Y-65823333D01*
X118111071Y-65823333D01*
X118015833Y-65870952D01*
X117968214Y-65918571D01*
X117920595Y-66013809D01*
%TO.C,C17*%
X86567142Y-66052857D02*
X86614761Y-66100476D01*
X86662380Y-66243333D01*
X86662380Y-66338571D01*
X86614761Y-66481428D01*
X86519523Y-66576666D01*
X86424285Y-66624285D01*
X86233809Y-66671904D01*
X86090952Y-66671904D01*
X85900476Y-66624285D01*
X85805238Y-66576666D01*
X85710000Y-66481428D01*
X85662380Y-66338571D01*
X85662380Y-66243333D01*
X85710000Y-66100476D01*
X85757619Y-66052857D01*
X86662380Y-65100476D02*
X86662380Y-65671904D01*
X86662380Y-65386190D02*
X85662380Y-65386190D01*
X85805238Y-65481428D01*
X85900476Y-65576666D01*
X85948095Y-65671904D01*
X85662380Y-64767142D02*
X85662380Y-64100476D01*
X86662380Y-64529047D01*
%TO.C,C19*%
X109047261Y-85977142D02*
X108999642Y-86024761D01*
X108856785Y-86072380D01*
X108761547Y-86072380D01*
X108618690Y-86024761D01*
X108523452Y-85929523D01*
X108475833Y-85834285D01*
X108428214Y-85643809D01*
X108428214Y-85500952D01*
X108475833Y-85310476D01*
X108523452Y-85215238D01*
X108618690Y-85120000D01*
X108761547Y-85072380D01*
X108856785Y-85072380D01*
X108999642Y-85120000D01*
X109047261Y-85167619D01*
X109999642Y-86072380D02*
X109428214Y-86072380D01*
X109713928Y-86072380D02*
X109713928Y-85072380D01*
X109618690Y-85215238D01*
X109523452Y-85310476D01*
X109428214Y-85358095D01*
X110475833Y-86072380D02*
X110666309Y-86072380D01*
X110761547Y-86024761D01*
X110809166Y-85977142D01*
X110904404Y-85834285D01*
X110952023Y-85643809D01*
X110952023Y-85262857D01*
X110904404Y-85167619D01*
X110856785Y-85120000D01*
X110761547Y-85072380D01*
X110571071Y-85072380D01*
X110475833Y-85120000D01*
X110428214Y-85167619D01*
X110380595Y-85262857D01*
X110380595Y-85500952D01*
X110428214Y-85596190D01*
X110475833Y-85643809D01*
X110571071Y-85691428D01*
X110761547Y-85691428D01*
X110856785Y-85643809D01*
X110904404Y-85596190D01*
X110952023Y-85500952D01*
%TO.C,R21*%
X117902380Y-71622738D02*
X117426190Y-71956071D01*
X117902380Y-72194166D02*
X116902380Y-72194166D01*
X116902380Y-71813214D01*
X116950000Y-71717976D01*
X116997619Y-71670357D01*
X117092857Y-71622738D01*
X117235714Y-71622738D01*
X117330952Y-71670357D01*
X117378571Y-71717976D01*
X117426190Y-71813214D01*
X117426190Y-72194166D01*
X116997619Y-71241785D02*
X116950000Y-71194166D01*
X116902380Y-71098928D01*
X116902380Y-70860833D01*
X116950000Y-70765595D01*
X116997619Y-70717976D01*
X117092857Y-70670357D01*
X117188095Y-70670357D01*
X117330952Y-70717976D01*
X117902380Y-71289404D01*
X117902380Y-70670357D01*
X117902380Y-69717976D02*
X117902380Y-70289404D01*
X117902380Y-70003690D02*
X116902380Y-70003690D01*
X117045238Y-70098928D01*
X117140476Y-70194166D01*
X117188095Y-70289404D01*
%TO.C,C15*%
X82987142Y-69312738D02*
X83034761Y-69360357D01*
X83082380Y-69503214D01*
X83082380Y-69598452D01*
X83034761Y-69741309D01*
X82939523Y-69836547D01*
X82844285Y-69884166D01*
X82653809Y-69931785D01*
X82510952Y-69931785D01*
X82320476Y-69884166D01*
X82225238Y-69836547D01*
X82130000Y-69741309D01*
X82082380Y-69598452D01*
X82082380Y-69503214D01*
X82130000Y-69360357D01*
X82177619Y-69312738D01*
X83082380Y-68360357D02*
X83082380Y-68931785D01*
X83082380Y-68646071D02*
X82082380Y-68646071D01*
X82225238Y-68741309D01*
X82320476Y-68836547D01*
X82368095Y-68931785D01*
X82082380Y-67455595D02*
X82082380Y-67931785D01*
X82558571Y-67979404D01*
X82510952Y-67931785D01*
X82463333Y-67836547D01*
X82463333Y-67598452D01*
X82510952Y-67503214D01*
X82558571Y-67455595D01*
X82653809Y-67407976D01*
X82891904Y-67407976D01*
X82987142Y-67455595D01*
X83034761Y-67503214D01*
X83082380Y-67598452D01*
X83082380Y-67836547D01*
X83034761Y-67931785D01*
X82987142Y-67979404D01*
%TO.C,C4*%
X104127023Y-77497142D02*
X104079404Y-77544761D01*
X103936547Y-77592380D01*
X103841309Y-77592380D01*
X103698452Y-77544761D01*
X103603214Y-77449523D01*
X103555595Y-77354285D01*
X103507976Y-77163809D01*
X103507976Y-77020952D01*
X103555595Y-76830476D01*
X103603214Y-76735238D01*
X103698452Y-76640000D01*
X103841309Y-76592380D01*
X103936547Y-76592380D01*
X104079404Y-76640000D01*
X104127023Y-76687619D01*
X104984166Y-76925714D02*
X104984166Y-77592380D01*
X104746071Y-76544761D02*
X104507976Y-77259047D01*
X105127023Y-77259047D01*
%TO.C,Y1*%
X76196190Y-86188452D02*
X76672380Y-86188452D01*
X75672380Y-86521785D02*
X76196190Y-86188452D01*
X75672380Y-85855119D01*
X76672380Y-84997976D02*
X76672380Y-85569404D01*
X76672380Y-85283690D02*
X75672380Y-85283690D01*
X75815238Y-85378928D01*
X75910476Y-85474166D01*
X75958095Y-85569404D01*
%TO.C,R9*%
X68969642Y-87352380D02*
X68636309Y-86876190D01*
X68398214Y-87352380D02*
X68398214Y-86352380D01*
X68779166Y-86352380D01*
X68874404Y-86400000D01*
X68922023Y-86447619D01*
X68969642Y-86542857D01*
X68969642Y-86685714D01*
X68922023Y-86780952D01*
X68874404Y-86828571D01*
X68779166Y-86876190D01*
X68398214Y-86876190D01*
X69445833Y-87352380D02*
X69636309Y-87352380D01*
X69731547Y-87304761D01*
X69779166Y-87257142D01*
X69874404Y-87114285D01*
X69922023Y-86923809D01*
X69922023Y-86542857D01*
X69874404Y-86447619D01*
X69826785Y-86400000D01*
X69731547Y-86352380D01*
X69541071Y-86352380D01*
X69445833Y-86400000D01*
X69398214Y-86447619D01*
X69350595Y-86542857D01*
X69350595Y-86780952D01*
X69398214Y-86876190D01*
X69445833Y-86923809D01*
X69541071Y-86971428D01*
X69731547Y-86971428D01*
X69826785Y-86923809D01*
X69874404Y-86876190D01*
X69922023Y-86780952D01*
%TO.C,TP9*%
X69338095Y-59234380D02*
X69909523Y-59234380D01*
X69623809Y-60234380D02*
X69623809Y-59234380D01*
X70242857Y-60234380D02*
X70242857Y-59234380D01*
X70623809Y-59234380D01*
X70719047Y-59282000D01*
X70766666Y-59329619D01*
X70814285Y-59424857D01*
X70814285Y-59567714D01*
X70766666Y-59662952D01*
X70719047Y-59710571D01*
X70623809Y-59758190D01*
X70242857Y-59758190D01*
X71290476Y-60234380D02*
X71480952Y-60234380D01*
X71576190Y-60186761D01*
X71623809Y-60139142D01*
X71719047Y-59996285D01*
X71766666Y-59805809D01*
X71766666Y-59424857D01*
X71719047Y-59329619D01*
X71671428Y-59282000D01*
X71576190Y-59234380D01*
X71385714Y-59234380D01*
X71290476Y-59282000D01*
X71242857Y-59329619D01*
X71195238Y-59424857D01*
X71195238Y-59662952D01*
X71242857Y-59758190D01*
X71290476Y-59805809D01*
X71385714Y-59853428D01*
X71576190Y-59853428D01*
X71671428Y-59805809D01*
X71719047Y-59758190D01*
X71766666Y-59662952D01*
%TO.C,R3*%
X71247023Y-66245713D02*
X70913690Y-65769523D01*
X70675595Y-66245713D02*
X70675595Y-65245713D01*
X71056547Y-65245713D01*
X71151785Y-65293333D01*
X71199404Y-65340952D01*
X71247023Y-65436190D01*
X71247023Y-65579047D01*
X71199404Y-65674285D01*
X71151785Y-65721904D01*
X71056547Y-65769523D01*
X70675595Y-65769523D01*
X71580357Y-65245713D02*
X72199404Y-65245713D01*
X71866071Y-65626666D01*
X72008928Y-65626666D01*
X72104166Y-65674285D01*
X72151785Y-65721904D01*
X72199404Y-65817142D01*
X72199404Y-66055237D01*
X72151785Y-66150475D01*
X72104166Y-66198094D01*
X72008928Y-66245713D01*
X71723214Y-66245713D01*
X71627976Y-66198094D01*
X71580357Y-66150475D01*
%TO.C,TP14*%
X83931904Y-101112380D02*
X84503333Y-101112380D01*
X84217619Y-102112380D02*
X84217619Y-101112380D01*
X84836666Y-102112380D02*
X84836666Y-101112380D01*
X85217619Y-101112380D01*
X85312857Y-101160000D01*
X85360476Y-101207619D01*
X85408095Y-101302857D01*
X85408095Y-101445714D01*
X85360476Y-101540952D01*
X85312857Y-101588571D01*
X85217619Y-101636190D01*
X84836666Y-101636190D01*
X86360476Y-102112380D02*
X85789047Y-102112380D01*
X86074761Y-102112380D02*
X86074761Y-101112380D01*
X85979523Y-101255238D01*
X85884285Y-101350476D01*
X85789047Y-101398095D01*
X87217619Y-101445714D02*
X87217619Y-102112380D01*
X86979523Y-101064761D02*
X86741428Y-101779047D01*
X87360476Y-101779047D01*
%TO.C,C9*%
X96337142Y-68390357D02*
X96384761Y-68437976D01*
X96432380Y-68580833D01*
X96432380Y-68676071D01*
X96384761Y-68818928D01*
X96289523Y-68914166D01*
X96194285Y-68961785D01*
X96003809Y-69009404D01*
X95860952Y-69009404D01*
X95670476Y-68961785D01*
X95575238Y-68914166D01*
X95480000Y-68818928D01*
X95432380Y-68676071D01*
X95432380Y-68580833D01*
X95480000Y-68437976D01*
X95527619Y-68390357D01*
X96432380Y-67914166D02*
X96432380Y-67723690D01*
X96384761Y-67628452D01*
X96337142Y-67580833D01*
X96194285Y-67485595D01*
X96003809Y-67437976D01*
X95622857Y-67437976D01*
X95527619Y-67485595D01*
X95480000Y-67533214D01*
X95432380Y-67628452D01*
X95432380Y-67818928D01*
X95480000Y-67914166D01*
X95527619Y-67961785D01*
X95622857Y-68009404D01*
X95860952Y-68009404D01*
X95956190Y-67961785D01*
X96003809Y-67914166D01*
X96051428Y-67818928D01*
X96051428Y-67628452D01*
X96003809Y-67533214D01*
X95956190Y-67485595D01*
X95860952Y-67437976D01*
%TO.C,C12*%
X94837142Y-69322738D02*
X94884761Y-69370357D01*
X94932380Y-69513214D01*
X94932380Y-69608452D01*
X94884761Y-69751309D01*
X94789523Y-69846547D01*
X94694285Y-69894166D01*
X94503809Y-69941785D01*
X94360952Y-69941785D01*
X94170476Y-69894166D01*
X94075238Y-69846547D01*
X93980000Y-69751309D01*
X93932380Y-69608452D01*
X93932380Y-69513214D01*
X93980000Y-69370357D01*
X94027619Y-69322738D01*
X94932380Y-68370357D02*
X94932380Y-68941785D01*
X94932380Y-68656071D02*
X93932380Y-68656071D01*
X94075238Y-68751309D01*
X94170476Y-68846547D01*
X94218095Y-68941785D01*
X94027619Y-67989404D02*
X93980000Y-67941785D01*
X93932380Y-67846547D01*
X93932380Y-67608452D01*
X93980000Y-67513214D01*
X94027619Y-67465595D01*
X94122857Y-67417976D01*
X94218095Y-67417976D01*
X94360952Y-67465595D01*
X94932380Y-68037023D01*
X94932380Y-67417976D01*
%TO.C,R1*%
X100498023Y-79363880D02*
X100164690Y-78887690D01*
X99926595Y-79363880D02*
X99926595Y-78363880D01*
X100307547Y-78363880D01*
X100402785Y-78411500D01*
X100450404Y-78459119D01*
X100498023Y-78554357D01*
X100498023Y-78697214D01*
X100450404Y-78792452D01*
X100402785Y-78840071D01*
X100307547Y-78887690D01*
X99926595Y-78887690D01*
X101450404Y-79363880D02*
X100878976Y-79363880D01*
X101164690Y-79363880D02*
X101164690Y-78363880D01*
X101069452Y-78506738D01*
X100974214Y-78601976D01*
X100878976Y-78649595D01*
%TO.C,TP10*%
X96751904Y-69584380D02*
X97323333Y-69584380D01*
X97037619Y-70584380D02*
X97037619Y-69584380D01*
X97656666Y-70584380D02*
X97656666Y-69584380D01*
X98037619Y-69584380D01*
X98132857Y-69632000D01*
X98180476Y-69679619D01*
X98228095Y-69774857D01*
X98228095Y-69917714D01*
X98180476Y-70012952D01*
X98132857Y-70060571D01*
X98037619Y-70108190D01*
X97656666Y-70108190D01*
X99180476Y-70584380D02*
X98609047Y-70584380D01*
X98894761Y-70584380D02*
X98894761Y-69584380D01*
X98799523Y-69727238D01*
X98704285Y-69822476D01*
X98609047Y-69870095D01*
X99799523Y-69584380D02*
X99894761Y-69584380D01*
X99990000Y-69632000D01*
X100037619Y-69679619D01*
X100085238Y-69774857D01*
X100132857Y-69965333D01*
X100132857Y-70203428D01*
X100085238Y-70393904D01*
X100037619Y-70489142D01*
X99990000Y-70536761D01*
X99894761Y-70584380D01*
X99799523Y-70584380D01*
X99704285Y-70536761D01*
X99656666Y-70489142D01*
X99609047Y-70393904D01*
X99561428Y-70203428D01*
X99561428Y-69965333D01*
X99609047Y-69774857D01*
X99656666Y-69679619D01*
X99704285Y-69632000D01*
X99799523Y-69584380D01*
%TO.C,C2*%
X102868023Y-80218642D02*
X102820404Y-80266261D01*
X102677547Y-80313880D01*
X102582309Y-80313880D01*
X102439452Y-80266261D01*
X102344214Y-80171023D01*
X102296595Y-80075785D01*
X102248976Y-79885309D01*
X102248976Y-79742452D01*
X102296595Y-79551976D01*
X102344214Y-79456738D01*
X102439452Y-79361500D01*
X102582309Y-79313880D01*
X102677547Y-79313880D01*
X102820404Y-79361500D01*
X102868023Y-79409119D01*
X103248976Y-79409119D02*
X103296595Y-79361500D01*
X103391833Y-79313880D01*
X103629928Y-79313880D01*
X103725166Y-79361500D01*
X103772785Y-79409119D01*
X103820404Y-79504357D01*
X103820404Y-79599595D01*
X103772785Y-79742452D01*
X103201357Y-80313880D01*
X103820404Y-80313880D01*
%TO.C,C25*%
X116327261Y-85797142D02*
X116279642Y-85844761D01*
X116136785Y-85892380D01*
X116041547Y-85892380D01*
X115898690Y-85844761D01*
X115803452Y-85749523D01*
X115755833Y-85654285D01*
X115708214Y-85463809D01*
X115708214Y-85320952D01*
X115755833Y-85130476D01*
X115803452Y-85035238D01*
X115898690Y-84940000D01*
X116041547Y-84892380D01*
X116136785Y-84892380D01*
X116279642Y-84940000D01*
X116327261Y-84987619D01*
X116708214Y-84987619D02*
X116755833Y-84940000D01*
X116851071Y-84892380D01*
X117089166Y-84892380D01*
X117184404Y-84940000D01*
X117232023Y-84987619D01*
X117279642Y-85082857D01*
X117279642Y-85178095D01*
X117232023Y-85320952D01*
X116660595Y-85892380D01*
X117279642Y-85892380D01*
X118184404Y-84892380D02*
X117708214Y-84892380D01*
X117660595Y-85368571D01*
X117708214Y-85320952D01*
X117803452Y-85273333D01*
X118041547Y-85273333D01*
X118136785Y-85320952D01*
X118184404Y-85368571D01*
X118232023Y-85463809D01*
X118232023Y-85701904D01*
X118184404Y-85797142D01*
X118136785Y-85844761D01*
X118041547Y-85892380D01*
X117803452Y-85892380D01*
X117708214Y-85844761D01*
X117660595Y-85797142D01*
%TO.C,C20*%
X109377261Y-66507142D02*
X109329642Y-66554761D01*
X109186785Y-66602380D01*
X109091547Y-66602380D01*
X108948690Y-66554761D01*
X108853452Y-66459523D01*
X108805833Y-66364285D01*
X108758214Y-66173809D01*
X108758214Y-66030952D01*
X108805833Y-65840476D01*
X108853452Y-65745238D01*
X108948690Y-65650000D01*
X109091547Y-65602380D01*
X109186785Y-65602380D01*
X109329642Y-65650000D01*
X109377261Y-65697619D01*
X109758214Y-65697619D02*
X109805833Y-65650000D01*
X109901071Y-65602380D01*
X110139166Y-65602380D01*
X110234404Y-65650000D01*
X110282023Y-65697619D01*
X110329642Y-65792857D01*
X110329642Y-65888095D01*
X110282023Y-66030952D01*
X109710595Y-66602380D01*
X110329642Y-66602380D01*
X110948690Y-65602380D02*
X111043928Y-65602380D01*
X111139166Y-65650000D01*
X111186785Y-65697619D01*
X111234404Y-65792857D01*
X111282023Y-65983333D01*
X111282023Y-66221428D01*
X111234404Y-66411904D01*
X111186785Y-66507142D01*
X111139166Y-66554761D01*
X111043928Y-66602380D01*
X110948690Y-66602380D01*
X110853452Y-66554761D01*
X110805833Y-66507142D01*
X110758214Y-66411904D01*
X110710595Y-66221428D01*
X110710595Y-65983333D01*
X110758214Y-65792857D01*
X110805833Y-65697619D01*
X110853452Y-65650000D01*
X110948690Y-65602380D01*
%TO.C,C5*%
X103857023Y-63827142D02*
X103809404Y-63874761D01*
X103666547Y-63922380D01*
X103571309Y-63922380D01*
X103428452Y-63874761D01*
X103333214Y-63779523D01*
X103285595Y-63684285D01*
X103237976Y-63493809D01*
X103237976Y-63350952D01*
X103285595Y-63160476D01*
X103333214Y-63065238D01*
X103428452Y-62970000D01*
X103571309Y-62922380D01*
X103666547Y-62922380D01*
X103809404Y-62970000D01*
X103857023Y-63017619D01*
X104761785Y-62922380D02*
X104285595Y-62922380D01*
X104237976Y-63398571D01*
X104285595Y-63350952D01*
X104380833Y-63303333D01*
X104618928Y-63303333D01*
X104714166Y-63350952D01*
X104761785Y-63398571D01*
X104809404Y-63493809D01*
X104809404Y-63731904D01*
X104761785Y-63827142D01*
X104714166Y-63874761D01*
X104618928Y-63922380D01*
X104380833Y-63922380D01*
X104285595Y-63874761D01*
X104237976Y-63827142D01*
%TO.C,TP6*%
X72618095Y-59234380D02*
X73189523Y-59234380D01*
X72903809Y-60234380D02*
X72903809Y-59234380D01*
X73522857Y-60234380D02*
X73522857Y-59234380D01*
X73903809Y-59234380D01*
X73999047Y-59282000D01*
X74046666Y-59329619D01*
X74094285Y-59424857D01*
X74094285Y-59567714D01*
X74046666Y-59662952D01*
X73999047Y-59710571D01*
X73903809Y-59758190D01*
X73522857Y-59758190D01*
X74951428Y-59234380D02*
X74760952Y-59234380D01*
X74665714Y-59282000D01*
X74618095Y-59329619D01*
X74522857Y-59472476D01*
X74475238Y-59662952D01*
X74475238Y-60043904D01*
X74522857Y-60139142D01*
X74570476Y-60186761D01*
X74665714Y-60234380D01*
X74856190Y-60234380D01*
X74951428Y-60186761D01*
X74999047Y-60139142D01*
X75046666Y-60043904D01*
X75046666Y-59805809D01*
X74999047Y-59710571D01*
X74951428Y-59662952D01*
X74856190Y-59615333D01*
X74665714Y-59615333D01*
X74570476Y-59662952D01*
X74522857Y-59710571D01*
X74475238Y-59805809D01*
%TO.C,R13*%
X100147023Y-65042380D02*
X99813690Y-64566190D01*
X99575595Y-65042380D02*
X99575595Y-64042380D01*
X99956547Y-64042380D01*
X100051785Y-64090000D01*
X100099404Y-64137619D01*
X100147023Y-64232857D01*
X100147023Y-64375714D01*
X100099404Y-64470952D01*
X100051785Y-64518571D01*
X99956547Y-64566190D01*
X99575595Y-64566190D01*
X101099404Y-65042380D02*
X100527976Y-65042380D01*
X100813690Y-65042380D02*
X100813690Y-64042380D01*
X100718452Y-64185238D01*
X100623214Y-64280476D01*
X100527976Y-64328095D01*
X101432738Y-64042380D02*
X102051785Y-64042380D01*
X101718452Y-64423333D01*
X101861309Y-64423333D01*
X101956547Y-64470952D01*
X102004166Y-64518571D01*
X102051785Y-64613809D01*
X102051785Y-64851904D01*
X102004166Y-64947142D01*
X101956547Y-64994761D01*
X101861309Y-65042380D01*
X101575595Y-65042380D01*
X101480357Y-64994761D01*
X101432738Y-64947142D01*
%TO.C,TP18*%
X107361904Y-80462380D02*
X107933333Y-80462380D01*
X107647619Y-81462380D02*
X107647619Y-80462380D01*
X108266666Y-81462380D02*
X108266666Y-80462380D01*
X108647619Y-80462380D01*
X108742857Y-80510000D01*
X108790476Y-80557619D01*
X108838095Y-80652857D01*
X108838095Y-80795714D01*
X108790476Y-80890952D01*
X108742857Y-80938571D01*
X108647619Y-80986190D01*
X108266666Y-80986190D01*
X109790476Y-81462380D02*
X109219047Y-81462380D01*
X109504761Y-81462380D02*
X109504761Y-80462380D01*
X109409523Y-80605238D01*
X109314285Y-80700476D01*
X109219047Y-80748095D01*
X110361904Y-80890952D02*
X110266666Y-80843333D01*
X110219047Y-80795714D01*
X110171428Y-80700476D01*
X110171428Y-80652857D01*
X110219047Y-80557619D01*
X110266666Y-80510000D01*
X110361904Y-80462380D01*
X110552380Y-80462380D01*
X110647619Y-80510000D01*
X110695238Y-80557619D01*
X110742857Y-80652857D01*
X110742857Y-80700476D01*
X110695238Y-80795714D01*
X110647619Y-80843333D01*
X110552380Y-80890952D01*
X110361904Y-80890952D01*
X110266666Y-80938571D01*
X110219047Y-80986190D01*
X110171428Y-81081428D01*
X110171428Y-81271904D01*
X110219047Y-81367142D01*
X110266666Y-81414761D01*
X110361904Y-81462380D01*
X110552380Y-81462380D01*
X110647619Y-81414761D01*
X110695238Y-81367142D01*
X110742857Y-81271904D01*
X110742857Y-81081428D01*
X110695238Y-80986190D01*
X110647619Y-80938571D01*
X110552380Y-80890952D01*
%TO.C,C8*%
X77977023Y-81987142D02*
X77929404Y-82034761D01*
X77786547Y-82082380D01*
X77691309Y-82082380D01*
X77548452Y-82034761D01*
X77453214Y-81939523D01*
X77405595Y-81844285D01*
X77357976Y-81653809D01*
X77357976Y-81510952D01*
X77405595Y-81320476D01*
X77453214Y-81225238D01*
X77548452Y-81130000D01*
X77691309Y-81082380D01*
X77786547Y-81082380D01*
X77929404Y-81130000D01*
X77977023Y-81177619D01*
X78548452Y-81510952D02*
X78453214Y-81463333D01*
X78405595Y-81415714D01*
X78357976Y-81320476D01*
X78357976Y-81272857D01*
X78405595Y-81177619D01*
X78453214Y-81130000D01*
X78548452Y-81082380D01*
X78738928Y-81082380D01*
X78834166Y-81130000D01*
X78881785Y-81177619D01*
X78929404Y-81272857D01*
X78929404Y-81320476D01*
X78881785Y-81415714D01*
X78834166Y-81463333D01*
X78738928Y-81510952D01*
X78548452Y-81510952D01*
X78453214Y-81558571D01*
X78405595Y-81606190D01*
X78357976Y-81701428D01*
X78357976Y-81891904D01*
X78405595Y-81987142D01*
X78453214Y-82034761D01*
X78548452Y-82082380D01*
X78738928Y-82082380D01*
X78834166Y-82034761D01*
X78881785Y-81987142D01*
X78929404Y-81891904D01*
X78929404Y-81701428D01*
X78881785Y-81606190D01*
X78834166Y-81558571D01*
X78738928Y-81510952D01*
%TO.C,R11*%
X66917261Y-82642380D02*
X66583928Y-82166190D01*
X66345833Y-82642380D02*
X66345833Y-81642380D01*
X66726785Y-81642380D01*
X66822023Y-81690000D01*
X66869642Y-81737619D01*
X66917261Y-81832857D01*
X66917261Y-81975714D01*
X66869642Y-82070952D01*
X66822023Y-82118571D01*
X66726785Y-82166190D01*
X66345833Y-82166190D01*
X67869642Y-82642380D02*
X67298214Y-82642380D01*
X67583928Y-82642380D02*
X67583928Y-81642380D01*
X67488690Y-81785238D01*
X67393452Y-81880476D01*
X67298214Y-81928095D01*
X68822023Y-82642380D02*
X68250595Y-82642380D01*
X68536309Y-82642380D02*
X68536309Y-81642380D01*
X68441071Y-81785238D01*
X68345833Y-81880476D01*
X68250595Y-81928095D01*
%TO.C,TP11*%
X93711904Y-57104380D02*
X94283333Y-57104380D01*
X93997619Y-58104380D02*
X93997619Y-57104380D01*
X94616666Y-58104380D02*
X94616666Y-57104380D01*
X94997619Y-57104380D01*
X95092857Y-57152000D01*
X95140476Y-57199619D01*
X95188095Y-57294857D01*
X95188095Y-57437714D01*
X95140476Y-57532952D01*
X95092857Y-57580571D01*
X94997619Y-57628190D01*
X94616666Y-57628190D01*
X96140476Y-58104380D02*
X95569047Y-58104380D01*
X95854761Y-58104380D02*
X95854761Y-57104380D01*
X95759523Y-57247238D01*
X95664285Y-57342476D01*
X95569047Y-57390095D01*
X97092857Y-58104380D02*
X96521428Y-58104380D01*
X96807142Y-58104380D02*
X96807142Y-57104380D01*
X96711904Y-57247238D01*
X96616666Y-57342476D01*
X96521428Y-57390095D01*
%TO.C,TP2*%
X115958095Y-91172380D02*
X116529523Y-91172380D01*
X116243809Y-92172380D02*
X116243809Y-91172380D01*
X116862857Y-92172380D02*
X116862857Y-91172380D01*
X117243809Y-91172380D01*
X117339047Y-91220000D01*
X117386666Y-91267619D01*
X117434285Y-91362857D01*
X117434285Y-91505714D01*
X117386666Y-91600952D01*
X117339047Y-91648571D01*
X117243809Y-91696190D01*
X116862857Y-91696190D01*
X117815238Y-91267619D02*
X117862857Y-91220000D01*
X117958095Y-91172380D01*
X118196190Y-91172380D01*
X118291428Y-91220000D01*
X118339047Y-91267619D01*
X118386666Y-91362857D01*
X118386666Y-91458095D01*
X118339047Y-91600952D01*
X117767619Y-92172380D01*
X118386666Y-92172380D01*
%TO.C,TP17*%
X103161904Y-96332380D02*
X103733333Y-96332380D01*
X103447619Y-97332380D02*
X103447619Y-96332380D01*
X104066666Y-97332380D02*
X104066666Y-96332380D01*
X104447619Y-96332380D01*
X104542857Y-96380000D01*
X104590476Y-96427619D01*
X104638095Y-96522857D01*
X104638095Y-96665714D01*
X104590476Y-96760952D01*
X104542857Y-96808571D01*
X104447619Y-96856190D01*
X104066666Y-96856190D01*
X105590476Y-97332380D02*
X105019047Y-97332380D01*
X105304761Y-97332380D02*
X105304761Y-96332380D01*
X105209523Y-96475238D01*
X105114285Y-96570476D01*
X105019047Y-96618095D01*
X105923809Y-96332380D02*
X106590476Y-96332380D01*
X106161904Y-97332380D01*
%TO.C,TP1*%
X115908095Y-96132380D02*
X116479523Y-96132380D01*
X116193809Y-97132380D02*
X116193809Y-96132380D01*
X116812857Y-97132380D02*
X116812857Y-96132380D01*
X117193809Y-96132380D01*
X117289047Y-96180000D01*
X117336666Y-96227619D01*
X117384285Y-96322857D01*
X117384285Y-96465714D01*
X117336666Y-96560952D01*
X117289047Y-96608571D01*
X117193809Y-96656190D01*
X116812857Y-96656190D01*
X118336666Y-97132380D02*
X117765238Y-97132380D01*
X118050952Y-97132380D02*
X118050952Y-96132380D01*
X117955714Y-96275238D01*
X117860476Y-96370476D01*
X117765238Y-96418095D01*
%TO.C,TP12*%
X78031904Y-96124380D02*
X78603333Y-96124380D01*
X78317619Y-97124380D02*
X78317619Y-96124380D01*
X78936666Y-97124380D02*
X78936666Y-96124380D01*
X79317619Y-96124380D01*
X79412857Y-96172000D01*
X79460476Y-96219619D01*
X79508095Y-96314857D01*
X79508095Y-96457714D01*
X79460476Y-96552952D01*
X79412857Y-96600571D01*
X79317619Y-96648190D01*
X78936666Y-96648190D01*
X80460476Y-97124380D02*
X79889047Y-97124380D01*
X80174761Y-97124380D02*
X80174761Y-96124380D01*
X80079523Y-96267238D01*
X79984285Y-96362476D01*
X79889047Y-96410095D01*
X80841428Y-96219619D02*
X80889047Y-96172000D01*
X80984285Y-96124380D01*
X81222380Y-96124380D01*
X81317619Y-96172000D01*
X81365238Y-96219619D01*
X81412857Y-96314857D01*
X81412857Y-96410095D01*
X81365238Y-96552952D01*
X80793809Y-97124380D01*
X81412857Y-97124380D01*
%TO.C,C21*%
X113967142Y-93782976D02*
X114014761Y-93830595D01*
X114062380Y-93973452D01*
X114062380Y-94068690D01*
X114014761Y-94211547D01*
X113919523Y-94306785D01*
X113824285Y-94354404D01*
X113633809Y-94402023D01*
X113490952Y-94402023D01*
X113300476Y-94354404D01*
X113205238Y-94306785D01*
X113110000Y-94211547D01*
X113062380Y-94068690D01*
X113062380Y-93973452D01*
X113110000Y-93830595D01*
X113157619Y-93782976D01*
X113157619Y-93402023D02*
X113110000Y-93354404D01*
X113062380Y-93259166D01*
X113062380Y-93021071D01*
X113110000Y-92925833D01*
X113157619Y-92878214D01*
X113252857Y-92830595D01*
X113348095Y-92830595D01*
X113490952Y-92878214D01*
X114062380Y-93449642D01*
X114062380Y-92830595D01*
X114062380Y-91878214D02*
X114062380Y-92449642D01*
X114062380Y-92163928D02*
X113062380Y-92163928D01*
X113205238Y-92259166D01*
X113300476Y-92354404D01*
X113348095Y-92449642D01*
%TO.C,R15*%
X67947261Y-84252380D02*
X67613928Y-83776190D01*
X67375833Y-84252380D02*
X67375833Y-83252380D01*
X67756785Y-83252380D01*
X67852023Y-83300000D01*
X67899642Y-83347619D01*
X67947261Y-83442857D01*
X67947261Y-83585714D01*
X67899642Y-83680952D01*
X67852023Y-83728571D01*
X67756785Y-83776190D01*
X67375833Y-83776190D01*
X68899642Y-84252380D02*
X68328214Y-84252380D01*
X68613928Y-84252380D02*
X68613928Y-83252380D01*
X68518690Y-83395238D01*
X68423452Y-83490476D01*
X68328214Y-83538095D01*
X69804404Y-83252380D02*
X69328214Y-83252380D01*
X69280595Y-83728571D01*
X69328214Y-83680952D01*
X69423452Y-83633333D01*
X69661547Y-83633333D01*
X69756785Y-83680952D01*
X69804404Y-83728571D01*
X69852023Y-83823809D01*
X69852023Y-84061904D01*
X69804404Y-84157142D01*
X69756785Y-84204761D01*
X69661547Y-84252380D01*
X69423452Y-84252380D01*
X69328214Y-84204761D01*
X69280595Y-84157142D01*
%TO.C,TP20*%
X68591904Y-97702380D02*
X69163333Y-97702380D01*
X68877619Y-98702380D02*
X68877619Y-97702380D01*
X69496666Y-98702380D02*
X69496666Y-97702380D01*
X69877619Y-97702380D01*
X69972857Y-97750000D01*
X70020476Y-97797619D01*
X70068095Y-97892857D01*
X70068095Y-98035714D01*
X70020476Y-98130952D01*
X69972857Y-98178571D01*
X69877619Y-98226190D01*
X69496666Y-98226190D01*
X70449047Y-97797619D02*
X70496666Y-97750000D01*
X70591904Y-97702380D01*
X70830000Y-97702380D01*
X70925238Y-97750000D01*
X70972857Y-97797619D01*
X71020476Y-97892857D01*
X71020476Y-97988095D01*
X70972857Y-98130952D01*
X70401428Y-98702380D01*
X71020476Y-98702380D01*
X71639523Y-97702380D02*
X71734761Y-97702380D01*
X71830000Y-97750000D01*
X71877619Y-97797619D01*
X71925238Y-97892857D01*
X71972857Y-98083333D01*
X71972857Y-98321428D01*
X71925238Y-98511904D01*
X71877619Y-98607142D01*
X71830000Y-98654761D01*
X71734761Y-98702380D01*
X71639523Y-98702380D01*
X71544285Y-98654761D01*
X71496666Y-98607142D01*
X71449047Y-98511904D01*
X71401428Y-98321428D01*
X71401428Y-98083333D01*
X71449047Y-97892857D01*
X71496666Y-97797619D01*
X71544285Y-97750000D01*
X71639523Y-97702380D01*
%TO.C,R20*%
X116407023Y-87482380D02*
X116073690Y-87006190D01*
X115835595Y-87482380D02*
X115835595Y-86482380D01*
X116216547Y-86482380D01*
X116311785Y-86530000D01*
X116359404Y-86577619D01*
X116407023Y-86672857D01*
X116407023Y-86815714D01*
X116359404Y-86910952D01*
X116311785Y-86958571D01*
X116216547Y-87006190D01*
X115835595Y-87006190D01*
X116787976Y-86577619D02*
X116835595Y-86530000D01*
X116930833Y-86482380D01*
X117168928Y-86482380D01*
X117264166Y-86530000D01*
X117311785Y-86577619D01*
X117359404Y-86672857D01*
X117359404Y-86768095D01*
X117311785Y-86910952D01*
X116740357Y-87482380D01*
X117359404Y-87482380D01*
X117978452Y-86482380D02*
X118073690Y-86482380D01*
X118168928Y-86530000D01*
X118216547Y-86577619D01*
X118264166Y-86672857D01*
X118311785Y-86863333D01*
X118311785Y-87101428D01*
X118264166Y-87291904D01*
X118216547Y-87387142D01*
X118168928Y-87434761D01*
X118073690Y-87482380D01*
X117978452Y-87482380D01*
X117883214Y-87434761D01*
X117835595Y-87387142D01*
X117787976Y-87291904D01*
X117740357Y-87101428D01*
X117740357Y-86863333D01*
X117787976Y-86672857D01*
X117835595Y-86577619D01*
X117883214Y-86530000D01*
X117978452Y-86482380D01*
D11*
%TO.C,IC3*%
X108845200Y-89382900D02*
X108845200Y-91237100D01*
X111994800Y-91237100D02*
X111994800Y-89382900D01*
%TO.C,IC4*%
X109515200Y-70202900D02*
X109515200Y-72057100D01*
X112664800Y-72057100D02*
X112664800Y-70202900D01*
%TO.C,TP24*%
X111110000Y-61190000D02*
G75*
G03*
X111110000Y-61190000I-950000J0D01*
G01*
%TO.C,TP23*%
X106610000Y-61190000D02*
G75*
G03*
X106610000Y-61190000I-950000J0D01*
G01*
%TO.C,TP22*%
X105440000Y-56400000D02*
G75*
G03*
X105440000Y-56400000I-950000J0D01*
G01*
%TO.C,TP21*%
X101170000Y-56340000D02*
G75*
G03*
X101170000Y-56340000I-950000J0D01*
G01*
D12*
%TO.C,C22*%
X114250000Y-71500000D02*
X114250000Y-70500000D01*
X114750000Y-71500000D02*
X114250000Y-71500000D01*
X114250000Y-70500000D02*
X114750000Y-70500000D01*
X114750000Y-70500000D02*
X114750000Y-71500000D01*
%TO.C,R30*%
X103250000Y-67652000D02*
X102250000Y-67652000D01*
X103250000Y-68152000D02*
X103250000Y-67652000D01*
X102250000Y-67652000D02*
X102250000Y-68152000D01*
X102250000Y-68152000D02*
X103250000Y-68152000D01*
%TO.C,C7*%
X96350000Y-82660000D02*
X96350000Y-83660000D01*
X95850000Y-82660000D02*
X96350000Y-82660000D01*
X96350000Y-83660000D02*
X95850000Y-83660000D01*
X95850000Y-83660000D02*
X95850000Y-82660000D01*
%TO.C,C1*%
X104490000Y-91960000D02*
X104490000Y-92460000D01*
X103490000Y-91960000D02*
X104490000Y-91960000D01*
X104490000Y-92460000D02*
X103490000Y-92460000D01*
X103490000Y-92460000D02*
X103490000Y-91960000D01*
%TO.C,R6*%
X73290000Y-69290000D02*
X74290000Y-69290000D01*
X73290000Y-68790000D02*
X73290000Y-69290000D01*
X74290000Y-69290000D02*
X74290000Y-68790000D01*
X74290000Y-68790000D02*
X73290000Y-68790000D01*
%TO.C,R14*%
X80550000Y-85830000D02*
X80550000Y-84830000D01*
X80550000Y-84830000D02*
X80050000Y-84830000D01*
X80050000Y-84830000D02*
X80050000Y-85830000D01*
X80050000Y-85830000D02*
X80550000Y-85830000D01*
%TO.C,R5*%
X99640000Y-75630000D02*
X99640000Y-76130000D01*
X100640000Y-75630000D02*
X99640000Y-75630000D01*
X99640000Y-76130000D02*
X100640000Y-76130000D01*
X100640000Y-76130000D02*
X100640000Y-75630000D01*
%TO.C,C3*%
X73280000Y-72560000D02*
X73280000Y-72060000D01*
X73280000Y-72060000D02*
X74280000Y-72060000D01*
X74280000Y-72560000D02*
X73280000Y-72560000D01*
X74280000Y-72060000D02*
X74280000Y-72560000D01*
D11*
%TO.C,JP2*%
X63020000Y-69450000D02*
X63020000Y-68850000D01*
X65820000Y-68850000D02*
X65820000Y-69450000D01*
X65120000Y-70150000D02*
X63720000Y-70150000D01*
X63720000Y-68150000D02*
X65120000Y-68150000D01*
X65120000Y-70150000D02*
G75*
G03*
X65820000Y-69450000I1J699999D01*
G01*
X63720000Y-68150000D02*
G75*
G03*
X63020000Y-68850000I-1J-699999D01*
G01*
X65820000Y-68850000D02*
G75*
G03*
X65120000Y-68150000I-699999J1D01*
G01*
X63020000Y-69450000D02*
G75*
G03*
X63720000Y-70150000I699999J-1D01*
G01*
%TO.C,TP15*%
X95990000Y-91100000D02*
G75*
G03*
X95990000Y-91100000I-950000J0D01*
G01*
%TO.C,TP4*%
X117710000Y-63400000D02*
G75*
G03*
X117710000Y-63400000I-950000J0D01*
G01*
D12*
%TO.C,R16*%
X71950000Y-80290000D02*
X70950000Y-80290000D01*
X70950000Y-80790000D02*
X71950000Y-80790000D01*
X71950000Y-80790000D02*
X71950000Y-80290000D01*
X70950000Y-80290000D02*
X70950000Y-80790000D01*
%TO.C,R29*%
X103250000Y-66150000D02*
X102250000Y-66150000D01*
X102250000Y-66150000D02*
X102250000Y-66650000D01*
X102250000Y-66650000D02*
X103250000Y-66650000D01*
X103250000Y-66650000D02*
X103250000Y-66150000D01*
%TO.C,R24*%
X102040000Y-89068000D02*
X103040000Y-89068000D01*
X103040000Y-89068000D02*
X103040000Y-88568000D01*
X103040000Y-88568000D02*
X102040000Y-88568000D01*
X102040000Y-88568000D02*
X102040000Y-89068000D01*
D11*
%TO.C,TP5*%
X76710000Y-75430000D02*
G75*
G03*
X76710000Y-75430000I-950000J0D01*
G01*
D12*
%TO.C,R31*%
X103250000Y-69154000D02*
X102250000Y-69154000D01*
X102250000Y-69654000D02*
X103250000Y-69654000D01*
X103250000Y-69654000D02*
X103250000Y-69154000D01*
X102250000Y-69154000D02*
X102250000Y-69654000D01*
%TO.C,C6*%
X83870000Y-66340000D02*
X83870000Y-65340000D01*
X84370000Y-66340000D02*
X83870000Y-66340000D01*
X84370000Y-65340000D02*
X84370000Y-66340000D01*
X83870000Y-65340000D02*
X84370000Y-65340000D01*
%TO.C,R10*%
X70950000Y-85537500D02*
X71950000Y-85537500D01*
X70950000Y-85037500D02*
X70950000Y-85537500D01*
X71950000Y-85537500D02*
X71950000Y-85037500D01*
X71950000Y-85037500D02*
X70950000Y-85037500D01*
D11*
%TO.C,TP16*%
X98980000Y-96770000D02*
G75*
G03*
X98980000Y-96770000I-950000J0D01*
G01*
D12*
%TO.C,R27*%
X102040000Y-84032000D02*
X102040000Y-84532000D01*
X102040000Y-84532000D02*
X103040000Y-84532000D01*
X103040000Y-84032000D02*
X102040000Y-84032000D01*
X103040000Y-84532000D02*
X103040000Y-84032000D01*
%TO.C,R4*%
X74290000Y-67683332D02*
X74290000Y-67183332D01*
X74290000Y-67183332D02*
X73290000Y-67183332D01*
X73290000Y-67183332D02*
X73290000Y-67683332D01*
X73290000Y-67683332D02*
X74290000Y-67683332D01*
%TO.C,R34*%
X102250000Y-74160000D02*
X103250000Y-74160000D01*
X103250000Y-74160000D02*
X103250000Y-73660000D01*
X102250000Y-73660000D02*
X102250000Y-74160000D01*
X103250000Y-73660000D02*
X102250000Y-73660000D01*
%TO.C,R33*%
X102250000Y-72158000D02*
X102250000Y-72658000D01*
X103250000Y-72158000D02*
X102250000Y-72158000D01*
X102250000Y-72658000D02*
X103250000Y-72658000D01*
X103250000Y-72658000D02*
X103250000Y-72158000D01*
%TO.C,R32*%
X102250000Y-70656000D02*
X102250000Y-71156000D01*
X103250000Y-71156000D02*
X103250000Y-70656000D01*
X102250000Y-71156000D02*
X103250000Y-71156000D01*
X103250000Y-70656000D02*
X102250000Y-70656000D01*
D11*
%TO.C,TP19*%
X110320000Y-75590000D02*
G75*
G03*
X110320000Y-75590000I-950000J0D01*
G01*
D12*
%TO.C,R25*%
X102040000Y-87056000D02*
X102040000Y-87556000D01*
X102040000Y-87556000D02*
X103040000Y-87556000D01*
X103040000Y-87556000D02*
X103040000Y-87056000D01*
X103040000Y-87056000D02*
X102040000Y-87056000D01*
%TO.C,C16*%
X82430000Y-82660000D02*
X82930000Y-82660000D01*
X82430000Y-83660000D02*
X82430000Y-82660000D01*
X82930000Y-82660000D02*
X82930000Y-83660000D01*
X82930000Y-83660000D02*
X82430000Y-83660000D01*
D11*
%TO.C,TP3*%
X117550000Y-74550000D02*
G75*
G03*
X117550000Y-74550000I-950000J0D01*
G01*
D12*
%TO.C,R22*%
X114120000Y-67760000D02*
X115120000Y-67760000D01*
X114120000Y-67260000D02*
X114120000Y-67760000D01*
X115120000Y-67760000D02*
X115120000Y-67260000D01*
X115120000Y-67260000D02*
X114120000Y-67260000D01*
D11*
%TO.C,JP5*%
X95980000Y-95950000D02*
X95980000Y-97350000D01*
X95280000Y-98050000D02*
X94680000Y-98050000D01*
X94680000Y-95250000D02*
X95280000Y-95250000D01*
X93980000Y-97350000D02*
X93980000Y-95950000D01*
X95980000Y-95950000D02*
G75*
G03*
X95280000Y-95250000I-699999J1D01*
G01*
X95280000Y-98050000D02*
G75*
G03*
X95980000Y-97350000I1J699999D01*
G01*
X93980000Y-97350000D02*
G75*
G03*
X94680000Y-98050000I699999J-1D01*
G01*
X94680000Y-95250000D02*
G75*
G03*
X93980000Y-95950000I-1J-699999D01*
G01*
%TO.C,TP8*%
X81330000Y-61400000D02*
G75*
G03*
X81330000Y-61400000I-950000J0D01*
G01*
%TO.C,C18*%
X87060000Y-79230000D02*
X87060000Y-87465000D01*
X91580000Y-87465000D02*
X91580000Y-79230000D01*
X87060000Y-87465000D02*
X91580000Y-87465000D01*
D12*
%TO.C,R28*%
X102040000Y-83020000D02*
X103040000Y-83020000D01*
X103040000Y-83020000D02*
X103040000Y-82520000D01*
X103040000Y-82520000D02*
X102040000Y-82520000D01*
X102040000Y-82520000D02*
X102040000Y-83020000D01*
D11*
%TO.C,JP1*%
X63020000Y-66836667D02*
X63020000Y-66236667D01*
X65120000Y-67536667D02*
X63720000Y-67536667D01*
X65820000Y-66236667D02*
X65820000Y-66836667D01*
X63720000Y-65536667D02*
X65120000Y-65536667D01*
X65120000Y-67536667D02*
G75*
G03*
X65820000Y-66836667I1J699999D01*
G01*
X65820000Y-66236667D02*
G75*
G03*
X65120000Y-65536667I-699999J1D01*
G01*
X63720000Y-65536667D02*
G75*
G03*
X63020000Y-66236667I-1J-699999D01*
G01*
X63020000Y-66836667D02*
G75*
G03*
X63720000Y-67536667I699999J-1D01*
G01*
D12*
%TO.C,R2*%
X74290000Y-64470000D02*
X74290000Y-63970000D01*
X74290000Y-63970000D02*
X73290000Y-63970000D01*
X73290000Y-63970000D02*
X73290000Y-64470000D01*
X73290000Y-64470000D02*
X74290000Y-64470000D01*
%TO.C,C10*%
X84340000Y-83660000D02*
X83840000Y-83660000D01*
X84340000Y-82660000D02*
X84340000Y-83660000D01*
X83840000Y-83660000D02*
X83840000Y-82660000D01*
X83840000Y-82660000D02*
X84340000Y-82660000D01*
%TO.C,R26*%
X102040000Y-86044000D02*
X103040000Y-86044000D01*
X102040000Y-85544000D02*
X102040000Y-86044000D01*
X103040000Y-85544000D02*
X102040000Y-85544000D01*
X103040000Y-86044000D02*
X103040000Y-85544000D01*
%TO.C,C11*%
X77220000Y-88060000D02*
X77220000Y-87560000D01*
X78220000Y-88060000D02*
X77220000Y-88060000D01*
X78220000Y-87560000D02*
X78220000Y-88060000D01*
X77220000Y-87560000D02*
X78220000Y-87560000D01*
%TO.C,R23*%
X103040000Y-90080000D02*
X102040000Y-90080000D01*
X102040000Y-90080000D02*
X102040000Y-90580000D01*
X102040000Y-90580000D02*
X103040000Y-90580000D01*
X103040000Y-90580000D02*
X103040000Y-90080000D01*
%TO.C,R12*%
X101170000Y-61500000D02*
X101170000Y-61000000D01*
X100170000Y-61500000D02*
X101170000Y-61500000D01*
X100170000Y-61000000D02*
X100170000Y-61500000D01*
X101170000Y-61000000D02*
X100170000Y-61000000D01*
D11*
%TO.C,JP8*%
X83540000Y-95250000D02*
X84140000Y-95250000D01*
X84140000Y-98050000D02*
X83540000Y-98050000D01*
X82840000Y-97350000D02*
X82840000Y-95950000D01*
X84840000Y-95950000D02*
X84840000Y-97350000D01*
X84140000Y-98050000D02*
G75*
G03*
X84840000Y-97350000I1J699999D01*
G01*
X82840000Y-97350000D02*
G75*
G03*
X83540000Y-98050000I699999J-1D01*
G01*
X84840000Y-95950000D02*
G75*
G03*
X84140000Y-95250000I-699999J1D01*
G01*
X83540000Y-95250000D02*
G75*
G03*
X82840000Y-95950000I-1J-699999D01*
G01*
D12*
%TO.C,C14*%
X94440000Y-82630000D02*
X94940000Y-82630000D01*
X94940000Y-83630000D02*
X94440000Y-83630000D01*
X94440000Y-83630000D02*
X94440000Y-82630000D01*
X94940000Y-82630000D02*
X94940000Y-83630000D01*
D11*
%TO.C,TP7*%
X78080000Y-61400000D02*
G75*
G03*
X78080000Y-61400000I-950000J0D01*
G01*
D12*
%TO.C,R19*%
X115410000Y-90910000D02*
X115410000Y-89910000D01*
X114910000Y-89910000D02*
X114910000Y-90910000D01*
X114910000Y-90910000D02*
X115410000Y-90910000D01*
X115410000Y-89910000D02*
X114910000Y-89910000D01*
D11*
%TO.C,TP13*%
X80780000Y-101730000D02*
G75*
G03*
X80780000Y-101730000I-950000J0D01*
G01*
D12*
%TO.C,C26*%
X114120000Y-66230000D02*
X114120000Y-65730000D01*
X114120000Y-65730000D02*
X115120000Y-65730000D01*
X115120000Y-66230000D02*
X114120000Y-66230000D01*
X115120000Y-65730000D02*
X115120000Y-66230000D01*
D11*
%TO.C,C17*%
X87050000Y-61760000D02*
X87050000Y-69995000D01*
X87050000Y-69995000D02*
X91570000Y-69995000D01*
X91570000Y-69995000D02*
X91570000Y-61760000D01*
D12*
%TO.C,C19*%
X110370000Y-87300000D02*
X109370000Y-87300000D01*
X109370000Y-86800000D02*
X110370000Y-86800000D01*
X109370000Y-87300000D02*
X109370000Y-86800000D01*
X110370000Y-86800000D02*
X110370000Y-87300000D01*
%TO.C,R21*%
X115830000Y-71500000D02*
X116330000Y-71500000D01*
X115830000Y-70500000D02*
X115830000Y-71500000D01*
X116330000Y-70500000D02*
X115830000Y-70500000D01*
X116330000Y-71500000D02*
X116330000Y-70500000D01*
%TO.C,C15*%
X82910000Y-66360000D02*
X82410000Y-66360000D01*
X82410000Y-66360000D02*
X82410000Y-65360000D01*
X82910000Y-65360000D02*
X82910000Y-66360000D01*
X82410000Y-65360000D02*
X82910000Y-65360000D01*
D11*
%TO.C,JP6*%
X90966666Y-95250000D02*
X91566666Y-95250000D01*
X92266666Y-95950000D02*
X92266666Y-97350000D01*
X91566666Y-98050000D02*
X90966666Y-98050000D01*
X90266666Y-97350000D02*
X90266666Y-95950000D01*
X92266666Y-95950000D02*
G75*
G03*
X91566666Y-95250000I-699999J1D01*
G01*
X90266666Y-97350000D02*
G75*
G03*
X90966666Y-98050000I699999J-1D01*
G01*
X90966666Y-95250000D02*
G75*
G03*
X90266666Y-95950000I-1J-699999D01*
G01*
X91566666Y-98050000D02*
G75*
G03*
X92266666Y-97350000I1J699999D01*
G01*
D12*
%TO.C,C4*%
X104740000Y-75350000D02*
X104740000Y-75850000D01*
X103740000Y-75850000D02*
X103740000Y-75350000D01*
X103740000Y-75350000D02*
X104740000Y-75350000D01*
X104740000Y-75850000D02*
X103740000Y-75850000D01*
D13*
%TO.C,Y1*%
X77110000Y-84450000D02*
X78710000Y-84450000D01*
X78710000Y-84450000D02*
X78710000Y-86450000D01*
X78710000Y-86450000D02*
X77110000Y-86450000D01*
X77110000Y-86450000D02*
X77110000Y-84450000D01*
D14*
X77319903Y-84000000D02*
G75*
G03*
X77319903Y-84000000I-149903J0D01*
G01*
D12*
%TO.C,R9*%
X70950000Y-86620000D02*
X70950000Y-87120000D01*
X71950000Y-87120000D02*
X71950000Y-86620000D01*
X70950000Y-87120000D02*
X71950000Y-87120000D01*
X71950000Y-86620000D02*
X70950000Y-86620000D01*
D11*
%TO.C,JP7*%
X88553333Y-95950000D02*
X88553333Y-97350000D01*
X86553333Y-97350000D02*
X86553333Y-95950000D01*
X87853333Y-98050000D02*
X87253333Y-98050000D01*
X87253333Y-95250000D02*
X87853333Y-95250000D01*
X86553333Y-97350000D02*
G75*
G03*
X87253333Y-98050000I699999J-1D01*
G01*
X88553333Y-95950000D02*
G75*
G03*
X87853333Y-95250000I-699999J1D01*
G01*
X87253333Y-95250000D02*
G75*
G03*
X86553333Y-95950000I-1J-699999D01*
G01*
X87853333Y-98050000D02*
G75*
G03*
X88553333Y-97350000I1J699999D01*
G01*
%TO.C,TP9*%
X71550000Y-61430000D02*
G75*
G03*
X71550000Y-61430000I-950000J0D01*
G01*
%TO.C,JP3*%
X65820000Y-71463333D02*
X65820000Y-72063333D01*
X63020000Y-72063333D02*
X63020000Y-71463333D01*
X63720000Y-70763333D02*
X65120000Y-70763333D01*
X65120000Y-72763333D02*
X63720000Y-72763333D01*
X65120000Y-72763333D02*
G75*
G03*
X65820000Y-72063333I1J699999D01*
G01*
X63720000Y-70763333D02*
G75*
G03*
X63020000Y-71463333I-1J-699999D01*
G01*
X65820000Y-71463333D02*
G75*
G03*
X65120000Y-70763333I-699999J1D01*
G01*
X63020000Y-72063333D02*
G75*
G03*
X63720000Y-72763333I699999J-1D01*
G01*
D12*
%TO.C,R3*%
X73290000Y-65576666D02*
X73290000Y-66076666D01*
X74290000Y-65576666D02*
X73290000Y-65576666D01*
X73290000Y-66076666D02*
X74290000Y-66076666D01*
X74290000Y-66076666D02*
X74290000Y-65576666D01*
D11*
%TO.C,TP14*%
X83560000Y-101700000D02*
G75*
G03*
X83560000Y-101700000I-950000J0D01*
G01*
D12*
%TO.C,C9*%
X95680000Y-65360000D02*
X96180000Y-65360000D01*
X95680000Y-66360000D02*
X95680000Y-65360000D01*
X96180000Y-66360000D02*
X95680000Y-66360000D01*
X96180000Y-65360000D02*
X96180000Y-66360000D01*
%TO.C,C12*%
X94240000Y-65340000D02*
X94740000Y-65340000D01*
X94740000Y-65340000D02*
X94740000Y-66340000D01*
X94740000Y-66340000D02*
X94240000Y-66340000D01*
X94240000Y-66340000D02*
X94240000Y-65340000D01*
%TO.C,R1*%
X99980000Y-79860000D02*
X99980000Y-80360000D01*
X99980000Y-80360000D02*
X100980000Y-80360000D01*
X100980000Y-80360000D02*
X100980000Y-79860000D01*
X100980000Y-79860000D02*
X99980000Y-79860000D01*
D11*
%TO.C,TP10*%
X99440000Y-71780000D02*
G75*
G03*
X99440000Y-71780000I-950000J0D01*
G01*
D12*
%TO.C,C2*%
X104350000Y-81210000D02*
X103350000Y-81210000D01*
X103350000Y-81210000D02*
X103350000Y-80710000D01*
X103350000Y-80710000D02*
X104350000Y-80710000D01*
X104350000Y-80710000D02*
X104350000Y-81210000D01*
%TO.C,C25*%
X114830000Y-85640000D02*
X113830000Y-85640000D01*
X114830000Y-85140000D02*
X114830000Y-85640000D01*
X113830000Y-85640000D02*
X113830000Y-85140000D01*
X113830000Y-85140000D02*
X114830000Y-85140000D01*
%TO.C,C20*%
X111020000Y-67280000D02*
X111020000Y-67780000D01*
X111020000Y-67780000D02*
X110020000Y-67780000D01*
X110020000Y-67780000D02*
X110020000Y-67280000D01*
X110020000Y-67280000D02*
X111020000Y-67280000D01*
D11*
%TO.C,JP4*%
X65820000Y-74076667D02*
X65820000Y-74676667D01*
X63720000Y-73376667D02*
X65120000Y-73376667D01*
X65120000Y-75376667D02*
X63720000Y-75376667D01*
X63020000Y-74676667D02*
X63020000Y-74076667D01*
X63720000Y-73376667D02*
G75*
G03*
X63020000Y-74076667I-1J-699999D01*
G01*
X65820000Y-74076667D02*
G75*
G03*
X65120000Y-73376667I-699999J1D01*
G01*
X65120000Y-75376667D02*
G75*
G03*
X65820000Y-74676667I1J699999D01*
G01*
X63020000Y-74676667D02*
G75*
G03*
X63720000Y-75376667I699999J-1D01*
G01*
D12*
%TO.C,C5*%
X103580000Y-64550000D02*
X104580000Y-64550000D01*
X104580000Y-65050000D02*
X103580000Y-65050000D01*
X104580000Y-64550000D02*
X104580000Y-65050000D01*
X103580000Y-65050000D02*
X103580000Y-64550000D01*
D11*
%TO.C,TP6*%
X74830000Y-61430000D02*
G75*
G03*
X74830000Y-61430000I-950000J0D01*
G01*
D12*
%TO.C,R13*%
X101150000Y-63200000D02*
X101150000Y-62700000D01*
X100150000Y-62700000D02*
X100150000Y-63200000D01*
X101150000Y-62700000D02*
X100150000Y-62700000D01*
X100150000Y-63200000D02*
X101150000Y-63200000D01*
D11*
%TO.C,TP18*%
X110250000Y-79200000D02*
G75*
G03*
X110250000Y-79200000I-950000J0D01*
G01*
D12*
%TO.C,C8*%
X78500000Y-82630000D02*
X78500000Y-83130000D01*
X77500000Y-82630000D02*
X78500000Y-82630000D01*
X77500000Y-83130000D02*
X77500000Y-82630000D01*
X78500000Y-83130000D02*
X77500000Y-83130000D01*
%TO.C,R11*%
X71950000Y-81872500D02*
X70950000Y-81872500D01*
X70950000Y-81872500D02*
X70950000Y-82372500D01*
X71950000Y-82372500D02*
X71950000Y-81872500D01*
X70950000Y-82372500D02*
X71950000Y-82372500D01*
D11*
%TO.C,TP11*%
X96400000Y-59300000D02*
G75*
G03*
X96400000Y-59300000I-950000J0D01*
G01*
%TO.C,TP2*%
X118130000Y-89880000D02*
G75*
G03*
X118130000Y-89880000I-950000J0D01*
G01*
%TO.C,TP17*%
X102860000Y-96810000D02*
G75*
G03*
X102860000Y-96810000I-950000J0D01*
G01*
%TO.C,TP1*%
X118010000Y-94720000D02*
G75*
G03*
X118010000Y-94720000I-950000J0D01*
G01*
%TO.C,TP12*%
X80720000Y-98320000D02*
G75*
G03*
X80720000Y-98320000I-950000J0D01*
G01*
D12*
%TO.C,C21*%
X113310000Y-90900000D02*
X113310000Y-89900000D01*
X113810000Y-90900000D02*
X113310000Y-90900000D01*
X113810000Y-89900000D02*
X113810000Y-90900000D01*
X113310000Y-89900000D02*
X113810000Y-89900000D01*
%TO.C,R15*%
X70950000Y-83955000D02*
X71950000Y-83955000D01*
X70950000Y-83455000D02*
X70950000Y-83955000D01*
X71950000Y-83955000D02*
X71950000Y-83455000D01*
X71950000Y-83455000D02*
X70950000Y-83455000D01*
D11*
%TO.C,TP20*%
X68200000Y-98260000D02*
G75*
G03*
X68200000Y-98260000I-950000J0D01*
G01*
D12*
%TO.C,R20*%
X114850000Y-86720000D02*
X113850000Y-86720000D01*
X113850000Y-87220000D02*
X114850000Y-87220000D01*
X114850000Y-87220000D02*
X114850000Y-86720000D01*
X113850000Y-86720000D02*
X113850000Y-87220000D01*
%TD*%
%LPC*%
D15*
%TO.C,IC3*%
X111370001Y-89165600D03*
X110420000Y-89165600D03*
X109469999Y-89165600D03*
X109469999Y-91454400D03*
X111370001Y-91454400D03*
%TD*%
%TO.C,IC4*%
X112040001Y-69985600D03*
X111090000Y-69985600D03*
X110139999Y-69985600D03*
X110139999Y-72274400D03*
X112040001Y-72274400D03*
%TD*%
D16*
%TO.C,TP24*%
X110160000Y-61190000D03*
%TD*%
%TO.C,TP23*%
X105660000Y-61190000D03*
%TD*%
%TO.C,TP22*%
X104490000Y-56400000D03*
%TD*%
%TO.C,TP21*%
X100220000Y-56340000D03*
%TD*%
D17*
%TO.C,J5*%
X63350000Y-94680000D03*
X63350000Y-92140000D03*
D18*
X63350000Y-89600000D03*
%TD*%
D19*
%TO.C,C22*%
X114500000Y-70350000D03*
X114500000Y-71650000D03*
%TD*%
D20*
%TO.C,J2*%
X82380000Y-48640000D03*
X82380000Y-53720000D03*
%TD*%
%TO.C,J1*%
X89290000Y-53720000D03*
X89290000Y-48640000D03*
%TD*%
D21*
%TO.C,R30*%
X102100000Y-67902000D03*
X103400000Y-67902000D03*
%TD*%
D22*
%TO.C,C7*%
X96100000Y-82510000D03*
X96100000Y-83810000D03*
%TD*%
D21*
%TO.C,C1*%
X103340000Y-92210000D03*
X104640000Y-92210000D03*
%TD*%
%TO.C,R6*%
X73140000Y-69040000D03*
X74440000Y-69040000D03*
%TD*%
D22*
%TO.C,R14*%
X80300000Y-84680000D03*
X80300000Y-85980000D03*
%TD*%
D21*
%TO.C,R5*%
X99490000Y-75880000D03*
X100790000Y-75880000D03*
%TD*%
%TO.C,C3*%
X73130000Y-72310000D03*
X74430000Y-72310000D03*
%TD*%
D23*
%TO.C,H2*%
X68364000Y-55924000D03*
%TD*%
D24*
%TO.C,JP2*%
X63770000Y-69150000D03*
D25*
X65070000Y-69150000D03*
%TD*%
D16*
%TO.C,TP15*%
X95040000Y-91100000D03*
%TD*%
%TO.C,TP4*%
X116760000Y-63400000D03*
%TD*%
D26*
%TO.C,R16*%
X72100000Y-80540000D03*
X70800000Y-80540000D03*
%TD*%
D21*
%TO.C,R29*%
X102100000Y-66400000D03*
X103400000Y-66400000D03*
%TD*%
D26*
%TO.C,R24*%
X103190000Y-88818000D03*
X101890000Y-88818000D03*
%TD*%
D16*
%TO.C,TP5*%
X75760000Y-75430000D03*
%TD*%
D23*
%TO.C,H1*%
X109730000Y-97290000D03*
%TD*%
D21*
%TO.C,R31*%
X102100000Y-69404000D03*
X103400000Y-69404000D03*
%TD*%
D22*
%TO.C,C6*%
X84120000Y-65190000D03*
X84120000Y-66490000D03*
%TD*%
D27*
%TO.C,J3*%
X85120000Y-104860000D03*
X82580000Y-104860000D03*
X80040000Y-104860000D03*
X77500000Y-104860000D03*
D28*
X74960000Y-104860000D03*
%TD*%
D26*
%TO.C,R10*%
X72100000Y-85287500D03*
X70800000Y-85287500D03*
%TD*%
D16*
%TO.C,TP16*%
X98030000Y-96770000D03*
%TD*%
D26*
%TO.C,R27*%
X103190000Y-84282000D03*
X101890000Y-84282000D03*
%TD*%
D21*
%TO.C,R4*%
X73140000Y-67433332D03*
X74440000Y-67433332D03*
%TD*%
%TO.C,R34*%
X102100000Y-73910000D03*
X103400000Y-73910000D03*
%TD*%
D28*
%TO.C,J4*%
X115890000Y-80745000D03*
D27*
X115890000Y-78205000D03*
%TD*%
D21*
%TO.C,R33*%
X102100000Y-72408000D03*
X103400000Y-72408000D03*
%TD*%
D16*
%TO.C,H6*%
X63060000Y-103550000D03*
%TD*%
D21*
%TO.C,R32*%
X102100000Y-70906000D03*
X103400000Y-70906000D03*
%TD*%
D16*
%TO.C,TP19*%
X109370000Y-75590000D03*
%TD*%
D26*
%TO.C,R25*%
X103190000Y-87306000D03*
X101890000Y-87306000D03*
%TD*%
D22*
%TO.C,C16*%
X82680000Y-82510000D03*
X82680000Y-83810000D03*
%TD*%
D16*
%TO.C,TP3*%
X116600000Y-74550000D03*
%TD*%
D21*
%TO.C,R22*%
X113970000Y-67510000D03*
X115270000Y-67510000D03*
%TD*%
D16*
%TO.C,H5*%
X62820000Y-49620000D03*
%TD*%
D29*
%TO.C,JP5*%
X94980000Y-96000000D03*
D30*
X94980000Y-97300000D03*
%TD*%
D16*
%TO.C,TP8*%
X80380000Y-61400000D03*
%TD*%
D31*
%TO.C,C18*%
X89320000Y-79680000D03*
X89320000Y-86080000D03*
%TD*%
D26*
%TO.C,R28*%
X103190000Y-82770000D03*
X101890000Y-82770000D03*
%TD*%
D24*
%TO.C,JP1*%
X63770000Y-66536667D03*
D25*
X65070000Y-66536667D03*
%TD*%
D21*
%TO.C,R2*%
X73140000Y-64220000D03*
X74440000Y-64220000D03*
%TD*%
D22*
%TO.C,C10*%
X84090000Y-82510000D03*
X84090000Y-83810000D03*
%TD*%
D26*
%TO.C,R26*%
X103190000Y-85794000D03*
X101890000Y-85794000D03*
%TD*%
%TO.C,C11*%
X78370000Y-87810000D03*
X77070000Y-87810000D03*
%TD*%
%TO.C,R23*%
X101890000Y-90330000D03*
X103190000Y-90330000D03*
%TD*%
D21*
%TO.C,R12*%
X100020000Y-61250000D03*
X101320000Y-61250000D03*
%TD*%
D29*
%TO.C,JP8*%
X83840000Y-96000000D03*
D30*
X83840000Y-97300000D03*
%TD*%
D22*
%TO.C,C14*%
X94690000Y-82480000D03*
X94690000Y-83780000D03*
%TD*%
D16*
%TO.C,H4*%
X115060000Y-103790000D03*
%TD*%
%TO.C,H3*%
X115420000Y-49500000D03*
%TD*%
%TO.C,TP7*%
X77130000Y-61400000D03*
%TD*%
D22*
%TO.C,R19*%
X115160000Y-89760000D03*
X115160000Y-91060000D03*
%TD*%
D16*
%TO.C,TP13*%
X79830000Y-101730000D03*
%TD*%
D26*
%TO.C,C26*%
X115270000Y-65980000D03*
X113970000Y-65980000D03*
%TD*%
D31*
%TO.C,C17*%
X89310000Y-62210000D03*
X89310000Y-68610000D03*
%TD*%
D26*
%TO.C,C19*%
X110520000Y-87050000D03*
X109220000Y-87050000D03*
%TD*%
D22*
%TO.C,R21*%
X116080000Y-70350000D03*
X116080000Y-71650000D03*
%TD*%
%TO.C,C15*%
X82660000Y-65210000D03*
X82660000Y-66510000D03*
%TD*%
D29*
%TO.C,JP6*%
X91266666Y-96000000D03*
D30*
X91266666Y-97300000D03*
%TD*%
D21*
%TO.C,C4*%
X103590000Y-75600000D03*
X104890000Y-75600000D03*
%TD*%
D32*
%TO.C,Y1*%
X77410000Y-84775000D03*
X77410000Y-86125000D03*
X78410000Y-86125000D03*
X78410000Y-84775000D03*
%TD*%
D26*
%TO.C,R9*%
X72100000Y-86870000D03*
X70800000Y-86870000D03*
%TD*%
D29*
%TO.C,JP7*%
X87553333Y-96000000D03*
D30*
X87553333Y-97300000D03*
%TD*%
D16*
%TO.C,TP9*%
X70600000Y-61430000D03*
%TD*%
D24*
%TO.C,JP3*%
X63770000Y-71763333D03*
D25*
X65070000Y-71763333D03*
%TD*%
D21*
%TO.C,R3*%
X73140000Y-65826666D03*
X74440000Y-65826666D03*
%TD*%
D16*
%TO.C,TP14*%
X82610000Y-101700000D03*
%TD*%
D22*
%TO.C,C9*%
X95930000Y-65210000D03*
X95930000Y-66510000D03*
%TD*%
%TO.C,C12*%
X94490000Y-65190000D03*
X94490000Y-66490000D03*
%TD*%
D21*
%TO.C,R1*%
X99830000Y-80110000D03*
X101130000Y-80110000D03*
%TD*%
D16*
%TO.C,TP10*%
X98490000Y-71780000D03*
%TD*%
D21*
%TO.C,C2*%
X103200000Y-80960000D03*
X104500000Y-80960000D03*
%TD*%
D26*
%TO.C,C25*%
X114980000Y-85390000D03*
X113680000Y-85390000D03*
%TD*%
%TO.C,C20*%
X111170000Y-67530000D03*
X109870000Y-67530000D03*
%TD*%
D24*
%TO.C,JP4*%
X63770000Y-74376667D03*
D25*
X65070000Y-74376667D03*
%TD*%
D21*
%TO.C,C5*%
X103430000Y-64800000D03*
X104730000Y-64800000D03*
%TD*%
D16*
%TO.C,TP6*%
X73880000Y-61430000D03*
%TD*%
D21*
%TO.C,R13*%
X100000000Y-62950000D03*
X101300000Y-62950000D03*
%TD*%
D16*
%TO.C,TP18*%
X109300000Y-79200000D03*
%TD*%
D21*
%TO.C,C8*%
X77350000Y-82880000D03*
X78650000Y-82880000D03*
%TD*%
D26*
%TO.C,R11*%
X72100000Y-82122500D03*
X70800000Y-82122500D03*
%TD*%
D16*
%TO.C,TP11*%
X95450000Y-59300000D03*
%TD*%
%TO.C,TP2*%
X117180000Y-89880000D03*
%TD*%
%TO.C,TP17*%
X101910000Y-96810000D03*
%TD*%
%TO.C,TP1*%
X117060000Y-94720000D03*
%TD*%
%TO.C,TP12*%
X79770000Y-98320000D03*
%TD*%
D19*
%TO.C,C21*%
X113560000Y-91050000D03*
X113560000Y-89750000D03*
%TD*%
D26*
%TO.C,R15*%
X72100000Y-83705000D03*
X70800000Y-83705000D03*
%TD*%
D16*
%TO.C,TP20*%
X67250000Y-98260000D03*
%TD*%
D21*
%TO.C,R20*%
X113700000Y-86970000D03*
X115000000Y-86970000D03*
%TD*%
M02*
