%TF.GenerationSoftware,KiCad,Pcbnew,(6.0.0-0)*%
%TF.CreationDate,2022-06-10T22:05:24-07:00*%
%TF.ProjectId,bitaxe,62697461-7865-42e6-9b69-6361645f7063,rev?*%
%TF.SameCoordinates,Original*%
%TF.FileFunction,Paste,Top*%
%TF.FilePolarity,Positive*%
%FSLAX46Y46*%
G04 Gerber Fmt 4.6, Leading zero omitted, Abs format (unit mm)*
G04 Created by KiCad (PCBNEW (6.0.0-0)) date 2022-06-10 22:05:24*
%MOMM*%
%LPD*%
G01*
G04 APERTURE LIST*
G04 Aperture macros list*
%AMRoundRect*
0 Rectangle with rounded corners*
0 $1 Rounding radius*
0 $2 $3 $4 $5 $6 $7 $8 $9 X,Y pos of 4 corners*
0 Add a 4 corners polygon primitive as box body*
4,1,4,$2,$3,$4,$5,$6,$7,$8,$9,$2,$3,0*
0 Add four circle primitives for the rounded corners*
1,1,$1+$1,$2,$3*
1,1,$1+$1,$4,$5*
1,1,$1+$1,$6,$7*
1,1,$1+$1,$8,$9*
0 Add four rect primitives between the rounded corners*
20,1,$1+$1,$2,$3,$4,$5,0*
20,1,$1+$1,$4,$5,$6,$7,0*
20,1,$1+$1,$6,$7,$8,$9,0*
20,1,$1+$1,$8,$9,$2,$3,0*%
G04 Aperture macros list end*
%ADD10C,0.750000*%
%ADD11R,0.558800X1.422400*%
%ADD12R,0.900000X0.700000*%
%ADD13R,0.700000X0.900000*%
%ADD14RoundRect,0.250000X1.025000X-0.875000X1.025000X0.875000X-1.025000X0.875000X-1.025000X-0.875000X0*%
%ADD15R,0.750000X0.700000*%
G04 APERTURE END LIST*
%TO.C,H6*%
D10*
X63435000Y-103550000D02*
G75*
G03*
X63435000Y-103550000I-375000J0D01*
G01*
%TO.C,H5*%
X63195000Y-49620000D02*
G75*
G03*
X63195000Y-49620000I-375000J0D01*
G01*
%TO.C,H4*%
X115435000Y-103790000D02*
G75*
G03*
X115435000Y-103790000I-375000J0D01*
G01*
%TO.C,H3*%
X115795000Y-49500000D02*
G75*
G03*
X115795000Y-49500000I-375000J0D01*
G01*
%TD*%
D11*
%TO.C,IC3*%
X111370001Y-89165600D03*
X110420000Y-89165600D03*
X109469999Y-89165600D03*
X109469999Y-91454400D03*
X111370001Y-91454400D03*
%TD*%
%TO.C,IC4*%
X112040001Y-69985600D03*
X111090000Y-69985600D03*
X110139999Y-69985600D03*
X110139999Y-72274400D03*
X112040001Y-72274400D03*
%TD*%
D12*
%TO.C,C22*%
X114500000Y-70350000D03*
X114500000Y-71650000D03*
%TD*%
D13*
%TO.C,R30*%
X102100000Y-67902000D03*
X103400000Y-67902000D03*
%TD*%
D12*
%TO.C,C7*%
X96100000Y-82510000D03*
X96100000Y-83810000D03*
%TD*%
D13*
%TO.C,C1*%
X103340000Y-92210000D03*
X104640000Y-92210000D03*
%TD*%
%TO.C,R6*%
X73140000Y-69040000D03*
X74440000Y-69040000D03*
%TD*%
D12*
%TO.C,R14*%
X80300000Y-84680000D03*
X80300000Y-85980000D03*
%TD*%
D13*
%TO.C,R5*%
X99490000Y-75880000D03*
X100790000Y-75880000D03*
%TD*%
%TO.C,C3*%
X73130000Y-72310000D03*
X74430000Y-72310000D03*
%TD*%
%TO.C,R16*%
X72100000Y-80540000D03*
X70800000Y-80540000D03*
%TD*%
%TO.C,R29*%
X102100000Y-66400000D03*
X103400000Y-66400000D03*
%TD*%
%TO.C,R24*%
X103190000Y-88818000D03*
X101890000Y-88818000D03*
%TD*%
%TO.C,R31*%
X102100000Y-69404000D03*
X103400000Y-69404000D03*
%TD*%
D12*
%TO.C,C6*%
X84120000Y-65190000D03*
X84120000Y-66490000D03*
%TD*%
D13*
%TO.C,R10*%
X72100000Y-85287500D03*
X70800000Y-85287500D03*
%TD*%
%TO.C,R27*%
X103190000Y-84282000D03*
X101890000Y-84282000D03*
%TD*%
%TO.C,R4*%
X73140000Y-67433332D03*
X74440000Y-67433332D03*
%TD*%
%TO.C,R34*%
X102100000Y-73910000D03*
X103400000Y-73910000D03*
%TD*%
%TO.C,R33*%
X102100000Y-72408000D03*
X103400000Y-72408000D03*
%TD*%
%TO.C,R32*%
X102100000Y-70906000D03*
X103400000Y-70906000D03*
%TD*%
%TO.C,R25*%
X103190000Y-87306000D03*
X101890000Y-87306000D03*
%TD*%
D12*
%TO.C,C16*%
X82680000Y-82510000D03*
X82680000Y-83810000D03*
%TD*%
D13*
%TO.C,R22*%
X113970000Y-67510000D03*
X115270000Y-67510000D03*
%TD*%
D14*
%TO.C,C18*%
X89320000Y-79680000D03*
X89320000Y-86080000D03*
%TD*%
D13*
%TO.C,R28*%
X103190000Y-82770000D03*
X101890000Y-82770000D03*
%TD*%
%TO.C,R2*%
X73140000Y-64220000D03*
X74440000Y-64220000D03*
%TD*%
D12*
%TO.C,C10*%
X84090000Y-82510000D03*
X84090000Y-83810000D03*
%TD*%
D13*
%TO.C,R26*%
X103190000Y-85794000D03*
X101890000Y-85794000D03*
%TD*%
%TO.C,C11*%
X78370000Y-87810000D03*
X77070000Y-87810000D03*
%TD*%
%TO.C,R23*%
X101890000Y-90330000D03*
X103190000Y-90330000D03*
%TD*%
%TO.C,R12*%
X100020000Y-61250000D03*
X101320000Y-61250000D03*
%TD*%
D12*
%TO.C,C14*%
X94690000Y-82480000D03*
X94690000Y-83780000D03*
%TD*%
%TO.C,R19*%
X115160000Y-89760000D03*
X115160000Y-91060000D03*
%TD*%
D13*
%TO.C,C26*%
X115270000Y-65980000D03*
X113970000Y-65980000D03*
%TD*%
D14*
%TO.C,C17*%
X89310000Y-62210000D03*
X89310000Y-68610000D03*
%TD*%
D13*
%TO.C,C19*%
X110520000Y-87050000D03*
X109220000Y-87050000D03*
%TD*%
D12*
%TO.C,R21*%
X116080000Y-70350000D03*
X116080000Y-71650000D03*
%TD*%
%TO.C,C15*%
X82660000Y-65210000D03*
X82660000Y-66510000D03*
%TD*%
D13*
%TO.C,C4*%
X103590000Y-75600000D03*
X104890000Y-75600000D03*
%TD*%
D15*
%TO.C,Y1*%
X77410000Y-84775000D03*
X77410000Y-86125000D03*
X78410000Y-86125000D03*
X78410000Y-84775000D03*
%TD*%
D13*
%TO.C,R9*%
X72100000Y-86870000D03*
X70800000Y-86870000D03*
%TD*%
%TO.C,R3*%
X73140000Y-65826666D03*
X74440000Y-65826666D03*
%TD*%
D12*
%TO.C,C9*%
X95930000Y-65210000D03*
X95930000Y-66510000D03*
%TD*%
%TO.C,C12*%
X94490000Y-65190000D03*
X94490000Y-66490000D03*
%TD*%
D13*
%TO.C,R1*%
X99830000Y-80110000D03*
X101130000Y-80110000D03*
%TD*%
%TO.C,C2*%
X103200000Y-80960000D03*
X104500000Y-80960000D03*
%TD*%
%TO.C,C25*%
X114980000Y-85390000D03*
X113680000Y-85390000D03*
%TD*%
%TO.C,C20*%
X111170000Y-67530000D03*
X109870000Y-67530000D03*
%TD*%
%TO.C,C5*%
X103430000Y-64800000D03*
X104730000Y-64800000D03*
%TD*%
%TO.C,R13*%
X100000000Y-62950000D03*
X101300000Y-62950000D03*
%TD*%
%TO.C,C8*%
X77350000Y-82880000D03*
X78650000Y-82880000D03*
%TD*%
%TO.C,R11*%
X72100000Y-82122500D03*
X70800000Y-82122500D03*
%TD*%
D12*
%TO.C,C21*%
X113560000Y-91050000D03*
X113560000Y-89750000D03*
%TD*%
D13*
%TO.C,R15*%
X72100000Y-83705000D03*
X70800000Y-83705000D03*
%TD*%
%TO.C,R20*%
X113700000Y-86970000D03*
X115000000Y-86970000D03*
%TD*%
M02*
