%TF.GenerationSoftware,KiCad,Pcbnew,7.0.6-0*%
%TF.CreationDate,2023-10-19T14:54:17-04:00*%
%TF.ProjectId,bitaxeUltra,62697461-7865-4556-9c74-72612e6b6963,rev?*%
%TF.SameCoordinates,Original*%
%TF.FileFunction,Legend,Bot*%
%TF.FilePolarity,Positive*%
%FSLAX46Y46*%
G04 Gerber Fmt 4.6, Leading zero omitted, Abs format (unit mm)*
G04 Created by KiCad (PCBNEW 7.0.6-0) date 2023-10-19 14:54:17*
%MOMM*%
%LPD*%
G01*
G04 APERTURE LIST*
G04 Aperture macros list*
%AMRoundRect*
0 Rectangle with rounded corners*
0 $1 Rounding radius*
0 $2 $3 $4 $5 $6 $7 $8 $9 X,Y pos of 4 corners*
0 Add a 4 corners polygon primitive as box body*
4,1,4,$2,$3,$4,$5,$6,$7,$8,$9,$2,$3,0*
0 Add four circle primitives for the rounded corners*
1,1,$1+$1,$2,$3*
1,1,$1+$1,$4,$5*
1,1,$1+$1,$6,$7*
1,1,$1+$1,$8,$9*
0 Add four rect primitives between the rounded corners*
20,1,$1+$1,$2,$3,$4,$5,0*
20,1,$1+$1,$4,$5,$6,$7,0*
20,1,$1+$1,$6,$7,$8,$9,0*
20,1,$1+$1,$8,$9,$2,$3,0*%
G04 Aperture macros list end*
%ADD10C,0.150000*%
%ADD11C,0.250000*%
%ADD12C,0.300000*%
%ADD13C,0.120000*%
%ADD14C,0.050000*%
%ADD15C,0.227485*%
%ADD16C,0.127000*%
%ADD17C,0.152400*%
%ADD18C,0.310000*%
%ADD19C,3.000000*%
%ADD20C,0.800000*%
%ADD21C,6.000000*%
%ADD22C,0.400000*%
%ADD23C,1.295400*%
%ADD24C,1.574800*%
%ADD25R,1.700000X1.700000*%
%ADD26O,1.700000X1.700000*%
%ADD27C,2.000000*%
%ADD28C,0.650000*%
%ADD29R,1.150000X0.600000*%
%ADD30R,1.150000X0.300000*%
%ADD31O,1.800000X1.000000*%
%ADD32O,2.100000X1.000000*%
%ADD33R,0.900000X1.500000*%
%ADD34R,1.500000X0.900000*%
%ADD35R,0.900000X0.900000*%
%ADD36C,0.990600*%
%ADD37C,0.787400*%
%ADD38RoundRect,0.250000X0.600000X0.750000X-0.600000X0.750000X-0.600000X-0.750000X0.600000X-0.750000X0*%
%ADD39O,1.700000X2.000000*%
%ADD40R,0.792000X0.221000*%
%ADD41R,4.277000X1.810000*%
%ADD42R,4.277000X4.530000*%
%ADD43RoundRect,0.250000X-0.550000X1.500000X-0.550000X-1.500000X0.550000X-1.500000X0.550000X1.500000X0*%
%ADD44O,2.704000X5.204000*%
%ADD45O,2.454000X4.704000*%
%ADD46R,0.508000X1.524000*%
%ADD47RoundRect,0.250000X-0.750000X0.600000X-0.750000X-0.600000X0.750000X-0.600000X0.750000X0.600000X0*%
%ADD48O,2.000000X1.700000*%
%ADD49O,5.204000X2.704000*%
%ADD50O,4.704000X2.454000*%
G04 APERTURE END LIST*
D10*
X85450000Y-95700000D02*
X125430000Y-95700000D01*
X125430000Y-135690000D01*
X85450000Y-135690000D01*
X85450000Y-95700000D01*
X117502319Y-140152046D02*
X117026128Y-139818713D01*
X117502319Y-139580618D02*
X116502319Y-139580618D01*
X116502319Y-139580618D02*
X116502319Y-139961570D01*
X116502319Y-139961570D02*
X116549938Y-140056808D01*
X116549938Y-140056808D02*
X116597557Y-140104427D01*
X116597557Y-140104427D02*
X116692795Y-140152046D01*
X116692795Y-140152046D02*
X116835652Y-140152046D01*
X116835652Y-140152046D02*
X116930890Y-140104427D01*
X116930890Y-140104427D02*
X116978509Y-140056808D01*
X116978509Y-140056808D02*
X117026128Y-139961570D01*
X117026128Y-139961570D02*
X117026128Y-139580618D01*
X117454700Y-140532999D02*
X117502319Y-140675856D01*
X117502319Y-140675856D02*
X117502319Y-140913951D01*
X117502319Y-140913951D02*
X117454700Y-141009189D01*
X117454700Y-141009189D02*
X117407080Y-141056808D01*
X117407080Y-141056808D02*
X117311842Y-141104427D01*
X117311842Y-141104427D02*
X117216604Y-141104427D01*
X117216604Y-141104427D02*
X117121366Y-141056808D01*
X117121366Y-141056808D02*
X117073747Y-141009189D01*
X117073747Y-141009189D02*
X117026128Y-140913951D01*
X117026128Y-140913951D02*
X116978509Y-140723475D01*
X116978509Y-140723475D02*
X116930890Y-140628237D01*
X116930890Y-140628237D02*
X116883271Y-140580618D01*
X116883271Y-140580618D02*
X116788033Y-140532999D01*
X116788033Y-140532999D02*
X116692795Y-140532999D01*
X116692795Y-140532999D02*
X116597557Y-140580618D01*
X116597557Y-140580618D02*
X116549938Y-140628237D01*
X116549938Y-140628237D02*
X116502319Y-140723475D01*
X116502319Y-140723475D02*
X116502319Y-140961570D01*
X116502319Y-140961570D02*
X116549938Y-141104427D01*
X116502319Y-141390142D02*
X116502319Y-141961570D01*
X117502319Y-141675856D02*
X116502319Y-141675856D01*
X91663819Y-138827523D02*
X91663819Y-138351333D01*
X91663819Y-138351333D02*
X92140009Y-138303714D01*
X92140009Y-138303714D02*
X92092390Y-138351333D01*
X92092390Y-138351333D02*
X92044771Y-138446571D01*
X92044771Y-138446571D02*
X92044771Y-138684666D01*
X92044771Y-138684666D02*
X92092390Y-138779904D01*
X92092390Y-138779904D02*
X92140009Y-138827523D01*
X92140009Y-138827523D02*
X92235247Y-138875142D01*
X92235247Y-138875142D02*
X92473342Y-138875142D01*
X92473342Y-138875142D02*
X92568580Y-138827523D01*
X92568580Y-138827523D02*
X92616200Y-138779904D01*
X92616200Y-138779904D02*
X92663819Y-138684666D01*
X92663819Y-138684666D02*
X92663819Y-138446571D01*
X92663819Y-138446571D02*
X92616200Y-138351333D01*
X92616200Y-138351333D02*
X92568580Y-138303714D01*
X91663819Y-139160857D02*
X92663819Y-139494190D01*
X92663819Y-139494190D02*
X91663819Y-139827523D01*
X109904819Y-140056809D02*
X109904819Y-139485381D01*
X109904819Y-139771095D02*
X108904819Y-139771095D01*
X108904819Y-139771095D02*
X109047676Y-139675857D01*
X109047676Y-139675857D02*
X109142914Y-139580619D01*
X109142914Y-139580619D02*
X109190533Y-139485381D01*
X108904819Y-140342524D02*
X109904819Y-140675857D01*
X109904819Y-140675857D02*
X108904819Y-141009190D01*
X109333390Y-141485381D02*
X109285771Y-141390143D01*
X109285771Y-141390143D02*
X109238152Y-141342524D01*
X109238152Y-141342524D02*
X109142914Y-141294905D01*
X109142914Y-141294905D02*
X109095295Y-141294905D01*
X109095295Y-141294905D02*
X109000057Y-141342524D01*
X109000057Y-141342524D02*
X108952438Y-141390143D01*
X108952438Y-141390143D02*
X108904819Y-141485381D01*
X108904819Y-141485381D02*
X108904819Y-141675857D01*
X108904819Y-141675857D02*
X108952438Y-141771095D01*
X108952438Y-141771095D02*
X109000057Y-141818714D01*
X109000057Y-141818714D02*
X109095295Y-141866333D01*
X109095295Y-141866333D02*
X109142914Y-141866333D01*
X109142914Y-141866333D02*
X109238152Y-141818714D01*
X109238152Y-141818714D02*
X109285771Y-141771095D01*
X109285771Y-141771095D02*
X109333390Y-141675857D01*
X109333390Y-141675857D02*
X109333390Y-141485381D01*
X109333390Y-141485381D02*
X109381009Y-141390143D01*
X109381009Y-141390143D02*
X109428628Y-141342524D01*
X109428628Y-141342524D02*
X109523866Y-141294905D01*
X109523866Y-141294905D02*
X109714342Y-141294905D01*
X109714342Y-141294905D02*
X109809580Y-141342524D01*
X109809580Y-141342524D02*
X109857200Y-141390143D01*
X109857200Y-141390143D02*
X109904819Y-141485381D01*
X109904819Y-141485381D02*
X109904819Y-141675857D01*
X109904819Y-141675857D02*
X109857200Y-141771095D01*
X109857200Y-141771095D02*
X109809580Y-141818714D01*
X109809580Y-141818714D02*
X109714342Y-141866333D01*
X109714342Y-141866333D02*
X109523866Y-141866333D01*
X109523866Y-141866333D02*
X109428628Y-141818714D01*
X109428628Y-141818714D02*
X109381009Y-141771095D01*
X109381009Y-141771095D02*
X109333390Y-141675857D01*
X106026190Y-110517200D02*
X106883332Y-111802914D01*
X104978570Y-110660057D02*
X104930951Y-110612438D01*
X104930951Y-110612438D02*
X104835713Y-110564819D01*
X104835713Y-110564819D02*
X104597618Y-110564819D01*
X104597618Y-110564819D02*
X104502380Y-110612438D01*
X104502380Y-110612438D02*
X104454761Y-110660057D01*
X104454761Y-110660057D02*
X104407142Y-110755295D01*
X104407142Y-110755295D02*
X104407142Y-110850533D01*
X104407142Y-110850533D02*
X104454761Y-110993390D01*
X104454761Y-110993390D02*
X105026189Y-111564819D01*
X105026189Y-111564819D02*
X104407142Y-111564819D01*
X103454761Y-111564819D02*
X104026189Y-111564819D01*
X103740475Y-111564819D02*
X103740475Y-110564819D01*
X103740475Y-110564819D02*
X103835713Y-110707676D01*
X103835713Y-110707676D02*
X103930951Y-110802914D01*
X103930951Y-110802914D02*
X104026189Y-110850533D01*
X103026189Y-111564819D02*
X103026189Y-110564819D01*
X103026189Y-110564819D02*
X102692856Y-111279104D01*
X102692856Y-111279104D02*
X102359523Y-110564819D01*
X102359523Y-110564819D02*
X102359523Y-111564819D01*
D11*
X108279523Y-110919857D02*
X108089047Y-110824619D01*
X108089047Y-110824619D02*
X107898571Y-110919857D01*
X107898571Y-110919857D02*
X107803333Y-111110333D01*
X107803333Y-111110333D02*
X107898571Y-111300809D01*
X107898571Y-111300809D02*
X108089047Y-111396047D01*
X108089047Y-111396047D02*
X108279523Y-111300809D01*
X108279523Y-111300809D02*
X108660475Y-110919857D01*
X108660475Y-110919857D02*
X108850952Y-110824619D01*
X108850952Y-110824619D02*
X109041428Y-110919857D01*
X109041428Y-110919857D02*
X109136666Y-111110333D01*
X109136666Y-111110333D02*
X109041428Y-111300809D01*
X109041428Y-111300809D02*
X108850952Y-111396047D01*
X108850952Y-111396047D02*
X108660475Y-111300809D01*
X108660475Y-111300809D02*
X108279523Y-110919857D01*
D12*
X82411203Y-59910828D02*
X83125489Y-59910828D01*
X83125489Y-59910828D02*
X83196917Y-60625114D01*
X83196917Y-60625114D02*
X83125489Y-60553685D01*
X83125489Y-60553685D02*
X82982632Y-60482257D01*
X82982632Y-60482257D02*
X82625489Y-60482257D01*
X82625489Y-60482257D02*
X82482632Y-60553685D01*
X82482632Y-60553685D02*
X82411203Y-60625114D01*
X82411203Y-60625114D02*
X82339774Y-60767971D01*
X82339774Y-60767971D02*
X82339774Y-61125114D01*
X82339774Y-61125114D02*
X82411203Y-61267971D01*
X82411203Y-61267971D02*
X82482632Y-61339400D01*
X82482632Y-61339400D02*
X82625489Y-61410828D01*
X82625489Y-61410828D02*
X82982632Y-61410828D01*
X82982632Y-61410828D02*
X83125489Y-61339400D01*
X83125489Y-61339400D02*
X83196917Y-61267971D01*
X81911203Y-59910828D02*
X81411203Y-61410828D01*
X81411203Y-61410828D02*
X80911203Y-59910828D01*
X93000679Y-89508114D02*
X92905441Y-89412876D01*
X92905441Y-89412876D02*
X92714965Y-89317638D01*
X92714965Y-89317638D02*
X92238774Y-89317638D01*
X92238774Y-89317638D02*
X92048298Y-89412876D01*
X92048298Y-89412876D02*
X91953060Y-89508114D01*
X91953060Y-89508114D02*
X91857822Y-89698590D01*
X91857822Y-89698590D02*
X91857822Y-89889066D01*
X91857822Y-89889066D02*
X91953060Y-90174780D01*
X91953060Y-90174780D02*
X93095917Y-91317638D01*
X93095917Y-91317638D02*
X91857822Y-91317638D01*
X90619727Y-89317638D02*
X90429250Y-89317638D01*
X90429250Y-89317638D02*
X90238774Y-89412876D01*
X90238774Y-89412876D02*
X90143536Y-89508114D01*
X90143536Y-89508114D02*
X90048298Y-89698590D01*
X90048298Y-89698590D02*
X89953060Y-90079542D01*
X89953060Y-90079542D02*
X89953060Y-90555733D01*
X89953060Y-90555733D02*
X90048298Y-90936685D01*
X90048298Y-90936685D02*
X90143536Y-91127161D01*
X90143536Y-91127161D02*
X90238774Y-91222400D01*
X90238774Y-91222400D02*
X90429250Y-91317638D01*
X90429250Y-91317638D02*
X90619727Y-91317638D01*
X90619727Y-91317638D02*
X90810203Y-91222400D01*
X90810203Y-91222400D02*
X90905441Y-91127161D01*
X90905441Y-91127161D02*
X91000679Y-90936685D01*
X91000679Y-90936685D02*
X91095917Y-90555733D01*
X91095917Y-90555733D02*
X91095917Y-90079542D01*
X91095917Y-90079542D02*
X91000679Y-89698590D01*
X91000679Y-89698590D02*
X90905441Y-89508114D01*
X90905441Y-89508114D02*
X90810203Y-89412876D01*
X90810203Y-89412876D02*
X90619727Y-89317638D01*
X89191155Y-89508114D02*
X89095917Y-89412876D01*
X89095917Y-89412876D02*
X88905441Y-89317638D01*
X88905441Y-89317638D02*
X88429250Y-89317638D01*
X88429250Y-89317638D02*
X88238774Y-89412876D01*
X88238774Y-89412876D02*
X88143536Y-89508114D01*
X88143536Y-89508114D02*
X88048298Y-89698590D01*
X88048298Y-89698590D02*
X88048298Y-89889066D01*
X88048298Y-89889066D02*
X88143536Y-90174780D01*
X88143536Y-90174780D02*
X89286393Y-91317638D01*
X89286393Y-91317638D02*
X88048298Y-91317638D01*
D10*
X112437319Y-140437762D02*
X111961128Y-140104429D01*
X112437319Y-139866334D02*
X111437319Y-139866334D01*
X111437319Y-139866334D02*
X111437319Y-140247286D01*
X111437319Y-140247286D02*
X111484938Y-140342524D01*
X111484938Y-140342524D02*
X111532557Y-140390143D01*
X111532557Y-140390143D02*
X111627795Y-140437762D01*
X111627795Y-140437762D02*
X111770652Y-140437762D01*
X111770652Y-140437762D02*
X111865890Y-140390143D01*
X111865890Y-140390143D02*
X111913509Y-140342524D01*
X111913509Y-140342524D02*
X111961128Y-140247286D01*
X111961128Y-140247286D02*
X111961128Y-139866334D01*
X111437319Y-140771096D02*
X112437319Y-141437762D01*
X111437319Y-141437762D02*
X112437319Y-140771096D01*
X112437319Y-141818715D02*
X111437319Y-141818715D01*
X97719819Y-136958238D02*
X96719819Y-136958238D01*
X96719819Y-136958238D02*
X96719819Y-137339190D01*
X96719819Y-137339190D02*
X96767438Y-137434428D01*
X96767438Y-137434428D02*
X96815057Y-137482047D01*
X96815057Y-137482047D02*
X96910295Y-137529666D01*
X96910295Y-137529666D02*
X97053152Y-137529666D01*
X97053152Y-137529666D02*
X97148390Y-137482047D01*
X97148390Y-137482047D02*
X97196009Y-137434428D01*
X97196009Y-137434428D02*
X97243628Y-137339190D01*
X97243628Y-137339190D02*
X97243628Y-136958238D01*
X96719819Y-137863000D02*
X97719819Y-138101095D01*
X97719819Y-138101095D02*
X97005533Y-138291571D01*
X97005533Y-138291571D02*
X97719819Y-138482047D01*
X97719819Y-138482047D02*
X96719819Y-138720143D01*
X97719819Y-139101095D02*
X96719819Y-139101095D01*
X96719819Y-139101095D02*
X97434104Y-139434428D01*
X97434104Y-139434428D02*
X96719819Y-139767761D01*
X96719819Y-139767761D02*
X97719819Y-139767761D01*
X119082438Y-139771095D02*
X119034819Y-139675857D01*
X119034819Y-139675857D02*
X119034819Y-139533000D01*
X119034819Y-139533000D02*
X119082438Y-139390143D01*
X119082438Y-139390143D02*
X119177676Y-139294905D01*
X119177676Y-139294905D02*
X119272914Y-139247286D01*
X119272914Y-139247286D02*
X119463390Y-139199667D01*
X119463390Y-139199667D02*
X119606247Y-139199667D01*
X119606247Y-139199667D02*
X119796723Y-139247286D01*
X119796723Y-139247286D02*
X119891961Y-139294905D01*
X119891961Y-139294905D02*
X119987200Y-139390143D01*
X119987200Y-139390143D02*
X120034819Y-139533000D01*
X120034819Y-139533000D02*
X120034819Y-139628238D01*
X120034819Y-139628238D02*
X119987200Y-139771095D01*
X119987200Y-139771095D02*
X119939580Y-139818714D01*
X119939580Y-139818714D02*
X119606247Y-139818714D01*
X119606247Y-139818714D02*
X119606247Y-139628238D01*
X120034819Y-140247286D02*
X119034819Y-140247286D01*
X119034819Y-140247286D02*
X120034819Y-140818714D01*
X120034819Y-140818714D02*
X119034819Y-140818714D01*
X120034819Y-141294905D02*
X119034819Y-141294905D01*
X119034819Y-141294905D02*
X119034819Y-141533000D01*
X119034819Y-141533000D02*
X119082438Y-141675857D01*
X119082438Y-141675857D02*
X119177676Y-141771095D01*
X119177676Y-141771095D02*
X119272914Y-141818714D01*
X119272914Y-141818714D02*
X119463390Y-141866333D01*
X119463390Y-141866333D02*
X119606247Y-141866333D01*
X119606247Y-141866333D02*
X119796723Y-141818714D01*
X119796723Y-141818714D02*
X119891961Y-141771095D01*
X119891961Y-141771095D02*
X119987200Y-141675857D01*
X119987200Y-141675857D02*
X120034819Y-141533000D01*
X120034819Y-141533000D02*
X120034819Y-141294905D01*
X113969819Y-139390143D02*
X113969819Y-139961571D01*
X114969819Y-139675857D02*
X113969819Y-139675857D01*
X113969819Y-140199667D02*
X114969819Y-140866333D01*
X113969819Y-140866333D02*
X114969819Y-140199667D01*
X113969819Y-141437762D02*
X113969819Y-141628238D01*
X113969819Y-141628238D02*
X114017438Y-141723476D01*
X114017438Y-141723476D02*
X114112676Y-141818714D01*
X114112676Y-141818714D02*
X114303152Y-141866333D01*
X114303152Y-141866333D02*
X114636485Y-141866333D01*
X114636485Y-141866333D02*
X114826961Y-141818714D01*
X114826961Y-141818714D02*
X114922200Y-141723476D01*
X114922200Y-141723476D02*
X114969819Y-141628238D01*
X114969819Y-141628238D02*
X114969819Y-141437762D01*
X114969819Y-141437762D02*
X114922200Y-141342524D01*
X114922200Y-141342524D02*
X114826961Y-141247286D01*
X114826961Y-141247286D02*
X114636485Y-141199667D01*
X114636485Y-141199667D02*
X114303152Y-141199667D01*
X114303152Y-141199667D02*
X114112676Y-141247286D01*
X114112676Y-141247286D02*
X114017438Y-141342524D01*
X114017438Y-141342524D02*
X113969819Y-141437762D01*
X94187319Y-137482047D02*
X94187319Y-138053475D01*
X95187319Y-137767761D02*
X94187319Y-137767761D01*
X94901604Y-138339190D02*
X94901604Y-138815380D01*
X95187319Y-138243952D02*
X94187319Y-138577285D01*
X94187319Y-138577285D02*
X95187319Y-138910618D01*
X95092080Y-139815380D02*
X95139700Y-139767761D01*
X95139700Y-139767761D02*
X95187319Y-139624904D01*
X95187319Y-139624904D02*
X95187319Y-139529666D01*
X95187319Y-139529666D02*
X95139700Y-139386809D01*
X95139700Y-139386809D02*
X95044461Y-139291571D01*
X95044461Y-139291571D02*
X94949223Y-139243952D01*
X94949223Y-139243952D02*
X94758747Y-139196333D01*
X94758747Y-139196333D02*
X94615890Y-139196333D01*
X94615890Y-139196333D02*
X94425414Y-139243952D01*
X94425414Y-139243952D02*
X94330176Y-139291571D01*
X94330176Y-139291571D02*
X94234938Y-139386809D01*
X94234938Y-139386809D02*
X94187319Y-139529666D01*
X94187319Y-139529666D02*
X94187319Y-139624904D01*
X94187319Y-139624904D02*
X94234938Y-139767761D01*
X94234938Y-139767761D02*
X94282557Y-139815380D01*
X89169938Y-137720143D02*
X89122319Y-137624905D01*
X89122319Y-137624905D02*
X89122319Y-137482048D01*
X89122319Y-137482048D02*
X89169938Y-137339191D01*
X89169938Y-137339191D02*
X89265176Y-137243953D01*
X89265176Y-137243953D02*
X89360414Y-137196334D01*
X89360414Y-137196334D02*
X89550890Y-137148715D01*
X89550890Y-137148715D02*
X89693747Y-137148715D01*
X89693747Y-137148715D02*
X89884223Y-137196334D01*
X89884223Y-137196334D02*
X89979461Y-137243953D01*
X89979461Y-137243953D02*
X90074700Y-137339191D01*
X90074700Y-137339191D02*
X90122319Y-137482048D01*
X90122319Y-137482048D02*
X90122319Y-137577286D01*
X90122319Y-137577286D02*
X90074700Y-137720143D01*
X90074700Y-137720143D02*
X90027080Y-137767762D01*
X90027080Y-137767762D02*
X89693747Y-137767762D01*
X89693747Y-137767762D02*
X89693747Y-137577286D01*
X90122319Y-138196334D02*
X89122319Y-138196334D01*
X89122319Y-138196334D02*
X90122319Y-138767762D01*
X90122319Y-138767762D02*
X89122319Y-138767762D01*
X90122319Y-139243953D02*
X89122319Y-139243953D01*
X89122319Y-139243953D02*
X89122319Y-139482048D01*
X89122319Y-139482048D02*
X89169938Y-139624905D01*
X89169938Y-139624905D02*
X89265176Y-139720143D01*
X89265176Y-139720143D02*
X89360414Y-139767762D01*
X89360414Y-139767762D02*
X89550890Y-139815381D01*
X89550890Y-139815381D02*
X89693747Y-139815381D01*
X89693747Y-139815381D02*
X89884223Y-139767762D01*
X89884223Y-139767762D02*
X89979461Y-139720143D01*
X89979461Y-139720143D02*
X90074700Y-139624905D01*
X90074700Y-139624905D02*
X90122319Y-139482048D01*
X90122319Y-139482048D02*
X90122319Y-139243953D01*
X81003333Y-75994819D02*
X81003333Y-76709104D01*
X81003333Y-76709104D02*
X81050952Y-76851961D01*
X81050952Y-76851961D02*
X81146190Y-76947200D01*
X81146190Y-76947200D02*
X81289047Y-76994819D01*
X81289047Y-76994819D02*
X81384285Y-76994819D01*
X80622380Y-75994819D02*
X79955714Y-75994819D01*
X79955714Y-75994819D02*
X80384285Y-76994819D01*
X105919523Y-55028819D02*
X105919523Y-55743104D01*
X105919523Y-55743104D02*
X105967142Y-55885961D01*
X105967142Y-55885961D02*
X106062380Y-55981200D01*
X106062380Y-55981200D02*
X106205237Y-56028819D01*
X106205237Y-56028819D02*
X106300475Y-56028819D01*
X104919523Y-56028819D02*
X105490951Y-56028819D01*
X105205237Y-56028819D02*
X105205237Y-55028819D01*
X105205237Y-55028819D02*
X105300475Y-55171676D01*
X105300475Y-55171676D02*
X105395713Y-55266914D01*
X105395713Y-55266914D02*
X105490951Y-55314533D01*
X104300475Y-55028819D02*
X104205237Y-55028819D01*
X104205237Y-55028819D02*
X104109999Y-55076438D01*
X104109999Y-55076438D02*
X104062380Y-55124057D01*
X104062380Y-55124057D02*
X104014761Y-55219295D01*
X104014761Y-55219295D02*
X103967142Y-55409771D01*
X103967142Y-55409771D02*
X103967142Y-55647866D01*
X103967142Y-55647866D02*
X104014761Y-55838342D01*
X104014761Y-55838342D02*
X104062380Y-55933580D01*
X104062380Y-55933580D02*
X104109999Y-55981200D01*
X104109999Y-55981200D02*
X104205237Y-56028819D01*
X104205237Y-56028819D02*
X104300475Y-56028819D01*
X104300475Y-56028819D02*
X104395713Y-55981200D01*
X104395713Y-55981200D02*
X104443332Y-55933580D01*
X104443332Y-55933580D02*
X104490951Y-55838342D01*
X104490951Y-55838342D02*
X104538570Y-55647866D01*
X104538570Y-55647866D02*
X104538570Y-55409771D01*
X104538570Y-55409771D02*
X104490951Y-55219295D01*
X104490951Y-55219295D02*
X104443332Y-55124057D01*
X104443332Y-55124057D02*
X104395713Y-55076438D01*
X104395713Y-55076438D02*
X104300475Y-55028819D01*
X106790857Y-137434580D02*
X106838476Y-137482200D01*
X106838476Y-137482200D02*
X106981333Y-137529819D01*
X106981333Y-137529819D02*
X107076571Y-137529819D01*
X107076571Y-137529819D02*
X107219428Y-137482200D01*
X107219428Y-137482200D02*
X107314666Y-137386961D01*
X107314666Y-137386961D02*
X107362285Y-137291723D01*
X107362285Y-137291723D02*
X107409904Y-137101247D01*
X107409904Y-137101247D02*
X107409904Y-136958390D01*
X107409904Y-136958390D02*
X107362285Y-136767914D01*
X107362285Y-136767914D02*
X107314666Y-136672676D01*
X107314666Y-136672676D02*
X107219428Y-136577438D01*
X107219428Y-136577438D02*
X107076571Y-136529819D01*
X107076571Y-136529819D02*
X106981333Y-136529819D01*
X106981333Y-136529819D02*
X106838476Y-136577438D01*
X106838476Y-136577438D02*
X106790857Y-136625057D01*
X106409904Y-136625057D02*
X106362285Y-136577438D01*
X106362285Y-136577438D02*
X106267047Y-136529819D01*
X106267047Y-136529819D02*
X106028952Y-136529819D01*
X106028952Y-136529819D02*
X105933714Y-136577438D01*
X105933714Y-136577438D02*
X105886095Y-136625057D01*
X105886095Y-136625057D02*
X105838476Y-136720295D01*
X105838476Y-136720295D02*
X105838476Y-136815533D01*
X105838476Y-136815533D02*
X105886095Y-136958390D01*
X105886095Y-136958390D02*
X106457523Y-137529819D01*
X106457523Y-137529819D02*
X105838476Y-137529819D01*
X105267047Y-136958390D02*
X105362285Y-136910771D01*
X105362285Y-136910771D02*
X105409904Y-136863152D01*
X105409904Y-136863152D02*
X105457523Y-136767914D01*
X105457523Y-136767914D02*
X105457523Y-136720295D01*
X105457523Y-136720295D02*
X105409904Y-136625057D01*
X105409904Y-136625057D02*
X105362285Y-136577438D01*
X105362285Y-136577438D02*
X105267047Y-136529819D01*
X105267047Y-136529819D02*
X105076571Y-136529819D01*
X105076571Y-136529819D02*
X104981333Y-136577438D01*
X104981333Y-136577438D02*
X104933714Y-136625057D01*
X104933714Y-136625057D02*
X104886095Y-136720295D01*
X104886095Y-136720295D02*
X104886095Y-136767914D01*
X104886095Y-136767914D02*
X104933714Y-136863152D01*
X104933714Y-136863152D02*
X104981333Y-136910771D01*
X104981333Y-136910771D02*
X105076571Y-136958390D01*
X105076571Y-136958390D02*
X105267047Y-136958390D01*
X105267047Y-136958390D02*
X105362285Y-137006009D01*
X105362285Y-137006009D02*
X105409904Y-137053628D01*
X105409904Y-137053628D02*
X105457523Y-137148866D01*
X105457523Y-137148866D02*
X105457523Y-137339342D01*
X105457523Y-137339342D02*
X105409904Y-137434580D01*
X105409904Y-137434580D02*
X105362285Y-137482200D01*
X105362285Y-137482200D02*
X105267047Y-137529819D01*
X105267047Y-137529819D02*
X105076571Y-137529819D01*
X105076571Y-137529819D02*
X104981333Y-137482200D01*
X104981333Y-137482200D02*
X104933714Y-137434580D01*
X104933714Y-137434580D02*
X104886095Y-137339342D01*
X104886095Y-137339342D02*
X104886095Y-137148866D01*
X104886095Y-137148866D02*
X104933714Y-137053628D01*
X104933714Y-137053628D02*
X104981333Y-137006009D01*
X104981333Y-137006009D02*
X105076571Y-136958390D01*
X91313333Y-70284819D02*
X91313333Y-70999104D01*
X91313333Y-70999104D02*
X91360952Y-71141961D01*
X91360952Y-71141961D02*
X91456190Y-71237200D01*
X91456190Y-71237200D02*
X91599047Y-71284819D01*
X91599047Y-71284819D02*
X91694285Y-71284819D01*
X90313333Y-71284819D02*
X90884761Y-71284819D01*
X90599047Y-71284819D02*
X90599047Y-70284819D01*
X90599047Y-70284819D02*
X90694285Y-70427676D01*
X90694285Y-70427676D02*
X90789523Y-70522914D01*
X90789523Y-70522914D02*
X90884761Y-70570533D01*
X131608381Y-107530819D02*
X131941714Y-107054628D01*
X132179809Y-107530819D02*
X132179809Y-106530819D01*
X132179809Y-106530819D02*
X131798857Y-106530819D01*
X131798857Y-106530819D02*
X131703619Y-106578438D01*
X131703619Y-106578438D02*
X131656000Y-106626057D01*
X131656000Y-106626057D02*
X131608381Y-106721295D01*
X131608381Y-106721295D02*
X131608381Y-106864152D01*
X131608381Y-106864152D02*
X131656000Y-106959390D01*
X131656000Y-106959390D02*
X131703619Y-107007009D01*
X131703619Y-107007009D02*
X131798857Y-107054628D01*
X131798857Y-107054628D02*
X132179809Y-107054628D01*
X131179809Y-107007009D02*
X130846476Y-107007009D01*
X130703619Y-107530819D02*
X131179809Y-107530819D01*
X131179809Y-107530819D02*
X131179809Y-106530819D01*
X131179809Y-106530819D02*
X130703619Y-106530819D01*
X130322666Y-107483200D02*
X130179809Y-107530819D01*
X130179809Y-107530819D02*
X129941714Y-107530819D01*
X129941714Y-107530819D02*
X129846476Y-107483200D01*
X129846476Y-107483200D02*
X129798857Y-107435580D01*
X129798857Y-107435580D02*
X129751238Y-107340342D01*
X129751238Y-107340342D02*
X129751238Y-107245104D01*
X129751238Y-107245104D02*
X129798857Y-107149866D01*
X129798857Y-107149866D02*
X129846476Y-107102247D01*
X129846476Y-107102247D02*
X129941714Y-107054628D01*
X129941714Y-107054628D02*
X130132190Y-107007009D01*
X130132190Y-107007009D02*
X130227428Y-106959390D01*
X130227428Y-106959390D02*
X130275047Y-106911771D01*
X130275047Y-106911771D02*
X130322666Y-106816533D01*
X130322666Y-106816533D02*
X130322666Y-106721295D01*
X130322666Y-106721295D02*
X130275047Y-106626057D01*
X130275047Y-106626057D02*
X130227428Y-106578438D01*
X130227428Y-106578438D02*
X130132190Y-106530819D01*
X130132190Y-106530819D02*
X129894095Y-106530819D01*
X129894095Y-106530819D02*
X129751238Y-106578438D01*
X129322666Y-107007009D02*
X128989333Y-107007009D01*
X128846476Y-107530819D02*
X129322666Y-107530819D01*
X129322666Y-107530819D02*
X129322666Y-106530819D01*
X129322666Y-106530819D02*
X128846476Y-106530819D01*
X128560761Y-106530819D02*
X127989333Y-106530819D01*
X128275047Y-107530819D02*
X128275047Y-106530819D01*
D12*
X79480012Y-63285233D02*
X78527632Y-63285233D01*
X79003822Y-63761423D02*
X79003822Y-62809042D01*
X85990012Y-63275233D02*
X85037632Y-63275233D01*
D10*
X83228333Y-126441819D02*
X83228333Y-127156104D01*
X83228333Y-127156104D02*
X83275952Y-127298961D01*
X83275952Y-127298961D02*
X83371190Y-127394200D01*
X83371190Y-127394200D02*
X83514047Y-127441819D01*
X83514047Y-127441819D02*
X83609285Y-127441819D01*
X82799761Y-126537057D02*
X82752142Y-126489438D01*
X82752142Y-126489438D02*
X82656904Y-126441819D01*
X82656904Y-126441819D02*
X82418809Y-126441819D01*
X82418809Y-126441819D02*
X82323571Y-126489438D01*
X82323571Y-126489438D02*
X82275952Y-126537057D01*
X82275952Y-126537057D02*
X82228333Y-126632295D01*
X82228333Y-126632295D02*
X82228333Y-126727533D01*
X82228333Y-126727533D02*
X82275952Y-126870390D01*
X82275952Y-126870390D02*
X82847380Y-127441819D01*
X82847380Y-127441819D02*
X82228333Y-127441819D01*
X131514142Y-115659009D02*
X131371285Y-115706628D01*
X131371285Y-115706628D02*
X131323666Y-115754247D01*
X131323666Y-115754247D02*
X131276047Y-115849485D01*
X131276047Y-115849485D02*
X131276047Y-115992342D01*
X131276047Y-115992342D02*
X131323666Y-116087580D01*
X131323666Y-116087580D02*
X131371285Y-116135200D01*
X131371285Y-116135200D02*
X131466523Y-116182819D01*
X131466523Y-116182819D02*
X131847475Y-116182819D01*
X131847475Y-116182819D02*
X131847475Y-115182819D01*
X131847475Y-115182819D02*
X131514142Y-115182819D01*
X131514142Y-115182819D02*
X131418904Y-115230438D01*
X131418904Y-115230438D02*
X131371285Y-115278057D01*
X131371285Y-115278057D02*
X131323666Y-115373295D01*
X131323666Y-115373295D02*
X131323666Y-115468533D01*
X131323666Y-115468533D02*
X131371285Y-115563771D01*
X131371285Y-115563771D02*
X131418904Y-115611390D01*
X131418904Y-115611390D02*
X131514142Y-115659009D01*
X131514142Y-115659009D02*
X131847475Y-115659009D01*
X130656999Y-115182819D02*
X130466523Y-115182819D01*
X130466523Y-115182819D02*
X130371285Y-115230438D01*
X130371285Y-115230438D02*
X130276047Y-115325676D01*
X130276047Y-115325676D02*
X130228428Y-115516152D01*
X130228428Y-115516152D02*
X130228428Y-115849485D01*
X130228428Y-115849485D02*
X130276047Y-116039961D01*
X130276047Y-116039961D02*
X130371285Y-116135200D01*
X130371285Y-116135200D02*
X130466523Y-116182819D01*
X130466523Y-116182819D02*
X130656999Y-116182819D01*
X130656999Y-116182819D02*
X130752237Y-116135200D01*
X130752237Y-116135200D02*
X130847475Y-116039961D01*
X130847475Y-116039961D02*
X130895094Y-115849485D01*
X130895094Y-115849485D02*
X130895094Y-115516152D01*
X130895094Y-115516152D02*
X130847475Y-115325676D01*
X130847475Y-115325676D02*
X130752237Y-115230438D01*
X130752237Y-115230438D02*
X130656999Y-115182819D01*
X129609380Y-115182819D02*
X129418904Y-115182819D01*
X129418904Y-115182819D02*
X129323666Y-115230438D01*
X129323666Y-115230438D02*
X129228428Y-115325676D01*
X129228428Y-115325676D02*
X129180809Y-115516152D01*
X129180809Y-115516152D02*
X129180809Y-115849485D01*
X129180809Y-115849485D02*
X129228428Y-116039961D01*
X129228428Y-116039961D02*
X129323666Y-116135200D01*
X129323666Y-116135200D02*
X129418904Y-116182819D01*
X129418904Y-116182819D02*
X129609380Y-116182819D01*
X129609380Y-116182819D02*
X129704618Y-116135200D01*
X129704618Y-116135200D02*
X129799856Y-116039961D01*
X129799856Y-116039961D02*
X129847475Y-115849485D01*
X129847475Y-115849485D02*
X129847475Y-115516152D01*
X129847475Y-115516152D02*
X129799856Y-115325676D01*
X129799856Y-115325676D02*
X129704618Y-115230438D01*
X129704618Y-115230438D02*
X129609380Y-115182819D01*
X128895094Y-115182819D02*
X128323666Y-115182819D01*
X128609380Y-116182819D02*
X128609380Y-115182819D01*
X97450333Y-60051819D02*
X97450333Y-60766104D01*
X97450333Y-60766104D02*
X97497952Y-60908961D01*
X97497952Y-60908961D02*
X97593190Y-61004200D01*
X97593190Y-61004200D02*
X97736047Y-61051819D01*
X97736047Y-61051819D02*
X97831285Y-61051819D01*
X96545571Y-60051819D02*
X96736047Y-60051819D01*
X96736047Y-60051819D02*
X96831285Y-60099438D01*
X96831285Y-60099438D02*
X96878904Y-60147057D01*
X96878904Y-60147057D02*
X96974142Y-60289914D01*
X96974142Y-60289914D02*
X97021761Y-60480390D01*
X97021761Y-60480390D02*
X97021761Y-60861342D01*
X97021761Y-60861342D02*
X96974142Y-60956580D01*
X96974142Y-60956580D02*
X96926523Y-61004200D01*
X96926523Y-61004200D02*
X96831285Y-61051819D01*
X96831285Y-61051819D02*
X96640809Y-61051819D01*
X96640809Y-61051819D02*
X96545571Y-61004200D01*
X96545571Y-61004200D02*
X96497952Y-60956580D01*
X96497952Y-60956580D02*
X96450333Y-60861342D01*
X96450333Y-60861342D02*
X96450333Y-60623247D01*
X96450333Y-60623247D02*
X96497952Y-60528009D01*
X96497952Y-60528009D02*
X96545571Y-60480390D01*
X96545571Y-60480390D02*
X96640809Y-60432771D01*
X96640809Y-60432771D02*
X96831285Y-60432771D01*
X96831285Y-60432771D02*
X96926523Y-60480390D01*
X96926523Y-60480390D02*
X96974142Y-60528009D01*
X96974142Y-60528009D02*
X97021761Y-60623247D01*
D13*
%TO.C,J4*%
X88198600Y-140193000D02*
X98663400Y-140193000D01*
X88198600Y-146289000D02*
X88198600Y-140193000D01*
X93861825Y-146289000D02*
X88198600Y-146289000D01*
X98663400Y-140193000D02*
X98663400Y-146289000D01*
X98663400Y-146289000D02*
X95540175Y-146289000D01*
%TO.C,J9*%
X87600000Y-59090000D02*
X84940000Y-59090000D01*
X87600000Y-51410000D02*
X87600000Y-59090000D01*
X87600000Y-51410000D02*
X84940000Y-51410000D01*
X87600000Y-50140000D02*
X87600000Y-48810000D01*
X87600000Y-48810000D02*
X86270000Y-48810000D01*
X84940000Y-51410000D02*
X84940000Y-59090000D01*
%TO.C,J7*%
X86870000Y-75210000D02*
X86870000Y-77870000D01*
X84270000Y-75210000D02*
X86870000Y-75210000D01*
X84270000Y-75210000D02*
X84270000Y-77870000D01*
X83000000Y-75210000D02*
X81670000Y-75210000D01*
X81670000Y-75210000D02*
X81670000Y-76540000D01*
X84270000Y-77870000D02*
X86870000Y-77870000D01*
%TO.C,J3*%
X120840000Y-142250000D02*
X120840000Y-144910000D01*
X110620000Y-142250000D02*
X120840000Y-142250000D01*
X110620000Y-142250000D02*
X110620000Y-144910000D01*
X109350000Y-142250000D02*
X108020000Y-142250000D01*
X108020000Y-142250000D02*
X108020000Y-143580000D01*
X110620000Y-144910000D02*
X120840000Y-144910000D01*
%TO.C,J8*%
X132148000Y-87786000D02*
X133298000Y-87786000D01*
X130048000Y-87786000D02*
X128248000Y-87786000D01*
X132148000Y-97126000D02*
X133298000Y-97126000D01*
X130048000Y-97126000D02*
X128248000Y-97126000D01*
%TO.C,U12*%
X113860000Y-81960000D02*
X113860000Y-80960000D01*
X114610000Y-81960000D02*
X113860000Y-81960000D01*
X113860000Y-63960000D02*
X113860000Y-64960000D01*
X114610000Y-63960000D02*
X113860000Y-63960000D01*
%TO.C,J5*%
X130035000Y-59000000D02*
X130035000Y-58365000D01*
X129400000Y-59000000D02*
X130035000Y-59000000D01*
%TO.C,J10*%
X106330000Y-54540000D02*
X98710000Y-54540000D01*
X106330000Y-48570000D02*
X106330000Y-54540000D01*
X106320000Y-48580000D02*
X106320000Y-49330000D01*
X104520000Y-48580000D02*
X106320000Y-48580000D01*
X102020000Y-48580000D02*
X103020000Y-48580000D01*
X98720000Y-49330000D02*
X98720000Y-48580000D01*
X98720000Y-48580000D02*
X100520000Y-48580000D01*
X98710000Y-54540000D02*
X98710000Y-48570000D01*
X98710000Y-48570000D02*
X106330000Y-48570000D01*
%TO.C,G\u002A\u002A\u002A*%
G36*
X108081377Y-81385519D02*
G01*
X108070959Y-81395937D01*
X108060541Y-81385519D01*
X108070959Y-81375100D01*
X108081377Y-81385519D01*
G37*
G36*
X108039704Y-81302172D02*
G01*
X108029286Y-81312590D01*
X108018867Y-81302172D01*
X108029286Y-81291753D01*
X108039704Y-81302172D01*
G37*
G36*
X108018867Y-81260498D02*
G01*
X108008449Y-81270917D01*
X107998030Y-81260498D01*
X108008449Y-81250080D01*
X108018867Y-81260498D01*
G37*
G36*
X107998030Y-81197988D02*
G01*
X107987612Y-81208406D01*
X107977194Y-81197988D01*
X107987612Y-81187570D01*
X107998030Y-81197988D01*
G37*
G36*
X107977194Y-81156314D02*
G01*
X107966775Y-81166733D01*
X107956357Y-81156314D01*
X107966775Y-81145896D01*
X107977194Y-81156314D01*
G37*
G36*
X108991249Y-89466705D02*
G01*
X108994509Y-89472973D01*
X108977358Y-89480597D01*
X108966327Y-89479093D01*
X108963467Y-89466705D01*
X108966521Y-89464212D01*
X108991249Y-89466705D01*
G37*
G36*
X108093000Y-81417711D02*
G01*
X108112633Y-81437611D01*
X108116514Y-81444988D01*
X108115092Y-81458447D01*
X108111429Y-81457510D01*
X108091796Y-81437611D01*
X108087915Y-81430233D01*
X108089336Y-81416774D01*
X108093000Y-81417711D01*
G37*
G36*
X101324920Y-77796387D02*
G01*
X101715469Y-78186936D01*
X101330341Y-78572486D01*
X101233470Y-78669116D01*
X101138826Y-78762788D01*
X101057612Y-78842393D01*
X100993810Y-78904055D01*
X100951402Y-78943895D01*
X100934372Y-78958037D01*
X100919328Y-78945697D01*
X100878503Y-78907464D01*
X100816016Y-78847149D01*
X100735849Y-78768630D01*
X100641984Y-78675783D01*
X100538403Y-78572486D01*
X100153274Y-78186936D01*
X100543823Y-77796387D01*
X100934372Y-77405838D01*
X101324920Y-77796387D01*
G37*
G36*
X97442657Y-78345391D02*
G01*
X97502483Y-78511923D01*
X97619869Y-78783578D01*
X97749792Y-79020605D01*
X97891311Y-79221743D01*
X98043487Y-79385733D01*
X98205380Y-79511312D01*
X98376051Y-79597223D01*
X98406352Y-79606273D01*
X98486184Y-79621666D01*
X98588628Y-79634618D01*
X98701468Y-79643396D01*
X98937719Y-79656068D01*
X99123412Y-79978579D01*
X99176934Y-80072222D01*
X99229756Y-80166196D01*
X99271615Y-80242401D01*
X99299177Y-80294755D01*
X99309105Y-80317177D01*
X99302349Y-80320444D01*
X99261801Y-80325525D01*
X99190758Y-80329589D01*
X99096299Y-80332286D01*
X98985501Y-80333263D01*
X98661898Y-80333263D01*
X98667741Y-81890810D01*
X98668751Y-82156763D01*
X98669803Y-82413267D01*
X98670877Y-82633687D01*
X98672064Y-82820956D01*
X98673456Y-82978007D01*
X98675141Y-83107772D01*
X98677213Y-83213184D01*
X98679760Y-83297176D01*
X98682875Y-83362680D01*
X98686647Y-83412630D01*
X98691169Y-83449958D01*
X98696530Y-83477596D01*
X98702821Y-83498478D01*
X98710134Y-83515537D01*
X98718559Y-83531704D01*
X98751482Y-83585060D01*
X98839027Y-83685089D01*
X98940170Y-83757073D01*
X98998389Y-83787128D01*
X98907280Y-83840522D01*
X98809460Y-83919849D01*
X98732072Y-84027462D01*
X98684823Y-84150681D01*
X98683286Y-84160517D01*
X98679519Y-84214101D01*
X98676092Y-84306604D01*
X98673029Y-84436040D01*
X98670356Y-84600420D01*
X98668096Y-84797758D01*
X98666273Y-85026066D01*
X98664913Y-85283358D01*
X98664039Y-85567645D01*
X98663675Y-85876941D01*
X98663166Y-87513727D01*
X98232325Y-87914734D01*
X97801485Y-88315741D01*
X97767081Y-88225106D01*
X97736985Y-88159269D01*
X97667563Y-88043350D01*
X97572671Y-87910898D01*
X97456754Y-87767324D01*
X97324256Y-87618043D01*
X97179622Y-87468468D01*
X97027295Y-87324012D01*
X96973449Y-87274174D01*
X96891804Y-87194567D01*
X96817169Y-87117318D01*
X96752271Y-87045892D01*
X96699838Y-86983756D01*
X96662599Y-86934377D01*
X96643281Y-86901220D01*
X96644613Y-86887752D01*
X96669323Y-86897439D01*
X96720139Y-86933747D01*
X96789061Y-86984606D01*
X96859149Y-87024015D01*
X96926645Y-87043449D01*
X97005832Y-87048650D01*
X97021847Y-87048293D01*
X97131979Y-87028927D01*
X97235066Y-86984857D01*
X97314562Y-86922826D01*
X97316379Y-86920732D01*
X97323468Y-86909896D01*
X97329509Y-86893740D01*
X97334568Y-86869235D01*
X97338713Y-86833351D01*
X97342009Y-86783059D01*
X97344524Y-86715329D01*
X97346323Y-86627133D01*
X97347473Y-86515440D01*
X97348041Y-86377221D01*
X97348093Y-86209447D01*
X97347695Y-86009088D01*
X97346914Y-85773116D01*
X97345817Y-85498500D01*
X97340032Y-84115133D01*
X97280556Y-84013946D01*
X97223387Y-83936665D01*
X97117624Y-83848447D01*
X97014168Y-83784135D01*
X97084863Y-83747867D01*
X97150062Y-83704554D01*
X97227251Y-83630483D01*
X97290593Y-83546150D01*
X97328111Y-83465459D01*
X97330098Y-83455002D01*
X97334796Y-83399207D01*
X97338879Y-83302001D01*
X97342346Y-83163570D01*
X97345193Y-82984101D01*
X97347418Y-82763779D01*
X97349018Y-82502789D01*
X97349991Y-82201320D01*
X97350334Y-81859555D01*
X97350450Y-80333263D01*
X97198002Y-80333263D01*
X97045554Y-80333263D01*
X96772368Y-79994666D01*
X96499182Y-79656068D01*
X96924816Y-79650436D01*
X97350450Y-79644804D01*
X97350719Y-78858640D01*
X97350987Y-78072475D01*
X97442657Y-78345391D01*
G37*
G36*
X101365379Y-79635597D02*
G01*
X101390868Y-79673431D01*
X101434966Y-79739258D01*
X101494904Y-79828937D01*
X101567917Y-79938327D01*
X101651237Y-80063286D01*
X101742097Y-80199674D01*
X102117963Y-80764117D01*
X102067708Y-80828331D01*
X102022958Y-80874954D01*
X101933598Y-80942433D01*
X101824475Y-81005120D01*
X101707885Y-81055258D01*
X101601148Y-81093167D01*
X101601148Y-82234967D01*
X101601141Y-82402956D01*
X101601254Y-82634818D01*
X101601809Y-82830685D01*
X101603140Y-82994028D01*
X101605580Y-83128316D01*
X101609462Y-83237019D01*
X101615120Y-83323608D01*
X101622887Y-83391551D01*
X101633095Y-83444319D01*
X101646079Y-83485381D01*
X101662172Y-83518207D01*
X101681706Y-83546267D01*
X101705016Y-83573031D01*
X101732434Y-83601968D01*
X101746559Y-83616001D01*
X101811873Y-83668850D01*
X101877429Y-83708109D01*
X101955761Y-83743986D01*
X101871193Y-83782120D01*
X101865189Y-83784908D01*
X101771567Y-83847583D01*
X101688366Y-83935842D01*
X101629796Y-84034811D01*
X101627745Y-84040549D01*
X101622651Y-84064110D01*
X101618206Y-84101364D01*
X101614369Y-84154855D01*
X101611096Y-84227125D01*
X101608344Y-84320720D01*
X101606069Y-84438181D01*
X101604229Y-84582054D01*
X101602780Y-84754882D01*
X101601678Y-84959208D01*
X101600882Y-85197576D01*
X101600347Y-85472530D01*
X101600030Y-85786613D01*
X101598912Y-87469850D01*
X101178086Y-87869924D01*
X101164189Y-87883130D01*
X101055400Y-87986134D01*
X100956962Y-88078689D01*
X100872831Y-88157126D01*
X100806960Y-88217775D01*
X100763304Y-88256967D01*
X100745818Y-88271032D01*
X100743421Y-88270089D01*
X100727663Y-88245740D01*
X100707791Y-88198547D01*
X100691029Y-88157642D01*
X100643092Y-88068633D01*
X100573476Y-87965862D01*
X100480108Y-87846755D01*
X100360914Y-87708737D01*
X100213818Y-87549232D01*
X100036746Y-87365666D01*
X100032827Y-87361671D01*
X99886567Y-87211424D01*
X99766892Y-87086082D01*
X99674291Y-86986222D01*
X99609247Y-86912419D01*
X99572249Y-86865249D01*
X99563781Y-86845288D01*
X99584331Y-86853112D01*
X99634385Y-86889296D01*
X99651027Y-86902203D01*
X99711821Y-86947268D01*
X99757365Y-86974313D01*
X99801516Y-86990341D01*
X99858127Y-87002352D01*
X99913942Y-87007441D01*
X100022049Y-86995354D01*
X100125236Y-86959987D01*
X100206296Y-86906098D01*
X100267596Y-86847369D01*
X100267479Y-85491670D01*
X100267145Y-85188837D01*
X100266102Y-84904254D01*
X100264347Y-84660899D01*
X100261877Y-84458546D01*
X100258688Y-84296966D01*
X100254776Y-84175934D01*
X100250139Y-84095222D01*
X100244771Y-84054602D01*
X100219336Y-84000360D01*
X100173801Y-83935088D01*
X100116751Y-83868217D01*
X100056696Y-83808911D01*
X100002147Y-83766336D01*
X99961613Y-83749656D01*
X99951433Y-83748652D01*
X99949936Y-83738484D01*
X99986300Y-83715971D01*
X100080346Y-83651636D01*
X100167115Y-83563669D01*
X100228009Y-83469194D01*
X100228851Y-83467364D01*
X100236489Y-83448569D01*
X100243029Y-83426081D01*
X100248557Y-83396735D01*
X100253160Y-83357365D01*
X100256924Y-83304808D01*
X100259934Y-83235897D01*
X100262277Y-83147468D01*
X100264039Y-83036356D01*
X100265305Y-82899396D01*
X100266162Y-82733422D01*
X100266696Y-82535269D01*
X100266993Y-82301774D01*
X100267138Y-82029770D01*
X100267596Y-80673693D01*
X100213124Y-80644540D01*
X100206698Y-80640762D01*
X100160569Y-80604402D01*
X100101643Y-80548563D01*
X100040707Y-80484488D01*
X99988550Y-80423417D01*
X99955963Y-80376592D01*
X99952091Y-80366748D01*
X99957634Y-80354670D01*
X99984438Y-80347564D01*
X100039305Y-80344109D01*
X100129034Y-80342983D01*
X100134438Y-80342960D01*
X100235115Y-80340299D01*
X100311260Y-80331502D01*
X100379167Y-80313602D01*
X100455126Y-80283635D01*
X100573608Y-80225318D01*
X100751268Y-80116468D01*
X100941391Y-79977585D01*
X101138998Y-79812102D01*
X101164848Y-79789198D01*
X101239893Y-79723813D01*
X101301299Y-79671955D01*
X101343302Y-79638424D01*
X101360137Y-79628018D01*
X101365379Y-79635597D01*
G37*
G36*
X84811421Y-82330884D02*
G01*
X84817145Y-83472503D01*
X84880403Y-83575032D01*
X84939450Y-83652173D01*
X85052340Y-83742739D01*
X85161018Y-83807917D01*
X85095706Y-83834970D01*
X85033097Y-83867051D01*
X84931877Y-83953926D01*
X84856044Y-84072608D01*
X84807133Y-84177643D01*
X84806930Y-85620191D01*
X84806726Y-87062740D01*
X84864027Y-87076512D01*
X84994508Y-87126847D01*
X85113426Y-87212621D01*
X85210016Y-87326600D01*
X85279357Y-87462917D01*
X85316525Y-87615707D01*
X85329259Y-87719891D01*
X85288649Y-87646963D01*
X85257559Y-87595855D01*
X85185918Y-87512902D01*
X85102243Y-87463736D01*
X84998874Y-87442963D01*
X84886023Y-87444974D01*
X84769434Y-87466619D01*
X84766707Y-87467445D01*
X84719762Y-87483385D01*
X84641232Y-87511763D01*
X84535527Y-87550882D01*
X84407059Y-87599042D01*
X84260236Y-87654543D01*
X84099468Y-87715687D01*
X83929167Y-87780775D01*
X83753742Y-87848106D01*
X83577603Y-87915983D01*
X83405160Y-87982706D01*
X83240823Y-88046576D01*
X83089003Y-88105893D01*
X82954109Y-88158959D01*
X82840552Y-88204075D01*
X82752741Y-88239541D01*
X82695088Y-88263658D01*
X82672001Y-88274727D01*
X82646645Y-88289625D01*
X82613105Y-88288985D01*
X82598030Y-88265045D01*
X82597403Y-88257844D01*
X82581706Y-88207980D01*
X82548011Y-88132597D01*
X82500484Y-88039099D01*
X82443287Y-87934892D01*
X82380583Y-87827380D01*
X82316538Y-87723968D01*
X82255313Y-87632061D01*
X82201073Y-87559064D01*
X82123441Y-87468541D01*
X81918370Y-87271486D01*
X81689532Y-87103490D01*
X81442283Y-86967691D01*
X81181980Y-86867225D01*
X80913978Y-86805230D01*
X80753978Y-86780516D01*
X80741287Y-86010417D01*
X80740100Y-85939928D01*
X80736065Y-85730379D01*
X80731508Y-85556627D01*
X80725899Y-85414152D01*
X80718707Y-85298431D01*
X80709404Y-85204946D01*
X80697459Y-85129174D01*
X80682343Y-85066596D01*
X80663526Y-85012690D01*
X80640479Y-84962936D01*
X80612670Y-84912813D01*
X80610542Y-84909238D01*
X80544853Y-84826636D01*
X80458230Y-84752120D01*
X80368498Y-84701140D01*
X80363506Y-84697556D01*
X80382714Y-84695980D01*
X80431008Y-84700511D01*
X80532070Y-84724690D01*
X80649797Y-84771903D01*
X80764727Y-84834115D01*
X80860710Y-84903687D01*
X80888515Y-84930891D01*
X80944010Y-84992192D01*
X81013682Y-85074322D01*
X81091351Y-85169948D01*
X81170836Y-85271733D01*
X81224535Y-85340704D01*
X81308607Y-85444438D01*
X81389286Y-85539425D01*
X81459480Y-85617386D01*
X81512093Y-85670041D01*
X81552333Y-85704407D01*
X81704927Y-85809337D01*
X81870811Y-85889682D01*
X82039605Y-85941083D01*
X82200929Y-85959186D01*
X82295153Y-85959186D01*
X82217614Y-86011875D01*
X82216206Y-86012833D01*
X82169886Y-86046732D01*
X82134202Y-86081319D01*
X82107662Y-86122450D01*
X82088777Y-86175978D01*
X82076056Y-86247759D01*
X82068009Y-86343648D01*
X82063146Y-86469501D01*
X82059975Y-86631171D01*
X82059966Y-86631775D01*
X82058149Y-86782078D01*
X82058120Y-86895163D01*
X82060084Y-86975440D01*
X82064244Y-87027321D01*
X82070806Y-87055215D01*
X82079972Y-87063533D01*
X82080771Y-87063475D01*
X82109819Y-87055026D01*
X82171696Y-87033711D01*
X82260890Y-87001626D01*
X82371886Y-86960862D01*
X82499171Y-86913514D01*
X82637233Y-86861674D01*
X82780559Y-86807437D01*
X82923635Y-86752895D01*
X83060949Y-86700141D01*
X83186987Y-86651269D01*
X83296236Y-86608371D01*
X83383183Y-86573543D01*
X83442316Y-86548875D01*
X83468120Y-86536463D01*
X83470249Y-86533778D01*
X83475458Y-86515345D01*
X83479815Y-86478616D01*
X83483363Y-86420992D01*
X83486142Y-86339877D01*
X83488192Y-86232673D01*
X83489556Y-86096783D01*
X83490273Y-85929612D01*
X83490385Y-85728560D01*
X83489933Y-85491032D01*
X83488957Y-85214430D01*
X83483592Y-83912443D01*
X83335247Y-83874772D01*
X83284892Y-83860819D01*
X83073883Y-83777654D01*
X82863206Y-83655682D01*
X82656203Y-83497075D01*
X82456217Y-83304002D01*
X82443999Y-83290758D01*
X82384497Y-83224239D01*
X82306392Y-83134747D01*
X82215895Y-83029491D01*
X82119215Y-82915681D01*
X82022560Y-82800525D01*
X81901669Y-82657180D01*
X81739279Y-82471366D01*
X81594289Y-82315022D01*
X81463314Y-82185018D01*
X81342969Y-82078225D01*
X81229870Y-81991511D01*
X81120633Y-81921748D01*
X81011872Y-81865804D01*
X81004570Y-81862504D01*
X80893989Y-81819210D01*
X80776614Y-81783453D01*
X80667031Y-81759135D01*
X80579825Y-81750162D01*
X80508193Y-81750162D01*
X80546283Y-81724849D01*
X82057002Y-81724849D01*
X82057403Y-81777304D01*
X82066415Y-81990086D01*
X82089397Y-82174864D01*
X82129284Y-82341735D01*
X82189006Y-82500796D01*
X82271498Y-82662144D01*
X82379690Y-82835876D01*
X82406701Y-82875438D01*
X82540587Y-83048920D01*
X82692770Y-83215346D01*
X82856211Y-83368507D01*
X83023874Y-83502195D01*
X83188721Y-83610203D01*
X83343716Y-83686321D01*
X83390596Y-83704065D01*
X83444760Y-83722503D01*
X83473945Y-83729653D01*
X83476917Y-83719389D01*
X83480765Y-83670247D01*
X83484163Y-83581782D01*
X83487091Y-83455371D01*
X83489531Y-83292391D01*
X83491462Y-83094220D01*
X83492865Y-82862236D01*
X83493721Y-82597815D01*
X83494011Y-82302336D01*
X83493954Y-82153270D01*
X83493632Y-81920947D01*
X83493047Y-81703334D01*
X83492222Y-81503800D01*
X83491184Y-81325716D01*
X83489955Y-81172453D01*
X83488561Y-81047381D01*
X83487026Y-80953871D01*
X83485375Y-80895293D01*
X83483632Y-80875018D01*
X83481198Y-80875618D01*
X83449516Y-80886880D01*
X83385970Y-80910795D01*
X83295932Y-80945260D01*
X83184772Y-80988175D01*
X83057861Y-81037435D01*
X82920569Y-81090938D01*
X82778266Y-81146582D01*
X82636323Y-81202265D01*
X82500112Y-81255884D01*
X82375001Y-81305336D01*
X82266363Y-81348519D01*
X82179567Y-81383331D01*
X82119984Y-81407669D01*
X82092985Y-81419430D01*
X82083819Y-81425624D01*
X82071745Y-81443078D01*
X82063831Y-81474904D01*
X82059271Y-81527927D01*
X82057263Y-81608968D01*
X82057002Y-81724849D01*
X80546283Y-81724849D01*
X80578993Y-81703111D01*
X80598923Y-81687759D01*
X80653020Y-81630032D01*
X80696677Y-81563257D01*
X80707540Y-81540770D01*
X80723509Y-81499129D01*
X80733969Y-81451961D01*
X80740048Y-81390232D01*
X80742869Y-81304910D01*
X80743560Y-81186960D01*
X80743560Y-80903466D01*
X80632925Y-80868591D01*
X80548098Y-80833438D01*
X80428746Y-80749834D01*
X80332803Y-80637704D01*
X80265139Y-80503291D01*
X80230622Y-80352837D01*
X80218795Y-80239497D01*
X80265411Y-80329757D01*
X80328497Y-80416273D01*
X80422124Y-80489163D01*
X80529035Y-80530754D01*
X80559999Y-80533770D01*
X80636100Y-80528749D01*
X80723454Y-80511824D01*
X80733045Y-80509110D01*
X80785747Y-80491669D01*
X80869549Y-80461940D01*
X80980069Y-80421603D01*
X81112923Y-80372342D01*
X81263729Y-80315838D01*
X81428104Y-80253772D01*
X81601664Y-80187826D01*
X81780028Y-80119683D01*
X81958813Y-80051023D01*
X82133635Y-79983529D01*
X82300111Y-79918882D01*
X82453860Y-79858765D01*
X82590498Y-79804858D01*
X82705642Y-79758844D01*
X82794910Y-79722404D01*
X82853918Y-79697221D01*
X82878285Y-79684975D01*
X82904166Y-79668724D01*
X82938501Y-79676611D01*
X82961761Y-79722361D01*
X82965584Y-79734953D01*
X82986903Y-79789355D01*
X83020051Y-79863916D01*
X83059663Y-79946356D01*
X83085451Y-79996802D01*
X83248328Y-80267731D01*
X83435348Y-80504726D01*
X83646382Y-80707694D01*
X83881302Y-80876537D01*
X84139976Y-81011161D01*
X84422277Y-81111470D01*
X84728074Y-81177368D01*
X84805697Y-81189265D01*
X84811278Y-82302336D01*
X84811421Y-82330884D01*
G37*
G36*
X95735602Y-86184237D02*
G01*
X95735602Y-87044809D01*
X95860623Y-87095008D01*
X95919703Y-87122285D01*
X96044059Y-87210422D01*
X96139288Y-87328034D01*
X96204103Y-87473701D01*
X96224315Y-87545093D01*
X96239695Y-87611983D01*
X96245268Y-87654367D01*
X96243023Y-87677739D01*
X96233439Y-87674705D01*
X96211480Y-87636544D01*
X96183600Y-87589483D01*
X96100999Y-87495942D01*
X96002536Y-87437769D01*
X95892283Y-87417758D01*
X95844215Y-87422713D01*
X95769779Y-87437064D01*
X95688456Y-87457521D01*
X95686553Y-87458067D01*
X95637283Y-87474193D01*
X95556599Y-87502766D01*
X95448903Y-87542092D01*
X95318596Y-87590477D01*
X95170079Y-87646227D01*
X95007755Y-87707648D01*
X94836024Y-87773046D01*
X94659289Y-87840726D01*
X94481950Y-87908995D01*
X94308409Y-87976157D01*
X94143068Y-88040520D01*
X93990328Y-88100389D01*
X93854591Y-88154070D01*
X93740258Y-88199869D01*
X93651731Y-88236091D01*
X93593411Y-88261042D01*
X93569700Y-88273029D01*
X93555886Y-88285036D01*
X93539631Y-88287673D01*
X93522889Y-88268552D01*
X93501228Y-88221816D01*
X93470213Y-88141610D01*
X93446910Y-88083559D01*
X93355566Y-87898371D01*
X93239643Y-87710377D01*
X93107518Y-87533617D01*
X92988132Y-87389016D01*
X92544633Y-87846168D01*
X92500691Y-87891300D01*
X92392142Y-88001298D01*
X92295970Y-88096617D01*
X92215442Y-88174151D01*
X92153821Y-88230793D01*
X92114373Y-88263436D01*
X92100362Y-88268972D01*
X92099883Y-88263192D01*
X92083716Y-88212141D01*
X92048370Y-88138342D01*
X91998880Y-88050803D01*
X91940281Y-87958529D01*
X91877608Y-87870527D01*
X91846219Y-87832108D01*
X91784510Y-87761908D01*
X91702786Y-87672418D01*
X91606297Y-87569300D01*
X91500295Y-87458217D01*
X91390030Y-87344830D01*
X91351179Y-87305213D01*
X91218427Y-87168601D01*
X91114772Y-87059537D01*
X91039415Y-86977009D01*
X90991555Y-86920007D01*
X90970391Y-86887521D01*
X90975123Y-86878539D01*
X91004950Y-86892052D01*
X91059071Y-86927049D01*
X91111681Y-86960993D01*
X91173999Y-86995844D01*
X91218040Y-87014311D01*
X91243695Y-87019179D01*
X91343975Y-87017991D01*
X91452755Y-86992228D01*
X91553493Y-86945295D01*
X91651599Y-86884643D01*
X91656962Y-85544360D01*
X91657222Y-85474892D01*
X91657544Y-85334083D01*
X92974733Y-85334083D01*
X92974796Y-85490431D01*
X92975188Y-85747958D01*
X92975912Y-85991340D01*
X92976941Y-86217519D01*
X92978248Y-86423435D01*
X92979804Y-86606030D01*
X92981582Y-86762245D01*
X92983554Y-86889021D01*
X92985693Y-86983301D01*
X92987971Y-87042024D01*
X92990360Y-87062132D01*
X93008777Y-87055967D01*
X93062174Y-87036276D01*
X93145870Y-87004728D01*
X93255363Y-86963039D01*
X93386151Y-86912923D01*
X93533731Y-86856095D01*
X93693601Y-86794270D01*
X94381213Y-86527808D01*
X94386665Y-85697431D01*
X94387805Y-85525672D01*
X94388757Y-85338579D01*
X94388591Y-85184536D01*
X94386722Y-85058693D01*
X94382561Y-84956203D01*
X94375524Y-84872217D01*
X94365023Y-84801888D01*
X94350472Y-84740367D01*
X94331284Y-84682806D01*
X94306873Y-84624358D01*
X94276652Y-84560173D01*
X94240035Y-84485405D01*
X94200175Y-84408865D01*
X94077868Y-84217095D01*
X93935453Y-84045074D01*
X93777569Y-83896335D01*
X93608856Y-83774413D01*
X93433951Y-83682841D01*
X93257495Y-83625152D01*
X93084126Y-83604880D01*
X92974733Y-83604633D01*
X92974733Y-85334083D01*
X91657544Y-85334083D01*
X91657881Y-85186850D01*
X91657753Y-84929930D01*
X91656855Y-84705640D01*
X91655204Y-84515485D01*
X91652816Y-84360972D01*
X91649707Y-84243608D01*
X91645895Y-84164899D01*
X91641396Y-84126352D01*
X91636673Y-84110286D01*
X91582751Y-83999198D01*
X91500830Y-83902647D01*
X91401842Y-83833974D01*
X91304615Y-83786908D01*
X91385504Y-83750692D01*
X91442633Y-83717005D01*
X91525119Y-83643018D01*
X91594476Y-83553013D01*
X91637835Y-83461725D01*
X91640569Y-83449338D01*
X91645851Y-83401915D01*
X91650328Y-83324774D01*
X91654030Y-83216207D01*
X91656989Y-83074508D01*
X91659236Y-82897969D01*
X91660802Y-82684883D01*
X91661719Y-82433542D01*
X91662017Y-82142239D01*
X91662017Y-80903466D01*
X91551383Y-80868591D01*
X91466556Y-80833438D01*
X91347204Y-80749834D01*
X91251261Y-80637704D01*
X91183596Y-80503291D01*
X91149080Y-80352837D01*
X91137253Y-80239497D01*
X91183869Y-80329757D01*
X91247088Y-80416404D01*
X91340608Y-80489190D01*
X91447286Y-80530709D01*
X91472887Y-80533571D01*
X91550898Y-80528347D01*
X91645235Y-80508403D01*
X91659828Y-80503942D01*
X91717842Y-80484016D01*
X91807804Y-80451605D01*
X91924989Y-80408511D01*
X92064669Y-80356538D01*
X92222118Y-80297488D01*
X92392609Y-80233162D01*
X92571416Y-80165364D01*
X92753810Y-80095896D01*
X92935067Y-80026560D01*
X93110458Y-79959159D01*
X93275258Y-79895494D01*
X93424738Y-79837369D01*
X93554174Y-79786586D01*
X93658837Y-79744947D01*
X93734001Y-79714255D01*
X93774940Y-79696311D01*
X93805997Y-79681531D01*
X93845709Y-79669338D01*
X93866595Y-79681994D01*
X93880219Y-79722361D01*
X93897930Y-79773703D01*
X93934773Y-79857149D01*
X93984389Y-79957378D01*
X94041678Y-80064546D01*
X94101544Y-80168812D01*
X94158887Y-80260334D01*
X94167102Y-80272571D01*
X94309558Y-80454846D01*
X94481263Y-80629019D01*
X94672473Y-80786983D01*
X94873445Y-80920635D01*
X95074434Y-81021869D01*
X95176047Y-81059755D01*
X95328285Y-81106281D01*
X95491063Y-81146951D01*
X95647046Y-81177070D01*
X95725184Y-81189458D01*
X95725527Y-81339580D01*
X95728060Y-81402714D01*
X95753016Y-81527645D01*
X95806323Y-81626096D01*
X95890067Y-81702663D01*
X95960551Y-81750162D01*
X95879332Y-81750470D01*
X95832147Y-81753574D01*
X95750650Y-81764984D01*
X95666321Y-81781847D01*
X95658496Y-81783714D01*
X95535069Y-81820209D01*
X95420941Y-81869634D01*
X95311138Y-81935876D01*
X95200688Y-82022824D01*
X95084617Y-82134367D01*
X94957949Y-82274391D01*
X94815713Y-82446786D01*
X94772202Y-82500623D01*
X94642235Y-82651961D01*
X94525488Y-82770800D01*
X94417422Y-82860584D01*
X94313497Y-82924760D01*
X94209175Y-82966771D01*
X94099917Y-82990062D01*
X94006152Y-83002549D01*
X94068662Y-82967727D01*
X94104009Y-82946255D01*
X94212140Y-82854253D01*
X94290907Y-82742908D01*
X94307233Y-82709493D01*
X94329681Y-82654747D01*
X94348187Y-82594163D01*
X94363216Y-82523262D01*
X94375233Y-82437564D01*
X94384703Y-82332591D01*
X94392091Y-82203862D01*
X94397863Y-82046899D01*
X94402484Y-81857222D01*
X94406417Y-81630351D01*
X94408633Y-81458245D01*
X94409915Y-81299337D01*
X94410274Y-81158934D01*
X94409732Y-81041669D01*
X94408310Y-80952173D01*
X94406029Y-80895079D01*
X94402912Y-80875018D01*
X94401204Y-80875365D01*
X94371256Y-80885709D01*
X94309104Y-80908869D01*
X94220134Y-80942740D01*
X94109728Y-80985213D01*
X93983269Y-81034184D01*
X93846141Y-81087546D01*
X93703726Y-81143191D01*
X93561408Y-81199013D01*
X93424570Y-81252906D01*
X93298595Y-81302764D01*
X93188867Y-81346479D01*
X93100768Y-81381945D01*
X93039682Y-81407056D01*
X93010992Y-81419705D01*
X93010575Y-81419931D01*
X93002098Y-81426804D01*
X92995092Y-81439637D01*
X92989447Y-81462001D01*
X92985048Y-81497467D01*
X92981785Y-81549606D01*
X92979543Y-81621990D01*
X92978212Y-81718190D01*
X92977678Y-81841777D01*
X92977829Y-81996322D01*
X92978553Y-82185396D01*
X92979736Y-82412572D01*
X92985151Y-83385847D01*
X93172682Y-83398784D01*
X93277487Y-83409373D01*
X93394757Y-83431252D01*
X93509692Y-83465655D01*
X93626787Y-83515049D01*
X93750539Y-83581900D01*
X93885445Y-83668676D01*
X94036001Y-83777843D01*
X94206704Y-83911868D01*
X94402050Y-84073217D01*
X94553073Y-84198057D01*
X94748637Y-84351198D01*
X94926409Y-84477951D01*
X95092116Y-84581189D01*
X95251484Y-84663787D01*
X95410236Y-84728619D01*
X95574099Y-84778558D01*
X95748798Y-84816479D01*
X95940058Y-84845256D01*
X96040330Y-84857780D01*
X95953905Y-84951541D01*
X95906317Y-85010914D01*
X95848934Y-85097654D01*
X95801541Y-85184483D01*
X95735602Y-85323665D01*
X95735602Y-85338579D01*
X95735602Y-86184237D01*
G37*
G36*
X87196196Y-79673177D02*
G01*
X87223441Y-79709615D01*
X87269116Y-79774158D01*
X87330409Y-79862730D01*
X87404506Y-79971254D01*
X87488595Y-80095653D01*
X87579863Y-80231849D01*
X87587221Y-80242876D01*
X87689510Y-80396542D01*
X87770743Y-80519714D01*
X87833082Y-80616165D01*
X87878691Y-80689670D01*
X87909736Y-80744001D01*
X87928380Y-80782932D01*
X87936787Y-80810236D01*
X87937121Y-80829686D01*
X87931547Y-80845057D01*
X87893455Y-80892482D01*
X87825937Y-80950857D01*
X87740338Y-81011075D01*
X87647059Y-81065848D01*
X87556497Y-81107888D01*
X87432157Y-81156102D01*
X87432157Y-82317857D01*
X87432199Y-82464902D01*
X87432406Y-82672206D01*
X87432772Y-82863982D01*
X87433281Y-83036495D01*
X87433914Y-83186008D01*
X87434656Y-83308789D01*
X87435490Y-83401101D01*
X87436399Y-83459209D01*
X87437366Y-83479379D01*
X87437393Y-83479376D01*
X87457920Y-83471726D01*
X87512815Y-83450543D01*
X87597742Y-83417519D01*
X87708363Y-83374347D01*
X87840342Y-83322719D01*
X87989342Y-83264328D01*
X88151025Y-83200867D01*
X88859474Y-82922589D01*
X88851707Y-81835223D01*
X88843939Y-80747858D01*
X88666904Y-80570823D01*
X88664904Y-80568822D01*
X88597494Y-80500148D01*
X88543508Y-80442842D01*
X88508388Y-80402840D01*
X88497576Y-80386082D01*
X88506517Y-80384591D01*
X88546725Y-80387804D01*
X88606536Y-80397292D01*
X88678042Y-80405127D01*
X88827797Y-80392623D01*
X88992783Y-80345204D01*
X89170318Y-80264193D01*
X89357724Y-80150912D01*
X89552321Y-80006680D01*
X89751427Y-79832820D01*
X89824592Y-79766799D01*
X89886559Y-79715981D01*
X89931054Y-79685209D01*
X89952014Y-79679129D01*
X89953451Y-79680955D01*
X89972770Y-79708647D01*
X90010880Y-79764731D01*
X90064352Y-79844065D01*
X90129755Y-79941505D01*
X90203661Y-80051909D01*
X90282638Y-80170134D01*
X90363258Y-80291037D01*
X90442089Y-80409475D01*
X90515702Y-80520306D01*
X90580666Y-80618386D01*
X90633553Y-80698574D01*
X90670932Y-80755725D01*
X90689372Y-80784698D01*
X90692382Y-80804731D01*
X90670724Y-80848705D01*
X90621870Y-80902568D01*
X90552175Y-80961185D01*
X90467993Y-81019422D01*
X90375677Y-81072144D01*
X90281583Y-81114217D01*
X90182608Y-81151558D01*
X90182608Y-82305167D01*
X90182608Y-82330118D01*
X90182684Y-82575171D01*
X90182959Y-82782063D01*
X90183536Y-82954007D01*
X90184517Y-83094217D01*
X90186003Y-83205905D01*
X90188095Y-83292283D01*
X90190896Y-83356565D01*
X90194506Y-83401964D01*
X90199027Y-83431692D01*
X90204561Y-83448962D01*
X90211209Y-83456986D01*
X90219072Y-83458979D01*
X90247799Y-83462708D01*
X90320460Y-83488777D01*
X90402667Y-83533360D01*
X90481416Y-83588892D01*
X90543703Y-83647809D01*
X90551862Y-83657664D01*
X90614888Y-83756606D01*
X90662356Y-83871625D01*
X90665286Y-83881159D01*
X90692367Y-83977288D01*
X90703079Y-84035610D01*
X90697303Y-84056652D01*
X90674919Y-84040943D01*
X90635807Y-83989012D01*
X90589471Y-83928699D01*
X90507212Y-83857964D01*
X90412928Y-83821933D01*
X90300792Y-83818848D01*
X90164978Y-83846950D01*
X90147796Y-83852166D01*
X90082521Y-83874031D01*
X89994049Y-83905481D01*
X89889308Y-83943867D01*
X89775226Y-83986541D01*
X89658733Y-84030853D01*
X89546756Y-84074154D01*
X89446225Y-84113797D01*
X89364068Y-84147132D01*
X89307214Y-84171510D01*
X89282591Y-84184283D01*
X89283918Y-84192178D01*
X89310247Y-84221173D01*
X89361681Y-84265674D01*
X89432001Y-84321099D01*
X89514989Y-84382868D01*
X89604424Y-84446397D01*
X89694087Y-84507105D01*
X89777759Y-84560410D01*
X89849220Y-84601730D01*
X89854839Y-84604705D01*
X89952563Y-84650644D01*
X90058739Y-84692229D01*
X90151353Y-84720787D01*
X90155762Y-84721863D01*
X90231007Y-84740302D01*
X90291055Y-84755150D01*
X90323256Y-84763279D01*
X90326402Y-84766632D01*
X90331399Y-84785913D01*
X90335668Y-84824376D01*
X90339254Y-84884521D01*
X90342207Y-84968846D01*
X90344575Y-85079850D01*
X90346404Y-85220032D01*
X90347744Y-85391890D01*
X90348641Y-85597925D01*
X90349145Y-85840634D01*
X90349302Y-86122516D01*
X90349302Y-87474850D01*
X89916939Y-87882618D01*
X89893933Y-87904312D01*
X89784544Y-88007376D01*
X89686254Y-88099839D01*
X89602904Y-88178100D01*
X89538334Y-88238556D01*
X89496385Y-88277604D01*
X89480895Y-88291644D01*
X89473639Y-88279991D01*
X89453443Y-88239563D01*
X89425526Y-88180001D01*
X89417359Y-88162461D01*
X89373257Y-88077242D01*
X89320474Y-87991651D01*
X89255314Y-87901083D01*
X89174081Y-87800931D01*
X89073077Y-87686591D01*
X88948606Y-87553456D01*
X88796971Y-87396922D01*
X88795094Y-87395006D01*
X88647277Y-87243176D01*
X88528365Y-87118640D01*
X88437104Y-87019964D01*
X88372239Y-86945713D01*
X88332518Y-86894453D01*
X88316685Y-86864749D01*
X88323489Y-86855166D01*
X88347291Y-86867298D01*
X88382209Y-86899782D01*
X88405943Y-86922379D01*
X88484089Y-86971628D01*
X88576908Y-87007359D01*
X88665378Y-87021402D01*
X88736979Y-87015707D01*
X88832996Y-86985206D01*
X88937612Y-86924096D01*
X89015750Y-86870335D01*
X89015750Y-85579886D01*
X89015714Y-85349087D01*
X89015531Y-85118633D01*
X89015116Y-84924239D01*
X89014382Y-84762895D01*
X89013244Y-84631592D01*
X89011616Y-84527319D01*
X89009412Y-84447068D01*
X89006547Y-84387827D01*
X89002933Y-84346588D01*
X88998486Y-84320342D01*
X88993120Y-84306077D01*
X88986748Y-84300785D01*
X88979286Y-84301455D01*
X88961615Y-84307868D01*
X88907663Y-84328089D01*
X88823215Y-84360033D01*
X88713049Y-84401884D01*
X88581946Y-84451823D01*
X88434685Y-84508036D01*
X88276045Y-84568707D01*
X87609269Y-84823940D01*
X87598851Y-86157770D01*
X87588432Y-87491600D01*
X87162711Y-87889547D01*
X86736989Y-88287495D01*
X86659958Y-88134160D01*
X86632369Y-88081833D01*
X86583511Y-88000172D01*
X86524559Y-87914855D01*
X86452099Y-87821769D01*
X86362719Y-87716803D01*
X86253009Y-87595846D01*
X86119554Y-87454788D01*
X85958944Y-87289515D01*
X85864609Y-87192570D01*
X85771618Y-87095327D01*
X85692567Y-87010874D01*
X85631319Y-86943399D01*
X85591738Y-86897091D01*
X85577686Y-86876137D01*
X85580563Y-86871460D01*
X85604714Y-86879237D01*
X85645405Y-86908563D01*
X85655062Y-86916451D01*
X85718962Y-86960919D01*
X85780175Y-86993762D01*
X85806431Y-87003362D01*
X85919924Y-87020146D01*
X86038850Y-87005362D01*
X86149813Y-86961953D01*
X86239416Y-86892863D01*
X86286461Y-86841715D01*
X86281089Y-85573924D01*
X86275717Y-84306133D01*
X86181952Y-84275262D01*
X86120025Y-84251197D01*
X85991238Y-84173660D01*
X85887025Y-84070627D01*
X85812905Y-83948353D01*
X85774394Y-83813097D01*
X85771106Y-83789542D01*
X85760953Y-83723838D01*
X85752438Y-83677561D01*
X85753565Y-83669131D01*
X85768670Y-83687246D01*
X85795248Y-83732866D01*
X85814265Y-83765290D01*
X85859865Y-83828801D01*
X85902761Y-83873444D01*
X85920389Y-83886124D01*
X86003738Y-83926716D01*
X86095315Y-83948840D01*
X86175962Y-83947313D01*
X86198876Y-83940339D01*
X86256229Y-83920450D01*
X86339489Y-83890418D01*
X86442155Y-83852694D01*
X86557723Y-83809731D01*
X86679692Y-83763979D01*
X86801559Y-83717889D01*
X86916820Y-83673913D01*
X87018975Y-83634501D01*
X87101519Y-83602105D01*
X87157950Y-83579177D01*
X87181767Y-83568167D01*
X87176926Y-83556973D01*
X87147709Y-83525867D01*
X87100044Y-83483434D01*
X86979013Y-83383591D01*
X86825865Y-83262760D01*
X86693449Y-83166416D01*
X86576790Y-83091435D01*
X86470913Y-83034696D01*
X86370844Y-82993076D01*
X86271608Y-82963452D01*
X86125800Y-82927657D01*
X86114002Y-81825036D01*
X86111649Y-81609534D01*
X86109177Y-81400529D01*
X86106781Y-81226892D01*
X86104311Y-81085268D01*
X86101618Y-80972300D01*
X86098551Y-80884634D01*
X86094962Y-80818914D01*
X86090700Y-80771785D01*
X86085617Y-80739891D01*
X86079562Y-80719876D01*
X86072387Y-80708385D01*
X86063940Y-80702062D01*
X86039885Y-80685461D01*
X85988475Y-80640707D01*
X85927342Y-80581170D01*
X85866569Y-80517195D01*
X85816238Y-80459129D01*
X85786433Y-80417319D01*
X85774453Y-80393251D01*
X85776536Y-80378851D01*
X85810311Y-80387426D01*
X85842843Y-80394110D01*
X85909498Y-80399996D01*
X85986662Y-80401206D01*
X86096816Y-80388872D01*
X86257911Y-80342001D01*
X86431351Y-80262490D01*
X86612915Y-80152668D01*
X86798387Y-80014859D01*
X86983548Y-79851391D01*
X86994858Y-79840600D01*
X87067206Y-79772588D01*
X87127854Y-79717271D01*
X87170730Y-79680090D01*
X87189767Y-79666487D01*
X87196196Y-79673177D01*
G37*
G36*
X108041673Y-78758642D02*
G01*
X107898288Y-78881125D01*
X107847046Y-78925541D01*
X107740062Y-79020157D01*
X107642533Y-79108852D01*
X107560066Y-79186399D01*
X107498268Y-79247569D01*
X107462749Y-79287136D01*
X107451479Y-79301879D01*
X107430868Y-79329111D01*
X107412757Y-79355473D01*
X107396982Y-79383625D01*
X107383384Y-79416224D01*
X107371801Y-79455930D01*
X107362072Y-79505402D01*
X107354035Y-79567299D01*
X107347529Y-79644279D01*
X107342393Y-79739002D01*
X107338465Y-79854127D01*
X107335584Y-79992313D01*
X107333589Y-80156218D01*
X107332318Y-80348502D01*
X107331611Y-80571823D01*
X107331305Y-80828841D01*
X107331240Y-81122215D01*
X107331254Y-81454603D01*
X107331314Y-81682893D01*
X107331647Y-82000369D01*
X107332298Y-82279537D01*
X107333294Y-82522432D01*
X107334660Y-82731093D01*
X107336424Y-82907556D01*
X107338613Y-83053859D01*
X107341254Y-83172038D01*
X107344372Y-83264131D01*
X107347995Y-83332176D01*
X107352150Y-83378208D01*
X107356863Y-83404266D01*
X107368272Y-83435422D01*
X107425454Y-83530093D01*
X107508947Y-83619566D01*
X107607915Y-83693533D01*
X107711525Y-83741687D01*
X107765803Y-83760117D01*
X107813124Y-83779991D01*
X107831336Y-83793177D01*
X107815489Y-83805849D01*
X107770044Y-83827731D01*
X107705376Y-83853344D01*
X107591226Y-83906228D01*
X107472755Y-83997140D01*
X107387328Y-84113160D01*
X107383366Y-84120640D01*
X107373176Y-84141824D01*
X107364755Y-84165344D01*
X107357904Y-84195134D01*
X107352424Y-84235127D01*
X107348113Y-84289258D01*
X107344774Y-84361458D01*
X107342206Y-84455664D01*
X107340210Y-84575807D01*
X107338689Y-84716236D01*
X107338585Y-84725822D01*
X107337132Y-84909642D01*
X107335652Y-85131202D01*
X107329632Y-86063924D01*
X107439836Y-86053861D01*
X107561911Y-86043165D01*
X107678689Y-86034715D01*
X107776030Y-86030704D01*
X107865857Y-86030933D01*
X107960095Y-86035203D01*
X108070667Y-86043314D01*
X108375910Y-86083789D01*
X108669143Y-86157337D01*
X108935648Y-86262496D01*
X109175008Y-86398935D01*
X109386808Y-86566324D01*
X109570634Y-86764333D01*
X109726068Y-86992630D01*
X109852696Y-87250885D01*
X109950102Y-87538768D01*
X109969566Y-87613500D01*
X109985315Y-87687128D01*
X109995825Y-87760588D01*
X110002182Y-87844336D01*
X110005471Y-87948832D01*
X110006779Y-88084534D01*
X110007042Y-88171865D01*
X110006371Y-88278670D01*
X110003499Y-88358280D01*
X109997412Y-88419495D01*
X109987101Y-88471120D01*
X109971553Y-88521956D01*
X109949757Y-88580807D01*
X109947751Y-88586010D01*
X109842553Y-88811455D01*
X109713087Y-89009846D01*
X109562153Y-89178056D01*
X109392546Y-89312954D01*
X109207066Y-89411412D01*
X109164655Y-89428259D01*
X109095157Y-89451912D01*
X109059157Y-89458191D01*
X109058171Y-89448163D01*
X109093714Y-89422891D01*
X109167298Y-89383441D01*
X109313697Y-89293747D01*
X109462793Y-89165717D01*
X109591244Y-89016139D01*
X109688697Y-88855494D01*
X109757300Y-88694525D01*
X109804184Y-88533858D01*
X109830485Y-88363170D01*
X109839398Y-88167881D01*
X109839438Y-88157496D01*
X109829088Y-87952536D01*
X109795578Y-87776955D01*
X109736395Y-87624171D01*
X109649022Y-87487605D01*
X109530945Y-87360673D01*
X109512976Y-87344355D01*
X109365183Y-87233031D01*
X109203142Y-87151528D01*
X109021845Y-87098317D01*
X108816287Y-87071869D01*
X108581460Y-87070656D01*
X108557913Y-87071750D01*
X108376711Y-87086029D01*
X108206652Y-87111676D01*
X108038657Y-87151163D01*
X107863648Y-87206968D01*
X107672547Y-87281565D01*
X107456275Y-87377429D01*
X107405016Y-87400908D01*
X107306423Y-87445479D01*
X107178854Y-87502707D01*
X107027585Y-87570242D01*
X106857891Y-87645733D01*
X106675046Y-87726832D01*
X106484328Y-87811189D01*
X106291009Y-87896453D01*
X106205062Y-87934294D01*
X106009664Y-88020170D01*
X105847759Y-88090929D01*
X105716034Y-88147842D01*
X105611177Y-88192183D01*
X105529872Y-88225225D01*
X105468807Y-88248239D01*
X105424668Y-88262500D01*
X105394141Y-88269278D01*
X105373913Y-88269848D01*
X105360670Y-88265481D01*
X105351098Y-88257451D01*
X105346831Y-88252855D01*
X105314348Y-88217268D01*
X105261872Y-88159324D01*
X105195668Y-88085952D01*
X105122003Y-88004082D01*
X105109065Y-87989737D01*
X104892839Y-87764542D01*
X104666729Y-87554514D01*
X104435646Y-87363256D01*
X104204500Y-87194372D01*
X103978203Y-87051463D01*
X103761667Y-86938134D01*
X103559802Y-86857988D01*
X103483715Y-86836611D01*
X103382110Y-86813387D01*
X103275634Y-86793019D01*
X103179273Y-86778353D01*
X103108012Y-86772232D01*
X103104843Y-86759422D01*
X103121068Y-86721214D01*
X103154214Y-86666553D01*
X103183568Y-86619325D01*
X103222431Y-86545146D01*
X103246454Y-86484231D01*
X103250728Y-86448442D01*
X103254653Y-86371460D01*
X103258095Y-86254633D01*
X103261044Y-86098886D01*
X103263487Y-85905144D01*
X103265413Y-85674332D01*
X103266810Y-85407376D01*
X103267215Y-85264547D01*
X104580803Y-85264547D01*
X104580819Y-85395536D01*
X104581019Y-85709080D01*
X104581474Y-85983954D01*
X104582214Y-86222331D01*
X104583270Y-86426382D01*
X104584675Y-86598278D01*
X104586457Y-86740189D01*
X104588650Y-86854288D01*
X104591284Y-86942745D01*
X104594389Y-87007732D01*
X104597998Y-87051420D01*
X104602141Y-87075980D01*
X104606849Y-87083584D01*
X104626660Y-87077864D01*
X104680964Y-87059004D01*
X104763765Y-87029008D01*
X104869547Y-86989971D01*
X104992788Y-86943988D01*
X105127972Y-86893155D01*
X105269580Y-86839566D01*
X105412092Y-86785318D01*
X105549991Y-86732505D01*
X105677758Y-86683223D01*
X105789873Y-86639567D01*
X105880820Y-86603633D01*
X105945078Y-86577515D01*
X105977130Y-86563310D01*
X105984214Y-86558827D01*
X105990544Y-86551629D01*
X105996043Y-86539186D01*
X106000771Y-86518897D01*
X106004785Y-86488160D01*
X106008145Y-86444371D01*
X106010907Y-86384929D01*
X106013131Y-86307233D01*
X106014875Y-86208679D01*
X106016197Y-86086667D01*
X106017156Y-85938593D01*
X106017809Y-85761856D01*
X106018216Y-85553854D01*
X106018434Y-85311985D01*
X106018523Y-85033646D01*
X106018539Y-84716236D01*
X106018535Y-84587394D01*
X106018471Y-84285223D01*
X106018290Y-84021187D01*
X106017939Y-83792741D01*
X106017367Y-83597340D01*
X106016521Y-83432438D01*
X106015352Y-83295490D01*
X106013806Y-83183952D01*
X106011833Y-83095277D01*
X106009380Y-83026922D01*
X106006396Y-82976340D01*
X106002829Y-82940987D01*
X105998628Y-82918317D01*
X105993741Y-82905785D01*
X105988116Y-82900846D01*
X105981702Y-82900956D01*
X105960663Y-82908239D01*
X105903935Y-82929411D01*
X105817112Y-82962486D01*
X105704892Y-83005657D01*
X105571973Y-83057115D01*
X105423054Y-83115051D01*
X105262834Y-83177657D01*
X104580803Y-83444724D01*
X104580803Y-85264547D01*
X103267215Y-85264547D01*
X103267667Y-85105200D01*
X103267972Y-84768729D01*
X103268088Y-83130282D01*
X103133168Y-83042379D01*
X103017467Y-82958645D01*
X102894297Y-82838855D01*
X102807433Y-82707567D01*
X102753848Y-82559879D01*
X102730511Y-82390892D01*
X102729411Y-82367551D01*
X102727878Y-82277454D01*
X102732879Y-82225348D01*
X102744620Y-82208570D01*
X102759277Y-82218867D01*
X102768349Y-82255453D01*
X102780583Y-82312776D01*
X102818672Y-82387984D01*
X102873048Y-82458344D01*
X102933881Y-82508808D01*
X102976626Y-82530756D01*
X103022829Y-82545707D01*
X103074842Y-82551334D01*
X103137326Y-82546672D01*
X103214942Y-82530750D01*
X103312351Y-82502600D01*
X103434214Y-82461254D01*
X103585192Y-82405744D01*
X103769947Y-82335101D01*
X103793515Y-82325984D01*
X103934569Y-82271074D01*
X104062097Y-82220854D01*
X104171021Y-82177366D01*
X104256262Y-82142654D01*
X104312742Y-82118758D01*
X104335383Y-82107721D01*
X104333937Y-82104307D01*
X104306985Y-82082081D01*
X104250262Y-82042249D01*
X104167947Y-81987558D01*
X104064220Y-81920757D01*
X103943263Y-81844595D01*
X103809255Y-81761820D01*
X103268088Y-81430577D01*
X103268088Y-81361048D01*
X104584423Y-81361048D01*
X104584951Y-81536670D01*
X104586050Y-81680517D01*
X104587756Y-81795076D01*
X104590106Y-81882833D01*
X104593139Y-81946274D01*
X104596891Y-81987884D01*
X104601400Y-82010151D01*
X104606702Y-82015559D01*
X104751928Y-81959342D01*
X104875825Y-81909895D01*
X104971078Y-81869536D01*
X105043179Y-81835677D01*
X105097617Y-81805726D01*
X105139883Y-81777092D01*
X105175465Y-81747187D01*
X105262474Y-81666984D01*
X105361884Y-81828384D01*
X105405892Y-81897596D01*
X105511633Y-82052030D01*
X105630062Y-82212639D01*
X105750433Y-82365096D01*
X105861999Y-82495076D01*
X105882214Y-82517017D01*
X105935955Y-82572325D01*
X105977595Y-82610847D01*
X105999451Y-82625305D01*
X106001563Y-82615997D01*
X106004529Y-82568605D01*
X106007264Y-82482863D01*
X106009749Y-82360758D01*
X106011966Y-82204279D01*
X106013894Y-82015412D01*
X106015515Y-81796145D01*
X106016809Y-81548466D01*
X106017757Y-81274361D01*
X106018340Y-80975820D01*
X106018539Y-80654828D01*
X106018539Y-78684351D01*
X105974258Y-78698406D01*
X105955006Y-78705235D01*
X105899077Y-78725949D01*
X105812768Y-78758328D01*
X105700924Y-78800543D01*
X105568385Y-78850766D01*
X105419996Y-78907168D01*
X105260599Y-78967919D01*
X104591222Y-79223377D01*
X104585865Y-80624494D01*
X104584928Y-80904538D01*
X104584428Y-81151166D01*
X104584423Y-81361048D01*
X103268088Y-81361048D01*
X103268088Y-80178581D01*
X103268088Y-78926584D01*
X103064930Y-78830139D01*
X103024666Y-78810544D01*
X102823284Y-78695521D01*
X102655598Y-78568923D01*
X102523192Y-78432632D01*
X102427652Y-78288533D01*
X102370560Y-78138507D01*
X102353502Y-77984440D01*
X102355734Y-77884944D01*
X102374969Y-77970486D01*
X102401881Y-78041161D01*
X102460402Y-78130611D01*
X102536612Y-78211082D01*
X102619178Y-78268731D01*
X102652058Y-78283966D01*
X102786519Y-78325556D01*
X102939811Y-78347089D01*
X103096968Y-78346141D01*
X103108295Y-78345079D01*
X103148929Y-78339450D01*
X103195903Y-78329729D01*
X103252823Y-78314677D01*
X103323293Y-78293056D01*
X103410919Y-78263627D01*
X103519306Y-78225152D01*
X103652060Y-78176391D01*
X103812785Y-78116108D01*
X104005087Y-78043062D01*
X104232571Y-77956016D01*
X104276702Y-77939084D01*
X104467673Y-77865676D01*
X104646723Y-77796635D01*
X104809994Y-77733464D01*
X104953628Y-77677663D01*
X105073766Y-77630734D01*
X105166552Y-77594180D01*
X105228126Y-77569501D01*
X105254632Y-77558199D01*
X105271390Y-77547637D01*
X105318626Y-77511801D01*
X105372582Y-77465747D01*
X105452224Y-77393795D01*
X105477786Y-77472676D01*
X105511058Y-77559209D01*
X105568082Y-77679593D01*
X105637554Y-77806736D01*
X105712233Y-77926618D01*
X105712479Y-77926984D01*
X105751451Y-77979008D01*
X105808244Y-78047308D01*
X105877230Y-78125903D01*
X105952779Y-78208813D01*
X106029263Y-78290059D01*
X106101053Y-78363660D01*
X106162521Y-78423635D01*
X106208037Y-78464006D01*
X106231972Y-78478792D01*
X106239691Y-78474169D01*
X106274502Y-78445638D01*
X106332893Y-78394418D01*
X106410710Y-78324392D01*
X106503800Y-78239445D01*
X106608007Y-78143458D01*
X106719179Y-78040317D01*
X106833160Y-77933903D01*
X106945798Y-77828101D01*
X107052936Y-77726793D01*
X107150422Y-77633864D01*
X107234101Y-77553196D01*
X107299819Y-77488673D01*
X107343422Y-77444178D01*
X107360755Y-77423594D01*
X107367008Y-77411716D01*
X107389881Y-77395281D01*
X107406876Y-77404367D01*
X107452418Y-77435254D01*
X107520302Y-77484095D01*
X107604855Y-77546799D01*
X107700409Y-77619276D01*
X107993336Y-77852133D01*
X108313566Y-78127385D01*
X108613022Y-78407455D01*
X108889499Y-78689721D01*
X109140791Y-78971564D01*
X109364693Y-79250363D01*
X109558999Y-79523498D01*
X109721503Y-79788347D01*
X109850000Y-80042292D01*
X109942284Y-80282711D01*
X109955693Y-80326599D01*
X109998264Y-80487279D01*
X110031495Y-80647011D01*
X110053051Y-80793334D01*
X110060595Y-80913784D01*
X110060230Y-80934794D01*
X110049933Y-81052703D01*
X110027816Y-81184392D01*
X109997029Y-81315998D01*
X109960721Y-81433662D01*
X109922044Y-81523520D01*
X109868320Y-81611269D01*
X109743471Y-81759204D01*
X109595418Y-81875873D01*
X109428891Y-81959195D01*
X109248620Y-82007089D01*
X109059334Y-82017473D01*
X108865763Y-81988268D01*
X108719878Y-81940850D01*
X108550989Y-81861741D01*
X108395248Y-81763532D01*
X108262161Y-81652347D01*
X108161236Y-81534311D01*
X108154212Y-81523143D01*
X108156078Y-81516970D01*
X108182304Y-81538492D01*
X108230125Y-81585649D01*
X108376963Y-81719013D01*
X108553246Y-81835455D01*
X108741581Y-81914561D01*
X108946213Y-81958543D01*
X108958453Y-81960022D01*
X109148725Y-81964077D01*
X109329065Y-81933457D01*
X109494408Y-81870651D01*
X109639689Y-81778153D01*
X109759843Y-81658453D01*
X109849805Y-81514042D01*
X109873312Y-81461856D01*
X109918513Y-81339661D01*
X109947114Y-81217019D01*
X109961701Y-81080505D01*
X109964860Y-80916692D01*
X109964727Y-80903488D01*
X109962098Y-80796966D01*
X109955281Y-80711027D01*
X109941847Y-80630702D01*
X109919366Y-80541024D01*
X109885412Y-80427028D01*
X109840643Y-80294350D01*
X109745588Y-80067791D01*
X109626102Y-79841955D01*
X109479617Y-79612969D01*
X109303566Y-79376957D01*
X109095381Y-79130047D01*
X108852495Y-78868363D01*
X108742570Y-78755554D01*
X108645089Y-78661689D01*
X108561837Y-78594600D01*
X108487111Y-78554363D01*
X108415204Y-78541056D01*
X108340412Y-78554754D01*
X108257030Y-78595533D01*
X108159352Y-78663471D01*
X108133534Y-78684351D01*
X108041673Y-78758642D01*
G37*
D14*
%TO.C,U14*%
X108612000Y-112568000D02*
X102612000Y-112568000D01*
X102612000Y-112568000D02*
X102612000Y-119568000D01*
X102612000Y-119568000D02*
X108612000Y-119568000D01*
X108612000Y-119568000D02*
X108612000Y-112568000D01*
D15*
X109045742Y-112258000D02*
G75*
G03*
X109045742Y-112258000I-113742J0D01*
G01*
D13*
%TO.C,C28*%
X101642500Y-136982500D02*
X101642500Y-137770000D01*
X101248750Y-137376250D02*
X102036250Y-137376250D01*
X105835563Y-138010000D02*
X104550000Y-138010000D01*
X105835563Y-138010000D02*
X106900000Y-139074437D01*
X101144437Y-138010000D02*
X102430000Y-138010000D01*
X101144437Y-138010000D02*
X100080000Y-139074437D01*
X106900000Y-139074437D02*
X106900000Y-144830000D01*
X100080000Y-139074437D02*
X100080000Y-144830000D01*
X106900000Y-144830000D02*
X104550000Y-144830000D01*
X100080000Y-144830000D02*
X102430000Y-144830000D01*
D16*
%TO.C,J1*%
X88930000Y-74040000D02*
X88930000Y-72240000D01*
X88930000Y-66840000D02*
X88930000Y-65040000D01*
X88930000Y-65040000D02*
X74430000Y-65040000D01*
X74430000Y-74040000D02*
X88930000Y-74040000D01*
X74430000Y-65040000D02*
X74430000Y-74040000D01*
D17*
%TO.C,SW1*%
X132218000Y-105972000D02*
X128154000Y-105972000D01*
X132218000Y-105542740D02*
X132218000Y-105972000D01*
X132218000Y-102924000D02*
X132218000Y-103353260D01*
X128154000Y-105972000D02*
X128154000Y-105542740D01*
X128154000Y-103353260D02*
X128154000Y-102924000D01*
X128154000Y-102924000D02*
X132218000Y-102924000D01*
D12*
%TO.C,U3*%
X83129270Y-63280000D02*
X84569999Y-63280000D01*
X82110000Y-63280000D02*
X80080165Y-63280000D01*
X81450970Y-64057323D02*
G75*
G03*
X81405000Y-62565000I664029J767324D01*
G01*
X86585165Y-63280000D02*
G75*
G03*
X86585165Y-63280000I-1007583J0D01*
G01*
D18*
X82270000Y-63290000D02*
G75*
G03*
X82270000Y-63290000I-155000J0D01*
G01*
D12*
X80080165Y-63280000D02*
G75*
G03*
X80080165Y-63280000I-1007583J0D01*
G01*
D13*
%TO.C,J2*%
X83980000Y-127800000D02*
X83980000Y-135420000D01*
X78010000Y-127800000D02*
X83980000Y-127800000D01*
X78020000Y-127810000D02*
X78770000Y-127810000D01*
X78020000Y-129610000D02*
X78020000Y-127810000D01*
X78020000Y-132110000D02*
X78020000Y-131110000D01*
X78770000Y-135410000D02*
X78020000Y-135410000D01*
X78020000Y-135410000D02*
X78020000Y-133610000D01*
X83980000Y-135420000D02*
X78010000Y-135420000D01*
X78010000Y-135420000D02*
X78010000Y-127800000D01*
D17*
%TO.C,SW2*%
X132114000Y-114679000D02*
X128050000Y-114679000D01*
X132114000Y-114249740D02*
X132114000Y-114679000D01*
X132114000Y-111631000D02*
X132114000Y-112060260D01*
X128050000Y-114679000D02*
X128050000Y-114249740D01*
X128050000Y-112060260D02*
X128050000Y-111631000D01*
X128050000Y-111631000D02*
X132114000Y-111631000D01*
D16*
%TO.C,J6*%
X88937000Y-59584000D02*
X90737000Y-59584000D01*
X96137000Y-59584000D02*
X97937000Y-59584000D01*
X97937000Y-59584000D02*
X97937000Y-45084000D01*
X88937000Y-45084000D02*
X88937000Y-59584000D01*
X97937000Y-45084000D02*
X88937000Y-45084000D01*
%TD*%
%LPC*%
D13*
%TO.C,U12*%
X139360000Y-81960000D02*
X139360000Y-63960000D01*
%TD*%
D19*
%TO.C,H6*%
X84764000Y-94984000D03*
%TD*%
%TO.C,H5*%
X126130000Y-136350000D03*
%TD*%
D20*
%TO.C,H7*%
X127985010Y-51120990D03*
X128644020Y-49530000D03*
X128644020Y-52711980D03*
X130235010Y-48870990D03*
D21*
X130235010Y-51120990D03*
D20*
X130235010Y-53370990D03*
X131826000Y-49530000D03*
X131826000Y-52711980D03*
X132485010Y-51120990D03*
%TD*%
%TO.C,H9*%
X128052000Y-143728000D03*
X128711010Y-142137010D03*
X128711010Y-145318990D03*
X130302000Y-141478000D03*
D21*
X130302000Y-143728000D03*
D20*
X130302000Y-145978000D03*
X131892990Y-142137010D03*
X131892990Y-145318990D03*
X132552000Y-143728000D03*
%TD*%
%TO.C,H10*%
X78455010Y-143830990D03*
X79114020Y-142240000D03*
X79114020Y-145421980D03*
X80705010Y-141580990D03*
D21*
X80705010Y-143830990D03*
D20*
X80705010Y-146080990D03*
X82296000Y-142240000D03*
X82296000Y-145421980D03*
X82955010Y-143830990D03*
%TD*%
D22*
%TO.C,U9*%
X98201691Y-68847200D03*
X99151691Y-69422200D03*
X97251691Y-69422200D03*
X98201691Y-69997200D03*
%TD*%
D20*
%TO.C,H8*%
X78558000Y-51054000D03*
X79217010Y-49463010D03*
X79217010Y-52644990D03*
X80808000Y-48804000D03*
D21*
X80808000Y-51054000D03*
D20*
X80808000Y-53304000D03*
X82398990Y-49463010D03*
X82398990Y-52644990D03*
X83058000Y-51054000D03*
%TD*%
D23*
%TO.C,J4*%
X94701000Y-145782001D03*
D24*
X89621000Y-143622000D03*
X92161000Y-143622000D03*
X94701000Y-143622000D03*
X97241000Y-143622000D03*
%TD*%
D25*
%TO.C,J9*%
X86270000Y-50140000D03*
D26*
X86270000Y-52680000D03*
X86270000Y-55220000D03*
X86270000Y-57760000D03*
%TD*%
D27*
%TO.C,FID7*%
X132260000Y-139060000D03*
%TD*%
D25*
%TO.C,J7*%
X83000000Y-76540000D03*
D26*
X85540000Y-76540000D03*
%TD*%
D25*
%TO.C,J3*%
X109350000Y-143580000D03*
D26*
X111890000Y-143580000D03*
X114430000Y-143580000D03*
X116970000Y-143580000D03*
X119510000Y-143580000D03*
%TD*%
D28*
%TO.C,J8*%
X127443000Y-89566000D03*
X127443000Y-95346000D03*
D29*
X126368000Y-89256000D03*
X126368000Y-90056000D03*
D30*
X126368000Y-91206000D03*
X126368000Y-92206000D03*
X126368000Y-92706000D03*
X126368000Y-93706000D03*
D29*
X126368000Y-94856000D03*
X126368000Y-95656000D03*
X126368000Y-95656000D03*
X126368000Y-94856000D03*
D30*
X126368000Y-94206000D03*
X126368000Y-93206000D03*
X126368000Y-91706000D03*
X126368000Y-90706000D03*
D29*
X126368000Y-90056000D03*
X126368000Y-89256000D03*
D31*
X131123000Y-88136000D03*
D32*
X126943000Y-88136000D03*
D31*
X131123000Y-96776000D03*
D32*
X126943000Y-96776000D03*
%TD*%
D33*
%TO.C,U12*%
X131870000Y-81710000D03*
X130600000Y-81710000D03*
X129330000Y-81710000D03*
X128060000Y-81710000D03*
X126790000Y-81710000D03*
X125520000Y-81710000D03*
X124250000Y-81710000D03*
X122980000Y-81710000D03*
X121710000Y-81710000D03*
X120440000Y-81710000D03*
X119170000Y-81710000D03*
X117900000Y-81710000D03*
X116630000Y-81710000D03*
X115360000Y-81710000D03*
D34*
X114110000Y-79945000D03*
X114110000Y-78675000D03*
X114110000Y-77405000D03*
X114110000Y-76135000D03*
X114110000Y-74865000D03*
X114110000Y-73595000D03*
X114110000Y-72325000D03*
X114110000Y-71055000D03*
X114110000Y-69785000D03*
X114110000Y-68515000D03*
X114110000Y-67245000D03*
X114110000Y-65975000D03*
D33*
X115360000Y-64210000D03*
X116630000Y-64210000D03*
X117900000Y-64210000D03*
X119170000Y-64210000D03*
X120440000Y-64210000D03*
X121710000Y-64210000D03*
X122980000Y-64210000D03*
X124250000Y-64210000D03*
X125520000Y-64210000D03*
X126790000Y-64210000D03*
X128060000Y-64210000D03*
X129330000Y-64210000D03*
X130600000Y-64210000D03*
X131870000Y-64210000D03*
D35*
X122750000Y-75860000D03*
X124150000Y-75860000D03*
X125550000Y-75860000D03*
X122750000Y-74460000D03*
X124150000Y-74460000D03*
X125550000Y-74460000D03*
X122750000Y-73060000D03*
X124150000Y-73060000D03*
X125550000Y-73060000D03*
%TD*%
D36*
%TO.C,J5*%
X130670000Y-57730000D03*
X125590000Y-58746000D03*
X125590000Y-56714000D03*
D37*
X129400000Y-58365000D03*
X129400000Y-57095000D03*
X128130000Y-58365000D03*
X128130000Y-57095000D03*
X126860000Y-58365000D03*
X126860000Y-57095000D03*
%TD*%
D38*
%TO.C,J10*%
X103770000Y-51030000D03*
D39*
X101270000Y-51030000D03*
%TD*%
D27*
%TO.C,FID8*%
X78850000Y-139070000D03*
%TD*%
D40*
%TO.C,U14*%
X108528000Y-112805000D03*
X108528000Y-113307000D03*
X108528000Y-113809000D03*
X108528000Y-114311000D03*
X108528000Y-114813000D03*
X108528000Y-115315000D03*
X108528000Y-115817000D03*
X108528000Y-116319000D03*
X108528000Y-116821000D03*
X108528000Y-117323000D03*
X108528000Y-117825000D03*
X108528000Y-118327000D03*
X108528000Y-118829000D03*
X108528000Y-119331000D03*
X102696000Y-119318000D03*
X102696000Y-118818000D03*
X102696000Y-118318000D03*
X102696000Y-117818000D03*
X102696000Y-117318000D03*
X102696000Y-116821000D03*
X102696000Y-116318000D03*
X102696000Y-115817000D03*
X102696000Y-115315000D03*
X102696000Y-114813000D03*
X102696000Y-114311000D03*
X102696000Y-113818000D03*
X102696000Y-113307000D03*
X102696000Y-112818000D03*
D41*
X105612000Y-113600000D03*
D42*
X105612000Y-117176000D03*
%TD*%
D43*
%TO.C,C28*%
X103490000Y-138720000D03*
X103490000Y-144120000D03*
%TD*%
D44*
%TO.C,J1*%
X88130000Y-69540000D03*
D45*
X82130000Y-69540000D03*
%TD*%
D46*
%TO.C,SW1*%
X132345000Y-104448000D03*
X128027000Y-104448000D03*
%TD*%
D27*
%TO.C,FID5*%
X125270000Y-50310000D03*
%TD*%
D47*
%TO.C,J2*%
X80470000Y-130360000D03*
D48*
X80470000Y-132860000D03*
%TD*%
D46*
%TO.C,SW2*%
X132241000Y-113155000D03*
X127923000Y-113155000D03*
%TD*%
D27*
%TO.C,FID6*%
X78750000Y-55900000D03*
%TD*%
D49*
%TO.C,J6*%
X93437000Y-58784000D03*
D50*
X93437000Y-52784000D03*
%TD*%
%LPD*%
M02*
