%TF.GenerationSoftware,KiCad,Pcbnew,(6.0.8-1)-1*%
%TF.CreationDate,2022-12-08T22:42:01-05:00*%
%TF.ProjectId,bitaxeMax,62697461-7865-44d6-9178-2e6b69636164,rev?*%
%TF.SameCoordinates,Original*%
%TF.FileFunction,Legend,Top*%
%TF.FilePolarity,Positive*%
%FSLAX46Y46*%
G04 Gerber Fmt 4.6, Leading zero omitted, Abs format (unit mm)*
G04 Created by KiCad (PCBNEW (6.0.8-1)-1) date 2022-12-08 22:42:01*
%MOMM*%
%LPD*%
G01*
G04 APERTURE LIST*
G04 Aperture macros list*
%AMRoundRect*
0 Rectangle with rounded corners*
0 $1 Rounding radius*
0 $2 $3 $4 $5 $6 $7 $8 $9 X,Y pos of 4 corners*
0 Add a 4 corners polygon primitive as box body*
4,1,4,$2,$3,$4,$5,$6,$7,$8,$9,$2,$3,0*
0 Add four circle primitives for the rounded corners*
1,1,$1+$1,$2,$3*
1,1,$1+$1,$4,$5*
1,1,$1+$1,$6,$7*
1,1,$1+$1,$8,$9*
0 Add four rect primitives between the rounded corners*
20,1,$1+$1,$2,$3,$4,$5,0*
20,1,$1+$1,$4,$5,$6,$7,0*
20,1,$1+$1,$6,$7,$8,$9,0*
20,1,$1+$1,$8,$9,$2,$3,0*%
%AMFreePoly0*
4,1,22,0.500000,-0.750000,0.000000,-0.750000,0.000000,-0.745033,-0.079941,-0.743568,-0.215256,-0.701293,-0.333266,-0.622738,-0.424486,-0.514219,-0.481581,-0.384460,-0.499164,-0.250000,-0.500000,-0.250000,-0.500000,0.250000,-0.499164,0.250000,-0.499963,0.256109,-0.478152,0.396186,-0.417904,0.524511,-0.324060,0.630769,-0.204165,0.706417,-0.067858,0.745374,0.000000,0.744959,0.000000,0.750000,
0.500000,0.750000,0.500000,-0.750000,0.500000,-0.750000,$1*%
%AMFreePoly1*
4,1,20,0.000000,0.744959,0.073905,0.744508,0.209726,0.703889,0.328688,0.626782,0.421226,0.519385,0.479903,0.390333,0.500000,0.250000,0.500000,-0.250000,0.499851,-0.262216,0.476331,-0.402017,0.414519,-0.529596,0.319384,-0.634700,0.198574,-0.708877,0.061801,-0.746166,0.000000,-0.745033,0.000000,-0.750000,-0.500000,-0.750000,-0.500000,0.750000,0.000000,0.750000,0.000000,0.744959,
0.000000,0.744959,$1*%
%AMFreePoly2*
4,1,35,0.005000,-4.560000,0.003536,-4.563536,0.000000,-4.565000,-5.000000,-4.565000,-5.003536,-4.563536,-5.005000,-4.560000,-5.005000,-3.898000,-5.003536,-3.894464,-5.000000,-3.893000,-4.325000,-3.893000,-4.325000,-3.269700,-5.000000,-3.269700,-5.003536,-3.268236,-5.005000,-3.264700,-5.005000,-2.599700,-5.003536,-2.596164,-5.000000,-2.594700,-4.325000,-2.594700,-4.325000,-1.971400,-5.000000,-1.971400,
-5.003536,-1.969936,-5.005000,-1.966400,-5.005000,-1.301400,-5.003536,-1.297864,-5.000000,-1.296400,-4.325000,-1.296400,-4.325000,-0.673100,-5.000000,-0.673100,-5.003536,-0.671636,-5.005000,-0.668100,-5.005000,0.000000,-5.003536,0.003536,-5.000000,0.005000,0.005000,0.005000,0.005000,-4.560000,0.005000,-4.560000,$1*%
%AMFreePoly3*
4,1,45,-0.199646,1.700354,-0.199500,1.700000,-0.199500,1.200500,0.199500,1.200500,0.199500,1.700000,0.199646,1.700354,0.200000,1.700500,0.450000,1.700500,0.450354,1.700354,0.450500,1.700000,0.450500,1.200500,0.825000,1.200500,0.825354,1.200354,0.825500,1.200000,0.825500,-1.200000,0.825354,-1.200354,0.825000,-1.200500,0.450500,-1.200500,0.450500,-1.700000,0.450354,-1.700354,
0.450000,-1.700500,0.200000,-1.700500,0.199646,-1.700354,0.199500,-1.700000,0.199500,-1.200500,-0.199500,-1.200500,-0.199500,-1.700000,-0.199646,-1.700354,-0.200000,-1.700500,-0.450000,-1.700500,-0.450354,-1.700354,-0.450500,-1.700000,-0.450500,-1.200500,-0.825000,-1.200500,-0.825354,-1.200354,-0.825500,-1.200000,-0.825500,1.200000,-0.825354,1.200354,-0.825000,1.200500,-0.450500,1.200500,
-0.450500,1.700000,-0.450354,1.700354,-0.450000,1.700500,-0.200000,1.700500,-0.199646,1.700354,-0.199646,1.700354,$1*%
G04 Aperture macros list end*
%ADD10C,0.150000*%
%ADD11C,0.120000*%
%ADD12C,0.127000*%
%ADD13C,0.200000*%
%ADD14C,0.100000*%
%ADD15C,0.310599*%
%ADD16C,0.254165*%
%ADD17C,0.280227*%
%ADD18C,0.306982*%
%ADD19C,0.313180*%
%ADD20RoundRect,0.135000X-0.135000X-0.185000X0.135000X-0.185000X0.135000X0.185000X-0.135000X0.185000X0*%
%ADD21RoundRect,0.250000X0.475000X-0.250000X0.475000X0.250000X-0.475000X0.250000X-0.475000X-0.250000X0*%
%ADD22RoundRect,0.140000X0.140000X0.170000X-0.140000X0.170000X-0.140000X-0.170000X0.140000X-0.170000X0*%
%ADD23RoundRect,0.040600X0.249400X-0.564400X0.249400X0.564400X-0.249400X0.564400X-0.249400X-0.564400X0*%
%ADD24RoundRect,0.100000X-0.637500X-0.100000X0.637500X-0.100000X0.637500X0.100000X-0.637500X0.100000X0*%
%ADD25RoundRect,0.140000X-0.170000X0.140000X-0.170000X-0.140000X0.170000X-0.140000X0.170000X0.140000X0*%
%ADD26RoundRect,0.135000X-0.185000X0.135000X-0.185000X-0.135000X0.185000X-0.135000X0.185000X0.135000X0*%
%ADD27C,1.500000*%
%ADD28RoundRect,0.250000X0.250000X0.475000X-0.250000X0.475000X-0.250000X-0.475000X0.250000X-0.475000X0*%
%ADD29FreePoly0,180.000000*%
%ADD30FreePoly1,180.000000*%
%ADD31RoundRect,0.135000X0.135000X0.185000X-0.135000X0.185000X-0.135000X-0.185000X0.135000X-0.185000X0*%
%ADD32C,3.500000*%
%ADD33RoundRect,0.250000X-0.475000X0.250000X-0.475000X-0.250000X0.475000X-0.250000X0.475000X0.250000X0*%
%ADD34RoundRect,0.250000X-0.250000X-0.475000X0.250000X-0.475000X0.250000X0.475000X-0.250000X0.475000X0*%
%ADD35RoundRect,0.150000X-0.512500X-0.150000X0.512500X-0.150000X0.512500X0.150000X-0.512500X0.150000X0*%
%ADD36RoundRect,0.135000X0.185000X-0.135000X0.185000X0.135000X-0.185000X0.135000X-0.185000X-0.135000X0*%
%ADD37RoundRect,0.140000X-0.140000X-0.170000X0.140000X-0.170000X0.140000X0.170000X-0.140000X0.170000X0*%
%ADD38RoundRect,0.140000X0.170000X-0.140000X0.170000X0.140000X-0.170000X0.140000X-0.170000X-0.140000X0*%
%ADD39R,0.400000X1.100000*%
%ADD40RoundRect,0.007800X-0.122200X0.442200X-0.122200X-0.442200X0.122200X-0.442200X0.122200X0.442200X0*%
%ADD41RoundRect,0.007800X-0.442200X-0.122200X0.442200X-0.122200X0.442200X0.122200X-0.442200X0.122200X0*%
%ADD42R,2.050000X2.050000*%
%ADD43R,3.100000X2.000000*%
%ADD44C,2.200000*%
%ADD45R,1.100000X0.400000*%
%ADD46RoundRect,0.250000X-1.025000X0.875000X-1.025000X-0.875000X1.025000X-0.875000X1.025000X0.875000X0*%
%ADD47R,0.700000X0.800000*%
%ADD48FreePoly2,270.000000*%
%ADD49RoundRect,0.007874X-0.112126X0.292126X-0.112126X-0.292126X0.112126X-0.292126X0.112126X0.292126X0*%
%ADD50C,0.400000*%
%ADD51FreePoly3,270.000000*%
%ADD52R,1.600000X2.700000*%
%ADD53FreePoly2,90.000000*%
%ADD54RoundRect,0.250000X-0.325000X-1.100000X0.325000X-1.100000X0.325000X1.100000X-0.325000X1.100000X0*%
%ADD55R,1.100000X1.300000*%
%ADD56RoundRect,0.250000X0.325000X0.650000X-0.325000X0.650000X-0.325000X-0.650000X0.325000X-0.650000X0*%
%ADD57R,0.952500X0.558800*%
%ADD58RoundRect,0.250000X-0.620000X-0.845000X0.620000X-0.845000X0.620000X0.845000X-0.620000X0.845000X0*%
%ADD59O,1.740000X2.190000*%
%ADD60C,2.520000*%
%ADD61R,1.700000X1.700000*%
%ADD62O,1.700000X1.700000*%
%ADD63C,0.990600*%
G04 APERTURE END LIST*
D10*
%TO.C,R26*%
X92947142Y-55632380D02*
X92613809Y-55156190D01*
X92375714Y-55632380D02*
X92375714Y-54632380D01*
X92756666Y-54632380D01*
X92851904Y-54680000D01*
X92899523Y-54727619D01*
X92947142Y-54822857D01*
X92947142Y-54965714D01*
X92899523Y-55060952D01*
X92851904Y-55108571D01*
X92756666Y-55156190D01*
X92375714Y-55156190D01*
X93328095Y-54727619D02*
X93375714Y-54680000D01*
X93470952Y-54632380D01*
X93709047Y-54632380D01*
X93804285Y-54680000D01*
X93851904Y-54727619D01*
X93899523Y-54822857D01*
X93899523Y-54918095D01*
X93851904Y-55060952D01*
X93280476Y-55632380D01*
X93899523Y-55632380D01*
X94756666Y-54632380D02*
X94566190Y-54632380D01*
X94470952Y-54680000D01*
X94423333Y-54727619D01*
X94328095Y-54870476D01*
X94280476Y-55060952D01*
X94280476Y-55441904D01*
X94328095Y-55537142D01*
X94375714Y-55584761D01*
X94470952Y-55632380D01*
X94661428Y-55632380D01*
X94756666Y-55584761D01*
X94804285Y-55537142D01*
X94851904Y-55441904D01*
X94851904Y-55203809D01*
X94804285Y-55108571D01*
X94756666Y-55060952D01*
X94661428Y-55013333D01*
X94470952Y-55013333D01*
X94375714Y-55060952D01*
X94328095Y-55108571D01*
X94280476Y-55203809D01*
%TO.C,C43*%
X106387742Y-70854257D02*
X106435361Y-70901876D01*
X106482980Y-71044733D01*
X106482980Y-71139971D01*
X106435361Y-71282828D01*
X106340123Y-71378066D01*
X106244885Y-71425685D01*
X106054409Y-71473304D01*
X105911552Y-71473304D01*
X105721076Y-71425685D01*
X105625838Y-71378066D01*
X105530600Y-71282828D01*
X105482980Y-71139971D01*
X105482980Y-71044733D01*
X105530600Y-70901876D01*
X105578219Y-70854257D01*
X105816314Y-69997114D02*
X106482980Y-69997114D01*
X105435361Y-70235209D02*
X106149647Y-70473304D01*
X106149647Y-69854257D01*
X105482980Y-69568542D02*
X105482980Y-68949495D01*
X105863933Y-69282828D01*
X105863933Y-69139971D01*
X105911552Y-69044733D01*
X105959171Y-68997114D01*
X106054409Y-68949495D01*
X106292504Y-68949495D01*
X106387742Y-68997114D01*
X106435361Y-69044733D01*
X106482980Y-69139971D01*
X106482980Y-69425685D01*
X106435361Y-69520923D01*
X106387742Y-69568542D01*
%TO.C,C19*%
X123467142Y-104007142D02*
X123419523Y-104054761D01*
X123276666Y-104102380D01*
X123181428Y-104102380D01*
X123038571Y-104054761D01*
X122943333Y-103959523D01*
X122895714Y-103864285D01*
X122848095Y-103673809D01*
X122848095Y-103530952D01*
X122895714Y-103340476D01*
X122943333Y-103245238D01*
X123038571Y-103150000D01*
X123181428Y-103102380D01*
X123276666Y-103102380D01*
X123419523Y-103150000D01*
X123467142Y-103197619D01*
X124419523Y-104102380D02*
X123848095Y-104102380D01*
X124133809Y-104102380D02*
X124133809Y-103102380D01*
X124038571Y-103245238D01*
X123943333Y-103340476D01*
X123848095Y-103388095D01*
X124895714Y-104102380D02*
X125086190Y-104102380D01*
X125181428Y-104054761D01*
X125229047Y-104007142D01*
X125324285Y-103864285D01*
X125371904Y-103673809D01*
X125371904Y-103292857D01*
X125324285Y-103197619D01*
X125276666Y-103150000D01*
X125181428Y-103102380D01*
X124990952Y-103102380D01*
X124895714Y-103150000D01*
X124848095Y-103197619D01*
X124800476Y-103292857D01*
X124800476Y-103530952D01*
X124848095Y-103626190D01*
X124895714Y-103673809D01*
X124990952Y-103721428D01*
X125181428Y-103721428D01*
X125276666Y-103673809D01*
X125324285Y-103626190D01*
X125371904Y-103530952D01*
%TO.C,U3*%
X131902380Y-100411904D02*
X132711904Y-100411904D01*
X132807142Y-100364285D01*
X132854761Y-100316666D01*
X132902380Y-100221428D01*
X132902380Y-100030952D01*
X132854761Y-99935714D01*
X132807142Y-99888095D01*
X132711904Y-99840476D01*
X131902380Y-99840476D01*
X131902380Y-99459523D02*
X131902380Y-98840476D01*
X132283333Y-99173809D01*
X132283333Y-99030952D01*
X132330952Y-98935714D01*
X132378571Y-98888095D01*
X132473809Y-98840476D01*
X132711904Y-98840476D01*
X132807142Y-98888095D01*
X132854761Y-98935714D01*
X132902380Y-99030952D01*
X132902380Y-99316666D01*
X132854761Y-99411904D01*
X132807142Y-99459523D01*
%TO.C,U8*%
X80648095Y-84582380D02*
X80648095Y-85391904D01*
X80695714Y-85487142D01*
X80743333Y-85534761D01*
X80838571Y-85582380D01*
X81029047Y-85582380D01*
X81124285Y-85534761D01*
X81171904Y-85487142D01*
X81219523Y-85391904D01*
X81219523Y-84582380D01*
X81838571Y-85010952D02*
X81743333Y-84963333D01*
X81695714Y-84915714D01*
X81648095Y-84820476D01*
X81648095Y-84772857D01*
X81695714Y-84677619D01*
X81743333Y-84630000D01*
X81838571Y-84582380D01*
X82029047Y-84582380D01*
X82124285Y-84630000D01*
X82171904Y-84677619D01*
X82219523Y-84772857D01*
X82219523Y-84820476D01*
X82171904Y-84915714D01*
X82124285Y-84963333D01*
X82029047Y-85010952D01*
X81838571Y-85010952D01*
X81743333Y-85058571D01*
X81695714Y-85106190D01*
X81648095Y-85201428D01*
X81648095Y-85391904D01*
X81695714Y-85487142D01*
X81743333Y-85534761D01*
X81838571Y-85582380D01*
X82029047Y-85582380D01*
X82124285Y-85534761D01*
X82171904Y-85487142D01*
X82219523Y-85391904D01*
X82219523Y-85201428D01*
X82171904Y-85106190D01*
X82124285Y-85058571D01*
X82029047Y-85010952D01*
%TO.C,C7*%
X100347142Y-113006666D02*
X100394761Y-113054285D01*
X100442380Y-113197142D01*
X100442380Y-113292380D01*
X100394761Y-113435238D01*
X100299523Y-113530476D01*
X100204285Y-113578095D01*
X100013809Y-113625714D01*
X99870952Y-113625714D01*
X99680476Y-113578095D01*
X99585238Y-113530476D01*
X99490000Y-113435238D01*
X99442380Y-113292380D01*
X99442380Y-113197142D01*
X99490000Y-113054285D01*
X99537619Y-113006666D01*
X99442380Y-112673333D02*
X99442380Y-112006666D01*
X100442380Y-112435238D01*
%TO.C,R7*%
X93643333Y-115902380D02*
X93310000Y-115426190D01*
X93071904Y-115902380D02*
X93071904Y-114902380D01*
X93452857Y-114902380D01*
X93548095Y-114950000D01*
X93595714Y-114997619D01*
X93643333Y-115092857D01*
X93643333Y-115235714D01*
X93595714Y-115330952D01*
X93548095Y-115378571D01*
X93452857Y-115426190D01*
X93071904Y-115426190D01*
X93976666Y-114902380D02*
X94643333Y-114902380D01*
X94214761Y-115902380D01*
%TO.C,R13*%
X89802380Y-64522857D02*
X89326190Y-64856190D01*
X89802380Y-65094285D02*
X88802380Y-65094285D01*
X88802380Y-64713333D01*
X88850000Y-64618095D01*
X88897619Y-64570476D01*
X88992857Y-64522857D01*
X89135714Y-64522857D01*
X89230952Y-64570476D01*
X89278571Y-64618095D01*
X89326190Y-64713333D01*
X89326190Y-65094285D01*
X89802380Y-63570476D02*
X89802380Y-64141904D01*
X89802380Y-63856190D02*
X88802380Y-63856190D01*
X88945238Y-63951428D01*
X89040476Y-64046666D01*
X89088095Y-64141904D01*
X88802380Y-63237142D02*
X88802380Y-62618095D01*
X89183333Y-62951428D01*
X89183333Y-62808571D01*
X89230952Y-62713333D01*
X89278571Y-62665714D01*
X89373809Y-62618095D01*
X89611904Y-62618095D01*
X89707142Y-62665714D01*
X89754761Y-62713333D01*
X89802380Y-62808571D01*
X89802380Y-63094285D01*
X89754761Y-63189523D01*
X89707142Y-63237142D01*
%TO.C,TP26*%
X98731904Y-56432380D02*
X99303333Y-56432380D01*
X99017619Y-57432380D02*
X99017619Y-56432380D01*
X99636666Y-57432380D02*
X99636666Y-56432380D01*
X100017619Y-56432380D01*
X100112857Y-56480000D01*
X100160476Y-56527619D01*
X100208095Y-56622857D01*
X100208095Y-56765714D01*
X100160476Y-56860952D01*
X100112857Y-56908571D01*
X100017619Y-56956190D01*
X99636666Y-56956190D01*
X100589047Y-56527619D02*
X100636666Y-56480000D01*
X100731904Y-56432380D01*
X100970000Y-56432380D01*
X101065238Y-56480000D01*
X101112857Y-56527619D01*
X101160476Y-56622857D01*
X101160476Y-56718095D01*
X101112857Y-56860952D01*
X100541428Y-57432380D01*
X101160476Y-57432380D01*
X102017619Y-56432380D02*
X101827142Y-56432380D01*
X101731904Y-56480000D01*
X101684285Y-56527619D01*
X101589047Y-56670476D01*
X101541428Y-56860952D01*
X101541428Y-57241904D01*
X101589047Y-57337142D01*
X101636666Y-57384761D01*
X101731904Y-57432380D01*
X101922380Y-57432380D01*
X102017619Y-57384761D01*
X102065238Y-57337142D01*
X102112857Y-57241904D01*
X102112857Y-57003809D01*
X102065238Y-56908571D01*
X102017619Y-56860952D01*
X101922380Y-56813333D01*
X101731904Y-56813333D01*
X101636666Y-56860952D01*
X101589047Y-56908571D01*
X101541428Y-57003809D01*
%TO.C,TP31*%
X129341904Y-74022380D02*
X129913333Y-74022380D01*
X129627619Y-75022380D02*
X129627619Y-74022380D01*
X130246666Y-75022380D02*
X130246666Y-74022380D01*
X130627619Y-74022380D01*
X130722857Y-74070000D01*
X130770476Y-74117619D01*
X130818095Y-74212857D01*
X130818095Y-74355714D01*
X130770476Y-74450952D01*
X130722857Y-74498571D01*
X130627619Y-74546190D01*
X130246666Y-74546190D01*
X131151428Y-74022380D02*
X131770476Y-74022380D01*
X131437142Y-74403333D01*
X131580000Y-74403333D01*
X131675238Y-74450952D01*
X131722857Y-74498571D01*
X131770476Y-74593809D01*
X131770476Y-74831904D01*
X131722857Y-74927142D01*
X131675238Y-74974761D01*
X131580000Y-75022380D01*
X131294285Y-75022380D01*
X131199047Y-74974761D01*
X131151428Y-74927142D01*
X132722857Y-75022380D02*
X132151428Y-75022380D01*
X132437142Y-75022380D02*
X132437142Y-74022380D01*
X132341904Y-74165238D01*
X132246666Y-74260476D01*
X132151428Y-74308095D01*
%TO.C,C1*%
X115083333Y-129327142D02*
X115035714Y-129374761D01*
X114892857Y-129422380D01*
X114797619Y-129422380D01*
X114654761Y-129374761D01*
X114559523Y-129279523D01*
X114511904Y-129184285D01*
X114464285Y-128993809D01*
X114464285Y-128850952D01*
X114511904Y-128660476D01*
X114559523Y-128565238D01*
X114654761Y-128470000D01*
X114797619Y-128422380D01*
X114892857Y-128422380D01*
X115035714Y-128470000D01*
X115083333Y-128517619D01*
X116035714Y-129422380D02*
X115464285Y-129422380D01*
X115750000Y-129422380D02*
X115750000Y-128422380D01*
X115654761Y-128565238D01*
X115559523Y-128660476D01*
X115464285Y-128708095D01*
%TO.C,C41*%
X99974142Y-63401942D02*
X99926523Y-63449561D01*
X99783666Y-63497180D01*
X99688428Y-63497180D01*
X99545571Y-63449561D01*
X99450333Y-63354323D01*
X99402714Y-63259085D01*
X99355095Y-63068609D01*
X99355095Y-62925752D01*
X99402714Y-62735276D01*
X99450333Y-62640038D01*
X99545571Y-62544800D01*
X99688428Y-62497180D01*
X99783666Y-62497180D01*
X99926523Y-62544800D01*
X99974142Y-62592419D01*
X100831285Y-62830514D02*
X100831285Y-63497180D01*
X100593190Y-62449561D02*
X100355095Y-63163847D01*
X100974142Y-63163847D01*
X101878904Y-63497180D02*
X101307476Y-63497180D01*
X101593190Y-63497180D02*
X101593190Y-62497180D01*
X101497952Y-62640038D01*
X101402714Y-62735276D01*
X101307476Y-62782895D01*
%TO.C,TP19*%
X131742380Y-66848095D02*
X131742380Y-66276666D01*
X132742380Y-66562380D02*
X131742380Y-66562380D01*
X132742380Y-65943333D02*
X131742380Y-65943333D01*
X131742380Y-65562380D01*
X131790000Y-65467142D01*
X131837619Y-65419523D01*
X131932857Y-65371904D01*
X132075714Y-65371904D01*
X132170952Y-65419523D01*
X132218571Y-65467142D01*
X132266190Y-65562380D01*
X132266190Y-65943333D01*
X132742380Y-64419523D02*
X132742380Y-64990952D01*
X132742380Y-64705238D02*
X131742380Y-64705238D01*
X131885238Y-64800476D01*
X131980476Y-64895714D01*
X132028095Y-64990952D01*
X132742380Y-63943333D02*
X132742380Y-63752857D01*
X132694761Y-63657619D01*
X132647142Y-63610000D01*
X132504285Y-63514761D01*
X132313809Y-63467142D01*
X131932857Y-63467142D01*
X131837619Y-63514761D01*
X131790000Y-63562380D01*
X131742380Y-63657619D01*
X131742380Y-63848095D01*
X131790000Y-63943333D01*
X131837619Y-63990952D01*
X131932857Y-64038571D01*
X132170952Y-64038571D01*
X132266190Y-63990952D01*
X132313809Y-63943333D01*
X132361428Y-63848095D01*
X132361428Y-63657619D01*
X132313809Y-63562380D01*
X132266190Y-63514761D01*
X132170952Y-63467142D01*
%TO.C,JP2*%
X124596666Y-111142380D02*
X124596666Y-111856666D01*
X124549047Y-111999523D01*
X124453809Y-112094761D01*
X124310952Y-112142380D01*
X124215714Y-112142380D01*
X125072857Y-112142380D02*
X125072857Y-111142380D01*
X125453809Y-111142380D01*
X125549047Y-111190000D01*
X125596666Y-111237619D01*
X125644285Y-111332857D01*
X125644285Y-111475714D01*
X125596666Y-111570952D01*
X125549047Y-111618571D01*
X125453809Y-111666190D01*
X125072857Y-111666190D01*
X126025238Y-111237619D02*
X126072857Y-111190000D01*
X126168095Y-111142380D01*
X126406190Y-111142380D01*
X126501428Y-111190000D01*
X126549047Y-111237619D01*
X126596666Y-111332857D01*
X126596666Y-111428095D01*
X126549047Y-111570952D01*
X125977619Y-112142380D01*
X126596666Y-112142380D01*
%TO.C,R1*%
X120193333Y-117002380D02*
X119860000Y-116526190D01*
X119621904Y-117002380D02*
X119621904Y-116002380D01*
X120002857Y-116002380D01*
X120098095Y-116050000D01*
X120145714Y-116097619D01*
X120193333Y-116192857D01*
X120193333Y-116335714D01*
X120145714Y-116430952D01*
X120098095Y-116478571D01*
X120002857Y-116526190D01*
X119621904Y-116526190D01*
X121145714Y-117002380D02*
X120574285Y-117002380D01*
X120860000Y-117002380D02*
X120860000Y-116002380D01*
X120764761Y-116145238D01*
X120669523Y-116240476D01*
X120574285Y-116288095D01*
%TO.C,C3*%
X116283333Y-108157142D02*
X116235714Y-108204761D01*
X116092857Y-108252380D01*
X115997619Y-108252380D01*
X115854761Y-108204761D01*
X115759523Y-108109523D01*
X115711904Y-108014285D01*
X115664285Y-107823809D01*
X115664285Y-107680952D01*
X115711904Y-107490476D01*
X115759523Y-107395238D01*
X115854761Y-107300000D01*
X115997619Y-107252380D01*
X116092857Y-107252380D01*
X116235714Y-107300000D01*
X116283333Y-107347619D01*
X116616666Y-107252380D02*
X117235714Y-107252380D01*
X116902380Y-107633333D01*
X117045238Y-107633333D01*
X117140476Y-107680952D01*
X117188095Y-107728571D01*
X117235714Y-107823809D01*
X117235714Y-108061904D01*
X117188095Y-108157142D01*
X117140476Y-108204761D01*
X117045238Y-108252380D01*
X116759523Y-108252380D01*
X116664285Y-108204761D01*
X116616666Y-108157142D01*
%TO.C,C38*%
X102147742Y-71704257D02*
X102195361Y-71751876D01*
X102242980Y-71894733D01*
X102242980Y-71989971D01*
X102195361Y-72132828D01*
X102100123Y-72228066D01*
X102004885Y-72275685D01*
X101814409Y-72323304D01*
X101671552Y-72323304D01*
X101481076Y-72275685D01*
X101385838Y-72228066D01*
X101290600Y-72132828D01*
X101242980Y-71989971D01*
X101242980Y-71894733D01*
X101290600Y-71751876D01*
X101338219Y-71704257D01*
X101242980Y-71370923D02*
X101242980Y-70751876D01*
X101623933Y-71085209D01*
X101623933Y-70942352D01*
X101671552Y-70847114D01*
X101719171Y-70799495D01*
X101814409Y-70751876D01*
X102052504Y-70751876D01*
X102147742Y-70799495D01*
X102195361Y-70847114D01*
X102242980Y-70942352D01*
X102242980Y-71228066D01*
X102195361Y-71323304D01*
X102147742Y-71370923D01*
X101671552Y-70180447D02*
X101623933Y-70275685D01*
X101576314Y-70323304D01*
X101481076Y-70370923D01*
X101433457Y-70370923D01*
X101338219Y-70323304D01*
X101290600Y-70275685D01*
X101242980Y-70180447D01*
X101242980Y-69989971D01*
X101290600Y-69894733D01*
X101338219Y-69847114D01*
X101433457Y-69799495D01*
X101481076Y-69799495D01*
X101576314Y-69847114D01*
X101623933Y-69894733D01*
X101671552Y-69989971D01*
X101671552Y-70180447D01*
X101719171Y-70275685D01*
X101766790Y-70323304D01*
X101862028Y-70370923D01*
X102052504Y-70370923D01*
X102147742Y-70323304D01*
X102195361Y-70275685D01*
X102242980Y-70180447D01*
X102242980Y-69989971D01*
X102195361Y-69894733D01*
X102147742Y-69847114D01*
X102052504Y-69799495D01*
X101862028Y-69799495D01*
X101766790Y-69847114D01*
X101719171Y-69894733D01*
X101671552Y-69989971D01*
%TO.C,TP5*%
X108978095Y-131542380D02*
X109549523Y-131542380D01*
X109263809Y-132542380D02*
X109263809Y-131542380D01*
X109882857Y-132542380D02*
X109882857Y-131542380D01*
X110263809Y-131542380D01*
X110359047Y-131590000D01*
X110406666Y-131637619D01*
X110454285Y-131732857D01*
X110454285Y-131875714D01*
X110406666Y-131970952D01*
X110359047Y-132018571D01*
X110263809Y-132066190D01*
X109882857Y-132066190D01*
X111359047Y-131542380D02*
X110882857Y-131542380D01*
X110835238Y-132018571D01*
X110882857Y-131970952D01*
X110978095Y-131923333D01*
X111216190Y-131923333D01*
X111311428Y-131970952D01*
X111359047Y-132018571D01*
X111406666Y-132113809D01*
X111406666Y-132351904D01*
X111359047Y-132447142D01*
X111311428Y-132494761D01*
X111216190Y-132542380D01*
X110978095Y-132542380D01*
X110882857Y-132494761D01*
X110835238Y-132447142D01*
%TO.C,R27*%
X103917142Y-55652380D02*
X103583809Y-55176190D01*
X103345714Y-55652380D02*
X103345714Y-54652380D01*
X103726666Y-54652380D01*
X103821904Y-54700000D01*
X103869523Y-54747619D01*
X103917142Y-54842857D01*
X103917142Y-54985714D01*
X103869523Y-55080952D01*
X103821904Y-55128571D01*
X103726666Y-55176190D01*
X103345714Y-55176190D01*
X104298095Y-54747619D02*
X104345714Y-54700000D01*
X104440952Y-54652380D01*
X104679047Y-54652380D01*
X104774285Y-54700000D01*
X104821904Y-54747619D01*
X104869523Y-54842857D01*
X104869523Y-54938095D01*
X104821904Y-55080952D01*
X104250476Y-55652380D01*
X104869523Y-55652380D01*
X105202857Y-54652380D02*
X105869523Y-54652380D01*
X105440952Y-55652380D01*
%TO.C,C25*%
X107107142Y-132352857D02*
X107154761Y-132400476D01*
X107202380Y-132543333D01*
X107202380Y-132638571D01*
X107154761Y-132781428D01*
X107059523Y-132876666D01*
X106964285Y-132924285D01*
X106773809Y-132971904D01*
X106630952Y-132971904D01*
X106440476Y-132924285D01*
X106345238Y-132876666D01*
X106250000Y-132781428D01*
X106202380Y-132638571D01*
X106202380Y-132543333D01*
X106250000Y-132400476D01*
X106297619Y-132352857D01*
X106297619Y-131971904D02*
X106250000Y-131924285D01*
X106202380Y-131829047D01*
X106202380Y-131590952D01*
X106250000Y-131495714D01*
X106297619Y-131448095D01*
X106392857Y-131400476D01*
X106488095Y-131400476D01*
X106630952Y-131448095D01*
X107202380Y-132019523D01*
X107202380Y-131400476D01*
X106202380Y-130495714D02*
X106202380Y-130971904D01*
X106678571Y-131019523D01*
X106630952Y-130971904D01*
X106583333Y-130876666D01*
X106583333Y-130638571D01*
X106630952Y-130543333D01*
X106678571Y-130495714D01*
X106773809Y-130448095D01*
X107011904Y-130448095D01*
X107107142Y-130495714D01*
X107154761Y-130543333D01*
X107202380Y-130638571D01*
X107202380Y-130876666D01*
X107154761Y-130971904D01*
X107107142Y-131019523D01*
%TO.C,C45*%
X91347142Y-68597142D02*
X91299523Y-68644761D01*
X91156666Y-68692380D01*
X91061428Y-68692380D01*
X90918571Y-68644761D01*
X90823333Y-68549523D01*
X90775714Y-68454285D01*
X90728095Y-68263809D01*
X90728095Y-68120952D01*
X90775714Y-67930476D01*
X90823333Y-67835238D01*
X90918571Y-67740000D01*
X91061428Y-67692380D01*
X91156666Y-67692380D01*
X91299523Y-67740000D01*
X91347142Y-67787619D01*
X92204285Y-68025714D02*
X92204285Y-68692380D01*
X91966190Y-67644761D02*
X91728095Y-68359047D01*
X92347142Y-68359047D01*
X93204285Y-67692380D02*
X92728095Y-67692380D01*
X92680476Y-68168571D01*
X92728095Y-68120952D01*
X92823333Y-68073333D01*
X93061428Y-68073333D01*
X93156666Y-68120952D01*
X93204285Y-68168571D01*
X93251904Y-68263809D01*
X93251904Y-68501904D01*
X93204285Y-68597142D01*
X93156666Y-68644761D01*
X93061428Y-68692380D01*
X92823333Y-68692380D01*
X92728095Y-68644761D01*
X92680476Y-68597142D01*
%TO.C,TP16*%
X83831904Y-136914380D02*
X84403333Y-136914380D01*
X84117619Y-137914380D02*
X84117619Y-136914380D01*
X84736666Y-137914380D02*
X84736666Y-136914380D01*
X85117619Y-136914380D01*
X85212857Y-136962000D01*
X85260476Y-137009619D01*
X85308095Y-137104857D01*
X85308095Y-137247714D01*
X85260476Y-137342952D01*
X85212857Y-137390571D01*
X85117619Y-137438190D01*
X84736666Y-137438190D01*
X86260476Y-137914380D02*
X85689047Y-137914380D01*
X85974761Y-137914380D02*
X85974761Y-136914380D01*
X85879523Y-137057238D01*
X85784285Y-137152476D01*
X85689047Y-137200095D01*
X87117619Y-136914380D02*
X86927142Y-136914380D01*
X86831904Y-136962000D01*
X86784285Y-137009619D01*
X86689047Y-137152476D01*
X86641428Y-137342952D01*
X86641428Y-137723904D01*
X86689047Y-137819142D01*
X86736666Y-137866761D01*
X86831904Y-137914380D01*
X87022380Y-137914380D01*
X87117619Y-137866761D01*
X87165238Y-137819142D01*
X87212857Y-137723904D01*
X87212857Y-137485809D01*
X87165238Y-137390571D01*
X87117619Y-137342952D01*
X87022380Y-137295333D01*
X86831904Y-137295333D01*
X86736666Y-137342952D01*
X86689047Y-137390571D01*
X86641428Y-137485809D01*
%TO.C,TP15*%
X82951904Y-141274380D02*
X83523333Y-141274380D01*
X83237619Y-142274380D02*
X83237619Y-141274380D01*
X83856666Y-142274380D02*
X83856666Y-141274380D01*
X84237619Y-141274380D01*
X84332857Y-141322000D01*
X84380476Y-141369619D01*
X84428095Y-141464857D01*
X84428095Y-141607714D01*
X84380476Y-141702952D01*
X84332857Y-141750571D01*
X84237619Y-141798190D01*
X83856666Y-141798190D01*
X85380476Y-142274380D02*
X84809047Y-142274380D01*
X85094761Y-142274380D02*
X85094761Y-141274380D01*
X84999523Y-141417238D01*
X84904285Y-141512476D01*
X84809047Y-141560095D01*
X86285238Y-141274380D02*
X85809047Y-141274380D01*
X85761428Y-141750571D01*
X85809047Y-141702952D01*
X85904285Y-141655333D01*
X86142380Y-141655333D01*
X86237619Y-141702952D01*
X86285238Y-141750571D01*
X86332857Y-141845809D01*
X86332857Y-142083904D01*
X86285238Y-142179142D01*
X86237619Y-142226761D01*
X86142380Y-142274380D01*
X85904285Y-142274380D01*
X85809047Y-142226761D01*
X85761428Y-142179142D01*
%TO.C,U5*%
X89858095Y-126392380D02*
X89858095Y-127201904D01*
X89905714Y-127297142D01*
X89953333Y-127344761D01*
X90048571Y-127392380D01*
X90239047Y-127392380D01*
X90334285Y-127344761D01*
X90381904Y-127297142D01*
X90429523Y-127201904D01*
X90429523Y-126392380D01*
X91381904Y-126392380D02*
X90905714Y-126392380D01*
X90858095Y-126868571D01*
X90905714Y-126820952D01*
X91000952Y-126773333D01*
X91239047Y-126773333D01*
X91334285Y-126820952D01*
X91381904Y-126868571D01*
X91429523Y-126963809D01*
X91429523Y-127201904D01*
X91381904Y-127297142D01*
X91334285Y-127344761D01*
X91239047Y-127392380D01*
X91000952Y-127392380D01*
X90905714Y-127344761D01*
X90858095Y-127297142D01*
%TO.C,C51*%
X127667142Y-83097142D02*
X127619523Y-83144761D01*
X127476666Y-83192380D01*
X127381428Y-83192380D01*
X127238571Y-83144761D01*
X127143333Y-83049523D01*
X127095714Y-82954285D01*
X127048095Y-82763809D01*
X127048095Y-82620952D01*
X127095714Y-82430476D01*
X127143333Y-82335238D01*
X127238571Y-82240000D01*
X127381428Y-82192380D01*
X127476666Y-82192380D01*
X127619523Y-82240000D01*
X127667142Y-82287619D01*
X128571904Y-82192380D02*
X128095714Y-82192380D01*
X128048095Y-82668571D01*
X128095714Y-82620952D01*
X128190952Y-82573333D01*
X128429047Y-82573333D01*
X128524285Y-82620952D01*
X128571904Y-82668571D01*
X128619523Y-82763809D01*
X128619523Y-83001904D01*
X128571904Y-83097142D01*
X128524285Y-83144761D01*
X128429047Y-83192380D01*
X128190952Y-83192380D01*
X128095714Y-83144761D01*
X128048095Y-83097142D01*
X129571904Y-83192380D02*
X129000476Y-83192380D01*
X129286190Y-83192380D02*
X129286190Y-82192380D01*
X129190952Y-82335238D01*
X129095714Y-82430476D01*
X129000476Y-82478095D01*
%TO.C,R30*%
X123352380Y-92212857D02*
X122876190Y-92546190D01*
X123352380Y-92784285D02*
X122352380Y-92784285D01*
X122352380Y-92403333D01*
X122400000Y-92308095D01*
X122447619Y-92260476D01*
X122542857Y-92212857D01*
X122685714Y-92212857D01*
X122780952Y-92260476D01*
X122828571Y-92308095D01*
X122876190Y-92403333D01*
X122876190Y-92784285D01*
X122352380Y-91879523D02*
X122352380Y-91260476D01*
X122733333Y-91593809D01*
X122733333Y-91450952D01*
X122780952Y-91355714D01*
X122828571Y-91308095D01*
X122923809Y-91260476D01*
X123161904Y-91260476D01*
X123257142Y-91308095D01*
X123304761Y-91355714D01*
X123352380Y-91450952D01*
X123352380Y-91736666D01*
X123304761Y-91831904D01*
X123257142Y-91879523D01*
X122352380Y-90641428D02*
X122352380Y-90546190D01*
X122400000Y-90450952D01*
X122447619Y-90403333D01*
X122542857Y-90355714D01*
X122733333Y-90308095D01*
X122971428Y-90308095D01*
X123161904Y-90355714D01*
X123257142Y-90403333D01*
X123304761Y-90450952D01*
X123352380Y-90546190D01*
X123352380Y-90641428D01*
X123304761Y-90736666D01*
X123257142Y-90784285D01*
X123161904Y-90831904D01*
X122971428Y-90879523D01*
X122733333Y-90879523D01*
X122542857Y-90831904D01*
X122447619Y-90784285D01*
X122400000Y-90736666D01*
X122352380Y-90641428D01*
%TO.C,R6*%
X97253333Y-120222380D02*
X96920000Y-119746190D01*
X96681904Y-120222380D02*
X96681904Y-119222380D01*
X97062857Y-119222380D01*
X97158095Y-119270000D01*
X97205714Y-119317619D01*
X97253333Y-119412857D01*
X97253333Y-119555714D01*
X97205714Y-119650952D01*
X97158095Y-119698571D01*
X97062857Y-119746190D01*
X96681904Y-119746190D01*
X98110476Y-119222380D02*
X97920000Y-119222380D01*
X97824761Y-119270000D01*
X97777142Y-119317619D01*
X97681904Y-119460476D01*
X97634285Y-119650952D01*
X97634285Y-120031904D01*
X97681904Y-120127142D01*
X97729523Y-120174761D01*
X97824761Y-120222380D01*
X98015238Y-120222380D01*
X98110476Y-120174761D01*
X98158095Y-120127142D01*
X98205714Y-120031904D01*
X98205714Y-119793809D01*
X98158095Y-119698571D01*
X98110476Y-119650952D01*
X98015238Y-119603333D01*
X97824761Y-119603333D01*
X97729523Y-119650952D01*
X97681904Y-119698571D01*
X97634285Y-119793809D01*
%TO.C,TP30*%
X113201904Y-59902380D02*
X113773333Y-59902380D01*
X113487619Y-60902380D02*
X113487619Y-59902380D01*
X114106666Y-60902380D02*
X114106666Y-59902380D01*
X114487619Y-59902380D01*
X114582857Y-59950000D01*
X114630476Y-59997619D01*
X114678095Y-60092857D01*
X114678095Y-60235714D01*
X114630476Y-60330952D01*
X114582857Y-60378571D01*
X114487619Y-60426190D01*
X114106666Y-60426190D01*
X115011428Y-59902380D02*
X115630476Y-59902380D01*
X115297142Y-60283333D01*
X115440000Y-60283333D01*
X115535238Y-60330952D01*
X115582857Y-60378571D01*
X115630476Y-60473809D01*
X115630476Y-60711904D01*
X115582857Y-60807142D01*
X115535238Y-60854761D01*
X115440000Y-60902380D01*
X115154285Y-60902380D01*
X115059047Y-60854761D01*
X115011428Y-60807142D01*
X116249523Y-59902380D02*
X116344761Y-59902380D01*
X116440000Y-59950000D01*
X116487619Y-59997619D01*
X116535238Y-60092857D01*
X116582857Y-60283333D01*
X116582857Y-60521428D01*
X116535238Y-60711904D01*
X116487619Y-60807142D01*
X116440000Y-60854761D01*
X116344761Y-60902380D01*
X116249523Y-60902380D01*
X116154285Y-60854761D01*
X116106666Y-60807142D01*
X116059047Y-60711904D01*
X116011428Y-60521428D01*
X116011428Y-60283333D01*
X116059047Y-60092857D01*
X116106666Y-59997619D01*
X116154285Y-59950000D01*
X116249523Y-59902380D01*
%TO.C,U6*%
X101558095Y-127292380D02*
X101558095Y-128101904D01*
X101605714Y-128197142D01*
X101653333Y-128244761D01*
X101748571Y-128292380D01*
X101939047Y-128292380D01*
X102034285Y-128244761D01*
X102081904Y-128197142D01*
X102129523Y-128101904D01*
X102129523Y-127292380D01*
X103034285Y-127292380D02*
X102843809Y-127292380D01*
X102748571Y-127340000D01*
X102700952Y-127387619D01*
X102605714Y-127530476D01*
X102558095Y-127720952D01*
X102558095Y-128101904D01*
X102605714Y-128197142D01*
X102653333Y-128244761D01*
X102748571Y-128292380D01*
X102939047Y-128292380D01*
X103034285Y-128244761D01*
X103081904Y-128197142D01*
X103129523Y-128101904D01*
X103129523Y-127863809D01*
X103081904Y-127768571D01*
X103034285Y-127720952D01*
X102939047Y-127673333D01*
X102748571Y-127673333D01*
X102653333Y-127720952D01*
X102605714Y-127768571D01*
X102558095Y-127863809D01*
%TO.C,C50*%
X129467142Y-77387142D02*
X129419523Y-77434761D01*
X129276666Y-77482380D01*
X129181428Y-77482380D01*
X129038571Y-77434761D01*
X128943333Y-77339523D01*
X128895714Y-77244285D01*
X128848095Y-77053809D01*
X128848095Y-76910952D01*
X128895714Y-76720476D01*
X128943333Y-76625238D01*
X129038571Y-76530000D01*
X129181428Y-76482380D01*
X129276666Y-76482380D01*
X129419523Y-76530000D01*
X129467142Y-76577619D01*
X130371904Y-76482380D02*
X129895714Y-76482380D01*
X129848095Y-76958571D01*
X129895714Y-76910952D01*
X129990952Y-76863333D01*
X130229047Y-76863333D01*
X130324285Y-76910952D01*
X130371904Y-76958571D01*
X130419523Y-77053809D01*
X130419523Y-77291904D01*
X130371904Y-77387142D01*
X130324285Y-77434761D01*
X130229047Y-77482380D01*
X129990952Y-77482380D01*
X129895714Y-77434761D01*
X129848095Y-77387142D01*
X131038571Y-76482380D02*
X131133809Y-76482380D01*
X131229047Y-76530000D01*
X131276666Y-76577619D01*
X131324285Y-76672857D01*
X131371904Y-76863333D01*
X131371904Y-77101428D01*
X131324285Y-77291904D01*
X131276666Y-77387142D01*
X131229047Y-77434761D01*
X131133809Y-77482380D01*
X131038571Y-77482380D01*
X130943333Y-77434761D01*
X130895714Y-77387142D01*
X130848095Y-77291904D01*
X130800476Y-77101428D01*
X130800476Y-76863333D01*
X130848095Y-76672857D01*
X130895714Y-76577619D01*
X130943333Y-76530000D01*
X131038571Y-76482380D01*
%TO.C,C4*%
X111057142Y-119596666D02*
X111104761Y-119644285D01*
X111152380Y-119787142D01*
X111152380Y-119882380D01*
X111104761Y-120025238D01*
X111009523Y-120120476D01*
X110914285Y-120168095D01*
X110723809Y-120215714D01*
X110580952Y-120215714D01*
X110390476Y-120168095D01*
X110295238Y-120120476D01*
X110200000Y-120025238D01*
X110152380Y-119882380D01*
X110152380Y-119787142D01*
X110200000Y-119644285D01*
X110247619Y-119596666D01*
X110485714Y-118739523D02*
X111152380Y-118739523D01*
X110104761Y-118977619D02*
X110819047Y-119215714D01*
X110819047Y-118596666D01*
%TO.C,U7*%
X78832380Y-136911904D02*
X79641904Y-136911904D01*
X79737142Y-136864285D01*
X79784761Y-136816666D01*
X79832380Y-136721428D01*
X79832380Y-136530952D01*
X79784761Y-136435714D01*
X79737142Y-136388095D01*
X79641904Y-136340476D01*
X78832380Y-136340476D01*
X78832380Y-135959523D02*
X78832380Y-135292857D01*
X79832380Y-135721428D01*
%TO.C,C12*%
X98507142Y-103497142D02*
X98459523Y-103544761D01*
X98316666Y-103592380D01*
X98221428Y-103592380D01*
X98078571Y-103544761D01*
X97983333Y-103449523D01*
X97935714Y-103354285D01*
X97888095Y-103163809D01*
X97888095Y-103020952D01*
X97935714Y-102830476D01*
X97983333Y-102735238D01*
X98078571Y-102640000D01*
X98221428Y-102592380D01*
X98316666Y-102592380D01*
X98459523Y-102640000D01*
X98507142Y-102687619D01*
X99459523Y-103592380D02*
X98888095Y-103592380D01*
X99173809Y-103592380D02*
X99173809Y-102592380D01*
X99078571Y-102735238D01*
X98983333Y-102830476D01*
X98888095Y-102878095D01*
X99840476Y-102687619D02*
X99888095Y-102640000D01*
X99983333Y-102592380D01*
X100221428Y-102592380D01*
X100316666Y-102640000D01*
X100364285Y-102687619D01*
X100411904Y-102782857D01*
X100411904Y-102878095D01*
X100364285Y-103020952D01*
X99792857Y-103592380D01*
X100411904Y-103592380D01*
%TO.C,C52*%
X128177142Y-80997142D02*
X128129523Y-81044761D01*
X127986666Y-81092380D01*
X127891428Y-81092380D01*
X127748571Y-81044761D01*
X127653333Y-80949523D01*
X127605714Y-80854285D01*
X127558095Y-80663809D01*
X127558095Y-80520952D01*
X127605714Y-80330476D01*
X127653333Y-80235238D01*
X127748571Y-80140000D01*
X127891428Y-80092380D01*
X127986666Y-80092380D01*
X128129523Y-80140000D01*
X128177142Y-80187619D01*
X129081904Y-80092380D02*
X128605714Y-80092380D01*
X128558095Y-80568571D01*
X128605714Y-80520952D01*
X128700952Y-80473333D01*
X128939047Y-80473333D01*
X129034285Y-80520952D01*
X129081904Y-80568571D01*
X129129523Y-80663809D01*
X129129523Y-80901904D01*
X129081904Y-80997142D01*
X129034285Y-81044761D01*
X128939047Y-81092380D01*
X128700952Y-81092380D01*
X128605714Y-81044761D01*
X128558095Y-80997142D01*
X129510476Y-80187619D02*
X129558095Y-80140000D01*
X129653333Y-80092380D01*
X129891428Y-80092380D01*
X129986666Y-80140000D01*
X130034285Y-80187619D01*
X130081904Y-80282857D01*
X130081904Y-80378095D01*
X130034285Y-80520952D01*
X129462857Y-81092380D01*
X130081904Y-81092380D01*
%TO.C,R31*%
X120802380Y-92212857D02*
X120326190Y-92546190D01*
X120802380Y-92784285D02*
X119802380Y-92784285D01*
X119802380Y-92403333D01*
X119850000Y-92308095D01*
X119897619Y-92260476D01*
X119992857Y-92212857D01*
X120135714Y-92212857D01*
X120230952Y-92260476D01*
X120278571Y-92308095D01*
X120326190Y-92403333D01*
X120326190Y-92784285D01*
X119802380Y-91879523D02*
X119802380Y-91260476D01*
X120183333Y-91593809D01*
X120183333Y-91450952D01*
X120230952Y-91355714D01*
X120278571Y-91308095D01*
X120373809Y-91260476D01*
X120611904Y-91260476D01*
X120707142Y-91308095D01*
X120754761Y-91355714D01*
X120802380Y-91450952D01*
X120802380Y-91736666D01*
X120754761Y-91831904D01*
X120707142Y-91879523D01*
X120802380Y-90308095D02*
X120802380Y-90879523D01*
X120802380Y-90593809D02*
X119802380Y-90593809D01*
X119945238Y-90689047D01*
X120040476Y-90784285D01*
X120088095Y-90879523D01*
%TO.C,JP3*%
X124596666Y-113372380D02*
X124596666Y-114086666D01*
X124549047Y-114229523D01*
X124453809Y-114324761D01*
X124310952Y-114372380D01*
X124215714Y-114372380D01*
X125072857Y-114372380D02*
X125072857Y-113372380D01*
X125453809Y-113372380D01*
X125549047Y-113420000D01*
X125596666Y-113467619D01*
X125644285Y-113562857D01*
X125644285Y-113705714D01*
X125596666Y-113800952D01*
X125549047Y-113848571D01*
X125453809Y-113896190D01*
X125072857Y-113896190D01*
X125977619Y-113372380D02*
X126596666Y-113372380D01*
X126263333Y-113753333D01*
X126406190Y-113753333D01*
X126501428Y-113800952D01*
X126549047Y-113848571D01*
X126596666Y-113943809D01*
X126596666Y-114181904D01*
X126549047Y-114277142D01*
X126501428Y-114324761D01*
X126406190Y-114372380D01*
X126120476Y-114372380D01*
X126025238Y-114324761D01*
X125977619Y-114277142D01*
%TO.C,R29*%
X103867142Y-56842380D02*
X103533809Y-56366190D01*
X103295714Y-56842380D02*
X103295714Y-55842380D01*
X103676666Y-55842380D01*
X103771904Y-55890000D01*
X103819523Y-55937619D01*
X103867142Y-56032857D01*
X103867142Y-56175714D01*
X103819523Y-56270952D01*
X103771904Y-56318571D01*
X103676666Y-56366190D01*
X103295714Y-56366190D01*
X104248095Y-55937619D02*
X104295714Y-55890000D01*
X104390952Y-55842380D01*
X104629047Y-55842380D01*
X104724285Y-55890000D01*
X104771904Y-55937619D01*
X104819523Y-56032857D01*
X104819523Y-56128095D01*
X104771904Y-56270952D01*
X104200476Y-56842380D01*
X104819523Y-56842380D01*
X105295714Y-56842380D02*
X105486190Y-56842380D01*
X105581428Y-56794761D01*
X105629047Y-56747142D01*
X105724285Y-56604285D01*
X105771904Y-56413809D01*
X105771904Y-56032857D01*
X105724285Y-55937619D01*
X105676666Y-55890000D01*
X105581428Y-55842380D01*
X105390952Y-55842380D01*
X105295714Y-55890000D01*
X105248095Y-55937619D01*
X105200476Y-56032857D01*
X105200476Y-56270952D01*
X105248095Y-56366190D01*
X105295714Y-56413809D01*
X105390952Y-56461428D01*
X105581428Y-56461428D01*
X105676666Y-56413809D01*
X105724285Y-56366190D01*
X105771904Y-56270952D01*
%TO.C,TP21*%
X128811904Y-89734380D02*
X129383333Y-89734380D01*
X129097619Y-90734380D02*
X129097619Y-89734380D01*
X129716666Y-90734380D02*
X129716666Y-89734380D01*
X130097619Y-89734380D01*
X130192857Y-89782000D01*
X130240476Y-89829619D01*
X130288095Y-89924857D01*
X130288095Y-90067714D01*
X130240476Y-90162952D01*
X130192857Y-90210571D01*
X130097619Y-90258190D01*
X129716666Y-90258190D01*
X130669047Y-89829619D02*
X130716666Y-89782000D01*
X130811904Y-89734380D01*
X131050000Y-89734380D01*
X131145238Y-89782000D01*
X131192857Y-89829619D01*
X131240476Y-89924857D01*
X131240476Y-90020095D01*
X131192857Y-90162952D01*
X130621428Y-90734380D01*
X131240476Y-90734380D01*
X132192857Y-90734380D02*
X131621428Y-90734380D01*
X131907142Y-90734380D02*
X131907142Y-89734380D01*
X131811904Y-89877238D01*
X131716666Y-89972476D01*
X131621428Y-90020095D01*
%TO.C,C26*%
X128377142Y-96922857D02*
X128424761Y-96970476D01*
X128472380Y-97113333D01*
X128472380Y-97208571D01*
X128424761Y-97351428D01*
X128329523Y-97446666D01*
X128234285Y-97494285D01*
X128043809Y-97541904D01*
X127900952Y-97541904D01*
X127710476Y-97494285D01*
X127615238Y-97446666D01*
X127520000Y-97351428D01*
X127472380Y-97208571D01*
X127472380Y-97113333D01*
X127520000Y-96970476D01*
X127567619Y-96922857D01*
X127567619Y-96541904D02*
X127520000Y-96494285D01*
X127472380Y-96399047D01*
X127472380Y-96160952D01*
X127520000Y-96065714D01*
X127567619Y-96018095D01*
X127662857Y-95970476D01*
X127758095Y-95970476D01*
X127900952Y-96018095D01*
X128472380Y-96589523D01*
X128472380Y-95970476D01*
X127472380Y-95113333D02*
X127472380Y-95303809D01*
X127520000Y-95399047D01*
X127567619Y-95446666D01*
X127710476Y-95541904D01*
X127900952Y-95589523D01*
X128281904Y-95589523D01*
X128377142Y-95541904D01*
X128424761Y-95494285D01*
X128472380Y-95399047D01*
X128472380Y-95208571D01*
X128424761Y-95113333D01*
X128377142Y-95065714D01*
X128281904Y-95018095D01*
X128043809Y-95018095D01*
X127948571Y-95065714D01*
X127900952Y-95113333D01*
X127853333Y-95208571D01*
X127853333Y-95399047D01*
X127900952Y-95494285D01*
X127948571Y-95541904D01*
X128043809Y-95589523D01*
%TO.C,U2*%
X126729904Y-100209523D02*
X127377523Y-100209523D01*
X127453714Y-100171428D01*
X127491809Y-100133333D01*
X127529904Y-100057142D01*
X127529904Y-99904761D01*
X127491809Y-99828571D01*
X127453714Y-99790476D01*
X127377523Y-99752380D01*
X126729904Y-99752380D01*
X126806095Y-99409523D02*
X126768000Y-99371428D01*
X126729904Y-99295238D01*
X126729904Y-99104761D01*
X126768000Y-99028571D01*
X126806095Y-98990476D01*
X126882285Y-98952380D01*
X126958476Y-98952380D01*
X127072761Y-98990476D01*
X127529904Y-99447619D01*
X127529904Y-98952380D01*
%TO.C,R10*%
X95172380Y-67082857D02*
X94696190Y-67416190D01*
X95172380Y-67654285D02*
X94172380Y-67654285D01*
X94172380Y-67273333D01*
X94220000Y-67178095D01*
X94267619Y-67130476D01*
X94362857Y-67082857D01*
X94505714Y-67082857D01*
X94600952Y-67130476D01*
X94648571Y-67178095D01*
X94696190Y-67273333D01*
X94696190Y-67654285D01*
X95172380Y-66130476D02*
X95172380Y-66701904D01*
X95172380Y-66416190D02*
X94172380Y-66416190D01*
X94315238Y-66511428D01*
X94410476Y-66606666D01*
X94458095Y-66701904D01*
X94172380Y-65511428D02*
X94172380Y-65416190D01*
X94220000Y-65320952D01*
X94267619Y-65273333D01*
X94362857Y-65225714D01*
X94553333Y-65178095D01*
X94791428Y-65178095D01*
X94981904Y-65225714D01*
X95077142Y-65273333D01*
X95124761Y-65320952D01*
X95172380Y-65416190D01*
X95172380Y-65511428D01*
X95124761Y-65606666D01*
X95077142Y-65654285D01*
X94981904Y-65701904D01*
X94791428Y-65749523D01*
X94553333Y-65749523D01*
X94362857Y-65701904D01*
X94267619Y-65654285D01*
X94220000Y-65606666D01*
X94172380Y-65511428D01*
%TO.C,L1*%
X109978219Y-78744733D02*
X109978219Y-78268542D01*
X110978219Y-78268542D01*
X109978219Y-79601876D02*
X109978219Y-79030447D01*
X109978219Y-79316161D02*
X110978219Y-79316161D01*
X110835361Y-79220923D01*
X110740123Y-79125685D01*
X110692504Y-79030447D01*
%TO.C,R20*%
X124857142Y-78822380D02*
X124523809Y-78346190D01*
X124285714Y-78822380D02*
X124285714Y-77822380D01*
X124666666Y-77822380D01*
X124761904Y-77870000D01*
X124809523Y-77917619D01*
X124857142Y-78012857D01*
X124857142Y-78155714D01*
X124809523Y-78250952D01*
X124761904Y-78298571D01*
X124666666Y-78346190D01*
X124285714Y-78346190D01*
X125238095Y-77917619D02*
X125285714Y-77870000D01*
X125380952Y-77822380D01*
X125619047Y-77822380D01*
X125714285Y-77870000D01*
X125761904Y-77917619D01*
X125809523Y-78012857D01*
X125809523Y-78108095D01*
X125761904Y-78250952D01*
X125190476Y-78822380D01*
X125809523Y-78822380D01*
X126428571Y-77822380D02*
X126523809Y-77822380D01*
X126619047Y-77870000D01*
X126666666Y-77917619D01*
X126714285Y-78012857D01*
X126761904Y-78203333D01*
X126761904Y-78441428D01*
X126714285Y-78631904D01*
X126666666Y-78727142D01*
X126619047Y-78774761D01*
X126523809Y-78822380D01*
X126428571Y-78822380D01*
X126333333Y-78774761D01*
X126285714Y-78727142D01*
X126238095Y-78631904D01*
X126190476Y-78441428D01*
X126190476Y-78203333D01*
X126238095Y-78012857D01*
X126285714Y-77917619D01*
X126333333Y-77870000D01*
X126428571Y-77822380D01*
%TO.C,R15*%
X94252380Y-62442857D02*
X93776190Y-62776190D01*
X94252380Y-63014285D02*
X93252380Y-63014285D01*
X93252380Y-62633333D01*
X93300000Y-62538095D01*
X93347619Y-62490476D01*
X93442857Y-62442857D01*
X93585714Y-62442857D01*
X93680952Y-62490476D01*
X93728571Y-62538095D01*
X93776190Y-62633333D01*
X93776190Y-63014285D01*
X94252380Y-61490476D02*
X94252380Y-62061904D01*
X94252380Y-61776190D02*
X93252380Y-61776190D01*
X93395238Y-61871428D01*
X93490476Y-61966666D01*
X93538095Y-62061904D01*
X93252380Y-60585714D02*
X93252380Y-61061904D01*
X93728571Y-61109523D01*
X93680952Y-61061904D01*
X93633333Y-60966666D01*
X93633333Y-60728571D01*
X93680952Y-60633333D01*
X93728571Y-60585714D01*
X93823809Y-60538095D01*
X94061904Y-60538095D01*
X94157142Y-60585714D01*
X94204761Y-60633333D01*
X94252380Y-60728571D01*
X94252380Y-60966666D01*
X94204761Y-61061904D01*
X94157142Y-61109523D01*
%TO.C,TP29*%
X110281904Y-56434380D02*
X110853333Y-56434380D01*
X110567619Y-57434380D02*
X110567619Y-56434380D01*
X111186666Y-57434380D02*
X111186666Y-56434380D01*
X111567619Y-56434380D01*
X111662857Y-56482000D01*
X111710476Y-56529619D01*
X111758095Y-56624857D01*
X111758095Y-56767714D01*
X111710476Y-56862952D01*
X111662857Y-56910571D01*
X111567619Y-56958190D01*
X111186666Y-56958190D01*
X112139047Y-56529619D02*
X112186666Y-56482000D01*
X112281904Y-56434380D01*
X112520000Y-56434380D01*
X112615238Y-56482000D01*
X112662857Y-56529619D01*
X112710476Y-56624857D01*
X112710476Y-56720095D01*
X112662857Y-56862952D01*
X112091428Y-57434380D01*
X112710476Y-57434380D01*
X113186666Y-57434380D02*
X113377142Y-57434380D01*
X113472380Y-57386761D01*
X113520000Y-57339142D01*
X113615238Y-57196285D01*
X113662857Y-57005809D01*
X113662857Y-56624857D01*
X113615238Y-56529619D01*
X113567619Y-56482000D01*
X113472380Y-56434380D01*
X113281904Y-56434380D01*
X113186666Y-56482000D01*
X113139047Y-56529619D01*
X113091428Y-56624857D01*
X113091428Y-56862952D01*
X113139047Y-56958190D01*
X113186666Y-57005809D01*
X113281904Y-57053428D01*
X113472380Y-57053428D01*
X113567619Y-57005809D01*
X113615238Y-56958190D01*
X113662857Y-56862952D01*
%TO.C,C15*%
X94807142Y-106447142D02*
X94759523Y-106494761D01*
X94616666Y-106542380D01*
X94521428Y-106542380D01*
X94378571Y-106494761D01*
X94283333Y-106399523D01*
X94235714Y-106304285D01*
X94188095Y-106113809D01*
X94188095Y-105970952D01*
X94235714Y-105780476D01*
X94283333Y-105685238D01*
X94378571Y-105590000D01*
X94521428Y-105542380D01*
X94616666Y-105542380D01*
X94759523Y-105590000D01*
X94807142Y-105637619D01*
X95759523Y-106542380D02*
X95188095Y-106542380D01*
X95473809Y-106542380D02*
X95473809Y-105542380D01*
X95378571Y-105685238D01*
X95283333Y-105780476D01*
X95188095Y-105828095D01*
X96664285Y-105542380D02*
X96188095Y-105542380D01*
X96140476Y-106018571D01*
X96188095Y-105970952D01*
X96283333Y-105923333D01*
X96521428Y-105923333D01*
X96616666Y-105970952D01*
X96664285Y-106018571D01*
X96711904Y-106113809D01*
X96711904Y-106351904D01*
X96664285Y-106447142D01*
X96616666Y-106494761D01*
X96521428Y-106542380D01*
X96283333Y-106542380D01*
X96188095Y-106494761D01*
X96140476Y-106447142D01*
%TO.C,TP32*%
X93101904Y-123172380D02*
X93673333Y-123172380D01*
X93387619Y-124172380D02*
X93387619Y-123172380D01*
X94006666Y-124172380D02*
X94006666Y-123172380D01*
X94387619Y-123172380D01*
X94482857Y-123220000D01*
X94530476Y-123267619D01*
X94578095Y-123362857D01*
X94578095Y-123505714D01*
X94530476Y-123600952D01*
X94482857Y-123648571D01*
X94387619Y-123696190D01*
X94006666Y-123696190D01*
X94911428Y-123172380D02*
X95530476Y-123172380D01*
X95197142Y-123553333D01*
X95340000Y-123553333D01*
X95435238Y-123600952D01*
X95482857Y-123648571D01*
X95530476Y-123743809D01*
X95530476Y-123981904D01*
X95482857Y-124077142D01*
X95435238Y-124124761D01*
X95340000Y-124172380D01*
X95054285Y-124172380D01*
X94959047Y-124124761D01*
X94911428Y-124077142D01*
X95911428Y-123267619D02*
X95959047Y-123220000D01*
X96054285Y-123172380D01*
X96292380Y-123172380D01*
X96387619Y-123220000D01*
X96435238Y-123267619D01*
X96482857Y-123362857D01*
X96482857Y-123458095D01*
X96435238Y-123600952D01*
X95863809Y-124172380D01*
X96482857Y-124172380D01*
%TO.C,R16*%
X94237142Y-103682380D02*
X93903809Y-103206190D01*
X93665714Y-103682380D02*
X93665714Y-102682380D01*
X94046666Y-102682380D01*
X94141904Y-102730000D01*
X94189523Y-102777619D01*
X94237142Y-102872857D01*
X94237142Y-103015714D01*
X94189523Y-103110952D01*
X94141904Y-103158571D01*
X94046666Y-103206190D01*
X93665714Y-103206190D01*
X95189523Y-103682380D02*
X94618095Y-103682380D01*
X94903809Y-103682380D02*
X94903809Y-102682380D01*
X94808571Y-102825238D01*
X94713333Y-102920476D01*
X94618095Y-102968095D01*
X96046666Y-102682380D02*
X95856190Y-102682380D01*
X95760952Y-102730000D01*
X95713333Y-102777619D01*
X95618095Y-102920476D01*
X95570476Y-103110952D01*
X95570476Y-103491904D01*
X95618095Y-103587142D01*
X95665714Y-103634761D01*
X95760952Y-103682380D01*
X95951428Y-103682380D01*
X96046666Y-103634761D01*
X96094285Y-103587142D01*
X96141904Y-103491904D01*
X96141904Y-103253809D01*
X96094285Y-103158571D01*
X96046666Y-103110952D01*
X95951428Y-103063333D01*
X95760952Y-103063333D01*
X95665714Y-103110952D01*
X95618095Y-103158571D01*
X95570476Y-103253809D01*
%TO.C,TP28*%
X107131904Y-60002380D02*
X107703333Y-60002380D01*
X107417619Y-61002380D02*
X107417619Y-60002380D01*
X108036666Y-61002380D02*
X108036666Y-60002380D01*
X108417619Y-60002380D01*
X108512857Y-60050000D01*
X108560476Y-60097619D01*
X108608095Y-60192857D01*
X108608095Y-60335714D01*
X108560476Y-60430952D01*
X108512857Y-60478571D01*
X108417619Y-60526190D01*
X108036666Y-60526190D01*
X108989047Y-60097619D02*
X109036666Y-60050000D01*
X109131904Y-60002380D01*
X109370000Y-60002380D01*
X109465238Y-60050000D01*
X109512857Y-60097619D01*
X109560476Y-60192857D01*
X109560476Y-60288095D01*
X109512857Y-60430952D01*
X108941428Y-61002380D01*
X109560476Y-61002380D01*
X110131904Y-60430952D02*
X110036666Y-60383333D01*
X109989047Y-60335714D01*
X109941428Y-60240476D01*
X109941428Y-60192857D01*
X109989047Y-60097619D01*
X110036666Y-60050000D01*
X110131904Y-60002380D01*
X110322380Y-60002380D01*
X110417619Y-60050000D01*
X110465238Y-60097619D01*
X110512857Y-60192857D01*
X110512857Y-60240476D01*
X110465238Y-60335714D01*
X110417619Y-60383333D01*
X110322380Y-60430952D01*
X110131904Y-60430952D01*
X110036666Y-60478571D01*
X109989047Y-60526190D01*
X109941428Y-60621428D01*
X109941428Y-60811904D01*
X109989047Y-60907142D01*
X110036666Y-60954761D01*
X110131904Y-61002380D01*
X110322380Y-61002380D01*
X110417619Y-60954761D01*
X110465238Y-60907142D01*
X110512857Y-60811904D01*
X110512857Y-60621428D01*
X110465238Y-60526190D01*
X110417619Y-60478571D01*
X110322380Y-60430952D01*
%TO.C,C32*%
X91307142Y-118417142D02*
X91259523Y-118464761D01*
X91116666Y-118512380D01*
X91021428Y-118512380D01*
X90878571Y-118464761D01*
X90783333Y-118369523D01*
X90735714Y-118274285D01*
X90688095Y-118083809D01*
X90688095Y-117940952D01*
X90735714Y-117750476D01*
X90783333Y-117655238D01*
X90878571Y-117560000D01*
X91021428Y-117512380D01*
X91116666Y-117512380D01*
X91259523Y-117560000D01*
X91307142Y-117607619D01*
X91640476Y-117512380D02*
X92259523Y-117512380D01*
X91926190Y-117893333D01*
X92069047Y-117893333D01*
X92164285Y-117940952D01*
X92211904Y-117988571D01*
X92259523Y-118083809D01*
X92259523Y-118321904D01*
X92211904Y-118417142D01*
X92164285Y-118464761D01*
X92069047Y-118512380D01*
X91783333Y-118512380D01*
X91688095Y-118464761D01*
X91640476Y-118417142D01*
X92640476Y-117607619D02*
X92688095Y-117560000D01*
X92783333Y-117512380D01*
X93021428Y-117512380D01*
X93116666Y-117560000D01*
X93164285Y-117607619D01*
X93211904Y-117702857D01*
X93211904Y-117798095D01*
X93164285Y-117940952D01*
X92592857Y-118512380D01*
X93211904Y-118512380D01*
%TO.C,C16*%
X101157142Y-119602857D02*
X101204761Y-119650476D01*
X101252380Y-119793333D01*
X101252380Y-119888571D01*
X101204761Y-120031428D01*
X101109523Y-120126666D01*
X101014285Y-120174285D01*
X100823809Y-120221904D01*
X100680952Y-120221904D01*
X100490476Y-120174285D01*
X100395238Y-120126666D01*
X100300000Y-120031428D01*
X100252380Y-119888571D01*
X100252380Y-119793333D01*
X100300000Y-119650476D01*
X100347619Y-119602857D01*
X101252380Y-118650476D02*
X101252380Y-119221904D01*
X101252380Y-118936190D02*
X100252380Y-118936190D01*
X100395238Y-119031428D01*
X100490476Y-119126666D01*
X100538095Y-119221904D01*
X100252380Y-117793333D02*
X100252380Y-117983809D01*
X100300000Y-118079047D01*
X100347619Y-118126666D01*
X100490476Y-118221904D01*
X100680952Y-118269523D01*
X101061904Y-118269523D01*
X101157142Y-118221904D01*
X101204761Y-118174285D01*
X101252380Y-118079047D01*
X101252380Y-117888571D01*
X101204761Y-117793333D01*
X101157142Y-117745714D01*
X101061904Y-117698095D01*
X100823809Y-117698095D01*
X100728571Y-117745714D01*
X100680952Y-117793333D01*
X100633333Y-117888571D01*
X100633333Y-118079047D01*
X100680952Y-118174285D01*
X100728571Y-118221904D01*
X100823809Y-118269523D01*
%TO.C,R3*%
X118283333Y-118322380D02*
X117950000Y-117846190D01*
X117711904Y-118322380D02*
X117711904Y-117322380D01*
X118092857Y-117322380D01*
X118188095Y-117370000D01*
X118235714Y-117417619D01*
X118283333Y-117512857D01*
X118283333Y-117655714D01*
X118235714Y-117750952D01*
X118188095Y-117798571D01*
X118092857Y-117846190D01*
X117711904Y-117846190D01*
X118616666Y-117322380D02*
X119235714Y-117322380D01*
X118902380Y-117703333D01*
X119045238Y-117703333D01*
X119140476Y-117750952D01*
X119188095Y-117798571D01*
X119235714Y-117893809D01*
X119235714Y-118131904D01*
X119188095Y-118227142D01*
X119140476Y-118274761D01*
X119045238Y-118322380D01*
X118759523Y-118322380D01*
X118664285Y-118274761D01*
X118616666Y-118227142D01*
%TO.C,C49*%
X130557142Y-70957142D02*
X130509523Y-71004761D01*
X130366666Y-71052380D01*
X130271428Y-71052380D01*
X130128571Y-71004761D01*
X130033333Y-70909523D01*
X129985714Y-70814285D01*
X129938095Y-70623809D01*
X129938095Y-70480952D01*
X129985714Y-70290476D01*
X130033333Y-70195238D01*
X130128571Y-70100000D01*
X130271428Y-70052380D01*
X130366666Y-70052380D01*
X130509523Y-70100000D01*
X130557142Y-70147619D01*
X131414285Y-70385714D02*
X131414285Y-71052380D01*
X131176190Y-70004761D02*
X130938095Y-70719047D01*
X131557142Y-70719047D01*
X131985714Y-71052380D02*
X132176190Y-71052380D01*
X132271428Y-71004761D01*
X132319047Y-70957142D01*
X132414285Y-70814285D01*
X132461904Y-70623809D01*
X132461904Y-70242857D01*
X132414285Y-70147619D01*
X132366666Y-70100000D01*
X132271428Y-70052380D01*
X132080952Y-70052380D01*
X131985714Y-70100000D01*
X131938095Y-70147619D01*
X131890476Y-70242857D01*
X131890476Y-70480952D01*
X131938095Y-70576190D01*
X131985714Y-70623809D01*
X132080952Y-70671428D01*
X132271428Y-70671428D01*
X132366666Y-70623809D01*
X132414285Y-70576190D01*
X132461904Y-70480952D01*
%TO.C,TP12*%
X87611904Y-113104380D02*
X88183333Y-113104380D01*
X87897619Y-114104380D02*
X87897619Y-113104380D01*
X88516666Y-114104380D02*
X88516666Y-113104380D01*
X88897619Y-113104380D01*
X88992857Y-113152000D01*
X89040476Y-113199619D01*
X89088095Y-113294857D01*
X89088095Y-113437714D01*
X89040476Y-113532952D01*
X88992857Y-113580571D01*
X88897619Y-113628190D01*
X88516666Y-113628190D01*
X90040476Y-114104380D02*
X89469047Y-114104380D01*
X89754761Y-114104380D02*
X89754761Y-113104380D01*
X89659523Y-113247238D01*
X89564285Y-113342476D01*
X89469047Y-113390095D01*
X90421428Y-113199619D02*
X90469047Y-113152000D01*
X90564285Y-113104380D01*
X90802380Y-113104380D01*
X90897619Y-113152000D01*
X90945238Y-113199619D01*
X90992857Y-113294857D01*
X90992857Y-113390095D01*
X90945238Y-113532952D01*
X90373809Y-114104380D01*
X90992857Y-114104380D01*
%TO.C,C18*%
X93687142Y-110107142D02*
X93639523Y-110154761D01*
X93496666Y-110202380D01*
X93401428Y-110202380D01*
X93258571Y-110154761D01*
X93163333Y-110059523D01*
X93115714Y-109964285D01*
X93068095Y-109773809D01*
X93068095Y-109630952D01*
X93115714Y-109440476D01*
X93163333Y-109345238D01*
X93258571Y-109250000D01*
X93401428Y-109202380D01*
X93496666Y-109202380D01*
X93639523Y-109250000D01*
X93687142Y-109297619D01*
X94639523Y-110202380D02*
X94068095Y-110202380D01*
X94353809Y-110202380D02*
X94353809Y-109202380D01*
X94258571Y-109345238D01*
X94163333Y-109440476D01*
X94068095Y-109488095D01*
X95210952Y-109630952D02*
X95115714Y-109583333D01*
X95068095Y-109535714D01*
X95020476Y-109440476D01*
X95020476Y-109392857D01*
X95068095Y-109297619D01*
X95115714Y-109250000D01*
X95210952Y-109202380D01*
X95401428Y-109202380D01*
X95496666Y-109250000D01*
X95544285Y-109297619D01*
X95591904Y-109392857D01*
X95591904Y-109440476D01*
X95544285Y-109535714D01*
X95496666Y-109583333D01*
X95401428Y-109630952D01*
X95210952Y-109630952D01*
X95115714Y-109678571D01*
X95068095Y-109726190D01*
X95020476Y-109821428D01*
X95020476Y-110011904D01*
X95068095Y-110107142D01*
X95115714Y-110154761D01*
X95210952Y-110202380D01*
X95401428Y-110202380D01*
X95496666Y-110154761D01*
X95544285Y-110107142D01*
X95591904Y-110011904D01*
X95591904Y-109821428D01*
X95544285Y-109726190D01*
X95496666Y-109678571D01*
X95401428Y-109630952D01*
%TO.C,C40*%
X99977142Y-65537142D02*
X99929523Y-65584761D01*
X99786666Y-65632380D01*
X99691428Y-65632380D01*
X99548571Y-65584761D01*
X99453333Y-65489523D01*
X99405714Y-65394285D01*
X99358095Y-65203809D01*
X99358095Y-65060952D01*
X99405714Y-64870476D01*
X99453333Y-64775238D01*
X99548571Y-64680000D01*
X99691428Y-64632380D01*
X99786666Y-64632380D01*
X99929523Y-64680000D01*
X99977142Y-64727619D01*
X100834285Y-64965714D02*
X100834285Y-65632380D01*
X100596190Y-64584761D02*
X100358095Y-65299047D01*
X100977142Y-65299047D01*
X101548571Y-64632380D02*
X101643809Y-64632380D01*
X101739047Y-64680000D01*
X101786666Y-64727619D01*
X101834285Y-64822857D01*
X101881904Y-65013333D01*
X101881904Y-65251428D01*
X101834285Y-65441904D01*
X101786666Y-65537142D01*
X101739047Y-65584761D01*
X101643809Y-65632380D01*
X101548571Y-65632380D01*
X101453333Y-65584761D01*
X101405714Y-65537142D01*
X101358095Y-65441904D01*
X101310476Y-65251428D01*
X101310476Y-65013333D01*
X101358095Y-64822857D01*
X101405714Y-64727619D01*
X101453333Y-64680000D01*
X101548571Y-64632380D01*
%TO.C,U10*%
X90701904Y-96602380D02*
X90701904Y-97411904D01*
X90749523Y-97507142D01*
X90797142Y-97554761D01*
X90892380Y-97602380D01*
X91082857Y-97602380D01*
X91178095Y-97554761D01*
X91225714Y-97507142D01*
X91273333Y-97411904D01*
X91273333Y-96602380D01*
X92273333Y-97602380D02*
X91701904Y-97602380D01*
X91987619Y-97602380D02*
X91987619Y-96602380D01*
X91892380Y-96745238D01*
X91797142Y-96840476D01*
X91701904Y-96888095D01*
X92892380Y-96602380D02*
X92987619Y-96602380D01*
X93082857Y-96650000D01*
X93130476Y-96697619D01*
X93178095Y-96792857D01*
X93225714Y-96983333D01*
X93225714Y-97221428D01*
X93178095Y-97411904D01*
X93130476Y-97507142D01*
X93082857Y-97554761D01*
X92987619Y-97602380D01*
X92892380Y-97602380D01*
X92797142Y-97554761D01*
X92749523Y-97507142D01*
X92701904Y-97411904D01*
X92654285Y-97221428D01*
X92654285Y-96983333D01*
X92701904Y-96792857D01*
X92749523Y-96697619D01*
X92797142Y-96650000D01*
X92892380Y-96602380D01*
%TO.C,C39*%
X106807142Y-67887142D02*
X106759523Y-67934761D01*
X106616666Y-67982380D01*
X106521428Y-67982380D01*
X106378571Y-67934761D01*
X106283333Y-67839523D01*
X106235714Y-67744285D01*
X106188095Y-67553809D01*
X106188095Y-67410952D01*
X106235714Y-67220476D01*
X106283333Y-67125238D01*
X106378571Y-67030000D01*
X106521428Y-66982380D01*
X106616666Y-66982380D01*
X106759523Y-67030000D01*
X106807142Y-67077619D01*
X107140476Y-66982380D02*
X107759523Y-66982380D01*
X107426190Y-67363333D01*
X107569047Y-67363333D01*
X107664285Y-67410952D01*
X107711904Y-67458571D01*
X107759523Y-67553809D01*
X107759523Y-67791904D01*
X107711904Y-67887142D01*
X107664285Y-67934761D01*
X107569047Y-67982380D01*
X107283333Y-67982380D01*
X107188095Y-67934761D01*
X107140476Y-67887142D01*
X108235714Y-67982380D02*
X108426190Y-67982380D01*
X108521428Y-67934761D01*
X108569047Y-67887142D01*
X108664285Y-67744285D01*
X108711904Y-67553809D01*
X108711904Y-67172857D01*
X108664285Y-67077619D01*
X108616666Y-67030000D01*
X108521428Y-66982380D01*
X108330952Y-66982380D01*
X108235714Y-67030000D01*
X108188095Y-67077619D01*
X108140476Y-67172857D01*
X108140476Y-67410952D01*
X108188095Y-67506190D01*
X108235714Y-67553809D01*
X108330952Y-67601428D01*
X108521428Y-67601428D01*
X108616666Y-67553809D01*
X108664285Y-67506190D01*
X108711904Y-67410952D01*
%TO.C,C21*%
X127877142Y-104772857D02*
X127924761Y-104820476D01*
X127972380Y-104963333D01*
X127972380Y-105058571D01*
X127924761Y-105201428D01*
X127829523Y-105296666D01*
X127734285Y-105344285D01*
X127543809Y-105391904D01*
X127400952Y-105391904D01*
X127210476Y-105344285D01*
X127115238Y-105296666D01*
X127020000Y-105201428D01*
X126972380Y-105058571D01*
X126972380Y-104963333D01*
X127020000Y-104820476D01*
X127067619Y-104772857D01*
X127067619Y-104391904D02*
X127020000Y-104344285D01*
X126972380Y-104249047D01*
X126972380Y-104010952D01*
X127020000Y-103915714D01*
X127067619Y-103868095D01*
X127162857Y-103820476D01*
X127258095Y-103820476D01*
X127400952Y-103868095D01*
X127972380Y-104439523D01*
X127972380Y-103820476D01*
X127972380Y-102868095D02*
X127972380Y-103439523D01*
X127972380Y-103153809D02*
X126972380Y-103153809D01*
X127115238Y-103249047D01*
X127210476Y-103344285D01*
X127258095Y-103439523D01*
%TO.C,TP8*%
X82488095Y-113542380D02*
X83059523Y-113542380D01*
X82773809Y-114542380D02*
X82773809Y-113542380D01*
X83392857Y-114542380D02*
X83392857Y-113542380D01*
X83773809Y-113542380D01*
X83869047Y-113590000D01*
X83916666Y-113637619D01*
X83964285Y-113732857D01*
X83964285Y-113875714D01*
X83916666Y-113970952D01*
X83869047Y-114018571D01*
X83773809Y-114066190D01*
X83392857Y-114066190D01*
X84535714Y-113970952D02*
X84440476Y-113923333D01*
X84392857Y-113875714D01*
X84345238Y-113780476D01*
X84345238Y-113732857D01*
X84392857Y-113637619D01*
X84440476Y-113590000D01*
X84535714Y-113542380D01*
X84726190Y-113542380D01*
X84821428Y-113590000D01*
X84869047Y-113637619D01*
X84916666Y-113732857D01*
X84916666Y-113780476D01*
X84869047Y-113875714D01*
X84821428Y-113923333D01*
X84726190Y-113970952D01*
X84535714Y-113970952D01*
X84440476Y-114018571D01*
X84392857Y-114066190D01*
X84345238Y-114161428D01*
X84345238Y-114351904D01*
X84392857Y-114447142D01*
X84440476Y-114494761D01*
X84535714Y-114542380D01*
X84726190Y-114542380D01*
X84821428Y-114494761D01*
X84869047Y-114447142D01*
X84916666Y-114351904D01*
X84916666Y-114161428D01*
X84869047Y-114066190D01*
X84821428Y-114018571D01*
X84726190Y-113970952D01*
%TO.C,TP24*%
X116221904Y-100544380D02*
X116793333Y-100544380D01*
X116507619Y-101544380D02*
X116507619Y-100544380D01*
X117126666Y-101544380D02*
X117126666Y-100544380D01*
X117507619Y-100544380D01*
X117602857Y-100592000D01*
X117650476Y-100639619D01*
X117698095Y-100734857D01*
X117698095Y-100877714D01*
X117650476Y-100972952D01*
X117602857Y-101020571D01*
X117507619Y-101068190D01*
X117126666Y-101068190D01*
X118079047Y-100639619D02*
X118126666Y-100592000D01*
X118221904Y-100544380D01*
X118460000Y-100544380D01*
X118555238Y-100592000D01*
X118602857Y-100639619D01*
X118650476Y-100734857D01*
X118650476Y-100830095D01*
X118602857Y-100972952D01*
X118031428Y-101544380D01*
X118650476Y-101544380D01*
X119507619Y-100877714D02*
X119507619Y-101544380D01*
X119269523Y-100496761D02*
X119031428Y-101211047D01*
X119650476Y-101211047D01*
%TO.C,C35*%
X81457142Y-87007142D02*
X81409523Y-87054761D01*
X81266666Y-87102380D01*
X81171428Y-87102380D01*
X81028571Y-87054761D01*
X80933333Y-86959523D01*
X80885714Y-86864285D01*
X80838095Y-86673809D01*
X80838095Y-86530952D01*
X80885714Y-86340476D01*
X80933333Y-86245238D01*
X81028571Y-86150000D01*
X81171428Y-86102380D01*
X81266666Y-86102380D01*
X81409523Y-86150000D01*
X81457142Y-86197619D01*
X81790476Y-86102380D02*
X82409523Y-86102380D01*
X82076190Y-86483333D01*
X82219047Y-86483333D01*
X82314285Y-86530952D01*
X82361904Y-86578571D01*
X82409523Y-86673809D01*
X82409523Y-86911904D01*
X82361904Y-87007142D01*
X82314285Y-87054761D01*
X82219047Y-87102380D01*
X81933333Y-87102380D01*
X81838095Y-87054761D01*
X81790476Y-87007142D01*
X83314285Y-86102380D02*
X82838095Y-86102380D01*
X82790476Y-86578571D01*
X82838095Y-86530952D01*
X82933333Y-86483333D01*
X83171428Y-86483333D01*
X83266666Y-86530952D01*
X83314285Y-86578571D01*
X83361904Y-86673809D01*
X83361904Y-86911904D01*
X83314285Y-87007142D01*
X83266666Y-87054761D01*
X83171428Y-87102380D01*
X82933333Y-87102380D01*
X82838095Y-87054761D01*
X82790476Y-87007142D01*
%TO.C,TP6*%
X85328095Y-106972380D02*
X85899523Y-106972380D01*
X85613809Y-107972380D02*
X85613809Y-106972380D01*
X86232857Y-107972380D02*
X86232857Y-106972380D01*
X86613809Y-106972380D01*
X86709047Y-107020000D01*
X86756666Y-107067619D01*
X86804285Y-107162857D01*
X86804285Y-107305714D01*
X86756666Y-107400952D01*
X86709047Y-107448571D01*
X86613809Y-107496190D01*
X86232857Y-107496190D01*
X87661428Y-106972380D02*
X87470952Y-106972380D01*
X87375714Y-107020000D01*
X87328095Y-107067619D01*
X87232857Y-107210476D01*
X87185238Y-107400952D01*
X87185238Y-107781904D01*
X87232857Y-107877142D01*
X87280476Y-107924761D01*
X87375714Y-107972380D01*
X87566190Y-107972380D01*
X87661428Y-107924761D01*
X87709047Y-107877142D01*
X87756666Y-107781904D01*
X87756666Y-107543809D01*
X87709047Y-107448571D01*
X87661428Y-107400952D01*
X87566190Y-107353333D01*
X87375714Y-107353333D01*
X87280476Y-107400952D01*
X87232857Y-107448571D01*
X87185238Y-107543809D01*
%TO.C,C10*%
X110717142Y-112832857D02*
X110764761Y-112880476D01*
X110812380Y-113023333D01*
X110812380Y-113118571D01*
X110764761Y-113261428D01*
X110669523Y-113356666D01*
X110574285Y-113404285D01*
X110383809Y-113451904D01*
X110240952Y-113451904D01*
X110050476Y-113404285D01*
X109955238Y-113356666D01*
X109860000Y-113261428D01*
X109812380Y-113118571D01*
X109812380Y-113023333D01*
X109860000Y-112880476D01*
X109907619Y-112832857D01*
X110812380Y-111880476D02*
X110812380Y-112451904D01*
X110812380Y-112166190D02*
X109812380Y-112166190D01*
X109955238Y-112261428D01*
X110050476Y-112356666D01*
X110098095Y-112451904D01*
X109812380Y-111261428D02*
X109812380Y-111166190D01*
X109860000Y-111070952D01*
X109907619Y-111023333D01*
X110002857Y-110975714D01*
X110193333Y-110928095D01*
X110431428Y-110928095D01*
X110621904Y-110975714D01*
X110717142Y-111023333D01*
X110764761Y-111070952D01*
X110812380Y-111166190D01*
X110812380Y-111261428D01*
X110764761Y-111356666D01*
X110717142Y-111404285D01*
X110621904Y-111451904D01*
X110431428Y-111499523D01*
X110193333Y-111499523D01*
X110002857Y-111451904D01*
X109907619Y-111404285D01*
X109860000Y-111356666D01*
X109812380Y-111261428D01*
%TO.C,TP27*%
X101611904Y-60012380D02*
X102183333Y-60012380D01*
X101897619Y-61012380D02*
X101897619Y-60012380D01*
X102516666Y-61012380D02*
X102516666Y-60012380D01*
X102897619Y-60012380D01*
X102992857Y-60060000D01*
X103040476Y-60107619D01*
X103088095Y-60202857D01*
X103088095Y-60345714D01*
X103040476Y-60440952D01*
X102992857Y-60488571D01*
X102897619Y-60536190D01*
X102516666Y-60536190D01*
X103469047Y-60107619D02*
X103516666Y-60060000D01*
X103611904Y-60012380D01*
X103850000Y-60012380D01*
X103945238Y-60060000D01*
X103992857Y-60107619D01*
X104040476Y-60202857D01*
X104040476Y-60298095D01*
X103992857Y-60440952D01*
X103421428Y-61012380D01*
X104040476Y-61012380D01*
X104373809Y-60012380D02*
X105040476Y-60012380D01*
X104611904Y-61012380D01*
%TO.C,C11*%
X101757142Y-112802857D02*
X101804761Y-112850476D01*
X101852380Y-112993333D01*
X101852380Y-113088571D01*
X101804761Y-113231428D01*
X101709523Y-113326666D01*
X101614285Y-113374285D01*
X101423809Y-113421904D01*
X101280952Y-113421904D01*
X101090476Y-113374285D01*
X100995238Y-113326666D01*
X100900000Y-113231428D01*
X100852380Y-113088571D01*
X100852380Y-112993333D01*
X100900000Y-112850476D01*
X100947619Y-112802857D01*
X101852380Y-111850476D02*
X101852380Y-112421904D01*
X101852380Y-112136190D02*
X100852380Y-112136190D01*
X100995238Y-112231428D01*
X101090476Y-112326666D01*
X101138095Y-112421904D01*
X101852380Y-110898095D02*
X101852380Y-111469523D01*
X101852380Y-111183809D02*
X100852380Y-111183809D01*
X100995238Y-111279047D01*
X101090476Y-111374285D01*
X101138095Y-111469523D01*
%TO.C,R33*%
X115702380Y-92202857D02*
X115226190Y-92536190D01*
X115702380Y-92774285D02*
X114702380Y-92774285D01*
X114702380Y-92393333D01*
X114750000Y-92298095D01*
X114797619Y-92250476D01*
X114892857Y-92202857D01*
X115035714Y-92202857D01*
X115130952Y-92250476D01*
X115178571Y-92298095D01*
X115226190Y-92393333D01*
X115226190Y-92774285D01*
X114702380Y-91869523D02*
X114702380Y-91250476D01*
X115083333Y-91583809D01*
X115083333Y-91440952D01*
X115130952Y-91345714D01*
X115178571Y-91298095D01*
X115273809Y-91250476D01*
X115511904Y-91250476D01*
X115607142Y-91298095D01*
X115654761Y-91345714D01*
X115702380Y-91440952D01*
X115702380Y-91726666D01*
X115654761Y-91821904D01*
X115607142Y-91869523D01*
X114702380Y-90917142D02*
X114702380Y-90298095D01*
X115083333Y-90631428D01*
X115083333Y-90488571D01*
X115130952Y-90393333D01*
X115178571Y-90345714D01*
X115273809Y-90298095D01*
X115511904Y-90298095D01*
X115607142Y-90345714D01*
X115654761Y-90393333D01*
X115702380Y-90488571D01*
X115702380Y-90774285D01*
X115654761Y-90869523D01*
X115607142Y-90917142D01*
%TO.C,R14*%
X92182380Y-62402857D02*
X91706190Y-62736190D01*
X92182380Y-62974285D02*
X91182380Y-62974285D01*
X91182380Y-62593333D01*
X91230000Y-62498095D01*
X91277619Y-62450476D01*
X91372857Y-62402857D01*
X91515714Y-62402857D01*
X91610952Y-62450476D01*
X91658571Y-62498095D01*
X91706190Y-62593333D01*
X91706190Y-62974285D01*
X92182380Y-61450476D02*
X92182380Y-62021904D01*
X92182380Y-61736190D02*
X91182380Y-61736190D01*
X91325238Y-61831428D01*
X91420476Y-61926666D01*
X91468095Y-62021904D01*
X91515714Y-60593333D02*
X92182380Y-60593333D01*
X91134761Y-60831428D02*
X91849047Y-61069523D01*
X91849047Y-60450476D01*
%TO.C,R11*%
X106887142Y-66712380D02*
X106553809Y-66236190D01*
X106315714Y-66712380D02*
X106315714Y-65712380D01*
X106696666Y-65712380D01*
X106791904Y-65760000D01*
X106839523Y-65807619D01*
X106887142Y-65902857D01*
X106887142Y-66045714D01*
X106839523Y-66140952D01*
X106791904Y-66188571D01*
X106696666Y-66236190D01*
X106315714Y-66236190D01*
X107839523Y-66712380D02*
X107268095Y-66712380D01*
X107553809Y-66712380D02*
X107553809Y-65712380D01*
X107458571Y-65855238D01*
X107363333Y-65950476D01*
X107268095Y-65998095D01*
X108791904Y-66712380D02*
X108220476Y-66712380D01*
X108506190Y-66712380D02*
X108506190Y-65712380D01*
X108410952Y-65855238D01*
X108315714Y-65950476D01*
X108220476Y-65998095D01*
%TO.C,C14*%
X99557142Y-119532857D02*
X99604761Y-119580476D01*
X99652380Y-119723333D01*
X99652380Y-119818571D01*
X99604761Y-119961428D01*
X99509523Y-120056666D01*
X99414285Y-120104285D01*
X99223809Y-120151904D01*
X99080952Y-120151904D01*
X98890476Y-120104285D01*
X98795238Y-120056666D01*
X98700000Y-119961428D01*
X98652380Y-119818571D01*
X98652380Y-119723333D01*
X98700000Y-119580476D01*
X98747619Y-119532857D01*
X99652380Y-118580476D02*
X99652380Y-119151904D01*
X99652380Y-118866190D02*
X98652380Y-118866190D01*
X98795238Y-118961428D01*
X98890476Y-119056666D01*
X98938095Y-119151904D01*
X98985714Y-117723333D02*
X99652380Y-117723333D01*
X98604761Y-117961428D02*
X99319047Y-118199523D01*
X99319047Y-117580476D01*
%TO.C,C13*%
X105057142Y-109427142D02*
X105009523Y-109474761D01*
X104866666Y-109522380D01*
X104771428Y-109522380D01*
X104628571Y-109474761D01*
X104533333Y-109379523D01*
X104485714Y-109284285D01*
X104438095Y-109093809D01*
X104438095Y-108950952D01*
X104485714Y-108760476D01*
X104533333Y-108665238D01*
X104628571Y-108570000D01*
X104771428Y-108522380D01*
X104866666Y-108522380D01*
X105009523Y-108570000D01*
X105057142Y-108617619D01*
X106009523Y-109522380D02*
X105438095Y-109522380D01*
X105723809Y-109522380D02*
X105723809Y-108522380D01*
X105628571Y-108665238D01*
X105533333Y-108760476D01*
X105438095Y-108808095D01*
X106342857Y-108522380D02*
X106961904Y-108522380D01*
X106628571Y-108903333D01*
X106771428Y-108903333D01*
X106866666Y-108950952D01*
X106914285Y-108998571D01*
X106961904Y-109093809D01*
X106961904Y-109331904D01*
X106914285Y-109427142D01*
X106866666Y-109474761D01*
X106771428Y-109522380D01*
X106485714Y-109522380D01*
X106390476Y-109474761D01*
X106342857Y-109427142D01*
%TO.C,TP11*%
X87181904Y-121472380D02*
X87753333Y-121472380D01*
X87467619Y-122472380D02*
X87467619Y-121472380D01*
X88086666Y-122472380D02*
X88086666Y-121472380D01*
X88467619Y-121472380D01*
X88562857Y-121520000D01*
X88610476Y-121567619D01*
X88658095Y-121662857D01*
X88658095Y-121805714D01*
X88610476Y-121900952D01*
X88562857Y-121948571D01*
X88467619Y-121996190D01*
X88086666Y-121996190D01*
X89610476Y-122472380D02*
X89039047Y-122472380D01*
X89324761Y-122472380D02*
X89324761Y-121472380D01*
X89229523Y-121615238D01*
X89134285Y-121710476D01*
X89039047Y-121758095D01*
X90562857Y-122472380D02*
X89991428Y-122472380D01*
X90277142Y-122472380D02*
X90277142Y-121472380D01*
X90181904Y-121615238D01*
X90086666Y-121710476D01*
X89991428Y-121758095D01*
%TO.C,Q2*%
X99265361Y-76599019D02*
X99170123Y-76551400D01*
X99074885Y-76456161D01*
X98932028Y-76313304D01*
X98836790Y-76265685D01*
X98741552Y-76265685D01*
X98789171Y-76503780D02*
X98693933Y-76456161D01*
X98598695Y-76360923D01*
X98551076Y-76170447D01*
X98551076Y-75837114D01*
X98598695Y-75646638D01*
X98693933Y-75551400D01*
X98789171Y-75503780D01*
X98979647Y-75503780D01*
X99074885Y-75551400D01*
X99170123Y-75646638D01*
X99217742Y-75837114D01*
X99217742Y-76170447D01*
X99170123Y-76360923D01*
X99074885Y-76456161D01*
X98979647Y-76503780D01*
X98789171Y-76503780D01*
X99598695Y-75599019D02*
X99646314Y-75551400D01*
X99741552Y-75503780D01*
X99979647Y-75503780D01*
X100074885Y-75551400D01*
X100122504Y-75599019D01*
X100170123Y-75694257D01*
X100170123Y-75789495D01*
X100122504Y-75932352D01*
X99551076Y-76503780D01*
X100170123Y-76503780D01*
%TO.C,TP1*%
X121448095Y-123772380D02*
X122019523Y-123772380D01*
X121733809Y-124772380D02*
X121733809Y-123772380D01*
X122352857Y-124772380D02*
X122352857Y-123772380D01*
X122733809Y-123772380D01*
X122829047Y-123820000D01*
X122876666Y-123867619D01*
X122924285Y-123962857D01*
X122924285Y-124105714D01*
X122876666Y-124200952D01*
X122829047Y-124248571D01*
X122733809Y-124296190D01*
X122352857Y-124296190D01*
X123876666Y-124772380D02*
X123305238Y-124772380D01*
X123590952Y-124772380D02*
X123590952Y-123772380D01*
X123495714Y-123915238D01*
X123400476Y-124010476D01*
X123305238Y-124058095D01*
%TO.C,R23*%
X118237142Y-120972380D02*
X117903809Y-120496190D01*
X117665714Y-120972380D02*
X117665714Y-119972380D01*
X118046666Y-119972380D01*
X118141904Y-120020000D01*
X118189523Y-120067619D01*
X118237142Y-120162857D01*
X118237142Y-120305714D01*
X118189523Y-120400952D01*
X118141904Y-120448571D01*
X118046666Y-120496190D01*
X117665714Y-120496190D01*
X118618095Y-120067619D02*
X118665714Y-120020000D01*
X118760952Y-119972380D01*
X118999047Y-119972380D01*
X119094285Y-120020000D01*
X119141904Y-120067619D01*
X119189523Y-120162857D01*
X119189523Y-120258095D01*
X119141904Y-120400952D01*
X118570476Y-120972380D01*
X119189523Y-120972380D01*
X119522857Y-119972380D02*
X120141904Y-119972380D01*
X119808571Y-120353333D01*
X119951428Y-120353333D01*
X120046666Y-120400952D01*
X120094285Y-120448571D01*
X120141904Y-120543809D01*
X120141904Y-120781904D01*
X120094285Y-120877142D01*
X120046666Y-120924761D01*
X119951428Y-120972380D01*
X119665714Y-120972380D01*
X119570476Y-120924761D01*
X119522857Y-120877142D01*
%TO.C,C33*%
X84667142Y-131752857D02*
X84714761Y-131800476D01*
X84762380Y-131943333D01*
X84762380Y-132038571D01*
X84714761Y-132181428D01*
X84619523Y-132276666D01*
X84524285Y-132324285D01*
X84333809Y-132371904D01*
X84190952Y-132371904D01*
X84000476Y-132324285D01*
X83905238Y-132276666D01*
X83810000Y-132181428D01*
X83762380Y-132038571D01*
X83762380Y-131943333D01*
X83810000Y-131800476D01*
X83857619Y-131752857D01*
X83762380Y-131419523D02*
X83762380Y-130800476D01*
X84143333Y-131133809D01*
X84143333Y-130990952D01*
X84190952Y-130895714D01*
X84238571Y-130848095D01*
X84333809Y-130800476D01*
X84571904Y-130800476D01*
X84667142Y-130848095D01*
X84714761Y-130895714D01*
X84762380Y-130990952D01*
X84762380Y-131276666D01*
X84714761Y-131371904D01*
X84667142Y-131419523D01*
X83762380Y-130467142D02*
X83762380Y-129848095D01*
X84143333Y-130181428D01*
X84143333Y-130038571D01*
X84190952Y-129943333D01*
X84238571Y-129895714D01*
X84333809Y-129848095D01*
X84571904Y-129848095D01*
X84667142Y-129895714D01*
X84714761Y-129943333D01*
X84762380Y-130038571D01*
X84762380Y-130324285D01*
X84714761Y-130419523D01*
X84667142Y-130467142D01*
%TO.C,TP3*%
X113942380Y-138191904D02*
X113942380Y-137620476D01*
X114942380Y-137906190D02*
X113942380Y-137906190D01*
X114942380Y-137287142D02*
X113942380Y-137287142D01*
X113942380Y-136906190D01*
X113990000Y-136810952D01*
X114037619Y-136763333D01*
X114132857Y-136715714D01*
X114275714Y-136715714D01*
X114370952Y-136763333D01*
X114418571Y-136810952D01*
X114466190Y-136906190D01*
X114466190Y-137287142D01*
X113942380Y-136382380D02*
X113942380Y-135763333D01*
X114323333Y-136096666D01*
X114323333Y-135953809D01*
X114370952Y-135858571D01*
X114418571Y-135810952D01*
X114513809Y-135763333D01*
X114751904Y-135763333D01*
X114847142Y-135810952D01*
X114894761Y-135858571D01*
X114942380Y-135953809D01*
X114942380Y-136239523D01*
X114894761Y-136334761D01*
X114847142Y-136382380D01*
%TO.C,C44*%
X95287142Y-96337142D02*
X95239523Y-96384761D01*
X95096666Y-96432380D01*
X95001428Y-96432380D01*
X94858571Y-96384761D01*
X94763333Y-96289523D01*
X94715714Y-96194285D01*
X94668095Y-96003809D01*
X94668095Y-95860952D01*
X94715714Y-95670476D01*
X94763333Y-95575238D01*
X94858571Y-95480000D01*
X95001428Y-95432380D01*
X95096666Y-95432380D01*
X95239523Y-95480000D01*
X95287142Y-95527619D01*
X96144285Y-95765714D02*
X96144285Y-96432380D01*
X95906190Y-95384761D02*
X95668095Y-96099047D01*
X96287142Y-96099047D01*
X97096666Y-95765714D02*
X97096666Y-96432380D01*
X96858571Y-95384761D02*
X96620476Y-96099047D01*
X97239523Y-96099047D01*
%TO.C,U9*%
X95502380Y-68941904D02*
X96311904Y-68941904D01*
X96407142Y-68894285D01*
X96454761Y-68846666D01*
X96502380Y-68751428D01*
X96502380Y-68560952D01*
X96454761Y-68465714D01*
X96407142Y-68418095D01*
X96311904Y-68370476D01*
X95502380Y-68370476D01*
X96502380Y-67846666D02*
X96502380Y-67656190D01*
X96454761Y-67560952D01*
X96407142Y-67513333D01*
X96264285Y-67418095D01*
X96073809Y-67370476D01*
X95692857Y-67370476D01*
X95597619Y-67418095D01*
X95550000Y-67465714D01*
X95502380Y-67560952D01*
X95502380Y-67751428D01*
X95550000Y-67846666D01*
X95597619Y-67894285D01*
X95692857Y-67941904D01*
X95930952Y-67941904D01*
X96026190Y-67894285D01*
X96073809Y-67846666D01*
X96121428Y-67751428D01*
X96121428Y-67560952D01*
X96073809Y-67465714D01*
X96026190Y-67418095D01*
X95930952Y-67370476D01*
%TO.C,R36*%
X95427142Y-140262380D02*
X95093809Y-139786190D01*
X94855714Y-140262380D02*
X94855714Y-139262380D01*
X95236666Y-139262380D01*
X95331904Y-139310000D01*
X95379523Y-139357619D01*
X95427142Y-139452857D01*
X95427142Y-139595714D01*
X95379523Y-139690952D01*
X95331904Y-139738571D01*
X95236666Y-139786190D01*
X94855714Y-139786190D01*
X95760476Y-139262380D02*
X96379523Y-139262380D01*
X96046190Y-139643333D01*
X96189047Y-139643333D01*
X96284285Y-139690952D01*
X96331904Y-139738571D01*
X96379523Y-139833809D01*
X96379523Y-140071904D01*
X96331904Y-140167142D01*
X96284285Y-140214761D01*
X96189047Y-140262380D01*
X95903333Y-140262380D01*
X95808095Y-140214761D01*
X95760476Y-140167142D01*
X97236666Y-139262380D02*
X97046190Y-139262380D01*
X96950952Y-139310000D01*
X96903333Y-139357619D01*
X96808095Y-139500476D01*
X96760476Y-139690952D01*
X96760476Y-140071904D01*
X96808095Y-140167142D01*
X96855714Y-140214761D01*
X96950952Y-140262380D01*
X97141428Y-140262380D01*
X97236666Y-140214761D01*
X97284285Y-140167142D01*
X97331904Y-140071904D01*
X97331904Y-139833809D01*
X97284285Y-139738571D01*
X97236666Y-139690952D01*
X97141428Y-139643333D01*
X96950952Y-139643333D01*
X96855714Y-139690952D01*
X96808095Y-139738571D01*
X96760476Y-139833809D01*
%TO.C,TP25*%
X94991904Y-59852380D02*
X95563333Y-59852380D01*
X95277619Y-60852380D02*
X95277619Y-59852380D01*
X95896666Y-60852380D02*
X95896666Y-59852380D01*
X96277619Y-59852380D01*
X96372857Y-59900000D01*
X96420476Y-59947619D01*
X96468095Y-60042857D01*
X96468095Y-60185714D01*
X96420476Y-60280952D01*
X96372857Y-60328571D01*
X96277619Y-60376190D01*
X95896666Y-60376190D01*
X96849047Y-59947619D02*
X96896666Y-59900000D01*
X96991904Y-59852380D01*
X97230000Y-59852380D01*
X97325238Y-59900000D01*
X97372857Y-59947619D01*
X97420476Y-60042857D01*
X97420476Y-60138095D01*
X97372857Y-60280952D01*
X96801428Y-60852380D01*
X97420476Y-60852380D01*
X98325238Y-59852380D02*
X97849047Y-59852380D01*
X97801428Y-60328571D01*
X97849047Y-60280952D01*
X97944285Y-60233333D01*
X98182380Y-60233333D01*
X98277619Y-60280952D01*
X98325238Y-60328571D01*
X98372857Y-60423809D01*
X98372857Y-60661904D01*
X98325238Y-60757142D01*
X98277619Y-60804761D01*
X98182380Y-60852380D01*
X97944285Y-60852380D01*
X97849047Y-60804761D01*
X97801428Y-60757142D01*
%TO.C,C22*%
X89927142Y-133657142D02*
X89879523Y-133704761D01*
X89736666Y-133752380D01*
X89641428Y-133752380D01*
X89498571Y-133704761D01*
X89403333Y-133609523D01*
X89355714Y-133514285D01*
X89308095Y-133323809D01*
X89308095Y-133180952D01*
X89355714Y-132990476D01*
X89403333Y-132895238D01*
X89498571Y-132800000D01*
X89641428Y-132752380D01*
X89736666Y-132752380D01*
X89879523Y-132800000D01*
X89927142Y-132847619D01*
X90308095Y-132847619D02*
X90355714Y-132800000D01*
X90450952Y-132752380D01*
X90689047Y-132752380D01*
X90784285Y-132800000D01*
X90831904Y-132847619D01*
X90879523Y-132942857D01*
X90879523Y-133038095D01*
X90831904Y-133180952D01*
X90260476Y-133752380D01*
X90879523Y-133752380D01*
X91260476Y-132847619D02*
X91308095Y-132800000D01*
X91403333Y-132752380D01*
X91641428Y-132752380D01*
X91736666Y-132800000D01*
X91784285Y-132847619D01*
X91831904Y-132942857D01*
X91831904Y-133038095D01*
X91784285Y-133180952D01*
X91212857Y-133752380D01*
X91831904Y-133752380D01*
%TO.C,C6*%
X114933333Y-106397142D02*
X114885714Y-106444761D01*
X114742857Y-106492380D01*
X114647619Y-106492380D01*
X114504761Y-106444761D01*
X114409523Y-106349523D01*
X114361904Y-106254285D01*
X114314285Y-106063809D01*
X114314285Y-105920952D01*
X114361904Y-105730476D01*
X114409523Y-105635238D01*
X114504761Y-105540000D01*
X114647619Y-105492380D01*
X114742857Y-105492380D01*
X114885714Y-105540000D01*
X114933333Y-105587619D01*
X115790476Y-105492380D02*
X115600000Y-105492380D01*
X115504761Y-105540000D01*
X115457142Y-105587619D01*
X115361904Y-105730476D01*
X115314285Y-105920952D01*
X115314285Y-106301904D01*
X115361904Y-106397142D01*
X115409523Y-106444761D01*
X115504761Y-106492380D01*
X115695238Y-106492380D01*
X115790476Y-106444761D01*
X115838095Y-106397142D01*
X115885714Y-106301904D01*
X115885714Y-106063809D01*
X115838095Y-105968571D01*
X115790476Y-105920952D01*
X115695238Y-105873333D01*
X115504761Y-105873333D01*
X115409523Y-105920952D01*
X115361904Y-105968571D01*
X115314285Y-106063809D01*
%TO.C,C46*%
X99707142Y-90292857D02*
X99754761Y-90340476D01*
X99802380Y-90483333D01*
X99802380Y-90578571D01*
X99754761Y-90721428D01*
X99659523Y-90816666D01*
X99564285Y-90864285D01*
X99373809Y-90911904D01*
X99230952Y-90911904D01*
X99040476Y-90864285D01*
X98945238Y-90816666D01*
X98850000Y-90721428D01*
X98802380Y-90578571D01*
X98802380Y-90483333D01*
X98850000Y-90340476D01*
X98897619Y-90292857D01*
X99135714Y-89435714D02*
X99802380Y-89435714D01*
X98754761Y-89673809D02*
X99469047Y-89911904D01*
X99469047Y-89292857D01*
X98802380Y-88483333D02*
X98802380Y-88673809D01*
X98850000Y-88769047D01*
X98897619Y-88816666D01*
X99040476Y-88911904D01*
X99230952Y-88959523D01*
X99611904Y-88959523D01*
X99707142Y-88911904D01*
X99754761Y-88864285D01*
X99802380Y-88769047D01*
X99802380Y-88578571D01*
X99754761Y-88483333D01*
X99707142Y-88435714D01*
X99611904Y-88388095D01*
X99373809Y-88388095D01*
X99278571Y-88435714D01*
X99230952Y-88483333D01*
X99183333Y-88578571D01*
X99183333Y-88769047D01*
X99230952Y-88864285D01*
X99278571Y-88911904D01*
X99373809Y-88959523D01*
X104602552Y-87448771D02*
X103840647Y-87448771D01*
X104221600Y-87067819D02*
X104221600Y-87829723D01*
%TO.C,R18*%
X110347142Y-66722380D02*
X110013809Y-66246190D01*
X109775714Y-66722380D02*
X109775714Y-65722380D01*
X110156666Y-65722380D01*
X110251904Y-65770000D01*
X110299523Y-65817619D01*
X110347142Y-65912857D01*
X110347142Y-66055714D01*
X110299523Y-66150952D01*
X110251904Y-66198571D01*
X110156666Y-66246190D01*
X109775714Y-66246190D01*
X111299523Y-66722380D02*
X110728095Y-66722380D01*
X111013809Y-66722380D02*
X111013809Y-65722380D01*
X110918571Y-65865238D01*
X110823333Y-65960476D01*
X110728095Y-66008095D01*
X111870952Y-66150952D02*
X111775714Y-66103333D01*
X111728095Y-66055714D01*
X111680476Y-65960476D01*
X111680476Y-65912857D01*
X111728095Y-65817619D01*
X111775714Y-65770000D01*
X111870952Y-65722380D01*
X112061428Y-65722380D01*
X112156666Y-65770000D01*
X112204285Y-65817619D01*
X112251904Y-65912857D01*
X112251904Y-65960476D01*
X112204285Y-66055714D01*
X112156666Y-66103333D01*
X112061428Y-66150952D01*
X111870952Y-66150952D01*
X111775714Y-66198571D01*
X111728095Y-66246190D01*
X111680476Y-66341428D01*
X111680476Y-66531904D01*
X111728095Y-66627142D01*
X111775714Y-66674761D01*
X111870952Y-66722380D01*
X112061428Y-66722380D01*
X112156666Y-66674761D01*
X112204285Y-66627142D01*
X112251904Y-66531904D01*
X112251904Y-66341428D01*
X112204285Y-66246190D01*
X112156666Y-66198571D01*
X112061428Y-66150952D01*
%TO.C,Q1*%
X89984761Y-84617619D02*
X89889523Y-84570000D01*
X89794285Y-84474761D01*
X89651428Y-84331904D01*
X89556190Y-84284285D01*
X89460952Y-84284285D01*
X89508571Y-84522380D02*
X89413333Y-84474761D01*
X89318095Y-84379523D01*
X89270476Y-84189047D01*
X89270476Y-83855714D01*
X89318095Y-83665238D01*
X89413333Y-83570000D01*
X89508571Y-83522380D01*
X89699047Y-83522380D01*
X89794285Y-83570000D01*
X89889523Y-83665238D01*
X89937142Y-83855714D01*
X89937142Y-84189047D01*
X89889523Y-84379523D01*
X89794285Y-84474761D01*
X89699047Y-84522380D01*
X89508571Y-84522380D01*
X90889523Y-84522380D02*
X90318095Y-84522380D01*
X90603809Y-84522380D02*
X90603809Y-83522380D01*
X90508571Y-83665238D01*
X90413333Y-83760476D01*
X90318095Y-83808095D01*
%TO.C,R25*%
X92397142Y-139132380D02*
X92063809Y-138656190D01*
X91825714Y-139132380D02*
X91825714Y-138132380D01*
X92206666Y-138132380D01*
X92301904Y-138180000D01*
X92349523Y-138227619D01*
X92397142Y-138322857D01*
X92397142Y-138465714D01*
X92349523Y-138560952D01*
X92301904Y-138608571D01*
X92206666Y-138656190D01*
X91825714Y-138656190D01*
X92778095Y-138227619D02*
X92825714Y-138180000D01*
X92920952Y-138132380D01*
X93159047Y-138132380D01*
X93254285Y-138180000D01*
X93301904Y-138227619D01*
X93349523Y-138322857D01*
X93349523Y-138418095D01*
X93301904Y-138560952D01*
X92730476Y-139132380D01*
X93349523Y-139132380D01*
X94254285Y-138132380D02*
X93778095Y-138132380D01*
X93730476Y-138608571D01*
X93778095Y-138560952D01*
X93873333Y-138513333D01*
X94111428Y-138513333D01*
X94206666Y-138560952D01*
X94254285Y-138608571D01*
X94301904Y-138703809D01*
X94301904Y-138941904D01*
X94254285Y-139037142D01*
X94206666Y-139084761D01*
X94111428Y-139132380D01*
X93873333Y-139132380D01*
X93778095Y-139084761D01*
X93730476Y-139037142D01*
%TO.C,TP10*%
X83051904Y-125542380D02*
X83623333Y-125542380D01*
X83337619Y-126542380D02*
X83337619Y-125542380D01*
X83956666Y-126542380D02*
X83956666Y-125542380D01*
X84337619Y-125542380D01*
X84432857Y-125590000D01*
X84480476Y-125637619D01*
X84528095Y-125732857D01*
X84528095Y-125875714D01*
X84480476Y-125970952D01*
X84432857Y-126018571D01*
X84337619Y-126066190D01*
X83956666Y-126066190D01*
X85480476Y-126542380D02*
X84909047Y-126542380D01*
X85194761Y-126542380D02*
X85194761Y-125542380D01*
X85099523Y-125685238D01*
X85004285Y-125780476D01*
X84909047Y-125828095D01*
X86099523Y-125542380D02*
X86194761Y-125542380D01*
X86290000Y-125590000D01*
X86337619Y-125637619D01*
X86385238Y-125732857D01*
X86432857Y-125923333D01*
X86432857Y-126161428D01*
X86385238Y-126351904D01*
X86337619Y-126447142D01*
X86290000Y-126494761D01*
X86194761Y-126542380D01*
X86099523Y-126542380D01*
X86004285Y-126494761D01*
X85956666Y-126447142D01*
X85909047Y-126351904D01*
X85861428Y-126161428D01*
X85861428Y-125923333D01*
X85909047Y-125732857D01*
X85956666Y-125637619D01*
X86004285Y-125590000D01*
X86099523Y-125542380D01*
%TO.C,R32*%
X118242380Y-92212857D02*
X117766190Y-92546190D01*
X118242380Y-92784285D02*
X117242380Y-92784285D01*
X117242380Y-92403333D01*
X117290000Y-92308095D01*
X117337619Y-92260476D01*
X117432857Y-92212857D01*
X117575714Y-92212857D01*
X117670952Y-92260476D01*
X117718571Y-92308095D01*
X117766190Y-92403333D01*
X117766190Y-92784285D01*
X117242380Y-91879523D02*
X117242380Y-91260476D01*
X117623333Y-91593809D01*
X117623333Y-91450952D01*
X117670952Y-91355714D01*
X117718571Y-91308095D01*
X117813809Y-91260476D01*
X118051904Y-91260476D01*
X118147142Y-91308095D01*
X118194761Y-91355714D01*
X118242380Y-91450952D01*
X118242380Y-91736666D01*
X118194761Y-91831904D01*
X118147142Y-91879523D01*
X117337619Y-90879523D02*
X117290000Y-90831904D01*
X117242380Y-90736666D01*
X117242380Y-90498571D01*
X117290000Y-90403333D01*
X117337619Y-90355714D01*
X117432857Y-90308095D01*
X117528095Y-90308095D01*
X117670952Y-90355714D01*
X118242380Y-90927142D01*
X118242380Y-90308095D01*
%TO.C,R17*%
X90327142Y-103692380D02*
X89993809Y-103216190D01*
X89755714Y-103692380D02*
X89755714Y-102692380D01*
X90136666Y-102692380D01*
X90231904Y-102740000D01*
X90279523Y-102787619D01*
X90327142Y-102882857D01*
X90327142Y-103025714D01*
X90279523Y-103120952D01*
X90231904Y-103168571D01*
X90136666Y-103216190D01*
X89755714Y-103216190D01*
X91279523Y-103692380D02*
X90708095Y-103692380D01*
X90993809Y-103692380D02*
X90993809Y-102692380D01*
X90898571Y-102835238D01*
X90803333Y-102930476D01*
X90708095Y-102978095D01*
X91612857Y-102692380D02*
X92279523Y-102692380D01*
X91850952Y-103692380D01*
%TO.C,C42*%
X93667142Y-73527142D02*
X93619523Y-73574761D01*
X93476666Y-73622380D01*
X93381428Y-73622380D01*
X93238571Y-73574761D01*
X93143333Y-73479523D01*
X93095714Y-73384285D01*
X93048095Y-73193809D01*
X93048095Y-73050952D01*
X93095714Y-72860476D01*
X93143333Y-72765238D01*
X93238571Y-72670000D01*
X93381428Y-72622380D01*
X93476666Y-72622380D01*
X93619523Y-72670000D01*
X93667142Y-72717619D01*
X94524285Y-72955714D02*
X94524285Y-73622380D01*
X94286190Y-72574761D02*
X94048095Y-73289047D01*
X94667142Y-73289047D01*
X95000476Y-72717619D02*
X95048095Y-72670000D01*
X95143333Y-72622380D01*
X95381428Y-72622380D01*
X95476666Y-72670000D01*
X95524285Y-72717619D01*
X95571904Y-72812857D01*
X95571904Y-72908095D01*
X95524285Y-73050952D01*
X94952857Y-73622380D01*
X95571904Y-73622380D01*
%TO.C,TP7*%
X90428095Y-111072380D02*
X90999523Y-111072380D01*
X90713809Y-112072380D02*
X90713809Y-111072380D01*
X91332857Y-112072380D02*
X91332857Y-111072380D01*
X91713809Y-111072380D01*
X91809047Y-111120000D01*
X91856666Y-111167619D01*
X91904285Y-111262857D01*
X91904285Y-111405714D01*
X91856666Y-111500952D01*
X91809047Y-111548571D01*
X91713809Y-111596190D01*
X91332857Y-111596190D01*
X92237619Y-111072380D02*
X92904285Y-111072380D01*
X92475714Y-112072380D01*
%TO.C,C34*%
X90031942Y-86135542D02*
X89984323Y-86183161D01*
X89841466Y-86230780D01*
X89746228Y-86230780D01*
X89603371Y-86183161D01*
X89508133Y-86087923D01*
X89460514Y-85992685D01*
X89412895Y-85802209D01*
X89412895Y-85659352D01*
X89460514Y-85468876D01*
X89508133Y-85373638D01*
X89603371Y-85278400D01*
X89746228Y-85230780D01*
X89841466Y-85230780D01*
X89984323Y-85278400D01*
X90031942Y-85326019D01*
X90365276Y-85230780D02*
X90984323Y-85230780D01*
X90650990Y-85611733D01*
X90793847Y-85611733D01*
X90889085Y-85659352D01*
X90936704Y-85706971D01*
X90984323Y-85802209D01*
X90984323Y-86040304D01*
X90936704Y-86135542D01*
X90889085Y-86183161D01*
X90793847Y-86230780D01*
X90508133Y-86230780D01*
X90412895Y-86183161D01*
X90365276Y-86135542D01*
X91841466Y-85564114D02*
X91841466Y-86230780D01*
X91603371Y-85183161D02*
X91365276Y-85897447D01*
X91984323Y-85897447D01*
%TO.C,TP4*%
X116492380Y-138161904D02*
X116492380Y-137590476D01*
X117492380Y-137876190D02*
X116492380Y-137876190D01*
X117492380Y-137257142D02*
X116492380Y-137257142D01*
X116492380Y-136876190D01*
X116540000Y-136780952D01*
X116587619Y-136733333D01*
X116682857Y-136685714D01*
X116825714Y-136685714D01*
X116920952Y-136733333D01*
X116968571Y-136780952D01*
X117016190Y-136876190D01*
X117016190Y-137257142D01*
X116825714Y-135828571D02*
X117492380Y-135828571D01*
X116444761Y-136066666D02*
X117159047Y-136304761D01*
X117159047Y-135685714D01*
%TO.C,U1*%
X112212380Y-125811904D02*
X113021904Y-125811904D01*
X113117142Y-125764285D01*
X113164761Y-125716666D01*
X113212380Y-125621428D01*
X113212380Y-125430952D01*
X113164761Y-125335714D01*
X113117142Y-125288095D01*
X113021904Y-125240476D01*
X112212380Y-125240476D01*
X113212380Y-124240476D02*
X113212380Y-124811904D01*
X113212380Y-124526190D02*
X112212380Y-124526190D01*
X112355238Y-124621428D01*
X112450476Y-124716666D01*
X112498095Y-124811904D01*
%TO.C,TP13*%
X95931904Y-125654380D02*
X96503333Y-125654380D01*
X96217619Y-126654380D02*
X96217619Y-125654380D01*
X96836666Y-126654380D02*
X96836666Y-125654380D01*
X97217619Y-125654380D01*
X97312857Y-125702000D01*
X97360476Y-125749619D01*
X97408095Y-125844857D01*
X97408095Y-125987714D01*
X97360476Y-126082952D01*
X97312857Y-126130571D01*
X97217619Y-126178190D01*
X96836666Y-126178190D01*
X98360476Y-126654380D02*
X97789047Y-126654380D01*
X98074761Y-126654380D02*
X98074761Y-125654380D01*
X97979523Y-125797238D01*
X97884285Y-125892476D01*
X97789047Y-125940095D01*
X98693809Y-125654380D02*
X99312857Y-125654380D01*
X98979523Y-126035333D01*
X99122380Y-126035333D01*
X99217619Y-126082952D01*
X99265238Y-126130571D01*
X99312857Y-126225809D01*
X99312857Y-126463904D01*
X99265238Y-126559142D01*
X99217619Y-126606761D01*
X99122380Y-126654380D01*
X98836666Y-126654380D01*
X98741428Y-126606761D01*
X98693809Y-126559142D01*
%TO.C,R12*%
X98567142Y-74742380D02*
X98233809Y-74266190D01*
X97995714Y-74742380D02*
X97995714Y-73742380D01*
X98376666Y-73742380D01*
X98471904Y-73790000D01*
X98519523Y-73837619D01*
X98567142Y-73932857D01*
X98567142Y-74075714D01*
X98519523Y-74170952D01*
X98471904Y-74218571D01*
X98376666Y-74266190D01*
X97995714Y-74266190D01*
X99519523Y-74742380D02*
X98948095Y-74742380D01*
X99233809Y-74742380D02*
X99233809Y-73742380D01*
X99138571Y-73885238D01*
X99043333Y-73980476D01*
X98948095Y-74028095D01*
X99900476Y-73837619D02*
X99948095Y-73790000D01*
X100043333Y-73742380D01*
X100281428Y-73742380D01*
X100376666Y-73790000D01*
X100424285Y-73837619D01*
X100471904Y-73932857D01*
X100471904Y-74028095D01*
X100424285Y-74170952D01*
X99852857Y-74742380D01*
X100471904Y-74742380D01*
%TO.C,R4*%
X109813333Y-73392380D02*
X109480000Y-72916190D01*
X109241904Y-73392380D02*
X109241904Y-72392380D01*
X109622857Y-72392380D01*
X109718095Y-72440000D01*
X109765714Y-72487619D01*
X109813333Y-72582857D01*
X109813333Y-72725714D01*
X109765714Y-72820952D01*
X109718095Y-72868571D01*
X109622857Y-72916190D01*
X109241904Y-72916190D01*
X110670476Y-72725714D02*
X110670476Y-73392380D01*
X110432380Y-72344761D02*
X110194285Y-73059047D01*
X110813333Y-73059047D01*
%TO.C,R35*%
X110502380Y-92222857D02*
X110026190Y-92556190D01*
X110502380Y-92794285D02*
X109502380Y-92794285D01*
X109502380Y-92413333D01*
X109550000Y-92318095D01*
X109597619Y-92270476D01*
X109692857Y-92222857D01*
X109835714Y-92222857D01*
X109930952Y-92270476D01*
X109978571Y-92318095D01*
X110026190Y-92413333D01*
X110026190Y-92794285D01*
X109502380Y-91889523D02*
X109502380Y-91270476D01*
X109883333Y-91603809D01*
X109883333Y-91460952D01*
X109930952Y-91365714D01*
X109978571Y-91318095D01*
X110073809Y-91270476D01*
X110311904Y-91270476D01*
X110407142Y-91318095D01*
X110454761Y-91365714D01*
X110502380Y-91460952D01*
X110502380Y-91746666D01*
X110454761Y-91841904D01*
X110407142Y-91889523D01*
X109502380Y-90365714D02*
X109502380Y-90841904D01*
X109978571Y-90889523D01*
X109930952Y-90841904D01*
X109883333Y-90746666D01*
X109883333Y-90508571D01*
X109930952Y-90413333D01*
X109978571Y-90365714D01*
X110073809Y-90318095D01*
X110311904Y-90318095D01*
X110407142Y-90365714D01*
X110454761Y-90413333D01*
X110502380Y-90508571D01*
X110502380Y-90746666D01*
X110454761Y-90841904D01*
X110407142Y-90889523D01*
%TO.C,C2*%
X116233333Y-109997142D02*
X116185714Y-110044761D01*
X116042857Y-110092380D01*
X115947619Y-110092380D01*
X115804761Y-110044761D01*
X115709523Y-109949523D01*
X115661904Y-109854285D01*
X115614285Y-109663809D01*
X115614285Y-109520952D01*
X115661904Y-109330476D01*
X115709523Y-109235238D01*
X115804761Y-109140000D01*
X115947619Y-109092380D01*
X116042857Y-109092380D01*
X116185714Y-109140000D01*
X116233333Y-109187619D01*
X116614285Y-109187619D02*
X116661904Y-109140000D01*
X116757142Y-109092380D01*
X116995238Y-109092380D01*
X117090476Y-109140000D01*
X117138095Y-109187619D01*
X117185714Y-109282857D01*
X117185714Y-109378095D01*
X117138095Y-109520952D01*
X116566666Y-110092380D01*
X117185714Y-110092380D01*
%TO.C,R19*%
X110397142Y-69612380D02*
X110063809Y-69136190D01*
X109825714Y-69612380D02*
X109825714Y-68612380D01*
X110206666Y-68612380D01*
X110301904Y-68660000D01*
X110349523Y-68707619D01*
X110397142Y-68802857D01*
X110397142Y-68945714D01*
X110349523Y-69040952D01*
X110301904Y-69088571D01*
X110206666Y-69136190D01*
X109825714Y-69136190D01*
X111349523Y-69612380D02*
X110778095Y-69612380D01*
X111063809Y-69612380D02*
X111063809Y-68612380D01*
X110968571Y-68755238D01*
X110873333Y-68850476D01*
X110778095Y-68898095D01*
X111825714Y-69612380D02*
X112016190Y-69612380D01*
X112111428Y-69564761D01*
X112159047Y-69517142D01*
X112254285Y-69374285D01*
X112301904Y-69183809D01*
X112301904Y-68802857D01*
X112254285Y-68707619D01*
X112206666Y-68660000D01*
X112111428Y-68612380D01*
X111920952Y-68612380D01*
X111825714Y-68660000D01*
X111778095Y-68707619D01*
X111730476Y-68802857D01*
X111730476Y-69040952D01*
X111778095Y-69136190D01*
X111825714Y-69183809D01*
X111920952Y-69231428D01*
X112111428Y-69231428D01*
X112206666Y-69183809D01*
X112254285Y-69136190D01*
X112301904Y-69040952D01*
%TO.C,R24*%
X92397142Y-137802380D02*
X92063809Y-137326190D01*
X91825714Y-137802380D02*
X91825714Y-136802380D01*
X92206666Y-136802380D01*
X92301904Y-136850000D01*
X92349523Y-136897619D01*
X92397142Y-136992857D01*
X92397142Y-137135714D01*
X92349523Y-137230952D01*
X92301904Y-137278571D01*
X92206666Y-137326190D01*
X91825714Y-137326190D01*
X92778095Y-136897619D02*
X92825714Y-136850000D01*
X92920952Y-136802380D01*
X93159047Y-136802380D01*
X93254285Y-136850000D01*
X93301904Y-136897619D01*
X93349523Y-136992857D01*
X93349523Y-137088095D01*
X93301904Y-137230952D01*
X92730476Y-137802380D01*
X93349523Y-137802380D01*
X94206666Y-137135714D02*
X94206666Y-137802380D01*
X93968571Y-136754761D02*
X93730476Y-137469047D01*
X94349523Y-137469047D01*
%TO.C,R34*%
X113152380Y-92202857D02*
X112676190Y-92536190D01*
X113152380Y-92774285D02*
X112152380Y-92774285D01*
X112152380Y-92393333D01*
X112200000Y-92298095D01*
X112247619Y-92250476D01*
X112342857Y-92202857D01*
X112485714Y-92202857D01*
X112580952Y-92250476D01*
X112628571Y-92298095D01*
X112676190Y-92393333D01*
X112676190Y-92774285D01*
X112152380Y-91869523D02*
X112152380Y-91250476D01*
X112533333Y-91583809D01*
X112533333Y-91440952D01*
X112580952Y-91345714D01*
X112628571Y-91298095D01*
X112723809Y-91250476D01*
X112961904Y-91250476D01*
X113057142Y-91298095D01*
X113104761Y-91345714D01*
X113152380Y-91440952D01*
X113152380Y-91726666D01*
X113104761Y-91821904D01*
X113057142Y-91869523D01*
X112485714Y-90393333D02*
X113152380Y-90393333D01*
X112104761Y-90631428D02*
X112819047Y-90869523D01*
X112819047Y-90250476D01*
%TO.C,C23*%
X99077142Y-133097142D02*
X99029523Y-133144761D01*
X98886666Y-133192380D01*
X98791428Y-133192380D01*
X98648571Y-133144761D01*
X98553333Y-133049523D01*
X98505714Y-132954285D01*
X98458095Y-132763809D01*
X98458095Y-132620952D01*
X98505714Y-132430476D01*
X98553333Y-132335238D01*
X98648571Y-132240000D01*
X98791428Y-132192380D01*
X98886666Y-132192380D01*
X99029523Y-132240000D01*
X99077142Y-132287619D01*
X99458095Y-132287619D02*
X99505714Y-132240000D01*
X99600952Y-132192380D01*
X99839047Y-132192380D01*
X99934285Y-132240000D01*
X99981904Y-132287619D01*
X100029523Y-132382857D01*
X100029523Y-132478095D01*
X99981904Y-132620952D01*
X99410476Y-133192380D01*
X100029523Y-133192380D01*
X100362857Y-132192380D02*
X100981904Y-132192380D01*
X100648571Y-132573333D01*
X100791428Y-132573333D01*
X100886666Y-132620952D01*
X100934285Y-132668571D01*
X100981904Y-132763809D01*
X100981904Y-133001904D01*
X100934285Y-133097142D01*
X100886666Y-133144761D01*
X100791428Y-133192380D01*
X100505714Y-133192380D01*
X100410476Y-133144761D01*
X100362857Y-133097142D01*
%TO.C,C5*%
X112607142Y-119506666D02*
X112654761Y-119554285D01*
X112702380Y-119697142D01*
X112702380Y-119792380D01*
X112654761Y-119935238D01*
X112559523Y-120030476D01*
X112464285Y-120078095D01*
X112273809Y-120125714D01*
X112130952Y-120125714D01*
X111940476Y-120078095D01*
X111845238Y-120030476D01*
X111750000Y-119935238D01*
X111702380Y-119792380D01*
X111702380Y-119697142D01*
X111750000Y-119554285D01*
X111797619Y-119506666D01*
X111702380Y-118601904D02*
X111702380Y-119078095D01*
X112178571Y-119125714D01*
X112130952Y-119078095D01*
X112083333Y-118982857D01*
X112083333Y-118744761D01*
X112130952Y-118649523D01*
X112178571Y-118601904D01*
X112273809Y-118554285D01*
X112511904Y-118554285D01*
X112607142Y-118601904D01*
X112654761Y-118649523D01*
X112702380Y-118744761D01*
X112702380Y-118982857D01*
X112654761Y-119078095D01*
X112607142Y-119125714D01*
%TO.C,TP9*%
X82528095Y-110222380D02*
X83099523Y-110222380D01*
X82813809Y-111222380D02*
X82813809Y-110222380D01*
X83432857Y-111222380D02*
X83432857Y-110222380D01*
X83813809Y-110222380D01*
X83909047Y-110270000D01*
X83956666Y-110317619D01*
X84004285Y-110412857D01*
X84004285Y-110555714D01*
X83956666Y-110650952D01*
X83909047Y-110698571D01*
X83813809Y-110746190D01*
X83432857Y-110746190D01*
X84480476Y-111222380D02*
X84670952Y-111222380D01*
X84766190Y-111174761D01*
X84813809Y-111127142D01*
X84909047Y-110984285D01*
X84956666Y-110793809D01*
X84956666Y-110412857D01*
X84909047Y-110317619D01*
X84861428Y-110270000D01*
X84766190Y-110222380D01*
X84575714Y-110222380D01*
X84480476Y-110270000D01*
X84432857Y-110317619D01*
X84385238Y-110412857D01*
X84385238Y-110650952D01*
X84432857Y-110746190D01*
X84480476Y-110793809D01*
X84575714Y-110841428D01*
X84766190Y-110841428D01*
X84861428Y-110793809D01*
X84909047Y-110746190D01*
X84956666Y-110650952D01*
%TO.C,R2*%
X118243333Y-122222380D02*
X117910000Y-121746190D01*
X117671904Y-122222380D02*
X117671904Y-121222380D01*
X118052857Y-121222380D01*
X118148095Y-121270000D01*
X118195714Y-121317619D01*
X118243333Y-121412857D01*
X118243333Y-121555714D01*
X118195714Y-121650952D01*
X118148095Y-121698571D01*
X118052857Y-121746190D01*
X117671904Y-121746190D01*
X118624285Y-121317619D02*
X118671904Y-121270000D01*
X118767142Y-121222380D01*
X119005238Y-121222380D01*
X119100476Y-121270000D01*
X119148095Y-121317619D01*
X119195714Y-121412857D01*
X119195714Y-121508095D01*
X119148095Y-121650952D01*
X118576666Y-122222380D01*
X119195714Y-122222380D01*
%TO.C,R9*%
X79982380Y-131866666D02*
X79506190Y-132200000D01*
X79982380Y-132438095D02*
X78982380Y-132438095D01*
X78982380Y-132057142D01*
X79030000Y-131961904D01*
X79077619Y-131914285D01*
X79172857Y-131866666D01*
X79315714Y-131866666D01*
X79410952Y-131914285D01*
X79458571Y-131961904D01*
X79506190Y-132057142D01*
X79506190Y-132438095D01*
X79982380Y-131390476D02*
X79982380Y-131200000D01*
X79934761Y-131104761D01*
X79887142Y-131057142D01*
X79744285Y-130961904D01*
X79553809Y-130914285D01*
X79172857Y-130914285D01*
X79077619Y-130961904D01*
X79030000Y-131009523D01*
X78982380Y-131104761D01*
X78982380Y-131295238D01*
X79030000Y-131390476D01*
X79077619Y-131438095D01*
X79172857Y-131485714D01*
X79410952Y-131485714D01*
X79506190Y-131438095D01*
X79553809Y-131390476D01*
X79601428Y-131295238D01*
X79601428Y-131104761D01*
X79553809Y-131009523D01*
X79506190Y-130961904D01*
X79410952Y-130914285D01*
%TO.C,C17*%
X93627142Y-108267142D02*
X93579523Y-108314761D01*
X93436666Y-108362380D01*
X93341428Y-108362380D01*
X93198571Y-108314761D01*
X93103333Y-108219523D01*
X93055714Y-108124285D01*
X93008095Y-107933809D01*
X93008095Y-107790952D01*
X93055714Y-107600476D01*
X93103333Y-107505238D01*
X93198571Y-107410000D01*
X93341428Y-107362380D01*
X93436666Y-107362380D01*
X93579523Y-107410000D01*
X93627142Y-107457619D01*
X94579523Y-108362380D02*
X94008095Y-108362380D01*
X94293809Y-108362380D02*
X94293809Y-107362380D01*
X94198571Y-107505238D01*
X94103333Y-107600476D01*
X94008095Y-107648095D01*
X94912857Y-107362380D02*
X95579523Y-107362380D01*
X95150952Y-108362380D01*
%TO.C,JP1*%
X124596666Y-108762380D02*
X124596666Y-109476666D01*
X124549047Y-109619523D01*
X124453809Y-109714761D01*
X124310952Y-109762380D01*
X124215714Y-109762380D01*
X125072857Y-109762380D02*
X125072857Y-108762380D01*
X125453809Y-108762380D01*
X125549047Y-108810000D01*
X125596666Y-108857619D01*
X125644285Y-108952857D01*
X125644285Y-109095714D01*
X125596666Y-109190952D01*
X125549047Y-109238571D01*
X125453809Y-109286190D01*
X125072857Y-109286190D01*
X126596666Y-109762380D02*
X126025238Y-109762380D01*
X126310952Y-109762380D02*
X126310952Y-108762380D01*
X126215714Y-108905238D01*
X126120476Y-109000476D01*
X126025238Y-109048095D01*
%TO.C,R22*%
X103947142Y-54452380D02*
X103613809Y-53976190D01*
X103375714Y-54452380D02*
X103375714Y-53452380D01*
X103756666Y-53452380D01*
X103851904Y-53500000D01*
X103899523Y-53547619D01*
X103947142Y-53642857D01*
X103947142Y-53785714D01*
X103899523Y-53880952D01*
X103851904Y-53928571D01*
X103756666Y-53976190D01*
X103375714Y-53976190D01*
X104328095Y-53547619D02*
X104375714Y-53500000D01*
X104470952Y-53452380D01*
X104709047Y-53452380D01*
X104804285Y-53500000D01*
X104851904Y-53547619D01*
X104899523Y-53642857D01*
X104899523Y-53738095D01*
X104851904Y-53880952D01*
X104280476Y-54452380D01*
X104899523Y-54452380D01*
X105280476Y-53547619D02*
X105328095Y-53500000D01*
X105423333Y-53452380D01*
X105661428Y-53452380D01*
X105756666Y-53500000D01*
X105804285Y-53547619D01*
X105851904Y-53642857D01*
X105851904Y-53738095D01*
X105804285Y-53880952D01*
X105232857Y-54452380D01*
X105851904Y-54452380D01*
%TO.C,C8*%
X113513333Y-104627142D02*
X113465714Y-104674761D01*
X113322857Y-104722380D01*
X113227619Y-104722380D01*
X113084761Y-104674761D01*
X112989523Y-104579523D01*
X112941904Y-104484285D01*
X112894285Y-104293809D01*
X112894285Y-104150952D01*
X112941904Y-103960476D01*
X112989523Y-103865238D01*
X113084761Y-103770000D01*
X113227619Y-103722380D01*
X113322857Y-103722380D01*
X113465714Y-103770000D01*
X113513333Y-103817619D01*
X114084761Y-104150952D02*
X113989523Y-104103333D01*
X113941904Y-104055714D01*
X113894285Y-103960476D01*
X113894285Y-103912857D01*
X113941904Y-103817619D01*
X113989523Y-103770000D01*
X114084761Y-103722380D01*
X114275238Y-103722380D01*
X114370476Y-103770000D01*
X114418095Y-103817619D01*
X114465714Y-103912857D01*
X114465714Y-103960476D01*
X114418095Y-104055714D01*
X114370476Y-104103333D01*
X114275238Y-104150952D01*
X114084761Y-104150952D01*
X113989523Y-104198571D01*
X113941904Y-104246190D01*
X113894285Y-104341428D01*
X113894285Y-104531904D01*
X113941904Y-104627142D01*
X113989523Y-104674761D01*
X114084761Y-104722380D01*
X114275238Y-104722380D01*
X114370476Y-104674761D01*
X114418095Y-104627142D01*
X114465714Y-104531904D01*
X114465714Y-104341428D01*
X114418095Y-104246190D01*
X114370476Y-104198571D01*
X114275238Y-104150952D01*
%TO.C,C29*%
X95387142Y-136497142D02*
X95339523Y-136544761D01*
X95196666Y-136592380D01*
X95101428Y-136592380D01*
X94958571Y-136544761D01*
X94863333Y-136449523D01*
X94815714Y-136354285D01*
X94768095Y-136163809D01*
X94768095Y-136020952D01*
X94815714Y-135830476D01*
X94863333Y-135735238D01*
X94958571Y-135640000D01*
X95101428Y-135592380D01*
X95196666Y-135592380D01*
X95339523Y-135640000D01*
X95387142Y-135687619D01*
X95768095Y-135687619D02*
X95815714Y-135640000D01*
X95910952Y-135592380D01*
X96149047Y-135592380D01*
X96244285Y-135640000D01*
X96291904Y-135687619D01*
X96339523Y-135782857D01*
X96339523Y-135878095D01*
X96291904Y-136020952D01*
X95720476Y-136592380D01*
X96339523Y-136592380D01*
X96815714Y-136592380D02*
X97006190Y-136592380D01*
X97101428Y-136544761D01*
X97149047Y-136497142D01*
X97244285Y-136354285D01*
X97291904Y-136163809D01*
X97291904Y-135782857D01*
X97244285Y-135687619D01*
X97196666Y-135640000D01*
X97101428Y-135592380D01*
X96910952Y-135592380D01*
X96815714Y-135640000D01*
X96768095Y-135687619D01*
X96720476Y-135782857D01*
X96720476Y-136020952D01*
X96768095Y-136116190D01*
X96815714Y-136163809D01*
X96910952Y-136211428D01*
X97101428Y-136211428D01*
X97196666Y-136163809D01*
X97244285Y-136116190D01*
X97291904Y-136020952D01*
%TO.C,TP14*%
X106091904Y-127004380D02*
X106663333Y-127004380D01*
X106377619Y-128004380D02*
X106377619Y-127004380D01*
X106996666Y-128004380D02*
X106996666Y-127004380D01*
X107377619Y-127004380D01*
X107472857Y-127052000D01*
X107520476Y-127099619D01*
X107568095Y-127194857D01*
X107568095Y-127337714D01*
X107520476Y-127432952D01*
X107472857Y-127480571D01*
X107377619Y-127528190D01*
X106996666Y-127528190D01*
X108520476Y-128004380D02*
X107949047Y-128004380D01*
X108234761Y-128004380D02*
X108234761Y-127004380D01*
X108139523Y-127147238D01*
X108044285Y-127242476D01*
X107949047Y-127290095D01*
X109377619Y-127337714D02*
X109377619Y-128004380D01*
X109139523Y-126956761D02*
X108901428Y-127671047D01*
X109520476Y-127671047D01*
%TO.C,C27*%
X122877142Y-72587142D02*
X122829523Y-72634761D01*
X122686666Y-72682380D01*
X122591428Y-72682380D01*
X122448571Y-72634761D01*
X122353333Y-72539523D01*
X122305714Y-72444285D01*
X122258095Y-72253809D01*
X122258095Y-72110952D01*
X122305714Y-71920476D01*
X122353333Y-71825238D01*
X122448571Y-71730000D01*
X122591428Y-71682380D01*
X122686666Y-71682380D01*
X122829523Y-71730000D01*
X122877142Y-71777619D01*
X123258095Y-71777619D02*
X123305714Y-71730000D01*
X123400952Y-71682380D01*
X123639047Y-71682380D01*
X123734285Y-71730000D01*
X123781904Y-71777619D01*
X123829523Y-71872857D01*
X123829523Y-71968095D01*
X123781904Y-72110952D01*
X123210476Y-72682380D01*
X123829523Y-72682380D01*
X124162857Y-71682380D02*
X124829523Y-71682380D01*
X124400952Y-72682380D01*
%TO.C,TP20*%
X113151904Y-62672380D02*
X113723333Y-62672380D01*
X113437619Y-63672380D02*
X113437619Y-62672380D01*
X114056666Y-63672380D02*
X114056666Y-62672380D01*
X114437619Y-62672380D01*
X114532857Y-62720000D01*
X114580476Y-62767619D01*
X114628095Y-62862857D01*
X114628095Y-63005714D01*
X114580476Y-63100952D01*
X114532857Y-63148571D01*
X114437619Y-63196190D01*
X114056666Y-63196190D01*
X115009047Y-62767619D02*
X115056666Y-62720000D01*
X115151904Y-62672380D01*
X115390000Y-62672380D01*
X115485238Y-62720000D01*
X115532857Y-62767619D01*
X115580476Y-62862857D01*
X115580476Y-62958095D01*
X115532857Y-63100952D01*
X114961428Y-63672380D01*
X115580476Y-63672380D01*
X116199523Y-62672380D02*
X116294761Y-62672380D01*
X116390000Y-62720000D01*
X116437619Y-62767619D01*
X116485238Y-62862857D01*
X116532857Y-63053333D01*
X116532857Y-63291428D01*
X116485238Y-63481904D01*
X116437619Y-63577142D01*
X116390000Y-63624761D01*
X116294761Y-63672380D01*
X116199523Y-63672380D01*
X116104285Y-63624761D01*
X116056666Y-63577142D01*
X116009047Y-63481904D01*
X115961428Y-63291428D01*
X115961428Y-63053333D01*
X116009047Y-62862857D01*
X116056666Y-62767619D01*
X116104285Y-62720000D01*
X116199523Y-62672380D01*
%TO.C,TP2*%
X111342380Y-138161904D02*
X111342380Y-137590476D01*
X112342380Y-137876190D02*
X111342380Y-137876190D01*
X112342380Y-137257142D02*
X111342380Y-137257142D01*
X111342380Y-136876190D01*
X111390000Y-136780952D01*
X111437619Y-136733333D01*
X111532857Y-136685714D01*
X111675714Y-136685714D01*
X111770952Y-136733333D01*
X111818571Y-136780952D01*
X111866190Y-136876190D01*
X111866190Y-137257142D01*
X111437619Y-136304761D02*
X111390000Y-136257142D01*
X111342380Y-136161904D01*
X111342380Y-135923809D01*
X111390000Y-135828571D01*
X111437619Y-135780952D01*
X111532857Y-135733333D01*
X111628095Y-135733333D01*
X111770952Y-135780952D01*
X112342380Y-136352380D01*
X112342380Y-135733333D01*
%TO.C,C20*%
X118787142Y-97017142D02*
X118739523Y-97064761D01*
X118596666Y-97112380D01*
X118501428Y-97112380D01*
X118358571Y-97064761D01*
X118263333Y-96969523D01*
X118215714Y-96874285D01*
X118168095Y-96683809D01*
X118168095Y-96540952D01*
X118215714Y-96350476D01*
X118263333Y-96255238D01*
X118358571Y-96160000D01*
X118501428Y-96112380D01*
X118596666Y-96112380D01*
X118739523Y-96160000D01*
X118787142Y-96207619D01*
X119168095Y-96207619D02*
X119215714Y-96160000D01*
X119310952Y-96112380D01*
X119549047Y-96112380D01*
X119644285Y-96160000D01*
X119691904Y-96207619D01*
X119739523Y-96302857D01*
X119739523Y-96398095D01*
X119691904Y-96540952D01*
X119120476Y-97112380D01*
X119739523Y-97112380D01*
X120358571Y-96112380D02*
X120453809Y-96112380D01*
X120549047Y-96160000D01*
X120596666Y-96207619D01*
X120644285Y-96302857D01*
X120691904Y-96493333D01*
X120691904Y-96731428D01*
X120644285Y-96921904D01*
X120596666Y-97017142D01*
X120549047Y-97064761D01*
X120453809Y-97112380D01*
X120358571Y-97112380D01*
X120263333Y-97064761D01*
X120215714Y-97017142D01*
X120168095Y-96921904D01*
X120120476Y-96731428D01*
X120120476Y-96493333D01*
X120168095Y-96302857D01*
X120215714Y-96207619D01*
X120263333Y-96160000D01*
X120358571Y-96112380D01*
%TO.C,R21*%
X92937142Y-54372380D02*
X92603809Y-53896190D01*
X92365714Y-54372380D02*
X92365714Y-53372380D01*
X92746666Y-53372380D01*
X92841904Y-53420000D01*
X92889523Y-53467619D01*
X92937142Y-53562857D01*
X92937142Y-53705714D01*
X92889523Y-53800952D01*
X92841904Y-53848571D01*
X92746666Y-53896190D01*
X92365714Y-53896190D01*
X93318095Y-53467619D02*
X93365714Y-53420000D01*
X93460952Y-53372380D01*
X93699047Y-53372380D01*
X93794285Y-53420000D01*
X93841904Y-53467619D01*
X93889523Y-53562857D01*
X93889523Y-53658095D01*
X93841904Y-53800952D01*
X93270476Y-54372380D01*
X93889523Y-54372380D01*
X94841904Y-54372380D02*
X94270476Y-54372380D01*
X94556190Y-54372380D02*
X94556190Y-53372380D01*
X94460952Y-53515238D01*
X94365714Y-53610476D01*
X94270476Y-53658095D01*
%TO.C,C47*%
X101737142Y-94837142D02*
X101689523Y-94884761D01*
X101546666Y-94932380D01*
X101451428Y-94932380D01*
X101308571Y-94884761D01*
X101213333Y-94789523D01*
X101165714Y-94694285D01*
X101118095Y-94503809D01*
X101118095Y-94360952D01*
X101165714Y-94170476D01*
X101213333Y-94075238D01*
X101308571Y-93980000D01*
X101451428Y-93932380D01*
X101546666Y-93932380D01*
X101689523Y-93980000D01*
X101737142Y-94027619D01*
X102594285Y-94265714D02*
X102594285Y-94932380D01*
X102356190Y-93884761D02*
X102118095Y-94599047D01*
X102737142Y-94599047D01*
X103022857Y-93932380D02*
X103689523Y-93932380D01*
X103260952Y-94932380D01*
%TO.C,C24*%
X94017142Y-132312857D02*
X94064761Y-132360476D01*
X94112380Y-132503333D01*
X94112380Y-132598571D01*
X94064761Y-132741428D01*
X93969523Y-132836666D01*
X93874285Y-132884285D01*
X93683809Y-132931904D01*
X93540952Y-132931904D01*
X93350476Y-132884285D01*
X93255238Y-132836666D01*
X93160000Y-132741428D01*
X93112380Y-132598571D01*
X93112380Y-132503333D01*
X93160000Y-132360476D01*
X93207619Y-132312857D01*
X93207619Y-131931904D02*
X93160000Y-131884285D01*
X93112380Y-131789047D01*
X93112380Y-131550952D01*
X93160000Y-131455714D01*
X93207619Y-131408095D01*
X93302857Y-131360476D01*
X93398095Y-131360476D01*
X93540952Y-131408095D01*
X94112380Y-131979523D01*
X94112380Y-131360476D01*
X93445714Y-130503333D02*
X94112380Y-130503333D01*
X93064761Y-130741428D02*
X93779047Y-130979523D01*
X93779047Y-130360476D01*
%TO.C,R5*%
X118263333Y-119722380D02*
X117930000Y-119246190D01*
X117691904Y-119722380D02*
X117691904Y-118722380D01*
X118072857Y-118722380D01*
X118168095Y-118770000D01*
X118215714Y-118817619D01*
X118263333Y-118912857D01*
X118263333Y-119055714D01*
X118215714Y-119150952D01*
X118168095Y-119198571D01*
X118072857Y-119246190D01*
X117691904Y-119246190D01*
X119168095Y-118722380D02*
X118691904Y-118722380D01*
X118644285Y-119198571D01*
X118691904Y-119150952D01*
X118787142Y-119103333D01*
X119025238Y-119103333D01*
X119120476Y-119150952D01*
X119168095Y-119198571D01*
X119215714Y-119293809D01*
X119215714Y-119531904D01*
X119168095Y-119627142D01*
X119120476Y-119674761D01*
X119025238Y-119722380D01*
X118787142Y-119722380D01*
X118691904Y-119674761D01*
X118644285Y-119627142D01*
%TO.C,C36*%
X90017342Y-89723342D02*
X89969723Y-89770961D01*
X89826866Y-89818580D01*
X89731628Y-89818580D01*
X89588771Y-89770961D01*
X89493533Y-89675723D01*
X89445914Y-89580485D01*
X89398295Y-89390009D01*
X89398295Y-89247152D01*
X89445914Y-89056676D01*
X89493533Y-88961438D01*
X89588771Y-88866200D01*
X89731628Y-88818580D01*
X89826866Y-88818580D01*
X89969723Y-88866200D01*
X90017342Y-88913819D01*
X90350676Y-88818580D02*
X90969723Y-88818580D01*
X90636390Y-89199533D01*
X90779247Y-89199533D01*
X90874485Y-89247152D01*
X90922104Y-89294771D01*
X90969723Y-89390009D01*
X90969723Y-89628104D01*
X90922104Y-89723342D01*
X90874485Y-89770961D01*
X90779247Y-89818580D01*
X90493533Y-89818580D01*
X90398295Y-89770961D01*
X90350676Y-89723342D01*
X91826866Y-88818580D02*
X91636390Y-88818580D01*
X91541152Y-88866200D01*
X91493533Y-88913819D01*
X91398295Y-89056676D01*
X91350676Y-89247152D01*
X91350676Y-89628104D01*
X91398295Y-89723342D01*
X91445914Y-89770961D01*
X91541152Y-89818580D01*
X91731628Y-89818580D01*
X91826866Y-89770961D01*
X91874485Y-89723342D01*
X91922104Y-89628104D01*
X91922104Y-89390009D01*
X91874485Y-89294771D01*
X91826866Y-89247152D01*
X91731628Y-89199533D01*
X91541152Y-89199533D01*
X91445914Y-89247152D01*
X91398295Y-89294771D01*
X91350676Y-89390009D01*
%TO.C,C9*%
X112277142Y-112826666D02*
X112324761Y-112874285D01*
X112372380Y-113017142D01*
X112372380Y-113112380D01*
X112324761Y-113255238D01*
X112229523Y-113350476D01*
X112134285Y-113398095D01*
X111943809Y-113445714D01*
X111800952Y-113445714D01*
X111610476Y-113398095D01*
X111515238Y-113350476D01*
X111420000Y-113255238D01*
X111372380Y-113112380D01*
X111372380Y-113017142D01*
X111420000Y-112874285D01*
X111467619Y-112826666D01*
X112372380Y-112350476D02*
X112372380Y-112160000D01*
X112324761Y-112064761D01*
X112277142Y-112017142D01*
X112134285Y-111921904D01*
X111943809Y-111874285D01*
X111562857Y-111874285D01*
X111467619Y-111921904D01*
X111420000Y-111969523D01*
X111372380Y-112064761D01*
X111372380Y-112255238D01*
X111420000Y-112350476D01*
X111467619Y-112398095D01*
X111562857Y-112445714D01*
X111800952Y-112445714D01*
X111896190Y-112398095D01*
X111943809Y-112350476D01*
X111991428Y-112255238D01*
X111991428Y-112064761D01*
X111943809Y-111969523D01*
X111896190Y-111921904D01*
X111800952Y-111874285D01*
%TO.C,U11*%
X125031904Y-66682380D02*
X125031904Y-67491904D01*
X125079523Y-67587142D01*
X125127142Y-67634761D01*
X125222380Y-67682380D01*
X125412857Y-67682380D01*
X125508095Y-67634761D01*
X125555714Y-67587142D01*
X125603333Y-67491904D01*
X125603333Y-66682380D01*
X126603333Y-67682380D02*
X126031904Y-67682380D01*
X126317619Y-67682380D02*
X126317619Y-66682380D01*
X126222380Y-66825238D01*
X126127142Y-66920476D01*
X126031904Y-66968095D01*
X127555714Y-67682380D02*
X126984285Y-67682380D01*
X127270000Y-67682380D02*
X127270000Y-66682380D01*
X127174761Y-66825238D01*
X127079523Y-66920476D01*
X126984285Y-66968095D01*
%TO.C,C37*%
X90042742Y-93057942D02*
X89995123Y-93105561D01*
X89852266Y-93153180D01*
X89757028Y-93153180D01*
X89614171Y-93105561D01*
X89518933Y-93010323D01*
X89471314Y-92915085D01*
X89423695Y-92724609D01*
X89423695Y-92581752D01*
X89471314Y-92391276D01*
X89518933Y-92296038D01*
X89614171Y-92200800D01*
X89757028Y-92153180D01*
X89852266Y-92153180D01*
X89995123Y-92200800D01*
X90042742Y-92248419D01*
X90376076Y-92153180D02*
X90995123Y-92153180D01*
X90661790Y-92534133D01*
X90804647Y-92534133D01*
X90899885Y-92581752D01*
X90947504Y-92629371D01*
X90995123Y-92724609D01*
X90995123Y-92962704D01*
X90947504Y-93057942D01*
X90899885Y-93105561D01*
X90804647Y-93153180D01*
X90518933Y-93153180D01*
X90423695Y-93105561D01*
X90376076Y-93057942D01*
X91328457Y-92153180D02*
X91995123Y-92153180D01*
X91566552Y-93153180D01*
%TO.C,R28*%
X92957142Y-56892380D02*
X92623809Y-56416190D01*
X92385714Y-56892380D02*
X92385714Y-55892380D01*
X92766666Y-55892380D01*
X92861904Y-55940000D01*
X92909523Y-55987619D01*
X92957142Y-56082857D01*
X92957142Y-56225714D01*
X92909523Y-56320952D01*
X92861904Y-56368571D01*
X92766666Y-56416190D01*
X92385714Y-56416190D01*
X93338095Y-55987619D02*
X93385714Y-55940000D01*
X93480952Y-55892380D01*
X93719047Y-55892380D01*
X93814285Y-55940000D01*
X93861904Y-55987619D01*
X93909523Y-56082857D01*
X93909523Y-56178095D01*
X93861904Y-56320952D01*
X93290476Y-56892380D01*
X93909523Y-56892380D01*
X94480952Y-56320952D02*
X94385714Y-56273333D01*
X94338095Y-56225714D01*
X94290476Y-56130476D01*
X94290476Y-56082857D01*
X94338095Y-55987619D01*
X94385714Y-55940000D01*
X94480952Y-55892380D01*
X94671428Y-55892380D01*
X94766666Y-55940000D01*
X94814285Y-55987619D01*
X94861904Y-56082857D01*
X94861904Y-56130476D01*
X94814285Y-56225714D01*
X94766666Y-56273333D01*
X94671428Y-56320952D01*
X94480952Y-56320952D01*
X94385714Y-56368571D01*
X94338095Y-56416190D01*
X94290476Y-56511428D01*
X94290476Y-56701904D01*
X94338095Y-56797142D01*
X94385714Y-56844761D01*
X94480952Y-56892380D01*
X94671428Y-56892380D01*
X94766666Y-56844761D01*
X94814285Y-56797142D01*
X94861904Y-56701904D01*
X94861904Y-56511428D01*
X94814285Y-56416190D01*
X94766666Y-56368571D01*
X94671428Y-56320952D01*
%TO.C,R8*%
X92853333Y-120222380D02*
X92520000Y-119746190D01*
X92281904Y-120222380D02*
X92281904Y-119222380D01*
X92662857Y-119222380D01*
X92758095Y-119270000D01*
X92805714Y-119317619D01*
X92853333Y-119412857D01*
X92853333Y-119555714D01*
X92805714Y-119650952D01*
X92758095Y-119698571D01*
X92662857Y-119746190D01*
X92281904Y-119746190D01*
X93424761Y-119650952D02*
X93329523Y-119603333D01*
X93281904Y-119555714D01*
X93234285Y-119460476D01*
X93234285Y-119412857D01*
X93281904Y-119317619D01*
X93329523Y-119270000D01*
X93424761Y-119222380D01*
X93615238Y-119222380D01*
X93710476Y-119270000D01*
X93758095Y-119317619D01*
X93805714Y-119412857D01*
X93805714Y-119460476D01*
X93758095Y-119555714D01*
X93710476Y-119603333D01*
X93615238Y-119650952D01*
X93424761Y-119650952D01*
X93329523Y-119698571D01*
X93281904Y-119746190D01*
X93234285Y-119841428D01*
X93234285Y-120031904D01*
X93281904Y-120127142D01*
X93329523Y-120174761D01*
X93424761Y-120222380D01*
X93615238Y-120222380D01*
X93710476Y-120174761D01*
X93758095Y-120127142D01*
X93805714Y-120031904D01*
X93805714Y-119841428D01*
X93758095Y-119746190D01*
X93710476Y-119698571D01*
X93615238Y-119650952D01*
D11*
%TO.C,R26*%
X95956359Y-54840000D02*
X96263641Y-54840000D01*
X95956359Y-55600000D02*
X96263641Y-55600000D01*
%TO.C,C43*%
X103530600Y-70559052D02*
X103530600Y-70036548D01*
X105000600Y-70559052D02*
X105000600Y-70036548D01*
%TO.C,C19*%
X124317836Y-102120000D02*
X124102164Y-102120000D01*
X124317836Y-102840000D02*
X124102164Y-102840000D01*
D12*
%TO.C,U3*%
X131500000Y-100380000D02*
X128600000Y-100380000D01*
X131500000Y-98780000D02*
X131500000Y-100380000D01*
X128600000Y-100380000D02*
X128600000Y-98780000D01*
X128600000Y-98780000D02*
X131500000Y-98780000D01*
D13*
X129050000Y-102080000D02*
G75*
G03*
X129050000Y-102080000I-100000J0D01*
G01*
D14*
%TO.C,U8*%
X80440000Y-84270000D02*
X80420000Y-79270000D01*
X84840000Y-84270000D02*
X80440000Y-84270000D01*
X84840000Y-79270000D02*
X84840000Y-84270000D01*
X80420000Y-79270000D02*
X84840000Y-79270000D01*
D15*
X78755299Y-79320000D02*
G75*
G03*
X78755299Y-79320000I-155299J0D01*
G01*
D11*
%TO.C,C7*%
X99460000Y-114522164D02*
X99460000Y-114737836D01*
X100180000Y-114522164D02*
X100180000Y-114737836D01*
%TO.C,R7*%
X93756359Y-117050000D02*
X94063641Y-117050000D01*
X93756359Y-116290000D02*
X94063641Y-116290000D01*
%TO.C,R13*%
X91029600Y-63925359D02*
X91029600Y-64232641D01*
X90269600Y-63925359D02*
X90269600Y-64232641D01*
%TO.C,TP26*%
X101470000Y-58700000D02*
G75*
G03*
X101470000Y-58700000I-950000J0D01*
G01*
%TO.C,TP31*%
X131980000Y-72850000D02*
G75*
G03*
X131980000Y-72850000I-950000J0D01*
G01*
%TO.C,C1*%
X115357836Y-127450000D02*
X115142164Y-127450000D01*
X115357836Y-128170000D02*
X115142164Y-128170000D01*
%TO.C,C41*%
X97666652Y-62270800D02*
X97144148Y-62270800D01*
X97666652Y-63740800D02*
X97144148Y-63740800D01*
%TO.C,TP19*%
X131980000Y-67910000D02*
G75*
G03*
X131980000Y-67910000I-950000J0D01*
G01*
%TO.C,JP2*%
X121660000Y-110640000D02*
X123060000Y-110640000D01*
X123060000Y-112640000D02*
X121660000Y-112640000D01*
X120960000Y-111940000D02*
X120960000Y-111340000D01*
X123760000Y-111340000D02*
X123760000Y-111940000D01*
X123760000Y-111340000D02*
G75*
G03*
X123060000Y-110640000I-699999J1D01*
G01*
X121660000Y-110640000D02*
G75*
G03*
X120960000Y-111340000I0J-700000D01*
G01*
X120960000Y-111940000D02*
G75*
G03*
X121660000Y-112640000I700000J0D01*
G01*
X123060000Y-112640000D02*
G75*
G03*
X123760000Y-111940000I1J699999D01*
G01*
%TO.C,R1*%
X118643641Y-116140000D02*
X118336359Y-116140000D01*
X118643641Y-116900000D02*
X118336359Y-116900000D01*
%TO.C,C3*%
X114547836Y-108150000D02*
X114332164Y-108150000D01*
X114547836Y-107430000D02*
X114332164Y-107430000D01*
%TO.C,C38*%
X102518000Y-67900348D02*
X102518000Y-68422852D01*
X101048000Y-67900348D02*
X101048000Y-68422852D01*
%TO.C,TP5*%
X112390000Y-130160000D02*
G75*
G03*
X112390000Y-130160000I-950000J0D01*
G01*
%TO.C,R27*%
X106806359Y-54800000D02*
X107113641Y-54800000D01*
X106806359Y-55560000D02*
X107113641Y-55560000D01*
%TO.C,C25*%
X105180000Y-130132164D02*
X105180000Y-130347836D01*
X105900000Y-130132164D02*
X105900000Y-130347836D01*
%TO.C,C45*%
X91808748Y-65685000D02*
X92331252Y-65685000D01*
X91808748Y-67155000D02*
X92331252Y-67155000D01*
%TO.C,TP16*%
X86520000Y-139110000D02*
G75*
G03*
X86520000Y-139110000I-950000J0D01*
G01*
%TO.C,TP15*%
X85640000Y-143470000D02*
G75*
G03*
X85640000Y-143470000I-950000J0D01*
G01*
%TO.C,U5*%
X90620000Y-130900000D02*
X89820000Y-130900000D01*
X90620000Y-127780000D02*
X91420000Y-127780000D01*
X90620000Y-130900000D02*
X91420000Y-130900000D01*
X90620000Y-127780000D02*
X88820000Y-127780000D01*
%TO.C,C51*%
X131128748Y-82005000D02*
X131651252Y-82005000D01*
X131128748Y-83475000D02*
X131651252Y-83475000D01*
%TO.C,R30*%
X123690000Y-91723641D02*
X123690000Y-91416359D01*
X124450000Y-91723641D02*
X124450000Y-91416359D01*
%TO.C,R6*%
X97880000Y-121186359D02*
X97880000Y-121493641D01*
X97120000Y-121186359D02*
X97120000Y-121493641D01*
%TO.C,TP30*%
X115800000Y-58630000D02*
G75*
G03*
X115800000Y-58630000I-950000J0D01*
G01*
%TO.C,U6*%
X102320000Y-128680000D02*
X103120000Y-128680000D01*
X102320000Y-131800000D02*
X101520000Y-131800000D01*
X102320000Y-128680000D02*
X100520000Y-128680000D01*
X102320000Y-131800000D02*
X103120000Y-131800000D01*
%TO.C,C50*%
X130152164Y-77900000D02*
X130367836Y-77900000D01*
X130152164Y-78620000D02*
X130367836Y-78620000D01*
%TO.C,C4*%
X111020000Y-121427836D02*
X111020000Y-121212164D01*
X110300000Y-121427836D02*
X110300000Y-121212164D01*
D10*
%TO.C,U7*%
X80180000Y-134680000D02*
X83180000Y-134680000D01*
X80180000Y-137680000D02*
X80180000Y-134680000D01*
X83180000Y-134680000D02*
X83180000Y-137680000D01*
X83180000Y-137680000D02*
X80180000Y-137680000D01*
D16*
X83187082Y-133175835D02*
G75*
G03*
X83187082Y-133175835I-127082J0D01*
G01*
D11*
%TO.C,C12*%
X99407836Y-104600000D02*
X99192164Y-104600000D01*
X99407836Y-103880000D02*
X99192164Y-103880000D01*
%TO.C,C52*%
X131162164Y-80190000D02*
X131377836Y-80190000D01*
X131162164Y-80910000D02*
X131377836Y-80910000D01*
%TO.C,R31*%
X121900000Y-91723641D02*
X121900000Y-91416359D01*
X121140000Y-91723641D02*
X121140000Y-91416359D01*
%TO.C,JP3*%
X123060000Y-115030000D02*
X121660000Y-115030000D01*
X123760000Y-113730000D02*
X123760000Y-114330000D01*
X120960000Y-114330000D02*
X120960000Y-113730000D01*
X121660000Y-113030000D02*
X123060000Y-113030000D01*
X120960000Y-114330000D02*
G75*
G03*
X121660000Y-115030000I700000J0D01*
G01*
X123760000Y-113730000D02*
G75*
G03*
X123060000Y-113030000I-699999J1D01*
G01*
X123060000Y-115030000D02*
G75*
G03*
X123760000Y-114330000I1J699999D01*
G01*
X121660000Y-113030000D02*
G75*
G03*
X120960000Y-113730000I0J-700000D01*
G01*
%TO.C,R29*%
X106806359Y-55810000D02*
X107113641Y-55810000D01*
X106806359Y-56570000D02*
X107113641Y-56570000D01*
%TO.C,TP21*%
X131500000Y-91930000D02*
G75*
G03*
X131500000Y-91930000I-950000J0D01*
G01*
%TO.C,C26*%
X129500000Y-96437836D02*
X129500000Y-96222164D01*
X128780000Y-96437836D02*
X128780000Y-96222164D01*
D12*
%TO.C,U2*%
X125910000Y-101310000D02*
X125910000Y-97810000D01*
X122410000Y-101310000D02*
X125910000Y-101310000D01*
X122410000Y-101310000D02*
X122410000Y-97810000D01*
X122410000Y-97810000D02*
X125910000Y-97810000D01*
D13*
X123510000Y-96875000D02*
G75*
G03*
X123510000Y-96875000I-100000J0D01*
G01*
D11*
%TO.C,R10*%
X95208800Y-63929959D02*
X95208800Y-64237241D01*
X94448800Y-63929959D02*
X94448800Y-64237241D01*
%TO.C,L1*%
X109500600Y-76921400D02*
X102500600Y-76921400D01*
X102500600Y-76921400D02*
X102500600Y-86921400D01*
X102500600Y-86921400D02*
X109500600Y-86921400D01*
X109500600Y-86921400D02*
X109500600Y-76921400D01*
%TO.C,R20*%
X127886359Y-77930000D02*
X128193641Y-77930000D01*
X127886359Y-78690000D02*
X128193641Y-78690000D01*
%TO.C,R15*%
X93845000Y-64232641D02*
X93845000Y-63925359D01*
X93085000Y-64232641D02*
X93085000Y-63925359D01*
%TO.C,TP29*%
X112970000Y-58630000D02*
G75*
G03*
X112970000Y-58630000I-950000J0D01*
G01*
%TO.C,C15*%
X98117836Y-106400000D02*
X97902164Y-106400000D01*
X98117836Y-105680000D02*
X97902164Y-105680000D01*
%TO.C,TP32*%
X96260000Y-121910000D02*
G75*
G03*
X96260000Y-121910000I-950000J0D01*
G01*
%TO.C,R16*%
X94483641Y-101660000D02*
X94176359Y-101660000D01*
X94483641Y-102420000D02*
X94176359Y-102420000D01*
%TO.C,TP28*%
X109980000Y-58620000D02*
G75*
G03*
X109980000Y-58620000I-950000J0D01*
G01*
%TO.C,C32*%
X94527836Y-118410000D02*
X94312164Y-118410000D01*
X94527836Y-117690000D02*
X94312164Y-117690000D01*
%TO.C,C16*%
X101070000Y-121427836D02*
X101070000Y-121212164D01*
X100350000Y-121427836D02*
X100350000Y-121212164D01*
%TO.C,R3*%
X116563641Y-117510000D02*
X116256359Y-117510000D01*
X116563641Y-118270000D02*
X116256359Y-118270000D01*
%TO.C,C49*%
X129630000Y-70482164D02*
X129630000Y-70697836D01*
X128910000Y-70482164D02*
X128910000Y-70697836D01*
%TO.C,TP12*%
X90300000Y-115300000D02*
G75*
G03*
X90300000Y-115300000I-950000J0D01*
G01*
%TO.C,C18*%
X96622164Y-110040000D02*
X96837836Y-110040000D01*
X96622164Y-109320000D02*
X96837836Y-109320000D01*
%TO.C,C40*%
X97644252Y-64533000D02*
X97121748Y-64533000D01*
X97644252Y-66003000D02*
X97121748Y-66003000D01*
D10*
%TO.C,U10*%
X94540000Y-101040000D02*
X91540000Y-101040000D01*
X91540000Y-98040000D02*
X94540000Y-98040000D01*
X94540000Y-98040000D02*
X94540000Y-101040000D01*
X91540000Y-101040000D02*
X91540000Y-98040000D01*
D16*
X90162917Y-98160000D02*
G75*
G03*
X90162917Y-98160000I-127082J0D01*
G01*
D11*
%TO.C,C39*%
X105007564Y-67120800D02*
X105223236Y-67120800D01*
X105007564Y-67840800D02*
X105223236Y-67840800D01*
%TO.C,C21*%
X127810000Y-101702164D02*
X127810000Y-101917836D01*
X127090000Y-101702164D02*
X127090000Y-101917836D01*
%TO.C,TP8*%
X87260000Y-114030000D02*
G75*
G03*
X87260000Y-114030000I-950000J0D01*
G01*
%TO.C,TP24*%
X118910000Y-102740000D02*
G75*
G03*
X118910000Y-102740000I-950000J0D01*
G01*
%TO.C,C35*%
X82277836Y-87360000D02*
X82062164Y-87360000D01*
X82277836Y-88080000D02*
X82062164Y-88080000D01*
%TO.C,TP6*%
X90150000Y-107450000D02*
G75*
G03*
X90150000Y-107450000I-950000J0D01*
G01*
%TO.C,C10*%
X109920000Y-114542164D02*
X109920000Y-114757836D01*
X110640000Y-114542164D02*
X110640000Y-114757836D01*
%TO.C,TP27*%
X104350000Y-58710000D02*
G75*
G03*
X104350000Y-58710000I-950000J0D01*
G01*
%TO.C,C11*%
X101010000Y-114512164D02*
X101010000Y-114727836D01*
X101730000Y-114512164D02*
X101730000Y-114727836D01*
%TO.C,R33*%
X116800000Y-91713641D02*
X116800000Y-91406359D01*
X116040000Y-91713641D02*
X116040000Y-91406359D01*
%TO.C,R14*%
X91677300Y-63925359D02*
X91677300Y-64232641D01*
X92437300Y-63925359D02*
X92437300Y-64232641D01*
%TO.C,R11*%
X104967559Y-65915400D02*
X105274841Y-65915400D01*
X104967559Y-66675400D02*
X105274841Y-66675400D01*
%TO.C,C14*%
X98830000Y-121427836D02*
X98830000Y-121212164D01*
X99550000Y-121427836D02*
X99550000Y-121212164D01*
%TO.C,C13*%
X103340000Y-109975000D02*
X103340000Y-118210000D01*
X107860000Y-118210000D02*
X107860000Y-109975000D01*
X107860000Y-109975000D02*
X103340000Y-109975000D01*
%TO.C,TP11*%
X92760000Y-121920000D02*
G75*
G03*
X92760000Y-121920000I-950000J0D01*
G01*
%TO.C,Q2*%
X100231600Y-77060200D02*
X95131600Y-77060200D01*
X95131600Y-77060200D02*
X95131600Y-83160200D01*
X95131600Y-83160200D02*
X100231600Y-83160200D01*
X100231600Y-83160200D02*
X100231600Y-77060200D01*
D17*
X94891713Y-83480200D02*
G75*
G03*
X94891713Y-83480200I-140113J0D01*
G01*
D11*
%TO.C,TP1*%
X121140000Y-124230000D02*
G75*
G03*
X121140000Y-124230000I-950000J0D01*
G01*
%TO.C,R23*%
X116266359Y-120900000D02*
X116573641Y-120900000D01*
X116266359Y-120140000D02*
X116573641Y-120140000D01*
%TO.C,C33*%
X82610000Y-130867836D02*
X82610000Y-130652164D01*
X83330000Y-130867836D02*
X83330000Y-130652164D01*
%TO.C,TP3*%
X115360000Y-140150000D02*
G75*
G03*
X115360000Y-140150000I-950000J0D01*
G01*
%TO.C,C44*%
X95822164Y-97500000D02*
X96037836Y-97500000D01*
X95822164Y-96780000D02*
X96037836Y-96780000D01*
%TO.C,U9*%
X99701691Y-67922200D02*
X96701691Y-67922200D01*
X96701691Y-67922200D02*
X96701691Y-70922200D01*
X96701691Y-70922200D02*
X99701691Y-70922200D01*
X99701691Y-70922200D02*
X99701691Y-67922200D01*
D18*
X99675182Y-67272200D02*
G75*
G03*
X99675182Y-67272200I-153491J0D01*
G01*
D11*
%TO.C,R36*%
X95936359Y-138120000D02*
X96243641Y-138120000D01*
X95936359Y-138880000D02*
X96243641Y-138880000D01*
%TO.C,TP25*%
X98630000Y-58680000D02*
G75*
G03*
X98630000Y-58680000I-950000J0D01*
G01*
%TO.C,C22*%
X90492164Y-132210000D02*
X90707836Y-132210000D01*
X90492164Y-131490000D02*
X90707836Y-131490000D01*
%TO.C,C6*%
X113247836Y-106390000D02*
X113032164Y-106390000D01*
X113247836Y-105670000D02*
X113032164Y-105670000D01*
D12*
%TO.C,C46*%
X104101600Y-91040200D02*
X104101600Y-88240200D01*
X104101600Y-88240200D02*
X100601600Y-88240200D01*
X104101600Y-91040200D02*
X100601600Y-91040200D01*
X100601600Y-91040200D02*
X100601600Y-88240200D01*
D11*
%TO.C,R18*%
X110836359Y-67060000D02*
X111143641Y-67060000D01*
X110836359Y-67820000D02*
X111143641Y-67820000D01*
%TO.C,Q1*%
X89169887Y-83116364D02*
X94269887Y-83116364D01*
X94269887Y-83116364D02*
X94269887Y-77016364D01*
X94269887Y-77016364D02*
X89169887Y-77016364D01*
X89169887Y-77016364D02*
X89169887Y-83116364D01*
D17*
X94790000Y-76696364D02*
G75*
G03*
X94790000Y-76696364I-140113J0D01*
G01*
D11*
%TO.C,R25*%
X90166359Y-138920000D02*
X90473641Y-138920000D01*
X90166359Y-138160000D02*
X90473641Y-138160000D01*
%TO.C,TP10*%
X88710000Y-126010000D02*
G75*
G03*
X88710000Y-126010000I-950000J0D01*
G01*
%TO.C,R32*%
X119340000Y-91723641D02*
X119340000Y-91416359D01*
X118580000Y-91723641D02*
X118580000Y-91416359D01*
%TO.C,R17*%
X91266359Y-102420000D02*
X91573641Y-102420000D01*
X91266359Y-101660000D02*
X91573641Y-101660000D01*
%TO.C,C42*%
X96561964Y-72768000D02*
X96777636Y-72768000D01*
X96561964Y-73488000D02*
X96777636Y-73488000D01*
%TO.C,TP7*%
X90130000Y-110620000D02*
G75*
G03*
X90130000Y-110620000I-950000J0D01*
G01*
%TO.C,C34*%
X93570348Y-87330200D02*
X94992852Y-87330200D01*
X93570348Y-84610200D02*
X94992852Y-84610200D01*
%TO.C,TP4*%
X117990000Y-140190000D02*
G75*
G03*
X117990000Y-140190000I-950000J0D01*
G01*
%TO.C,U1*%
X113940000Y-126620000D02*
X116440000Y-126620000D01*
X116440000Y-126620000D02*
X116440000Y-123420000D01*
X116440000Y-123420000D02*
X113940000Y-123420000D01*
X113940000Y-123420000D02*
X113940000Y-126620000D01*
D19*
X117356590Y-126780000D02*
G75*
G03*
X117356590Y-126780000I-156590J0D01*
G01*
D11*
%TO.C,TP13*%
X98620000Y-127850000D02*
G75*
G03*
X98620000Y-127850000I-950000J0D01*
G01*
%TO.C,R12*%
X99006559Y-73503400D02*
X99313841Y-73503400D01*
X99006559Y-72743400D02*
X99313841Y-72743400D01*
%TO.C,R4*%
X110143641Y-72140000D02*
X109836359Y-72140000D01*
X110143641Y-71380000D02*
X109836359Y-71380000D01*
%TO.C,R35*%
X110840000Y-91733641D02*
X110840000Y-91426359D01*
X111600000Y-91733641D02*
X111600000Y-91426359D01*
%TO.C,C2*%
X114332164Y-109290000D02*
X114547836Y-109290000D01*
X114332164Y-110010000D02*
X114547836Y-110010000D01*
%TO.C,R19*%
X110886359Y-69950000D02*
X111193641Y-69950000D01*
X110886359Y-70710000D02*
X111193641Y-70710000D01*
%TO.C,R24*%
X90443641Y-136970000D02*
X90136359Y-136970000D01*
X90443641Y-137730000D02*
X90136359Y-137730000D01*
%TO.C,R34*%
X114250000Y-91713641D02*
X114250000Y-91406359D01*
X113490000Y-91713641D02*
X113490000Y-91406359D01*
%TO.C,C23*%
X102102164Y-132250000D02*
X102317836Y-132250000D01*
X102102164Y-132970000D02*
X102317836Y-132970000D01*
%TO.C,C5*%
X111800000Y-121427836D02*
X111800000Y-121212164D01*
X112520000Y-121427836D02*
X112520000Y-121212164D01*
%TO.C,TP9*%
X87300000Y-110750000D02*
G75*
G03*
X87300000Y-110750000I-950000J0D01*
G01*
%TO.C,R2*%
X116533641Y-122120000D02*
X116226359Y-122120000D01*
X116533641Y-121360000D02*
X116226359Y-121360000D01*
%TO.C,R9*%
X81080000Y-131853641D02*
X81080000Y-131546359D01*
X80320000Y-131853641D02*
X80320000Y-131546359D01*
%TO.C,C17*%
X96837836Y-108140000D02*
X96622164Y-108140000D01*
X96837836Y-107420000D02*
X96622164Y-107420000D01*
%TO.C,JP1*%
X120960000Y-109550000D02*
X120960000Y-108950000D01*
X121660000Y-108250000D02*
X123060000Y-108250000D01*
X123060000Y-110250000D02*
X121660000Y-110250000D01*
X123760000Y-108950000D02*
X123760000Y-109550000D01*
X120960000Y-109550000D02*
G75*
G03*
X121660000Y-110250000I700000J0D01*
G01*
X123760000Y-108950000D02*
G75*
G03*
X123060000Y-108250000I-699999J1D01*
G01*
X123060000Y-110250000D02*
G75*
G03*
X123760000Y-109550000I1J699999D01*
G01*
X121660000Y-108250000D02*
G75*
G03*
X120960000Y-108950000I0J-700000D01*
G01*
%TO.C,R22*%
X106806359Y-54560000D02*
X107113641Y-54560000D01*
X106806359Y-53800000D02*
X107113641Y-53800000D01*
%TO.C,C8*%
X111917836Y-104600000D02*
X111702164Y-104600000D01*
X111917836Y-103880000D02*
X111702164Y-103880000D01*
%TO.C,C29*%
X96012164Y-137050000D02*
X96227836Y-137050000D01*
X96012164Y-137770000D02*
X96227836Y-137770000D01*
%TO.C,TP14*%
X108780000Y-129200000D02*
G75*
G03*
X108780000Y-129200000I-950000J0D01*
G01*
%TO.C,C27*%
X122837836Y-71400000D02*
X122622164Y-71400000D01*
X122837836Y-70680000D02*
X122622164Y-70680000D01*
%TO.C,TP20*%
X112820000Y-63120000D02*
G75*
G03*
X112820000Y-63120000I-950000J0D01*
G01*
%TO.C,TP2*%
X112840000Y-140150000D02*
G75*
G03*
X112840000Y-140150000I-950000J0D01*
G01*
%TO.C,C20*%
X121947836Y-97010000D02*
X121732164Y-97010000D01*
X121947836Y-96290000D02*
X121732164Y-96290000D01*
%TO.C,R21*%
X95956359Y-54600000D02*
X96263641Y-54600000D01*
X95956359Y-53840000D02*
X96263641Y-53840000D01*
%TO.C,C47*%
X103022852Y-93520200D02*
X101600348Y-93520200D01*
X103022852Y-91700200D02*
X101600348Y-91700200D01*
%TO.C,C24*%
X93990000Y-129042164D02*
X93990000Y-129257836D01*
X93270000Y-129042164D02*
X93270000Y-129257836D01*
%TO.C,R5*%
X116563641Y-119630000D02*
X116256359Y-119630000D01*
X116563641Y-118870000D02*
X116256359Y-118870000D01*
%TO.C,C36*%
X93530348Y-88020200D02*
X94952852Y-88020200D01*
X93530348Y-90740200D02*
X94952852Y-90740200D01*
%TO.C,C9*%
X111510000Y-114602164D02*
X111510000Y-114817836D01*
X112230000Y-114602164D02*
X112230000Y-114817836D01*
D14*
%TO.C,U11*%
X125478300Y-68330600D02*
X125478300Y-71429400D01*
X127281700Y-68330600D02*
X125478300Y-68330600D01*
X127281700Y-71429400D02*
X127281700Y-68330600D01*
X125478300Y-71429400D02*
X127281700Y-71429400D01*
D11*
%TO.C,C37*%
X93530348Y-94100200D02*
X94952852Y-94100200D01*
X93530348Y-91380200D02*
X94952852Y-91380200D01*
%TO.C,R28*%
X95956359Y-55840000D02*
X96263641Y-55840000D01*
X95956359Y-56600000D02*
X96263641Y-56600000D01*
%TO.C,R8*%
X95143641Y-119290000D02*
X94836359Y-119290000D01*
X95143641Y-120050000D02*
X94836359Y-120050000D01*
%TD*%
%LPC*%
D20*
%TO.C,R26*%
X95600000Y-55220000D03*
X96620000Y-55220000D03*
%TD*%
D21*
%TO.C,C43*%
X104265600Y-71247800D03*
X104265600Y-69347800D03*
%TD*%
D22*
%TO.C,C19*%
X124690000Y-102480000D03*
X123730000Y-102480000D03*
%TD*%
D23*
%TO.C,U3*%
X129100000Y-100835000D03*
X130050000Y-100835000D03*
X131000000Y-100835000D03*
X131000000Y-98325000D03*
X130050000Y-98325000D03*
X129100000Y-98325000D03*
%TD*%
D24*
%TO.C,U8*%
X79777500Y-79495000D03*
X79777500Y-80145000D03*
X79777500Y-80795000D03*
X79777500Y-81445000D03*
X79777500Y-82095000D03*
X79777500Y-82745000D03*
X79777500Y-83395000D03*
X79777500Y-84045000D03*
X85502500Y-84045000D03*
X85502500Y-83395000D03*
X85502500Y-82745000D03*
X85502500Y-82095000D03*
X85502500Y-81445000D03*
X85502500Y-80795000D03*
X85502500Y-80145000D03*
X85502500Y-79495000D03*
%TD*%
D25*
%TO.C,C7*%
X99820000Y-114150000D03*
X99820000Y-115110000D03*
%TD*%
D20*
%TO.C,R7*%
X93400000Y-116670000D03*
X94420000Y-116670000D03*
%TD*%
D26*
%TO.C,R13*%
X90649600Y-63569000D03*
X90649600Y-64589000D03*
%TD*%
D27*
%TO.C,TP26*%
X100520000Y-58700000D03*
%TD*%
%TO.C,TP31*%
X131030000Y-72850000D03*
%TD*%
D22*
%TO.C,C1*%
X115730000Y-127810000D03*
X114770000Y-127810000D03*
%TD*%
D28*
%TO.C,C41*%
X98355400Y-63005800D03*
X96455400Y-63005800D03*
%TD*%
D27*
%TO.C,TP19*%
X131030000Y-67910000D03*
%TD*%
D29*
%TO.C,JP2*%
X123010000Y-111640000D03*
D30*
X121710000Y-111640000D03*
%TD*%
D31*
%TO.C,R1*%
X119000000Y-116520000D03*
X117980000Y-116520000D03*
%TD*%
D22*
%TO.C,C3*%
X114920000Y-107790000D03*
X113960000Y-107790000D03*
%TD*%
D32*
%TO.C,H6*%
X84764000Y-94984000D03*
%TD*%
D33*
%TO.C,C38*%
X101783000Y-67211600D03*
X101783000Y-69111600D03*
%TD*%
D27*
%TO.C,TP5*%
X111440000Y-130160000D03*
%TD*%
D20*
%TO.C,R27*%
X106450000Y-55180000D03*
X107470000Y-55180000D03*
%TD*%
D25*
%TO.C,C25*%
X105540000Y-129760000D03*
X105540000Y-130720000D03*
%TD*%
D34*
%TO.C,C45*%
X91120000Y-66420000D03*
X93020000Y-66420000D03*
%TD*%
D27*
%TO.C,TP16*%
X85570000Y-139110000D03*
%TD*%
%TO.C,TP15*%
X84690000Y-143470000D03*
%TD*%
D35*
%TO.C,U5*%
X89482500Y-128390000D03*
X89482500Y-129340000D03*
X89482500Y-130290000D03*
X91757500Y-130290000D03*
X91757500Y-128390000D03*
%TD*%
D34*
%TO.C,C51*%
X130440000Y-82740000D03*
X132340000Y-82740000D03*
%TD*%
D36*
%TO.C,R30*%
X124070000Y-92080000D03*
X124070000Y-91060000D03*
%TD*%
D26*
%TO.C,R6*%
X97500000Y-120830000D03*
X97500000Y-121850000D03*
%TD*%
D27*
%TO.C,TP30*%
X114850000Y-58630000D03*
%TD*%
D35*
%TO.C,U6*%
X101182500Y-129290000D03*
X101182500Y-130240000D03*
X101182500Y-131190000D03*
X103457500Y-131190000D03*
X103457500Y-129290000D03*
%TD*%
D32*
%TO.C,H5*%
X126130000Y-136350000D03*
%TD*%
D37*
%TO.C,C50*%
X129780000Y-78260000D03*
X130740000Y-78260000D03*
%TD*%
D38*
%TO.C,C4*%
X110660000Y-121800000D03*
X110660000Y-120840000D03*
%TD*%
D39*
%TO.C,U7*%
X82655000Y-134030000D03*
X82005000Y-134030000D03*
X81355000Y-134030000D03*
X80705000Y-134030000D03*
X80705000Y-138330000D03*
X81355000Y-138330000D03*
X82005000Y-138330000D03*
X82655000Y-138330000D03*
%TD*%
D22*
%TO.C,C12*%
X99780000Y-104240000D03*
X98820000Y-104240000D03*
%TD*%
D37*
%TO.C,C52*%
X130790000Y-80550000D03*
X131750000Y-80550000D03*
%TD*%
D36*
%TO.C,R31*%
X121520000Y-92080000D03*
X121520000Y-91060000D03*
%TD*%
D29*
%TO.C,JP3*%
X123010000Y-114030000D03*
D30*
X121710000Y-114030000D03*
%TD*%
D20*
%TO.C,R29*%
X106450000Y-56190000D03*
X107470000Y-56190000D03*
%TD*%
D27*
%TO.C,TP21*%
X130550000Y-91930000D03*
%TD*%
D38*
%TO.C,C26*%
X129140000Y-96810000D03*
X129140000Y-95850000D03*
%TD*%
D40*
%TO.C,U2*%
X123410000Y-97875000D03*
D41*
X122475000Y-98560000D03*
X122475000Y-99060000D03*
X122475000Y-99560000D03*
X122475000Y-100060000D03*
X122475000Y-100560000D03*
D40*
X123410000Y-101245000D03*
X124910000Y-101245000D03*
D41*
X125845000Y-100560000D03*
X125845000Y-100060000D03*
X125845000Y-99560000D03*
X125845000Y-99060000D03*
X125845000Y-98560000D03*
D40*
X124910000Y-97875000D03*
D42*
X124160000Y-99560000D03*
%TD*%
D26*
%TO.C,R10*%
X94828800Y-63573600D03*
X94828800Y-64593600D03*
%TD*%
D43*
%TO.C,L1*%
X106000600Y-77761400D03*
X106000600Y-86081400D03*
%TD*%
D20*
%TO.C,R20*%
X127530000Y-78310000D03*
X128550000Y-78310000D03*
%TD*%
D36*
%TO.C,R15*%
X93465000Y-64589000D03*
X93465000Y-63569000D03*
%TD*%
D27*
%TO.C,TP29*%
X112020000Y-58630000D03*
%TD*%
D22*
%TO.C,C15*%
X98490000Y-106040000D03*
X97530000Y-106040000D03*
%TD*%
D27*
%TO.C,TP32*%
X95310000Y-121910000D03*
%TD*%
D44*
%TO.C,H4*%
X79940000Y-56350000D03*
%TD*%
D31*
%TO.C,R16*%
X94840000Y-102040000D03*
X93820000Y-102040000D03*
%TD*%
D27*
%TO.C,TP28*%
X109030000Y-58620000D03*
%TD*%
D22*
%TO.C,C32*%
X94900000Y-118050000D03*
X93940000Y-118050000D03*
%TD*%
D38*
%TO.C,C16*%
X100710000Y-121800000D03*
X100710000Y-120840000D03*
%TD*%
D31*
%TO.C,R3*%
X116920000Y-117890000D03*
X115900000Y-117890000D03*
%TD*%
D25*
%TO.C,C49*%
X129270000Y-70110000D03*
X129270000Y-71070000D03*
%TD*%
D44*
%TO.C,H3*%
X130980000Y-144470000D03*
%TD*%
D27*
%TO.C,TP12*%
X89350000Y-115300000D03*
%TD*%
D37*
%TO.C,C18*%
X96250000Y-109680000D03*
X97210000Y-109680000D03*
%TD*%
D28*
%TO.C,C40*%
X98333000Y-65268000D03*
X96433000Y-65268000D03*
%TD*%
D45*
%TO.C,U10*%
X90890000Y-98565000D03*
X90890000Y-99215000D03*
X90890000Y-99865000D03*
X90890000Y-100515000D03*
X95190000Y-100515000D03*
X95190000Y-99865000D03*
X95190000Y-99215000D03*
X95190000Y-98565000D03*
%TD*%
D37*
%TO.C,C39*%
X104635400Y-67480800D03*
X105595400Y-67480800D03*
%TD*%
D25*
%TO.C,C21*%
X127450000Y-101330000D03*
X127450000Y-102290000D03*
%TD*%
D27*
%TO.C,TP8*%
X86310000Y-114030000D03*
%TD*%
%TO.C,TP24*%
X117960000Y-102740000D03*
%TD*%
D22*
%TO.C,C35*%
X82650000Y-87720000D03*
X81690000Y-87720000D03*
%TD*%
D27*
%TO.C,TP6*%
X89200000Y-107450000D03*
%TD*%
D25*
%TO.C,C10*%
X110280000Y-114170000D03*
X110280000Y-115130000D03*
%TD*%
D27*
%TO.C,TP27*%
X103400000Y-58710000D03*
%TD*%
D25*
%TO.C,C11*%
X101370000Y-114140000D03*
X101370000Y-115100000D03*
%TD*%
D36*
%TO.C,R33*%
X116420000Y-92070000D03*
X116420000Y-91050000D03*
%TD*%
D26*
%TO.C,R14*%
X92057300Y-63569000D03*
X92057300Y-64589000D03*
%TD*%
D20*
%TO.C,R11*%
X104611200Y-66295400D03*
X105631200Y-66295400D03*
%TD*%
D38*
%TO.C,C14*%
X99190000Y-121800000D03*
X99190000Y-120840000D03*
%TD*%
D44*
%TO.C,H2*%
X130900000Y-86930000D03*
%TD*%
D46*
%TO.C,C13*%
X105600000Y-111360000D03*
X105600000Y-117760000D03*
%TD*%
D44*
%TO.C,H1*%
X80020000Y-144380000D03*
%TD*%
D27*
%TO.C,TP11*%
X91810000Y-121920000D03*
%TD*%
D47*
%TO.C,Q2*%
X95751600Y-82862700D03*
X97049900Y-82862700D03*
X98313300Y-82862700D03*
X99611600Y-82862700D03*
D48*
X99961600Y-81957700D03*
%TD*%
D27*
%TO.C,TP1*%
X120190000Y-124230000D03*
%TD*%
D20*
%TO.C,R23*%
X115910000Y-120520000D03*
X116930000Y-120520000D03*
%TD*%
D38*
%TO.C,C33*%
X82970000Y-131240000D03*
X82970000Y-130280000D03*
%TD*%
D27*
%TO.C,TP3*%
X114410000Y-140150000D03*
%TD*%
D37*
%TO.C,C44*%
X95450000Y-97140000D03*
X96410000Y-97140000D03*
%TD*%
D49*
%TO.C,U9*%
X99201691Y-68022200D03*
X98701691Y-68022200D03*
X98171691Y-68022200D03*
X97701691Y-68022200D03*
X97201691Y-68022200D03*
X97201691Y-70822200D03*
X97701691Y-70822200D03*
X98201691Y-70822200D03*
X98701691Y-70822200D03*
X99201691Y-70822200D03*
D50*
X97251691Y-69422200D03*
X99151691Y-69422200D03*
X98201691Y-69997200D03*
D51*
X98201691Y-69422200D03*
D50*
X98201691Y-68847200D03*
%TD*%
D20*
%TO.C,R36*%
X95580000Y-138500000D03*
X96600000Y-138500000D03*
%TD*%
D27*
%TO.C,TP25*%
X97680000Y-58680000D03*
%TD*%
D37*
%TO.C,C22*%
X90120000Y-131850000D03*
X91080000Y-131850000D03*
%TD*%
D22*
%TO.C,C6*%
X113620000Y-106030000D03*
X112660000Y-106030000D03*
%TD*%
D52*
%TO.C,C46*%
X103851600Y-89640200D03*
X100851600Y-89640200D03*
%TD*%
D20*
%TO.C,R18*%
X110480000Y-67440000D03*
X111500000Y-67440000D03*
%TD*%
D47*
%TO.C,Q1*%
X93649887Y-77313864D03*
X92351587Y-77313864D03*
X91088187Y-77313864D03*
X89789887Y-77313864D03*
D53*
X89439887Y-78218864D03*
%TD*%
D20*
%TO.C,R25*%
X89810000Y-138540000D03*
X90830000Y-138540000D03*
%TD*%
D27*
%TO.C,TP10*%
X87760000Y-126010000D03*
%TD*%
D36*
%TO.C,R32*%
X118960000Y-92080000D03*
X118960000Y-91060000D03*
%TD*%
D20*
%TO.C,R17*%
X90910000Y-102040000D03*
X91930000Y-102040000D03*
%TD*%
D37*
%TO.C,C42*%
X96189800Y-73128000D03*
X97149800Y-73128000D03*
%TD*%
D27*
%TO.C,TP7*%
X89180000Y-110620000D03*
%TD*%
D54*
%TO.C,C34*%
X92806600Y-85970200D03*
X95756600Y-85970200D03*
%TD*%
D27*
%TO.C,TP4*%
X117040000Y-140190000D03*
%TD*%
D55*
%TO.C,U1*%
X116140000Y-126170000D03*
X116140000Y-123870000D03*
X114240000Y-123870000D03*
X114240000Y-126170000D03*
%TD*%
D27*
%TO.C,TP13*%
X97670000Y-127850000D03*
%TD*%
D20*
%TO.C,R12*%
X98650200Y-73123400D03*
X99670200Y-73123400D03*
%TD*%
D31*
%TO.C,R4*%
X110500000Y-71760000D03*
X109480000Y-71760000D03*
%TD*%
D36*
%TO.C,R35*%
X111220000Y-92090000D03*
X111220000Y-91070000D03*
%TD*%
D37*
%TO.C,C2*%
X113960000Y-109650000D03*
X114920000Y-109650000D03*
%TD*%
D20*
%TO.C,R19*%
X110530000Y-70330000D03*
X111550000Y-70330000D03*
%TD*%
D31*
%TO.C,R24*%
X90800000Y-137350000D03*
X89780000Y-137350000D03*
%TD*%
D36*
%TO.C,R34*%
X113870000Y-92070000D03*
X113870000Y-91050000D03*
%TD*%
D37*
%TO.C,C23*%
X101730000Y-132610000D03*
X102690000Y-132610000D03*
%TD*%
D38*
%TO.C,C5*%
X112160000Y-121800000D03*
X112160000Y-120840000D03*
%TD*%
D27*
%TO.C,TP9*%
X86350000Y-110750000D03*
%TD*%
D31*
%TO.C,R2*%
X116890000Y-121740000D03*
X115870000Y-121740000D03*
%TD*%
D36*
%TO.C,R9*%
X80700000Y-132210000D03*
X80700000Y-131190000D03*
%TD*%
D22*
%TO.C,C17*%
X97210000Y-107780000D03*
X96250000Y-107780000D03*
%TD*%
D29*
%TO.C,JP1*%
X123010000Y-109250000D03*
D30*
X121710000Y-109250000D03*
%TD*%
D20*
%TO.C,R22*%
X106450000Y-54180000D03*
X107470000Y-54180000D03*
%TD*%
D22*
%TO.C,C8*%
X112290000Y-104240000D03*
X111330000Y-104240000D03*
%TD*%
D37*
%TO.C,C29*%
X96600000Y-137410000D03*
X95640000Y-137410000D03*
%TD*%
D27*
%TO.C,TP14*%
X107830000Y-129200000D03*
%TD*%
D22*
%TO.C,C27*%
X123210000Y-71040000D03*
X122250000Y-71040000D03*
%TD*%
D27*
%TO.C,TP20*%
X111870000Y-63120000D03*
%TD*%
%TO.C,TP2*%
X111890000Y-140150000D03*
%TD*%
D22*
%TO.C,C20*%
X122320000Y-96650000D03*
X121360000Y-96650000D03*
%TD*%
D20*
%TO.C,R21*%
X95600000Y-54220000D03*
X96620000Y-54220000D03*
%TD*%
D56*
%TO.C,C47*%
X103786600Y-92610200D03*
X100836600Y-92610200D03*
%TD*%
D25*
%TO.C,C24*%
X93630000Y-128670000D03*
X93630000Y-129630000D03*
%TD*%
D31*
%TO.C,R5*%
X116920000Y-119250000D03*
X115900000Y-119250000D03*
%TD*%
D54*
%TO.C,C36*%
X92766600Y-89380200D03*
X95716600Y-89380200D03*
%TD*%
D25*
%TO.C,C9*%
X111870000Y-114230000D03*
X111870000Y-115190000D03*
%TD*%
D57*
%TO.C,U11*%
X125002050Y-68940200D03*
X125002050Y-69880000D03*
X125002050Y-70819800D03*
X127757950Y-70819800D03*
X127757950Y-68940200D03*
%TD*%
D54*
%TO.C,C37*%
X92766600Y-92740200D03*
X95716600Y-92740200D03*
%TD*%
D20*
%TO.C,R28*%
X95600000Y-56220000D03*
X96620000Y-56220000D03*
%TD*%
D31*
%TO.C,R8*%
X95500000Y-119670000D03*
X94480000Y-119670000D03*
%TD*%
D58*
%TO.C,J4*%
X89980000Y-142490000D03*
D59*
X92520000Y-142490000D03*
X95060000Y-142490000D03*
X97600000Y-142490000D03*
%TD*%
D60*
%TO.C,J2*%
X85190000Y-63390000D03*
X80110000Y-63390000D03*
%TD*%
%TO.C,J1*%
X85190000Y-70810000D03*
X80110000Y-70810000D03*
%TD*%
D61*
%TO.C,J6*%
X113340000Y-50890000D03*
D62*
X115880000Y-50890000D03*
X118420000Y-50890000D03*
X120960000Y-50890000D03*
X123500000Y-50890000D03*
X126040000Y-50890000D03*
X128580000Y-50890000D03*
X131120000Y-50890000D03*
%TD*%
D61*
%TO.C,J7*%
X83000000Y-76540000D03*
D62*
X85540000Y-76540000D03*
%TD*%
D61*
%TO.C,J3*%
X109350000Y-143580000D03*
D62*
X111890000Y-143580000D03*
X114430000Y-143580000D03*
X116970000Y-143580000D03*
X119510000Y-143580000D03*
%TD*%
D63*
%TO.C,J5*%
X125590000Y-56714000D03*
X130670000Y-57730000D03*
X125590000Y-58746000D03*
%TD*%
M02*
