%TF.GenerationSoftware,KiCad,Pcbnew,7.0.2*%
%TF.CreationDate,2023-09-06T19:35:35-04:00*%
%TF.ProjectId,bitaxeUltra,62697461-7865-4556-9c74-72612e6b6963,rev?*%
%TF.SameCoordinates,Original*%
%TF.FileFunction,Copper,L3,Inr*%
%TF.FilePolarity,Positive*%
%FSLAX46Y46*%
G04 Gerber Fmt 4.6, Leading zero omitted, Abs format (unit mm)*
G04 Created by KiCad (PCBNEW 7.0.2) date 2023-09-06 19:35:35*
%MOMM*%
%LPD*%
G01*
G04 APERTURE LIST*
G04 Aperture macros list*
%AMRoundRect*
0 Rectangle with rounded corners*
0 $1 Rounding radius*
0 $2 $3 $4 $5 $6 $7 $8 $9 X,Y pos of 4 corners*
0 Add a 4 corners polygon primitive as box body*
4,1,4,$2,$3,$4,$5,$6,$7,$8,$9,$2,$3,0*
0 Add four circle primitives for the rounded corners*
1,1,$1+$1,$2,$3*
1,1,$1+$1,$4,$5*
1,1,$1+$1,$6,$7*
1,1,$1+$1,$8,$9*
0 Add four rect primitives between the rounded corners*
20,1,$1+$1,$2,$3,$4,$5,0*
20,1,$1+$1,$4,$5,$6,$7,0*
20,1,$1+$1,$6,$7,$8,$9,0*
20,1,$1+$1,$8,$9,$2,$3,0*%
G04 Aperture macros list end*
%TA.AperFunction,ComponentPad*%
%ADD10C,0.800000*%
%TD*%
%TA.AperFunction,ComponentPad*%
%ADD11C,6.000000*%
%TD*%
%TA.AperFunction,ComponentPad*%
%ADD12C,0.500000*%
%TD*%
%TA.AperFunction,ComponentPad*%
%ADD13C,0.400000*%
%TD*%
%TA.AperFunction,ComponentPad*%
%ADD14C,1.574800*%
%TD*%
%TA.AperFunction,ComponentPad*%
%ADD15R,1.700000X1.700000*%
%TD*%
%TA.AperFunction,ComponentPad*%
%ADD16O,1.700000X1.700000*%
%TD*%
%TA.AperFunction,ComponentPad*%
%ADD17O,1.800000X1.000000*%
%TD*%
%TA.AperFunction,ComponentPad*%
%ADD18O,2.100000X1.000000*%
%TD*%
%TA.AperFunction,ComponentPad*%
%ADD19R,3.500000X4.000000*%
%TD*%
%TA.AperFunction,ComponentPad*%
%ADD20RoundRect,0.750000X-0.750000X-1.000000X0.750000X-1.000000X0.750000X1.000000X-0.750000X1.000000X0*%
%TD*%
%TA.AperFunction,ComponentPad*%
%ADD21RoundRect,0.875000X-0.875000X-0.875000X0.875000X-0.875000X0.875000X0.875000X-0.875000X0.875000X0*%
%TD*%
%TA.AperFunction,ViaPad*%
%ADD22C,0.800000*%
%TD*%
%TA.AperFunction,ViaPad*%
%ADD23C,1.000000*%
%TD*%
%TA.AperFunction,ViaPad*%
%ADD24C,1.200000*%
%TD*%
%TA.AperFunction,Conductor*%
%ADD25C,1.500000*%
%TD*%
%TA.AperFunction,Conductor*%
%ADD26C,0.508000*%
%TD*%
%TA.AperFunction,Conductor*%
%ADD27C,1.000000*%
%TD*%
G04 APERTURE END LIST*
D10*
%TO.N,GND*%
%TO.C,H7*%
X127985010Y-51120990D03*
X128644020Y-49530000D03*
X128644020Y-52711980D03*
X130235010Y-48870990D03*
D11*
X130235010Y-51120990D03*
D10*
X130235010Y-53370990D03*
X131826000Y-49530000D03*
X131826000Y-52711980D03*
X132485010Y-51120990D03*
%TD*%
D12*
%TO.N,GND*%
%TO.C,U2*%
X116922000Y-98765000D03*
X116922000Y-99765000D03*
X115922000Y-99765000D03*
X115922000Y-98765000D03*
%TD*%
D10*
%TO.N,GND*%
%TO.C,H9*%
X128052000Y-143728000D03*
X128711010Y-142137010D03*
X128711010Y-145318990D03*
X130302000Y-141478000D03*
D11*
X130302000Y-143728000D03*
D10*
X130302000Y-145978000D03*
X131892990Y-142137010D03*
X131892990Y-145318990D03*
X132552000Y-143728000D03*
%TD*%
%TO.N,GND*%
%TO.C,H10*%
X78455010Y-143830990D03*
X79114020Y-142240000D03*
X79114020Y-145421980D03*
X80705010Y-141580990D03*
D11*
X80705010Y-143830990D03*
D10*
X80705010Y-146080990D03*
X82296000Y-142240000D03*
X82296000Y-145421980D03*
X82955010Y-143830990D03*
%TD*%
D13*
%TO.N,GND*%
%TO.C,U9*%
X98201691Y-68847200D03*
X99151691Y-69422200D03*
X97251691Y-69422200D03*
X98201691Y-69997200D03*
%TD*%
D10*
%TO.N,GND*%
%TO.C,H8*%
X78558000Y-51054000D03*
X79217010Y-49463010D03*
X79217010Y-52644990D03*
X80808000Y-48804000D03*
D11*
X80808000Y-51054000D03*
D10*
X80808000Y-53304000D03*
X82398990Y-49463010D03*
X82398990Y-52644990D03*
X83058000Y-51054000D03*
%TD*%
D14*
%TO.N,GND*%
%TO.C,J4*%
X89621000Y-143622000D03*
%TO.N,/5V*%
X92161000Y-143622000D03*
%TO.N,/Fan/FAN_TACH*%
X94701000Y-143622000D03*
%TO.N,/Fan/FAN_PWM*%
X97241000Y-143622000D03*
%TD*%
D15*
%TO.N,GND*%
%TO.C,J9*%
X86106000Y-50038000D03*
D16*
%TO.N,/3V3*%
X86106000Y-52578000D03*
%TO.N,/SCL*%
X86106000Y-55118000D03*
%TO.N,/SDA*%
X86106000Y-57658000D03*
%TD*%
D15*
%TO.N,/RST*%
%TO.C,J6*%
X104293000Y-49587000D03*
D16*
%TO.N,/RX*%
X106833000Y-49587000D03*
%TO.N,/TX*%
X109373000Y-49587000D03*
%TO.N,/SDA*%
X111913000Y-49587000D03*
%TO.N,/SCL*%
X114453000Y-49587000D03*
%TO.N,/3V3*%
X116993000Y-49587000D03*
%TO.N,GND*%
X119533000Y-49587000D03*
%TD*%
D15*
%TO.N,/Power/VIN*%
%TO.C,J7*%
X83000000Y-76540000D03*
D16*
%TO.N,/5V*%
X85540000Y-76540000D03*
%TD*%
D15*
%TO.N,/BM1366/1V8*%
%TO.C,J3*%
X109350000Y-143580000D03*
D16*
%TO.N,/BM1366/CI*%
X111890000Y-143580000D03*
%TO.N,/BM1366/RO*%
X114430000Y-143580000D03*
%TO.N,/BM1366/RST_N*%
X116970000Y-143580000D03*
%TO.N,GND*%
X119510000Y-143580000D03*
%TD*%
D17*
%TO.N,GND*%
%TO.C,J8*%
X131123000Y-88136000D03*
D18*
X126943000Y-88136000D03*
D17*
X131123000Y-96776000D03*
D18*
X126943000Y-96776000D03*
%TD*%
D19*
%TO.N,/Power/VIN*%
%TO.C,J10*%
X88423000Y-69584000D03*
D20*
%TO.N,GND*%
X82423000Y-69584000D03*
D21*
%TO.N,unconnected-(J10-Pad3)*%
X85423000Y-64884000D03*
%TD*%
D22*
%TO.N,GND*%
X78090000Y-82060000D03*
X100850600Y-73131400D03*
X116910000Y-128990000D03*
D23*
X126719000Y-75842000D03*
D22*
X97320000Y-93500000D03*
X131780000Y-62110000D03*
X112980000Y-131260000D03*
X97320000Y-87878600D03*
X100580000Y-87270000D03*
X106396000Y-118533000D03*
X97320000Y-84830000D03*
X98860000Y-84830000D03*
X104082000Y-115436000D03*
X98682000Y-136516000D03*
X98860000Y-93500000D03*
X106408000Y-116351000D03*
X128120000Y-55550000D03*
X95758000Y-69431400D03*
D23*
X100765000Y-145890000D03*
D22*
X94890000Y-62470000D03*
X97320000Y-86310000D03*
X105673000Y-117442000D03*
X80660000Y-87760000D03*
X97320000Y-89650000D03*
D23*
X126719000Y-74372000D03*
D22*
X90360055Y-101249945D03*
X98860000Y-91520000D03*
X117602000Y-123903000D03*
X104855000Y-118563000D03*
X104132000Y-117472000D03*
X121210000Y-74547000D03*
X98860000Y-86310000D03*
X97320000Y-91520000D03*
X112922500Y-102037000D03*
X107144000Y-117442000D03*
X90897000Y-129309000D03*
D23*
X131250000Y-99822000D03*
D22*
X112318000Y-95325000D03*
X112512000Y-61250000D03*
X105623000Y-115406000D03*
X98860000Y-89650000D03*
X104867000Y-116381000D03*
X86970000Y-82770000D03*
D23*
X126719000Y-73012000D03*
D22*
X105330000Y-132320000D03*
X104430000Y-130240000D03*
D23*
X132450000Y-84290000D03*
D22*
X98860000Y-87878600D03*
X115573700Y-102188000D03*
X120310000Y-100000000D03*
X102082600Y-109067600D03*
X96840000Y-98140000D03*
X132297000Y-108743000D03*
X92910000Y-102990000D03*
X95260000Y-132630000D03*
X107094000Y-115406000D03*
X100580000Y-85521400D03*
%TO.N,/BM1366/1V8*%
X101015000Y-126170000D03*
X115737362Y-96385646D03*
X118490000Y-127770000D03*
X117172000Y-102173000D03*
X112130000Y-127390000D03*
X109458000Y-122723000D03*
X101015000Y-121775000D03*
%TO.N,/BM1366/VDD4_0*%
X115099642Y-112550642D03*
%TO.N,/VDD*%
X110361000Y-82986000D03*
X116198500Y-68651500D03*
X103000000Y-104240000D03*
X105152000Y-113890000D03*
D24*
X107870000Y-90540000D03*
X107910000Y-92670000D03*
D22*
X104126000Y-113110000D03*
X108330000Y-104270000D03*
X105410000Y-62838100D03*
X107204000Y-113920000D03*
D24*
X107910000Y-94640000D03*
D22*
X106178000Y-113110000D03*
D24*
X105880000Y-90540000D03*
X105880000Y-88500000D03*
X107850000Y-88520000D03*
X105930000Y-94670000D03*
X105900000Y-92650000D03*
D22*
%TO.N,/ESP32/EN*%
X126293000Y-104178000D03*
X132665000Y-68760000D03*
X122101300Y-70905000D03*
D23*
%TO.N,/5V*%
X114580768Y-88400366D03*
D22*
X88883000Y-131168000D03*
X100470000Y-66770000D03*
X94580000Y-137390000D03*
X90881000Y-131182000D03*
D24*
X109323000Y-63360000D03*
D22*
X98450000Y-131200000D03*
%TO.N,/3V3*%
X115457000Y-62413000D03*
X114010000Y-95176000D03*
X127766000Y-100521000D03*
X129610000Y-55490000D03*
X115895000Y-79945000D03*
D23*
X129310000Y-83980000D03*
D22*
X110548000Y-70672000D03*
X130940000Y-76750000D03*
X98662000Y-137914100D03*
X117172000Y-96434000D03*
X83700000Y-87750000D03*
X101092000Y-109016800D03*
X94100000Y-97190000D03*
X82990000Y-85090000D03*
%TO.N,/TX*%
X118240000Y-70860000D03*
%TO.N,/RX*%
X116918500Y-70448500D03*
%TO.N,/BM1366/VDD3_0*%
X115070000Y-111160000D03*
%TO.N,/BM1366/VDD2_0*%
X112530000Y-107800000D03*
%TO.N,/RST*%
X120676000Y-54726000D03*
X121437000Y-70037900D03*
%TO.N,/BM1366/MODE_OUT*%
X110862000Y-121832000D03*
%TO.N,/SCL*%
X120743000Y-68680100D03*
X85120000Y-86810000D03*
X90390000Y-96230000D03*
X97713800Y-120675400D03*
%TO.N,/Power/OUT0*%
X91440000Y-95040000D03*
X94689900Y-72637701D03*
%TO.N,/BM1366/0V8*%
X108468000Y-124939000D03*
X100155000Y-123661000D03*
X104431000Y-124939000D03*
X103530000Y-127490000D03*
%TO.N,/BM1366/VDD1_0*%
X111250000Y-106010000D03*
%TO.N,/BM1366/VDD1_1*%
X98602800Y-107213400D03*
%TO.N,/BM1366/VDD2_1*%
X97409000Y-108966000D03*
%TO.N,/BM1366/MODE_0*%
X91480645Y-121097045D03*
%TO.N,/BM1366/VDD3_1*%
X96130000Y-110920000D03*
%TO.N,/BM1366/VDD4_1*%
X96109000Y-112124000D03*
%TO.N,Net-(U9-BOOT)*%
X95368800Y-71183600D03*
X95958800Y-74273600D03*
%TO.N,/BM1366/CI*%
X121860400Y-130850000D03*
X113272599Y-98869299D03*
%TO.N,/BM1366/RO*%
X112962000Y-97645000D03*
X116428000Y-115817000D03*
%TO.N,/BM1366/RST_N*%
X117148868Y-114071132D03*
X111948000Y-102053000D03*
%TO.N,Net-(Q2-G)*%
X101710600Y-82811400D03*
X102700000Y-75260000D03*
%TO.N,/BM1366/RI*%
X96774000Y-114909600D03*
%TO.N,/BM1366/CLKI*%
X114844000Y-116495900D03*
%TO.N,/BM1366/NRSTO*%
X96967045Y-112836955D03*
%TO.N,/BM1366/BO*%
X96995638Y-113825659D03*
%TO.N,/BM1366/CLKO*%
X96266000Y-116154200D03*
%TO.N,/BM1366/CO*%
X94996000Y-117551200D03*
%TO.N,/ESP32/P_TX*%
X128060000Y-61549000D03*
%TO.N,/ESP32/P_RX*%
X124447000Y-61551000D03*
%TO.N,/ESP32/IO0*%
X124830000Y-55100000D03*
X122113000Y-68573000D03*
X123719000Y-98362000D03*
%TO.N,/ESP32/XIN32*%
X124019000Y-80080000D03*
%TO.N,/BM1366/MODE_1*%
X99393000Y-122727000D03*
%TO.N,/ESP32/XOUT32*%
X121248000Y-80100000D03*
%TO.N,/Power/PGOOD*%
X108278900Y-71440000D03*
%TO.N,/SDA*%
X97777539Y-119687890D03*
X116560000Y-72727000D03*
X84730000Y-85730000D03*
X91500000Y-96290000D03*
X104902000Y-61620400D03*
%TO.N,/BM1366/BI*%
X115540000Y-114780000D03*
%TO.N,/BM1366/NC*%
X92430600Y-118795800D03*
D23*
%TO.N,Net-(D1-Pad2)*%
X121666000Y-90932000D03*
X121666000Y-94488000D03*
%TD*%
D25*
%TO.N,/5V*%
X93472000Y-74422000D02*
X93387500Y-74337500D01*
D26*
X85750000Y-134294000D02*
X85750000Y-134909000D01*
X85750000Y-134909000D02*
X85737000Y-134922000D01*
D25*
X85737000Y-134922000D02*
X80505000Y-134922000D01*
X92161000Y-143622000D02*
X92207000Y-143576000D01*
D26*
X109300000Y-83360000D02*
X109300000Y-73917422D01*
X107370000Y-65313000D02*
X109323000Y-63360000D01*
X114580768Y-88400366D02*
X114340366Y-88400366D01*
D27*
X100490000Y-66750000D02*
X100490000Y-64140000D01*
D25*
X92207000Y-138468000D02*
X88661000Y-134922000D01*
D26*
X88844000Y-131200000D02*
X85750000Y-134294000D01*
D25*
X93387500Y-68664500D02*
X97912000Y-64140000D01*
D26*
X114340366Y-88400366D02*
X109300000Y-83360000D01*
D25*
X100490000Y-64140000D02*
X108543000Y-64140000D01*
X91354000Y-76540000D02*
X93472000Y-74422000D01*
X80505000Y-134922000D02*
X80501000Y-134926000D01*
D26*
X98450000Y-131200000D02*
X88844000Y-131200000D01*
D25*
X79035000Y-133460000D02*
X80501000Y-134926000D01*
X85540000Y-79838000D02*
X79035000Y-86343000D01*
X85540000Y-76540000D02*
X85540000Y-79838000D01*
X92207000Y-143576000D02*
X92207000Y-138468000D01*
X88661000Y-134922000D02*
X85737000Y-134922000D01*
X85540000Y-76540000D02*
X91354000Y-76540000D01*
X93387500Y-74337500D02*
X93387500Y-68664500D01*
D26*
X107370000Y-71987422D02*
X107370000Y-65313000D01*
D25*
X79035000Y-86343000D02*
X79035000Y-133460000D01*
X108543000Y-64140000D02*
X109323000Y-63360000D01*
X97912000Y-64140000D02*
X100490000Y-64140000D01*
D26*
X109300000Y-73917422D02*
X107370000Y-71987422D01*
D25*
%TO.N,/3V3*%
X110141000Y-52589000D02*
X110180000Y-52550000D01*
X86106000Y-52578000D02*
X86117000Y-52589000D01*
X86117000Y-52589000D02*
X110141000Y-52589000D01*
%TD*%
%TA.AperFunction,Conductor*%
%TO.N,/3V3*%
G36*
X110861955Y-48968002D02*
G01*
X110908448Y-49021658D01*
X110918552Y-49091932D01*
X110906624Y-49130163D01*
X110878672Y-49186297D01*
X110822654Y-49383180D01*
X110803767Y-49587000D01*
X110822654Y-49790819D01*
X110878672Y-49987702D01*
X110969910Y-50170933D01*
X110969912Y-50170935D01*
X111093268Y-50334285D01*
X111244538Y-50472186D01*
X111321365Y-50519755D01*
X111417844Y-50579493D01*
X111418573Y-50579944D01*
X111609444Y-50653888D01*
X111810653Y-50691500D01*
X111810655Y-50691500D01*
X112015345Y-50691500D01*
X112015347Y-50691500D01*
X112216556Y-50653888D01*
X112407427Y-50579944D01*
X112581462Y-50472186D01*
X112732732Y-50334285D01*
X112856088Y-50170935D01*
X112947328Y-49987701D01*
X113003345Y-49790821D01*
X113022232Y-49587000D01*
X113003345Y-49383179D01*
X112947328Y-49186299D01*
X112935693Y-49162933D01*
X112919376Y-49130163D01*
X112906916Y-49060268D01*
X112934223Y-48994733D01*
X112992626Y-48954365D01*
X113032166Y-48948000D01*
X113333834Y-48948000D01*
X113401955Y-48968002D01*
X113448448Y-49021658D01*
X113458552Y-49091932D01*
X113446624Y-49130163D01*
X113418672Y-49186297D01*
X113362654Y-49383180D01*
X113343767Y-49586999D01*
X113362654Y-49790819D01*
X113418672Y-49987702D01*
X113509910Y-50170933D01*
X113509912Y-50170935D01*
X113633268Y-50334285D01*
X113784538Y-50472186D01*
X113861365Y-50519755D01*
X113957844Y-50579493D01*
X113958573Y-50579944D01*
X114149444Y-50653888D01*
X114350653Y-50691500D01*
X114350655Y-50691500D01*
X114555345Y-50691500D01*
X114555347Y-50691500D01*
X114756556Y-50653888D01*
X114947427Y-50579944D01*
X115121462Y-50472186D01*
X115272732Y-50334285D01*
X115396088Y-50170935D01*
X115487328Y-49987701D01*
X115543345Y-49790821D01*
X115562232Y-49587000D01*
X115543345Y-49383179D01*
X115487328Y-49186299D01*
X115475693Y-49162933D01*
X115459376Y-49130163D01*
X115446916Y-49060268D01*
X115474223Y-48994733D01*
X115532626Y-48954365D01*
X115572166Y-48948000D01*
X115874392Y-48948000D01*
X115942513Y-48968002D01*
X115989006Y-49021658D01*
X115999110Y-49091932D01*
X115987183Y-49130163D01*
X115959139Y-49186482D01*
X115917450Y-49332999D01*
X115917451Y-49333000D01*
X116561884Y-49333000D01*
X116533507Y-49377156D01*
X116493000Y-49515111D01*
X116493000Y-49658889D01*
X116533507Y-49796844D01*
X116561884Y-49841000D01*
X115917451Y-49841000D01*
X115959140Y-49987522D01*
X116050337Y-50170669D01*
X116173638Y-50333945D01*
X116324844Y-50471788D01*
X116498795Y-50579493D01*
X116689580Y-50653404D01*
X116738999Y-50662642D01*
X116739000Y-50662642D01*
X116738999Y-50020674D01*
X116850685Y-50071680D01*
X116957237Y-50087000D01*
X117028763Y-50087000D01*
X117135315Y-50071680D01*
X117247000Y-50020674D01*
X117247000Y-50662642D01*
X117296419Y-50653404D01*
X117487204Y-50579493D01*
X117661155Y-50471788D01*
X117812361Y-50333945D01*
X117935662Y-50170669D01*
X118026859Y-49987522D01*
X118068549Y-49841000D01*
X117424116Y-49841000D01*
X117452493Y-49796844D01*
X117493000Y-49658889D01*
X117493000Y-49515111D01*
X117452493Y-49377156D01*
X117424116Y-49333000D01*
X118068549Y-49333000D01*
X118068549Y-49332999D01*
X118026860Y-49186482D01*
X117998817Y-49130163D01*
X117986359Y-49060268D01*
X118013665Y-48994733D01*
X118072068Y-48954365D01*
X118111608Y-48948000D01*
X118413834Y-48948000D01*
X118481955Y-48968002D01*
X118528448Y-49021658D01*
X118538552Y-49091932D01*
X118526624Y-49130163D01*
X118498672Y-49186297D01*
X118442654Y-49383180D01*
X118423767Y-49586999D01*
X118442654Y-49790819D01*
X118498672Y-49987702D01*
X118589910Y-50170933D01*
X118589912Y-50170935D01*
X118713268Y-50334285D01*
X118864538Y-50472186D01*
X118941365Y-50519755D01*
X119037844Y-50579493D01*
X119038573Y-50579944D01*
X119229444Y-50653888D01*
X119430653Y-50691500D01*
X119430655Y-50691500D01*
X119635345Y-50691500D01*
X119635347Y-50691500D01*
X119836556Y-50653888D01*
X120027427Y-50579944D01*
X120201462Y-50472186D01*
X120352732Y-50334285D01*
X120476088Y-50170935D01*
X120567328Y-49987701D01*
X120623345Y-49790821D01*
X120642232Y-49587000D01*
X120623345Y-49383179D01*
X120567328Y-49186299D01*
X120555693Y-49162933D01*
X120539376Y-49130163D01*
X120526916Y-49060268D01*
X120554223Y-48994733D01*
X120612626Y-48954365D01*
X120652166Y-48948000D01*
X127538957Y-48948000D01*
X127607078Y-48968002D01*
X127653571Y-49021658D01*
X127663675Y-49091932D01*
X127639489Y-49149714D01*
X127640320Y-49148558D01*
X127639414Y-49149893D01*
X127639412Y-49149896D01*
X127638409Y-49151376D01*
X127638401Y-49151387D01*
X127444191Y-49437827D01*
X127442273Y-49440656D01*
X127440678Y-49443663D01*
X127440671Y-49443676D01*
X127278570Y-49749431D01*
X127278565Y-49749441D01*
X127276968Y-49752454D01*
X127275705Y-49755622D01*
X127275703Y-49755628D01*
X127152224Y-50065538D01*
X127146343Y-50080297D01*
X127145432Y-50083578D01*
X127145429Y-50083587D01*
X127052842Y-50417052D01*
X127052837Y-50417072D01*
X127051930Y-50420341D01*
X127051380Y-50423693D01*
X127051377Y-50423709D01*
X127005818Y-50701610D01*
X126994836Y-50768600D01*
X126994651Y-50771993D01*
X126994651Y-50772003D01*
X126983943Y-50969513D01*
X126975730Y-51120990D01*
X126975915Y-51124402D01*
X126990704Y-51397184D01*
X126994836Y-51473380D01*
X126995386Y-51476736D01*
X126995387Y-51476743D01*
X127051377Y-51818270D01*
X127051379Y-51818282D01*
X127051930Y-51821639D01*
X127052838Y-51824911D01*
X127052842Y-51824927D01*
X127123108Y-52078000D01*
X127146343Y-52161683D01*
X127276968Y-52489526D01*
X127442273Y-52801324D01*
X127515142Y-52908798D01*
X127638398Y-53090588D01*
X127638402Y-53090594D01*
X127640320Y-53093422D01*
X127868787Y-53362395D01*
X127871267Y-53364744D01*
X128122512Y-53602737D01*
X128122521Y-53602744D01*
X128124997Y-53605090D01*
X128405944Y-53818660D01*
X128708336Y-54000603D01*
X129028626Y-54148785D01*
X129363060Y-54261469D01*
X129707717Y-54337334D01*
X130058556Y-54375490D01*
X130061971Y-54375490D01*
X130408049Y-54375490D01*
X130411464Y-54375490D01*
X130762303Y-54337334D01*
X131106960Y-54261469D01*
X131441394Y-54148785D01*
X131761684Y-54000603D01*
X132064076Y-53818660D01*
X132345023Y-53605090D01*
X132601233Y-53362395D01*
X132829700Y-53093422D01*
X133027747Y-52801324D01*
X133193052Y-52489526D01*
X133323677Y-52161683D01*
X133418090Y-51821639D01*
X133475184Y-51473380D01*
X133479685Y-51390362D01*
X133503345Y-51323425D01*
X133559439Y-51279905D01*
X133630157Y-51273620D01*
X133693047Y-51306566D01*
X133728141Y-51368283D01*
X133731500Y-51397184D01*
X133731500Y-142990087D01*
X133711498Y-143058208D01*
X133657842Y-143104701D01*
X133587568Y-143114805D01*
X133522988Y-143085311D01*
X133484604Y-143025585D01*
X133484093Y-143023796D01*
X133444640Y-142881700D01*
X133390667Y-142687307D01*
X133260042Y-142359464D01*
X133094737Y-142047666D01*
X132896690Y-141755568D01*
X132668223Y-141486595D01*
X132636446Y-141456494D01*
X132414497Y-141246252D01*
X132414487Y-141246243D01*
X132412013Y-141243900D01*
X132131066Y-141030330D01*
X131828674Y-140848387D01*
X131825576Y-140846953D01*
X131825569Y-140846950D01*
X131511482Y-140701638D01*
X131511477Y-140701636D01*
X131508384Y-140700205D01*
X131505155Y-140699117D01*
X131505150Y-140699115D01*
X131177186Y-140588611D01*
X131177180Y-140588609D01*
X131173950Y-140587521D01*
X131170625Y-140586789D01*
X131170614Y-140586786D01*
X130832624Y-140512389D01*
X130832620Y-140512388D01*
X130829293Y-140511656D01*
X130819448Y-140510585D01*
X130481852Y-140473869D01*
X130481841Y-140473868D01*
X130478454Y-140473500D01*
X130125546Y-140473500D01*
X130122159Y-140473868D01*
X130122147Y-140473869D01*
X129778099Y-140511287D01*
X129778097Y-140511287D01*
X129774707Y-140511656D01*
X129771382Y-140512387D01*
X129771375Y-140512389D01*
X129433385Y-140586786D01*
X129433369Y-140586790D01*
X129430050Y-140587521D01*
X129426824Y-140588607D01*
X129426813Y-140588611D01*
X129098849Y-140699115D01*
X129098838Y-140699119D01*
X129095616Y-140700205D01*
X129092528Y-140701633D01*
X129092517Y-140701638D01*
X128778430Y-140846950D01*
X128778416Y-140846957D01*
X128775326Y-140848387D01*
X128772400Y-140850147D01*
X128772399Y-140850148D01*
X128475866Y-141028565D01*
X128475854Y-141028572D01*
X128472934Y-141030330D01*
X128470218Y-141032393D01*
X128470210Y-141032400D01*
X128194705Y-141241833D01*
X128194695Y-141241840D01*
X128191987Y-141243900D01*
X128189521Y-141246235D01*
X128189502Y-141246252D01*
X127938257Y-141484245D01*
X127938249Y-141484252D01*
X127935777Y-141486595D01*
X127933580Y-141489181D01*
X127933571Y-141489191D01*
X127709521Y-141752964D01*
X127709513Y-141752973D01*
X127707310Y-141755568D01*
X127705398Y-141758386D01*
X127705388Y-141758401D01*
X127635560Y-141861391D01*
X127509263Y-142047666D01*
X127507668Y-142050673D01*
X127507661Y-142050686D01*
X127345560Y-142356441D01*
X127345555Y-142356451D01*
X127343958Y-142359464D01*
X127342695Y-142362632D01*
X127342693Y-142362638D01*
X127226304Y-142654753D01*
X127213333Y-142687307D01*
X127212422Y-142690588D01*
X127212419Y-142690597D01*
X127119832Y-143024062D01*
X127119827Y-143024082D01*
X127118920Y-143027351D01*
X127118370Y-143030703D01*
X127118367Y-143030719D01*
X127062377Y-143372246D01*
X127061826Y-143375610D01*
X127061641Y-143379003D01*
X127061641Y-143379013D01*
X127054848Y-143504305D01*
X127042720Y-143728000D01*
X127042905Y-143731412D01*
X127045746Y-143783821D01*
X127061826Y-144080390D01*
X127062376Y-144083746D01*
X127062377Y-144083753D01*
X127118367Y-144425280D01*
X127118369Y-144425292D01*
X127118920Y-144428649D01*
X127119828Y-144431921D01*
X127119832Y-144431937D01*
X127212419Y-144765402D01*
X127213333Y-144768693D01*
X127343958Y-145096536D01*
X127345558Y-145099555D01*
X127345560Y-145099558D01*
X127462481Y-145320095D01*
X127509263Y-145408334D01*
X127573389Y-145502913D01*
X127705388Y-145697598D01*
X127705392Y-145697604D01*
X127707310Y-145700432D01*
X127935777Y-145969405D01*
X127938257Y-145971754D01*
X128189502Y-146209747D01*
X128189511Y-146209754D01*
X128191987Y-146212100D01*
X128472934Y-146425670D01*
X128775326Y-146607613D01*
X129095616Y-146755795D01*
X129430050Y-146868479D01*
X129774707Y-146944344D01*
X130125546Y-146982500D01*
X130128961Y-146982500D01*
X130475039Y-146982500D01*
X130478454Y-146982500D01*
X130829293Y-146944344D01*
X131173950Y-146868479D01*
X131508384Y-146755795D01*
X131828674Y-146607613D01*
X132131066Y-146425670D01*
X132412013Y-146212100D01*
X132668223Y-145969405D01*
X132896690Y-145700432D01*
X133094737Y-145408334D01*
X133260042Y-145096536D01*
X133390667Y-144768693D01*
X133484093Y-144432202D01*
X133521590Y-144371917D01*
X133585728Y-144341473D01*
X133656144Y-144350538D01*
X133710480Y-144396233D01*
X133731486Y-144464051D01*
X133731500Y-144465912D01*
X133731500Y-144740460D01*
X133731302Y-144747525D01*
X133725012Y-144859524D01*
X133714808Y-145028216D01*
X133713258Y-145041714D01*
X133690723Y-145174343D01*
X133672343Y-145274638D01*
X133664015Y-145320091D01*
X133664014Y-145320095D01*
X133661154Y-145332257D01*
X133622995Y-145464707D01*
X133622215Y-145467310D01*
X133579606Y-145604050D01*
X133575719Y-145614784D01*
X133522330Y-145743674D01*
X133520821Y-145747168D01*
X133462740Y-145876217D01*
X133458120Y-145885451D01*
X133390231Y-146008290D01*
X133387780Y-146012528D01*
X133314996Y-146132926D01*
X133309929Y-146140654D01*
X133228447Y-146255492D01*
X133224871Y-146260285D01*
X133138365Y-146370702D01*
X133133131Y-146376955D01*
X133039181Y-146482086D01*
X133034325Y-146487222D01*
X132935222Y-146586325D01*
X132930086Y-146591181D01*
X132824955Y-146685131D01*
X132818702Y-146690365D01*
X132708285Y-146776871D01*
X132703492Y-146780447D01*
X132588654Y-146861929D01*
X132580926Y-146866996D01*
X132460528Y-146939780D01*
X132456290Y-146942231D01*
X132333451Y-147010120D01*
X132324217Y-147014740D01*
X132195168Y-147072821D01*
X132191674Y-147074330D01*
X132062784Y-147127719D01*
X132052050Y-147131606D01*
X131915310Y-147174215D01*
X131912706Y-147174996D01*
X131780260Y-147213153D01*
X131768092Y-147216013D01*
X131622344Y-147242723D01*
X131489709Y-147265258D01*
X131476221Y-147266807D01*
X131307524Y-147277012D01*
X131195525Y-147283302D01*
X131188461Y-147283500D01*
X81317940Y-147283500D01*
X81249819Y-147263498D01*
X81203326Y-147209842D01*
X81193222Y-147139568D01*
X81222716Y-147074988D01*
X81282442Y-147036604D01*
X81290854Y-147034446D01*
X81356074Y-147020089D01*
X81576960Y-146971469D01*
X81911394Y-146858785D01*
X82231684Y-146710603D01*
X82534076Y-146528660D01*
X82815023Y-146315090D01*
X83071233Y-146072395D01*
X83299700Y-145803422D01*
X83497747Y-145511324D01*
X83663052Y-145199526D01*
X83793677Y-144871683D01*
X83888090Y-144531639D01*
X83945184Y-144183380D01*
X83964290Y-143830990D01*
X83952959Y-143621999D01*
X88574058Y-143621999D01*
X88594175Y-143826248D01*
X88653752Y-144022645D01*
X88750501Y-144203652D01*
X88880700Y-144362299D01*
X89039347Y-144492498D01*
X89039351Y-144492500D01*
X89220353Y-144589247D01*
X89300252Y-144613484D01*
X89416751Y-144648824D01*
X89621000Y-144668941D01*
X89825248Y-144648824D01*
X90021647Y-144589247D01*
X90202649Y-144492500D01*
X90202650Y-144492498D01*
X90202652Y-144492498D01*
X90361299Y-144362299D01*
X90491498Y-144203652D01*
X90500536Y-144186743D01*
X90588247Y-144022647D01*
X90647824Y-143826248D01*
X90667941Y-143622000D01*
X90667172Y-143614187D01*
X90647824Y-143417751D01*
X90588247Y-143221354D01*
X90588247Y-143221353D01*
X90491500Y-143040351D01*
X90491498Y-143040347D01*
X90361299Y-142881700D01*
X90202652Y-142751501D01*
X90021645Y-142654752D01*
X89825248Y-142595175D01*
X89621000Y-142575058D01*
X89416751Y-142595175D01*
X89220354Y-142654752D01*
X89039347Y-142751501D01*
X88880700Y-142881700D01*
X88750501Y-143040347D01*
X88653752Y-143221354D01*
X88594175Y-143417751D01*
X88574058Y-143621999D01*
X83952959Y-143621999D01*
X83945184Y-143478600D01*
X83888090Y-143130341D01*
X83883776Y-143114805D01*
X83850808Y-142996065D01*
X83793677Y-142790297D01*
X83663052Y-142462454D01*
X83497747Y-142150656D01*
X83299700Y-141858558D01*
X83071233Y-141589585D01*
X83039456Y-141559484D01*
X82817507Y-141349242D01*
X82817497Y-141349233D01*
X82815023Y-141346890D01*
X82534076Y-141133320D01*
X82231684Y-140951377D01*
X82228586Y-140949943D01*
X82228579Y-140949940D01*
X81914492Y-140804628D01*
X81914487Y-140804626D01*
X81911394Y-140803195D01*
X81908165Y-140802107D01*
X81908160Y-140802105D01*
X81580196Y-140691601D01*
X81580190Y-140691599D01*
X81576960Y-140690511D01*
X81573635Y-140689779D01*
X81573624Y-140689776D01*
X81235634Y-140615379D01*
X81235630Y-140615378D01*
X81232303Y-140614646D01*
X81222458Y-140613575D01*
X80884862Y-140576859D01*
X80884851Y-140576858D01*
X80881464Y-140576490D01*
X80528556Y-140576490D01*
X80525169Y-140576858D01*
X80525157Y-140576859D01*
X80181109Y-140614277D01*
X80181107Y-140614277D01*
X80177717Y-140614646D01*
X80174392Y-140615377D01*
X80174385Y-140615379D01*
X79836395Y-140689776D01*
X79836379Y-140689780D01*
X79833060Y-140690511D01*
X79829834Y-140691597D01*
X79829823Y-140691601D01*
X79501859Y-140802105D01*
X79501848Y-140802109D01*
X79498626Y-140803195D01*
X79495538Y-140804623D01*
X79495527Y-140804628D01*
X79181440Y-140949940D01*
X79181426Y-140949947D01*
X79178336Y-140951377D01*
X79175410Y-140953137D01*
X79175409Y-140953138D01*
X78878876Y-141131555D01*
X78878864Y-141131562D01*
X78875944Y-141133320D01*
X78873228Y-141135383D01*
X78873220Y-141135390D01*
X78597715Y-141344823D01*
X78597705Y-141344830D01*
X78594997Y-141346890D01*
X78592531Y-141349225D01*
X78592512Y-141349242D01*
X78341267Y-141587235D01*
X78341259Y-141587242D01*
X78338787Y-141589585D01*
X78336590Y-141592171D01*
X78336581Y-141592181D01*
X78112531Y-141855954D01*
X78112523Y-141855963D01*
X78110320Y-141858558D01*
X78108408Y-141861376D01*
X78108398Y-141861391D01*
X77980054Y-142050686D01*
X77912273Y-142150656D01*
X77910678Y-142153663D01*
X77910671Y-142153676D01*
X77748570Y-142459431D01*
X77748565Y-142459441D01*
X77746968Y-142462454D01*
X77745705Y-142465622D01*
X77745703Y-142465628D01*
X77631801Y-142751501D01*
X77616343Y-142790297D01*
X77615432Y-142793578D01*
X77615429Y-142793587D01*
X77522842Y-143127052D01*
X77522837Y-143127072D01*
X77521930Y-143130341D01*
X77521380Y-143133693D01*
X77521377Y-143133709D01*
X77474811Y-143417752D01*
X77464836Y-143478600D01*
X77464651Y-143481993D01*
X77464651Y-143482003D01*
X77448287Y-143783821D01*
X77445730Y-143830990D01*
X77445915Y-143834402D01*
X77463781Y-144163935D01*
X77464836Y-144183380D01*
X77465386Y-144186736D01*
X77465387Y-144186743D01*
X77521377Y-144528270D01*
X77521379Y-144528282D01*
X77521930Y-144531639D01*
X77522838Y-144534911D01*
X77522842Y-144534927D01*
X77615429Y-144868392D01*
X77616343Y-144871683D01*
X77746968Y-145199526D01*
X77748568Y-145202545D01*
X77748570Y-145202548D01*
X77907813Y-145502913D01*
X77912273Y-145511324D01*
X78017441Y-145666436D01*
X78108398Y-145800588D01*
X78108402Y-145800594D01*
X78110320Y-145803422D01*
X78338787Y-146072395D01*
X78341267Y-146074744D01*
X78592512Y-146312737D01*
X78592521Y-146312744D01*
X78594997Y-146315090D01*
X78875944Y-146528660D01*
X79178336Y-146710603D01*
X79498626Y-146858785D01*
X79833060Y-146971469D01*
X79883174Y-146982500D01*
X80119166Y-147034446D01*
X80181395Y-147068624D01*
X80215266Y-147131020D01*
X80210027Y-147201823D01*
X80167340Y-147258554D01*
X80100759Y-147283201D01*
X80092080Y-147283500D01*
X79732539Y-147283500D01*
X79725474Y-147283302D01*
X79613475Y-147277012D01*
X79444782Y-147266808D01*
X79431284Y-147265258D01*
X79298656Y-147242723D01*
X79227995Y-147229774D01*
X79152887Y-147216010D01*
X79140741Y-147213154D01*
X79008291Y-147174995D01*
X79005688Y-147174215D01*
X78868948Y-147131606D01*
X78858214Y-147127719D01*
X78729324Y-147074330D01*
X78725830Y-147072821D01*
X78596781Y-147014740D01*
X78587547Y-147010120D01*
X78511226Y-146967940D01*
X78464682Y-146942216D01*
X78460470Y-146939780D01*
X78340072Y-146866996D01*
X78332344Y-146861929D01*
X78217506Y-146780447D01*
X78212713Y-146776871D01*
X78102296Y-146690365D01*
X78096043Y-146685131D01*
X77990912Y-146591181D01*
X77985776Y-146586325D01*
X77886673Y-146487222D01*
X77881817Y-146482086D01*
X77787867Y-146376955D01*
X77782633Y-146370702D01*
X77696127Y-146260285D01*
X77692564Y-146255509D01*
X77611059Y-146140638D01*
X77606002Y-146132926D01*
X77533194Y-146012487D01*
X77530802Y-146008350D01*
X77462878Y-145885451D01*
X77458258Y-145876217D01*
X77424220Y-145800588D01*
X77400157Y-145747122D01*
X77398668Y-145743674D01*
X77386262Y-145713724D01*
X77345275Y-145614774D01*
X77341400Y-145604072D01*
X77298779Y-145467297D01*
X77298002Y-145464706D01*
X77284142Y-145416597D01*
X77259842Y-145332250D01*
X77256986Y-145320095D01*
X77230288Y-145174416D01*
X77207738Y-145041697D01*
X77206192Y-145028233D01*
X77195988Y-144859524D01*
X77189698Y-144747524D01*
X77189500Y-144740462D01*
X77189500Y-84436000D01*
X77209502Y-84367879D01*
X77263158Y-84321386D01*
X77315500Y-84310000D01*
X79343231Y-84310000D01*
X79411352Y-84330002D01*
X79457845Y-84383658D01*
X79467949Y-84453932D01*
X79438455Y-84518512D01*
X79432326Y-84525095D01*
X78334819Y-85622601D01*
X78332534Y-85624830D01*
X78268897Y-85685321D01*
X78235096Y-85733883D01*
X78229335Y-85741523D01*
X78191947Y-85787378D01*
X78177848Y-85814368D01*
X78169587Y-85828003D01*
X78152189Y-85853000D01*
X78128850Y-85907384D01*
X78124745Y-85916028D01*
X78097358Y-85968457D01*
X78088984Y-85997727D01*
X78083634Y-86012754D01*
X78071624Y-86040739D01*
X78059713Y-86098696D01*
X78057432Y-86107988D01*
X78041157Y-86164871D01*
X78038844Y-86195231D01*
X78036630Y-86211018D01*
X78030500Y-86240852D01*
X78030500Y-86300023D01*
X78030136Y-86309590D01*
X78025643Y-86368577D01*
X78029490Y-86398774D01*
X78030500Y-86414694D01*
X78030500Y-133445684D01*
X78030460Y-133448876D01*
X78028235Y-133536670D01*
X78038673Y-133594910D01*
X78040002Y-133604389D01*
X78045987Y-133663244D01*
X78055103Y-133692301D01*
X78058903Y-133707784D01*
X78064276Y-133737757D01*
X78086221Y-133792693D01*
X78089432Y-133801713D01*
X78107146Y-133858171D01*
X78121921Y-133884791D01*
X78128761Y-133899194D01*
X78140060Y-133927478D01*
X78172619Y-133976881D01*
X78177570Y-133985052D01*
X78206292Y-134036798D01*
X78206294Y-134036801D01*
X78226123Y-134059899D01*
X78235727Y-134072636D01*
X78252482Y-134098059D01*
X78294321Y-134139898D01*
X78300817Y-134146907D01*
X78339364Y-134191809D01*
X78363444Y-134210448D01*
X78375414Y-134220991D01*
X79770448Y-135616026D01*
X79774846Y-135620652D01*
X79824126Y-135675196D01*
X79883356Y-135718689D01*
X79888395Y-135722589D01*
X79945380Y-135769054D01*
X79959618Y-135776491D01*
X79975851Y-135786610D01*
X79988794Y-135796114D01*
X80055609Y-135826813D01*
X80061289Y-135829598D01*
X80126460Y-135863642D01*
X80136644Y-135866555D01*
X80141894Y-135868058D01*
X80159841Y-135874705D01*
X80174431Y-135881409D01*
X80246053Y-135898028D01*
X80252200Y-135899620D01*
X80322873Y-135919843D01*
X80338883Y-135921062D01*
X80357795Y-135923958D01*
X80373439Y-135927589D01*
X80446931Y-135929450D01*
X80453281Y-135929773D01*
X80526578Y-135935356D01*
X80542516Y-135933325D01*
X80561599Y-135932357D01*
X80577668Y-135932765D01*
X80596164Y-135929450D01*
X80601599Y-135928476D01*
X80623826Y-135926500D01*
X85634852Y-135926500D01*
X88192733Y-135926500D01*
X88260854Y-135946502D01*
X88281828Y-135963405D01*
X91165595Y-138847172D01*
X91199621Y-138909484D01*
X91202500Y-138936267D01*
X91202500Y-143173828D01*
X91197074Y-143210404D01*
X91134175Y-143417751D01*
X91114058Y-143622000D01*
X91134175Y-143826248D01*
X91193752Y-144022645D01*
X91290501Y-144203652D01*
X91420700Y-144362299D01*
X91579347Y-144492498D01*
X91579351Y-144492500D01*
X91760353Y-144589247D01*
X91840252Y-144613484D01*
X91956751Y-144648824D01*
X92160999Y-144668941D01*
X92160999Y-144668940D01*
X92161000Y-144668941D01*
X92365248Y-144648824D01*
X92561647Y-144589247D01*
X92742649Y-144492500D01*
X92742650Y-144492498D01*
X92742652Y-144492498D01*
X92901299Y-144362299D01*
X93031498Y-144203652D01*
X93040536Y-144186743D01*
X93128247Y-144022647D01*
X93187824Y-143826248D01*
X93190705Y-143796992D01*
X93194959Y-143774688D01*
X93200843Y-143754127D01*
X93203154Y-143723772D01*
X93205370Y-143707973D01*
X93211500Y-143678148D01*
X93211500Y-143621999D01*
X93654058Y-143621999D01*
X93674175Y-143826248D01*
X93733752Y-144022645D01*
X93830501Y-144203652D01*
X93960700Y-144362299D01*
X94119347Y-144492498D01*
X94119351Y-144492500D01*
X94300353Y-144589247D01*
X94496752Y-144648824D01*
X94500224Y-144649166D01*
X94507313Y-144652028D01*
X94508628Y-144652427D01*
X94508592Y-144652544D01*
X94566055Y-144675746D01*
X94607067Y-144733699D01*
X94610236Y-144804625D01*
X94574557Y-144866005D01*
X94524831Y-144891455D01*
X94525820Y-144894497D01*
X94513226Y-144898588D01*
X94513225Y-144898589D01*
X94485578Y-144907571D01*
X94333656Y-144956933D01*
X94170141Y-145051339D01*
X94029831Y-145177675D01*
X93918852Y-145330425D01*
X93857907Y-145467310D01*
X93842055Y-145502913D01*
X93802800Y-145687596D01*
X93802800Y-145876406D01*
X93842055Y-146061089D01*
X93918851Y-146233575D01*
X94023023Y-146376955D01*
X94029831Y-146386326D01*
X94170141Y-146512662D01*
X94333656Y-146607068D01*
X94404961Y-146630236D01*
X94513225Y-146665413D01*
X94653923Y-146680201D01*
X94657213Y-146680201D01*
X94744787Y-146680201D01*
X94748077Y-146680201D01*
X94888775Y-146665413D01*
X95068343Y-146607068D01*
X95231857Y-146512663D01*
X95372170Y-146386325D01*
X95483149Y-146233575D01*
X95559945Y-146061089D01*
X95596311Y-145890000D01*
X100005726Y-145890000D01*
X100024763Y-146058956D01*
X100028557Y-146069798D01*
X100080918Y-146219437D01*
X100103573Y-146255492D01*
X100171377Y-146363402D01*
X100291597Y-146483622D01*
X100291599Y-146483623D01*
X100291600Y-146483624D01*
X100435563Y-146574082D01*
X100596046Y-146630237D01*
X100765000Y-146649274D01*
X100933954Y-146630237D01*
X101094437Y-146574082D01*
X101238400Y-146483624D01*
X101358624Y-146363400D01*
X101449082Y-146219437D01*
X101505237Y-146058954D01*
X101524274Y-145890000D01*
X101505237Y-145721046D01*
X101449082Y-145560563D01*
X101358624Y-145416600D01*
X101358623Y-145416599D01*
X101358622Y-145416597D01*
X101238402Y-145296377D01*
X101196647Y-145270141D01*
X101094437Y-145205918D01*
X101040942Y-145187199D01*
X100933956Y-145149763D01*
X100765000Y-145130726D01*
X100596043Y-145149763D01*
X100435563Y-145205918D01*
X100291597Y-145296377D01*
X100171377Y-145416597D01*
X100080918Y-145560563D01*
X100024763Y-145721043D01*
X100005726Y-145890000D01*
X95596311Y-145890000D01*
X95599200Y-145876406D01*
X95599200Y-145687596D01*
X95559945Y-145502913D01*
X95483149Y-145330427D01*
X95372170Y-145177677D01*
X95363888Y-145170220D01*
X95231858Y-145051339D01*
X95068343Y-144956933D01*
X94926099Y-144910716D01*
X94888775Y-144898589D01*
X94888773Y-144898588D01*
X94876180Y-144894497D01*
X94877559Y-144890250D01*
X94835234Y-144872806D01*
X94794641Y-144814559D01*
X94791983Y-144743612D01*
X94828103Y-144682491D01*
X94891534Y-144650600D01*
X94901759Y-144649167D01*
X94905248Y-144648824D01*
X95101647Y-144589247D01*
X95282649Y-144492500D01*
X95282650Y-144492498D01*
X95282652Y-144492498D01*
X95441299Y-144362299D01*
X95571498Y-144203652D01*
X95580536Y-144186743D01*
X95668247Y-144022647D01*
X95727824Y-143826248D01*
X95747941Y-143622000D01*
X96194058Y-143622000D01*
X96214175Y-143826248D01*
X96273752Y-144022645D01*
X96370501Y-144203652D01*
X96500700Y-144362299D01*
X96659347Y-144492498D01*
X96659351Y-144492500D01*
X96840353Y-144589247D01*
X96920252Y-144613484D01*
X97036751Y-144648824D01*
X97241000Y-144668941D01*
X97445248Y-144648824D01*
X97641647Y-144589247D01*
X97822649Y-144492500D01*
X97822650Y-144492498D01*
X97822652Y-144492498D01*
X97868260Y-144455068D01*
X108245500Y-144455068D01*
X108260265Y-144529300D01*
X108316515Y-144613484D01*
X108366506Y-144646887D01*
X108400699Y-144669734D01*
X108474933Y-144684500D01*
X110225066Y-144684499D01*
X110225068Y-144684499D01*
X110274556Y-144674655D01*
X110299301Y-144669734D01*
X110383484Y-144613484D01*
X110439734Y-144529301D01*
X110454500Y-144455067D01*
X110454499Y-143579999D01*
X110780767Y-143579999D01*
X110799654Y-143783819D01*
X110855672Y-143980702D01*
X110946910Y-144163933D01*
X110976905Y-144203652D01*
X111070268Y-144327285D01*
X111221538Y-144465186D01*
X111395573Y-144572944D01*
X111586444Y-144646888D01*
X111787653Y-144684500D01*
X111787655Y-144684500D01*
X111992345Y-144684500D01*
X111992347Y-144684500D01*
X112193556Y-144646888D01*
X112384427Y-144572944D01*
X112558462Y-144465186D01*
X112709732Y-144327285D01*
X112833088Y-144163935D01*
X112924328Y-143980701D01*
X112980345Y-143783821D01*
X112999232Y-143580000D01*
X113320767Y-143580000D01*
X113339654Y-143783819D01*
X113395672Y-143980702D01*
X113486910Y-144163933D01*
X113516905Y-144203652D01*
X113610268Y-144327285D01*
X113761538Y-144465186D01*
X113935573Y-144572944D01*
X114126444Y-144646888D01*
X114327653Y-144684500D01*
X114327655Y-144684500D01*
X114532345Y-144684500D01*
X114532347Y-144684500D01*
X114733556Y-144646888D01*
X114924427Y-144572944D01*
X115098462Y-144465186D01*
X115249732Y-144327285D01*
X115373088Y-144163935D01*
X115464328Y-143980701D01*
X115520345Y-143783821D01*
X115539232Y-143580000D01*
X115539232Y-143579999D01*
X115860767Y-143579999D01*
X115879654Y-143783819D01*
X115935672Y-143980702D01*
X116026910Y-144163933D01*
X116056905Y-144203652D01*
X116150268Y-144327285D01*
X116301538Y-144465186D01*
X116475573Y-144572944D01*
X116666444Y-144646888D01*
X116867653Y-144684500D01*
X116867655Y-144684500D01*
X117072345Y-144684500D01*
X117072347Y-144684500D01*
X117273556Y-144646888D01*
X117464427Y-144572944D01*
X117638462Y-144465186D01*
X117789732Y-144327285D01*
X117913088Y-144163935D01*
X118004328Y-143980701D01*
X118060345Y-143783821D01*
X118079232Y-143580000D01*
X118400767Y-143580000D01*
X118419654Y-143783819D01*
X118475672Y-143980702D01*
X118566910Y-144163933D01*
X118596905Y-144203652D01*
X118690268Y-144327285D01*
X118841538Y-144465186D01*
X119015573Y-144572944D01*
X119206444Y-144646888D01*
X119407653Y-144684500D01*
X119407655Y-144684500D01*
X119612345Y-144684500D01*
X119612347Y-144684500D01*
X119813556Y-144646888D01*
X120004427Y-144572944D01*
X120178462Y-144465186D01*
X120329732Y-144327285D01*
X120453088Y-144163935D01*
X120544328Y-143980701D01*
X120600345Y-143783821D01*
X120619232Y-143580000D01*
X120600345Y-143376179D01*
X120544328Y-143179299D01*
X120512214Y-143114805D01*
X120453089Y-142996066D01*
X120366724Y-142881701D01*
X120329732Y-142832715D01*
X120178462Y-142694814D01*
X120074913Y-142630699D01*
X120004428Y-142587056D01*
X119899779Y-142546515D01*
X119813556Y-142513112D01*
X119612347Y-142475500D01*
X119407653Y-142475500D01*
X119206443Y-142513111D01*
X119206444Y-142513112D01*
X119015571Y-142587056D01*
X118841539Y-142694813D01*
X118690267Y-142832716D01*
X118566910Y-142996066D01*
X118475672Y-143179297D01*
X118419654Y-143376180D01*
X118400767Y-143580000D01*
X118079232Y-143580000D01*
X118060345Y-143376179D01*
X118004328Y-143179299D01*
X117972214Y-143114805D01*
X117913089Y-142996066D01*
X117826724Y-142881701D01*
X117789732Y-142832715D01*
X117638462Y-142694814D01*
X117534913Y-142630699D01*
X117464428Y-142587056D01*
X117359779Y-142546515D01*
X117273556Y-142513112D01*
X117072347Y-142475500D01*
X116867653Y-142475500D01*
X116666443Y-142513111D01*
X116666444Y-142513112D01*
X116475571Y-142587056D01*
X116301539Y-142694813D01*
X116150267Y-142832716D01*
X116026910Y-142996066D01*
X115935672Y-143179297D01*
X115879654Y-143376180D01*
X115860767Y-143579999D01*
X115539232Y-143579999D01*
X115520345Y-143376179D01*
X115464328Y-143179299D01*
X115432214Y-143114805D01*
X115373089Y-142996066D01*
X115286724Y-142881701D01*
X115249732Y-142832715D01*
X115098462Y-142694814D01*
X114994913Y-142630699D01*
X114924428Y-142587056D01*
X114819779Y-142546515D01*
X114733556Y-142513112D01*
X114532347Y-142475500D01*
X114327653Y-142475500D01*
X114126444Y-142513111D01*
X114126444Y-142513112D01*
X113935571Y-142587056D01*
X113761539Y-142694813D01*
X113610267Y-142832716D01*
X113486910Y-142996066D01*
X113395672Y-143179297D01*
X113339654Y-143376180D01*
X113320767Y-143580000D01*
X112999232Y-143580000D01*
X112980345Y-143376179D01*
X112924328Y-143179299D01*
X112892214Y-143114805D01*
X112833089Y-142996066D01*
X112746724Y-142881701D01*
X112709732Y-142832715D01*
X112558462Y-142694814D01*
X112454913Y-142630699D01*
X112384428Y-142587056D01*
X112279779Y-142546515D01*
X112193556Y-142513112D01*
X111992347Y-142475500D01*
X111787653Y-142475500D01*
X111586443Y-142513111D01*
X111586444Y-142513112D01*
X111395571Y-142587056D01*
X111221539Y-142694813D01*
X111070267Y-142832716D01*
X110946910Y-142996066D01*
X110855672Y-143179297D01*
X110799654Y-143376180D01*
X110780767Y-143579999D01*
X110454499Y-143579999D01*
X110454499Y-142704934D01*
X110454499Y-142704933D01*
X110454499Y-142704931D01*
X110439734Y-142630699D01*
X110383484Y-142546515D01*
X110299301Y-142490266D01*
X110299296Y-142490265D01*
X110225067Y-142475500D01*
X110225066Y-142475500D01*
X108474931Y-142475500D01*
X108400699Y-142490265D01*
X108316515Y-142546515D01*
X108260266Y-142630698D01*
X108245500Y-142704933D01*
X108245500Y-144455068D01*
X97868260Y-144455068D01*
X97981299Y-144362299D01*
X98111498Y-144203652D01*
X98120536Y-144186743D01*
X98208247Y-144022647D01*
X98267824Y-143826248D01*
X98287941Y-143622000D01*
X98267824Y-143417752D01*
X98255040Y-143375610D01*
X98208247Y-143221354D01*
X98208247Y-143221353D01*
X98111500Y-143040351D01*
X98111498Y-143040347D01*
X97981299Y-142881700D01*
X97822652Y-142751501D01*
X97641645Y-142654752D01*
X97445248Y-142595175D01*
X97240999Y-142575058D01*
X97036751Y-142595175D01*
X96840354Y-142654752D01*
X96659347Y-142751501D01*
X96500700Y-142881700D01*
X96370501Y-143040347D01*
X96273752Y-143221354D01*
X96214175Y-143417751D01*
X96194058Y-143622000D01*
X95747941Y-143622000D01*
X95747172Y-143614187D01*
X95727824Y-143417751D01*
X95668247Y-143221354D01*
X95668247Y-143221353D01*
X95571500Y-143040351D01*
X95571498Y-143040347D01*
X95441299Y-142881700D01*
X95282652Y-142751501D01*
X95101645Y-142654752D01*
X94905248Y-142595175D01*
X94701000Y-142575058D01*
X94496751Y-142595175D01*
X94300354Y-142654752D01*
X94119347Y-142751501D01*
X93960700Y-142881700D01*
X93830501Y-143040347D01*
X93733752Y-143221354D01*
X93674175Y-143417751D01*
X93654058Y-143621999D01*
X93211500Y-143621999D01*
X93211500Y-143618950D01*
X93211861Y-143609435D01*
X93216356Y-143550422D01*
X93212510Y-143520224D01*
X93211500Y-143504305D01*
X93211500Y-138482314D01*
X93211540Y-138479122D01*
X93213765Y-138391332D01*
X93203327Y-138333096D01*
X93201999Y-138323637D01*
X93196012Y-138264753D01*
X93186894Y-138235694D01*
X93183094Y-138220209D01*
X93177722Y-138190238D01*
X93155774Y-138135295D01*
X93152566Y-138126287D01*
X93134853Y-138069827D01*
X93134852Y-138069825D01*
X93120074Y-138043200D01*
X93113236Y-138028803D01*
X93101940Y-138000522D01*
X93093779Y-137988139D01*
X93069378Y-137951113D01*
X93064417Y-137942926D01*
X93058112Y-137931567D01*
X93035708Y-137891202D01*
X93035705Y-137891198D01*
X93015877Y-137868101D01*
X93006273Y-137855364D01*
X92989516Y-137829938D01*
X92947691Y-137788113D01*
X92941183Y-137781091D01*
X92902638Y-137736192D01*
X92878554Y-137717550D01*
X92866584Y-137707007D01*
X92549577Y-137390000D01*
X93920693Y-137390000D01*
X93939850Y-137547780D01*
X93996212Y-137696394D01*
X94067994Y-137800387D01*
X94086502Y-137827201D01*
X94205471Y-137932599D01*
X94346207Y-138006463D01*
X94500529Y-138044500D01*
X94500531Y-138044500D01*
X94659469Y-138044500D01*
X94659471Y-138044500D01*
X94813793Y-138006463D01*
X94954529Y-137932599D01*
X95073498Y-137827201D01*
X95163787Y-137696395D01*
X95220149Y-137547782D01*
X95239307Y-137390000D01*
X95220149Y-137232218D01*
X95163787Y-137083605D01*
X95073498Y-136952799D01*
X94954529Y-136847401D01*
X94813793Y-136773537D01*
X94659471Y-136735500D01*
X94500529Y-136735500D01*
X94346207Y-136773537D01*
X94346206Y-136773537D01*
X94346204Y-136773538D01*
X94205472Y-136847400D01*
X94086501Y-136952799D01*
X93996212Y-137083605D01*
X93939850Y-137232219D01*
X93920693Y-137390000D01*
X92549577Y-137390000D01*
X91675577Y-136516000D01*
X98022693Y-136516000D01*
X98041850Y-136673780D01*
X98098212Y-136822394D01*
X98188225Y-136952799D01*
X98188502Y-136953201D01*
X98307471Y-137058599D01*
X98448207Y-137132463D01*
X98602529Y-137170500D01*
X98602531Y-137170500D01*
X98761469Y-137170500D01*
X98761471Y-137170500D01*
X98915793Y-137132463D01*
X99056529Y-137058599D01*
X99175498Y-136953201D01*
X99265787Y-136822395D01*
X99322149Y-136673782D01*
X99341307Y-136516000D01*
X99337079Y-136481182D01*
X124379500Y-136481182D01*
X124418604Y-136740615D01*
X124418605Y-136740618D01*
X124495936Y-136991323D01*
X124609772Y-137227704D01*
X124757563Y-137444474D01*
X124757565Y-137444476D01*
X124757567Y-137444479D01*
X124936019Y-137636805D01*
X125141143Y-137800386D01*
X125368357Y-137931568D01*
X125612584Y-138027420D01*
X125868370Y-138085802D01*
X126064506Y-138100500D01*
X126066859Y-138100500D01*
X126193141Y-138100500D01*
X126195494Y-138100500D01*
X126391630Y-138085802D01*
X126647416Y-138027420D01*
X126891643Y-137931568D01*
X127118857Y-137800386D01*
X127323981Y-137636805D01*
X127502433Y-137444479D01*
X127650228Y-137227704D01*
X127764063Y-136991323D01*
X127841396Y-136740615D01*
X127880500Y-136481182D01*
X127880500Y-136218818D01*
X127841396Y-135959385D01*
X127767735Y-135720582D01*
X127764063Y-135708676D01*
X127709242Y-135594840D01*
X127650228Y-135472296D01*
X127502433Y-135255521D01*
X127323981Y-135063195D01*
X127118857Y-134899614D01*
X126891643Y-134768432D01*
X126647417Y-134672580D01*
X126391630Y-134614198D01*
X126197836Y-134599675D01*
X126197822Y-134599674D01*
X126195494Y-134599500D01*
X126064506Y-134599500D01*
X126062178Y-134599674D01*
X126062163Y-134599675D01*
X125868369Y-134614198D01*
X125612582Y-134672580D01*
X125368356Y-134768432D01*
X125141146Y-134899612D01*
X125141143Y-134899614D01*
X124936019Y-135063195D01*
X124797525Y-135212455D01*
X124757563Y-135255525D01*
X124609772Y-135472295D01*
X124495936Y-135708676D01*
X124426016Y-135935355D01*
X124418604Y-135959385D01*
X124379500Y-136218818D01*
X124379500Y-136481182D01*
X99337079Y-136481182D01*
X99322149Y-136358218D01*
X99265787Y-136209605D01*
X99175498Y-136078799D01*
X99056529Y-135973401D01*
X98915793Y-135899537D01*
X98761471Y-135861500D01*
X98602529Y-135861500D01*
X98448207Y-135899537D01*
X98448206Y-135899537D01*
X98448204Y-135899538D01*
X98307472Y-135973400D01*
X98188501Y-136078799D01*
X98098212Y-136209605D01*
X98041850Y-136358219D01*
X98022693Y-136516000D01*
X91675577Y-136516000D01*
X89381418Y-134221840D01*
X89379189Y-134219555D01*
X89318677Y-134155896D01*
X89270121Y-134122100D01*
X89262478Y-134116337D01*
X89216620Y-134078946D01*
X89189629Y-134064847D01*
X89175987Y-134056582D01*
X89151000Y-134039190D01*
X89096625Y-134015855D01*
X89087980Y-134011749D01*
X89035539Y-133984357D01*
X89006263Y-133975980D01*
X88991236Y-133970630D01*
X88963260Y-133958624D01*
X88905307Y-133946714D01*
X88896015Y-133944434D01*
X88880051Y-133939866D01*
X88839125Y-133928156D01*
X88808768Y-133925844D01*
X88792980Y-133923630D01*
X88773359Y-133919598D01*
X88763148Y-133917500D01*
X88763147Y-133917500D01*
X88703975Y-133917500D01*
X88694407Y-133917136D01*
X88635422Y-133912644D01*
X88635421Y-133912644D01*
X88620022Y-133914605D01*
X88605224Y-133916490D01*
X88589306Y-133917500D01*
X87149818Y-133917500D01*
X87081697Y-133897498D01*
X87035204Y-133843842D01*
X87025100Y-133773568D01*
X87054594Y-133708988D01*
X87060723Y-133702405D01*
X87975348Y-132787780D01*
X88133128Y-132630000D01*
X94600693Y-132630000D01*
X94619850Y-132787780D01*
X94676212Y-132936394D01*
X94750434Y-133043922D01*
X94766502Y-133067201D01*
X94885471Y-133172599D01*
X95026207Y-133246463D01*
X95180529Y-133284500D01*
X95180531Y-133284500D01*
X95339469Y-133284500D01*
X95339471Y-133284500D01*
X95493793Y-133246463D01*
X95634529Y-133172599D01*
X95753498Y-133067201D01*
X95843787Y-132936395D01*
X95900149Y-132787782D01*
X95919307Y-132630000D01*
X95900149Y-132472218D01*
X95843787Y-132323605D01*
X95841299Y-132320000D01*
X104670693Y-132320000D01*
X104689850Y-132477780D01*
X104746212Y-132626394D01*
X104748701Y-132629999D01*
X104836502Y-132757201D01*
X104955471Y-132862599D01*
X105096207Y-132936463D01*
X105250529Y-132974500D01*
X105250531Y-132974500D01*
X105409469Y-132974500D01*
X105409471Y-132974500D01*
X105563793Y-132936463D01*
X105704529Y-132862599D01*
X105823498Y-132757201D01*
X105913787Y-132626395D01*
X105970149Y-132477782D01*
X105989307Y-132320000D01*
X105970149Y-132162218D01*
X105913787Y-132013605D01*
X105823498Y-131882799D01*
X105704529Y-131777401D01*
X105563793Y-131703537D01*
X105409471Y-131665500D01*
X105250529Y-131665500D01*
X105096207Y-131703537D01*
X105096206Y-131703537D01*
X105096204Y-131703538D01*
X104955472Y-131777400D01*
X104836501Y-131882799D01*
X104746212Y-132013605D01*
X104689850Y-132162219D01*
X104670693Y-132320000D01*
X95841299Y-132320000D01*
X95753498Y-132192799D01*
X95634529Y-132087401D01*
X95493793Y-132013537D01*
X95339471Y-131975500D01*
X95180529Y-131975500D01*
X95026207Y-132013537D01*
X95026206Y-132013537D01*
X95026204Y-132013538D01*
X94885472Y-132087400D01*
X94766501Y-132192799D01*
X94676212Y-132323605D01*
X94619850Y-132472219D01*
X94600693Y-132630000D01*
X88133128Y-132630000D01*
X88908647Y-131854480D01*
X88967583Y-131821239D01*
X89116793Y-131784463D01*
X89234031Y-131722931D01*
X89292584Y-131708500D01*
X90444740Y-131708500D01*
X90503295Y-131722932D01*
X90506470Y-131724598D01*
X90506471Y-131724599D01*
X90647207Y-131798463D01*
X90801529Y-131836500D01*
X90801531Y-131836500D01*
X90960469Y-131836500D01*
X90960471Y-131836500D01*
X91114793Y-131798463D01*
X91255529Y-131724599D01*
X91255529Y-131724598D01*
X91258705Y-131722932D01*
X91317260Y-131708500D01*
X97989195Y-131708500D01*
X98057316Y-131728502D01*
X98072748Y-131740187D01*
X98075469Y-131742598D01*
X98075471Y-131742599D01*
X98216207Y-131816463D01*
X98370529Y-131854500D01*
X98370531Y-131854500D01*
X98529469Y-131854500D01*
X98529471Y-131854500D01*
X98683793Y-131816463D01*
X98824529Y-131742599D01*
X98943498Y-131637201D01*
X99033787Y-131506395D01*
X99090149Y-131357782D01*
X99102022Y-131259999D01*
X112320693Y-131259999D01*
X112339850Y-131417780D01*
X112396212Y-131566394D01*
X112396213Y-131566395D01*
X112486502Y-131697201D01*
X112605471Y-131802599D01*
X112746207Y-131876463D01*
X112900529Y-131914500D01*
X112900531Y-131914500D01*
X113059469Y-131914500D01*
X113059471Y-131914500D01*
X113213793Y-131876463D01*
X113354529Y-131802599D01*
X113473498Y-131697201D01*
X113563787Y-131566395D01*
X113620149Y-131417782D01*
X113639307Y-131260000D01*
X113620149Y-131102218D01*
X113563787Y-130953605D01*
X113492274Y-130850000D01*
X121201093Y-130850000D01*
X121220250Y-131007780D01*
X121276612Y-131156394D01*
X121348126Y-131259999D01*
X121366902Y-131287201D01*
X121485871Y-131392599D01*
X121626607Y-131466463D01*
X121780929Y-131504500D01*
X121780931Y-131504500D01*
X121939869Y-131504500D01*
X121939871Y-131504500D01*
X122094193Y-131466463D01*
X122234929Y-131392599D01*
X122353898Y-131287201D01*
X122444187Y-131156395D01*
X122500549Y-131007782D01*
X122519707Y-130850000D01*
X122500549Y-130692218D01*
X122444187Y-130543605D01*
X122353898Y-130412799D01*
X122234929Y-130307401D01*
X122094193Y-130233537D01*
X121939871Y-130195500D01*
X121780929Y-130195500D01*
X121626607Y-130233537D01*
X121626606Y-130233537D01*
X121626604Y-130233538D01*
X121485872Y-130307400D01*
X121366901Y-130412799D01*
X121276612Y-130543605D01*
X121220250Y-130692219D01*
X121201093Y-130850000D01*
X113492274Y-130850000D01*
X113473498Y-130822799D01*
X113354529Y-130717401D01*
X113213793Y-130643537D01*
X113059471Y-130605500D01*
X112900529Y-130605500D01*
X112746207Y-130643537D01*
X112746206Y-130643537D01*
X112746204Y-130643538D01*
X112605472Y-130717400D01*
X112486501Y-130822799D01*
X112396212Y-130953605D01*
X112339850Y-131102219D01*
X112320693Y-131259999D01*
X99102022Y-131259999D01*
X99109307Y-131200000D01*
X99090149Y-131042218D01*
X99033787Y-130893605D01*
X98943498Y-130762799D01*
X98824529Y-130657401D01*
X98683793Y-130583537D01*
X98529471Y-130545500D01*
X98370529Y-130545500D01*
X98216207Y-130583536D01*
X98216207Y-130583537D01*
X98075469Y-130657401D01*
X98072748Y-130659813D01*
X98008495Y-130690013D01*
X97989195Y-130691500D01*
X91362122Y-130691500D01*
X91294001Y-130671498D01*
X91278569Y-130659813D01*
X91278568Y-130659812D01*
X91255529Y-130639401D01*
X91114793Y-130565537D01*
X90960471Y-130527500D01*
X90801529Y-130527500D01*
X90647207Y-130565537D01*
X90647206Y-130565537D01*
X90647204Y-130565538D01*
X90506472Y-130639400D01*
X90506470Y-130639401D01*
X90506471Y-130639401D01*
X90486154Y-130657401D01*
X90483431Y-130659813D01*
X90419178Y-130690013D01*
X90399878Y-130691500D01*
X89379925Y-130691500D01*
X89311804Y-130671498D01*
X89296371Y-130659812D01*
X89257530Y-130625401D01*
X89177764Y-130583537D01*
X89116793Y-130551537D01*
X88962471Y-130513500D01*
X88803529Y-130513500D01*
X88649207Y-130551537D01*
X88649206Y-130551537D01*
X88649204Y-130551538D01*
X88508472Y-130625400D01*
X88389501Y-130730799D01*
X88299213Y-130861604D01*
X88242850Y-131010219D01*
X88238167Y-131048785D01*
X88210098Y-131113997D01*
X88202181Y-131122689D01*
X85444276Y-133880595D01*
X85381964Y-133914621D01*
X85355181Y-133917500D01*
X80965268Y-133917500D01*
X80897147Y-133897498D01*
X80876172Y-133880595D01*
X80076404Y-133080826D01*
X80042379Y-133018514D01*
X80039500Y-132991731D01*
X80039500Y-130240000D01*
X103770693Y-130240000D01*
X103789850Y-130397780D01*
X103846212Y-130546394D01*
X103910411Y-130639401D01*
X103936502Y-130677201D01*
X104055471Y-130782599D01*
X104196207Y-130856463D01*
X104350529Y-130894500D01*
X104350531Y-130894500D01*
X104509469Y-130894500D01*
X104509471Y-130894500D01*
X104663793Y-130856463D01*
X104804529Y-130782599D01*
X104923498Y-130677201D01*
X105013787Y-130546395D01*
X105070149Y-130397782D01*
X105089307Y-130240000D01*
X105070149Y-130082218D01*
X105013787Y-129933605D01*
X104923498Y-129802799D01*
X104804529Y-129697401D01*
X104663793Y-129623537D01*
X104509471Y-129585500D01*
X104350529Y-129585500D01*
X104196207Y-129623537D01*
X104196206Y-129623537D01*
X104196204Y-129623538D01*
X104055472Y-129697400D01*
X103936501Y-129802799D01*
X103846212Y-129933605D01*
X103789850Y-130082219D01*
X103770693Y-130240000D01*
X80039500Y-130240000D01*
X80039500Y-129308999D01*
X90237693Y-129308999D01*
X90256850Y-129466780D01*
X90313212Y-129615394D01*
X90369818Y-129697401D01*
X90403502Y-129746201D01*
X90522471Y-129851599D01*
X90663207Y-129925463D01*
X90817529Y-129963500D01*
X90817531Y-129963500D01*
X90976469Y-129963500D01*
X90976471Y-129963500D01*
X91130793Y-129925463D01*
X91271529Y-129851599D01*
X91390498Y-129746201D01*
X91480787Y-129615395D01*
X91537149Y-129466782D01*
X91556307Y-129309000D01*
X91537149Y-129151218D01*
X91480787Y-129002605D01*
X91472086Y-128989999D01*
X116250693Y-128989999D01*
X116269850Y-129147780D01*
X116326212Y-129296394D01*
X116334914Y-129309000D01*
X116416502Y-129427201D01*
X116535471Y-129532599D01*
X116676207Y-129606463D01*
X116830529Y-129644500D01*
X116830531Y-129644500D01*
X116989469Y-129644500D01*
X116989471Y-129644500D01*
X117143793Y-129606463D01*
X117284529Y-129532599D01*
X117403498Y-129427201D01*
X117493787Y-129296395D01*
X117550149Y-129147782D01*
X117569307Y-128990000D01*
X117550149Y-128832218D01*
X117493787Y-128683605D01*
X117403498Y-128552799D01*
X117284529Y-128447401D01*
X117143793Y-128373537D01*
X116989471Y-128335500D01*
X116830529Y-128335500D01*
X116676207Y-128373537D01*
X116676206Y-128373537D01*
X116676204Y-128373538D01*
X116535472Y-128447400D01*
X116416501Y-128552799D01*
X116326212Y-128683605D01*
X116269850Y-128832219D01*
X116250693Y-128989999D01*
X91472086Y-128989999D01*
X91390498Y-128871799D01*
X91271529Y-128766401D01*
X91130793Y-128692537D01*
X90976471Y-128654500D01*
X90817529Y-128654500D01*
X90663207Y-128692537D01*
X90663206Y-128692537D01*
X90663204Y-128692538D01*
X90522472Y-128766400D01*
X90403501Y-128871799D01*
X90313212Y-129002605D01*
X90256850Y-129151219D01*
X90237693Y-129308999D01*
X80039500Y-129308999D01*
X80039500Y-127490000D01*
X102870693Y-127490000D01*
X102889850Y-127647780D01*
X102946212Y-127796394D01*
X102946213Y-127796395D01*
X103036502Y-127927201D01*
X103155471Y-128032599D01*
X103296207Y-128106463D01*
X103450529Y-128144500D01*
X103450531Y-128144500D01*
X103609469Y-128144500D01*
X103609471Y-128144500D01*
X103763793Y-128106463D01*
X103904529Y-128032599D01*
X104023498Y-127927201D01*
X104113787Y-127796395D01*
X104170149Y-127647782D01*
X104189307Y-127490000D01*
X104177165Y-127390000D01*
X111470693Y-127390000D01*
X111489850Y-127547780D01*
X111546212Y-127696394D01*
X111546213Y-127696395D01*
X111636502Y-127827201D01*
X111755471Y-127932599D01*
X111896207Y-128006463D01*
X112050529Y-128044500D01*
X112050531Y-128044500D01*
X112209469Y-128044500D01*
X112209471Y-128044500D01*
X112363793Y-128006463D01*
X112504529Y-127932599D01*
X112623498Y-127827201D01*
X112662981Y-127770000D01*
X117830693Y-127770000D01*
X117849850Y-127927780D01*
X117906212Y-128076394D01*
X117953223Y-128144500D01*
X117996502Y-128207201D01*
X118115471Y-128312599D01*
X118256207Y-128386463D01*
X118410529Y-128424500D01*
X118410531Y-128424500D01*
X118569469Y-128424500D01*
X118569471Y-128424500D01*
X118723793Y-128386463D01*
X118864529Y-128312599D01*
X118983498Y-128207201D01*
X119073787Y-128076395D01*
X119130149Y-127927782D01*
X119149307Y-127770000D01*
X119130149Y-127612218D01*
X119073787Y-127463605D01*
X118983498Y-127332799D01*
X118864529Y-127227401D01*
X118723793Y-127153537D01*
X118569471Y-127115500D01*
X118410529Y-127115500D01*
X118256207Y-127153537D01*
X118256206Y-127153537D01*
X118256204Y-127153538D01*
X118115472Y-127227400D01*
X117996501Y-127332799D01*
X117906212Y-127463605D01*
X117849850Y-127612219D01*
X117830693Y-127770000D01*
X112662981Y-127770000D01*
X112713787Y-127696395D01*
X112770149Y-127547782D01*
X112789307Y-127390000D01*
X112770149Y-127232218D01*
X112713787Y-127083605D01*
X112623498Y-126952799D01*
X112504529Y-126847401D01*
X112363793Y-126773537D01*
X112209471Y-126735500D01*
X112050529Y-126735500D01*
X111896207Y-126773537D01*
X111896206Y-126773537D01*
X111896204Y-126773538D01*
X111755472Y-126847400D01*
X111636501Y-126952799D01*
X111546212Y-127083605D01*
X111489850Y-127232219D01*
X111470693Y-127390000D01*
X104177165Y-127390000D01*
X104170149Y-127332218D01*
X104113787Y-127183605D01*
X104023498Y-127052799D01*
X103904529Y-126947401D01*
X103763793Y-126873537D01*
X103609471Y-126835500D01*
X103450529Y-126835500D01*
X103296207Y-126873537D01*
X103296206Y-126873537D01*
X103296204Y-126873538D01*
X103155472Y-126947400D01*
X103036501Y-127052799D01*
X102946212Y-127183605D01*
X102889850Y-127332219D01*
X102870693Y-127490000D01*
X80039500Y-127490000D01*
X80039500Y-126170000D01*
X100355693Y-126170000D01*
X100374850Y-126327780D01*
X100431212Y-126476394D01*
X100431213Y-126476395D01*
X100521502Y-126607201D01*
X100640471Y-126712599D01*
X100781207Y-126786463D01*
X100935529Y-126824500D01*
X100935531Y-126824500D01*
X101094469Y-126824500D01*
X101094471Y-126824500D01*
X101248793Y-126786463D01*
X101389529Y-126712599D01*
X101508498Y-126607201D01*
X101598787Y-126476395D01*
X101655149Y-126327782D01*
X101674307Y-126170000D01*
X101655149Y-126012218D01*
X101598787Y-125863605D01*
X101508498Y-125732799D01*
X101389529Y-125627401D01*
X101248793Y-125553537D01*
X101094471Y-125515500D01*
X100935529Y-125515500D01*
X100781207Y-125553537D01*
X100781206Y-125553537D01*
X100781204Y-125553538D01*
X100640472Y-125627400D01*
X100521501Y-125732799D01*
X100431212Y-125863605D01*
X100374850Y-126012219D01*
X100355693Y-126170000D01*
X80039500Y-126170000D01*
X80039500Y-124939000D01*
X103771693Y-124939000D01*
X103790850Y-125096780D01*
X103847212Y-125245394D01*
X103847213Y-125245395D01*
X103937502Y-125376201D01*
X104056471Y-125481599D01*
X104197207Y-125555463D01*
X104351529Y-125593500D01*
X104351531Y-125593500D01*
X104510469Y-125593500D01*
X104510471Y-125593500D01*
X104664793Y-125555463D01*
X104805529Y-125481599D01*
X104924498Y-125376201D01*
X105014787Y-125245395D01*
X105071149Y-125096782D01*
X105090307Y-124939000D01*
X107808693Y-124939000D01*
X107827850Y-125096780D01*
X107884212Y-125245394D01*
X107884213Y-125245395D01*
X107974502Y-125376201D01*
X108093471Y-125481599D01*
X108234207Y-125555463D01*
X108388529Y-125593500D01*
X108388531Y-125593500D01*
X108547469Y-125593500D01*
X108547471Y-125593500D01*
X108701793Y-125555463D01*
X108842529Y-125481599D01*
X108961498Y-125376201D01*
X109051787Y-125245395D01*
X109108149Y-125096782D01*
X109127307Y-124939000D01*
X109108149Y-124781218D01*
X109051787Y-124632605D01*
X108961498Y-124501799D01*
X108842529Y-124396401D01*
X108701793Y-124322537D01*
X108547471Y-124284500D01*
X108388529Y-124284500D01*
X108234207Y-124322537D01*
X108234206Y-124322537D01*
X108234204Y-124322538D01*
X108093472Y-124396400D01*
X107974501Y-124501799D01*
X107884212Y-124632605D01*
X107827850Y-124781219D01*
X107808693Y-124939000D01*
X105090307Y-124939000D01*
X105071149Y-124781218D01*
X105014787Y-124632605D01*
X104924498Y-124501799D01*
X104805529Y-124396401D01*
X104664793Y-124322537D01*
X104510471Y-124284500D01*
X104351529Y-124284500D01*
X104197207Y-124322537D01*
X104197206Y-124322537D01*
X104197204Y-124322538D01*
X104056472Y-124396400D01*
X103937501Y-124501799D01*
X103847212Y-124632605D01*
X103790850Y-124781219D01*
X103771693Y-124939000D01*
X80039500Y-124939000D01*
X80039500Y-122727000D01*
X98733693Y-122727000D01*
X98752850Y-122884780D01*
X98809212Y-123033394D01*
X98867888Y-123118400D01*
X98899502Y-123164201D01*
X99018471Y-123269599D01*
X99159207Y-123343463D01*
X99313529Y-123381500D01*
X99313531Y-123381500D01*
X99387406Y-123381500D01*
X99455527Y-123401502D01*
X99502020Y-123455158D01*
X99512487Y-123522687D01*
X99495693Y-123661000D01*
X99514850Y-123818780D01*
X99571212Y-123967394D01*
X99571213Y-123967395D01*
X99661502Y-124098201D01*
X99780471Y-124203599D01*
X99921207Y-124277463D01*
X100075529Y-124315500D01*
X100075531Y-124315500D01*
X100234469Y-124315500D01*
X100234471Y-124315500D01*
X100388793Y-124277463D01*
X100529529Y-124203599D01*
X100648498Y-124098201D01*
X100738787Y-123967395D01*
X100763209Y-123902999D01*
X116942693Y-123902999D01*
X116961850Y-124060780D01*
X117018212Y-124209394D01*
X117065196Y-124277461D01*
X117108502Y-124340201D01*
X117227471Y-124445599D01*
X117368207Y-124519463D01*
X117522529Y-124557500D01*
X117522531Y-124557500D01*
X117681469Y-124557500D01*
X117681471Y-124557500D01*
X117835793Y-124519463D01*
X117976529Y-124445599D01*
X118095498Y-124340201D01*
X118185787Y-124209395D01*
X118242149Y-124060782D01*
X118261307Y-123903000D01*
X118242149Y-123745218D01*
X118185787Y-123596605D01*
X118095498Y-123465799D01*
X117976529Y-123360401D01*
X117835793Y-123286537D01*
X117681471Y-123248500D01*
X117522529Y-123248500D01*
X117368207Y-123286537D01*
X117368206Y-123286537D01*
X117368204Y-123286538D01*
X117227472Y-123360400D01*
X117108501Y-123465799D01*
X117018212Y-123596605D01*
X116961850Y-123745219D01*
X116942693Y-123902999D01*
X100763209Y-123902999D01*
X100795149Y-123818782D01*
X100814307Y-123661000D01*
X100795149Y-123503218D01*
X100738787Y-123354605D01*
X100648498Y-123223799D01*
X100529529Y-123118401D01*
X100388793Y-123044537D01*
X100234471Y-123006500D01*
X100160594Y-123006500D01*
X100092473Y-122986498D01*
X100045980Y-122932842D01*
X100035513Y-122865313D01*
X100036372Y-122858232D01*
X100052307Y-122727000D01*
X100051821Y-122722999D01*
X108798693Y-122722999D01*
X108817850Y-122880780D01*
X108874212Y-123029394D01*
X108935649Y-123118400D01*
X108964502Y-123160201D01*
X109083471Y-123265599D01*
X109224207Y-123339463D01*
X109378529Y-123377500D01*
X109378531Y-123377500D01*
X109537469Y-123377500D01*
X109537471Y-123377500D01*
X109691793Y-123339463D01*
X109832529Y-123265599D01*
X109951498Y-123160201D01*
X110041787Y-123029395D01*
X110098149Y-122880782D01*
X110117307Y-122723000D01*
X110098149Y-122565218D01*
X110041787Y-122416605D01*
X109951498Y-122285799D01*
X109832529Y-122180401D01*
X109691793Y-122106537D01*
X109537471Y-122068500D01*
X109378529Y-122068500D01*
X109224207Y-122106537D01*
X109224206Y-122106537D01*
X109224204Y-122106538D01*
X109083472Y-122180400D01*
X108964501Y-122285799D01*
X108874212Y-122416605D01*
X108817850Y-122565219D01*
X108798693Y-122722999D01*
X100051821Y-122722999D01*
X100033149Y-122569218D01*
X99976787Y-122420605D01*
X99886498Y-122289799D01*
X99767529Y-122184401D01*
X99626793Y-122110537D01*
X99472471Y-122072500D01*
X99313529Y-122072500D01*
X99159207Y-122110537D01*
X99159206Y-122110537D01*
X99159204Y-122110538D01*
X99018472Y-122184400D01*
X98899501Y-122289799D01*
X98809212Y-122420605D01*
X98752850Y-122569219D01*
X98733693Y-122727000D01*
X80039500Y-122727000D01*
X80039500Y-121775000D01*
X100355693Y-121775000D01*
X100374850Y-121932780D01*
X100431212Y-122081394D01*
X100470557Y-122138394D01*
X100521502Y-122212201D01*
X100640471Y-122317599D01*
X100781207Y-122391463D01*
X100935529Y-122429500D01*
X100935531Y-122429500D01*
X101094469Y-122429500D01*
X101094471Y-122429500D01*
X101248793Y-122391463D01*
X101389529Y-122317599D01*
X101508498Y-122212201D01*
X101598787Y-122081395D01*
X101655149Y-121932782D01*
X101667386Y-121831999D01*
X110202693Y-121831999D01*
X110221850Y-121989780D01*
X110278212Y-122138394D01*
X110329158Y-122212201D01*
X110368502Y-122269201D01*
X110487471Y-122374599D01*
X110628207Y-122448463D01*
X110782529Y-122486500D01*
X110782531Y-122486500D01*
X110941469Y-122486500D01*
X110941471Y-122486500D01*
X111095793Y-122448463D01*
X111236529Y-122374599D01*
X111355498Y-122269201D01*
X111445787Y-122138395D01*
X111502149Y-121989782D01*
X111521307Y-121832000D01*
X111502149Y-121674218D01*
X111445787Y-121525605D01*
X111355498Y-121394799D01*
X111236529Y-121289401D01*
X111095793Y-121215537D01*
X110941471Y-121177500D01*
X110782529Y-121177500D01*
X110628207Y-121215537D01*
X110628206Y-121215537D01*
X110628204Y-121215538D01*
X110487472Y-121289400D01*
X110368501Y-121394799D01*
X110278212Y-121525605D01*
X110221850Y-121674219D01*
X110202693Y-121831999D01*
X101667386Y-121831999D01*
X101674307Y-121775000D01*
X101655149Y-121617218D01*
X101598787Y-121468605D01*
X101508498Y-121337799D01*
X101389529Y-121232401D01*
X101248793Y-121158537D01*
X101094471Y-121120500D01*
X100935529Y-121120500D01*
X100781207Y-121158537D01*
X100781206Y-121158537D01*
X100781204Y-121158538D01*
X100640472Y-121232400D01*
X100521501Y-121337799D01*
X100431212Y-121468605D01*
X100374850Y-121617219D01*
X100355693Y-121775000D01*
X80039500Y-121775000D01*
X80039500Y-121097044D01*
X90821338Y-121097044D01*
X90840495Y-121254825D01*
X90896857Y-121403439D01*
X90981183Y-121525605D01*
X90987147Y-121534246D01*
X91106116Y-121639644D01*
X91246852Y-121713508D01*
X91401174Y-121751545D01*
X91401176Y-121751545D01*
X91560114Y-121751545D01*
X91560116Y-121751545D01*
X91714438Y-121713508D01*
X91855174Y-121639644D01*
X91974143Y-121534246D01*
X92064432Y-121403440D01*
X92120794Y-121254827D01*
X92139952Y-121097045D01*
X92120794Y-120939263D01*
X92064432Y-120790650D01*
X91984881Y-120675400D01*
X97054493Y-120675400D01*
X97073650Y-120833180D01*
X97130012Y-120981794D01*
X97209564Y-121097044D01*
X97220302Y-121112601D01*
X97339271Y-121217999D01*
X97480007Y-121291863D01*
X97634329Y-121329900D01*
X97634331Y-121329900D01*
X97793269Y-121329900D01*
X97793271Y-121329900D01*
X97947593Y-121291863D01*
X98088329Y-121217999D01*
X98207298Y-121112601D01*
X98297587Y-120981795D01*
X98353949Y-120833182D01*
X98373107Y-120675400D01*
X98353949Y-120517618D01*
X98297587Y-120369005D01*
X98246448Y-120294917D01*
X98224212Y-120227492D01*
X98241959Y-120158749D01*
X98266591Y-120129029D01*
X98271037Y-120125091D01*
X98361326Y-119994285D01*
X98417688Y-119845672D01*
X98436846Y-119687890D01*
X98417688Y-119530108D01*
X98361326Y-119381495D01*
X98271037Y-119250689D01*
X98152068Y-119145291D01*
X98076441Y-119105599D01*
X98011334Y-119071428D01*
X98011333Y-119071427D01*
X98011332Y-119071427D01*
X97857010Y-119033390D01*
X97698068Y-119033390D01*
X97543746Y-119071427D01*
X97543745Y-119071427D01*
X97543743Y-119071428D01*
X97403011Y-119145290D01*
X97284040Y-119250689D01*
X97193751Y-119381495D01*
X97137389Y-119530109D01*
X97118232Y-119687889D01*
X97137389Y-119845670D01*
X97193751Y-119994284D01*
X97244890Y-120068372D01*
X97267126Y-120135797D01*
X97249379Y-120204540D01*
X97224749Y-120234259D01*
X97220302Y-120238198D01*
X97130012Y-120369005D01*
X97073650Y-120517619D01*
X97054493Y-120675400D01*
X91984881Y-120675400D01*
X91974143Y-120659844D01*
X91855174Y-120554446D01*
X91714438Y-120480582D01*
X91560116Y-120442545D01*
X91401174Y-120442545D01*
X91246852Y-120480582D01*
X91246851Y-120480582D01*
X91246849Y-120480583D01*
X91106117Y-120554445D01*
X90987146Y-120659844D01*
X90896857Y-120790650D01*
X90840495Y-120939264D01*
X90821338Y-121097044D01*
X80039500Y-121097044D01*
X80039500Y-118795799D01*
X91771293Y-118795799D01*
X91790450Y-118953580D01*
X91846812Y-119102194D01*
X91879440Y-119149463D01*
X91937102Y-119233001D01*
X92056071Y-119338399D01*
X92196807Y-119412263D01*
X92351129Y-119450300D01*
X92351131Y-119450300D01*
X92510069Y-119450300D01*
X92510071Y-119450300D01*
X92664393Y-119412263D01*
X92805129Y-119338399D01*
X92924098Y-119233001D01*
X93014387Y-119102195D01*
X93070749Y-118953582D01*
X93089907Y-118795800D01*
X93070749Y-118638018D01*
X93014387Y-118489405D01*
X92924098Y-118358599D01*
X92805129Y-118253201D01*
X92664393Y-118179337D01*
X92510071Y-118141300D01*
X92351129Y-118141300D01*
X92196807Y-118179337D01*
X92196806Y-118179337D01*
X92196804Y-118179338D01*
X92056072Y-118253200D01*
X91937101Y-118358599D01*
X91846812Y-118489405D01*
X91790450Y-118638019D01*
X91771293Y-118795799D01*
X80039500Y-118795799D01*
X80039500Y-117551199D01*
X94336693Y-117551199D01*
X94355850Y-117708980D01*
X94412212Y-117857594D01*
X94499878Y-117984599D01*
X94502502Y-117988401D01*
X94621471Y-118093799D01*
X94762207Y-118167663D01*
X94916529Y-118205700D01*
X94916531Y-118205700D01*
X95075469Y-118205700D01*
X95075471Y-118205700D01*
X95229793Y-118167663D01*
X95370529Y-118093799D01*
X95489498Y-117988401D01*
X95579787Y-117857595D01*
X95636149Y-117708982D01*
X95655307Y-117551200D01*
X95636149Y-117393418D01*
X95579787Y-117244805D01*
X95489498Y-117113999D01*
X95370529Y-117008601D01*
X95229793Y-116934737D01*
X95075471Y-116896700D01*
X94916529Y-116896700D01*
X94762207Y-116934737D01*
X94762206Y-116934737D01*
X94762204Y-116934738D01*
X94621472Y-117008600D01*
X94502501Y-117113999D01*
X94412212Y-117244805D01*
X94355850Y-117393419D01*
X94336693Y-117551199D01*
X80039500Y-117551199D01*
X80039500Y-112124000D01*
X95449693Y-112124000D01*
X95468850Y-112281780D01*
X95525212Y-112430394D01*
X95608214Y-112550642D01*
X95615502Y-112561201D01*
X95734471Y-112666599D01*
X95875207Y-112740463D01*
X96029529Y-112778500D01*
X96029531Y-112778500D01*
X96189014Y-112778500D01*
X96257135Y-112798502D01*
X96303628Y-112852158D01*
X96314095Y-112889312D01*
X96326895Y-112994736D01*
X96383257Y-113143349D01*
X96477886Y-113280443D01*
X96500122Y-113347868D01*
X96482375Y-113416611D01*
X96477886Y-113423595D01*
X96411850Y-113519264D01*
X96355488Y-113667878D01*
X96336331Y-113825659D01*
X96355488Y-113983439D01*
X96411850Y-114132053D01*
X96446811Y-114182703D01*
X96469047Y-114250128D01*
X96451300Y-114318871D01*
X96401675Y-114365844D01*
X96399473Y-114366999D01*
X96280501Y-114472399D01*
X96190212Y-114603205D01*
X96133850Y-114751819D01*
X96114693Y-114909600D01*
X96133850Y-115067380D01*
X96190212Y-115215994D01*
X96253336Y-115307445D01*
X96275572Y-115374870D01*
X96257825Y-115443613D01*
X96205730Y-115491848D01*
X96179793Y-115501360D01*
X96032207Y-115537737D01*
X96032206Y-115537737D01*
X96032204Y-115537738D01*
X95891472Y-115611600D01*
X95772501Y-115716999D01*
X95682212Y-115847805D01*
X95625850Y-115996419D01*
X95606693Y-116154200D01*
X95625850Y-116311980D01*
X95682212Y-116460594D01*
X95736182Y-116538782D01*
X95772502Y-116591401D01*
X95891471Y-116696799D01*
X96032207Y-116770663D01*
X96186529Y-116808700D01*
X96186531Y-116808700D01*
X96345469Y-116808700D01*
X96345471Y-116808700D01*
X96499793Y-116770663D01*
X96640529Y-116696799D01*
X96759498Y-116591401D01*
X96849787Y-116460595D01*
X96906149Y-116311982D01*
X96925307Y-116154200D01*
X96906149Y-115996418D01*
X96849787Y-115847805D01*
X96786663Y-115756354D01*
X96764427Y-115688929D01*
X96782174Y-115620187D01*
X96834269Y-115571951D01*
X96860194Y-115562442D01*
X97007793Y-115526063D01*
X97148529Y-115452199D01*
X97166814Y-115436000D01*
X103422693Y-115436000D01*
X103441850Y-115593780D01*
X103498212Y-115742394D01*
X103567794Y-115843200D01*
X103588502Y-115873201D01*
X103707471Y-115978599D01*
X103848207Y-116052463D01*
X104002529Y-116090500D01*
X104002531Y-116090500D01*
X104100742Y-116090500D01*
X104168863Y-116110502D01*
X104215356Y-116164158D01*
X104225822Y-116231686D01*
X104216073Y-116311982D01*
X104207693Y-116381000D01*
X104226850Y-116538779D01*
X104226850Y-116538781D01*
X104226851Y-116538782D01*
X104267825Y-116646820D01*
X104273279Y-116717606D01*
X104239597Y-116780105D01*
X104177472Y-116814471D01*
X104150013Y-116817500D01*
X104052529Y-116817500D01*
X103898207Y-116855537D01*
X103898206Y-116855537D01*
X103898204Y-116855538D01*
X103757472Y-116929400D01*
X103638501Y-117034799D01*
X103548212Y-117165605D01*
X103491850Y-117314219D01*
X103472693Y-117472000D01*
X103491850Y-117629780D01*
X103548212Y-117778394D01*
X103624212Y-117888498D01*
X103638502Y-117909201D01*
X103757471Y-118014599D01*
X103898207Y-118088463D01*
X104052529Y-118126500D01*
X104052531Y-118126500D01*
X104138013Y-118126500D01*
X104206134Y-118146502D01*
X104252627Y-118200158D01*
X104262731Y-118270432D01*
X104255826Y-118297176D01*
X104226751Y-118373838D01*
X104214850Y-118405220D01*
X104195693Y-118562999D01*
X104214850Y-118720780D01*
X104271212Y-118869394D01*
X104340794Y-118970200D01*
X104361502Y-119000201D01*
X104480471Y-119105599D01*
X104621207Y-119179463D01*
X104775529Y-119217500D01*
X104775531Y-119217500D01*
X104934469Y-119217500D01*
X104934471Y-119217500D01*
X105088793Y-119179463D01*
X105229529Y-119105599D01*
X105348498Y-119000201D01*
X105438787Y-118869395D01*
X105495149Y-118720782D01*
X105502240Y-118662377D01*
X105530306Y-118597166D01*
X105589175Y-118557479D01*
X105660154Y-118555919D01*
X105720709Y-118592981D01*
X105751614Y-118656898D01*
X105752402Y-118662378D01*
X105755850Y-118690781D01*
X105812212Y-118839394D01*
X105891031Y-118953582D01*
X105902502Y-118970201D01*
X106021471Y-119075599D01*
X106162207Y-119149463D01*
X106316529Y-119187500D01*
X106316531Y-119187500D01*
X106475469Y-119187500D01*
X106475471Y-119187500D01*
X106629793Y-119149463D01*
X106770529Y-119075599D01*
X106889498Y-118970201D01*
X106979787Y-118839395D01*
X107036149Y-118690782D01*
X107055307Y-118533000D01*
X107036149Y-118375218D01*
X106995174Y-118267179D01*
X106989721Y-118196394D01*
X107023403Y-118133895D01*
X107085528Y-118099529D01*
X107112987Y-118096500D01*
X107223469Y-118096500D01*
X107223471Y-118096500D01*
X107377793Y-118058463D01*
X107518529Y-117984599D01*
X107637498Y-117879201D01*
X107727787Y-117748395D01*
X107784149Y-117599782D01*
X107803307Y-117442000D01*
X107784149Y-117284218D01*
X107727787Y-117135605D01*
X107637498Y-117004799D01*
X107518529Y-116899401D01*
X107377793Y-116825537D01*
X107223471Y-116787500D01*
X107124987Y-116787500D01*
X107056866Y-116767498D01*
X107010373Y-116713842D01*
X107000269Y-116643568D01*
X107007175Y-116616820D01*
X107048149Y-116508782D01*
X107049713Y-116495900D01*
X114184693Y-116495900D01*
X114203850Y-116653680D01*
X114260212Y-116802294D01*
X114329910Y-116903268D01*
X114350502Y-116933101D01*
X114469471Y-117038499D01*
X114610207Y-117112363D01*
X114764529Y-117150400D01*
X114764531Y-117150400D01*
X114923469Y-117150400D01*
X114923471Y-117150400D01*
X115077793Y-117112363D01*
X115218529Y-117038499D01*
X115337498Y-116933101D01*
X115427787Y-116802295D01*
X115484149Y-116653682D01*
X115503307Y-116495900D01*
X115484149Y-116338118D01*
X115427787Y-116189505D01*
X115337498Y-116058699D01*
X115218529Y-115953301D01*
X115077793Y-115879437D01*
X114923471Y-115841400D01*
X114764529Y-115841400D01*
X114610207Y-115879437D01*
X114610206Y-115879437D01*
X114610204Y-115879438D01*
X114469472Y-115953300D01*
X114350501Y-116058699D01*
X114260212Y-116189505D01*
X114203850Y-116338119D01*
X114184693Y-116495900D01*
X107049713Y-116495900D01*
X107067307Y-116351000D01*
X107065743Y-116338118D01*
X107049178Y-116201687D01*
X107060823Y-116131652D01*
X107108484Y-116079031D01*
X107158787Y-116064858D01*
X107158616Y-116064161D01*
X107173469Y-116060500D01*
X107173471Y-116060500D01*
X107327793Y-116022463D01*
X107468529Y-115948599D01*
X107587498Y-115843201D01*
X107677787Y-115712395D01*
X107734149Y-115563782D01*
X107753307Y-115406000D01*
X107734149Y-115248218D01*
X107677787Y-115099605D01*
X107587498Y-114968799D01*
X107468529Y-114863401D01*
X107329015Y-114790178D01*
X107318495Y-114779999D01*
X114880693Y-114779999D01*
X114899850Y-114937780D01*
X114956212Y-115086394D01*
X115045670Y-115215995D01*
X115046502Y-115217201D01*
X115165471Y-115322599D01*
X115306207Y-115396463D01*
X115460529Y-115434500D01*
X115460531Y-115434500D01*
X115619472Y-115434500D01*
X115666128Y-115423000D01*
X115737057Y-115426118D01*
X115795039Y-115467087D01*
X115821668Y-115532901D01*
X115814095Y-115590018D01*
X115787850Y-115659218D01*
X115768693Y-115817000D01*
X115787850Y-115974780D01*
X115844212Y-116123394D01*
X115889846Y-116189505D01*
X115934502Y-116254201D01*
X116053471Y-116359599D01*
X116194207Y-116433463D01*
X116348529Y-116471500D01*
X116348531Y-116471500D01*
X116507469Y-116471500D01*
X116507471Y-116471500D01*
X116661793Y-116433463D01*
X116802529Y-116359599D01*
X116921498Y-116254201D01*
X117011787Y-116123395D01*
X117068149Y-115974782D01*
X117087307Y-115817000D01*
X117068149Y-115659218D01*
X117011787Y-115510605D01*
X116921498Y-115379799D01*
X116802529Y-115274401D01*
X116661793Y-115200537D01*
X116507471Y-115162500D01*
X116348529Y-115162500D01*
X116348528Y-115162500D01*
X116301868Y-115174000D01*
X116230940Y-115170881D01*
X116172958Y-115129910D01*
X116146331Y-115064096D01*
X116153903Y-115006986D01*
X116180149Y-114937782D01*
X116199307Y-114780000D01*
X116180149Y-114622218D01*
X116123787Y-114473605D01*
X116033498Y-114342799D01*
X115914529Y-114237401D01*
X115773793Y-114163537D01*
X115619471Y-114125500D01*
X115460529Y-114125500D01*
X115306207Y-114163537D01*
X115306206Y-114163537D01*
X115306204Y-114163538D01*
X115165472Y-114237400D01*
X115046501Y-114342799D01*
X114956212Y-114473605D01*
X114899850Y-114622219D01*
X114880693Y-114779999D01*
X107318495Y-114779999D01*
X107277993Y-114740811D01*
X107261761Y-114671695D01*
X107285472Y-114604775D01*
X107341599Y-114561298D01*
X107357403Y-114556277D01*
X107437793Y-114536463D01*
X107578529Y-114462599D01*
X107697498Y-114357201D01*
X107787787Y-114226395D01*
X107844149Y-114077782D01*
X107844956Y-114071132D01*
X116489561Y-114071132D01*
X116492208Y-114092936D01*
X116508718Y-114228912D01*
X116565080Y-114377526D01*
X116630567Y-114472399D01*
X116655370Y-114508333D01*
X116774339Y-114613731D01*
X116915075Y-114687595D01*
X117069397Y-114725632D01*
X117069399Y-114725632D01*
X117228337Y-114725632D01*
X117228339Y-114725632D01*
X117382661Y-114687595D01*
X117523397Y-114613731D01*
X117642366Y-114508333D01*
X117732655Y-114377527D01*
X117789017Y-114228914D01*
X117808175Y-114071132D01*
X117789017Y-113913350D01*
X117732655Y-113764737D01*
X117642366Y-113633931D01*
X117523397Y-113528533D01*
X117382661Y-113454669D01*
X117228339Y-113416632D01*
X117069397Y-113416632D01*
X116915075Y-113454669D01*
X116915074Y-113454669D01*
X116915072Y-113454670D01*
X116774340Y-113528532D01*
X116655369Y-113633931D01*
X116565080Y-113764737D01*
X116508718Y-113913351D01*
X116492396Y-114047780D01*
X116489561Y-114071132D01*
X107844956Y-114071132D01*
X107863307Y-113920000D01*
X107844149Y-113762218D01*
X107787787Y-113613605D01*
X107697498Y-113482799D01*
X107578529Y-113377401D01*
X107437793Y-113303537D01*
X107283471Y-113265500D01*
X107124529Y-113265500D01*
X107071134Y-113278660D01*
X106986219Y-113299590D01*
X106915291Y-113296471D01*
X106857309Y-113255501D01*
X106830681Y-113189687D01*
X106830985Y-113162063D01*
X106831386Y-113158762D01*
X106837307Y-113110000D01*
X106818149Y-112952218D01*
X106761787Y-112803605D01*
X106671498Y-112672799D01*
X106552529Y-112567401D01*
X106411793Y-112493537D01*
X106257471Y-112455500D01*
X106098529Y-112455500D01*
X105944207Y-112493537D01*
X105944206Y-112493537D01*
X105944204Y-112493538D01*
X105803472Y-112567400D01*
X105684501Y-112672799D01*
X105594212Y-112803605D01*
X105537850Y-112952219D01*
X105518693Y-113109998D01*
X105521260Y-113131141D01*
X105509613Y-113201176D01*
X105461952Y-113253796D01*
X105393407Y-113272296D01*
X105366029Y-113268665D01*
X105231471Y-113235500D01*
X105072529Y-113235500D01*
X104937973Y-113268664D01*
X104867047Y-113265546D01*
X104809064Y-113224576D01*
X104782436Y-113158762D01*
X104782740Y-113131138D01*
X104785307Y-113110000D01*
X104766149Y-112952218D01*
X104709787Y-112803605D01*
X104619498Y-112672799D01*
X104500529Y-112567401D01*
X104359793Y-112493537D01*
X104205471Y-112455500D01*
X104046529Y-112455500D01*
X103892207Y-112493537D01*
X103892206Y-112493537D01*
X103892204Y-112493538D01*
X103751472Y-112567400D01*
X103632501Y-112672799D01*
X103542212Y-112803605D01*
X103485850Y-112952219D01*
X103466693Y-113109999D01*
X103485850Y-113267780D01*
X103542212Y-113416394D01*
X103619616Y-113528532D01*
X103632502Y-113547201D01*
X103751471Y-113652599D01*
X103892207Y-113726463D01*
X104046529Y-113764500D01*
X104046531Y-113764500D01*
X104205472Y-113764500D01*
X104235099Y-113757197D01*
X104340026Y-113731335D01*
X104410951Y-113734452D01*
X104468934Y-113775422D01*
X104495563Y-113841236D01*
X104495260Y-113868858D01*
X104492693Y-113890000D01*
X104511850Y-114047780D01*
X104568212Y-114196394D01*
X104614091Y-114262860D01*
X104658502Y-114327201D01*
X104777471Y-114432599D01*
X104918207Y-114506463D01*
X105072529Y-114544500D01*
X105072531Y-114544500D01*
X105231469Y-114544500D01*
X105231471Y-114544500D01*
X105385793Y-114506463D01*
X105526529Y-114432599D01*
X105645498Y-114327201D01*
X105735787Y-114196395D01*
X105792149Y-114047782D01*
X105811307Y-113890000D01*
X105808740Y-113868858D01*
X105820385Y-113798826D01*
X105868045Y-113746204D01*
X105936589Y-113727703D01*
X105963970Y-113731334D01*
X106060534Y-113755135D01*
X106098528Y-113764500D01*
X106098529Y-113764500D01*
X106257469Y-113764500D01*
X106257471Y-113764500D01*
X106395782Y-113730409D01*
X106466707Y-113733528D01*
X106524689Y-113774497D01*
X106551318Y-113840311D01*
X106551015Y-113867933D01*
X106545501Y-113913351D01*
X106544693Y-113920002D01*
X106563850Y-114077780D01*
X106620212Y-114226394D01*
X106689794Y-114327200D01*
X106710502Y-114357201D01*
X106829471Y-114462599D01*
X106968986Y-114535822D01*
X107020005Y-114585187D01*
X107036238Y-114654303D01*
X107012527Y-114721224D01*
X106956400Y-114764701D01*
X106940583Y-114769725D01*
X106860207Y-114789536D01*
X106719472Y-114863400D01*
X106600501Y-114968799D01*
X106510213Y-115099603D01*
X106476311Y-115188995D01*
X106433452Y-115245595D01*
X106366796Y-115270040D01*
X106297506Y-115254566D01*
X106247581Y-115204089D01*
X106240688Y-115188995D01*
X106206787Y-115099605D01*
X106116498Y-114968799D01*
X105997529Y-114863401D01*
X105856793Y-114789537D01*
X105702471Y-114751500D01*
X105543529Y-114751500D01*
X105389207Y-114789537D01*
X105389206Y-114789537D01*
X105389204Y-114789538D01*
X105248472Y-114863400D01*
X105129501Y-114968799D01*
X105039212Y-115099605D01*
X104982850Y-115248218D01*
X104975759Y-115306622D01*
X104947691Y-115371834D01*
X104888823Y-115411520D01*
X104817843Y-115413080D01*
X104757288Y-115376017D01*
X104726384Y-115312099D01*
X104725604Y-115306678D01*
X104722149Y-115278218D01*
X104665787Y-115129605D01*
X104575498Y-114998799D01*
X104456529Y-114893401D01*
X104315793Y-114819537D01*
X104161471Y-114781500D01*
X104002529Y-114781500D01*
X103848207Y-114819537D01*
X103848206Y-114819537D01*
X103848204Y-114819538D01*
X103707472Y-114893400D01*
X103588501Y-114998799D01*
X103498212Y-115129605D01*
X103441850Y-115278219D01*
X103422693Y-115436000D01*
X97166814Y-115436000D01*
X97267498Y-115346801D01*
X97357787Y-115215995D01*
X97414149Y-115067382D01*
X97433307Y-114909600D01*
X97414149Y-114751818D01*
X97361779Y-114613731D01*
X97357788Y-114603207D01*
X97357787Y-114603205D01*
X97322824Y-114552553D01*
X97300590Y-114485132D01*
X97318337Y-114416389D01*
X97367971Y-114369411D01*
X97368999Y-114368870D01*
X97370167Y-114368258D01*
X97489136Y-114262860D01*
X97579425Y-114132054D01*
X97635787Y-113983441D01*
X97654945Y-113825659D01*
X97635787Y-113667877D01*
X97579425Y-113519264D01*
X97489136Y-113388458D01*
X97489135Y-113388457D01*
X97484796Y-113382171D01*
X97462560Y-113314747D01*
X97480307Y-113246004D01*
X97484796Y-113239019D01*
X97487225Y-113235500D01*
X97550832Y-113143350D01*
X97607194Y-112994737D01*
X97626352Y-112836955D01*
X97607194Y-112679173D01*
X97550832Y-112530560D01*
X97460543Y-112399754D01*
X97341574Y-112294356D01*
X97200838Y-112220492D01*
X97046516Y-112182455D01*
X96887574Y-112182455D01*
X96887031Y-112182455D01*
X96818910Y-112162453D01*
X96772417Y-112108797D01*
X96761950Y-112071643D01*
X96749149Y-111966218D01*
X96692787Y-111817605D01*
X96681256Y-111800899D01*
X96602498Y-111686799D01*
X96533435Y-111625614D01*
X96495709Y-111565470D01*
X96496489Y-111494478D01*
X96533432Y-111436992D01*
X96623498Y-111357201D01*
X96713787Y-111226395D01*
X96738968Y-111160000D01*
X114410693Y-111160000D01*
X114429850Y-111317780D01*
X114486212Y-111466394D01*
X114554600Y-111565470D01*
X114576502Y-111597201D01*
X114695471Y-111702599D01*
X114788709Y-111751534D01*
X114839728Y-111800899D01*
X114855961Y-111870015D01*
X114832250Y-111936935D01*
X114788707Y-111974666D01*
X114725113Y-112008043D01*
X114606143Y-112113441D01*
X114515854Y-112244247D01*
X114459492Y-112392861D01*
X114440335Y-112550642D01*
X114459492Y-112708422D01*
X114515854Y-112857036D01*
X114581554Y-112952218D01*
X114606144Y-112987843D01*
X114725113Y-113093241D01*
X114865849Y-113167105D01*
X115020171Y-113205142D01*
X115020173Y-113205142D01*
X115179111Y-113205142D01*
X115179113Y-113205142D01*
X115333435Y-113167105D01*
X115474171Y-113093241D01*
X115593140Y-112987843D01*
X115683429Y-112857037D01*
X115739791Y-112708424D01*
X115758949Y-112550642D01*
X115739791Y-112392860D01*
X115683429Y-112244247D01*
X115593140Y-112113441D01*
X115474171Y-112008043D01*
X115380934Y-111959108D01*
X115329912Y-111909741D01*
X115313680Y-111840625D01*
X115337391Y-111773705D01*
X115380932Y-111735977D01*
X115444529Y-111702599D01*
X115563498Y-111597201D01*
X115653787Y-111466395D01*
X115710149Y-111317782D01*
X115729307Y-111160000D01*
X115710149Y-111002218D01*
X115653787Y-110853605D01*
X115563498Y-110722799D01*
X115444529Y-110617401D01*
X115303793Y-110543537D01*
X115149471Y-110505500D01*
X114990529Y-110505500D01*
X114836207Y-110543537D01*
X114836206Y-110543537D01*
X114836204Y-110543538D01*
X114695472Y-110617400D01*
X114576501Y-110722799D01*
X114486212Y-110853605D01*
X114429850Y-111002219D01*
X114410693Y-111160000D01*
X96738968Y-111160000D01*
X96770149Y-111077782D01*
X96789307Y-110920000D01*
X96770149Y-110762218D01*
X96713787Y-110613605D01*
X96623498Y-110482799D01*
X96504529Y-110377401D01*
X96363793Y-110303537D01*
X96209471Y-110265500D01*
X96050529Y-110265500D01*
X95896207Y-110303537D01*
X95896206Y-110303537D01*
X95896204Y-110303538D01*
X95755472Y-110377400D01*
X95636501Y-110482799D01*
X95546212Y-110613605D01*
X95489850Y-110762219D01*
X95470693Y-110919999D01*
X95489850Y-111077780D01*
X95546212Y-111226394D01*
X95636501Y-111357200D01*
X95705565Y-111418386D01*
X95743290Y-111478530D01*
X95742510Y-111549523D01*
X95705565Y-111607010D01*
X95615501Y-111686799D01*
X95525212Y-111817605D01*
X95468850Y-111966219D01*
X95449693Y-112124000D01*
X80039500Y-112124000D01*
X80039500Y-108965999D01*
X96749693Y-108965999D01*
X96768850Y-109123780D01*
X96825212Y-109272394D01*
X96895343Y-109373995D01*
X96915502Y-109403201D01*
X97034471Y-109508599D01*
X97175207Y-109582463D01*
X97329529Y-109620500D01*
X97329531Y-109620500D01*
X97488469Y-109620500D01*
X97488471Y-109620500D01*
X97642793Y-109582463D01*
X97783529Y-109508599D01*
X97902498Y-109403201D01*
X97992787Y-109272395D01*
X98049149Y-109123782D01*
X98055971Y-109067600D01*
X101423293Y-109067600D01*
X101442450Y-109225380D01*
X101498812Y-109373994D01*
X101518972Y-109403200D01*
X101589102Y-109504801D01*
X101708071Y-109610199D01*
X101848807Y-109684063D01*
X102003129Y-109722100D01*
X102003131Y-109722100D01*
X102162069Y-109722100D01*
X102162071Y-109722100D01*
X102316393Y-109684063D01*
X102457129Y-109610199D01*
X102576098Y-109504801D01*
X102666387Y-109373995D01*
X102722749Y-109225382D01*
X102741907Y-109067600D01*
X102722749Y-108909818D01*
X102666387Y-108761205D01*
X102653820Y-108742999D01*
X131637693Y-108742999D01*
X131656850Y-108900780D01*
X131713212Y-109049394D01*
X131764559Y-109123782D01*
X131803502Y-109180201D01*
X131922471Y-109285599D01*
X132063207Y-109359463D01*
X132217529Y-109397500D01*
X132217531Y-109397500D01*
X132376469Y-109397500D01*
X132376471Y-109397500D01*
X132530793Y-109359463D01*
X132671529Y-109285599D01*
X132790498Y-109180201D01*
X132880787Y-109049395D01*
X132937149Y-108900782D01*
X132956307Y-108743000D01*
X132937149Y-108585218D01*
X132880787Y-108436605D01*
X132790498Y-108305799D01*
X132671529Y-108200401D01*
X132530793Y-108126537D01*
X132376471Y-108088500D01*
X132217529Y-108088500D01*
X132063207Y-108126537D01*
X132063206Y-108126537D01*
X132063204Y-108126538D01*
X131922472Y-108200400D01*
X131803501Y-108305799D01*
X131713212Y-108436605D01*
X131656850Y-108585219D01*
X131637693Y-108742999D01*
X102653820Y-108742999D01*
X102576098Y-108630399D01*
X102457129Y-108525001D01*
X102316393Y-108451137D01*
X102162071Y-108413100D01*
X102003129Y-108413100D01*
X101848807Y-108451137D01*
X101848806Y-108451137D01*
X101848804Y-108451138D01*
X101708072Y-108525000D01*
X101589101Y-108630399D01*
X101498812Y-108761205D01*
X101442450Y-108909819D01*
X101423293Y-109067600D01*
X98055971Y-109067600D01*
X98068307Y-108966000D01*
X98049149Y-108808218D01*
X97992787Y-108659605D01*
X97902498Y-108528799D01*
X97783529Y-108423401D01*
X97642793Y-108349537D01*
X97488471Y-108311500D01*
X97329529Y-108311500D01*
X97175207Y-108349537D01*
X97175206Y-108349537D01*
X97175204Y-108349538D01*
X97034472Y-108423400D01*
X96915501Y-108528799D01*
X96825212Y-108659605D01*
X96768850Y-108808219D01*
X96749693Y-108965999D01*
X80039500Y-108965999D01*
X80039500Y-107213400D01*
X97943493Y-107213400D01*
X97962650Y-107371180D01*
X98019012Y-107519794D01*
X98103516Y-107642218D01*
X98109302Y-107650601D01*
X98228271Y-107755999D01*
X98369007Y-107829863D01*
X98523329Y-107867900D01*
X98523331Y-107867900D01*
X98682269Y-107867900D01*
X98682271Y-107867900D01*
X98836593Y-107829863D01*
X98893494Y-107799999D01*
X111870693Y-107799999D01*
X111889850Y-107957780D01*
X111946212Y-108106394D01*
X112011101Y-108200401D01*
X112036502Y-108237201D01*
X112155471Y-108342599D01*
X112296207Y-108416463D01*
X112450529Y-108454500D01*
X112450531Y-108454500D01*
X112609469Y-108454500D01*
X112609471Y-108454500D01*
X112763793Y-108416463D01*
X112904529Y-108342599D01*
X113023498Y-108237201D01*
X113113787Y-108106395D01*
X113170149Y-107957782D01*
X113189307Y-107800000D01*
X113170149Y-107642218D01*
X113113787Y-107493605D01*
X113023498Y-107362799D01*
X112904529Y-107257401D01*
X112763793Y-107183537D01*
X112609471Y-107145500D01*
X112450529Y-107145500D01*
X112296207Y-107183537D01*
X112296206Y-107183537D01*
X112296204Y-107183538D01*
X112155472Y-107257400D01*
X112036501Y-107362799D01*
X111946212Y-107493605D01*
X111889850Y-107642219D01*
X111870693Y-107799999D01*
X98893494Y-107799999D01*
X98977329Y-107755999D01*
X99096298Y-107650601D01*
X99186587Y-107519795D01*
X99242949Y-107371182D01*
X99262107Y-107213400D01*
X99242949Y-107055618D01*
X99186587Y-106907005D01*
X99096298Y-106776199D01*
X98977329Y-106670801D01*
X98836593Y-106596937D01*
X98682271Y-106558900D01*
X98523329Y-106558900D01*
X98369007Y-106596937D01*
X98369006Y-106596937D01*
X98369004Y-106596938D01*
X98228272Y-106670800D01*
X98109301Y-106776199D01*
X98019012Y-106907005D01*
X97962650Y-107055619D01*
X97943493Y-107213400D01*
X80039500Y-107213400D01*
X80039500Y-106010000D01*
X110590693Y-106010000D01*
X110609850Y-106167780D01*
X110666212Y-106316394D01*
X110666213Y-106316395D01*
X110756502Y-106447201D01*
X110875471Y-106552599D01*
X111016207Y-106626463D01*
X111170529Y-106664500D01*
X111170531Y-106664500D01*
X111329469Y-106664500D01*
X111329471Y-106664500D01*
X111483793Y-106626463D01*
X111624529Y-106552599D01*
X111743498Y-106447201D01*
X111833787Y-106316395D01*
X111890149Y-106167782D01*
X111909307Y-106010000D01*
X111890149Y-105852218D01*
X111833787Y-105703605D01*
X111743498Y-105572799D01*
X111624529Y-105467401D01*
X111483793Y-105393537D01*
X111329471Y-105355500D01*
X111170529Y-105355500D01*
X111016207Y-105393537D01*
X111016206Y-105393537D01*
X111016204Y-105393538D01*
X110875472Y-105467400D01*
X110756501Y-105572799D01*
X110666212Y-105703605D01*
X110609850Y-105852219D01*
X110590693Y-106010000D01*
X80039500Y-106010000D01*
X80039500Y-104240000D01*
X102340693Y-104240000D01*
X102359850Y-104397780D01*
X102416212Y-104546394D01*
X102463706Y-104615200D01*
X102506502Y-104677201D01*
X102625471Y-104782599D01*
X102766207Y-104856463D01*
X102920529Y-104894500D01*
X102920531Y-104894500D01*
X103079469Y-104894500D01*
X103079471Y-104894500D01*
X103233793Y-104856463D01*
X103374529Y-104782599D01*
X103493498Y-104677201D01*
X103583787Y-104546395D01*
X103640149Y-104397782D01*
X103655664Y-104270000D01*
X107670693Y-104270000D01*
X107689850Y-104427780D01*
X107746212Y-104576394D01*
X107815794Y-104677200D01*
X107836502Y-104707201D01*
X107955471Y-104812599D01*
X108096207Y-104886463D01*
X108250529Y-104924500D01*
X108250531Y-104924500D01*
X108409469Y-104924500D01*
X108409471Y-104924500D01*
X108563793Y-104886463D01*
X108704529Y-104812599D01*
X108823498Y-104707201D01*
X108913787Y-104576395D01*
X108970149Y-104427782D01*
X108989307Y-104270000D01*
X108978136Y-104177999D01*
X125633693Y-104177999D01*
X125652850Y-104335780D01*
X125709212Y-104484394D01*
X125752009Y-104546395D01*
X125799502Y-104615201D01*
X125918471Y-104720599D01*
X126059207Y-104794463D01*
X126213529Y-104832500D01*
X126213531Y-104832500D01*
X126372469Y-104832500D01*
X126372471Y-104832500D01*
X126526793Y-104794463D01*
X126667529Y-104720599D01*
X126786498Y-104615201D01*
X126876787Y-104484395D01*
X126933149Y-104335782D01*
X126952307Y-104178000D01*
X126933149Y-104020218D01*
X126876787Y-103871605D01*
X126786498Y-103740799D01*
X126667529Y-103635401D01*
X126526793Y-103561537D01*
X126372471Y-103523500D01*
X126213529Y-103523500D01*
X126059207Y-103561537D01*
X126059206Y-103561537D01*
X126059204Y-103561538D01*
X125918472Y-103635400D01*
X125799501Y-103740799D01*
X125709212Y-103871605D01*
X125652850Y-104020219D01*
X125633693Y-104177999D01*
X108978136Y-104177999D01*
X108970149Y-104112218D01*
X108913787Y-103963605D01*
X108823498Y-103832799D01*
X108704529Y-103727401D01*
X108563793Y-103653537D01*
X108409471Y-103615500D01*
X108250529Y-103615500D01*
X108096207Y-103653537D01*
X108096206Y-103653537D01*
X108096204Y-103653538D01*
X107955472Y-103727400D01*
X107836501Y-103832799D01*
X107746212Y-103963605D01*
X107689850Y-104112219D01*
X107670693Y-104270000D01*
X103655664Y-104270000D01*
X103659307Y-104240000D01*
X103640149Y-104082218D01*
X103583787Y-103933605D01*
X103493498Y-103802799D01*
X103374529Y-103697401D01*
X103233793Y-103623537D01*
X103079471Y-103585500D01*
X102920529Y-103585500D01*
X102766207Y-103623537D01*
X102766206Y-103623537D01*
X102766204Y-103623538D01*
X102625472Y-103697400D01*
X102506501Y-103802799D01*
X102416212Y-103933605D01*
X102359850Y-104082219D01*
X102340693Y-104240000D01*
X80039500Y-104240000D01*
X80039500Y-102990000D01*
X92250693Y-102990000D01*
X92269850Y-103147780D01*
X92326212Y-103296394D01*
X92326213Y-103296395D01*
X92416502Y-103427201D01*
X92535471Y-103532599D01*
X92676207Y-103606463D01*
X92830529Y-103644500D01*
X92830531Y-103644500D01*
X92989469Y-103644500D01*
X92989471Y-103644500D01*
X93143793Y-103606463D01*
X93284529Y-103532599D01*
X93403498Y-103427201D01*
X93493787Y-103296395D01*
X93550149Y-103147782D01*
X93569307Y-102990000D01*
X93550149Y-102832218D01*
X93493787Y-102683605D01*
X93403498Y-102552799D01*
X93284529Y-102447401D01*
X93143793Y-102373537D01*
X92989471Y-102335500D01*
X92830529Y-102335500D01*
X92676207Y-102373537D01*
X92676206Y-102373537D01*
X92676204Y-102373538D01*
X92535472Y-102447400D01*
X92416501Y-102552799D01*
X92326212Y-102683605D01*
X92269850Y-102832219D01*
X92250693Y-102990000D01*
X80039500Y-102990000D01*
X80039500Y-102052999D01*
X111288693Y-102052999D01*
X111307850Y-102210780D01*
X111364212Y-102359394D01*
X111452391Y-102487142D01*
X111454502Y-102490201D01*
X111573471Y-102595599D01*
X111714207Y-102669463D01*
X111868529Y-102707500D01*
X111868531Y-102707500D01*
X112027469Y-102707500D01*
X112027471Y-102707500D01*
X112181793Y-102669463D01*
X112322529Y-102595599D01*
X112360727Y-102561757D01*
X112424977Y-102531558D01*
X112495358Y-102540889D01*
X112527832Y-102561758D01*
X112547969Y-102579598D01*
X112547971Y-102579599D01*
X112688707Y-102653463D01*
X112843029Y-102691500D01*
X112843031Y-102691500D01*
X113001969Y-102691500D01*
X113001971Y-102691500D01*
X113156293Y-102653463D01*
X113297029Y-102579599D01*
X113415998Y-102474201D01*
X113506287Y-102343395D01*
X113562649Y-102194782D01*
X113563472Y-102188000D01*
X114914393Y-102188000D01*
X114917040Y-102209804D01*
X114933550Y-102345780D01*
X114989912Y-102494394D01*
X115069848Y-102610200D01*
X115080202Y-102625201D01*
X115199171Y-102730599D01*
X115339907Y-102804463D01*
X115494229Y-102842500D01*
X115494231Y-102842500D01*
X115653169Y-102842500D01*
X115653171Y-102842500D01*
X115807493Y-102804463D01*
X115948229Y-102730599D01*
X116067198Y-102625201D01*
X116157487Y-102494395D01*
X116213849Y-102345782D01*
X116233007Y-102188000D01*
X116231186Y-102172999D01*
X116512693Y-102172999D01*
X116531850Y-102330780D01*
X116588212Y-102479394D01*
X116668424Y-102595600D01*
X116678502Y-102610201D01*
X116797471Y-102715599D01*
X116938207Y-102789463D01*
X117092529Y-102827500D01*
X117092531Y-102827500D01*
X117251469Y-102827500D01*
X117251471Y-102827500D01*
X117405793Y-102789463D01*
X117546529Y-102715599D01*
X117665498Y-102610201D01*
X117755787Y-102479395D01*
X117812149Y-102330782D01*
X117831307Y-102173000D01*
X117812149Y-102015218D01*
X117755787Y-101866605D01*
X117665498Y-101735799D01*
X117546529Y-101630401D01*
X117405793Y-101556537D01*
X117251471Y-101518500D01*
X117092529Y-101518500D01*
X116938207Y-101556537D01*
X116938206Y-101556537D01*
X116938204Y-101556538D01*
X116797472Y-101630400D01*
X116678501Y-101735799D01*
X116588212Y-101866605D01*
X116531850Y-102015219D01*
X116512693Y-102172999D01*
X116231186Y-102172999D01*
X116213849Y-102030218D01*
X116157487Y-101881605D01*
X116067198Y-101750799D01*
X115948229Y-101645401D01*
X115807493Y-101571537D01*
X115653171Y-101533500D01*
X115494229Y-101533500D01*
X115339907Y-101571537D01*
X115339906Y-101571537D01*
X115339904Y-101571538D01*
X115199172Y-101645400D01*
X115080201Y-101750799D01*
X114989912Y-101881605D01*
X114933550Y-102030219D01*
X114916214Y-102172999D01*
X114914393Y-102188000D01*
X113563472Y-102188000D01*
X113581807Y-102037000D01*
X113562649Y-101879218D01*
X113506287Y-101730605D01*
X113415998Y-101599799D01*
X113297029Y-101494401D01*
X113156293Y-101420537D01*
X113001971Y-101382500D01*
X112843029Y-101382500D01*
X112688707Y-101420537D01*
X112688706Y-101420537D01*
X112688704Y-101420538D01*
X112547972Y-101494400D01*
X112509773Y-101528242D01*
X112445520Y-101558442D01*
X112375140Y-101549111D01*
X112342666Y-101528240D01*
X112322532Y-101510402D01*
X112248981Y-101471800D01*
X112181793Y-101436537D01*
X112027471Y-101398500D01*
X111868529Y-101398500D01*
X111714207Y-101436537D01*
X111714206Y-101436537D01*
X111714204Y-101436538D01*
X111573472Y-101510400D01*
X111454501Y-101615799D01*
X111364212Y-101746605D01*
X111307850Y-101895219D01*
X111288693Y-102052999D01*
X80039500Y-102052999D01*
X80039500Y-101249945D01*
X89700748Y-101249945D01*
X89719905Y-101407725D01*
X89776267Y-101556339D01*
X89837742Y-101645400D01*
X89866557Y-101687146D01*
X89985526Y-101792544D01*
X90126262Y-101866408D01*
X90280584Y-101904445D01*
X90280586Y-101904445D01*
X90439524Y-101904445D01*
X90439526Y-101904445D01*
X90593848Y-101866408D01*
X90734584Y-101792544D01*
X90853553Y-101687146D01*
X90943842Y-101556340D01*
X91000204Y-101407727D01*
X91019362Y-101249945D01*
X91000204Y-101092163D01*
X90943842Y-100943550D01*
X90853553Y-100812744D01*
X90734584Y-100707346D01*
X90593848Y-100633482D01*
X90439526Y-100595445D01*
X90280584Y-100595445D01*
X90126262Y-100633482D01*
X90126261Y-100633482D01*
X90126259Y-100633483D01*
X89985527Y-100707345D01*
X89866556Y-100812744D01*
X89776267Y-100943550D01*
X89719905Y-101092164D01*
X89700748Y-101249945D01*
X80039500Y-101249945D01*
X80039500Y-99765000D01*
X115412311Y-99765000D01*
X115432957Y-99908593D01*
X115432957Y-99908594D01*
X115432958Y-99908596D01*
X115493223Y-100040558D01*
X115517223Y-100068256D01*
X115588226Y-100150197D01*
X115710266Y-100228628D01*
X115710268Y-100228629D01*
X115791602Y-100252510D01*
X115849463Y-100269500D01*
X115849464Y-100269500D01*
X115994537Y-100269500D01*
X116035407Y-100257499D01*
X116133732Y-100228629D01*
X116255775Y-100150196D01*
X116326777Y-100068255D01*
X116386502Y-100029873D01*
X116457498Y-100029873D01*
X116517222Y-100068255D01*
X116588225Y-100150196D01*
X116588226Y-100150197D01*
X116710266Y-100228628D01*
X116710268Y-100228629D01*
X116791602Y-100252510D01*
X116849463Y-100269500D01*
X116849464Y-100269500D01*
X116994537Y-100269500D01*
X117035408Y-100257499D01*
X117133732Y-100228629D01*
X117255775Y-100150196D01*
X117350777Y-100040558D01*
X117369299Y-100000000D01*
X119650693Y-100000000D01*
X119669850Y-100157780D01*
X119726212Y-100306394D01*
X119726213Y-100306395D01*
X119816502Y-100437201D01*
X119935471Y-100542599D01*
X120076207Y-100616463D01*
X120230529Y-100654500D01*
X120230531Y-100654500D01*
X120389469Y-100654500D01*
X120389471Y-100654500D01*
X120543793Y-100616463D01*
X120684529Y-100542599D01*
X120803498Y-100437201D01*
X120893787Y-100306395D01*
X120950149Y-100157782D01*
X120969307Y-100000000D01*
X120950149Y-99842218D01*
X120942481Y-99822000D01*
X130490726Y-99822000D01*
X130509763Y-99990956D01*
X130512928Y-100000000D01*
X130565918Y-100151437D01*
X130614421Y-100228629D01*
X130656377Y-100295402D01*
X130776597Y-100415622D01*
X130776599Y-100415623D01*
X130776600Y-100415624D01*
X130920563Y-100506082D01*
X131081046Y-100562237D01*
X131250000Y-100581274D01*
X131418954Y-100562237D01*
X131579437Y-100506082D01*
X131723400Y-100415624D01*
X131843624Y-100295400D01*
X131934082Y-100151437D01*
X131990237Y-99990954D01*
X132009274Y-99822000D01*
X131990237Y-99653046D01*
X131934082Y-99492563D01*
X131843624Y-99348600D01*
X131843623Y-99348599D01*
X131843622Y-99348597D01*
X131723402Y-99228377D01*
X131681647Y-99202141D01*
X131579437Y-99137918D01*
X131525942Y-99119199D01*
X131418956Y-99081763D01*
X131250000Y-99062726D01*
X131081043Y-99081763D01*
X130920563Y-99137918D01*
X130776597Y-99228377D01*
X130656377Y-99348597D01*
X130565918Y-99492563D01*
X130509763Y-99653043D01*
X130490726Y-99822000D01*
X120942481Y-99822000D01*
X120893787Y-99693605D01*
X120803498Y-99562799D01*
X120684529Y-99457401D01*
X120543793Y-99383537D01*
X120389471Y-99345500D01*
X120230529Y-99345500D01*
X120076207Y-99383537D01*
X120076206Y-99383537D01*
X120076204Y-99383538D01*
X119935472Y-99457400D01*
X119816501Y-99562799D01*
X119726212Y-99693605D01*
X119669850Y-99842219D01*
X119650693Y-100000000D01*
X117369299Y-100000000D01*
X117411042Y-99908596D01*
X117431688Y-99765000D01*
X117411042Y-99621404D01*
X117350777Y-99489442D01*
X117255775Y-99379804D01*
X117255774Y-99379803D01*
X117249819Y-99375976D01*
X117242071Y-99370996D01*
X117195579Y-99317343D01*
X117185474Y-99247069D01*
X117214967Y-99182488D01*
X117242069Y-99159003D01*
X117255775Y-99150196D01*
X117350777Y-99040558D01*
X117411042Y-98908596D01*
X117431688Y-98765000D01*
X117411042Y-98621404D01*
X117350777Y-98489442D01*
X117255775Y-98379804D01*
X117255774Y-98379803D01*
X117255773Y-98379802D01*
X117228071Y-98361999D01*
X123059693Y-98361999D01*
X123078850Y-98519780D01*
X123135212Y-98668394D01*
X123201895Y-98765000D01*
X123225502Y-98799201D01*
X123344471Y-98904599D01*
X123485207Y-98978463D01*
X123639529Y-99016500D01*
X123639531Y-99016500D01*
X123798469Y-99016500D01*
X123798471Y-99016500D01*
X123952793Y-98978463D01*
X124093529Y-98904599D01*
X124212498Y-98799201D01*
X124302787Y-98668395D01*
X124359149Y-98519782D01*
X124378307Y-98362000D01*
X124359149Y-98204218D01*
X124302787Y-98055605D01*
X124212498Y-97924799D01*
X124093529Y-97819401D01*
X123952793Y-97745537D01*
X123798471Y-97707500D01*
X123639529Y-97707500D01*
X123485207Y-97745537D01*
X123485206Y-97745537D01*
X123485204Y-97745538D01*
X123344472Y-97819400D01*
X123225501Y-97924799D01*
X123135212Y-98055605D01*
X123078850Y-98204219D01*
X123059693Y-98361999D01*
X117228071Y-98361999D01*
X117133733Y-98301371D01*
X116994537Y-98260500D01*
X116994536Y-98260500D01*
X116849464Y-98260500D01*
X116849463Y-98260500D01*
X116710266Y-98301371D01*
X116588226Y-98379802D01*
X116517224Y-98461743D01*
X116457498Y-98500126D01*
X116386501Y-98500126D01*
X116326776Y-98461743D01*
X116255773Y-98379802D01*
X116133733Y-98301371D01*
X115994537Y-98260500D01*
X115994536Y-98260500D01*
X115849464Y-98260500D01*
X115849463Y-98260500D01*
X115710266Y-98301371D01*
X115588226Y-98379802D01*
X115493223Y-98489441D01*
X115432957Y-98621406D01*
X115412311Y-98765000D01*
X115432957Y-98908593D01*
X115493223Y-99040558D01*
X115588225Y-99150196D01*
X115601929Y-99159003D01*
X115648421Y-99212659D01*
X115658524Y-99282933D01*
X115629031Y-99347514D01*
X115601929Y-99370997D01*
X115588225Y-99379803D01*
X115493223Y-99489441D01*
X115432957Y-99621406D01*
X115412311Y-99765000D01*
X80039500Y-99765000D01*
X80039500Y-98139999D01*
X96180693Y-98139999D01*
X96199850Y-98297780D01*
X96256212Y-98446394D01*
X96285926Y-98489441D01*
X96346502Y-98577201D01*
X96465471Y-98682599D01*
X96606207Y-98756463D01*
X96760529Y-98794500D01*
X96760531Y-98794500D01*
X96919469Y-98794500D01*
X96919471Y-98794500D01*
X97073793Y-98756463D01*
X97214529Y-98682599D01*
X97333498Y-98577201D01*
X97423787Y-98446395D01*
X97480149Y-98297782D01*
X97499307Y-98140000D01*
X97480149Y-97982218D01*
X97423787Y-97833605D01*
X97333498Y-97702799D01*
X97268257Y-97645000D01*
X112302693Y-97645000D01*
X112321850Y-97802780D01*
X112378212Y-97951394D01*
X112399489Y-97982218D01*
X112468502Y-98082201D01*
X112587471Y-98187599D01*
X112711770Y-98252836D01*
X112726092Y-98260353D01*
X112777115Y-98309721D01*
X112793347Y-98378837D01*
X112771233Y-98443496D01*
X112688811Y-98562904D01*
X112632449Y-98711518D01*
X112613292Y-98869299D01*
X112632449Y-99027079D01*
X112688811Y-99175693D01*
X112775561Y-99301371D01*
X112779101Y-99306500D01*
X112898070Y-99411898D01*
X113038806Y-99485762D01*
X113193128Y-99523799D01*
X113193130Y-99523799D01*
X113352068Y-99523799D01*
X113352070Y-99523799D01*
X113506392Y-99485762D01*
X113647128Y-99411898D01*
X113766097Y-99306500D01*
X113856386Y-99175694D01*
X113912748Y-99027081D01*
X113931906Y-98869299D01*
X113912748Y-98711517D01*
X113856386Y-98562904D01*
X113766097Y-98432098D01*
X113707070Y-98379804D01*
X113647126Y-98326698D01*
X113508506Y-98253945D01*
X113457483Y-98204577D01*
X113441251Y-98135461D01*
X113463365Y-98070803D01*
X113545787Y-97951395D01*
X113602149Y-97802782D01*
X113621307Y-97645000D01*
X113602149Y-97487218D01*
X113545787Y-97338605D01*
X113455498Y-97207799D01*
X113336529Y-97102401D01*
X113195793Y-97028537D01*
X113041471Y-96990500D01*
X112882529Y-96990500D01*
X112728207Y-97028537D01*
X112728206Y-97028537D01*
X112728204Y-97028538D01*
X112587472Y-97102400D01*
X112468501Y-97207799D01*
X112378212Y-97338605D01*
X112321850Y-97487219D01*
X112302693Y-97645000D01*
X97268257Y-97645000D01*
X97214529Y-97597401D01*
X97073793Y-97523537D01*
X96919471Y-97485500D01*
X96760529Y-97485500D01*
X96606207Y-97523537D01*
X96606206Y-97523537D01*
X96606204Y-97523538D01*
X96465472Y-97597400D01*
X96346501Y-97702799D01*
X96256212Y-97833605D01*
X96199850Y-97982219D01*
X96180693Y-98139999D01*
X80039500Y-98139999D01*
X80039500Y-88364647D01*
X80059502Y-88296526D01*
X80113158Y-88250033D01*
X80183432Y-88239929D01*
X80248012Y-88269423D01*
X80248946Y-88270240D01*
X80285471Y-88302599D01*
X80426207Y-88376463D01*
X80580529Y-88414500D01*
X80580531Y-88414500D01*
X80739469Y-88414500D01*
X80739471Y-88414500D01*
X80893793Y-88376463D01*
X81034529Y-88302599D01*
X81153498Y-88197201D01*
X81243787Y-88066395D01*
X81300149Y-87917782D01*
X81319307Y-87760000D01*
X81300149Y-87602218D01*
X81243787Y-87453605D01*
X81153498Y-87322799D01*
X81034529Y-87217401D01*
X80893793Y-87143537D01*
X80739471Y-87105500D01*
X80580529Y-87105500D01*
X80426207Y-87143537D01*
X80426206Y-87143537D01*
X80426204Y-87143538D01*
X80285472Y-87217400D01*
X80249053Y-87249665D01*
X80184800Y-87279865D01*
X80114420Y-87270534D01*
X80060257Y-87224633D01*
X80039508Y-87156736D01*
X80039500Y-87155352D01*
X80039500Y-86811267D01*
X80059502Y-86743146D01*
X80076405Y-86722172D01*
X81068577Y-85730000D01*
X84070693Y-85730000D01*
X84089850Y-85887780D01*
X84146212Y-86036394D01*
X84236501Y-86167200D01*
X84355472Y-86272600D01*
X84480434Y-86338185D01*
X84531457Y-86387553D01*
X84547689Y-86456669D01*
X84539691Y-86494432D01*
X84479850Y-86652218D01*
X84460693Y-86809999D01*
X84479850Y-86967780D01*
X84536212Y-87116394D01*
X84610557Y-87224100D01*
X84626502Y-87247201D01*
X84745471Y-87352599D01*
X84886207Y-87426463D01*
X85040529Y-87464500D01*
X85040531Y-87464500D01*
X85199469Y-87464500D01*
X85199471Y-87464500D01*
X85353793Y-87426463D01*
X85494529Y-87352599D01*
X85613498Y-87247201D01*
X85703787Y-87116395D01*
X85760149Y-86967782D01*
X85779307Y-86810000D01*
X85760149Y-86652218D01*
X85703787Y-86503605D01*
X85613498Y-86372799D01*
X85494529Y-86267401D01*
X85369562Y-86201813D01*
X85318542Y-86152447D01*
X85302310Y-86083331D01*
X85310308Y-86045567D01*
X85313785Y-86036396D01*
X85313787Y-86036395D01*
X85370149Y-85887782D01*
X85389307Y-85730000D01*
X85370149Y-85572218D01*
X85313787Y-85423605D01*
X85223498Y-85292799D01*
X85104529Y-85187401D01*
X84963793Y-85113537D01*
X84809471Y-85075500D01*
X84650529Y-85075500D01*
X84496207Y-85113537D01*
X84496206Y-85113537D01*
X84496204Y-85113538D01*
X84355472Y-85187400D01*
X84236501Y-85292799D01*
X84146212Y-85423605D01*
X84089850Y-85572219D01*
X84070693Y-85730000D01*
X81068577Y-85730000D01*
X82451672Y-84346905D01*
X82513984Y-84312879D01*
X82540767Y-84310000D01*
X86284296Y-84310000D01*
X86352417Y-84330002D01*
X86398910Y-84383658D01*
X86410296Y-84435703D01*
X86432617Y-93915165D01*
X86412775Y-93983333D01*
X86359229Y-94029952D01*
X86288979Y-94040221D01*
X86224329Y-94010880D01*
X86202511Y-93986440D01*
X86140785Y-93895905D01*
X86136433Y-93889521D01*
X85957981Y-93697195D01*
X85752857Y-93533614D01*
X85525643Y-93402432D01*
X85504401Y-93394095D01*
X85281417Y-93306580D01*
X85025630Y-93248198D01*
X84831836Y-93233675D01*
X84831822Y-93233674D01*
X84829494Y-93233500D01*
X84698506Y-93233500D01*
X84696178Y-93233674D01*
X84696163Y-93233675D01*
X84502369Y-93248198D01*
X84246582Y-93306580D01*
X84002356Y-93402432D01*
X83775146Y-93533612D01*
X83775143Y-93533614D01*
X83570019Y-93697195D01*
X83460248Y-93815500D01*
X83391563Y-93889525D01*
X83243772Y-94106295D01*
X83129936Y-94342676D01*
X83052605Y-94593381D01*
X83052604Y-94593385D01*
X83013500Y-94852818D01*
X83013500Y-95115182D01*
X83052604Y-95374615D01*
X83052605Y-95374618D01*
X83129936Y-95625323D01*
X83243772Y-95861704D01*
X83391563Y-96078474D01*
X83391564Y-96078475D01*
X83391567Y-96078479D01*
X83570019Y-96270805D01*
X83775143Y-96434386D01*
X84002357Y-96565568D01*
X84246584Y-96661420D01*
X84502370Y-96719802D01*
X84698506Y-96734500D01*
X84700859Y-96734500D01*
X84827141Y-96734500D01*
X84829494Y-96734500D01*
X85025630Y-96719802D01*
X85281416Y-96661420D01*
X85525643Y-96565568D01*
X85752857Y-96434386D01*
X85957981Y-96270805D01*
X86136433Y-96078479D01*
X86207527Y-95974202D01*
X86262426Y-95929187D01*
X86332948Y-95920998D01*
X86396703Y-95952236D01*
X86433449Y-96012984D01*
X86437632Y-96044885D01*
X86440000Y-97050000D01*
X109930000Y-97020000D01*
X109931636Y-96385646D01*
X115078055Y-96385646D01*
X115097212Y-96543426D01*
X115153574Y-96692040D01*
X115242016Y-96820169D01*
X115243864Y-96822847D01*
X115362833Y-96928245D01*
X115503569Y-97002109D01*
X115657891Y-97040146D01*
X115657893Y-97040146D01*
X115816831Y-97040146D01*
X115816833Y-97040146D01*
X115971155Y-97002109D01*
X116111891Y-96928245D01*
X116230860Y-96822847D01*
X116232708Y-96820169D01*
X125634649Y-96820169D01*
X125649865Y-96906463D01*
X125665277Y-96993867D01*
X125735136Y-97155819D01*
X125840459Y-97297292D01*
X125840460Y-97297293D01*
X125840461Y-97297294D01*
X125975573Y-97410667D01*
X126133189Y-97489824D01*
X126304812Y-97530500D01*
X126304814Y-97530500D01*
X127533272Y-97530500D01*
X127536941Y-97530500D01*
X127668184Y-97515160D01*
X127833924Y-97454836D01*
X127981285Y-97357915D01*
X128102322Y-97229623D01*
X128190510Y-97076876D01*
X128241095Y-96907909D01*
X128246206Y-96820169D01*
X129964649Y-96820169D01*
X129979865Y-96906463D01*
X129995277Y-96993867D01*
X130065136Y-97155819D01*
X130170459Y-97297292D01*
X130170460Y-97297293D01*
X130170461Y-97297294D01*
X130305573Y-97410667D01*
X130463189Y-97489824D01*
X130634812Y-97530500D01*
X130634814Y-97530500D01*
X131563272Y-97530500D01*
X131566941Y-97530500D01*
X131698184Y-97515160D01*
X131863924Y-97454836D01*
X132011285Y-97357915D01*
X132132322Y-97229623D01*
X132220510Y-97076876D01*
X132271095Y-96907909D01*
X132281351Y-96731831D01*
X132250723Y-96558134D01*
X132180864Y-96396182D01*
X132174610Y-96387782D01*
X132075540Y-96254707D01*
X132075539Y-96254706D01*
X131940427Y-96141333D01*
X131782811Y-96062176D01*
X131611188Y-96021500D01*
X130679059Y-96021500D01*
X130675431Y-96021923D01*
X130675414Y-96021925D01*
X130547814Y-96036840D01*
X130382078Y-96097162D01*
X130234712Y-96194086D01*
X130113678Y-96322376D01*
X130025490Y-96475121D01*
X129974905Y-96644090D01*
X129974905Y-96644091D01*
X129964649Y-96820169D01*
X128246206Y-96820169D01*
X128251351Y-96731831D01*
X128220723Y-96558134D01*
X128150864Y-96396182D01*
X128144610Y-96387782D01*
X128045540Y-96254707D01*
X127910427Y-96141333D01*
X127772806Y-96072218D01*
X127752811Y-96062176D01*
X127752809Y-96062175D01*
X127752436Y-96061988D01*
X127700538Y-96013541D01*
X127683071Y-95944726D01*
X127705581Y-95877393D01*
X127732281Y-95849427D01*
X127733228Y-95848699D01*
X127733233Y-95848698D01*
X127853451Y-95756451D01*
X127945698Y-95636233D01*
X128003687Y-95496236D01*
X128023466Y-95346000D01*
X128003687Y-95195764D01*
X127945698Y-95055767D01*
X127853451Y-94935549D01*
X127745637Y-94852820D01*
X127733232Y-94843301D01*
X127593235Y-94785312D01*
X127484807Y-94771038D01*
X127484806Y-94771037D01*
X127480720Y-94770500D01*
X127405280Y-94770500D01*
X127401194Y-94771037D01*
X127401192Y-94771038D01*
X127292764Y-94785312D01*
X127152767Y-94843301D01*
X127032549Y-94935549D01*
X126940301Y-95055767D01*
X126882312Y-95195764D01*
X126862534Y-95345999D01*
X126882312Y-95496235D01*
X126940301Y-95636232D01*
X126940302Y-95636233D01*
X127032549Y-95756451D01*
X127083488Y-95795538D01*
X127125355Y-95852876D01*
X127129576Y-95923747D01*
X127094811Y-95985650D01*
X127032098Y-96018931D01*
X127006783Y-96021500D01*
X126349059Y-96021500D01*
X126345431Y-96021923D01*
X126345414Y-96021925D01*
X126217814Y-96036840D01*
X126052078Y-96097162D01*
X125904712Y-96194086D01*
X125783678Y-96322376D01*
X125695490Y-96475121D01*
X125644905Y-96644090D01*
X125644905Y-96644091D01*
X125634649Y-96820169D01*
X116232708Y-96820169D01*
X116321149Y-96692041D01*
X116377511Y-96543428D01*
X116396669Y-96385646D01*
X116377511Y-96227864D01*
X116321149Y-96079251D01*
X116230860Y-95948445D01*
X116111891Y-95843047D01*
X116021370Y-95795538D01*
X115971157Y-95769184D01*
X115971156Y-95769183D01*
X115971155Y-95769183D01*
X115816833Y-95731146D01*
X115657891Y-95731146D01*
X115503569Y-95769183D01*
X115503568Y-95769183D01*
X115503566Y-95769184D01*
X115362834Y-95843046D01*
X115243863Y-95948445D01*
X115153574Y-96079251D01*
X115097212Y-96227865D01*
X115078055Y-96385646D01*
X109931636Y-96385646D01*
X109934372Y-95324999D01*
X111658693Y-95324999D01*
X111677850Y-95482780D01*
X111734212Y-95631394D01*
X111820532Y-95756449D01*
X111824502Y-95762201D01*
X111943471Y-95867599D01*
X112084207Y-95941463D01*
X112238529Y-95979500D01*
X112238531Y-95979500D01*
X112397469Y-95979500D01*
X112397471Y-95979500D01*
X112551793Y-95941463D01*
X112692529Y-95867599D01*
X112811498Y-95762201D01*
X112901787Y-95631395D01*
X112958149Y-95482782D01*
X112977307Y-95325000D01*
X112958149Y-95167218D01*
X112901787Y-95018605D01*
X112811498Y-94887799D01*
X112692529Y-94782401D01*
X112551793Y-94708537D01*
X112397471Y-94670500D01*
X112238529Y-94670500D01*
X112084207Y-94708537D01*
X112084206Y-94708537D01*
X112084204Y-94708538D01*
X111943472Y-94782400D01*
X111824501Y-94887799D01*
X111734212Y-95018605D01*
X111677850Y-95167219D01*
X111658693Y-95324999D01*
X109934372Y-95324999D01*
X109936531Y-94488000D01*
X120906726Y-94488000D01*
X120925763Y-94656956D01*
X120943813Y-94708538D01*
X120981918Y-94817437D01*
X121046141Y-94919647D01*
X121072377Y-94961402D01*
X121192597Y-95081622D01*
X121192599Y-95081623D01*
X121192600Y-95081624D01*
X121336563Y-95172082D01*
X121497046Y-95228237D01*
X121666000Y-95247274D01*
X121834954Y-95228237D01*
X121995437Y-95172082D01*
X122139400Y-95081624D01*
X122259624Y-94961400D01*
X122350082Y-94817437D01*
X122406237Y-94656954D01*
X122425274Y-94488000D01*
X122406237Y-94319046D01*
X122350082Y-94158563D01*
X122259624Y-94014600D01*
X122259623Y-94014599D01*
X122259622Y-94014597D01*
X122139402Y-93894377D01*
X122073305Y-93852846D01*
X121995437Y-93803918D01*
X121941942Y-93785199D01*
X121834956Y-93747763D01*
X121666000Y-93728726D01*
X121497043Y-93747763D01*
X121336563Y-93803918D01*
X121192597Y-93894377D01*
X121072377Y-94014597D01*
X120981918Y-94158563D01*
X120925763Y-94319043D01*
X120906726Y-94488000D01*
X109936531Y-94488000D01*
X109945703Y-90931999D01*
X120906726Y-90931999D01*
X120925763Y-91100956D01*
X120963199Y-91207942D01*
X120981918Y-91261437D01*
X120996155Y-91284095D01*
X121072377Y-91405402D01*
X121192597Y-91525622D01*
X121192599Y-91525623D01*
X121192600Y-91525624D01*
X121336563Y-91616082D01*
X121497046Y-91672237D01*
X121666000Y-91691274D01*
X121834954Y-91672237D01*
X121995437Y-91616082D01*
X122139400Y-91525624D01*
X122259624Y-91405400D01*
X122350082Y-91261437D01*
X122406237Y-91100954D01*
X122425274Y-90932000D01*
X122406237Y-90763046D01*
X122350082Y-90602563D01*
X122259624Y-90458600D01*
X122259623Y-90458599D01*
X122259622Y-90458597D01*
X122139402Y-90338377D01*
X122085487Y-90304500D01*
X121995437Y-90247918D01*
X121941942Y-90229199D01*
X121834956Y-90191763D01*
X121722318Y-90179071D01*
X121666000Y-90172726D01*
X121665999Y-90172726D01*
X121497043Y-90191763D01*
X121336563Y-90247918D01*
X121192597Y-90338377D01*
X121072377Y-90458597D01*
X120981918Y-90602563D01*
X120925763Y-90763043D01*
X120906726Y-90931999D01*
X109945703Y-90931999D01*
X109960891Y-85043880D01*
X109981069Y-84975815D01*
X110034845Y-84929461D01*
X110105144Y-84919538D01*
X110169649Y-84949198D01*
X110175986Y-84955114D01*
X113847290Y-88626418D01*
X113877124Y-88673898D01*
X113896685Y-88729802D01*
X113987145Y-88873768D01*
X114107365Y-88993988D01*
X114107367Y-88993989D01*
X114107368Y-88993990D01*
X114251331Y-89084448D01*
X114411814Y-89140603D01*
X114580768Y-89159640D01*
X114749722Y-89140603D01*
X114910205Y-89084448D01*
X115054168Y-88993990D01*
X115174392Y-88873766D01*
X115264850Y-88729803D01*
X115321005Y-88569320D01*
X115340042Y-88400366D01*
X115321005Y-88231412D01*
X115303074Y-88180169D01*
X125634649Y-88180169D01*
X125646968Y-88250033D01*
X125665277Y-88353867D01*
X125735136Y-88515819D01*
X125840459Y-88657292D01*
X125840460Y-88657293D01*
X125840461Y-88657294D01*
X125975573Y-88770667D01*
X126133189Y-88849824D01*
X126304812Y-88890500D01*
X126304814Y-88890500D01*
X127006783Y-88890500D01*
X127074904Y-88910502D01*
X127121397Y-88964158D01*
X127131501Y-89034432D01*
X127102007Y-89099012D01*
X127083488Y-89116462D01*
X127032549Y-89155549D01*
X126940301Y-89275767D01*
X126882312Y-89415764D01*
X126862534Y-89566000D01*
X126882312Y-89716235D01*
X126940301Y-89856232D01*
X126940302Y-89856233D01*
X127032549Y-89976451D01*
X127152767Y-90068698D01*
X127292764Y-90126687D01*
X127405280Y-90141500D01*
X127409402Y-90141500D01*
X127476598Y-90141500D01*
X127480720Y-90141500D01*
X127593236Y-90126687D01*
X127733233Y-90068698D01*
X127853451Y-89976451D01*
X127945698Y-89856233D01*
X128003687Y-89716236D01*
X128023466Y-89566000D01*
X128003687Y-89415764D01*
X127945698Y-89275767D01*
X127853451Y-89155549D01*
X127853449Y-89155548D01*
X127853449Y-89155547D01*
X127728206Y-89059444D01*
X127686339Y-89002106D01*
X127682117Y-88931235D01*
X127716882Y-88869332D01*
X127761816Y-88841081D01*
X127833921Y-88814837D01*
X127833920Y-88814837D01*
X127833924Y-88814836D01*
X127981285Y-88717915D01*
X128102322Y-88589623D01*
X128190510Y-88436876D01*
X128241095Y-88267909D01*
X128246206Y-88180169D01*
X129964649Y-88180169D01*
X129976968Y-88250033D01*
X129995277Y-88353867D01*
X130065136Y-88515819D01*
X130170459Y-88657292D01*
X130170460Y-88657293D01*
X130170461Y-88657294D01*
X130305573Y-88770667D01*
X130463189Y-88849824D01*
X130634812Y-88890500D01*
X130634814Y-88890500D01*
X131563272Y-88890500D01*
X131566941Y-88890500D01*
X131698184Y-88875160D01*
X131863924Y-88814836D01*
X132011285Y-88717915D01*
X132132322Y-88589623D01*
X132220510Y-88436876D01*
X132271095Y-88267909D01*
X132281351Y-88091831D01*
X132250723Y-87918134D01*
X132180864Y-87756182D01*
X132154536Y-87720818D01*
X132075540Y-87614707D01*
X132075539Y-87614706D01*
X131940427Y-87501333D01*
X131782811Y-87422176D01*
X131611188Y-87381500D01*
X130679059Y-87381500D01*
X130675431Y-87381923D01*
X130675414Y-87381925D01*
X130547814Y-87396840D01*
X130382078Y-87457162D01*
X130234712Y-87554086D01*
X130113678Y-87682376D01*
X130025490Y-87835121D01*
X129974905Y-88004090D01*
X129965211Y-88170529D01*
X129964649Y-88180169D01*
X128246206Y-88180169D01*
X128251351Y-88091831D01*
X128220723Y-87918134D01*
X128150864Y-87756182D01*
X128124536Y-87720818D01*
X128045540Y-87614707D01*
X128045539Y-87614706D01*
X127910427Y-87501333D01*
X127752811Y-87422176D01*
X127581188Y-87381500D01*
X126349059Y-87381500D01*
X126345431Y-87381923D01*
X126345414Y-87381925D01*
X126217814Y-87396840D01*
X126052078Y-87457162D01*
X125904712Y-87554086D01*
X125783678Y-87682376D01*
X125695490Y-87835121D01*
X125644905Y-88004090D01*
X125635211Y-88170529D01*
X125634649Y-88180169D01*
X115303074Y-88180169D01*
X115264850Y-88070929D01*
X115174392Y-87926966D01*
X115174391Y-87926965D01*
X115174390Y-87926963D01*
X115054170Y-87806743D01*
X115005091Y-87775905D01*
X114910205Y-87716284D01*
X114856710Y-87697565D01*
X114749724Y-87660129D01*
X114580768Y-87641092D01*
X114411814Y-87660129D01*
X114411811Y-87660129D01*
X114397708Y-87661719D01*
X114397404Y-87659024D01*
X114347056Y-87661588D01*
X114287266Y-87628138D01*
X110949127Y-84289999D01*
X131690726Y-84289999D01*
X131709763Y-84458956D01*
X131747199Y-84565942D01*
X131765918Y-84619437D01*
X131799083Y-84672218D01*
X131856377Y-84763402D01*
X131976597Y-84883622D01*
X131976599Y-84883623D01*
X131976600Y-84883624D01*
X132120563Y-84974082D01*
X132281046Y-85030237D01*
X132450000Y-85049274D01*
X132618954Y-85030237D01*
X132779437Y-84974082D01*
X132923400Y-84883624D01*
X133043624Y-84763400D01*
X133134082Y-84619437D01*
X133190237Y-84458954D01*
X133209274Y-84290000D01*
X133190237Y-84121046D01*
X133134082Y-83960563D01*
X133043624Y-83816600D01*
X133043623Y-83816599D01*
X133043622Y-83816597D01*
X132923402Y-83696377D01*
X132881647Y-83670141D01*
X132779437Y-83605918D01*
X132725942Y-83587199D01*
X132618956Y-83549763D01*
X132450000Y-83530726D01*
X132281043Y-83549763D01*
X132120563Y-83605918D01*
X131976597Y-83696377D01*
X131856377Y-83816597D01*
X131765918Y-83960563D01*
X131709763Y-84121043D01*
X131690726Y-84289999D01*
X110949127Y-84289999D01*
X110485447Y-83826319D01*
X110451421Y-83764007D01*
X110456486Y-83693192D01*
X110499033Y-83636356D01*
X110544384Y-83614887D01*
X110594793Y-83602463D01*
X110735529Y-83528599D01*
X110854498Y-83423201D01*
X110944787Y-83292395D01*
X111001149Y-83143782D01*
X111020307Y-82986000D01*
X111001149Y-82828218D01*
X110944787Y-82679605D01*
X110854498Y-82548799D01*
X110735529Y-82443401D01*
X110594793Y-82369537D01*
X110440471Y-82331500D01*
X110281529Y-82331500D01*
X110127207Y-82369537D01*
X110127206Y-82369537D01*
X110124258Y-82370264D01*
X110053330Y-82367145D01*
X109995347Y-82326175D01*
X109968719Y-82260361D01*
X109968104Y-82247617D01*
X109973644Y-80099999D01*
X120588693Y-80099999D01*
X120607850Y-80257780D01*
X120664212Y-80406394D01*
X120725841Y-80495678D01*
X120754502Y-80537201D01*
X120873471Y-80642599D01*
X121014207Y-80716463D01*
X121168529Y-80754500D01*
X121168531Y-80754500D01*
X121327469Y-80754500D01*
X121327471Y-80754500D01*
X121481793Y-80716463D01*
X121622529Y-80642599D01*
X121741498Y-80537201D01*
X121831787Y-80406395D01*
X121888149Y-80257782D01*
X121907307Y-80100000D01*
X121904879Y-80080000D01*
X123359693Y-80080000D01*
X123378850Y-80237780D01*
X123435212Y-80386394D01*
X123510646Y-80495678D01*
X123525502Y-80517201D01*
X123644471Y-80622599D01*
X123785207Y-80696463D01*
X123939529Y-80734500D01*
X123939531Y-80734500D01*
X124098469Y-80734500D01*
X124098471Y-80734500D01*
X124252793Y-80696463D01*
X124393529Y-80622599D01*
X124512498Y-80517201D01*
X124602787Y-80386395D01*
X124659149Y-80237782D01*
X124678307Y-80080000D01*
X124659149Y-79922218D01*
X124602787Y-79773605D01*
X124512498Y-79642799D01*
X124393529Y-79537401D01*
X124252793Y-79463537D01*
X124098471Y-79425500D01*
X123939529Y-79425500D01*
X123785207Y-79463537D01*
X123785206Y-79463537D01*
X123785204Y-79463538D01*
X123644472Y-79537400D01*
X123525501Y-79642799D01*
X123435212Y-79773605D01*
X123378850Y-79922219D01*
X123359693Y-80080000D01*
X121904879Y-80080000D01*
X121888149Y-79942218D01*
X121831787Y-79793605D01*
X121741498Y-79662799D01*
X121622529Y-79557401D01*
X121481793Y-79483537D01*
X121327471Y-79445500D01*
X121168529Y-79445500D01*
X121014207Y-79483537D01*
X121014206Y-79483537D01*
X121014204Y-79483538D01*
X120873472Y-79557400D01*
X120754501Y-79662799D01*
X120664212Y-79793605D01*
X120607850Y-79942219D01*
X120588693Y-80099999D01*
X109973644Y-80099999D01*
X109984627Y-75841999D01*
X125959726Y-75841999D01*
X125978763Y-76010956D01*
X126016199Y-76117942D01*
X126034918Y-76171437D01*
X126099141Y-76273647D01*
X126125377Y-76315402D01*
X126245597Y-76435622D01*
X126245599Y-76435623D01*
X126245600Y-76435624D01*
X126389563Y-76526082D01*
X126550046Y-76582237D01*
X126719000Y-76601274D01*
X126887954Y-76582237D01*
X127048437Y-76526082D01*
X127192400Y-76435624D01*
X127312624Y-76315400D01*
X127403082Y-76171437D01*
X127459237Y-76010954D01*
X127478274Y-75842000D01*
X127459237Y-75673046D01*
X127403082Y-75512563D01*
X127312624Y-75368600D01*
X127312623Y-75368599D01*
X127312622Y-75368597D01*
X127192401Y-75248376D01*
X127137193Y-75213687D01*
X127090155Y-75160509D01*
X127079335Y-75090342D01*
X127108168Y-75025463D01*
X127137193Y-75000313D01*
X127173308Y-74977620D01*
X127192400Y-74965624D01*
X127312624Y-74845400D01*
X127403082Y-74701437D01*
X127459237Y-74540954D01*
X127478274Y-74372000D01*
X127459237Y-74203046D01*
X127403082Y-74042563D01*
X127312624Y-73898600D01*
X127312623Y-73898599D01*
X127312622Y-73898597D01*
X127195120Y-73781095D01*
X127161094Y-73718783D01*
X127166159Y-73647968D01*
X127195120Y-73602905D01*
X127312622Y-73485402D01*
X127312622Y-73485401D01*
X127312624Y-73485400D01*
X127403082Y-73341437D01*
X127459237Y-73180954D01*
X127478274Y-73012000D01*
X127459237Y-72843046D01*
X127403082Y-72682563D01*
X127312624Y-72538600D01*
X127312623Y-72538599D01*
X127312622Y-72538597D01*
X127192402Y-72418377D01*
X127124437Y-72375672D01*
X127048437Y-72327918D01*
X126987768Y-72306689D01*
X126887956Y-72271763D01*
X126719000Y-72252726D01*
X126550043Y-72271763D01*
X126389563Y-72327918D01*
X126245597Y-72418377D01*
X126125377Y-72538597D01*
X126034918Y-72682563D01*
X125978763Y-72843043D01*
X125959726Y-73012000D01*
X125978763Y-73180956D01*
X126004380Y-73254164D01*
X126034918Y-73341437D01*
X126095464Y-73437795D01*
X126125377Y-73485402D01*
X126242880Y-73602905D01*
X126276906Y-73665217D01*
X126271841Y-73736032D01*
X126242880Y-73781095D01*
X126125377Y-73898597D01*
X126034918Y-74042563D01*
X125978763Y-74203043D01*
X125959726Y-74372000D01*
X125978763Y-74540956D01*
X125999468Y-74600127D01*
X126034918Y-74701437D01*
X126037019Y-74704780D01*
X126125377Y-74845402D01*
X126245598Y-74965623D01*
X126300807Y-75000313D01*
X126347845Y-75053491D01*
X126358665Y-75123658D01*
X126329832Y-75188537D01*
X126300807Y-75213687D01*
X126245598Y-75248376D01*
X126125377Y-75368597D01*
X126034918Y-75512563D01*
X125978763Y-75673043D01*
X125959726Y-75841999D01*
X109984627Y-75841999D01*
X109987967Y-74547000D01*
X120550693Y-74547000D01*
X120569850Y-74704780D01*
X120626212Y-74853394D01*
X120703679Y-74965623D01*
X120716502Y-74984201D01*
X120835471Y-75089599D01*
X120976207Y-75163463D01*
X121130529Y-75201500D01*
X121130531Y-75201500D01*
X121289469Y-75201500D01*
X121289471Y-75201500D01*
X121443793Y-75163463D01*
X121584529Y-75089599D01*
X121703498Y-74984201D01*
X121793787Y-74853395D01*
X121850149Y-74704782D01*
X121869307Y-74547000D01*
X121850149Y-74389218D01*
X121793787Y-74240605D01*
X121703498Y-74109799D01*
X121584529Y-74004401D01*
X121443793Y-73930537D01*
X121289471Y-73892500D01*
X121130529Y-73892500D01*
X120976207Y-73930537D01*
X120976206Y-73930537D01*
X120976204Y-73930538D01*
X120835472Y-74004400D01*
X120716501Y-74109799D01*
X120626212Y-74240605D01*
X120569850Y-74389219D01*
X120550693Y-74547000D01*
X109987967Y-74547000D01*
X109992662Y-72727000D01*
X115900693Y-72727000D01*
X115919850Y-72884780D01*
X115976212Y-73033394D01*
X115976213Y-73033395D01*
X116066502Y-73164201D01*
X116185471Y-73269599D01*
X116326207Y-73343463D01*
X116480529Y-73381500D01*
X116480531Y-73381500D01*
X116639469Y-73381500D01*
X116639471Y-73381500D01*
X116793793Y-73343463D01*
X116934529Y-73269599D01*
X117053498Y-73164201D01*
X117143787Y-73033395D01*
X117200149Y-72884782D01*
X117219307Y-72727000D01*
X117200149Y-72569218D01*
X117143787Y-72420605D01*
X117053498Y-72289799D01*
X116934529Y-72184401D01*
X116793793Y-72110537D01*
X116639471Y-72072500D01*
X116480529Y-72072500D01*
X116326207Y-72110537D01*
X116326206Y-72110537D01*
X116326204Y-72110538D01*
X116185472Y-72184400D01*
X116066501Y-72289799D01*
X115976212Y-72420605D01*
X115919850Y-72569219D01*
X115900693Y-72727000D01*
X109992662Y-72727000D01*
X109998540Y-70448499D01*
X116259193Y-70448499D01*
X116278350Y-70606280D01*
X116334712Y-70754894D01*
X116419180Y-70877266D01*
X116425002Y-70885701D01*
X116543971Y-70991099D01*
X116684707Y-71064963D01*
X116839029Y-71103000D01*
X116839031Y-71103000D01*
X116997969Y-71103000D01*
X116997971Y-71103000D01*
X117152293Y-71064963D01*
X117293029Y-70991099D01*
X117387431Y-70907465D01*
X117451681Y-70877266D01*
X117522061Y-70886597D01*
X117576225Y-70932497D01*
X117596063Y-70986590D01*
X117599850Y-71017780D01*
X117656212Y-71166394D01*
X117687274Y-71211394D01*
X117746502Y-71297201D01*
X117865471Y-71402599D01*
X118006207Y-71476463D01*
X118160529Y-71514500D01*
X118160531Y-71514500D01*
X118319469Y-71514500D01*
X118319471Y-71514500D01*
X118473793Y-71476463D01*
X118614529Y-71402599D01*
X118733498Y-71297201D01*
X118823787Y-71166395D01*
X118880149Y-71017782D01*
X118899307Y-70860000D01*
X118880149Y-70702218D01*
X118823787Y-70553605D01*
X118733498Y-70422799D01*
X118614529Y-70317401D01*
X118544161Y-70280469D01*
X118473795Y-70243538D01*
X118473794Y-70243537D01*
X118473793Y-70243537D01*
X118319471Y-70205500D01*
X118160529Y-70205500D01*
X118006207Y-70243537D01*
X118006206Y-70243537D01*
X118006204Y-70243538D01*
X117865472Y-70317400D01*
X117771070Y-70401033D01*
X117706817Y-70431233D01*
X117636436Y-70421901D01*
X117582273Y-70376001D01*
X117562436Y-70321907D01*
X117558649Y-70290719D01*
X117557821Y-70288537D01*
X117502287Y-70142105D01*
X117411998Y-70011299D01*
X117293029Y-69905901D01*
X117152293Y-69832037D01*
X116997971Y-69794000D01*
X116839029Y-69794000D01*
X116684707Y-69832037D01*
X116684706Y-69832037D01*
X116684704Y-69832038D01*
X116543972Y-69905900D01*
X116425001Y-70011299D01*
X116334712Y-70142105D01*
X116278350Y-70290719D01*
X116259193Y-70448499D01*
X109998540Y-70448499D01*
X110003175Y-68651500D01*
X115539193Y-68651500D01*
X115558350Y-68809280D01*
X115614712Y-68957894D01*
X115689605Y-69066394D01*
X115705002Y-69088701D01*
X115823971Y-69194099D01*
X115964707Y-69267963D01*
X116119029Y-69306000D01*
X116119031Y-69306000D01*
X116277969Y-69306000D01*
X116277971Y-69306000D01*
X116432293Y-69267963D01*
X116573029Y-69194099D01*
X116691998Y-69088701D01*
X116782287Y-68957895D01*
X116838649Y-68809282D01*
X116854334Y-68680100D01*
X120083693Y-68680100D01*
X120102850Y-68837880D01*
X120159212Y-68986494D01*
X120249501Y-69117299D01*
X120249502Y-69117301D01*
X120368471Y-69222699D01*
X120509207Y-69296563D01*
X120663529Y-69334600D01*
X120663531Y-69334600D01*
X120822472Y-69334600D01*
X120860237Y-69325291D01*
X120909947Y-69313039D01*
X120980875Y-69316157D01*
X121038857Y-69357126D01*
X121065486Y-69422940D01*
X121052305Y-69492702D01*
X121023655Y-69529689D01*
X120943501Y-69600699D01*
X120853212Y-69731505D01*
X120796850Y-69880119D01*
X120777693Y-70037899D01*
X120796850Y-70195680D01*
X120853212Y-70344294D01*
X120938462Y-70467799D01*
X120943502Y-70475101D01*
X121062471Y-70580499D01*
X121203207Y-70654363D01*
X121356221Y-70692077D01*
X121417574Y-70727801D01*
X121449876Y-70791024D01*
X121451147Y-70829602D01*
X121441992Y-70904999D01*
X121461150Y-71062780D01*
X121517512Y-71211394D01*
X121607237Y-71341382D01*
X121607802Y-71342201D01*
X121726771Y-71447599D01*
X121867507Y-71521463D01*
X122021829Y-71559500D01*
X122021831Y-71559500D01*
X122180769Y-71559500D01*
X122180771Y-71559500D01*
X122335093Y-71521463D01*
X122475829Y-71447599D01*
X122594798Y-71342201D01*
X122685087Y-71211395D01*
X122741449Y-71062782D01*
X122760607Y-70905000D01*
X122741449Y-70747218D01*
X122685087Y-70598605D01*
X122594798Y-70467799D01*
X122475829Y-70362401D01*
X122441190Y-70344221D01*
X122335092Y-70288536D01*
X122182078Y-70250821D01*
X122120724Y-70215098D01*
X122088423Y-70151875D01*
X122087152Y-70113295D01*
X122096307Y-70037900D01*
X122077149Y-69880118D01*
X122020787Y-69731505D01*
X121930498Y-69600699D01*
X121811529Y-69495301D01*
X121670793Y-69421437D01*
X121516471Y-69383400D01*
X121357529Y-69383400D01*
X121270051Y-69404961D01*
X121199123Y-69401842D01*
X121141141Y-69360872D01*
X121114513Y-69295058D01*
X121127694Y-69225295D01*
X121156340Y-69188314D01*
X121236498Y-69117301D01*
X121326787Y-68986495D01*
X121339652Y-68952571D01*
X121382507Y-68895973D01*
X121449162Y-68871527D01*
X121518453Y-68886998D01*
X121561159Y-68925677D01*
X121608456Y-68994199D01*
X121619502Y-69010201D01*
X121738471Y-69115599D01*
X121879207Y-69189463D01*
X122033529Y-69227500D01*
X122033531Y-69227500D01*
X122192469Y-69227500D01*
X122192471Y-69227500D01*
X122346793Y-69189463D01*
X122487529Y-69115599D01*
X122606498Y-69010201D01*
X122696787Y-68879395D01*
X122742068Y-68760000D01*
X132005693Y-68760000D01*
X132024850Y-68917780D01*
X132081212Y-69066394D01*
X132121669Y-69125005D01*
X132171502Y-69197201D01*
X132290471Y-69302599D01*
X132431207Y-69376463D01*
X132585529Y-69414500D01*
X132585531Y-69414500D01*
X132744469Y-69414500D01*
X132744471Y-69414500D01*
X132898793Y-69376463D01*
X133039529Y-69302599D01*
X133158498Y-69197201D01*
X133248787Y-69066395D01*
X133305149Y-68917782D01*
X133324307Y-68760000D01*
X133305149Y-68602218D01*
X133248787Y-68453605D01*
X133158498Y-68322799D01*
X133039529Y-68217401D01*
X132898793Y-68143537D01*
X132744471Y-68105500D01*
X132585529Y-68105500D01*
X132431207Y-68143537D01*
X132431206Y-68143537D01*
X132431204Y-68143538D01*
X132290472Y-68217400D01*
X132171501Y-68322799D01*
X132081212Y-68453605D01*
X132024850Y-68602219D01*
X132005693Y-68760000D01*
X122742068Y-68760000D01*
X122753149Y-68730782D01*
X122772307Y-68573000D01*
X122753149Y-68415218D01*
X122696787Y-68266605D01*
X122606498Y-68135799D01*
X122487529Y-68030401D01*
X122346793Y-67956537D01*
X122192471Y-67918500D01*
X122033529Y-67918500D01*
X121879207Y-67956537D01*
X121879206Y-67956537D01*
X121879204Y-67956538D01*
X121738472Y-68030400D01*
X121619501Y-68135799D01*
X121529213Y-68266604D01*
X121516348Y-68300527D01*
X121473489Y-68357128D01*
X121406834Y-68381572D01*
X121337544Y-68366100D01*
X121294840Y-68327422D01*
X121236498Y-68242899D01*
X121198753Y-68209460D01*
X121117529Y-68137501D01*
X120976793Y-68063637D01*
X120822471Y-68025600D01*
X120663529Y-68025600D01*
X120509207Y-68063637D01*
X120509206Y-68063637D01*
X120509204Y-68063638D01*
X120368472Y-68137500D01*
X120249501Y-68242899D01*
X120159212Y-68373705D01*
X120102850Y-68522319D01*
X120083693Y-68680100D01*
X116854334Y-68680100D01*
X116857807Y-68651500D01*
X116838649Y-68493718D01*
X116782287Y-68345105D01*
X116691998Y-68214299D01*
X116573029Y-68108901D01*
X116432293Y-68035037D01*
X116277971Y-67997000D01*
X116119029Y-67997000D01*
X115964707Y-68035037D01*
X115964706Y-68035037D01*
X115964704Y-68035038D01*
X115823972Y-68108900D01*
X115705001Y-68214299D01*
X115614712Y-68345105D01*
X115558350Y-68493719D01*
X115539193Y-68651500D01*
X110003175Y-68651500D01*
X110014811Y-64140627D01*
X110034988Y-64072562D01*
X110051711Y-64051865D01*
X110069309Y-64034268D01*
X110166055Y-63915619D01*
X110260642Y-63734540D01*
X110316843Y-63538127D01*
X110332356Y-63334422D01*
X110325457Y-63280255D01*
X110306546Y-63131764D01*
X110260100Y-62995882D01*
X110240469Y-62938449D01*
X110136831Y-62762393D01*
X110051334Y-62667761D01*
X110020509Y-62603806D01*
X110018829Y-62582981D01*
X110022267Y-61250000D01*
X111852693Y-61250000D01*
X111871850Y-61407780D01*
X111928212Y-61556394D01*
X111972393Y-61620400D01*
X112018502Y-61687201D01*
X112137471Y-61792599D01*
X112278207Y-61866463D01*
X112432529Y-61904500D01*
X112432531Y-61904500D01*
X112591469Y-61904500D01*
X112591471Y-61904500D01*
X112745793Y-61866463D01*
X112886529Y-61792599D01*
X113005498Y-61687201D01*
X113095787Y-61556395D01*
X113097833Y-61551000D01*
X123787693Y-61551000D01*
X123806850Y-61708780D01*
X123863212Y-61857394D01*
X123952121Y-61986200D01*
X123953502Y-61988201D01*
X124072471Y-62093599D01*
X124213207Y-62167463D01*
X124367529Y-62205500D01*
X124367531Y-62205500D01*
X124526469Y-62205500D01*
X124526471Y-62205500D01*
X124680793Y-62167463D01*
X124821529Y-62093599D01*
X124940498Y-61988201D01*
X125030787Y-61857395D01*
X125087149Y-61708782D01*
X125106307Y-61551000D01*
X125106064Y-61549000D01*
X127400693Y-61549000D01*
X127419850Y-61706780D01*
X127476212Y-61855394D01*
X127510108Y-61904500D01*
X127566502Y-61986201D01*
X127685471Y-62091599D01*
X127826207Y-62165463D01*
X127980529Y-62203500D01*
X127980531Y-62203500D01*
X128139469Y-62203500D01*
X128139471Y-62203500D01*
X128293793Y-62165463D01*
X128399469Y-62110000D01*
X131120693Y-62110000D01*
X131139850Y-62267780D01*
X131196212Y-62416394D01*
X131196213Y-62416395D01*
X131286502Y-62547201D01*
X131405471Y-62652599D01*
X131546207Y-62726463D01*
X131700529Y-62764500D01*
X131700531Y-62764500D01*
X131859469Y-62764500D01*
X131859471Y-62764500D01*
X132013793Y-62726463D01*
X132154529Y-62652599D01*
X132273498Y-62547201D01*
X132363787Y-62416395D01*
X132420149Y-62267782D01*
X132439307Y-62110000D01*
X132420149Y-61952218D01*
X132363787Y-61803605D01*
X132273498Y-61672799D01*
X132154529Y-61567401D01*
X132013793Y-61493537D01*
X131859471Y-61455500D01*
X131700529Y-61455500D01*
X131546207Y-61493537D01*
X131546206Y-61493537D01*
X131546204Y-61493538D01*
X131405472Y-61567400D01*
X131286501Y-61672799D01*
X131196212Y-61803605D01*
X131139850Y-61952219D01*
X131120693Y-62110000D01*
X128399469Y-62110000D01*
X128434529Y-62091599D01*
X128553498Y-61986201D01*
X128643787Y-61855395D01*
X128700149Y-61706782D01*
X128719307Y-61549000D01*
X128700149Y-61391218D01*
X128643787Y-61242605D01*
X128553498Y-61111799D01*
X128434529Y-61006401D01*
X128293793Y-60932537D01*
X128139471Y-60894500D01*
X127980529Y-60894500D01*
X127826207Y-60932537D01*
X127826206Y-60932537D01*
X127826204Y-60932538D01*
X127685472Y-61006400D01*
X127566501Y-61111799D01*
X127476212Y-61242605D01*
X127419850Y-61391219D01*
X127400693Y-61549000D01*
X125106064Y-61549000D01*
X125087149Y-61393218D01*
X125030787Y-61244605D01*
X124940498Y-61113799D01*
X124821529Y-61008401D01*
X124680793Y-60934537D01*
X124526471Y-60896500D01*
X124367529Y-60896500D01*
X124213207Y-60934537D01*
X124213206Y-60934537D01*
X124213204Y-60934538D01*
X124072472Y-61008400D01*
X123953501Y-61113799D01*
X123863212Y-61244605D01*
X123806850Y-61393219D01*
X123787693Y-61551000D01*
X113097833Y-61551000D01*
X113152149Y-61407782D01*
X113171307Y-61250000D01*
X113152149Y-61092218D01*
X113095787Y-60943605D01*
X113005498Y-60812799D01*
X112886529Y-60707401D01*
X112745793Y-60633537D01*
X112591471Y-60595500D01*
X112432529Y-60595500D01*
X112278207Y-60633537D01*
X112278206Y-60633537D01*
X112278204Y-60633538D01*
X112137472Y-60707400D01*
X112018501Y-60812799D01*
X111928212Y-60943605D01*
X111871850Y-61092219D01*
X111852693Y-61250000D01*
X110022267Y-61250000D01*
X110028613Y-58789659D01*
X124840393Y-58789659D01*
X124870668Y-58961355D01*
X124939721Y-59121439D01*
X125043830Y-59261281D01*
X125177385Y-59373349D01*
X125255977Y-59412819D01*
X125333185Y-59451594D01*
X125502829Y-59491800D01*
X125502831Y-59491800D01*
X125629767Y-59491800D01*
X125633436Y-59491800D01*
X125763164Y-59476637D01*
X125926993Y-59417008D01*
X126072654Y-59321205D01*
X126192296Y-59194393D01*
X126279467Y-59043407D01*
X126329469Y-58876388D01*
X126339607Y-58702340D01*
X126309332Y-58530646D01*
X126240279Y-58370562D01*
X126230442Y-58357349D01*
X126136169Y-58230718D01*
X126002614Y-58118650D01*
X125846817Y-58040407D01*
X125846816Y-58040406D01*
X125846815Y-58040406D01*
X125677171Y-58000200D01*
X125546564Y-58000200D01*
X125542936Y-58000623D01*
X125542919Y-58000625D01*
X125416834Y-58015363D01*
X125253006Y-58074991D01*
X125107348Y-58170792D01*
X124987703Y-58297607D01*
X124900533Y-58448593D01*
X124850531Y-58615612D01*
X124840393Y-58789659D01*
X110028613Y-58789659D01*
X110031234Y-57773659D01*
X129920393Y-57773659D01*
X129950668Y-57945355D01*
X130019721Y-58105439D01*
X130123830Y-58245281D01*
X130257385Y-58357349D01*
X130283691Y-58370560D01*
X130413185Y-58435594D01*
X130582829Y-58475800D01*
X130582831Y-58475800D01*
X130709767Y-58475800D01*
X130713436Y-58475800D01*
X130843164Y-58460637D01*
X131006993Y-58401008D01*
X131152654Y-58305205D01*
X131272296Y-58178393D01*
X131359467Y-58027407D01*
X131409469Y-57860388D01*
X131419607Y-57686340D01*
X131389332Y-57514646D01*
X131320279Y-57354562D01*
X131310442Y-57341349D01*
X131216169Y-57214718D01*
X131082614Y-57102650D01*
X130926817Y-57024407D01*
X130926816Y-57024406D01*
X130926815Y-57024406D01*
X130757171Y-56984200D01*
X130626564Y-56984200D01*
X130622936Y-56984623D01*
X130622919Y-56984625D01*
X130496834Y-56999363D01*
X130333006Y-57058991D01*
X130187348Y-57154792D01*
X130067703Y-57281607D01*
X129980533Y-57432593D01*
X129930531Y-57599612D01*
X129920393Y-57773659D01*
X110031234Y-57773659D01*
X110033855Y-56757659D01*
X124840393Y-56757659D01*
X124870668Y-56929355D01*
X124939721Y-57089439D01*
X125043830Y-57229281D01*
X125177385Y-57341349D01*
X125203691Y-57354560D01*
X125333185Y-57419594D01*
X125502829Y-57459800D01*
X125502831Y-57459800D01*
X125629767Y-57459800D01*
X125633436Y-57459800D01*
X125763164Y-57444637D01*
X125926993Y-57385008D01*
X126072654Y-57289205D01*
X126192296Y-57162393D01*
X126279467Y-57011407D01*
X126329469Y-56844388D01*
X126339607Y-56670340D01*
X126309332Y-56498646D01*
X126240279Y-56338562D01*
X126140473Y-56204500D01*
X126136169Y-56198718D01*
X126002614Y-56086650D01*
X125846817Y-56008407D01*
X125846816Y-56008406D01*
X125846815Y-56008406D01*
X125677171Y-55968200D01*
X125546564Y-55968200D01*
X125542936Y-55968623D01*
X125542919Y-55968625D01*
X125416834Y-55983363D01*
X125253006Y-56042991D01*
X125107348Y-56138792D01*
X124987703Y-56265607D01*
X124900533Y-56416593D01*
X124850531Y-56583612D01*
X124840393Y-56757659D01*
X110033855Y-56757659D01*
X110039095Y-54726000D01*
X120016693Y-54726000D01*
X120035850Y-54883780D01*
X120092212Y-55032394D01*
X120138877Y-55099999D01*
X120182502Y-55163201D01*
X120301471Y-55268599D01*
X120442207Y-55342463D01*
X120596529Y-55380500D01*
X120596531Y-55380500D01*
X120755469Y-55380500D01*
X120755471Y-55380500D01*
X120909793Y-55342463D01*
X121050529Y-55268599D01*
X121169498Y-55163201D01*
X121213123Y-55100000D01*
X124170693Y-55100000D01*
X124189850Y-55257780D01*
X124246212Y-55406394D01*
X124246213Y-55406395D01*
X124336502Y-55537201D01*
X124455471Y-55642599D01*
X124596207Y-55716463D01*
X124750529Y-55754500D01*
X124750531Y-55754500D01*
X124909469Y-55754500D01*
X124909471Y-55754500D01*
X125063793Y-55716463D01*
X125204529Y-55642599D01*
X125309052Y-55549999D01*
X127460693Y-55549999D01*
X127479850Y-55707780D01*
X127536212Y-55856394D01*
X127613387Y-55968200D01*
X127626502Y-55987201D01*
X127745471Y-56092599D01*
X127886207Y-56166463D01*
X128040529Y-56204500D01*
X128040531Y-56204500D01*
X128199469Y-56204500D01*
X128199471Y-56204500D01*
X128353793Y-56166463D01*
X128494529Y-56092599D01*
X128613498Y-55987201D01*
X128703787Y-55856395D01*
X128760149Y-55707782D01*
X128779307Y-55550000D01*
X128760149Y-55392218D01*
X128703787Y-55243605D01*
X128613498Y-55112799D01*
X128494529Y-55007401D01*
X128353793Y-54933537D01*
X128199471Y-54895500D01*
X128040529Y-54895500D01*
X127886207Y-54933537D01*
X127886206Y-54933537D01*
X127886204Y-54933538D01*
X127745472Y-55007400D01*
X127626501Y-55112799D01*
X127536212Y-55243605D01*
X127479850Y-55392219D01*
X127460693Y-55549999D01*
X125309052Y-55549999D01*
X125323498Y-55537201D01*
X125413787Y-55406395D01*
X125470149Y-55257782D01*
X125489307Y-55100000D01*
X125470149Y-54942218D01*
X125413787Y-54793605D01*
X125323498Y-54662799D01*
X125204529Y-54557401D01*
X125063793Y-54483537D01*
X124909471Y-54445500D01*
X124750529Y-54445500D01*
X124596207Y-54483537D01*
X124596206Y-54483537D01*
X124596204Y-54483538D01*
X124455472Y-54557400D01*
X124336501Y-54662799D01*
X124246212Y-54793605D01*
X124189850Y-54942219D01*
X124170693Y-55100000D01*
X121213123Y-55100000D01*
X121259787Y-55032395D01*
X121316149Y-54883782D01*
X121335307Y-54726000D01*
X121316149Y-54568218D01*
X121259787Y-54419605D01*
X121169498Y-54288799D01*
X121050529Y-54183401D01*
X120909793Y-54109537D01*
X120755471Y-54071500D01*
X120596529Y-54071500D01*
X120442207Y-54109537D01*
X120442206Y-54109537D01*
X120442204Y-54109538D01*
X120301472Y-54183400D01*
X120182501Y-54288799D01*
X120092212Y-54419605D01*
X120035850Y-54568219D01*
X120016693Y-54726000D01*
X110039095Y-54726000D01*
X110049945Y-50519755D01*
X110070122Y-50451692D01*
X110091054Y-50426976D01*
X110192732Y-50334285D01*
X110316088Y-50170935D01*
X110407328Y-49987701D01*
X110463345Y-49790821D01*
X110482232Y-49587000D01*
X110463345Y-49383179D01*
X110407328Y-49186299D01*
X110395693Y-49162933D01*
X110379376Y-49130163D01*
X110366916Y-49060268D01*
X110394223Y-48994733D01*
X110452626Y-48954365D01*
X110492166Y-48948000D01*
X110793834Y-48948000D01*
X110861955Y-48968002D01*
G37*
%TD.AperFunction*%
%TD*%
M02*
