M48
; DRILL file {KiCad 8.0.2} date 2024-06-07T19:35:29-0400
; FORMAT={-:-/ absolute / inch / decimal}
; #@! TF.CreationDate,2024-06-07T19:35:29-04:00
; #@! TF.GenerationSoftware,Kicad,Pcbnew,8.0.2
; #@! TF.FileFunction,Plated,1,4,PTH
FMAT,2
INCH
; #@! TA.AperFunction,Plated,PTH,ViaDrill
T1C0.0118
; #@! TA.AperFunction,Plated,PTH,ComponentDrill
T2C0.0118
; #@! TA.AperFunction,Plated,PTH,ViaDrill
T3C0.0157
; #@! TA.AperFunction,Plated,PTH,ComponentDrill
T4C0.0197
; #@! TA.AperFunction,Plated,PTH,ViaDrill
T5C0.0236
; #@! TA.AperFunction,Plated,PTH,ComponentDrill
T6C0.0236
; #@! TA.AperFunction,Plated,PTH,ViaDrill
T7C0.0315
; #@! TA.AperFunction,Plated,PTH,ComponentDrill
T8C0.0394
; #@! TA.AperFunction,Plated,PTH,ComponentDrill
T9C0.0420
; #@! TA.AperFunction,Plated,PTH,ComponentDrill
T10C0.1181
%
G90
G05
T1
X3.2335Y-2.9098
X3.2437Y-2.9882
X3.2937Y-3.0146
X3.5028Y-3.1976
X3.5035Y-3.1697
X3.5047Y-3.2394
X3.5106Y-3.0642
X3.5173Y-2.9043
X3.5173Y-2.9512
X3.539Y-3.2594
X3.5701Y-2.8717
X3.5984Y-4.7413
X3.6291Y-4.7228
X3.6409Y-4.4177
X3.6409Y-4.4729
X3.6409Y-4.5281
X3.6409Y-4.5832
X3.6409Y-4.6384
X3.6445Y-2.9177
X3.6591Y-4.7217
X3.6744Y-3.2106
X3.7133Y-5.2846
X3.7142Y-5.2591
X3.7433Y-3.5913
X3.9283Y-3.1898
X4.048Y-2.9031
X4.3075Y-2.9327
X4.4791Y-3.928
X4.4803Y-3.8957
X4.4815Y-3.9567
X4.5504Y-3.0874
X4.5819Y-3.1201
X4.6583Y-4.2665
X4.6748Y-4.4748
X4.7016Y-4.5193
X4.7016Y-4.6465
X4.702Y-4.5768
X4.7579Y-2.7366
X4.7734Y-2.6357
X4.7826Y-2.7626
X4.8071Y-2.7915
X4.8441Y-2.3516
X4.8467Y-2.4128
X4.9031Y-4.7961
X4.9146Y-2.1693
X4.9811Y-4.0409
X5.009Y-4.1121
T2
X3.5898Y-3.0547
X3.6291Y-3.0043
X3.6291Y-3.0547
X3.6291Y-3.1051
X3.6843Y-3.0043
X3.6843Y-3.0547
X3.6843Y-3.1051
X3.7394Y-3.0043
X3.7394Y-3.0547
X3.7394Y-3.1051
X3.7787Y-3.0547
T3
X3.3268Y-2.9984
X3.6303Y-3.4531
X3.6488Y-5.2508
X3.7618Y-5.3531
X3.7622Y-4.9736
X3.7823Y-5.4193
X3.7823Y-5.5591
X3.8638Y-4.3724
X3.876Y-3.0799
X3.8764Y-2.9496
X3.8764Y-3.0169
X3.8886Y-5.4614
X3.9047Y-4.8705
X3.9118Y-4.2996
X3.9169Y-2.7713
X3.9193Y-2.676
X3.9213Y-4.4917
X3.9256Y-5.174
X3.9563Y-3.0165
X3.9588Y-4.2306
X3.9673Y-4.8701
X3.975Y-4.6955
X4.0382Y-3.0157
X4.098Y-4.637
X4.1165Y-3.0157
X4.1197Y-5.1366
X4.1551Y-5.2185
X4.1557Y-4.6372
X4.1567Y-4.5522
X4.1567Y-4.5932
X4.1567Y-4.6752
X4.1567Y-4.7161
X4.2165Y-4.6358
X4.2634Y-5.1645
X4.3673Y-4.6965
X4.3681Y-4.9209
X4.3689Y-4.8701
X4.3713Y-4.2469
X4.3988Y-4.4933
X4.4157Y-2.9339
X4.4248Y-4.3051
X4.4296Y-2.4114
X4.4559Y-5.1268
X4.4673Y-4.3815
X4.4717Y-5.2224
X4.5689Y-5.0398
X4.5957Y-4.8846
X4.6059Y-3.8661
X4.6098Y-3.9512
X4.611Y-4.0059
X4.628Y-4.0551
X4.6737Y-2.3543
X4.6957Y-2.1346
X4.6961Y-4.0524
X4.7866Y-4.4252
X4.8283Y-4.0339
X4.8398Y-3.9252
X4.858Y-3.3961
X4.8705Y-4.7335
X4.872Y-4.6272
X4.9055Y-4.0091
X4.9449Y-2.5961
X5.0098Y-4.2374
X5.0445Y-2.2083
X5.0665Y-4.237
X5.1114Y-2.2083
X5.2085Y-4.2812
T4
X3.0888Y-5.6626
X3.0928Y-2.01
X3.1147Y-5.6
X3.1147Y-5.7253
X3.1188Y-1.9474
X3.1188Y-2.0726
X3.1774Y-5.5741
X3.1774Y-5.7512
X3.1814Y-1.9214
X3.1814Y-2.0986
X3.24Y-5.6
X3.24Y-5.7253
X3.2441Y-1.9474
X3.2441Y-2.0726
X3.2659Y-5.6626
X3.27Y-2.01
X5.0388Y-2.0126
X5.0414Y-5.6586
X5.0647Y-1.95
X5.0647Y-2.0753
X5.0674Y-5.5959
X5.0674Y-5.7212
X5.1274Y-1.9241
X5.1274Y-2.1012
X5.13Y-5.57
X5.13Y-5.7472
X5.19Y-1.95
X5.19Y-2.0753
X5.1926Y-5.5959
X5.1926Y-5.7212
X5.2159Y-2.0126
X5.2186Y-5.6586
T5
X3.1764Y-2.4035
X3.1764Y-2.7933
X3.635Y-2.6075
X3.635Y-2.6615
X3.635Y-2.7156
X3.635Y-2.7696
X3.635Y-2.8236
X3.6858Y-2.6075
X3.6858Y-2.6615
X3.6858Y-2.7156
X3.6858Y-2.7696
X3.6858Y-2.8236
X3.8362Y-2.3732
X3.8885Y-2.3732
X3.9382Y-2.5374
X3.9387Y-2.5882
X3.939Y-2.4819
X3.9406Y-2.4268
X3.9407Y-2.3732
X3.9904Y-2.5374
X3.9909Y-2.5882
X3.9912Y-2.4819
X3.9928Y-2.4268
X3.9929Y-2.3732
X4.0177Y-5.685
X4.4039Y-3.2677
X4.4039Y-3.3646
X4.4039Y-3.4437
X4.4039Y-3.5051
X4.4039Y-3.5843
X4.5421Y-2.4236
X4.5882Y-2.7921
X4.6421Y-2.7933
X4.7029Y-2.7919
X4.9606Y-3.3268
X5.0402Y-3.3248
T7
X4.0811Y-3.8524
X4.0811Y-3.9264
X4.0811Y-4.0035
X4.1594Y-3.8524
X4.1594Y-3.9272
X4.1594Y-4.0043
X4.2346Y-3.8535
X4.2346Y-3.9283
X4.2346Y-4.0055
X4.3024Y-2.4089
X4.3874Y-2.1724
T8
X3.4254Y-1.98
X3.4254Y-2.18
X3.4411Y-2.08
X3.4411Y-2.28
X3.9044Y-2.01
X4.0044Y-2.01
X4.1044Y-2.01
X4.2044Y-2.01
X4.3044Y-2.01
X4.4044Y-2.01
T9
X3.5284Y-5.6544
X3.6284Y-5.6544
X3.7284Y-5.6544
X3.8284Y-5.6544
T10
X3.1774Y-5.6626
X3.1814Y-2.01
X5.1274Y-2.0126
X5.13Y-5.6586
T6
G00X3.1256Y-3.1079
M15
G01X3.1571Y-3.1079
M16
G05
G00X3.1256Y-3.448
M15
G01X3.1571Y-3.448
M16
G05
G00X3.2843Y-3.1079
M15
G01X3.3276Y-3.1079
M16
G05
G00X3.2843Y-3.448
M15
G01X3.3276Y-3.448
M16
G05
M30
