G04 #@! TF.GenerationSoftware,KiCad,Pcbnew,7.0.1*
G04 #@! TF.CreationDate,2024-03-15T23:25:05+01:00*
G04 #@! TF.ProjectId,NerdAxe_ultra,4e657264-4178-4655-9f75-6c7472612e6b,rev?*
G04 #@! TF.SameCoordinates,Original*
G04 #@! TF.FileFunction,Copper,L2,Inr*
G04 #@! TF.FilePolarity,Positive*
%FSLAX46Y46*%
G04 Gerber Fmt 4.6, Leading zero omitted, Abs format (unit mm)*
G04 Created by KiCad (PCBNEW 7.0.1) date 2024-03-15 23:25:05*
%MOMM*%
%LPD*%
G01*
G04 APERTURE LIST*
G04 #@! TA.AperFunction,ComponentPad*
%ADD10C,0.800000*%
G04 #@! TD*
G04 #@! TA.AperFunction,ComponentPad*
%ADD11C,6.000000*%
G04 #@! TD*
G04 #@! TA.AperFunction,ComponentPad*
%ADD12C,0.500000*%
G04 #@! TD*
G04 #@! TA.AperFunction,ComponentPad*
%ADD13C,0.400000*%
G04 #@! TD*
G04 #@! TA.AperFunction,ComponentPad*
%ADD14C,1.574800*%
G04 #@! TD*
G04 #@! TA.AperFunction,ComponentPad*
%ADD15C,1.700000*%
G04 #@! TD*
G04 #@! TA.AperFunction,ViaPad*
%ADD16C,0.800000*%
G04 #@! TD*
G04 #@! TA.AperFunction,ViaPad*
%ADD17C,1.200000*%
G04 #@! TD*
G04 APERTURE END LIST*
D10*
X76250000Y-143830990D03*
X76909010Y-142240000D03*
X76909010Y-145421980D03*
X78500000Y-141580990D03*
D11*
X78500000Y-143830990D03*
D10*
X78500000Y-146080990D03*
X80090990Y-142240000D03*
X80090990Y-145421980D03*
X80750000Y-143830990D03*
X130250000Y-143728000D03*
X130909010Y-142137010D03*
X130909010Y-145318990D03*
X132500000Y-141478000D03*
D11*
X132500000Y-143728000D03*
D10*
X132500000Y-145978000D03*
X134090990Y-142137010D03*
X134090990Y-145318990D03*
X134750000Y-143728000D03*
X76250000Y-51054000D03*
X76909010Y-49463010D03*
X76909010Y-52644990D03*
X78500000Y-48804000D03*
D11*
X78500000Y-51054000D03*
D10*
X78500000Y-53304000D03*
X80090990Y-49463010D03*
X80090990Y-52644990D03*
X80750000Y-51054000D03*
D12*
X116922000Y-100876200D03*
X116922000Y-101876200D03*
X115922000Y-101876200D03*
X115922000Y-100876200D03*
D10*
X130250000Y-51120990D03*
X130909010Y-49530000D03*
X130909010Y-52711980D03*
X132500000Y-48870990D03*
D11*
X132500000Y-51120990D03*
D10*
X132500000Y-53370990D03*
X134090990Y-49530000D03*
X134090990Y-52711980D03*
X134750000Y-51120990D03*
D13*
X98446291Y-80836200D03*
X99396291Y-81411200D03*
X97496291Y-81411200D03*
X98446291Y-81986200D03*
D14*
X96382400Y-143240851D03*
X98922400Y-143240851D03*
X101462400Y-143240851D03*
X104002400Y-143240851D03*
D15*
X84250000Y-71942000D03*
X86790000Y-71942000D03*
X89330000Y-71942000D03*
X91870000Y-71942000D03*
X94410000Y-71942000D03*
X96950000Y-71942000D03*
X99490000Y-71942000D03*
X102030000Y-71942000D03*
X104570000Y-71942000D03*
X107110000Y-71942000D03*
X109650000Y-71942000D03*
X112190000Y-71942000D03*
X112190000Y-49022000D03*
X109650000Y-49022000D03*
X107110000Y-49022000D03*
X104570000Y-49022000D03*
X102030000Y-49022000D03*
X99490000Y-49022000D03*
X96950000Y-49022000D03*
X94410000Y-49022000D03*
X91870000Y-49022000D03*
X89330000Y-49022000D03*
X86790000Y-49022000D03*
X84250000Y-49022000D03*
D16*
X96139000Y-121666000D03*
D17*
X130937000Y-86741000D03*
X128143000Y-91821000D03*
D16*
X76724200Y-88138000D03*
X116910000Y-128990000D03*
X97419400Y-103889800D03*
X87630000Y-82423000D03*
X101377600Y-85157000D03*
X96109000Y-112124000D03*
X97419400Y-98268400D03*
X100679400Y-97659800D03*
X106396000Y-118533000D03*
X97419400Y-95219800D03*
X110862000Y-120015000D03*
X98959400Y-95219800D03*
X104082000Y-115436000D03*
X98682000Y-136516000D03*
X85741200Y-87884000D03*
X98959400Y-103889800D03*
X106408000Y-116351000D03*
D17*
X128143000Y-89281000D03*
X133731000Y-91821000D03*
D16*
X95645200Y-81420400D03*
X97419400Y-96699800D03*
X92200000Y-75911200D03*
X105673000Y-117442000D03*
X97419400Y-100039800D03*
D17*
X133731000Y-89027000D03*
D16*
X101600000Y-109982000D03*
D17*
X130937000Y-91821000D03*
D16*
X98959400Y-101909800D03*
X85852000Y-73787000D03*
X117602000Y-123903000D03*
X104855000Y-118563000D03*
X104132000Y-117472000D03*
D17*
X128143000Y-86741000D03*
D16*
X98959400Y-96699800D03*
X119888000Y-110998000D03*
X97419400Y-101909800D03*
X112922500Y-104148200D03*
D17*
X133731000Y-86741000D03*
D16*
X107144000Y-117442000D03*
X90897000Y-129309000D03*
X112318000Y-97436200D03*
X105623000Y-115406000D03*
X98959400Y-100039800D03*
X104867000Y-116381000D03*
X105330000Y-132320000D03*
X104430000Y-130240000D03*
X98959400Y-98268400D03*
X115573700Y-104299200D03*
X120310000Y-102111200D03*
X108204000Y-121920000D03*
X95260000Y-132630000D03*
X107094000Y-115406000D03*
X113727778Y-113462333D03*
X100679400Y-95911200D03*
D17*
X133858000Y-74549000D03*
X133858000Y-78740000D03*
X124841000Y-74549000D03*
X128016000Y-76708000D03*
X128016000Y-78740000D03*
X131064000Y-74549000D03*
X128016000Y-74549000D03*
X133858000Y-76708000D03*
D16*
X101015000Y-126170000D03*
X115737362Y-98496846D03*
X118490000Y-127770000D03*
X117172000Y-104284200D03*
X112130000Y-127390000D03*
X109220000Y-122936000D03*
X101015000Y-121775000D03*
X103000000Y-106351200D03*
X105152000Y-113890000D03*
D17*
X107969400Y-100929800D03*
X108009400Y-103059800D03*
D16*
X104126000Y-113110000D03*
X108330000Y-106381200D03*
X107204000Y-113920000D03*
D17*
X108009400Y-105029800D03*
D16*
X106178000Y-113110000D03*
D17*
X105979400Y-100929800D03*
X105979400Y-98889800D03*
X107949400Y-98909800D03*
X106029400Y-105059800D03*
X105999400Y-103039800D03*
D16*
X88883000Y-131168000D03*
X88773000Y-137160000D03*
X100714600Y-78759000D03*
X89154000Y-141986000D03*
X114554000Y-82296000D03*
X94580000Y-137390000D03*
X114554000Y-83947000D03*
X90881000Y-131182000D03*
X98450000Y-131200000D03*
X113284000Y-83947000D03*
X87630000Y-91948000D03*
X91440000Y-137160000D03*
X87630000Y-94615000D03*
X87630000Y-93218000D03*
X113284000Y-82296000D03*
X91186000Y-141986000D03*
X114010000Y-97287200D03*
X85741200Y-90678000D03*
X110617000Y-78359000D03*
X98662000Y-137914100D03*
X117172000Y-98545200D03*
X101727000Y-108458000D03*
X122555000Y-92202000D03*
X104500000Y-67000000D03*
X104013000Y-68326000D03*
X113665000Y-111379000D03*
X112530000Y-109911200D03*
X99441000Y-74676000D03*
X82296000Y-76962000D03*
X81240375Y-91298225D03*
X88900000Y-127000000D03*
X99568000Y-135255000D03*
X101346000Y-134493000D03*
X108468000Y-124939000D03*
X100155000Y-123661000D03*
X104431000Y-124939000D03*
X103530000Y-127490000D03*
X111250000Y-108121200D03*
X100180000Y-108151200D03*
X98850000Y-109991200D03*
X96130000Y-110920000D03*
X117475000Y-120015000D03*
X114935000Y-120142000D03*
X96647000Y-118999000D03*
X96520000Y-120269000D03*
X116332000Y-117221000D03*
X113272599Y-100980499D03*
X112962000Y-99756200D03*
X116428000Y-115817000D03*
X117148868Y-114071132D03*
X112000000Y-103361200D03*
X97277600Y-83957000D03*
X95577600Y-84857000D03*
X101810000Y-93201200D03*
X102800000Y-85111200D03*
X97600000Y-116430000D03*
X114844000Y-116495900D03*
X96610000Y-114090000D03*
X96950000Y-115460000D03*
X96220000Y-117200000D03*
X97010000Y-117920000D03*
X90043000Y-125857000D03*
X81296200Y-89408000D03*
X83185000Y-78740000D03*
X115540000Y-114780000D03*
X114935000Y-86614000D03*
X122555000Y-88900000D03*
G04 #@! TA.AperFunction,Conductor*
G36*
X131061011Y-47633030D02*
G01*
X131099671Y-47655978D01*
X131136874Y-47688285D01*
X131173013Y-47741312D01*
X131178348Y-47805264D01*
X131151493Y-47863549D01*
X131099414Y-47901047D01*
X131071210Y-47911874D01*
X130743590Y-48078805D01*
X130435223Y-48279061D01*
X130204287Y-48466068D01*
X132500000Y-50761780D01*
X135154920Y-53416701D01*
X135341925Y-53185770D01*
X135542185Y-52877397D01*
X135651733Y-52662398D01*
X135696486Y-52613216D01*
X135760042Y-52593663D01*
X135824701Y-52609186D01*
X135872453Y-52655462D01*
X135890000Y-52719601D01*
X135890000Y-54610000D01*
X135803919Y-113920000D01*
X135763328Y-141886936D01*
X135747029Y-141948734D01*
X135702506Y-141994586D01*
X135641213Y-142012693D01*
X135578920Y-141998398D01*
X135531656Y-141955378D01*
X135341927Y-141663221D01*
X135154920Y-141432287D01*
X132500000Y-144087210D01*
X130204287Y-146382920D01*
X130414073Y-146552800D01*
X130448048Y-146595528D01*
X130460761Y-146648616D01*
X130449828Y-146702098D01*
X130417301Y-146745938D01*
X130267827Y-146875483D01*
X130083516Y-147035219D01*
X130045036Y-147058054D01*
X130000998Y-147066000D01*
X80691610Y-147066000D01*
X80647895Y-147058173D01*
X80609610Y-147035666D01*
X80477380Y-146922325D01*
X80443224Y-146875483D01*
X80433657Y-146818306D01*
X80450704Y-146762897D01*
X80490757Y-146720985D01*
X80564783Y-146672913D01*
X80795711Y-146485910D01*
X78500000Y-144190200D01*
X78140791Y-143830991D01*
X78859210Y-143830991D01*
X81154920Y-146126701D01*
X81341925Y-145895770D01*
X81542185Y-145587397D01*
X81709115Y-145259778D01*
X81840884Y-144916510D01*
X81936051Y-144561344D01*
X81974449Y-144318903D01*
X95663558Y-144318903D01*
X95732224Y-144366984D01*
X95937658Y-144462778D01*
X96156592Y-144521443D01*
X96382400Y-144541198D01*
X96608207Y-144521443D01*
X96827141Y-144462778D01*
X97032571Y-144366985D01*
X97101240Y-144318902D01*
X96382400Y-143600061D01*
X96382399Y-143600061D01*
X95663558Y-144318901D01*
X95663558Y-144318903D01*
X81974449Y-144318903D01*
X81993570Y-144198174D01*
X82012814Y-143830990D01*
X81993570Y-143463805D01*
X81958258Y-143240850D01*
X95082052Y-143240850D01*
X95101807Y-143466658D01*
X95160472Y-143685592D01*
X95256268Y-143891029D01*
X95304346Y-143959691D01*
X96023189Y-143240851D01*
X96741610Y-143240851D01*
X97460451Y-143959691D01*
X97508536Y-143891021D01*
X97537928Y-143827988D01*
X97584422Y-143774970D01*
X97652122Y-143755237D01*
X97719822Y-143774969D01*
X97766317Y-143827986D01*
X97795829Y-143891274D01*
X97925893Y-144077024D01*
X98086226Y-144237357D01*
X98086229Y-144237359D01*
X98086230Y-144237360D01*
X98271975Y-144367420D01*
X98381652Y-144418563D01*
X98477482Y-144463250D01*
X98522984Y-144475442D01*
X98696510Y-144521938D01*
X98922400Y-144541701D01*
X99148290Y-144521938D01*
X99367317Y-144463250D01*
X99572825Y-144367420D01*
X99758570Y-144237360D01*
X99918909Y-144077021D01*
X100048969Y-143891276D01*
X100078205Y-143828578D01*
X100124700Y-143775562D01*
X100192400Y-143755829D01*
X100260100Y-143775562D01*
X100306595Y-143828579D01*
X100335831Y-143891276D01*
X100465893Y-144077024D01*
X100626226Y-144237357D01*
X100811973Y-144367419D01*
X100948857Y-144431249D01*
X101000372Y-144475442D01*
X101021487Y-144539947D01*
X101006075Y-144606047D01*
X100958609Y-144654562D01*
X100931541Y-144670189D01*
X100791231Y-144796526D01*
X100680252Y-144949276D01*
X100603455Y-145121763D01*
X100590369Y-145183325D01*
X100564200Y-145306447D01*
X100564200Y-145495257D01*
X100603455Y-145679940D01*
X100680251Y-145852426D01*
X100680252Y-145852427D01*
X100791231Y-146005177D01*
X100931541Y-146131513D01*
X101095056Y-146225919D01*
X101181482Y-146254000D01*
X101274625Y-146284264D01*
X101415323Y-146299052D01*
X101509474Y-146299052D01*
X101509477Y-146299052D01*
X101650175Y-146284264D01*
X101829743Y-146225919D01*
X101993257Y-146131514D01*
X102133570Y-146005176D01*
X102244549Y-145852426D01*
X102321345Y-145679940D01*
X102360600Y-145495257D01*
X102360600Y-145306447D01*
X102321345Y-145121764D01*
X102244549Y-144949278D01*
X102133570Y-144796528D01*
X102075232Y-144744000D01*
X101993259Y-144670191D01*
X101966191Y-144654563D01*
X101918724Y-144606048D01*
X101903312Y-144539947D01*
X101924427Y-144475442D01*
X101975940Y-144431250D01*
X102112825Y-144367420D01*
X102298570Y-144237360D01*
X102458909Y-144077021D01*
X102588969Y-143891276D01*
X102618205Y-143828578D01*
X102664700Y-143775562D01*
X102732400Y-143755829D01*
X102800100Y-143775562D01*
X102846595Y-143828579D01*
X102875831Y-143891276D01*
X103005893Y-144077024D01*
X103166226Y-144237357D01*
X103166229Y-144237359D01*
X103166230Y-144237360D01*
X103351975Y-144367420D01*
X103461652Y-144418563D01*
X103557482Y-144463250D01*
X103602984Y-144475442D01*
X103776510Y-144521938D01*
X104002400Y-144541701D01*
X104228290Y-144521938D01*
X104447317Y-144463250D01*
X104652825Y-144367420D01*
X104838570Y-144237360D01*
X104998909Y-144077021D01*
X105128969Y-143891276D01*
X105205106Y-143727999D01*
X128987185Y-143727999D01*
X129006429Y-144095184D01*
X129063948Y-144458354D01*
X129159115Y-144813520D01*
X129290884Y-145156788D01*
X129457814Y-145484407D01*
X129658077Y-145792785D01*
X129845077Y-146023710D01*
X129845078Y-146023711D01*
X132140790Y-143728001D01*
X132140790Y-143727999D01*
X129845078Y-141432287D01*
X129658071Y-141663223D01*
X129457815Y-141971590D01*
X129290884Y-142299211D01*
X129159115Y-142642479D01*
X129063948Y-142997645D01*
X129006429Y-143360815D01*
X128987185Y-143727999D01*
X105205106Y-143727999D01*
X105224799Y-143685768D01*
X105283487Y-143466741D01*
X105303250Y-143240851D01*
X105283487Y-143014961D01*
X105224799Y-142795934D01*
X105128969Y-142590426D01*
X104998909Y-142404681D01*
X104998908Y-142404680D01*
X104998906Y-142404677D01*
X104838573Y-142244344D01*
X104652825Y-142114282D01*
X104447317Y-142018451D01*
X104228290Y-141959764D01*
X104002400Y-141940001D01*
X103776509Y-141959764D01*
X103557482Y-142018451D01*
X103351974Y-142114282D01*
X103166226Y-142244344D01*
X103005893Y-142404677D01*
X102875829Y-142590427D01*
X102846594Y-142653123D01*
X102800099Y-142706140D01*
X102732400Y-142725872D01*
X102664701Y-142706140D01*
X102618206Y-142653123D01*
X102588970Y-142590427D01*
X102458906Y-142404677D01*
X102298573Y-142244344D01*
X102112825Y-142114282D01*
X101907317Y-142018451D01*
X101688290Y-141959764D01*
X101462400Y-141940001D01*
X101236509Y-141959764D01*
X101017482Y-142018451D01*
X100811974Y-142114282D01*
X100626226Y-142244344D01*
X100465893Y-142404677D01*
X100335829Y-142590427D01*
X100306594Y-142653123D01*
X100260099Y-142706140D01*
X100192400Y-142725872D01*
X100124701Y-142706140D01*
X100078206Y-142653123D01*
X100048970Y-142590427D01*
X99918906Y-142404677D01*
X99758573Y-142244344D01*
X99572825Y-142114282D01*
X99367317Y-142018451D01*
X99148290Y-141959764D01*
X98922400Y-141940001D01*
X98696509Y-141959764D01*
X98477482Y-142018451D01*
X98271974Y-142114282D01*
X98086226Y-142244344D01*
X97925893Y-142404677D01*
X97795830Y-142590426D01*
X97766317Y-142653716D01*
X97719821Y-142706732D01*
X97652122Y-142726464D01*
X97584422Y-142706731D01*
X97537928Y-142653713D01*
X97508534Y-142590677D01*
X97460452Y-142522009D01*
X97460450Y-142522009D01*
X96741610Y-143240850D01*
X96741610Y-143240851D01*
X96023189Y-143240851D01*
X96023189Y-143240850D01*
X95304347Y-142522008D01*
X95256266Y-142590677D01*
X95160472Y-142796109D01*
X95101807Y-143015043D01*
X95082052Y-143240850D01*
X81958258Y-143240850D01*
X81936051Y-143100635D01*
X81840884Y-142745469D01*
X81709115Y-142402201D01*
X81542185Y-142074582D01*
X81484659Y-141986000D01*
X88240496Y-141986000D01*
X88241799Y-141998398D01*
X88260458Y-142175929D01*
X88319472Y-142357556D01*
X88414958Y-142522942D01*
X88542747Y-142664866D01*
X88697248Y-142777118D01*
X88871712Y-142854794D01*
X89058513Y-142894500D01*
X89249485Y-142894500D01*
X89249487Y-142894500D01*
X89436288Y-142854794D01*
X89610752Y-142777118D01*
X89765253Y-142664866D01*
X89893040Y-142522944D01*
X89988527Y-142357556D01*
X90047542Y-142175928D01*
X90047542Y-142175924D01*
X90050167Y-142167847D01*
X90083747Y-142114933D01*
X90138665Y-142084742D01*
X90201335Y-142084742D01*
X90256253Y-142114933D01*
X90289833Y-142167847D01*
X90292457Y-142175925D01*
X90292458Y-142175928D01*
X90314687Y-142244342D01*
X90351472Y-142357556D01*
X90446958Y-142522942D01*
X90574747Y-142664866D01*
X90729248Y-142777118D01*
X90903712Y-142854794D01*
X91090513Y-142894500D01*
X91281485Y-142894500D01*
X91281487Y-142894500D01*
X91468288Y-142854794D01*
X91642752Y-142777118D01*
X91797253Y-142664866D01*
X91925040Y-142522944D01*
X92020527Y-142357556D01*
X92079542Y-142175928D01*
X92080922Y-142162798D01*
X95663557Y-142162798D01*
X96382399Y-142881640D01*
X96382400Y-142881640D01*
X97101240Y-142162797D01*
X97101240Y-142162796D01*
X97032578Y-142114719D01*
X96827141Y-142018923D01*
X96608207Y-141960258D01*
X96382400Y-141940503D01*
X96156592Y-141960258D01*
X95937658Y-142018923D01*
X95732226Y-142114717D01*
X95663557Y-142162798D01*
X92080922Y-142162798D01*
X92099504Y-141986000D01*
X92079542Y-141796072D01*
X92048931Y-141701862D01*
X92020527Y-141614443D01*
X91925041Y-141449057D01*
X91797252Y-141307133D01*
X91642753Y-141194883D01*
X91642752Y-141194882D01*
X91468288Y-141117206D01*
X91281487Y-141077500D01*
X91090513Y-141077500D01*
X90965978Y-141103970D01*
X90903711Y-141117206D01*
X90729246Y-141194883D01*
X90574747Y-141307133D01*
X90446958Y-141449057D01*
X90351472Y-141614443D01*
X90289833Y-141804152D01*
X90256253Y-141857066D01*
X90201335Y-141887257D01*
X90138665Y-141887257D01*
X90083747Y-141857066D01*
X90050167Y-141804152D01*
X89988527Y-141614443D01*
X89893041Y-141449057D01*
X89765252Y-141307133D01*
X89610753Y-141194883D01*
X89610752Y-141194882D01*
X89436288Y-141117206D01*
X89249487Y-141077500D01*
X89058513Y-141077500D01*
X88933978Y-141103970D01*
X88871711Y-141117206D01*
X88697246Y-141194883D01*
X88542747Y-141307133D01*
X88414958Y-141449057D01*
X88319472Y-141614443D01*
X88260458Y-141796070D01*
X88240509Y-141985878D01*
X88240496Y-141986000D01*
X81484659Y-141986000D01*
X81341925Y-141766209D01*
X81154920Y-141535277D01*
X78859210Y-143830989D01*
X78859210Y-143830991D01*
X78140791Y-143830991D01*
X75845078Y-141535277D01*
X75658071Y-141766213D01*
X75540916Y-141946616D01*
X75493683Y-141989620D01*
X75431429Y-142003933D01*
X75370157Y-141985878D01*
X75325612Y-141940095D01*
X75309246Y-141878353D01*
X75307245Y-141176068D01*
X76204287Y-141176068D01*
X78499999Y-143471780D01*
X78500001Y-143471780D01*
X80795711Y-141176068D01*
X80795710Y-141176067D01*
X80668530Y-141073078D01*
X130204287Y-141073078D01*
X132499999Y-143368790D01*
X132500001Y-143368790D01*
X134795711Y-141073078D01*
X134795710Y-141073077D01*
X134564785Y-140886077D01*
X134256407Y-140685814D01*
X133928788Y-140518884D01*
X133585520Y-140387115D01*
X133230354Y-140291948D01*
X132867184Y-140234429D01*
X132499999Y-140215185D01*
X132132815Y-140234429D01*
X131769645Y-140291948D01*
X131414479Y-140387115D01*
X131071211Y-140518884D01*
X130743590Y-140685815D01*
X130435223Y-140886071D01*
X130204287Y-141073078D01*
X80668530Y-141073078D01*
X80564785Y-140989067D01*
X80256407Y-140788804D01*
X79928788Y-140621874D01*
X79585520Y-140490105D01*
X79230354Y-140394938D01*
X78867184Y-140337419D01*
X78500000Y-140318175D01*
X78132815Y-140337419D01*
X77769645Y-140394938D01*
X77414479Y-140490105D01*
X77071211Y-140621874D01*
X76743590Y-140788805D01*
X76435223Y-140989061D01*
X76204287Y-141176068D01*
X75307245Y-141176068D01*
X75295803Y-137160000D01*
X87859496Y-137160000D01*
X87863708Y-137200072D01*
X87879458Y-137349929D01*
X87938472Y-137531556D01*
X88033958Y-137696942D01*
X88033960Y-137696944D01*
X88161747Y-137838866D01*
X88316248Y-137951118D01*
X88490712Y-138028794D01*
X88677513Y-138068500D01*
X88868485Y-138068500D01*
X88868487Y-138068500D01*
X89055288Y-138028794D01*
X89229752Y-137951118D01*
X89384253Y-137838866D01*
X89512040Y-137696944D01*
X89607527Y-137531556D01*
X89666542Y-137349928D01*
X89686504Y-137160000D01*
X90526496Y-137160000D01*
X90530708Y-137200072D01*
X90546458Y-137349929D01*
X90605472Y-137531556D01*
X90700958Y-137696942D01*
X90700960Y-137696944D01*
X90828747Y-137838866D01*
X90983248Y-137951118D01*
X91157712Y-138028794D01*
X91344513Y-138068500D01*
X91535485Y-138068500D01*
X91535487Y-138068500D01*
X91722288Y-138028794D01*
X91896752Y-137951118D01*
X92051253Y-137838866D01*
X92179040Y-137696944D01*
X92274527Y-137531556D01*
X92320522Y-137390000D01*
X93666496Y-137390000D01*
X93686458Y-137579929D01*
X93745472Y-137761556D01*
X93840958Y-137926942D01*
X93862726Y-137951118D01*
X93968747Y-138068866D01*
X94123248Y-138181118D01*
X94297712Y-138258794D01*
X94484513Y-138298500D01*
X94675485Y-138298500D01*
X94675487Y-138298500D01*
X94862288Y-138258794D01*
X95036752Y-138181118D01*
X95191253Y-138068866D01*
X95319040Y-137926944D01*
X95326456Y-137914100D01*
X97748496Y-137914100D01*
X97768458Y-138104029D01*
X97827472Y-138285656D01*
X97922958Y-138451042D01*
X97922960Y-138451044D01*
X98050747Y-138592966D01*
X98205248Y-138705218D01*
X98379712Y-138782894D01*
X98566513Y-138822600D01*
X98757485Y-138822600D01*
X98757487Y-138822600D01*
X98944288Y-138782894D01*
X99118752Y-138705218D01*
X99273253Y-138592966D01*
X99401040Y-138451044D01*
X99496527Y-138285656D01*
X99555542Y-138104028D01*
X99575504Y-137914100D01*
X99555542Y-137724172D01*
X99496527Y-137542544D01*
X99496527Y-137542543D01*
X99401041Y-137377157D01*
X99273252Y-137235233D01*
X99118753Y-137122983D01*
X99118752Y-137122982D01*
X98944288Y-137045306D01*
X98757487Y-137005600D01*
X98566513Y-137005600D01*
X98441978Y-137032070D01*
X98379711Y-137045306D01*
X98205246Y-137122983D01*
X98050747Y-137235233D01*
X97922958Y-137377157D01*
X97827472Y-137542543D01*
X97768458Y-137724170D01*
X97748496Y-137914100D01*
X95326456Y-137914100D01*
X95414527Y-137761556D01*
X95473542Y-137579928D01*
X95493504Y-137390000D01*
X95473542Y-137200072D01*
X95414527Y-137018444D01*
X95414527Y-137018443D01*
X95319041Y-136853057D01*
X95191252Y-136711133D01*
X95087053Y-136635428D01*
X95036752Y-136598882D01*
X94862288Y-136521206D01*
X94675487Y-136481500D01*
X94484513Y-136481500D01*
X94359979Y-136507970D01*
X94297711Y-136521206D01*
X94123246Y-136598883D01*
X93968747Y-136711133D01*
X93840958Y-136853057D01*
X93745472Y-137018443D01*
X93686458Y-137200070D01*
X93666496Y-137390000D01*
X92320522Y-137390000D01*
X92333542Y-137349928D01*
X92353504Y-137160000D01*
X92333542Y-136970072D01*
X92274527Y-136788444D01*
X92274527Y-136788443D01*
X92179041Y-136623057D01*
X92087334Y-136521206D01*
X92051253Y-136481134D01*
X91896752Y-136368882D01*
X91854342Y-136350000D01*
X124124389Y-136350000D01*
X124144803Y-136635424D01*
X124144804Y-136635428D01*
X124205631Y-136915046D01*
X124305633Y-137183161D01*
X124334067Y-137235233D01*
X124442775Y-137434317D01*
X124614262Y-137663397D01*
X124816602Y-137865737D01*
X125034419Y-138028793D01*
X125045685Y-138037226D01*
X125296839Y-138174367D01*
X125564954Y-138274369D01*
X125844572Y-138335196D01*
X126058552Y-138350500D01*
X126201447Y-138350500D01*
X126201448Y-138350500D01*
X126415428Y-138335196D01*
X126695046Y-138274369D01*
X126963161Y-138174367D01*
X127214315Y-138037226D01*
X127443395Y-137865739D01*
X127645739Y-137663395D01*
X127817226Y-137434315D01*
X127954367Y-137183161D01*
X128054369Y-136915046D01*
X128115196Y-136635428D01*
X128135610Y-136350000D01*
X128115196Y-136064572D01*
X128054369Y-135784954D01*
X127954367Y-135516839D01*
X127817226Y-135265685D01*
X127809227Y-135255000D01*
X127645737Y-135036602D01*
X127443397Y-134834262D01*
X127214317Y-134662775D01*
X127055644Y-134576133D01*
X126963161Y-134525633D01*
X126695046Y-134425631D01*
X126513812Y-134386206D01*
X126415424Y-134364803D01*
X126220931Y-134350893D01*
X126201448Y-134349500D01*
X126058552Y-134349500D01*
X126040694Y-134350777D01*
X125844575Y-134364803D01*
X125564954Y-134425630D01*
X125564954Y-134425631D01*
X125296839Y-134525633D01*
X125296837Y-134525633D01*
X125296837Y-134525634D01*
X125045682Y-134662775D01*
X124816602Y-134834262D01*
X124614262Y-135036602D01*
X124442775Y-135265682D01*
X124305634Y-135516837D01*
X124205631Y-135784954D01*
X124144803Y-136064575D01*
X124124389Y-136350000D01*
X91854342Y-136350000D01*
X91722288Y-136291206D01*
X91535487Y-136251500D01*
X91344513Y-136251500D01*
X91219978Y-136277970D01*
X91157711Y-136291206D01*
X90983246Y-136368883D01*
X90828747Y-136481133D01*
X90700958Y-136623057D01*
X90605472Y-136788443D01*
X90546458Y-136970070D01*
X90526496Y-137159999D01*
X90526496Y-137160000D01*
X89686504Y-137160000D01*
X89666542Y-136970072D01*
X89607527Y-136788444D01*
X89607527Y-136788443D01*
X89512041Y-136623057D01*
X89420334Y-136521206D01*
X89384253Y-136481134D01*
X89229752Y-136368882D01*
X89055288Y-136291206D01*
X88868487Y-136251500D01*
X88677513Y-136251500D01*
X88552978Y-136277970D01*
X88490711Y-136291206D01*
X88316246Y-136368883D01*
X88161747Y-136481133D01*
X88033958Y-136623057D01*
X87938472Y-136788443D01*
X87879458Y-136970070D01*
X87859496Y-137159999D01*
X87859496Y-137160000D01*
X75295803Y-137160000D01*
X75290376Y-135255000D01*
X98654496Y-135255000D01*
X98674458Y-135444929D01*
X98733472Y-135626556D01*
X98828958Y-135791942D01*
X98828960Y-135791944D01*
X98956747Y-135933866D01*
X99111248Y-136046118D01*
X99285712Y-136123794D01*
X99472513Y-136163500D01*
X99663485Y-136163500D01*
X99663487Y-136163500D01*
X99850288Y-136123794D01*
X100024752Y-136046118D01*
X100179253Y-135933866D01*
X100307040Y-135791944D01*
X100402527Y-135626556D01*
X100461542Y-135444928D01*
X100481504Y-135255000D01*
X100478678Y-135228116D01*
X100487833Y-135166122D01*
X100525723Y-135116203D01*
X100582974Y-135090713D01*
X100645425Y-135095956D01*
X100697624Y-135130637D01*
X100734747Y-135171866D01*
X100889248Y-135284118D01*
X101063712Y-135361794D01*
X101250513Y-135401500D01*
X101441485Y-135401500D01*
X101441487Y-135401500D01*
X101628288Y-135361794D01*
X101802752Y-135284118D01*
X101957253Y-135171866D01*
X102085040Y-135029944D01*
X102180527Y-134864556D01*
X102239542Y-134682928D01*
X102259504Y-134493000D01*
X102239542Y-134303072D01*
X102180527Y-134121444D01*
X102180527Y-134121443D01*
X102085041Y-133956057D01*
X101957252Y-133814133D01*
X101802753Y-133701883D01*
X101802752Y-133701882D01*
X101628288Y-133624206D01*
X101441487Y-133584500D01*
X101250513Y-133584500D01*
X101125978Y-133610970D01*
X101063711Y-133624206D01*
X100889246Y-133701883D01*
X100734747Y-133814133D01*
X100606958Y-133956057D01*
X100511472Y-134121443D01*
X100452458Y-134303070D01*
X100432496Y-134493000D01*
X100435321Y-134519882D01*
X100426165Y-134581879D01*
X100388275Y-134631797D01*
X100331023Y-134657287D01*
X100268574Y-134652042D01*
X100216375Y-134617362D01*
X100179252Y-134576133D01*
X100024753Y-134463883D01*
X100024752Y-134463882D01*
X99850288Y-134386206D01*
X99663487Y-134346500D01*
X99472513Y-134346500D01*
X99347978Y-134372970D01*
X99285711Y-134386206D01*
X99111246Y-134463883D01*
X98956747Y-134576133D01*
X98828958Y-134718057D01*
X98733472Y-134883443D01*
X98674458Y-135065070D01*
X98654496Y-135255000D01*
X75290376Y-135255000D01*
X75278732Y-131168000D01*
X87969496Y-131168000D01*
X87972859Y-131200000D01*
X87989458Y-131357929D01*
X88048472Y-131539556D01*
X88143958Y-131704942D01*
X88172771Y-131736942D01*
X88271747Y-131846866D01*
X88426248Y-131959118D01*
X88600712Y-132036794D01*
X88787513Y-132076500D01*
X88978485Y-132076500D01*
X88978487Y-132076500D01*
X89165288Y-132036794D01*
X89339752Y-131959118D01*
X89494253Y-131846866D01*
X89622040Y-131704944D01*
X89717527Y-131539556D01*
X89759893Y-131409166D01*
X89793472Y-131356254D01*
X89848390Y-131326063D01*
X89911060Y-131326062D01*
X89965978Y-131356254D01*
X89999558Y-131409168D01*
X90046472Y-131553555D01*
X90141958Y-131718942D01*
X90141960Y-131718944D01*
X90269747Y-131860866D01*
X90424248Y-131973118D01*
X90598712Y-132050794D01*
X90785513Y-132090500D01*
X90976485Y-132090500D01*
X90976487Y-132090500D01*
X91163288Y-132050794D01*
X91337752Y-131973118D01*
X91492253Y-131860866D01*
X91620040Y-131718944D01*
X91715527Y-131553556D01*
X91774542Y-131371928D01*
X91792612Y-131200000D01*
X97536496Y-131200000D01*
X97556458Y-131389929D01*
X97615472Y-131571556D01*
X97710958Y-131736942D01*
X97710960Y-131736944D01*
X97838747Y-131878866D01*
X97993248Y-131991118D01*
X98167712Y-132068794D01*
X98354513Y-132108500D01*
X98545485Y-132108500D01*
X98545487Y-132108500D01*
X98732288Y-132068794D01*
X98906752Y-131991118D01*
X99061253Y-131878866D01*
X99189040Y-131736944D01*
X99284527Y-131571556D01*
X99343542Y-131389928D01*
X99363504Y-131200000D01*
X99343542Y-131010072D01*
X99284527Y-130828444D01*
X99284527Y-130828443D01*
X99189041Y-130663057D01*
X99061252Y-130521133D01*
X98906753Y-130408883D01*
X98906752Y-130408882D01*
X98732288Y-130331206D01*
X98545487Y-130291500D01*
X98354513Y-130291500D01*
X98252395Y-130313206D01*
X98167711Y-130331206D01*
X97993246Y-130408883D01*
X97838747Y-130521133D01*
X97710958Y-130663057D01*
X97615472Y-130828443D01*
X97556458Y-131010070D01*
X97536496Y-131200000D01*
X91792612Y-131200000D01*
X91794504Y-131182000D01*
X91774542Y-130992072D01*
X91721376Y-130828444D01*
X91715527Y-130810443D01*
X91620041Y-130645057D01*
X91492252Y-130503133D01*
X91337753Y-130390883D01*
X91337752Y-130390882D01*
X91163288Y-130313206D01*
X90976487Y-130273500D01*
X90785513Y-130273500D01*
X90660979Y-130299970D01*
X90598711Y-130313206D01*
X90424246Y-130390883D01*
X90269747Y-130503133D01*
X90141958Y-130645057D01*
X90046472Y-130810444D01*
X90004107Y-130940831D01*
X89970527Y-130993745D01*
X89915609Y-131023937D01*
X89852939Y-131023936D01*
X89798021Y-130993745D01*
X89764442Y-130940832D01*
X89717527Y-130796444D01*
X89717527Y-130796443D01*
X89622041Y-130631057D01*
X89494252Y-130489133D01*
X89383796Y-130408882D01*
X89339752Y-130376882D01*
X89165288Y-130299206D01*
X88978487Y-130259500D01*
X88787513Y-130259500D01*
X88721649Y-130273500D01*
X88600711Y-130299206D01*
X88426246Y-130376883D01*
X88271747Y-130489133D01*
X88143958Y-130631057D01*
X88048472Y-130796443D01*
X87989458Y-130978070D01*
X87984637Y-131023937D01*
X87969496Y-131168000D01*
X75278732Y-131168000D01*
X75266857Y-127000000D01*
X87986496Y-127000000D01*
X88006458Y-127189929D01*
X88065472Y-127371556D01*
X88160958Y-127536942D01*
X88288747Y-127678866D01*
X88443248Y-127791118D01*
X88617712Y-127868794D01*
X88804513Y-127908500D01*
X88995485Y-127908500D01*
X88995487Y-127908500D01*
X89182288Y-127868794D01*
X89356752Y-127791118D01*
X89511253Y-127678866D01*
X89639040Y-127536944D01*
X89666143Y-127490000D01*
X102616496Y-127490000D01*
X102636458Y-127679929D01*
X102695472Y-127861556D01*
X102790958Y-128026942D01*
X102790960Y-128026944D01*
X102918747Y-128168866D01*
X103073248Y-128281118D01*
X103247712Y-128358794D01*
X103434513Y-128398500D01*
X103625485Y-128398500D01*
X103625487Y-128398500D01*
X103812288Y-128358794D01*
X103986752Y-128281118D01*
X104141253Y-128168866D01*
X104269040Y-128026944D01*
X104364527Y-127861556D01*
X104423542Y-127679928D01*
X104443504Y-127490000D01*
X104432994Y-127390000D01*
X111216496Y-127390000D01*
X111236458Y-127579929D01*
X111295472Y-127761556D01*
X111390958Y-127926942D01*
X111481000Y-128026944D01*
X111518747Y-128068866D01*
X111673248Y-128181118D01*
X111847712Y-128258794D01*
X112034513Y-128298500D01*
X112225485Y-128298500D01*
X112225487Y-128298500D01*
X112412288Y-128258794D01*
X112586752Y-128181118D01*
X112741253Y-128068866D01*
X112869040Y-127926944D01*
X112959652Y-127770000D01*
X117576496Y-127770000D01*
X117596458Y-127959929D01*
X117655472Y-128141556D01*
X117750958Y-128306942D01*
X117750960Y-128306944D01*
X117878747Y-128448866D01*
X118033248Y-128561118D01*
X118207712Y-128638794D01*
X118394513Y-128678500D01*
X118585485Y-128678500D01*
X118585487Y-128678500D01*
X118772288Y-128638794D01*
X118946752Y-128561118D01*
X119101253Y-128448866D01*
X119229040Y-128306944D01*
X119324527Y-128141556D01*
X119383542Y-127959928D01*
X119403504Y-127770000D01*
X119383542Y-127580072D01*
X119324527Y-127398444D01*
X119324527Y-127398443D01*
X119229041Y-127233057D01*
X119101252Y-127091133D01*
X119001203Y-127018443D01*
X118946752Y-126978882D01*
X118772288Y-126901206D01*
X118585487Y-126861500D01*
X118394513Y-126861500D01*
X118269978Y-126887970D01*
X118207711Y-126901206D01*
X118033246Y-126978883D01*
X117878747Y-127091133D01*
X117750958Y-127233057D01*
X117655472Y-127398443D01*
X117596458Y-127580070D01*
X117576496Y-127770000D01*
X112959652Y-127770000D01*
X112964527Y-127761556D01*
X113023542Y-127579928D01*
X113043504Y-127390000D01*
X113023542Y-127200072D01*
X112964527Y-127018444D01*
X112964527Y-127018443D01*
X112869041Y-126853057D01*
X112741252Y-126711133D01*
X112654519Y-126648118D01*
X112586752Y-126598882D01*
X112412288Y-126521206D01*
X112225487Y-126481500D01*
X112034513Y-126481500D01*
X111909978Y-126507970D01*
X111847711Y-126521206D01*
X111673246Y-126598883D01*
X111518747Y-126711133D01*
X111390958Y-126853057D01*
X111295472Y-127018443D01*
X111236458Y-127200070D01*
X111216496Y-127390000D01*
X104432994Y-127390000D01*
X104423542Y-127300072D01*
X104364527Y-127118444D01*
X104364527Y-127118443D01*
X104269041Y-126953057D01*
X104141252Y-126811133D01*
X104023793Y-126725794D01*
X103986752Y-126698882D01*
X103812288Y-126621206D01*
X103625487Y-126581500D01*
X103434513Y-126581500D01*
X103309978Y-126607970D01*
X103247711Y-126621206D01*
X103073246Y-126698883D01*
X102918747Y-126811133D01*
X102790958Y-126953057D01*
X102695472Y-127118443D01*
X102636458Y-127300070D01*
X102616496Y-127490000D01*
X89666143Y-127490000D01*
X89734527Y-127371556D01*
X89793542Y-127189928D01*
X89813504Y-127000000D01*
X89803358Y-126903474D01*
X89811037Y-126845154D01*
X89844359Y-126796671D01*
X89896061Y-126768601D01*
X89934270Y-126767602D01*
X89934270Y-126765500D01*
X90138485Y-126765500D01*
X90138487Y-126765500D01*
X90325288Y-126725794D01*
X90499752Y-126648118D01*
X90654253Y-126535866D01*
X90782040Y-126393944D01*
X90877527Y-126228556D01*
X90896553Y-126169999D01*
X100101496Y-126169999D01*
X100121458Y-126359929D01*
X100180472Y-126541556D01*
X100275958Y-126706942D01*
X100294052Y-126727037D01*
X100403747Y-126848866D01*
X100558248Y-126961118D01*
X100732712Y-127038794D01*
X100919513Y-127078500D01*
X101110485Y-127078500D01*
X101110487Y-127078500D01*
X101297288Y-127038794D01*
X101471752Y-126961118D01*
X101626253Y-126848866D01*
X101754040Y-126706944D01*
X101849527Y-126541556D01*
X101908542Y-126359928D01*
X101928504Y-126170000D01*
X101908542Y-125980072D01*
X101868553Y-125856999D01*
X101849527Y-125798443D01*
X101754041Y-125633057D01*
X101626252Y-125491133D01*
X101471753Y-125378883D01*
X101471752Y-125378882D01*
X101297288Y-125301206D01*
X101110487Y-125261500D01*
X100919513Y-125261500D01*
X100794978Y-125287970D01*
X100732711Y-125301206D01*
X100558246Y-125378883D01*
X100403747Y-125491133D01*
X100275958Y-125633057D01*
X100180472Y-125798443D01*
X100121458Y-125980070D01*
X100101496Y-126169999D01*
X90896553Y-126169999D01*
X90936542Y-126046928D01*
X90956504Y-125857000D01*
X90936542Y-125667072D01*
X90879376Y-125491134D01*
X90877527Y-125485443D01*
X90782041Y-125320057D01*
X90654252Y-125178133D01*
X90499753Y-125065883D01*
X90499752Y-125065882D01*
X90325288Y-124988206D01*
X90138487Y-124948500D01*
X89947513Y-124948500D01*
X89822979Y-124974970D01*
X89760711Y-124988206D01*
X89586246Y-125065883D01*
X89431747Y-125178133D01*
X89303958Y-125320057D01*
X89208472Y-125485443D01*
X89149458Y-125667070D01*
X89129496Y-125857000D01*
X89139640Y-125953520D01*
X89131961Y-126011843D01*
X89098643Y-126060324D01*
X89046946Y-126088395D01*
X89008730Y-126089398D01*
X89008730Y-126091500D01*
X88995487Y-126091500D01*
X88804513Y-126091500D01*
X88679978Y-126117970D01*
X88617711Y-126131206D01*
X88443246Y-126208883D01*
X88288747Y-126321133D01*
X88160958Y-126463057D01*
X88065472Y-126628443D01*
X88006458Y-126810070D01*
X87986496Y-127000000D01*
X75266857Y-127000000D01*
X75260985Y-124939000D01*
X103517496Y-124939000D01*
X103537458Y-125128929D01*
X103596472Y-125310556D01*
X103691958Y-125475942D01*
X103691960Y-125475944D01*
X103819747Y-125617866D01*
X103974248Y-125730118D01*
X104148712Y-125807794D01*
X104335513Y-125847500D01*
X104526485Y-125847500D01*
X104526487Y-125847500D01*
X104713288Y-125807794D01*
X104887752Y-125730118D01*
X105042253Y-125617866D01*
X105170040Y-125475944D01*
X105265527Y-125310556D01*
X105324542Y-125128928D01*
X105344504Y-124939000D01*
X107554496Y-124939000D01*
X107574458Y-125128929D01*
X107633472Y-125310556D01*
X107728958Y-125475942D01*
X107728960Y-125475944D01*
X107856747Y-125617866D01*
X108011248Y-125730118D01*
X108185712Y-125807794D01*
X108372513Y-125847500D01*
X108563485Y-125847500D01*
X108563487Y-125847500D01*
X108750288Y-125807794D01*
X108924752Y-125730118D01*
X109079253Y-125617866D01*
X109207040Y-125475944D01*
X109302527Y-125310556D01*
X109361542Y-125128928D01*
X109381504Y-124939000D01*
X109361542Y-124749072D01*
X109302527Y-124567444D01*
X109302527Y-124567443D01*
X109207041Y-124402057D01*
X109079252Y-124260133D01*
X108924753Y-124147883D01*
X108924752Y-124147882D01*
X108750288Y-124070206D01*
X108563487Y-124030500D01*
X108372513Y-124030500D01*
X108247979Y-124056970D01*
X108185711Y-124070206D01*
X108011246Y-124147883D01*
X107856747Y-124260133D01*
X107728958Y-124402057D01*
X107633472Y-124567443D01*
X107574458Y-124749070D01*
X107554496Y-124939000D01*
X105344504Y-124939000D01*
X105324542Y-124749072D01*
X105265527Y-124567444D01*
X105265527Y-124567443D01*
X105170041Y-124402057D01*
X105042252Y-124260133D01*
X104887753Y-124147883D01*
X104887752Y-124147882D01*
X104713288Y-124070206D01*
X104526487Y-124030500D01*
X104335513Y-124030500D01*
X104210979Y-124056970D01*
X104148711Y-124070206D01*
X103974246Y-124147883D01*
X103819747Y-124260133D01*
X103691958Y-124402057D01*
X103596472Y-124567443D01*
X103537458Y-124749070D01*
X103517496Y-124939000D01*
X75260985Y-124939000D01*
X75257344Y-123661000D01*
X99241496Y-123661000D01*
X99261458Y-123850929D01*
X99320472Y-124032556D01*
X99415958Y-124197942D01*
X99415960Y-124197944D01*
X99543747Y-124339866D01*
X99698248Y-124452118D01*
X99872712Y-124529794D01*
X100059513Y-124569500D01*
X100250485Y-124569500D01*
X100250487Y-124569500D01*
X100437288Y-124529794D01*
X100611752Y-124452118D01*
X100766253Y-124339866D01*
X100894040Y-124197944D01*
X100989527Y-124032556D01*
X101048542Y-123850928D01*
X101068504Y-123661000D01*
X101048542Y-123471072D01*
X100989527Y-123289444D01*
X100989527Y-123289443D01*
X100894041Y-123124057D01*
X100766252Y-122982133D01*
X100702755Y-122936000D01*
X108306496Y-122936000D01*
X108326458Y-123125929D01*
X108385472Y-123307556D01*
X108480958Y-123472942D01*
X108480960Y-123472944D01*
X108608747Y-123614866D01*
X108763248Y-123727118D01*
X108937712Y-123804794D01*
X109124513Y-123844500D01*
X109315485Y-123844500D01*
X109315487Y-123844500D01*
X109502288Y-123804794D01*
X109676752Y-123727118D01*
X109831253Y-123614866D01*
X109959040Y-123472944D01*
X110054527Y-123307556D01*
X110113542Y-123125928D01*
X110133504Y-122936000D01*
X110113542Y-122746072D01*
X110055071Y-122566118D01*
X110054527Y-122564443D01*
X109959041Y-122399057D01*
X109831252Y-122257133D01*
X109676753Y-122144883D01*
X109676752Y-122144882D01*
X109502288Y-122067206D01*
X109315487Y-122027500D01*
X109124513Y-122027500D01*
X108999978Y-122053970D01*
X108937711Y-122067206D01*
X108763246Y-122144883D01*
X108608747Y-122257133D01*
X108480958Y-122399057D01*
X108385472Y-122564443D01*
X108326458Y-122746070D01*
X108306496Y-122936000D01*
X100702755Y-122936000D01*
X100611753Y-122869883D01*
X100611752Y-122869882D01*
X100437288Y-122792206D01*
X100250487Y-122752500D01*
X100059513Y-122752500D01*
X99934978Y-122778970D01*
X99872711Y-122792206D01*
X99698246Y-122869883D01*
X99543747Y-122982133D01*
X99415958Y-123124057D01*
X99320472Y-123289443D01*
X99261458Y-123471070D01*
X99241496Y-123661000D01*
X75257344Y-123661000D01*
X75251971Y-121775000D01*
X100101496Y-121775000D01*
X100121458Y-121964929D01*
X100180472Y-122146556D01*
X100275958Y-122311942D01*
X100275960Y-122311944D01*
X100403747Y-122453866D01*
X100558248Y-122566118D01*
X100732712Y-122643794D01*
X100919513Y-122683500D01*
X101110485Y-122683500D01*
X101110487Y-122683500D01*
X101297288Y-122643794D01*
X101471752Y-122566118D01*
X101626253Y-122453866D01*
X101754040Y-122311944D01*
X101849527Y-122146556D01*
X101908542Y-121964928D01*
X101928504Y-121775000D01*
X101908542Y-121585072D01*
X101849527Y-121403444D01*
X101849527Y-121403443D01*
X101754041Y-121238057D01*
X101626252Y-121096133D01*
X101508793Y-121010794D01*
X101471752Y-120983882D01*
X101297288Y-120906206D01*
X101110487Y-120866500D01*
X100919513Y-120866500D01*
X100838152Y-120883794D01*
X100732711Y-120906206D01*
X100558246Y-120983883D01*
X100403747Y-121096133D01*
X100275958Y-121238057D01*
X100180472Y-121403443D01*
X100121458Y-121585070D01*
X100101496Y-121775000D01*
X75251971Y-121775000D01*
X75238937Y-117200000D01*
X95306496Y-117200000D01*
X95326458Y-117389929D01*
X95385472Y-117571556D01*
X95480958Y-117736942D01*
X95499868Y-117757944D01*
X95608747Y-117878866D01*
X95763248Y-117991118D01*
X95937712Y-118068794D01*
X96004383Y-118082965D01*
X96056447Y-118107465D01*
X96092191Y-118152562D01*
X96104155Y-118208848D01*
X96089846Y-118264584D01*
X96052247Y-118308145D01*
X96035748Y-118320132D01*
X95907958Y-118462057D01*
X95812472Y-118627443D01*
X95753458Y-118809070D01*
X95733496Y-118998999D01*
X95753458Y-119188929D01*
X95812472Y-119370555D01*
X95812473Y-119370556D01*
X95865922Y-119463133D01*
X95881558Y-119490214D01*
X95897749Y-119540043D01*
X95892272Y-119592150D01*
X95866076Y-119637524D01*
X95780958Y-119732057D01*
X95685472Y-119897443D01*
X95626458Y-120079070D01*
X95606496Y-120268999D01*
X95626458Y-120458929D01*
X95685472Y-120640556D01*
X95780958Y-120805942D01*
X95794396Y-120820866D01*
X95908747Y-120947866D01*
X96063248Y-121060118D01*
X96237712Y-121137794D01*
X96424513Y-121177500D01*
X96615485Y-121177500D01*
X96615487Y-121177500D01*
X96802288Y-121137794D01*
X96976752Y-121060118D01*
X97131253Y-120947866D01*
X97259040Y-120805944D01*
X97354527Y-120640556D01*
X97413542Y-120458928D01*
X97433504Y-120269000D01*
X97420156Y-120141999D01*
X114021496Y-120141999D01*
X114041458Y-120331929D01*
X114100472Y-120513556D01*
X114195958Y-120678942D01*
X114195960Y-120678944D01*
X114323747Y-120820866D01*
X114478248Y-120933118D01*
X114652712Y-121010794D01*
X114839513Y-121050500D01*
X115030485Y-121050500D01*
X115030487Y-121050500D01*
X115217288Y-121010794D01*
X115391752Y-120933118D01*
X115546253Y-120820866D01*
X115674040Y-120678944D01*
X115769527Y-120513556D01*
X115828542Y-120331928D01*
X115848504Y-120142000D01*
X115835156Y-120014999D01*
X116561496Y-120014999D01*
X116581458Y-120204929D01*
X116640472Y-120386556D01*
X116735958Y-120551942D01*
X116850309Y-120678942D01*
X116863747Y-120693866D01*
X117018248Y-120806118D01*
X117192712Y-120883794D01*
X117379513Y-120923500D01*
X117570485Y-120923500D01*
X117570487Y-120923500D01*
X117757288Y-120883794D01*
X117931752Y-120806118D01*
X118086253Y-120693866D01*
X118214040Y-120551944D01*
X118309527Y-120386556D01*
X118368542Y-120204928D01*
X118388504Y-120015000D01*
X118368542Y-119825072D01*
X118327562Y-119698950D01*
X118309527Y-119643443D01*
X118214041Y-119478057D01*
X118086252Y-119336133D01*
X117931753Y-119223883D01*
X117931752Y-119223882D01*
X117757288Y-119146206D01*
X117570487Y-119106500D01*
X117379513Y-119106500D01*
X117254978Y-119132970D01*
X117192711Y-119146206D01*
X117018246Y-119223883D01*
X116863747Y-119336133D01*
X116735958Y-119478057D01*
X116640472Y-119643443D01*
X116581458Y-119825070D01*
X116561496Y-120014999D01*
X115835156Y-120014999D01*
X115828542Y-119952072D01*
X115769527Y-119770444D01*
X115769527Y-119770443D01*
X115674041Y-119605057D01*
X115546252Y-119463133D01*
X115391753Y-119350883D01*
X115391752Y-119350882D01*
X115217288Y-119273206D01*
X115030487Y-119233500D01*
X114839513Y-119233500D01*
X114714979Y-119259970D01*
X114652711Y-119273206D01*
X114478246Y-119350883D01*
X114323747Y-119463133D01*
X114195958Y-119605057D01*
X114100472Y-119770443D01*
X114041458Y-119952070D01*
X114021496Y-120141999D01*
X97420156Y-120141999D01*
X97413542Y-120079072D01*
X97354527Y-119897444D01*
X97285440Y-119777783D01*
X97269250Y-119727954D01*
X97274727Y-119675847D01*
X97300923Y-119630475D01*
X97386040Y-119535944D01*
X97481527Y-119370556D01*
X97540542Y-119188928D01*
X97560504Y-118999000D01*
X97540542Y-118809072D01*
X97528987Y-118773511D01*
X97523511Y-118721408D01*
X97539703Y-118671577D01*
X97574758Y-118632645D01*
X97621253Y-118598866D01*
X97749040Y-118456944D01*
X97844527Y-118291556D01*
X97903542Y-118109928D01*
X97923504Y-117920000D01*
X97903542Y-117730072D01*
X97844527Y-117548444D01*
X97806984Y-117483417D01*
X97790276Y-117427009D01*
X97801002Y-117369161D01*
X97836822Y-117322489D01*
X97871071Y-117306159D01*
X97870190Y-117304180D01*
X97882286Y-117298794D01*
X97882288Y-117298794D01*
X98056752Y-117221118D01*
X98211253Y-117108866D01*
X98339040Y-116966944D01*
X98434527Y-116801556D01*
X98493542Y-116619928D01*
X98506578Y-116495900D01*
X113930496Y-116495900D01*
X113950458Y-116685829D01*
X114009472Y-116867456D01*
X114104958Y-117032842D01*
X114104960Y-117032844D01*
X114232747Y-117174766D01*
X114387248Y-117287018D01*
X114561712Y-117364694D01*
X114748513Y-117404400D01*
X114939485Y-117404400D01*
X114939487Y-117404400D01*
X115126288Y-117364694D01*
X115261434Y-117304523D01*
X115319273Y-117293804D01*
X115375678Y-117310511D01*
X115418351Y-117351006D01*
X115437987Y-117406456D01*
X115438397Y-117410349D01*
X115438458Y-117410929D01*
X115497472Y-117592556D01*
X115592958Y-117757942D01*
X115592960Y-117757944D01*
X115720747Y-117899866D01*
X115875248Y-118012118D01*
X116049712Y-118089794D01*
X116236513Y-118129500D01*
X116427485Y-118129500D01*
X116427487Y-118129500D01*
X116614288Y-118089794D01*
X116788752Y-118012118D01*
X116943253Y-117899866D01*
X117071040Y-117757944D01*
X117166527Y-117592556D01*
X117225542Y-117410928D01*
X117245504Y-117221000D01*
X117225542Y-117031072D01*
X117166527Y-116849444D01*
X117166527Y-116849443D01*
X117071039Y-116684054D01*
X117046337Y-116656620D01*
X117017715Y-116602792D01*
X117017715Y-116541827D01*
X117046334Y-116488001D01*
X117167040Y-116353944D01*
X117262527Y-116188556D01*
X117321542Y-116006928D01*
X117341504Y-115817000D01*
X117321542Y-115627072D01*
X117275383Y-115485010D01*
X117262527Y-115445443D01*
X117167041Y-115280057D01*
X117085902Y-115189943D01*
X117058180Y-115139516D01*
X117055770Y-115082022D01*
X117079175Y-115029453D01*
X117123514Y-114992772D01*
X117179538Y-114979632D01*
X117244353Y-114979632D01*
X117244355Y-114979632D01*
X117431156Y-114939926D01*
X117605620Y-114862250D01*
X117760121Y-114749998D01*
X117887908Y-114608076D01*
X117983395Y-114442688D01*
X118042410Y-114261060D01*
X118062372Y-114071132D01*
X118042410Y-113881204D01*
X117989526Y-113718444D01*
X117983395Y-113699575D01*
X117887909Y-113534189D01*
X117760120Y-113392265D01*
X117682870Y-113336140D01*
X117605620Y-113280014D01*
X117431156Y-113202338D01*
X117244355Y-113162632D01*
X117053381Y-113162632D01*
X116964615Y-113181500D01*
X116866579Y-113202338D01*
X116692114Y-113280015D01*
X116537615Y-113392265D01*
X116409826Y-113534189D01*
X116314340Y-113699575D01*
X116255326Y-113881202D01*
X116249279Y-113938738D01*
X116225905Y-113999628D01*
X116175217Y-114040673D01*
X116110798Y-114050876D01*
X116049908Y-114027502D01*
X116024498Y-114009041D01*
X115996752Y-113988882D01*
X115822288Y-113911206D01*
X115635487Y-113871500D01*
X115444513Y-113871500D01*
X115319979Y-113897970D01*
X115257711Y-113911206D01*
X115083246Y-113988883D01*
X114928747Y-114101133D01*
X114800958Y-114243057D01*
X114705472Y-114408443D01*
X114646458Y-114590070D01*
X114626496Y-114780000D01*
X114646458Y-114969929D01*
X114705472Y-115151556D01*
X114800958Y-115316942D01*
X114855115Y-115377089D01*
X114882837Y-115427516D01*
X114885247Y-115485010D01*
X114861842Y-115537579D01*
X114817503Y-115574260D01*
X114761479Y-115587400D01*
X114748513Y-115587400D01*
X114623978Y-115613870D01*
X114561711Y-115627106D01*
X114387246Y-115704783D01*
X114232747Y-115817033D01*
X114104958Y-115958957D01*
X114009472Y-116124343D01*
X113950458Y-116305970D01*
X113930496Y-116495900D01*
X98506578Y-116495900D01*
X98513504Y-116430000D01*
X98493542Y-116240072D01*
X98434527Y-116058444D01*
X98434527Y-116058443D01*
X98339041Y-115893057D01*
X98211252Y-115751133D01*
X98071955Y-115649928D01*
X98056752Y-115638882D01*
X97980642Y-115604996D01*
X97937811Y-115585926D01*
X97895421Y-115555126D01*
X97869224Y-115509748D01*
X97865377Y-115473120D01*
X97864888Y-115473172D01*
X97863504Y-115460000D01*
X97843542Y-115270072D01*
X97805034Y-115151556D01*
X97784527Y-115088443D01*
X97689041Y-114923057D01*
X97561252Y-114781133D01*
X97440820Y-114693634D01*
X97401633Y-114646932D01*
X97388958Y-114587300D01*
X97405760Y-114528700D01*
X97444527Y-114461556D01*
X97503542Y-114279928D01*
X97523504Y-114090000D01*
X97503542Y-113900072D01*
X97444527Y-113718444D01*
X97444527Y-113718443D01*
X97349041Y-113553057D01*
X97221252Y-113411133D01*
X97068193Y-113299929D01*
X97066752Y-113298882D01*
X96892288Y-113221206D01*
X96705487Y-113181500D01*
X96514513Y-113181500D01*
X96389978Y-113207970D01*
X96327711Y-113221206D01*
X96153246Y-113298883D01*
X95998747Y-113411133D01*
X95870958Y-113553057D01*
X95775472Y-113718443D01*
X95716458Y-113900070D01*
X95696496Y-114090000D01*
X95716458Y-114279929D01*
X95775472Y-114461556D01*
X95870958Y-114626942D01*
X95981758Y-114749998D01*
X95998747Y-114768866D01*
X96026175Y-114788794D01*
X96119179Y-114856365D01*
X96158366Y-114903066D01*
X96171041Y-114962698D01*
X96154238Y-115021300D01*
X96115472Y-115088445D01*
X96056458Y-115270070D01*
X96036496Y-115460000D01*
X96056458Y-115649929D01*
X96115472Y-115831556D01*
X96210960Y-115996945D01*
X96286814Y-116081190D01*
X96314537Y-116131616D01*
X96316946Y-116189110D01*
X96293541Y-116241680D01*
X96249202Y-116278360D01*
X96193178Y-116291500D01*
X96124513Y-116291500D01*
X95999978Y-116317970D01*
X95937711Y-116331206D01*
X95763246Y-116408883D01*
X95608747Y-116521133D01*
X95480958Y-116663057D01*
X95385472Y-116828443D01*
X95326458Y-117010070D01*
X95306496Y-117200000D01*
X75238937Y-117200000D01*
X75227284Y-113109999D01*
X103212496Y-113109999D01*
X103232458Y-113299929D01*
X103291472Y-113481556D01*
X103386958Y-113646942D01*
X103386960Y-113646944D01*
X103514747Y-113788866D01*
X103669248Y-113901118D01*
X103843712Y-113978794D01*
X104030513Y-114018500D01*
X104030515Y-114018500D01*
X104146955Y-114018500D01*
X104198204Y-114029393D01*
X104240591Y-114060190D01*
X104266788Y-114105564D01*
X104317472Y-114261556D01*
X104412958Y-114426942D01*
X104412960Y-114426944D01*
X104540747Y-114568866D01*
X104695248Y-114681118D01*
X104869712Y-114758794D01*
X105056513Y-114798500D01*
X105247485Y-114798500D01*
X105247487Y-114798500D01*
X105434288Y-114758794D01*
X105608752Y-114681118D01*
X105763253Y-114568866D01*
X105891040Y-114426944D01*
X105986527Y-114261556D01*
X106035794Y-114109929D01*
X106037213Y-114105563D01*
X106063410Y-114060189D01*
X106105797Y-114029393D01*
X106157046Y-114018500D01*
X106189207Y-114018500D01*
X106240456Y-114029393D01*
X106282843Y-114060189D01*
X106309040Y-114105564D01*
X106369472Y-114291555D01*
X106464958Y-114456942D01*
X106529567Y-114528697D01*
X106592747Y-114598866D01*
X106747248Y-114711118D01*
X106921712Y-114788794D01*
X107108513Y-114828500D01*
X107299485Y-114828500D01*
X107299487Y-114828500D01*
X107486288Y-114788794D01*
X107660752Y-114711118D01*
X107815253Y-114598866D01*
X107943040Y-114456944D01*
X108038527Y-114291556D01*
X108097542Y-114109928D01*
X108117504Y-113920000D01*
X108097542Y-113730072D01*
X108038527Y-113548444D01*
X108038527Y-113548443D01*
X107943041Y-113383057D01*
X107815252Y-113241133D01*
X107660753Y-113128883D01*
X107660752Y-113128882D01*
X107486288Y-113051206D01*
X107299487Y-113011500D01*
X107192794Y-113011500D01*
X107141545Y-113000607D01*
X107099158Y-112969811D01*
X107072961Y-112924437D01*
X107012526Y-112738442D01*
X106917041Y-112573057D01*
X106789252Y-112431133D01*
X106634753Y-112318883D01*
X106634752Y-112318882D01*
X106460288Y-112241206D01*
X106273487Y-112201500D01*
X106082513Y-112201500D01*
X105957978Y-112227970D01*
X105895711Y-112241206D01*
X105721246Y-112318883D01*
X105566747Y-112431133D01*
X105438958Y-112573057D01*
X105343472Y-112738443D01*
X105292788Y-112894436D01*
X105266591Y-112939810D01*
X105224204Y-112970607D01*
X105172955Y-112981500D01*
X105131045Y-112981500D01*
X105079796Y-112970607D01*
X105037409Y-112939810D01*
X105011212Y-112894436D01*
X104960527Y-112738443D01*
X104865041Y-112573057D01*
X104737252Y-112431133D01*
X104582753Y-112318883D01*
X104582752Y-112318882D01*
X104408288Y-112241206D01*
X104221487Y-112201500D01*
X104030513Y-112201500D01*
X103905978Y-112227970D01*
X103843711Y-112241206D01*
X103669246Y-112318883D01*
X103514747Y-112431133D01*
X103386958Y-112573057D01*
X103291472Y-112738443D01*
X103232458Y-112920070D01*
X103212496Y-113109999D01*
X75227284Y-113109999D01*
X75221045Y-110920000D01*
X95216496Y-110920000D01*
X95236458Y-111109929D01*
X95295472Y-111291556D01*
X95390958Y-111456942D01*
X95390960Y-111456944D01*
X95518747Y-111598866D01*
X95673248Y-111711118D01*
X95847712Y-111788794D01*
X96034513Y-111828500D01*
X96225485Y-111828500D01*
X96225487Y-111828500D01*
X96412288Y-111788794D01*
X96586752Y-111711118D01*
X96741253Y-111598866D01*
X96869040Y-111456944D01*
X96964527Y-111291556D01*
X97023542Y-111109928D01*
X97043504Y-110920000D01*
X97023542Y-110730072D01*
X96964527Y-110548444D01*
X96964527Y-110548443D01*
X96869041Y-110383057D01*
X96741252Y-110241133D01*
X96586753Y-110128883D01*
X96586752Y-110128882D01*
X96412288Y-110051206D01*
X96225487Y-110011500D01*
X96034513Y-110011500D01*
X95909979Y-110037970D01*
X95847711Y-110051206D01*
X95673246Y-110128883D01*
X95518747Y-110241133D01*
X95390958Y-110383057D01*
X95295472Y-110548443D01*
X95236458Y-110730070D01*
X95216496Y-110920000D01*
X75221045Y-110920000D01*
X75218399Y-109991199D01*
X97936496Y-109991199D01*
X97956458Y-110181129D01*
X98015472Y-110362756D01*
X98110958Y-110528142D01*
X98110960Y-110528144D01*
X98238747Y-110670066D01*
X98393248Y-110782318D01*
X98567712Y-110859994D01*
X98754513Y-110899700D01*
X98945485Y-110899700D01*
X98945487Y-110899700D01*
X99132288Y-110859994D01*
X99306752Y-110782318D01*
X99461253Y-110670066D01*
X99589040Y-110528144D01*
X99684527Y-110362756D01*
X99743542Y-110181128D01*
X99763504Y-109991200D01*
X99755096Y-109911199D01*
X111616496Y-109911199D01*
X111636458Y-110101129D01*
X111695472Y-110282756D01*
X111790958Y-110448142D01*
X111881270Y-110548444D01*
X111918747Y-110590066D01*
X112073248Y-110702318D01*
X112247712Y-110779994D01*
X112434513Y-110819700D01*
X112625487Y-110819700D01*
X112625488Y-110819700D01*
X112655492Y-110813322D01*
X112705888Y-110802610D01*
X112763419Y-110803814D01*
X112814415Y-110830474D01*
X112848239Y-110877028D01*
X112857836Y-110933766D01*
X112841205Y-110988855D01*
X112830472Y-111007444D01*
X112771458Y-111189070D01*
X112751496Y-111379000D01*
X112771458Y-111568929D01*
X112830472Y-111750556D01*
X112925958Y-111915942D01*
X112925960Y-111915944D01*
X113053747Y-112057866D01*
X113208248Y-112170118D01*
X113382712Y-112247794D01*
X113569513Y-112287500D01*
X113760485Y-112287500D01*
X113760487Y-112287500D01*
X113947288Y-112247794D01*
X114121752Y-112170118D01*
X114276253Y-112057866D01*
X114404040Y-111915944D01*
X114499527Y-111750556D01*
X114558542Y-111568928D01*
X114578504Y-111379000D01*
X114558542Y-111189072D01*
X114499527Y-111007444D01*
X114499527Y-111007443D01*
X114404041Y-110842057D01*
X114276252Y-110700133D01*
X114121753Y-110587883D01*
X114121752Y-110587882D01*
X113947288Y-110510206D01*
X113760487Y-110470500D01*
X113569513Y-110470500D01*
X113534863Y-110477865D01*
X113489110Y-110487590D01*
X113431578Y-110486384D01*
X113380582Y-110459723D01*
X113346758Y-110413168D01*
X113337163Y-110356428D01*
X113353796Y-110301341D01*
X113364527Y-110282756D01*
X113423542Y-110101128D01*
X113443504Y-109911200D01*
X113423542Y-109721272D01*
X113364527Y-109539644D01*
X113364527Y-109539643D01*
X113269041Y-109374257D01*
X113156365Y-109249118D01*
X113141253Y-109232334D01*
X113096863Y-109200083D01*
X113009853Y-109136866D01*
X112986752Y-109120082D01*
X112812288Y-109042406D01*
X112625487Y-109002700D01*
X112434513Y-109002700D01*
X112353152Y-109019994D01*
X112247711Y-109042406D01*
X112073246Y-109120083D01*
X111918747Y-109232333D01*
X111790958Y-109374257D01*
X111695472Y-109539643D01*
X111636458Y-109721270D01*
X111616496Y-109911199D01*
X99755096Y-109911199D01*
X99743542Y-109801272D01*
X99684527Y-109619644D01*
X99684527Y-109619643D01*
X99589041Y-109454257D01*
X99461252Y-109312333D01*
X99351143Y-109232334D01*
X99306752Y-109200082D01*
X99132288Y-109122406D01*
X98945487Y-109082700D01*
X98754513Y-109082700D01*
X98629979Y-109109170D01*
X98567711Y-109122406D01*
X98393246Y-109200083D01*
X98238747Y-109312333D01*
X98110958Y-109454257D01*
X98015472Y-109619643D01*
X97956458Y-109801270D01*
X97936496Y-109991199D01*
X75218399Y-109991199D01*
X75213157Y-108151200D01*
X99266496Y-108151200D01*
X99286458Y-108341129D01*
X99345472Y-108522756D01*
X99440958Y-108688142D01*
X99440960Y-108688144D01*
X99568747Y-108830066D01*
X99723248Y-108942318D01*
X99897712Y-109019994D01*
X100084513Y-109059700D01*
X100275485Y-109059700D01*
X100275487Y-109059700D01*
X100462288Y-109019994D01*
X100636752Y-108942318D01*
X100749557Y-108860359D01*
X100814829Y-108836603D01*
X100882771Y-108851045D01*
X100932737Y-108899296D01*
X100987958Y-108994942D01*
X101010514Y-109019993D01*
X101115747Y-109136866D01*
X101270248Y-109249118D01*
X101444712Y-109326794D01*
X101631513Y-109366500D01*
X101822485Y-109366500D01*
X101822487Y-109366500D01*
X102009288Y-109326794D01*
X102183752Y-109249118D01*
X102338253Y-109136866D01*
X102466040Y-108994944D01*
X102561527Y-108829556D01*
X102620542Y-108647928D01*
X102640504Y-108458000D01*
X102620542Y-108268072D01*
X102572820Y-108121200D01*
X110336496Y-108121200D01*
X110356458Y-108311129D01*
X110415472Y-108492756D01*
X110510958Y-108658142D01*
X110510960Y-108658144D01*
X110638747Y-108800066D01*
X110793248Y-108912318D01*
X110967712Y-108989994D01*
X111154513Y-109029700D01*
X111345485Y-109029700D01*
X111345487Y-109029700D01*
X111532288Y-108989994D01*
X111706752Y-108912318D01*
X111861253Y-108800066D01*
X111989040Y-108658144D01*
X112084527Y-108492756D01*
X112143542Y-108311128D01*
X112163504Y-108121200D01*
X112143542Y-107931272D01*
X112094275Y-107779644D01*
X112084527Y-107749643D01*
X111989041Y-107584257D01*
X111861252Y-107442333D01*
X111784002Y-107386208D01*
X111706752Y-107330082D01*
X111532288Y-107252406D01*
X111345487Y-107212700D01*
X111154513Y-107212700D01*
X111029979Y-107239170D01*
X110967711Y-107252406D01*
X110793246Y-107330083D01*
X110638747Y-107442333D01*
X110510958Y-107584257D01*
X110415472Y-107749643D01*
X110356458Y-107931270D01*
X110336496Y-108121200D01*
X102572820Y-108121200D01*
X102561527Y-108086444D01*
X102561527Y-108086443D01*
X102466041Y-107921057D01*
X102338252Y-107779133D01*
X102183753Y-107666883D01*
X102183752Y-107666882D01*
X102009288Y-107589206D01*
X101822487Y-107549500D01*
X101631513Y-107549500D01*
X101506978Y-107575970D01*
X101444711Y-107589206D01*
X101270246Y-107666883D01*
X101157443Y-107748840D01*
X101092171Y-107772597D01*
X101024229Y-107758155D01*
X100974263Y-107709904D01*
X100919041Y-107614257D01*
X100791252Y-107472333D01*
X100636753Y-107360083D01*
X100636752Y-107360082D01*
X100462288Y-107282406D01*
X100275487Y-107242700D01*
X100084513Y-107242700D01*
X100004535Y-107259700D01*
X99897711Y-107282406D01*
X99723246Y-107360083D01*
X99568747Y-107472333D01*
X99440958Y-107614257D01*
X99345472Y-107779643D01*
X99286458Y-107961270D01*
X99266496Y-108151200D01*
X75213157Y-108151200D01*
X75208029Y-106351200D01*
X102086496Y-106351200D01*
X102106458Y-106541129D01*
X102165472Y-106722756D01*
X102260958Y-106888142D01*
X102260960Y-106888144D01*
X102388747Y-107030066D01*
X102543248Y-107142318D01*
X102717712Y-107219994D01*
X102904513Y-107259700D01*
X103095485Y-107259700D01*
X103095487Y-107259700D01*
X103282288Y-107219994D01*
X103456752Y-107142318D01*
X103611253Y-107030066D01*
X103739040Y-106888144D01*
X103834527Y-106722756D01*
X103893542Y-106541128D01*
X103913504Y-106351200D01*
X103893542Y-106161272D01*
X103844275Y-106009644D01*
X103834527Y-105979643D01*
X103739041Y-105814257D01*
X103611252Y-105672333D01*
X103533510Y-105615850D01*
X103456752Y-105560082D01*
X103282288Y-105482406D01*
X103095487Y-105442700D01*
X102904513Y-105442700D01*
X102779979Y-105469170D01*
X102717711Y-105482406D01*
X102543246Y-105560083D01*
X102388747Y-105672333D01*
X102260958Y-105814257D01*
X102165472Y-105979643D01*
X102106458Y-106161270D01*
X102086496Y-106351200D01*
X75208029Y-106351200D01*
X75192583Y-100929799D01*
X104866150Y-100929799D01*
X104885105Y-101134357D01*
X104941325Y-101331951D01*
X105032896Y-101515849D01*
X105032897Y-101515850D01*
X105156699Y-101679791D01*
X105308518Y-101818192D01*
X105308520Y-101818193D01*
X105308521Y-101818194D01*
X105414581Y-101883864D01*
X105458327Y-101929679D01*
X105474251Y-101990990D01*
X105458328Y-102052302D01*
X105414583Y-102098118D01*
X105328517Y-102151408D01*
X105176698Y-102289810D01*
X105052897Y-102453749D01*
X104961325Y-102637648D01*
X104905105Y-102835242D01*
X104886150Y-103039800D01*
X104905105Y-103244357D01*
X104961325Y-103441951D01*
X105015690Y-103551129D01*
X105052897Y-103625850D01*
X105176699Y-103789791D01*
X105328518Y-103928192D01*
X105366905Y-103951960D01*
X105410650Y-103997773D01*
X105426574Y-104059084D01*
X105410652Y-104120396D01*
X105366909Y-104166212D01*
X105358519Y-104171407D01*
X105206698Y-104309810D01*
X105082897Y-104473749D01*
X104991325Y-104657648D01*
X104935105Y-104855242D01*
X104916150Y-105059800D01*
X104935105Y-105264357D01*
X104991325Y-105461951D01*
X105001511Y-105482406D01*
X105082897Y-105645850D01*
X105206699Y-105809791D01*
X105358518Y-105948192D01*
X105533182Y-106056340D01*
X105724745Y-106130551D01*
X105926682Y-106168300D01*
X106132116Y-106168300D01*
X106132118Y-106168300D01*
X106334055Y-106130551D01*
X106525618Y-106056340D01*
X106700282Y-105948192D01*
X106852101Y-105809791D01*
X106930179Y-105706398D01*
X106974563Y-105669542D01*
X107030727Y-105656332D01*
X107086890Y-105669541D01*
X107131276Y-105706399D01*
X107186699Y-105779791D01*
X107338518Y-105918192D01*
X107386969Y-105948192D01*
X107409870Y-105962372D01*
X107449423Y-106001201D01*
X107468486Y-106053245D01*
X107463372Y-106108434D01*
X107436458Y-106191268D01*
X107416496Y-106381199D01*
X107436458Y-106571129D01*
X107495472Y-106752756D01*
X107590958Y-106918142D01*
X107590960Y-106918144D01*
X107718747Y-107060066D01*
X107873248Y-107172318D01*
X108047712Y-107249994D01*
X108234513Y-107289700D01*
X108425485Y-107289700D01*
X108425487Y-107289700D01*
X108612288Y-107249994D01*
X108786752Y-107172318D01*
X108941253Y-107060066D01*
X109069040Y-106918144D01*
X109164527Y-106752756D01*
X109223542Y-106571128D01*
X109243504Y-106381200D01*
X109223542Y-106191272D01*
X109178694Y-106053245D01*
X109164527Y-106009643D01*
X109069041Y-105844257D01*
X109038006Y-105809789D01*
X108980329Y-105745732D01*
X108954958Y-105702811D01*
X108948221Y-105653408D01*
X108961175Y-105605262D01*
X109047474Y-105431952D01*
X109103694Y-105234359D01*
X109122649Y-105029800D01*
X109103694Y-104825241D01*
X109047474Y-104627648D01*
X108955903Y-104443750D01*
X108835417Y-104284200D01*
X116258496Y-104284200D01*
X116278458Y-104474129D01*
X116337472Y-104655756D01*
X116432958Y-104821142D01*
X116432960Y-104821144D01*
X116560747Y-104963066D01*
X116715248Y-105075318D01*
X116889712Y-105152994D01*
X117076513Y-105192700D01*
X117267485Y-105192700D01*
X117267487Y-105192700D01*
X117454288Y-105152994D01*
X117628752Y-105075318D01*
X117783253Y-104963066D01*
X117911040Y-104821144D01*
X118006527Y-104655756D01*
X118065542Y-104474128D01*
X118085504Y-104284200D01*
X118065542Y-104094272D01*
X118028152Y-103979198D01*
X118006527Y-103912643D01*
X117911041Y-103747257D01*
X117783252Y-103605333D01*
X117628753Y-103493083D01*
X117628752Y-103493082D01*
X117454288Y-103415406D01*
X117267487Y-103375700D01*
X117076513Y-103375700D01*
X116951979Y-103402170D01*
X116889711Y-103415406D01*
X116715246Y-103493083D01*
X116560747Y-103605333D01*
X116432958Y-103747257D01*
X116337472Y-103912643D01*
X116278458Y-104094270D01*
X116258496Y-104284200D01*
X108835417Y-104284200D01*
X108832101Y-104279809D01*
X108680282Y-104141408D01*
X108680280Y-104141407D01*
X108676450Y-104137915D01*
X108640145Y-104079282D01*
X108640145Y-104010318D01*
X108676450Y-103951685D01*
X108680282Y-103948192D01*
X108832101Y-103809791D01*
X108955903Y-103645850D01*
X109047474Y-103461952D01*
X109076140Y-103361200D01*
X111086496Y-103361200D01*
X111106458Y-103551129D01*
X111165472Y-103732756D01*
X111260958Y-103898142D01*
X111260960Y-103898144D01*
X111388747Y-104040066D01*
X111543248Y-104152318D01*
X111717712Y-104229994D01*
X111904513Y-104269700D01*
X112095485Y-104269700D01*
X112095487Y-104269700D01*
X112282288Y-104229994D01*
X112456752Y-104152318D01*
X112611253Y-104040066D01*
X112739040Y-103898144D01*
X112834527Y-103732756D01*
X112893542Y-103551128D01*
X112913504Y-103361200D01*
X112893542Y-103171272D01*
X112834527Y-102989644D01*
X112834527Y-102989643D01*
X112739041Y-102824257D01*
X112611252Y-102682333D01*
X112456753Y-102570083D01*
X112456752Y-102570082D01*
X112439493Y-102562398D01*
X115589353Y-102562398D01*
X115591035Y-102563455D01*
X115752259Y-102619870D01*
X115922000Y-102638995D01*
X116091740Y-102619870D01*
X116252962Y-102563456D01*
X116254644Y-102562398D01*
X116589353Y-102562398D01*
X116591035Y-102563455D01*
X116752259Y-102619870D01*
X116922000Y-102638995D01*
X117091740Y-102619870D01*
X117252962Y-102563456D01*
X117254644Y-102562398D01*
X117254644Y-102562396D01*
X116922001Y-102229753D01*
X116922000Y-102229753D01*
X116589353Y-102562398D01*
X116254644Y-102562398D01*
X116254644Y-102562396D01*
X115922001Y-102229753D01*
X115922000Y-102229753D01*
X115589353Y-102562398D01*
X112439493Y-102562398D01*
X112282288Y-102492406D01*
X112095487Y-102452700D01*
X111904513Y-102452700D01*
X111805486Y-102473749D01*
X111717711Y-102492406D01*
X111543246Y-102570083D01*
X111388747Y-102682333D01*
X111260958Y-102824257D01*
X111165472Y-102989643D01*
X111106458Y-103171270D01*
X111086496Y-103361200D01*
X109076140Y-103361200D01*
X109103694Y-103264359D01*
X109122649Y-103059800D01*
X109103694Y-102855241D01*
X109047474Y-102657648D01*
X108955903Y-102473750D01*
X108832101Y-102309809D01*
X108680282Y-102171408D01*
X108635226Y-102143510D01*
X108548067Y-102089543D01*
X108504321Y-102043728D01*
X108488398Y-101982416D01*
X108504322Y-101921104D01*
X108548068Y-101875289D01*
X108590054Y-101849292D01*
X108640282Y-101818192D01*
X108792101Y-101679791D01*
X108915903Y-101515850D01*
X109007474Y-101331952D01*
X109063694Y-101134359D01*
X109082649Y-100929800D01*
X109063694Y-100725241D01*
X109007474Y-100527648D01*
X108915903Y-100343750D01*
X108792101Y-100179809D01*
X108640282Y-100041408D01*
X108606893Y-100020734D01*
X108563148Y-99974920D01*
X108547225Y-99913607D01*
X108563149Y-99852295D01*
X108606896Y-99806480D01*
X108620282Y-99798192D01*
X108666345Y-99756200D01*
X112048496Y-99756200D01*
X112053380Y-99802671D01*
X112068458Y-99946129D01*
X112127472Y-100127756D01*
X112222958Y-100293142D01*
X112350747Y-100435066D01*
X112393039Y-100465793D01*
X112428097Y-100504729D01*
X112444288Y-100554558D01*
X112438811Y-100606665D01*
X112379057Y-100790568D01*
X112359095Y-100980498D01*
X112379057Y-101170428D01*
X112438071Y-101352055D01*
X112533557Y-101517441D01*
X112594189Y-101584780D01*
X112661346Y-101659365D01*
X112815847Y-101771617D01*
X112990311Y-101849293D01*
X113177112Y-101888999D01*
X113368084Y-101888999D01*
X113368086Y-101888999D01*
X113428305Y-101876199D01*
X115159204Y-101876199D01*
X115178329Y-102045940D01*
X115234744Y-102207163D01*
X115235801Y-102208845D01*
X115568446Y-101876201D01*
X116275553Y-101876201D01*
X116421999Y-102022647D01*
X116422001Y-102022647D01*
X116568447Y-101876201D01*
X117275553Y-101876201D01*
X117608196Y-102208844D01*
X117608198Y-102208844D01*
X117609256Y-102207162D01*
X117665670Y-102045940D01*
X117684795Y-101876199D01*
X117665670Y-101706459D01*
X117609255Y-101545235D01*
X117608198Y-101543554D01*
X117275553Y-101876200D01*
X117275553Y-101876201D01*
X116568447Y-101876201D01*
X116568447Y-101876199D01*
X116422001Y-101729753D01*
X116421999Y-101729753D01*
X116275553Y-101876199D01*
X116275553Y-101876201D01*
X115568446Y-101876201D01*
X115568447Y-101876200D01*
X115568447Y-101876199D01*
X115235801Y-101543553D01*
X115234743Y-101545238D01*
X115178329Y-101706459D01*
X115159204Y-101876199D01*
X113428305Y-101876199D01*
X113554887Y-101849293D01*
X113729351Y-101771617D01*
X113883852Y-101659365D01*
X114011639Y-101517443D01*
X114093185Y-101376201D01*
X115775553Y-101376201D01*
X115921999Y-101522647D01*
X115922001Y-101522647D01*
X116068447Y-101376201D01*
X116775553Y-101376201D01*
X116921999Y-101522647D01*
X116922001Y-101522647D01*
X117068447Y-101376201D01*
X117068447Y-101376199D01*
X116922001Y-101229753D01*
X116921999Y-101229753D01*
X116775553Y-101376199D01*
X116775553Y-101376201D01*
X116068447Y-101376201D01*
X116068447Y-101376199D01*
X115922001Y-101229753D01*
X115921999Y-101229753D01*
X115775553Y-101376199D01*
X115775553Y-101376201D01*
X114093185Y-101376201D01*
X114107126Y-101352055D01*
X114166141Y-101170427D01*
X114186103Y-100980499D01*
X114175141Y-100876200D01*
X115159204Y-100876200D01*
X115178329Y-101045940D01*
X115234744Y-101207163D01*
X115235801Y-101208845D01*
X115568446Y-100876201D01*
X116275553Y-100876201D01*
X116421999Y-101022647D01*
X116422001Y-101022647D01*
X116568447Y-100876201D01*
X117275553Y-100876201D01*
X117608196Y-101208844D01*
X117608198Y-101208844D01*
X117609256Y-101207162D01*
X117665670Y-101045940D01*
X117684795Y-100876200D01*
X117665670Y-100706459D01*
X117609255Y-100545235D01*
X117608198Y-100543554D01*
X117275553Y-100876200D01*
X117275553Y-100876201D01*
X116568447Y-100876201D01*
X116568447Y-100876199D01*
X116422001Y-100729753D01*
X116421999Y-100729753D01*
X116275553Y-100876199D01*
X116275553Y-100876201D01*
X115568446Y-100876201D01*
X115568447Y-100876200D01*
X115568447Y-100876199D01*
X115235801Y-100543553D01*
X115234743Y-100545238D01*
X115178329Y-100706459D01*
X115159204Y-100876200D01*
X114175141Y-100876200D01*
X114166141Y-100790571D01*
X114107126Y-100608943D01*
X114107126Y-100608942D01*
X114011640Y-100443556D01*
X113883851Y-100301632D01*
X113841559Y-100270905D01*
X113806501Y-100231969D01*
X113792865Y-100190001D01*
X115589353Y-100190001D01*
X115921999Y-100522647D01*
X115922000Y-100522647D01*
X116254645Y-100190001D01*
X116589353Y-100190001D01*
X116921999Y-100522647D01*
X116922000Y-100522647D01*
X117254645Y-100190001D01*
X117252963Y-100188944D01*
X117091740Y-100132529D01*
X116922000Y-100113404D01*
X116752259Y-100132529D01*
X116591038Y-100188943D01*
X116589353Y-100190001D01*
X116254645Y-100190001D01*
X116252963Y-100188944D01*
X116091740Y-100132529D01*
X115922000Y-100113404D01*
X115752259Y-100132529D01*
X115591038Y-100188943D01*
X115589353Y-100190001D01*
X113792865Y-100190001D01*
X113790310Y-100182139D01*
X113795787Y-100130033D01*
X113824583Y-100041408D01*
X113855542Y-99946128D01*
X113875504Y-99756200D01*
X113855542Y-99566272D01*
X113818965Y-99453700D01*
X113796527Y-99384643D01*
X113701041Y-99219257D01*
X113588582Y-99094359D01*
X113573253Y-99077334D01*
X113418752Y-98965082D01*
X113244288Y-98887406D01*
X113057487Y-98847700D01*
X112866513Y-98847700D01*
X112741978Y-98874170D01*
X112679711Y-98887406D01*
X112505246Y-98965083D01*
X112350747Y-99077333D01*
X112222958Y-99219257D01*
X112127472Y-99384643D01*
X112068458Y-99566270D01*
X112068457Y-99566272D01*
X112068458Y-99566272D01*
X112048496Y-99756200D01*
X108666345Y-99756200D01*
X108772101Y-99659791D01*
X108895903Y-99495850D01*
X108987474Y-99311952D01*
X109043694Y-99114359D01*
X109062649Y-98909800D01*
X109043694Y-98705241D01*
X108987474Y-98507648D01*
X108982095Y-98496845D01*
X114823858Y-98496845D01*
X114843820Y-98686775D01*
X114902834Y-98868402D01*
X114998320Y-99033788D01*
X115098914Y-99145509D01*
X115126109Y-99175712D01*
X115280610Y-99287964D01*
X115455074Y-99365640D01*
X115641875Y-99405346D01*
X115832847Y-99405346D01*
X115832849Y-99405346D01*
X116019650Y-99365640D01*
X116194114Y-99287964D01*
X116348615Y-99175712D01*
X116348617Y-99175709D01*
X116358751Y-99168347D01*
X116415276Y-99145509D01*
X116475907Y-99151882D01*
X116526446Y-99185971D01*
X116560747Y-99224066D01*
X116715248Y-99336318D01*
X116889712Y-99413994D01*
X117076513Y-99453700D01*
X117267485Y-99453700D01*
X117267487Y-99453700D01*
X117454288Y-99413994D01*
X117628752Y-99336318D01*
X117783253Y-99224066D01*
X117911040Y-99082144D01*
X118006527Y-98916756D01*
X118065542Y-98735128D01*
X118085504Y-98545200D01*
X118065542Y-98355272D01*
X118025351Y-98231578D01*
X118006527Y-98173643D01*
X117911041Y-98008257D01*
X117804709Y-97890163D01*
X117783253Y-97866334D01*
X117769127Y-97856071D01*
X117628753Y-97754083D01*
X117628752Y-97754082D01*
X117454288Y-97676406D01*
X117267487Y-97636700D01*
X117076513Y-97636700D01*
X116951978Y-97663170D01*
X116889711Y-97676406D01*
X116715246Y-97754083D01*
X116550610Y-97873698D01*
X116494084Y-97896536D01*
X116433453Y-97890163D01*
X116382912Y-97856071D01*
X116367585Y-97839049D01*
X116348615Y-97817980D01*
X116194114Y-97705728D01*
X116019650Y-97628052D01*
X115832849Y-97588346D01*
X115641875Y-97588346D01*
X115517341Y-97614816D01*
X115455073Y-97628052D01*
X115280608Y-97705729D01*
X115126109Y-97817979D01*
X114998320Y-97959903D01*
X114902834Y-98125289D01*
X114843820Y-98306916D01*
X114823858Y-98496845D01*
X108982095Y-98496845D01*
X108895903Y-98323750D01*
X108772101Y-98159809D01*
X108620282Y-98021408D01*
X108520947Y-97959902D01*
X108445619Y-97913260D01*
X108254055Y-97839049D01*
X108254054Y-97839048D01*
X108052118Y-97801300D01*
X107846682Y-97801300D01*
X107724479Y-97824144D01*
X107644744Y-97839049D01*
X107453180Y-97913260D01*
X107278519Y-98021407D01*
X107216090Y-98078318D01*
X107126699Y-98159809D01*
X107078266Y-98223944D01*
X107072501Y-98231579D01*
X107028113Y-98268437D01*
X106971950Y-98281646D01*
X106915787Y-98268436D01*
X106871401Y-98231578D01*
X106802101Y-98139809D01*
X106650282Y-98001408D01*
X106583248Y-97959902D01*
X106475619Y-97893260D01*
X106284055Y-97819049D01*
X106278331Y-97817979D01*
X106082118Y-97781300D01*
X105876682Y-97781300D01*
X105769693Y-97801300D01*
X105674744Y-97819049D01*
X105483180Y-97893260D01*
X105308519Y-98001407D01*
X105156698Y-98139810D01*
X105032897Y-98303749D01*
X104941325Y-98487648D01*
X104885105Y-98685242D01*
X104866150Y-98889800D01*
X104885105Y-99094357D01*
X104941325Y-99291951D01*
X105032896Y-99475849D01*
X105032897Y-99475850D01*
X105156699Y-99639791D01*
X105308518Y-99778192D01*
X105348055Y-99802672D01*
X105391801Y-99848485D01*
X105407725Y-99909797D01*
X105391802Y-99971109D01*
X105348057Y-100016925D01*
X105308521Y-100041405D01*
X105156698Y-100179810D01*
X105032897Y-100343749D01*
X104941325Y-100527648D01*
X104885105Y-100725242D01*
X104866150Y-100929799D01*
X75192583Y-100929799D01*
X75184001Y-97917408D01*
X75184001Y-97916665D01*
X75188577Y-97095200D01*
X82758389Y-97095200D01*
X82778803Y-97380624D01*
X82778804Y-97380628D01*
X82839631Y-97660246D01*
X82939633Y-97928361D01*
X82979520Y-98001408D01*
X83076775Y-98179517D01*
X83248262Y-98408597D01*
X83450602Y-98610937D01*
X83616503Y-98735129D01*
X83679685Y-98782426D01*
X83930839Y-98919567D01*
X84198954Y-99019569D01*
X84478572Y-99080396D01*
X84692552Y-99095700D01*
X84835447Y-99095700D01*
X84835448Y-99095700D01*
X85049428Y-99080396D01*
X85329046Y-99019569D01*
X85597161Y-98919567D01*
X85848315Y-98782426D01*
X86077395Y-98610939D01*
X86279739Y-98408595D01*
X86451226Y-98179515D01*
X86588367Y-97928361D01*
X86688369Y-97660246D01*
X86749196Y-97380628D01*
X86755878Y-97287200D01*
X113096496Y-97287200D01*
X113116458Y-97477129D01*
X113175472Y-97658756D01*
X113270958Y-97824142D01*
X113330404Y-97890163D01*
X113398747Y-97966066D01*
X113553248Y-98078318D01*
X113727712Y-98155994D01*
X113914513Y-98195700D01*
X114105485Y-98195700D01*
X114105487Y-98195700D01*
X114292288Y-98155994D01*
X114466752Y-98078318D01*
X114621253Y-97966066D01*
X114749040Y-97824144D01*
X114844527Y-97658756D01*
X114903542Y-97477128D01*
X114923504Y-97287200D01*
X114903542Y-97097272D01*
X114844527Y-96915644D01*
X114844527Y-96915643D01*
X114749041Y-96750257D01*
X114621252Y-96608333D01*
X114466753Y-96496083D01*
X114466752Y-96496082D01*
X114292288Y-96418406D01*
X114105487Y-96378700D01*
X113914513Y-96378700D01*
X113789979Y-96405170D01*
X113727711Y-96418406D01*
X113553246Y-96496083D01*
X113398747Y-96608333D01*
X113270958Y-96750257D01*
X113175472Y-96915643D01*
X113116458Y-97097270D01*
X113096496Y-97287200D01*
X86755878Y-97287200D01*
X86769610Y-97095200D01*
X86749196Y-96809772D01*
X86688369Y-96530154D01*
X86588367Y-96262039D01*
X86451226Y-96010885D01*
X86279739Y-95781805D01*
X86279737Y-95781802D01*
X86077397Y-95579462D01*
X85848317Y-95407975D01*
X85805961Y-95384846D01*
X85597161Y-95270833D01*
X85329046Y-95170831D01*
X85153946Y-95132740D01*
X85049424Y-95110003D01*
X84854931Y-95096093D01*
X84835448Y-95094700D01*
X84692552Y-95094700D01*
X84674694Y-95095977D01*
X84478575Y-95110003D01*
X84285776Y-95151944D01*
X84198954Y-95170831D01*
X83930839Y-95270833D01*
X83930837Y-95270833D01*
X83930837Y-95270834D01*
X83679682Y-95407975D01*
X83450602Y-95579462D01*
X83248262Y-95781802D01*
X83076775Y-96010882D01*
X82939634Y-96262037D01*
X82839631Y-96530154D01*
X82778803Y-96809775D01*
X82758389Y-97095200D01*
X75188577Y-97095200D01*
X75202395Y-94614999D01*
X86716496Y-94614999D01*
X86736458Y-94804929D01*
X86795472Y-94986556D01*
X86890958Y-95151942D01*
X86890960Y-95151944D01*
X87018747Y-95293866D01*
X87173248Y-95406118D01*
X87347712Y-95483794D01*
X87534513Y-95523500D01*
X87725485Y-95523500D01*
X87725487Y-95523500D01*
X87912288Y-95483794D01*
X88086752Y-95406118D01*
X88241253Y-95293866D01*
X88369040Y-95151944D01*
X88464527Y-94986556D01*
X88523542Y-94804928D01*
X88543504Y-94615000D01*
X88523542Y-94425072D01*
X88464527Y-94243444D01*
X88464527Y-94243443D01*
X88369041Y-94078057D01*
X88299488Y-94000811D01*
X88270867Y-93946982D01*
X88270867Y-93886018D01*
X88299488Y-93832189D01*
X88369040Y-93754944D01*
X88464527Y-93589556D01*
X88523542Y-93407928D01*
X88543504Y-93218000D01*
X88541738Y-93201199D01*
X100896496Y-93201199D01*
X100916458Y-93391129D01*
X100975472Y-93572756D01*
X101070958Y-93738142D01*
X101070960Y-93738144D01*
X101198747Y-93880066D01*
X101353248Y-93992318D01*
X101527712Y-94069994D01*
X101714513Y-94109700D01*
X101905485Y-94109700D01*
X101905487Y-94109700D01*
X102092288Y-94069994D01*
X102266752Y-93992318D01*
X102421253Y-93880066D01*
X102549040Y-93738144D01*
X102644527Y-93572756D01*
X102703542Y-93391128D01*
X102723504Y-93201200D01*
X102703542Y-93011272D01*
X102649986Y-92846444D01*
X102644527Y-92829643D01*
X102549041Y-92664257D01*
X102421252Y-92522333D01*
X102266753Y-92410083D01*
X102266752Y-92410082D01*
X102092288Y-92332406D01*
X101905487Y-92292700D01*
X101714513Y-92292700D01*
X101589979Y-92319170D01*
X101527711Y-92332406D01*
X101353246Y-92410083D01*
X101198747Y-92522333D01*
X101070958Y-92664257D01*
X100975472Y-92829643D01*
X100916458Y-93011270D01*
X100896496Y-93201199D01*
X88541738Y-93201199D01*
X88523542Y-93028072D01*
X88492931Y-92933862D01*
X88464527Y-92846443D01*
X88369041Y-92681058D01*
X88369040Y-92681056D01*
X88356663Y-92667310D01*
X88328042Y-92613483D01*
X88328042Y-92552517D01*
X88356663Y-92498689D01*
X88369040Y-92484944D01*
X88464527Y-92319556D01*
X88502724Y-92202000D01*
X121641496Y-92202000D01*
X121661458Y-92391929D01*
X121720472Y-92573556D01*
X121815958Y-92738942D01*
X121912752Y-92846443D01*
X121943747Y-92880866D01*
X122098248Y-92993118D01*
X122272712Y-93070794D01*
X122459513Y-93110500D01*
X122650485Y-93110500D01*
X122650487Y-93110500D01*
X122837288Y-93070794D01*
X123011752Y-92993118D01*
X123166253Y-92880866D01*
X123294040Y-92738944D01*
X123389527Y-92573556D01*
X123448542Y-92391928D01*
X123468504Y-92202000D01*
X123448542Y-92012072D01*
X123417931Y-91917862D01*
X123389527Y-91830443D01*
X123294041Y-91665057D01*
X123214253Y-91576443D01*
X123166253Y-91523134D01*
X123011752Y-91410882D01*
X122837288Y-91333206D01*
X122650487Y-91293500D01*
X122459513Y-91293500D01*
X122334978Y-91319970D01*
X122272711Y-91333206D01*
X122098246Y-91410883D01*
X121943747Y-91523133D01*
X121815958Y-91665057D01*
X121720472Y-91830443D01*
X121661458Y-92012070D01*
X121641496Y-92202000D01*
X88502724Y-92202000D01*
X88523542Y-92137928D01*
X88543504Y-91948000D01*
X88523542Y-91758072D01*
X88492931Y-91663862D01*
X88464527Y-91576443D01*
X88369041Y-91411057D01*
X88241252Y-91269133D01*
X88086753Y-91156883D01*
X88086752Y-91156882D01*
X87912288Y-91079206D01*
X87725487Y-91039500D01*
X87534513Y-91039500D01*
X87409978Y-91065970D01*
X87347711Y-91079206D01*
X87173246Y-91156883D01*
X87018747Y-91269133D01*
X86890958Y-91411057D01*
X86795472Y-91576443D01*
X86736458Y-91758070D01*
X86716496Y-91948000D01*
X86736458Y-92137929D01*
X86795472Y-92319556D01*
X86890958Y-92484942D01*
X86903335Y-92498688D01*
X86931956Y-92552515D01*
X86931957Y-92613478D01*
X86903339Y-92667306D01*
X86890959Y-92681056D01*
X86795472Y-92846443D01*
X86736458Y-93028070D01*
X86716496Y-93217999D01*
X86736458Y-93407929D01*
X86795472Y-93589556D01*
X86890958Y-93754942D01*
X86960512Y-93832190D01*
X86989132Y-93886018D01*
X86989132Y-93946982D01*
X86960512Y-94000810D01*
X86890958Y-94078057D01*
X86795472Y-94243443D01*
X86736458Y-94425070D01*
X86716496Y-94614999D01*
X75202395Y-94614999D01*
X75220873Y-91298225D01*
X80326871Y-91298225D01*
X80346833Y-91488154D01*
X80405847Y-91669781D01*
X80501333Y-91835167D01*
X80501335Y-91835169D01*
X80629122Y-91977091D01*
X80783623Y-92089343D01*
X80958087Y-92167019D01*
X81144888Y-92206725D01*
X81335860Y-92206725D01*
X81335862Y-92206725D01*
X81522663Y-92167019D01*
X81697127Y-92089343D01*
X81851628Y-91977091D01*
X81979415Y-91835169D01*
X82074902Y-91669781D01*
X82133917Y-91488153D01*
X82153879Y-91298225D01*
X82133917Y-91108297D01*
X82074902Y-90926669D01*
X82074902Y-90926668D01*
X81979416Y-90761282D01*
X81904429Y-90678000D01*
X84827696Y-90678000D01*
X84847658Y-90867929D01*
X84906672Y-91049556D01*
X85002158Y-91214942D01*
X85002160Y-91214944D01*
X85129947Y-91356866D01*
X85284448Y-91469118D01*
X85458912Y-91546794D01*
X85645713Y-91586500D01*
X85836685Y-91586500D01*
X85836687Y-91586500D01*
X86023488Y-91546794D01*
X86197952Y-91469118D01*
X86352453Y-91356866D01*
X86480240Y-91214944D01*
X86575727Y-91049556D01*
X86634742Y-90867928D01*
X86654704Y-90678000D01*
X86634742Y-90488072D01*
X86596201Y-90369457D01*
X86575727Y-90306443D01*
X86480241Y-90141057D01*
X86352452Y-89999133D01*
X86197953Y-89886883D01*
X86197952Y-89886882D01*
X86023488Y-89809206D01*
X85836687Y-89769500D01*
X85645713Y-89769500D01*
X85521178Y-89795970D01*
X85458911Y-89809206D01*
X85284446Y-89886883D01*
X85129947Y-89999133D01*
X85002158Y-90141057D01*
X84906672Y-90306443D01*
X84847658Y-90488070D01*
X84827696Y-90678000D01*
X81904429Y-90678000D01*
X81851627Y-90619358D01*
X81697126Y-90507106D01*
X81637694Y-90480645D01*
X81591859Y-90445854D01*
X81566273Y-90394310D01*
X81566273Y-90336766D01*
X81591860Y-90285223D01*
X81637692Y-90250434D01*
X81752952Y-90199118D01*
X81907453Y-90086866D01*
X82035240Y-89944944D01*
X82130727Y-89779556D01*
X82189742Y-89597928D01*
X82209704Y-89408000D01*
X82189742Y-89218072D01*
X82159131Y-89123862D01*
X82130727Y-89036443D01*
X82051951Y-88899999D01*
X121641496Y-88899999D01*
X121661458Y-89089929D01*
X121720472Y-89271556D01*
X121815958Y-89436942D01*
X121815960Y-89436944D01*
X121943747Y-89578866D01*
X122098248Y-89691118D01*
X122272712Y-89768794D01*
X122459513Y-89808500D01*
X122650485Y-89808500D01*
X122650487Y-89808500D01*
X122837288Y-89768794D01*
X123011752Y-89691118D01*
X123166253Y-89578866D01*
X123294040Y-89436944D01*
X123389527Y-89271556D01*
X123448542Y-89089928D01*
X123468504Y-88900000D01*
X123448542Y-88710072D01*
X123389527Y-88528444D01*
X123389527Y-88528443D01*
X123294041Y-88363057D01*
X123166252Y-88221133D01*
X123011753Y-88108883D01*
X123011752Y-88108882D01*
X122837288Y-88031206D01*
X122650487Y-87991500D01*
X122459513Y-87991500D01*
X122334978Y-88017970D01*
X122272711Y-88031206D01*
X122098246Y-88108883D01*
X121943747Y-88221133D01*
X121815958Y-88363057D01*
X121720472Y-88528443D01*
X121661458Y-88710070D01*
X121641496Y-88899999D01*
X82051951Y-88899999D01*
X82035241Y-88871057D01*
X81907452Y-88729133D01*
X81752953Y-88616883D01*
X81752952Y-88616882D01*
X81578488Y-88539206D01*
X81391687Y-88499500D01*
X81200713Y-88499500D01*
X81076178Y-88525970D01*
X81013911Y-88539206D01*
X80839446Y-88616883D01*
X80684947Y-88729133D01*
X80557158Y-88871057D01*
X80461672Y-89036443D01*
X80402658Y-89218070D01*
X80382696Y-89408000D01*
X80402658Y-89597929D01*
X80461672Y-89779556D01*
X80557158Y-89944942D01*
X80557160Y-89944944D01*
X80684947Y-90086866D01*
X80839448Y-90199118D01*
X80898879Y-90225578D01*
X80944715Y-90260370D01*
X80970301Y-90311913D01*
X80970301Y-90369457D01*
X80944715Y-90421000D01*
X80898879Y-90455792D01*
X80783621Y-90507108D01*
X80629122Y-90619358D01*
X80501333Y-90761282D01*
X80405847Y-90926668D01*
X80346833Y-91108295D01*
X80326871Y-91298225D01*
X75220873Y-91298225D01*
X75246969Y-86613999D01*
X114021496Y-86613999D01*
X114041458Y-86803929D01*
X114100472Y-86985556D01*
X114195958Y-87150942D01*
X114195960Y-87150944D01*
X114323747Y-87292866D01*
X114478248Y-87405118D01*
X114652712Y-87482794D01*
X114839513Y-87522500D01*
X115030485Y-87522500D01*
X115030487Y-87522500D01*
X115217288Y-87482794D01*
X115391752Y-87405118D01*
X115546253Y-87292866D01*
X115674040Y-87150944D01*
X115769527Y-86985556D01*
X115828542Y-86803928D01*
X115848504Y-86614000D01*
X115828542Y-86424072D01*
X115769527Y-86242444D01*
X115769527Y-86242443D01*
X115674041Y-86077057D01*
X115546252Y-85935133D01*
X115391753Y-85822883D01*
X115391752Y-85822882D01*
X115217288Y-85745206D01*
X115030487Y-85705500D01*
X114839513Y-85705500D01*
X114744038Y-85725794D01*
X114652711Y-85745206D01*
X114478246Y-85822883D01*
X114323747Y-85935133D01*
X114195958Y-86077057D01*
X114100472Y-86242443D01*
X114041458Y-86424070D01*
X114021496Y-86613999D01*
X75246969Y-86613999D01*
X75256757Y-84856999D01*
X94664096Y-84856999D01*
X94684058Y-85046929D01*
X94743072Y-85228556D01*
X94838558Y-85393942D01*
X94838560Y-85393944D01*
X94966347Y-85535866D01*
X95120848Y-85648118D01*
X95295312Y-85725794D01*
X95482113Y-85765500D01*
X95673085Y-85765500D01*
X95673087Y-85765500D01*
X95859888Y-85725794D01*
X96034352Y-85648118D01*
X96188853Y-85535866D01*
X96316640Y-85393944D01*
X96412127Y-85228556D01*
X96450259Y-85111200D01*
X101886496Y-85111200D01*
X101906458Y-85301129D01*
X101965472Y-85482756D01*
X102060958Y-85648142D01*
X102130875Y-85725793D01*
X102188747Y-85790066D01*
X102343248Y-85902318D01*
X102517712Y-85979994D01*
X102704513Y-86019700D01*
X102895485Y-86019700D01*
X102895487Y-86019700D01*
X103082288Y-85979994D01*
X103256752Y-85902318D01*
X103411253Y-85790066D01*
X103539040Y-85648144D01*
X103634527Y-85482756D01*
X103693542Y-85301128D01*
X103713504Y-85111200D01*
X103693542Y-84921272D01*
X103659270Y-84815793D01*
X103634527Y-84739643D01*
X103539041Y-84574257D01*
X103459073Y-84485444D01*
X103411253Y-84432334D01*
X103256752Y-84320082D01*
X103082288Y-84242406D01*
X102895487Y-84202700D01*
X102704513Y-84202700D01*
X102579979Y-84229170D01*
X102517711Y-84242406D01*
X102377696Y-84304744D01*
X102343307Y-84320056D01*
X102343246Y-84320083D01*
X102188747Y-84432333D01*
X102060958Y-84574257D01*
X101965472Y-84739643D01*
X101906458Y-84921270D01*
X101886496Y-85111200D01*
X96450259Y-85111200D01*
X96471142Y-85046928D01*
X96491104Y-84857000D01*
X96481033Y-84761183D01*
X96488245Y-84704095D01*
X96520090Y-84656165D01*
X96569925Y-84627393D01*
X96627356Y-84623780D01*
X96680403Y-84646078D01*
X96820848Y-84748118D01*
X96995312Y-84825794D01*
X97182113Y-84865500D01*
X97373085Y-84865500D01*
X97373087Y-84865500D01*
X97559888Y-84825794D01*
X97734352Y-84748118D01*
X97888853Y-84635866D01*
X98016640Y-84493944D01*
X98112127Y-84328556D01*
X98171142Y-84146928D01*
X98191104Y-83957000D01*
X98190053Y-83947000D01*
X112370496Y-83947000D01*
X112390458Y-84136929D01*
X112449472Y-84318556D01*
X112544958Y-84483942D01*
X112553962Y-84493942D01*
X112672747Y-84625866D01*
X112827248Y-84738118D01*
X113001712Y-84815794D01*
X113188513Y-84855500D01*
X113379485Y-84855500D01*
X113379487Y-84855500D01*
X113566288Y-84815794D01*
X113740752Y-84738118D01*
X113844943Y-84662418D01*
X113892801Y-84641111D01*
X113945195Y-84641110D01*
X113993061Y-84662421D01*
X114097248Y-84738118D01*
X114271712Y-84815794D01*
X114458513Y-84855500D01*
X114649485Y-84855500D01*
X114649487Y-84855500D01*
X114836288Y-84815794D01*
X115010752Y-84738118D01*
X115165253Y-84625866D01*
X115293040Y-84483944D01*
X115388527Y-84318556D01*
X115447542Y-84136928D01*
X115467504Y-83947000D01*
X115447542Y-83757072D01*
X115398653Y-83606608D01*
X125349500Y-83606608D01*
X125388679Y-83816198D01*
X125465702Y-84015021D01*
X125577947Y-84196301D01*
X125577948Y-84196302D01*
X125721593Y-84353872D01*
X125891745Y-84482366D01*
X126082611Y-84577405D01*
X126287690Y-84635756D01*
X126446806Y-84650500D01*
X126553188Y-84650500D01*
X126553194Y-84650500D01*
X126712310Y-84635756D01*
X126917389Y-84577405D01*
X127108255Y-84482366D01*
X127278407Y-84353872D01*
X127422052Y-84196302D01*
X127534298Y-84015019D01*
X127611321Y-83816198D01*
X127650500Y-83606610D01*
X127650500Y-83499999D01*
X129944416Y-83499999D01*
X129964699Y-83705929D01*
X129964699Y-83705931D01*
X129964700Y-83705934D01*
X129983246Y-83767072D01*
X130024769Y-83903956D01*
X130122314Y-84086449D01*
X130253589Y-84246410D01*
X130413549Y-84377684D01*
X130413550Y-84377685D01*
X130596046Y-84475232D01*
X130794066Y-84535300D01*
X130882252Y-84543985D01*
X130948389Y-84550500D01*
X130948392Y-84550500D01*
X131051608Y-84550500D01*
X131051611Y-84550500D01*
X131109480Y-84544799D01*
X131205934Y-84535300D01*
X131403954Y-84475232D01*
X131586450Y-84377685D01*
X131746410Y-84246410D01*
X131877685Y-84086450D01*
X131975232Y-83903954D01*
X132035300Y-83705934D01*
X132055583Y-83500000D01*
X132035300Y-83294066D01*
X131975232Y-83096046D01*
X131877685Y-82913550D01*
X131811534Y-82832944D01*
X131746410Y-82753589D01*
X131586449Y-82622314D01*
X131403956Y-82524769D01*
X131403955Y-82524768D01*
X131403954Y-82524768D01*
X131205934Y-82464700D01*
X131205931Y-82464699D01*
X131205929Y-82464699D01*
X131051611Y-82449500D01*
X131051608Y-82449500D01*
X130948392Y-82449500D01*
X130948389Y-82449500D01*
X130794070Y-82464699D01*
X130794067Y-82464699D01*
X130794066Y-82464700D01*
X130724086Y-82485928D01*
X130596043Y-82524769D01*
X130413550Y-82622314D01*
X130253589Y-82753589D01*
X130122314Y-82913550D01*
X130024769Y-83096043D01*
X130024768Y-83096045D01*
X130024768Y-83096046D01*
X130003584Y-83165883D01*
X129964699Y-83294070D01*
X129944416Y-83499999D01*
X127650500Y-83499999D01*
X127650500Y-83393390D01*
X127611321Y-83183802D01*
X127534298Y-82984981D01*
X127534297Y-82984978D01*
X127422052Y-82803698D01*
X127376371Y-82753589D01*
X127278407Y-82646128D01*
X127193330Y-82581880D01*
X127108257Y-82517635D01*
X126917387Y-82422594D01*
X126712312Y-82364244D01*
X126672531Y-82360558D01*
X126553194Y-82349500D01*
X126446806Y-82349500D01*
X126340728Y-82359329D01*
X126287687Y-82364244D01*
X126082612Y-82422594D01*
X125891742Y-82517635D01*
X125721594Y-82646127D01*
X125577947Y-82803698D01*
X125465702Y-82984978D01*
X125388679Y-83183801D01*
X125349500Y-83393392D01*
X125349500Y-83606608D01*
X115398653Y-83606608D01*
X115388527Y-83575443D01*
X115293041Y-83410057D01*
X115165250Y-83268131D01*
X115103732Y-83223436D01*
X115065525Y-83178703D01*
X115051792Y-83121500D01*
X115065525Y-83064297D01*
X115103732Y-83019564D01*
X115165250Y-82974868D01*
X115165249Y-82974868D01*
X115165253Y-82974866D01*
X115293040Y-82832944D01*
X115388527Y-82667556D01*
X115447542Y-82485928D01*
X115467504Y-82296000D01*
X115447542Y-82106072D01*
X115388527Y-81924444D01*
X115388527Y-81924443D01*
X115293041Y-81759057D01*
X115165252Y-81617133D01*
X115010753Y-81504883D01*
X115010752Y-81504882D01*
X114836288Y-81427206D01*
X114649487Y-81387500D01*
X114458513Y-81387500D01*
X114347019Y-81411199D01*
X114271711Y-81427206D01*
X114097246Y-81504883D01*
X113993060Y-81580579D01*
X113945195Y-81601890D01*
X113892801Y-81601889D01*
X113844943Y-81580581D01*
X113740752Y-81504882D01*
X113566288Y-81427206D01*
X113379487Y-81387500D01*
X113188513Y-81387500D01*
X113077019Y-81411199D01*
X113001711Y-81427206D01*
X112827246Y-81504883D01*
X112672747Y-81617133D01*
X112544958Y-81759057D01*
X112449472Y-81924443D01*
X112390458Y-82106070D01*
X112370496Y-82296000D01*
X112390458Y-82485929D01*
X112449472Y-82667556D01*
X112544958Y-82832942D01*
X112672746Y-82974865D01*
X112734268Y-83019564D01*
X112772473Y-83064298D01*
X112786206Y-83121500D01*
X112772473Y-83178702D01*
X112734268Y-83223436D01*
X112672746Y-83268134D01*
X112544958Y-83410057D01*
X112449472Y-83575443D01*
X112390458Y-83757070D01*
X112370496Y-83947000D01*
X98190053Y-83947000D01*
X98171142Y-83767072D01*
X98140531Y-83672862D01*
X98112127Y-83585443D01*
X98016641Y-83420057D01*
X97888852Y-83278133D01*
X97811602Y-83222007D01*
X97734352Y-83165882D01*
X97559888Y-83088206D01*
X97373087Y-83048500D01*
X97182113Y-83048500D01*
X97107790Y-83064298D01*
X96995311Y-83088206D01*
X96920534Y-83121499D01*
X96843309Y-83155882D01*
X96820846Y-83165883D01*
X96666347Y-83278133D01*
X96538558Y-83420057D01*
X96443072Y-83585443D01*
X96384058Y-83767070D01*
X96364096Y-83957000D01*
X96374166Y-84052814D01*
X96366953Y-84109905D01*
X96335109Y-84157834D01*
X96285274Y-84186606D01*
X96227843Y-84190219D01*
X96174795Y-84167920D01*
X96034353Y-84065883D01*
X96034352Y-84065882D01*
X95859888Y-83988206D01*
X95673087Y-83948500D01*
X95482113Y-83948500D01*
X95357578Y-83974970D01*
X95295311Y-83988206D01*
X95120846Y-84065883D01*
X94966347Y-84178133D01*
X94838558Y-84320057D01*
X94743072Y-84485443D01*
X94684058Y-84667070D01*
X94664096Y-84856999D01*
X75256757Y-84856999D01*
X75269287Y-82607927D01*
X98107405Y-82607927D01*
X98193384Y-82653052D01*
X98360326Y-82694200D01*
X98532256Y-82694200D01*
X98699196Y-82653053D01*
X98785175Y-82607927D01*
X98785175Y-82607925D01*
X98446292Y-82269042D01*
X98446291Y-82269042D01*
X98107405Y-82607926D01*
X98107405Y-82607927D01*
X75269287Y-82607927D01*
X75272490Y-82032927D01*
X97157405Y-82032927D01*
X97243384Y-82078052D01*
X97410326Y-82119200D01*
X97582259Y-82119200D01*
X97617696Y-82110465D01*
X97678004Y-82110464D01*
X97731404Y-82138490D01*
X97765663Y-82188122D01*
X97814783Y-82317641D01*
X97821816Y-82327830D01*
X98357194Y-81792452D01*
X98413679Y-81759840D01*
X98478901Y-81759840D01*
X98535386Y-81792452D01*
X99070764Y-82327830D01*
X99077797Y-82317641D01*
X99126917Y-82188123D01*
X99161175Y-82138491D01*
X99214575Y-82110464D01*
X99274883Y-82110464D01*
X99310326Y-82119200D01*
X99482256Y-82119200D01*
X99649196Y-82078053D01*
X99735175Y-82032927D01*
X99735175Y-82032926D01*
X99202543Y-81500295D01*
X99169931Y-81443810D01*
X99169931Y-81411199D01*
X99679133Y-81411199D01*
X100020764Y-81752830D01*
X100027797Y-81742640D01*
X100088767Y-81581878D01*
X100109491Y-81411200D01*
X100088767Y-81240521D01*
X100027798Y-81079760D01*
X100020763Y-81069567D01*
X99679133Y-81411198D01*
X99679133Y-81411199D01*
X99169931Y-81411199D01*
X99169931Y-81378588D01*
X99202543Y-81322103D01*
X99396291Y-81128356D01*
X99396291Y-81128357D01*
X99735175Y-80789472D01*
X99735175Y-80789471D01*
X99649196Y-80744347D01*
X99482256Y-80703200D01*
X99310323Y-80703200D01*
X99274881Y-80711935D01*
X99214574Y-80711934D01*
X99161175Y-80683908D01*
X99126917Y-80634276D01*
X99077798Y-80504760D01*
X99070763Y-80494567D01*
X98692234Y-80873096D01*
X98692228Y-80873106D01*
X98535386Y-81029948D01*
X98478902Y-81062560D01*
X98413680Y-81062560D01*
X98357196Y-81029948D01*
X98181172Y-80853924D01*
X98181168Y-80853918D01*
X97821817Y-80494567D01*
X97821816Y-80494567D01*
X97814784Y-80504757D01*
X97765663Y-80634277D01*
X97731404Y-80683909D01*
X97678005Y-80711935D01*
X97617698Y-80711935D01*
X97582258Y-80703200D01*
X97410324Y-80703200D01*
X97243388Y-80744345D01*
X97157405Y-80789472D01*
X97496291Y-81128357D01*
X97690038Y-81322104D01*
X97722650Y-81378588D01*
X97722650Y-81443810D01*
X97690038Y-81500295D01*
X97157405Y-82032926D01*
X97157405Y-82032927D01*
X75272490Y-82032927D01*
X75275954Y-81411200D01*
X96783090Y-81411200D01*
X96803814Y-81581878D01*
X96864783Y-81742640D01*
X96871816Y-81752830D01*
X97213448Y-81411199D01*
X97213448Y-81411198D01*
X96871817Y-81069567D01*
X96871816Y-81069567D01*
X96864783Y-81079758D01*
X96803814Y-81240521D01*
X96783090Y-81411200D01*
X75275954Y-81411200D01*
X75282621Y-80214472D01*
X98107405Y-80214472D01*
X98446290Y-80553356D01*
X98785175Y-80214471D01*
X98699196Y-80169347D01*
X98532256Y-80128200D01*
X98360324Y-80128200D01*
X98193388Y-80169345D01*
X98107405Y-80214472D01*
X75282621Y-80214472D01*
X75300740Y-76961999D01*
X81382496Y-76961999D01*
X81402458Y-77151929D01*
X81461472Y-77333556D01*
X81556958Y-77498942D01*
X81556960Y-77498944D01*
X81684747Y-77640866D01*
X81839248Y-77753118D01*
X82013712Y-77830794D01*
X82200513Y-77870500D01*
X82391485Y-77870500D01*
X82391487Y-77870500D01*
X82449847Y-77858095D01*
X82512460Y-77860720D01*
X82566065Y-77893184D01*
X82597400Y-77947458D01*
X82598713Y-78010114D01*
X82569678Y-78065652D01*
X82445960Y-78203054D01*
X82350472Y-78368443D01*
X82291458Y-78550070D01*
X82271496Y-78740000D01*
X82291458Y-78929929D01*
X82350472Y-79111556D01*
X82445958Y-79276942D01*
X82490175Y-79326050D01*
X82573747Y-79418866D01*
X82728248Y-79531118D01*
X82902712Y-79608794D01*
X83089513Y-79648500D01*
X83280485Y-79648500D01*
X83280487Y-79648500D01*
X83467288Y-79608794D01*
X83641752Y-79531118D01*
X83796253Y-79418866D01*
X83924040Y-79276944D01*
X84019527Y-79111556D01*
X84078542Y-78929928D01*
X84096507Y-78758999D01*
X99801096Y-78758999D01*
X99821058Y-78948929D01*
X99880072Y-79130556D01*
X99975558Y-79295942D01*
X100086239Y-79418866D01*
X100103347Y-79437866D01*
X100257848Y-79550118D01*
X100432312Y-79627794D01*
X100619113Y-79667500D01*
X100810085Y-79667500D01*
X100810087Y-79667500D01*
X100996888Y-79627794D01*
X101171352Y-79550118D01*
X101325853Y-79437866D01*
X101453640Y-79295944D01*
X101549127Y-79130556D01*
X101608142Y-78948928D01*
X101628104Y-78759000D01*
X101608142Y-78569072D01*
X101549127Y-78387444D01*
X101549127Y-78387443D01*
X101532705Y-78359000D01*
X109703496Y-78359000D01*
X109706486Y-78387444D01*
X109723458Y-78548929D01*
X109782472Y-78730556D01*
X109877958Y-78895942D01*
X109877960Y-78895944D01*
X110005747Y-79037866D01*
X110160248Y-79150118D01*
X110334712Y-79227794D01*
X110521513Y-79267500D01*
X110712485Y-79267500D01*
X110712487Y-79267500D01*
X110899288Y-79227794D01*
X111073752Y-79150118D01*
X111228253Y-79037866D01*
X111356040Y-78895944D01*
X111446075Y-78739999D01*
X126902750Y-78739999D01*
X126921705Y-78944557D01*
X126977925Y-79142151D01*
X127020570Y-79227793D01*
X127069497Y-79326050D01*
X127193299Y-79489991D01*
X127345118Y-79628392D01*
X127519782Y-79736540D01*
X127711345Y-79810751D01*
X127913282Y-79848500D01*
X128118716Y-79848500D01*
X128118718Y-79848500D01*
X128320655Y-79810751D01*
X128512218Y-79736540D01*
X128686882Y-79628392D01*
X128838701Y-79489991D01*
X128962503Y-79326050D01*
X129054074Y-79142152D01*
X129110294Y-78944559D01*
X129129249Y-78740000D01*
X129129249Y-78739999D01*
X132744750Y-78739999D01*
X132763705Y-78944557D01*
X132819925Y-79142151D01*
X132862570Y-79227793D01*
X132911497Y-79326050D01*
X133035299Y-79489991D01*
X133187118Y-79628392D01*
X133361782Y-79736540D01*
X133553345Y-79810751D01*
X133755282Y-79848500D01*
X133960716Y-79848500D01*
X133960718Y-79848500D01*
X134162655Y-79810751D01*
X134354218Y-79736540D01*
X134528882Y-79628392D01*
X134680701Y-79489991D01*
X134804503Y-79326050D01*
X134896074Y-79142152D01*
X134952294Y-78944559D01*
X134971249Y-78740000D01*
X134952294Y-78535441D01*
X134896074Y-78337848D01*
X134804503Y-78153950D01*
X134680701Y-77990009D01*
X134528882Y-77851608D01*
X134495803Y-77831126D01*
X134452059Y-77785312D01*
X134436135Y-77724000D01*
X134452059Y-77662688D01*
X134495804Y-77616873D01*
X134528882Y-77596392D01*
X134680701Y-77457991D01*
X134804503Y-77294050D01*
X134896074Y-77110152D01*
X134952294Y-76912559D01*
X134971249Y-76708000D01*
X134952294Y-76503441D01*
X134896074Y-76305848D01*
X134804503Y-76121950D01*
X134680701Y-75958009D01*
X134528882Y-75819608D01*
X134393249Y-75735627D01*
X134349503Y-75689812D01*
X134333580Y-75628500D01*
X134349503Y-75567188D01*
X134393249Y-75521373D01*
X134404570Y-75514362D01*
X134528882Y-75437392D01*
X134680701Y-75298991D01*
X134804503Y-75135050D01*
X134896074Y-74951152D01*
X134952294Y-74753559D01*
X134971249Y-74549000D01*
X134952294Y-74344441D01*
X134896074Y-74146848D01*
X134804503Y-73962950D01*
X134680701Y-73799009D01*
X134528882Y-73660608D01*
X134480332Y-73630547D01*
X134354219Y-73552460D01*
X134162655Y-73478249D01*
X133960718Y-73440500D01*
X133755282Y-73440500D01*
X133620657Y-73465666D01*
X133553344Y-73478249D01*
X133361780Y-73552460D01*
X133187119Y-73660607D01*
X133035298Y-73799010D01*
X132911497Y-73962949D01*
X132819925Y-74146848D01*
X132763705Y-74344442D01*
X132744750Y-74548999D01*
X132763705Y-74753557D01*
X132819925Y-74951151D01*
X132867930Y-75047556D01*
X132911497Y-75135050D01*
X133035299Y-75298991D01*
X133187118Y-75437392D01*
X133235124Y-75467116D01*
X133322750Y-75521373D01*
X133366496Y-75567188D01*
X133382419Y-75628500D01*
X133366496Y-75689812D01*
X133322750Y-75735627D01*
X133187119Y-75819607D01*
X133035298Y-75958010D01*
X132911497Y-76121949D01*
X132819925Y-76305848D01*
X132763705Y-76503442D01*
X132744750Y-76708000D01*
X132763705Y-76912557D01*
X132819925Y-77110151D01*
X132911497Y-77294050D01*
X133035299Y-77457991D01*
X133187118Y-77596392D01*
X133220196Y-77616873D01*
X133263941Y-77662688D01*
X133279864Y-77724000D01*
X133263941Y-77785312D01*
X133220196Y-77831126D01*
X133213752Y-77835116D01*
X133187117Y-77851608D01*
X133035298Y-77990010D01*
X132911497Y-78153949D01*
X132819925Y-78337848D01*
X132763705Y-78535442D01*
X132744750Y-78739999D01*
X129129249Y-78739999D01*
X129110294Y-78535441D01*
X129054074Y-78337848D01*
X128962503Y-78153950D01*
X128838701Y-77990009D01*
X128686882Y-77851608D01*
X128653803Y-77831126D01*
X128610059Y-77785312D01*
X128594135Y-77724000D01*
X128610059Y-77662688D01*
X128653804Y-77616873D01*
X128686882Y-77596392D01*
X128838701Y-77457991D01*
X128962503Y-77294050D01*
X129054074Y-77110152D01*
X129110294Y-76912559D01*
X129129249Y-76708000D01*
X129110294Y-76503441D01*
X129054074Y-76305848D01*
X128962503Y-76121950D01*
X128838701Y-75958009D01*
X128686882Y-75819608D01*
X128551249Y-75735627D01*
X128507503Y-75689812D01*
X128491580Y-75628500D01*
X128507503Y-75567188D01*
X128551249Y-75521373D01*
X128562570Y-75514362D01*
X128686882Y-75437392D01*
X128838701Y-75298991D01*
X128962503Y-75135050D01*
X129054074Y-74951152D01*
X129110294Y-74753559D01*
X129129249Y-74549000D01*
X129129249Y-74548999D01*
X129950750Y-74548999D01*
X129969705Y-74753557D01*
X130025925Y-74951151D01*
X130073930Y-75047556D01*
X130117497Y-75135050D01*
X130241299Y-75298991D01*
X130393118Y-75437392D01*
X130441124Y-75467116D01*
X130566575Y-75544793D01*
X130567782Y-75545540D01*
X130759345Y-75619751D01*
X130961282Y-75657500D01*
X131166716Y-75657500D01*
X131166718Y-75657500D01*
X131368655Y-75619751D01*
X131560218Y-75545540D01*
X131734882Y-75437392D01*
X131886701Y-75298991D01*
X132010503Y-75135050D01*
X132102074Y-74951152D01*
X132158294Y-74753559D01*
X132177249Y-74549000D01*
X132158294Y-74344441D01*
X132102074Y-74146848D01*
X132010503Y-73962950D01*
X131886701Y-73799009D01*
X131734882Y-73660608D01*
X131686332Y-73630547D01*
X131560219Y-73552460D01*
X131368655Y-73478249D01*
X131166718Y-73440500D01*
X130961282Y-73440500D01*
X130826657Y-73465666D01*
X130759344Y-73478249D01*
X130567780Y-73552460D01*
X130393119Y-73660607D01*
X130241298Y-73799010D01*
X130117497Y-73962949D01*
X130025925Y-74146848D01*
X129969705Y-74344442D01*
X129950750Y-74548999D01*
X129129249Y-74548999D01*
X129110294Y-74344441D01*
X129054074Y-74146848D01*
X128962503Y-73962950D01*
X128838701Y-73799009D01*
X128686882Y-73660608D01*
X128638332Y-73630547D01*
X128512219Y-73552460D01*
X128320655Y-73478249D01*
X128118718Y-73440500D01*
X127913282Y-73440500D01*
X127778657Y-73465666D01*
X127711344Y-73478249D01*
X127519780Y-73552460D01*
X127345119Y-73660607D01*
X127193298Y-73799010D01*
X127069497Y-73962949D01*
X126977925Y-74146848D01*
X126921705Y-74344442D01*
X126902750Y-74549000D01*
X126921705Y-74753557D01*
X126977925Y-74951151D01*
X127025930Y-75047556D01*
X127069497Y-75135050D01*
X127193299Y-75298991D01*
X127345118Y-75437392D01*
X127393124Y-75467116D01*
X127480750Y-75521373D01*
X127524496Y-75567188D01*
X127540419Y-75628500D01*
X127524496Y-75689812D01*
X127480750Y-75735627D01*
X127345119Y-75819607D01*
X127193298Y-75958010D01*
X127069497Y-76121949D01*
X126977925Y-76305848D01*
X126921705Y-76503442D01*
X126902750Y-76708000D01*
X126921705Y-76912557D01*
X126977925Y-77110151D01*
X127069497Y-77294050D01*
X127193299Y-77457991D01*
X127345118Y-77596392D01*
X127378196Y-77616873D01*
X127421941Y-77662688D01*
X127437864Y-77724000D01*
X127421941Y-77785312D01*
X127378196Y-77831126D01*
X127371752Y-77835116D01*
X127345117Y-77851608D01*
X127193298Y-77990010D01*
X127069497Y-78153949D01*
X126977925Y-78337848D01*
X126921705Y-78535442D01*
X126902750Y-78739999D01*
X111446075Y-78739999D01*
X111451527Y-78730556D01*
X111510542Y-78548928D01*
X111530504Y-78359000D01*
X111510542Y-78169072D01*
X111452361Y-77990010D01*
X111451527Y-77987443D01*
X111356041Y-77822057D01*
X111228252Y-77680133D01*
X111073753Y-77567883D01*
X111073752Y-77567882D01*
X110899288Y-77490206D01*
X110712487Y-77450500D01*
X110521513Y-77450500D01*
X110396979Y-77476970D01*
X110334711Y-77490206D01*
X110160246Y-77567883D01*
X110005747Y-77680133D01*
X109877958Y-77822057D01*
X109782472Y-77987443D01*
X109723458Y-78169070D01*
X109723457Y-78169072D01*
X109723458Y-78169072D01*
X109703496Y-78359000D01*
X101532705Y-78359000D01*
X101453641Y-78222057D01*
X101325852Y-78080133D01*
X101201807Y-77990009D01*
X101171352Y-77967882D01*
X100996888Y-77890206D01*
X100810087Y-77850500D01*
X100619113Y-77850500D01*
X100494579Y-77876970D01*
X100432311Y-77890206D01*
X100257846Y-77967883D01*
X100103347Y-78080133D01*
X99975558Y-78222057D01*
X99880072Y-78387443D01*
X99821058Y-78569070D01*
X99801096Y-78758999D01*
X84096507Y-78758999D01*
X84098504Y-78740000D01*
X84078542Y-78550072D01*
X84019527Y-78368444D01*
X84019527Y-78368443D01*
X83924041Y-78203057D01*
X83796252Y-78061133D01*
X83694826Y-77987443D01*
X83641752Y-77948882D01*
X83467288Y-77871206D01*
X83280487Y-77831500D01*
X83089513Y-77831500D01*
X83089512Y-77831500D01*
X83031152Y-77843904D01*
X82968537Y-77841279D01*
X82914932Y-77808814D01*
X82883598Y-77754540D01*
X82882286Y-77691884D01*
X82911318Y-77636350D01*
X83035040Y-77498944D01*
X83130527Y-77333556D01*
X83189542Y-77151928D01*
X83209504Y-76962000D01*
X83189542Y-76772072D01*
X83130527Y-76590444D01*
X83130527Y-76590443D01*
X83035041Y-76425057D01*
X82907252Y-76283133D01*
X82752753Y-76170883D01*
X82752752Y-76170882D01*
X82578288Y-76093206D01*
X82391487Y-76053500D01*
X82200513Y-76053500D01*
X82075978Y-76079970D01*
X82013711Y-76093206D01*
X81839246Y-76170883D01*
X81684747Y-76283133D01*
X81556958Y-76425057D01*
X81461472Y-76590443D01*
X81402458Y-76772070D01*
X81382496Y-76961999D01*
X75300740Y-76961999D01*
X75313476Y-74675999D01*
X98527496Y-74675999D01*
X98547458Y-74865929D01*
X98606472Y-75047556D01*
X98701958Y-75212942D01*
X98701960Y-75212944D01*
X98829747Y-75354866D01*
X98984248Y-75467118D01*
X99158712Y-75544794D01*
X99345513Y-75584500D01*
X99536485Y-75584500D01*
X99536487Y-75584500D01*
X99723288Y-75544794D01*
X99897752Y-75467118D01*
X100052253Y-75354866D01*
X100180040Y-75212944D01*
X100275527Y-75047556D01*
X100334542Y-74865928D01*
X100354504Y-74676000D01*
X100341156Y-74549000D01*
X123727750Y-74549000D01*
X123746705Y-74753557D01*
X123802925Y-74951151D01*
X123850930Y-75047556D01*
X123894497Y-75135050D01*
X124018299Y-75298991D01*
X124170118Y-75437392D01*
X124218124Y-75467116D01*
X124343575Y-75544793D01*
X124344782Y-75545540D01*
X124536345Y-75619751D01*
X124738282Y-75657500D01*
X124943716Y-75657500D01*
X124943718Y-75657500D01*
X125145655Y-75619751D01*
X125337218Y-75545540D01*
X125511882Y-75437392D01*
X125663701Y-75298991D01*
X125787503Y-75135050D01*
X125879074Y-74951152D01*
X125935294Y-74753559D01*
X125954249Y-74549000D01*
X125935294Y-74344441D01*
X125879074Y-74146848D01*
X125787503Y-73962950D01*
X125663701Y-73799009D01*
X125511882Y-73660608D01*
X125463332Y-73630547D01*
X125337219Y-73552460D01*
X125145655Y-73478249D01*
X124943718Y-73440500D01*
X124738282Y-73440500D01*
X124603657Y-73465666D01*
X124536344Y-73478249D01*
X124344780Y-73552460D01*
X124170119Y-73660607D01*
X124018298Y-73799010D01*
X123894497Y-73962949D01*
X123802925Y-74146848D01*
X123746705Y-74344442D01*
X123727750Y-74549000D01*
X100341156Y-74549000D01*
X100334542Y-74486072D01*
X100275527Y-74304444D01*
X100275527Y-74304443D01*
X100180041Y-74139057D01*
X100052252Y-73997133D01*
X99897753Y-73884883D01*
X99897752Y-73884882D01*
X99723288Y-73807206D01*
X99536487Y-73767500D01*
X99345513Y-73767500D01*
X99220978Y-73793970D01*
X99158711Y-73807206D01*
X98984246Y-73884883D01*
X98829747Y-73997133D01*
X98701958Y-74139057D01*
X98606472Y-74304443D01*
X98547458Y-74486070D01*
X98527496Y-74675999D01*
X75313476Y-74675999D01*
X75328707Y-71942000D01*
X82886844Y-71942000D01*
X82905436Y-72166368D01*
X82905436Y-72166371D01*
X82905437Y-72166372D01*
X82960702Y-72384611D01*
X83051139Y-72590790D01*
X83174278Y-72779268D01*
X83326762Y-72944908D01*
X83504421Y-73083187D01*
X83504424Y-73083189D01*
X83702426Y-73190342D01*
X83915365Y-73263444D01*
X84137431Y-73300500D01*
X84362566Y-73300500D01*
X84362569Y-73300500D01*
X84584635Y-73263444D01*
X84797574Y-73190342D01*
X84995576Y-73083189D01*
X85173240Y-72944906D01*
X85325722Y-72779268D01*
X85414518Y-72643354D01*
X85460031Y-72601458D01*
X85520000Y-72586272D01*
X85579969Y-72601458D01*
X85625481Y-72643354D01*
X85666322Y-72705866D01*
X85714278Y-72779268D01*
X85866762Y-72944908D01*
X86044421Y-73083187D01*
X86044424Y-73083189D01*
X86242426Y-73190342D01*
X86455365Y-73263444D01*
X86677431Y-73300500D01*
X86902566Y-73300500D01*
X86902569Y-73300500D01*
X87124635Y-73263444D01*
X87337574Y-73190342D01*
X87535576Y-73083189D01*
X87713240Y-72944906D01*
X87865722Y-72779268D01*
X87954518Y-72643354D01*
X88000031Y-72601458D01*
X88060000Y-72586272D01*
X88119969Y-72601458D01*
X88165481Y-72643354D01*
X88206322Y-72705866D01*
X88254278Y-72779268D01*
X88406762Y-72944908D01*
X88584421Y-73083187D01*
X88584424Y-73083189D01*
X88782426Y-73190342D01*
X88995365Y-73263444D01*
X89217431Y-73300500D01*
X89442566Y-73300500D01*
X89442569Y-73300500D01*
X89664635Y-73263444D01*
X89877574Y-73190342D01*
X90075576Y-73083189D01*
X90253240Y-72944906D01*
X90405722Y-72779268D01*
X90494518Y-72643354D01*
X90540031Y-72601458D01*
X90600000Y-72586272D01*
X90659969Y-72601458D01*
X90705481Y-72643354D01*
X90746322Y-72705866D01*
X90794278Y-72779268D01*
X90946762Y-72944908D01*
X91124421Y-73083187D01*
X91124424Y-73083189D01*
X91322426Y-73190342D01*
X91535365Y-73263444D01*
X91757431Y-73300500D01*
X91982566Y-73300500D01*
X91982569Y-73300500D01*
X92204635Y-73263444D01*
X92417574Y-73190342D01*
X92615576Y-73083189D01*
X92793240Y-72944906D01*
X92945722Y-72779268D01*
X93034518Y-72643354D01*
X93080031Y-72601458D01*
X93140000Y-72586272D01*
X93199969Y-72601458D01*
X93245481Y-72643354D01*
X93286322Y-72705866D01*
X93334278Y-72779268D01*
X93486762Y-72944908D01*
X93664421Y-73083187D01*
X93664424Y-73083189D01*
X93862426Y-73190342D01*
X94075365Y-73263444D01*
X94297431Y-73300500D01*
X94522566Y-73300500D01*
X94522569Y-73300500D01*
X94744635Y-73263444D01*
X94957574Y-73190342D01*
X95155576Y-73083189D01*
X95333240Y-72944906D01*
X95485722Y-72779268D01*
X95574518Y-72643354D01*
X95620031Y-72601458D01*
X95680000Y-72586272D01*
X95739969Y-72601458D01*
X95785481Y-72643354D01*
X95826322Y-72705866D01*
X95874278Y-72779268D01*
X96026762Y-72944908D01*
X96204421Y-73083187D01*
X96204424Y-73083189D01*
X96402426Y-73190342D01*
X96615365Y-73263444D01*
X96837431Y-73300500D01*
X97062566Y-73300500D01*
X97062569Y-73300500D01*
X97284635Y-73263444D01*
X97497574Y-73190342D01*
X97695576Y-73083189D01*
X97873240Y-72944906D01*
X98025722Y-72779268D01*
X98114518Y-72643354D01*
X98160031Y-72601458D01*
X98220000Y-72586272D01*
X98279969Y-72601458D01*
X98325481Y-72643354D01*
X98366322Y-72705866D01*
X98414278Y-72779268D01*
X98566762Y-72944908D01*
X98744421Y-73083187D01*
X98744424Y-73083189D01*
X98942426Y-73190342D01*
X99155365Y-73263444D01*
X99377431Y-73300500D01*
X99602566Y-73300500D01*
X99602569Y-73300500D01*
X99824635Y-73263444D01*
X100037574Y-73190342D01*
X100235576Y-73083189D01*
X100413240Y-72944906D01*
X100565722Y-72779268D01*
X100654518Y-72643354D01*
X100700031Y-72601458D01*
X100760000Y-72586272D01*
X100819969Y-72601458D01*
X100865481Y-72643354D01*
X100906322Y-72705866D01*
X100954278Y-72779268D01*
X101106762Y-72944908D01*
X101284421Y-73083187D01*
X101284424Y-73083189D01*
X101482426Y-73190342D01*
X101695365Y-73263444D01*
X101917431Y-73300500D01*
X102142566Y-73300500D01*
X102142569Y-73300500D01*
X102364635Y-73263444D01*
X102577574Y-73190342D01*
X102775576Y-73083189D01*
X102953240Y-72944906D01*
X103105722Y-72779268D01*
X103194518Y-72643354D01*
X103240031Y-72601458D01*
X103300000Y-72586272D01*
X103359969Y-72601458D01*
X103405481Y-72643354D01*
X103446322Y-72705866D01*
X103494278Y-72779268D01*
X103646762Y-72944908D01*
X103824421Y-73083187D01*
X103824424Y-73083189D01*
X104022426Y-73190342D01*
X104235365Y-73263444D01*
X104457431Y-73300500D01*
X104682566Y-73300500D01*
X104682569Y-73300500D01*
X104904635Y-73263444D01*
X105117574Y-73190342D01*
X105315576Y-73083189D01*
X105493240Y-72944906D01*
X105645722Y-72779268D01*
X105734518Y-72643354D01*
X105780031Y-72601458D01*
X105840000Y-72586272D01*
X105899969Y-72601458D01*
X105945481Y-72643354D01*
X105986322Y-72705866D01*
X106034278Y-72779268D01*
X106186762Y-72944908D01*
X106364421Y-73083187D01*
X106364424Y-73083189D01*
X106562426Y-73190342D01*
X106775365Y-73263444D01*
X106997431Y-73300500D01*
X107222566Y-73300500D01*
X107222569Y-73300500D01*
X107444635Y-73263444D01*
X107657574Y-73190342D01*
X107855576Y-73083189D01*
X107876505Y-73066899D01*
X108884310Y-73066899D01*
X108904697Y-73082767D01*
X109102628Y-73189882D01*
X109315491Y-73262957D01*
X109537470Y-73300000D01*
X109762530Y-73300000D01*
X109984508Y-73262957D01*
X110197368Y-73189883D01*
X110395305Y-73082764D01*
X110415688Y-73066899D01*
X110415689Y-73066898D01*
X109650001Y-72301210D01*
X109650000Y-72301210D01*
X108884310Y-73066899D01*
X107876505Y-73066899D01*
X108033240Y-72944906D01*
X108185722Y-72779268D01*
X108274816Y-72642898D01*
X108320329Y-72601000D01*
X108380299Y-72585814D01*
X108440268Y-72601000D01*
X108485782Y-72642898D01*
X108526922Y-72705866D01*
X109290789Y-71942001D01*
X110009210Y-71942001D01*
X110773076Y-72705867D01*
X110773077Y-72705866D01*
X110814218Y-72642898D01*
X110859731Y-72601000D01*
X110919700Y-72585814D01*
X110979669Y-72601000D01*
X111025183Y-72642898D01*
X111114278Y-72779268D01*
X111266762Y-72944908D01*
X111444421Y-73083187D01*
X111444424Y-73083189D01*
X111642426Y-73190342D01*
X111855365Y-73263444D01*
X112077431Y-73300500D01*
X112302566Y-73300500D01*
X112302569Y-73300500D01*
X112524635Y-73263444D01*
X112737574Y-73190342D01*
X112935576Y-73083189D01*
X113113240Y-72944906D01*
X113265722Y-72779268D01*
X113388860Y-72590791D01*
X113479296Y-72384616D01*
X113534564Y-72166368D01*
X113553156Y-71942000D01*
X113534564Y-71717632D01*
X113479296Y-71499384D01*
X113388860Y-71293209D01*
X113265722Y-71104732D01*
X113113240Y-70939094D01*
X113113239Y-70939093D01*
X113113237Y-70939091D01*
X112935578Y-70800812D01*
X112737573Y-70693657D01*
X112593427Y-70644172D01*
X112524635Y-70620556D01*
X112302569Y-70583500D01*
X112077431Y-70583500D01*
X111855365Y-70620556D01*
X111855362Y-70620556D01*
X111855362Y-70620557D01*
X111642426Y-70693657D01*
X111444421Y-70800812D01*
X111266762Y-70939091D01*
X111114278Y-71104731D01*
X111025183Y-71241102D01*
X110979669Y-71283000D01*
X110919700Y-71298186D01*
X110859731Y-71283000D01*
X110814218Y-71241102D01*
X110773076Y-71178132D01*
X110009210Y-71942000D01*
X110009210Y-71942001D01*
X109290789Y-71942001D01*
X109290790Y-71942000D01*
X108526921Y-71178132D01*
X108485782Y-71241101D01*
X108440268Y-71282999D01*
X108380299Y-71298185D01*
X108320330Y-71282999D01*
X108274816Y-71241101D01*
X108274517Y-71240643D01*
X108185722Y-71104732D01*
X108033240Y-70939094D01*
X108033239Y-70939093D01*
X108033237Y-70939091D01*
X107876506Y-70817101D01*
X108884310Y-70817101D01*
X109649999Y-71582790D01*
X109650000Y-71582790D01*
X110415689Y-70817100D01*
X110415688Y-70817099D01*
X110395302Y-70801232D01*
X110197371Y-70694117D01*
X109984508Y-70621042D01*
X109762530Y-70584000D01*
X109537470Y-70584000D01*
X109315491Y-70621042D01*
X109102628Y-70694117D01*
X108904700Y-70801231D01*
X108884310Y-70817099D01*
X108884310Y-70817101D01*
X107876506Y-70817101D01*
X107855578Y-70800812D01*
X107657573Y-70693657D01*
X107513427Y-70644172D01*
X107444635Y-70620556D01*
X107222569Y-70583500D01*
X106997431Y-70583500D01*
X106775365Y-70620556D01*
X106775362Y-70620556D01*
X106775362Y-70620557D01*
X106562426Y-70693657D01*
X106364421Y-70800812D01*
X106186762Y-70939091D01*
X106034278Y-71104731D01*
X105945483Y-71240643D01*
X105899969Y-71282541D01*
X105840000Y-71297727D01*
X105780031Y-71282541D01*
X105734517Y-71240643D01*
X105726486Y-71228350D01*
X105645722Y-71104732D01*
X105493240Y-70939094D01*
X105493239Y-70939093D01*
X105493237Y-70939091D01*
X105315578Y-70800812D01*
X105117573Y-70693657D01*
X104973427Y-70644172D01*
X104904635Y-70620556D01*
X104682569Y-70583500D01*
X104457431Y-70583500D01*
X104235365Y-70620556D01*
X104235362Y-70620556D01*
X104235362Y-70620557D01*
X104022426Y-70693657D01*
X103824421Y-70800812D01*
X103646762Y-70939091D01*
X103494278Y-71104731D01*
X103405483Y-71240643D01*
X103359969Y-71282541D01*
X103300000Y-71297727D01*
X103240031Y-71282541D01*
X103194517Y-71240643D01*
X103186486Y-71228350D01*
X103105722Y-71104732D01*
X102953240Y-70939094D01*
X102953239Y-70939093D01*
X102953237Y-70939091D01*
X102775578Y-70800812D01*
X102577573Y-70693657D01*
X102433427Y-70644172D01*
X102364635Y-70620556D01*
X102142569Y-70583500D01*
X101917431Y-70583500D01*
X101695365Y-70620556D01*
X101695362Y-70620556D01*
X101695362Y-70620557D01*
X101482426Y-70693657D01*
X101284421Y-70800812D01*
X101106762Y-70939091D01*
X100954278Y-71104731D01*
X100865483Y-71240643D01*
X100819969Y-71282541D01*
X100760000Y-71297727D01*
X100700031Y-71282541D01*
X100654517Y-71240643D01*
X100646486Y-71228350D01*
X100565722Y-71104732D01*
X100413240Y-70939094D01*
X100413239Y-70939093D01*
X100413237Y-70939091D01*
X100235578Y-70800812D01*
X100037573Y-70693657D01*
X99893427Y-70644172D01*
X99824635Y-70620556D01*
X99602569Y-70583500D01*
X99377431Y-70583500D01*
X99155365Y-70620556D01*
X99155362Y-70620556D01*
X99155362Y-70620557D01*
X98942426Y-70693657D01*
X98744421Y-70800812D01*
X98566762Y-70939091D01*
X98414278Y-71104731D01*
X98325483Y-71240643D01*
X98279969Y-71282541D01*
X98220000Y-71297727D01*
X98160031Y-71282541D01*
X98114517Y-71240643D01*
X98106486Y-71228350D01*
X98025722Y-71104732D01*
X97873240Y-70939094D01*
X97873239Y-70939093D01*
X97873237Y-70939091D01*
X97695578Y-70800812D01*
X97497573Y-70693657D01*
X97353427Y-70644172D01*
X97284635Y-70620556D01*
X97062569Y-70583500D01*
X96837431Y-70583500D01*
X96615365Y-70620556D01*
X96615362Y-70620556D01*
X96615362Y-70620557D01*
X96402426Y-70693657D01*
X96204421Y-70800812D01*
X96026762Y-70939091D01*
X95874278Y-71104731D01*
X95785483Y-71240643D01*
X95739969Y-71282541D01*
X95680000Y-71297727D01*
X95620031Y-71282541D01*
X95574517Y-71240643D01*
X95566486Y-71228350D01*
X95485722Y-71104732D01*
X95333240Y-70939094D01*
X95333239Y-70939093D01*
X95333237Y-70939091D01*
X95155578Y-70800812D01*
X94957573Y-70693657D01*
X94813427Y-70644172D01*
X94744635Y-70620556D01*
X94522569Y-70583500D01*
X94297431Y-70583500D01*
X94075365Y-70620556D01*
X94075362Y-70620556D01*
X94075362Y-70620557D01*
X93862426Y-70693657D01*
X93664421Y-70800812D01*
X93486762Y-70939091D01*
X93334278Y-71104731D01*
X93245483Y-71240643D01*
X93199969Y-71282541D01*
X93140000Y-71297727D01*
X93080031Y-71282541D01*
X93034517Y-71240643D01*
X93026486Y-71228350D01*
X92945722Y-71104732D01*
X92793240Y-70939094D01*
X92793239Y-70939093D01*
X92793237Y-70939091D01*
X92615578Y-70800812D01*
X92417573Y-70693657D01*
X92273427Y-70644172D01*
X92204635Y-70620556D01*
X91982569Y-70583500D01*
X91757431Y-70583500D01*
X91535365Y-70620556D01*
X91535362Y-70620556D01*
X91535362Y-70620557D01*
X91322426Y-70693657D01*
X91124421Y-70800812D01*
X90946762Y-70939091D01*
X90794278Y-71104731D01*
X90705483Y-71240643D01*
X90659969Y-71282541D01*
X90600000Y-71297727D01*
X90540031Y-71282541D01*
X90494517Y-71240643D01*
X90486486Y-71228350D01*
X90405722Y-71104732D01*
X90253240Y-70939094D01*
X90253239Y-70939093D01*
X90253237Y-70939091D01*
X90075578Y-70800812D01*
X89877573Y-70693657D01*
X89733427Y-70644172D01*
X89664635Y-70620556D01*
X89442569Y-70583500D01*
X89217431Y-70583500D01*
X88995365Y-70620556D01*
X88995362Y-70620556D01*
X88995362Y-70620557D01*
X88782426Y-70693657D01*
X88584421Y-70800812D01*
X88406762Y-70939091D01*
X88254278Y-71104731D01*
X88165483Y-71240643D01*
X88119969Y-71282541D01*
X88060000Y-71297727D01*
X88000031Y-71282541D01*
X87954517Y-71240643D01*
X87946486Y-71228350D01*
X87865722Y-71104732D01*
X87713240Y-70939094D01*
X87713239Y-70939093D01*
X87713237Y-70939091D01*
X87535578Y-70800812D01*
X87337573Y-70693657D01*
X87193427Y-70644172D01*
X87124635Y-70620556D01*
X86902569Y-70583500D01*
X86677431Y-70583500D01*
X86455365Y-70620556D01*
X86455362Y-70620556D01*
X86455362Y-70620557D01*
X86242426Y-70693657D01*
X86044421Y-70800812D01*
X85866762Y-70939091D01*
X85714278Y-71104731D01*
X85625483Y-71240643D01*
X85579969Y-71282541D01*
X85520000Y-71297727D01*
X85460031Y-71282541D01*
X85414517Y-71240643D01*
X85406486Y-71228350D01*
X85325722Y-71104732D01*
X85173240Y-70939094D01*
X85173239Y-70939093D01*
X85173237Y-70939091D01*
X84995578Y-70800812D01*
X84797573Y-70693657D01*
X84653427Y-70644172D01*
X84584635Y-70620556D01*
X84362569Y-70583500D01*
X84137431Y-70583500D01*
X83915365Y-70620556D01*
X83915362Y-70620556D01*
X83915362Y-70620557D01*
X83702426Y-70693657D01*
X83504421Y-70800812D01*
X83326762Y-70939091D01*
X83174278Y-71104731D01*
X83051139Y-71293209D01*
X82960702Y-71499388D01*
X82905437Y-71717627D01*
X82905436Y-71717632D01*
X82886844Y-71942000D01*
X75328707Y-71942000D01*
X75348852Y-68326000D01*
X103099496Y-68326000D01*
X103119458Y-68515929D01*
X103178472Y-68697556D01*
X103273958Y-68862942D01*
X103273960Y-68862944D01*
X103401747Y-69004866D01*
X103556248Y-69117118D01*
X103730712Y-69194794D01*
X103917513Y-69234500D01*
X104108485Y-69234500D01*
X104108487Y-69234500D01*
X104295288Y-69194794D01*
X104469752Y-69117118D01*
X104624253Y-69004866D01*
X104752040Y-68862944D01*
X104847527Y-68697556D01*
X104906542Y-68515928D01*
X104926504Y-68326000D01*
X104906542Y-68136072D01*
X104850028Y-67962140D01*
X104845775Y-67901323D01*
X104870573Y-67845629D01*
X104918610Y-67808099D01*
X104956752Y-67791118D01*
X105111253Y-67678866D01*
X105239040Y-67536944D01*
X105334527Y-67371556D01*
X105393542Y-67189928D01*
X105413504Y-67000000D01*
X105393542Y-66810072D01*
X105334527Y-66628444D01*
X105334527Y-66628443D01*
X105239041Y-66463057D01*
X105111252Y-66321133D01*
X104956753Y-66208883D01*
X104956752Y-66208882D01*
X104782288Y-66131206D01*
X104595487Y-66091500D01*
X104404513Y-66091500D01*
X104279978Y-66117970D01*
X104217711Y-66131206D01*
X104043246Y-66208883D01*
X103888747Y-66321133D01*
X103760958Y-66463057D01*
X103665472Y-66628443D01*
X103606458Y-66810070D01*
X103586496Y-67000000D01*
X103606458Y-67189930D01*
X103662971Y-67363858D01*
X103667224Y-67424673D01*
X103642428Y-67480366D01*
X103594389Y-67517900D01*
X103556247Y-67534882D01*
X103401747Y-67647133D01*
X103273958Y-67789057D01*
X103178472Y-67954443D01*
X103119458Y-68136070D01*
X103099496Y-68326000D01*
X75348852Y-68326000D01*
X75430284Y-53708920D01*
X76204287Y-53708920D01*
X76435219Y-53895925D01*
X76743592Y-54096185D01*
X77071211Y-54263115D01*
X77414479Y-54394884D01*
X77769645Y-54490051D01*
X78132815Y-54547570D01*
X78500000Y-54566814D01*
X78867184Y-54547570D01*
X79230354Y-54490051D01*
X79585520Y-54394884D01*
X79928788Y-54263115D01*
X80256407Y-54096185D01*
X80564780Y-53895925D01*
X80712986Y-53775910D01*
X130204287Y-53775910D01*
X130435219Y-53962915D01*
X130743592Y-54163175D01*
X131071211Y-54330105D01*
X131414479Y-54461874D01*
X131769645Y-54557041D01*
X132132815Y-54614560D01*
X132499999Y-54633804D01*
X132867184Y-54614560D01*
X133230354Y-54557041D01*
X133585520Y-54461874D01*
X133928788Y-54330105D01*
X134256407Y-54163175D01*
X134564780Y-53962915D01*
X134795711Y-53775910D01*
X132500001Y-51480200D01*
X132499999Y-51480200D01*
X130204287Y-53775910D01*
X80712986Y-53775910D01*
X80795711Y-53708920D01*
X78500001Y-51413210D01*
X78499999Y-51413210D01*
X76204287Y-53708920D01*
X75430284Y-53708920D01*
X75433141Y-53196113D01*
X75448360Y-53136785D01*
X75489762Y-53091640D01*
X75547560Y-53071354D01*
X75608094Y-53080721D01*
X75657058Y-53117526D01*
X75845078Y-53349711D01*
X78140788Y-51054001D01*
X78859210Y-51054001D01*
X81154920Y-53349711D01*
X81341925Y-53118780D01*
X81542185Y-52810407D01*
X81709115Y-52482788D01*
X81840884Y-52139520D01*
X81936051Y-51784354D01*
X81993570Y-51421184D01*
X82009303Y-51120989D01*
X128987185Y-51120989D01*
X129006429Y-51488174D01*
X129063948Y-51851344D01*
X129159115Y-52206510D01*
X129290884Y-52549778D01*
X129457814Y-52877397D01*
X129658077Y-53185775D01*
X129845077Y-53416700D01*
X129845078Y-53416701D01*
X132140790Y-51120991D01*
X132140790Y-51120989D01*
X129845078Y-48825277D01*
X129658071Y-49056213D01*
X129457815Y-49364580D01*
X129290884Y-49692201D01*
X129159115Y-50035469D01*
X129063948Y-50390635D01*
X129006429Y-50753805D01*
X128987185Y-51120989D01*
X82009303Y-51120989D01*
X82012814Y-51053999D01*
X81993570Y-50686815D01*
X81936051Y-50323645D01*
X81888692Y-50146899D01*
X83484310Y-50146899D01*
X83504697Y-50162767D01*
X83702628Y-50269882D01*
X83915491Y-50342957D01*
X84137470Y-50380000D01*
X84362530Y-50380000D01*
X84584508Y-50342957D01*
X84797368Y-50269883D01*
X84995305Y-50162764D01*
X85015688Y-50146899D01*
X86024310Y-50146899D01*
X86044697Y-50162767D01*
X86242628Y-50269882D01*
X86455491Y-50342957D01*
X86677470Y-50380000D01*
X86902530Y-50380000D01*
X87124508Y-50342957D01*
X87337368Y-50269883D01*
X87535305Y-50162764D01*
X87555688Y-50146899D01*
X87555689Y-50146898D01*
X86790001Y-49381210D01*
X86790000Y-49381210D01*
X86024310Y-50146899D01*
X85015688Y-50146899D01*
X85015689Y-50146898D01*
X84250001Y-49381210D01*
X84250000Y-49381210D01*
X83484310Y-50146899D01*
X81888692Y-50146899D01*
X81840884Y-49968479D01*
X81709115Y-49625211D01*
X81542185Y-49297592D01*
X81363213Y-49021999D01*
X82887346Y-49021999D01*
X82905931Y-49246283D01*
X82961180Y-49464456D01*
X83051580Y-49670548D01*
X83126922Y-49785866D01*
X83890789Y-49022001D01*
X84609210Y-49022001D01*
X85373076Y-49785867D01*
X85414516Y-49722439D01*
X85460030Y-49680541D01*
X85519999Y-49665355D01*
X85579968Y-49680541D01*
X85625482Y-49722439D01*
X85666922Y-49785866D01*
X86430790Y-49022000D01*
X85666921Y-48258132D01*
X85625482Y-48321560D01*
X85579968Y-48363458D01*
X85519999Y-48378644D01*
X85460030Y-48363458D01*
X85414516Y-48321560D01*
X85373076Y-48258132D01*
X84609210Y-49022000D01*
X84609210Y-49022001D01*
X83890789Y-49022001D01*
X83890790Y-49022000D01*
X83126922Y-48258133D01*
X83051580Y-48373451D01*
X82961180Y-48579543D01*
X82905931Y-48797716D01*
X82887346Y-49021999D01*
X81363213Y-49021999D01*
X81341925Y-48989219D01*
X81154920Y-48758287D01*
X78859210Y-51053999D01*
X78859210Y-51054001D01*
X78140788Y-51054001D01*
X80795711Y-48399078D01*
X80795710Y-48399077D01*
X80564785Y-48212077D01*
X80256407Y-48011814D01*
X80208032Y-47987166D01*
X80158882Y-47942465D01*
X80139301Y-47878979D01*
X80154732Y-47814360D01*
X80200884Y-47766571D01*
X80264923Y-47748900D01*
X83359611Y-47741352D01*
X83424981Y-47759451D01*
X83471496Y-47808824D01*
X83485672Y-47875159D01*
X83484309Y-47897100D01*
X84249999Y-48662790D01*
X84250000Y-48662790D01*
X85015688Y-47897100D01*
X85014057Y-47870819D01*
X85028138Y-47804665D01*
X85074398Y-47755323D01*
X85139504Y-47737010D01*
X85899995Y-47735156D01*
X85965366Y-47753255D01*
X86011881Y-47802628D01*
X86026057Y-47868964D01*
X86024309Y-47897100D01*
X86789999Y-48662790D01*
X86790000Y-48662790D01*
X87555688Y-47897100D01*
X87553672Y-47864624D01*
X87567753Y-47798470D01*
X87614013Y-47749128D01*
X87679116Y-47730816D01*
X88412107Y-47729029D01*
X88472163Y-47744097D01*
X88517792Y-47785958D01*
X88537969Y-47844500D01*
X88527822Y-47905585D01*
X88489801Y-47954459D01*
X88406762Y-48019091D01*
X88254278Y-48184731D01*
X88165183Y-48321102D01*
X88119669Y-48363000D01*
X88059700Y-48378186D01*
X87999731Y-48363000D01*
X87954218Y-48321102D01*
X87913076Y-48258132D01*
X87149210Y-49022000D01*
X87149210Y-49022001D01*
X87913076Y-49785867D01*
X87913077Y-49785866D01*
X87954218Y-49722898D01*
X87999731Y-49681000D01*
X88059700Y-49665814D01*
X88119669Y-49681000D01*
X88165183Y-49722898D01*
X88254278Y-49859268D01*
X88406762Y-50024908D01*
X88584421Y-50163187D01*
X88584424Y-50163189D01*
X88782426Y-50270342D01*
X88995365Y-50343444D01*
X89217431Y-50380500D01*
X89442566Y-50380500D01*
X89442569Y-50380500D01*
X89664635Y-50343444D01*
X89877574Y-50270342D01*
X90075576Y-50163189D01*
X90253240Y-50024906D01*
X90405722Y-49859268D01*
X90494518Y-49723354D01*
X90540031Y-49681458D01*
X90600000Y-49666272D01*
X90659969Y-49681458D01*
X90705481Y-49723354D01*
X90726592Y-49755666D01*
X90794278Y-49859268D01*
X90946762Y-50024908D01*
X91124421Y-50163187D01*
X91124424Y-50163189D01*
X91322426Y-50270342D01*
X91535365Y-50343444D01*
X91757431Y-50380500D01*
X91982566Y-50380500D01*
X91982569Y-50380500D01*
X92204635Y-50343444D01*
X92417574Y-50270342D01*
X92615576Y-50163189D01*
X92793240Y-50024906D01*
X92945722Y-49859268D01*
X93034518Y-49723354D01*
X93080031Y-49681458D01*
X93140000Y-49666272D01*
X93199969Y-49681458D01*
X93245481Y-49723354D01*
X93266592Y-49755666D01*
X93334278Y-49859268D01*
X93486762Y-50024908D01*
X93664421Y-50163187D01*
X93664424Y-50163189D01*
X93862426Y-50270342D01*
X94075365Y-50343444D01*
X94297431Y-50380500D01*
X94522566Y-50380500D01*
X94522569Y-50380500D01*
X94744635Y-50343444D01*
X94957574Y-50270342D01*
X95155576Y-50163189D01*
X95333240Y-50024906D01*
X95485722Y-49859268D01*
X95574518Y-49723354D01*
X95620031Y-49681458D01*
X95680000Y-49666272D01*
X95739969Y-49681458D01*
X95785481Y-49723354D01*
X95806592Y-49755666D01*
X95874278Y-49859268D01*
X96026762Y-50024908D01*
X96204421Y-50163187D01*
X96204424Y-50163189D01*
X96402426Y-50270342D01*
X96615365Y-50343444D01*
X96837431Y-50380500D01*
X97062566Y-50380500D01*
X97062569Y-50380500D01*
X97284635Y-50343444D01*
X97497574Y-50270342D01*
X97695576Y-50163189D01*
X97873240Y-50024906D01*
X98025722Y-49859268D01*
X98114518Y-49723354D01*
X98160031Y-49681458D01*
X98220000Y-49666272D01*
X98279969Y-49681458D01*
X98325481Y-49723354D01*
X98346592Y-49755666D01*
X98414278Y-49859268D01*
X98566762Y-50024908D01*
X98744421Y-50163187D01*
X98744424Y-50163189D01*
X98942426Y-50270342D01*
X99155365Y-50343444D01*
X99377431Y-50380500D01*
X99602566Y-50380500D01*
X99602569Y-50380500D01*
X99824635Y-50343444D01*
X100037574Y-50270342D01*
X100235576Y-50163189D01*
X100413240Y-50024906D01*
X100565722Y-49859268D01*
X100654518Y-49723354D01*
X100700031Y-49681458D01*
X100760000Y-49666272D01*
X100819969Y-49681458D01*
X100865481Y-49723354D01*
X100886592Y-49755666D01*
X100954278Y-49859268D01*
X101106762Y-50024908D01*
X101284421Y-50163187D01*
X101284424Y-50163189D01*
X101482426Y-50270342D01*
X101695365Y-50343444D01*
X101917431Y-50380500D01*
X102142566Y-50380500D01*
X102142569Y-50380500D01*
X102364635Y-50343444D01*
X102577574Y-50270342D01*
X102775576Y-50163189D01*
X102953240Y-50024906D01*
X103105722Y-49859268D01*
X103194518Y-49723354D01*
X103240031Y-49681458D01*
X103300000Y-49666272D01*
X103359969Y-49681458D01*
X103405481Y-49723354D01*
X103426592Y-49755666D01*
X103494278Y-49859268D01*
X103646762Y-50024908D01*
X103824421Y-50163187D01*
X103824424Y-50163189D01*
X104022426Y-50270342D01*
X104235365Y-50343444D01*
X104457431Y-50380500D01*
X104682566Y-50380500D01*
X104682569Y-50380500D01*
X104904635Y-50343444D01*
X105117574Y-50270342D01*
X105315576Y-50163189D01*
X105336505Y-50146899D01*
X106344310Y-50146899D01*
X106364697Y-50162767D01*
X106562628Y-50269882D01*
X106775491Y-50342957D01*
X106997470Y-50380000D01*
X107222530Y-50380000D01*
X107444508Y-50342957D01*
X107657368Y-50269883D01*
X107855305Y-50162764D01*
X107875688Y-50146899D01*
X108884310Y-50146899D01*
X108904697Y-50162767D01*
X109102628Y-50269882D01*
X109315491Y-50342957D01*
X109537470Y-50380000D01*
X109762530Y-50380000D01*
X109984508Y-50342957D01*
X110197368Y-50269883D01*
X110395305Y-50162764D01*
X110415688Y-50146899D01*
X110415689Y-50146898D01*
X109650001Y-49381210D01*
X109650000Y-49381210D01*
X108884310Y-50146899D01*
X107875688Y-50146899D01*
X107875689Y-50146898D01*
X107110001Y-49381210D01*
X107110000Y-49381210D01*
X106344310Y-50146899D01*
X105336505Y-50146899D01*
X105493240Y-50024906D01*
X105645722Y-49859268D01*
X105734816Y-49722898D01*
X105780329Y-49681000D01*
X105840299Y-49665814D01*
X105900268Y-49681000D01*
X105945782Y-49722898D01*
X105986922Y-49785866D01*
X106750789Y-49022001D01*
X107469210Y-49022001D01*
X108233076Y-49785867D01*
X108274516Y-49722439D01*
X108320030Y-49680541D01*
X108379999Y-49665355D01*
X108439968Y-49680541D01*
X108485482Y-49722439D01*
X108526922Y-49785866D01*
X109290790Y-49022000D01*
X108526921Y-48258132D01*
X108485482Y-48321560D01*
X108439968Y-48363458D01*
X108379999Y-48378644D01*
X108320030Y-48363458D01*
X108274516Y-48321560D01*
X108233076Y-48258132D01*
X107469210Y-49022000D01*
X107469210Y-49022001D01*
X106750789Y-49022001D01*
X106750790Y-49022000D01*
X105986921Y-48258132D01*
X105945782Y-48321101D01*
X105900268Y-48362999D01*
X105840299Y-48378185D01*
X105780330Y-48362999D01*
X105734816Y-48321101D01*
X105693677Y-48258133D01*
X105645722Y-48184732D01*
X105493240Y-48019094D01*
X105483887Y-48011814D01*
X105356858Y-47912942D01*
X105318887Y-47864180D01*
X105308670Y-47803228D01*
X105328667Y-47744750D01*
X105374065Y-47702814D01*
X105433937Y-47687512D01*
X106248811Y-47685524D01*
X106308869Y-47700594D01*
X106354498Y-47742455D01*
X106374675Y-47800998D01*
X106364526Y-47862084D01*
X106344920Y-47887285D01*
X106344310Y-47897101D01*
X107109999Y-48662790D01*
X107110000Y-48662790D01*
X107875689Y-47897100D01*
X107875264Y-47890270D01*
X107850142Y-47858010D01*
X107839924Y-47797057D01*
X107859920Y-47738578D01*
X107905318Y-47696642D01*
X107965194Y-47681338D01*
X108796794Y-47679310D01*
X108856854Y-47694380D01*
X108902483Y-47736242D01*
X108922660Y-47794785D01*
X108912511Y-47855871D01*
X108884646Y-47891686D01*
X108884310Y-47897101D01*
X109649999Y-48662790D01*
X109650000Y-48662790D01*
X110415689Y-47897100D01*
X110415535Y-47894631D01*
X110382207Y-47851834D01*
X110371989Y-47790881D01*
X110391985Y-47732402D01*
X110437383Y-47690466D01*
X110497258Y-47675162D01*
X111343964Y-47673097D01*
X111404022Y-47688166D01*
X111449651Y-47730027D01*
X111469828Y-47788569D01*
X111459681Y-47849654D01*
X111421660Y-47898528D01*
X111266762Y-48019091D01*
X111114278Y-48184731D01*
X111025183Y-48321102D01*
X110979669Y-48363000D01*
X110919700Y-48378186D01*
X110859731Y-48363000D01*
X110814218Y-48321102D01*
X110773076Y-48258132D01*
X110009210Y-49022000D01*
X110009210Y-49022001D01*
X110773076Y-49785867D01*
X110773077Y-49785866D01*
X110814218Y-49722898D01*
X110859731Y-49681000D01*
X110919700Y-49665814D01*
X110979669Y-49681000D01*
X111025183Y-49722898D01*
X111114278Y-49859268D01*
X111266762Y-50024908D01*
X111444421Y-50163187D01*
X111444424Y-50163189D01*
X111642426Y-50270342D01*
X111855365Y-50343444D01*
X112077431Y-50380500D01*
X112302566Y-50380500D01*
X112302569Y-50380500D01*
X112524635Y-50343444D01*
X112737574Y-50270342D01*
X112935576Y-50163189D01*
X113113240Y-50024906D01*
X113265722Y-49859268D01*
X113388860Y-49670791D01*
X113479296Y-49464616D01*
X113534564Y-49246368D01*
X113553156Y-49022000D01*
X113534564Y-48797632D01*
X113479296Y-48579384D01*
X113388860Y-48373209D01*
X113265722Y-48184732D01*
X113113240Y-48019094D01*
X112953051Y-47894413D01*
X112915082Y-47845654D01*
X112904865Y-47784701D01*
X112924861Y-47726223D01*
X112970260Y-47684288D01*
X113030133Y-47668985D01*
X131016753Y-47625115D01*
X131061011Y-47633030D01*
G37*
G04 #@! TD.AperFunction*
M02*
