G04 #@! TF.GenerationSoftware,KiCad,Pcbnew,7.0.1*
G04 #@! TF.CreationDate,2024-04-18T01:50:12+02:00*
G04 #@! TF.ProjectId,NerdAxe_ultra,4e657264-4178-4655-9f75-6c7472612e6b,rev?*
G04 #@! TF.SameCoordinates,Original*
G04 #@! TF.FileFunction,Copper,L4,Bot*
G04 #@! TF.FilePolarity,Positive*
%FSLAX46Y46*%
G04 Gerber Fmt 4.6, Leading zero omitted, Abs format (unit mm)*
G04 Created by KiCad (PCBNEW 7.0.1) date 2024-04-18 01:50:12*
%MOMM*%
%LPD*%
G01*
G04 APERTURE LIST*
G04 Aperture macros list*
%AMRoundRect*
0 Rectangle with rounded corners*
0 $1 Rounding radius*
0 $2 $3 $4 $5 $6 $7 $8 $9 X,Y pos of 4 corners*
0 Add a 4 corners polygon primitive as box body*
4,1,4,$2,$3,$4,$5,$6,$7,$8,$9,$2,$3,0*
0 Add four circle primitives for the rounded corners*
1,1,$1+$1,$2,$3*
1,1,$1+$1,$4,$5*
1,1,$1+$1,$6,$7*
1,1,$1+$1,$8,$9*
0 Add four rect primitives between the rounded corners*
20,1,$1+$1,$2,$3,$4,$5,0*
20,1,$1+$1,$4,$5,$6,$7,0*
20,1,$1+$1,$6,$7,$8,$9,0*
20,1,$1+$1,$8,$9,$2,$3,0*%
G04 Aperture macros list end*
G04 #@! TA.AperFunction,ComponentPad*
%ADD10C,0.800000*%
G04 #@! TD*
G04 #@! TA.AperFunction,ComponentPad*
%ADD11C,6.000000*%
G04 #@! TD*
G04 #@! TA.AperFunction,ComponentPad*
%ADD12C,0.500000*%
G04 #@! TD*
G04 #@! TA.AperFunction,ComponentPad*
%ADD13C,0.400000*%
G04 #@! TD*
G04 #@! TA.AperFunction,ComponentPad*
%ADD14C,1.574800*%
G04 #@! TD*
G04 #@! TA.AperFunction,ComponentPad*
%ADD15C,1.700000*%
G04 #@! TD*
G04 #@! TA.AperFunction,SMDPad,CuDef*
%ADD16C,1.000000*%
G04 #@! TD*
G04 #@! TA.AperFunction,SMDPad,CuDef*
%ADD17R,0.792000X0.221000*%
G04 #@! TD*
G04 #@! TA.AperFunction,SMDPad,CuDef*
%ADD18R,4.277000X1.810000*%
G04 #@! TD*
G04 #@! TA.AperFunction,SMDPad,CuDef*
%ADD19R,4.277000X4.530000*%
G04 #@! TD*
G04 #@! TA.AperFunction,SMDPad,CuDef*
%ADD20RoundRect,0.250000X-0.550000X1.500000X-0.550000X-1.500000X0.550000X-1.500000X0.550000X1.500000X0*%
G04 #@! TD*
G04 #@! TA.AperFunction,SMDPad,CuDef*
%ADD21RoundRect,0.250000X-0.750000X0.750000X-0.750000X-0.750000X0.750000X-0.750000X0.750000X0.750000X0*%
G04 #@! TD*
G04 #@! TA.AperFunction,ViaPad*
%ADD22C,0.800000*%
G04 #@! TD*
G04 #@! TA.AperFunction,ViaPad*
%ADD23C,1.200000*%
G04 #@! TD*
G04 #@! TA.AperFunction,Conductor*
%ADD24C,1.000000*%
G04 #@! TD*
G04 #@! TA.AperFunction,Conductor*
%ADD25C,0.254000*%
G04 #@! TD*
G04 #@! TA.AperFunction,Conductor*
%ADD26C,0.508000*%
G04 #@! TD*
G04 #@! TA.AperFunction,Conductor*
%ADD27C,1.500000*%
G04 #@! TD*
G04 APERTURE END LIST*
D10*
X76250000Y-143830990D03*
X76909010Y-142240000D03*
X76909010Y-145421980D03*
X78500000Y-141580990D03*
D11*
X78500000Y-143830990D03*
D10*
X78500000Y-146080990D03*
X80090990Y-142240000D03*
X80090990Y-145421980D03*
X80750000Y-143830990D03*
X130250000Y-143728000D03*
X130909010Y-142137010D03*
X130909010Y-145318990D03*
X132500000Y-141478000D03*
D11*
X132500000Y-143728000D03*
D10*
X132500000Y-145978000D03*
X134090990Y-142137010D03*
X134090990Y-145318990D03*
X134750000Y-143728000D03*
X76250000Y-51054000D03*
X76909010Y-49463010D03*
X76909010Y-52644990D03*
X78500000Y-48804000D03*
D11*
X78500000Y-51054000D03*
D10*
X78500000Y-53304000D03*
X80090990Y-49463010D03*
X80090990Y-52644990D03*
X80750000Y-51054000D03*
D12*
X116922000Y-100876200D03*
X116922000Y-101876200D03*
X115922000Y-101876200D03*
X115922000Y-100876200D03*
D10*
X130250000Y-51120990D03*
X130909010Y-49530000D03*
X130909010Y-52711980D03*
X132500000Y-48870990D03*
D11*
X132500000Y-51120990D03*
D10*
X132500000Y-53370990D03*
X134090990Y-49530000D03*
X134090990Y-52711980D03*
X134750000Y-51120990D03*
D13*
X98446291Y-80836200D03*
X99396291Y-81411200D03*
X97496291Y-81411200D03*
X98446291Y-81986200D03*
D14*
X96382400Y-143240851D03*
X98922400Y-143240851D03*
X101462400Y-143240851D03*
X104002400Y-143240851D03*
D15*
X84250000Y-71942000D03*
X86790000Y-71942000D03*
X89330000Y-71942000D03*
X91870000Y-71942000D03*
X94410000Y-71942000D03*
X96950000Y-71942000D03*
X99490000Y-71942000D03*
X102030000Y-71942000D03*
X104570000Y-71942000D03*
X107110000Y-71942000D03*
X109650000Y-71942000D03*
X112190000Y-71942000D03*
X112190000Y-49022000D03*
X109650000Y-49022000D03*
X107110000Y-49022000D03*
X104570000Y-49022000D03*
X102030000Y-49022000D03*
X99490000Y-49022000D03*
X96950000Y-49022000D03*
X94410000Y-49022000D03*
X91870000Y-49022000D03*
X89330000Y-49022000D03*
X86790000Y-49022000D03*
X84250000Y-49022000D03*
D16*
X132588000Y-137795000D03*
D17*
X108528000Y-112805000D03*
X108528000Y-113307000D03*
X108528000Y-113809000D03*
X108528000Y-114311000D03*
X108528000Y-114813000D03*
X108528000Y-115315000D03*
X108528000Y-115817000D03*
X108528000Y-116319000D03*
X108528000Y-116821000D03*
X108528000Y-117323000D03*
X108528000Y-117825000D03*
X108528000Y-118327000D03*
X108528000Y-118829000D03*
X108528000Y-119331000D03*
X102696000Y-119318000D03*
X102696000Y-118818000D03*
X102696000Y-118318000D03*
X102696000Y-117818000D03*
X102696000Y-117318000D03*
X102696000Y-116821000D03*
X102696000Y-116318000D03*
X102696000Y-115817000D03*
X102696000Y-115315000D03*
X102696000Y-114813000D03*
X102696000Y-114311000D03*
X102696000Y-113818000D03*
X102696000Y-113307000D03*
X102696000Y-112818000D03*
D18*
X105612000Y-113600000D03*
D19*
X105612000Y-117176000D03*
D16*
X78486000Y-57785000D03*
D20*
X90170000Y-139413000D03*
X90170000Y-144813000D03*
D21*
X131000000Y-78000000D03*
X124850000Y-78000000D03*
X131000000Y-89000000D03*
X124850000Y-89000000D03*
D16*
X125603000Y-51054000D03*
X77851000Y-138176000D03*
D22*
X96139000Y-121666000D03*
D23*
X130937000Y-86741000D03*
X128143000Y-91821000D03*
D22*
X76724200Y-88138000D03*
X116910000Y-128990000D03*
X97419400Y-103889800D03*
X87630000Y-82423000D03*
X101377600Y-85157000D03*
X96109000Y-112124000D03*
X97419400Y-98268400D03*
X100679400Y-97659800D03*
X106396000Y-118533000D03*
X97419400Y-95219800D03*
X110862000Y-120015000D03*
X98959400Y-95219800D03*
X104082000Y-115436000D03*
X98682000Y-136516000D03*
X85741200Y-87884000D03*
X98959400Y-103889800D03*
X106408000Y-116351000D03*
D23*
X128143000Y-89281000D03*
X133731000Y-91821000D03*
D22*
X95645200Y-81420400D03*
X97419400Y-96699800D03*
X92200000Y-75911200D03*
X105673000Y-117442000D03*
X97419400Y-100039800D03*
D23*
X133731000Y-89027000D03*
D22*
X101600000Y-109982000D03*
D23*
X130937000Y-91821000D03*
D22*
X98959400Y-101909800D03*
X85852000Y-73787000D03*
X117602000Y-123903000D03*
X104855000Y-118563000D03*
X104132000Y-117472000D03*
D23*
X128143000Y-86741000D03*
D22*
X98959400Y-96699800D03*
X119888000Y-110998000D03*
X97419400Y-101909800D03*
X112922500Y-104148200D03*
D23*
X133731000Y-86741000D03*
D22*
X107144000Y-117442000D03*
X90897000Y-129309000D03*
X112318000Y-97436200D03*
X105623000Y-115406000D03*
X98959400Y-100039800D03*
X104867000Y-116381000D03*
X105330000Y-132320000D03*
X104430000Y-130240000D03*
X98959400Y-98268400D03*
X115573700Y-104299200D03*
X120310000Y-102111200D03*
X108204000Y-121920000D03*
X95260000Y-132630000D03*
X107094000Y-115406000D03*
X113727778Y-113462333D03*
X100679400Y-95911200D03*
D23*
X133858000Y-74549000D03*
X133858000Y-78740000D03*
X124841000Y-74549000D03*
X128016000Y-76708000D03*
X128016000Y-78740000D03*
X131064000Y-74549000D03*
X128016000Y-74549000D03*
X133858000Y-76708000D03*
D22*
X101015000Y-126170000D03*
X115737362Y-98496846D03*
X118490000Y-127770000D03*
X117172000Y-104284200D03*
X112130000Y-127390000D03*
X109220000Y-122936000D03*
X101015000Y-121775000D03*
X103000000Y-106351200D03*
X105152000Y-113890000D03*
D23*
X107969400Y-100929800D03*
X108009400Y-103059800D03*
D22*
X104126000Y-113110000D03*
X108330000Y-106381200D03*
X107204000Y-113920000D03*
D23*
X108009400Y-105029800D03*
D22*
X106178000Y-113110000D03*
D23*
X105979400Y-100929800D03*
X105979400Y-98889800D03*
X107949400Y-98909800D03*
X106029400Y-105059800D03*
X105999400Y-103039800D03*
D22*
X88883000Y-131168000D03*
X88773000Y-137160000D03*
X100714600Y-78759000D03*
X89154000Y-141986000D03*
X114554000Y-82296000D03*
X94580000Y-137390000D03*
X114554000Y-83947000D03*
X90881000Y-131182000D03*
X98450000Y-131200000D03*
X113284000Y-83947000D03*
X87630000Y-91948000D03*
X91440000Y-137160000D03*
X87630000Y-94615000D03*
X87630000Y-93218000D03*
X113284000Y-82296000D03*
X91186000Y-141986000D03*
X114010000Y-97287200D03*
X85741200Y-90678000D03*
X110617000Y-78359000D03*
X98662000Y-137914100D03*
X117172000Y-98545200D03*
X101727000Y-108458000D03*
X122555000Y-92202000D03*
X104500000Y-67000000D03*
X104013000Y-68326000D03*
X113665000Y-111379000D03*
X112530000Y-109911200D03*
X99441000Y-74676000D03*
X82296000Y-76962000D03*
X81240375Y-91298225D03*
X88900000Y-127000000D03*
X99568000Y-135255000D03*
X101346000Y-134493000D03*
X108468000Y-124939000D03*
X100155000Y-123661000D03*
X104431000Y-124939000D03*
X103530000Y-127490000D03*
X111250000Y-108121200D03*
X100180000Y-108151200D03*
X98850000Y-109991200D03*
X96130000Y-110920000D03*
X117475000Y-120015000D03*
X114935000Y-120142000D03*
X96647000Y-118999000D03*
X96520000Y-120269000D03*
X116332000Y-117221000D03*
X113272599Y-100980499D03*
X112962000Y-99756200D03*
X116428000Y-115817000D03*
X117148868Y-114071132D03*
X112000000Y-103361200D03*
X97277600Y-83957000D03*
X95577600Y-84857000D03*
X101810000Y-93201200D03*
X102800000Y-85111200D03*
X97600000Y-116430000D03*
X114844000Y-116495900D03*
X96610000Y-114090000D03*
X96950000Y-115460000D03*
X96220000Y-117200000D03*
X97010000Y-117920000D03*
X90043000Y-125857000D03*
X81296200Y-89408000D03*
X83185000Y-78740000D03*
X115540000Y-114780000D03*
X114935000Y-86614000D03*
X122555000Y-88900000D03*
D24*
X90330000Y-144653000D02*
X90170000Y-144813000D01*
D25*
X107144000Y-117442000D02*
X105878000Y-117442000D01*
X131000000Y-86804000D02*
X130937000Y-86741000D01*
X98296000Y-114311000D02*
X96109000Y-112124000D01*
X131000000Y-89000000D02*
X131000000Y-86804000D01*
X110156000Y-118327000D02*
X108528000Y-118327000D01*
D24*
X95265149Y-143240851D02*
X93853000Y-144653000D01*
D25*
X110862000Y-119033000D02*
X110156000Y-118327000D01*
X99393000Y-120015000D02*
X99393000Y-119252000D01*
X97742000Y-121666000D02*
X96139000Y-121666000D01*
X113613667Y-113462333D02*
X112765000Y-114311000D01*
X99393000Y-120015000D02*
X97742000Y-121666000D01*
D24*
X96382400Y-143240851D02*
X95265149Y-143240851D01*
D25*
X102696000Y-114311000D02*
X98296000Y-114311000D01*
X99393000Y-119252000D02*
X100327000Y-118318000D01*
X100327000Y-118318000D02*
X102696000Y-118318000D01*
X110862000Y-120015000D02*
X110862000Y-119033000D01*
X113727778Y-113462333D02*
X113613667Y-113462333D01*
X112765000Y-114311000D02*
X108528000Y-114311000D01*
D24*
X93853000Y-144653000D02*
X90330000Y-144653000D01*
D25*
X105878000Y-117442000D02*
X105612000Y-117176000D01*
X124968000Y-77882000D02*
X124850000Y-78000000D01*
X109450000Y-122706000D02*
X109450000Y-119488000D01*
X109450000Y-119488000D02*
X109293000Y-119331000D01*
X109293000Y-119331000D02*
X108528000Y-119331000D01*
D26*
X118302000Y-101061484D02*
X118302000Y-103154200D01*
X112130000Y-127390000D02*
X112510000Y-127770000D01*
D25*
X101015000Y-121775000D02*
X101015000Y-119871000D01*
X101015000Y-126170000D02*
X101015000Y-121775000D01*
D26*
X112510000Y-127770000D02*
X118490000Y-127770000D01*
X118302000Y-103154200D02*
X117172000Y-104284200D01*
D25*
X109220000Y-122936000D02*
X109450000Y-122706000D01*
D26*
X115737362Y-98496846D02*
X118302000Y-101061484D01*
D25*
X101015000Y-119871000D02*
X101568000Y-119318000D01*
X101568000Y-119318000D02*
X102696000Y-119318000D01*
X90170000Y-137160000D02*
X91440000Y-137160000D01*
X90170000Y-137160000D02*
X90170000Y-139413000D01*
D27*
X98044000Y-140589000D02*
X98922400Y-141467400D01*
X92931000Y-139413000D02*
X94107000Y-140589000D01*
D25*
X90170000Y-141986000D02*
X89154000Y-141986000D01*
X90170000Y-139413000D02*
X90170000Y-141986000D01*
D27*
X94107000Y-140589000D02*
X98044000Y-140589000D01*
D25*
X91186000Y-141986000D02*
X90170000Y-141986000D01*
D27*
X90170000Y-139413000D02*
X92931000Y-139413000D01*
X98922400Y-141467400D02*
X98922400Y-143240851D01*
D25*
X88773000Y-137160000D02*
X90170000Y-137160000D01*
X104500000Y-60685000D02*
X96950000Y-53135000D01*
X104500000Y-67000000D02*
X104500000Y-60685000D01*
X96950000Y-53135000D02*
X96950000Y-49022000D01*
X102870000Y-67437000D02*
X102870000Y-61595000D01*
X94410000Y-53135000D02*
X94410000Y-49022000D01*
X102870000Y-61595000D02*
X94410000Y-53135000D01*
X103759000Y-68326000D02*
X102870000Y-67437000D01*
X104013000Y-68326000D02*
X103759000Y-68326000D01*
X112251000Y-113809000D02*
X108528000Y-113809000D01*
X113665000Y-112395000D02*
X112251000Y-113809000D01*
X113665000Y-111379000D02*
X113665000Y-112395000D01*
X112530000Y-112406000D02*
X112530000Y-109911200D01*
X108528000Y-113307000D02*
X111629000Y-113307000D01*
X111629000Y-113307000D02*
X112530000Y-112406000D01*
X94410000Y-71942000D02*
X94410000Y-73582000D01*
X94996000Y-74168000D02*
X98933000Y-74168000D01*
X94410000Y-73582000D02*
X94996000Y-74168000D01*
X98933000Y-74168000D02*
X99441000Y-74676000D01*
X86868000Y-127000000D02*
X80137000Y-120269000D01*
X80137000Y-80518000D02*
X82296000Y-78359000D01*
X82296000Y-76200000D02*
X82296000Y-76962000D01*
X81240375Y-91298225D02*
X81240375Y-91051575D01*
X89330000Y-49022000D02*
X89281000Y-49071000D01*
X81240375Y-91051575D02*
X80137000Y-89948200D01*
X89281000Y-49071000D02*
X89281000Y-51299000D01*
X80100000Y-101221200D02*
X80100000Y-92211200D01*
X81012975Y-91298225D02*
X81240375Y-91298225D01*
X80100000Y-92211200D02*
X81012975Y-91298225D01*
X82296000Y-78359000D02*
X82296000Y-76962000D01*
X80137000Y-120269000D02*
X80137000Y-101258200D01*
X80137000Y-89948200D02*
X80137000Y-80518000D01*
X88900000Y-127000000D02*
X86868000Y-127000000D01*
X81534000Y-59046000D02*
X81534000Y-75438000D01*
X80137000Y-101258200D02*
X80100000Y-101221200D01*
X81534000Y-75438000D02*
X82296000Y-76200000D01*
X89281000Y-51299000D02*
X81534000Y-59046000D01*
X100584000Y-135255000D02*
X101346000Y-134493000D01*
X99568000Y-135255000D02*
X100584000Y-135255000D01*
X100971000Y-118818000D02*
X100155000Y-119634000D01*
X102696000Y-118818000D02*
X100971000Y-118818000D01*
X109982000Y-119100000D02*
X109982000Y-124079000D01*
X108468000Y-124939000D02*
X104431000Y-124939000D01*
X103530000Y-125800000D02*
X103530000Y-127490000D01*
X109711000Y-118829000D02*
X109982000Y-119100000D01*
X109122000Y-124939000D02*
X108468000Y-124939000D01*
X100155000Y-119634000D02*
X100155000Y-123661000D01*
X104391000Y-124939000D02*
X103530000Y-125800000D01*
X104431000Y-124939000D02*
X104391000Y-124939000D01*
X108528000Y-118829000D02*
X109711000Y-118829000D01*
X109982000Y-124079000D02*
X109122000Y-124939000D01*
X110871000Y-112805000D02*
X108528000Y-112805000D01*
X111250000Y-108121200D02*
X111250000Y-112430000D01*
X110873000Y-112807000D02*
X110871000Y-112805000D01*
X111250000Y-112430000D02*
X110873000Y-112807000D01*
X100180000Y-111568000D02*
X100180000Y-108151200D01*
X102696000Y-112818000D02*
X101430000Y-112818000D01*
X101430000Y-112818000D02*
X100180000Y-111568000D01*
X100397000Y-113307000D02*
X98850000Y-111760000D01*
X98850000Y-111760000D02*
X98850000Y-109991200D01*
X102696000Y-113307000D02*
X100397000Y-113307000D01*
X102696000Y-113818000D02*
X99454000Y-113818000D01*
X99454000Y-113818000D02*
X96556000Y-110920000D01*
X96556000Y-110920000D02*
X96130000Y-110920000D01*
X108528000Y-117323000D02*
X113640000Y-117323000D01*
X115951000Y-118110000D02*
X117475000Y-119634000D01*
X117475000Y-119634000D02*
X117475000Y-120015000D01*
X114427000Y-118110000D02*
X115951000Y-118110000D01*
X113640000Y-117323000D02*
X114427000Y-118110000D01*
X114935000Y-119634000D02*
X114935000Y-120142000D01*
X113126000Y-117825000D02*
X114935000Y-119634000D01*
X108528000Y-117825000D02*
X113126000Y-117825000D01*
X99602000Y-117318000D02*
X102696000Y-117318000D01*
X96647000Y-118999000D02*
X97921000Y-118999000D01*
X97921000Y-118999000D02*
X99602000Y-117318000D01*
X96647000Y-120142000D02*
X97536000Y-120142000D01*
X99860000Y-117818000D02*
X102696000Y-117818000D01*
X96520000Y-120269000D02*
X96647000Y-120142000D01*
X97536000Y-120142000D02*
X99860000Y-117818000D01*
X115697000Y-117175300D02*
X116286300Y-117175300D01*
X114300000Y-105791000D02*
X118364000Y-109855000D01*
X114445300Y-117175300D02*
X114091000Y-116821000D01*
X116286300Y-117175300D02*
X116332000Y-117221000D01*
X118364000Y-109855000D02*
X118364000Y-115146152D01*
X115697000Y-117175300D02*
X114445300Y-117175300D01*
X118364000Y-115146152D02*
X116334852Y-117175300D01*
X114091000Y-116821000D02*
X108528000Y-116821000D01*
X116334852Y-117175300D02*
X115697000Y-117175300D01*
X113611035Y-100980499D02*
X114300000Y-101669464D01*
X113272599Y-100980499D02*
X113611035Y-100980499D01*
X114300000Y-101669464D02*
X114300000Y-105791000D01*
X112593199Y-100125001D02*
X112962000Y-99756200D01*
X117903600Y-114341400D02*
X117903600Y-110263600D01*
X113675600Y-106035600D02*
X113675600Y-102538800D01*
X116428000Y-115817000D02*
X117903600Y-114341400D01*
X113675600Y-102538800D02*
X112593199Y-101456399D01*
X108528000Y-115817000D02*
X116428000Y-115817000D01*
X117903600Y-110263600D02*
X113675600Y-106035600D01*
X112593199Y-101456399D02*
X112593199Y-100125001D01*
X113627000Y-114813000D02*
X108528000Y-114813000D01*
X117160000Y-110546000D02*
X117160000Y-114060000D01*
X114368868Y-114071132D02*
X113627000Y-114813000D01*
X117160000Y-114060000D02*
X117148868Y-114071132D01*
X117148868Y-114071132D02*
X114368868Y-114071132D01*
X112000000Y-103361200D02*
X111948000Y-103413200D01*
X111948000Y-103413200D02*
X111948000Y-105334000D01*
X111948000Y-105334000D02*
X117160000Y-110546000D01*
X97277600Y-83957000D02*
X96477600Y-83957000D01*
X96477600Y-83957000D02*
X95577600Y-84857000D01*
X102179400Y-92831800D02*
X101810000Y-93201200D01*
X102179400Y-85731800D02*
X102179400Y-92831800D01*
X102800000Y-85111200D02*
X102179400Y-85731800D01*
X102696000Y-115817000D02*
X98213000Y-115817000D01*
X98213000Y-115817000D02*
X97600000Y-116430000D01*
X114667100Y-116319000D02*
X108528000Y-116319000D01*
X114844000Y-116495900D02*
X114667100Y-116319000D01*
X102663600Y-114780600D02*
X97300600Y-114780600D01*
X97300600Y-114780600D02*
X96610000Y-114090000D01*
X102696000Y-114813000D02*
X102663600Y-114780600D01*
X97095000Y-115315000D02*
X96950000Y-115460000D01*
X102696000Y-115315000D02*
X97095000Y-115315000D01*
X98060000Y-117200000D02*
X98942000Y-116318000D01*
X96220000Y-117200000D02*
X98060000Y-117200000D01*
X98942000Y-116318000D02*
X102696000Y-116318000D01*
X97010000Y-117920000D02*
X98190000Y-117920000D01*
X99289000Y-116821000D02*
X102696000Y-116821000D01*
X98190000Y-117920000D02*
X99289000Y-116821000D01*
X82400000Y-91717000D02*
X82400000Y-90511800D01*
X81296200Y-89408000D02*
X82169000Y-88535200D01*
X80800000Y-119408000D02*
X80800000Y-93317000D01*
X82400000Y-90511800D02*
X81296200Y-89408000D01*
X82296000Y-74930000D02*
X82296000Y-60960000D01*
X87038900Y-125646900D02*
X80800000Y-119408000D01*
X82296000Y-60960000D02*
X91870000Y-51386000D01*
X91870000Y-51386000D02*
X91870000Y-49022000D01*
X82169000Y-88535200D02*
X82169000Y-79756000D01*
X82169000Y-79756000D02*
X83185000Y-78740000D01*
X80800000Y-93317000D02*
X82400000Y-91717000D01*
X90043000Y-125857000D02*
X89832900Y-125646900D01*
X89832900Y-125646900D02*
X87038900Y-125646900D01*
X83185000Y-75819000D02*
X82296000Y-74930000D01*
X83185000Y-78740000D02*
X83185000Y-75819000D01*
X108528000Y-115315000D02*
X115005000Y-115315000D01*
X115005000Y-115315000D02*
X115540000Y-114780000D01*
X117856000Y-86614000D02*
X120142000Y-88900000D01*
X120142000Y-88900000D02*
X122555000Y-88900000D01*
X122655000Y-89000000D02*
X122555000Y-88900000D01*
X124850000Y-89000000D02*
X122655000Y-89000000D01*
X114935000Y-86614000D02*
X117856000Y-86614000D01*
G04 #@! TA.AperFunction,Conductor*
G36*
X134558000Y-85487613D02*
G01*
X134603387Y-85533000D01*
X134620000Y-85595000D01*
X134620000Y-92711017D01*
X134603058Y-92773584D01*
X134556860Y-92819054D01*
X134494033Y-92835000D01*
X126983313Y-92715782D01*
X126741032Y-92711937D01*
X126679867Y-92694678D01*
X126635286Y-92649384D01*
X126619000Y-92587953D01*
X126619000Y-89250000D01*
X129500001Y-89250000D01*
X129500001Y-89799979D01*
X129510493Y-89902695D01*
X129565642Y-90069122D01*
X129657683Y-90218345D01*
X129781654Y-90342316D01*
X129930877Y-90434357D01*
X130097303Y-90489506D01*
X130200021Y-90500000D01*
X130750000Y-90500000D01*
X130750000Y-89250000D01*
X131250000Y-89250000D01*
X131250000Y-90499999D01*
X131799979Y-90499999D01*
X131902695Y-90489506D01*
X132069122Y-90434357D01*
X132218345Y-90342316D01*
X132342316Y-90218345D01*
X132434357Y-90069122D01*
X132489506Y-89902696D01*
X132500000Y-89799979D01*
X132500000Y-89250000D01*
X131250000Y-89250000D01*
X130750000Y-89250000D01*
X129500001Y-89250000D01*
X126619000Y-89250000D01*
X126619000Y-88750000D01*
X129500000Y-88750000D01*
X130750000Y-88750000D01*
X130750000Y-87500001D01*
X130200021Y-87500001D01*
X130097304Y-87510493D01*
X129930877Y-87565642D01*
X129781654Y-87657683D01*
X129657683Y-87781654D01*
X129565642Y-87930877D01*
X129510493Y-88097303D01*
X129500000Y-88200021D01*
X129500000Y-88750000D01*
X126619000Y-88750000D01*
X126619000Y-87500000D01*
X131250000Y-87500000D01*
X131250000Y-88750000D01*
X132499999Y-88750000D01*
X132499999Y-88200021D01*
X132489506Y-88097304D01*
X132434357Y-87930877D01*
X132342316Y-87781654D01*
X132218345Y-87657683D01*
X132069122Y-87565642D01*
X131902696Y-87510493D01*
X131799979Y-87500000D01*
X131250000Y-87500000D01*
X126619000Y-87500000D01*
X126619000Y-85595000D01*
X126635613Y-85533000D01*
X126681000Y-85487613D01*
X126743000Y-85471000D01*
X134496000Y-85471000D01*
X134558000Y-85487613D01*
G37*
G04 #@! TD.AperFunction*
G04 #@! TA.AperFunction,Conductor*
G36*
X134558000Y-72533613D02*
G01*
X134603387Y-72579000D01*
X134620000Y-72641000D01*
X134620000Y-79887326D01*
X134603609Y-79948941D01*
X134558768Y-79994266D01*
X134497333Y-80011319D01*
X122809651Y-80136993D01*
X122808318Y-80137000D01*
X122171000Y-80137000D01*
X122109000Y-80120387D01*
X122063613Y-80075000D01*
X122047000Y-80013000D01*
X122047000Y-78250000D01*
X123350001Y-78250000D01*
X123350001Y-78799979D01*
X123360493Y-78902695D01*
X123415642Y-79069122D01*
X123507683Y-79218345D01*
X123631654Y-79342316D01*
X123780877Y-79434357D01*
X123947303Y-79489506D01*
X124050021Y-79500000D01*
X124600000Y-79500000D01*
X124600000Y-78250000D01*
X125100000Y-78250000D01*
X125100000Y-79499999D01*
X125649979Y-79499999D01*
X125752695Y-79489506D01*
X125919122Y-79434357D01*
X126068345Y-79342316D01*
X126192316Y-79218345D01*
X126284357Y-79069122D01*
X126339506Y-78902696D01*
X126350000Y-78799979D01*
X126350000Y-78250000D01*
X129500001Y-78250000D01*
X129500001Y-78799979D01*
X129510493Y-78902695D01*
X129565642Y-79069122D01*
X129657683Y-79218345D01*
X129781654Y-79342316D01*
X129930877Y-79434357D01*
X130097303Y-79489506D01*
X130200021Y-79500000D01*
X130750000Y-79500000D01*
X130750000Y-78250000D01*
X131250000Y-78250000D01*
X131250000Y-79499999D01*
X131799979Y-79499999D01*
X131902695Y-79489506D01*
X132069122Y-79434357D01*
X132218345Y-79342316D01*
X132342316Y-79218345D01*
X132434357Y-79069122D01*
X132489506Y-78902696D01*
X132500000Y-78799979D01*
X132500000Y-78250000D01*
X131250000Y-78250000D01*
X130750000Y-78250000D01*
X129500001Y-78250000D01*
X126350000Y-78250000D01*
X125100000Y-78250000D01*
X124600000Y-78250000D01*
X123350001Y-78250000D01*
X122047000Y-78250000D01*
X122047000Y-77750000D01*
X123350000Y-77750000D01*
X124600000Y-77750000D01*
X124600000Y-76500001D01*
X124050021Y-76500001D01*
X123947304Y-76510493D01*
X123780877Y-76565642D01*
X123631654Y-76657683D01*
X123507683Y-76781654D01*
X123415642Y-76930877D01*
X123360493Y-77097303D01*
X123350000Y-77200021D01*
X123350000Y-77750000D01*
X122047000Y-77750000D01*
X122047000Y-76500000D01*
X125100000Y-76500000D01*
X125100000Y-77750000D01*
X126349999Y-77750000D01*
X129500000Y-77750000D01*
X130750000Y-77750000D01*
X130750000Y-76500001D01*
X130200021Y-76500001D01*
X130097304Y-76510493D01*
X129930877Y-76565642D01*
X129781654Y-76657683D01*
X129657683Y-76781654D01*
X129565642Y-76930877D01*
X129510493Y-77097303D01*
X129500000Y-77200021D01*
X129500000Y-77750000D01*
X126349999Y-77750000D01*
X126349999Y-77200021D01*
X126339506Y-77097304D01*
X126284357Y-76930877D01*
X126192316Y-76781654D01*
X126068345Y-76657683D01*
X125919122Y-76565642D01*
X125752696Y-76510493D01*
X125649979Y-76500000D01*
X131250000Y-76500000D01*
X131250000Y-77750000D01*
X132499999Y-77750000D01*
X132499999Y-77200021D01*
X132489506Y-77097304D01*
X132434357Y-76930877D01*
X132342316Y-76781654D01*
X132218345Y-76657683D01*
X132069122Y-76565642D01*
X131902696Y-76510493D01*
X131799979Y-76500000D01*
X131250000Y-76500000D01*
X125649979Y-76500000D01*
X125100000Y-76500000D01*
X122047000Y-76500000D01*
X122047000Y-72641000D01*
X122063613Y-72579000D01*
X122109000Y-72533613D01*
X122171000Y-72517000D01*
X134496000Y-72517000D01*
X134558000Y-72533613D01*
G37*
G04 #@! TD.AperFunction*
G04 #@! TA.AperFunction,Conductor*
G36*
X105713545Y-80597062D02*
G01*
X105759644Y-80642344D01*
X105777235Y-80704521D01*
X105832582Y-84079776D01*
X105820953Y-84134749D01*
X105786583Y-84179200D01*
X102665284Y-86743469D01*
X102600772Y-86771157D01*
X102531457Y-86760027D01*
X102478857Y-86713534D01*
X102459300Y-86646111D01*
X102459300Y-85899929D01*
X102468891Y-85851711D01*
X102496204Y-85810834D01*
X102511685Y-85795351D01*
X102613058Y-85693978D01*
X102661649Y-85663763D01*
X102718596Y-85658154D01*
X102800000Y-85668871D01*
X102944336Y-85649869D01*
X103078836Y-85594157D01*
X103194333Y-85505533D01*
X103282957Y-85390036D01*
X103338669Y-85255536D01*
X103357671Y-85111200D01*
X103338669Y-84966864D01*
X103282957Y-84832365D01*
X103282956Y-84832364D01*
X103282956Y-84832363D01*
X103194332Y-84716866D01*
X103078837Y-84628243D01*
X102944335Y-84572530D01*
X102800000Y-84553529D01*
X102655664Y-84572530D01*
X102521163Y-84628243D01*
X102405666Y-84716866D01*
X102317043Y-84832363D01*
X102261330Y-84966864D01*
X102242328Y-85111200D01*
X102253045Y-85192602D01*
X102247436Y-85249549D01*
X102217218Y-85298142D01*
X102028296Y-85487064D01*
X102015095Y-85496564D01*
X101978862Y-85536308D01*
X101974850Y-85540510D01*
X101962190Y-85553170D01*
X101953576Y-85564046D01*
X101937301Y-85581898D01*
X101935410Y-85586781D01*
X101921873Y-85612462D01*
X101918915Y-85616780D01*
X101913385Y-85640291D01*
X101908225Y-85656954D01*
X101899500Y-85679478D01*
X101899500Y-85684711D01*
X101896153Y-85713560D01*
X101894955Y-85718649D01*
X101898292Y-85742565D01*
X101899500Y-85759972D01*
X101899500Y-92521247D01*
X101885263Y-92579427D01*
X101845770Y-92624460D01*
X101789946Y-92646169D01*
X101665664Y-92662530D01*
X101531163Y-92718243D01*
X101415666Y-92806866D01*
X101327043Y-92922363D01*
X101271330Y-93056864D01*
X101252329Y-93201200D01*
X101271330Y-93345535D01*
X101327043Y-93480037D01*
X101415666Y-93595533D01*
X101531162Y-93684156D01*
X101531163Y-93684156D01*
X101531164Y-93684157D01*
X101665664Y-93739869D01*
X101810000Y-93758871D01*
X101810000Y-93758870D01*
X101826446Y-93761036D01*
X101826210Y-93762822D01*
X101874808Y-93770336D01*
X101927856Y-93817056D01*
X101947398Y-93884990D01*
X101910102Y-102705494D01*
X101900533Y-104968942D01*
X101900531Y-104969333D01*
X101883473Y-105032107D01*
X101837378Y-105078008D01*
X101774532Y-105094800D01*
X95011059Y-105094800D01*
X94948100Y-105077943D01*
X94901987Y-105031882D01*
X94885059Y-104968942D01*
X94865200Y-87300399D01*
X94865199Y-87300398D01*
X93518964Y-85713560D01*
X92792279Y-84857000D01*
X95019929Y-84857000D01*
X95038930Y-85001335D01*
X95094643Y-85135837D01*
X95183266Y-85251333D01*
X95298762Y-85339956D01*
X95298763Y-85339956D01*
X95298764Y-85339957D01*
X95433264Y-85395669D01*
X95577600Y-85414671D01*
X95721936Y-85395669D01*
X95856436Y-85339957D01*
X95971933Y-85251333D01*
X96060557Y-85135836D01*
X96116269Y-85001336D01*
X96135271Y-84857000D01*
X96124554Y-84775596D01*
X96130163Y-84718651D01*
X96160379Y-84670058D01*
X96556634Y-84273804D01*
X96597512Y-84246491D01*
X96645730Y-84236900D01*
X96733323Y-84236900D01*
X96789051Y-84249894D01*
X96833285Y-84286196D01*
X96883266Y-84351333D01*
X96998762Y-84439956D01*
X96998763Y-84439956D01*
X96998764Y-84439957D01*
X97133264Y-84495669D01*
X97277600Y-84514671D01*
X97421936Y-84495669D01*
X97556436Y-84439957D01*
X97671933Y-84351333D01*
X97760557Y-84235836D01*
X97816269Y-84101336D01*
X97835271Y-83957000D01*
X97816269Y-83812664D01*
X97760557Y-83678165D01*
X97760556Y-83678164D01*
X97760556Y-83678163D01*
X97671932Y-83562666D01*
X97556437Y-83474043D01*
X97421935Y-83418330D01*
X97277600Y-83399329D01*
X97133264Y-83418330D01*
X96998763Y-83474043D01*
X96883266Y-83562667D01*
X96833285Y-83627804D01*
X96789051Y-83664106D01*
X96733323Y-83677100D01*
X96543810Y-83677100D01*
X96527768Y-83674482D01*
X96474040Y-83676966D01*
X96468223Y-83677100D01*
X96450319Y-83677100D01*
X96436537Y-83678698D01*
X96412408Y-83679814D01*
X96407615Y-83681930D01*
X96379890Y-83690516D01*
X96374739Y-83691479D01*
X96354205Y-83704193D01*
X96338773Y-83712327D01*
X96316676Y-83722084D01*
X96312969Y-83725791D01*
X96290218Y-83743812D01*
X96285766Y-83746568D01*
X96271210Y-83765843D01*
X96259758Y-83779002D01*
X95764542Y-84274218D01*
X95715949Y-84304436D01*
X95659002Y-84310045D01*
X95577600Y-84299328D01*
X95433264Y-84318330D01*
X95298763Y-84374043D01*
X95183266Y-84462666D01*
X95094643Y-84578163D01*
X95038930Y-84712664D01*
X95019929Y-84857000D01*
X92792279Y-84857000D01*
X92544999Y-84565525D01*
X92522853Y-84527581D01*
X92515082Y-84484340D01*
X92505520Y-80726526D01*
X92522263Y-80663449D01*
X92568318Y-80617207D01*
X92631326Y-80600209D01*
X105651062Y-80580587D01*
X105713545Y-80597062D01*
G37*
G04 #@! TD.AperFunction*
G04 #@! TA.AperFunction,Conductor*
G36*
X91309091Y-136661439D02*
G01*
X91349319Y-136688319D01*
X91784681Y-137123681D01*
X91811561Y-137163909D01*
X91821000Y-137211362D01*
X91821000Y-142315638D01*
X91811561Y-142363091D01*
X91784681Y-142403319D01*
X91603319Y-142584681D01*
X91563091Y-142611561D01*
X91515638Y-142621000D01*
X88722636Y-142621000D01*
X88657445Y-142602481D01*
X88611728Y-142552456D01*
X88404341Y-142137682D01*
X88391292Y-142085411D01*
X88329179Y-139663000D01*
X88870001Y-139663000D01*
X88870001Y-140962979D01*
X88880493Y-141065695D01*
X88935642Y-141232122D01*
X89027683Y-141381345D01*
X89151654Y-141505316D01*
X89300877Y-141597357D01*
X89467303Y-141652506D01*
X89570021Y-141663000D01*
X89920000Y-141663000D01*
X89920000Y-139663000D01*
X90420000Y-139663000D01*
X90420000Y-141662999D01*
X90769979Y-141662999D01*
X90872695Y-141652506D01*
X91039122Y-141597357D01*
X91188345Y-141505316D01*
X91312316Y-141381345D01*
X91404357Y-141232122D01*
X91459506Y-141065696D01*
X91470000Y-140962979D01*
X91470000Y-139663000D01*
X90420000Y-139663000D01*
X89920000Y-139663000D01*
X88870001Y-139663000D01*
X88329179Y-139663000D01*
X88316358Y-139163000D01*
X88870000Y-139163000D01*
X89920000Y-139163000D01*
X89920000Y-137163001D01*
X89570021Y-137163001D01*
X89467304Y-137173493D01*
X89300877Y-137228642D01*
X89151654Y-137320683D01*
X89027683Y-137444654D01*
X88935642Y-137593877D01*
X88880493Y-137760303D01*
X88870000Y-137863021D01*
X88870000Y-139163000D01*
X88316358Y-139163000D01*
X88266104Y-137203086D01*
X88271821Y-137163000D01*
X90420000Y-137163000D01*
X90420000Y-139163000D01*
X91469999Y-139163000D01*
X91469999Y-137863021D01*
X91459506Y-137760304D01*
X91404357Y-137593877D01*
X91312316Y-137444654D01*
X91188345Y-137320683D01*
X91039122Y-137228642D01*
X90872696Y-137173493D01*
X90769979Y-137163000D01*
X90420000Y-137163000D01*
X88271821Y-137163000D01*
X88271933Y-137162213D01*
X88290859Y-137125520D01*
X88608800Y-136701600D01*
X88652546Y-136665091D01*
X88708000Y-136652000D01*
X91261638Y-136652000D01*
X91309091Y-136661439D01*
G37*
G04 #@! TD.AperFunction*
G04 #@! TA.AperFunction,Conductor*
G36*
X108895353Y-94556677D02*
G01*
X108957524Y-94574200D01*
X109002843Y-94620227D01*
X109019400Y-94682662D01*
X109019400Y-112043500D01*
X109002519Y-112106500D01*
X108956400Y-112152619D01*
X108893400Y-112169500D01*
X108488014Y-112169500D01*
X108365272Y-112185006D01*
X108349480Y-112186000D01*
X108083362Y-112186000D01*
X108022799Y-112192511D01*
X107885794Y-112243611D01*
X107768738Y-112331238D01*
X107681111Y-112448294D01*
X107676262Y-112461296D01*
X107630011Y-112585299D01*
X107623500Y-112645862D01*
X107623500Y-112964138D01*
X107624897Y-112977137D01*
X107631703Y-113040436D01*
X107630425Y-113040573D01*
X107633206Y-113055979D01*
X107630422Y-113071426D01*
X107631703Y-113071564D01*
X107623500Y-113147862D01*
X107623500Y-113466139D01*
X107631703Y-113542437D01*
X107630425Y-113542574D01*
X107633206Y-113557980D01*
X107630422Y-113573427D01*
X107631703Y-113573565D01*
X107630011Y-113589297D01*
X107630011Y-113589299D01*
X107626704Y-113620059D01*
X107623500Y-113649862D01*
X107623500Y-113968139D01*
X107631703Y-114044437D01*
X107630425Y-114044574D01*
X107633206Y-114059980D01*
X107630422Y-114075427D01*
X107631703Y-114075565D01*
X107623500Y-114151862D01*
X107623500Y-114276500D01*
X107606619Y-114339500D01*
X107560500Y-114385619D01*
X107497500Y-114402500D01*
X103726500Y-114402500D01*
X103663500Y-114385619D01*
X103617381Y-114339500D01*
X103600500Y-114276500D01*
X103600500Y-114151863D01*
X103596328Y-114113059D01*
X103593989Y-114091299D01*
X103593987Y-114091295D01*
X103592555Y-114077970D01*
X103592555Y-114051030D01*
X103593987Y-114037704D01*
X103593989Y-114037701D01*
X103600500Y-113977138D01*
X103600500Y-113658862D01*
X103593989Y-113598299D01*
X103593988Y-113598297D01*
X103592297Y-113582564D01*
X103592727Y-113582517D01*
X103589115Y-113562494D01*
X103592727Y-113542484D01*
X103592297Y-113542438D01*
X103600500Y-113466139D01*
X103600500Y-113147863D01*
X103596328Y-113109059D01*
X103593989Y-113087299D01*
X103593987Y-113087295D01*
X103592770Y-113075969D01*
X103592770Y-113049029D01*
X103593987Y-113037704D01*
X103593989Y-113037701D01*
X103600500Y-112977138D01*
X103600500Y-112658862D01*
X103593989Y-112598299D01*
X103542889Y-112461296D01*
X103542888Y-112461294D01*
X103455261Y-112344238D01*
X103338205Y-112256611D01*
X103269702Y-112231061D01*
X103201201Y-112205511D01*
X103140638Y-112199000D01*
X102856461Y-112199000D01*
X102825126Y-112195041D01*
X102789914Y-112186000D01*
X102776283Y-112182500D01*
X102776282Y-112182500D01*
X102695400Y-112182500D01*
X102632400Y-112165619D01*
X102586281Y-112119500D01*
X102569400Y-112056500D01*
X102569400Y-108825282D01*
X102575567Y-108786346D01*
X102581592Y-108767800D01*
X102620542Y-108647928D01*
X102640504Y-108458000D01*
X102620542Y-108268072D01*
X102575567Y-108129654D01*
X102569400Y-108090718D01*
X102569400Y-94586569D01*
X102586608Y-94523006D01*
X102633531Y-94476805D01*
X102697353Y-94460584D01*
X108895353Y-94556677D01*
G37*
G04 #@! TD.AperFunction*
M02*
