M48
; DRILL file {KiCad 7.0.1} date Tue May 14 01:23:45 2024
; FORMAT={-:-/ absolute / metric / decimal}
; #@! TF.CreationDate,2024-05-14T01:23:45+02:00
; #@! TF.GenerationSoftware,Kicad,Pcbnew,7.0.1
; #@! TF.FileFunction,Plated,1,4,PTH
FMAT,2
METRIC
; #@! TA.AperFunction,Plated,PTH,ComponentDrill
T1C0.300
; #@! TA.AperFunction,Plated,PTH,ViaDrill
T2C0.400
; #@! TA.AperFunction,Plated,PTH,ComponentDrill
T3C0.500
; #@! TA.AperFunction,Plated,PTH,ViaDrill
T4C0.800
; #@! TA.AperFunction,Plated,PTH,ComponentDrill
T5C1.000
; #@! TA.AperFunction,Plated,PTH,ComponentDrill
T6C1.067
; #@! TA.AperFunction,Plated,PTH,ComponentDrill
T7C3.000
%
G90
G05
T1
X97.496Y-81.411
X98.446Y-80.836
X98.446Y-81.986
X99.396Y-81.411
X115.922Y-100.876
X115.922Y-101.876
X116.922Y-100.876
X116.922Y-101.876
T2
X76.724Y-88.138
X81.24Y-91.298
X81.296Y-89.408
X82.296Y-76.962
X83.185Y-78.74
X85.741Y-87.884
X85.741Y-90.678
X85.852Y-73.787
X87.63Y-82.423
X87.63Y-91.948
X87.63Y-93.218
X87.63Y-94.615
X88.773Y-137.16
X88.883Y-131.168
X88.9Y-127.0
X89.154Y-141.986
X90.043Y-125.857
X90.881Y-131.182
X90.897Y-129.309
X91.186Y-141.986
X91.44Y-137.16
X92.2Y-75.911
X94.58Y-137.39
X95.26Y-132.63
X95.578Y-84.857
X95.645Y-81.42
X96.109Y-112.124
X96.13Y-110.92
X96.139Y-121.666
X96.22Y-117.2
X96.52Y-120.269
X96.61Y-114.09
X96.647Y-118.999
X96.95Y-115.46
X97.01Y-117.92
X97.278Y-83.957
X97.419Y-95.22
X97.419Y-96.7
X97.419Y-98.268
X97.419Y-100.04
X97.419Y-101.91
X97.419Y-103.89
X97.6Y-116.43
X98.45Y-131.2
X98.662Y-137.914
X98.682Y-136.516
X98.85Y-109.991
X98.959Y-95.22
X98.959Y-96.7
X98.959Y-98.268
X98.959Y-100.04
X98.959Y-101.91
X98.959Y-103.89
X99.441Y-74.676
X99.568Y-135.255
X100.155Y-123.661
X100.18Y-108.151
X100.679Y-95.911
X100.679Y-97.66
X100.715Y-78.759
X101.015Y-121.775
X101.015Y-126.17
X101.346Y-134.493
X101.378Y-85.157
X101.6Y-109.982
X101.727Y-108.458
X101.81Y-93.201
X102.8Y-85.111
X103.0Y-106.351
X103.53Y-127.49
X104.013Y-68.326
X104.082Y-115.436
X104.126Y-113.11
X104.132Y-117.472
X104.43Y-130.24
X104.431Y-124.939
X104.5Y-67.0
X104.855Y-118.563
X104.867Y-116.381
X105.152Y-113.89
X105.33Y-132.32
X105.623Y-115.406
X105.673Y-117.442
X106.178Y-113.11
X106.396Y-118.533
X106.408Y-116.351
X107.094Y-115.406
X107.144Y-117.442
X107.204Y-113.92
X108.204Y-121.92
X108.33Y-106.381
X108.468Y-124.939
X109.22Y-122.936
X110.617Y-78.359
X110.862Y-120.015
X111.25Y-108.121
X112.0Y-103.361
X112.13Y-127.39
X112.318Y-97.436
X112.53Y-109.911
X112.922Y-104.148
X112.962Y-99.756
X113.273Y-100.98
X113.284Y-82.296
X113.284Y-83.947
X113.665Y-111.379
X113.728Y-113.462
X114.01Y-97.287
X114.554Y-82.296
X114.554Y-83.947
X114.844Y-116.496
X114.935Y-86.614
X114.935Y-120.142
X115.54Y-114.78
X115.574Y-104.299
X115.737Y-98.497
X116.332Y-117.221
X116.428Y-115.817
X116.91Y-128.99
X117.149Y-114.071
X117.172Y-98.545
X117.172Y-104.284
X117.475Y-120.015
X117.602Y-123.903
X118.49Y-127.77
X119.888Y-110.998
X120.31Y-102.111
X122.555Y-88.9
X122.555Y-92.202
T3
X76.25Y-51.054
X76.25Y-143.831
X76.909Y-49.463
X76.909Y-52.645
X76.909Y-142.24
X76.909Y-145.422
X78.5Y-48.804
X78.5Y-53.304
X78.5Y-141.581
X78.5Y-146.081
X80.091Y-49.463
X80.091Y-52.645
X80.091Y-142.24
X80.091Y-145.422
X80.75Y-51.054
X80.75Y-143.831
X130.25Y-51.121
X130.25Y-143.728
X130.909Y-49.53
X130.909Y-52.712
X130.909Y-142.137
X130.909Y-145.319
X132.5Y-48.871
X132.5Y-53.371
X132.5Y-141.478
X132.5Y-145.978
X134.091Y-49.53
X134.091Y-52.712
X134.091Y-142.137
X134.091Y-145.319
X134.75Y-51.121
X134.75Y-143.728
T4
X105.979Y-98.89
X105.979Y-100.93
X105.999Y-103.04
X106.029Y-105.06
X107.949Y-98.91
X107.969Y-100.93
X108.009Y-103.06
X108.009Y-105.03
X124.841Y-74.549
X128.016Y-74.549
X128.016Y-76.708
X128.016Y-78.74
X128.143Y-86.741
X128.143Y-89.281
X128.143Y-91.821
X130.937Y-86.741
X130.937Y-91.821
X131.064Y-74.549
X133.731Y-86.741
X133.731Y-89.027
X133.731Y-91.821
X133.858Y-74.549
X133.858Y-76.708
X133.858Y-78.74
T5
X84.25Y-49.022
X84.25Y-71.942
X86.79Y-49.022
X86.79Y-71.942
X89.33Y-49.022
X89.33Y-71.942
X91.87Y-49.022
X91.87Y-71.942
X94.41Y-49.022
X94.41Y-71.942
X96.95Y-49.022
X96.95Y-71.942
X99.49Y-49.022
X99.49Y-71.942
X102.03Y-49.022
X102.03Y-71.942
X104.57Y-49.022
X104.57Y-71.942
X107.11Y-49.022
X107.11Y-71.942
X109.65Y-49.022
X109.65Y-71.942
X112.19Y-49.022
X112.19Y-71.942
T6
X96.382Y-143.241
X98.922Y-143.241
X101.462Y-143.241
X104.002Y-143.241
T7
X78.5Y-51.054
X78.5Y-143.831
X132.5Y-51.121
X132.5Y-143.728
T0
M30
