%TF.GenerationSoftware,KiCad,Pcbnew,7.0.1*%
%TF.CreationDate,2023-10-06T09:11:46+02:00*%
%TF.ProjectId,NerdAxe_ultra,4e657264-4178-4655-9f75-6c7472612e6b,rev?*%
%TF.SameCoordinates,Original*%
%TF.FileFunction,Legend,Top*%
%TF.FilePolarity,Positive*%
%FSLAX46Y46*%
G04 Gerber Fmt 4.6, Leading zero omitted, Abs format (unit mm)*
G04 Created by KiCad (PCBNEW 7.0.1) date 2023-10-06 09:11:46*
%MOMM*%
%LPD*%
G01*
G04 APERTURE LIST*
G04 Aperture macros list*
%AMRoundRect*
0 Rectangle with rounded corners*
0 $1 Rounding radius*
0 $2 $3 $4 $5 $6 $7 $8 $9 X,Y pos of 4 corners*
0 Add a 4 corners polygon primitive as box body*
4,1,4,$2,$3,$4,$5,$6,$7,$8,$9,$2,$3,0*
0 Add four circle primitives for the rounded corners*
1,1,$1+$1,$2,$3*
1,1,$1+$1,$4,$5*
1,1,$1+$1,$6,$7*
1,1,$1+$1,$8,$9*
0 Add four rect primitives between the rounded corners*
20,1,$1+$1,$2,$3,$4,$5,0*
20,1,$1+$1,$4,$5,$6,$7,0*
20,1,$1+$1,$6,$7,$8,$9,0*
20,1,$1+$1,$8,$9,$2,$3,0*%
%AMFreePoly0*
4,1,35,0.005000,-4.560000,0.003536,-4.563536,0.000000,-4.565000,-5.000000,-4.565000,-5.003536,-4.563536,-5.005000,-4.560000,-5.005000,-3.898000,-5.003536,-3.894464,-5.000000,-3.893000,-4.325000,-3.893000,-4.325000,-3.269700,-5.000000,-3.269700,-5.003536,-3.268236,-5.005000,-3.264700,-5.005000,-2.599700,-5.003536,-2.596164,-5.000000,-2.594700,-4.325000,-2.594700,-4.325000,-1.971400,-5.000000,-1.971400,
-5.003536,-1.969936,-5.005000,-1.966400,-5.005000,-1.301400,-5.003536,-1.297864,-5.000000,-1.296400,-4.325000,-1.296400,-4.325000,-0.673100,-5.000000,-0.673100,-5.003536,-0.671636,-5.005000,-0.668100,-5.005000,0.000000,-5.003536,0.003536,-5.000000,0.005000,0.005000,0.005000,0.005000,-4.560000,0.005000,-4.560000,$1*%
%AMFreePoly1*
4,1,45,-0.199646,1.700354,-0.199500,1.700000,-0.199500,1.200500,0.199500,1.200500,0.199500,1.700000,0.199646,1.700354,0.200000,1.700500,0.450000,1.700500,0.450354,1.700354,0.450500,1.700000,0.450500,1.200500,0.825000,1.200500,0.825354,1.200354,0.825500,1.200000,0.825500,-1.200000,0.825354,-1.200354,0.825000,-1.200500,0.450500,-1.200500,0.450500,-1.700000,0.450354,-1.700354,
0.450000,-1.700500,0.200000,-1.700500,0.199646,-1.700354,0.199500,-1.700000,0.199500,-1.200500,-0.199500,-1.200500,-0.199500,-1.700000,-0.199646,-1.700354,-0.200000,-1.700500,-0.450000,-1.700500,-0.450354,-1.700354,-0.450500,-1.700000,-0.450500,-1.200500,-0.825000,-1.200500,-0.825354,-1.200354,-0.825500,-1.200000,-0.825500,1.200000,-0.825354,1.200354,-0.825000,1.200500,-0.450500,1.200500,
-0.450500,1.700000,-0.450354,1.700354,-0.450000,1.700500,-0.200000,1.700500,-0.199646,1.700354,-0.199646,1.700354,$1*%
G04 Aperture macros list end*
%ADD10C,0.150000*%
%ADD11C,0.127000*%
%ADD12C,0.120000*%
%ADD13C,0.100000*%
%ADD14C,0.310599*%
%ADD15C,0.254165*%
%ADD16C,0.200000*%
%ADD17C,0.280227*%
%ADD18C,0.306982*%
%ADD19C,0.313180*%
%ADD20RoundRect,0.250000X0.475000X-0.250000X0.475000X0.250000X-0.475000X0.250000X-0.475000X-0.250000X0*%
%ADD21RoundRect,0.140000X0.140000X0.170000X-0.140000X0.170000X-0.140000X-0.170000X0.140000X-0.170000X0*%
%ADD22RoundRect,0.100000X-0.637500X-0.100000X0.637500X-0.100000X0.637500X0.100000X-0.637500X0.100000X0*%
%ADD23RoundRect,0.140000X-0.170000X0.140000X-0.170000X-0.140000X0.170000X-0.140000X0.170000X0.140000X0*%
%ADD24RoundRect,0.135000X0.185000X-0.135000X0.185000X0.135000X-0.185000X0.135000X-0.185000X-0.135000X0*%
%ADD25RoundRect,0.135000X-0.185000X0.135000X-0.185000X-0.135000X0.185000X-0.135000X0.185000X0.135000X0*%
%ADD26RoundRect,0.250000X-0.250000X-0.475000X0.250000X-0.475000X0.250000X0.475000X-0.250000X0.475000X0*%
%ADD27C,3.500000*%
%ADD28RoundRect,0.250000X-0.475000X0.250000X-0.475000X-0.250000X0.475000X-0.250000X0.475000X0.250000X0*%
%ADD29C,1.500000*%
%ADD30RoundRect,0.150000X-0.512500X-0.150000X0.512500X-0.150000X0.512500X0.150000X-0.512500X0.150000X0*%
%ADD31R,0.400000X1.100000*%
%ADD32RoundRect,0.007800X-0.122200X0.442200X-0.122200X-0.442200X0.122200X-0.442200X0.122200X0.442200X0*%
%ADD33RoundRect,0.007800X-0.442200X-0.122200X0.442200X-0.122200X0.442200X0.122200X-0.442200X0.122200X0*%
%ADD34R,2.050000X2.050000*%
%ADD35R,3.100000X2.000000*%
%ADD36C,2.200000*%
%ADD37RoundRect,0.135000X0.135000X0.185000X-0.135000X0.185000X-0.135000X-0.185000X0.135000X-0.185000X0*%
%ADD38R,1.100000X0.400000*%
%ADD39RoundRect,0.140000X-0.140000X-0.170000X0.140000X-0.170000X0.140000X0.170000X-0.140000X0.170000X0*%
%ADD40RoundRect,0.135000X-0.135000X-0.185000X0.135000X-0.185000X0.135000X0.185000X-0.135000X0.185000X0*%
%ADD41RoundRect,0.140000X0.170000X-0.140000X0.170000X0.140000X-0.170000X0.140000X-0.170000X-0.140000X0*%
%ADD42RoundRect,0.250000X-1.025000X0.875000X-1.025000X-0.875000X1.025000X-0.875000X1.025000X0.875000X0*%
%ADD43R,0.700000X0.800000*%
%ADD44FreePoly0,270.000000*%
%ADD45RoundRect,0.007874X-0.112126X0.292126X-0.112126X-0.292126X0.112126X-0.292126X0.112126X0.292126X0*%
%ADD46C,0.400000*%
%ADD47FreePoly1,270.000000*%
%ADD48R,1.600000X2.700000*%
%ADD49FreePoly0,90.000000*%
%ADD50RoundRect,0.250000X-0.325000X-1.100000X0.325000X-1.100000X0.325000X1.100000X-0.325000X1.100000X0*%
%ADD51R,1.100000X1.300000*%
%ADD52RoundRect,0.250000X0.325000X0.650000X-0.325000X0.650000X-0.325000X-0.650000X0.325000X-0.650000X0*%
%ADD53C,1.295400*%
%ADD54C,1.574800*%
%ADD55R,1.700000X1.700000*%
%ADD56O,1.700000X1.700000*%
%ADD57C,1.700000*%
%ADD58C,2.500000*%
%ADD59O,3.800000X1.200000*%
%ADD60O,2.500000X1.200000*%
%ADD61C,2.000000*%
G04 APERTURE END LIST*
D10*
%TO.C,C43*%
X106642580Y-80842857D02*
X106690200Y-80890476D01*
X106690200Y-80890476D02*
X106737819Y-81033333D01*
X106737819Y-81033333D02*
X106737819Y-81128571D01*
X106737819Y-81128571D02*
X106690200Y-81271428D01*
X106690200Y-81271428D02*
X106594961Y-81366666D01*
X106594961Y-81366666D02*
X106499723Y-81414285D01*
X106499723Y-81414285D02*
X106309247Y-81461904D01*
X106309247Y-81461904D02*
X106166390Y-81461904D01*
X106166390Y-81461904D02*
X105975914Y-81414285D01*
X105975914Y-81414285D02*
X105880676Y-81366666D01*
X105880676Y-81366666D02*
X105785438Y-81271428D01*
X105785438Y-81271428D02*
X105737819Y-81128571D01*
X105737819Y-81128571D02*
X105737819Y-81033333D01*
X105737819Y-81033333D02*
X105785438Y-80890476D01*
X105785438Y-80890476D02*
X105833057Y-80842857D01*
X106071152Y-79985714D02*
X106737819Y-79985714D01*
X105690200Y-80223809D02*
X106404485Y-80461904D01*
X106404485Y-80461904D02*
X106404485Y-79842857D01*
X105737819Y-79557142D02*
X105737819Y-78938095D01*
X105737819Y-78938095D02*
X106118771Y-79271428D01*
X106118771Y-79271428D02*
X106118771Y-79128571D01*
X106118771Y-79128571D02*
X106166390Y-79033333D01*
X106166390Y-79033333D02*
X106214009Y-78985714D01*
X106214009Y-78985714D02*
X106309247Y-78938095D01*
X106309247Y-78938095D02*
X106547342Y-78938095D01*
X106547342Y-78938095D02*
X106642580Y-78985714D01*
X106642580Y-78985714D02*
X106690200Y-79033333D01*
X106690200Y-79033333D02*
X106737819Y-79128571D01*
X106737819Y-79128571D02*
X106737819Y-79414285D01*
X106737819Y-79414285D02*
X106690200Y-79509523D01*
X106690200Y-79509523D02*
X106642580Y-79557142D01*
%TO.C,C19*%
X113357142Y-103767380D02*
X113309523Y-103815000D01*
X113309523Y-103815000D02*
X113166666Y-103862619D01*
X113166666Y-103862619D02*
X113071428Y-103862619D01*
X113071428Y-103862619D02*
X112928571Y-103815000D01*
X112928571Y-103815000D02*
X112833333Y-103719761D01*
X112833333Y-103719761D02*
X112785714Y-103624523D01*
X112785714Y-103624523D02*
X112738095Y-103434047D01*
X112738095Y-103434047D02*
X112738095Y-103291190D01*
X112738095Y-103291190D02*
X112785714Y-103100714D01*
X112785714Y-103100714D02*
X112833333Y-103005476D01*
X112833333Y-103005476D02*
X112928571Y-102910238D01*
X112928571Y-102910238D02*
X113071428Y-102862619D01*
X113071428Y-102862619D02*
X113166666Y-102862619D01*
X113166666Y-102862619D02*
X113309523Y-102910238D01*
X113309523Y-102910238D02*
X113357142Y-102957857D01*
X114309523Y-103862619D02*
X113738095Y-103862619D01*
X114023809Y-103862619D02*
X114023809Y-102862619D01*
X114023809Y-102862619D02*
X113928571Y-103005476D01*
X113928571Y-103005476D02*
X113833333Y-103100714D01*
X113833333Y-103100714D02*
X113738095Y-103148333D01*
X114785714Y-103862619D02*
X114976190Y-103862619D01*
X114976190Y-103862619D02*
X115071428Y-103815000D01*
X115071428Y-103815000D02*
X115119047Y-103767380D01*
X115119047Y-103767380D02*
X115214285Y-103624523D01*
X115214285Y-103624523D02*
X115261904Y-103434047D01*
X115261904Y-103434047D02*
X115261904Y-103053095D01*
X115261904Y-103053095D02*
X115214285Y-102957857D01*
X115214285Y-102957857D02*
X115166666Y-102910238D01*
X115166666Y-102910238D02*
X115071428Y-102862619D01*
X115071428Y-102862619D02*
X114880952Y-102862619D01*
X114880952Y-102862619D02*
X114785714Y-102910238D01*
X114785714Y-102910238D02*
X114738095Y-102957857D01*
X114738095Y-102957857D02*
X114690476Y-103053095D01*
X114690476Y-103053095D02*
X114690476Y-103291190D01*
X114690476Y-103291190D02*
X114738095Y-103386428D01*
X114738095Y-103386428D02*
X114785714Y-103434047D01*
X114785714Y-103434047D02*
X114880952Y-103481666D01*
X114880952Y-103481666D02*
X115071428Y-103481666D01*
X115071428Y-103481666D02*
X115166666Y-103434047D01*
X115166666Y-103434047D02*
X115214285Y-103386428D01*
X115214285Y-103386428D02*
X115261904Y-103291190D01*
%TO.C,U8*%
X80545895Y-88522619D02*
X80545895Y-89332142D01*
X80545895Y-89332142D02*
X80593514Y-89427380D01*
X80593514Y-89427380D02*
X80641133Y-89475000D01*
X80641133Y-89475000D02*
X80736371Y-89522619D01*
X80736371Y-89522619D02*
X80926847Y-89522619D01*
X80926847Y-89522619D02*
X81022085Y-89475000D01*
X81022085Y-89475000D02*
X81069704Y-89427380D01*
X81069704Y-89427380D02*
X81117323Y-89332142D01*
X81117323Y-89332142D02*
X81117323Y-88522619D01*
X81736371Y-88951190D02*
X81641133Y-88903571D01*
X81641133Y-88903571D02*
X81593514Y-88855952D01*
X81593514Y-88855952D02*
X81545895Y-88760714D01*
X81545895Y-88760714D02*
X81545895Y-88713095D01*
X81545895Y-88713095D02*
X81593514Y-88617857D01*
X81593514Y-88617857D02*
X81641133Y-88570238D01*
X81641133Y-88570238D02*
X81736371Y-88522619D01*
X81736371Y-88522619D02*
X81926847Y-88522619D01*
X81926847Y-88522619D02*
X82022085Y-88570238D01*
X82022085Y-88570238D02*
X82069704Y-88617857D01*
X82069704Y-88617857D02*
X82117323Y-88713095D01*
X82117323Y-88713095D02*
X82117323Y-88760714D01*
X82117323Y-88760714D02*
X82069704Y-88855952D01*
X82069704Y-88855952D02*
X82022085Y-88903571D01*
X82022085Y-88903571D02*
X81926847Y-88951190D01*
X81926847Y-88951190D02*
X81736371Y-88951190D01*
X81736371Y-88951190D02*
X81641133Y-88998809D01*
X81641133Y-88998809D02*
X81593514Y-89046428D01*
X81593514Y-89046428D02*
X81545895Y-89141666D01*
X81545895Y-89141666D02*
X81545895Y-89332142D01*
X81545895Y-89332142D02*
X81593514Y-89427380D01*
X81593514Y-89427380D02*
X81641133Y-89475000D01*
X81641133Y-89475000D02*
X81736371Y-89522619D01*
X81736371Y-89522619D02*
X81926847Y-89522619D01*
X81926847Y-89522619D02*
X82022085Y-89475000D01*
X82022085Y-89475000D02*
X82069704Y-89427380D01*
X82069704Y-89427380D02*
X82117323Y-89332142D01*
X82117323Y-89332142D02*
X82117323Y-89141666D01*
X82117323Y-89141666D02*
X82069704Y-89046428D01*
X82069704Y-89046428D02*
X82022085Y-88998809D01*
X82022085Y-88998809D02*
X81926847Y-88951190D01*
%TO.C,C7*%
X100357380Y-113006666D02*
X100405000Y-113054285D01*
X100405000Y-113054285D02*
X100452619Y-113197142D01*
X100452619Y-113197142D02*
X100452619Y-113292380D01*
X100452619Y-113292380D02*
X100405000Y-113435237D01*
X100405000Y-113435237D02*
X100309761Y-113530475D01*
X100309761Y-113530475D02*
X100214523Y-113578094D01*
X100214523Y-113578094D02*
X100024047Y-113625713D01*
X100024047Y-113625713D02*
X99881190Y-113625713D01*
X99881190Y-113625713D02*
X99690714Y-113578094D01*
X99690714Y-113578094D02*
X99595476Y-113530475D01*
X99595476Y-113530475D02*
X99500238Y-113435237D01*
X99500238Y-113435237D02*
X99452619Y-113292380D01*
X99452619Y-113292380D02*
X99452619Y-113197142D01*
X99452619Y-113197142D02*
X99500238Y-113054285D01*
X99500238Y-113054285D02*
X99547857Y-113006666D01*
X99452619Y-112673332D02*
X99452619Y-112006666D01*
X99452619Y-112006666D02*
X100452619Y-112435237D01*
%TO.C,R7*%
X80317619Y-126420666D02*
X79841428Y-126753999D01*
X80317619Y-126992094D02*
X79317619Y-126992094D01*
X79317619Y-126992094D02*
X79317619Y-126611142D01*
X79317619Y-126611142D02*
X79365238Y-126515904D01*
X79365238Y-126515904D02*
X79412857Y-126468285D01*
X79412857Y-126468285D02*
X79508095Y-126420666D01*
X79508095Y-126420666D02*
X79650952Y-126420666D01*
X79650952Y-126420666D02*
X79746190Y-126468285D01*
X79746190Y-126468285D02*
X79793809Y-126515904D01*
X79793809Y-126515904D02*
X79841428Y-126611142D01*
X79841428Y-126611142D02*
X79841428Y-126992094D01*
X79317619Y-126087332D02*
X79317619Y-125420666D01*
X79317619Y-125420666D02*
X80317619Y-125849237D01*
D11*
%TO.C,R13*%
X87635010Y-76326571D02*
X87393105Y-76495905D01*
X87635010Y-76616857D02*
X87127010Y-76616857D01*
X87127010Y-76616857D02*
X87127010Y-76423333D01*
X87127010Y-76423333D02*
X87151200Y-76374952D01*
X87151200Y-76374952D02*
X87175391Y-76350762D01*
X87175391Y-76350762D02*
X87223772Y-76326571D01*
X87223772Y-76326571D02*
X87296343Y-76326571D01*
X87296343Y-76326571D02*
X87344724Y-76350762D01*
X87344724Y-76350762D02*
X87368915Y-76374952D01*
X87368915Y-76374952D02*
X87393105Y-76423333D01*
X87393105Y-76423333D02*
X87393105Y-76616857D01*
X87635010Y-75842762D02*
X87635010Y-76133048D01*
X87635010Y-75987905D02*
X87127010Y-75987905D01*
X87127010Y-75987905D02*
X87199581Y-76036286D01*
X87199581Y-76036286D02*
X87247962Y-76084667D01*
X87247962Y-76084667D02*
X87272153Y-76133048D01*
X87127010Y-75673428D02*
X87127010Y-75358952D01*
X87127010Y-75358952D02*
X87320534Y-75528285D01*
X87320534Y-75528285D02*
X87320534Y-75455714D01*
X87320534Y-75455714D02*
X87344724Y-75407333D01*
X87344724Y-75407333D02*
X87368915Y-75383142D01*
X87368915Y-75383142D02*
X87417296Y-75358952D01*
X87417296Y-75358952D02*
X87538248Y-75358952D01*
X87538248Y-75358952D02*
X87586629Y-75383142D01*
X87586629Y-75383142D02*
X87610820Y-75407333D01*
X87610820Y-75407333D02*
X87635010Y-75455714D01*
X87635010Y-75455714D02*
X87635010Y-75600857D01*
X87635010Y-75600857D02*
X87610820Y-75649238D01*
X87610820Y-75649238D02*
X87586629Y-75673428D01*
D10*
%TO.C,C1*%
X115083333Y-129337380D02*
X115035714Y-129385000D01*
X115035714Y-129385000D02*
X114892857Y-129432619D01*
X114892857Y-129432619D02*
X114797619Y-129432619D01*
X114797619Y-129432619D02*
X114654762Y-129385000D01*
X114654762Y-129385000D02*
X114559524Y-129289761D01*
X114559524Y-129289761D02*
X114511905Y-129194523D01*
X114511905Y-129194523D02*
X114464286Y-129004047D01*
X114464286Y-129004047D02*
X114464286Y-128861190D01*
X114464286Y-128861190D02*
X114511905Y-128670714D01*
X114511905Y-128670714D02*
X114559524Y-128575476D01*
X114559524Y-128575476D02*
X114654762Y-128480238D01*
X114654762Y-128480238D02*
X114797619Y-128432619D01*
X114797619Y-128432619D02*
X114892857Y-128432619D01*
X114892857Y-128432619D02*
X115035714Y-128480238D01*
X115035714Y-128480238D02*
X115083333Y-128527857D01*
X116035714Y-129432619D02*
X115464286Y-129432619D01*
X115750000Y-129432619D02*
X115750000Y-128432619D01*
X115750000Y-128432619D02*
X115654762Y-128575476D01*
X115654762Y-128575476D02*
X115559524Y-128670714D01*
X115559524Y-128670714D02*
X115464286Y-128718333D01*
%TO.C,C41*%
X96357142Y-74567380D02*
X96309523Y-74615000D01*
X96309523Y-74615000D02*
X96166666Y-74662619D01*
X96166666Y-74662619D02*
X96071428Y-74662619D01*
X96071428Y-74662619D02*
X95928571Y-74615000D01*
X95928571Y-74615000D02*
X95833333Y-74519761D01*
X95833333Y-74519761D02*
X95785714Y-74424523D01*
X95785714Y-74424523D02*
X95738095Y-74234047D01*
X95738095Y-74234047D02*
X95738095Y-74091190D01*
X95738095Y-74091190D02*
X95785714Y-73900714D01*
X95785714Y-73900714D02*
X95833333Y-73805476D01*
X95833333Y-73805476D02*
X95928571Y-73710238D01*
X95928571Y-73710238D02*
X96071428Y-73662619D01*
X96071428Y-73662619D02*
X96166666Y-73662619D01*
X96166666Y-73662619D02*
X96309523Y-73710238D01*
X96309523Y-73710238D02*
X96357142Y-73757857D01*
X97214285Y-73995952D02*
X97214285Y-74662619D01*
X96976190Y-73615000D02*
X96738095Y-74329285D01*
X96738095Y-74329285D02*
X97357142Y-74329285D01*
X98261904Y-74662619D02*
X97690476Y-74662619D01*
X97976190Y-74662619D02*
X97976190Y-73662619D01*
X97976190Y-73662619D02*
X97880952Y-73805476D01*
X97880952Y-73805476D02*
X97785714Y-73900714D01*
X97785714Y-73900714D02*
X97690476Y-73948333D01*
%TO.C,C3*%
X116173333Y-108257380D02*
X116125714Y-108305000D01*
X116125714Y-108305000D02*
X115982857Y-108352619D01*
X115982857Y-108352619D02*
X115887619Y-108352619D01*
X115887619Y-108352619D02*
X115744762Y-108305000D01*
X115744762Y-108305000D02*
X115649524Y-108209761D01*
X115649524Y-108209761D02*
X115601905Y-108114523D01*
X115601905Y-108114523D02*
X115554286Y-107924047D01*
X115554286Y-107924047D02*
X115554286Y-107781190D01*
X115554286Y-107781190D02*
X115601905Y-107590714D01*
X115601905Y-107590714D02*
X115649524Y-107495476D01*
X115649524Y-107495476D02*
X115744762Y-107400238D01*
X115744762Y-107400238D02*
X115887619Y-107352619D01*
X115887619Y-107352619D02*
X115982857Y-107352619D01*
X115982857Y-107352619D02*
X116125714Y-107400238D01*
X116125714Y-107400238D02*
X116173333Y-107447857D01*
X116506667Y-107352619D02*
X117125714Y-107352619D01*
X117125714Y-107352619D02*
X116792381Y-107733571D01*
X116792381Y-107733571D02*
X116935238Y-107733571D01*
X116935238Y-107733571D02*
X117030476Y-107781190D01*
X117030476Y-107781190D02*
X117078095Y-107828809D01*
X117078095Y-107828809D02*
X117125714Y-107924047D01*
X117125714Y-107924047D02*
X117125714Y-108162142D01*
X117125714Y-108162142D02*
X117078095Y-108257380D01*
X117078095Y-108257380D02*
X117030476Y-108305000D01*
X117030476Y-108305000D02*
X116935238Y-108352619D01*
X116935238Y-108352619D02*
X116649524Y-108352619D01*
X116649524Y-108352619D02*
X116554286Y-108305000D01*
X116554286Y-108305000D02*
X116506667Y-108257380D01*
%TO.C,C38*%
X102402580Y-81582057D02*
X102450200Y-81629676D01*
X102450200Y-81629676D02*
X102497819Y-81772533D01*
X102497819Y-81772533D02*
X102497819Y-81867771D01*
X102497819Y-81867771D02*
X102450200Y-82010628D01*
X102450200Y-82010628D02*
X102354961Y-82105866D01*
X102354961Y-82105866D02*
X102259723Y-82153485D01*
X102259723Y-82153485D02*
X102069247Y-82201104D01*
X102069247Y-82201104D02*
X101926390Y-82201104D01*
X101926390Y-82201104D02*
X101735914Y-82153485D01*
X101735914Y-82153485D02*
X101640676Y-82105866D01*
X101640676Y-82105866D02*
X101545438Y-82010628D01*
X101545438Y-82010628D02*
X101497819Y-81867771D01*
X101497819Y-81867771D02*
X101497819Y-81772533D01*
X101497819Y-81772533D02*
X101545438Y-81629676D01*
X101545438Y-81629676D02*
X101593057Y-81582057D01*
X101497819Y-81248723D02*
X101497819Y-80629676D01*
X101497819Y-80629676D02*
X101878771Y-80963009D01*
X101878771Y-80963009D02*
X101878771Y-80820152D01*
X101878771Y-80820152D02*
X101926390Y-80724914D01*
X101926390Y-80724914D02*
X101974009Y-80677295D01*
X101974009Y-80677295D02*
X102069247Y-80629676D01*
X102069247Y-80629676D02*
X102307342Y-80629676D01*
X102307342Y-80629676D02*
X102402580Y-80677295D01*
X102402580Y-80677295D02*
X102450200Y-80724914D01*
X102450200Y-80724914D02*
X102497819Y-80820152D01*
X102497819Y-80820152D02*
X102497819Y-81105866D01*
X102497819Y-81105866D02*
X102450200Y-81201104D01*
X102450200Y-81201104D02*
X102402580Y-81248723D01*
X101926390Y-80058247D02*
X101878771Y-80153485D01*
X101878771Y-80153485D02*
X101831152Y-80201104D01*
X101831152Y-80201104D02*
X101735914Y-80248723D01*
X101735914Y-80248723D02*
X101688295Y-80248723D01*
X101688295Y-80248723D02*
X101593057Y-80201104D01*
X101593057Y-80201104D02*
X101545438Y-80153485D01*
X101545438Y-80153485D02*
X101497819Y-80058247D01*
X101497819Y-80058247D02*
X101497819Y-79867771D01*
X101497819Y-79867771D02*
X101545438Y-79772533D01*
X101545438Y-79772533D02*
X101593057Y-79724914D01*
X101593057Y-79724914D02*
X101688295Y-79677295D01*
X101688295Y-79677295D02*
X101735914Y-79677295D01*
X101735914Y-79677295D02*
X101831152Y-79724914D01*
X101831152Y-79724914D02*
X101878771Y-79772533D01*
X101878771Y-79772533D02*
X101926390Y-79867771D01*
X101926390Y-79867771D02*
X101926390Y-80058247D01*
X101926390Y-80058247D02*
X101974009Y-80153485D01*
X101974009Y-80153485D02*
X102021628Y-80201104D01*
X102021628Y-80201104D02*
X102116866Y-80248723D01*
X102116866Y-80248723D02*
X102307342Y-80248723D01*
X102307342Y-80248723D02*
X102402580Y-80201104D01*
X102402580Y-80201104D02*
X102450200Y-80153485D01*
X102450200Y-80153485D02*
X102497819Y-80058247D01*
X102497819Y-80058247D02*
X102497819Y-79867771D01*
X102497819Y-79867771D02*
X102450200Y-79772533D01*
X102450200Y-79772533D02*
X102402580Y-79724914D01*
X102402580Y-79724914D02*
X102307342Y-79677295D01*
X102307342Y-79677295D02*
X102116866Y-79677295D01*
X102116866Y-79677295D02*
X102021628Y-79724914D01*
X102021628Y-79724914D02*
X101974009Y-79772533D01*
X101974009Y-79772533D02*
X101926390Y-79867771D01*
%TO.C,TP35*%
X114761905Y-91962619D02*
X115333333Y-91962619D01*
X115047619Y-92962619D02*
X115047619Y-91962619D01*
X115666667Y-92962619D02*
X115666667Y-91962619D01*
X115666667Y-91962619D02*
X116047619Y-91962619D01*
X116047619Y-91962619D02*
X116142857Y-92010238D01*
X116142857Y-92010238D02*
X116190476Y-92057857D01*
X116190476Y-92057857D02*
X116238095Y-92153095D01*
X116238095Y-92153095D02*
X116238095Y-92295952D01*
X116238095Y-92295952D02*
X116190476Y-92391190D01*
X116190476Y-92391190D02*
X116142857Y-92438809D01*
X116142857Y-92438809D02*
X116047619Y-92486428D01*
X116047619Y-92486428D02*
X115666667Y-92486428D01*
X116571429Y-91962619D02*
X117190476Y-91962619D01*
X117190476Y-91962619D02*
X116857143Y-92343571D01*
X116857143Y-92343571D02*
X117000000Y-92343571D01*
X117000000Y-92343571D02*
X117095238Y-92391190D01*
X117095238Y-92391190D02*
X117142857Y-92438809D01*
X117142857Y-92438809D02*
X117190476Y-92534047D01*
X117190476Y-92534047D02*
X117190476Y-92772142D01*
X117190476Y-92772142D02*
X117142857Y-92867380D01*
X117142857Y-92867380D02*
X117095238Y-92915000D01*
X117095238Y-92915000D02*
X117000000Y-92962619D01*
X117000000Y-92962619D02*
X116714286Y-92962619D01*
X116714286Y-92962619D02*
X116619048Y-92915000D01*
X116619048Y-92915000D02*
X116571429Y-92867380D01*
X118095238Y-91962619D02*
X117619048Y-91962619D01*
X117619048Y-91962619D02*
X117571429Y-92438809D01*
X117571429Y-92438809D02*
X117619048Y-92391190D01*
X117619048Y-92391190D02*
X117714286Y-92343571D01*
X117714286Y-92343571D02*
X117952381Y-92343571D01*
X117952381Y-92343571D02*
X118047619Y-92391190D01*
X118047619Y-92391190D02*
X118095238Y-92438809D01*
X118095238Y-92438809D02*
X118142857Y-92534047D01*
X118142857Y-92534047D02*
X118142857Y-92772142D01*
X118142857Y-92772142D02*
X118095238Y-92867380D01*
X118095238Y-92867380D02*
X118047619Y-92915000D01*
X118047619Y-92915000D02*
X117952381Y-92962619D01*
X117952381Y-92962619D02*
X117714286Y-92962619D01*
X117714286Y-92962619D02*
X117619048Y-92915000D01*
X117619048Y-92915000D02*
X117571429Y-92867380D01*
%TO.C,TP5*%
X108978095Y-131552619D02*
X109549523Y-131552619D01*
X109263809Y-132552619D02*
X109263809Y-131552619D01*
X109882857Y-132552619D02*
X109882857Y-131552619D01*
X109882857Y-131552619D02*
X110263809Y-131552619D01*
X110263809Y-131552619D02*
X110359047Y-131600238D01*
X110359047Y-131600238D02*
X110406666Y-131647857D01*
X110406666Y-131647857D02*
X110454285Y-131743095D01*
X110454285Y-131743095D02*
X110454285Y-131885952D01*
X110454285Y-131885952D02*
X110406666Y-131981190D01*
X110406666Y-131981190D02*
X110359047Y-132028809D01*
X110359047Y-132028809D02*
X110263809Y-132076428D01*
X110263809Y-132076428D02*
X109882857Y-132076428D01*
X111359047Y-131552619D02*
X110882857Y-131552619D01*
X110882857Y-131552619D02*
X110835238Y-132028809D01*
X110835238Y-132028809D02*
X110882857Y-131981190D01*
X110882857Y-131981190D02*
X110978095Y-131933571D01*
X110978095Y-131933571D02*
X111216190Y-131933571D01*
X111216190Y-131933571D02*
X111311428Y-131981190D01*
X111311428Y-131981190D02*
X111359047Y-132028809D01*
X111359047Y-132028809D02*
X111406666Y-132124047D01*
X111406666Y-132124047D02*
X111406666Y-132362142D01*
X111406666Y-132362142D02*
X111359047Y-132457380D01*
X111359047Y-132457380D02*
X111311428Y-132505000D01*
X111311428Y-132505000D02*
X111216190Y-132552619D01*
X111216190Y-132552619D02*
X110978095Y-132552619D01*
X110978095Y-132552619D02*
X110882857Y-132505000D01*
X110882857Y-132505000D02*
X110835238Y-132457380D01*
%TO.C,C25*%
X107117380Y-132352857D02*
X107165000Y-132400476D01*
X107165000Y-132400476D02*
X107212619Y-132543333D01*
X107212619Y-132543333D02*
X107212619Y-132638571D01*
X107212619Y-132638571D02*
X107165000Y-132781428D01*
X107165000Y-132781428D02*
X107069761Y-132876666D01*
X107069761Y-132876666D02*
X106974523Y-132924285D01*
X106974523Y-132924285D02*
X106784047Y-132971904D01*
X106784047Y-132971904D02*
X106641190Y-132971904D01*
X106641190Y-132971904D02*
X106450714Y-132924285D01*
X106450714Y-132924285D02*
X106355476Y-132876666D01*
X106355476Y-132876666D02*
X106260238Y-132781428D01*
X106260238Y-132781428D02*
X106212619Y-132638571D01*
X106212619Y-132638571D02*
X106212619Y-132543333D01*
X106212619Y-132543333D02*
X106260238Y-132400476D01*
X106260238Y-132400476D02*
X106307857Y-132352857D01*
X106307857Y-131971904D02*
X106260238Y-131924285D01*
X106260238Y-131924285D02*
X106212619Y-131829047D01*
X106212619Y-131829047D02*
X106212619Y-131590952D01*
X106212619Y-131590952D02*
X106260238Y-131495714D01*
X106260238Y-131495714D02*
X106307857Y-131448095D01*
X106307857Y-131448095D02*
X106403095Y-131400476D01*
X106403095Y-131400476D02*
X106498333Y-131400476D01*
X106498333Y-131400476D02*
X106641190Y-131448095D01*
X106641190Y-131448095D02*
X107212619Y-132019523D01*
X107212619Y-132019523D02*
X107212619Y-131400476D01*
X106212619Y-130495714D02*
X106212619Y-130971904D01*
X106212619Y-130971904D02*
X106688809Y-131019523D01*
X106688809Y-131019523D02*
X106641190Y-130971904D01*
X106641190Y-130971904D02*
X106593571Y-130876666D01*
X106593571Y-130876666D02*
X106593571Y-130638571D01*
X106593571Y-130638571D02*
X106641190Y-130543333D01*
X106641190Y-130543333D02*
X106688809Y-130495714D01*
X106688809Y-130495714D02*
X106784047Y-130448095D01*
X106784047Y-130448095D02*
X107022142Y-130448095D01*
X107022142Y-130448095D02*
X107117380Y-130495714D01*
X107117380Y-130495714D02*
X107165000Y-130543333D01*
X107165000Y-130543333D02*
X107212619Y-130638571D01*
X107212619Y-130638571D02*
X107212619Y-130876666D01*
X107212619Y-130876666D02*
X107165000Y-130971904D01*
X107165000Y-130971904D02*
X107117380Y-131019523D01*
%TO.C,TP46*%
X90961905Y-121999619D02*
X91533333Y-121999619D01*
X91247619Y-122999619D02*
X91247619Y-121999619D01*
X91866667Y-122999619D02*
X91866667Y-121999619D01*
X91866667Y-121999619D02*
X92247619Y-121999619D01*
X92247619Y-121999619D02*
X92342857Y-122047238D01*
X92342857Y-122047238D02*
X92390476Y-122094857D01*
X92390476Y-122094857D02*
X92438095Y-122190095D01*
X92438095Y-122190095D02*
X92438095Y-122332952D01*
X92438095Y-122332952D02*
X92390476Y-122428190D01*
X92390476Y-122428190D02*
X92342857Y-122475809D01*
X92342857Y-122475809D02*
X92247619Y-122523428D01*
X92247619Y-122523428D02*
X91866667Y-122523428D01*
X93295238Y-122332952D02*
X93295238Y-122999619D01*
X93057143Y-121952000D02*
X92819048Y-122666285D01*
X92819048Y-122666285D02*
X93438095Y-122666285D01*
X94247619Y-121999619D02*
X94057143Y-121999619D01*
X94057143Y-121999619D02*
X93961905Y-122047238D01*
X93961905Y-122047238D02*
X93914286Y-122094857D01*
X93914286Y-122094857D02*
X93819048Y-122237714D01*
X93819048Y-122237714D02*
X93771429Y-122428190D01*
X93771429Y-122428190D02*
X93771429Y-122809142D01*
X93771429Y-122809142D02*
X93819048Y-122904380D01*
X93819048Y-122904380D02*
X93866667Y-122952000D01*
X93866667Y-122952000D02*
X93961905Y-122999619D01*
X93961905Y-122999619D02*
X94152381Y-122999619D01*
X94152381Y-122999619D02*
X94247619Y-122952000D01*
X94247619Y-122952000D02*
X94295238Y-122904380D01*
X94295238Y-122904380D02*
X94342857Y-122809142D01*
X94342857Y-122809142D02*
X94342857Y-122571047D01*
X94342857Y-122571047D02*
X94295238Y-122475809D01*
X94295238Y-122475809D02*
X94247619Y-122428190D01*
X94247619Y-122428190D02*
X94152381Y-122380571D01*
X94152381Y-122380571D02*
X93961905Y-122380571D01*
X93961905Y-122380571D02*
X93866667Y-122428190D01*
X93866667Y-122428190D02*
X93819048Y-122475809D01*
X93819048Y-122475809D02*
X93771429Y-122571047D01*
%TO.C,C45*%
X89357142Y-80367380D02*
X89309523Y-80415000D01*
X89309523Y-80415000D02*
X89166666Y-80462619D01*
X89166666Y-80462619D02*
X89071428Y-80462619D01*
X89071428Y-80462619D02*
X88928571Y-80415000D01*
X88928571Y-80415000D02*
X88833333Y-80319761D01*
X88833333Y-80319761D02*
X88785714Y-80224523D01*
X88785714Y-80224523D02*
X88738095Y-80034047D01*
X88738095Y-80034047D02*
X88738095Y-79891190D01*
X88738095Y-79891190D02*
X88785714Y-79700714D01*
X88785714Y-79700714D02*
X88833333Y-79605476D01*
X88833333Y-79605476D02*
X88928571Y-79510238D01*
X88928571Y-79510238D02*
X89071428Y-79462619D01*
X89071428Y-79462619D02*
X89166666Y-79462619D01*
X89166666Y-79462619D02*
X89309523Y-79510238D01*
X89309523Y-79510238D02*
X89357142Y-79557857D01*
X90214285Y-79795952D02*
X90214285Y-80462619D01*
X89976190Y-79415000D02*
X89738095Y-80129285D01*
X89738095Y-80129285D02*
X90357142Y-80129285D01*
X91214285Y-79462619D02*
X90738095Y-79462619D01*
X90738095Y-79462619D02*
X90690476Y-79938809D01*
X90690476Y-79938809D02*
X90738095Y-79891190D01*
X90738095Y-79891190D02*
X90833333Y-79843571D01*
X90833333Y-79843571D02*
X91071428Y-79843571D01*
X91071428Y-79843571D02*
X91166666Y-79891190D01*
X91166666Y-79891190D02*
X91214285Y-79938809D01*
X91214285Y-79938809D02*
X91261904Y-80034047D01*
X91261904Y-80034047D02*
X91261904Y-80272142D01*
X91261904Y-80272142D02*
X91214285Y-80367380D01*
X91214285Y-80367380D02*
X91166666Y-80415000D01*
X91166666Y-80415000D02*
X91071428Y-80462619D01*
X91071428Y-80462619D02*
X90833333Y-80462619D01*
X90833333Y-80462619D02*
X90738095Y-80415000D01*
X90738095Y-80415000D02*
X90690476Y-80367380D01*
%TO.C,TP47*%
X85471905Y-125489619D02*
X86043333Y-125489619D01*
X85757619Y-126489619D02*
X85757619Y-125489619D01*
X86376667Y-126489619D02*
X86376667Y-125489619D01*
X86376667Y-125489619D02*
X86757619Y-125489619D01*
X86757619Y-125489619D02*
X86852857Y-125537238D01*
X86852857Y-125537238D02*
X86900476Y-125584857D01*
X86900476Y-125584857D02*
X86948095Y-125680095D01*
X86948095Y-125680095D02*
X86948095Y-125822952D01*
X86948095Y-125822952D02*
X86900476Y-125918190D01*
X86900476Y-125918190D02*
X86852857Y-125965809D01*
X86852857Y-125965809D02*
X86757619Y-126013428D01*
X86757619Y-126013428D02*
X86376667Y-126013428D01*
X87805238Y-125822952D02*
X87805238Y-126489619D01*
X87567143Y-125442000D02*
X87329048Y-126156285D01*
X87329048Y-126156285D02*
X87948095Y-126156285D01*
X88233810Y-125489619D02*
X88900476Y-125489619D01*
X88900476Y-125489619D02*
X88471905Y-126489619D01*
%TO.C,TP16*%
X83831905Y-136924619D02*
X84403333Y-136924619D01*
X84117619Y-137924619D02*
X84117619Y-136924619D01*
X84736667Y-137924619D02*
X84736667Y-136924619D01*
X84736667Y-136924619D02*
X85117619Y-136924619D01*
X85117619Y-136924619D02*
X85212857Y-136972238D01*
X85212857Y-136972238D02*
X85260476Y-137019857D01*
X85260476Y-137019857D02*
X85308095Y-137115095D01*
X85308095Y-137115095D02*
X85308095Y-137257952D01*
X85308095Y-137257952D02*
X85260476Y-137353190D01*
X85260476Y-137353190D02*
X85212857Y-137400809D01*
X85212857Y-137400809D02*
X85117619Y-137448428D01*
X85117619Y-137448428D02*
X84736667Y-137448428D01*
X86260476Y-137924619D02*
X85689048Y-137924619D01*
X85974762Y-137924619D02*
X85974762Y-136924619D01*
X85974762Y-136924619D02*
X85879524Y-137067476D01*
X85879524Y-137067476D02*
X85784286Y-137162714D01*
X85784286Y-137162714D02*
X85689048Y-137210333D01*
X87117619Y-136924619D02*
X86927143Y-136924619D01*
X86927143Y-136924619D02*
X86831905Y-136972238D01*
X86831905Y-136972238D02*
X86784286Y-137019857D01*
X86784286Y-137019857D02*
X86689048Y-137162714D01*
X86689048Y-137162714D02*
X86641429Y-137353190D01*
X86641429Y-137353190D02*
X86641429Y-137734142D01*
X86641429Y-137734142D02*
X86689048Y-137829380D01*
X86689048Y-137829380D02*
X86736667Y-137877000D01*
X86736667Y-137877000D02*
X86831905Y-137924619D01*
X86831905Y-137924619D02*
X87022381Y-137924619D01*
X87022381Y-137924619D02*
X87117619Y-137877000D01*
X87117619Y-137877000D02*
X87165238Y-137829380D01*
X87165238Y-137829380D02*
X87212857Y-137734142D01*
X87212857Y-137734142D02*
X87212857Y-137496047D01*
X87212857Y-137496047D02*
X87165238Y-137400809D01*
X87165238Y-137400809D02*
X87117619Y-137353190D01*
X87117619Y-137353190D02*
X87022381Y-137305571D01*
X87022381Y-137305571D02*
X86831905Y-137305571D01*
X86831905Y-137305571D02*
X86736667Y-137353190D01*
X86736667Y-137353190D02*
X86689048Y-137400809D01*
X86689048Y-137400809D02*
X86641429Y-137496047D01*
%TO.C,TP15*%
X82951905Y-141284619D02*
X83523333Y-141284619D01*
X83237619Y-142284619D02*
X83237619Y-141284619D01*
X83856667Y-142284619D02*
X83856667Y-141284619D01*
X83856667Y-141284619D02*
X84237619Y-141284619D01*
X84237619Y-141284619D02*
X84332857Y-141332238D01*
X84332857Y-141332238D02*
X84380476Y-141379857D01*
X84380476Y-141379857D02*
X84428095Y-141475095D01*
X84428095Y-141475095D02*
X84428095Y-141617952D01*
X84428095Y-141617952D02*
X84380476Y-141713190D01*
X84380476Y-141713190D02*
X84332857Y-141760809D01*
X84332857Y-141760809D02*
X84237619Y-141808428D01*
X84237619Y-141808428D02*
X83856667Y-141808428D01*
X85380476Y-142284619D02*
X84809048Y-142284619D01*
X85094762Y-142284619D02*
X85094762Y-141284619D01*
X85094762Y-141284619D02*
X84999524Y-141427476D01*
X84999524Y-141427476D02*
X84904286Y-141522714D01*
X84904286Y-141522714D02*
X84809048Y-141570333D01*
X86285238Y-141284619D02*
X85809048Y-141284619D01*
X85809048Y-141284619D02*
X85761429Y-141760809D01*
X85761429Y-141760809D02*
X85809048Y-141713190D01*
X85809048Y-141713190D02*
X85904286Y-141665571D01*
X85904286Y-141665571D02*
X86142381Y-141665571D01*
X86142381Y-141665571D02*
X86237619Y-141713190D01*
X86237619Y-141713190D02*
X86285238Y-141760809D01*
X86285238Y-141760809D02*
X86332857Y-141856047D01*
X86332857Y-141856047D02*
X86332857Y-142094142D01*
X86332857Y-142094142D02*
X86285238Y-142189380D01*
X86285238Y-142189380D02*
X86237619Y-142237000D01*
X86237619Y-142237000D02*
X86142381Y-142284619D01*
X86142381Y-142284619D02*
X85904286Y-142284619D01*
X85904286Y-142284619D02*
X85809048Y-142237000D01*
X85809048Y-142237000D02*
X85761429Y-142189380D01*
%TO.C,U5*%
X92991095Y-126370619D02*
X92991095Y-127180142D01*
X92991095Y-127180142D02*
X93038714Y-127275380D01*
X93038714Y-127275380D02*
X93086333Y-127323000D01*
X93086333Y-127323000D02*
X93181571Y-127370619D01*
X93181571Y-127370619D02*
X93372047Y-127370619D01*
X93372047Y-127370619D02*
X93467285Y-127323000D01*
X93467285Y-127323000D02*
X93514904Y-127275380D01*
X93514904Y-127275380D02*
X93562523Y-127180142D01*
X93562523Y-127180142D02*
X93562523Y-126370619D01*
X94514904Y-126370619D02*
X94038714Y-126370619D01*
X94038714Y-126370619D02*
X93991095Y-126846809D01*
X93991095Y-126846809D02*
X94038714Y-126799190D01*
X94038714Y-126799190D02*
X94133952Y-126751571D01*
X94133952Y-126751571D02*
X94372047Y-126751571D01*
X94372047Y-126751571D02*
X94467285Y-126799190D01*
X94467285Y-126799190D02*
X94514904Y-126846809D01*
X94514904Y-126846809D02*
X94562523Y-126942047D01*
X94562523Y-126942047D02*
X94562523Y-127180142D01*
X94562523Y-127180142D02*
X94514904Y-127275380D01*
X94514904Y-127275380D02*
X94467285Y-127323000D01*
X94467285Y-127323000D02*
X94372047Y-127370619D01*
X94372047Y-127370619D02*
X94133952Y-127370619D01*
X94133952Y-127370619D02*
X94038714Y-127323000D01*
X94038714Y-127323000D02*
X93991095Y-127275380D01*
%TO.C,U6*%
X101558095Y-127302619D02*
X101558095Y-128112142D01*
X101558095Y-128112142D02*
X101605714Y-128207380D01*
X101605714Y-128207380D02*
X101653333Y-128255000D01*
X101653333Y-128255000D02*
X101748571Y-128302619D01*
X101748571Y-128302619D02*
X101939047Y-128302619D01*
X101939047Y-128302619D02*
X102034285Y-128255000D01*
X102034285Y-128255000D02*
X102081904Y-128207380D01*
X102081904Y-128207380D02*
X102129523Y-128112142D01*
X102129523Y-128112142D02*
X102129523Y-127302619D01*
X103034285Y-127302619D02*
X102843809Y-127302619D01*
X102843809Y-127302619D02*
X102748571Y-127350238D01*
X102748571Y-127350238D02*
X102700952Y-127397857D01*
X102700952Y-127397857D02*
X102605714Y-127540714D01*
X102605714Y-127540714D02*
X102558095Y-127731190D01*
X102558095Y-127731190D02*
X102558095Y-128112142D01*
X102558095Y-128112142D02*
X102605714Y-128207380D01*
X102605714Y-128207380D02*
X102653333Y-128255000D01*
X102653333Y-128255000D02*
X102748571Y-128302619D01*
X102748571Y-128302619D02*
X102939047Y-128302619D01*
X102939047Y-128302619D02*
X103034285Y-128255000D01*
X103034285Y-128255000D02*
X103081904Y-128207380D01*
X103081904Y-128207380D02*
X103129523Y-128112142D01*
X103129523Y-128112142D02*
X103129523Y-127874047D01*
X103129523Y-127874047D02*
X103081904Y-127778809D01*
X103081904Y-127778809D02*
X103034285Y-127731190D01*
X103034285Y-127731190D02*
X102939047Y-127683571D01*
X102939047Y-127683571D02*
X102748571Y-127683571D01*
X102748571Y-127683571D02*
X102653333Y-127731190D01*
X102653333Y-127731190D02*
X102605714Y-127778809D01*
X102605714Y-127778809D02*
X102558095Y-127874047D01*
%TO.C,C4*%
X108812380Y-124374666D02*
X108860000Y-124422285D01*
X108860000Y-124422285D02*
X108907619Y-124565142D01*
X108907619Y-124565142D02*
X108907619Y-124660380D01*
X108907619Y-124660380D02*
X108860000Y-124803237D01*
X108860000Y-124803237D02*
X108764761Y-124898475D01*
X108764761Y-124898475D02*
X108669523Y-124946094D01*
X108669523Y-124946094D02*
X108479047Y-124993713D01*
X108479047Y-124993713D02*
X108336190Y-124993713D01*
X108336190Y-124993713D02*
X108145714Y-124946094D01*
X108145714Y-124946094D02*
X108050476Y-124898475D01*
X108050476Y-124898475D02*
X107955238Y-124803237D01*
X107955238Y-124803237D02*
X107907619Y-124660380D01*
X107907619Y-124660380D02*
X107907619Y-124565142D01*
X107907619Y-124565142D02*
X107955238Y-124422285D01*
X107955238Y-124422285D02*
X108002857Y-124374666D01*
X108240952Y-123517523D02*
X108907619Y-123517523D01*
X107860000Y-123755618D02*
X108574285Y-123993713D01*
X108574285Y-123993713D02*
X108574285Y-123374666D01*
%TO.C,U7*%
X78842619Y-136911904D02*
X79652142Y-136911904D01*
X79652142Y-136911904D02*
X79747380Y-136864285D01*
X79747380Y-136864285D02*
X79795000Y-136816666D01*
X79795000Y-136816666D02*
X79842619Y-136721428D01*
X79842619Y-136721428D02*
X79842619Y-136530952D01*
X79842619Y-136530952D02*
X79795000Y-136435714D01*
X79795000Y-136435714D02*
X79747380Y-136388095D01*
X79747380Y-136388095D02*
X79652142Y-136340476D01*
X79652142Y-136340476D02*
X78842619Y-136340476D01*
X78842619Y-135959523D02*
X78842619Y-135292857D01*
X78842619Y-135292857D02*
X79842619Y-135721428D01*
%TO.C,C12*%
X98417142Y-103364380D02*
X98369523Y-103412000D01*
X98369523Y-103412000D02*
X98226666Y-103459619D01*
X98226666Y-103459619D02*
X98131428Y-103459619D01*
X98131428Y-103459619D02*
X97988571Y-103412000D01*
X97988571Y-103412000D02*
X97893333Y-103316761D01*
X97893333Y-103316761D02*
X97845714Y-103221523D01*
X97845714Y-103221523D02*
X97798095Y-103031047D01*
X97798095Y-103031047D02*
X97798095Y-102888190D01*
X97798095Y-102888190D02*
X97845714Y-102697714D01*
X97845714Y-102697714D02*
X97893333Y-102602476D01*
X97893333Y-102602476D02*
X97988571Y-102507238D01*
X97988571Y-102507238D02*
X98131428Y-102459619D01*
X98131428Y-102459619D02*
X98226666Y-102459619D01*
X98226666Y-102459619D02*
X98369523Y-102507238D01*
X98369523Y-102507238D02*
X98417142Y-102554857D01*
X99369523Y-103459619D02*
X98798095Y-103459619D01*
X99083809Y-103459619D02*
X99083809Y-102459619D01*
X99083809Y-102459619D02*
X98988571Y-102602476D01*
X98988571Y-102602476D02*
X98893333Y-102697714D01*
X98893333Y-102697714D02*
X98798095Y-102745333D01*
X99750476Y-102554857D02*
X99798095Y-102507238D01*
X99798095Y-102507238D02*
X99893333Y-102459619D01*
X99893333Y-102459619D02*
X100131428Y-102459619D01*
X100131428Y-102459619D02*
X100226666Y-102507238D01*
X100226666Y-102507238D02*
X100274285Y-102554857D01*
X100274285Y-102554857D02*
X100321904Y-102650095D01*
X100321904Y-102650095D02*
X100321904Y-102745333D01*
X100321904Y-102745333D02*
X100274285Y-102888190D01*
X100274285Y-102888190D02*
X99702857Y-103459619D01*
X99702857Y-103459619D02*
X100321904Y-103459619D01*
%TO.C,TP43*%
X82381905Y-117319619D02*
X82953333Y-117319619D01*
X82667619Y-118319619D02*
X82667619Y-117319619D01*
X83286667Y-118319619D02*
X83286667Y-117319619D01*
X83286667Y-117319619D02*
X83667619Y-117319619D01*
X83667619Y-117319619D02*
X83762857Y-117367238D01*
X83762857Y-117367238D02*
X83810476Y-117414857D01*
X83810476Y-117414857D02*
X83858095Y-117510095D01*
X83858095Y-117510095D02*
X83858095Y-117652952D01*
X83858095Y-117652952D02*
X83810476Y-117748190D01*
X83810476Y-117748190D02*
X83762857Y-117795809D01*
X83762857Y-117795809D02*
X83667619Y-117843428D01*
X83667619Y-117843428D02*
X83286667Y-117843428D01*
X84715238Y-117652952D02*
X84715238Y-118319619D01*
X84477143Y-117272000D02*
X84239048Y-117986285D01*
X84239048Y-117986285D02*
X84858095Y-117986285D01*
X85143810Y-117319619D02*
X85762857Y-117319619D01*
X85762857Y-117319619D02*
X85429524Y-117700571D01*
X85429524Y-117700571D02*
X85572381Y-117700571D01*
X85572381Y-117700571D02*
X85667619Y-117748190D01*
X85667619Y-117748190D02*
X85715238Y-117795809D01*
X85715238Y-117795809D02*
X85762857Y-117891047D01*
X85762857Y-117891047D02*
X85762857Y-118129142D01*
X85762857Y-118129142D02*
X85715238Y-118224380D01*
X85715238Y-118224380D02*
X85667619Y-118272000D01*
X85667619Y-118272000D02*
X85572381Y-118319619D01*
X85572381Y-118319619D02*
X85286667Y-118319619D01*
X85286667Y-118319619D02*
X85191429Y-118272000D01*
X85191429Y-118272000D02*
X85143810Y-118224380D01*
%TO.C,U2*%
X119000095Y-99914523D02*
X119647714Y-99914523D01*
X119647714Y-99914523D02*
X119723904Y-99876428D01*
X119723904Y-99876428D02*
X119762000Y-99838333D01*
X119762000Y-99838333D02*
X119800095Y-99762142D01*
X119800095Y-99762142D02*
X119800095Y-99609761D01*
X119800095Y-99609761D02*
X119762000Y-99533571D01*
X119762000Y-99533571D02*
X119723904Y-99495476D01*
X119723904Y-99495476D02*
X119647714Y-99457380D01*
X119647714Y-99457380D02*
X119000095Y-99457380D01*
X119076285Y-99114524D02*
X119038190Y-99076428D01*
X119038190Y-99076428D02*
X119000095Y-99000238D01*
X119000095Y-99000238D02*
X119000095Y-98809762D01*
X119000095Y-98809762D02*
X119038190Y-98733571D01*
X119038190Y-98733571D02*
X119076285Y-98695476D01*
X119076285Y-98695476D02*
X119152476Y-98657381D01*
X119152476Y-98657381D02*
X119228666Y-98657381D01*
X119228666Y-98657381D02*
X119342952Y-98695476D01*
X119342952Y-98695476D02*
X119800095Y-99152619D01*
X119800095Y-99152619D02*
X119800095Y-98657381D01*
D11*
%TO.C,R10*%
X92635010Y-78326571D02*
X92393105Y-78495905D01*
X92635010Y-78616857D02*
X92127010Y-78616857D01*
X92127010Y-78616857D02*
X92127010Y-78423333D01*
X92127010Y-78423333D02*
X92151200Y-78374952D01*
X92151200Y-78374952D02*
X92175391Y-78350762D01*
X92175391Y-78350762D02*
X92223772Y-78326571D01*
X92223772Y-78326571D02*
X92296343Y-78326571D01*
X92296343Y-78326571D02*
X92344724Y-78350762D01*
X92344724Y-78350762D02*
X92368915Y-78374952D01*
X92368915Y-78374952D02*
X92393105Y-78423333D01*
X92393105Y-78423333D02*
X92393105Y-78616857D01*
X92635010Y-77842762D02*
X92635010Y-78133048D01*
X92635010Y-77987905D02*
X92127010Y-77987905D01*
X92127010Y-77987905D02*
X92199581Y-78036286D01*
X92199581Y-78036286D02*
X92247962Y-78084667D01*
X92247962Y-78084667D02*
X92272153Y-78133048D01*
X92127010Y-77528285D02*
X92127010Y-77479904D01*
X92127010Y-77479904D02*
X92151200Y-77431523D01*
X92151200Y-77431523D02*
X92175391Y-77407333D01*
X92175391Y-77407333D02*
X92223772Y-77383142D01*
X92223772Y-77383142D02*
X92320534Y-77358952D01*
X92320534Y-77358952D02*
X92441486Y-77358952D01*
X92441486Y-77358952D02*
X92538248Y-77383142D01*
X92538248Y-77383142D02*
X92586629Y-77407333D01*
X92586629Y-77407333D02*
X92610820Y-77431523D01*
X92610820Y-77431523D02*
X92635010Y-77479904D01*
X92635010Y-77479904D02*
X92635010Y-77528285D01*
X92635010Y-77528285D02*
X92610820Y-77576666D01*
X92610820Y-77576666D02*
X92586629Y-77600857D01*
X92586629Y-77600857D02*
X92538248Y-77625047D01*
X92538248Y-77625047D02*
X92441486Y-77649238D01*
X92441486Y-77649238D02*
X92320534Y-77649238D01*
X92320534Y-77649238D02*
X92223772Y-77625047D01*
X92223772Y-77625047D02*
X92175391Y-77600857D01*
X92175391Y-77600857D02*
X92151200Y-77576666D01*
X92151200Y-77576666D02*
X92127010Y-77528285D01*
D10*
%TO.C,TP42*%
X82361905Y-108562619D02*
X82933333Y-108562619D01*
X82647619Y-109562619D02*
X82647619Y-108562619D01*
X83266667Y-109562619D02*
X83266667Y-108562619D01*
X83266667Y-108562619D02*
X83647619Y-108562619D01*
X83647619Y-108562619D02*
X83742857Y-108610238D01*
X83742857Y-108610238D02*
X83790476Y-108657857D01*
X83790476Y-108657857D02*
X83838095Y-108753095D01*
X83838095Y-108753095D02*
X83838095Y-108895952D01*
X83838095Y-108895952D02*
X83790476Y-108991190D01*
X83790476Y-108991190D02*
X83742857Y-109038809D01*
X83742857Y-109038809D02*
X83647619Y-109086428D01*
X83647619Y-109086428D02*
X83266667Y-109086428D01*
X84695238Y-108895952D02*
X84695238Y-109562619D01*
X84457143Y-108515000D02*
X84219048Y-109229285D01*
X84219048Y-109229285D02*
X84838095Y-109229285D01*
X85171429Y-108657857D02*
X85219048Y-108610238D01*
X85219048Y-108610238D02*
X85314286Y-108562619D01*
X85314286Y-108562619D02*
X85552381Y-108562619D01*
X85552381Y-108562619D02*
X85647619Y-108610238D01*
X85647619Y-108610238D02*
X85695238Y-108657857D01*
X85695238Y-108657857D02*
X85742857Y-108753095D01*
X85742857Y-108753095D02*
X85742857Y-108848333D01*
X85742857Y-108848333D02*
X85695238Y-108991190D01*
X85695238Y-108991190D02*
X85123810Y-109562619D01*
X85123810Y-109562619D02*
X85742857Y-109562619D01*
%TO.C,L1*%
X110067380Y-87023333D02*
X110067380Y-86547143D01*
X110067380Y-86547143D02*
X111067380Y-86547143D01*
X110067380Y-87880476D02*
X110067380Y-87309048D01*
X110067380Y-87594762D02*
X111067380Y-87594762D01*
X111067380Y-87594762D02*
X110924523Y-87499524D01*
X110924523Y-87499524D02*
X110829285Y-87404286D01*
X110829285Y-87404286D02*
X110781666Y-87309048D01*
D11*
%TO.C,R15*%
X91235010Y-74726571D02*
X90993105Y-74895905D01*
X91235010Y-75016857D02*
X90727010Y-75016857D01*
X90727010Y-75016857D02*
X90727010Y-74823333D01*
X90727010Y-74823333D02*
X90751200Y-74774952D01*
X90751200Y-74774952D02*
X90775391Y-74750762D01*
X90775391Y-74750762D02*
X90823772Y-74726571D01*
X90823772Y-74726571D02*
X90896343Y-74726571D01*
X90896343Y-74726571D02*
X90944724Y-74750762D01*
X90944724Y-74750762D02*
X90968915Y-74774952D01*
X90968915Y-74774952D02*
X90993105Y-74823333D01*
X90993105Y-74823333D02*
X90993105Y-75016857D01*
X91235010Y-74242762D02*
X91235010Y-74533048D01*
X91235010Y-74387905D02*
X90727010Y-74387905D01*
X90727010Y-74387905D02*
X90799581Y-74436286D01*
X90799581Y-74436286D02*
X90847962Y-74484667D01*
X90847962Y-74484667D02*
X90872153Y-74533048D01*
X90727010Y-73783142D02*
X90727010Y-74025047D01*
X90727010Y-74025047D02*
X90968915Y-74049238D01*
X90968915Y-74049238D02*
X90944724Y-74025047D01*
X90944724Y-74025047D02*
X90920534Y-73976666D01*
X90920534Y-73976666D02*
X90920534Y-73855714D01*
X90920534Y-73855714D02*
X90944724Y-73807333D01*
X90944724Y-73807333D02*
X90968915Y-73783142D01*
X90968915Y-73783142D02*
X91017296Y-73758952D01*
X91017296Y-73758952D02*
X91138248Y-73758952D01*
X91138248Y-73758952D02*
X91186629Y-73783142D01*
X91186629Y-73783142D02*
X91210820Y-73807333D01*
X91210820Y-73807333D02*
X91235010Y-73855714D01*
X91235010Y-73855714D02*
X91235010Y-73976666D01*
X91235010Y-73976666D02*
X91210820Y-74025047D01*
X91210820Y-74025047D02*
X91186629Y-74049238D01*
D10*
%TO.C,C15*%
X94807142Y-106457380D02*
X94759523Y-106505000D01*
X94759523Y-106505000D02*
X94616666Y-106552619D01*
X94616666Y-106552619D02*
X94521428Y-106552619D01*
X94521428Y-106552619D02*
X94378571Y-106505000D01*
X94378571Y-106505000D02*
X94283333Y-106409761D01*
X94283333Y-106409761D02*
X94235714Y-106314523D01*
X94235714Y-106314523D02*
X94188095Y-106124047D01*
X94188095Y-106124047D02*
X94188095Y-105981190D01*
X94188095Y-105981190D02*
X94235714Y-105790714D01*
X94235714Y-105790714D02*
X94283333Y-105695476D01*
X94283333Y-105695476D02*
X94378571Y-105600238D01*
X94378571Y-105600238D02*
X94521428Y-105552619D01*
X94521428Y-105552619D02*
X94616666Y-105552619D01*
X94616666Y-105552619D02*
X94759523Y-105600238D01*
X94759523Y-105600238D02*
X94807142Y-105647857D01*
X95759523Y-106552619D02*
X95188095Y-106552619D01*
X95473809Y-106552619D02*
X95473809Y-105552619D01*
X95473809Y-105552619D02*
X95378571Y-105695476D01*
X95378571Y-105695476D02*
X95283333Y-105790714D01*
X95283333Y-105790714D02*
X95188095Y-105838333D01*
X96664285Y-105552619D02*
X96188095Y-105552619D01*
X96188095Y-105552619D02*
X96140476Y-106028809D01*
X96140476Y-106028809D02*
X96188095Y-105981190D01*
X96188095Y-105981190D02*
X96283333Y-105933571D01*
X96283333Y-105933571D02*
X96521428Y-105933571D01*
X96521428Y-105933571D02*
X96616666Y-105981190D01*
X96616666Y-105981190D02*
X96664285Y-106028809D01*
X96664285Y-106028809D02*
X96711904Y-106124047D01*
X96711904Y-106124047D02*
X96711904Y-106362142D01*
X96711904Y-106362142D02*
X96664285Y-106457380D01*
X96664285Y-106457380D02*
X96616666Y-106505000D01*
X96616666Y-106505000D02*
X96521428Y-106552619D01*
X96521428Y-106552619D02*
X96283333Y-106552619D01*
X96283333Y-106552619D02*
X96188095Y-106505000D01*
X96188095Y-106505000D02*
X96140476Y-106457380D01*
%TO.C,R16*%
X87457142Y-106362619D02*
X87123809Y-105886428D01*
X86885714Y-106362619D02*
X86885714Y-105362619D01*
X86885714Y-105362619D02*
X87266666Y-105362619D01*
X87266666Y-105362619D02*
X87361904Y-105410238D01*
X87361904Y-105410238D02*
X87409523Y-105457857D01*
X87409523Y-105457857D02*
X87457142Y-105553095D01*
X87457142Y-105553095D02*
X87457142Y-105695952D01*
X87457142Y-105695952D02*
X87409523Y-105791190D01*
X87409523Y-105791190D02*
X87361904Y-105838809D01*
X87361904Y-105838809D02*
X87266666Y-105886428D01*
X87266666Y-105886428D02*
X86885714Y-105886428D01*
X88409523Y-106362619D02*
X87838095Y-106362619D01*
X88123809Y-106362619D02*
X88123809Y-105362619D01*
X88123809Y-105362619D02*
X88028571Y-105505476D01*
X88028571Y-105505476D02*
X87933333Y-105600714D01*
X87933333Y-105600714D02*
X87838095Y-105648333D01*
X89266666Y-105362619D02*
X89076190Y-105362619D01*
X89076190Y-105362619D02*
X88980952Y-105410238D01*
X88980952Y-105410238D02*
X88933333Y-105457857D01*
X88933333Y-105457857D02*
X88838095Y-105600714D01*
X88838095Y-105600714D02*
X88790476Y-105791190D01*
X88790476Y-105791190D02*
X88790476Y-106172142D01*
X88790476Y-106172142D02*
X88838095Y-106267380D01*
X88838095Y-106267380D02*
X88885714Y-106315000D01*
X88885714Y-106315000D02*
X88980952Y-106362619D01*
X88980952Y-106362619D02*
X89171428Y-106362619D01*
X89171428Y-106362619D02*
X89266666Y-106315000D01*
X89266666Y-106315000D02*
X89314285Y-106267380D01*
X89314285Y-106267380D02*
X89361904Y-106172142D01*
X89361904Y-106172142D02*
X89361904Y-105934047D01*
X89361904Y-105934047D02*
X89314285Y-105838809D01*
X89314285Y-105838809D02*
X89266666Y-105791190D01*
X89266666Y-105791190D02*
X89171428Y-105743571D01*
X89171428Y-105743571D02*
X88980952Y-105743571D01*
X88980952Y-105743571D02*
X88885714Y-105791190D01*
X88885714Y-105791190D02*
X88838095Y-105838809D01*
X88838095Y-105838809D02*
X88790476Y-105934047D01*
%TO.C,C32*%
X83707142Y-128287380D02*
X83659523Y-128335000D01*
X83659523Y-128335000D02*
X83516666Y-128382619D01*
X83516666Y-128382619D02*
X83421428Y-128382619D01*
X83421428Y-128382619D02*
X83278571Y-128335000D01*
X83278571Y-128335000D02*
X83183333Y-128239761D01*
X83183333Y-128239761D02*
X83135714Y-128144523D01*
X83135714Y-128144523D02*
X83088095Y-127954047D01*
X83088095Y-127954047D02*
X83088095Y-127811190D01*
X83088095Y-127811190D02*
X83135714Y-127620714D01*
X83135714Y-127620714D02*
X83183333Y-127525476D01*
X83183333Y-127525476D02*
X83278571Y-127430238D01*
X83278571Y-127430238D02*
X83421428Y-127382619D01*
X83421428Y-127382619D02*
X83516666Y-127382619D01*
X83516666Y-127382619D02*
X83659523Y-127430238D01*
X83659523Y-127430238D02*
X83707142Y-127477857D01*
X84040476Y-127382619D02*
X84659523Y-127382619D01*
X84659523Y-127382619D02*
X84326190Y-127763571D01*
X84326190Y-127763571D02*
X84469047Y-127763571D01*
X84469047Y-127763571D02*
X84564285Y-127811190D01*
X84564285Y-127811190D02*
X84611904Y-127858809D01*
X84611904Y-127858809D02*
X84659523Y-127954047D01*
X84659523Y-127954047D02*
X84659523Y-128192142D01*
X84659523Y-128192142D02*
X84611904Y-128287380D01*
X84611904Y-128287380D02*
X84564285Y-128335000D01*
X84564285Y-128335000D02*
X84469047Y-128382619D01*
X84469047Y-128382619D02*
X84183333Y-128382619D01*
X84183333Y-128382619D02*
X84088095Y-128335000D01*
X84088095Y-128335000D02*
X84040476Y-128287380D01*
X85040476Y-127477857D02*
X85088095Y-127430238D01*
X85088095Y-127430238D02*
X85183333Y-127382619D01*
X85183333Y-127382619D02*
X85421428Y-127382619D01*
X85421428Y-127382619D02*
X85516666Y-127430238D01*
X85516666Y-127430238D02*
X85564285Y-127477857D01*
X85564285Y-127477857D02*
X85611904Y-127573095D01*
X85611904Y-127573095D02*
X85611904Y-127668333D01*
X85611904Y-127668333D02*
X85564285Y-127811190D01*
X85564285Y-127811190D02*
X84992857Y-128382619D01*
X84992857Y-128382619D02*
X85611904Y-128382619D01*
%TO.C,C16*%
X102923380Y-125320857D02*
X102971000Y-125368476D01*
X102971000Y-125368476D02*
X103018619Y-125511333D01*
X103018619Y-125511333D02*
X103018619Y-125606571D01*
X103018619Y-125606571D02*
X102971000Y-125749428D01*
X102971000Y-125749428D02*
X102875761Y-125844666D01*
X102875761Y-125844666D02*
X102780523Y-125892285D01*
X102780523Y-125892285D02*
X102590047Y-125939904D01*
X102590047Y-125939904D02*
X102447190Y-125939904D01*
X102447190Y-125939904D02*
X102256714Y-125892285D01*
X102256714Y-125892285D02*
X102161476Y-125844666D01*
X102161476Y-125844666D02*
X102066238Y-125749428D01*
X102066238Y-125749428D02*
X102018619Y-125606571D01*
X102018619Y-125606571D02*
X102018619Y-125511333D01*
X102018619Y-125511333D02*
X102066238Y-125368476D01*
X102066238Y-125368476D02*
X102113857Y-125320857D01*
X103018619Y-124368476D02*
X103018619Y-124939904D01*
X103018619Y-124654190D02*
X102018619Y-124654190D01*
X102018619Y-124654190D02*
X102161476Y-124749428D01*
X102161476Y-124749428D02*
X102256714Y-124844666D01*
X102256714Y-124844666D02*
X102304333Y-124939904D01*
X102018619Y-123511333D02*
X102018619Y-123701809D01*
X102018619Y-123701809D02*
X102066238Y-123797047D01*
X102066238Y-123797047D02*
X102113857Y-123844666D01*
X102113857Y-123844666D02*
X102256714Y-123939904D01*
X102256714Y-123939904D02*
X102447190Y-123987523D01*
X102447190Y-123987523D02*
X102828142Y-123987523D01*
X102828142Y-123987523D02*
X102923380Y-123939904D01*
X102923380Y-123939904D02*
X102971000Y-123892285D01*
X102971000Y-123892285D02*
X103018619Y-123797047D01*
X103018619Y-123797047D02*
X103018619Y-123606571D01*
X103018619Y-123606571D02*
X102971000Y-123511333D01*
X102971000Y-123511333D02*
X102923380Y-123463714D01*
X102923380Y-123463714D02*
X102828142Y-123416095D01*
X102828142Y-123416095D02*
X102590047Y-123416095D01*
X102590047Y-123416095D02*
X102494809Y-123463714D01*
X102494809Y-123463714D02*
X102447190Y-123511333D01*
X102447190Y-123511333D02*
X102399571Y-123606571D01*
X102399571Y-123606571D02*
X102399571Y-123797047D01*
X102399571Y-123797047D02*
X102447190Y-123892285D01*
X102447190Y-123892285D02*
X102494809Y-123939904D01*
X102494809Y-123939904D02*
X102590047Y-123987523D01*
%TO.C,TP12*%
X77731905Y-121052619D02*
X78303333Y-121052619D01*
X78017619Y-122052619D02*
X78017619Y-121052619D01*
X78636667Y-122052619D02*
X78636667Y-121052619D01*
X78636667Y-121052619D02*
X79017619Y-121052619D01*
X79017619Y-121052619D02*
X79112857Y-121100238D01*
X79112857Y-121100238D02*
X79160476Y-121147857D01*
X79160476Y-121147857D02*
X79208095Y-121243095D01*
X79208095Y-121243095D02*
X79208095Y-121385952D01*
X79208095Y-121385952D02*
X79160476Y-121481190D01*
X79160476Y-121481190D02*
X79112857Y-121528809D01*
X79112857Y-121528809D02*
X79017619Y-121576428D01*
X79017619Y-121576428D02*
X78636667Y-121576428D01*
X80160476Y-122052619D02*
X79589048Y-122052619D01*
X79874762Y-122052619D02*
X79874762Y-121052619D01*
X79874762Y-121052619D02*
X79779524Y-121195476D01*
X79779524Y-121195476D02*
X79684286Y-121290714D01*
X79684286Y-121290714D02*
X79589048Y-121338333D01*
X80541429Y-121147857D02*
X80589048Y-121100238D01*
X80589048Y-121100238D02*
X80684286Y-121052619D01*
X80684286Y-121052619D02*
X80922381Y-121052619D01*
X80922381Y-121052619D02*
X81017619Y-121100238D01*
X81017619Y-121100238D02*
X81065238Y-121147857D01*
X81065238Y-121147857D02*
X81112857Y-121243095D01*
X81112857Y-121243095D02*
X81112857Y-121338333D01*
X81112857Y-121338333D02*
X81065238Y-121481190D01*
X81065238Y-121481190D02*
X80493810Y-122052619D01*
X80493810Y-122052619D02*
X81112857Y-122052619D01*
%TO.C,TP20*%
X104181905Y-120812619D02*
X104753333Y-120812619D01*
X104467619Y-121812619D02*
X104467619Y-120812619D01*
X105086667Y-121812619D02*
X105086667Y-120812619D01*
X105086667Y-120812619D02*
X105467619Y-120812619D01*
X105467619Y-120812619D02*
X105562857Y-120860238D01*
X105562857Y-120860238D02*
X105610476Y-120907857D01*
X105610476Y-120907857D02*
X105658095Y-121003095D01*
X105658095Y-121003095D02*
X105658095Y-121145952D01*
X105658095Y-121145952D02*
X105610476Y-121241190D01*
X105610476Y-121241190D02*
X105562857Y-121288809D01*
X105562857Y-121288809D02*
X105467619Y-121336428D01*
X105467619Y-121336428D02*
X105086667Y-121336428D01*
X106039048Y-120907857D02*
X106086667Y-120860238D01*
X106086667Y-120860238D02*
X106181905Y-120812619D01*
X106181905Y-120812619D02*
X106420000Y-120812619D01*
X106420000Y-120812619D02*
X106515238Y-120860238D01*
X106515238Y-120860238D02*
X106562857Y-120907857D01*
X106562857Y-120907857D02*
X106610476Y-121003095D01*
X106610476Y-121003095D02*
X106610476Y-121098333D01*
X106610476Y-121098333D02*
X106562857Y-121241190D01*
X106562857Y-121241190D02*
X105991429Y-121812619D01*
X105991429Y-121812619D02*
X106610476Y-121812619D01*
X107229524Y-120812619D02*
X107324762Y-120812619D01*
X107324762Y-120812619D02*
X107420000Y-120860238D01*
X107420000Y-120860238D02*
X107467619Y-120907857D01*
X107467619Y-120907857D02*
X107515238Y-121003095D01*
X107515238Y-121003095D02*
X107562857Y-121193571D01*
X107562857Y-121193571D02*
X107562857Y-121431666D01*
X107562857Y-121431666D02*
X107515238Y-121622142D01*
X107515238Y-121622142D02*
X107467619Y-121717380D01*
X107467619Y-121717380D02*
X107420000Y-121765000D01*
X107420000Y-121765000D02*
X107324762Y-121812619D01*
X107324762Y-121812619D02*
X107229524Y-121812619D01*
X107229524Y-121812619D02*
X107134286Y-121765000D01*
X107134286Y-121765000D02*
X107086667Y-121717380D01*
X107086667Y-121717380D02*
X107039048Y-121622142D01*
X107039048Y-121622142D02*
X106991429Y-121431666D01*
X106991429Y-121431666D02*
X106991429Y-121193571D01*
X106991429Y-121193571D02*
X107039048Y-121003095D01*
X107039048Y-121003095D02*
X107086667Y-120907857D01*
X107086667Y-120907857D02*
X107134286Y-120860238D01*
X107134286Y-120860238D02*
X107229524Y-120812619D01*
%TO.C,C18*%
X92427142Y-109857380D02*
X92379523Y-109905000D01*
X92379523Y-109905000D02*
X92236666Y-109952619D01*
X92236666Y-109952619D02*
X92141428Y-109952619D01*
X92141428Y-109952619D02*
X91998571Y-109905000D01*
X91998571Y-109905000D02*
X91903333Y-109809761D01*
X91903333Y-109809761D02*
X91855714Y-109714523D01*
X91855714Y-109714523D02*
X91808095Y-109524047D01*
X91808095Y-109524047D02*
X91808095Y-109381190D01*
X91808095Y-109381190D02*
X91855714Y-109190714D01*
X91855714Y-109190714D02*
X91903333Y-109095476D01*
X91903333Y-109095476D02*
X91998571Y-109000238D01*
X91998571Y-109000238D02*
X92141428Y-108952619D01*
X92141428Y-108952619D02*
X92236666Y-108952619D01*
X92236666Y-108952619D02*
X92379523Y-109000238D01*
X92379523Y-109000238D02*
X92427142Y-109047857D01*
X93379523Y-109952619D02*
X92808095Y-109952619D01*
X93093809Y-109952619D02*
X93093809Y-108952619D01*
X93093809Y-108952619D02*
X92998571Y-109095476D01*
X92998571Y-109095476D02*
X92903333Y-109190714D01*
X92903333Y-109190714D02*
X92808095Y-109238333D01*
X93950952Y-109381190D02*
X93855714Y-109333571D01*
X93855714Y-109333571D02*
X93808095Y-109285952D01*
X93808095Y-109285952D02*
X93760476Y-109190714D01*
X93760476Y-109190714D02*
X93760476Y-109143095D01*
X93760476Y-109143095D02*
X93808095Y-109047857D01*
X93808095Y-109047857D02*
X93855714Y-109000238D01*
X93855714Y-109000238D02*
X93950952Y-108952619D01*
X93950952Y-108952619D02*
X94141428Y-108952619D01*
X94141428Y-108952619D02*
X94236666Y-109000238D01*
X94236666Y-109000238D02*
X94284285Y-109047857D01*
X94284285Y-109047857D02*
X94331904Y-109143095D01*
X94331904Y-109143095D02*
X94331904Y-109190714D01*
X94331904Y-109190714D02*
X94284285Y-109285952D01*
X94284285Y-109285952D02*
X94236666Y-109333571D01*
X94236666Y-109333571D02*
X94141428Y-109381190D01*
X94141428Y-109381190D02*
X93950952Y-109381190D01*
X93950952Y-109381190D02*
X93855714Y-109428809D01*
X93855714Y-109428809D02*
X93808095Y-109476428D01*
X93808095Y-109476428D02*
X93760476Y-109571666D01*
X93760476Y-109571666D02*
X93760476Y-109762142D01*
X93760476Y-109762142D02*
X93808095Y-109857380D01*
X93808095Y-109857380D02*
X93855714Y-109905000D01*
X93855714Y-109905000D02*
X93950952Y-109952619D01*
X93950952Y-109952619D02*
X94141428Y-109952619D01*
X94141428Y-109952619D02*
X94236666Y-109905000D01*
X94236666Y-109905000D02*
X94284285Y-109857380D01*
X94284285Y-109857380D02*
X94331904Y-109762142D01*
X94331904Y-109762142D02*
X94331904Y-109571666D01*
X94331904Y-109571666D02*
X94284285Y-109476428D01*
X94284285Y-109476428D02*
X94236666Y-109428809D01*
X94236666Y-109428809D02*
X94141428Y-109381190D01*
%TO.C,C40*%
X93157142Y-74567380D02*
X93109523Y-74615000D01*
X93109523Y-74615000D02*
X92966666Y-74662619D01*
X92966666Y-74662619D02*
X92871428Y-74662619D01*
X92871428Y-74662619D02*
X92728571Y-74615000D01*
X92728571Y-74615000D02*
X92633333Y-74519761D01*
X92633333Y-74519761D02*
X92585714Y-74424523D01*
X92585714Y-74424523D02*
X92538095Y-74234047D01*
X92538095Y-74234047D02*
X92538095Y-74091190D01*
X92538095Y-74091190D02*
X92585714Y-73900714D01*
X92585714Y-73900714D02*
X92633333Y-73805476D01*
X92633333Y-73805476D02*
X92728571Y-73710238D01*
X92728571Y-73710238D02*
X92871428Y-73662619D01*
X92871428Y-73662619D02*
X92966666Y-73662619D01*
X92966666Y-73662619D02*
X93109523Y-73710238D01*
X93109523Y-73710238D02*
X93157142Y-73757857D01*
X94014285Y-73995952D02*
X94014285Y-74662619D01*
X93776190Y-73615000D02*
X93538095Y-74329285D01*
X93538095Y-74329285D02*
X94157142Y-74329285D01*
X94728571Y-73662619D02*
X94823809Y-73662619D01*
X94823809Y-73662619D02*
X94919047Y-73710238D01*
X94919047Y-73710238D02*
X94966666Y-73757857D01*
X94966666Y-73757857D02*
X95014285Y-73853095D01*
X95014285Y-73853095D02*
X95061904Y-74043571D01*
X95061904Y-74043571D02*
X95061904Y-74281666D01*
X95061904Y-74281666D02*
X95014285Y-74472142D01*
X95014285Y-74472142D02*
X94966666Y-74567380D01*
X94966666Y-74567380D02*
X94919047Y-74615000D01*
X94919047Y-74615000D02*
X94823809Y-74662619D01*
X94823809Y-74662619D02*
X94728571Y-74662619D01*
X94728571Y-74662619D02*
X94633333Y-74615000D01*
X94633333Y-74615000D02*
X94585714Y-74567380D01*
X94585714Y-74567380D02*
X94538095Y-74472142D01*
X94538095Y-74472142D02*
X94490476Y-74281666D01*
X94490476Y-74281666D02*
X94490476Y-74043571D01*
X94490476Y-74043571D02*
X94538095Y-73853095D01*
X94538095Y-73853095D02*
X94585714Y-73757857D01*
X94585714Y-73757857D02*
X94633333Y-73710238D01*
X94633333Y-73710238D02*
X94728571Y-73662619D01*
%TO.C,U10*%
X81861905Y-100672619D02*
X81861905Y-101482142D01*
X81861905Y-101482142D02*
X81909524Y-101577380D01*
X81909524Y-101577380D02*
X81957143Y-101625000D01*
X81957143Y-101625000D02*
X82052381Y-101672619D01*
X82052381Y-101672619D02*
X82242857Y-101672619D01*
X82242857Y-101672619D02*
X82338095Y-101625000D01*
X82338095Y-101625000D02*
X82385714Y-101577380D01*
X82385714Y-101577380D02*
X82433333Y-101482142D01*
X82433333Y-101482142D02*
X82433333Y-100672619D01*
X83433333Y-101672619D02*
X82861905Y-101672619D01*
X83147619Y-101672619D02*
X83147619Y-100672619D01*
X83147619Y-100672619D02*
X83052381Y-100815476D01*
X83052381Y-100815476D02*
X82957143Y-100910714D01*
X82957143Y-100910714D02*
X82861905Y-100958333D01*
X84052381Y-100672619D02*
X84147619Y-100672619D01*
X84147619Y-100672619D02*
X84242857Y-100720238D01*
X84242857Y-100720238D02*
X84290476Y-100767857D01*
X84290476Y-100767857D02*
X84338095Y-100863095D01*
X84338095Y-100863095D02*
X84385714Y-101053571D01*
X84385714Y-101053571D02*
X84385714Y-101291666D01*
X84385714Y-101291666D02*
X84338095Y-101482142D01*
X84338095Y-101482142D02*
X84290476Y-101577380D01*
X84290476Y-101577380D02*
X84242857Y-101625000D01*
X84242857Y-101625000D02*
X84147619Y-101672619D01*
X84147619Y-101672619D02*
X84052381Y-101672619D01*
X84052381Y-101672619D02*
X83957143Y-101625000D01*
X83957143Y-101625000D02*
X83909524Y-101577380D01*
X83909524Y-101577380D02*
X83861905Y-101482142D01*
X83861905Y-101482142D02*
X83814286Y-101291666D01*
X83814286Y-101291666D02*
X83814286Y-101053571D01*
X83814286Y-101053571D02*
X83861905Y-100863095D01*
X83861905Y-100863095D02*
X83909524Y-100767857D01*
X83909524Y-100767857D02*
X83957143Y-100720238D01*
X83957143Y-100720238D02*
X84052381Y-100672619D01*
%TO.C,TP36*%
X117971905Y-104772619D02*
X118543333Y-104772619D01*
X118257619Y-105772619D02*
X118257619Y-104772619D01*
X118876667Y-105772619D02*
X118876667Y-104772619D01*
X118876667Y-104772619D02*
X119257619Y-104772619D01*
X119257619Y-104772619D02*
X119352857Y-104820238D01*
X119352857Y-104820238D02*
X119400476Y-104867857D01*
X119400476Y-104867857D02*
X119448095Y-104963095D01*
X119448095Y-104963095D02*
X119448095Y-105105952D01*
X119448095Y-105105952D02*
X119400476Y-105201190D01*
X119400476Y-105201190D02*
X119352857Y-105248809D01*
X119352857Y-105248809D02*
X119257619Y-105296428D01*
X119257619Y-105296428D02*
X118876667Y-105296428D01*
X119781429Y-104772619D02*
X120400476Y-104772619D01*
X120400476Y-104772619D02*
X120067143Y-105153571D01*
X120067143Y-105153571D02*
X120210000Y-105153571D01*
X120210000Y-105153571D02*
X120305238Y-105201190D01*
X120305238Y-105201190D02*
X120352857Y-105248809D01*
X120352857Y-105248809D02*
X120400476Y-105344047D01*
X120400476Y-105344047D02*
X120400476Y-105582142D01*
X120400476Y-105582142D02*
X120352857Y-105677380D01*
X120352857Y-105677380D02*
X120305238Y-105725000D01*
X120305238Y-105725000D02*
X120210000Y-105772619D01*
X120210000Y-105772619D02*
X119924286Y-105772619D01*
X119924286Y-105772619D02*
X119829048Y-105725000D01*
X119829048Y-105725000D02*
X119781429Y-105677380D01*
X121257619Y-104772619D02*
X121067143Y-104772619D01*
X121067143Y-104772619D02*
X120971905Y-104820238D01*
X120971905Y-104820238D02*
X120924286Y-104867857D01*
X120924286Y-104867857D02*
X120829048Y-105010714D01*
X120829048Y-105010714D02*
X120781429Y-105201190D01*
X120781429Y-105201190D02*
X120781429Y-105582142D01*
X120781429Y-105582142D02*
X120829048Y-105677380D01*
X120829048Y-105677380D02*
X120876667Y-105725000D01*
X120876667Y-105725000D02*
X120971905Y-105772619D01*
X120971905Y-105772619D02*
X121162381Y-105772619D01*
X121162381Y-105772619D02*
X121257619Y-105725000D01*
X121257619Y-105725000D02*
X121305238Y-105677380D01*
X121305238Y-105677380D02*
X121352857Y-105582142D01*
X121352857Y-105582142D02*
X121352857Y-105344047D01*
X121352857Y-105344047D02*
X121305238Y-105248809D01*
X121305238Y-105248809D02*
X121257619Y-105201190D01*
X121257619Y-105201190D02*
X121162381Y-105153571D01*
X121162381Y-105153571D02*
X120971905Y-105153571D01*
X120971905Y-105153571D02*
X120876667Y-105201190D01*
X120876667Y-105201190D02*
X120829048Y-105248809D01*
X120829048Y-105248809D02*
X120781429Y-105344047D01*
%TO.C,C35*%
X81521142Y-92638380D02*
X81473523Y-92686000D01*
X81473523Y-92686000D02*
X81330666Y-92733619D01*
X81330666Y-92733619D02*
X81235428Y-92733619D01*
X81235428Y-92733619D02*
X81092571Y-92686000D01*
X81092571Y-92686000D02*
X80997333Y-92590761D01*
X80997333Y-92590761D02*
X80949714Y-92495523D01*
X80949714Y-92495523D02*
X80902095Y-92305047D01*
X80902095Y-92305047D02*
X80902095Y-92162190D01*
X80902095Y-92162190D02*
X80949714Y-91971714D01*
X80949714Y-91971714D02*
X80997333Y-91876476D01*
X80997333Y-91876476D02*
X81092571Y-91781238D01*
X81092571Y-91781238D02*
X81235428Y-91733619D01*
X81235428Y-91733619D02*
X81330666Y-91733619D01*
X81330666Y-91733619D02*
X81473523Y-91781238D01*
X81473523Y-91781238D02*
X81521142Y-91828857D01*
X81854476Y-91733619D02*
X82473523Y-91733619D01*
X82473523Y-91733619D02*
X82140190Y-92114571D01*
X82140190Y-92114571D02*
X82283047Y-92114571D01*
X82283047Y-92114571D02*
X82378285Y-92162190D01*
X82378285Y-92162190D02*
X82425904Y-92209809D01*
X82425904Y-92209809D02*
X82473523Y-92305047D01*
X82473523Y-92305047D02*
X82473523Y-92543142D01*
X82473523Y-92543142D02*
X82425904Y-92638380D01*
X82425904Y-92638380D02*
X82378285Y-92686000D01*
X82378285Y-92686000D02*
X82283047Y-92733619D01*
X82283047Y-92733619D02*
X81997333Y-92733619D01*
X81997333Y-92733619D02*
X81902095Y-92686000D01*
X81902095Y-92686000D02*
X81854476Y-92638380D01*
X83378285Y-91733619D02*
X82902095Y-91733619D01*
X82902095Y-91733619D02*
X82854476Y-92209809D01*
X82854476Y-92209809D02*
X82902095Y-92162190D01*
X82902095Y-92162190D02*
X82997333Y-92114571D01*
X82997333Y-92114571D02*
X83235428Y-92114571D01*
X83235428Y-92114571D02*
X83330666Y-92162190D01*
X83330666Y-92162190D02*
X83378285Y-92209809D01*
X83378285Y-92209809D02*
X83425904Y-92305047D01*
X83425904Y-92305047D02*
X83425904Y-92543142D01*
X83425904Y-92543142D02*
X83378285Y-92638380D01*
X83378285Y-92638380D02*
X83330666Y-92686000D01*
X83330666Y-92686000D02*
X83235428Y-92733619D01*
X83235428Y-92733619D02*
X82997333Y-92733619D01*
X82997333Y-92733619D02*
X82902095Y-92686000D01*
X82902095Y-92686000D02*
X82854476Y-92638380D01*
%TO.C,C10*%
X110727380Y-112832857D02*
X110775000Y-112880476D01*
X110775000Y-112880476D02*
X110822619Y-113023333D01*
X110822619Y-113023333D02*
X110822619Y-113118571D01*
X110822619Y-113118571D02*
X110775000Y-113261428D01*
X110775000Y-113261428D02*
X110679761Y-113356666D01*
X110679761Y-113356666D02*
X110584523Y-113404285D01*
X110584523Y-113404285D02*
X110394047Y-113451904D01*
X110394047Y-113451904D02*
X110251190Y-113451904D01*
X110251190Y-113451904D02*
X110060714Y-113404285D01*
X110060714Y-113404285D02*
X109965476Y-113356666D01*
X109965476Y-113356666D02*
X109870238Y-113261428D01*
X109870238Y-113261428D02*
X109822619Y-113118571D01*
X109822619Y-113118571D02*
X109822619Y-113023333D01*
X109822619Y-113023333D02*
X109870238Y-112880476D01*
X109870238Y-112880476D02*
X109917857Y-112832857D01*
X110822619Y-111880476D02*
X110822619Y-112451904D01*
X110822619Y-112166190D02*
X109822619Y-112166190D01*
X109822619Y-112166190D02*
X109965476Y-112261428D01*
X109965476Y-112261428D02*
X110060714Y-112356666D01*
X110060714Y-112356666D02*
X110108333Y-112451904D01*
X109822619Y-111261428D02*
X109822619Y-111166190D01*
X109822619Y-111166190D02*
X109870238Y-111070952D01*
X109870238Y-111070952D02*
X109917857Y-111023333D01*
X109917857Y-111023333D02*
X110013095Y-110975714D01*
X110013095Y-110975714D02*
X110203571Y-110928095D01*
X110203571Y-110928095D02*
X110441666Y-110928095D01*
X110441666Y-110928095D02*
X110632142Y-110975714D01*
X110632142Y-110975714D02*
X110727380Y-111023333D01*
X110727380Y-111023333D02*
X110775000Y-111070952D01*
X110775000Y-111070952D02*
X110822619Y-111166190D01*
X110822619Y-111166190D02*
X110822619Y-111261428D01*
X110822619Y-111261428D02*
X110775000Y-111356666D01*
X110775000Y-111356666D02*
X110727380Y-111404285D01*
X110727380Y-111404285D02*
X110632142Y-111451904D01*
X110632142Y-111451904D02*
X110441666Y-111499523D01*
X110441666Y-111499523D02*
X110203571Y-111499523D01*
X110203571Y-111499523D02*
X110013095Y-111451904D01*
X110013095Y-111451904D02*
X109917857Y-111404285D01*
X109917857Y-111404285D02*
X109870238Y-111356666D01*
X109870238Y-111356666D02*
X109822619Y-111261428D01*
%TO.C,C11*%
X101767380Y-112802857D02*
X101815000Y-112850476D01*
X101815000Y-112850476D02*
X101862619Y-112993333D01*
X101862619Y-112993333D02*
X101862619Y-113088571D01*
X101862619Y-113088571D02*
X101815000Y-113231428D01*
X101815000Y-113231428D02*
X101719761Y-113326666D01*
X101719761Y-113326666D02*
X101624523Y-113374285D01*
X101624523Y-113374285D02*
X101434047Y-113421904D01*
X101434047Y-113421904D02*
X101291190Y-113421904D01*
X101291190Y-113421904D02*
X101100714Y-113374285D01*
X101100714Y-113374285D02*
X101005476Y-113326666D01*
X101005476Y-113326666D02*
X100910238Y-113231428D01*
X100910238Y-113231428D02*
X100862619Y-113088571D01*
X100862619Y-113088571D02*
X100862619Y-112993333D01*
X100862619Y-112993333D02*
X100910238Y-112850476D01*
X100910238Y-112850476D02*
X100957857Y-112802857D01*
X101862619Y-111850476D02*
X101862619Y-112421904D01*
X101862619Y-112136190D02*
X100862619Y-112136190D01*
X100862619Y-112136190D02*
X101005476Y-112231428D01*
X101005476Y-112231428D02*
X101100714Y-112326666D01*
X101100714Y-112326666D02*
X101148333Y-112421904D01*
X101862619Y-110898095D02*
X101862619Y-111469523D01*
X101862619Y-111183809D02*
X100862619Y-111183809D01*
X100862619Y-111183809D02*
X101005476Y-111279047D01*
X101005476Y-111279047D02*
X101100714Y-111374285D01*
X101100714Y-111374285D02*
X101148333Y-111469523D01*
D11*
%TO.C,R14*%
X89835010Y-74726571D02*
X89593105Y-74895905D01*
X89835010Y-75016857D02*
X89327010Y-75016857D01*
X89327010Y-75016857D02*
X89327010Y-74823333D01*
X89327010Y-74823333D02*
X89351200Y-74774952D01*
X89351200Y-74774952D02*
X89375391Y-74750762D01*
X89375391Y-74750762D02*
X89423772Y-74726571D01*
X89423772Y-74726571D02*
X89496343Y-74726571D01*
X89496343Y-74726571D02*
X89544724Y-74750762D01*
X89544724Y-74750762D02*
X89568915Y-74774952D01*
X89568915Y-74774952D02*
X89593105Y-74823333D01*
X89593105Y-74823333D02*
X89593105Y-75016857D01*
X89835010Y-74242762D02*
X89835010Y-74533048D01*
X89835010Y-74387905D02*
X89327010Y-74387905D01*
X89327010Y-74387905D02*
X89399581Y-74436286D01*
X89399581Y-74436286D02*
X89447962Y-74484667D01*
X89447962Y-74484667D02*
X89472153Y-74533048D01*
X89496343Y-73807333D02*
X89835010Y-73807333D01*
X89302820Y-73928285D02*
X89665677Y-74049238D01*
X89665677Y-74049238D02*
X89665677Y-73734761D01*
D10*
%TO.C,TP6*%
X80238095Y-115814619D02*
X80809523Y-115814619D01*
X80523809Y-116814619D02*
X80523809Y-115814619D01*
X81142857Y-116814619D02*
X81142857Y-115814619D01*
X81142857Y-115814619D02*
X81523809Y-115814619D01*
X81523809Y-115814619D02*
X81619047Y-115862238D01*
X81619047Y-115862238D02*
X81666666Y-115909857D01*
X81666666Y-115909857D02*
X81714285Y-116005095D01*
X81714285Y-116005095D02*
X81714285Y-116147952D01*
X81714285Y-116147952D02*
X81666666Y-116243190D01*
X81666666Y-116243190D02*
X81619047Y-116290809D01*
X81619047Y-116290809D02*
X81523809Y-116338428D01*
X81523809Y-116338428D02*
X81142857Y-116338428D01*
X82571428Y-115814619D02*
X82380952Y-115814619D01*
X82380952Y-115814619D02*
X82285714Y-115862238D01*
X82285714Y-115862238D02*
X82238095Y-115909857D01*
X82238095Y-115909857D02*
X82142857Y-116052714D01*
X82142857Y-116052714D02*
X82095238Y-116243190D01*
X82095238Y-116243190D02*
X82095238Y-116624142D01*
X82095238Y-116624142D02*
X82142857Y-116719380D01*
X82142857Y-116719380D02*
X82190476Y-116767000D01*
X82190476Y-116767000D02*
X82285714Y-116814619D01*
X82285714Y-116814619D02*
X82476190Y-116814619D01*
X82476190Y-116814619D02*
X82571428Y-116767000D01*
X82571428Y-116767000D02*
X82619047Y-116719380D01*
X82619047Y-116719380D02*
X82666666Y-116624142D01*
X82666666Y-116624142D02*
X82666666Y-116386047D01*
X82666666Y-116386047D02*
X82619047Y-116290809D01*
X82619047Y-116290809D02*
X82571428Y-116243190D01*
X82571428Y-116243190D02*
X82476190Y-116195571D01*
X82476190Y-116195571D02*
X82285714Y-116195571D01*
X82285714Y-116195571D02*
X82190476Y-116243190D01*
X82190476Y-116243190D02*
X82142857Y-116290809D01*
X82142857Y-116290809D02*
X82095238Y-116386047D01*
%TO.C,C14*%
X99567380Y-119532857D02*
X99615000Y-119580476D01*
X99615000Y-119580476D02*
X99662619Y-119723333D01*
X99662619Y-119723333D02*
X99662619Y-119818571D01*
X99662619Y-119818571D02*
X99615000Y-119961428D01*
X99615000Y-119961428D02*
X99519761Y-120056666D01*
X99519761Y-120056666D02*
X99424523Y-120104285D01*
X99424523Y-120104285D02*
X99234047Y-120151904D01*
X99234047Y-120151904D02*
X99091190Y-120151904D01*
X99091190Y-120151904D02*
X98900714Y-120104285D01*
X98900714Y-120104285D02*
X98805476Y-120056666D01*
X98805476Y-120056666D02*
X98710238Y-119961428D01*
X98710238Y-119961428D02*
X98662619Y-119818571D01*
X98662619Y-119818571D02*
X98662619Y-119723333D01*
X98662619Y-119723333D02*
X98710238Y-119580476D01*
X98710238Y-119580476D02*
X98757857Y-119532857D01*
X99662619Y-118580476D02*
X99662619Y-119151904D01*
X99662619Y-118866190D02*
X98662619Y-118866190D01*
X98662619Y-118866190D02*
X98805476Y-118961428D01*
X98805476Y-118961428D02*
X98900714Y-119056666D01*
X98900714Y-119056666D02*
X98948333Y-119151904D01*
X98995952Y-117723333D02*
X99662619Y-117723333D01*
X98615000Y-117961428D02*
X99329285Y-118199523D01*
X99329285Y-118199523D02*
X99329285Y-117580476D01*
%TO.C,C13*%
X105057142Y-109437380D02*
X105009523Y-109485000D01*
X105009523Y-109485000D02*
X104866666Y-109532619D01*
X104866666Y-109532619D02*
X104771428Y-109532619D01*
X104771428Y-109532619D02*
X104628571Y-109485000D01*
X104628571Y-109485000D02*
X104533333Y-109389761D01*
X104533333Y-109389761D02*
X104485714Y-109294523D01*
X104485714Y-109294523D02*
X104438095Y-109104047D01*
X104438095Y-109104047D02*
X104438095Y-108961190D01*
X104438095Y-108961190D02*
X104485714Y-108770714D01*
X104485714Y-108770714D02*
X104533333Y-108675476D01*
X104533333Y-108675476D02*
X104628571Y-108580238D01*
X104628571Y-108580238D02*
X104771428Y-108532619D01*
X104771428Y-108532619D02*
X104866666Y-108532619D01*
X104866666Y-108532619D02*
X105009523Y-108580238D01*
X105009523Y-108580238D02*
X105057142Y-108627857D01*
X106009523Y-109532619D02*
X105438095Y-109532619D01*
X105723809Y-109532619D02*
X105723809Y-108532619D01*
X105723809Y-108532619D02*
X105628571Y-108675476D01*
X105628571Y-108675476D02*
X105533333Y-108770714D01*
X105533333Y-108770714D02*
X105438095Y-108818333D01*
X106342857Y-108532619D02*
X106961904Y-108532619D01*
X106961904Y-108532619D02*
X106628571Y-108913571D01*
X106628571Y-108913571D02*
X106771428Y-108913571D01*
X106771428Y-108913571D02*
X106866666Y-108961190D01*
X106866666Y-108961190D02*
X106914285Y-109008809D01*
X106914285Y-109008809D02*
X106961904Y-109104047D01*
X106961904Y-109104047D02*
X106961904Y-109342142D01*
X106961904Y-109342142D02*
X106914285Y-109437380D01*
X106914285Y-109437380D02*
X106866666Y-109485000D01*
X106866666Y-109485000D02*
X106771428Y-109532619D01*
X106771428Y-109532619D02*
X106485714Y-109532619D01*
X106485714Y-109532619D02*
X106390476Y-109485000D01*
X106390476Y-109485000D02*
X106342857Y-109437380D01*
%TO.C,TP11*%
X85741905Y-135242619D02*
X86313333Y-135242619D01*
X86027619Y-136242619D02*
X86027619Y-135242619D01*
X86646667Y-136242619D02*
X86646667Y-135242619D01*
X86646667Y-135242619D02*
X87027619Y-135242619D01*
X87027619Y-135242619D02*
X87122857Y-135290238D01*
X87122857Y-135290238D02*
X87170476Y-135337857D01*
X87170476Y-135337857D02*
X87218095Y-135433095D01*
X87218095Y-135433095D02*
X87218095Y-135575952D01*
X87218095Y-135575952D02*
X87170476Y-135671190D01*
X87170476Y-135671190D02*
X87122857Y-135718809D01*
X87122857Y-135718809D02*
X87027619Y-135766428D01*
X87027619Y-135766428D02*
X86646667Y-135766428D01*
X88170476Y-136242619D02*
X87599048Y-136242619D01*
X87884762Y-136242619D02*
X87884762Y-135242619D01*
X87884762Y-135242619D02*
X87789524Y-135385476D01*
X87789524Y-135385476D02*
X87694286Y-135480714D01*
X87694286Y-135480714D02*
X87599048Y-135528333D01*
X89122857Y-136242619D02*
X88551429Y-136242619D01*
X88837143Y-136242619D02*
X88837143Y-135242619D01*
X88837143Y-135242619D02*
X88741905Y-135385476D01*
X88741905Y-135385476D02*
X88646667Y-135480714D01*
X88646667Y-135480714D02*
X88551429Y-135528333D01*
%TO.C,Q2*%
X100504761Y-92957857D02*
X100409523Y-92910238D01*
X100409523Y-92910238D02*
X100314285Y-92815000D01*
X100314285Y-92815000D02*
X100171428Y-92672142D01*
X100171428Y-92672142D02*
X100076190Y-92624523D01*
X100076190Y-92624523D02*
X99980952Y-92624523D01*
X100028571Y-92862619D02*
X99933333Y-92815000D01*
X99933333Y-92815000D02*
X99838095Y-92719761D01*
X99838095Y-92719761D02*
X99790476Y-92529285D01*
X99790476Y-92529285D02*
X99790476Y-92195952D01*
X99790476Y-92195952D02*
X99838095Y-92005476D01*
X99838095Y-92005476D02*
X99933333Y-91910238D01*
X99933333Y-91910238D02*
X100028571Y-91862619D01*
X100028571Y-91862619D02*
X100219047Y-91862619D01*
X100219047Y-91862619D02*
X100314285Y-91910238D01*
X100314285Y-91910238D02*
X100409523Y-92005476D01*
X100409523Y-92005476D02*
X100457142Y-92195952D01*
X100457142Y-92195952D02*
X100457142Y-92529285D01*
X100457142Y-92529285D02*
X100409523Y-92719761D01*
X100409523Y-92719761D02*
X100314285Y-92815000D01*
X100314285Y-92815000D02*
X100219047Y-92862619D01*
X100219047Y-92862619D02*
X100028571Y-92862619D01*
X100838095Y-91957857D02*
X100885714Y-91910238D01*
X100885714Y-91910238D02*
X100980952Y-91862619D01*
X100980952Y-91862619D02*
X101219047Y-91862619D01*
X101219047Y-91862619D02*
X101314285Y-91910238D01*
X101314285Y-91910238D02*
X101361904Y-91957857D01*
X101361904Y-91957857D02*
X101409523Y-92053095D01*
X101409523Y-92053095D02*
X101409523Y-92148333D01*
X101409523Y-92148333D02*
X101361904Y-92291190D01*
X101361904Y-92291190D02*
X100790476Y-92862619D01*
X100790476Y-92862619D02*
X101409523Y-92862619D01*
%TO.C,TP1*%
X90808095Y-115769619D02*
X91379523Y-115769619D01*
X91093809Y-116769619D02*
X91093809Y-115769619D01*
X91712857Y-116769619D02*
X91712857Y-115769619D01*
X91712857Y-115769619D02*
X92093809Y-115769619D01*
X92093809Y-115769619D02*
X92189047Y-115817238D01*
X92189047Y-115817238D02*
X92236666Y-115864857D01*
X92236666Y-115864857D02*
X92284285Y-115960095D01*
X92284285Y-115960095D02*
X92284285Y-116102952D01*
X92284285Y-116102952D02*
X92236666Y-116198190D01*
X92236666Y-116198190D02*
X92189047Y-116245809D01*
X92189047Y-116245809D02*
X92093809Y-116293428D01*
X92093809Y-116293428D02*
X91712857Y-116293428D01*
X93236666Y-116769619D02*
X92665238Y-116769619D01*
X92950952Y-116769619D02*
X92950952Y-115769619D01*
X92950952Y-115769619D02*
X92855714Y-115912476D01*
X92855714Y-115912476D02*
X92760476Y-116007714D01*
X92760476Y-116007714D02*
X92665238Y-116055333D01*
%TO.C,C33*%
X84677380Y-131752857D02*
X84725000Y-131800476D01*
X84725000Y-131800476D02*
X84772619Y-131943333D01*
X84772619Y-131943333D02*
X84772619Y-132038571D01*
X84772619Y-132038571D02*
X84725000Y-132181428D01*
X84725000Y-132181428D02*
X84629761Y-132276666D01*
X84629761Y-132276666D02*
X84534523Y-132324285D01*
X84534523Y-132324285D02*
X84344047Y-132371904D01*
X84344047Y-132371904D02*
X84201190Y-132371904D01*
X84201190Y-132371904D02*
X84010714Y-132324285D01*
X84010714Y-132324285D02*
X83915476Y-132276666D01*
X83915476Y-132276666D02*
X83820238Y-132181428D01*
X83820238Y-132181428D02*
X83772619Y-132038571D01*
X83772619Y-132038571D02*
X83772619Y-131943333D01*
X83772619Y-131943333D02*
X83820238Y-131800476D01*
X83820238Y-131800476D02*
X83867857Y-131752857D01*
X83772619Y-131419523D02*
X83772619Y-130800476D01*
X83772619Y-130800476D02*
X84153571Y-131133809D01*
X84153571Y-131133809D02*
X84153571Y-130990952D01*
X84153571Y-130990952D02*
X84201190Y-130895714D01*
X84201190Y-130895714D02*
X84248809Y-130848095D01*
X84248809Y-130848095D02*
X84344047Y-130800476D01*
X84344047Y-130800476D02*
X84582142Y-130800476D01*
X84582142Y-130800476D02*
X84677380Y-130848095D01*
X84677380Y-130848095D02*
X84725000Y-130895714D01*
X84725000Y-130895714D02*
X84772619Y-130990952D01*
X84772619Y-130990952D02*
X84772619Y-131276666D01*
X84772619Y-131276666D02*
X84725000Y-131371904D01*
X84725000Y-131371904D02*
X84677380Y-131419523D01*
X83772619Y-130467142D02*
X83772619Y-129848095D01*
X83772619Y-129848095D02*
X84153571Y-130181428D01*
X84153571Y-130181428D02*
X84153571Y-130038571D01*
X84153571Y-130038571D02*
X84201190Y-129943333D01*
X84201190Y-129943333D02*
X84248809Y-129895714D01*
X84248809Y-129895714D02*
X84344047Y-129848095D01*
X84344047Y-129848095D02*
X84582142Y-129848095D01*
X84582142Y-129848095D02*
X84677380Y-129895714D01*
X84677380Y-129895714D02*
X84725000Y-129943333D01*
X84725000Y-129943333D02*
X84772619Y-130038571D01*
X84772619Y-130038571D02*
X84772619Y-130324285D01*
X84772619Y-130324285D02*
X84725000Y-130419523D01*
X84725000Y-130419523D02*
X84677380Y-130467142D01*
%TO.C,R2*%
X95993333Y-140312619D02*
X95660000Y-139836428D01*
X95421905Y-140312619D02*
X95421905Y-139312619D01*
X95421905Y-139312619D02*
X95802857Y-139312619D01*
X95802857Y-139312619D02*
X95898095Y-139360238D01*
X95898095Y-139360238D02*
X95945714Y-139407857D01*
X95945714Y-139407857D02*
X95993333Y-139503095D01*
X95993333Y-139503095D02*
X95993333Y-139645952D01*
X95993333Y-139645952D02*
X95945714Y-139741190D01*
X95945714Y-139741190D02*
X95898095Y-139788809D01*
X95898095Y-139788809D02*
X95802857Y-139836428D01*
X95802857Y-139836428D02*
X95421905Y-139836428D01*
X96374286Y-139407857D02*
X96421905Y-139360238D01*
X96421905Y-139360238D02*
X96517143Y-139312619D01*
X96517143Y-139312619D02*
X96755238Y-139312619D01*
X96755238Y-139312619D02*
X96850476Y-139360238D01*
X96850476Y-139360238D02*
X96898095Y-139407857D01*
X96898095Y-139407857D02*
X96945714Y-139503095D01*
X96945714Y-139503095D02*
X96945714Y-139598333D01*
X96945714Y-139598333D02*
X96898095Y-139741190D01*
X96898095Y-139741190D02*
X96326667Y-140312619D01*
X96326667Y-140312619D02*
X96945714Y-140312619D01*
%TO.C,TP3*%
X113952619Y-138191904D02*
X113952619Y-137620476D01*
X114952619Y-137906190D02*
X113952619Y-137906190D01*
X114952619Y-137287142D02*
X113952619Y-137287142D01*
X113952619Y-137287142D02*
X113952619Y-136906190D01*
X113952619Y-136906190D02*
X114000238Y-136810952D01*
X114000238Y-136810952D02*
X114047857Y-136763333D01*
X114047857Y-136763333D02*
X114143095Y-136715714D01*
X114143095Y-136715714D02*
X114285952Y-136715714D01*
X114285952Y-136715714D02*
X114381190Y-136763333D01*
X114381190Y-136763333D02*
X114428809Y-136810952D01*
X114428809Y-136810952D02*
X114476428Y-136906190D01*
X114476428Y-136906190D02*
X114476428Y-137287142D01*
X113952619Y-136382380D02*
X113952619Y-135763333D01*
X113952619Y-135763333D02*
X114333571Y-136096666D01*
X114333571Y-136096666D02*
X114333571Y-135953809D01*
X114333571Y-135953809D02*
X114381190Y-135858571D01*
X114381190Y-135858571D02*
X114428809Y-135810952D01*
X114428809Y-135810952D02*
X114524047Y-135763333D01*
X114524047Y-135763333D02*
X114762142Y-135763333D01*
X114762142Y-135763333D02*
X114857380Y-135810952D01*
X114857380Y-135810952D02*
X114905000Y-135858571D01*
X114905000Y-135858571D02*
X114952619Y-135953809D01*
X114952619Y-135953809D02*
X114952619Y-136239523D01*
X114952619Y-136239523D02*
X114905000Y-136334761D01*
X114905000Y-136334761D02*
X114857380Y-136382380D01*
%TO.C,TP41*%
X89061905Y-107199619D02*
X89633333Y-107199619D01*
X89347619Y-108199619D02*
X89347619Y-107199619D01*
X89966667Y-108199619D02*
X89966667Y-107199619D01*
X89966667Y-107199619D02*
X90347619Y-107199619D01*
X90347619Y-107199619D02*
X90442857Y-107247238D01*
X90442857Y-107247238D02*
X90490476Y-107294857D01*
X90490476Y-107294857D02*
X90538095Y-107390095D01*
X90538095Y-107390095D02*
X90538095Y-107532952D01*
X90538095Y-107532952D02*
X90490476Y-107628190D01*
X90490476Y-107628190D02*
X90442857Y-107675809D01*
X90442857Y-107675809D02*
X90347619Y-107723428D01*
X90347619Y-107723428D02*
X89966667Y-107723428D01*
X91395238Y-107532952D02*
X91395238Y-108199619D01*
X91157143Y-107152000D02*
X90919048Y-107866285D01*
X90919048Y-107866285D02*
X91538095Y-107866285D01*
X92442857Y-108199619D02*
X91871429Y-108199619D01*
X92157143Y-108199619D02*
X92157143Y-107199619D01*
X92157143Y-107199619D02*
X92061905Y-107342476D01*
X92061905Y-107342476D02*
X91966667Y-107437714D01*
X91966667Y-107437714D02*
X91871429Y-107485333D01*
%TO.C,TP38*%
X82361905Y-114092619D02*
X82933333Y-114092619D01*
X82647619Y-115092619D02*
X82647619Y-114092619D01*
X83266667Y-115092619D02*
X83266667Y-114092619D01*
X83266667Y-114092619D02*
X83647619Y-114092619D01*
X83647619Y-114092619D02*
X83742857Y-114140238D01*
X83742857Y-114140238D02*
X83790476Y-114187857D01*
X83790476Y-114187857D02*
X83838095Y-114283095D01*
X83838095Y-114283095D02*
X83838095Y-114425952D01*
X83838095Y-114425952D02*
X83790476Y-114521190D01*
X83790476Y-114521190D02*
X83742857Y-114568809D01*
X83742857Y-114568809D02*
X83647619Y-114616428D01*
X83647619Y-114616428D02*
X83266667Y-114616428D01*
X84171429Y-114092619D02*
X84790476Y-114092619D01*
X84790476Y-114092619D02*
X84457143Y-114473571D01*
X84457143Y-114473571D02*
X84600000Y-114473571D01*
X84600000Y-114473571D02*
X84695238Y-114521190D01*
X84695238Y-114521190D02*
X84742857Y-114568809D01*
X84742857Y-114568809D02*
X84790476Y-114664047D01*
X84790476Y-114664047D02*
X84790476Y-114902142D01*
X84790476Y-114902142D02*
X84742857Y-114997380D01*
X84742857Y-114997380D02*
X84695238Y-115045000D01*
X84695238Y-115045000D02*
X84600000Y-115092619D01*
X84600000Y-115092619D02*
X84314286Y-115092619D01*
X84314286Y-115092619D02*
X84219048Y-115045000D01*
X84219048Y-115045000D02*
X84171429Y-114997380D01*
X85361905Y-114521190D02*
X85266667Y-114473571D01*
X85266667Y-114473571D02*
X85219048Y-114425952D01*
X85219048Y-114425952D02*
X85171429Y-114330714D01*
X85171429Y-114330714D02*
X85171429Y-114283095D01*
X85171429Y-114283095D02*
X85219048Y-114187857D01*
X85219048Y-114187857D02*
X85266667Y-114140238D01*
X85266667Y-114140238D02*
X85361905Y-114092619D01*
X85361905Y-114092619D02*
X85552381Y-114092619D01*
X85552381Y-114092619D02*
X85647619Y-114140238D01*
X85647619Y-114140238D02*
X85695238Y-114187857D01*
X85695238Y-114187857D02*
X85742857Y-114283095D01*
X85742857Y-114283095D02*
X85742857Y-114330714D01*
X85742857Y-114330714D02*
X85695238Y-114425952D01*
X85695238Y-114425952D02*
X85647619Y-114473571D01*
X85647619Y-114473571D02*
X85552381Y-114521190D01*
X85552381Y-114521190D02*
X85361905Y-114521190D01*
X85361905Y-114521190D02*
X85266667Y-114568809D01*
X85266667Y-114568809D02*
X85219048Y-114616428D01*
X85219048Y-114616428D02*
X85171429Y-114711666D01*
X85171429Y-114711666D02*
X85171429Y-114902142D01*
X85171429Y-114902142D02*
X85219048Y-114997380D01*
X85219048Y-114997380D02*
X85266667Y-115045000D01*
X85266667Y-115045000D02*
X85361905Y-115092619D01*
X85361905Y-115092619D02*
X85552381Y-115092619D01*
X85552381Y-115092619D02*
X85647619Y-115045000D01*
X85647619Y-115045000D02*
X85695238Y-114997380D01*
X85695238Y-114997380D02*
X85742857Y-114902142D01*
X85742857Y-114902142D02*
X85742857Y-114711666D01*
X85742857Y-114711666D02*
X85695238Y-114616428D01*
X85695238Y-114616428D02*
X85647619Y-114568809D01*
X85647619Y-114568809D02*
X85552381Y-114521190D01*
%TO.C,TP44*%
X90721905Y-118699619D02*
X91293333Y-118699619D01*
X91007619Y-119699619D02*
X91007619Y-118699619D01*
X91626667Y-119699619D02*
X91626667Y-118699619D01*
X91626667Y-118699619D02*
X92007619Y-118699619D01*
X92007619Y-118699619D02*
X92102857Y-118747238D01*
X92102857Y-118747238D02*
X92150476Y-118794857D01*
X92150476Y-118794857D02*
X92198095Y-118890095D01*
X92198095Y-118890095D02*
X92198095Y-119032952D01*
X92198095Y-119032952D02*
X92150476Y-119128190D01*
X92150476Y-119128190D02*
X92102857Y-119175809D01*
X92102857Y-119175809D02*
X92007619Y-119223428D01*
X92007619Y-119223428D02*
X91626667Y-119223428D01*
X93055238Y-119032952D02*
X93055238Y-119699619D01*
X92817143Y-118652000D02*
X92579048Y-119366285D01*
X92579048Y-119366285D02*
X93198095Y-119366285D01*
X94007619Y-119032952D02*
X94007619Y-119699619D01*
X93769524Y-118652000D02*
X93531429Y-119366285D01*
X93531429Y-119366285D02*
X94150476Y-119366285D01*
%TO.C,C44*%
X86447142Y-100407380D02*
X86399523Y-100455000D01*
X86399523Y-100455000D02*
X86256666Y-100502619D01*
X86256666Y-100502619D02*
X86161428Y-100502619D01*
X86161428Y-100502619D02*
X86018571Y-100455000D01*
X86018571Y-100455000D02*
X85923333Y-100359761D01*
X85923333Y-100359761D02*
X85875714Y-100264523D01*
X85875714Y-100264523D02*
X85828095Y-100074047D01*
X85828095Y-100074047D02*
X85828095Y-99931190D01*
X85828095Y-99931190D02*
X85875714Y-99740714D01*
X85875714Y-99740714D02*
X85923333Y-99645476D01*
X85923333Y-99645476D02*
X86018571Y-99550238D01*
X86018571Y-99550238D02*
X86161428Y-99502619D01*
X86161428Y-99502619D02*
X86256666Y-99502619D01*
X86256666Y-99502619D02*
X86399523Y-99550238D01*
X86399523Y-99550238D02*
X86447142Y-99597857D01*
X87304285Y-99835952D02*
X87304285Y-100502619D01*
X87066190Y-99455000D02*
X86828095Y-100169285D01*
X86828095Y-100169285D02*
X87447142Y-100169285D01*
X88256666Y-99835952D02*
X88256666Y-100502619D01*
X88018571Y-99455000D02*
X87780476Y-100169285D01*
X87780476Y-100169285D02*
X88399523Y-100169285D01*
%TO.C,U9*%
X95038095Y-77662619D02*
X95038095Y-78472142D01*
X95038095Y-78472142D02*
X95085714Y-78567380D01*
X95085714Y-78567380D02*
X95133333Y-78615000D01*
X95133333Y-78615000D02*
X95228571Y-78662619D01*
X95228571Y-78662619D02*
X95419047Y-78662619D01*
X95419047Y-78662619D02*
X95514285Y-78615000D01*
X95514285Y-78615000D02*
X95561904Y-78567380D01*
X95561904Y-78567380D02*
X95609523Y-78472142D01*
X95609523Y-78472142D02*
X95609523Y-77662619D01*
X96133333Y-78662619D02*
X96323809Y-78662619D01*
X96323809Y-78662619D02*
X96419047Y-78615000D01*
X96419047Y-78615000D02*
X96466666Y-78567380D01*
X96466666Y-78567380D02*
X96561904Y-78424523D01*
X96561904Y-78424523D02*
X96609523Y-78234047D01*
X96609523Y-78234047D02*
X96609523Y-77853095D01*
X96609523Y-77853095D02*
X96561904Y-77757857D01*
X96561904Y-77757857D02*
X96514285Y-77710238D01*
X96514285Y-77710238D02*
X96419047Y-77662619D01*
X96419047Y-77662619D02*
X96228571Y-77662619D01*
X96228571Y-77662619D02*
X96133333Y-77710238D01*
X96133333Y-77710238D02*
X96085714Y-77757857D01*
X96085714Y-77757857D02*
X96038095Y-77853095D01*
X96038095Y-77853095D02*
X96038095Y-78091190D01*
X96038095Y-78091190D02*
X96085714Y-78186428D01*
X96085714Y-78186428D02*
X96133333Y-78234047D01*
X96133333Y-78234047D02*
X96228571Y-78281666D01*
X96228571Y-78281666D02*
X96419047Y-78281666D01*
X96419047Y-78281666D02*
X96514285Y-78234047D01*
X96514285Y-78234047D02*
X96561904Y-78186428D01*
X96561904Y-78186428D02*
X96609523Y-78091190D01*
%TO.C,TP34*%
X114761905Y-89462619D02*
X115333333Y-89462619D01*
X115047619Y-90462619D02*
X115047619Y-89462619D01*
X115666667Y-90462619D02*
X115666667Y-89462619D01*
X115666667Y-89462619D02*
X116047619Y-89462619D01*
X116047619Y-89462619D02*
X116142857Y-89510238D01*
X116142857Y-89510238D02*
X116190476Y-89557857D01*
X116190476Y-89557857D02*
X116238095Y-89653095D01*
X116238095Y-89653095D02*
X116238095Y-89795952D01*
X116238095Y-89795952D02*
X116190476Y-89891190D01*
X116190476Y-89891190D02*
X116142857Y-89938809D01*
X116142857Y-89938809D02*
X116047619Y-89986428D01*
X116047619Y-89986428D02*
X115666667Y-89986428D01*
X116571429Y-89462619D02*
X117190476Y-89462619D01*
X117190476Y-89462619D02*
X116857143Y-89843571D01*
X116857143Y-89843571D02*
X117000000Y-89843571D01*
X117000000Y-89843571D02*
X117095238Y-89891190D01*
X117095238Y-89891190D02*
X117142857Y-89938809D01*
X117142857Y-89938809D02*
X117190476Y-90034047D01*
X117190476Y-90034047D02*
X117190476Y-90272142D01*
X117190476Y-90272142D02*
X117142857Y-90367380D01*
X117142857Y-90367380D02*
X117095238Y-90415000D01*
X117095238Y-90415000D02*
X117000000Y-90462619D01*
X117000000Y-90462619D02*
X116714286Y-90462619D01*
X116714286Y-90462619D02*
X116619048Y-90415000D01*
X116619048Y-90415000D02*
X116571429Y-90367380D01*
X118047619Y-89795952D02*
X118047619Y-90462619D01*
X117809524Y-89415000D02*
X117571429Y-90129285D01*
X117571429Y-90129285D02*
X118190476Y-90129285D01*
%TO.C,C22*%
X93060142Y-133635380D02*
X93012523Y-133683000D01*
X93012523Y-133683000D02*
X92869666Y-133730619D01*
X92869666Y-133730619D02*
X92774428Y-133730619D01*
X92774428Y-133730619D02*
X92631571Y-133683000D01*
X92631571Y-133683000D02*
X92536333Y-133587761D01*
X92536333Y-133587761D02*
X92488714Y-133492523D01*
X92488714Y-133492523D02*
X92441095Y-133302047D01*
X92441095Y-133302047D02*
X92441095Y-133159190D01*
X92441095Y-133159190D02*
X92488714Y-132968714D01*
X92488714Y-132968714D02*
X92536333Y-132873476D01*
X92536333Y-132873476D02*
X92631571Y-132778238D01*
X92631571Y-132778238D02*
X92774428Y-132730619D01*
X92774428Y-132730619D02*
X92869666Y-132730619D01*
X92869666Y-132730619D02*
X93012523Y-132778238D01*
X93012523Y-132778238D02*
X93060142Y-132825857D01*
X93441095Y-132825857D02*
X93488714Y-132778238D01*
X93488714Y-132778238D02*
X93583952Y-132730619D01*
X93583952Y-132730619D02*
X93822047Y-132730619D01*
X93822047Y-132730619D02*
X93917285Y-132778238D01*
X93917285Y-132778238D02*
X93964904Y-132825857D01*
X93964904Y-132825857D02*
X94012523Y-132921095D01*
X94012523Y-132921095D02*
X94012523Y-133016333D01*
X94012523Y-133016333D02*
X93964904Y-133159190D01*
X93964904Y-133159190D02*
X93393476Y-133730619D01*
X93393476Y-133730619D02*
X94012523Y-133730619D01*
X94393476Y-132825857D02*
X94441095Y-132778238D01*
X94441095Y-132778238D02*
X94536333Y-132730619D01*
X94536333Y-132730619D02*
X94774428Y-132730619D01*
X94774428Y-132730619D02*
X94869666Y-132778238D01*
X94869666Y-132778238D02*
X94917285Y-132825857D01*
X94917285Y-132825857D02*
X94964904Y-132921095D01*
X94964904Y-132921095D02*
X94964904Y-133016333D01*
X94964904Y-133016333D02*
X94917285Y-133159190D01*
X94917285Y-133159190D02*
X94345857Y-133730619D01*
X94345857Y-133730619D02*
X94964904Y-133730619D01*
%TO.C,TP39*%
X90791905Y-112739619D02*
X91363333Y-112739619D01*
X91077619Y-113739619D02*
X91077619Y-112739619D01*
X91696667Y-113739619D02*
X91696667Y-112739619D01*
X91696667Y-112739619D02*
X92077619Y-112739619D01*
X92077619Y-112739619D02*
X92172857Y-112787238D01*
X92172857Y-112787238D02*
X92220476Y-112834857D01*
X92220476Y-112834857D02*
X92268095Y-112930095D01*
X92268095Y-112930095D02*
X92268095Y-113072952D01*
X92268095Y-113072952D02*
X92220476Y-113168190D01*
X92220476Y-113168190D02*
X92172857Y-113215809D01*
X92172857Y-113215809D02*
X92077619Y-113263428D01*
X92077619Y-113263428D02*
X91696667Y-113263428D01*
X92601429Y-112739619D02*
X93220476Y-112739619D01*
X93220476Y-112739619D02*
X92887143Y-113120571D01*
X92887143Y-113120571D02*
X93030000Y-113120571D01*
X93030000Y-113120571D02*
X93125238Y-113168190D01*
X93125238Y-113168190D02*
X93172857Y-113215809D01*
X93172857Y-113215809D02*
X93220476Y-113311047D01*
X93220476Y-113311047D02*
X93220476Y-113549142D01*
X93220476Y-113549142D02*
X93172857Y-113644380D01*
X93172857Y-113644380D02*
X93125238Y-113692000D01*
X93125238Y-113692000D02*
X93030000Y-113739619D01*
X93030000Y-113739619D02*
X92744286Y-113739619D01*
X92744286Y-113739619D02*
X92649048Y-113692000D01*
X92649048Y-113692000D02*
X92601429Y-113644380D01*
X93696667Y-113739619D02*
X93887143Y-113739619D01*
X93887143Y-113739619D02*
X93982381Y-113692000D01*
X93982381Y-113692000D02*
X94030000Y-113644380D01*
X94030000Y-113644380D02*
X94125238Y-113501523D01*
X94125238Y-113501523D02*
X94172857Y-113311047D01*
X94172857Y-113311047D02*
X94172857Y-112930095D01*
X94172857Y-112930095D02*
X94125238Y-112834857D01*
X94125238Y-112834857D02*
X94077619Y-112787238D01*
X94077619Y-112787238D02*
X93982381Y-112739619D01*
X93982381Y-112739619D02*
X93791905Y-112739619D01*
X93791905Y-112739619D02*
X93696667Y-112787238D01*
X93696667Y-112787238D02*
X93649048Y-112834857D01*
X93649048Y-112834857D02*
X93601429Y-112930095D01*
X93601429Y-112930095D02*
X93601429Y-113168190D01*
X93601429Y-113168190D02*
X93649048Y-113263428D01*
X93649048Y-113263428D02*
X93696667Y-113311047D01*
X93696667Y-113311047D02*
X93791905Y-113358666D01*
X93791905Y-113358666D02*
X93982381Y-113358666D01*
X93982381Y-113358666D02*
X94077619Y-113311047D01*
X94077619Y-113311047D02*
X94125238Y-113263428D01*
X94125238Y-113263428D02*
X94172857Y-113168190D01*
%TO.C,C6*%
X114763333Y-106117380D02*
X114715714Y-106165000D01*
X114715714Y-106165000D02*
X114572857Y-106212619D01*
X114572857Y-106212619D02*
X114477619Y-106212619D01*
X114477619Y-106212619D02*
X114334762Y-106165000D01*
X114334762Y-106165000D02*
X114239524Y-106069761D01*
X114239524Y-106069761D02*
X114191905Y-105974523D01*
X114191905Y-105974523D02*
X114144286Y-105784047D01*
X114144286Y-105784047D02*
X114144286Y-105641190D01*
X114144286Y-105641190D02*
X114191905Y-105450714D01*
X114191905Y-105450714D02*
X114239524Y-105355476D01*
X114239524Y-105355476D02*
X114334762Y-105260238D01*
X114334762Y-105260238D02*
X114477619Y-105212619D01*
X114477619Y-105212619D02*
X114572857Y-105212619D01*
X114572857Y-105212619D02*
X114715714Y-105260238D01*
X114715714Y-105260238D02*
X114763333Y-105307857D01*
X115620476Y-105212619D02*
X115430000Y-105212619D01*
X115430000Y-105212619D02*
X115334762Y-105260238D01*
X115334762Y-105260238D02*
X115287143Y-105307857D01*
X115287143Y-105307857D02*
X115191905Y-105450714D01*
X115191905Y-105450714D02*
X115144286Y-105641190D01*
X115144286Y-105641190D02*
X115144286Y-106022142D01*
X115144286Y-106022142D02*
X115191905Y-106117380D01*
X115191905Y-106117380D02*
X115239524Y-106165000D01*
X115239524Y-106165000D02*
X115334762Y-106212619D01*
X115334762Y-106212619D02*
X115525238Y-106212619D01*
X115525238Y-106212619D02*
X115620476Y-106165000D01*
X115620476Y-106165000D02*
X115668095Y-106117380D01*
X115668095Y-106117380D02*
X115715714Y-106022142D01*
X115715714Y-106022142D02*
X115715714Y-105784047D01*
X115715714Y-105784047D02*
X115668095Y-105688809D01*
X115668095Y-105688809D02*
X115620476Y-105641190D01*
X115620476Y-105641190D02*
X115525238Y-105593571D01*
X115525238Y-105593571D02*
X115334762Y-105593571D01*
X115334762Y-105593571D02*
X115239524Y-105641190D01*
X115239524Y-105641190D02*
X115191905Y-105688809D01*
X115191905Y-105688809D02*
X115144286Y-105784047D01*
%TO.C,C46*%
X99816780Y-98571457D02*
X99864400Y-98619076D01*
X99864400Y-98619076D02*
X99912019Y-98761933D01*
X99912019Y-98761933D02*
X99912019Y-98857171D01*
X99912019Y-98857171D02*
X99864400Y-99000028D01*
X99864400Y-99000028D02*
X99769161Y-99095266D01*
X99769161Y-99095266D02*
X99673923Y-99142885D01*
X99673923Y-99142885D02*
X99483447Y-99190504D01*
X99483447Y-99190504D02*
X99340590Y-99190504D01*
X99340590Y-99190504D02*
X99150114Y-99142885D01*
X99150114Y-99142885D02*
X99054876Y-99095266D01*
X99054876Y-99095266D02*
X98959638Y-99000028D01*
X98959638Y-99000028D02*
X98912019Y-98857171D01*
X98912019Y-98857171D02*
X98912019Y-98761933D01*
X98912019Y-98761933D02*
X98959638Y-98619076D01*
X98959638Y-98619076D02*
X99007257Y-98571457D01*
X99245352Y-97714314D02*
X99912019Y-97714314D01*
X98864400Y-97952409D02*
X99578685Y-98190504D01*
X99578685Y-98190504D02*
X99578685Y-97571457D01*
X98912019Y-96761933D02*
X98912019Y-96952409D01*
X98912019Y-96952409D02*
X98959638Y-97047647D01*
X98959638Y-97047647D02*
X99007257Y-97095266D01*
X99007257Y-97095266D02*
X99150114Y-97190504D01*
X99150114Y-97190504D02*
X99340590Y-97238123D01*
X99340590Y-97238123D02*
X99721542Y-97238123D01*
X99721542Y-97238123D02*
X99816780Y-97190504D01*
X99816780Y-97190504D02*
X99864400Y-97142885D01*
X99864400Y-97142885D02*
X99912019Y-97047647D01*
X99912019Y-97047647D02*
X99912019Y-96857171D01*
X99912019Y-96857171D02*
X99864400Y-96761933D01*
X99864400Y-96761933D02*
X99816780Y-96714314D01*
X99816780Y-96714314D02*
X99721542Y-96666695D01*
X99721542Y-96666695D02*
X99483447Y-96666695D01*
X99483447Y-96666695D02*
X99388209Y-96714314D01*
X99388209Y-96714314D02*
X99340590Y-96761933D01*
X99340590Y-96761933D02*
X99292971Y-96857171D01*
X99292971Y-96857171D02*
X99292971Y-97047647D01*
X99292971Y-97047647D02*
X99340590Y-97142885D01*
X99340590Y-97142885D02*
X99388209Y-97190504D01*
X99388209Y-97190504D02*
X99483447Y-97238123D01*
X104701951Y-95717133D02*
X103940047Y-95717133D01*
X104320999Y-95336180D02*
X104320999Y-96098085D01*
%TO.C,Q1*%
X90084161Y-92906457D02*
X89988923Y-92858838D01*
X89988923Y-92858838D02*
X89893685Y-92763600D01*
X89893685Y-92763600D02*
X89750828Y-92620742D01*
X89750828Y-92620742D02*
X89655590Y-92573123D01*
X89655590Y-92573123D02*
X89560352Y-92573123D01*
X89607971Y-92811219D02*
X89512733Y-92763600D01*
X89512733Y-92763600D02*
X89417495Y-92668361D01*
X89417495Y-92668361D02*
X89369876Y-92477885D01*
X89369876Y-92477885D02*
X89369876Y-92144552D01*
X89369876Y-92144552D02*
X89417495Y-91954076D01*
X89417495Y-91954076D02*
X89512733Y-91858838D01*
X89512733Y-91858838D02*
X89607971Y-91811219D01*
X89607971Y-91811219D02*
X89798447Y-91811219D01*
X89798447Y-91811219D02*
X89893685Y-91858838D01*
X89893685Y-91858838D02*
X89988923Y-91954076D01*
X89988923Y-91954076D02*
X90036542Y-92144552D01*
X90036542Y-92144552D02*
X90036542Y-92477885D01*
X90036542Y-92477885D02*
X89988923Y-92668361D01*
X89988923Y-92668361D02*
X89893685Y-92763600D01*
X89893685Y-92763600D02*
X89798447Y-92811219D01*
X89798447Y-92811219D02*
X89607971Y-92811219D01*
X90988923Y-92811219D02*
X90417495Y-92811219D01*
X90703209Y-92811219D02*
X90703209Y-91811219D01*
X90703209Y-91811219D02*
X90607971Y-91954076D01*
X90607971Y-91954076D02*
X90512733Y-92049314D01*
X90512733Y-92049314D02*
X90417495Y-92096933D01*
%TO.C,R17*%
X79157142Y-104262619D02*
X78823809Y-103786428D01*
X78585714Y-104262619D02*
X78585714Y-103262619D01*
X78585714Y-103262619D02*
X78966666Y-103262619D01*
X78966666Y-103262619D02*
X79061904Y-103310238D01*
X79061904Y-103310238D02*
X79109523Y-103357857D01*
X79109523Y-103357857D02*
X79157142Y-103453095D01*
X79157142Y-103453095D02*
X79157142Y-103595952D01*
X79157142Y-103595952D02*
X79109523Y-103691190D01*
X79109523Y-103691190D02*
X79061904Y-103738809D01*
X79061904Y-103738809D02*
X78966666Y-103786428D01*
X78966666Y-103786428D02*
X78585714Y-103786428D01*
X80109523Y-104262619D02*
X79538095Y-104262619D01*
X79823809Y-104262619D02*
X79823809Y-103262619D01*
X79823809Y-103262619D02*
X79728571Y-103405476D01*
X79728571Y-103405476D02*
X79633333Y-103500714D01*
X79633333Y-103500714D02*
X79538095Y-103548333D01*
X80442857Y-103262619D02*
X81109523Y-103262619D01*
X81109523Y-103262619D02*
X80680952Y-104262619D01*
%TO.C,C42*%
X95757142Y-84167380D02*
X95709523Y-84215000D01*
X95709523Y-84215000D02*
X95566666Y-84262619D01*
X95566666Y-84262619D02*
X95471428Y-84262619D01*
X95471428Y-84262619D02*
X95328571Y-84215000D01*
X95328571Y-84215000D02*
X95233333Y-84119761D01*
X95233333Y-84119761D02*
X95185714Y-84024523D01*
X95185714Y-84024523D02*
X95138095Y-83834047D01*
X95138095Y-83834047D02*
X95138095Y-83691190D01*
X95138095Y-83691190D02*
X95185714Y-83500714D01*
X95185714Y-83500714D02*
X95233333Y-83405476D01*
X95233333Y-83405476D02*
X95328571Y-83310238D01*
X95328571Y-83310238D02*
X95471428Y-83262619D01*
X95471428Y-83262619D02*
X95566666Y-83262619D01*
X95566666Y-83262619D02*
X95709523Y-83310238D01*
X95709523Y-83310238D02*
X95757142Y-83357857D01*
X96614285Y-83595952D02*
X96614285Y-84262619D01*
X96376190Y-83215000D02*
X96138095Y-83929285D01*
X96138095Y-83929285D02*
X96757142Y-83929285D01*
X97090476Y-83357857D02*
X97138095Y-83310238D01*
X97138095Y-83310238D02*
X97233333Y-83262619D01*
X97233333Y-83262619D02*
X97471428Y-83262619D01*
X97471428Y-83262619D02*
X97566666Y-83310238D01*
X97566666Y-83310238D02*
X97614285Y-83357857D01*
X97614285Y-83357857D02*
X97661904Y-83453095D01*
X97661904Y-83453095D02*
X97661904Y-83548333D01*
X97661904Y-83548333D02*
X97614285Y-83691190D01*
X97614285Y-83691190D02*
X97042857Y-84262619D01*
X97042857Y-84262619D02*
X97661904Y-84262619D01*
%TO.C,TP7*%
X116768095Y-121352619D02*
X117339523Y-121352619D01*
X117053809Y-122352619D02*
X117053809Y-121352619D01*
X117672857Y-122352619D02*
X117672857Y-121352619D01*
X117672857Y-121352619D02*
X118053809Y-121352619D01*
X118053809Y-121352619D02*
X118149047Y-121400238D01*
X118149047Y-121400238D02*
X118196666Y-121447857D01*
X118196666Y-121447857D02*
X118244285Y-121543095D01*
X118244285Y-121543095D02*
X118244285Y-121685952D01*
X118244285Y-121685952D02*
X118196666Y-121781190D01*
X118196666Y-121781190D02*
X118149047Y-121828809D01*
X118149047Y-121828809D02*
X118053809Y-121876428D01*
X118053809Y-121876428D02*
X117672857Y-121876428D01*
X118577619Y-121352619D02*
X119244285Y-121352619D01*
X119244285Y-121352619D02*
X118815714Y-122352619D01*
%TO.C,C34*%
X90131342Y-94424380D02*
X90083723Y-94472000D01*
X90083723Y-94472000D02*
X89940866Y-94519619D01*
X89940866Y-94519619D02*
X89845628Y-94519619D01*
X89845628Y-94519619D02*
X89702771Y-94472000D01*
X89702771Y-94472000D02*
X89607533Y-94376761D01*
X89607533Y-94376761D02*
X89559914Y-94281523D01*
X89559914Y-94281523D02*
X89512295Y-94091047D01*
X89512295Y-94091047D02*
X89512295Y-93948190D01*
X89512295Y-93948190D02*
X89559914Y-93757714D01*
X89559914Y-93757714D02*
X89607533Y-93662476D01*
X89607533Y-93662476D02*
X89702771Y-93567238D01*
X89702771Y-93567238D02*
X89845628Y-93519619D01*
X89845628Y-93519619D02*
X89940866Y-93519619D01*
X89940866Y-93519619D02*
X90083723Y-93567238D01*
X90083723Y-93567238D02*
X90131342Y-93614857D01*
X90464676Y-93519619D02*
X91083723Y-93519619D01*
X91083723Y-93519619D02*
X90750390Y-93900571D01*
X90750390Y-93900571D02*
X90893247Y-93900571D01*
X90893247Y-93900571D02*
X90988485Y-93948190D01*
X90988485Y-93948190D02*
X91036104Y-93995809D01*
X91036104Y-93995809D02*
X91083723Y-94091047D01*
X91083723Y-94091047D02*
X91083723Y-94329142D01*
X91083723Y-94329142D02*
X91036104Y-94424380D01*
X91036104Y-94424380D02*
X90988485Y-94472000D01*
X90988485Y-94472000D02*
X90893247Y-94519619D01*
X90893247Y-94519619D02*
X90607533Y-94519619D01*
X90607533Y-94519619D02*
X90512295Y-94472000D01*
X90512295Y-94472000D02*
X90464676Y-94424380D01*
X91940866Y-93852952D02*
X91940866Y-94519619D01*
X91702771Y-93472000D02*
X91464676Y-94186285D01*
X91464676Y-94186285D02*
X92083723Y-94186285D01*
%TO.C,TP40*%
X82261905Y-110579619D02*
X82833333Y-110579619D01*
X82547619Y-111579619D02*
X82547619Y-110579619D01*
X83166667Y-111579619D02*
X83166667Y-110579619D01*
X83166667Y-110579619D02*
X83547619Y-110579619D01*
X83547619Y-110579619D02*
X83642857Y-110627238D01*
X83642857Y-110627238D02*
X83690476Y-110674857D01*
X83690476Y-110674857D02*
X83738095Y-110770095D01*
X83738095Y-110770095D02*
X83738095Y-110912952D01*
X83738095Y-110912952D02*
X83690476Y-111008190D01*
X83690476Y-111008190D02*
X83642857Y-111055809D01*
X83642857Y-111055809D02*
X83547619Y-111103428D01*
X83547619Y-111103428D02*
X83166667Y-111103428D01*
X84595238Y-110912952D02*
X84595238Y-111579619D01*
X84357143Y-110532000D02*
X84119048Y-111246285D01*
X84119048Y-111246285D02*
X84738095Y-111246285D01*
X85309524Y-110579619D02*
X85404762Y-110579619D01*
X85404762Y-110579619D02*
X85500000Y-110627238D01*
X85500000Y-110627238D02*
X85547619Y-110674857D01*
X85547619Y-110674857D02*
X85595238Y-110770095D01*
X85595238Y-110770095D02*
X85642857Y-110960571D01*
X85642857Y-110960571D02*
X85642857Y-111198666D01*
X85642857Y-111198666D02*
X85595238Y-111389142D01*
X85595238Y-111389142D02*
X85547619Y-111484380D01*
X85547619Y-111484380D02*
X85500000Y-111532000D01*
X85500000Y-111532000D02*
X85404762Y-111579619D01*
X85404762Y-111579619D02*
X85309524Y-111579619D01*
X85309524Y-111579619D02*
X85214286Y-111532000D01*
X85214286Y-111532000D02*
X85166667Y-111484380D01*
X85166667Y-111484380D02*
X85119048Y-111389142D01*
X85119048Y-111389142D02*
X85071429Y-111198666D01*
X85071429Y-111198666D02*
X85071429Y-110960571D01*
X85071429Y-110960571D02*
X85119048Y-110770095D01*
X85119048Y-110770095D02*
X85166667Y-110674857D01*
X85166667Y-110674857D02*
X85214286Y-110627238D01*
X85214286Y-110627238D02*
X85309524Y-110579619D01*
%TO.C,TP4*%
X116502619Y-138161904D02*
X116502619Y-137590476D01*
X117502619Y-137876190D02*
X116502619Y-137876190D01*
X117502619Y-137257142D02*
X116502619Y-137257142D01*
X116502619Y-137257142D02*
X116502619Y-136876190D01*
X116502619Y-136876190D02*
X116550238Y-136780952D01*
X116550238Y-136780952D02*
X116597857Y-136733333D01*
X116597857Y-136733333D02*
X116693095Y-136685714D01*
X116693095Y-136685714D02*
X116835952Y-136685714D01*
X116835952Y-136685714D02*
X116931190Y-136733333D01*
X116931190Y-136733333D02*
X116978809Y-136780952D01*
X116978809Y-136780952D02*
X117026428Y-136876190D01*
X117026428Y-136876190D02*
X117026428Y-137257142D01*
X116835952Y-135828571D02*
X117502619Y-135828571D01*
X116455000Y-136066666D02*
X117169285Y-136304761D01*
X117169285Y-136304761D02*
X117169285Y-135685714D01*
%TO.C,U1*%
X112222619Y-125811904D02*
X113032142Y-125811904D01*
X113032142Y-125811904D02*
X113127380Y-125764285D01*
X113127380Y-125764285D02*
X113175000Y-125716666D01*
X113175000Y-125716666D02*
X113222619Y-125621428D01*
X113222619Y-125621428D02*
X113222619Y-125430952D01*
X113222619Y-125430952D02*
X113175000Y-125335714D01*
X113175000Y-125335714D02*
X113127380Y-125288095D01*
X113127380Y-125288095D02*
X113032142Y-125240476D01*
X113032142Y-125240476D02*
X112222619Y-125240476D01*
X113222619Y-124240476D02*
X113222619Y-124811904D01*
X113222619Y-124526190D02*
X112222619Y-124526190D01*
X112222619Y-124526190D02*
X112365476Y-124621428D01*
X112365476Y-124621428D02*
X112460714Y-124716666D01*
X112460714Y-124716666D02*
X112508333Y-124811904D01*
%TO.C,TP13*%
X96734905Y-125550619D02*
X97306333Y-125550619D01*
X97020619Y-126550619D02*
X97020619Y-125550619D01*
X97639667Y-126550619D02*
X97639667Y-125550619D01*
X97639667Y-125550619D02*
X98020619Y-125550619D01*
X98020619Y-125550619D02*
X98115857Y-125598238D01*
X98115857Y-125598238D02*
X98163476Y-125645857D01*
X98163476Y-125645857D02*
X98211095Y-125741095D01*
X98211095Y-125741095D02*
X98211095Y-125883952D01*
X98211095Y-125883952D02*
X98163476Y-125979190D01*
X98163476Y-125979190D02*
X98115857Y-126026809D01*
X98115857Y-126026809D02*
X98020619Y-126074428D01*
X98020619Y-126074428D02*
X97639667Y-126074428D01*
X99163476Y-126550619D02*
X98592048Y-126550619D01*
X98877762Y-126550619D02*
X98877762Y-125550619D01*
X98877762Y-125550619D02*
X98782524Y-125693476D01*
X98782524Y-125693476D02*
X98687286Y-125788714D01*
X98687286Y-125788714D02*
X98592048Y-125836333D01*
X99496810Y-125550619D02*
X100115857Y-125550619D01*
X100115857Y-125550619D02*
X99782524Y-125931571D01*
X99782524Y-125931571D02*
X99925381Y-125931571D01*
X99925381Y-125931571D02*
X100020619Y-125979190D01*
X100020619Y-125979190D02*
X100068238Y-126026809D01*
X100068238Y-126026809D02*
X100115857Y-126122047D01*
X100115857Y-126122047D02*
X100115857Y-126360142D01*
X100115857Y-126360142D02*
X100068238Y-126455380D01*
X100068238Y-126455380D02*
X100020619Y-126503000D01*
X100020619Y-126503000D02*
X99925381Y-126550619D01*
X99925381Y-126550619D02*
X99639667Y-126550619D01*
X99639667Y-126550619D02*
X99544429Y-126503000D01*
X99544429Y-126503000D02*
X99496810Y-126455380D01*
%TO.C,R12*%
X99357142Y-84429219D02*
X99023809Y-83953028D01*
X98785714Y-84429219D02*
X98785714Y-83429219D01*
X98785714Y-83429219D02*
X99166666Y-83429219D01*
X99166666Y-83429219D02*
X99261904Y-83476838D01*
X99261904Y-83476838D02*
X99309523Y-83524457D01*
X99309523Y-83524457D02*
X99357142Y-83619695D01*
X99357142Y-83619695D02*
X99357142Y-83762552D01*
X99357142Y-83762552D02*
X99309523Y-83857790D01*
X99309523Y-83857790D02*
X99261904Y-83905409D01*
X99261904Y-83905409D02*
X99166666Y-83953028D01*
X99166666Y-83953028D02*
X98785714Y-83953028D01*
X100309523Y-84429219D02*
X99738095Y-84429219D01*
X100023809Y-84429219D02*
X100023809Y-83429219D01*
X100023809Y-83429219D02*
X99928571Y-83572076D01*
X99928571Y-83572076D02*
X99833333Y-83667314D01*
X99833333Y-83667314D02*
X99738095Y-83714933D01*
X100690476Y-83524457D02*
X100738095Y-83476838D01*
X100738095Y-83476838D02*
X100833333Y-83429219D01*
X100833333Y-83429219D02*
X101071428Y-83429219D01*
X101071428Y-83429219D02*
X101166666Y-83476838D01*
X101166666Y-83476838D02*
X101214285Y-83524457D01*
X101214285Y-83524457D02*
X101261904Y-83619695D01*
X101261904Y-83619695D02*
X101261904Y-83714933D01*
X101261904Y-83714933D02*
X101214285Y-83857790D01*
X101214285Y-83857790D02*
X100642857Y-84429219D01*
X100642857Y-84429219D02*
X101261904Y-84429219D01*
%TO.C,C2*%
X117273333Y-110177380D02*
X117225714Y-110225000D01*
X117225714Y-110225000D02*
X117082857Y-110272619D01*
X117082857Y-110272619D02*
X116987619Y-110272619D01*
X116987619Y-110272619D02*
X116844762Y-110225000D01*
X116844762Y-110225000D02*
X116749524Y-110129761D01*
X116749524Y-110129761D02*
X116701905Y-110034523D01*
X116701905Y-110034523D02*
X116654286Y-109844047D01*
X116654286Y-109844047D02*
X116654286Y-109701190D01*
X116654286Y-109701190D02*
X116701905Y-109510714D01*
X116701905Y-109510714D02*
X116749524Y-109415476D01*
X116749524Y-109415476D02*
X116844762Y-109320238D01*
X116844762Y-109320238D02*
X116987619Y-109272619D01*
X116987619Y-109272619D02*
X117082857Y-109272619D01*
X117082857Y-109272619D02*
X117225714Y-109320238D01*
X117225714Y-109320238D02*
X117273333Y-109367857D01*
X117654286Y-109367857D02*
X117701905Y-109320238D01*
X117701905Y-109320238D02*
X117797143Y-109272619D01*
X117797143Y-109272619D02*
X118035238Y-109272619D01*
X118035238Y-109272619D02*
X118130476Y-109320238D01*
X118130476Y-109320238D02*
X118178095Y-109367857D01*
X118178095Y-109367857D02*
X118225714Y-109463095D01*
X118225714Y-109463095D02*
X118225714Y-109558333D01*
X118225714Y-109558333D02*
X118178095Y-109701190D01*
X118178095Y-109701190D02*
X117606667Y-110272619D01*
X117606667Y-110272619D02*
X118225714Y-110272619D01*
%TO.C,C23*%
X99077142Y-133107380D02*
X99029523Y-133155000D01*
X99029523Y-133155000D02*
X98886666Y-133202619D01*
X98886666Y-133202619D02*
X98791428Y-133202619D01*
X98791428Y-133202619D02*
X98648571Y-133155000D01*
X98648571Y-133155000D02*
X98553333Y-133059761D01*
X98553333Y-133059761D02*
X98505714Y-132964523D01*
X98505714Y-132964523D02*
X98458095Y-132774047D01*
X98458095Y-132774047D02*
X98458095Y-132631190D01*
X98458095Y-132631190D02*
X98505714Y-132440714D01*
X98505714Y-132440714D02*
X98553333Y-132345476D01*
X98553333Y-132345476D02*
X98648571Y-132250238D01*
X98648571Y-132250238D02*
X98791428Y-132202619D01*
X98791428Y-132202619D02*
X98886666Y-132202619D01*
X98886666Y-132202619D02*
X99029523Y-132250238D01*
X99029523Y-132250238D02*
X99077142Y-132297857D01*
X99458095Y-132297857D02*
X99505714Y-132250238D01*
X99505714Y-132250238D02*
X99600952Y-132202619D01*
X99600952Y-132202619D02*
X99839047Y-132202619D01*
X99839047Y-132202619D02*
X99934285Y-132250238D01*
X99934285Y-132250238D02*
X99981904Y-132297857D01*
X99981904Y-132297857D02*
X100029523Y-132393095D01*
X100029523Y-132393095D02*
X100029523Y-132488333D01*
X100029523Y-132488333D02*
X99981904Y-132631190D01*
X99981904Y-132631190D02*
X99410476Y-133202619D01*
X99410476Y-133202619D02*
X100029523Y-133202619D01*
X100362857Y-132202619D02*
X100981904Y-132202619D01*
X100981904Y-132202619D02*
X100648571Y-132583571D01*
X100648571Y-132583571D02*
X100791428Y-132583571D01*
X100791428Y-132583571D02*
X100886666Y-132631190D01*
X100886666Y-132631190D02*
X100934285Y-132678809D01*
X100934285Y-132678809D02*
X100981904Y-132774047D01*
X100981904Y-132774047D02*
X100981904Y-133012142D01*
X100981904Y-133012142D02*
X100934285Y-133107380D01*
X100934285Y-133107380D02*
X100886666Y-133155000D01*
X100886666Y-133155000D02*
X100791428Y-133202619D01*
X100791428Y-133202619D02*
X100505714Y-133202619D01*
X100505714Y-133202619D02*
X100410476Y-133155000D01*
X100410476Y-133155000D02*
X100362857Y-133107380D01*
%TO.C,C5*%
X112617380Y-119506666D02*
X112665000Y-119554285D01*
X112665000Y-119554285D02*
X112712619Y-119697142D01*
X112712619Y-119697142D02*
X112712619Y-119792380D01*
X112712619Y-119792380D02*
X112665000Y-119935237D01*
X112665000Y-119935237D02*
X112569761Y-120030475D01*
X112569761Y-120030475D02*
X112474523Y-120078094D01*
X112474523Y-120078094D02*
X112284047Y-120125713D01*
X112284047Y-120125713D02*
X112141190Y-120125713D01*
X112141190Y-120125713D02*
X111950714Y-120078094D01*
X111950714Y-120078094D02*
X111855476Y-120030475D01*
X111855476Y-120030475D02*
X111760238Y-119935237D01*
X111760238Y-119935237D02*
X111712619Y-119792380D01*
X111712619Y-119792380D02*
X111712619Y-119697142D01*
X111712619Y-119697142D02*
X111760238Y-119554285D01*
X111760238Y-119554285D02*
X111807857Y-119506666D01*
X111712619Y-118601904D02*
X111712619Y-119078094D01*
X111712619Y-119078094D02*
X112188809Y-119125713D01*
X112188809Y-119125713D02*
X112141190Y-119078094D01*
X112141190Y-119078094D02*
X112093571Y-118982856D01*
X112093571Y-118982856D02*
X112093571Y-118744761D01*
X112093571Y-118744761D02*
X112141190Y-118649523D01*
X112141190Y-118649523D02*
X112188809Y-118601904D01*
X112188809Y-118601904D02*
X112284047Y-118554285D01*
X112284047Y-118554285D02*
X112522142Y-118554285D01*
X112522142Y-118554285D02*
X112617380Y-118601904D01*
X112617380Y-118601904D02*
X112665000Y-118649523D01*
X112665000Y-118649523D02*
X112712619Y-118744761D01*
X112712619Y-118744761D02*
X112712619Y-118982856D01*
X112712619Y-118982856D02*
X112665000Y-119078094D01*
X112665000Y-119078094D02*
X112617380Y-119125713D01*
%TO.C,TP9*%
X123728095Y-112982619D02*
X124299523Y-112982619D01*
X124013809Y-113982619D02*
X124013809Y-112982619D01*
X124632857Y-113982619D02*
X124632857Y-112982619D01*
X124632857Y-112982619D02*
X125013809Y-112982619D01*
X125013809Y-112982619D02*
X125109047Y-113030238D01*
X125109047Y-113030238D02*
X125156666Y-113077857D01*
X125156666Y-113077857D02*
X125204285Y-113173095D01*
X125204285Y-113173095D02*
X125204285Y-113315952D01*
X125204285Y-113315952D02*
X125156666Y-113411190D01*
X125156666Y-113411190D02*
X125109047Y-113458809D01*
X125109047Y-113458809D02*
X125013809Y-113506428D01*
X125013809Y-113506428D02*
X124632857Y-113506428D01*
X125680476Y-113982619D02*
X125870952Y-113982619D01*
X125870952Y-113982619D02*
X125966190Y-113935000D01*
X125966190Y-113935000D02*
X126013809Y-113887380D01*
X126013809Y-113887380D02*
X126109047Y-113744523D01*
X126109047Y-113744523D02*
X126156666Y-113554047D01*
X126156666Y-113554047D02*
X126156666Y-113173095D01*
X126156666Y-113173095D02*
X126109047Y-113077857D01*
X126109047Y-113077857D02*
X126061428Y-113030238D01*
X126061428Y-113030238D02*
X125966190Y-112982619D01*
X125966190Y-112982619D02*
X125775714Y-112982619D01*
X125775714Y-112982619D02*
X125680476Y-113030238D01*
X125680476Y-113030238D02*
X125632857Y-113077857D01*
X125632857Y-113077857D02*
X125585238Y-113173095D01*
X125585238Y-113173095D02*
X125585238Y-113411190D01*
X125585238Y-113411190D02*
X125632857Y-113506428D01*
X125632857Y-113506428D02*
X125680476Y-113554047D01*
X125680476Y-113554047D02*
X125775714Y-113601666D01*
X125775714Y-113601666D02*
X125966190Y-113601666D01*
X125966190Y-113601666D02*
X126061428Y-113554047D01*
X126061428Y-113554047D02*
X126109047Y-113506428D01*
X126109047Y-113506428D02*
X126156666Y-113411190D01*
%TO.C,R9*%
X79992619Y-131866666D02*
X79516428Y-132199999D01*
X79992619Y-132438094D02*
X78992619Y-132438094D01*
X78992619Y-132438094D02*
X78992619Y-132057142D01*
X78992619Y-132057142D02*
X79040238Y-131961904D01*
X79040238Y-131961904D02*
X79087857Y-131914285D01*
X79087857Y-131914285D02*
X79183095Y-131866666D01*
X79183095Y-131866666D02*
X79325952Y-131866666D01*
X79325952Y-131866666D02*
X79421190Y-131914285D01*
X79421190Y-131914285D02*
X79468809Y-131961904D01*
X79468809Y-131961904D02*
X79516428Y-132057142D01*
X79516428Y-132057142D02*
X79516428Y-132438094D01*
X79992619Y-131390475D02*
X79992619Y-131199999D01*
X79992619Y-131199999D02*
X79945000Y-131104761D01*
X79945000Y-131104761D02*
X79897380Y-131057142D01*
X79897380Y-131057142D02*
X79754523Y-130961904D01*
X79754523Y-130961904D02*
X79564047Y-130914285D01*
X79564047Y-130914285D02*
X79183095Y-130914285D01*
X79183095Y-130914285D02*
X79087857Y-130961904D01*
X79087857Y-130961904D02*
X79040238Y-131009523D01*
X79040238Y-131009523D02*
X78992619Y-131104761D01*
X78992619Y-131104761D02*
X78992619Y-131295237D01*
X78992619Y-131295237D02*
X79040238Y-131390475D01*
X79040238Y-131390475D02*
X79087857Y-131438094D01*
X79087857Y-131438094D02*
X79183095Y-131485713D01*
X79183095Y-131485713D02*
X79421190Y-131485713D01*
X79421190Y-131485713D02*
X79516428Y-131438094D01*
X79516428Y-131438094D02*
X79564047Y-131390475D01*
X79564047Y-131390475D02*
X79611666Y-131295237D01*
X79611666Y-131295237D02*
X79611666Y-131104761D01*
X79611666Y-131104761D02*
X79564047Y-131009523D01*
X79564047Y-131009523D02*
X79516428Y-130961904D01*
X79516428Y-130961904D02*
X79421190Y-130914285D01*
%TO.C,C17*%
X93627142Y-108277380D02*
X93579523Y-108325000D01*
X93579523Y-108325000D02*
X93436666Y-108372619D01*
X93436666Y-108372619D02*
X93341428Y-108372619D01*
X93341428Y-108372619D02*
X93198571Y-108325000D01*
X93198571Y-108325000D02*
X93103333Y-108229761D01*
X93103333Y-108229761D02*
X93055714Y-108134523D01*
X93055714Y-108134523D02*
X93008095Y-107944047D01*
X93008095Y-107944047D02*
X93008095Y-107801190D01*
X93008095Y-107801190D02*
X93055714Y-107610714D01*
X93055714Y-107610714D02*
X93103333Y-107515476D01*
X93103333Y-107515476D02*
X93198571Y-107420238D01*
X93198571Y-107420238D02*
X93341428Y-107372619D01*
X93341428Y-107372619D02*
X93436666Y-107372619D01*
X93436666Y-107372619D02*
X93579523Y-107420238D01*
X93579523Y-107420238D02*
X93627142Y-107467857D01*
X94579523Y-108372619D02*
X94008095Y-108372619D01*
X94293809Y-108372619D02*
X94293809Y-107372619D01*
X94293809Y-107372619D02*
X94198571Y-107515476D01*
X94198571Y-107515476D02*
X94103333Y-107610714D01*
X94103333Y-107610714D02*
X94008095Y-107658333D01*
X94912857Y-107372619D02*
X95579523Y-107372619D01*
X95579523Y-107372619D02*
X95150952Y-108372619D01*
%TO.C,C8*%
X110567380Y-104366666D02*
X110615000Y-104414285D01*
X110615000Y-104414285D02*
X110662619Y-104557142D01*
X110662619Y-104557142D02*
X110662619Y-104652380D01*
X110662619Y-104652380D02*
X110615000Y-104795237D01*
X110615000Y-104795237D02*
X110519761Y-104890475D01*
X110519761Y-104890475D02*
X110424523Y-104938094D01*
X110424523Y-104938094D02*
X110234047Y-104985713D01*
X110234047Y-104985713D02*
X110091190Y-104985713D01*
X110091190Y-104985713D02*
X109900714Y-104938094D01*
X109900714Y-104938094D02*
X109805476Y-104890475D01*
X109805476Y-104890475D02*
X109710238Y-104795237D01*
X109710238Y-104795237D02*
X109662619Y-104652380D01*
X109662619Y-104652380D02*
X109662619Y-104557142D01*
X109662619Y-104557142D02*
X109710238Y-104414285D01*
X109710238Y-104414285D02*
X109757857Y-104366666D01*
X110091190Y-103795237D02*
X110043571Y-103890475D01*
X110043571Y-103890475D02*
X109995952Y-103938094D01*
X109995952Y-103938094D02*
X109900714Y-103985713D01*
X109900714Y-103985713D02*
X109853095Y-103985713D01*
X109853095Y-103985713D02*
X109757857Y-103938094D01*
X109757857Y-103938094D02*
X109710238Y-103890475D01*
X109710238Y-103890475D02*
X109662619Y-103795237D01*
X109662619Y-103795237D02*
X109662619Y-103604761D01*
X109662619Y-103604761D02*
X109710238Y-103509523D01*
X109710238Y-103509523D02*
X109757857Y-103461904D01*
X109757857Y-103461904D02*
X109853095Y-103414285D01*
X109853095Y-103414285D02*
X109900714Y-103414285D01*
X109900714Y-103414285D02*
X109995952Y-103461904D01*
X109995952Y-103461904D02*
X110043571Y-103509523D01*
X110043571Y-103509523D02*
X110091190Y-103604761D01*
X110091190Y-103604761D02*
X110091190Y-103795237D01*
X110091190Y-103795237D02*
X110138809Y-103890475D01*
X110138809Y-103890475D02*
X110186428Y-103938094D01*
X110186428Y-103938094D02*
X110281666Y-103985713D01*
X110281666Y-103985713D02*
X110472142Y-103985713D01*
X110472142Y-103985713D02*
X110567380Y-103938094D01*
X110567380Y-103938094D02*
X110615000Y-103890475D01*
X110615000Y-103890475D02*
X110662619Y-103795237D01*
X110662619Y-103795237D02*
X110662619Y-103604761D01*
X110662619Y-103604761D02*
X110615000Y-103509523D01*
X110615000Y-103509523D02*
X110567380Y-103461904D01*
X110567380Y-103461904D02*
X110472142Y-103414285D01*
X110472142Y-103414285D02*
X110281666Y-103414285D01*
X110281666Y-103414285D02*
X110186428Y-103461904D01*
X110186428Y-103461904D02*
X110138809Y-103509523D01*
X110138809Y-103509523D02*
X110091190Y-103604761D01*
%TO.C,C29*%
X95387142Y-136507380D02*
X95339523Y-136555000D01*
X95339523Y-136555000D02*
X95196666Y-136602619D01*
X95196666Y-136602619D02*
X95101428Y-136602619D01*
X95101428Y-136602619D02*
X94958571Y-136555000D01*
X94958571Y-136555000D02*
X94863333Y-136459761D01*
X94863333Y-136459761D02*
X94815714Y-136364523D01*
X94815714Y-136364523D02*
X94768095Y-136174047D01*
X94768095Y-136174047D02*
X94768095Y-136031190D01*
X94768095Y-136031190D02*
X94815714Y-135840714D01*
X94815714Y-135840714D02*
X94863333Y-135745476D01*
X94863333Y-135745476D02*
X94958571Y-135650238D01*
X94958571Y-135650238D02*
X95101428Y-135602619D01*
X95101428Y-135602619D02*
X95196666Y-135602619D01*
X95196666Y-135602619D02*
X95339523Y-135650238D01*
X95339523Y-135650238D02*
X95387142Y-135697857D01*
X95768095Y-135697857D02*
X95815714Y-135650238D01*
X95815714Y-135650238D02*
X95910952Y-135602619D01*
X95910952Y-135602619D02*
X96149047Y-135602619D01*
X96149047Y-135602619D02*
X96244285Y-135650238D01*
X96244285Y-135650238D02*
X96291904Y-135697857D01*
X96291904Y-135697857D02*
X96339523Y-135793095D01*
X96339523Y-135793095D02*
X96339523Y-135888333D01*
X96339523Y-135888333D02*
X96291904Y-136031190D01*
X96291904Y-136031190D02*
X95720476Y-136602619D01*
X95720476Y-136602619D02*
X96339523Y-136602619D01*
X96815714Y-136602619D02*
X97006190Y-136602619D01*
X97006190Y-136602619D02*
X97101428Y-136555000D01*
X97101428Y-136555000D02*
X97149047Y-136507380D01*
X97149047Y-136507380D02*
X97244285Y-136364523D01*
X97244285Y-136364523D02*
X97291904Y-136174047D01*
X97291904Y-136174047D02*
X97291904Y-135793095D01*
X97291904Y-135793095D02*
X97244285Y-135697857D01*
X97244285Y-135697857D02*
X97196666Y-135650238D01*
X97196666Y-135650238D02*
X97101428Y-135602619D01*
X97101428Y-135602619D02*
X96910952Y-135602619D01*
X96910952Y-135602619D02*
X96815714Y-135650238D01*
X96815714Y-135650238D02*
X96768095Y-135697857D01*
X96768095Y-135697857D02*
X96720476Y-135793095D01*
X96720476Y-135793095D02*
X96720476Y-136031190D01*
X96720476Y-136031190D02*
X96768095Y-136126428D01*
X96768095Y-136126428D02*
X96815714Y-136174047D01*
X96815714Y-136174047D02*
X96910952Y-136221666D01*
X96910952Y-136221666D02*
X97101428Y-136221666D01*
X97101428Y-136221666D02*
X97196666Y-136174047D01*
X97196666Y-136174047D02*
X97244285Y-136126428D01*
X97244285Y-136126428D02*
X97291904Y-136031190D01*
%TO.C,TP37*%
X119011905Y-109332619D02*
X119583333Y-109332619D01*
X119297619Y-110332619D02*
X119297619Y-109332619D01*
X119916667Y-110332619D02*
X119916667Y-109332619D01*
X119916667Y-109332619D02*
X120297619Y-109332619D01*
X120297619Y-109332619D02*
X120392857Y-109380238D01*
X120392857Y-109380238D02*
X120440476Y-109427857D01*
X120440476Y-109427857D02*
X120488095Y-109523095D01*
X120488095Y-109523095D02*
X120488095Y-109665952D01*
X120488095Y-109665952D02*
X120440476Y-109761190D01*
X120440476Y-109761190D02*
X120392857Y-109808809D01*
X120392857Y-109808809D02*
X120297619Y-109856428D01*
X120297619Y-109856428D02*
X119916667Y-109856428D01*
X120821429Y-109332619D02*
X121440476Y-109332619D01*
X121440476Y-109332619D02*
X121107143Y-109713571D01*
X121107143Y-109713571D02*
X121250000Y-109713571D01*
X121250000Y-109713571D02*
X121345238Y-109761190D01*
X121345238Y-109761190D02*
X121392857Y-109808809D01*
X121392857Y-109808809D02*
X121440476Y-109904047D01*
X121440476Y-109904047D02*
X121440476Y-110142142D01*
X121440476Y-110142142D02*
X121392857Y-110237380D01*
X121392857Y-110237380D02*
X121345238Y-110285000D01*
X121345238Y-110285000D02*
X121250000Y-110332619D01*
X121250000Y-110332619D02*
X120964286Y-110332619D01*
X120964286Y-110332619D02*
X120869048Y-110285000D01*
X120869048Y-110285000D02*
X120821429Y-110237380D01*
X121773810Y-109332619D02*
X122440476Y-109332619D01*
X122440476Y-109332619D02*
X122011905Y-110332619D01*
%TO.C,TP14*%
X106091905Y-127014619D02*
X106663333Y-127014619D01*
X106377619Y-128014619D02*
X106377619Y-127014619D01*
X106996667Y-128014619D02*
X106996667Y-127014619D01*
X106996667Y-127014619D02*
X107377619Y-127014619D01*
X107377619Y-127014619D02*
X107472857Y-127062238D01*
X107472857Y-127062238D02*
X107520476Y-127109857D01*
X107520476Y-127109857D02*
X107568095Y-127205095D01*
X107568095Y-127205095D02*
X107568095Y-127347952D01*
X107568095Y-127347952D02*
X107520476Y-127443190D01*
X107520476Y-127443190D02*
X107472857Y-127490809D01*
X107472857Y-127490809D02*
X107377619Y-127538428D01*
X107377619Y-127538428D02*
X106996667Y-127538428D01*
X108520476Y-128014619D02*
X107949048Y-128014619D01*
X108234762Y-128014619D02*
X108234762Y-127014619D01*
X108234762Y-127014619D02*
X108139524Y-127157476D01*
X108139524Y-127157476D02*
X108044286Y-127252714D01*
X108044286Y-127252714D02*
X107949048Y-127300333D01*
X109377619Y-127347952D02*
X109377619Y-128014619D01*
X109139524Y-126967000D02*
X108901429Y-127681285D01*
X108901429Y-127681285D02*
X109520476Y-127681285D01*
%TO.C,TP45*%
X82331905Y-120529619D02*
X82903333Y-120529619D01*
X82617619Y-121529619D02*
X82617619Y-120529619D01*
X83236667Y-121529619D02*
X83236667Y-120529619D01*
X83236667Y-120529619D02*
X83617619Y-120529619D01*
X83617619Y-120529619D02*
X83712857Y-120577238D01*
X83712857Y-120577238D02*
X83760476Y-120624857D01*
X83760476Y-120624857D02*
X83808095Y-120720095D01*
X83808095Y-120720095D02*
X83808095Y-120862952D01*
X83808095Y-120862952D02*
X83760476Y-120958190D01*
X83760476Y-120958190D02*
X83712857Y-121005809D01*
X83712857Y-121005809D02*
X83617619Y-121053428D01*
X83617619Y-121053428D02*
X83236667Y-121053428D01*
X84665238Y-120862952D02*
X84665238Y-121529619D01*
X84427143Y-120482000D02*
X84189048Y-121196285D01*
X84189048Y-121196285D02*
X84808095Y-121196285D01*
X85665238Y-120529619D02*
X85189048Y-120529619D01*
X85189048Y-120529619D02*
X85141429Y-121005809D01*
X85141429Y-121005809D02*
X85189048Y-120958190D01*
X85189048Y-120958190D02*
X85284286Y-120910571D01*
X85284286Y-120910571D02*
X85522381Y-120910571D01*
X85522381Y-120910571D02*
X85617619Y-120958190D01*
X85617619Y-120958190D02*
X85665238Y-121005809D01*
X85665238Y-121005809D02*
X85712857Y-121101047D01*
X85712857Y-121101047D02*
X85712857Y-121339142D01*
X85712857Y-121339142D02*
X85665238Y-121434380D01*
X85665238Y-121434380D02*
X85617619Y-121482000D01*
X85617619Y-121482000D02*
X85522381Y-121529619D01*
X85522381Y-121529619D02*
X85284286Y-121529619D01*
X85284286Y-121529619D02*
X85189048Y-121482000D01*
X85189048Y-121482000D02*
X85141429Y-121434380D01*
%TO.C,TP2*%
X111352619Y-138161904D02*
X111352619Y-137590476D01*
X112352619Y-137876190D02*
X111352619Y-137876190D01*
X112352619Y-137257142D02*
X111352619Y-137257142D01*
X111352619Y-137257142D02*
X111352619Y-136876190D01*
X111352619Y-136876190D02*
X111400238Y-136780952D01*
X111400238Y-136780952D02*
X111447857Y-136733333D01*
X111447857Y-136733333D02*
X111543095Y-136685714D01*
X111543095Y-136685714D02*
X111685952Y-136685714D01*
X111685952Y-136685714D02*
X111781190Y-136733333D01*
X111781190Y-136733333D02*
X111828809Y-136780952D01*
X111828809Y-136780952D02*
X111876428Y-136876190D01*
X111876428Y-136876190D02*
X111876428Y-137257142D01*
X111447857Y-136304761D02*
X111400238Y-136257142D01*
X111400238Y-136257142D02*
X111352619Y-136161904D01*
X111352619Y-136161904D02*
X111352619Y-135923809D01*
X111352619Y-135923809D02*
X111400238Y-135828571D01*
X111400238Y-135828571D02*
X111447857Y-135780952D01*
X111447857Y-135780952D02*
X111543095Y-135733333D01*
X111543095Y-135733333D02*
X111638333Y-135733333D01*
X111638333Y-135733333D02*
X111781190Y-135780952D01*
X111781190Y-135780952D02*
X112352619Y-136352380D01*
X112352619Y-136352380D02*
X112352619Y-135733333D01*
%TO.C,C20*%
X111057142Y-97017380D02*
X111009523Y-97065000D01*
X111009523Y-97065000D02*
X110866666Y-97112619D01*
X110866666Y-97112619D02*
X110771428Y-97112619D01*
X110771428Y-97112619D02*
X110628571Y-97065000D01*
X110628571Y-97065000D02*
X110533333Y-96969761D01*
X110533333Y-96969761D02*
X110485714Y-96874523D01*
X110485714Y-96874523D02*
X110438095Y-96684047D01*
X110438095Y-96684047D02*
X110438095Y-96541190D01*
X110438095Y-96541190D02*
X110485714Y-96350714D01*
X110485714Y-96350714D02*
X110533333Y-96255476D01*
X110533333Y-96255476D02*
X110628571Y-96160238D01*
X110628571Y-96160238D02*
X110771428Y-96112619D01*
X110771428Y-96112619D02*
X110866666Y-96112619D01*
X110866666Y-96112619D02*
X111009523Y-96160238D01*
X111009523Y-96160238D02*
X111057142Y-96207857D01*
X111438095Y-96207857D02*
X111485714Y-96160238D01*
X111485714Y-96160238D02*
X111580952Y-96112619D01*
X111580952Y-96112619D02*
X111819047Y-96112619D01*
X111819047Y-96112619D02*
X111914285Y-96160238D01*
X111914285Y-96160238D02*
X111961904Y-96207857D01*
X111961904Y-96207857D02*
X112009523Y-96303095D01*
X112009523Y-96303095D02*
X112009523Y-96398333D01*
X112009523Y-96398333D02*
X111961904Y-96541190D01*
X111961904Y-96541190D02*
X111390476Y-97112619D01*
X111390476Y-97112619D02*
X112009523Y-97112619D01*
X112628571Y-96112619D02*
X112723809Y-96112619D01*
X112723809Y-96112619D02*
X112819047Y-96160238D01*
X112819047Y-96160238D02*
X112866666Y-96207857D01*
X112866666Y-96207857D02*
X112914285Y-96303095D01*
X112914285Y-96303095D02*
X112961904Y-96493571D01*
X112961904Y-96493571D02*
X112961904Y-96731666D01*
X112961904Y-96731666D02*
X112914285Y-96922142D01*
X112914285Y-96922142D02*
X112866666Y-97017380D01*
X112866666Y-97017380D02*
X112819047Y-97065000D01*
X112819047Y-97065000D02*
X112723809Y-97112619D01*
X112723809Y-97112619D02*
X112628571Y-97112619D01*
X112628571Y-97112619D02*
X112533333Y-97065000D01*
X112533333Y-97065000D02*
X112485714Y-97017380D01*
X112485714Y-97017380D02*
X112438095Y-96922142D01*
X112438095Y-96922142D02*
X112390476Y-96731666D01*
X112390476Y-96731666D02*
X112390476Y-96493571D01*
X112390476Y-96493571D02*
X112438095Y-96303095D01*
X112438095Y-96303095D02*
X112485714Y-96207857D01*
X112485714Y-96207857D02*
X112533333Y-96160238D01*
X112533333Y-96160238D02*
X112628571Y-96112619D01*
%TO.C,C47*%
X101836542Y-103125980D02*
X101788923Y-103173600D01*
X101788923Y-103173600D02*
X101646066Y-103221219D01*
X101646066Y-103221219D02*
X101550828Y-103221219D01*
X101550828Y-103221219D02*
X101407971Y-103173600D01*
X101407971Y-103173600D02*
X101312733Y-103078361D01*
X101312733Y-103078361D02*
X101265114Y-102983123D01*
X101265114Y-102983123D02*
X101217495Y-102792647D01*
X101217495Y-102792647D02*
X101217495Y-102649790D01*
X101217495Y-102649790D02*
X101265114Y-102459314D01*
X101265114Y-102459314D02*
X101312733Y-102364076D01*
X101312733Y-102364076D02*
X101407971Y-102268838D01*
X101407971Y-102268838D02*
X101550828Y-102221219D01*
X101550828Y-102221219D02*
X101646066Y-102221219D01*
X101646066Y-102221219D02*
X101788923Y-102268838D01*
X101788923Y-102268838D02*
X101836542Y-102316457D01*
X102693685Y-102554552D02*
X102693685Y-103221219D01*
X102455590Y-102173600D02*
X102217495Y-102887885D01*
X102217495Y-102887885D02*
X102836542Y-102887885D01*
X103122257Y-102221219D02*
X103788923Y-102221219D01*
X103788923Y-102221219D02*
X103360352Y-103221219D01*
%TO.C,C24*%
X97160380Y-132280857D02*
X97208000Y-132328476D01*
X97208000Y-132328476D02*
X97255619Y-132471333D01*
X97255619Y-132471333D02*
X97255619Y-132566571D01*
X97255619Y-132566571D02*
X97208000Y-132709428D01*
X97208000Y-132709428D02*
X97112761Y-132804666D01*
X97112761Y-132804666D02*
X97017523Y-132852285D01*
X97017523Y-132852285D02*
X96827047Y-132899904D01*
X96827047Y-132899904D02*
X96684190Y-132899904D01*
X96684190Y-132899904D02*
X96493714Y-132852285D01*
X96493714Y-132852285D02*
X96398476Y-132804666D01*
X96398476Y-132804666D02*
X96303238Y-132709428D01*
X96303238Y-132709428D02*
X96255619Y-132566571D01*
X96255619Y-132566571D02*
X96255619Y-132471333D01*
X96255619Y-132471333D02*
X96303238Y-132328476D01*
X96303238Y-132328476D02*
X96350857Y-132280857D01*
X96350857Y-131899904D02*
X96303238Y-131852285D01*
X96303238Y-131852285D02*
X96255619Y-131757047D01*
X96255619Y-131757047D02*
X96255619Y-131518952D01*
X96255619Y-131518952D02*
X96303238Y-131423714D01*
X96303238Y-131423714D02*
X96350857Y-131376095D01*
X96350857Y-131376095D02*
X96446095Y-131328476D01*
X96446095Y-131328476D02*
X96541333Y-131328476D01*
X96541333Y-131328476D02*
X96684190Y-131376095D01*
X96684190Y-131376095D02*
X97255619Y-131947523D01*
X97255619Y-131947523D02*
X97255619Y-131328476D01*
X96588952Y-130471333D02*
X97255619Y-130471333D01*
X96208000Y-130709428D02*
X96922285Y-130947523D01*
X96922285Y-130947523D02*
X96922285Y-130328476D01*
%TO.C,C36*%
X90116742Y-98012180D02*
X90069123Y-98059800D01*
X90069123Y-98059800D02*
X89926266Y-98107419D01*
X89926266Y-98107419D02*
X89831028Y-98107419D01*
X89831028Y-98107419D02*
X89688171Y-98059800D01*
X89688171Y-98059800D02*
X89592933Y-97964561D01*
X89592933Y-97964561D02*
X89545314Y-97869323D01*
X89545314Y-97869323D02*
X89497695Y-97678847D01*
X89497695Y-97678847D02*
X89497695Y-97535990D01*
X89497695Y-97535990D02*
X89545314Y-97345514D01*
X89545314Y-97345514D02*
X89592933Y-97250276D01*
X89592933Y-97250276D02*
X89688171Y-97155038D01*
X89688171Y-97155038D02*
X89831028Y-97107419D01*
X89831028Y-97107419D02*
X89926266Y-97107419D01*
X89926266Y-97107419D02*
X90069123Y-97155038D01*
X90069123Y-97155038D02*
X90116742Y-97202657D01*
X90450076Y-97107419D02*
X91069123Y-97107419D01*
X91069123Y-97107419D02*
X90735790Y-97488371D01*
X90735790Y-97488371D02*
X90878647Y-97488371D01*
X90878647Y-97488371D02*
X90973885Y-97535990D01*
X90973885Y-97535990D02*
X91021504Y-97583609D01*
X91021504Y-97583609D02*
X91069123Y-97678847D01*
X91069123Y-97678847D02*
X91069123Y-97916942D01*
X91069123Y-97916942D02*
X91021504Y-98012180D01*
X91021504Y-98012180D02*
X90973885Y-98059800D01*
X90973885Y-98059800D02*
X90878647Y-98107419D01*
X90878647Y-98107419D02*
X90592933Y-98107419D01*
X90592933Y-98107419D02*
X90497695Y-98059800D01*
X90497695Y-98059800D02*
X90450076Y-98012180D01*
X91926266Y-97107419D02*
X91735790Y-97107419D01*
X91735790Y-97107419D02*
X91640552Y-97155038D01*
X91640552Y-97155038D02*
X91592933Y-97202657D01*
X91592933Y-97202657D02*
X91497695Y-97345514D01*
X91497695Y-97345514D02*
X91450076Y-97535990D01*
X91450076Y-97535990D02*
X91450076Y-97916942D01*
X91450076Y-97916942D02*
X91497695Y-98012180D01*
X91497695Y-98012180D02*
X91545314Y-98059800D01*
X91545314Y-98059800D02*
X91640552Y-98107419D01*
X91640552Y-98107419D02*
X91831028Y-98107419D01*
X91831028Y-98107419D02*
X91926266Y-98059800D01*
X91926266Y-98059800D02*
X91973885Y-98012180D01*
X91973885Y-98012180D02*
X92021504Y-97916942D01*
X92021504Y-97916942D02*
X92021504Y-97678847D01*
X92021504Y-97678847D02*
X91973885Y-97583609D01*
X91973885Y-97583609D02*
X91926266Y-97535990D01*
X91926266Y-97535990D02*
X91831028Y-97488371D01*
X91831028Y-97488371D02*
X91640552Y-97488371D01*
X91640552Y-97488371D02*
X91545314Y-97535990D01*
X91545314Y-97535990D02*
X91497695Y-97583609D01*
X91497695Y-97583609D02*
X91450076Y-97678847D01*
%TO.C,C9*%
X112287380Y-112826666D02*
X112335000Y-112874285D01*
X112335000Y-112874285D02*
X112382619Y-113017142D01*
X112382619Y-113017142D02*
X112382619Y-113112380D01*
X112382619Y-113112380D02*
X112335000Y-113255237D01*
X112335000Y-113255237D02*
X112239761Y-113350475D01*
X112239761Y-113350475D02*
X112144523Y-113398094D01*
X112144523Y-113398094D02*
X111954047Y-113445713D01*
X111954047Y-113445713D02*
X111811190Y-113445713D01*
X111811190Y-113445713D02*
X111620714Y-113398094D01*
X111620714Y-113398094D02*
X111525476Y-113350475D01*
X111525476Y-113350475D02*
X111430238Y-113255237D01*
X111430238Y-113255237D02*
X111382619Y-113112380D01*
X111382619Y-113112380D02*
X111382619Y-113017142D01*
X111382619Y-113017142D02*
X111430238Y-112874285D01*
X111430238Y-112874285D02*
X111477857Y-112826666D01*
X112382619Y-112350475D02*
X112382619Y-112159999D01*
X112382619Y-112159999D02*
X112335000Y-112064761D01*
X112335000Y-112064761D02*
X112287380Y-112017142D01*
X112287380Y-112017142D02*
X112144523Y-111921904D01*
X112144523Y-111921904D02*
X111954047Y-111874285D01*
X111954047Y-111874285D02*
X111573095Y-111874285D01*
X111573095Y-111874285D02*
X111477857Y-111921904D01*
X111477857Y-111921904D02*
X111430238Y-111969523D01*
X111430238Y-111969523D02*
X111382619Y-112064761D01*
X111382619Y-112064761D02*
X111382619Y-112255237D01*
X111382619Y-112255237D02*
X111430238Y-112350475D01*
X111430238Y-112350475D02*
X111477857Y-112398094D01*
X111477857Y-112398094D02*
X111573095Y-112445713D01*
X111573095Y-112445713D02*
X111811190Y-112445713D01*
X111811190Y-112445713D02*
X111906428Y-112398094D01*
X111906428Y-112398094D02*
X111954047Y-112350475D01*
X111954047Y-112350475D02*
X112001666Y-112255237D01*
X112001666Y-112255237D02*
X112001666Y-112064761D01*
X112001666Y-112064761D02*
X111954047Y-111969523D01*
X111954047Y-111969523D02*
X111906428Y-111921904D01*
X111906428Y-111921904D02*
X111811190Y-111874285D01*
%TO.C,C37*%
X90142142Y-101346780D02*
X90094523Y-101394400D01*
X90094523Y-101394400D02*
X89951666Y-101442019D01*
X89951666Y-101442019D02*
X89856428Y-101442019D01*
X89856428Y-101442019D02*
X89713571Y-101394400D01*
X89713571Y-101394400D02*
X89618333Y-101299161D01*
X89618333Y-101299161D02*
X89570714Y-101203923D01*
X89570714Y-101203923D02*
X89523095Y-101013447D01*
X89523095Y-101013447D02*
X89523095Y-100870590D01*
X89523095Y-100870590D02*
X89570714Y-100680114D01*
X89570714Y-100680114D02*
X89618333Y-100584876D01*
X89618333Y-100584876D02*
X89713571Y-100489638D01*
X89713571Y-100489638D02*
X89856428Y-100442019D01*
X89856428Y-100442019D02*
X89951666Y-100442019D01*
X89951666Y-100442019D02*
X90094523Y-100489638D01*
X90094523Y-100489638D02*
X90142142Y-100537257D01*
X90475476Y-100442019D02*
X91094523Y-100442019D01*
X91094523Y-100442019D02*
X90761190Y-100822971D01*
X90761190Y-100822971D02*
X90904047Y-100822971D01*
X90904047Y-100822971D02*
X90999285Y-100870590D01*
X90999285Y-100870590D02*
X91046904Y-100918209D01*
X91046904Y-100918209D02*
X91094523Y-101013447D01*
X91094523Y-101013447D02*
X91094523Y-101251542D01*
X91094523Y-101251542D02*
X91046904Y-101346780D01*
X91046904Y-101346780D02*
X90999285Y-101394400D01*
X90999285Y-101394400D02*
X90904047Y-101442019D01*
X90904047Y-101442019D02*
X90618333Y-101442019D01*
X90618333Y-101442019D02*
X90523095Y-101394400D01*
X90523095Y-101394400D02*
X90475476Y-101346780D01*
X91427857Y-100442019D02*
X92094523Y-100442019D01*
X92094523Y-100442019D02*
X91665952Y-101442019D01*
%TO.C,R8*%
X84392619Y-126206666D02*
X83916428Y-126539999D01*
X84392619Y-126778094D02*
X83392619Y-126778094D01*
X83392619Y-126778094D02*
X83392619Y-126397142D01*
X83392619Y-126397142D02*
X83440238Y-126301904D01*
X83440238Y-126301904D02*
X83487857Y-126254285D01*
X83487857Y-126254285D02*
X83583095Y-126206666D01*
X83583095Y-126206666D02*
X83725952Y-126206666D01*
X83725952Y-126206666D02*
X83821190Y-126254285D01*
X83821190Y-126254285D02*
X83868809Y-126301904D01*
X83868809Y-126301904D02*
X83916428Y-126397142D01*
X83916428Y-126397142D02*
X83916428Y-126778094D01*
X83821190Y-125635237D02*
X83773571Y-125730475D01*
X83773571Y-125730475D02*
X83725952Y-125778094D01*
X83725952Y-125778094D02*
X83630714Y-125825713D01*
X83630714Y-125825713D02*
X83583095Y-125825713D01*
X83583095Y-125825713D02*
X83487857Y-125778094D01*
X83487857Y-125778094D02*
X83440238Y-125730475D01*
X83440238Y-125730475D02*
X83392619Y-125635237D01*
X83392619Y-125635237D02*
X83392619Y-125444761D01*
X83392619Y-125444761D02*
X83440238Y-125349523D01*
X83440238Y-125349523D02*
X83487857Y-125301904D01*
X83487857Y-125301904D02*
X83583095Y-125254285D01*
X83583095Y-125254285D02*
X83630714Y-125254285D01*
X83630714Y-125254285D02*
X83725952Y-125301904D01*
X83725952Y-125301904D02*
X83773571Y-125349523D01*
X83773571Y-125349523D02*
X83821190Y-125444761D01*
X83821190Y-125444761D02*
X83821190Y-125635237D01*
X83821190Y-125635237D02*
X83868809Y-125730475D01*
X83868809Y-125730475D02*
X83916428Y-125778094D01*
X83916428Y-125778094D02*
X84011666Y-125825713D01*
X84011666Y-125825713D02*
X84202142Y-125825713D01*
X84202142Y-125825713D02*
X84297380Y-125778094D01*
X84297380Y-125778094D02*
X84345000Y-125730475D01*
X84345000Y-125730475D02*
X84392619Y-125635237D01*
X84392619Y-125635237D02*
X84392619Y-125444761D01*
X84392619Y-125444761D02*
X84345000Y-125349523D01*
X84345000Y-125349523D02*
X84297380Y-125301904D01*
X84297380Y-125301904D02*
X84202142Y-125254285D01*
X84202142Y-125254285D02*
X84011666Y-125254285D01*
X84011666Y-125254285D02*
X83916428Y-125301904D01*
X83916428Y-125301904D02*
X83868809Y-125349523D01*
X83868809Y-125349523D02*
X83821190Y-125444761D01*
D12*
%TO.C,C43*%
X103775200Y-80436852D02*
X103775200Y-79914348D01*
X105245200Y-80436852D02*
X105245200Y-79914348D01*
%TO.C,C19*%
X116463836Y-103725000D02*
X116248164Y-103725000D01*
X116463836Y-103005000D02*
X116248164Y-103005000D01*
D13*
%TO.C,U8*%
X80317800Y-83200000D02*
X84737800Y-83200000D01*
X80337800Y-88200000D02*
X80317800Y-83200000D01*
X84737800Y-83200000D02*
X84737800Y-88200000D01*
X84737800Y-88200000D02*
X80337800Y-88200000D01*
D14*
X78653099Y-83250000D02*
G75*
G03*
X78653099Y-83250000I-155299J0D01*
G01*
D12*
%TO.C,C7*%
X100180000Y-114522164D02*
X100180000Y-114737836D01*
X99460000Y-114522164D02*
X99460000Y-114737836D01*
%TO.C,R7*%
X80695000Y-126307641D02*
X80695000Y-126000359D01*
X81455000Y-126307641D02*
X81455000Y-126000359D01*
%TO.C,R13*%
X88772300Y-75946359D02*
X88772300Y-76253641D01*
X88012300Y-75946359D02*
X88012300Y-76253641D01*
%TO.C,C1*%
X115357836Y-128170000D02*
X115142164Y-128170000D01*
X115357836Y-127450000D02*
X115142164Y-127450000D01*
%TO.C,C41*%
X96538748Y-74965000D02*
X97061252Y-74965000D01*
X96538748Y-76435000D02*
X97061252Y-76435000D01*
%TO.C,C3*%
X114547836Y-108150000D02*
X114332164Y-108150000D01*
X114547836Y-107430000D02*
X114332164Y-107430000D01*
%TO.C,C38*%
X102762600Y-77778148D02*
X102762600Y-78300652D01*
X101292600Y-77778148D02*
X101292600Y-78300652D01*
%TO.C,TP35*%
X114450000Y-92500000D02*
G75*
G03*
X114450000Y-92500000I-950000J0D01*
G01*
%TO.C,TP5*%
X112390000Y-130160000D02*
G75*
G03*
X112390000Y-130160000I-950000J0D01*
G01*
%TO.C,C25*%
X105900000Y-130132164D02*
X105900000Y-130347836D01*
X105180000Y-130132164D02*
X105180000Y-130347836D01*
%TO.C,TP46*%
X90380000Y-122437000D02*
G75*
G03*
X90380000Y-122437000I-950000J0D01*
G01*
%TO.C,C45*%
X90038748Y-77565000D02*
X90561252Y-77565000D01*
X90038748Y-79035000D02*
X90561252Y-79035000D01*
%TO.C,TP47*%
X88050000Y-123987000D02*
G75*
G03*
X88050000Y-123987000I-950000J0D01*
G01*
%TO.C,TP16*%
X86520000Y-139110000D02*
G75*
G03*
X86520000Y-139110000I-950000J0D01*
G01*
%TO.C,TP15*%
X85640000Y-143470000D02*
G75*
G03*
X85640000Y-143470000I-950000J0D01*
G01*
%TO.C,U5*%
X93753000Y-127748000D02*
X91953000Y-127748000D01*
X93753000Y-127748000D02*
X94553000Y-127748000D01*
X93753000Y-130868000D02*
X92953000Y-130868000D01*
X93753000Y-130868000D02*
X94553000Y-130868000D01*
%TO.C,U6*%
X102320000Y-128680000D02*
X100520000Y-128680000D01*
X102320000Y-128680000D02*
X103120000Y-128680000D01*
X102320000Y-131800000D02*
X101520000Y-131800000D01*
X102320000Y-131800000D02*
X103120000Y-131800000D01*
%TO.C,C4*%
X108845000Y-122210164D02*
X108845000Y-122425836D01*
X108125000Y-122210164D02*
X108125000Y-122425836D01*
D10*
%TO.C,U7*%
X83180000Y-134680000D02*
X83180000Y-137680000D01*
X80180000Y-134680000D02*
X83180000Y-134680000D01*
X83180000Y-137680000D02*
X80180000Y-137680000D01*
X80180000Y-137680000D02*
X80180000Y-134680000D01*
D15*
X83187082Y-133175835D02*
G75*
G03*
X83187082Y-133175835I-127082J0D01*
G01*
D12*
%TO.C,C12*%
X99407836Y-104600000D02*
X99192164Y-104600000D01*
X99407836Y-103880000D02*
X99192164Y-103880000D01*
%TO.C,TP43*%
X88050000Y-117729000D02*
G75*
G03*
X88050000Y-117729000I-950000J0D01*
G01*
D11*
%TO.C,U2*%
X114672000Y-97515000D02*
X118172000Y-97515000D01*
X118172000Y-101015000D02*
X118172000Y-97515000D01*
X114672000Y-101015000D02*
X114672000Y-97515000D01*
X114672000Y-101015000D02*
X118172000Y-101015000D01*
D16*
X115772000Y-96580000D02*
G75*
G03*
X115772000Y-96580000I-100000J0D01*
G01*
D12*
%TO.C,R10*%
X92680000Y-75946359D02*
X92680000Y-76253641D01*
X91920000Y-75946359D02*
X91920000Y-76253641D01*
%TO.C,TP42*%
X88050000Y-107817000D02*
G75*
G03*
X88050000Y-107817000I-950000J0D01*
G01*
%TO.C,L1*%
X109600000Y-85200000D02*
X102600000Y-85200000D01*
X102600000Y-85200000D02*
X102600000Y-95200000D01*
X102600000Y-95200000D02*
X109600000Y-95200000D01*
X109600000Y-95200000D02*
X109600000Y-85200000D01*
%TO.C,R15*%
X90620000Y-76253641D02*
X90620000Y-75946359D01*
X91380000Y-76253641D02*
X91380000Y-75946359D01*
%TO.C,C15*%
X98117836Y-106400000D02*
X97902164Y-106400000D01*
X98117836Y-105680000D02*
X97902164Y-105680000D01*
%TO.C,R16*%
X85643641Y-106480000D02*
X85336359Y-106480000D01*
X85643641Y-105720000D02*
X85336359Y-105720000D01*
%TO.C,C32*%
X81843836Y-128173000D02*
X81628164Y-128173000D01*
X81843836Y-127453000D02*
X81628164Y-127453000D01*
%TO.C,C16*%
X103006000Y-122210164D02*
X103006000Y-122425836D01*
X102286000Y-122210164D02*
X102286000Y-122425836D01*
%TO.C,TP12*%
X83340000Y-121440000D02*
G75*
G03*
X83340000Y-121440000I-950000J0D01*
G01*
%TO.C,TP20*%
X107050000Y-122920000D02*
G75*
G03*
X107050000Y-122920000I-950000J0D01*
G01*
%TO.C,C18*%
X95766836Y-110041000D02*
X95551164Y-110041000D01*
X95766836Y-109321000D02*
X95551164Y-109321000D01*
%TO.C,C40*%
X94735000Y-76238748D02*
X94735000Y-76761252D01*
X93265000Y-76238748D02*
X93265000Y-76761252D01*
D10*
%TO.C,U10*%
X82700000Y-102100000D02*
X85700000Y-102100000D01*
X82700000Y-105100000D02*
X82700000Y-102100000D01*
X85700000Y-102100000D02*
X85700000Y-105100000D01*
X85700000Y-105100000D02*
X82700000Y-105100000D01*
D15*
X81322917Y-102220000D02*
G75*
G03*
X81322917Y-102220000I-127082J0D01*
G01*
D12*
%TO.C,TP36*%
X117820000Y-105550000D02*
G75*
G03*
X117820000Y-105550000I-950000J0D01*
G01*
%TO.C,C39*%
X105252164Y-76998600D02*
X105467836Y-76998600D01*
X105252164Y-77718600D02*
X105467836Y-77718600D01*
%TO.C,C35*%
X82307836Y-91360000D02*
X82092164Y-91360000D01*
X82307836Y-90640000D02*
X82092164Y-90640000D01*
%TO.C,C10*%
X110640000Y-114542164D02*
X110640000Y-114757836D01*
X109920000Y-114542164D02*
X109920000Y-114757836D01*
%TO.C,C11*%
X101730000Y-114512164D02*
X101730000Y-114727836D01*
X101010000Y-114512164D02*
X101010000Y-114727836D01*
%TO.C,R14*%
X89980000Y-75946359D02*
X89980000Y-76253641D01*
X89220000Y-75946359D02*
X89220000Y-76253641D01*
%TO.C,R11*%
X105204959Y-75789800D02*
X105512241Y-75789800D01*
X105204959Y-76549800D02*
X105512241Y-76549800D01*
%TO.C,TP6*%
X82450000Y-118000000D02*
G75*
G03*
X82450000Y-118000000I-950000J0D01*
G01*
%TO.C,C14*%
X98830000Y-121427836D02*
X98830000Y-121212164D01*
X99550000Y-121427836D02*
X99550000Y-121212164D01*
%TO.C,C13*%
X107860000Y-109975000D02*
X103340000Y-109975000D01*
X103340000Y-109975000D02*
X103340000Y-118210000D01*
X107860000Y-118210000D02*
X107860000Y-109975000D01*
%TO.C,TP11*%
X88530000Y-133890000D02*
G75*
G03*
X88530000Y-133890000I-950000J0D01*
G01*
%TO.C,Q2*%
X100331000Y-85338800D02*
X95231000Y-85338800D01*
X95231000Y-85338800D02*
X95231000Y-91438800D01*
X95231000Y-91438800D02*
X100331000Y-91438800D01*
X100331000Y-91438800D02*
X100331000Y-85338800D01*
D17*
X94991113Y-91758800D02*
G75*
G03*
X94991113Y-91758800I-140113J0D01*
G01*
D12*
%TO.C,TP1*%
X90380000Y-116237000D02*
G75*
G03*
X90380000Y-116237000I-950000J0D01*
G01*
%TO.C,C33*%
X82610000Y-130867836D02*
X82610000Y-130652164D01*
X83330000Y-130867836D02*
X83330000Y-130652164D01*
%TO.C,R2*%
X95996359Y-138100000D02*
X96303641Y-138100000D01*
X95996359Y-138860000D02*
X96303641Y-138860000D01*
%TO.C,TP3*%
X115360000Y-140150000D02*
G75*
G03*
X115360000Y-140150000I-950000J0D01*
G01*
%TO.C,TP41*%
X90450000Y-109437000D02*
G75*
G03*
X90450000Y-109437000I-950000J0D01*
G01*
%TO.C,TP38*%
X88050000Y-114600000D02*
G75*
G03*
X88050000Y-114600000I-950000J0D01*
G01*
%TO.C,TP44*%
X90380000Y-119277000D02*
G75*
G03*
X90380000Y-119277000I-950000J0D01*
G01*
%TO.C,C44*%
X86982164Y-100840000D02*
X87197836Y-100840000D01*
X86982164Y-101560000D02*
X87197836Y-101560000D01*
%TO.C,U9*%
X99946291Y-77800000D02*
X96946291Y-77800000D01*
X96946291Y-77800000D02*
X96946291Y-80800000D01*
X96946291Y-80800000D02*
X99946291Y-80800000D01*
X99946291Y-80800000D02*
X99946291Y-77800000D01*
D18*
X99919782Y-77150000D02*
G75*
G03*
X99919782Y-77150000I-153491J0D01*
G01*
D12*
%TO.C,TP34*%
X114450000Y-89900000D02*
G75*
G03*
X114450000Y-89900000I-950000J0D01*
G01*
%TO.C,C22*%
X93625164Y-131458000D02*
X93840836Y-131458000D01*
X93625164Y-132178000D02*
X93840836Y-132178000D01*
%TO.C,TP39*%
X90410000Y-113137000D02*
G75*
G03*
X90410000Y-113137000I-950000J0D01*
G01*
%TO.C,C6*%
X113247836Y-106390000D02*
X113032164Y-106390000D01*
X113247836Y-105670000D02*
X113032164Y-105670000D01*
D11*
%TO.C,C46*%
X104201000Y-99318800D02*
X104201000Y-96518800D01*
X104201000Y-99318800D02*
X100701000Y-99318800D01*
X104201000Y-96518800D02*
X100701000Y-96518800D01*
X100701000Y-99318800D02*
X100701000Y-96518800D01*
D12*
%TO.C,Q1*%
X89269287Y-91394964D02*
X94369287Y-91394964D01*
X94369287Y-91394964D02*
X94369287Y-85294964D01*
X94369287Y-85294964D02*
X89269287Y-85294964D01*
X89269287Y-85294964D02*
X89269287Y-91394964D01*
D17*
X94889400Y-84974964D02*
G75*
G03*
X94889400Y-84974964I-140113J0D01*
G01*
D12*
%TO.C,R17*%
X82426359Y-105720000D02*
X82733641Y-105720000D01*
X82426359Y-106480000D02*
X82733641Y-106480000D01*
%TO.C,C42*%
X97469764Y-82440000D02*
X97685436Y-82440000D01*
X97469764Y-83160000D02*
X97685436Y-83160000D01*
%TO.C,TP7*%
X116510000Y-121710000D02*
G75*
G03*
X116510000Y-121710000I-950000J0D01*
G01*
%TO.C,C34*%
X93669748Y-92888800D02*
X95092252Y-92888800D01*
X93669748Y-95608800D02*
X95092252Y-95608800D01*
%TO.C,TP40*%
X88130000Y-111047000D02*
G75*
G03*
X88130000Y-111047000I-950000J0D01*
G01*
%TO.C,TP4*%
X117990000Y-140190000D02*
G75*
G03*
X117990000Y-140190000I-950000J0D01*
G01*
%TO.C,U1*%
X113940000Y-126620000D02*
X116440000Y-126620000D01*
X116440000Y-126620000D02*
X116440000Y-123420000D01*
X116440000Y-123420000D02*
X113940000Y-123420000D01*
X113940000Y-123420000D02*
X113940000Y-126620000D01*
D19*
X117356590Y-126780000D02*
G75*
G03*
X117356590Y-126780000I-156590J0D01*
G01*
D12*
%TO.C,TP13*%
X99423000Y-127736000D02*
G75*
G03*
X99423000Y-127736000I-950000J0D01*
G01*
%TO.C,R12*%
X99423959Y-82420000D02*
X99731241Y-82420000D01*
X99423959Y-83180000D02*
X99731241Y-83180000D01*
%TO.C,R4*%
X107531241Y-82425800D02*
X107223959Y-82425800D01*
X107531241Y-81665800D02*
X107223959Y-81665800D01*
%TO.C,C2*%
X115647836Y-109984000D02*
X115432164Y-109984000D01*
X115647836Y-109264000D02*
X115432164Y-109264000D01*
%TO.C,C23*%
X102102164Y-132250000D02*
X102317836Y-132250000D01*
X102102164Y-132970000D02*
X102317836Y-132970000D01*
%TO.C,C5*%
X111800000Y-121427836D02*
X111800000Y-121212164D01*
X112520000Y-121427836D02*
X112520000Y-121212164D01*
%TO.C,TP9*%
X123450000Y-113430000D02*
G75*
G03*
X123450000Y-113430000I-950000J0D01*
G01*
%TO.C,R9*%
X80320000Y-131853641D02*
X80320000Y-131546359D01*
X81080000Y-131853641D02*
X81080000Y-131546359D01*
%TO.C,C17*%
X96837836Y-108140000D02*
X96622164Y-108140000D01*
X96837836Y-107420000D02*
X96622164Y-107420000D01*
%TO.C,C8*%
X111917836Y-104600000D02*
X111702164Y-104600000D01*
X111917836Y-103880000D02*
X111702164Y-103880000D01*
%TO.C,C29*%
X96012164Y-137050000D02*
X96227836Y-137050000D01*
X96012164Y-137770000D02*
X96227836Y-137770000D01*
%TO.C,TP37*%
X119560000Y-107630000D02*
G75*
G03*
X119560000Y-107630000I-950000J0D01*
G01*
%TO.C,TP14*%
X108780000Y-129200000D02*
G75*
G03*
X108780000Y-129200000I-950000J0D01*
G01*
%TO.C,TP45*%
X88050000Y-120858000D02*
G75*
G03*
X88050000Y-120858000I-950000J0D01*
G01*
%TO.C,TP2*%
X112840000Y-140150000D02*
G75*
G03*
X112840000Y-140150000I-950000J0D01*
G01*
%TO.C,C20*%
X114209836Y-96715000D02*
X113994164Y-96715000D01*
X114209836Y-95995000D02*
X113994164Y-95995000D01*
%TO.C,C47*%
X103122252Y-101798800D02*
X101699748Y-101798800D01*
X103122252Y-99978800D02*
X101699748Y-99978800D01*
%TO.C,C24*%
X97123000Y-129010164D02*
X97123000Y-129225836D01*
X96403000Y-129010164D02*
X96403000Y-129225836D01*
%TO.C,C36*%
X93629748Y-96298800D02*
X95052252Y-96298800D01*
X93629748Y-99018800D02*
X95052252Y-99018800D01*
%TO.C,C9*%
X112230000Y-114602164D02*
X112230000Y-114817836D01*
X111510000Y-114602164D02*
X111510000Y-114817836D01*
%TO.C,C37*%
X93629748Y-99658800D02*
X95052252Y-99658800D01*
X93629748Y-102378800D02*
X95052252Y-102378800D01*
%TO.C,R8*%
X82850000Y-126000359D02*
X82850000Y-126307641D01*
X82090000Y-126000359D02*
X82090000Y-126307641D01*
%TD*%
%LPC*%
D20*
%TO.C,C43*%
X104510200Y-81125600D03*
X104510200Y-79225600D03*
%TD*%
D21*
%TO.C,C19*%
X116836000Y-103365000D03*
X115876000Y-103365000D03*
%TD*%
D22*
%TO.C,U8*%
X79675300Y-83425000D03*
X79675300Y-84075000D03*
X79675300Y-84725000D03*
X79675300Y-85375000D03*
X79675300Y-86025000D03*
X79675300Y-86675000D03*
X79675300Y-87325000D03*
X79675300Y-87975000D03*
X85400300Y-87975000D03*
X85400300Y-87325000D03*
X85400300Y-86675000D03*
X85400300Y-86025000D03*
X85400300Y-85375000D03*
X85400300Y-84725000D03*
X85400300Y-84075000D03*
X85400300Y-83425000D03*
%TD*%
D23*
%TO.C,C7*%
X99820000Y-114150000D03*
X99820000Y-115110000D03*
%TD*%
D24*
%TO.C,R7*%
X81075000Y-126664000D03*
X81075000Y-125644000D03*
%TD*%
D25*
%TO.C,R13*%
X88392300Y-75590000D03*
X88392300Y-76610000D03*
%TD*%
D21*
%TO.C,C1*%
X115730000Y-127810000D03*
X114770000Y-127810000D03*
%TD*%
D26*
%TO.C,C41*%
X95850000Y-75700000D03*
X97750000Y-75700000D03*
%TD*%
D21*
%TO.C,C3*%
X114920000Y-107790000D03*
X113960000Y-107790000D03*
%TD*%
D27*
%TO.C,H6*%
X84764000Y-94984000D03*
%TD*%
D28*
%TO.C,C38*%
X102027600Y-77089400D03*
X102027600Y-78989400D03*
%TD*%
D29*
%TO.C,TP35*%
X113500000Y-92500000D03*
%TD*%
%TO.C,TP5*%
X111440000Y-130160000D03*
%TD*%
D23*
%TO.C,C25*%
X105540000Y-129760000D03*
X105540000Y-130720000D03*
%TD*%
D29*
%TO.C,TP46*%
X89430000Y-122437000D03*
%TD*%
D26*
%TO.C,C45*%
X89350000Y-78300000D03*
X91250000Y-78300000D03*
%TD*%
D29*
%TO.C,TP47*%
X87100000Y-123987000D03*
%TD*%
%TO.C,TP16*%
X85570000Y-139110000D03*
%TD*%
%TO.C,TP15*%
X84690000Y-143470000D03*
%TD*%
D30*
%TO.C,U5*%
X92615500Y-128358000D03*
X92615500Y-129308000D03*
X92615500Y-130258000D03*
X94890500Y-130258000D03*
X94890500Y-128358000D03*
%TD*%
%TO.C,U6*%
X101182500Y-129290000D03*
X101182500Y-130240000D03*
X101182500Y-131190000D03*
X103457500Y-131190000D03*
X103457500Y-129290000D03*
%TD*%
D27*
%TO.C,H5*%
X126130000Y-136350000D03*
%TD*%
D23*
%TO.C,C4*%
X108485000Y-121838000D03*
X108485000Y-122798000D03*
%TD*%
D31*
%TO.C,U7*%
X82655000Y-134030000D03*
X82005000Y-134030000D03*
X81355000Y-134030000D03*
X80705000Y-134030000D03*
X80705000Y-138330000D03*
X81355000Y-138330000D03*
X82005000Y-138330000D03*
X82655000Y-138330000D03*
%TD*%
D21*
%TO.C,C12*%
X99780000Y-104240000D03*
X98820000Y-104240000D03*
%TD*%
D29*
%TO.C,TP43*%
X87100000Y-117729000D03*
%TD*%
D32*
%TO.C,U2*%
X115672000Y-97580000D03*
D33*
X114737000Y-98265000D03*
X114737000Y-98765000D03*
X114737000Y-99265000D03*
X114737000Y-99765000D03*
X114737000Y-100265000D03*
D32*
X115672000Y-100950000D03*
X117172000Y-100950000D03*
D33*
X118107000Y-100265000D03*
X118107000Y-99765000D03*
X118107000Y-99265000D03*
X118107000Y-98765000D03*
X118107000Y-98265000D03*
D32*
X117172000Y-97580000D03*
D34*
X116422000Y-99265000D03*
%TD*%
D25*
%TO.C,R10*%
X92300000Y-75590000D03*
X92300000Y-76610000D03*
%TD*%
D29*
%TO.C,TP42*%
X87100000Y-107817000D03*
%TD*%
D35*
%TO.C,L1*%
X106100000Y-86040000D03*
X106100000Y-94360000D03*
%TD*%
D24*
%TO.C,R15*%
X91000000Y-76610000D03*
X91000000Y-75590000D03*
%TD*%
D21*
%TO.C,C15*%
X98490000Y-106040000D03*
X97530000Y-106040000D03*
%TD*%
D36*
%TO.C,H4*%
X79987000Y-50603000D03*
%TD*%
D37*
%TO.C,R16*%
X86000000Y-106100000D03*
X84980000Y-106100000D03*
%TD*%
D21*
%TO.C,C32*%
X82216000Y-127813000D03*
X81256000Y-127813000D03*
%TD*%
D23*
%TO.C,C16*%
X102646000Y-121838000D03*
X102646000Y-122798000D03*
%TD*%
D36*
%TO.C,H3*%
X130980000Y-144470000D03*
%TD*%
D29*
%TO.C,TP12*%
X82390000Y-121440000D03*
%TD*%
%TO.C,TP20*%
X106100000Y-122920000D03*
%TD*%
D21*
%TO.C,C18*%
X96139000Y-109681000D03*
X95179000Y-109681000D03*
%TD*%
D28*
%TO.C,C40*%
X94000000Y-75550000D03*
X94000000Y-77450000D03*
%TD*%
D38*
%TO.C,U10*%
X82050000Y-102625000D03*
X82050000Y-103275000D03*
X82050000Y-103925000D03*
X82050000Y-104575000D03*
X86350000Y-104575000D03*
X86350000Y-103925000D03*
X86350000Y-103275000D03*
X86350000Y-102625000D03*
%TD*%
D29*
%TO.C,TP36*%
X116870000Y-105550000D03*
%TD*%
D39*
%TO.C,C39*%
X104880000Y-77358600D03*
X105840000Y-77358600D03*
%TD*%
D21*
%TO.C,C35*%
X82680000Y-91000000D03*
X81720000Y-91000000D03*
%TD*%
D23*
%TO.C,C10*%
X110280000Y-114170000D03*
X110280000Y-115130000D03*
%TD*%
%TO.C,C11*%
X101370000Y-114140000D03*
X101370000Y-115100000D03*
%TD*%
D25*
%TO.C,R14*%
X89600000Y-75590000D03*
X89600000Y-76610000D03*
%TD*%
D40*
%TO.C,R11*%
X104848600Y-76169800D03*
X105868600Y-76169800D03*
%TD*%
D29*
%TO.C,TP6*%
X81500000Y-118000000D03*
%TD*%
D41*
%TO.C,C14*%
X99190000Y-121800000D03*
X99190000Y-120840000D03*
%TD*%
D36*
%TO.C,H2*%
X130683000Y-50604000D03*
%TD*%
D42*
%TO.C,C13*%
X105600000Y-111360000D03*
X105600000Y-117760000D03*
%TD*%
D36*
%TO.C,H1*%
X80020000Y-144380000D03*
%TD*%
D29*
%TO.C,TP11*%
X87580000Y-133890000D03*
%TD*%
D43*
%TO.C,Q2*%
X95851000Y-91141300D03*
X97149300Y-91141300D03*
X98412700Y-91141300D03*
X99711000Y-91141300D03*
D44*
X100061000Y-90236300D03*
%TD*%
D29*
%TO.C,TP1*%
X89430000Y-116237000D03*
%TD*%
D41*
%TO.C,C33*%
X82970000Y-131240000D03*
X82970000Y-130280000D03*
%TD*%
D40*
%TO.C,R2*%
X95640000Y-138480000D03*
X96660000Y-138480000D03*
%TD*%
D29*
%TO.C,TP3*%
X114410000Y-140150000D03*
%TD*%
%TO.C,TP41*%
X89500000Y-109437000D03*
%TD*%
%TO.C,TP38*%
X87100000Y-114600000D03*
%TD*%
%TO.C,TP44*%
X89430000Y-119277000D03*
%TD*%
D39*
%TO.C,C44*%
X86610000Y-101200000D03*
X87570000Y-101200000D03*
%TD*%
D45*
%TO.C,U9*%
X99446291Y-77900000D03*
X98946291Y-77900000D03*
X98416291Y-77900000D03*
X97946291Y-77900000D03*
X97446291Y-77900000D03*
X97446291Y-80700000D03*
X97946291Y-80700000D03*
X98446291Y-80700000D03*
X98946291Y-80700000D03*
X99446291Y-80700000D03*
D46*
X98446291Y-78725000D03*
X99396291Y-79300000D03*
D47*
X98446291Y-79300000D03*
D46*
X97496291Y-79300000D03*
X98446291Y-79875000D03*
%TD*%
D29*
%TO.C,TP34*%
X113500000Y-89900000D03*
%TD*%
D39*
%TO.C,C22*%
X93253000Y-131818000D03*
X94213000Y-131818000D03*
%TD*%
D29*
%TO.C,TP39*%
X89460000Y-113137000D03*
%TD*%
D21*
%TO.C,C6*%
X113620000Y-106030000D03*
X112660000Y-106030000D03*
%TD*%
D48*
%TO.C,C46*%
X103951000Y-97918800D03*
X100951000Y-97918800D03*
%TD*%
D43*
%TO.C,Q1*%
X93749287Y-85592464D03*
X92450987Y-85592464D03*
X91187587Y-85592464D03*
X89889287Y-85592464D03*
D49*
X89539287Y-86497464D03*
%TD*%
D40*
%TO.C,R17*%
X82070000Y-106100000D03*
X83090000Y-106100000D03*
%TD*%
D39*
%TO.C,C42*%
X97097600Y-82800000D03*
X98057600Y-82800000D03*
%TD*%
D29*
%TO.C,TP7*%
X115560000Y-121710000D03*
%TD*%
D50*
%TO.C,C34*%
X92906000Y-94248800D03*
X95856000Y-94248800D03*
%TD*%
D29*
%TO.C,TP40*%
X87180000Y-111047000D03*
%TD*%
%TO.C,TP4*%
X117040000Y-140190000D03*
%TD*%
D51*
%TO.C,U1*%
X116140000Y-126170000D03*
X116140000Y-123870000D03*
X114240000Y-123870000D03*
X114240000Y-126170000D03*
%TD*%
D29*
%TO.C,TP13*%
X98473000Y-127736000D03*
%TD*%
D40*
%TO.C,R12*%
X99067600Y-82800000D03*
X100087600Y-82800000D03*
%TD*%
D37*
%TO.C,R4*%
X107887600Y-82045800D03*
X106867600Y-82045800D03*
%TD*%
D21*
%TO.C,C2*%
X116020000Y-109624000D03*
X115060000Y-109624000D03*
%TD*%
D39*
%TO.C,C23*%
X101730000Y-132610000D03*
X102690000Y-132610000D03*
%TD*%
D41*
%TO.C,C5*%
X112160000Y-121800000D03*
X112160000Y-120840000D03*
%TD*%
D29*
%TO.C,TP9*%
X122500000Y-113430000D03*
%TD*%
D24*
%TO.C,R9*%
X80700000Y-132210000D03*
X80700000Y-131190000D03*
%TD*%
D21*
%TO.C,C17*%
X97210000Y-107780000D03*
X96250000Y-107780000D03*
%TD*%
%TO.C,C8*%
X112290000Y-104240000D03*
X111330000Y-104240000D03*
%TD*%
D39*
%TO.C,C29*%
X95640000Y-137410000D03*
X96600000Y-137410000D03*
%TD*%
D29*
%TO.C,TP37*%
X118610000Y-107630000D03*
%TD*%
%TO.C,TP14*%
X107830000Y-129200000D03*
%TD*%
%TO.C,TP45*%
X87100000Y-120858000D03*
%TD*%
%TO.C,TP2*%
X111890000Y-140150000D03*
%TD*%
D21*
%TO.C,C20*%
X114582000Y-96355000D03*
X113622000Y-96355000D03*
%TD*%
D52*
%TO.C,C47*%
X103886000Y-100888800D03*
X100936000Y-100888800D03*
%TD*%
D23*
%TO.C,C24*%
X96763000Y-128638000D03*
X96763000Y-129598000D03*
%TD*%
D50*
%TO.C,C36*%
X92866000Y-97658800D03*
X95816000Y-97658800D03*
%TD*%
D23*
%TO.C,C9*%
X111870000Y-114230000D03*
X111870000Y-115190000D03*
%TD*%
D50*
%TO.C,C37*%
X92866000Y-101018800D03*
X95816000Y-101018800D03*
%TD*%
D25*
%TO.C,R8*%
X82470000Y-125644000D03*
X82470000Y-126664000D03*
%TD*%
D53*
%TO.C,J4*%
X94701000Y-145782001D03*
D54*
X89621000Y-143622000D03*
X92161000Y-143622000D03*
X94701000Y-143622000D03*
X97241000Y-143622000D03*
%TD*%
D55*
%TO.C,J7*%
X83099400Y-79900000D03*
D56*
X85639400Y-79900000D03*
%TD*%
D55*
%TO.C,J3*%
X109350000Y-143580000D03*
D56*
X111890000Y-143580000D03*
X114430000Y-143580000D03*
X116970000Y-143580000D03*
X119510000Y-143580000D03*
%TD*%
D57*
%TO.C,U3*%
X86060000Y-72360000D03*
X88600000Y-72360000D03*
X91140000Y-72360000D03*
X93680000Y-72360000D03*
X96220000Y-72360000D03*
X98760000Y-72360000D03*
X101300000Y-72360000D03*
X103840000Y-72360000D03*
X106380000Y-72360000D03*
X108920000Y-72360000D03*
X111460000Y-72360000D03*
X114000000Y-72360000D03*
X114000000Y-49440000D03*
X111460000Y-49440000D03*
X108920000Y-49440000D03*
X106380000Y-49440000D03*
X103840000Y-49440000D03*
X101300000Y-49440000D03*
X98760000Y-49440000D03*
X96220000Y-49440000D03*
X93680000Y-49440000D03*
X91140000Y-49440000D03*
X88600000Y-49440000D03*
X86060000Y-49440000D03*
%TD*%
D58*
%TO.C,DC1*%
X129609000Y-86336000D03*
D59*
X130569000Y-80206000D03*
D60*
X123359000Y-81136000D03*
X123359000Y-86336000D03*
D61*
X120109000Y-86336000D03*
D59*
X130569000Y-90066000D03*
%TD*%
M02*
