G04 #@! TF.GenerationSoftware,KiCad,Pcbnew,7.0.1*
G04 #@! TF.CreationDate,2024-03-15T23:25:05+01:00*
G04 #@! TF.ProjectId,NerdAxe_ultra,4e657264-4178-4655-9f75-6c7472612e6b,rev?*
G04 #@! TF.SameCoordinates,Original*
G04 #@! TF.FileFunction,Soldermask,Bot*
G04 #@! TF.FilePolarity,Negative*
%FSLAX46Y46*%
G04 Gerber Fmt 4.6, Leading zero omitted, Abs format (unit mm)*
G04 Created by KiCad (PCBNEW 7.0.1) date 2024-03-15 23:25:05*
%MOMM*%
%LPD*%
G01*
G04 APERTURE LIST*
G04 Aperture macros list*
%AMRoundRect*
0 Rectangle with rounded corners*
0 $1 Rounding radius*
0 $2 $3 $4 $5 $6 $7 $8 $9 X,Y pos of 4 corners*
0 Add a 4 corners polygon primitive as box body*
4,1,4,$2,$3,$4,$5,$6,$7,$8,$9,$2,$3,0*
0 Add four circle primitives for the rounded corners*
1,1,$1+$1,$2,$3*
1,1,$1+$1,$4,$5*
1,1,$1+$1,$6,$7*
1,1,$1+$1,$8,$9*
0 Add four rect primitives between the rounded corners*
20,1,$1+$1,$2,$3,$4,$5,0*
20,1,$1+$1,$4,$5,$6,$7,0*
20,1,$1+$1,$6,$7,$8,$9,0*
20,1,$1+$1,$8,$9,$2,$3,0*%
G04 Aperture macros list end*
%ADD10C,3.500000*%
%ADD11C,0.800000*%
%ADD12C,6.000000*%
%ADD13C,0.400000*%
%ADD14C,1.295400*%
%ADD15C,1.574800*%
%ADD16C,1.700000*%
%ADD17C,2.000000*%
%ADD18R,0.792000X0.221000*%
%ADD19R,4.277000X1.810000*%
%ADD20R,4.277000X4.530000*%
%ADD21RoundRect,0.250000X-0.550000X1.500000X-0.550000X-1.500000X0.550000X-1.500000X0.550000X1.500000X0*%
%ADD22C,1.600000*%
%ADD23C,1.800000*%
%ADD24RoundRect,0.250000X-0.750000X0.750000X-0.750000X-0.750000X0.750000X-0.750000X0.750000X0.750000X0*%
G04 APERTURE END LIST*
D10*
X84764000Y-97095200D03*
D11*
X76250000Y-143830990D03*
X76909010Y-142240000D03*
X76909010Y-145421980D03*
X78500000Y-141580990D03*
D12*
X78500000Y-143830990D03*
D11*
X78500000Y-146080990D03*
X80090990Y-142240000D03*
X80090990Y-145421980D03*
X80750000Y-143830990D03*
D10*
X126130000Y-136350000D03*
D11*
X130250000Y-143728000D03*
X130909010Y-142137010D03*
X130909010Y-145318990D03*
X132500000Y-141478000D03*
D12*
X132500000Y-143728000D03*
D11*
X132500000Y-145978000D03*
X134090990Y-142137010D03*
X134090990Y-145318990D03*
X134750000Y-143728000D03*
X76250000Y-51054000D03*
X76909010Y-49463010D03*
X76909010Y-52644990D03*
X78500000Y-48804000D03*
D12*
X78500000Y-51054000D03*
D11*
X78500000Y-53304000D03*
X80090990Y-49463010D03*
X80090990Y-52644990D03*
X80750000Y-51054000D03*
X130250000Y-51120990D03*
X130909010Y-49530000D03*
X130909010Y-52711980D03*
X132500000Y-48870990D03*
D12*
X132500000Y-51120990D03*
D11*
X132500000Y-53370990D03*
X134090990Y-49530000D03*
X134090990Y-52711980D03*
X134750000Y-51120990D03*
D13*
X98446291Y-80836200D03*
X99396291Y-81411200D03*
X97496291Y-81411200D03*
X98446291Y-81986200D03*
D14*
X101462400Y-145400852D03*
D15*
X96382400Y-143240851D03*
X98922400Y-143240851D03*
X101462400Y-143240851D03*
X104002400Y-143240851D03*
D16*
X84250000Y-71942000D03*
X86790000Y-71942000D03*
X89330000Y-71942000D03*
X91870000Y-71942000D03*
X94410000Y-71942000D03*
X96950000Y-71942000D03*
X99490000Y-71942000D03*
X102030000Y-71942000D03*
X104570000Y-71942000D03*
X107110000Y-71942000D03*
X109650000Y-71942000D03*
X112190000Y-71942000D03*
X112190000Y-49022000D03*
X109650000Y-49022000D03*
X107110000Y-49022000D03*
X104570000Y-49022000D03*
X102030000Y-49022000D03*
X99490000Y-49022000D03*
X96950000Y-49022000D03*
X94410000Y-49022000D03*
X91870000Y-49022000D03*
X89330000Y-49022000D03*
X86790000Y-49022000D03*
X84250000Y-49022000D03*
D17*
X132588000Y-137795000D03*
D18*
X108528000Y-112805000D03*
X108528000Y-113307000D03*
X108528000Y-113809000D03*
X108528000Y-114311000D03*
X108528000Y-114813000D03*
X108528000Y-115315000D03*
X108528000Y-115817000D03*
X108528000Y-116319000D03*
X108528000Y-116821000D03*
X108528000Y-117323000D03*
X108528000Y-117825000D03*
X108528000Y-118327000D03*
X108528000Y-118829000D03*
X108528000Y-119331000D03*
X102696000Y-119318000D03*
X102696000Y-118818000D03*
X102696000Y-118318000D03*
X102696000Y-117818000D03*
X102696000Y-117318000D03*
X102696000Y-116821000D03*
X102696000Y-116318000D03*
X102696000Y-115817000D03*
X102696000Y-115315000D03*
X102696000Y-114813000D03*
X102696000Y-114311000D03*
X102696000Y-113818000D03*
X102696000Y-113307000D03*
X102696000Y-112818000D03*
D19*
X105612000Y-113600000D03*
D20*
X105612000Y-117176000D03*
D17*
X78486000Y-57785000D03*
D21*
X90170000Y-139413000D03*
X90170000Y-144813000D03*
D22*
X131000000Y-83500000D03*
D23*
X126500000Y-83500000D03*
D24*
X131000000Y-78000000D03*
X124850000Y-78000000D03*
X131000000Y-89000000D03*
X124850000Y-89000000D03*
D17*
X125603000Y-51054000D03*
X77851000Y-138176000D03*
M02*
