%TF.GenerationSoftware,KiCad,Pcbnew,7.0.1*%
%TF.CreationDate,2023-10-06T09:11:46+02:00*%
%TF.ProjectId,NerdAxe_ultra,4e657264-4178-4655-9f75-6c7472612e6b,rev?*%
%TF.SameCoordinates,Original*%
%TF.FileFunction,Soldermask,Top*%
%TF.FilePolarity,Negative*%
%FSLAX46Y46*%
G04 Gerber Fmt 4.6, Leading zero omitted, Abs format (unit mm)*
G04 Created by KiCad (PCBNEW 7.0.1) date 2023-10-06 09:11:46*
%MOMM*%
%LPD*%
G01*
G04 APERTURE LIST*
G04 Aperture macros list*
%AMRoundRect*
0 Rectangle with rounded corners*
0 $1 Rounding radius*
0 $2 $3 $4 $5 $6 $7 $8 $9 X,Y pos of 4 corners*
0 Add a 4 corners polygon primitive as box body*
4,1,4,$2,$3,$4,$5,$6,$7,$8,$9,$2,$3,0*
0 Add four circle primitives for the rounded corners*
1,1,$1+$1,$2,$3*
1,1,$1+$1,$4,$5*
1,1,$1+$1,$6,$7*
1,1,$1+$1,$8,$9*
0 Add four rect primitives between the rounded corners*
20,1,$1+$1,$2,$3,$4,$5,0*
20,1,$1+$1,$4,$5,$6,$7,0*
20,1,$1+$1,$6,$7,$8,$9,0*
20,1,$1+$1,$8,$9,$2,$3,0*%
%AMFreePoly0*
4,1,35,0.005000,-4.560000,0.003536,-4.563536,0.000000,-4.565000,-5.000000,-4.565000,-5.003536,-4.563536,-5.005000,-4.560000,-5.005000,-3.898000,-5.003536,-3.894464,-5.000000,-3.893000,-4.325000,-3.893000,-4.325000,-3.269700,-5.000000,-3.269700,-5.003536,-3.268236,-5.005000,-3.264700,-5.005000,-2.599700,-5.003536,-2.596164,-5.000000,-2.594700,-4.325000,-2.594700,-4.325000,-1.971400,-5.000000,-1.971400,
-5.003536,-1.969936,-5.005000,-1.966400,-5.005000,-1.301400,-5.003536,-1.297864,-5.000000,-1.296400,-4.325000,-1.296400,-4.325000,-0.673100,-5.000000,-0.673100,-5.003536,-0.671636,-5.005000,-0.668100,-5.005000,0.000000,-5.003536,0.003536,-5.000000,0.005000,0.005000,0.005000,0.005000,-4.560000,0.005000,-4.560000,$1*%
%AMFreePoly1*
4,1,45,-0.199646,1.700354,-0.199500,1.700000,-0.199500,1.200500,0.199500,1.200500,0.199500,1.700000,0.199646,1.700354,0.200000,1.700500,0.450000,1.700500,0.450354,1.700354,0.450500,1.700000,0.450500,1.200500,0.825000,1.200500,0.825354,1.200354,0.825500,1.200000,0.825500,-1.200000,0.825354,-1.200354,0.825000,-1.200500,0.450500,-1.200500,0.450500,-1.700000,0.450354,-1.700354,
0.450000,-1.700500,0.200000,-1.700500,0.199646,-1.700354,0.199500,-1.700000,0.199500,-1.200500,-0.199500,-1.200500,-0.199500,-1.700000,-0.199646,-1.700354,-0.200000,-1.700500,-0.450000,-1.700500,-0.450354,-1.700354,-0.450500,-1.700000,-0.450500,-1.200500,-0.825000,-1.200500,-0.825354,-1.200354,-0.825500,-1.200000,-0.825500,1.200000,-0.825354,1.200354,-0.825000,1.200500,-0.450500,1.200500,
-0.450500,1.700000,-0.450354,1.700354,-0.450000,1.700500,-0.200000,1.700500,-0.199646,1.700354,-0.199646,1.700354,$1*%
G04 Aperture macros list end*
%ADD10RoundRect,0.250000X0.475000X-0.250000X0.475000X0.250000X-0.475000X0.250000X-0.475000X-0.250000X0*%
%ADD11RoundRect,0.140000X0.140000X0.170000X-0.140000X0.170000X-0.140000X-0.170000X0.140000X-0.170000X0*%
%ADD12RoundRect,0.100000X-0.637500X-0.100000X0.637500X-0.100000X0.637500X0.100000X-0.637500X0.100000X0*%
%ADD13RoundRect,0.140000X-0.170000X0.140000X-0.170000X-0.140000X0.170000X-0.140000X0.170000X0.140000X0*%
%ADD14RoundRect,0.135000X0.185000X-0.135000X0.185000X0.135000X-0.185000X0.135000X-0.185000X-0.135000X0*%
%ADD15RoundRect,0.135000X-0.185000X0.135000X-0.185000X-0.135000X0.185000X-0.135000X0.185000X0.135000X0*%
%ADD16RoundRect,0.250000X-0.250000X-0.475000X0.250000X-0.475000X0.250000X0.475000X-0.250000X0.475000X0*%
%ADD17C,3.500000*%
%ADD18RoundRect,0.250000X-0.475000X0.250000X-0.475000X-0.250000X0.475000X-0.250000X0.475000X0.250000X0*%
%ADD19C,1.500000*%
%ADD20RoundRect,0.150000X-0.512500X-0.150000X0.512500X-0.150000X0.512500X0.150000X-0.512500X0.150000X0*%
%ADD21R,0.400000X1.100000*%
%ADD22RoundRect,0.007800X-0.122200X0.442200X-0.122200X-0.442200X0.122200X-0.442200X0.122200X0.442200X0*%
%ADD23RoundRect,0.007800X-0.442200X-0.122200X0.442200X-0.122200X0.442200X0.122200X-0.442200X0.122200X0*%
%ADD24R,2.050000X2.050000*%
%ADD25R,3.100000X2.000000*%
%ADD26C,2.200000*%
%ADD27RoundRect,0.135000X0.135000X0.185000X-0.135000X0.185000X-0.135000X-0.185000X0.135000X-0.185000X0*%
%ADD28R,1.100000X0.400000*%
%ADD29RoundRect,0.140000X-0.140000X-0.170000X0.140000X-0.170000X0.140000X0.170000X-0.140000X0.170000X0*%
%ADD30RoundRect,0.135000X-0.135000X-0.185000X0.135000X-0.185000X0.135000X0.185000X-0.135000X0.185000X0*%
%ADD31RoundRect,0.140000X0.170000X-0.140000X0.170000X0.140000X-0.170000X0.140000X-0.170000X-0.140000X0*%
%ADD32RoundRect,0.250000X-1.025000X0.875000X-1.025000X-0.875000X1.025000X-0.875000X1.025000X0.875000X0*%
%ADD33R,0.700000X0.800000*%
%ADD34FreePoly0,270.000000*%
%ADD35RoundRect,0.007874X-0.112126X0.292126X-0.112126X-0.292126X0.112126X-0.292126X0.112126X0.292126X0*%
%ADD36C,0.400000*%
%ADD37FreePoly1,270.000000*%
%ADD38R,1.600000X2.700000*%
%ADD39FreePoly0,90.000000*%
%ADD40RoundRect,0.250000X-0.325000X-1.100000X0.325000X-1.100000X0.325000X1.100000X-0.325000X1.100000X0*%
%ADD41R,1.100000X1.300000*%
%ADD42RoundRect,0.250000X0.325000X0.650000X-0.325000X0.650000X-0.325000X-0.650000X0.325000X-0.650000X0*%
%ADD43C,1.295400*%
%ADD44C,1.574800*%
%ADD45R,1.700000X1.700000*%
%ADD46O,1.700000X1.700000*%
%ADD47C,1.700000*%
%ADD48C,2.500000*%
%ADD49O,3.800000X1.200000*%
%ADD50O,2.500000X1.200000*%
%ADD51C,2.000000*%
G04 APERTURE END LIST*
D10*
%TO.C,C43*%
X104510200Y-81125600D03*
X104510200Y-79225600D03*
%TD*%
D11*
%TO.C,C19*%
X116836000Y-103365000D03*
X115876000Y-103365000D03*
%TD*%
D12*
%TO.C,U8*%
X79675300Y-83425000D03*
X79675300Y-84075000D03*
X79675300Y-84725000D03*
X79675300Y-85375000D03*
X79675300Y-86025000D03*
X79675300Y-86675000D03*
X79675300Y-87325000D03*
X79675300Y-87975000D03*
X85400300Y-87975000D03*
X85400300Y-87325000D03*
X85400300Y-86675000D03*
X85400300Y-86025000D03*
X85400300Y-85375000D03*
X85400300Y-84725000D03*
X85400300Y-84075000D03*
X85400300Y-83425000D03*
%TD*%
D13*
%TO.C,C7*%
X99820000Y-114150000D03*
X99820000Y-115110000D03*
%TD*%
D14*
%TO.C,R7*%
X81075000Y-126664000D03*
X81075000Y-125644000D03*
%TD*%
D15*
%TO.C,R13*%
X88392300Y-75590000D03*
X88392300Y-76610000D03*
%TD*%
D11*
%TO.C,C1*%
X115730000Y-127810000D03*
X114770000Y-127810000D03*
%TD*%
D16*
%TO.C,C41*%
X95850000Y-75700000D03*
X97750000Y-75700000D03*
%TD*%
D11*
%TO.C,C3*%
X114920000Y-107790000D03*
X113960000Y-107790000D03*
%TD*%
D17*
%TO.C,H6*%
X84764000Y-94984000D03*
%TD*%
D18*
%TO.C,C38*%
X102027600Y-77089400D03*
X102027600Y-78989400D03*
%TD*%
D19*
%TO.C,TP35*%
X113500000Y-92500000D03*
%TD*%
%TO.C,TP5*%
X111440000Y-130160000D03*
%TD*%
D13*
%TO.C,C25*%
X105540000Y-129760000D03*
X105540000Y-130720000D03*
%TD*%
D19*
%TO.C,TP46*%
X89430000Y-122437000D03*
%TD*%
D16*
%TO.C,C45*%
X89350000Y-78300000D03*
X91250000Y-78300000D03*
%TD*%
D19*
%TO.C,TP47*%
X87100000Y-123987000D03*
%TD*%
%TO.C,TP16*%
X85570000Y-139110000D03*
%TD*%
%TO.C,TP15*%
X84690000Y-143470000D03*
%TD*%
D20*
%TO.C,U5*%
X92615500Y-128358000D03*
X92615500Y-129308000D03*
X92615500Y-130258000D03*
X94890500Y-130258000D03*
X94890500Y-128358000D03*
%TD*%
%TO.C,U6*%
X101182500Y-129290000D03*
X101182500Y-130240000D03*
X101182500Y-131190000D03*
X103457500Y-131190000D03*
X103457500Y-129290000D03*
%TD*%
D17*
%TO.C,H5*%
X126130000Y-136350000D03*
%TD*%
D13*
%TO.C,C4*%
X108485000Y-121838000D03*
X108485000Y-122798000D03*
%TD*%
D21*
%TO.C,U7*%
X82655000Y-134030000D03*
X82005000Y-134030000D03*
X81355000Y-134030000D03*
X80705000Y-134030000D03*
X80705000Y-138330000D03*
X81355000Y-138330000D03*
X82005000Y-138330000D03*
X82655000Y-138330000D03*
%TD*%
D11*
%TO.C,C12*%
X99780000Y-104240000D03*
X98820000Y-104240000D03*
%TD*%
D19*
%TO.C,TP43*%
X87100000Y-117729000D03*
%TD*%
D22*
%TO.C,U2*%
X115672000Y-97580000D03*
D23*
X114737000Y-98265000D03*
X114737000Y-98765000D03*
X114737000Y-99265000D03*
X114737000Y-99765000D03*
X114737000Y-100265000D03*
D22*
X115672000Y-100950000D03*
X117172000Y-100950000D03*
D23*
X118107000Y-100265000D03*
X118107000Y-99765000D03*
X118107000Y-99265000D03*
X118107000Y-98765000D03*
X118107000Y-98265000D03*
D22*
X117172000Y-97580000D03*
D24*
X116422000Y-99265000D03*
%TD*%
D15*
%TO.C,R10*%
X92300000Y-75590000D03*
X92300000Y-76610000D03*
%TD*%
D19*
%TO.C,TP42*%
X87100000Y-107817000D03*
%TD*%
D25*
%TO.C,L1*%
X106100000Y-86040000D03*
X106100000Y-94360000D03*
%TD*%
D14*
%TO.C,R15*%
X91000000Y-76610000D03*
X91000000Y-75590000D03*
%TD*%
D11*
%TO.C,C15*%
X98490000Y-106040000D03*
X97530000Y-106040000D03*
%TD*%
D26*
%TO.C,H4*%
X79987000Y-50603000D03*
%TD*%
D27*
%TO.C,R16*%
X86000000Y-106100000D03*
X84980000Y-106100000D03*
%TD*%
D11*
%TO.C,C32*%
X82216000Y-127813000D03*
X81256000Y-127813000D03*
%TD*%
D13*
%TO.C,C16*%
X102646000Y-121838000D03*
X102646000Y-122798000D03*
%TD*%
D26*
%TO.C,H3*%
X130980000Y-144470000D03*
%TD*%
D19*
%TO.C,TP12*%
X82390000Y-121440000D03*
%TD*%
%TO.C,TP20*%
X106100000Y-122920000D03*
%TD*%
D11*
%TO.C,C18*%
X96139000Y-109681000D03*
X95179000Y-109681000D03*
%TD*%
D18*
%TO.C,C40*%
X94000000Y-75550000D03*
X94000000Y-77450000D03*
%TD*%
D28*
%TO.C,U10*%
X82050000Y-102625000D03*
X82050000Y-103275000D03*
X82050000Y-103925000D03*
X82050000Y-104575000D03*
X86350000Y-104575000D03*
X86350000Y-103925000D03*
X86350000Y-103275000D03*
X86350000Y-102625000D03*
%TD*%
D19*
%TO.C,TP36*%
X116870000Y-105550000D03*
%TD*%
D29*
%TO.C,C39*%
X104880000Y-77358600D03*
X105840000Y-77358600D03*
%TD*%
D11*
%TO.C,C35*%
X82680000Y-91000000D03*
X81720000Y-91000000D03*
%TD*%
D13*
%TO.C,C10*%
X110280000Y-114170000D03*
X110280000Y-115130000D03*
%TD*%
%TO.C,C11*%
X101370000Y-114140000D03*
X101370000Y-115100000D03*
%TD*%
D15*
%TO.C,R14*%
X89600000Y-75590000D03*
X89600000Y-76610000D03*
%TD*%
D30*
%TO.C,R11*%
X104848600Y-76169800D03*
X105868600Y-76169800D03*
%TD*%
D19*
%TO.C,TP6*%
X81500000Y-118000000D03*
%TD*%
D31*
%TO.C,C14*%
X99190000Y-121800000D03*
X99190000Y-120840000D03*
%TD*%
D26*
%TO.C,H2*%
X130683000Y-50604000D03*
%TD*%
D32*
%TO.C,C13*%
X105600000Y-111360000D03*
X105600000Y-117760000D03*
%TD*%
D26*
%TO.C,H1*%
X80020000Y-144380000D03*
%TD*%
D19*
%TO.C,TP11*%
X87580000Y-133890000D03*
%TD*%
D33*
%TO.C,Q2*%
X95851000Y-91141300D03*
X97149300Y-91141300D03*
X98412700Y-91141300D03*
X99711000Y-91141300D03*
D34*
X100061000Y-90236300D03*
%TD*%
D19*
%TO.C,TP1*%
X89430000Y-116237000D03*
%TD*%
D31*
%TO.C,C33*%
X82970000Y-131240000D03*
X82970000Y-130280000D03*
%TD*%
D30*
%TO.C,R2*%
X95640000Y-138480000D03*
X96660000Y-138480000D03*
%TD*%
D19*
%TO.C,TP3*%
X114410000Y-140150000D03*
%TD*%
%TO.C,TP41*%
X89500000Y-109437000D03*
%TD*%
%TO.C,TP38*%
X87100000Y-114600000D03*
%TD*%
%TO.C,TP44*%
X89430000Y-119277000D03*
%TD*%
D29*
%TO.C,C44*%
X86610000Y-101200000D03*
X87570000Y-101200000D03*
%TD*%
D35*
%TO.C,U9*%
X99446291Y-77900000D03*
X98946291Y-77900000D03*
X98416291Y-77900000D03*
X97946291Y-77900000D03*
X97446291Y-77900000D03*
X97446291Y-80700000D03*
X97946291Y-80700000D03*
X98446291Y-80700000D03*
X98946291Y-80700000D03*
X99446291Y-80700000D03*
D36*
X98446291Y-78725000D03*
X99396291Y-79300000D03*
D37*
X98446291Y-79300000D03*
D36*
X97496291Y-79300000D03*
X98446291Y-79875000D03*
%TD*%
D19*
%TO.C,TP34*%
X113500000Y-89900000D03*
%TD*%
D29*
%TO.C,C22*%
X93253000Y-131818000D03*
X94213000Y-131818000D03*
%TD*%
D19*
%TO.C,TP39*%
X89460000Y-113137000D03*
%TD*%
D11*
%TO.C,C6*%
X113620000Y-106030000D03*
X112660000Y-106030000D03*
%TD*%
D38*
%TO.C,C46*%
X103951000Y-97918800D03*
X100951000Y-97918800D03*
%TD*%
D33*
%TO.C,Q1*%
X93749287Y-85592464D03*
X92450987Y-85592464D03*
X91187587Y-85592464D03*
X89889287Y-85592464D03*
D39*
X89539287Y-86497464D03*
%TD*%
D30*
%TO.C,R17*%
X82070000Y-106100000D03*
X83090000Y-106100000D03*
%TD*%
D29*
%TO.C,C42*%
X97097600Y-82800000D03*
X98057600Y-82800000D03*
%TD*%
D19*
%TO.C,TP7*%
X115560000Y-121710000D03*
%TD*%
D40*
%TO.C,C34*%
X92906000Y-94248800D03*
X95856000Y-94248800D03*
%TD*%
D19*
%TO.C,TP40*%
X87180000Y-111047000D03*
%TD*%
%TO.C,TP4*%
X117040000Y-140190000D03*
%TD*%
D41*
%TO.C,U1*%
X116140000Y-126170000D03*
X116140000Y-123870000D03*
X114240000Y-123870000D03*
X114240000Y-126170000D03*
%TD*%
D19*
%TO.C,TP13*%
X98473000Y-127736000D03*
%TD*%
D30*
%TO.C,R12*%
X99067600Y-82800000D03*
X100087600Y-82800000D03*
%TD*%
D27*
%TO.C,R4*%
X107887600Y-82045800D03*
X106867600Y-82045800D03*
%TD*%
D11*
%TO.C,C2*%
X116020000Y-109624000D03*
X115060000Y-109624000D03*
%TD*%
D29*
%TO.C,C23*%
X101730000Y-132610000D03*
X102690000Y-132610000D03*
%TD*%
D31*
%TO.C,C5*%
X112160000Y-121800000D03*
X112160000Y-120840000D03*
%TD*%
D19*
%TO.C,TP9*%
X122500000Y-113430000D03*
%TD*%
D14*
%TO.C,R9*%
X80700000Y-132210000D03*
X80700000Y-131190000D03*
%TD*%
D11*
%TO.C,C17*%
X97210000Y-107780000D03*
X96250000Y-107780000D03*
%TD*%
%TO.C,C8*%
X112290000Y-104240000D03*
X111330000Y-104240000D03*
%TD*%
D29*
%TO.C,C29*%
X95640000Y-137410000D03*
X96600000Y-137410000D03*
%TD*%
D19*
%TO.C,TP37*%
X118610000Y-107630000D03*
%TD*%
%TO.C,TP14*%
X107830000Y-129200000D03*
%TD*%
%TO.C,TP45*%
X87100000Y-120858000D03*
%TD*%
%TO.C,TP2*%
X111890000Y-140150000D03*
%TD*%
D11*
%TO.C,C20*%
X114582000Y-96355000D03*
X113622000Y-96355000D03*
%TD*%
D42*
%TO.C,C47*%
X103886000Y-100888800D03*
X100936000Y-100888800D03*
%TD*%
D13*
%TO.C,C24*%
X96763000Y-128638000D03*
X96763000Y-129598000D03*
%TD*%
D40*
%TO.C,C36*%
X92866000Y-97658800D03*
X95816000Y-97658800D03*
%TD*%
D13*
%TO.C,C9*%
X111870000Y-114230000D03*
X111870000Y-115190000D03*
%TD*%
D40*
%TO.C,C37*%
X92866000Y-101018800D03*
X95816000Y-101018800D03*
%TD*%
D15*
%TO.C,R8*%
X82470000Y-125644000D03*
X82470000Y-126664000D03*
%TD*%
D43*
%TO.C,J4*%
X94701000Y-145782001D03*
D44*
X89621000Y-143622000D03*
X92161000Y-143622000D03*
X94701000Y-143622000D03*
X97241000Y-143622000D03*
%TD*%
D45*
%TO.C,J7*%
X83099400Y-79900000D03*
D46*
X85639400Y-79900000D03*
%TD*%
D45*
%TO.C,J3*%
X109350000Y-143580000D03*
D46*
X111890000Y-143580000D03*
X114430000Y-143580000D03*
X116970000Y-143580000D03*
X119510000Y-143580000D03*
%TD*%
D47*
%TO.C,U3*%
X86060000Y-72360000D03*
X88600000Y-72360000D03*
X91140000Y-72360000D03*
X93680000Y-72360000D03*
X96220000Y-72360000D03*
X98760000Y-72360000D03*
X101300000Y-72360000D03*
X103840000Y-72360000D03*
X106380000Y-72360000D03*
X108920000Y-72360000D03*
X111460000Y-72360000D03*
X114000000Y-72360000D03*
X114000000Y-49440000D03*
X111460000Y-49440000D03*
X108920000Y-49440000D03*
X106380000Y-49440000D03*
X103840000Y-49440000D03*
X101300000Y-49440000D03*
X98760000Y-49440000D03*
X96220000Y-49440000D03*
X93680000Y-49440000D03*
X91140000Y-49440000D03*
X88600000Y-49440000D03*
X86060000Y-49440000D03*
%TD*%
D48*
%TO.C,DC1*%
X129609000Y-86336000D03*
D49*
X130569000Y-80206000D03*
D50*
X123359000Y-81136000D03*
X123359000Y-86336000D03*
D51*
X120109000Y-86336000D03*
D49*
X130569000Y-90066000D03*
%TD*%
M02*
