%TF.GenerationSoftware,KiCad,Pcbnew,7.0.1*%
%TF.CreationDate,2023-10-06T09:11:54+02:00*%
%TF.ProjectId,NerdAxe_ultra,4e657264-4178-4655-9f75-6c7472612e6b,rev?*%
%TF.SameCoordinates,Original*%
%TF.FileFunction,Drillmap*%
%TF.FilePolarity,Positive*%
%FSLAX45Y45*%
G04 Gerber Fmt 4.5, Leading zero omitted, Abs format (unit mm)*
G04 Created by KiCad (PCBNEW 7.0.1) date 2023-10-06 09:11:54*
%MOMM*%
%LPD*%
G01*
G04 APERTURE LIST*
%ADD10C,0.100000*%
%ADD11C,0.200000*%
%ADD12C,0.129540*%
%ADD13C,0.220000*%
%ADD14C,0.350000*%
G04 APERTURE END LIST*
D10*
X7972900Y-4752200D02*
X13119200Y-4752200D01*
X13119200Y-14728400D02*
G75*
G03*
X13373200Y-14474400I0J254000D01*
G01*
X13373200Y-5006200D02*
G75*
G03*
X13119200Y-4752200I-254000J0D01*
G01*
X7972900Y-4752200D02*
G75*
G03*
X7718900Y-5006200I0J-254000D01*
G01*
X13119200Y-14728400D02*
X7972900Y-14728400D01*
X13373200Y-5006200D02*
X13373200Y-14474400D01*
X7718900Y-14474400D02*
G75*
G03*
X7972900Y-14728400I254000J0D01*
G01*
X7718900Y-14474400D02*
X7718900Y-5006200D01*
D11*
D12*
X9405330Y-14513430D02*
X9534870Y-14642970D01*
X9534870Y-14513430D02*
X9405330Y-14642970D01*
D13*
X8108700Y-5060300D02*
G75*
G03*
X8108700Y-5060300I-110000J0D01*
G01*
X8112000Y-14438000D02*
G75*
G03*
X8112000Y-14438000I-110000J0D01*
G01*
X13178300Y-5060400D02*
G75*
G03*
X13178300Y-5060400I-110000J0D01*
G01*
X13208000Y-14447000D02*
G75*
G03*
X13208000Y-14447000I-110000J0D01*
G01*
D14*
X8476400Y-9323400D02*
X8476400Y-9673400D01*
X8301400Y-9498400D02*
X8651400Y-9498400D01*
X12613000Y-13460000D02*
X12613000Y-13810000D01*
X12438000Y-13635000D02*
X12788000Y-13635000D01*
D11*
X7961519Y-15045924D02*
X7961519Y-14845924D01*
X7961519Y-14845924D02*
X8009138Y-14845924D01*
X8009138Y-14845924D02*
X8037709Y-14855448D01*
X8037709Y-14855448D02*
X8056757Y-14874495D01*
X8056757Y-14874495D02*
X8066281Y-14893543D01*
X8066281Y-14893543D02*
X8075805Y-14931638D01*
X8075805Y-14931638D02*
X8075805Y-14960209D01*
X8075805Y-14960209D02*
X8066281Y-14998305D01*
X8066281Y-14998305D02*
X8056757Y-15017352D01*
X8056757Y-15017352D02*
X8037709Y-15036400D01*
X8037709Y-15036400D02*
X8009138Y-15045924D01*
X8009138Y-15045924D02*
X7961519Y-15045924D01*
X8161519Y-15045924D02*
X8161519Y-14912590D01*
X8161519Y-14950686D02*
X8171043Y-14931638D01*
X8171043Y-14931638D02*
X8180567Y-14922114D01*
X8180567Y-14922114D02*
X8199614Y-14912590D01*
X8199614Y-14912590D02*
X8218662Y-14912590D01*
X8285328Y-15045924D02*
X8285328Y-14912590D01*
X8285328Y-14845924D02*
X8275805Y-14855448D01*
X8275805Y-14855448D02*
X8285328Y-14864971D01*
X8285328Y-14864971D02*
X8294852Y-14855448D01*
X8294852Y-14855448D02*
X8285328Y-14845924D01*
X8285328Y-14845924D02*
X8285328Y-14864971D01*
X8409138Y-15045924D02*
X8390090Y-15036400D01*
X8390090Y-15036400D02*
X8380567Y-15017352D01*
X8380567Y-15017352D02*
X8380567Y-14845924D01*
X8513900Y-15045924D02*
X8494852Y-15036400D01*
X8494852Y-15036400D02*
X8485329Y-15017352D01*
X8485329Y-15017352D02*
X8485329Y-14845924D01*
X8742471Y-15045924D02*
X8742471Y-14845924D01*
X8742471Y-14845924D02*
X8809138Y-14988781D01*
X8809138Y-14988781D02*
X8875805Y-14845924D01*
X8875805Y-14845924D02*
X8875805Y-15045924D01*
X9056757Y-15045924D02*
X9056757Y-14941162D01*
X9056757Y-14941162D02*
X9047233Y-14922114D01*
X9047233Y-14922114D02*
X9028186Y-14912590D01*
X9028186Y-14912590D02*
X8990090Y-14912590D01*
X8990090Y-14912590D02*
X8971043Y-14922114D01*
X9056757Y-15036400D02*
X9037710Y-15045924D01*
X9037710Y-15045924D02*
X8990090Y-15045924D01*
X8990090Y-15045924D02*
X8971043Y-15036400D01*
X8971043Y-15036400D02*
X8961519Y-15017352D01*
X8961519Y-15017352D02*
X8961519Y-14998305D01*
X8961519Y-14998305D02*
X8971043Y-14979257D01*
X8971043Y-14979257D02*
X8990090Y-14969733D01*
X8990090Y-14969733D02*
X9037710Y-14969733D01*
X9037710Y-14969733D02*
X9056757Y-14960209D01*
X9151995Y-14912590D02*
X9151995Y-15112590D01*
X9151995Y-14922114D02*
X9171043Y-14912590D01*
X9171043Y-14912590D02*
X9209138Y-14912590D01*
X9209138Y-14912590D02*
X9228186Y-14922114D01*
X9228186Y-14922114D02*
X9237710Y-14931638D01*
X9237710Y-14931638D02*
X9247233Y-14950686D01*
X9247233Y-14950686D02*
X9247233Y-15007828D01*
X9247233Y-15007828D02*
X9237710Y-15026876D01*
X9237710Y-15026876D02*
X9228186Y-15036400D01*
X9228186Y-15036400D02*
X9209138Y-15045924D01*
X9209138Y-15045924D02*
X9171043Y-15045924D01*
X9171043Y-15045924D02*
X9151995Y-15036400D01*
X9332948Y-15026876D02*
X9342471Y-15036400D01*
X9342471Y-15036400D02*
X9332948Y-15045924D01*
X9332948Y-15045924D02*
X9323424Y-15036400D01*
X9323424Y-15036400D02*
X9332948Y-15026876D01*
X9332948Y-15026876D02*
X9332948Y-15045924D01*
X9332948Y-14922114D02*
X9342471Y-14931638D01*
X9342471Y-14931638D02*
X9332948Y-14941162D01*
X9332948Y-14941162D02*
X9323424Y-14931638D01*
X9323424Y-14931638D02*
X9332948Y-14922114D01*
X9332948Y-14922114D02*
X9332948Y-14941162D01*
D12*
X7584360Y-15308630D02*
X7713900Y-15438170D01*
X7713900Y-15308630D02*
X7584360Y-15438170D01*
D11*
X8066281Y-15465924D02*
X7951995Y-15465924D01*
X8009138Y-15465924D02*
X8009138Y-15265924D01*
X8009138Y-15265924D02*
X7990090Y-15294495D01*
X7990090Y-15294495D02*
X7971043Y-15313543D01*
X7971043Y-15313543D02*
X7951995Y-15323067D01*
X8151995Y-15446876D02*
X8161519Y-15456400D01*
X8161519Y-15456400D02*
X8151995Y-15465924D01*
X8151995Y-15465924D02*
X8142471Y-15456400D01*
X8142471Y-15456400D02*
X8151995Y-15446876D01*
X8151995Y-15446876D02*
X8151995Y-15465924D01*
X8237709Y-15284971D02*
X8247233Y-15275448D01*
X8247233Y-15275448D02*
X8266281Y-15265924D01*
X8266281Y-15265924D02*
X8313900Y-15265924D01*
X8313900Y-15265924D02*
X8332948Y-15275448D01*
X8332948Y-15275448D02*
X8342471Y-15284971D01*
X8342471Y-15284971D02*
X8351995Y-15304019D01*
X8351995Y-15304019D02*
X8351995Y-15323067D01*
X8351995Y-15323067D02*
X8342471Y-15351638D01*
X8342471Y-15351638D02*
X8228186Y-15465924D01*
X8228186Y-15465924D02*
X8351995Y-15465924D01*
X8447233Y-15465924D02*
X8485329Y-15465924D01*
X8485329Y-15465924D02*
X8504376Y-15456400D01*
X8504376Y-15456400D02*
X8513900Y-15446876D01*
X8513900Y-15446876D02*
X8532948Y-15418305D01*
X8532948Y-15418305D02*
X8542471Y-15380209D01*
X8542471Y-15380209D02*
X8542471Y-15304019D01*
X8542471Y-15304019D02*
X8532948Y-15284971D01*
X8532948Y-15284971D02*
X8523424Y-15275448D01*
X8523424Y-15275448D02*
X8504376Y-15265924D01*
X8504376Y-15265924D02*
X8466281Y-15265924D01*
X8466281Y-15265924D02*
X8447233Y-15275448D01*
X8447233Y-15275448D02*
X8437710Y-15284971D01*
X8437710Y-15284971D02*
X8428186Y-15304019D01*
X8428186Y-15304019D02*
X8428186Y-15351638D01*
X8428186Y-15351638D02*
X8437710Y-15370686D01*
X8437710Y-15370686D02*
X8447233Y-15380209D01*
X8447233Y-15380209D02*
X8466281Y-15389733D01*
X8466281Y-15389733D02*
X8504376Y-15389733D01*
X8504376Y-15389733D02*
X8523424Y-15380209D01*
X8523424Y-15380209D02*
X8532948Y-15370686D01*
X8532948Y-15370686D02*
X8542471Y-15351638D01*
X8723424Y-15265924D02*
X8628186Y-15265924D01*
X8628186Y-15265924D02*
X8618662Y-15361162D01*
X8618662Y-15361162D02*
X8628186Y-15351638D01*
X8628186Y-15351638D02*
X8647233Y-15342114D01*
X8647233Y-15342114D02*
X8694852Y-15342114D01*
X8694852Y-15342114D02*
X8713900Y-15351638D01*
X8713900Y-15351638D02*
X8723424Y-15361162D01*
X8723424Y-15361162D02*
X8732948Y-15380209D01*
X8732948Y-15380209D02*
X8732948Y-15427828D01*
X8732948Y-15427828D02*
X8723424Y-15446876D01*
X8723424Y-15446876D02*
X8713900Y-15456400D01*
X8713900Y-15456400D02*
X8694852Y-15465924D01*
X8694852Y-15465924D02*
X8647233Y-15465924D01*
X8647233Y-15465924D02*
X8628186Y-15456400D01*
X8628186Y-15456400D02*
X8618662Y-15446876D01*
X8818662Y-15465924D02*
X8818662Y-15332590D01*
X8818662Y-15351638D02*
X8828186Y-15342114D01*
X8828186Y-15342114D02*
X8847233Y-15332590D01*
X8847233Y-15332590D02*
X8875805Y-15332590D01*
X8875805Y-15332590D02*
X8894852Y-15342114D01*
X8894852Y-15342114D02*
X8904376Y-15361162D01*
X8904376Y-15361162D02*
X8904376Y-15465924D01*
X8904376Y-15361162D02*
X8913900Y-15342114D01*
X8913900Y-15342114D02*
X8932948Y-15332590D01*
X8932948Y-15332590D02*
X8961519Y-15332590D01*
X8961519Y-15332590D02*
X8980567Y-15342114D01*
X8980567Y-15342114D02*
X8990091Y-15361162D01*
X8990091Y-15361162D02*
X8990091Y-15465924D01*
X9085329Y-15465924D02*
X9085329Y-15332590D01*
X9085329Y-15351638D02*
X9094852Y-15342114D01*
X9094852Y-15342114D02*
X9113900Y-15332590D01*
X9113900Y-15332590D02*
X9142472Y-15332590D01*
X9142472Y-15332590D02*
X9161519Y-15342114D01*
X9161519Y-15342114D02*
X9171043Y-15361162D01*
X9171043Y-15361162D02*
X9171043Y-15465924D01*
X9171043Y-15361162D02*
X9180567Y-15342114D01*
X9180567Y-15342114D02*
X9199614Y-15332590D01*
X9199614Y-15332590D02*
X9228186Y-15332590D01*
X9228186Y-15332590D02*
X9247233Y-15342114D01*
X9247233Y-15342114D02*
X9256757Y-15361162D01*
X9256757Y-15361162D02*
X9256757Y-15465924D01*
X9647233Y-15256400D02*
X9475805Y-15513543D01*
X9904376Y-15265924D02*
X9923424Y-15265924D01*
X9923424Y-15265924D02*
X9942472Y-15275448D01*
X9942472Y-15275448D02*
X9951995Y-15284971D01*
X9951995Y-15284971D02*
X9961519Y-15304019D01*
X9961519Y-15304019D02*
X9971043Y-15342114D01*
X9971043Y-15342114D02*
X9971043Y-15389733D01*
X9971043Y-15389733D02*
X9961519Y-15427828D01*
X9961519Y-15427828D02*
X9951995Y-15446876D01*
X9951995Y-15446876D02*
X9942472Y-15456400D01*
X9942472Y-15456400D02*
X9923424Y-15465924D01*
X9923424Y-15465924D02*
X9904376Y-15465924D01*
X9904376Y-15465924D02*
X9885329Y-15456400D01*
X9885329Y-15456400D02*
X9875805Y-15446876D01*
X9875805Y-15446876D02*
X9866281Y-15427828D01*
X9866281Y-15427828D02*
X9856757Y-15389733D01*
X9856757Y-15389733D02*
X9856757Y-15342114D01*
X9856757Y-15342114D02*
X9866281Y-15304019D01*
X9866281Y-15304019D02*
X9875805Y-15284971D01*
X9875805Y-15284971D02*
X9885329Y-15275448D01*
X9885329Y-15275448D02*
X9904376Y-15265924D01*
X10056757Y-15446876D02*
X10066281Y-15456400D01*
X10066281Y-15456400D02*
X10056757Y-15465924D01*
X10056757Y-15465924D02*
X10047234Y-15456400D01*
X10047234Y-15456400D02*
X10056757Y-15446876D01*
X10056757Y-15446876D02*
X10056757Y-15465924D01*
X10190091Y-15265924D02*
X10209138Y-15265924D01*
X10209138Y-15265924D02*
X10228186Y-15275448D01*
X10228186Y-15275448D02*
X10237710Y-15284971D01*
X10237710Y-15284971D02*
X10247234Y-15304019D01*
X10247234Y-15304019D02*
X10256757Y-15342114D01*
X10256757Y-15342114D02*
X10256757Y-15389733D01*
X10256757Y-15389733D02*
X10247234Y-15427828D01*
X10247234Y-15427828D02*
X10237710Y-15446876D01*
X10237710Y-15446876D02*
X10228186Y-15456400D01*
X10228186Y-15456400D02*
X10209138Y-15465924D01*
X10209138Y-15465924D02*
X10190091Y-15465924D01*
X10190091Y-15465924D02*
X10171043Y-15456400D01*
X10171043Y-15456400D02*
X10161519Y-15446876D01*
X10161519Y-15446876D02*
X10151995Y-15427828D01*
X10151995Y-15427828D02*
X10142472Y-15389733D01*
X10142472Y-15389733D02*
X10142472Y-15342114D01*
X10142472Y-15342114D02*
X10151995Y-15304019D01*
X10151995Y-15304019D02*
X10161519Y-15284971D01*
X10161519Y-15284971D02*
X10171043Y-15275448D01*
X10171043Y-15275448D02*
X10190091Y-15265924D01*
X10437710Y-15265924D02*
X10342472Y-15265924D01*
X10342472Y-15265924D02*
X10332948Y-15361162D01*
X10332948Y-15361162D02*
X10342472Y-15351638D01*
X10342472Y-15351638D02*
X10361519Y-15342114D01*
X10361519Y-15342114D02*
X10409138Y-15342114D01*
X10409138Y-15342114D02*
X10428186Y-15351638D01*
X10428186Y-15351638D02*
X10437710Y-15361162D01*
X10437710Y-15361162D02*
X10447234Y-15380209D01*
X10447234Y-15380209D02*
X10447234Y-15427828D01*
X10447234Y-15427828D02*
X10437710Y-15446876D01*
X10437710Y-15446876D02*
X10428186Y-15456400D01*
X10428186Y-15456400D02*
X10409138Y-15465924D01*
X10409138Y-15465924D02*
X10361519Y-15465924D01*
X10361519Y-15465924D02*
X10342472Y-15456400D01*
X10342472Y-15456400D02*
X10332948Y-15446876D01*
X10637710Y-15465924D02*
X10523424Y-15465924D01*
X10580567Y-15465924D02*
X10580567Y-15265924D01*
X10580567Y-15265924D02*
X10561519Y-15294495D01*
X10561519Y-15294495D02*
X10542472Y-15313543D01*
X10542472Y-15313543D02*
X10523424Y-15323067D01*
X10761519Y-15265924D02*
X10780567Y-15265924D01*
X10780567Y-15265924D02*
X10799615Y-15275448D01*
X10799615Y-15275448D02*
X10809138Y-15284971D01*
X10809138Y-15284971D02*
X10818662Y-15304019D01*
X10818662Y-15304019D02*
X10828186Y-15342114D01*
X10828186Y-15342114D02*
X10828186Y-15389733D01*
X10828186Y-15389733D02*
X10818662Y-15427828D01*
X10818662Y-15427828D02*
X10809138Y-15446876D01*
X10809138Y-15446876D02*
X10799615Y-15456400D01*
X10799615Y-15456400D02*
X10780567Y-15465924D01*
X10780567Y-15465924D02*
X10761519Y-15465924D01*
X10761519Y-15465924D02*
X10742472Y-15456400D01*
X10742472Y-15456400D02*
X10732948Y-15446876D01*
X10732948Y-15446876D02*
X10723424Y-15427828D01*
X10723424Y-15427828D02*
X10713900Y-15389733D01*
X10713900Y-15389733D02*
X10713900Y-15342114D01*
X10713900Y-15342114D02*
X10723424Y-15304019D01*
X10723424Y-15304019D02*
X10732948Y-15284971D01*
X10732948Y-15284971D02*
X10742472Y-15275448D01*
X10742472Y-15275448D02*
X10761519Y-15265924D01*
X10904376Y-15265924D02*
X10904376Y-15304019D01*
X10980567Y-15265924D02*
X10980567Y-15304019D01*
X11275805Y-15542114D02*
X11266281Y-15532590D01*
X11266281Y-15532590D02*
X11247234Y-15504019D01*
X11247234Y-15504019D02*
X11237710Y-15484971D01*
X11237710Y-15484971D02*
X11228186Y-15456400D01*
X11228186Y-15456400D02*
X11218662Y-15408781D01*
X11218662Y-15408781D02*
X11218662Y-15370686D01*
X11218662Y-15370686D02*
X11228186Y-15323067D01*
X11228186Y-15323067D02*
X11237710Y-15294495D01*
X11237710Y-15294495D02*
X11247234Y-15275448D01*
X11247234Y-15275448D02*
X11266281Y-15246876D01*
X11266281Y-15246876D02*
X11275805Y-15237352D01*
X11456757Y-15465924D02*
X11342472Y-15465924D01*
X11399614Y-15465924D02*
X11399614Y-15265924D01*
X11399614Y-15265924D02*
X11380567Y-15294495D01*
X11380567Y-15294495D02*
X11361519Y-15313543D01*
X11361519Y-15313543D02*
X11342472Y-15323067D01*
X11694853Y-15465924D02*
X11694853Y-15265924D01*
X11780567Y-15465924D02*
X11780567Y-15361162D01*
X11780567Y-15361162D02*
X11771043Y-15342114D01*
X11771043Y-15342114D02*
X11751996Y-15332590D01*
X11751996Y-15332590D02*
X11723424Y-15332590D01*
X11723424Y-15332590D02*
X11704376Y-15342114D01*
X11704376Y-15342114D02*
X11694853Y-15351638D01*
X11904376Y-15465924D02*
X11885329Y-15456400D01*
X11885329Y-15456400D02*
X11875805Y-15446876D01*
X11875805Y-15446876D02*
X11866281Y-15427828D01*
X11866281Y-15427828D02*
X11866281Y-15370686D01*
X11866281Y-15370686D02*
X11875805Y-15351638D01*
X11875805Y-15351638D02*
X11885329Y-15342114D01*
X11885329Y-15342114D02*
X11904376Y-15332590D01*
X11904376Y-15332590D02*
X11932948Y-15332590D01*
X11932948Y-15332590D02*
X11951996Y-15342114D01*
X11951996Y-15342114D02*
X11961519Y-15351638D01*
X11961519Y-15351638D02*
X11971043Y-15370686D01*
X11971043Y-15370686D02*
X11971043Y-15427828D01*
X11971043Y-15427828D02*
X11961519Y-15446876D01*
X11961519Y-15446876D02*
X11951996Y-15456400D01*
X11951996Y-15456400D02*
X11932948Y-15465924D01*
X11932948Y-15465924D02*
X11904376Y-15465924D01*
X12085329Y-15465924D02*
X12066281Y-15456400D01*
X12066281Y-15456400D02*
X12056757Y-15437352D01*
X12056757Y-15437352D02*
X12056757Y-15265924D01*
X12237710Y-15456400D02*
X12218662Y-15465924D01*
X12218662Y-15465924D02*
X12180567Y-15465924D01*
X12180567Y-15465924D02*
X12161519Y-15456400D01*
X12161519Y-15456400D02*
X12151996Y-15437352D01*
X12151996Y-15437352D02*
X12151996Y-15361162D01*
X12151996Y-15361162D02*
X12161519Y-15342114D01*
X12161519Y-15342114D02*
X12180567Y-15332590D01*
X12180567Y-15332590D02*
X12218662Y-15332590D01*
X12218662Y-15332590D02*
X12237710Y-15342114D01*
X12237710Y-15342114D02*
X12247234Y-15361162D01*
X12247234Y-15361162D02*
X12247234Y-15380209D01*
X12247234Y-15380209D02*
X12151996Y-15399257D01*
X12313900Y-15542114D02*
X12323424Y-15532590D01*
X12323424Y-15532590D02*
X12342472Y-15504019D01*
X12342472Y-15504019D02*
X12351996Y-15484971D01*
X12351996Y-15484971D02*
X12361519Y-15456400D01*
X12361519Y-15456400D02*
X12371043Y-15408781D01*
X12371043Y-15408781D02*
X12371043Y-15370686D01*
X12371043Y-15370686D02*
X12361519Y-15323067D01*
X12361519Y-15323067D02*
X12351996Y-15294495D01*
X12351996Y-15294495D02*
X12342472Y-15275448D01*
X12342472Y-15275448D02*
X12323424Y-15246876D01*
X12323424Y-15246876D02*
X12313900Y-15237352D01*
X12675805Y-15542114D02*
X12666281Y-15532590D01*
X12666281Y-15532590D02*
X12647234Y-15504019D01*
X12647234Y-15504019D02*
X12637710Y-15484971D01*
X12637710Y-15484971D02*
X12628186Y-15456400D01*
X12628186Y-15456400D02*
X12618662Y-15408781D01*
X12618662Y-15408781D02*
X12618662Y-15370686D01*
X12618662Y-15370686D02*
X12628186Y-15323067D01*
X12628186Y-15323067D02*
X12637710Y-15294495D01*
X12637710Y-15294495D02*
X12647234Y-15275448D01*
X12647234Y-15275448D02*
X12666281Y-15246876D01*
X12666281Y-15246876D02*
X12675805Y-15237352D01*
X12751996Y-15332590D02*
X12751996Y-15465924D01*
X12751996Y-15351638D02*
X12761519Y-15342114D01*
X12761519Y-15342114D02*
X12780567Y-15332590D01*
X12780567Y-15332590D02*
X12809138Y-15332590D01*
X12809138Y-15332590D02*
X12828186Y-15342114D01*
X12828186Y-15342114D02*
X12837710Y-15361162D01*
X12837710Y-15361162D02*
X12837710Y-15465924D01*
X12961519Y-15465924D02*
X12942472Y-15456400D01*
X12942472Y-15456400D02*
X12932948Y-15446876D01*
X12932948Y-15446876D02*
X12923424Y-15427828D01*
X12923424Y-15427828D02*
X12923424Y-15370686D01*
X12923424Y-15370686D02*
X12932948Y-15351638D01*
X12932948Y-15351638D02*
X12942472Y-15342114D01*
X12942472Y-15342114D02*
X12961519Y-15332590D01*
X12961519Y-15332590D02*
X12990091Y-15332590D01*
X12990091Y-15332590D02*
X13009138Y-15342114D01*
X13009138Y-15342114D02*
X13018662Y-15351638D01*
X13018662Y-15351638D02*
X13028186Y-15370686D01*
X13028186Y-15370686D02*
X13028186Y-15427828D01*
X13028186Y-15427828D02*
X13018662Y-15446876D01*
X13018662Y-15446876D02*
X13009138Y-15456400D01*
X13009138Y-15456400D02*
X12990091Y-15465924D01*
X12990091Y-15465924D02*
X12961519Y-15465924D01*
X13085329Y-15332590D02*
X13161519Y-15332590D01*
X13113900Y-15265924D02*
X13113900Y-15437352D01*
X13113900Y-15437352D02*
X13123424Y-15456400D01*
X13123424Y-15456400D02*
X13142472Y-15465924D01*
X13142472Y-15465924D02*
X13161519Y-15465924D01*
X13380567Y-15332590D02*
X13380567Y-15532590D01*
X13380567Y-15342114D02*
X13399615Y-15332590D01*
X13399615Y-15332590D02*
X13437710Y-15332590D01*
X13437710Y-15332590D02*
X13456758Y-15342114D01*
X13456758Y-15342114D02*
X13466281Y-15351638D01*
X13466281Y-15351638D02*
X13475805Y-15370686D01*
X13475805Y-15370686D02*
X13475805Y-15427828D01*
X13475805Y-15427828D02*
X13466281Y-15446876D01*
X13466281Y-15446876D02*
X13456758Y-15456400D01*
X13456758Y-15456400D02*
X13437710Y-15465924D01*
X13437710Y-15465924D02*
X13399615Y-15465924D01*
X13399615Y-15465924D02*
X13380567Y-15456400D01*
X13590091Y-15465924D02*
X13571043Y-15456400D01*
X13571043Y-15456400D02*
X13561519Y-15437352D01*
X13561519Y-15437352D02*
X13561519Y-15265924D01*
X13751996Y-15465924D02*
X13751996Y-15361162D01*
X13751996Y-15361162D02*
X13742472Y-15342114D01*
X13742472Y-15342114D02*
X13723424Y-15332590D01*
X13723424Y-15332590D02*
X13685329Y-15332590D01*
X13685329Y-15332590D02*
X13666281Y-15342114D01*
X13751996Y-15456400D02*
X13732948Y-15465924D01*
X13732948Y-15465924D02*
X13685329Y-15465924D01*
X13685329Y-15465924D02*
X13666281Y-15456400D01*
X13666281Y-15456400D02*
X13656758Y-15437352D01*
X13656758Y-15437352D02*
X13656758Y-15418305D01*
X13656758Y-15418305D02*
X13666281Y-15399257D01*
X13666281Y-15399257D02*
X13685329Y-15389733D01*
X13685329Y-15389733D02*
X13732948Y-15389733D01*
X13732948Y-15389733D02*
X13751996Y-15380209D01*
X13818662Y-15332590D02*
X13894853Y-15332590D01*
X13847234Y-15265924D02*
X13847234Y-15437352D01*
X13847234Y-15437352D02*
X13856758Y-15456400D01*
X13856758Y-15456400D02*
X13875805Y-15465924D01*
X13875805Y-15465924D02*
X13894853Y-15465924D01*
X14037710Y-15456400D02*
X14018662Y-15465924D01*
X14018662Y-15465924D02*
X13980567Y-15465924D01*
X13980567Y-15465924D02*
X13961519Y-15456400D01*
X13961519Y-15456400D02*
X13951996Y-15437352D01*
X13951996Y-15437352D02*
X13951996Y-15361162D01*
X13951996Y-15361162D02*
X13961519Y-15342114D01*
X13961519Y-15342114D02*
X13980567Y-15332590D01*
X13980567Y-15332590D02*
X14018662Y-15332590D01*
X14018662Y-15332590D02*
X14037710Y-15342114D01*
X14037710Y-15342114D02*
X14047234Y-15361162D01*
X14047234Y-15361162D02*
X14047234Y-15380209D01*
X14047234Y-15380209D02*
X13951996Y-15399257D01*
X14218662Y-15465924D02*
X14218662Y-15265924D01*
X14218662Y-15456400D02*
X14199615Y-15465924D01*
X14199615Y-15465924D02*
X14161519Y-15465924D01*
X14161519Y-15465924D02*
X14142472Y-15456400D01*
X14142472Y-15456400D02*
X14132948Y-15446876D01*
X14132948Y-15446876D02*
X14123424Y-15427828D01*
X14123424Y-15427828D02*
X14123424Y-15370686D01*
X14123424Y-15370686D02*
X14132948Y-15351638D01*
X14132948Y-15351638D02*
X14142472Y-15342114D01*
X14142472Y-15342114D02*
X14161519Y-15332590D01*
X14161519Y-15332590D02*
X14199615Y-15332590D01*
X14199615Y-15332590D02*
X14218662Y-15342114D01*
X14294853Y-15542114D02*
X14304377Y-15532590D01*
X14304377Y-15532590D02*
X14323424Y-15504019D01*
X14323424Y-15504019D02*
X14332948Y-15484971D01*
X14332948Y-15484971D02*
X14342472Y-15456400D01*
X14342472Y-15456400D02*
X14351996Y-15408781D01*
X14351996Y-15408781D02*
X14351996Y-15370686D01*
X14351996Y-15370686D02*
X14342472Y-15323067D01*
X14342472Y-15323067D02*
X14332948Y-15294495D01*
X14332948Y-15294495D02*
X14323424Y-15275448D01*
X14323424Y-15275448D02*
X14304377Y-15246876D01*
X14304377Y-15246876D02*
X14294853Y-15237352D01*
X7713900Y-15637400D02*
G75*
G03*
X7713900Y-15637400I-100000J0D01*
G01*
X7951995Y-15548971D02*
X7961519Y-15539448D01*
X7961519Y-15539448D02*
X7980567Y-15529924D01*
X7980567Y-15529924D02*
X8028186Y-15529924D01*
X8028186Y-15529924D02*
X8047233Y-15539448D01*
X8047233Y-15539448D02*
X8056757Y-15548971D01*
X8056757Y-15548971D02*
X8066281Y-15568019D01*
X8066281Y-15568019D02*
X8066281Y-15587067D01*
X8066281Y-15587067D02*
X8056757Y-15615638D01*
X8056757Y-15615638D02*
X7942471Y-15729924D01*
X7942471Y-15729924D02*
X8066281Y-15729924D01*
X8151995Y-15710876D02*
X8161519Y-15720400D01*
X8161519Y-15720400D02*
X8151995Y-15729924D01*
X8151995Y-15729924D02*
X8142471Y-15720400D01*
X8142471Y-15720400D02*
X8151995Y-15710876D01*
X8151995Y-15710876D02*
X8151995Y-15729924D01*
X8237709Y-15548971D02*
X8247233Y-15539448D01*
X8247233Y-15539448D02*
X8266281Y-15529924D01*
X8266281Y-15529924D02*
X8313900Y-15529924D01*
X8313900Y-15529924D02*
X8332948Y-15539448D01*
X8332948Y-15539448D02*
X8342471Y-15548971D01*
X8342471Y-15548971D02*
X8351995Y-15568019D01*
X8351995Y-15568019D02*
X8351995Y-15587067D01*
X8351995Y-15587067D02*
X8342471Y-15615638D01*
X8342471Y-15615638D02*
X8228186Y-15729924D01*
X8228186Y-15729924D02*
X8351995Y-15729924D01*
X8475805Y-15529924D02*
X8494852Y-15529924D01*
X8494852Y-15529924D02*
X8513900Y-15539448D01*
X8513900Y-15539448D02*
X8523424Y-15548971D01*
X8523424Y-15548971D02*
X8532948Y-15568019D01*
X8532948Y-15568019D02*
X8542471Y-15606114D01*
X8542471Y-15606114D02*
X8542471Y-15653733D01*
X8542471Y-15653733D02*
X8532948Y-15691828D01*
X8532948Y-15691828D02*
X8523424Y-15710876D01*
X8523424Y-15710876D02*
X8513900Y-15720400D01*
X8513900Y-15720400D02*
X8494852Y-15729924D01*
X8494852Y-15729924D02*
X8475805Y-15729924D01*
X8475805Y-15729924D02*
X8456757Y-15720400D01*
X8456757Y-15720400D02*
X8447233Y-15710876D01*
X8447233Y-15710876D02*
X8437710Y-15691828D01*
X8437710Y-15691828D02*
X8428186Y-15653733D01*
X8428186Y-15653733D02*
X8428186Y-15606114D01*
X8428186Y-15606114D02*
X8437710Y-15568019D01*
X8437710Y-15568019D02*
X8447233Y-15548971D01*
X8447233Y-15548971D02*
X8456757Y-15539448D01*
X8456757Y-15539448D02*
X8475805Y-15529924D01*
X8666281Y-15529924D02*
X8685329Y-15529924D01*
X8685329Y-15529924D02*
X8704376Y-15539448D01*
X8704376Y-15539448D02*
X8713900Y-15548971D01*
X8713900Y-15548971D02*
X8723424Y-15568019D01*
X8723424Y-15568019D02*
X8732948Y-15606114D01*
X8732948Y-15606114D02*
X8732948Y-15653733D01*
X8732948Y-15653733D02*
X8723424Y-15691828D01*
X8723424Y-15691828D02*
X8713900Y-15710876D01*
X8713900Y-15710876D02*
X8704376Y-15720400D01*
X8704376Y-15720400D02*
X8685329Y-15729924D01*
X8685329Y-15729924D02*
X8666281Y-15729924D01*
X8666281Y-15729924D02*
X8647233Y-15720400D01*
X8647233Y-15720400D02*
X8637710Y-15710876D01*
X8637710Y-15710876D02*
X8628186Y-15691828D01*
X8628186Y-15691828D02*
X8618662Y-15653733D01*
X8618662Y-15653733D02*
X8618662Y-15606114D01*
X8618662Y-15606114D02*
X8628186Y-15568019D01*
X8628186Y-15568019D02*
X8637710Y-15548971D01*
X8637710Y-15548971D02*
X8647233Y-15539448D01*
X8647233Y-15539448D02*
X8666281Y-15529924D01*
X8818662Y-15729924D02*
X8818662Y-15596590D01*
X8818662Y-15615638D02*
X8828186Y-15606114D01*
X8828186Y-15606114D02*
X8847233Y-15596590D01*
X8847233Y-15596590D02*
X8875805Y-15596590D01*
X8875805Y-15596590D02*
X8894852Y-15606114D01*
X8894852Y-15606114D02*
X8904376Y-15625162D01*
X8904376Y-15625162D02*
X8904376Y-15729924D01*
X8904376Y-15625162D02*
X8913900Y-15606114D01*
X8913900Y-15606114D02*
X8932948Y-15596590D01*
X8932948Y-15596590D02*
X8961519Y-15596590D01*
X8961519Y-15596590D02*
X8980567Y-15606114D01*
X8980567Y-15606114D02*
X8990091Y-15625162D01*
X8990091Y-15625162D02*
X8990091Y-15729924D01*
X9085329Y-15729924D02*
X9085329Y-15596590D01*
X9085329Y-15615638D02*
X9094852Y-15606114D01*
X9094852Y-15606114D02*
X9113900Y-15596590D01*
X9113900Y-15596590D02*
X9142472Y-15596590D01*
X9142472Y-15596590D02*
X9161519Y-15606114D01*
X9161519Y-15606114D02*
X9171043Y-15625162D01*
X9171043Y-15625162D02*
X9171043Y-15729924D01*
X9171043Y-15625162D02*
X9180567Y-15606114D01*
X9180567Y-15606114D02*
X9199614Y-15596590D01*
X9199614Y-15596590D02*
X9228186Y-15596590D01*
X9228186Y-15596590D02*
X9247233Y-15606114D01*
X9247233Y-15606114D02*
X9256757Y-15625162D01*
X9256757Y-15625162D02*
X9256757Y-15729924D01*
X9647233Y-15520400D02*
X9475805Y-15777543D01*
X9904376Y-15529924D02*
X9923424Y-15529924D01*
X9923424Y-15529924D02*
X9942472Y-15539448D01*
X9942472Y-15539448D02*
X9951995Y-15548971D01*
X9951995Y-15548971D02*
X9961519Y-15568019D01*
X9961519Y-15568019D02*
X9971043Y-15606114D01*
X9971043Y-15606114D02*
X9971043Y-15653733D01*
X9971043Y-15653733D02*
X9961519Y-15691828D01*
X9961519Y-15691828D02*
X9951995Y-15710876D01*
X9951995Y-15710876D02*
X9942472Y-15720400D01*
X9942472Y-15720400D02*
X9923424Y-15729924D01*
X9923424Y-15729924D02*
X9904376Y-15729924D01*
X9904376Y-15729924D02*
X9885329Y-15720400D01*
X9885329Y-15720400D02*
X9875805Y-15710876D01*
X9875805Y-15710876D02*
X9866281Y-15691828D01*
X9866281Y-15691828D02*
X9856757Y-15653733D01*
X9856757Y-15653733D02*
X9856757Y-15606114D01*
X9856757Y-15606114D02*
X9866281Y-15568019D01*
X9866281Y-15568019D02*
X9875805Y-15548971D01*
X9875805Y-15548971D02*
X9885329Y-15539448D01*
X9885329Y-15539448D02*
X9904376Y-15529924D01*
X10056757Y-15710876D02*
X10066281Y-15720400D01*
X10066281Y-15720400D02*
X10056757Y-15729924D01*
X10056757Y-15729924D02*
X10047234Y-15720400D01*
X10047234Y-15720400D02*
X10056757Y-15710876D01*
X10056757Y-15710876D02*
X10056757Y-15729924D01*
X10190091Y-15529924D02*
X10209138Y-15529924D01*
X10209138Y-15529924D02*
X10228186Y-15539448D01*
X10228186Y-15539448D02*
X10237710Y-15548971D01*
X10237710Y-15548971D02*
X10247234Y-15568019D01*
X10247234Y-15568019D02*
X10256757Y-15606114D01*
X10256757Y-15606114D02*
X10256757Y-15653733D01*
X10256757Y-15653733D02*
X10247234Y-15691828D01*
X10247234Y-15691828D02*
X10237710Y-15710876D01*
X10237710Y-15710876D02*
X10228186Y-15720400D01*
X10228186Y-15720400D02*
X10209138Y-15729924D01*
X10209138Y-15729924D02*
X10190091Y-15729924D01*
X10190091Y-15729924D02*
X10171043Y-15720400D01*
X10171043Y-15720400D02*
X10161519Y-15710876D01*
X10161519Y-15710876D02*
X10151995Y-15691828D01*
X10151995Y-15691828D02*
X10142472Y-15653733D01*
X10142472Y-15653733D02*
X10142472Y-15606114D01*
X10142472Y-15606114D02*
X10151995Y-15568019D01*
X10151995Y-15568019D02*
X10161519Y-15548971D01*
X10161519Y-15548971D02*
X10171043Y-15539448D01*
X10171043Y-15539448D02*
X10190091Y-15529924D01*
X10371043Y-15615638D02*
X10351995Y-15606114D01*
X10351995Y-15606114D02*
X10342472Y-15596590D01*
X10342472Y-15596590D02*
X10332948Y-15577543D01*
X10332948Y-15577543D02*
X10332948Y-15568019D01*
X10332948Y-15568019D02*
X10342472Y-15548971D01*
X10342472Y-15548971D02*
X10351995Y-15539448D01*
X10351995Y-15539448D02*
X10371043Y-15529924D01*
X10371043Y-15529924D02*
X10409138Y-15529924D01*
X10409138Y-15529924D02*
X10428186Y-15539448D01*
X10428186Y-15539448D02*
X10437710Y-15548971D01*
X10437710Y-15548971D02*
X10447234Y-15568019D01*
X10447234Y-15568019D02*
X10447234Y-15577543D01*
X10447234Y-15577543D02*
X10437710Y-15596590D01*
X10437710Y-15596590D02*
X10428186Y-15606114D01*
X10428186Y-15606114D02*
X10409138Y-15615638D01*
X10409138Y-15615638D02*
X10371043Y-15615638D01*
X10371043Y-15615638D02*
X10351995Y-15625162D01*
X10351995Y-15625162D02*
X10342472Y-15634686D01*
X10342472Y-15634686D02*
X10332948Y-15653733D01*
X10332948Y-15653733D02*
X10332948Y-15691828D01*
X10332948Y-15691828D02*
X10342472Y-15710876D01*
X10342472Y-15710876D02*
X10351995Y-15720400D01*
X10351995Y-15720400D02*
X10371043Y-15729924D01*
X10371043Y-15729924D02*
X10409138Y-15729924D01*
X10409138Y-15729924D02*
X10428186Y-15720400D01*
X10428186Y-15720400D02*
X10437710Y-15710876D01*
X10437710Y-15710876D02*
X10447234Y-15691828D01*
X10447234Y-15691828D02*
X10447234Y-15653733D01*
X10447234Y-15653733D02*
X10437710Y-15634686D01*
X10437710Y-15634686D02*
X10428186Y-15625162D01*
X10428186Y-15625162D02*
X10409138Y-15615638D01*
X10618662Y-15529924D02*
X10580567Y-15529924D01*
X10580567Y-15529924D02*
X10561519Y-15539448D01*
X10561519Y-15539448D02*
X10551995Y-15548971D01*
X10551995Y-15548971D02*
X10532948Y-15577543D01*
X10532948Y-15577543D02*
X10523424Y-15615638D01*
X10523424Y-15615638D02*
X10523424Y-15691828D01*
X10523424Y-15691828D02*
X10532948Y-15710876D01*
X10532948Y-15710876D02*
X10542472Y-15720400D01*
X10542472Y-15720400D02*
X10561519Y-15729924D01*
X10561519Y-15729924D02*
X10599615Y-15729924D01*
X10599615Y-15729924D02*
X10618662Y-15720400D01*
X10618662Y-15720400D02*
X10628186Y-15710876D01*
X10628186Y-15710876D02*
X10637710Y-15691828D01*
X10637710Y-15691828D02*
X10637710Y-15644209D01*
X10637710Y-15644209D02*
X10628186Y-15625162D01*
X10628186Y-15625162D02*
X10618662Y-15615638D01*
X10618662Y-15615638D02*
X10599615Y-15606114D01*
X10599615Y-15606114D02*
X10561519Y-15606114D01*
X10561519Y-15606114D02*
X10542472Y-15615638D01*
X10542472Y-15615638D02*
X10532948Y-15625162D01*
X10532948Y-15625162D02*
X10523424Y-15644209D01*
X10809138Y-15529924D02*
X10771043Y-15529924D01*
X10771043Y-15529924D02*
X10751995Y-15539448D01*
X10751995Y-15539448D02*
X10742472Y-15548971D01*
X10742472Y-15548971D02*
X10723424Y-15577543D01*
X10723424Y-15577543D02*
X10713900Y-15615638D01*
X10713900Y-15615638D02*
X10713900Y-15691828D01*
X10713900Y-15691828D02*
X10723424Y-15710876D01*
X10723424Y-15710876D02*
X10732948Y-15720400D01*
X10732948Y-15720400D02*
X10751995Y-15729924D01*
X10751995Y-15729924D02*
X10790091Y-15729924D01*
X10790091Y-15729924D02*
X10809138Y-15720400D01*
X10809138Y-15720400D02*
X10818662Y-15710876D01*
X10818662Y-15710876D02*
X10828186Y-15691828D01*
X10828186Y-15691828D02*
X10828186Y-15644209D01*
X10828186Y-15644209D02*
X10818662Y-15625162D01*
X10818662Y-15625162D02*
X10809138Y-15615638D01*
X10809138Y-15615638D02*
X10790091Y-15606114D01*
X10790091Y-15606114D02*
X10751995Y-15606114D01*
X10751995Y-15606114D02*
X10732948Y-15615638D01*
X10732948Y-15615638D02*
X10723424Y-15625162D01*
X10723424Y-15625162D02*
X10713900Y-15644209D01*
X10904376Y-15529924D02*
X10904376Y-15568019D01*
X10980567Y-15529924D02*
X10980567Y-15568019D01*
X11275805Y-15806114D02*
X11266281Y-15796590D01*
X11266281Y-15796590D02*
X11247234Y-15768019D01*
X11247234Y-15768019D02*
X11237710Y-15748971D01*
X11237710Y-15748971D02*
X11228186Y-15720400D01*
X11228186Y-15720400D02*
X11218662Y-15672781D01*
X11218662Y-15672781D02*
X11218662Y-15634686D01*
X11218662Y-15634686D02*
X11228186Y-15587067D01*
X11228186Y-15587067D02*
X11237710Y-15558495D01*
X11237710Y-15558495D02*
X11247234Y-15539448D01*
X11247234Y-15539448D02*
X11266281Y-15510876D01*
X11266281Y-15510876D02*
X11275805Y-15501352D01*
X11437710Y-15596590D02*
X11437710Y-15729924D01*
X11390091Y-15520400D02*
X11342472Y-15663257D01*
X11342472Y-15663257D02*
X11466281Y-15663257D01*
X11694853Y-15729924D02*
X11694853Y-15529924D01*
X11780567Y-15729924D02*
X11780567Y-15625162D01*
X11780567Y-15625162D02*
X11771043Y-15606114D01*
X11771043Y-15606114D02*
X11751996Y-15596590D01*
X11751996Y-15596590D02*
X11723424Y-15596590D01*
X11723424Y-15596590D02*
X11704376Y-15606114D01*
X11704376Y-15606114D02*
X11694853Y-15615638D01*
X11904376Y-15729924D02*
X11885329Y-15720400D01*
X11885329Y-15720400D02*
X11875805Y-15710876D01*
X11875805Y-15710876D02*
X11866281Y-15691828D01*
X11866281Y-15691828D02*
X11866281Y-15634686D01*
X11866281Y-15634686D02*
X11875805Y-15615638D01*
X11875805Y-15615638D02*
X11885329Y-15606114D01*
X11885329Y-15606114D02*
X11904376Y-15596590D01*
X11904376Y-15596590D02*
X11932948Y-15596590D01*
X11932948Y-15596590D02*
X11951996Y-15606114D01*
X11951996Y-15606114D02*
X11961519Y-15615638D01*
X11961519Y-15615638D02*
X11971043Y-15634686D01*
X11971043Y-15634686D02*
X11971043Y-15691828D01*
X11971043Y-15691828D02*
X11961519Y-15710876D01*
X11961519Y-15710876D02*
X11951996Y-15720400D01*
X11951996Y-15720400D02*
X11932948Y-15729924D01*
X11932948Y-15729924D02*
X11904376Y-15729924D01*
X12085329Y-15729924D02*
X12066281Y-15720400D01*
X12066281Y-15720400D02*
X12056757Y-15701352D01*
X12056757Y-15701352D02*
X12056757Y-15529924D01*
X12237710Y-15720400D02*
X12218662Y-15729924D01*
X12218662Y-15729924D02*
X12180567Y-15729924D01*
X12180567Y-15729924D02*
X12161519Y-15720400D01*
X12161519Y-15720400D02*
X12151996Y-15701352D01*
X12151996Y-15701352D02*
X12151996Y-15625162D01*
X12151996Y-15625162D02*
X12161519Y-15606114D01*
X12161519Y-15606114D02*
X12180567Y-15596590D01*
X12180567Y-15596590D02*
X12218662Y-15596590D01*
X12218662Y-15596590D02*
X12237710Y-15606114D01*
X12237710Y-15606114D02*
X12247234Y-15625162D01*
X12247234Y-15625162D02*
X12247234Y-15644209D01*
X12247234Y-15644209D02*
X12151996Y-15663257D01*
X12323424Y-15720400D02*
X12342472Y-15729924D01*
X12342472Y-15729924D02*
X12380567Y-15729924D01*
X12380567Y-15729924D02*
X12399615Y-15720400D01*
X12399615Y-15720400D02*
X12409138Y-15701352D01*
X12409138Y-15701352D02*
X12409138Y-15691828D01*
X12409138Y-15691828D02*
X12399615Y-15672781D01*
X12399615Y-15672781D02*
X12380567Y-15663257D01*
X12380567Y-15663257D02*
X12351996Y-15663257D01*
X12351996Y-15663257D02*
X12332948Y-15653733D01*
X12332948Y-15653733D02*
X12323424Y-15634686D01*
X12323424Y-15634686D02*
X12323424Y-15625162D01*
X12323424Y-15625162D02*
X12332948Y-15606114D01*
X12332948Y-15606114D02*
X12351996Y-15596590D01*
X12351996Y-15596590D02*
X12380567Y-15596590D01*
X12380567Y-15596590D02*
X12399615Y-15606114D01*
X12475805Y-15806114D02*
X12485329Y-15796590D01*
X12485329Y-15796590D02*
X12504377Y-15768019D01*
X12504377Y-15768019D02*
X12513900Y-15748971D01*
X12513900Y-15748971D02*
X12523424Y-15720400D01*
X12523424Y-15720400D02*
X12532948Y-15672781D01*
X12532948Y-15672781D02*
X12532948Y-15634686D01*
X12532948Y-15634686D02*
X12523424Y-15587067D01*
X12523424Y-15587067D02*
X12513900Y-15558495D01*
X12513900Y-15558495D02*
X12504377Y-15539448D01*
X12504377Y-15539448D02*
X12485329Y-15510876D01*
X12485329Y-15510876D02*
X12475805Y-15501352D01*
X12837710Y-15806114D02*
X12828186Y-15796590D01*
X12828186Y-15796590D02*
X12809138Y-15768019D01*
X12809138Y-15768019D02*
X12799615Y-15748971D01*
X12799615Y-15748971D02*
X12790091Y-15720400D01*
X12790091Y-15720400D02*
X12780567Y-15672781D01*
X12780567Y-15672781D02*
X12780567Y-15634686D01*
X12780567Y-15634686D02*
X12790091Y-15587067D01*
X12790091Y-15587067D02*
X12799615Y-15558495D01*
X12799615Y-15558495D02*
X12809138Y-15539448D01*
X12809138Y-15539448D02*
X12828186Y-15510876D01*
X12828186Y-15510876D02*
X12837710Y-15501352D01*
X12913900Y-15596590D02*
X12913900Y-15729924D01*
X12913900Y-15615638D02*
X12923424Y-15606114D01*
X12923424Y-15606114D02*
X12942472Y-15596590D01*
X12942472Y-15596590D02*
X12971043Y-15596590D01*
X12971043Y-15596590D02*
X12990091Y-15606114D01*
X12990091Y-15606114D02*
X12999615Y-15625162D01*
X12999615Y-15625162D02*
X12999615Y-15729924D01*
X13123424Y-15729924D02*
X13104377Y-15720400D01*
X13104377Y-15720400D02*
X13094853Y-15710876D01*
X13094853Y-15710876D02*
X13085329Y-15691828D01*
X13085329Y-15691828D02*
X13085329Y-15634686D01*
X13085329Y-15634686D02*
X13094853Y-15615638D01*
X13094853Y-15615638D02*
X13104377Y-15606114D01*
X13104377Y-15606114D02*
X13123424Y-15596590D01*
X13123424Y-15596590D02*
X13151996Y-15596590D01*
X13151996Y-15596590D02*
X13171043Y-15606114D01*
X13171043Y-15606114D02*
X13180567Y-15615638D01*
X13180567Y-15615638D02*
X13190091Y-15634686D01*
X13190091Y-15634686D02*
X13190091Y-15691828D01*
X13190091Y-15691828D02*
X13180567Y-15710876D01*
X13180567Y-15710876D02*
X13171043Y-15720400D01*
X13171043Y-15720400D02*
X13151996Y-15729924D01*
X13151996Y-15729924D02*
X13123424Y-15729924D01*
X13247234Y-15596590D02*
X13323424Y-15596590D01*
X13275805Y-15529924D02*
X13275805Y-15701352D01*
X13275805Y-15701352D02*
X13285329Y-15720400D01*
X13285329Y-15720400D02*
X13304377Y-15729924D01*
X13304377Y-15729924D02*
X13323424Y-15729924D01*
X13542472Y-15596590D02*
X13542472Y-15796590D01*
X13542472Y-15606114D02*
X13561519Y-15596590D01*
X13561519Y-15596590D02*
X13599615Y-15596590D01*
X13599615Y-15596590D02*
X13618662Y-15606114D01*
X13618662Y-15606114D02*
X13628186Y-15615638D01*
X13628186Y-15615638D02*
X13637710Y-15634686D01*
X13637710Y-15634686D02*
X13637710Y-15691828D01*
X13637710Y-15691828D02*
X13628186Y-15710876D01*
X13628186Y-15710876D02*
X13618662Y-15720400D01*
X13618662Y-15720400D02*
X13599615Y-15729924D01*
X13599615Y-15729924D02*
X13561519Y-15729924D01*
X13561519Y-15729924D02*
X13542472Y-15720400D01*
X13751996Y-15729924D02*
X13732948Y-15720400D01*
X13732948Y-15720400D02*
X13723424Y-15701352D01*
X13723424Y-15701352D02*
X13723424Y-15529924D01*
X13913900Y-15729924D02*
X13913900Y-15625162D01*
X13913900Y-15625162D02*
X13904377Y-15606114D01*
X13904377Y-15606114D02*
X13885329Y-15596590D01*
X13885329Y-15596590D02*
X13847234Y-15596590D01*
X13847234Y-15596590D02*
X13828186Y-15606114D01*
X13913900Y-15720400D02*
X13894853Y-15729924D01*
X13894853Y-15729924D02*
X13847234Y-15729924D01*
X13847234Y-15729924D02*
X13828186Y-15720400D01*
X13828186Y-15720400D02*
X13818662Y-15701352D01*
X13818662Y-15701352D02*
X13818662Y-15682305D01*
X13818662Y-15682305D02*
X13828186Y-15663257D01*
X13828186Y-15663257D02*
X13847234Y-15653733D01*
X13847234Y-15653733D02*
X13894853Y-15653733D01*
X13894853Y-15653733D02*
X13913900Y-15644209D01*
X13980567Y-15596590D02*
X14056758Y-15596590D01*
X14009139Y-15529924D02*
X14009139Y-15701352D01*
X14009139Y-15701352D02*
X14018662Y-15720400D01*
X14018662Y-15720400D02*
X14037710Y-15729924D01*
X14037710Y-15729924D02*
X14056758Y-15729924D01*
X14199615Y-15720400D02*
X14180567Y-15729924D01*
X14180567Y-15729924D02*
X14142472Y-15729924D01*
X14142472Y-15729924D02*
X14123424Y-15720400D01*
X14123424Y-15720400D02*
X14113900Y-15701352D01*
X14113900Y-15701352D02*
X14113900Y-15625162D01*
X14113900Y-15625162D02*
X14123424Y-15606114D01*
X14123424Y-15606114D02*
X14142472Y-15596590D01*
X14142472Y-15596590D02*
X14180567Y-15596590D01*
X14180567Y-15596590D02*
X14199615Y-15606114D01*
X14199615Y-15606114D02*
X14209139Y-15625162D01*
X14209139Y-15625162D02*
X14209139Y-15644209D01*
X14209139Y-15644209D02*
X14113900Y-15663257D01*
X14380567Y-15729924D02*
X14380567Y-15529924D01*
X14380567Y-15720400D02*
X14361520Y-15729924D01*
X14361520Y-15729924D02*
X14323424Y-15729924D01*
X14323424Y-15729924D02*
X14304377Y-15720400D01*
X14304377Y-15720400D02*
X14294853Y-15710876D01*
X14294853Y-15710876D02*
X14285329Y-15691828D01*
X14285329Y-15691828D02*
X14285329Y-15634686D01*
X14285329Y-15634686D02*
X14294853Y-15615638D01*
X14294853Y-15615638D02*
X14304377Y-15606114D01*
X14304377Y-15606114D02*
X14323424Y-15596590D01*
X14323424Y-15596590D02*
X14361520Y-15596590D01*
X14361520Y-15596590D02*
X14380567Y-15606114D01*
X14456758Y-15806114D02*
X14466281Y-15796590D01*
X14466281Y-15796590D02*
X14485329Y-15768019D01*
X14485329Y-15768019D02*
X14494853Y-15748971D01*
X14494853Y-15748971D02*
X14504377Y-15720400D01*
X14504377Y-15720400D02*
X14513900Y-15672781D01*
X14513900Y-15672781D02*
X14513900Y-15634686D01*
X14513900Y-15634686D02*
X14504377Y-15587067D01*
X14504377Y-15587067D02*
X14494853Y-15558495D01*
X14494853Y-15558495D02*
X14485329Y-15539448D01*
X14485329Y-15539448D02*
X14466281Y-15510876D01*
X14466281Y-15510876D02*
X14456758Y-15501352D01*
X7613900Y-15857400D02*
X7613900Y-16057400D01*
X7513900Y-15957400D02*
X7713900Y-15957400D01*
X7942471Y-15849924D02*
X8066281Y-15849924D01*
X8066281Y-15849924D02*
X7999614Y-15926114D01*
X7999614Y-15926114D02*
X8028186Y-15926114D01*
X8028186Y-15926114D02*
X8047233Y-15935638D01*
X8047233Y-15935638D02*
X8056757Y-15945162D01*
X8056757Y-15945162D02*
X8066281Y-15964209D01*
X8066281Y-15964209D02*
X8066281Y-16011828D01*
X8066281Y-16011828D02*
X8056757Y-16030876D01*
X8056757Y-16030876D02*
X8047233Y-16040400D01*
X8047233Y-16040400D02*
X8028186Y-16049924D01*
X8028186Y-16049924D02*
X7971043Y-16049924D01*
X7971043Y-16049924D02*
X7951995Y-16040400D01*
X7951995Y-16040400D02*
X7942471Y-16030876D01*
X8151995Y-16030876D02*
X8161519Y-16040400D01*
X8161519Y-16040400D02*
X8151995Y-16049924D01*
X8151995Y-16049924D02*
X8142471Y-16040400D01*
X8142471Y-16040400D02*
X8151995Y-16030876D01*
X8151995Y-16030876D02*
X8151995Y-16049924D01*
X8342471Y-15849924D02*
X8247233Y-15849924D01*
X8247233Y-15849924D02*
X8237709Y-15945162D01*
X8237709Y-15945162D02*
X8247233Y-15935638D01*
X8247233Y-15935638D02*
X8266281Y-15926114D01*
X8266281Y-15926114D02*
X8313900Y-15926114D01*
X8313900Y-15926114D02*
X8332948Y-15935638D01*
X8332948Y-15935638D02*
X8342471Y-15945162D01*
X8342471Y-15945162D02*
X8351995Y-15964209D01*
X8351995Y-15964209D02*
X8351995Y-16011828D01*
X8351995Y-16011828D02*
X8342471Y-16030876D01*
X8342471Y-16030876D02*
X8332948Y-16040400D01*
X8332948Y-16040400D02*
X8313900Y-16049924D01*
X8313900Y-16049924D02*
X8266281Y-16049924D01*
X8266281Y-16049924D02*
X8247233Y-16040400D01*
X8247233Y-16040400D02*
X8237709Y-16030876D01*
X8475805Y-15849924D02*
X8494852Y-15849924D01*
X8494852Y-15849924D02*
X8513900Y-15859448D01*
X8513900Y-15859448D02*
X8523424Y-15868971D01*
X8523424Y-15868971D02*
X8532948Y-15888019D01*
X8532948Y-15888019D02*
X8542471Y-15926114D01*
X8542471Y-15926114D02*
X8542471Y-15973733D01*
X8542471Y-15973733D02*
X8532948Y-16011828D01*
X8532948Y-16011828D02*
X8523424Y-16030876D01*
X8523424Y-16030876D02*
X8513900Y-16040400D01*
X8513900Y-16040400D02*
X8494852Y-16049924D01*
X8494852Y-16049924D02*
X8475805Y-16049924D01*
X8475805Y-16049924D02*
X8456757Y-16040400D01*
X8456757Y-16040400D02*
X8447233Y-16030876D01*
X8447233Y-16030876D02*
X8437710Y-16011828D01*
X8437710Y-16011828D02*
X8428186Y-15973733D01*
X8428186Y-15973733D02*
X8428186Y-15926114D01*
X8428186Y-15926114D02*
X8437710Y-15888019D01*
X8437710Y-15888019D02*
X8447233Y-15868971D01*
X8447233Y-15868971D02*
X8456757Y-15859448D01*
X8456757Y-15859448D02*
X8475805Y-15849924D01*
X8666281Y-15849924D02*
X8685329Y-15849924D01*
X8685329Y-15849924D02*
X8704376Y-15859448D01*
X8704376Y-15859448D02*
X8713900Y-15868971D01*
X8713900Y-15868971D02*
X8723424Y-15888019D01*
X8723424Y-15888019D02*
X8732948Y-15926114D01*
X8732948Y-15926114D02*
X8732948Y-15973733D01*
X8732948Y-15973733D02*
X8723424Y-16011828D01*
X8723424Y-16011828D02*
X8713900Y-16030876D01*
X8713900Y-16030876D02*
X8704376Y-16040400D01*
X8704376Y-16040400D02*
X8685329Y-16049924D01*
X8685329Y-16049924D02*
X8666281Y-16049924D01*
X8666281Y-16049924D02*
X8647233Y-16040400D01*
X8647233Y-16040400D02*
X8637710Y-16030876D01*
X8637710Y-16030876D02*
X8628186Y-16011828D01*
X8628186Y-16011828D02*
X8618662Y-15973733D01*
X8618662Y-15973733D02*
X8618662Y-15926114D01*
X8618662Y-15926114D02*
X8628186Y-15888019D01*
X8628186Y-15888019D02*
X8637710Y-15868971D01*
X8637710Y-15868971D02*
X8647233Y-15859448D01*
X8647233Y-15859448D02*
X8666281Y-15849924D01*
X8818662Y-16049924D02*
X8818662Y-15916590D01*
X8818662Y-15935638D02*
X8828186Y-15926114D01*
X8828186Y-15926114D02*
X8847233Y-15916590D01*
X8847233Y-15916590D02*
X8875805Y-15916590D01*
X8875805Y-15916590D02*
X8894852Y-15926114D01*
X8894852Y-15926114D02*
X8904376Y-15945162D01*
X8904376Y-15945162D02*
X8904376Y-16049924D01*
X8904376Y-15945162D02*
X8913900Y-15926114D01*
X8913900Y-15926114D02*
X8932948Y-15916590D01*
X8932948Y-15916590D02*
X8961519Y-15916590D01*
X8961519Y-15916590D02*
X8980567Y-15926114D01*
X8980567Y-15926114D02*
X8990091Y-15945162D01*
X8990091Y-15945162D02*
X8990091Y-16049924D01*
X9085329Y-16049924D02*
X9085329Y-15916590D01*
X9085329Y-15935638D02*
X9094852Y-15926114D01*
X9094852Y-15926114D02*
X9113900Y-15916590D01*
X9113900Y-15916590D02*
X9142472Y-15916590D01*
X9142472Y-15916590D02*
X9161519Y-15926114D01*
X9161519Y-15926114D02*
X9171043Y-15945162D01*
X9171043Y-15945162D02*
X9171043Y-16049924D01*
X9171043Y-15945162D02*
X9180567Y-15926114D01*
X9180567Y-15926114D02*
X9199614Y-15916590D01*
X9199614Y-15916590D02*
X9228186Y-15916590D01*
X9228186Y-15916590D02*
X9247233Y-15926114D01*
X9247233Y-15926114D02*
X9256757Y-15945162D01*
X9256757Y-15945162D02*
X9256757Y-16049924D01*
X9647233Y-15840400D02*
X9475805Y-16097543D01*
X9904376Y-15849924D02*
X9923424Y-15849924D01*
X9923424Y-15849924D02*
X9942472Y-15859448D01*
X9942472Y-15859448D02*
X9951995Y-15868971D01*
X9951995Y-15868971D02*
X9961519Y-15888019D01*
X9961519Y-15888019D02*
X9971043Y-15926114D01*
X9971043Y-15926114D02*
X9971043Y-15973733D01*
X9971043Y-15973733D02*
X9961519Y-16011828D01*
X9961519Y-16011828D02*
X9951995Y-16030876D01*
X9951995Y-16030876D02*
X9942472Y-16040400D01*
X9942472Y-16040400D02*
X9923424Y-16049924D01*
X9923424Y-16049924D02*
X9904376Y-16049924D01*
X9904376Y-16049924D02*
X9885329Y-16040400D01*
X9885329Y-16040400D02*
X9875805Y-16030876D01*
X9875805Y-16030876D02*
X9866281Y-16011828D01*
X9866281Y-16011828D02*
X9856757Y-15973733D01*
X9856757Y-15973733D02*
X9856757Y-15926114D01*
X9856757Y-15926114D02*
X9866281Y-15888019D01*
X9866281Y-15888019D02*
X9875805Y-15868971D01*
X9875805Y-15868971D02*
X9885329Y-15859448D01*
X9885329Y-15859448D02*
X9904376Y-15849924D01*
X10056757Y-16030876D02*
X10066281Y-16040400D01*
X10066281Y-16040400D02*
X10056757Y-16049924D01*
X10056757Y-16049924D02*
X10047234Y-16040400D01*
X10047234Y-16040400D02*
X10056757Y-16030876D01*
X10056757Y-16030876D02*
X10056757Y-16049924D01*
X10256757Y-16049924D02*
X10142472Y-16049924D01*
X10199614Y-16049924D02*
X10199614Y-15849924D01*
X10199614Y-15849924D02*
X10180567Y-15878495D01*
X10180567Y-15878495D02*
X10161519Y-15897543D01*
X10161519Y-15897543D02*
X10142472Y-15907067D01*
X10323424Y-15849924D02*
X10447234Y-15849924D01*
X10447234Y-15849924D02*
X10380567Y-15926114D01*
X10380567Y-15926114D02*
X10409138Y-15926114D01*
X10409138Y-15926114D02*
X10428186Y-15935638D01*
X10428186Y-15935638D02*
X10437710Y-15945162D01*
X10437710Y-15945162D02*
X10447234Y-15964209D01*
X10447234Y-15964209D02*
X10447234Y-16011828D01*
X10447234Y-16011828D02*
X10437710Y-16030876D01*
X10437710Y-16030876D02*
X10428186Y-16040400D01*
X10428186Y-16040400D02*
X10409138Y-16049924D01*
X10409138Y-16049924D02*
X10351995Y-16049924D01*
X10351995Y-16049924D02*
X10332948Y-16040400D01*
X10332948Y-16040400D02*
X10323424Y-16030876D01*
X10513900Y-15849924D02*
X10647234Y-15849924D01*
X10647234Y-15849924D02*
X10561519Y-16049924D01*
X10751995Y-15935638D02*
X10732948Y-15926114D01*
X10732948Y-15926114D02*
X10723424Y-15916590D01*
X10723424Y-15916590D02*
X10713900Y-15897543D01*
X10713900Y-15897543D02*
X10713900Y-15888019D01*
X10713900Y-15888019D02*
X10723424Y-15868971D01*
X10723424Y-15868971D02*
X10732948Y-15859448D01*
X10732948Y-15859448D02*
X10751995Y-15849924D01*
X10751995Y-15849924D02*
X10790091Y-15849924D01*
X10790091Y-15849924D02*
X10809138Y-15859448D01*
X10809138Y-15859448D02*
X10818662Y-15868971D01*
X10818662Y-15868971D02*
X10828186Y-15888019D01*
X10828186Y-15888019D02*
X10828186Y-15897543D01*
X10828186Y-15897543D02*
X10818662Y-15916590D01*
X10818662Y-15916590D02*
X10809138Y-15926114D01*
X10809138Y-15926114D02*
X10790091Y-15935638D01*
X10790091Y-15935638D02*
X10751995Y-15935638D01*
X10751995Y-15935638D02*
X10732948Y-15945162D01*
X10732948Y-15945162D02*
X10723424Y-15954686D01*
X10723424Y-15954686D02*
X10713900Y-15973733D01*
X10713900Y-15973733D02*
X10713900Y-16011828D01*
X10713900Y-16011828D02*
X10723424Y-16030876D01*
X10723424Y-16030876D02*
X10732948Y-16040400D01*
X10732948Y-16040400D02*
X10751995Y-16049924D01*
X10751995Y-16049924D02*
X10790091Y-16049924D01*
X10790091Y-16049924D02*
X10809138Y-16040400D01*
X10809138Y-16040400D02*
X10818662Y-16030876D01*
X10818662Y-16030876D02*
X10828186Y-16011828D01*
X10828186Y-16011828D02*
X10828186Y-15973733D01*
X10828186Y-15973733D02*
X10818662Y-15954686D01*
X10818662Y-15954686D02*
X10809138Y-15945162D01*
X10809138Y-15945162D02*
X10790091Y-15935638D01*
X10904376Y-15849924D02*
X10904376Y-15888019D01*
X10980567Y-15849924D02*
X10980567Y-15888019D01*
X11275805Y-16126114D02*
X11266281Y-16116590D01*
X11266281Y-16116590D02*
X11247234Y-16088019D01*
X11247234Y-16088019D02*
X11237710Y-16068971D01*
X11237710Y-16068971D02*
X11228186Y-16040400D01*
X11228186Y-16040400D02*
X11218662Y-15992781D01*
X11218662Y-15992781D02*
X11218662Y-15954686D01*
X11218662Y-15954686D02*
X11228186Y-15907067D01*
X11228186Y-15907067D02*
X11237710Y-15878495D01*
X11237710Y-15878495D02*
X11247234Y-15859448D01*
X11247234Y-15859448D02*
X11266281Y-15830876D01*
X11266281Y-15830876D02*
X11275805Y-15821352D01*
X11342472Y-15868971D02*
X11351995Y-15859448D01*
X11351995Y-15859448D02*
X11371043Y-15849924D01*
X11371043Y-15849924D02*
X11418662Y-15849924D01*
X11418662Y-15849924D02*
X11437710Y-15859448D01*
X11437710Y-15859448D02*
X11447234Y-15868971D01*
X11447234Y-15868971D02*
X11456757Y-15888019D01*
X11456757Y-15888019D02*
X11456757Y-15907067D01*
X11456757Y-15907067D02*
X11447234Y-15935638D01*
X11447234Y-15935638D02*
X11332948Y-16049924D01*
X11332948Y-16049924D02*
X11456757Y-16049924D01*
X11694853Y-16049924D02*
X11694853Y-15849924D01*
X11780567Y-16049924D02*
X11780567Y-15945162D01*
X11780567Y-15945162D02*
X11771043Y-15926114D01*
X11771043Y-15926114D02*
X11751996Y-15916590D01*
X11751996Y-15916590D02*
X11723424Y-15916590D01*
X11723424Y-15916590D02*
X11704376Y-15926114D01*
X11704376Y-15926114D02*
X11694853Y-15935638D01*
X11904376Y-16049924D02*
X11885329Y-16040400D01*
X11885329Y-16040400D02*
X11875805Y-16030876D01*
X11875805Y-16030876D02*
X11866281Y-16011828D01*
X11866281Y-16011828D02*
X11866281Y-15954686D01*
X11866281Y-15954686D02*
X11875805Y-15935638D01*
X11875805Y-15935638D02*
X11885329Y-15926114D01*
X11885329Y-15926114D02*
X11904376Y-15916590D01*
X11904376Y-15916590D02*
X11932948Y-15916590D01*
X11932948Y-15916590D02*
X11951996Y-15926114D01*
X11951996Y-15926114D02*
X11961519Y-15935638D01*
X11961519Y-15935638D02*
X11971043Y-15954686D01*
X11971043Y-15954686D02*
X11971043Y-16011828D01*
X11971043Y-16011828D02*
X11961519Y-16030876D01*
X11961519Y-16030876D02*
X11951996Y-16040400D01*
X11951996Y-16040400D02*
X11932948Y-16049924D01*
X11932948Y-16049924D02*
X11904376Y-16049924D01*
X12085329Y-16049924D02*
X12066281Y-16040400D01*
X12066281Y-16040400D02*
X12056757Y-16021352D01*
X12056757Y-16021352D02*
X12056757Y-15849924D01*
X12237710Y-16040400D02*
X12218662Y-16049924D01*
X12218662Y-16049924D02*
X12180567Y-16049924D01*
X12180567Y-16049924D02*
X12161519Y-16040400D01*
X12161519Y-16040400D02*
X12151996Y-16021352D01*
X12151996Y-16021352D02*
X12151996Y-15945162D01*
X12151996Y-15945162D02*
X12161519Y-15926114D01*
X12161519Y-15926114D02*
X12180567Y-15916590D01*
X12180567Y-15916590D02*
X12218662Y-15916590D01*
X12218662Y-15916590D02*
X12237710Y-15926114D01*
X12237710Y-15926114D02*
X12247234Y-15945162D01*
X12247234Y-15945162D02*
X12247234Y-15964209D01*
X12247234Y-15964209D02*
X12151996Y-15983257D01*
X12323424Y-16040400D02*
X12342472Y-16049924D01*
X12342472Y-16049924D02*
X12380567Y-16049924D01*
X12380567Y-16049924D02*
X12399615Y-16040400D01*
X12399615Y-16040400D02*
X12409138Y-16021352D01*
X12409138Y-16021352D02*
X12409138Y-16011828D01*
X12409138Y-16011828D02*
X12399615Y-15992781D01*
X12399615Y-15992781D02*
X12380567Y-15983257D01*
X12380567Y-15983257D02*
X12351996Y-15983257D01*
X12351996Y-15983257D02*
X12332948Y-15973733D01*
X12332948Y-15973733D02*
X12323424Y-15954686D01*
X12323424Y-15954686D02*
X12323424Y-15945162D01*
X12323424Y-15945162D02*
X12332948Y-15926114D01*
X12332948Y-15926114D02*
X12351996Y-15916590D01*
X12351996Y-15916590D02*
X12380567Y-15916590D01*
X12380567Y-15916590D02*
X12399615Y-15926114D01*
X12475805Y-16126114D02*
X12485329Y-16116590D01*
X12485329Y-16116590D02*
X12504377Y-16088019D01*
X12504377Y-16088019D02*
X12513900Y-16068971D01*
X12513900Y-16068971D02*
X12523424Y-16040400D01*
X12523424Y-16040400D02*
X12532948Y-15992781D01*
X12532948Y-15992781D02*
X12532948Y-15954686D01*
X12532948Y-15954686D02*
X12523424Y-15907067D01*
X12523424Y-15907067D02*
X12513900Y-15878495D01*
X12513900Y-15878495D02*
X12504377Y-15859448D01*
X12504377Y-15859448D02*
X12485329Y-15830876D01*
X12485329Y-15830876D02*
X12475805Y-15821352D01*
X12837710Y-16126114D02*
X12828186Y-16116590D01*
X12828186Y-16116590D02*
X12809138Y-16088019D01*
X12809138Y-16088019D02*
X12799615Y-16068971D01*
X12799615Y-16068971D02*
X12790091Y-16040400D01*
X12790091Y-16040400D02*
X12780567Y-15992781D01*
X12780567Y-15992781D02*
X12780567Y-15954686D01*
X12780567Y-15954686D02*
X12790091Y-15907067D01*
X12790091Y-15907067D02*
X12799615Y-15878495D01*
X12799615Y-15878495D02*
X12809138Y-15859448D01*
X12809138Y-15859448D02*
X12828186Y-15830876D01*
X12828186Y-15830876D02*
X12837710Y-15821352D01*
X12913900Y-15916590D02*
X12913900Y-16049924D01*
X12913900Y-15935638D02*
X12923424Y-15926114D01*
X12923424Y-15926114D02*
X12942472Y-15916590D01*
X12942472Y-15916590D02*
X12971043Y-15916590D01*
X12971043Y-15916590D02*
X12990091Y-15926114D01*
X12990091Y-15926114D02*
X12999615Y-15945162D01*
X12999615Y-15945162D02*
X12999615Y-16049924D01*
X13123424Y-16049924D02*
X13104377Y-16040400D01*
X13104377Y-16040400D02*
X13094853Y-16030876D01*
X13094853Y-16030876D02*
X13085329Y-16011828D01*
X13085329Y-16011828D02*
X13085329Y-15954686D01*
X13085329Y-15954686D02*
X13094853Y-15935638D01*
X13094853Y-15935638D02*
X13104377Y-15926114D01*
X13104377Y-15926114D02*
X13123424Y-15916590D01*
X13123424Y-15916590D02*
X13151996Y-15916590D01*
X13151996Y-15916590D02*
X13171043Y-15926114D01*
X13171043Y-15926114D02*
X13180567Y-15935638D01*
X13180567Y-15935638D02*
X13190091Y-15954686D01*
X13190091Y-15954686D02*
X13190091Y-16011828D01*
X13190091Y-16011828D02*
X13180567Y-16030876D01*
X13180567Y-16030876D02*
X13171043Y-16040400D01*
X13171043Y-16040400D02*
X13151996Y-16049924D01*
X13151996Y-16049924D02*
X13123424Y-16049924D01*
X13247234Y-15916590D02*
X13323424Y-15916590D01*
X13275805Y-15849924D02*
X13275805Y-16021352D01*
X13275805Y-16021352D02*
X13285329Y-16040400D01*
X13285329Y-16040400D02*
X13304377Y-16049924D01*
X13304377Y-16049924D02*
X13323424Y-16049924D01*
X13542472Y-15916590D02*
X13542472Y-16116590D01*
X13542472Y-15926114D02*
X13561519Y-15916590D01*
X13561519Y-15916590D02*
X13599615Y-15916590D01*
X13599615Y-15916590D02*
X13618662Y-15926114D01*
X13618662Y-15926114D02*
X13628186Y-15935638D01*
X13628186Y-15935638D02*
X13637710Y-15954686D01*
X13637710Y-15954686D02*
X13637710Y-16011828D01*
X13637710Y-16011828D02*
X13628186Y-16030876D01*
X13628186Y-16030876D02*
X13618662Y-16040400D01*
X13618662Y-16040400D02*
X13599615Y-16049924D01*
X13599615Y-16049924D02*
X13561519Y-16049924D01*
X13561519Y-16049924D02*
X13542472Y-16040400D01*
X13751996Y-16049924D02*
X13732948Y-16040400D01*
X13732948Y-16040400D02*
X13723424Y-16021352D01*
X13723424Y-16021352D02*
X13723424Y-15849924D01*
X13913900Y-16049924D02*
X13913900Y-15945162D01*
X13913900Y-15945162D02*
X13904377Y-15926114D01*
X13904377Y-15926114D02*
X13885329Y-15916590D01*
X13885329Y-15916590D02*
X13847234Y-15916590D01*
X13847234Y-15916590D02*
X13828186Y-15926114D01*
X13913900Y-16040400D02*
X13894853Y-16049924D01*
X13894853Y-16049924D02*
X13847234Y-16049924D01*
X13847234Y-16049924D02*
X13828186Y-16040400D01*
X13828186Y-16040400D02*
X13818662Y-16021352D01*
X13818662Y-16021352D02*
X13818662Y-16002305D01*
X13818662Y-16002305D02*
X13828186Y-15983257D01*
X13828186Y-15983257D02*
X13847234Y-15973733D01*
X13847234Y-15973733D02*
X13894853Y-15973733D01*
X13894853Y-15973733D02*
X13913900Y-15964209D01*
X13980567Y-15916590D02*
X14056758Y-15916590D01*
X14009139Y-15849924D02*
X14009139Y-16021352D01*
X14009139Y-16021352D02*
X14018662Y-16040400D01*
X14018662Y-16040400D02*
X14037710Y-16049924D01*
X14037710Y-16049924D02*
X14056758Y-16049924D01*
X14199615Y-16040400D02*
X14180567Y-16049924D01*
X14180567Y-16049924D02*
X14142472Y-16049924D01*
X14142472Y-16049924D02*
X14123424Y-16040400D01*
X14123424Y-16040400D02*
X14113900Y-16021352D01*
X14113900Y-16021352D02*
X14113900Y-15945162D01*
X14113900Y-15945162D02*
X14123424Y-15926114D01*
X14123424Y-15926114D02*
X14142472Y-15916590D01*
X14142472Y-15916590D02*
X14180567Y-15916590D01*
X14180567Y-15916590D02*
X14199615Y-15926114D01*
X14199615Y-15926114D02*
X14209139Y-15945162D01*
X14209139Y-15945162D02*
X14209139Y-15964209D01*
X14209139Y-15964209D02*
X14113900Y-15983257D01*
X14380567Y-16049924D02*
X14380567Y-15849924D01*
X14380567Y-16040400D02*
X14361520Y-16049924D01*
X14361520Y-16049924D02*
X14323424Y-16049924D01*
X14323424Y-16049924D02*
X14304377Y-16040400D01*
X14304377Y-16040400D02*
X14294853Y-16030876D01*
X14294853Y-16030876D02*
X14285329Y-16011828D01*
X14285329Y-16011828D02*
X14285329Y-15954686D01*
X14285329Y-15954686D02*
X14294853Y-15935638D01*
X14294853Y-15935638D02*
X14304377Y-15926114D01*
X14304377Y-15926114D02*
X14323424Y-15916590D01*
X14323424Y-15916590D02*
X14361520Y-15916590D01*
X14361520Y-15916590D02*
X14380567Y-15926114D01*
X14456758Y-16126114D02*
X14466281Y-16116590D01*
X14466281Y-16116590D02*
X14485329Y-16088019D01*
X14485329Y-16088019D02*
X14494853Y-16068971D01*
X14494853Y-16068971D02*
X14504377Y-16040400D01*
X14504377Y-16040400D02*
X14513900Y-15992781D01*
X14513900Y-15992781D02*
X14513900Y-15954686D01*
X14513900Y-15954686D02*
X14504377Y-15907067D01*
X14504377Y-15907067D02*
X14494853Y-15878495D01*
X14494853Y-15878495D02*
X14485329Y-15859448D01*
X14485329Y-15859448D02*
X14466281Y-15830876D01*
X14466281Y-15830876D02*
X14456758Y-15821352D01*
M02*
